<?xml version="1.0" encoding="UTF-8" standalone="no"?>
<svg width="122px" height="60px" viewBox="0 0 122 60" version="1.1" xmlns="http://www.w3.org/2000/svg" xmlns:xlink="http://www.w3.org/1999/xlink">
    <!-- Generator: Sketch 3.8.2 (29753) - http://www.bohemiancoding.com/sketch -->
    <title>cn</title>
    <desc>Created with Sketch.</desc>
    <defs>
        <polygon id="path-1" points="3.7091466 16.3375059 9.00278301 0 14.2964194 16.3375059 0.432133585 6.22810999 17.5734324 6.22810999"></polygon>
    </defs>
    <g id="Page-1" stroke="none" stroke-width="1" fill="none" fill-rule="evenodd">
        <g id="cn">
            <g>
                <rect id="Rectangle-46" fill="#DE2910" x="0" y="0" width="122" height="60"></rect>
                <g id="Flag-of-the-People's-Republic-of-China" transform="translate(6.000000, 1.000000)">
                    <g id="Clipped">
                        <g id="Group" transform="translate(0.000000, 0.057590)">
                            <g id="b-link" transform="translate(0.001855, 5.043926)">
                                <mask id="mask-2" fill="white">
                                    <use xlink:href="#path-1"></use>
                                </mask>
                                <use id="b" fill="#FFDE00" xlink:href="#path-1"></use>
                            </g>
                            <g id="b-link" transform="translate(24.038351, 5.049697) rotate(239.070000) translate(-24.038351, -5.049697) translate(21.038351, 2.049697)" fill="#FFDE00">
                                <polygon id="b" points="1.23639386 5.44583282 3.00093933 -2.49304888e-06 4.7654848 5.44583282 0.144056186 2.07603417 5.85782247 2.07603417"></polygon>
                            </g>
                            <g id="b-link" transform="translate(29.995953, 11.039271) rotate(261.890000) translate(-29.995953, -11.039271) translate(26.995953, 8.039271)" fill="#FFDE00">
                                <polygon id="b" points="1.23653031 5.44580264 3.00107578 -3.26685176e-05 4.76562125 5.44580264 0.144192641 2.076004 5.85795893 2.076004"></polygon>
                            </g>
                            <g id="b-link" transform="translate(29.996999, 20.088694) rotate(-74.040000) translate(-29.996999, -20.088694) translate(26.996999, 17.088694)" fill="#FFDE00">
                                <polygon id="b" points="1.23637554 5.44583673 3.00092101 1.41873516e-06 4.76546648 5.44583673 0.144037866 2.07603808 5.85780415 2.07603808"></polygon>
                            </g>
                            <g id="b-link" transform="translate(23.691262, 25.862953) rotate(-51.320000) translate(-23.691262, -25.862953) translate(20.691262, 22.362953)" fill="#FFDE00">
                                <polygon id="b" points="1.23415865 6.335251 2.99870412 0.889415694 4.76324959 6.335251 0.141820975 2.96545236 5.85558726 2.96545236"></polygon>
                            </g>
                        </g>
                    </g>
                </g>
            </g>
        </g>
    </g>
</svg>