<?xml version="1.0" encoding="UTF-8" standalone="no"?>
<svg width="122px" height="60px" viewBox="0 0 122 60" version="1.1" xmlns="http://www.w3.org/2000/svg" xmlns:xlink="http://www.w3.org/1999/xlink">
    <!-- Generator: Sketch 3.8.2 (29753) - http://www.bohemiancoding.com/sketch -->
    <title>ca</title>
    <desc>Created with Sketch.</desc>
    <defs></defs>
    <g id="Page-1" stroke="none" stroke-width="1" fill="none" fill-rule="evenodd">
        <g id="ca">
            <g transform="translate(-1.000000, 0.000000)" id="Clipped">
                <g>
                    <g id="Group" transform="translate(0.786552, 0.000000)">
                        <rect id="Rectangle-37" fill="#BF0A30" x="0.213448401" y="0" width="36" height="60"></rect>
                        <rect id="Rectangle-37-Copy" fill="#BF0A30" x="86.2134484" y="0" width="36" height="60"></rect>
                        <rect id="Rectangle-37-Copy-2" fill="#FFFFFF" x="36.6166742" y="0" width="49.1935484" height="59.0322581"></rect>
                        <path d="M46.0718342,30.1759825 L44.2134484,30.7412496 L52.8608148,37.4950621 C53.5147574,39.2308364 52.6335863,39.7424924 52.0721205,40.6529392 L61.4598291,39.5924756 L61.2154264,48 L63.1598156,47.9502687 L62.7357437,39.6125798 L72.1327001,40.6039133 C71.5511536,39.5108834 71.0335481,38.9305677 71.5716306,37.182919 L80.2134484,30.7841619 L78.7011897,30.29696 C77.4646438,29.4478838 79.235441,26.207474 79.5025666,24.1624958 C79.5025666,24.1624958 74.4566402,25.7067518 74.1259698,24.8987068 L72.8409397,22.7019483 L68.2505272,27.1895197 C67.7490391,27.2965066 67.5354179,27.1189788 67.4177082,26.7418206 L69.5384637,17.3638898 L66.1802375,19.0447598 C65.8991083,19.1517467 65.617979,19.0594558 65.4327614,18.7678871 L62.2026815,13 L58.8721983,18.9900907 C58.62119,19.2047699 58.3697854,19.2295768 58.1611844,19.0836748 L54.9636034,17.4873362 L56.883156,26.7920222 C56.7304373,27.1611858 56.3647579,27.2652335 55.9346091,27.0652503 L51.5464564,22.6285858 C50.9724401,23.4470944 50.5833773,24.7843131 49.8246718,25.083994 C49.0658343,25.3646288 46.5245739,24.5169634 44.8212847,24.186127 C45.4030954,26.0548707 47.2225089,29.1594894 46.0710416,30.1770406 L46.0718342,30.1759825 Z" id="Shape" fill="#BF0A30"></path>
                    </g>
                </g>
            </g>
        </g>
    </g>
</svg>