<?xml version="1.0" encoding="UTF-8" standalone="no"?>
<svg width="122px" height="60px" viewBox="0 0 122 60" version="1.1" xmlns="http://www.w3.org/2000/svg" xmlns:xlink="http://www.w3.org/1999/xlink">
    <!-- Generator: Sketch 3.8.2 (29753) - http://www.bohemiancoding.com/sketch -->
    <title>ls</title>
    <desc>Created with Sketch.</desc>
    <defs></defs>
    <g id="Page-1" stroke="none" stroke-width="1" fill="none" fill-rule="evenodd">
        <g id="ls">
            <g id="Clipped">
                <g>
                    <g id="Group">
                        <polygon id="Shape" fill="#FFFFFF" points="0 0 122 0 122 60 0 60"></polygon>
                        <polygon id="Shape" fill="#009543" points="0 42 122 42 122 60 0 60"></polygon>
                        <polygon id="Shape" fill="#00209F" points="0 0 122 0 122 18 0 18"></polygon>
                        <path d="M60.9528,19.1138 C60.6108,19.1212 60.2772,19.4998 60.2772,19.4998 L60.3068,23.5466 L59.0292,24.885 L60.0632,24.885 L60.0546,27.2054 L53.9364,35.444 L53.032,35.1314 L51.451,38.5036 C51.451,38.5036 55.361,40.9518 61.0362,40.885 C67.2648,40.811 70.649,38.3906 70.649,38.3906 L69.0154,35.0618 L68.2154,35.4098 L62.0188,27.2138 L62.0102,24.8242 L63.0442,24.8242 L61.6368,23.5022 L61.6452,19.4704 C61.6452,19.4704 61.2948,19.1064 60.9528,19.1138 L60.9528,19.1138 Z" id="Shape" stroke="#000000" stroke-width="0.1" fill="#000000"></path>
                        <path d="M63.086,28.802 L58.8554,28.802 C58.8554,28.802 57.3198,25.5666 57.5688,23.3048 C57.8222,21.0016 59.1384,19.9122 60.8884,19.8928 C62.9574,19.8698 64.0418,20.9068 64.3694,23.2126 C64.694,25.4974 63.0858,28.8018 63.0858,28.8018 L63.086,28.802 Z" id="Shape" stroke="#000000"></path>
                        <path d="M53.5576,36.514 C53.4884,36.606 52.9812,37.6204 52.9812,37.6204 L53.8572,37.436 L53.5576,36.514 L53.5576,36.514 Z M54.0648,37.828 L53.1428,38.1276 L54.2492,38.5656 L54.0648,37.828 L54.0648,37.828 Z M54.4796,36.537 L54.9408,37.897 L56.0704,37.5744 L55.7706,36.9288 L54.4796,36.5368 L54.4796,36.537 Z M55.1944,38.3812 L55.3556,38.9344 L56.8542,39.3034 L56.2548,38.0354 L55.1944,38.3812 L55.1944,38.3812 Z M56.854,37.2286 L57.3844,38.4966 L58.514,38.0586 L58.145,37.5052 L56.8542,37.2286 L56.854,37.2286 Z M57.5918,38.9576 L57.7762,39.4416 L59.5282,39.6952 L58.7906,38.5426 L57.5918,38.9576 L57.5918,38.9576 Z M59.2746,37.5974 L59.9202,38.727 L61.5568,38.1276 L61.3724,37.6896 L59.2746,37.5976 L59.2746,37.5974 Z M60.2198,39.142 L60.5656,39.7414 L62.5942,39.6722 L61.8334,38.5426 L60.2198,39.142 L60.2198,39.142 Z M62.3638,37.6436 L62.917,38.5886 L64.208,37.9662 L63.862,37.459 L62.3638,37.6436 L62.3638,37.6436 Z M64.4846,38.358 L63.1936,39.0036 L63.5394,39.5568 L65.2684,39.2802 L64.4844,38.3582 L64.4846,38.358 Z M64.8996,37.3668 L65.568,38.1968 L66.6516,37.3438 L66.2826,36.9518 L64.8996,37.3668 L64.8996,37.3668 Z M66.882,37.8048 L65.8446,38.5888 L66.1214,39.0728 L67.5506,38.704 L66.882,37.8048 L66.882,37.8048 Z M68.3114,36.168 L68.5648,36.537 L67.8502,37.5974 L67.1126,36.6522 L68.3114,36.1682 L68.3114,36.168 Z M68.7954,37.0902 L69.2334,37.9662 L68.3574,38.266 L68.2882,37.851 L68.7954,37.0902 L68.7954,37.0902 Z" id="Shape" fill="#FFFFFF"></path>
                    </g>
                </g>
            </g>
        </g>
    </g>
</svg>