<?xml version="1.0" encoding="UTF-8" standalone="no"?>
<svg width="122px" height="60px" viewBox="0 0 122 60" version="1.1" xmlns="http://www.w3.org/2000/svg" xmlns:xlink="http://www.w3.org/1999/xlink">
    <!-- Generator: Sketch 3.8.2 (29753) - http://www.bohemiancoding.com/sketch -->
    <title>cc</title>
    <desc>Created with Sketch.</desc>
    <defs></defs>
    <g id="Page-1" stroke="none" stroke-width="1" fill="none" fill-rule="evenodd">
        <g id="cc">
            <g id="Group">
                <g>
                    <polygon id="Shape" fill="#008000" points="0 0 122 0 122 60 0 60"></polygon>
                    <ellipse id="Oval" fill="#FFE000" cx="61" cy="30" rx="8.333375" ry="8.333375"></ellipse>
                    <ellipse id="Oval" fill="#008000" cx="63.598375" cy="30" rx="6.857125" ry="6.857125"></ellipse>
                    <ellipse id="Oval" fill="#FFE000" cx="34.730125" cy="21.666625" rx="8.730125" ry="8.730125"></ellipse>
                    <path d="M34.12775,28.24925 L36.30775,28.24925 C36.30775,28.24925 36.406125,28.04925 36.28575,27.9495 C36.165375,27.8495 35.696625,27.827625 35.82325,27.474125 C36.083625,26.7475 36.12,26.971625 36.2835,25.24575 C36.447,23.52 36.525625,20.81325 36.525625,20.81325 L36.210625,20.81325 C36.210625,20.81325 36.271375,21.655 36.08975,22.751 C35.908,23.84725 35.8535,23.943875 35.65375,24.785625 C35.45375,25.62725 35.42375,25.699875 35.242,26.190375 C35.060375,26.680875 35.042,26.705125 34.7575,27.159125 C34.473,27.613375 34.575875,27.44375 34.4185,27.71625 C34.33975,27.8525 34.242875,27.81625 34.18975,27.915375 C34.136875,28.0145 34.12775,28.249125 34.12775,28.249125 L34.12775,28.24925 Z" id="Shape" stroke="#7B3100" stroke-width="1.481" fill="#802000"></path>
                    <path d="M35.79125,15.30625 C35.809375,15.645 35.775375,16.093125 35.635,16.457875 C35.49275,16.864375 35.338,17.269625 35.345625,17.690375 C35.119375,17.7675 34.886375,17.201 34.668625,17.534125 C34.832125,17.99475 35.209875,18.359125 35.469,18.774125 C35.51275,18.902875 35.88525,19.238625 35.669625,19.316625 C35.1255,19.130375 34.99375,18.44125 34.65625,18.022625 C34.2645,17.318375 33.53375,16.8205 32.72,16.786125 C32.414125,16.794125 31.42,16.71025 31.67875,17.233875 C32.059625,17.492875 32.529,17.66175 32.905,17.952375 C33.185375,17.978625 33.69325,18.446375 33.66375,18.62325 C33.17075,18.423625 32.94,18.18425 32.409125,17.9745 C31.6895,17.696375 30.694125,17.863625 30.296,18.577625 C30.22175,18.763625 30.11225,19.305625 30.345625,19.357375 C30.6185,18.931125 31.008875,18.454875 31.58725,18.58275 C32.041625,18.618375 31.080375,19.42925 31.448,19.266 C31.5645,19.214375 31.833625,19.03775 32.02025,19.01925 C32.206875,19.000875 32.311125,19.1405 32.45275,19.159875 C32.736,19.198625 32.814,19.317375 32.78775,19.386375 C32.75675,19.467625 32.66675,19.398125 32.379,19.4895 C32.234875,19.535125 32.15975,19.661625 31.99175,19.7195 C31.823875,19.7775 31.4745,19.7815 31.344,19.73025 C30.88725,19.532 30.1385,19.5665 29.996125,20.13875 C29.995875,20.3905 29.771875,20.111 29.668375,20.21975 C29.590875,20.494375 29.570875,20.776375 29.163375,20.751375 C28.916125,21.010625 28.662875,21.27925 28.349,21.463875 C28.53325,21.88675 29.26325,21.039125 29.229,21.396375 C28.91,21.831625 29.39325,21.92325 29.604875,21.58825 C29.96275,21.210125 30.405875,20.75 30.939875,21.131 C31.19425,21.370375 31.342,21.004375 31.526125,21.024 C31.642,21.3215 31.788,21.03875 31.919625,20.954625 C32.135,20.927875 32.074375,21.22375 32.3305,21.0415 C32.84075,20.70375 33.4685,20.9875 33.967,20.659 C34.4975,20.41725 34.0415,20.853625 33.895,21.02425 C33.662,21.476375 33.864125,22.07 33.3585,22.35075 C33.155375,22.8895 33.5985,23.6 33.1465,23.998625 C33.080875,24.248625 33.72775,24.219875 33.909375,24.32275 C34.2275,24.33525 33.895625,23.5945 34.211375,23.49525 C34.634875,23.75725 34.615125,23.0265 34.527625,22.801125 C34.568625,22.288875 34.597625,21.728625 34.852125,21.264625 C35.12275,20.695875 35.373375,21.49625 35.070375,21.7215 C34.89825,22.244375 34.647875,22.899 35.039125,23.38525 C35.151875,23.4105 35.2445,23.684 35.390375,23.76775 C35.536625,23.851875 35.736,23.7465 35.772375,23.49775 C35.959625,22.749 35.86525,21.9435 36.13275,21.21525 C36.32175,20.9895 36.582125,21.17875 36.69925,21.38625 C37.07425,21.82125 37.337625,22.365375 37.791375,22.724 C38.2045,22.917375 38.569875,23.20975 38.760125,23.63525 C38.757625,23.963375 39.692625,24.013625 39.413125,23.649 C39.145125,23.29375 39.321875,22.9385 39.593375,22.702375 C39.73875,22.73825 39.695875,22.477875 39.581875,22.580875 C39.399375,22.53775 39.387625,22.20375 39.641375,22.3625 C40.068625,22.5005 39.608,22.05325 39.453625,22.039625 C39.092375,21.815625 38.677375,21.558 38.499625,21.16875 C38.969875,21.17375 39.458125,21.42725 39.938625,21.27 C40.323875,21.072 40.714625,21.28625 40.849125,21.626 C41.146875,21.5785 41.02,21.27975 40.849125,21.180375 C41.067,21.090625 41.217625,20.904125 40.9535,20.739875 C40.814,20.557875 41.1405,20.247375 40.73925,20.260375 C40.75225,19.95375 40.63175,19.67325 40.2975,19.567375 C39.9625,19.283875 38.98025,19.984875 39.00875,19.346125 C38.90975,18.99825 39.40775,19.2995 39.547,19.126125 C39.69075,18.7595 38.86175,18.79525 39.13525,18.511125 C39.314,18.396125 40.152375,18.23075 39.494875,18.10775 C39.166625,18.19775 38.884875,18.131 38.62675,17.968625 C38.391375,18.362375 37.71925,17.754875 37.839,18.454875 C37.747,18.718375 37.1465,19.403625 36.98375,18.878625 C37.122125,18.467375 37.83375,18.332625 37.613125,17.777875 C37.579375,17.431625 37.292125,17.83825 37.156875,17.812375 C37.088375,17.596875 37.364125,17.34275 37.55625,17.291625 C37.9375,17.584875 37.949,16.921625 38.311625,16.975625 C38.576375,16.916875 38.226125,16.803125 38.15225,16.753375 C38.22475,16.559625 38.63125,16.460625 38.23275,16.292375 C37.881125,16.0315 37.6205,16.552 37.3305,16.579875 C37.052125,16.2655 37.58325,16.1145 37.72975,15.949 C37.737625,15.8255 37.420125,15.9115 37.515625,15.80425 C37.598625,15.655875 38.160875,15.644875 37.897625,15.42225 C37.501375,15.286 36.9895,15.32 36.608875,15.496375 C36.369375,15.573875 36.298875,16.115875 36.092125,16.093375 C35.995,15.852125 36.12375,15.376125 35.79125,15.306375 L35.79125,15.30625 Z M37.66625,20.6015 C37.968375,20.55025 37.6725,21.06025 37.5275,21.05275 C37.54025,20.869625 37.090375,20.88725 37.3695,20.72775 C37.4601077,20.6683281 37.5606034,20.625573 37.66625,20.6015 L37.66625,20.6015 Z" id="Shape" fill="#008000"></path>
                    <g transform="translate(68.220188, 13.810000)" fill="#FFE000">
                        <g id="a-link" transform="translate(10.001250, 26.670000)">
                            <polygon id="a" points="2.7860625 0 3.33708375 1.71326969 5.02015125 1.07588844 4.02420931 2.57489325 5.57191069 3.49334138 3.77898819 3.64931325 4.02587619 5.43201225 2.7860625 4.1275 1.54624088 5.43202813 1.79313681 3.64932913 0.0002143125 3.49335725 1.54790775 2.57490913 0.551989625 1.0758805 2.23503331 1.71326175"></polygon>
                        </g>
                        <g id="a-link" transform="translate(0.000000, 10.834688)">
                            <polygon id="a" points="2.7860625 0 3.33708375 1.71326969 5.02015125 1.07588844 4.02420931 2.57489325 5.57191069 3.49334137 3.77898819 3.64931325 4.02587619 5.43201225 2.7860625 4.1275 1.54624088 5.43202812 1.79313681 3.64932912 0.0002143125 3.49335725 1.54790775 2.57490913 0.551989625 1.0758805 2.23503331 1.71326175"></polygon>
                        </g>
                        <g id="a-link" transform="translate(10.001250, 0.000000)">
                            <polygon id="a" points="2.7860625 0 3.33708375 1.71326969 5.02015125 1.07588844 4.02420931 2.57489325 5.57191069 3.49334138 3.77898819 3.64931325 4.02587619 5.43201225 2.7860625 4.1275 1.54624088 5.43202813 1.79313681 3.64932913 0.0002143125 3.49335725 1.54790775 2.57490913 0.551989625 1.0758805 2.23503331 1.71326175"></polygon>
                        </g>
                        <g id="a-link" transform="translate(18.891250, 8.167687)">
                            <polygon id="a" points="2.7860625 0 3.33708375 1.71326969 5.02015125 1.07588844 4.02420931 2.57489325 5.57191069 3.49334138 3.77898819 3.64931325 4.02587619 5.43201225 2.7860625 4.1275 1.54624087 5.43202813 1.79313681 3.64932913 0.0002143125 3.49335725 1.54790775 2.57490913 0.551989625 1.0758805 2.23503331 1.71326175"></polygon>
                        </g>
                        <g id="b-link" transform="translate(15.200313, 16.192500)">
                            <polygon id="b" points="1.5875 0 2.02295125 1.06753025 3.17279338 1.15177888 2.29207219 1.89580838 2.56726531 3.01540863 1.5875 2.40771363 0.607734688 3.01540863 0.882927813 1.89580838 0.002206625 1.15177888 1.15204875 1.06753025"></polygon>
                        </g>
                    </g>
                </g>
            </g>
        </g>
    </g>
</svg>