<?xml version="1.0" encoding="UTF-8" standalone="no"?>
<svg width="122px" height="60px" viewBox="0 0 122 60" version="1.1" xmlns="http://www.w3.org/2000/svg" xmlns:xlink="http://www.w3.org/1999/xlink">
    <!-- Generator: Sketch 3.8.2 (29753) - http://www.bohemiancoding.com/sketch -->
    <title>mz</title>
    <desc>Created with Sketch.</desc>
    <defs></defs>
    <g id="Page-1" stroke="none" stroke-width="1" fill="none" fill-rule="evenodd">
        <g id="mz">
            <g>
                <rect id="Rectangle-179" fill="#009A00" x="0" y="0" width="122" height="18.8199997"></rect>
                <rect id="Rectangle-179-Copy-3" fill="#FFFFFF" x="0" y="18.8099995" width="122" height="1.88"></rect>
                <rect id="Rectangle-179-Copy-4" fill="#FFFFFF" x="0" y="39.5" width="122" height="1.88"></rect>
                <rect id="Rectangle-179-Copy" fill="#FFCA00" x="0" y="41.3899994" width="122" height="18.8199997"></rect>
                <rect id="Rectangle-179-Copy-2" fill="#000000" x="0" y="20.6900005" width="122" height="18.8199997"></rect>
                <g id="Group">
                    <polygon id="Shape" fill="#FF0000" points="0 0 0 60 39.3925327 30"></polygon>
                    <polygon id="Shape" fill="#FFCA00" points="23.3510036 39.1478066 17.3254162 34.7382318 11.3077092 39.1488647 13.6413747 32.058038 7.58520651 27.7000777 15.0531475 27.7277074 17.3274157 20.6234773 19.6088586 27.73194 27.0708011 27.6978439 21.012751 32.0633288"></polygon>
                    <path d="M12.0955169,34.2025693 L16.4362216,34.2025693 C16.7854304,34.5942049 17.5646519,34.7539866 18.3068236,34.1978663 C19.6673149,33.4531591 22.299378,34.2025693 22.299378,34.2025693 L22.817722,33.6520925 L21.5542659,29.5074097 L21.1007295,29.0217157 C21.1007295,29.0217157 20.1290845,28.4389064 18.2825942,28.633137 C16.4362216,28.8274851 15.7882621,28.5684718 15.7882621,28.5684718 C15.7882621,28.5684718 14.1686577,28.7627024 13.715239,28.9893831 C13.6653688,29.0297106 13.196895,29.5074097 13.196895,29.5074097 L12.0955169,34.2025693 L12.0955169,34.2025693 Z" id="Shape" stroke="#000000" stroke-width="0.1" fill="#FFFFFF"></path>
                    <path d="M12.9702444,33.1343011 C12.9702444,33.1343011 17.1164084,32.616157 18.3150569,34.2028044 C17.6381633,34.6658068 17.0420736,34.704018 16.4037589,34.2352545 C16.5054988,34.0659495 17.8939832,32.6162745 21.4247681,33.101851" id="Shape" stroke="#000000" stroke-width="0.1"></path>
                    <path d="M17.407749,28.9896182 L17.3756392,33.55533 M21.1006119,29.0539307 L21.8780691,32.680587" id="Shape" stroke="#000000" stroke-width="0.1"></path>
                    <path id="Shape" stroke="#000000" stroke-width="1.03379297"></path>
                    <path d="M9.27632295,34.7004909 L10.2972501,35.896796 C10.4169856,35.9682804 10.5235478,35.9638126 10.6299924,35.896796 L12.1427994,34.0821745 L12.7781737,33.2957288 C12.8766202,33.1793316 12.9080243,33.0492958 12.8993206,32.9328986 L14.1139651,31.8538137 C14.2133526,31.8607505 14.2725146,31.87192 14.3719021,31.8786216 C14.254519,31.8482878 14.1684224,31.7911473 14.2607528,31.6625225 L14.5330393,31.4508911 L14.7447523,31.722955 C14.7447523,31.722955 14.4423555,32.1161191 14.41201,32.1161191 L14.0791501,32.1161191 L13.4437759,32.6909334 L13.7215904,32.9363082 L14.1397235,34.0821745 L14.6541862,33.7191091 L14.3213263,32.539617 L15.0475019,31.7532888 L14.7750978,31.3297909 L14.9567005,31.0878257 C14.9567005,31.0878257 17.4699691,32.6695351 18.4382033,32.2461548 C18.4644322,32.2555606 18.4967772,31.118042 18.4967772,31.118042 C18.4967772,31.118042 15.8947067,30.8458605 15.8341333,30.3317139 C15.7735599,29.8175672 16.4090517,29.7570171 16.4090517,29.7570171 L16.1366477,29.3638531 L16.1972211,29.1521041 L16.6511103,29.7268009 L17.6799179,28.8497064 L23.7312636,35.7455971 C24.0616536,35.6116815 24.1321069,35.5309088 24.1549249,35.2012342 C24.1463388,35.1930041 18.2246084,28.3959922 18.2246084,28.3959922 L18.6783799,27.9120618 C18.7677698,27.8113018 18.7991739,27.7685052 18.7992916,27.6095465 L19.4952393,27.0047511 C19.7045999,27.0764706 19.8379791,27.201921 19.9491284,27.3675813 L21.8623083,25.7467202 C21.9127665,25.7972765 22.065788,25.8475978 22.1698802,25.7909276 L25.3324021,22.7556634 L21.8855967,25.1897769 L21.764097,25.0990106 C21.764097,24.998133 21.8892429,24.9732075 21.764097,24.7964953 C21.6302473,24.6358906 21.4312371,24.9476942 21.4011268,24.9476942 C21.3707813,24.9476942 20.9020722,24.7821514 20.7993914,24.5724012 L20.7656349,25.1292268 L19.8882021,25.9458888 L19.2224823,25.915555 L18.2542482,26.8531995 L18.1333365,27.2161473 L18.2845937,27.5186626 C18.2845937,27.5186626 17.7701311,27.9723768 17.7701311,27.9420429 C17.7701311,27.9118267 17.6661565,27.8083625 17.661687,27.7950767 L18.102991,27.39768 L18.1634468,27.125381 L18.0163063,26.8956434 C17.9716113,26.9279759 17.4070433,27.5186626 17.3768154,27.4581125 C17.3260043,27.4020302 15.7426262,25.6133924 15.7426262,25.6133924 L15.8331924,25.2806609 L14.80462,24.1614836 C14.4295351,24.0321533 13.8363859,24.0102847 13.7153566,24.8269467 C13.6211443,25.0187082 12.8379238,24.857163 12.8379238,24.857163 L12.4142626,24.9479293 L10.0240227,28.3353246 L11.3553447,29.9383147 L14.0784444,26.4903693 L14.1593658,25.5135729 L14.7306381,26.1522294 C14.9211798,26.1766846 15.1026649,26.1789185 15.2753286,26.0917969 L16.8886993,27.8918393 L16.620059,28.1539095 C16.7108604,28.2547871 16.7733157,28.3190995 16.8641171,28.4199771 C16.9549184,28.3595446 17.0414855,28.2868845 17.1322869,28.2263344 C17.1626324,28.2667795 17.2129731,28.3434371 17.2433186,28.3837646 C17.1080575,28.4572478 17.0132571,28.5551861 16.8781137,28.6287867 C16.6616959,28.4876992 16.4529234,28.3122803 16.4688018,28.0329269 L15.5610235,28.7890387 L15.5307956,28.9403552 L12.8379238,31.1784745 L12.5958653,31.2088083 L12.5352918,31.9043701 L14.2901574,30.4526965 L14.2901574,30.2408299 L14.4717601,30.3920288 L15.83331,29.303303 C15.83331,29.303303 15.9241113,29.4242856 15.8938834,29.4242856 C15.8636555,29.4242856 14.6835907,30.5130114 14.6835907,30.5130114 L14.6533628,30.6341116 L14.4415322,30.8155267 L14.3203853,30.7247604 L12.6866666,32.1765516 L12.4444905,32.1765516 L11.5368298,33.0839799 C11.3027693,33.10432 11.0998776,33.1291279 10.9014555,33.265395 L9.27538201,34.7004909 L9.27632295,34.7004909 Z" id="Shape" stroke="#000000" stroke-width="0.0340000391" fill="#000000"></path>
                </g>
            </g>
        </g>
    </g>
</svg>