<?xml version="1.0" encoding="UTF-8" standalone="no"?>
<svg width="122px" height="60px" viewBox="0 0 122 60" version="1.1" xmlns="http://www.w3.org/2000/svg" xmlns:xlink="http://www.w3.org/1999/xlink">
    <!-- Generator: Sketch 3.8.2 (29753) - http://www.bohemiancoding.com/sketch -->
    <title>tf</title>
    <desc>Created with Sketch.</desc>
    <defs></defs>
    <g id="Page-1" stroke="none" stroke-width="1" fill="none" fill-rule="evenodd">
        <g id="tf">
            <g id="Group">
                <g>
                    <polygon id="Shape" fill="#002395" points="0 0 122 0 122 60 0 60"></polygon>
                    <polygon id="Shape" fill="#FFFFFF" points="0 0 36.6 0 36.6 24.6 0 24.6"></polygon>
                    <polygon id="Shape" fill="#002395" points="0 0 12 0 12 24 0 24"></polygon>
                    <polygon id="Shape" fill="#ED2939" points="24 0 36 0 36 24 24 24"></polygon>
                    <path d="M53.25,27.45 L55.18125,30.525 L60.675,30.525 L60.675,41.25 L56.55,34.8 L51,43.65 L53.7,43.65 L56.55,38.55 L62.4,49.05 L68.25,38.55 L71.1,43.65 L73.8,43.65 L68.25,34.8 L64.125,41.25 L64.125,35.325 L66.6,35.325 L68.4375,32.4 L64.125,32.4 L64.125,30.525 L69.61875,30.525 L71.55,27.45 L53.25,27.45 L53.25,27.45 Z M59.7,40.575 L53.7,40.575 L53.7,42.675 L59.7,42.675 L59.7,40.575 Z M71.1,40.575 L65.1,40.575 L65.1,42.675 L71.1,42.675 L71.1,40.575 Z" id="Shape" fill="#FFFFFF"></path>
                    <g id="a-link" transform="translate(59.400000, 51.150000)" fill="#FFFFFF">
                        <polygon id="a" points="3 0 4.8516 5.6985 0.0042 2.1765 5.9958 2.1765 1.1484 5.6985"></polygon>
                    </g>
                    <g id="a-link" transform="translate(52.650000, 46.050000)" fill="#FFFFFF">
                        <polygon id="a" points="3 0 4.8516 5.6985 0.0042 2.1765 5.9958 2.1765 1.1484 5.6985"></polygon>
                    </g>
                    <g id="a-link" transform="translate(66.150000, 46.050000)" fill="#FFFFFF">
                        <polygon id="a" points="3 0 4.8516 5.6985 0.0042 2.1765 5.9958 2.1765 1.1484 5.6985"></polygon>
                    </g>
                    <g id="a-link" transform="translate(46.950000, 30.900000)" fill="#FFFFFF">
                        <polygon id="a" points="3 0 4.8516 5.6985 0.0042 2.1765 5.9958 2.1765 1.1484 5.6985"></polygon>
                    </g>
                    <g id="a-link" transform="translate(71.850000, 30.900000)" fill="#FFFFFF">
                        <polygon id="a" points="3 0 4.8516 5.6985 0.0042 2.1765 5.9958 2.1765 1.1484 5.6985"></polygon>
                    </g>
                </g>
            </g>
        </g>
    </g>
</svg>