<?xml version="1.0" encoding="UTF-8" standalone="no"?>
<svg width="122px" height="60px" viewBox="0 0 122 60" version="1.1" xmlns="http://www.w3.org/2000/svg" xmlns:xlink="http://www.w3.org/1999/xlink">
    <!-- Generator: Sketch 3.8.2 (29753) - http://www.bohemiancoding.com/sketch -->
    <title>ug</title>
    <desc>Created with Sketch.</desc>
    <defs></defs>
    <g id="Page-1" stroke="none" stroke-width="1" fill="none" fill-rule="evenodd">
        <g id="ug">
            <g>
                <g id="Group-2">
                    <rect id="Rectangle-280" fill="#000000" x="0" y="0" width="122" height="10"></rect>
                    <rect id="Rectangle-280-Copy" fill="#FFE700" x="0" y="10" width="122" height="10"></rect>
                    <rect id="Rectangle-280-Copy-2" fill="#DE3908" x="0" y="20" width="122" height="10"></rect>
                    <rect id="Rectangle-280-Copy-3" fill="#000000" x="0" y="30" width="122" height="10"></rect>
                    <rect id="Rectangle-280-Copy-4" fill="#FFE700" x="0" y="40" width="122" height="10"></rect>
                    <rect id="Rectangle-280-Copy-5" fill="#DE3908" x="0" y="50" width="122" height="10"></rect>
                </g>
                <g id="Group" transform="translate(51.411184, 21.000000)">
                    <path d="M18.6260023,9.60491622 C18.6260023,14.6959807 14.4988435,18.8230237 9.40789474,18.8230237 C4.31694593,18.8230237 0.189787212,14.6959807 0.189787212,9.60491622 C0.189787212,4.51385177 4.31683028,0.386808697 9.40789474,0.386808697 C14.4989592,0.386808697 18.6260023,4.51385177 18.6260023,9.60491622 L18.6260023,9.60491622 Z" id="Shape" stroke="#000000" stroke-width="0.1" fill="#FFFDFF"></path>
                    <path d="M7.78145559,2.53816303 L7.18298982,1.43594521 C7.413934,1.20500103 7.80238744,1.02655993 8.42178505,1.02655993 C8.42178505,1.06853927 8.35875822,2.23389957 8.35875822,2.23389957 L7.78145559,2.53827868 L7.78145559,2.53816303 Z" id="Shape" stroke="#000000" stroke-width="0.1" fill="#DE3108"></path>
                    <path d="M8.35852693,2.2448859 L8.44260125,1.02713816 C8.44260125,1.02713816 9.68139648,0.953587582 10.3532972,1.76195004 C10.3637053,1.75154194 9.69180458,2.70677426 9.69180458,2.70677426 L8.35852693,2.2448859 L8.35852693,2.2448859 Z" id="Shape" stroke="#000000" stroke-width="0.1" fill="#FFE700"></path>
                    <path d="M9.71319901,2.69613487 L10.3220729,1.75131065 C10.7314582,2.18185907 10.8994912,2.48623818 10.962518,2.94824219 C10.9729261,2.95865029 9.99664628,3.18959447 9.99664628,3.17907072 C9.99664628,3.16854698 9.72372276,2.70665861 9.71331466,2.69613487 L9.71319901,2.69613487 Z" id="Shape" stroke="#000000" stroke-width="0.1" fill="#DE3108"></path>
                    <path d="M8.086066,18.2963739 C8.086066,18.2963739 9.2303788,16.9840281 11.4559776,17.267591 C11.1200272,16.7217439 10.0387413,16.7846551 10.0387413,16.7846551 C10.0387413,16.7846551 9.70279091,14.2335141 9.96519069,14.1074604 C10.2275905,13.9814068 11.3404477,14.1180998 11.3404477,14.1180998 C11.4873175,14.1180998 11.7394249,13.7191226 11.5400519,13.467131 C11.3404477,13.2151393 10.7526213,12.2493832 10.9940892,12.0603027 C11.2355572,11.8713379 12.5477873,12.1653089 12.5477873,12.1653089 L8.84192537,7.42014032 C8.84192537,7.42014032 8.46399568,5.6353824 9.21985506,4.77451686 C10.1332237,4.01865748 10.0387413,3.19977128 10.0072857,3.21017938 C9.88123201,2.38088507 8.62150493,1.78241931 7.77104749,2.54880243 C7.26717979,3.1576763 7.60313014,3.6196803 7.60313014,3.6196803 C7.60313014,3.6196803 6.28026059,3.9765625 6.2277575,4.20750668 C6.17525442,4.43856651 7.71854441,4.16564299 7.71854441,4.16564299 L7.57167455,5.22599712 C7.57167455,5.22599712 4.56905325,7.95546361 6.86820261,10.3176398 C6.8892501,10.3071161 6.94175319,10.2126336 6.94175319,10.2126336 C6.94175319,10.2126336 7.75011565,11.2099609 8.6003418,11.4303814 C9.39829616,12.2493832 9.32486123,12.1233296 9.32486123,12.1233296 C9.32486123,12.1233296 9.48225483,13.4146279 9.33526933,13.6666196 C9.13589638,13.6035927 7.09926244,13.5301578 6.79465204,13.6455721 C6.52172852,13.7296464 5.47189813,13.6771433 5.73441355,15.3883506 C5.93378649,14.9264623 6.11234324,14.5169613 6.11234324,14.5169613 C6.11234324,14.5169613 6.080772,15.136359 6.33276367,15.356895 C6.29078433,14.7058105 6.5742316,14.2650853 6.5742316,14.2650853 C6.5742316,14.2650853 6.62673468,14.9789654 6.78424394,15.0838559 C6.94175319,15.188862 6.94175319,13.9290193 7.81314248,14.0340255 C8.68441612,14.1390317 9.31433748,14.1075761 9.31433748,14.1075761 C9.31433748,14.1075761 9.60830849,16.5746428 9.51382607,16.805587 C8.88378906,16.6587171 7.38259406,16.8686138 7.28811164,17.2465435 C8.16990903,17.1940404 8.5795256,17.2990466 8.5795256,17.2990466 C8.5795256,17.2990466 7.86564556,17.9289679 8.086066,18.2963739 L8.086066,18.2963739 Z" id="Shape" stroke="#000000" stroke-width="0.1" fill="#000000"></path>
                    <path d="M8.43947882,4.83476819 C8.43947882,4.83476819 6.25470292,7.24285567 7.19732987,9.08555201 C7.24752005,8.82858758 7.22566303,8.66714638 7.25711863,8.67767013 C7.20461554,8.64621454 7.52807617,8.89936266 7.50344367,8.85009766 C7.5103824,8.71687397 7.40491365,8.43146073 7.40491365,8.43146073 L7.7005037,8.5052426 L7.52807617,8.18502005 L7.94682874,8.23428505 C7.94682874,8.23428505 7.79903372,7.84016499 7.84841437,7.84016499 C7.89756373,7.84016499 8.19315378,7.86468185 8.19315378,7.86468185 C7.57190584,6.74974301 8.15799753,5.82376902 8.43947882,4.83476819 L8.43947882,4.83476819 Z" id="Shape" stroke="#9CA69C" stroke-width="0.866195897" fill="#9CA69C"></path>
                    <path d="M9.19857627,2.76910722 C9.19857627,2.76910722 9.31422183,3.59851717 8.86262593,3.83998509 C8.789191,3.89248818 8.50574373,3.98685495 8.54772307,4.1550036 C8.60022615,4.38594778 8.72616417,4.3438528 8.90472091,4.30187346 C9.37701737,4.21791478 9.92298006,3.21006373 9.19857627,2.76910722 L9.19857627,2.76910722 Z" id="Shape" stroke="#9CA69C" stroke-width="0.924028931" fill="#9CA69C"></path>
                    <path id="Shape" fill="#FFFFFF"></path>
                    <path d="M7.68685752,4.17593544 C7.57132761,4.27041787 6.96245374,4.90033923 7.56080387,5.13116776 C8.18031713,4.96325041 8.01228413,4.84783614 8.14874589,4.71137438 C8.15221525,4.42792712 7.84078176,4.35437654 7.68685752,4.17593544 L7.68685752,4.17593544 Z" id="Shape" stroke="#000000" stroke-width="0.1" fill="#DE3108"></path>
                    <path d="M9.00938014,10.1291375 C8.97792455,10.2655993 8.84146279,10.7695826 9.03042763,11.1580361 C9.55545847,10.9375 9.79681075,11.0005268 9.97525185,11.1159411 C9.54505037,10.7695826 9.37690173,10.6224815 9.00938014,10.1291375 L9.00938014,10.1291375 Z" id="Shape" stroke="#9CA69C" stroke-width="0.866195897" fill="#9CA69C"></path>
                    <path d="M9.91280325,12.5122456 L9.94425884,13.6881296 C9.94425884,13.6881296 10.3537598,13.7615646 10.5427246,13.6881296 C10.7316895,13.6145791 10.5322009,12.8692434 9.91280325,12.5122456 L9.91280325,12.5122456 Z" id="Shape" stroke="#FFFFFF" stroke-width="0.1" fill="#FFFFFF"></path>
                    <path d="M12.8833907,12.6588841 C12.8833907,12.6588841 12.1275314,10.8322625 10.1957879,10.3702585 C8.26404451,9.90825452 8.51603618,7.85068873 8.67354544,7.72463507 C8.75761976,7.54619398 8.82053094,7.27327046 9.37690173,7.53578588 C9.93338816,7.7983013 12.4950529,9.08948396 12.8624589,9.15251079 C13.2298648,9.21553762 12.914962,12.7009791 12.8833907,12.6588841 L12.8833907,12.6588841 Z" id="Shape" stroke="#000000" stroke-width="0.924028931" fill="#9CA69C"></path>
                    <path d="M11.0462454,10.3599661 C11.0147898,10.3810136 13.628842,11.9032561 12.8414114,13.2156019 C13.5868627,12.7221423 13.3453947,11.8613924 13.3453947,11.8613924 C13.3453947,11.8613924 13.9542686,13.4465461 12.4740054,14.2234529 C12.6315147,14.3599147 12.7365209,14.3283434 12.7365209,14.3283434 L12.4844135,14.5804508 C12.4844135,14.5804508 12.3689993,14.7693 13.3664422,14.2863641 C13.0934031,14.5069002 13.0724712,14.6642938 13.0724712,14.6642938 C13.0724712,14.6642938 13.1459061,14.8743061 13.796875,14.3074116 C13.2718442,14.8743061 13.1564299,15.1682771 13.1564299,15.1577534 C14.5736662,15.0316997 17.6601306,10.4229929 12.1800344,9.05814402 C12.4741211,9.36275442 12.4320261,9.32065944 12.4320261,9.32065944 L11.0462454,10.3599661 L11.0462454,10.3599661 Z" id="Shape" stroke="#000000" stroke-width="0.1" fill="#DE3108"></path>
                    <path d="M11.1616596,9.90871711 C11.5186575,10.1607088 11.6444799,10.2446675 11.6865748,10.3707211 C11.3611482,10.2972862 11.0671772,10.318218 11.0671772,10.318218 C11.0671772,10.318218 10.3638209,9.64631733 10.2377673,9.59381425 C10.1432848,9.59381425 9.59743781,9.24734015 9.59743781,9.24734015 C9.32451429,9.11087839 9.07252262,8.16605417 10.0803737,8.43897769 C11.1195647,8.93232165 11.2665502,8.97441663 11.2665502,8.97441663 L12.505461,9.36287007 L13.2193411,10.1608244 C13.2193411,10.1608244 11.9490903,9.53078742 11.791581,9.52026367 C12.1379395,9.80371094 12.337428,10.1921644 12.337428,10.1921644 C11.9349815,10.0766345 11.5851537,9.97174394 11.1616596,9.90883275 L11.1616596,9.90871711 Z" id="Shape" stroke="#000000" stroke-width="0.1" fill="#FFFFFF"></path>
                    <path id="Shape" stroke="#FFFFFF" stroke-width="0.866195897"></path>
                </g>
            </g>
        </g>
    </g>
</svg>