<?xml version="1.0" encoding="UTF-8" standalone="no"?>
<svg width="122px" height="60px" viewBox="0 0 122 60" version="1.1" xmlns="http://www.w3.org/2000/svg" xmlns:xlink="http://www.w3.org/1999/xlink">
    <!-- Generator: Sketch 3.8.2 (29753) - http://www.bohemiancoding.com/sketch -->
    <title>kp</title>
    <desc>Created with Sketch.</desc>
    <defs></defs>
    <g id="Page-1" stroke="none" stroke-width="1" fill="none" fill-rule="evenodd">
        <g id="kp">
            <g id="Shape">
                <polygon fill="#3E5698" points="122 48.5021623 0 48.5021623 0 60 122 60"></polygon>
                <polygon fill="#C60000" points="122 47 0 47 0 13 122 13"></polygon>
                <polygon fill="#3E5698" points="122 6.09980816e-17 0 6.09980816e-17 0 11.5 122 11.5"></polygon>
                <path d="M47.3065266,29.63649 C47.3065266,36.9802134 41.0957759,42.9334325 33.4345481,42.9334325 C25.7732033,42.9334325 19.5626865,36.9800976 19.5626865,29.63649 C19.5626865,22.2927666 25.7734372,16.3396632 33.4345481,16.3396632 C41.0958929,16.3396632 47.3065266,22.2928824 47.3065266,29.63649 L47.3065266,29.63649 Z" fill="#FFFFFF"></path>
                <polygon fill="#C40000" points="29.450326 31.3143774 22.7774061 26.6132371 31.0870977 26.5797881 33.7342799 18.8984502 36.209318 26.5543252 44.5191266 26.5072189 37.7388505 31.2730581 40.2268696 38.9254609 33.5612003 34.2152928 26.7891104 38.9912014"></polygon>
            </g>
        </g>
    </g>
</svg>