<?xml version="1.0" encoding="UTF-8" standalone="no"?>
<svg width="122px" height="60px" viewBox="0 0 122 60" version="1.1" xmlns="http://www.w3.org/2000/svg" xmlns:xlink="http://www.w3.org/1999/xlink">
    <!-- Generator: Sketch 3.8.2 (29753) - http://www.bohemiancoding.com/sketch -->
    <title>sg</title>
    <desc>Created with Sketch.</desc>
    <defs></defs>
    <g id="Page-1" stroke="none" stroke-width="1" fill="none" fill-rule="evenodd">
        <g id="sg">
            <g transform="translate(-1.000000, 0.000000)" id="Clipped">
                <g>
                    <g id="Group" transform="translate(0.491935, 0.000000)">
                        <polygon id="Shape" fill="#FFFFFF" points="0.508064516 30 122.508065 30 122.508065 60 0.508064516 60"></polygon>
                        <polygon id="Shape" fill="#DF0000" points="0.508064516 0 122.508065 0 122.508065 30 0.508064516 30"></polygon>
                        <path d="M19.4537298,4.94727218 C15.365377,5.88465524 12.3275524,8.91190323 11.468756,13.0274355 C10.3018851,18.6193891 13.9436835,24.094754 19.5471976,25.2628548 C13.886127,26.8770181 8.0371371,23.6232339 6.43785484,18.0151694 C4.83955645,12.4071048 8.09321774,6.55799194 13.7016512,4.95895565 C15.670254,4.39753427 17.4827903,4.39396774 19.4539758,4.94727218 L19.4537298,4.94727218 Z" id="Shape" fill="#FFFFFF"></path>
                        <path d="M17.8463306,13.5224456 L18.4482137,15.3818387 L16.8577863,14.2466976 L15.2749839,15.3925383 L15.8632157,13.5300706 L14.2849637,12.3796794 L16.2374556,12.3628306 L16.8440121,10.5050363 L17.462744,12.3582802 L19.4168347,12.3613548 L17.8463306,13.5224456 Z M20.0058044,19.9248629 L20.6076875,21.784256 L19.0172601,20.6491149 L17.4344577,21.7949556 L18.0226895,19.9326109 L16.4444375,18.7820968 L18.3970524,18.765248 L19.0034859,16.9074536 L19.6223407,18.7608206 L21.5763085,18.7637722 L20.0058044,19.9248629 Z M27.1911371,19.878744 L27.7930202,21.7381371 L26.2025927,20.602996 L24.6197903,21.7488367 L25.2080222,19.8864919 L23.6297702,18.7359778 L25.5823851,18.719129 L26.1888185,16.8613347 L26.8076734,18.7147016 L28.7616411,18.7176532 L27.1911371,19.878744 Z M29.3345,13.5282258 L29.9363831,15.387496 L28.3459556,14.2523548 L26.7631532,15.3981956 L27.3513851,13.5358508 L25.7731331,12.3854597 L27.725748,12.3686109 L28.3323044,10.5108165 L28.9509133,12.3640605 L30.905127,12.3671351 L29.3345,13.5282258 Z M23.6457581,9.31529032 L24.2476411,11.1745605 L22.6572137,10.0394194 L21.0744113,11.1852601 L21.6626431,9.32291532 L20.0843911,8.17240121 L22.0368831,8.1556754 L22.6434395,6.29788105 L23.2622944,8.15100202 L25.2162621,8.15407661 L23.6457581,9.31529032 Z" id="Shape" fill="#FFFFFF"></path>
                    </g>
                </g>
            </g>
        </g>
    </g>
</svg>