<?xml version="1.0" encoding="UTF-8" standalone="no"?>
<svg width="122px" height="60px" viewBox="0 0 122 60" version="1.1" xmlns="http://www.w3.org/2000/svg" xmlns:xlink="http://www.w3.org/1999/xlink">
    <!-- Generator: Sketch 3.8.2 (29753) - http://www.bohemiancoding.com/sketch -->
    <title>vg</title>
    <desc>Created with Sketch.</desc>
    <defs>
        <linearGradient x1="-1510.83725%" y1="241.775653%" x2="-1623.32818%" y2="206.228349%" id="linearGradient-1">
            <stop stop-color="#FF0000" offset="0%"></stop>
            <stop stop-color="#FFFF00" offset="100%"></stop>
        </linearGradient>
        <linearGradient x1="-1510.55467%" y1="248.341801%" x2="-1623.0456%" y2="212.794497%" id="linearGradient-2">
            <stop stop-color="#FF0000" offset="0%"></stop>
            <stop stop-color="#FFFF00" offset="100%"></stop>
        </linearGradient>
        <linearGradient x1="-1565.74121%" y1="254.310395%" x2="-1678.23214%" y2="218.763091%" id="linearGradient-3">
            <stop stop-color="#FF0000" offset="0%"></stop>
            <stop stop-color="#FFFF00" offset="100%"></stop>
        </linearGradient>
        <linearGradient x1="-1511.8346%" y1="260.688938%" x2="-1624.32553%" y2="225.141634%" id="linearGradient-4">
            <stop stop-color="#FF0000" offset="0%"></stop>
            <stop stop-color="#FFFF00" offset="100%"></stop>
        </linearGradient>
        <linearGradient x1="-1511.95095%" y1="266.963257%" x2="-1624.44189%" y2="231.415953%" id="linearGradient-5">
            <stop stop-color="#FF0000" offset="0%"></stop>
            <stop stop-color="#FFFF00" offset="100%"></stop>
        </linearGradient>
        <linearGradient x1="-1512.23353%" y1="273.327904%" x2="-1624.72447%" y2="237.7806%" id="linearGradient-6">
            <stop stop-color="#FF0000" offset="0%"></stop>
            <stop stop-color="#FFFF00" offset="100%"></stop>
        </linearGradient>
        <linearGradient x1="-1566.15677%" y1="273.22368%" x2="-1678.6477%" y2="237.676376%" id="linearGradient-7">
            <stop stop-color="#FF0000" offset="0%"></stop>
            <stop stop-color="#FFFF00" offset="100%"></stop>
        </linearGradient>
        <linearGradient x1="-1565.65809%" y1="266.977154%" x2="-1678.14903%" y2="231.42985%" id="linearGradient-8">
            <stop stop-color="#FF0000" offset="0%"></stop>
            <stop stop-color="#FFFF00" offset="100%"></stop>
        </linearGradient>
        <linearGradient x1="-1565.00982%" y1="260.591662%" x2="-1677.50075%" y2="225.044358%" id="linearGradient-9">
            <stop stop-color="#FF0000" offset="0%"></stop>
            <stop stop-color="#FFFF00" offset="100%"></stop>
        </linearGradient>
        <linearGradient x1="-1565.6218%" y1="241.727394%" x2="-1678.1131%" y2="206.181924%" id="linearGradient-10">
            <stop stop-color="#FF0000" offset="0%"></stop>
            <stop stop-color="#FFFF00" offset="100%"></stop>
        </linearGradient>
        <linearGradient x1="-1565.57498%" y1="248.029127%" x2="-1678.06592%" y2="212.481823%" id="linearGradient-11">
            <stop stop-color="#FF0000" offset="0%"></stop>
            <stop stop-color="#FFFF00" offset="100%"></stop>
        </linearGradient>
        <linearGradient x1="-1521.69171%" y1="253.900445%" x2="-1634.18265%" y2="218.353141%" id="linearGradient-12">
            <stop stop-color="#FF0000" offset="0%"></stop>
            <stop stop-color="#FFFF00" offset="100%"></stop>
        </linearGradient>
    </defs>
    <g id="Page-1" stroke="none" stroke-width="1" fill="none" fill-rule="evenodd">
        <g id="vg">
            <g id="Clipped">
                <g>
                    <g id="Group">
                        <polygon id="Shape" fill="#000066" points="0 0 122 0 122 60 0 60"></polygon>
                        <polygon id="Shape" fill="#000066" points="0 0 43.75025 0 43.75025 21.875 0 21.875"></polygon>
                        <g id="Shape">
                            <path d="M0,0 L0,2.44575 L38.858875,21.875 L43.750125,21.875 L43.750125,19.429375 L4.8915,0.000125 L0,0.000125 L0,0 Z M43.75025,0 L43.75025,2.445625 L4.89125,21.875125 L0,21.875125 L0,19.4295 L38.858875,0 L43.750125,0 L43.75025,0 Z" fill="#FFFFFF"></path>
                            <path d="M18.22925,7.29175 L18.22925,0 L25.521,0 L25.521,7.29175 L43.75025,7.29175 L43.75025,14.583375 L25.521,14.583375 L25.521,21.875 L18.22925,21.875 L18.22925,14.583375 L0,14.583375 L0,7.29175 L18.22925,7.29175 Z" fill="#FFFFFF"></path>
                            <path d="M19.6875,13.125 L0,13.125 L0,8.75 L19.6875,8.75 L19.6875,0 L24.0625,0 L24.0625,8.75 L43.75025,8.75 L43.75025,13.125 L24.0625,13.125 L24.0625,21.875 L19.6875,21.875 L19.6875,13.125 Z M0,21.875 L14.583375,14.583375 L17.84425,14.583375 L3.260875,21.875125 L0,21.875125 L0,21.875 Z M0,0 L14.583375,7.29175 L11.3225,7.29175 L0,1.6305 L0,0 L0,0 Z M25.906,7.29175 L40.489375,0 L43.75025,0 L29.16675,7.29175 L25.906,7.29175 L25.906,7.29175 Z M43.75025,21.875 L29.16675,14.58325 L32.427625,14.58325 L43.750125,20.2445 L43.750125,21.875 L43.75025,21.875 Z" fill="#CC0000"></path>
                        </g>
                        <g transform="translate(43.125000, 19.125000)" id="Shape">
                            <path d="M4.18425,0.182125 L31.602,0.080375 L31.551125,24.497 C31.551125,24.497 32.517625,28.21025 20.05525,33.8565 C24.5315,33.398625 29.41475,28.61725 29.41475,28.61725 C29.41475,28.61725 31.3985,26.073875 32.365125,27.498125 C33.3315,28.922375 34.247125,29.6345 34.95925,30.194125 C35.671375,30.753625 36.231,32.27975 35.16275,33.39875 C34.0945,34.51775 32.416,34.670375 31.958125,33.297 C31.246,33.653125 26.8715,38.94325 17.919375,39.197625 C8.814375,39.045 3.829375,33.246125 3.829375,33.246125 C3.829375,33.246125 2.608625,35.179125 0.879125,33.653125 C-0.799375,31.669375 0.47225,30.397625 0.47225,30.397625 C0.47225,30.397625 1.8965,29.58375 2.3035,29.024125 C2.96475,28.261125 3.168125,27.24375 4.28725,27.24375 C5.60975,27.3455 6.1185,28.41375 6.1185,28.41375 C6.1185,28.41375 10.6965,33.246125 15.6305,33.8565 C4.4905,28.5155 4.083625,25.209 4.1345,24.39525 L4.185375,0.18275 L4.18425,0.182125 Z" fill="#FFFFFF"></path>
                            <path d="M4.845,0.842875 L30.99,0.690375 L30.99,24.19075 C31.040875,27.24275 25.90325,30.34575 17.86625,34.31325 C9.575875,30.040375 4.795,27.445875 4.74375,24.140625 L4.845375,0.844125 L4.845,0.842875 Z" stroke="#000000" stroke-width="0.1" fill="#006129"></path>
                            <polyline stroke="#F7C600" stroke-width="0.1" points="7.989 26.73775 9.53225 24.471125 11.083125 26.742625"></polyline>
                            <path d="M9.842375,25.889375 C9.84241967,25.9988769 9.78404237,26.1000847 9.68923326,26.1548743 C9.59442416,26.2096639 9.47758701,26.2097116 9.38273324,26.1549993 C9.28787948,26.100287 9.22941965,25.9991269 9.229375,25.889625 C9.22930598,25.7203497 9.36647474,25.5830691 9.53575,25.583 C9.70502526,25.582931 9.84230595,25.7200997 9.842375,25.889375 L9.842375,25.889375 Z" stroke="#000000" stroke-width="0.1" fill="#F7C600"></path>
                            <path d="M8.279125,28.4125 L10.67175,28.41925 C10.67175,28.41925 10.70925,28.10875 10.42175,27.92 C11.675,27.74775 11.3495,26.64225 12.399,26.579625 C12.60275,26.610875 11.85075,27.049625 11.85075,27.049625 C11.85075,27.049625 11.218,27.496125 11.506125,27.723125 C11.734875,27.903375 11.835125,27.6135 11.8665,27.39425 C11.89775,27.174875 12.884625,27.033875 12.74375,26.407375 C12.50875,25.890375 11.13025,26.752 11.13025,26.752 L10.14675,26.7465 C10.0855,26.636125 9.81425,26.1935 9.5345,26.1915 C9.202375,26.2035 8.9685,26.752 8.9685,26.752 L6.744,26.752 C6.744,26.752 6.66775,27.32275 7.795625,27.432375 C8.049625,27.764 8.2465,27.856625 8.46725,27.9425 C8.32,28.065125 8.2785,28.2135 8.27925,28.4125 L8.279125,28.4125 Z" stroke="#000000" stroke-width="0.1" fill="#F7C600"></path>
                            <path d="M8.451375,27.926375 L10.44425,27.919625 M7.53875,26.751 C7.53875,26.751 7.698125,27.683125 8.433875,27.903875" stroke="#000000" stroke-width="0.1"></path>
                            <path d="M7.41565,26.7385187 C7.48921406,26.3829316 7.62410906,26.3216006 7.77123719,25.8678178 C7.79586875,25.4264334 7.41565,25.4753659 7.52607875,25.1933428 C7.72230469,24.8866881 7.62410906,24.5924319 7.25628875,24.3593412 C7.32985281,24.7640262 6.77787437,25.144245 6.77787437,25.4753659 C6.77787437,25.8064869 7.06006281,25.7329228 7.02319812,26.2358034 C7.04766437,26.5300597 6.94963406,26.4564956 6.92516781,26.7385187 L7.41565,26.7385187 L7.41565,26.7385187 Z" stroke="#000000" stroke-width="0.1" fill="url(#linearGradient-1)"></path>
                            <path d="M9.81775,24.528375 C9.81777233,24.6291239 9.76404407,24.7222316 9.67680413,24.7726254 C9.58956419,24.8230192 9.48206639,24.823043 9.39480413,24.7726879 C9.30754186,24.7223328 9.25377233,24.6292489 9.25375,24.5285 C9.25371548,24.3727557 9.3799432,24.246472 9.5356875,24.2464375 C9.6914318,24.246403 9.81771548,24.3726307 9.81775,24.528375 L9.81775,24.528375 Z" stroke="#000000" stroke-width="0.1" fill="#F7C600"></path>
                            <polyline stroke="#F7C600" stroke-width="0.1" points="7.90175 22.0725 9.445 19.80575 10.995875 22.07725"></polyline>
                            <path d="M9.755,21.224125 C9.75726357,21.3350793 9.69937309,21.4385902 9.60365095,21.4947441 C9.50792882,21.5508981 9.38932946,21.5509223 9.29358442,21.4948074 C9.19783939,21.4386925 9.13990669,21.3352053 9.142125,21.22425 C9.14210267,21.1147481 9.20050061,21.0135523 9.29532087,20.958782 C9.39014114,20.9040117 9.50697828,20.9039878 9.60182087,20.9587195 C9.69666347,21.0134511 9.75510267,21.1146231 9.755125,21.224125 L9.755,21.224125 Z" stroke="#000000" stroke-width="0.1" fill="#F7C600"></path>
                            <path d="M8.191875,23.747125 L10.5845,23.754 C10.5845,23.754 10.622,23.443375 10.3345,23.25475 C11.58775,23.082375 11.26225,21.977 12.31175,21.914375 C12.5155,21.945625 11.7635,22.384375 11.7635,22.384375 C11.7635,22.384375 11.13075,22.830875 11.418875,23.057875 C11.647625,23.238125 11.747875,22.94825 11.77925,22.728875 C11.8105,22.509625 12.797375,22.368625 12.6565,21.742 C12.4215,21.225125 11.043,22.086625 11.043,22.086625 L10.0595,22.081125 C9.99825,21.97075 9.727,21.528125 9.44725,21.526125 C9.115125,21.53825 8.88125,22.086625 8.88125,22.086625 L6.65675,22.086625 C6.65675,22.086625 6.5805,22.657375 7.708375,22.767 C7.962375,23.098625 8.15925,23.191375 8.379875,23.277125 C8.23275,23.399875 8.191375,23.54825 8.192,23.747125 L8.191875,23.747125 Z" stroke="#000000" stroke-width="0.1" fill="#F7C600"></path>
                            <path d="M8.364125,23.261125 L10.357,23.25425 M7.451375,22.08575 C7.451375,22.08575 7.610875,23.01775 8.346625,23.2385" stroke="#000000" stroke-width="0.1"></path>
                            <path d="M7.3284,22.0732687 C7.40196406,21.7176816 7.53685906,21.6563506 7.68398719,21.2025678 C7.70861875,20.7611834 7.3284,20.8101159 7.43882875,20.5280928 C7.63505469,20.2214381 7.53685906,19.9271819 7.16903875,19.6940912 C7.24260281,20.0987762 6.69062437,20.478995 6.69062437,20.8101159 C6.69062437,21.1412369 6.97281281,21.0676728 6.93594812,21.5705534 C6.96041437,21.8648097 6.86238406,21.7912456 6.83791781,22.0732687 L7.3284,22.0732687 L7.3284,22.0732687 Z" stroke="#000000" stroke-width="0.1" fill="url(#linearGradient-2)"></path>
                            <path d="M9.7305,19.863 C9.73052233,19.9637489 9.67679407,20.0568566 9.58955413,20.1072504 C9.50231419,20.1576442 9.39481639,20.157668 9.30755413,20.1073129 C9.22029186,20.0569578 9.16652233,19.9638739 9.1665,19.863125 C9.16646548,19.7073807 9.2926932,19.581097 9.4484375,19.5810625 C9.6041818,19.581028 9.73046548,19.7072557 9.7305,19.863 L9.7305,19.863 Z" stroke="#000000" stroke-width="0.1" fill="#F7C600"></path>
                            <polyline stroke="#F7C600" stroke-width="0.1" points="24.2975 17.8315 25.840875 15.56475 27.391625 17.83625"></polyline>
                            <path d="M26.150875,16.983125 C26.1509197,17.0926269 26.0925424,17.1938347 25.9977333,17.2486243 C25.9029242,17.3034139 25.786087,17.3034616 25.6912333,17.2487493 C25.5963795,17.194037 25.5379197,17.0928769 25.537875,16.983375 C25.537806,16.8140997 25.6749747,16.676819 25.84425,16.67675 C26.0135253,16.676681 26.150806,16.8138497 26.150875,16.983125 L26.150875,16.983125 Z" stroke="#000000" stroke-width="0.1" fill="#F7C600"></path>
                            <path d="M24.587625,19.50625 L26.98025,19.513 C26.98025,19.513 27.01775,19.2025 26.730375,19.01375 C27.983625,18.841375 27.658,17.736 28.707625,17.673375 C28.91125,17.704625 28.15925,18.143375 28.15925,18.143375 C28.15925,18.143375 27.5265,18.589875 27.814625,18.816875 C28.043375,18.997125 28.143625,18.70725 28.175,18.487875 C28.20625,18.268625 29.19325,18.127625 29.05225,17.501 C28.81725,16.984125 27.43875,17.845625 27.43875,17.845625 L26.45525,17.84025 C26.394,17.72975 26.12275,17.287125 25.843,17.285125 C25.510875,17.29725 25.277,17.845625 25.277,17.845625 L23.0525,17.845625 C23.0525,17.845625 22.97625,18.416375 24.104125,18.526 C24.358125,18.85775 24.555,18.950375 24.77575,19.03625 C24.6285,19.15875 24.587,19.30725 24.58775,19.50625 L24.587625,19.50625 Z" stroke="#000000" stroke-width="0.1" fill="#F7C600"></path>
                            <path d="M24.76,19.02 L26.75275,19.013375 M23.847125,17.84475 C23.847125,17.84475 24.006625,18.77675 24.7425,18.9975" stroke="#000000" stroke-width="0.1"></path>
                            <path d="M23.72415,17.8322687 C23.7977141,17.4766816 23.9326091,17.4153506 24.0797372,16.9615678 C24.1043687,16.5201834 23.72415,16.5691159 23.8345787,16.2870928 C24.0308047,15.9804381 23.9326091,15.6861819 23.5647887,15.4530912 C23.6383528,15.8577762 23.0863744,16.237995 23.0863744,16.5691159 C23.0863744,16.9002369 23.3685628,16.8266728 23.3316981,17.3295534 C23.3561644,17.6238097 23.2581341,17.5502456 23.2336678,17.8322687 L23.72415,17.8322687 L23.72415,17.8322687 Z" stroke="#000000" stroke-width="0.1" fill="url(#linearGradient-3)"></path>
                            <path d="M26.12625,15.622 C26.1262947,15.7227489 26.072587,15.8158685 25.9853583,15.8662817 C25.8981295,15.9166948 25.7906317,15.9167424 25.7033583,15.8664067 C25.6160848,15.8160709 25.5622947,15.7229989 25.56225,15.62225 C25.562181,15.4665057 25.6883807,15.340194 25.844125,15.340125 C25.9998693,15.340056 26.126181,15.4662557 26.12625,15.622 L26.12625,15.622 Z" stroke="#000000" stroke-width="0.1" fill="#F7C600"></path>
                            <polyline stroke="#F7C600" stroke-width="0.1" points="8.284125 13.2965 9.827375 11.02975 11.37825 13.30125"></polyline>
                            <path d="M10.1375,12.448125 C10.1375223,12.5576269 10.0791244,12.6588227 9.98430413,12.713593 C9.88948386,12.7683633 9.77264672,12.7683872 9.67780413,12.7136555 C9.58296153,12.6589239 9.52452233,12.5577519 9.5245,12.44825 C9.52446548,12.2789747 9.66166222,12.141722 9.8309375,12.1416875 C10.0002128,12.141653 10.1374655,12.2788497 10.1375,12.448125 L10.1375,12.448125 Z" stroke="#000000" stroke-width="0.1" fill="#F7C600"></path>
                            <path d="M8.57425,14.971125 L10.966875,14.977875 C10.966875,14.977875 11.004375,14.667375 10.716875,14.478625 C11.970125,14.306375 11.644625,13.201 12.694125,13.13825 C12.897875,13.169625 12.145875,13.60825 12.145875,13.60825 C12.145875,13.60825 11.513125,14.05475 11.80125,14.281875 C12.03,14.462125 12.13025,14.17225 12.161625,13.952875 C12.192875,13.733625 13.17975,13.592625 13.038875,12.966 C12.803875,12.449 11.425375,13.310625 11.425375,13.310625 L10.441875,13.305125 C10.380625,13.19475 10.109375,12.752125 9.829625,12.750125 C9.4975,12.76225 9.263625,13.310625 9.263625,13.310625 L7.039125,13.310625 C7.039125,13.310625 6.962875,13.881375 8.09075,13.991 C8.34475,14.322625 8.5415,14.41525 8.76225,14.501125 C8.615125,14.62375 8.57375,14.772125 8.574375,14.971125 L8.57425,14.971125 Z" stroke="#000000" stroke-width="0.1" fill="#F7C600"></path>
                            <path d="M8.7465,14.485 L10.739375,14.47825 M7.83375,13.309625 C7.83375,13.309625 7.99325,14.24175 8.729,14.4625" stroke="#000000" stroke-width="0.1"></path>
                            <path d="M7.710775,13.2971438 C7.78433906,12.9415566 7.91923406,12.8802256 8.06636219,12.4264428 C8.09099375,11.9850584 7.710775,12.0339909 7.82120375,11.7519678 C8.01742969,11.4453131 7.91923406,11.1510569 7.55141375,10.9179663 C7.62497781,11.3226513 7.07299938,11.70287 7.07299938,12.0339909 C7.07299938,12.3651119 7.35518781,12.2915478 7.31832313,12.7944284 C7.34278938,13.0886847 7.24475906,13.0151206 7.22029281,13.2971438 L7.710775,13.2971438 L7.710775,13.2971438 Z" stroke="#000000" stroke-width="0.1" fill="url(#linearGradient-4)"></path>
                            <path d="M10.112875,11.087 C10.1128973,11.1877489 10.0591691,11.2808566 9.97192913,11.3312504 C9.88468919,11.3816442 9.77719139,11.381668 9.68992913,11.3313129 C9.60266686,11.2809578 9.54889733,11.1878739 9.548875,11.087125 C9.54884048,10.9313807 9.6750682,10.805097 9.8308125,10.8050625 C9.9865568,10.805028 10.1128405,10.9312557 10.112875,11.087 L10.112875,11.087 Z" stroke="#000000" stroke-width="0.1" fill="#F7C600"></path>
                            <g transform="translate(7.000000, 6.250000)" stroke-width="0.1">
                                <polyline stroke="#F7C600" points="1.31875 2.589125 2.862125 0.322375 4.412875 2.593875"></polyline>
                                <path d="M3.172125,1.74075 C3.17214733,1.8502519 3.11374939,1.95144775 3.01892913,2.00621804 C2.92410886,2.06098833 2.80727172,2.06101215 2.71242913,2.00628054 C2.61758653,1.95154892 2.55914733,1.8503769 2.559125,1.740875 C2.55909048,1.57159972 2.69628722,1.43434702 2.8655625,1.4343125 C3.03483778,1.43427798 3.17209048,1.57147472 3.172125,1.74075 L3.172125,1.74075 Z" stroke="#000000" fill="#F7C600"></path>
                                <path d="M1.608875,4.26375 L4.0015,4.270625 C4.0015,4.270625 4.039,3.96 3.751625,3.771375 C5.004875,3.598875 4.67925,2.493625 5.728875,2.431 C5.9325,2.46225 5.1805,2.901 5.1805,2.901 C5.1805,2.901 4.54775,3.3475 4.835875,3.5745 C5.064625,3.75475 5.164875,3.464875 5.19625,3.2455 C5.2275,3.02625 6.2145,2.88525 6.0735,2.258625 C5.8385,1.74175 4.46,2.60325 4.46,2.60325 L3.4765,2.59775 C3.41525,2.487375 3.144,2.04475 2.86425,2.04275 C2.532125,2.054875 2.29825,2.60325 2.29825,2.60325 L0.07375,2.60325 C0.07375,2.60325 -0.0025,3.174 1.125375,3.283625 C1.379375,3.61525 1.57625,3.708 1.797,3.79375 C1.64975,3.9165 1.60825,4.064875 1.609,4.26375 L1.608875,4.26375 Z" stroke="#000000" fill="#F7C600"></path>
                                <path d="M1.78125,3.77775 L3.774,3.770875 M0.868375,2.60225 C0.868375,2.60225 1.027875,3.534375 1.76375,3.755125" stroke="#000000"></path>
                                <path d="M0.7454,2.58989375 C0.818964063,2.23430656 0.953859063,2.17297562 1.10098719,1.71919281 C1.12561875,1.27780844 0.7454,1.32674094 0.85582875,1.04471781 C1.05205469,0.738063125 0.953859063,0.443806875 0.58603875,0.21071625 C0.659602813,0.61540125 0.107624375,0.99562 0.107624375,1.32674094 C0.107624375,1.65786187 0.389812813,1.58429781 0.352948125,2.08717844 C0.377414375,2.38143469 0.279384063,2.30787062 0.254917813,2.58989375 L0.7454,2.58989375 L0.7454,2.58989375 Z" stroke="#000000" fill="url(#linearGradient-5)"></path>
                                <path d="M3.1475,0.379625 C3.14752235,0.480373907 3.09379409,0.573481656 3.00655414,0.623875452 C2.91931419,0.674269248 2.81181639,0.674293073 2.72455411,0.623937952 C2.63729184,0.573582832 2.58352231,0.480498907 2.5835,0.37975 C2.58346548,0.224005701 2.7096932,0.0977220178 2.8654375,0.0976875 C3.0211818,0.0976529822 3.14746548,0.223880701 3.1475,0.379625 L3.1475,0.379625 Z" stroke="#000000" fill="#F7C600"></path>
                            </g>
                            <g transform="translate(7.125000, 1.750000)" stroke-width="0.1">
                                <polyline stroke="#F7C600" points="1.2785 2.566625 2.82175 0.299875 4.372625 2.571375"></polyline>
                                <path d="M3.13175,1.71825 C3.13401357,1.82920435 3.07612309,1.93271522 2.98040095,1.98886915 C2.88467882,2.04502308 2.76607946,2.04504727 2.67033442,1.98893239 C2.57458939,1.93281751 2.51665669,1.82933026 2.518875,1.718375 C2.5222104,1.55154519 2.6583881,1.41803562 2.82525125,1.41800158 C2.9921144,1.41796755 3.12834655,1.55142156 3.13175,1.71825 L3.13175,1.71825 Z" stroke="#000000" fill="#F7C600"></path>
                                <path d="M1.568625,4.24125 L3.961125,4.248 C3.961125,4.248 3.998625,3.9375 3.71125,3.748875 C4.9645,3.576375 4.639,2.471125 5.6885,2.408375 C5.89225,2.43975 5.14025,2.878375 5.14025,2.878375 C5.14025,2.878375 4.5075,3.325 4.795625,3.552 C5.024375,3.73225 5.124625,3.442375 5.155875,3.223 C5.187125,3.00375 6.174125,2.86275 6.033125,2.236125 C5.798125,1.71925 4.419625,2.58075 4.419625,2.58075 L3.436125,2.57525 C3.374875,2.464875 3.10375,2.02225 2.823875,2.02025 C2.49175,2.032375 2.257875,2.58075 2.257875,2.58075 L0.0335,2.58075 C0.0335,2.58075 -0.04275,3.1515 1.085125,3.261125 C1.339,3.59275 1.535875,3.6855 1.756625,3.77125 C1.6095,3.894 1.568,4.042375 1.568625,4.24125 L1.568625,4.24125 Z" stroke="#000000" fill="#F7C600"></path>
                                <path d="M1.740875,3.75525 L3.73375,3.748375 M0.828125,2.57975 C0.828125,2.57975 0.9875,3.511875 1.723375,3.732625" stroke="#000000"></path>
                                <path d="M0.70515,2.56739375 C0.778714063,2.21180656 0.913609063,2.15047563 1.06073719,1.69669281 C1.08536875,1.25530844 0.70515,1.30424094 0.81557875,1.02221781 C1.01180469,0.715563125 0.913609063,0.421306875 0.54578875,0.18821625 C0.619352813,0.59290125 0.067374375,0.97312 0.067374375,1.30424094 C0.067374375,1.63536188 0.349562813,1.56179781 0.312698125,2.06467844 C0.337164375,2.35893469 0.239134063,2.28537063 0.214667813,2.56739375 L0.70515,2.56739375 L0.70515,2.56739375 Z" stroke="#000000" fill="url(#linearGradient-6)"></path>
                                <path d="M3.107125,0.357125 C3.10929835,0.459266159 3.05605784,0.554594727 2.96795309,0.606316037 C2.87984835,0.658037348 2.77066004,0.658061553 2.68253237,0.606379309 C2.59440471,0.554697066 2.54112194,0.459392113 2.54325,0.35725 C2.54644594,0.203852491 2.67169551,0.0811580324 2.8251263,0.0811240199 C2.9785571,0.0810900073 3.10386105,0.203728923 3.107125,0.357125 L3.107125,0.357125 Z" stroke="#000000" fill="#F7C600"></path>
                            </g>
                            <g transform="translate(23.125000, 1.875000)" stroke-width="0.1">
                                <polyline stroke="#F7C600" points="1.294375 2.51525 2.83775 0.2485 4.3885 2.52"></polyline>
                                <path d="M3.14775,1.666875 C3.14779467,1.77637691 3.08941737,1.87758468 2.99460826,1.93237431 C2.89979916,1.98716395 2.78296201,1.98721159 2.68810824,1.93249931 C2.59325448,1.87778703 2.53479465,1.77662691 2.53475,1.667125 C2.53470534,1.5576231 2.59308265,1.45641534 2.68789175,1.40162571 C2.78270085,1.34683609 2.89953799,1.34678844 2.99439175,1.40150071 C3.08924551,1.45621299 3.14770534,1.5573731 3.14775,1.666875 L3.14775,1.666875 Z" stroke="#000000" fill="#F7C600"></path>
                                <path d="M1.5845,4.19 L3.977125,4.19675 C3.977125,4.19675 4.014625,3.88625 3.72725,3.6975 C4.9805,3.525125 4.654875,2.41975 5.7045,2.357125 C5.908125,2.388375 5.15625,2.827125 5.15625,2.827125 C5.15625,2.827125 4.523375,3.273625 4.811625,3.500625 C5.040375,3.680875 5.1405,3.391 5.171875,3.171625 C5.203125,2.952375 6.190125,2.811375 6.049125,2.18475 C5.814125,1.667875 4.435625,2.529375 4.435625,2.529375 L3.452125,2.524 C3.390875,2.4135 3.11975,1.970875 2.839875,1.968875 C2.50775,1.981 2.273875,2.529375 2.273875,2.529375 L0.0495,2.529375 C0.0495,2.529375 -0.02675,3.100125 1.101125,3.20975 C1.355,3.5415 1.551875,3.634125 1.772625,3.72 C1.6255,3.8425 1.584,3.991 1.584625,4.19 L1.5845,4.19 Z" stroke="#000000" fill="#F7C600"></path>
                                <path d="M1.75675,3.70375 L3.74975,3.697125 M0.844125,2.5285 C0.844125,2.5285 1.0035,3.4605 1.739375,3.68125" stroke="#000000"></path>
                                <path d="M0.721025,2.51601875 C0.794589063,2.16043156 0.929484063,2.09910063 1.07661219,1.64531781 C1.10124375,1.20393344 0.721025,1.25286594 0.83145375,0.970842813 C1.02767969,0.664188125 0.929484063,0.369931875 0.56166375,0.13684125 C0.635227813,0.54152625 0.083249375,0.921745 0.083249375,1.25286594 C0.083249375,1.58398688 0.365437813,1.51042281 0.328573125,2.01330344 C0.353039375,2.30755969 0.255009063,2.23399563 0.230542813,2.51601875 L0.721025,2.51601875 L0.721025,2.51601875 Z" stroke="#000000" fill="url(#linearGradient-7)"></path>
                                <path d="M3.123125,0.30575 C3.12532063,0.407890447 3.07210117,0.503230444 2.98400803,0.554971062 C2.8959149,0.606711681 2.78672688,0.60676009 2.6985879,0.555097607 C2.61044892,0.503435123 2.55714494,0.408142354 2.55925,0.306 C2.5624114,0.152601391 2.68763394,0.0298785785 2.8410651,0.0298105531 C2.99449627,0.0297425278 3.11982758,0.152354255 3.123125,0.30575 L3.123125,0.30575 Z" stroke="#000000" fill="#F7C600"></path>
                            </g>
                            <g transform="translate(23.000000, 6.250000)" stroke-width="0.1">
                                <polyline stroke="#F7C600" points="1.273125 2.57975 2.8165 0.313 4.36725 2.5845"></polyline>
                                <path d="M3.1265,1.73125 C3.12654466,1.8407519 3.06816735,1.94195966 2.97335825,1.99674929 C2.87854915,2.05153891 2.76171201,2.05158656 2.66685825,1.99687429 C2.57200449,1.94216201 2.51354466,1.8410019 2.5135,1.7315 C2.51346548,1.56222472 2.65066222,1.42497202 2.8199375,1.4249375 C2.98921278,1.42490298 3.12646548,1.56209972 3.1265,1.731375 L3.1265,1.73125 Z" stroke="#000000" fill="#F7C600"></path>
                                <path d="M1.56325,4.254375 L3.955875,4.26125 C3.955875,4.26125 3.993375,3.950625 3.706,3.762 C4.95925,3.589625 4.633625,2.48425 5.68325,2.421625 C5.886875,2.452875 5.134875,2.891625 5.134875,2.891625 C5.134875,2.891625 4.502125,3.338125 4.79025,3.565125 C5.019,3.745375 5.11925,3.4555 5.150625,3.236125 C5.181875,3.016875 6.168875,2.875875 6.027875,2.24925 C5.792875,1.732375 4.414375,2.593875 4.414375,2.593875 L3.430875,2.588375 C3.369625,2.478 3.098375,2.035375 2.818625,2.033375 C2.4865,2.0455 2.252625,2.593875 2.252625,2.593875 L0.028125,2.593875 C0.028125,2.593875 -0.048125,3.164625 1.07975,3.27425 C1.33375,3.605875 1.530625,3.698625 1.751375,3.784375 C1.604125,3.907125 1.562625,4.0555 1.563375,4.254375 L1.56325,4.254375 Z" stroke="#000000" fill="#F7C600"></path>
                                <path d="M1.7355,3.768375 L3.728375,3.7615 M0.82275,2.593 C0.82275,2.593 0.98225,3.525 1.718125,3.74575" stroke="#000000"></path>
                                <path d="M0.699775,2.58051875 C0.773339062,2.22493156 0.908234062,2.16360063 1.05536219,1.70981781 C1.07999375,1.26843344 0.699775,1.31736594 0.81020375,1.03534281 C1.00642969,0.728688125 0.908234062,0.434431875 0.54041375,0.20134125 C0.613977812,0.60602625 0.061999375,0.986245 0.061999375,1.31736594 C0.061999375,1.64848688 0.344187812,1.57492281 0.307323125,2.07780344 C0.331789375,2.37205969 0.233759062,2.29849563 0.209292812,2.58051875 L0.699775,2.58051875 L0.699775,2.58051875 Z" stroke="#000000" fill="url(#linearGradient-8)"></path>
                                <path d="M3.101875,0.37025 C3.10189733,0.470998896 3.04816907,0.564106628 2.96092913,0.614500414 C2.87368919,0.6648942 2.76619139,0.664918024 2.67892913,0.614562914 C2.59166686,0.564207803 2.53789733,0.471123896 2.537875,0.370375 C2.53784048,0.214630701 2.6640682,0.0883470178 2.8198125,0.0883125 C2.9755568,0.0882779822 3.10184048,0.214505701 3.101875,0.37025 L3.101875,0.37025 Z" stroke="#000000" fill="#F7C600"></path>
                            </g>
                            <g transform="translate(22.750000, 10.875000)" stroke-width="0.1">
                                <polyline stroke="#F7C600" points="1.326875 2.4925 2.870125 0.22575 4.421 2.49725"></polyline>
                                <path d="M3.180125,1.644 C3.18241085,1.75495367 3.12454141,1.85847599 3.02883086,1.91464923 C2.93312031,1.97082246 2.81452123,1.97087084 2.71876489,1.91477571 C2.62300855,1.85868057 2.56505467,1.75520549 2.56725,1.64425 C2.57055087,1.47741913 2.70670149,1.34388122 2.873565,1.34381316 C3.0404285,1.34374509 3.17668803,1.47717188 3.180125,1.644 L3.180125,1.644 Z" stroke="#000000" fill="#F7C600"></path>
                                <path d="M1.617,4.167125 L4.0095,4.173875 C4.0095,4.173875 4.047,3.863375 3.759625,3.674625 C5.012875,3.50225 4.68725,2.396875 5.736875,2.33425 C5.940625,2.3655 5.188625,2.80425 5.188625,2.80425 C5.188625,2.80425 4.555875,3.25075 4.844,3.47775 C5.07275,3.658 5.173,3.368125 5.20425,3.148875 C5.2355,2.9295 6.2225,2.7885 6.0815,2.162 C5.8465,1.645 4.468,2.506625 4.468,2.506625 L3.4845,2.501125 C3.42325,2.39075 3.152125,1.948125 2.87225,1.946125 C2.540125,1.958125 2.30625,2.506625 2.30625,2.506625 L0.081875,2.506625 C0.081875,2.506625 0.005625,3.07725 1.1335,3.187 C1.387375,3.518625 1.58425,3.61125 1.805,3.697 C1.657875,3.81975 1.616375,3.96825 1.617,4.167 L1.617,4.167125 Z" stroke="#000000" fill="#F7C600"></path>
                                <path d="M1.78925,3.681 L3.782125,3.67425 M0.8765,2.505625 C0.8765,2.505625 1.035875,3.43775 1.77175,3.6585" stroke="#000000"></path>
                                <path d="M0.753525,2.49314375 C0.827089062,2.13755656 0.961984062,2.07622562 1.10911219,1.62244281 C1.13374375,1.18105844 0.753525,1.22999094 0.86395375,0.947967812 C1.06017969,0.641313125 0.961984062,0.347056875 0.59416375,0.11396625 C0.667727812,0.51865125 0.115749375,0.89887 0.115749375,1.22999094 C0.115749375,1.56111187 0.397937812,1.48754781 0.361073125,1.99042844 C0.385539375,2.28468469 0.287509062,2.21112062 0.263042812,2.49314375 L0.753525,2.49314375 L0.753525,2.49314375 Z" stroke="#000000" fill="url(#linearGradient-9)"></path>
                                <path d="M3.1555,0.282875 C3.15769563,0.385015447 3.10447617,0.480355444 3.01638303,0.532096062 C2.9282899,0.583836681 2.81910188,0.58388509 2.7309629,0.532222607 C2.64282392,0.480560123 2.58951994,0.385267354 2.591625,0.283125 C2.5947864,0.129726391 2.72000894,0.00700357847 2.8734401,0.00693555312 C3.02687127,0.00686752778 3.15220258,0.129479255 3.1555,0.282875 L3.1555,0.282875 Z" stroke="#000000" fill="#F7C600"></path>
                            </g>
                            <polyline stroke="#F7C600" stroke-width="0.1" points="24.272875 26.78375 25.816125 24.51725 27.367 26.7885"></polyline>
                            <path d="M26.125625,25.937 C26.1279109,26.0479537 26.0700414,26.151476 25.9743309,26.2076492 C25.8786203,26.2638225 25.7600212,26.2638708 25.6642649,26.2077757 C25.5685086,26.1516806 25.5105547,26.0482055 25.51275,25.93725 C25.5160509,25.7704191 25.6522015,25.6368812 25.819065,25.6368132 C25.9859285,25.6367451 26.122188,25.7701719 26.125625,25.937 L26.125625,25.937 Z" stroke="#000000" stroke-width="0.1" fill="#F7C600"></path>
                            <path d="M24.562875,28.458375 L26.955375,28.465125 C26.955375,28.465125 26.992875,28.154625 26.7055,27.965875 C27.95875,27.793625 27.63325,26.688125 28.68275,26.6255 C28.886375,26.656875 28.1345,27.0955 28.1345,27.0955 C28.1345,27.0955 27.501625,27.542 27.789875,27.769125 C28.018625,27.949375 28.11875,27.6595 28.150125,27.440125 C28.181375,27.220875 29.168375,27.079875 29.027375,26.45325 C28.792375,25.93625 27.413875,26.797875 27.413875,26.797875 L26.430375,26.792375 C26.369125,26.682 26.097875,26.239375 25.818125,26.237375 C25.486,26.2495 25.252125,26.797875 25.252125,26.797875 L23.0275,26.797875 C23.0275,26.797875 22.95125,27.368625 24.079125,27.47825 C24.333,27.809875 24.529875,27.9025 24.750625,27.988375 C24.6035,28.111 24.562,28.259375 24.562625,28.458375 L24.562875,28.458375 Z" stroke="#000000" stroke-width="0.1" fill="#F7C600"></path>
                            <path d="M24.73475,27.972 L26.727625,27.96525 M23.8225,26.798 C23.8225,26.798 23.981875,27.73 24.71775,27.95075" stroke="#000000" stroke-width="0.1"></path>
                            <path d="M23.6992813,26.7851444 C23.7728043,26.4294621 23.9077891,26.3681288 24.0549635,25.9144158 C24.0794712,25.4730208 23.6992813,25.5219078 23.80963,25.2398769 C24.0059481,24.9332101 23.9077891,24.6389895 23.5397888,24.4058457 C23.6134402,24.8106716 23.0615681,25.1908616 23.0615681,25.5219078 C23.0615681,25.8530824 23.343599,25.7795593 23.3067733,26.2822877 C23.3314093,26.5766366 23.2332503,26.5029852 23.2087426,26.7852727 L23.6992813,26.7852727 L23.6992813,26.7851444 Z" stroke="#000000" stroke-width="0.1" fill="url(#linearGradient-10)"></path>
                            <path d="M26.10125,24.575625 C26.1034234,24.6777662 26.0501828,24.7730947 25.9620781,24.824816 C25.8739734,24.8765373 25.764785,24.8765616 25.6766574,24.8248793 C25.5885297,24.7731971 25.5352469,24.6778921 25.537375,24.57575 C25.5405709,24.4223525 25.6658205,24.299658 25.8192513,24.299624 C25.9726821,24.29959 26.0979861,24.4222289 26.10125,24.575625 L26.10125,24.575625 Z" stroke="#000000" stroke-width="0.1" fill="#F7C600"></path>
                            <g transform="translate(23.000000, 19.750000)" stroke-width="0.1">
                                <polyline stroke="#F7C600" points="1.24875 2.5455 2.792 0.27875 4.342875 2.55025"></polyline>
                                <path d="M3.102125,1.697125 C3.10216967,1.80662691 3.04379237,1.90783468 2.94898326,1.96262431 C2.85417416,2.01741395 2.73733701,2.01746159 2.64248324,1.96274931 C2.54762948,1.90803703 2.48916965,1.80687691 2.489125,1.697375 C2.48905598,1.52809974 2.62622474,1.39081907 2.7955,1.39075003 C2.96477526,1.39068099 3.10205595,1.52784974 3.102125,1.697125 L3.102125,1.697125 Z" stroke="#000000" fill="#F7C600"></path>
                                <path d="M1.538875,4.220125 L3.9315,4.227 C3.9315,4.227 3.969,3.916375 3.6815,3.72775 C4.93475,3.555375 4.60925,2.45 5.658875,2.387375 C5.8625,2.418625 5.1105,2.857375 5.1105,2.857375 C5.1105,2.857375 4.47775,3.303875 4.765875,3.530875 C4.994625,3.711125 5.094875,3.42125 5.12625,3.201875 C5.1575,2.982625 6.1445,2.841625 6.0035,2.215 C5.7685,1.698125 4.39,2.559625 4.39,2.559625 L3.4065,2.554125 C3.34525,2.44375 3.074,2.001125 2.79425,1.999125 C2.462125,2.01125 2.22825,2.559625 2.22825,2.559625 L0.00375,2.559625 C0.00375,2.559625 -0.0725,3.130375 1.055375,3.24 C1.309375,3.571625 1.50625,3.664375 1.727,3.75025 C1.57975,3.87275 1.53825,4.02125 1.539,4.22025 L1.538875,4.220125 Z" stroke="#000000" fill="#F7C600"></path>
                                <path d="M1.71125,3.734125 L3.704,3.72725 M0.798375,2.55875 C0.798375,2.55875 0.957875,3.49075 1.69375,3.7115" stroke="#000000"></path>
                                <path d="M0.6754,2.54614375 C0.748964062,2.19055656 0.883859062,2.12922563 1.03098719,1.67544281 C1.05561875,1.23405844 0.6754,1.28299094 0.78582875,1.00096781 C0.982054687,0.694313125 0.883859062,0.400056875 0.51603875,0.16696625 C0.589602812,0.57165125 0.037624375,0.95187 0.037624375,1.28299094 C0.037624375,1.61411188 0.319812812,1.54054781 0.282948125,2.04342844 C0.307414375,2.33768469 0.209384062,2.26412063 0.184917812,2.54614375 L0.6754,2.54614375 L0.6754,2.54614375 Z" stroke="#000000" fill="url(#linearGradient-11)"></path>
                                <path d="M3.0775,0.336 C3.07754466,0.436748896 3.02383703,0.529868541 2.93660825,0.580281664 C2.84937948,0.630694787 2.74188169,0.630742437 2.65460825,0.580406664 C2.56733482,0.530070891 2.51354466,0.436998896 2.5135,0.33625 C2.51343096,0.180505701 2.6396307,0.0541940356 2.795375,0.054125 C2.9511193,0.0540559644 3.07743096,0.180255701 3.0775,0.336 L3.0775,0.336 Z" stroke="#000000" fill="#F7C600"></path>
                            </g>
                            <g transform="translate(9.875000, 15.625000)" stroke-width="0.1">
                                <polyline stroke="#F7C600" points="1.334625 2.49875 2.878 0.232 4.42875 2.5035"></polyline>
                                <path d="M3.188,1.65025 C3.18804467,1.75975191 3.12966737,1.86095968 3.03485826,1.91574931 C2.94004916,1.97053895 2.82321201,1.97058659 2.72835824,1.91587431 C2.63350448,1.86116203 2.57504465,1.76000191 2.575,1.6505 C2.57493098,1.48122474 2.71209974,1.34394407 2.881375,1.34387503 C3.05065026,1.34380599 3.18793095,1.48097474 3.188,1.65025 L3.188,1.65025 Z" stroke="#000000" fill="#F7C600"></path>
                                <path d="M1.62475,4.173375 L4.017375,4.180125 C4.017375,4.180125 4.054875,3.869625 3.7675,3.680875 C5.02075,3.5085 4.695125,2.403125 5.74475,2.3405 C5.948375,2.37175 5.196375,2.8105 5.196375,2.8105 C5.196375,2.8105 4.563625,3.257 4.85175,3.484 C5.0805,3.66425 5.18075,3.374375 5.212125,3.155125 C5.243375,2.93575 6.230375,2.79475 6.089375,2.16825 C5.854375,1.65125 4.475875,2.512875 4.475875,2.512875 L3.492375,2.507375 C3.431125,2.397 3.159875,1.954375 2.880125,1.952375 C2.548,1.964375 2.314125,2.512875 2.314125,2.512875 L0.089625,2.512875 C0.089625,2.512875 0.013375,3.0835 1.14125,3.19325 C1.39525,3.524875 1.592125,3.6175 1.812875,3.70325 C1.665625,3.826 1.624125,3.9745 1.624875,4.17325 L1.62475,4.173375 Z" stroke="#000000" fill="#F7C600"></path>
                                <path d="M1.797,3.68725 L3.789875,3.6805 M0.88425,2.511875 C0.88425,2.511875 1.04375,3.444 1.779625,3.66475" stroke="#000000"></path>
                                <path d="M0.761275,2.49939375 C0.834839063,2.14380656 0.969734063,2.08247562 1.11686219,1.62869281 C1.14149375,1.18730844 0.761275,1.23624094 0.87170375,0.954217812 C1.06792969,0.647563125 0.969734063,0.353306875 0.60191375,0.12021625 C0.675477813,0.52490125 0.123499375,0.90512 0.123499375,1.23624094 C0.123499375,1.56736187 0.405687813,1.49379781 0.368823125,1.99667844 C0.393289375,2.29093469 0.295259063,2.21737062 0.270792813,2.49939375 L0.761275,2.49939375 L0.761275,2.49939375 Z" stroke="#000000" fill="url(#linearGradient-12)"></path>
                                <path d="M3.163375,0.289125 C3.16341966,0.389873896 3.10971203,0.482993541 3.02248325,0.533406664 C2.93525448,0.583819787 2.82775669,0.583867437 2.74048325,0.533531664 C2.65320982,0.483195891 2.59941966,0.390123896 2.599375,0.289375 C2.59930596,0.133630701 2.7255057,0.00731903559 2.88125,0.00725 C3.0369943,0.00718096441 3.16330596,0.133380701 3.163375,0.289125 L3.163375,0.289125 Z" stroke="#000000" fill="#F7C600"></path>
                            </g>
                            <g transform="translate(12.375000, 1.750000)" stroke="#000000" stroke-width="0.1">
                                <path d="M7.092625,27.14675 C7.092625,27.14675 7.717,28.58625 8.428125,27.70175 C9.13925,26.81725 8.879125,26.435625 8.879125,26.435625 L7.2835,25.5685 L6.815125,26.557125 L7.092625,27.14675 L7.092625,27.14675 Z" fill="#F7C600"></path>
                                <path d="M8.463125,26.956625 C8.463125,26.956625 8.56725,26.974 8.653875,26.817875 C8.7405,26.66175 8.463125,26.592375 8.34175,26.419 L8.203,26.6965 L8.463125,26.956625 L8.463125,26.956625 Z M4.85425,26.57475 L3.449375,27.337875 C3.449375,27.337875 2.755625,27.476625 2.703625,27.337875 C2.651625,27.199125 2.721,27.07775 3.085125,27.060375 C3.449375,27.043 4.438,26.141125 4.438,26.141125 L4.85425,26.57475 L4.85425,26.57475 Z M4.8725,1.61675 C4.8725,1.61675 4.907125,1.94625 4.9245,2.119625 C4.941875,2.293 4.647,2.657375 4.629625,2.64 C4.61225,2.622625 4.4735,2.657375 4.490875,2.761375 C4.50825,2.865375 4.716375,2.900125 4.716375,2.900125 C4.716375,2.900125 4.629625,3.264375 4.716375,3.28175 C4.803125,3.299125 4.490875,3.75 4.716375,3.871375 C4.941875,3.99275 5.323375,4.148875 5.496875,4.11425 C5.67025,4.0795 5.496875,4.790625 5.496875,4.790625 L5.01125,5.83125 L7.682125,5.55375 L7.127125,4.66925 C7.127125,4.66925 6.866875,4.49575 6.93625,3.99275 C7.005625,3.489875 6.901625,1.21775 6.901625,1.21775 L4.993875,0.957625 L4.872375,1.61675 L4.8725,1.61675 Z M4.386375,5.571125 C4.386375,5.571125 3.51925,5.97 3.553875,7.045375 C3.3285,8.086 3.207,9.126625 3.207,9.126625 C3.207,9.126625 2.18375,10.2885 1.871625,10.704875 C1.559375,11.121125 1.091125,11.970875 0.917625,12.196375 C0.744125,12.421875 0.06775,13.167625 0.085125,13.445125 C0.1025,13.722625 -0.071,14.954125 0.6055,15.09275 C0.778875,15.162125 1.333875,13.670625 1.333875,13.670625 C1.333875,13.670625 1.368625,13.028875 1.177875,12.9075 C0.987125,12.786125 1.594125,12.369875 1.594125,12.369875 C1.594125,12.369875 2.756125,11.519875 3.01625,11.311875 C3.276375,11.103875 3.9875,10.305875 3.9875,10.305875 L4.386375,5.571 L4.386375,5.571125 Z" fill="#FFC6B5"></path>
                                <path d="M5.375,4.756 C5.375,4.756 5.6005,5.363 6.1035,5.258875 C6.606375,5.154875 7.196125,4.6865 7.196125,4.6865 C7.196125,4.6865 7.664375,4.66925 7.73375,4.738625 C7.803125,4.808 8.999875,5.969875 8.96525,6.33425 C8.9305,6.6985 8.41025,6.59425 8.219375,6.837125 C8.0285,7.08 7.716375,7.687125 7.803125,8.138 C7.889875,8.588875 8.15,9.178625 8.115375,9.404125 C8.08075,9.629625 7.889875,9.698875 7.889875,9.820375 C7.889875,9.941625 8.046,10.149875 8.046,10.375375 C8.046,10.600875 7.837875,10.930375 7.8725,11.15575 C7.90725,11.38125 7.924625,12.04025 7.924625,12.04025 L7.8725,15.092875 C7.8725,15.092875 8.046,15.197 8.063375,15.370375 C8.080625,15.543875 9.24275,20.59075 9.24275,20.59075 C9.24275,20.59075 9.190625,20.747 9.06925,20.7295 C8.947875,20.712 9.5375,21.51 9.554875,21.7355 C9.57225,21.961 10.161875,23.730125 10.144625,23.973 C10.127125,24.21575 10.0405,24.753375 9.988375,24.77075 C9.9365,24.788125 10.37,25.88075 10.300625,26.054125 C10.23125,26.227625 9.52025,26.210375 9.52025,26.210375 L9.329375,26.175625 C9.329375,26.175625 9.346875,26.401 9.208125,26.418375 C9.069375,26.43575 8.046,26.366375 8.046,26.366375 C8.046,26.366375 7.751125,26.81725 7.57775,26.8 C7.40425,26.7825 7.17875,26.470375 7.12675,26.5225 C7.07475,26.5745 7.282875,26.869375 7.23075,26.956 C7.17875,27.04275 6.29425,27.2335 6.12075,26.81725 C5.947375,26.401 6.224875,26.505125 6.172875,26.4185 C6.12075,26.331625 5.721875,26.10625 5.6005,26.175625 C5.479125,26.245 5.912625,26.349 5.895375,26.5225 C5.878,26.695875 5.51375,26.956 5.375,26.956 C5.23625,26.956 4.90675,26.314375 4.421125,26.38375 C3.9355,26.453125 3.62325,26.5745 3.62325,26.5745 C3.62325,26.5745 3.051,26.81725 2.808125,26.76525 C2.565375,26.71325 2.46125,26.5225 2.46125,26.418375 C2.46125,26.314375 2.63475,25.863375 2.617375,25.724625 C2.6,25.585875 2.46125,25.447125 2.46125,25.239 C2.46125,25.030875 2.860125,24.31975 2.860125,24.31975 L2.842875,21.1285 C2.842875,21.1285 2.478625,21.1285 2.46125,20.903 C2.443875,20.6775 3.01625,15.856 3.103,15.54375 C3.18975,15.2315 3.415125,14.1215 3.415125,14.1215 C3.415125,14.1215 3.155125,14.243 3.137625,14.1215 C3.120125,14 3.918125,11.2425 3.918125,11.2425 C3.918125,11.2425 4.056875,9.872375 4.056875,9.508125 C4.056875,9.144 3.9875,8.641 3.9875,8.641 C3.9875,8.641 3.2755,8.3395 3.259125,7.877875 C3.194,7.14325 3.935375,6.733125 4.02225,6.490375 L4.369125,5.519125 C4.369125,5.519125 4.750625,4.86 5.375,4.756 L5.375,4.756 Z" fill="#FFFFFF"></path>
                                <path d="M5.1155,26.783 C5.1155,26.783 3.43325,27.667625 3.190375,27.737 C2.9475,27.806375 2.791375,27.442125 3.03425,27.37275 C3.277125,27.303375 3.658625,27.268625 3.658625,27.268625 C3.658625,27.268625 3.08625,26.81775 3.103625,26.800375 C3.121,26.783 3.884125,26.505625 3.9015,26.505625 C3.918875,26.505625 4.14425,26.9565 4.30025,26.921875 C4.45625,26.88725 4.907375,26.54025 4.907375,26.54025 C4.907375,26.54025 5.15025,26.81775 5.1155,26.783 L5.1155,26.783 Z" fill="#F7C600"></path>
                                <path d="M7.486125,27.2675 C7.64525,27.4725 7.707375,27.828375 8.071625,27.62025 C8.435875,27.412125 7.885,27.025875 7.885,27.025875 L7.486125,27.267375 L7.486125,27.2675 Z M8.15075,27.23275 C8.15075,27.23275 8.324125,27.3715 8.48025,27.215375 C8.636375,27.05925 8.168,26.72975 8.168,26.72975 L7.942625,26.989875 L8.15075,27.23275 L8.15075,27.23275 Z" fill="#FFC6B5"></path>
                                <path d="M7.63,5.43225 C7.63,5.43225 6.08625,6.420875 6.121,6.76775 M7.977125,5.605625 C7.977125,5.605625 7.63025,5.98725 7.612875,5.98725 M8.445,6.022 C8.445,6.022 7.681875,6.646375 7.80325,7.04525 M4.83775,5.345625 C4.83775,5.345625 4.61225,5.813875 4.66425,5.97 C4.716375,6.126125 5.098,6.71575 5.149875,7.08 C5.202,7.44425 5.149875,7.704375 5.149875,7.704375 M4.439375,6.21275 C4.439375,6.21275 4.508625,6.76775 4.61275,6.87175 C4.716875,6.975875 4.994375,7.44425 5.029,7.634875 M4.3005,8.519375 C4.3005,8.519375 4.751375,8.744875 5.167625,7.877625 M5.842875,7.27075 C5.8255,7.27075 5.513375,8.120625 6.068375,8.43275 C6.623375,8.744875 7.039625,8.71025 7.282375,8.623625 C7.52525,8.536875 7.785375,8.38075 7.785375,8.38075 M5.6015,8.311375 C5.6015,8.311375 5.636125,9.456125 7.3185,10.5835 M5.670875,9.386625 C5.670875,9.386625 5.653625,10.392625 6.312625,10.8435 M5.32375,8.20725 C5.32375,8.20725 4.82075,9.698875 4.421875,9.855 M5.16675,9.3 C5.16675,9.3 5.149375,10.375375 5.010625,10.756875 M4.8725,11.017 C4.8725,11.017 5.219375,11.450625 5.600875,11.415875 C5.9825,11.38125 6.1385,10.93025 6.39875,10.999625 C6.65875,11.069125 6.901625,11.277125 7.50875,11.225125 M6.64125,11.676 C6.64125,11.676 6.64125,12.5605 6.7975,12.64725 C6.95375,12.734 6.884125,13.549125 6.884125,13.549125 M4.52525,11.259875 C4.52525,11.259875 4.508,12.092375 4.403875,12.38725 C4.299875,12.682 4.09175,13.185 4.126375,13.618625 M3.46725,14.104875 C3.554,14.070125 3.848875,13.81 3.848875,13.81 M4.0045,14.000625 C4.0045,14.000625 3.25875,17.191875 3.466875,19.09975 M4.178125,14.156125 C4.178125,14.156125 3.7965,16.5495 3.97,17.0005 M3.988,14.086625 C4.005375,14.086625 5.444875,14.19075 5.444875,14.19075 M5.65275,14.000625 C5.65275,14.000625 6.051625,14.208875 6.606625,14.174125 M5.479125,15.162875 C5.479125,15.162875 5.40975,19.256 5.30575,20.157875 M7.613375,16.0985 C7.613375,16.0985 8.064375,19.68875 8.324625,20.01825 M6.7455,16.549875 C6.7455,16.549875 7.023,19.723875 7.179125,20.001375 M2.80925,21.111 C2.80925,21.111 3.346875,20.9375 3.8325,20.41725 C4.3875,21.163 5.2375,20.452 5.2375,20.452 C5.2375,20.452 6.5555,21.353875 7.145125,20.347875 C8.047,20.937625 8.498,20.261125 8.498,20.261125 C8.498,20.261125 8.8275,20.764125 9.070375,20.712125 M7.63,21.05975 C7.63,21.05975 8.30625,24.233625 9.31225,25.1355 M4.143375,20.729125 C4.143375,20.729125 4.230125,23.382875 4.38625,25.255875 M4.02275,23.729625 C4.02275,23.729625 3.936,25.464 3.831875,25.5855 M2.999375,25.75975 C2.999375,25.75975 3.190125,26.5055 4.144125,25.81175 C5.098,25.118 5.115375,26.072 5.15,26.176 C5.18475,26.28 5.340875,27.025875 5.705,26.4015 M6.46775,25.377875 C6.46775,25.377875 6.311625,26.921375 7.681875,25.794125 C9.052,24.66675 9.2775,25.77675 9.312125,26.123625"></path>
                                <path d="M4.8195,1.5125 C4.8195,1.5125 5.201125,1.564625 5.40925,1.44325 C5.617375,1.32175 5.86025,1.26975 6.033625,1.512625 C6.207,1.7555 6.3285,1.738 6.3285,1.738 C6.3285,1.738 6.06825,2.37975 6.3285,2.449125 C6.588625,2.5185 6.71,2.5185 6.727375,2.60525 C6.74475,2.692 6.501875,2.88275 6.57125,2.969375 C6.640625,3.056125 6.762125,3.16025 6.779375,3.229625 C6.79675,3.299 6.623375,3.59375 6.675375,3.66325 C6.727375,3.732625 6.8835,4.010125 6.9875,4.010125 C7.091625,4.010125 7.02225,4.443625 7.334375,4.339625 C7.6465,4.235625 7.629375,3.958 7.629375,3.958 C7.629375,3.958 7.95875,3.906 8.045625,3.611125 C8.13225,3.316375 8.340375,3.247 8.340375,3.247 C8.340375,3.247 8.756625,3.0215 8.201625,2.6745 C8.201625,0.246375 6.606,0.506625 6.606,0.506625 C6.606,0.506625 6.415125,0.073 6.103,0.125 C5.79075,0.177125 5.7735,0.54125 5.548,0.506625 C5.3225,0.471875 5.2705,0.315875 5.253125,0.33325 C5.23575,0.3505 5.045,0.697375 5.045,0.784125 C5.045,0.870875 4.438,0.66275 4.49,1.113625 C4.542,1.5645 4.836875,1.54725 4.8195,1.512625 L4.8195,1.5125 Z" fill="#9C5100"></path>
                                <path d="M6.486,0.922875 C6.486,0.922875 6.3645,1.686 7.17975,1.616625 C7.075625,2.032875 7.387875,2.171625 7.387875,2.171625 M7.99375,2.639875 C8.011,2.639875 8.357875,2.865375 7.97625,3.142875 M6.815,3.246875 C6.815,3.246875 6.988375,3.455 7.179125,3.403125 C7.369875,3.351 7.682125,3.59375 7.682125,3.59375 C7.682125,3.59375 7.94225,3.6805 7.977,3.6285 M5.756875,3.906 C5.756875,3.906 6.346625,4.1315 6.728125,3.195 M4.664125,2.9175 L5.011,2.93475"></path>
                                <polyline points="4.717 3.26425 5.217 3.26425 4.77264452 3.76425"></polyline>
                                <path></path>
                                <path d="M8.89625,6.41375 C8.913625,6.41375 9.46875,8.13075 9.538,8.564375 C9.607375,8.998 9.832875,10.732375 9.746125,10.97525 C9.659375,11.218 8.774875,12.38 8.67075,12.674875 C8.56675,12.969625 7.942375,14.097 7.942375,14.097 C7.942375,14.097 7.78625,15.207 7.716875,15.259125 C7.6475,15.311125 7.896,15.583625 7.873,15.675375 C7.838625,15.778625 7.37,16.265 7.161875,16.213 C6.95375,16.161 6.62425,15.918125 6.606875,15.692625 C6.5895,15.467125 6.62425,14.721375 6.780375,14.530625 C6.9365,14.339875 7.751625,12.41475 7.803625,12.293125 C7.855625,12.171875 8.549375,10.662875 8.56675,10.402875 C8.584125,10.142625 8.350875,9.541125 8.105625,9.320375 C7.55975,7.71375 7.774375,6.744875 8.89625,6.41375 L8.89625,6.41375 Z" fill="#FFC6B5"></path>
                                <path d="M0.8155,13.85525 L0.84275,14.61525 M0.103375,13.799 C0.103375,13.799 0.590625,14.614 0.55,15.04825"></path>
                                <path d="M6.63475,15.50175 C6.63475,15.50175 6.999125,15.4635 6.987625,16.07175 C7.22025,15.316125 7.693375,15.298125 7.693375,15.298125"></path>
                            </g>
                            <path d="M17.764875,34.618625 C25.089625,34.415125 29.82025,29.125 29.769375,29.074125 C29.7185,29.02325 30.735875,27.599125 31.54975,27.8025 C32.3635,28.005875 33.5335,30.396625 34.95775,30.90525 C35.669875,32.024375 34.754375,33.04175 34.449125,33.24525 C34.143875,33.448625 32.7705,34.00825 32.567,33.194375 C32.363625,32.3805 31.956625,32.533125 31.956625,32.533125 C31.956625,32.533125 25.445625,38.8915 17.917875,38.637125 C10.13575,38.688375 3.726625,32.533375 3.726625,32.533375 L3.167,33.14375 C3.167,33.14375 2.556625,33.805 2.2515,33.754125 C1.94625,33.70325 0.623625,32.8385 0.521875,31.97375 C0.42025,31.109 1.33575,30.5495 1.33575,30.5495 C1.33575,30.5495 3.574,28.82 3.82825,27.9045 C4.337,27.39575 5.30325,28.2605 5.30325,28.2605 C5.30325,28.2605 11.203875,35.025875 17.76575,34.619 L17.764875,34.618625 Z" stroke="#000000" stroke-width="0.1" fill="#F7C600"></path>
                            <path d="M1.183,30.6845 C1.183,30.6845 1.78825,30.52325 2.01025,30.775375 C2.232125,31.0275 3.755375,32.5205 3.755375,32.5205" stroke="#000000" stroke-width="0.1"></path>
                            <path d="M2.565,31.39025 L1.959625,31.84425 C1.959625,31.84425 3.482875,32.14675 3.139875,33.1455 M34.412125,30.63325 C34.412125,30.63325 34.1095,30.471875 33.635375,30.824875 C33.16125,31.178 31.96075,32.519625 31.96075,32.519625" stroke="#000000" stroke-width="0.1"></path>
                            <path d="M33.05075,31.3505 L33.706375,31.854875 C33.706375,31.854875 32.3345,31.945625 32.637125,33.247" stroke="#000000" stroke-width="0.1"></path>
                            <path d="M8.936875,32.29875 L8.892875,32.360625 C8.800875,32.315125 8.695875,32.30675 8.578,32.33525 C8.4915,32.357625 8.3285,32.439 8.089,32.579 L6.073375,33.754 L6.018375,33.71475 L6.526,31.3585 C6.587375,31.0745 6.615375,30.902 6.610125,30.841 C6.606,30.781 6.563375,30.714375 6.482625,30.641625 L6.526625,30.57975 L7.613125,31.354625 L7.569,31.4165 L7.53225,31.39025 C7.434125,31.32025 7.3585,31.284875 7.305375,31.284 C7.267875,31.282375 7.237625,31.29775 7.2145,31.330125 C7.20025,31.350125 7.187625,31.37725 7.176625,31.411375 C7.1665,31.444625 7.1445,31.539 7.11075,31.694875 L6.78925,33.167625 L7.953625,32.4825 C8.093625,32.399125 8.1845,32.34125 8.226125,32.30875 C8.267875,32.27625 8.299,32.245625 8.31975,32.216625 C8.3435,32.183125 8.355625,32.14725 8.356125,32.108875 C8.3565,32.070625 8.34425,32.032375 8.31925,31.994375 C8.284875,31.94125 8.228125,31.8865 8.149,31.830125 L8.193125,31.76825 L8.936875,32.29875 M9.660625,35.801 L9.624375,35.867625 L8.347125,35.16925 L8.383625,35.102625 L8.464625,35.146875 C8.5355,35.185625 8.5995,35.20425 8.6565,35.202625 C8.696875,35.202875 8.736625,35.18725 8.775875,35.155625 C8.80475,35.134 8.85275,35.061875 8.91975,34.939375 L9.7985,33.33275 C9.86675,33.207875 9.90275,33.12625 9.906625,33.08775 C9.9105,33.049375 9.89825,33.0075 9.87,32.962375 C9.8435,32.91675 9.796,32.875125 9.7275,32.83775 L9.6465,32.793375 L9.682875,32.72675 L10.96,33.425125 L10.9235,33.49175 L10.8425,33.4475 C10.771625,33.40875 10.70775,33.39 10.65075,33.39175 C10.61025,33.391375 10.569875,33.40675 10.5295,33.43775 C10.500625,33.459375 10.452625,33.5315 10.38575,33.653875 L9.507,35.260625 C9.438625,35.3855 9.402625,35.467125 9.39875,35.505625 C9.396,35.54475 9.408,35.587125 9.4345,35.63275 C9.46275,35.678 9.51125,35.71925 9.579625,35.756625 L9.66075,35.801 M14.326125,34.70675 L13.996875,35.631125 L13.925375,35.605625 C13.929,35.32225 13.867875,35.083875 13.741875,34.890875 C13.615875,34.697875 13.4505,34.56475 13.2455,34.49175 C13.0495,34.422 12.86675,34.41925 12.697,34.483875 C12.527625,34.547 12.38075,34.667625 12.256375,34.845625 C12.1316764,35.0241768 12.0316092,35.2187192 11.958875,35.424 C11.869375,35.67525 11.8205,35.9065 11.81225,36.117 C11.804,36.3275 11.849875,36.501 11.94975,36.63675 C12.050875,36.773 12.19225,36.8735 12.374125,36.93825 C12.43725,36.96075 12.504125,36.97725 12.574375,36.987875 C12.6465,36.9975 12.721875,37.001875 12.800625,37.000875 L12.995,36.4555 C13.03175,36.352375 13.04825,36.283375 13.044625,36.24875 C13.0415,36.21275 13.02175,36.1745 12.98525,36.133875 C12.95025,36.093875 12.901,36.0625 12.837875,36.04 L12.770125,36.015875 L12.795625,35.94425 L14.070125,36.39825 L14.044625,36.46975 C13.945625,36.44175 13.873125,36.43125 13.827125,36.438125 C13.782875,36.444125 13.742125,36.466625 13.705,36.505625 C13.684625,36.526125 13.6575,36.584 13.6235,36.679375 L13.42925,37.22475 C13.235,37.23975 13.040375,37.233625 12.84525,37.206375 C12.6462652,37.1796048 12.4506747,37.1318385 12.26175,37.063875 C12.013,36.97525 11.818,36.868 11.67675,36.74225 C11.5415376,36.6207572 11.4267392,36.4783143 11.33675,36.320375 C11.251125,36.164875 11.1975,36.005625 11.175625,35.842375 C11.14875,35.632375 11.174625,35.417 11.253125,35.1965 C11.39375,34.802 11.651,34.518125 12.025125,34.34475 C12.39925,34.1715 12.796375,34.15975 13.21675,34.309375 C13.347,34.35575 13.4605,34.407875 13.55775,34.465625 C13.61075,34.49625 13.69175,34.5585 13.800625,34.6525 C13.91125,34.745625 13.978125,34.79625 14.001375,34.804625 C14.037625,34.8175 14.075625,34.8165 14.11575,34.80175 C14.156375,34.78575 14.202625,34.7455 14.2545,34.68125 L14.326125,34.70675 M16.291625,37.8615 L16.280375,37.936625 L14.841125,37.718625 L14.852375,37.643625 L14.943875,37.657375 C15.023625,37.6695 15.090125,37.664875 15.143125,37.644 C15.181125,37.63025 15.213125,37.602 15.239125,37.55875 C15.258875,37.528625 15.279125,37.4445 15.300125,37.306375 L15.574375,35.49575 C15.59575,35.355125 15.601625,35.266 15.592125,35.2285 C15.5825,35.191 15.556625,35.156 15.514625,35.123375 C15.474,35.089625 15.415125,35.06675 15.338,35.055125 L15.24675,35.041375 L15.258,34.966125 L16.69725,35.184125 L16.685875,35.25925 L16.5945,35.2455 C16.514625,35.233375 16.44825,35.23775 16.39525,35.258875 C16.357125,35.2725 16.3245,35.30075 16.29725,35.343625 C16.277375,35.373875 16.257,35.458 16.236125,35.596125 L15.961875,37.406625 C15.940625,37.547375 15.934625,37.6365 15.94425,37.673875 C15.955125,37.711625 15.980875,37.74725 16.021375,37.781125 C16.0635,37.813875 16.123125,37.836 16.20025,37.847625 L16.291625,37.8615 M20.027375,36.954 L19.9725,37.935375 L17.504,38.061375 L17.500125,37.9855 L17.592375,37.98075 C17.673,37.976625 17.737125,37.959 17.784875,37.92775 C17.8195,37.906875 17.845125,37.872625 17.861875,37.82525 C17.87525,37.7915 17.878375,37.705125 17.87125,37.565625 L17.778,35.736875 C17.77075,35.594625 17.758625,35.50625 17.74175,35.4715 C17.725,35.436625 17.692625,35.4075 17.644875,35.384 C17.598375,35.358875 17.536125,35.348375 17.45825,35.35225 L17.366,35.357 L17.362125,35.281125 L18.8445,35.2055 L18.84825,35.281375 L18.727375,35.287625 C18.64675,35.291625 18.5825,35.309375 18.534875,35.3405 C18.50025,35.3615 18.473875,35.39575 18.45575,35.44325 C18.442375,35.476875 18.43925,35.56325 18.446375,35.70275 L18.53675,37.47425 C18.544,37.616375 18.55675,37.70675 18.57525,37.745625 C18.593625,37.783125 18.62725,37.810125 18.676,37.826875 C18.710875,37.837375 18.793875,37.839375 18.925125,37.832625 L19.15675,37.820875 C19.304375,37.813375 19.426125,37.781 19.52175,37.724125 C19.617625,37.667125 19.698125,37.58075 19.7635,37.465125 C19.83025,37.34925 19.890125,37.180375 19.94325,36.958375 L20.027375,36.954125 M22.727625,36.485625 L21.785375,36.767125 L21.750875,37.06025 C21.74,37.15775 21.743,37.23475 21.759875,37.291125 C21.782125,37.365875 21.82875,37.412 21.899625,37.429375 C21.941375,37.43975 22.033375,37.429375 22.175375,37.398375 L22.197125,37.47125 L21.31,37.73625 L21.28825,37.6635 C21.379625,37.620375 21.446625,37.557625 21.489,37.474875 C21.531125,37.390875 21.567,37.23375 21.59675,37.0035 L21.915,34.59 L21.952375,34.578875 L23.567625,36.478875 C23.721375,36.65875 23.83575,36.766625 23.910875,36.802875 C23.9675,36.830125 24.0375,36.835 24.120875,36.81725 L24.142625,36.89 L22.852125,37.2755 L22.830375,37.20275 L22.8835,37.186875 C22.987125,37.155875 23.055625,37.11975 23.088875,37.078375 C23.1115,37.04875 23.116875,37.01425 23.105125,36.974875 C23.0975719,36.9502118 23.0862733,36.9268559 23.071625,36.905625 C23.065375,36.894625 23.031125,36.851375 22.9685,36.77575 L22.727625,36.48575 M22.61725,36.36 L21.945375,35.560125 L21.81075,36.601 L22.61725,36.360125 M26.17475,32.734875 L26.531625,33.3985 L26.4665,33.4335 C26.345625,33.301 26.243875,33.214375 26.161125,33.1735 C26.077875,33.131125 25.9845,33.11225 25.881125,33.1165 C25.823625,33.119375 25.73775,33.151625 25.623125,33.21325 L25.440625,33.311375 L26.4575,35.202875 C26.524875,35.32825 26.573625,35.403 26.60375,35.42725 C26.635,35.450875 26.677125,35.464 26.729875,35.46675 C26.783125,35.467625 26.84475,35.44925 26.914625,35.411625 L26.996,35.367875 L27.032,35.43475 L25.748125,36.125 L25.712125,36.058125 L25.7935,36.014375 C25.864625,35.976125 25.915125,35.932625 25.94475,35.884 C25.96725,35.85025 25.97625,35.808125 25.97225,35.757375 C25.97,35.72125 25.935875,35.64175 25.86975,35.518875 L24.852875,33.627375 L24.675625,33.722625 C24.5105,33.811375 24.409375,33.910875 24.372125,34.021 C24.31975,34.175 24.328375,34.349875 24.397875,34.545625 L24.329125,34.582625 L23.972375,33.918875 L26.17475,32.734875 M27.844625,31.744875 L28.527125,32.6495 L28.57125,32.616125 C28.71225,32.509875 28.781,32.388625 28.777625,32.25225 C28.77425,32.115875 28.716125,31.95475 28.603375,31.769 L28.66575,31.722 L29.5435,32.88575 L29.48125,32.932625 C29.3725,32.815875 29.26625,32.733 29.16275,32.684375 C29.06025,32.63475 28.97075,32.617375 28.8945,32.632125 C28.81725,32.64575 28.72575,32.6925 28.61975,32.7725 L29.092,33.3985 C29.184375,33.521 29.24575,33.592125 29.276125,33.612 C29.307625,33.631 29.34425,33.638625 29.385875,33.634625 C29.4275,33.63075 29.479875,33.604875 29.543375,33.557125 L29.676,33.456875 C29.883625,33.30025 30.0135,33.126875 30.0655,32.936875 C30.118625,32.745875 30.098375,32.5315 30.004625,32.293625 L30.06525,32.247875 L30.498125,33.029625 L28.577125,34.4785 L28.531375,34.417875 L28.605125,34.36225 C28.669625,34.313625 28.712875,34.263 28.734875,34.210375 C28.75175,34.173625 28.753875,34.131 28.741125,34.08225 C28.733375,34.047 28.687375,33.9735 28.603375,33.86225 L27.500625,32.400125 C27.42475,32.299625 27.3755,32.24 27.35275,32.221125 C27.3166005,32.1923233 27.2714551,32.1771863 27.22525,32.178375 C27.16075,32.179125 27.092375,32.206625 27.02025,32.261125 L26.9465,32.31675 L26.90075,32.256125 L28.761,30.852875 L29.25675,31.510125 L29.1945,31.557125 C29.041625,31.420375 28.909875,31.338875 28.79925,31.312625 C28.689625,31.2855 28.57,31.295125 28.4405,31.3415 C28.364375,31.368 28.24225,31.44475 28.074,31.571625 L27.8445,31.74475" fill="#000000"></path>
                            <path d="M4.442125,32.507875 C13.540625,39.887875 22.4585,40.023125 31.18375,32.507875"></path>
                        </g>
                    </g>
                </g>
            </g>
        </g>
    </g>
</svg>