<?xml version="1.0" encoding="UTF-8" standalone="no"?>
<svg width="122px" height="60px" viewBox="0 0 122 60" version="1.1" xmlns="http://www.w3.org/2000/svg" xmlns:xlink="http://www.w3.org/1999/xlink">
    <!-- Generator: Sketch 3.8.2 (29753) - http://www.bohemiancoding.com/sketch -->
    <title>km</title>
    <desc>Created with Sketch.</desc>
    <defs></defs>
    <g id="Page-1" stroke="none" stroke-width="1" fill="none" fill-rule="evenodd">
        <g id="km">
            <g>
                <rect id="Rectangle-143" fill="#FFFF00" x="0" y="0" width="122" height="15"></rect>
                <rect id="Rectangle-143-Copy" fill="#FFFFFF" x="0" y="15" width="122" height="15"></rect>
                <rect id="Rectangle-143-Copy-2" fill="#BE0027" x="0" y="30" width="122" height="15"></rect>
                <rect id="Rectangle-143-Copy-3" fill="#3B5AA3" x="0" y="45" width="122" height="15"></rect>
                <polygon id="Rectangle-142" fill="#239E46" points="0 0 44.7000008 30 0 60"></polygon>
                <path d="M18.4907787,16.6283473 C8.48181109,16.1216077 3.92139534,24.0907047 3.93198099,30.2515291 C3.90916303,37.537527 10.8160646,43.5466823 17.2005055,43.1833817 C13.7578168,41.5561716 9.5543727,36.9919883 9.51567627,30.2209601 C9.48039077,24.0860017 12.9850643,18.7517154 18.4907787,16.6283473 L18.4907787,16.6283473 Z" id="Shape" fill="#FFFFFF"></path>
                <path d="M18.3398743,23.1686973 L16.9293952,22.0652749 L15.2193423,22.6032888 L15.8327219,20.9199964 L14.7940344,19.4609157 L16.5850088,19.5229942 L17.651219,18.084136 L18.1446279,19.8064627 L19.8444481,20.3762213 L18.3572819,21.3784135 L18.3398743,23.1686973 Z M18.3098817,29.2898996 L16.899285,28.1864772 L15.1893496,28.7244912 L15.8027292,27.0411987 L14.7640417,25.582118 L16.5550161,25.6441965 L17.6212263,24.2053383 L18.1145176,25.927665 L19.8144554,26.4974237 L18.3271716,27.4996158 L18.3098817,29.2898996 Z M18.3398743,35.4715345 L16.9293952,34.368112 L15.2193423,34.906126 L15.8327219,33.2228336 L14.7940344,31.7637528 L16.5850088,31.8258314 L17.651219,30.3868556 L18.1446279,32.1092998 L19.8444481,32.6790585 L18.3572819,33.6812506 L18.3398743,35.4715345 Z M18.3098817,41.7123085 L16.899285,40.6088861 L15.1893496,41.1469001 L15.8027292,39.4636076 L14.7640417,38.0045269 L16.5550161,38.0666054 L17.6212263,36.6276297 L18.1145176,38.3500739 L19.8144554,38.9198326 L18.3271716,39.9220247 L18.3098817,41.7123085 Z" id="Shape" fill="#FFFFFF"></path>
            </g>
        </g>
    </g>
</svg>