<?xml version="1.0" encoding="UTF-8" standalone="no"?>
<svg width="122px" height="60px" viewBox="0 0 122 60" version="1.1" xmlns="http://www.w3.org/2000/svg" xmlns:xlink="http://www.w3.org/1999/xlink">
    <!-- Generator: Sketch 3.8.2 (29753) - http://www.bohemiancoding.com/sketch -->
    <title>tz</title>
    <desc>Created with Sketch.</desc>
    <defs></defs>
    <g id="Page-1" stroke="none" stroke-width="1" fill="none" fill-rule="evenodd">
        <g id="tz">
            <g id="Clipped">
                <g>
                    <g id="Group">
                        <polygon id="Shape" fill="#0099FF" points="16 0 122 0 122 60 16 60"></polygon>
                        <polygon id="Shape" fill="#009900" points="106 0 0 60 0 0"></polygon>
                        <polygon id="Shape" fill="#000000" points="36 60 106 12.5 122 2 122 -2.21883312e-09 106 3.97903932e-13 86 3.97903932e-13 16 47.5 0 58 0 60 16 60"></polygon>
                        <path d="M84.59,0 L91.35,0 L16,50.235 L2,60 L0,60 L0,56 L16,45.728 L84.59,0 Z M105.9975,9.765 L121.000001,0 L122.000001,0 L122.000001,4 L105.9975,14.272 L37.4075,60 L30.6475,60 L105.9975,9.765 Z" id="Shape" fill="#FFFF00"></path>
                    </g>
                </g>
            </g>
        </g>
    </g>
</svg>