<?xml version="1.0" encoding="UTF-8" standalone="no"?>
<svg width="122px" height="60px" viewBox="0 0 122 60" version="1.1" xmlns="http://www.w3.org/2000/svg" xmlns:xlink="http://www.w3.org/1999/xlink">
    <!-- Generator: Sketch 3.8.2 (29753) - http://www.bohemiancoding.com/sketch -->
    <title>bn</title>
    <desc>Created with Sketch.</desc>
    <defs></defs>
    <g id="Page-1" stroke="none" stroke-width="1" fill="none" fill-rule="evenodd">
        <g id="bn">
            <g id="Group">
                <g>
                    <polygon id="Shape" fill="#F7E017" points="0 0 122 0 122 60 0 60"></polygon>
                    <polygon id="Shape" fill="#FFFFFF" points="21 4.166625 8 0 0 0 0 24 21 30.833375 101 43.333375 122 50 122 36 101 29.166625"></polygon>
                    <polygon id="Shape" fill="#000000" points="21 18.333375 0 12 0 24 21 30.833375 101 55.833375 115 60 122 60 122 50 101 43.333375"></polygon>
                    <g transform="translate(40.916866, 12.416729)" fill="#CF1126">
                        <path d="M18.061757,35.0601753 C16.4484156,34.8460076 14.9692415,34.3326717 13.9417364,33.6293348 C13.7425687,33.4926675 13.5550678,33.3810002 13.525901,33.3810002 C13.4959008,33.3810002 13.471734,33.5326677 13.471734,33.7201686 C13.471734,34.2510046 13.2583996,34.5185059 12.7217303,34.6576733 C12.2083944,34.7910073 11.4250571,34.5218393 10.790054,33.99517 C10.1325507,33.4493339 9.3733802,33.0326652 8.73087699,32.8659977 C8.20170767,32.7276636 7.49920416,32.7501638 6.99170162,32.9201646 C6.75586711,32.9993317 6.48753244,33.1109989 6.39419864,33.1684992 C6.30169817,33.2259995 6.19753099,33.2726664 6.16419749,33.2726664 C6.07419704,33.2726664 6.0866971,32.7018302 6.18086424,32.5193293 C6.30503153,32.2801614 6.61086639,32.0443269 6.96753484,31.9143262 C7.14753574,31.8484926 7.29503648,31.7643255 7.29503648,31.7268253 C7.29503648,31.6893251 7.23420284,31.5518244 7.1600358,31.4226571 C6.91836793,30.9993217 7.01753509,30.5893196 7.43920386,30.266818 C7.87087269,29.9368164 8.60170968,29.8801494 9.24754624,30.125984 C9.41004705,30.1876509 9.56171448,30.2384845 9.58421459,30.2384845 C9.66921501,30.2384845 9.61754809,30.1193173 9.38338025,29.7784822 C9.1133789,29.3834803 9.0600453,29.1884793 9.0933788,28.7184769 C9.13671235,28.123474 9.62171478,27.6368049 10.2158844,27.5934713 C10.7008868,27.5584711 11.002555,27.7218053 11.7183919,28.4034754 C13.8559026,30.4418189 16.1800809,31.5651578 18.8909278,31.869326 C19.5750979,31.9459931 20.9517714,31.9051595 21.7592755,31.7834923 C24.1984543,31.4159904 26.6559666,30.1893176 28.5751429,28.3818086 C29.1068122,27.8809727 29.3626468,27.7484721 29.7984823,27.7468054 C30.1776509,27.7451387 30.4434855,27.8676393 30.7151536,28.1676408 C30.9626548,28.4426422 31.0468219,28.7034769 31.0201551,29.1209789 C31.002655,29.3884803 30.9593215,29.5201476 30.800154,29.7793156 C30.5651528,30.1618175 30.605153,30.1968177 31.0701553,30.0168168 C31.6984918,29.7718155 32.4726624,29.8851494 32.8901645,30.2818181 C33.2576663,30.6309865 33.2926665,30.9801549 33.0068317,31.4534906 C32.9026645,31.6268248 32.8176641,31.7893256 32.8176641,31.8151591 C32.8176641,31.8626593 32.8968312,31.8851594 33.2784997,31.9468264 C33.7776689,32.0268268 34.0635036,32.397662 34.0635036,32.9643315 C34.0635036,33.1343323 34.0426702,33.2726664 34.0168367,33.2726664 C33.9918366,33.2726664 33.802669,33.2034994 33.5968347,33.1184989 C33.0151651,32.8784977 32.6843301,32.8168308 32.0043267,32.8209974 C31.4868241,32.8243308 31.3084899,32.8484976 30.9476547,32.9659982 C30.395152,33.1468324 29.8043157,33.4951675 29.3226466,33.9243363 C28.7918106,34.397672 28.4576423,34.5468394 27.940973,34.5426727 C27.4609706,34.5376727 27.1326357,34.3985053 26.9593015,34.1243373 C26.866801,33.9776699 26.8534676,33.8885028 26.8759677,33.5568345 C26.8909678,33.341 26.8876344,33.1643325 26.8701343,33.1643325 C26.8518009,33.1643325 26.6651333,33.2826664 26.4542989,33.4285005 C25.9009628,33.8085024 25.5484611,33.9968367 24.9151246,34.2476712 C22.9834482,35.0118417 20.1959343,35.3426767 18.061757,35.0601753 L18.061757,35.0601753 Z" id="Shape"></path>
                        <path d="M18.9450947,31.3476567 C15.7300786,31.0390719 12.6538966,29.3644802 10.7834706,26.7095502 C8.7526271,23.939953 8.1126239,20.2831014 8.73254366,16.9395014 C9.06204531,15.4172438 9.72663197,13.8939861 10.861221,12.8099807 C9.95704979,14.726907 9.65154826,16.9240846 10.1337173,19.000845 C10.8828877,23.1469491 14.3867386,26.6567166 18.5787596,27.2638863 C20.2371012,27.7439721 21.9526931,27.2368862 23.5367844,26.7228003 C27.0313852,25.4911275 29.6934818,22.1741942 30.0182334,18.4660923 C30.2962348,16.4596656 29.9882333,14.3733219 29.0843121,12.5564794 C29.5995647,12.8288975 30.2499012,13.8970695 30.6334865,14.6154064 C31.9669932,17.1990027 32.0279101,20.2950181 31.2428229,23.0521153 C30.1778176,26.5602161 27.4957208,29.6336482 23.9502031,30.7506538 C22.341195,31.276323 20.6300198,31.4365738 18.9453447,31.3479067 L18.9450947,31.3476567 Z" id="Shape"></path>
                        <g id="a" transform="translate(0.000000, 12.750064)">
                            <path d="M2.75168042,13.9917366 C2.5410127,13.9587365 2.30867821,14.1660708 2.38809527,14.3831552 C2.5400127,14.602573 2.80176401,14.7098235 3.03793186,14.8148241 C3.60393469,15.0416585 4.21960443,15.1299923 4.8271908,15.1152422 C4.61777309,15.1147422 4.89910783,15.1174089 4.97735822,15.1152422 C5.45852729,15.1166589 5.93702968,15.0299085 6.38936528,14.8669077 C6.64086654,14.7784072 6.96136814,14.6981568 7.06436865,14.4199888 C7.16495249,14.2387379 6.98270158,14.057737 6.79895066,14.0940705 C6.54294938,14.1499041 6.30361485,14.2660713 6.04978025,14.332155 C5.50211084,14.4866558 4.92527463,14.5463227 4.35785512,14.4998225 C3.94285305,14.4491556 3.54085104,14.3164882 3.15701578,14.1545708 C3.02393179,14.0958205 2.89901449,14.0101534 2.75159709,13.9917366 L2.75168042,13.9917366 Z" id="Shape"></path>
                            <path d="M2.98584826,13.1267323 C2.7728472,13.0950655 2.58934628,13.3400667 2.67818006,13.5357343 C2.84193088,13.7730689 3.11709892,13.8994862 3.37451687,14.0106534 C3.82201911,14.1896543 4.30818821,14.2645713 4.78910728,14.2502379 C4.60652303,14.2497379 4.85185759,14.2524046 4.9195246,14.2502379 C5.32904385,14.2503538 5.73461253,14.1701744 6.11328057,14.0142367 C6.34444839,13.924403 6.6274498,13.8372359 6.72370029,13.5828179 C6.79836733,13.4430672 6.74136704,13.2398162 6.56536616,13.2288995 C6.40461536,13.2208994 6.265948,13.3232333 6.11719725,13.3691502 C5.57677788,13.592568 4.98202491,13.6873184 4.39935533,13.6369849 C4.03627018,13.590318 3.68935178,13.4563173 3.36018347,13.3011498 C3.23643285,13.2413162 3.12518229,13.1481491 2.9859316,13.1267323 L2.98584826,13.1267323 Z" id="Shape"></path>
                            <path d="M3.2733497,12.2975615 C3.09084879,12.2756447 2.96518149,12.4816457 2.99593165,12.6460632 C3.02318178,12.7904806 3.1528491,12.8875644 3.26009963,12.9760649 C3.70410185,13.3008998 4.266938,13.4392339 4.81219073,13.4210671 C4.60043967,13.4203171 5.09635881,13.4245671 4.94510806,13.4204838 C5.29044312,13.4190671 5.63161149,13.33465 5.94227971,13.1850659 C6.14969742,13.0948988 6.39319863,12.9903983 6.46311565,12.7536471 C6.49653248,12.6433132 6.51744925,12.4847291 6.39303197,12.4228121 C6.26269798,12.3499784 6.13328067,12.461979 6.01478007,12.5074792 C5.61569475,12.7105636 5.17102586,12.8235641 4.72252361,12.8214808 C4.33502168,12.8345642 3.96976985,12.67148 3.63351817,12.4958958 C3.51151756,12.4337288 3.41101706,12.325645 3.27343303,12.2975615 L3.2733497,12.2975615 Z" id="Shape"></path>
                            <path d="M0.210834388,0.058333625 C-0.0605836362,0.33000165 0.1466674,0.830920821 0.13200066,1.1869226 C0.27266803,2.28342808 0.447418904,3.39393364 0.856754284,4.42610546 C1.35800679,5.43461051 2.42259545,5.9738632 3.06784867,6.86511766 C3.29843316,7.29470314 3.21659942,7.81137239 3.26518299,8.28129141 C3.30334985,9.56179781 3.29151646,10.8432209 3.26909968,12.123894 C3.84735257,12.4140621 4.47527238,12.7060635 5.14044237,12.5944796 C5.53461101,12.5003125 6.266448,12.4418122 6.34844841,12.0492269 C6.31653158,9.84088254 6.29594815,7.63170482 6.26653133,5.42369378 C6.04236355,4.74710707 5.35394344,4.39702198 4.83910753,3.96410315 C4.41456547,3.54467175 4.0195116,3.09640756 3.65676828,2.62251311 C3.43826719,2.25442794 2.58442959,2.12176061 2.8933478,2.76226381 C3.07443204,3.31676658 3.53668435,3.72976865 3.65243493,4.31243823 C3.67768506,4.63168982 4.05885363,5.21902609 3.73351867,5.40527703 C3.52651763,5.05344193 3.2266828,4.75402377 2.84334755,4.57543954 C2.47401237,4.30010483 1.86342598,4.18543759 1.73009198,3.69901849 C1.63217483,3.00901504 1.27883973,2.38384525 0.822837448,1.86684267 C0.940338035,1.2471729 0.823254116,0.472085694 0.287584771,0.07600038 L0.210834388,0.058333625 L0.210834388,0.058333625 Z" id="Shape"></path>
                            <path d="M1.03667185,0.182500912 C0.789753949,0.222334445 0.798170657,0.537002685 0.912421229,0.702420179 C1.03392184,1.0597553 1.06700534,1.44784057 1.00125501,1.81984243 C1.44017387,2.33367833 1.78017557,2.94843141 1.88259275,3.62318478 C1.88509276,3.87685272 2.15201076,3.9607698 2.32501163,4.08610376 C2.73093032,4.34460506 3.18734927,4.53202266 3.54885108,4.85552428 C3.62493479,4.93685802 3.68235174,5.02444179 3.62860148,4.85844096 C3.57218453,4.6461899 3.54310105,4.41193873 3.37685022,4.25135459 C3.14893241,4.00635336 2.86434766,3.78776894 2.53242933,3.71301856 C2.50476252,3.37018352 2.34142837,3.05526528 2.19059429,2.75201376 C2.02342678,2.46209564 1.84875924,2.15151076 1.56225781,1.96350982 C1.57375787,1.45534061 1.56542449,0.922254611 1.34675673,0.4533356 C1.28258975,0.332834997 1.18817261,0.189750949 1.03675518,0.182500912 L1.03667185,0.182500912 Z" id="Shape"></path>
                            <path d="M1.72750864,0.385001925 C1.55550778,0.436085514 1.58834127,0.648253241 1.64284155,0.77800389 C1.72525863,1.13767235 1.73817536,1.50917421 1.73142532,1.87667605 C2.04734357,2.1266773 2.24501122,2.48917911 2.42492879,2.84226421 C2.53767935,3.07809872 2.64459656,3.32151661 2.68784677,3.58101791 C2.94418139,3.66585166 3.16851584,3.82651913 3.36876684,4.00410335 C3.28943311,3.76393549 3.11243223,3.57801789 2.99343163,3.35876679 C2.86418099,3.13068232 2.74068037,2.89276446 2.6859301,2.63434651 C2.43942886,2.37126186 2.30367818,1.99850999 2.35751179,1.63834153 C2.36859518,1.24033954 2.2400112,0.829170813 1.97367653,0.529169313 C1.90659287,0.463085649 1.82650913,0.39000195 1.72750864,0.385001925 L1.72750864,0.385001925 Z" id="Shape"></path>
                            <path d="M2.5133459,0.497502488 C2.41984543,0.51400257 2.36292848,0.603003015 2.3128449,0.675586711 C2.29342813,0.748337075 2.38259525,0.826587466 2.39684532,0.905587861 C2.50662334,1.18119678 2.54714006,1.47952119 2.51484591,1.77442554 C2.5076792,1.98292658 2.58226291,2.18659427 2.68851344,2.36317848 C2.71918026,2.23292783 2.83984753,2.1392607 2.97068152,2.12651063 C3.01826509,2.11809392 3.08826544,2.14217738 3.0605153,2.06959368 C3.02726514,1.67075835 2.96651483,1.26975635 2.8271808,0.892921131 C2.7730972,0.758420459 2.71176356,0.616753084 2.59517964,0.524585956 C2.57151286,0.507835872 2.54326272,0.493419134 2.5133459,0.497502488 L2.5133459,0.497502488 Z" id="Shape"></path>
                        </g>
                        <g id="a-link" transform="translate(36.583516, 20.333435) scale(-1, 1) translate(-36.583516, -20.333435) translate(33.000165, 12.750064)">
                            <g id="a">
                                <path d="M2.75168042,13.9917366 C2.5410127,13.9587365 2.30867821,14.1660708 2.38809527,14.3831552 C2.5400127,14.602573 2.80176401,14.7098235 3.03793186,14.8148241 C3.60393469,15.0416585 4.21960443,15.1299923 4.8271908,15.1152422 C4.61777309,15.1147422 4.89910783,15.1174089 4.97735822,15.1152422 C5.45852729,15.1166589 5.93702968,15.0299085 6.38936528,14.8669077 C6.64086654,14.7784072 6.96136814,14.6981568 7.06436865,14.4199888 C7.16495249,14.2387379 6.98270158,14.057737 6.79895066,14.0940705 C6.54294938,14.1499041 6.30361485,14.2660713 6.04978025,14.332155 C5.50211084,14.4866558 4.92527463,14.5463227 4.35785512,14.4998225 C3.94285305,14.4491556 3.54085104,14.3164882 3.15701578,14.1545708 C3.02393179,14.0958205 2.89901449,14.0101534 2.75159709,13.9917366 L2.75168042,13.9917366 Z" id="Shape"></path>
                                <path d="M2.98584826,13.1267323 C2.7728472,13.0950655 2.58934628,13.3400667 2.67818006,13.5357343 C2.84193088,13.7730689 3.11709892,13.8994862 3.37451687,14.0106534 C3.82201911,14.1896543 4.30818821,14.2645713 4.78910728,14.2502379 C4.60652303,14.2497379 4.85185759,14.2524046 4.9195246,14.2502379 C5.32904385,14.2503538 5.73461253,14.1701744 6.11328057,14.0142367 C6.34444839,13.924403 6.6274498,13.8372359 6.72370029,13.5828179 C6.79836733,13.4430672 6.74136704,13.2398162 6.56536616,13.2288995 C6.40461536,13.2208994 6.265948,13.3232333 6.11719725,13.3691502 C5.57677788,13.592568 4.98202491,13.6873184 4.39935533,13.6369849 C4.03627018,13.590318 3.68935178,13.4563173 3.36018347,13.3011498 C3.23643285,13.2413162 3.12518229,13.1481491 2.9859316,13.1267323 L2.98584826,13.1267323 Z" id="Shape"></path>
                                <path d="M3.2733497,12.2975615 C3.09084879,12.2756447 2.96518149,12.4816457 2.99593165,12.6460632 C3.02318178,12.7904806 3.1528491,12.8875644 3.26009963,12.9760649 C3.70410185,13.3008998 4.266938,13.4392339 4.81219073,13.4210671 C4.60043967,13.4203171 5.09635881,13.4245671 4.94510806,13.4204838 C5.29044312,13.4190671 5.63161149,13.33465 5.94227971,13.1850659 C6.14969742,13.0948988 6.39319863,12.9903983 6.46311565,12.7536471 C6.49653248,12.6433132 6.51744925,12.4847291 6.39303197,12.4228121 C6.26269798,12.3499784 6.13328067,12.461979 6.01478007,12.5074792 C5.61569475,12.7105636 5.17102586,12.8235641 4.72252361,12.8214808 C4.33502168,12.8345642 3.96976985,12.67148 3.63351817,12.4958958 C3.51151756,12.4337288 3.41101706,12.325645 3.27343303,12.2975615 L3.2733497,12.2975615 Z" id="Shape"></path>
                                <path d="M0.210834388,0.058333625 C-0.0605836362,0.33000165 0.1466674,0.830920821 0.13200066,1.1869226 C0.27266803,2.28342808 0.447418904,3.39393364 0.856754284,4.42610546 C1.35800679,5.43461051 2.42259545,5.9738632 3.06784867,6.86511766 C3.29843316,7.29470314 3.21659942,7.81137239 3.26518299,8.28129141 C3.30334985,9.56179781 3.29151646,10.8432209 3.26909968,12.123894 C3.84735257,12.4140621 4.47527238,12.7060635 5.14044237,12.5944796 C5.53461101,12.5003125 6.266448,12.4418122 6.34844841,12.0492269 C6.31653158,9.84088254 6.29594815,7.63170482 6.26653133,5.42369378 C6.04236355,4.74710707 5.35394344,4.39702198 4.83910753,3.96410315 C4.41456547,3.54467175 4.0195116,3.09640756 3.65676828,2.62251311 C3.43826719,2.25442794 2.58442959,2.12176061 2.8933478,2.76226381 C3.07443204,3.31676658 3.53668435,3.72976865 3.65243493,4.31243823 C3.67768506,4.63168982 4.05885363,5.21902609 3.73351867,5.40527703 C3.52651763,5.05344193 3.2266828,4.75402377 2.84334755,4.57543954 C2.47401237,4.30010483 1.86342598,4.18543759 1.73009198,3.69901849 C1.63217483,3.00901504 1.27883973,2.38384525 0.822837448,1.86684267 C0.940338035,1.2471729 0.823254116,0.472085694 0.287584771,0.07600038 L0.210834388,0.058333625 L0.210834388,0.058333625 Z" id="Shape"></path>
                                <path d="M1.03667185,0.182500912 C0.789753949,0.222334445 0.798170657,0.537002685 0.912421229,0.702420179 C1.03392184,1.0597553 1.06700534,1.44784057 1.00125501,1.81984243 C1.44017387,2.33367833 1.78017557,2.94843141 1.88259275,3.62318478 C1.88509276,3.87685272 2.15201076,3.9607698 2.32501163,4.08610376 C2.73093032,4.34460506 3.18734927,4.53202266 3.54885108,4.85552428 C3.62493479,4.93685802 3.68235174,5.02444179 3.62860148,4.85844096 C3.57218453,4.6461899 3.54310105,4.41193873 3.37685022,4.25135459 C3.14893241,4.00635336 2.86434766,3.78776894 2.53242933,3.71301856 C2.50476252,3.37018352 2.34142837,3.05526528 2.19059429,2.75201376 C2.02342678,2.46209564 1.84875924,2.15151076 1.56225781,1.96350982 C1.57375787,1.45534061 1.56542449,0.922254611 1.34675673,0.4533356 C1.28258975,0.332834997 1.18817261,0.189750949 1.03675518,0.182500912 L1.03667185,0.182500912 Z" id="Shape"></path>
                                <path d="M1.72750864,0.385001925 C1.55550778,0.436085514 1.58834127,0.648253241 1.64284155,0.77800389 C1.72525863,1.13767235 1.73817536,1.50917421 1.73142532,1.87667605 C2.04734357,2.1266773 2.24501122,2.48917911 2.42492879,2.84226421 C2.53767935,3.07809872 2.64459656,3.32151661 2.68784677,3.58101791 C2.94418139,3.66585166 3.16851584,3.82651913 3.36876684,4.00410335 C3.28943311,3.76393549 3.11243223,3.57801789 2.99343163,3.35876679 C2.86418099,3.13068232 2.74068037,2.89276446 2.6859301,2.63434651 C2.43942886,2.37126186 2.30367818,1.99850999 2.35751179,1.63834153 C2.36859518,1.24033954 2.2400112,0.829170813 1.97367653,0.529169313 C1.90659287,0.463085649 1.82650913,0.39000195 1.72750864,0.385001925 L1.72750864,0.385001925 Z" id="Shape"></path>
                                <path d="M2.5133459,0.497502488 C2.41984543,0.51400257 2.36292848,0.603003015 2.3128449,0.675586711 C2.29342813,0.748337075 2.38259525,0.826587466 2.39684532,0.905587861 C2.50662334,1.18119678 2.54714006,1.47952119 2.51484591,1.77442554 C2.5076792,1.98292658 2.58226291,2.18659427 2.68851344,2.36317848 C2.71918026,2.23292783 2.83984753,2.1392607 2.97068152,2.12651063 C3.01826509,2.11809392 3.08826544,2.14217738 3.0605153,2.06959368 C3.02726514,1.67075835 2.96651483,1.26975635 2.8271808,0.892921131 C2.7730972,0.758420459 2.71176356,0.616753084 2.59517964,0.524585956 C2.57151286,0.507835872 2.54326272,0.493419134 2.5133459,0.497502488 L2.5133459,0.497502488 Z" id="Shape"></path>
                            </g>
                        </g>
                        <path d="M19.7225986,27.2484696 C18.5981763,27.1413857 17.5836713,26.3217983 17.2368362,25.2484596 C17.2555029,25.063542 17.4857541,25.3518768 17.5945046,25.3712935 C17.7986723,25.4846274 18.0195068,25.5779612 18.2545079,25.5924613 C18.5510094,25.7198786 18.7342603,26.0120467 19.0171784,26.1643808 C19.1485957,26.2667147 19.6134314,26.4677157 19.5270976,26.1423807 C19.4181804,25.9723799 19.3432634,25.7569621 19.4370139,25.5622111 C19.5946813,25.2163761 19.8371825,24.9152912 20.0811837,24.6267065 C20.2606013,24.5667062 20.3807686,24.9206246 20.5090192,25.0397919 C20.6866034,25.3130432 20.9006878,25.6464616 20.7962706,25.9857966 C20.6946035,26.1115472 20.6278531,26.4897158 20.8996878,26.3626318 C21.2348562,26.2151311 21.5093575,25.9674632 21.7872756,25.736212 C22.0305268,25.5662945 22.3417784,25.5542944 22.5966963,25.405377 C22.7147802,25.3753769 22.9608648,25.1391257 23.0121984,25.2701263 C22.872531,25.6441282 22.6386965,25.9790466 22.3886953,26.2877148 C21.9836933,26.7502171 21.4360238,27.0981355 20.8231874,27.1962193 C20.461019,27.262553 20.0893504,27.276553 19.7225986,27.2485529 L19.7225986,27.2484696 Z" id="Shape"></path>
                        <path d="M21.0442719,25.9351297 C21.069022,25.7094619 21.0176051,25.4790441 20.9023545,25.2738764 C20.725437,24.9133746 20.4756024,24.593373 20.2318512,24.2772047 C20.0021,24.1425374 19.8745994,24.5819562 19.7218486,24.7080402 C19.4837641,25.0644587 19.1849293,25.4294605 19.1704292,25.8777127 C19.0365118,26.0862138 18.7867606,25.7077119 18.6790934,25.5831279 C18.4734257,25.2922098 18.3177583,24.9481247 18.3432584,24.5842063 C18.3189249,23.99787 18.4313422,23.4141171 18.6449266,22.8691143 C18.8061774,22.403862 19.0679287,21.9519431 19.0413452,21.4436906 C19.060012,21.0611886 18.9823449,20.6388532 18.67251,20.3816019 C18.3776752,20.1502674 18.8634277,20.1009338 19.0177618,20.2209344 C19.2817631,20.2386012 19.4245971,20.6749367 19.6658483,20.5669362 C19.7619321,20.3390184 19.7810156,20.0671837 19.9791832,19.8894328 C20.1736009,19.6230981 20.3768519,20.0024333 20.4433522,20.1801009 C20.5806862,20.336185 20.4356855,20.7223536 20.6586033,20.732437 C20.9257713,20.5451861 21.1162722,20.2306012 21.4578573,20.1621008 C21.5964413,20.0830171 21.8331925,20.1515174 21.6505249,20.3108516 C21.3976903,20.5478527 21.1816892,20.8441876 21.1356057,21.1966893 C21.058272,21.6390249 21.1689392,22.0875271 21.3616901,22.4858624 C21.732192,23.2683663 22.0187768,24.1522874 21.8313592,25.0229584 C21.7444421,25.4099604 21.4815241,25.7433787 21.1620225,25.9679632 C21.1216889,25.99238 21.0578553,25.9907133 21.0442719,25.9351297 L21.0442719,25.9351297 Z" id="Shape"></path>
                        <path d="M20.6442699,20.0526003 C20.5229359,19.8339325 20.3756019,19.6184314 20.1715175,19.4696807 C19.9730999,19.469264 19.8506826,19.7195986 19.7158486,19.8507659 C19.6213481,20.0266001 19.5065142,20.3206016 19.273763,20.0907671 C18.9034279,19.8745994 18.8379275,19.401097 18.8402609,19.0108451 C18.8169274,18.3783419 19.0716787,17.7880056 19.2979298,17.2119194 C19.4419305,16.8512509 19.4064304,16.4453322 19.3185966,16.075747 C19.2080127,15.6514116 18.8674277,15.3571601 18.6052597,15.0261585 C18.6230931,14.8981578 18.9581781,14.9680748 19.0842621,14.9924083 C19.3642635,15.0634086 19.5315143,15.3111599 19.7400987,15.4862441 C19.8885994,15.4412439 19.8280158,15.1412424 19.8970995,15.0001583 C19.9022662,14.8016573 20.1665175,14.5399894 20.275518,14.8241575 C20.4387689,15.004825 20.2703514,15.3629101 20.4812691,15.4754107 C20.6821867,15.4009937 20.7812706,15.1813259 20.9701049,15.0820754 C21.1559391,14.9554081 21.4182738,14.9412414 21.6182748,15.0406585 C21.6886918,15.2250761 21.3982737,15.3785769 21.3141066,15.5387444 C20.9765215,15.9559131 20.8578543,16.5312493 21.0024383,17.0480852 C21.1171889,17.4535039 21.3202733,17.8319225 21.390357,18.2509246 C21.474774,18.7220103 21.472024,19.2167627 21.3500234,19.6809317 C21.2771897,19.9625998 21.0331885,20.1509341 20.7812706,20.2679347 C20.7191036,20.210101 20.6862701,20.1251006 20.6442699,20.0526836 L20.6442699,20.0526003 Z" id="Shape"></path>
                        <path d="M19.3842636,14.8242408 C19.1042622,14.6192398 19.0117617,14.4234055 19.0117617,14.0359035 C19.0117617,13.8375692 19.0484286,13.7300686 19.1792626,13.5500678 C19.3717635,13.2833998 19.3367633,13.1992327 19.064262,13.2775664 C18.6259265,13.4034004 18.4167588,13.2883998 18.4017587,12.9150646 C18.395092,12.7325637 18.4334255,12.6550633 18.6792601,12.3600618 C18.8759277,12.123394 18.9475947,11.9992267 18.9084279,11.9600598 C18.8700943,11.9217263 18.6375932,12.1233939 18.1600908,12.6092297 C17.7792556,12.9967317 17.3509201,13.392567 17.2084194,13.4892341 C16.3884153,14.0425702 15.605078,14.128404 15.2475762,13.7025685 C15.064242,13.4850674 15.074242,13.3625668 15.2859098,13.2308995 C15.3834103,13.1708992 15.5475777,13.0325652 15.6517449,12.923398 C15.8975795,12.6675633 16.6300832,12.1392274 16.9934183,11.9558931 C17.2884198,11.8067257 17.3584201,11.7058919 17.1667525,11.7058919 C16.9184179,11.7058919 16.1217473,12.2242278 15.5175776,12.7792306 C15.3400767,12.9433981 15.0842421,13.125899 14.9500748,13.1850659 C14.6484066,13.3183999 14.0559036,13.3675668 13.792569,13.2808997 C13.6067347,13.2192328 13.2675663,12.8992312 13.2675663,12.7850639 C13.2675663,12.7550638 13.3450667,12.6883968 13.4392339,12.6375632 C13.533401,12.5875629 13.7025685,12.4650623 13.8142357,12.3675618 C14.2975715,11.9433931 15.2134094,11.5067242 15.9400797,11.3542234 C16.1709142,11.3058899 16.0859138,11.1892226 15.8284125,11.2008893 C15.3292433,11.2225561 14.338405,11.6867251 13.7467354,12.1750609 C13.0533986,12.7467304 12.00756,12.6925635 11.6708917,12.0675603 C11.6125581,11.9600598 11.5783912,11.859226 11.595058,11.8433925 C11.6108914,11.8275591 11.8167258,11.7658922 12.0525603,11.7058919 C12.3075615,11.6417249 12.8125641,11.4325572 13.2950665,11.1917226 C14.0542369,10.8133874 14.2792381,10.7325537 14.8017407,10.6483866 C15.0367419,10.6108864 15.0492419,10.4958858 14.8209074,10.469219 C14.5267393,10.4342188 14.0759037,10.5817196 13.2792331,10.9733882 C12.2558946,11.4767241 11.9692265,11.5633912 11.4300572,11.5317243 C10.938388,11.5017242 10.6608866,11.3758902 10.261718,10.9983883 C10.0008833,10.7508871 9.63088149,10.1225506 9.70338185,10.0500503 C9.72088194,10.0325502 9.84088254,10.0500503 9.97004985,10.0875504 C10.1133839,10.1300507 10.5242193,10.1583841 11.0192218,10.1592175 C11.7117252,10.1608841 11.8958928,10.1425507 12.2650613,10.0358835 C12.8825644,9.85754929 13.7034019,9.4400472 14.2650713,9.02087844 C15.3392434,8.21754109 16.2150811,7.89503948 17.3317533,7.89003945 C18.3625918,7.88587276 19.0184284,8.12420729 19.5992647,8.7133769 C19.7959323,8.91254456 19.9634332,9.04171188 19.9909333,9.01421174 C20.0167668,8.98837828 20.0451002,8.6400432 20.0534336,8.2400412 C20.0534336,8.2400412 20.3567685,8.21087439 20.4209354,8.29587481 C20.4209354,8.94504473 20.4284355,8.99587831 20.5226026,8.99587831 C20.5842696,8.99587831 20.6501033,8.93254466 20.6909368,8.83421084 C20.7792706,8.62170977 21.1059389,8.33087499 21.4551073,8.15420744 C22.2092777,7.77170552 23.5142842,7.7600388 24.5626228,8.12587396 C25.0042917,8.28087474 25.4942941,8.55754279 25.9609631,8.91754459 C26.4292988,9.27754639 27.3868036,9.75921546 27.9526398,9.9200496 C28.5251426,10.0825504 29.5343143,10.1233839 30.0518169,10.0058834 C30.2651513,9.95754979 30.4651523,9.91754959 30.4968192,9.91754959 C30.6876534,9.91754959 30.3626518,10.5533861 29.9809832,10.925888 C29.2834798,11.607558 28.3759752,11.6042247 27.0993022,10.9158879 C26.3034649,10.4875524 25.3517934,10.2533846 25.3517934,10.4867191 C25.3517934,10.5350527 25.4017937,10.5675528 25.4759607,10.5675528 C25.7526288,10.5675528 26.2867981,10.7533871 27.0318018,11.1067222 C27.8376392,11.4900575 28.2901415,11.6517249 28.5584761,11.6517249 C28.7534771,11.6517249 28.7593105,11.7725589 28.5776429,12.0392269 C28.3851419,12.323395 28.0584736,12.464229 27.5968047,12.4633957 C27.1559691,12.461729 26.9109679,12.3650618 26.5167993,12.0375602 C25.8576293,11.4892241 24.2151211,10.8775544 24.2784547,11.2042227 C24.2909548,11.269223 24.3701219,11.3092232 24.5392894,11.3350567 C25.1109589,11.4225571 25.7817956,11.7425587 26.4684657,12.256728 C26.6801334,12.4158954 26.9001345,12.5725629 26.9559681,12.6058964 C27.0501353,12.6608966 27.0518019,12.6775634 26.9776349,12.8167307 C26.8543009,13.0467319 26.5434661,13.2250661 26.2067977,13.2600663 C25.7709622,13.3050665 25.3917936,13.1750659 24.9992917,12.8467309 C24.1709542,12.1533941 23.390117,11.6517249 23.1401157,11.6517249 C22.935948,11.6517249 23.0276151,11.7642255 23.3876169,11.9550598 C23.8609526,12.2058944 24.3476217,12.5450627 24.7059569,12.874231 C24.8751244,13.0308985 25.0659587,13.1858993 25.1292923,13.2200661 C25.2792931,13.3000665 25.2734597,13.4175671 25.1084589,13.6334015 C24.9401247,13.8534026 24.66179,13.9500697 24.3009548,13.9117362 C23.5809512,13.8359025 23.0192818,13.4884008 22.1367774,12.5725629 C21.7917756,12.2150611 21.4842741,11.9225596 21.4526073,11.9225596 C21.3351067,11.9225596 21.4042737,12.0817271 21.6317748,12.3367283 C21.9134429,12.6517299 21.9676098,12.8292308 21.8609426,13.0850654 C21.7667755,13.3117332 21.6101081,13.3642335 21.2884398,13.2775664 C20.9592715,13.1883993 20.9076045,13.269233 21.123439,13.5375677 C21.4451072,13.938403 21.397607,14.4292388 21.0034384,14.7667405 C20.8809377,14.8709077 20.7526038,14.9567414 20.7176036,14.9567414 C20.6834368,14.9567414 20.5967697,14.8675743 20.5242693,14.7584071 C20.2709347,14.3734052 20.0484336,14.3759052 19.8017657,14.7650738 C19.7159319,14.9009078 19.6434316,15.0109084 19.6409315,15.010075 C19.6375982,15.0092417 19.5217643,14.925908 19.3842636,14.8242408 L19.3842636,14.8242408 Z" id="Shape"></path>
                        <polygon id="Shape" points="20.6392699 7.00253501 20.2117677 7.34087004 19.8284325 7.05170192 19.8284325 9.36338015 20.6392699 9.3733802"></polygon>
                        <path d="M17.9909233,4.60418969 C17.9059229,5.69669515 17.6284215,6.45919896 17.2425862,7.3000365 L18.1675908,6.44253221 L18.8109274,7.2067027 L19.5075975,6.42919881 L20.2184344,7.08586876 L20.9017712,6.40253201 L21.6117747,7.2333695 L22.2284445,6.55003275 L23.2734497,7.3000365 C22.8942811,6.45919896 22.3809452,5.7466954 22.4451122,4.56335615 C21.4326072,5.31585991 19.0267618,5.45169392 17.9909233,4.60418969 L17.9909233,4.60418969 Z" id="Shape"></path>
                        <path d="M19.8292658,4.0466869 C19.4575973,4.0533536 19.0659287,4.05835362 18.7134269,4.12752064 C18.469259,4.17585421 18.2475912,4.25502127 18.0625903,4.38585526 C18.0925905,5.09669215 21.4792741,5.3933603 22.3876119,4.39918866 C22.1967776,4.2600213 21.9634431,4.17752089 21.7067752,4.12752064 C21.3676068,4.06168698 20.992605,4.05502027 20.6367698,4.04918691 C20.6367698,4.24418789 20.6384365,4.4400222 20.6384365,4.63585651 L19.8292658,4.6333565 L19.8292658,4.0466869 L19.8292658,4.0466869 Z" id="Shape"></path>
                        <polygon id="Shape" points="20.4917691 0.414168737 19.9659332 0.418335425 19.9659332 4.533356 20.5026025 4.53585601"></polygon>
                        <path d="M20.4909358,0.5200026 L20.2901015,2.49001245 L22.3167783,3.4800174 L21.2909398,2.10834388 L22.6917801,1.65417494 L20.4909358,0.5200026 Z M20.2651013,0.0066667 C19.9575998,0.0066667 19.7300986,0.121667275 19.7300986,0.258334625 C19.7300986,0.395001975 19.9575998,0.510835888 20.2651013,0.510835888 C20.5726029,0.510835888 20.7984373,0.395001975 20.7984373,0.258334625 C20.7984373,0.121667275 20.5726029,0.0066667 20.2651013,0.0066667 L20.2651013,0.0066667 Z" id="Shape"></path>
                    </g>
                    <g transform="translate(50.375000, 33.625000)" id="Shape" fill="#F7E017">
                        <path d="M9.879125,13.36 C10.211625,13.25 10.400875,13.048375 10.536625,12.66 C10.604125,12.466625 10.65,12.265875 10.638375,12.213375 C10.61,12.089125 10.466625,12.095875 10.308375,12.2275 C10.2,12.318375 10.186625,12.364125 10.2175,12.549125 C10.296625,13.015875 10.130875,13.131625 9.2475,13.226625 C9.16,13.235875 8.906625,13.220875 8.683375,13.193375 C8.263375,13.140875 8.113375,13.1825 8.265875,13.309125 C8.311625,13.3475 8.428375,13.399125 8.525,13.423375 C8.760875,13.484125 9.626625,13.443375 9.879125,13.36 L9.879125,13.36 Z M11.71,13.2825 C11.76,13.236625 11.931625,13.1575 12.091625,13.105875 C12.305,13.0375 12.415,12.964125 12.505,12.83 C12.764125,12.444125 12.715875,12.111625 12.335,11.663375 C12.128375,11.42 12.036625,11.426625 11.871625,11.696625 C11.729125,11.93 11.7325,11.945 11.9375,11.998375 C12.045,12.025875 12.148375,12.105 12.205,12.2025 C12.428375,12.589125 12.3625,12.828375 12.031625,12.830875 C11.731625,12.833375 11.649125,12.875875 11.568375,13.07 C11.525875,13.170875 11.491625,13.278375 11.491625,13.309125 C11.491625,13.390875 11.605,13.376625 11.71,13.2825 L11.71,13.2825 Z M11.109125,12.845875 C11.165875,12.6925 11.185875,12.416625 11.179125,11.854125 C11.175,11.425875 11.158375,11.0625 11.141625,11.045875 C11.091625,10.995875 10.845,11.155 10.8125,11.2575 C10.795875,11.310875 10.823375,11.434125 10.873375,11.530875 C10.95,11.68 10.96,11.819125 10.936625,12.403375 C10.906625,13.141625 10.955,13.265875 11.109125,12.845875 L11.109125,12.845875 Z"></path>
                        <path d="M9.699125,12.494125 C9.729125,12.356625 9.7675,12.075 9.785,11.869125 C9.8025,11.663375 9.845,11.403375 9.878375,11.290875 C9.963375,11.0025 9.8775,10.926625 9.65,11.088375 L9.480875,11.209125 L9.515875,11.623375 C9.548375,11.996625 9.489125,12.6925 9.403375,12.9625 C9.38,13.034125 9.413375,13.015875 9.5075,12.905875 C9.583375,12.8175 9.67,12.631625 9.699125,12.494125 L9.699125,12.494125 Z M8.448375,12.695 C8.752625,12.4405 8.717625,12.00575 8.785,11.651625 C8.778,11.41625 8.935375,11.134125 8.83375,10.928125 C8.5495,10.980125 8.37425,11.249375 8.51975,11.517625 C8.531875,11.829125 8.520875,12.16825 8.36075,12.44375 C8.229875,12.623875 7.8155,12.579 7.834625,12.32375 C7.938625,11.93975 7.478625,12.126625 7.299125,12.22725 C7.160375,12.323875 6.86725,12.331 6.969125,12.089125 C6.901875,11.767 6.487375,11.9685 6.26225,11.967125 C6.049625,11.96325 6.24475,11.53625 5.9395,11.611125 C5.372375,11.5665 4.74625,11.616125 4.255375,11.273625 C3.967875,11.135375 4.010625,10.789875 4.16025,10.566125 C4.338875,10.26075 4.389875,9.878625 4.673375,9.64175 C4.954125,9.3725 4.408625,9.486125 4.285875,9.576875 C4.01225,9.726625 4.266375,10.112125 4.0425,10.326 C3.91175,10.54775 3.7395,10.854 3.43675,10.81175 C3,10.72925 2.748375,10.323 2.43525,10.05075 C2.167125,9.99725 2.317875,10.485875 2.456375,10.588625 C2.730375,10.79375 3.0505,10.94325 3.380625,11.031875 C3.709375,10.979375 3.72,11.409625 4.001,11.477125 C4.516625,11.717375 5.09125,11.789375 5.65375,11.81875 C5.87475,11.837125 5.7505,12.230625 6.041,12.152875 C6.20325,12.195 6.569875,12.0925 6.58825,12.281 C6.34225,12.57325 6.8245,12.566625 7.003,12.514375 C7.2315,12.479375 7.5235,12.392125 7.583875,12.705375 C7.774625,12.9065 8.124875,12.87675 8.357125,12.761625 C8.38975,12.742875 8.4205,12.7205 8.448375,12.695 L8.448375,12.695 Z"></path>
                        <path d="M3.468375,10.1725 C3.560875,10.055 3.699125,9.8175 3.775875,9.644125 C3.851625,9.47 3.965875,9.2725 4.028375,9.205 C4.175,9.046625 4.093375,8.949125 3.856625,9.001625 C3.731625,9.029125 3.680875,9.075 3.66,9.183375 C3.589125,9.536625 3.460875,9.898375 3.346625,10.066625 C3.14,10.371625 3.135,10.384125 3.22,10.384125 C3.264125,10.384125 3.375875,10.289125 3.468375,10.1725 L3.468375,10.1725 Z M0.346625,8.215875 C0.113375,8.215875 0.103375,8.363375 0.330875,8.4425 C0.440875,8.480875 0.534125,8.573375 0.609125,8.724125 C0.830875,9.165 0.960875,9.243375 1.549125,9.294125 L1.926625,9.328375 L1.945,9.5575 C1.954125,9.684125 1.984125,9.789125 2.013375,9.789125 C2.0425,9.789125 2.188375,9.725875 2.335875,9.650875 C2.6125,9.510875 2.875,9.184125 2.875,8.981625 C2.875,8.849125 2.654125,8.705875 2.453375,8.705875 C2.364125,8.705875 2.194125,8.7775 2.06,8.875 C1.64,9.179125 1.190875,9.1175 0.945,8.721625 C0.743375,8.395 0.5325,8.215875 0.346625,8.215875 L0.346625,8.215875 Z M2.385,9.028375 C2.496625,9.028375 2.524125,9.110875 2.463375,9.268375 C2.421625,9.376625 2.285875,9.38 2.245,9.273375 C2.196625,9.1475 2.264125,9.028375 2.385,9.028375 L2.385,9.028375 Z M18.195,8.515875 C18.0425,8.521625 17.9975,8.555 17.900875,8.698375 C17.7425,8.933375 17.726625,9.4425 17.8725,9.6225 C17.963375,9.734125 17.976625,9.736625 18.169125,9.656625 C18.4375,9.544125 18.4825,9.548375 18.481625,9.6925 C18.48,10.060875 17.951625,10.770875 17.398375,11.148375 C17.249125,11.25 17.115875,11.363375 17.101625,11.400875 C17.061625,11.505875 17.266625,11.4825 17.518375,11.354125 C17.861625,11.179125 18.3125,10.719125 18.4975,10.356625 C18.644125,10.0675 18.665,9.969125 18.6825,9.463375 C18.698375,8.9975 18.685875,8.860875 18.606625,8.705875 C18.518375,8.531625 18.49,8.515875 18.268375,8.515875 C18.241625,8.515875 18.2175,8.515 18.195,8.515875 L18.195,8.515875 Z M18.213375,8.840875 C18.328375,8.840875 18.348375,8.866625 18.361625,9.031625 C18.373375,9.168375 18.349125,9.251625 18.273375,9.32 C18.17,9.413375 18.161625,9.4125 18.07,9.273375 C17.941625,9.076625 18.020875,8.840875 18.213375,8.840875 L18.213375,8.840875 Z M15.683375,12.3975 C16.170875,12.1575 16.458375,11.8875 16.643375,11.496625 C16.730875,11.310875 16.8025,11.135875 16.8025,11.105875 C16.8025,11.038375 16.5625,10.926625 16.418375,10.926625 C16.275,10.926625 16.245875,10.8275 16.3075,10.553375 C16.3675,10.285875 16.295,9.950875 16.1775,9.950875 C16.135,9.950875 16.06,10.013375 16.01,10.089125 C15.933375,10.206625 15.929125,10.256625 15.985875,10.4275 C16.069125,10.680875 16.003375,10.87 15.776625,11.031625 C15.669125,11.108375 15.61,11.196625 15.61,11.2825 C15.61,11.355 15.619125,11.414125 15.63,11.414125 C15.641625,11.414125 15.76,11.3525 15.893375,11.278375 L16.136625,11.1425 L16.28,11.255 C16.358375,11.316625 16.423375,11.4175 16.423375,11.479125 C16.423375,11.775875 15.5775,12.274125 14.996625,12.320875 C14.6875,12.345875 14.635,12.335 14.5275,12.228375 C14.44,12.140875 14.415,12.0675 14.436625,11.964125 C14.453375,11.885 14.483375,11.740875 14.503375,11.644125 C14.556625,11.385875 14.445875,11.420875 14.254125,11.7225 C14.096625,11.971625 14.05,12.2375 14.138375,12.3775 C14.210875,12.491625 14.6925,12.600875 15.033375,12.58 C15.2475,12.5675 15.459125,12.5075 15.683375,12.3975 L15.683375,12.3975 Z M18.936625,10.5825 C19.243375,10.276625 19.373375,9.904125 19.375,9.328375 L19.375875,8.895875 L19.629125,8.775875 C19.958375,8.619125 20.27,8.3075 20.27,8.134125 C20.27,7.955875 20.190875,7.965 20.0475,8.159125 C19.943375,8.3 19.804125,8.385 19.295,8.619125 C19.166625,8.678375 19.158375,8.71 19.129125,9.248375 C19.095,9.869125 19.010875,10.101625 18.664125,10.525875 C18.451625,10.784125 18.444125,10.818375 18.591625,10.818375 C18.6525,10.818375 18.8075,10.7125 18.936625,10.5825 L18.936625,10.5825 Z M15.596625,10.235875 C15.625875,10.146625 15.456625,10.083375 15.383375,10.155875 C15.3525,10.186625 15.344125,10.24 15.365,10.274125 C15.413375,10.351625 15.566625,10.325875 15.596625,10.235875 L15.596625,10.235875 Z M20.2025,9.043375 C20.2325,8.954125 20.0625,8.890875 19.99,8.963375 C19.958375,8.995 19.95,9.048375 19.970875,9.0825 C20.019125,9.16 20.1725,9.134125 20.2025,9.043375 L20.2025,9.043375 Z M14.659125,5.815 C14.54,5.87175 14.47825,6.000375 14.395375,6.098625 C14.335875,6.139125 14.383625,6.177 14.417875,6.215125 C14.628125,6.4415 14.717,6.747375 14.816875,7.032625 C14.915,7.36925 15.0385,7.73075 14.936,8.0815 C14.895625,8.215875 14.789875,8.355 14.632125,8.31025 C14.379625,8.294625 14.131,8.227625 13.87775,8.23025 C13.652375,8.242 13.478125,8.447125 13.24775,8.42475 C13.100375,8.4345 13.106625,8.12325 12.969875,8.2065 C12.902125,8.36875 12.9355,8.54975 12.927375,8.721375 C12.952875,8.746 13.0245,8.7245 13.067375,8.73175 L13.521125,8.73175 C13.55325,8.888375 13.54925,9.068 13.66175,9.192625 C13.81925,9.248625 13.996375,9.20025 14.146125,9.139 C14.3065,9.064375 14.328,8.8715 14.373375,8.721125 C14.421625,8.559625 14.633125,8.601875 14.757875,8.5385 C15.063375,8.449375 15.2635,8.131875 15.245625,7.819625 C15.225875,7.34275 15.044,6.894125 14.905875,6.442875 C14.8365,6.244125 14.788375,6.036625 14.707875,5.8425 C14.698375,5.82575 14.679125,5.81175 14.659125,5.815 L14.659125,5.815 Z M13.903375,8.541625 C14.073,8.530625 14.14675,8.739125 14.110875,8.8775 C14.047375,9.065375 13.81625,8.945 13.769625,8.8095 C13.683625,8.6885 13.73675,8.52575 13.903375,8.541625 L13.903375,8.541625 Z"></path>
                        <path d="M7.62,6.976625 C7.544125,6.975 7.459125,7.003375 7.375,7.0625 C6.9325,7.3725 6.819125,7.739125 7.12,7.8825 C7.340875,7.988375 7.285,8.1125 6.9375,8.286625 C6.44,8.535 6.000875,8.504125 5.166625,8.159125 C4.961625,8.074125 4.908375,8.106625 4.955875,8.294125 C5.001625,8.478375 5.17,8.579125 5.588375,8.674125 C6.038375,8.7775 6.5825,8.744125 6.9325,8.593375 C7.103375,8.52 7.305875,8.365875 7.476625,8.18 L7.7475,7.8825 L8.0625,7.921625 C8.450875,7.969125 8.458375,7.973375 8.458375,8.159125 C8.458375,8.306625 8.466625,8.31 8.823375,8.343375 C9.024125,8.3625 9.288375,8.38 9.411625,8.38 C9.569125,8.380875 9.658375,8.408375 9.710875,8.481625 C9.780875,8.579125 9.8225,8.584125 10.409125,8.531625 C10.9575,8.481625 11.065,8.485875 11.3125,8.57 C11.488375,8.63 11.681625,8.654125 11.828375,8.638375 C12.248375,8.590875 12.8275,8.2475 12.911625,7.995 C12.921625,7.964125 13.074125,7.91 13.25,7.875 C13.674125,7.79 13.6925,7.6975 13.296625,7.648375 C13.125,7.626625 12.8675,7.564125 12.724125,7.5075 C12.58,7.450875 12.383375,7.403375 12.286625,7.403375 C12.073375,7.403375 11.8725,7.536625 11.8725,7.674125 C11.8725,7.764125 11.904125,7.773375 12.156625,7.7475 C12.394125,7.723375 12.463375,7.736625 12.588375,7.835875 C12.670875,7.900875 12.725875,7.9775 12.708375,8.005 C12.6525,8.095875 12.156625,8.321625 11.9375,8.356625 C11.790875,8.38 11.6725,8.364125 11.5575,8.305 C11.365,8.205 11.081625,8.19 11.028375,8.275875 C11.005875,8.313375 10.945,8.289125 10.861625,8.210875 L10.731625,8.088375 L10.4375,8.210875 C10.138375,8.335 10.028375,8.33 10.028375,8.1875 C10.028375,8.1225 9.940875,8.115 9.5,8.143375 C9.014125,8.175 8.963375,8.166625 8.8725,8.065 C8.788375,7.971625 8.786625,7.939125 8.846625,7.843375 C8.901625,7.755 8.901625,7.716625 8.849125,7.664125 C8.796625,7.611625 8.728375,7.6125 8.536625,7.664125 C8.053375,7.793375 7.916625,7.720875 7.916625,7.343375 C7.916625,7.116625 7.786625,6.979125 7.62,6.976625 L7.62,6.976625 Z M7.5,7.323375 C7.525875,7.323375 7.5475,7.339125 7.580875,7.3725 C7.623375,7.415 7.645875,7.489125 7.6275,7.536625 C7.584125,7.649125 7.379125,7.645 7.335875,7.531625 C7.315,7.476625 7.341625,7.415 7.403375,7.37 C7.446625,7.338375 7.474125,7.3225 7.5,7.323375 L7.5,7.323375 Z"></path>
                        <path d="M6.633375,7.675 C6.9275,7.488375 6.920875,7.5025 6.963375,6.984125 C6.9925,6.618375 6.9875,6.590875 6.888375,6.590875 C6.744125,6.590875 6.669125,6.749125 6.669125,7.050875 C6.669125,7.244125 6.639125,7.330875 6.535875,7.433375 C6.290875,7.678375 5.6825,7.566625 5.605875,7.2625 C5.58,7.158375 5.613375,7.064125 5.740875,6.883375 C6.006625,6.505875 5.946625,6.413375 5.620875,6.7 C5.396625,6.895875 5.356625,6.901625 5.399125,6.7325 C5.438375,6.576625 5.356625,6.515 5.174125,6.560875 C5.080875,6.584125 5.03,6.6425 5.0075,6.755875 C4.985875,6.866625 4.935,6.928375 4.846625,6.95 C4.699125,6.9875 4.4475,6.8475 4.4475,6.728375 C4.4475,6.64 4.824125,6.18 5.3075,5.678375 C5.49,5.488375 5.639125,5.311625 5.639125,5.285 C5.639125,5.258375 5.541625,5.236625 5.4225,5.236625 C5.248375,5.236625 5.205875,5.255875 5.205875,5.336625 C5.205875,5.391625 4.9625,5.710875 4.664125,6.046625 C4.0425,6.746625 3.990875,6.8925 4.298375,7.079125 C4.545875,7.230875 4.863375,7.219125 5.1125,7.05 L5.314125,6.9125 L5.314125,7.161625 C5.314125,7.48 5.3775,7.594125 5.6275,7.726625 C5.941625,7.8925 6.321625,7.8725 6.633375,7.675 L6.633375,7.675 Z M19.68,3.349125 C19.449375,3.486875 19.629875,3.776125 19.66475,3.96825 C19.570625,4.230375 19.23375,4.301 18.98825,4.349625 C18.6405,4.40725 18.394,4.69825 18.26175,5.007375 C18.19,5.208125 18.017,5.519375 17.8285,5.21375 C17.6645,5.047625 17.36325,4.916 17.1695,5.11 C17.02225,5.25 16.984875,5.45625 16.93,5.6435 C16.843125,5.499625 16.804125,5.285375 16.62,5.239875 C16.326,5.28125 16.43225,5.651875 16.5705,5.80475 C16.696125,5.982875 16.81675,6.217875 16.693625,6.4295 C16.585125,6.68375 16.2095,6.85525 15.989,6.63775 C15.782875,6.529 15.92075,6.14075 15.71775,6.119375 C15.6175,6.191875 15.609125,6.598125 15.448625,6.377875 C15.33275,6.189625 15.394125,5.931875 15.252375,5.7625 C15.084875,5.783375 14.950125,6.071875 15.005875,6.22675 C15.229375,6.52825 15.32125,6.906375 15.408375,7.265625 C15.46275,7.4095 15.4005,7.70125 15.535125,7.758125 C15.628375,7.526625 15.54175,7.264 15.615125,7.03025 C15.833375,7.00275 16.076,7.102375 16.304875,7.0495 C16.63225,7.007 16.88525,6.73075 17,6.4365 C17.03475,6.21525 16.993375,5.990875 16.98725,5.7685 C17.246,5.8085 17.514625,5.80775 17.7635,5.89175 C17.88675,6.080875 17.72425,6.34575 17.690125,6.5525 C17.56025,6.9735 17.2305,7.279125 16.909625,7.560625 C16.7755,7.64 16.7575,7.850375 16.955625,7.737125 C17.38675,7.55275 17.708125,7.16225 17.893,6.739625 C18.027875,6.4145 17.919375,6.052375 18.0075,5.719875 C18.137625,5.470125 18.451,5.52275 18.68275,5.523625 C18.92275,5.514375 19.1275,5.234875 19.047375,5.00175 C18.971,4.731125 19.25725,4.60075 19.452875,4.504125 C19.712125,4.37325 19.911,4.1075 19.891,3.807625 C19.88025,3.65425 19.887875,3.36325 19.68,3.34925 L19.68,3.349125 Z M18.76075,4.911625 C19.0385,4.985375 18.7105,5.516 18.562875,5.179875 C18.517375,5.051625 18.625375,4.907 18.76075,4.911625 L18.76075,4.911625 Z M17.471625,5.291625 C17.833125,5.2705 17.70325,5.798375 17.397875,5.55875 C17.2395,5.47925 17.291875,5.281875 17.471625,5.291625 L17.471625,5.291625 Z M4.383375,7.331625 C4.393375,7.279125 4.366625,7.241625 4.319125,7.241625 C4.218375,7.241625 4.1575,7.33 4.205,7.406625 C4.254125,7.485875 4.3625,7.440875 4.383375,7.331625 L4.383375,7.331625 Z M8.62,6.858375 C8.62,6.780875 8.590875,6.751625 8.525875,6.764125 C8.384125,6.790875 8.368375,6.970875 8.5075,6.970875 C8.585,6.970875 8.62,6.935875 8.62,6.858375 L8.62,6.858375 Z M3.3775,4.315 C3.208375,4.28025 3.102,4.423375 3.044125,4.55975 C2.91775,4.77225 2.76325,4.98975 2.536375,5.10225 C2.37325,5.147625 2.19525,5.0855 2.054625,5.001375 C1.88675,4.91775 1.924875,4.715875 1.852875,4.576375 C1.7315,4.481 1.516125,4.617375 1.521,4.765625 C1.5075,4.964375 1.6935,5.079375 1.848,5.156125 C1.97925,5.2365 2.1695,5.28125 2.221875,5.443875 C2.21825,5.582125 2.273875,5.740375 2.442125,5.687 C2.6305,5.683875 2.67925,5.91325 2.60325,6.050875 C2.52575,6.206 2.4735,6.38775 2.510625,6.5605 C2.600625,6.63625 2.6925,6.433 2.757625,6.375 L2.8905,6.197875 C3.22375,6.215875 3.556625,6.258375 3.8905,6.246625 C4.128125,6.24225 4.3305,6.095625 4.4815,5.923625 C4.695125,5.70025 4.870625,5.437875 5.114625,5.245125 C5.28825,5.202625 5.194875,4.875625 5.0135,4.970125 C4.850125,5.031375 4.79875,5.216 4.6855,5.33375 C4.492625,5.56725 4.29575,5.80425 4.052625,5.987375 C3.875625,6.06075 3.67175,6.028625 3.489875,5.987375 C3.414,5.921 3.640625,5.866875 3.67225,5.793125 C3.7765,5.688875 3.900375,5.59 3.960875,5.453125 C3.903,5.326875 3.726125,5.316625 3.6015,5.314 C3.294375,5.350875 3.05975,5.60875 2.7495,5.633 C2.514125,5.64125 2.636625,5.38625 2.74275,5.29925 C2.950375,5.05275 3.17475,4.8205 3.3915,4.582 C3.453125,4.508 3.675625,4.43775 3.53325,4.33375 C3.4835,4.31575 3.42975,4.31575 3.3775,4.315 L3.3775,4.315 Z M3.5285,5.5625 C3.6835,5.6495 3.42975,5.792125 3.322875,5.772625 C3.182625,5.814625 3.180125,5.67175 3.304625,5.64325 C3.374625,5.60675 3.448625,5.56875 3.5285,5.562375 L3.5285,5.5625 Z M3.052,5.887875 C3.140125,5.88625 3.324875,5.971 3.151375,6.025125 C3.030625,6.118875 2.894125,5.929875 3.052,5.887875 L3.052,5.887875 Z"></path>
                        <path d="M6.804125,6.103375 C6.804125,5.985875 6.593375,6.0025 6.57,6.121625 C6.555,6.198375 6.579125,6.216625 6.6775,6.2025 C6.7475,6.1925 6.804125,6.148375 6.804125,6.103375 L6.804125,6.103375 Z M16.141625,5.276625 C16.163375,5.164125 16.006625,5.089125 15.924125,5.171625 C15.841625,5.254125 15.9175,5.410875 16.029125,5.389125 C16.080875,5.379125 16.131625,5.328375 16.141625,5.276625 L16.141625,5.276625 Z M1.61,4.1325 C1.756625,4.006625 1.758375,3.998375 1.695,3.721625 C1.605,3.334125 1.610875,3.2925 1.758375,3.255875 C1.945,3.208375 2.419125,3.4625 2.524125,3.665875 C2.605875,3.823375 2.603375,3.834125 2.465,3.9625 C2.315875,4.1 2.316625,4.260875 2.465875,4.260875 C2.589125,4.260875 2.93,3.938375 2.93,3.8225 C2.93,3.661625 2.551625,3.281625 2.2525,3.1425 C2.0675,3.055875 1.8825,3.015875 1.668375,3.015 C1.285,3.015 1.233375,3.0975 1.336625,3.543375 C1.458375,4.065875 1.293375,4.136625 0.8725,3.7425 C0.56,3.45 0.436625,3.145875 0.438375,2.666625 C0.439125,2.1525 0.635875,1.898375 1.079125,1.838375 C1.373375,1.799125 1.365875,1.73 1.063375,1.685 C0.621625,1.618375 0.248375,1.913375 0.106625,2.44 C-0.050875,3.024125 0.31,3.735875 0.948375,4.1025 C1.2825,4.294125 1.415875,4.3 1.61,4.1325 L1.61,4.1325 Z M19.013375,3.491625 C19.049125,3.455875 19.078375,3.375 19.078375,3.3125 C19.078375,3.25 19.139125,3.115875 19.213375,3.015 C19.288375,2.914125 19.349125,2.810875 19.349125,2.785875 C19.349125,2.683375 19.18,2.686625 19.046625,2.7925 C18.91,2.899125 18.8075,2.901625 18.8075,2.7975 C18.8075,2.771625 18.8725,2.718375 18.9525,2.679125 C19.150875,2.5825 19.1675,2.486625 19,2.41 C18.785,2.3125 18.569125,2.490875 18.546625,2.785 C18.5325,2.981625 18.548375,3.015875 18.7,3.105 C18.838375,3.186625 18.864125,3.23 18.840875,3.346625 C18.800875,3.549125 18.885,3.62 19.013375,3.491625 L19.013375,3.491625 Z M20.649125,3.306625 C20.769125,3.199125 20.866625,3.076625 20.866625,3.035875 C20.866625,2.995 20.97,2.886625 21.096625,2.795875 C21.455875,2.5375 21.535,2.276625 21.374125,1.875875 C21.311625,1.718375 21.115,1.500875 20.6875,1.115875 C20.359125,0.819125 20.056625,0.576625 20.0175,0.576625 C19.900875,0.576625 19.921625,1.005875 20.04,1.043375 C20.253375,1.111625 20.3825,1.199125 20.718375,1.501625 C21.108375,1.854125 21.288375,2.183375 21.19,2.366625 C21.095875,2.544125 20.970875,2.489125 20.626625,2.12 C20.445875,1.925875 20.266625,1.7675 20.23,1.7675 C20.19,1.768375 20.161625,1.838375 20.161625,1.936625 C20.161625,2.06 20.2275,2.1775 20.405875,2.375875 C20.696625,2.699125 20.725,2.893375 20.506625,3.065 C20.428375,3.126625 20.3475,3.1775 20.3275,3.1775 C20.308375,3.1775 20.244125,3.080875 20.185875,2.963375 C20.064125,2.716625 19.32,1.930875 19.208375,1.930875 C19.1575,1.930875 19.1325,1.994125 19.1325,2.119125 C19.1325,2.27 19.1625,2.323375 19.2825,2.385 C19.43,2.461625 19.795,2.829125 20.161625,3.2725 C20.266625,3.399125 20.37,3.501625 20.3925,3.5025 C20.414125,3.5025 20.53,3.414125 20.649125,3.306625 L20.649125,3.306625 Z M21.379125,1.2175 C21.330875,1.061625 20.3325,0.034125 20.23,0.034125 C20.176625,0.034125 20.16,0.0975 20.1725,0.260875 C20.186625,0.459125 20.208375,0.493375 20.345,0.529125 C20.43,0.551625 20.693375,0.758375 20.929125,0.9875 C21.164125,1.216625 21.370875,1.390875 21.3875,1.373375 C21.404125,1.356625 21.400875,1.286625 21.379125,1.2175 L21.379125,1.2175 Z M15.416625,12.7825 C15.416625,12.8576107 15.3501952,12.9185 15.26825,12.9185 C15.1863048,12.9185 15.119875,12.8576107 15.119875,12.7825 C15.119875,12.7073893 15.1863048,12.6465 15.26825,12.6465 C15.3501952,12.6465 15.416625,12.7073893 15.416625,12.7825 L15.416625,12.7825 Z M15.940875,12.6075 C15.940875,12.6826107 15.8744452,12.7435 15.7925,12.7435 C15.7105548,12.7435 15.644125,12.6826107 15.644125,12.6075 C15.644125,12.5323893 15.7105548,12.4715 15.7925,12.4715 C15.8744452,12.4715 15.940875,12.5323893 15.940875,12.6075 L15.940875,12.6075 Z"></path>
                    </g>
                </g>
            </g>
        </g>
    </g>
</svg>