<?xml version="1.0" encoding="UTF-8" standalone="no"?>
<svg width="122px" height="60px" viewBox="0 0 122 60" version="1.1" xmlns="http://www.w3.org/2000/svg" xmlns:xlink="http://www.w3.org/1999/xlink">
    <!-- Generator: Sketch 3.8.2 (29753) - http://www.bohemiancoding.com/sketch -->
    <title>br</title>
    <desc>Created with Sketch.</desc>
    <defs></defs>
    <g id="Page-1" stroke="none" stroke-width="1" fill="none" fill-rule="evenodd">
        <g id="br">
            <g>
                <rect id="Rectangle-21" fill="#229E45" x="0" y="0" width="122" height="60"></rect>
                <g id="Group" transform="translate(20.000000, 4.000000)">
                    <polygon id="Shape" fill="#F8E509" points="41.18981 52.8553872 81.890015 26.5356454 40.943435 0.144612772 0.10985 26.598731 41.18981 52.8552527"></polygon>
                    <path d="M58.92395,26.5006726 C58.92395,35.960553 51.215045,43.6292867 41.70551,43.6292867 C32.19584,43.6292867 24.48707,35.960553 24.48707,26.5006726 C24.48707,17.0407921 32.19611,9.37205842 41.70551,9.37205842 C51.21518,9.37205842 58.924085,17.0407921 58.924085,26.5006726 L58.92395,26.5006726 Z" id="Shape" fill="#2B49A3"></path>
                    <path d="M36.0455,36.7596821 L35.513195,36.4538043 L34.96064,36.7261889 L35.084435,36.1141644 L34.657565,35.6659742 L35.267765,35.5946834 L35.554505,35.0458791 L35.810195,35.6135149 L36.412295,35.7224688 L35.96072,36.1434878 M47.58395,39.6709008 L47.05205,39.3650231 L46.49963,39.6374076 L46.62329,39.0253832 L46.19669,38.5771929 L46.80689,38.5059022 L47.09336,37.9570978 L47.34905,38.5247337 L47.95115,38.6336875 L47.499575,39.0547065 M42.61055,35.020322 L42.15101,34.7561427 L41.67365,34.9912677 L41.78057,34.4626399 L41.41202,34.0752486 L41.93906,34.0137772 L42.18665,33.5398954 L42.40751,34.0301875 L42.927665,34.1243451 L42.537515,34.488197 M54.26429,33.3479484 L53.81312,33.0886114 L53.3444,33.3197011 L53.449295,32.8007582 L53.087495,32.4204959 L53.60495,32.359966 L53.84795,31.8945584 L54.064895,32.3761073 L54.5756,32.4683818 L54.192605,32.8257772 M42.39995,29.8668071 L41.86805,29.5610639 L41.315495,29.8334484 L41.439155,29.2214239 L41.012285,28.7732337 L41.622755,28.7019429 L41.90936,28.1531386 L42.16505,28.7207745 L42.76715,28.8297283 L42.31544,29.2507473 M28.19255,24.5522826 L27.66065,24.2464049 L27.10796,24.5187894 L27.23162,23.907034 L26.80502,23.4587092 L27.41522,23.3874185 L27.70169,22.8386141 L27.95738,23.40625 L28.55948,23.5152038 L28.107905,23.9362228 M29.90111,31.6221739 L29.36921,31.3161617 L28.81652,31.5885462 L28.94018,30.9767908 L28.51358,30.5283315 L29.12378,30.4570408 L29.410385,29.9082364 L29.666075,30.4758723 L30.268175,30.5848261 L29.8166,31.0061141 M47.63039,21.9494973 L47.16059,21.679534 L46.67243,21.9200394 L46.78178,21.3797092 L46.40459,20.9837092 L46.94378,20.9204891 L47.196905,20.4358465 L47.42276,20.937303 L47.95466,21.0334783 L47.555735,21.4055353 M46.65596,26.549231 L46.28606,26.3364348 L45.90131,26.5258261 L45.98771,26.1002337 L45.69071,25.7881685 L46.115285,25.7386685 L46.31468,25.3569266 L46.49261,25.7518505 L46.911515,25.8275802 L46.59737,26.1208139 M27.400505,32.9031209 L27.045455,32.6989334 L26.676365,32.8807921 L26.758715,32.4722826 L26.473865,32.1729959 L26.881565,32.1253791 L27.072725,31.759106 L27.243365,32.1381576 L27.645395,32.2107935 L27.34394,32.4919212 M54.36284,34.531644 L54.0734,34.3789742 L53.772755,34.5148302 L53.840255,34.2094905 L53.608055,33.9853954 L53.940155,33.94975 L54.095945,33.6756168 L54.234995,33.9591658 L54.562505,34.0135082 L54.316805,34.2237486" id="Shape" fill="#FFFFEF"></path>
                    <polyline id="Shape" fill="#FFFFEF" points="27.400505 32.9031209 27.045455 32.6989334 26.676365 32.8807921 26.758715 32.4722826 26.473865 32.1729959 26.881565 32.1253791 27.072725 31.759106 27.243365 32.1381576 27.645395 32.2107935 27.34394 32.4919212"></polyline>
                    <path d="M27.400505,32.9031209 L27.045455,32.6989334 L26.676365,32.8807921 L26.758715,32.4722826 L26.473865,32.1729959 L26.881565,32.1253791 L27.072725,31.759106 L27.243365,32.1381576 L27.645395,32.2107935 L27.34394,32.4919212 M33.054305,32.9019103 L32.699255,32.6974538 L32.3303,32.879447 L32.41265,32.4709375 L32.1278,32.1716508 L32.5355,32.124034 L32.72666,31.7578954 L32.897435,32.1368125 L33.299465,32.2094484 L32.99801,32.4905761 M32.3519,34.7757812 L31.99685,34.5715937 L31.62776,34.7534524 L31.71038,34.3448084 L31.42553,34.0455217 L31.832825,33.9979049 L32.02412,33.6314973 L32.194895,34.0104144 L32.59679,34.0830503 L32.295335,34.364178 M44.09177,31.3644511 L43.73672,31.1599946 L43.367765,31.3419878 L43.450115,30.9336128 L43.165265,30.6343261 L43.572695,30.5868437 L43.76399,30.2204361 L43.934765,30.5993533 L44.33666,30.6719891 L44.035205,30.9531168 M40.64684,31.363106 L40.29179,31.1589185 L39.9227,31.3407772 L40.00532,30.9322677 L39.72047,30.632981 L40.1279,30.5854986 L40.319195,30.219091 L40.489835,30.5980082 L40.892135,30.670644 L40.590545,30.9517717 M31.302545,30.1664973 L31.080065,30.0384429 L30.848675,30.1523736 L30.900515,29.896534 L30.72191,29.7090258 L30.97706,29.6791644 L31.09721,29.4496889 L31.20413,29.6871005 L31.45577,29.7328342 L31.26677,29.9090435 M53.9249,36.0136848 L53.56985,35.8094973 L53.200895,35.991087 L53.283515,35.5828465 L52.998665,35.2834253 L53.40596,35.2358084 L53.597255,34.8694008 L53.767895,35.2483179 L54.169925,35.3209538 L53.86847,35.6020815 M51.05615,36.388163 L50.76212,36.2186793 L50.45648,36.3696005 L50.524925,36.0303641 L50.288945,35.781788 L50.626445,35.7422418 L50.784935,35.4379783 L50.926415,35.7527337 L51.259325,35.8132636 L51.009575,36.0466399 M52.40966,36.3556114 L52.13561,36.1978302 L51.85103,36.3382595 L51.91475,36.022966 L51.6947,35.7918764 L52.00925,35.7550204 L52.156805,35.472144 L52.288565,35.7649742 L52.598525,35.8210652 L52.36592,36.0383003 M56.29577,32.9766984 L56.031845,32.8247011 L55.757795,32.960019 L55.819085,32.656428 L55.60754,32.4338125 L55.910345,32.3985707 L56.0525,32.1263207 L56.1794,32.4077174 L56.47775,32.4617908 L56.25392,32.6706861 M51.0224,38.2952582 L50.67761,38.1076155 L50.31959,38.274409 L50.39978,37.8996617 L50.12303,37.624856 L50.51858,37.5811399 L50.70434,37.2448628 L50.869985,37.5927079 L51.260135,37.6594253 L50.96759,37.9176861 M51.041705,39.8340625 L50.727155,39.6464198 L50.400725,39.8132133 L50.473895,39.438466 L50.221445,39.1635258 L50.5823,39.1199443 L50.751725,38.7836671 L50.902925,39.1315122 L51.25865,39.1982296 L50.991755,39.4562215 M48.43634,36.3550734 L48.172415,36.2030761 L47.898095,36.338394 L47.95952,36.034803 L47.74784,35.8124565 L48.05051,35.7770802 L48.1928,35.5046957 L48.3197,35.7862269 L48.618455,35.8403003 L48.394355,36.0493302 M45.99392,36.3550734 L45.73013,36.2030761 L45.45608,36.338394 L45.51737,36.034803 L45.30542,35.8124565 L45.60836,35.7770802 L45.750515,35.5046957 L45.877415,35.7862269 L46.175765,35.8403003 L45.951935,36.0493302 M41.846855,32.7417079 L41.58293,32.5899796 L41.30888,32.7250285 L41.37017,32.4214375 L41.15849,32.1989565 L41.461295,32.1634457 L41.60345,31.8911957 L41.73035,32.1728614 L42.02897,32.2269348 L41.80487,32.4358302 M42.30896,40.106178 L42.0854,39.9775856 L41.8532,40.0919198 L41.90531,39.8350041 L41.72576,39.6466889 L41.98226,39.6166929 L42.102815,39.3860068 L42.21014,39.6243601 L42.46313,39.6700938 L42.273185,39.8471101 M36.0455,28.1944334 L35.51333,27.8885557 L34.960775,28.1609402 L35.08457,27.5491848 L34.6577,27.1007255 L35.2679,27.0294348 L35.55464,26.4806304 L35.81033,27.0482663 L36.41243,27.1572201 L35.960855,27.5785082" id="Shape" fill="#FFFFEF"></path>
                    <path d="M57.78968,32.6628845 C58.05212,31.9791658 58.39043,30.9478709 58.570385,30.0014524 C49.425215,21.9969796 39.230285,17.8964158 26.348585,18.7402024 C25.886615,19.6223247 25.516985,20.5457418 25.205135,21.5451576 C40.46864,20.0943234 51.656495,26.8273995 57.790085,32.663019 L57.78968,32.6628845 Z" id="Shape" fill="#FFFFFF"></path>
                    <path d="M53.67839,28.1625543 L54.00509,28.3405122 C53.95379,28.4559226 53.94029,28.5570747 53.96324,28.6431617 C53.98754,28.7299212 54.047615,28.8056508 54.143465,28.870216 C54.244715,28.9394891 54.335705,28.9697541 54.415625,28.9616834 C54.496625,28.9536128 54.5567,28.9205231 54.59585,28.8629524 C54.6197262,28.8291892 54.6305171,28.7879502 54.626225,28.7468696 C54.62258,28.7065163 54.600305,28.6580924 54.5594,28.6022704 C54.53105,28.5646073 54.4622,28.4848424 54.35285,28.3632446 C54.21245,28.207212 54.12875,28.0756603 54.10175,27.9683207 C54.06395,27.8173995 54.0869,27.6804674 54.1706,27.5567174 C54.2246,27.477356 54.29696,27.4181712 54.38822,27.3794321 C54.48083,27.3404239 54.581675,27.3316807 54.69062,27.3527989 C54.79997,27.3739171 54.91526,27.4254348 55.03487,27.5065448 C55.231025,27.6393071 55.34942,27.7820231 55.38992,27.9348274 C55.431095,28.0879008 55.405715,28.2378804 55.313645,28.3847663 L54.989105,28.1851522 C55.029605,28.0957024 55.03973,28.0183587 55.018535,27.9533899 C54.99869,27.8881522 54.944285,27.8256046 54.855185,27.7654783 C54.763925,27.7036033 54.679415,27.6737418 54.602195,27.6762976 C54.5553834,27.6761247 54.5117555,27.6998909 54.486635,27.7392486 C54.461525,27.7765082 54.455855,27.8186101 54.469085,27.8660924 C54.486635,27.9266223 54.559265,28.0265639 54.68846,28.1665897 C54.817115,28.306481 54.905,28.4208152 54.95171,28.5091889 C54.999635,28.5975625 55.02137,28.6894334 55.01678,28.7849361 C55.013675,28.8799008 54.97844,28.9768832 54.91175,29.0754796 C54.8515426,29.1646964 54.7665335,29.234486 54.66713,29.2763043 C54.56453,29.3206929 54.45518,29.3317228 54.338135,29.308587 C54.222035,29.2847785 54.095945,29.2269389 53.960405,29.1350679 C53.763035,29.0016332 53.641805,28.8535367 53.59766,28.6911821 C53.55419,28.5280204 53.580785,28.3518111 53.67866,28.1632269 L53.67839,28.1625543 Z M52.12886,27.149284 L52.46258,27.3133872 C52.416005,27.4306807 52.406285,27.5323709 52.43288,27.6173818 C52.46096,27.7030652 52.5236,27.7765082 52.62188,27.8373071 C52.726505,27.9021413 52.818305,27.9287745 52.897685,27.9174755 C52.978685,27.9059076 53.03768,27.8709348 53.073995,27.81175 C53.0966733,27.7772019 53.1058031,27.7355484 53.099645,27.6947255 C53.094515,27.6541033 53.070215,27.6066209 53.026745,27.552413 C52.997045,27.5158261 52.925495,27.4394239 52.81115,27.3219959 C52.664405,27.1717473 52.57544,27.0435584 52.54412,26.9372948 C52.500515,26.7879878 52.51793,26.6503832 52.596095,26.5234049 C52.6465225,26.4423045 52.7197559,26.3777558 52.806695,26.3377799 C52.897685,26.2952745 52.998395,26.2822269 53.107745,26.2987717 C53.218175,26.3158546 53.33522,26.3623954 53.45807,26.438663 C53.65949,26.5632201 53.78315,26.7012283 53.829725,26.8521495 C53.876975,27.0036087 53.858075,27.1543954 53.77208,27.3047785 L53.43944,27.118481 C53.476565,27.0275516 53.483585,26.9500734 53.45969,26.8860462 C53.43701,26.821212 53.38004,26.7609511 53.28905,26.7044565 C53.194955,26.6462133 53.1095,26.6199837 53.03255,26.6256332 C52.9826,26.6289959 52.945205,26.6518628 52.91942,26.6934266 C52.8962,26.7313587 52.89188,26.7733261 52.90727,26.8204049 C52.926845,26.8799932 53.00366,26.9771101 53.13812,27.1120245 C53.27231,27.2465353 53.36492,27.3571033 53.41514,27.4435938 C53.46644,27.5296807 53.49182,27.6208791 53.491145,27.7162473 C53.49209,27.811481 53.4605,27.9095394 53.397995,28.0112296 C53.3411745,28.1025541 53.2591547,28.1756375 53.161745,28.2217391 C53.061035,28.270163 52.951685,28.2854973 52.8341,28.2669348 C52.717325,28.2481033 52.589075,28.194837 52.44962,28.1088845 C52.24739,27.9833859 52.12049,27.8404008 52.069595,27.6797948 C52.019105,27.5183818 52.038545,27.3416345 52.128725,27.1494185 L52.12886,27.149284 Z M50.21105,26.6372011 L51.19331,25.027644 L52.386305,25.7561549 L52.220255,26.0286739 L51.352205,25.4984321 L51.13418,25.8551549 L51.941885,26.3485408 L51.77651,26.6195802 L50.96867,26.1263288 L50.701775,26.5642962 L51.60047,27.1131005 L51.43469,27.384409 L50.211185,26.6369321 L50.21105,26.6372011 Z M47.41763,24.3514579 L47.56343,24.0689851 L48.29243,24.4450774 L47.94872,25.1125204 C47.84207,25.144534 47.70842,25.1523356 47.54615,25.1353872 C47.3899061,25.1193088 47.2380435,25.0743302 47.098355,25.0027595 C46.922855,24.9122337 46.789205,24.7972269 46.696595,24.6567976 C46.6050684,24.5186453 46.559101,24.355474 46.565105,24.1900448 C46.570983,24.0162531 46.616063,23.846011 46.697,23.6919511 C46.78664,23.517356 46.90355,23.381231 47.04665,23.283038 C47.189345,23.1852486 47.3504,23.1364212 47.5286,23.1364212 C47.66468,23.1361522 47.81264,23.1775815 47.97275,23.2596332 C48.18092,23.3672418 48.320645,23.4946236 48.39179,23.6424511 C48.46469,23.789875 48.47792,23.9491359 48.43202,24.1206372 L48.06374,24.0103383 C48.08264,23.9159117 48.071435,23.8279416 48.02999,23.7471005 C47.99003,23.665587 47.92118,23.5998111 47.823845,23.5493696 C47.67575,23.4731019 47.534135,23.4592473 47.39792,23.5083437 C47.26292,23.5571712 47.14817,23.6737921 47.05313,23.858072 C46.95053,24.0571481 46.917455,24.229322 46.95458,24.3748628 C46.991975,24.5191929 47.08202,24.6285503 47.22566,24.7026658 C47.2964,24.7389837 47.37416,24.7618505 47.45921,24.7708628 C47.54561,24.7797405 47.62391,24.7775883 47.695865,24.7641372 L47.805215,24.551341 L47.417495,24.3515924 L47.41763,24.3514579 Z M35.23496,21.3412391 L35.50955,19.4759769 L36.07277,19.5593736 L36.224375,20.8810774 L36.745475,19.6579701 L37.310855,19.7410978 L37.0364,21.6067636 L36.68675,21.5553804 L36.90275,20.0867908 L36.316445,21.500769 L35.95397,21.4472337 L35.80088,19.9245707 L35.58488,21.3927568 L35.23496,21.3413736 L35.23496,21.3412391 Z M33.33038,21.1209103 L33.506555,19.2431386 L34.898,19.3741522 L34.868705,19.6915978 L33.8558,19.5966332 L33.81665,20.0129443 L34.75868,20.1013179 L34.72898,20.4176875 L33.78668,20.3291793 L33.739025,20.8403207 L34.787165,20.9385136 L34.757465,21.2551522 L33.330245,21.1209103 L33.33038,21.1209103 Z" id="Shape" fill="#309E3A"></path>
                    <g transform="translate(26.960000, 18.967391)" id="Shape">
                        <path d="M0.0675,0.97923913 C0.0729,0.786888587 0.10584,0.626820652 0.16686,0.497690217 C0.212088499,0.403278539 0.273590838,0.317505443 0.34857,0.244271739 C0.42498,0.170021739 0.50787,0.115679348 0.59751,0.081513587 C0.71631,0.0348383152 0.85239,0.0135855978 1.005615,0.0176209239 C1.283175,0.0256915761 1.502685,0.117697011 1.66401,0.294309783 C1.826685,0.471191576 1.903635,0.71317663 1.8954,1.01999592 C1.8873,1.32399049 1.7982,1.56032609 1.62783,1.72806114 C1.45773,1.89485462 1.23444,1.97475408 0.957825,1.96708696 C0.67743,1.95955435 0.457245,1.86808696 0.296325,1.69308832 C0.135675,1.5171481 0.0594,1.27906386 0.067635,0.97923913 L0.0675,0.97923913 Z" fill="#309E3A"></path>
                        <path d="M0.46089,0.975472826 C0.455085,1.18880707 0.50004,1.35210326 0.595485,1.46549592 C0.691065,1.57808152 0.81486,1.63632473 0.966465,1.64036005 C1.117935,1.64439538 1.24389,1.59328125 1.343655,1.48728668 C1.44423,1.38008152 1.497555,1.21732337 1.503495,0.998608696 C1.5093,0.78271875 1.4661,0.62022962 1.373895,0.511410326 C1.282635,0.402456522 1.15857,0.345961957 1.0017,0.341657609 C0.84483,0.337622283 0.71685,0.388063859 0.617895,0.49338587 C0.51894,0.597900815 0.466695,0.758641304 0.46089,0.975472826 L0.46089,0.975472826 Z" fill="#F7FFFF"></path>
                    </g>
                    <g transform="translate(29.255000, 18.967391)" id="Shape">
                        <path d="M0.00702,1.95175272 L0.029025,0.0663138587 L0.82998,0.0757296196 C1.03167,0.0781508152 1.17747,0.0968478261 1.26792,0.132224185 C1.359315,0.166793478 1.43181,0.227726902 1.485675,0.315158967 C1.53954,0.402591033 1.56573,0.501456522 1.564515,0.613100543 C1.56276,0.754605978 1.519695,0.871092391 1.435455,0.962559783 C1.35135,1.05335462 1.226205,1.10984918 1.06056,1.13204348 C1.142235,1.18087092 1.2096,1.23427174 1.26171,1.29251495 C1.315305,1.35035462 1.386315,1.45325543 1.475685,1.60094837 L1.70154,1.9713913 L1.24632,1.96601087 L0.97605,1.55252446 C0.8802,1.40483152 0.81432,1.31201902 0.77895,1.27381793 C0.743175,1.23480978 0.705375,1.20831114 0.66528,1.19405299 C0.625185,1.17925679 0.56133,1.17118614 0.47385,1.17024457 L0.3969,1.16916848 L0.38772,1.95632609 L0.00702,1.95188723 L0.00702,1.95175272 Z" fill="#309E3A"></path>
                        <path d="M0.40176,0.983120268 L0.68337,0.987123469 C0.866025,0.98979227 0.9801,0.982119468 1.02573,0.963437863 C1.071225,0.944756257 1.107135,0.912563848 1.13319,0.866026635 C1.159245,0.819489422 1.172745,0.761443005 1.17369,0.691220185 C1.17423,0.612490563 1.15776,0.548939745 1.12374,0.500734531 C1.090935,0.451361717 1.04355,0.419669708 0.98199,0.406158905 C0.95094,0.400487703 0.858465,0.396150902 0.704295,0.394149301 L0.407295,0.3898125 L0.401895,0.982786668 L0.40176,0.983120268 Z" fill="#FFFFFF"></path>
                    </g>
                    <g transform="translate(31.280000, 19.101902)" id="Shape">
                        <path d="M0.135405,0.0252880435 L0.83025,0.0602608696 C0.98685,0.0683315217 1.10565,0.0864904891 1.18665,0.114737772 C1.29348566,0.151691684 1.38840809,0.216540209 1.46151,0.302514946 C1.536165,0.389408967 1.59084,0.494327446 1.62594,0.61727038 C1.66104,0.739271739 1.674,0.888309783 1.66509,1.06465353 C1.65726,1.21974457 1.63107,1.35223777 1.58679,1.46280571 C1.53279,1.59731658 1.46016,1.70452174 1.36836,1.78509375 C1.29951,1.84602717 1.20771,1.89135734 1.09377,1.92175679 C1.00845,1.9440856 0.89559,1.95161821 0.75492,1.94462364 L0.040095,1.90830571 L0.135405,0.0251535326 L0.135405,0.0252880435 Z" fill="#309E3A"></path>
                        <path d="M0.50031,0.361161685 L0.43713,1.60861549 L0.721035,1.62273913 C0.827145,1.62838859 0.90423,1.6261019 0.951885,1.61655163 C1.013985,1.60404212 1.066635,1.58050272 1.108485,1.54579891 C1.151685,1.51082609 1.188135,1.45231386 1.217835,1.36958967 C1.24794,1.28619293 1.266435,1.1718587 1.273995,1.02618342 C1.281555,0.880508152 1.273995,0.768191576 1.252395,0.688964674 C1.230795,0.609603261 1.197855,0.547324728 1.153845,0.501052989 C1.1097,0.455050272 1.052595,0.422633152 0.982395,0.40366712 C0.929745,0.388870924 0.8262,0.377706522 0.671085,0.370039402 L0.500445,0.361027174 L0.50031,0.361161685 Z" fill="#FFFFFF"></path>
                    </g>
                    <g transform="translate(40.595000, 20.581522)" id="Shape">
                        <path d="M0.08505,1.91274457 L0.52515,0.079361413 L1.11915,0.221942935 C1.34406,0.276016304 1.488645,0.320404891 1.5525,0.355108696 C1.65105,0.407836957 1.72449,0.489081522 1.77309,0.59857337 C1.82169,0.707527174 1.82844,0.834639946 1.79361,0.980584239 C1.76661,1.09303533 1.72368,1.18288859 1.66428,1.24960598 C1.60515,1.31686141 1.53846,1.36447826 1.46448,1.39353261 C1.39158,1.42204891 1.32084,1.43523098 1.25253,1.43388587 C1.160055,1.43011957 1.02978,1.4083288 0.86238,1.36797554 L0.62127,1.30986685 L0.45522,2.00152174 L0.084915,1.91274457 L0.08505,1.91274457 Z" fill="#309E3A"></path>
                        <path d="M0.82161,0.477782609 L0.6966,0.998070652 L0.8991,1.04676359 C1.04517,1.08173641 1.1448,1.09572554 1.19853,1.08819293 C1.30402777,1.07514598 1.38967424,0.996988635 1.411965,0.893421196 C1.428165,0.826703804 1.42182,0.766980978 1.393065,0.714521739 C1.36470206,0.661937701 1.31910157,0.620632908 1.26387,0.597497283 C1.22175,0.578262228 1.13427,0.552839674 1.00062,0.520826087 L0.82188,0.477782609 L0.82161,0.477782609 Z" fill="#FFFFFF"></path>
                    </g>
                    <g transform="translate(42.350000, 21.119565)" id="Shape">
                        <path d="M0.08181,1.89741033 L0.70821,0.11917663 L1.46394,0.385508152 C1.65402,0.452494565 1.786185,0.517328804 1.860435,0.579876359 C1.936035,0.642154891 1.98504,0.722995924 2.00799,0.8229375 C2.03094,0.922879076 2.02419,1.02537636 1.98693,1.13042935 C1.93995,1.26386413 1.86165,1.36044293 1.75257,1.42003125 C1.64376,1.47894701 1.507275,1.49226359 1.34325,1.46011549 C1.404945,1.53275136 1.45152,1.60484918 1.4823,1.67667799 C1.51443,1.74877582 1.54845,1.86902853 1.585575,2.03757065 L1.680615,2.46127989 L1.251315,2.30982065 L1.12806,1.8315 C1.08459,1.6606712 1.05219,1.55171739 1.03086,1.50396603 C1.00953,1.45554212 0.98226,1.4181481 0.948915,1.39178397 C0.915705,1.36461277 0.85806,1.33663451 0.775305,1.30744565 L0.702945,1.28161957 L0.441315,2.02411957 L0.082215,1.89741033 L0.08181,1.89741033 Z" fill="#309E3A"></path>
                        <path d="M0.80163,0.998877717 L1.067175,1.09236277 C1.239435,1.15316168 1.349325,1.18383016 1.39725,1.1842337 C1.445175,1.18490625 1.4877,1.17172418 1.524555,1.14455299 C1.561275,1.11765082 1.589085,1.07729755 1.607715,1.02403125 C1.62864,0.964173913 1.629585,0.910369565 1.61001,0.862618207 C1.591785,0.814194293 1.55493,0.775186141 1.500255,0.744786685 C1.472445,0.730528533 1.38591,0.69770788 1.240515,0.64659375 L0.96039,0.54759375 L0.801495,0.999012228 L0.80163,0.998877717 Z" fill="#FFFFFF"></path>
                    </g>
                    <g transform="translate(44.510000, 22.195652)" id="Shape">
                        <path d="M0.13635,0.75326087 C0.19359,0.569922554 0.26892,0.424516304 0.362205,0.317445652 C0.431342427,0.238555217 0.513984073,0.172517485 0.606285,0.122404891 C0.700245,0.0716942935 0.79488,0.0419673913 0.890055,0.032955163 C1.016955,0.0204456522 1.15371,0.0369904891 1.300185,0.0827241848 C1.56546,0.165313859 1.751625,0.313679348 1.859085,0.527686141 C1.96749,0.741961957 1.97613,0.995783967 1.884735,1.28874864 C1.794285,1.57956114 1.644435,1.78240353 1.435185,1.89781386 C1.226205,2.01241712 0.989415,2.0282894 0.725085,1.94583424 C0.457515,1.8624375 0.270135,1.71474457 0.162945,1.50275543 C0.05589,1.28982473 0.047115,1.04003804 0.136485,0.753529891 L0.13635,0.75326087 Z" fill="#309E3A"></path>
                        <path d="M0.51651,0.858851902 C0.45306,1.06250136 0.45171,1.23185054 0.513,1.36703397 C0.574425,1.50100679 0.6777,1.59072554 0.822555,1.63605571 C0.96741,1.68098234 1.102005,1.66605163 1.227015,1.59086005 C1.352835,1.51526495 1.448415,1.37295245 1.513485,1.16419158 C1.577745,0.957717391 1.58031,0.789847826 1.521045,0.659775815 C1.462725,0.530376359 1.358505,0.442137228 1.20879,0.395596467 C1.05894,0.348921196 0.922185,0.362910326 0.79839,0.437563859 C0.674865,0.511275815 0.58104,0.651705163 0.51624,0.858986413 L0.51651,0.858851902 Z" fill="#FFFFFF"></path>
                    </g>
                    <g transform="translate(48.290000, 23.809783)" id="Shape">
                        <path d="M0.041175,1.76478261 L0.9072,0.0901222826 L1.61865,0.458144022 C1.79766,0.550956522 1.9197,0.633008152 1.9845,0.705644022 C2.05065,0.777203804 2.08818,0.864366848 2.097225,0.966595109 C2.10627,1.06882337 2.084805,1.16903397 2.033775,1.26816848 C1.968975,1.39380163 1.87812,1.47854348 1.76148,1.52266304 C1.64538,1.56597554 1.50876,1.56032609 1.350675,1.50544565 C1.401705,1.58588315 1.43775,1.66416848 1.458675,1.73949457 C1.480005,1.8153587 1.497555,1.9391087 1.51092,2.1111481 L1.54629,2.54360054 L1.142235,2.33443614 L1.08621,1.84374049 C1.066635,1.66833832 1.04976,1.55588723 1.03518,1.50584918 C1.021005,1.45513859 0.99873,1.41411277 0.969435,1.38344429 C0.940545,1.35210326 0.887085,1.31618886 0.809325,1.27610462 L0.74088,1.24059375 L0.379485,1.93964674 L0.04131,1.76478261 L0.041175,1.76478261 Z" fill="#309E3A"></path>
                        <path d="M0.877905,0.971975543 L1.12806,1.101375 C1.29006,1.18544429 1.394955,1.23077446 1.44261,1.23803804 C1.48986,1.24530163 1.533735,1.23803804 1.573965,1.21624728 C1.613925,1.19472554 1.646865,1.15867663 1.67292,1.10823505 C1.70208,1.05174049 1.71018,0.998743207 1.69776,0.948705163 C1.686015,0.898398098 1.655235,0.854278533 1.605285,0.816884511 C1.579635,0.798860054 1.498635,0.754336957 1.361205,0.683315217 L1.097685,0.547055707 L0.877635,0.972110054 L0.877905,0.971975543 Z" fill="#FFFFFF"></path>
                    </g>
                    <g transform="translate(55.040000, 28.517663)" id="Shape">
                        <path d="M0.284445,0.498228261 C0.39204,0.339101902 0.506115,0.221673913 0.626805,0.145809783 C0.715784883,0.0904949822 0.81385604,0.0512447291 0.916515,0.029861413 C1.01422853,0.00850111531 1.11528752,0.00721957018 1.213515,0.0260951087 C1.339065,0.0508451087 1.465155,0.106263587 1.59219,0.192216033 C1.82223,0.347710598 1.95777,0.543558424 1.99908,0.779490489 C2.04093,1.0159606 1.975725,1.2610394 1.8036,1.51553397 C1.633095,1.76747283 1.43127,1.91879755 1.19772,1.9688356 C0.96444,2.01793207 0.73332,1.96506929 0.50382,1.80984375 C0.27189,1.65273505 0.135,1.45715625 0.09342,1.22310734 C0.052515,0.988251359 0.1161,0.746535326 0.284175,0.49809375 L0.284445,0.498228261 Z" fill="#309E3A"></path>
                        <path d="M0.61803,0.706720109 C0.49842,0.883736413 0.44847,1.04541848 0.46791,1.19230435 C0.48816,1.33851766 0.56106,1.45392799 0.68661,1.53907337 C0.81243,1.62408424 0.94581,1.64869973 1.087155,1.61305435 C1.22958,1.57673641 1.36215,1.46818614 1.484595,1.28686549 C1.605555,1.10796603 1.65645,0.947898098 1.637145,0.806392663 C1.618515,0.665559783 1.544265,0.551091033 1.414395,0.463120924 C1.284525,0.375150815 1.149525,0.348786685 1.009395,0.384701087 C0.86994,0.419673913 0.739665,0.527282609 0.617895,0.706720109 L0.61803,0.706720109 Z" fill="#FFFFFF"></path>
                    </g>
                    <polygon id="Shape" fill="#309E3A" points="38.54624 21.7279579 38.84972 20.4043709 39.8309 20.6296766 39.77987 20.8532337 39.066125 20.689534 38.998085 20.9827677 39.663095 21.135572 39.611525 21.3581875 38.947595 21.2059212 38.864705 21.5660068 39.60383 21.7354905 39.5528 21.9587785 38.54624 21.7278234"></polygon>
                </g>
            </g>
        </g>
    </g>
</svg>