<?xml version="1.0" encoding="UTF-8" standalone="no"?>
<svg width="122px" height="60px" viewBox="0 0 122 60" version="1.1" xmlns="http://www.w3.org/2000/svg" xmlns:xlink="http://www.w3.org/1999/xlink">
    <!-- Generator: Sketch 3.8.2 (29753) - http://www.bohemiancoding.com/sketch -->
    <title>je</title>
    <desc>Created with Sketch.</desc>
    <defs></defs>
    <g id="Page-1" stroke="none" stroke-width="1" fill="none" fill-rule="evenodd">
        <g id="je">
            <g transform="translate(5.000000, -1.000000)" id="Clipped">
                <g>
                    <g id="Group" transform="translate(0.519691, 0.700798)">
                        <polygon id="Shape" fill="#FFFFFF" points="6.17397704 0 105.517008 0 105.517008 60.5984043 6.17397704 60.5984043"></polygon>
                        <polygon id="Shape" fill="#DF112D" points="0.480309212 0.299202128 6.17397704 3.8924375 49.4299197 30.2992021 6.17397704 56.7059668 0.480309212 60.2992021 6.17397704 60.2992021 12.6928668 60.2992021 55.8474796 34.1916396 98.9961318 60.2992021 105.515022 60.2992021 111.480309 60.2992021 105.515022 56.7059668 62.2630525 30.2992021 105.517008 3.8924375 111.480309 0.299202128 105.517008 0.299202128 99.0001055 0.299202128 55.8435058 26.4067646 12.6928668 0.299202128 6.17397704 0.299202128"></polygon>
                        <g transform="translate(48.235042, 1.157086)" stroke="#000000">
                            <path d="M12.807885,7.91017458 C14.084628,13.1655279 13.3843611,19.6563705 7.6179811,23.2575502 C1.85119651,19.6563705 1.15092965,13.1655279 2.42807724,7.91017458 C3.78734741,6.65371 9.96555395,5.87926718 12.807885,7.91017458 L12.807885,7.91017458 Z" id="Shape" stroke-width="0.1" fill="#E8112D"></path>
                            <path d="M7.60948566,6.85482659 C9.72363622,6.85482659 11.6925552,7.42362872 12.853194,8.16105622 C13.0809526,6.34936179 13.8892329,4.53725607 14.8427448,3.16727783 C13.8479694,3.14671376 13.4021611,3.68384723 13.3920475,4.24195605 C13.1432525,3.5255039 12.1691089,3.5674546 11.8685322,3.95776062 C12.9567574,4.70547015 12.1173272,6.03308641 11.1330699,5.75917302 C10.6706753,5.63044195 10.4263304,5.3026507 10.3397578,4.82679815 C10.6121092,4.80937926 10.8278803,4.58628718 10.8404224,4.30914627 C10.8529646,4.03200536 10.6582547,3.78971292 10.3886272,3.74694282 C10.1189997,3.70417272 9.8609418,3.87464413 9.7898424,4.1424963 C9.71874301,4.41034847 9.85740832,4.68966361 10.1115946,4.79060539 C9.80049971,5.30717479 9.24263258,5.46181659 8.84294243,5.34830293 C8.32472068,5.20065292 8.10707563,4.7264455 8.10707563,4.30529338 C8.10707563,3.20963981 9.14311459,3.04101445 9.45420946,3.23061516 C9.43357768,2.49318766 8.29357073,1.90341018 7.94121231,2.51416301 C8.33483429,1.79771087 8.31420251,0.78678126 7.60948566,0.112279814 C6.90517335,0.78678126 6.88413703,1.79771087 7.27816356,2.51416301 C6.92580513,1.90341018 5.78579819,2.49318766 5.76516641,3.23061516 C6.07585673,3.04101445 7.11230023,3.20963981 7.11230023,4.30529338 C7.11230023,4.7264455 6.89465519,5.20065292 6.37643344,5.34830293 C5.97674328,5.46181659 5.41887615,5.30717479 5.10737674,4.79060539 C5.19192658,4.75770288 5.26959916,4.70341374 5.33068541,4.62691541 C5.48607369,4.43224804 5.49039484,4.15480104 5.34114671,3.95522972 C5.19189859,3.7556584 4.92777717,3.68570619 4.70172162,3.78587883 C4.47566607,3.88605146 4.34628646,4.1303769 4.38849988,4.37737881 C4.4307133,4.62438073 4.63357496,4.81001822 4.87961808,4.82679815 C4.79304551,5.3026507 4.54829597,5.63044195 4.08630594,5.75917302 C3.1020487,6.03308641 2.26261846,4.70547015 3.35043914,3.95776062 C3.05026698,3.56786588 2.07612336,3.52591518 1.82732837,4.24195605 C1.81681021,3.68384723 1.37140651,3.14630248 0.376631108,3.16727783 C1.3297384,4.53684479 2.1380187,6.3489505 2.3661819,8.16105622 C3.52682063,7.42362872 5.49573964,6.85482659 7.60948566,6.85482659 L7.60948566,6.85482659 Z" id="Shape" stroke-width="0.1" fill="#F9DD16"></path>
                            <g id="b" transform="translate(2.022723, 7.814346)">
                                <g id="Group" transform="translate(0.404545, 0.000000)" fill="#F9DD16">
                                    <path d="M9.56748197,4.19506997 C9.44005039,4.22591607 9.44005039,4.39289631 9.37330052,4.39289631 C9.70462262,4.38343684 9.86563141,4.29089853 9.96595849,4.12103932 C9.89314045,4.18890075 9.95665396,4.31845438 9.93238128,4.34971177 C10.1755126,4.26334268 10.2912124,4.05276662 10.206258,3.91087454 C10.2608716,3.99107441 10.4190485,4.03425896 10.4675939,4.04042818 C10.2972806,3.90470532 10.4190485,3.59542173 10.1451718,3.43461072 C10.2365989,3.4284415 10.4129804,3.53331825 10.4615257,3.65711394 C10.4190485,3.37908773 10.3761668,3.19976906 10.15124,3.04512726 C10.1755126,3.07309439 10.3033488,3.09777128 10.3579623,3.04512726 C10.2123262,2.95258895 10.1694445,2.79835844 10.1819854,2.69923963 C10.1989762,2.56063781 10.1087628,2.53225939 9.93844945,2.57585522 C9.78512701,2.61451567 9.43398222,2.63754742 9.22725988,2.63754742 C8.80167887,2.63754742 8.43071138,2.63754742 8.07794841,2.38995604 C8.60709287,2.61245926 9.28187342,2.14277594 9.28187342,1.75329248 C9.28187342,1.32062448 8.75879713,0.968156344 7.70091276,1.20299801 C6.64302839,1.43825095 5.354149,1.33913214 5.354149,0.980906067 C5.354149,0.622268712 6.27812908,0.572503667 6.75266,0.646945595 C7.22678638,0.720976241 7.56700847,0.770330005 8.45498407,0.449119256 C8.23612539,0.535488343 7.53059944,0.560165226 6.97151868,0.399765491 C6.41203337,0.238954476 5.03779505,0.238954476 5.02565871,0.992833226 C5.01352237,1.74712326 6.48889686,1.67843927 7.76199901,1.48760471 C8.50352943,1.37655874 8.89270142,1.45058939 8.89270142,1.69735821 C8.89270142,1.93261116 8.21185271,2.03131868 7.68877642,1.96962648 C7.16610468,1.90793427 6.63089205,1.92027272 6.01072504,2.10534933 C5.49290783,2.26040241 5.13529032,2.10534933 4.56366867,2.20446814 C4.28655556,2.25258806 3.61501137,2.20446814 3.28368927,1.64841573 C3.07979874,1.79647702 2.4656999,2.10740574 2.362541,2.41010883 C2.21650037,2.68813503 2.31399564,2.96492739 2.50817709,3.23678438 C2.75333117,3.57938176 2.38681368,3.52756031 2.12547781,3.53989875 C1.76705122,3.55676128 1.28726121,3.5012383 1.03684805,3.2121075 C0.815157555,2.95629049 0.519839929,2.75106108 0.283990374,2.94066179 C0.162626966,3.03854676 0.279135838,3.16686655 0.37501293,3.13108507 C0.470080932,3.09530359 0.582544357,3.16686655 0.684085074,3.2121075 C0.521862653,3.1413671 0.343458444,3.19647881 0.273876757,3.25940485 C0.177999665,3.34700779 0.294508536,3.51398802 0.410612863,3.45476351 C0.501635418,3.40869999 0.688535066,3.37785389 0.809898474,3.49095627 C0.678421449,3.46504554 0.541685343,3.4703922 0.476149103,3.54236644 C0.410612863,3.61434068 0.461180949,3.71839486 0.602771591,3.71181436 C0.830125708,3.70153233 0.888380144,3.86398847 1.11613881,3.8302634 C0.976166342,3.84877106 0.896875583,3.92321299 0.86046656,3.97832469 C1.07325707,3.87961716 1.30829753,4.14653877 1.58419701,4.08361272 C1.47658813,4.12885367 1.30303845,4.23619811 1.30465663,4.31886566 C1.46849723,4.12720854 2.56926334,4.46692696 2.59353602,4.0465974 C2.62387687,4.13296648 2.6178087,4.2629314 2.53285432,4.37438865 C2.67363587,4.28801956 3.12874865,4.25676218 3.26831657,3.92321299 C3.28045291,4.02192051 3.2622484,4.15188543 3.17729401,4.18232025 C3.32333465,4.23126273 3.51549337,4.12062804 3.7121021,3.82450546 C3.79017922,3.7064677 3.80878828,3.62832424 3.7954383,3.53989875 C3.99042884,3.54730181 4.13161494,3.49753677 4.28372375,3.36674929 C4.44190072,3.23102644 4.61221404,3.47779526 4.87961808,3.30505709 C5.14742666,3.13190763 5.37842168,3.2803802 5.52405777,3.19401112 C5.67009841,3.10723075 5.87075257,3.22444594 6.02892955,3.12573841 C6.18710652,3.02703088 6.43226061,3.17426961 6.69400102,2.96410483 C7.10582752,3.1171015 7.58642661,3.40129693 8.76526985,3.18126139 C9.44085948,3.05499801 9.6528409,3.28654943 9.6528409,3.60159095 C9.6528409,3.81792495 9.52824113,3.8368439 9.43398222,3.84260184 C9.0581602,3.86604487 8.89674687,3.6998872 8.74827897,3.7529425 C8.64876097,3.78913526 8.58807927,3.95364781 8.73209718,4.00999335 C8.61316104,4.07168556 8.62853374,4.18766691 8.68921544,4.23002889 C8.74989715,4.27239087 8.90645594,4.2341417 9.0128512,4.18355409 C8.87611509,4.24648014 8.73452445,4.35958252 8.81543339,4.47803155 C8.86438329,4.54959451 8.98817397,4.61046415 9.10387375,4.45746748 C9.21997808,4.30323697 9.43236404,4.1745059 9.56748197,4.19506997 L9.56748197,4.19506997 Z M2.07935972,0.931141021 C1.73873309,0.788837667 1.62384239,0.785136135 1.70232406,1.06686387 C1.73590127,1.1877806 1.8176193,1.3576398 1.89974187,1.4349607 C1.90297823,1.31774551 1.94545542,0.992833226 2.07935972,0.931141021 L2.07935972,0.931141021 Z" id="Shape" stroke-width="0.01"></path>
                                    <path id="Shape" stroke-width="0.5"></path>
                                    <path d="M2.61335871,0.741129028 C3.25779841,0.741129028 3.3383028,1.04876749 3.33506644,1.43208173 C3.33223463,1.84624207 3.11337595,1.70352743 2.98877619,2.23531424 C2.94023082,2.44342262 2.77719931,2.4549385 2.61335871,2.4549385 C2.44911357,2.4549385 2.2864866,2.44342262 2.23753669,2.23531424 C2.11334147,1.70393871 1.89407825,1.84624207 1.89124644,1.43208173 C1.88801008,1.04876749 1.96851447,0.741129028 2.61335871,0.741129028 L2.61335871,0.741129028 Z" id="Shape" stroke-width="0.01"></path>
                                    <path d="M0.954725473,2.25999113 C0.790480328,2.1612836 0.684489619,2.22955631 0.617739745,2.24806397 C0.830530253,2.30358695 0.839025692,2.58120188 1.32569296,2.71116679 C1.21606134,2.68032069 1.15537964,2.74201289 1.0518162,2.68648991 C1.25247037,2.84688964 1.47739722,3.0332001 1.95192814,3.03895804 C2.21650037,3.04183701 2.03364617,3.18126139 1.86050104,3.10065025 C2.04011888,3.28942839 2.39571367,3.1347866 2.62064052,3.47779526 C2.66311771,3.2121075 2.20112767,2.79177794 2.41391818,2.48866357 C1.75774669,2.46028515 1.70394224,2.0905432 1.32569296,1.79647702 C1.01783445,1.55711127 0.990325406,1.31404398 0.85439839,0.8587555 C0.792503052,0.652703534 0.555035318,0.523972465 0.423558293,0.572914948 C0.3086676,0.61568821 0.266594952,0.716863427 0.365303857,0.792950481 C0.464012762,0.868626253 0.590230706,0.878908287 0.6173352,1.07097669 C0.489094533,0.914689766 0.296935804,0.858344219 0.204699614,0.955817903 C0.148467902,1.0154537 0.171122405,1.15405552 0.292081268,1.16680525 C0.489094533,1.18736931 0.347503891,1.38272796 0.57162165,1.5739738 C0.372990206,1.34694649 0.201058712,1.32638242 0.094663458,1.44976683 C0.0311499413,1.52379747 0.094663458,1.65540751 0.231399564,1.64101267 C0.429221918,1.6204486 0.658598759,2.13043749 0.954725473,2.25999113 L0.954725473,2.25999113 Z M6.2421246,4.16998181 C6.13856116,4.18848947 6.16930656,4.36163893 6.02933409,4.37397737 C6.36389255,4.37397737 6.53380132,4.2937775 6.6919783,4.16381259 C6.61916025,4.20699713 6.5888194,4.31845438 6.58275123,4.38014659 C6.75913272,4.22550479 7.17864556,4.21316635 7.39750424,4.25676218 C7.61636292,4.300358 7.65277194,4.19506997 7.73165816,4.05276662 C7.81094892,3.91046326 7.7013173,3.82985211 7.59209024,3.71880614 C7.48245863,3.60776017 7.45818594,3.45311838 7.48245863,3.19318855 C6.89870064,2.40229448 5.85295261,2.78519744 5.84081627,3.13149635 C6.21785192,3.57650279 6.26639728,3.52714903 6.58275123,3.58884123 C6.89870064,3.65053344 7.09247754,3.65053344 6.88049612,3.82985211 C6.80767808,3.89154432 6.50346047,3.86275462 6.26639728,3.87344794 C5.73603919,3.89689098 5.49331237,3.50082702 5.33675358,3.7064677 C5.20770382,3.87550435 5.34079903,3.95035756 5.60375308,3.94089808 C5.42170796,3.94254321 5.18019478,3.93267246 5.22145834,4.10499935 C5.29104003,4.395364 5.5641077,4.05112149 5.67050295,4.17080437 C5.57948039,4.14859518 5.43788975,4.205352 5.43263067,4.29254366 C5.42777613,4.38014659 5.63490302,4.49324896 5.86266168,4.30899491 C5.97189353,4.22374344 6.10451163,4.1751599 6.2421246,4.16998181 L6.2421246,4.16998181 Z" id="Shape" stroke-width="0.01"></path>
                                </g>
                                <g id="Group" transform="translate(2.427268, 1.233844)">
                                    <path d="M4.67249119,1.72984944 C4.48275973,1.65910905 4.30880552,1.6159245 4.08630594,1.66281058 M1.81236022,1.6381337 C1.65620597,1.97949723 1.75086943,2.14771131 1.77392848,2.30605464 M0.149681536,0.0213866312 C0.25688588,0.0760870534 0.317163039,-0.0781434602 0.474530924,0.0855465249 C0.431244642,0.037837886 0.377440198,0.212221187 0.25688588,0.0962398405 M1.02349807,0.0213866312 C0.916293728,0.0760870534 0.856016569,-0.0781434602 0.698648683,0.0855465249 C0.741934965,0.037837886 0.795739409,0.212221187 0.916293728,0.0962398405" id="Shape" stroke-width="0.01"></path>
                                    <path id="Shape" stroke-width="0.5"></path>
                                </g>
                                <path id="Shape" stroke-width="0.5" fill="#FF0016"></path>
                                <g id="Group" transform="translate(2.022723, 1.645125)" stroke-width="0.5" fill="#000000">
                                    <path id="Shape"></path>
                                </g>
                                <g id="Group" transform="translate(0.000000, 0.411281)" stroke-width="0.01" fill="#0051BA">
                                    <path d="M0.861680194,0.170270487 C0.740721331,0.0172738175 0.437717357,0.146416168 0.431649187,0.33642816 C0.533998994,0.213043749 0.701075952,0.390717301 0.792098507,0.353290697 C0.855207479,0.32737997 0.910630102,0.232373974 0.861680194,0.170270487 L0.861680194,0.170270487 Z M0.707953211,0.532609374 C0.586994348,0.379612704 0.284394919,0.508755054 0.278326748,0.698767047 C0.380272011,0.575382636 0.547348968,0.753056188 0.638776069,0.715629583 C0.701885041,0.690130138 0.757307664,0.595124142 0.707953211,0.532609374 L0.707953211,0.532609374 Z M0.627044273,1.01956652 C0.489903622,0.881375975 0.20348598,1.0442434 0.218454134,1.23343283 C0.306644877,1.09976638 0.491926346,1.25687587 0.57849891,1.20957851 C0.638371524,1.176676 0.68287144,1.07591206 0.627044273,1.01956652 L0.627044273,1.01956652 Z M0.772680362,2.52855786 C0.620571558,2.40722986 0.354785695,2.60258851 0.390790173,2.78931025 C0.463203673,2.64577305 0.665071474,2.78026206 0.745575868,2.72309395 C0.801403035,2.68319966 0.8345757,2.57791163 0.772680362,2.52855786 L0.772680362,2.52855786 Z M0.764589468,2.8588168 C0.583353446,2.79095537 0.389171994,3.06034467 0.48019455,3.22609106 C0.505276321,3.06692517 0.738294063,3.13149635 0.797762133,3.05211904 C0.839025692,2.99700734 0.838216602,2.88637265 0.764589468,2.8588168 L0.764589468,2.8588168 Z M0.995179943,3.10558562 C0.813943921,3.0377242 0.619762468,3.30711349 0.710380479,3.47285989 C0.735866795,3.313694 0.968884538,3.37826517 1.02835261,3.29888787 C1.06961617,3.24377616 1.06880708,3.13314147 0.995179943,3.10558562 L0.995179943,3.10558562 Z M5.74453463,3.58390586 C5.56329861,3.51604443 5.36911715,3.78543373 5.46013971,3.95118012 C5.48562603,3.79201423 5.71823922,3.8565854 5.77770729,3.7772081 C5.81897085,3.7220964 5.81816176,3.61146171 5.74453463,3.58390586 L5.74453463,3.58390586 Z M5.99130689,3.80764292 C5.80359815,3.76116813 5.64097119,4.05112149 5.74979371,4.20576329 C5.75707551,4.04454099 5.99575688,4.08196759 6.04592042,3.99600979 C6.08071127,3.93637399 6.06776584,3.82656186 5.99130689,3.80764292 L5.99130689,3.80764292 Z M5.81735267,3.26639664 C5.64987117,3.16810039 5.41361707,3.40006308 5.47551241,3.57897048 C5.52729413,3.42679637 5.74574826,3.53085056 5.81775722,3.46257785 C5.86751622,3.41528049 5.88531618,3.30629093 5.81735267,3.26639664 L5.81735267,3.26639664 Z M9.19530085,3.65341241 C9.00759212,3.60693761 8.84496515,3.89689098 8.95378767,4.05153277 C8.96147402,3.89031048 9.20015539,3.92773708 9.24991439,3.84177927 C9.28470523,3.78214348 9.2717598,3.67233135 9.19530085,3.65341241 L9.19530085,3.65341241 Z M9.20339175,3.35029804 C9.03307843,3.25775973 8.80491522,3.49794805 8.87247419,3.67521032 C8.91899683,3.52097981 9.14109186,3.61721965 9.21067355,3.54647925 C9.25881437,3.49712549 9.27297343,3.38813592 9.20339175,3.35029804 L9.20339175,3.35029804 Z M9.33284605,3.92444683 C9.14351913,3.88619766 8.99343305,4.18355409 9.10872829,4.33284923 C9.10953738,4.17162693 9.34943238,4.19836022 9.39555048,4.10993473 C9.42791405,4.0486538 9.41011408,3.94007552 9.33284605,3.92444683 L9.33284605,3.92444683 Z M3.03003974,1.78701755 C3.14897588,1.78701755 3.1971167,1.82238775 3.1971167,2.04077816 C3.1971167,2.5034697 3.19185762,2.70252988 3.04541244,2.70252988 C2.89856272,2.70252988 2.90867634,2.51334045 2.90867634,2.17362204 C2.90867634,1.99677105 2.90867634,1.90793427 2.87348095,1.9227404 C2.87348095,1.80675906 2.92404903,1.78701755 3.03003974,1.78701755 L3.03003974,1.78701755 Z" id="Shape"></path>
                                </g>
                            </g>
                            <g id="b-link" transform="translate(2.427268, 12.544082)">
                                <g id="b">
                                    <g id="Group" transform="translate(0.364090, -0.000000)" fill="#F9DD16">
                                        <path d="M8.61073377,3.77556297 C8.49604535,3.80332447 8.49604535,3.95360668 8.43597047,3.95360668 C8.73416036,3.94509315 8.87906827,3.86180868 8.96936264,3.70893539 C8.9038264,3.77001068 8.96098857,3.88660894 8.93914315,3.91474059 C9.15796138,3.83700841 9.26209118,3.64748996 9.18563223,3.51978709 C9.23478441,3.59196697 9.37714369,3.63083306 9.42083452,3.63638536 C9.26755253,3.51423479 9.37714369,3.23587956 9.13065461,3.09114965 C9.212939,3.08559735 9.37168234,3.17998642 9.41537317,3.29140255 C9.37714369,3.04117896 9.33855013,2.87979215 9.13611596,2.74061454 C9.15796138,2.76578495 9.27301389,2.78799415 9.32216607,2.74061454 C9.19109359,2.65733006 9.15250002,2.5185226 9.16378682,2.42931567 C9.17907861,2.30457403 9.09788649,2.27903345 8.94460451,2.3182697 C8.80661431,2.3530641 8.490584,2.37379268 8.3045339,2.37379268 C7.92151098,2.37379268 7.58764025,2.37379268 7.27015357,2.15096044 C7.74638358,2.35121333 8.35368608,1.92849834 8.35368608,1.57796323 C8.35368608,1.18856203 7.88291742,0.87134071 6.93082148,1.08269821 C5.97872555,1.29442585 4.8187341,1.20521893 4.8187341,0.88281546 C4.8187341,0.560041841 5.65031617,0.5152533 6.077394,0.582251035 C6.50410774,0.648878617 6.81030762,0.693297005 7.60948566,0.40420733 C7.41251285,0.481939509 6.7775395,0.504148703 6.27436681,0.359788942 C5.77083003,0.215059028 4.53401555,0.215059028 4.52309284,0.893549904 C4.51217013,1.57241093 5.84000718,1.51059534 6.98579911,1.33884424 C7.65317649,1.23890287 8.00343128,1.30553045 8.00343128,1.52762239 C8.00343128,1.73935004 7.39066744,1.82818682 6.91989878,1.77266383 C6.44949421,1.71714085 5.96780284,1.72824544 5.40965253,1.8948144 C4.94361705,2.03436217 4.62176129,1.8948144 4.10730181,1.98402133 C3.8579,2.02732926 3.25351023,1.98402133 2.95532034,1.48357416 C2.77181887,1.61682932 2.21912991,1.89666516 2.1262869,2.16909794 C1.99485033,2.41932153 2.08259608,2.66843465 2.25735938,2.91310594 C2.47799806,3.22144358 2.14813232,3.17480428 1.91293003,3.18590887 C1.59034609,3.20108516 1.15853509,3.15111447 0.933163241,2.89089675 C0.733641799,2.66066144 0.467855936,2.47595497 0.255591337,2.64659561 C0.14636427,2.73469208 0.251222254,2.85017989 0.337511637,2.81797656 C0.423072839,2.78577323 0.524289921,2.85017989 0.615676567,2.89089675 C0.469676388,2.82723039 0.309112599,2.87683092 0.246489081,2.93346437 C0.160199698,3.01230701 0.265057682,3.16258922 0.369551576,3.10928715 C0.451471876,3.06782999 0.619681559,3.0400685 0.728908626,3.14186064 C0.610579304,3.11854099 0.487516809,3.12335298 0.428534192,3.18812979 C0.369551576,3.25290661 0.415062854,3.34655538 0.542494432,3.34063293 C0.747113137,3.33137909 0.79954213,3.47758962 1.00452493,3.44723706 C0.878549708,3.46389395 0.807188024,3.53089169 0.774419904,3.58049222 C0.965931361,3.49165544 1.17746778,3.73188489 1.42577731,3.67525145 C1.32892931,3.7159683 1.17273461,3.8125783 1.17419097,3.8869791 C1.32164751,3.71448769 2.31233701,4.02023426 2.33418242,3.64193766 C2.36148919,3.71966984 2.35602783,3.83663826 2.27956889,3.93694978 C2.40627228,3.8592176 2.81587378,3.83108596 2.94148491,3.53089169 C2.95240762,3.61972846 2.93602356,3.73669688 2.85956461,3.76408822 C2.99100118,3.80813646 3.16394404,3.70856524 3.34089189,3.44205491 C3.4111613,3.33582093 3.42790945,3.26549182 3.41589447,3.18590887 C3.59138596,3.19257163 3.71845345,3.14778309 3.85535137,3.03007436 C3.99771065,2.9079238 4.15099263,3.13001574 4.39165627,2.97455138 C4.632684,2.81871687 4.84057951,2.95234218 4.97165199,2.87461001 C5.10308856,2.79650767 5.28367732,2.90200134 5.42603659,2.81316457 C5.56839587,2.72432779 5.78903454,2.85684265 6.02460092,2.66769435 C6.39524477,2.80539135 6.82778395,3.06116723 7.88874286,2.86313526 C8.49677353,2.74949821 8.68755681,2.95789448 8.68755681,3.24143186 C8.68755681,3.43613246 8.57541702,3.45315951 8.490584,3.45834165 C8.15234418,3.47944039 8.00707218,3.32989848 7.87345107,3.37764825 C7.78388488,3.41022173 7.72927134,3.55828303 7.85888746,3.60899402 C7.75184494,3.664517 7.76568037,3.76890022 7.8202939,3.807026 C7.87490743,3.84515178 8.01581035,3.81072753 8.11156608,3.76519868 C7.98850358,3.82183213 7.861072,3.92362427 7.93389005,4.0302284 C7.97794497,4.09463506 8.08935657,4.14941774 8.19348638,4.01172074 C8.29798027,3.87291327 8.48912764,3.75705531 8.61073377,3.77556297 L8.61073377,3.77556297 Z M1.87142375,0.838026919 C1.56485978,0.7099539 1.46145815,0.706622521 1.53209166,0.960177486 C1.56231115,1.06900254 1.63585737,1.22187582 1.70976769,1.29146463 C1.71268041,1.18597096 1.75090988,0.893549904 1.87142375,0.838026919 L1.87142375,0.838026919 Z" id="Shape" stroke-width="0.01"></path>
                                        <path id="Shape" stroke-width="0.5"></path>
                                        <path d="M2.33976849,0.667016125 C2.90882934,0.667016125 2.9799173,0.943890743 2.97705949,1.28887356 C2.97455891,1.66161786 2.7812997,1.53317469 2.67127412,2.01178282 C2.62840701,2.19908036 2.48444497,2.20944465 2.33976849,2.20944465 C2.19473477,2.20944465 2.05112996,2.19908036 2.00790562,2.01178282 C1.89823727,1.53354484 1.70462084,1.66161786 1.70212025,1.28887356 C1.69926245,0.943890743 1.7703504,0.667016125 2.33976849,0.667016125 L2.33976849,0.667016125 Z" id="Shape" stroke-width="0.01"></path>
                                        <path d="M0.859252926,2.03399201 C0.711432296,1.94515524 0.616040657,2.00660067 0.55596577,2.02325757 C0.747477228,2.07322826 0.755123122,2.32308169 1.19312366,2.44005011 C1.09445521,2.41228862 1.03984168,2.4678116 0.94663458,2.41784092 C1.12722333,2.56220068 1.32965749,2.72988009 1.75673533,2.73506224 C1.99485033,2.73765331 1.83028155,2.86313526 1.67445094,2.79058522 C1.83610699,2.96048556 2.1561423,2.82130794 2.35857646,3.13001574 C2.39680594,2.89089675 1.9810149,2.51260014 2.17252636,2.23979721 C1.58197202,2.21425664 1.53354802,1.88148888 1.19312366,1.61682932 C0.916051001,1.40140014 0.891292866,1.18263958 0.768958551,0.77287995 C0.713252747,0.58743318 0.499531786,0.471575218 0.381202463,0.515623453 C0.27780084,0.554119389 0.239935457,0.645177085 0.328773471,0.713655433 C0.417611486,0.781763627 0.531207635,0.791017458 0.55560168,0.963879018 C0.44018508,0.82322079 0.267242224,0.772509797 0.184229653,0.860236113 C0.133621112,0.913908332 0.154010164,1.03864997 0.262873141,1.05012472 C0.44018508,1.06863238 0.312753502,1.24445517 0.514459485,1.41657642 C0.335691186,1.21225184 0.180952841,1.19374418 0.0851971122,1.30479015 C0.0280349472,1.37141773 0.0851971122,1.48986676 0.208259608,1.4769114 C0.386299727,1.45840374 0.592738883,1.91739375 0.859252926,2.03399201 L0.859252926,2.03399201 Z M5.61791214,3.75298363 C5.52470504,3.76964052 5.5523759,3.92547503 5.42640068,3.93657963 C5.7275033,3.93657963 5.88042119,3.86439975 6.02278047,3.74743133 C5.95724423,3.78629742 5.92993746,3.88660894 5.92447611,3.94213193 C6.08321944,3.80295431 6.46078101,3.79184972 6.65775382,3.83108596 C6.85472663,3.8703222 6.88749475,3.77556297 6.95849234,3.64748996 C7.02985402,3.51941694 6.93118557,3.4468669 6.83288121,3.34692553 C6.73421276,3.24698416 6.71236735,3.10780654 6.73421276,2.8738697 C6.20883057,2.16206503 5.26765735,2.50667769 5.25673464,2.81834671 C5.59606673,3.21885251 5.63975755,3.17443412 5.92447611,3.22995711 C6.20883057,3.28548009 6.38322979,3.28548009 6.19244651,3.4468669 C6.12691027,3.50238989 5.85311442,3.47647916 5.63975755,3.48610315 C5.16243527,3.50720188 4.94398114,3.15074432 4.80307822,3.33582093 C4.68693344,3.48795391 4.80671912,3.5553218 5.04337777,3.54680828 C4.87953717,3.54828889 4.6621753,3.53940521 4.69931251,3.69449942 C4.76193603,3.9558276 5.00769693,3.64600934 5.10345265,3.75372393 C5.02153235,3.73373566 4.89410078,3.7848168 4.8893676,3.86328929 C4.88499852,3.94213193 5.07141272,4.04392407 5.27639551,3.87809542 C5.37470418,3.8013691 5.49406047,3.75764391 5.61791214,3.75298363 L5.61791214,3.75298363 Z" id="Shape" stroke-width="0.01"></path>
                                    </g>
                                    <g id="Group" transform="translate(2.184541, 1.110460)">
                                        <path d="M4.20524207,1.5568645 C4.03448376,1.49319814 3.87792496,1.45433205 3.67767534,1.49652952 M1.6311242,1.47432033 C1.49058537,1.78154751 1.57578248,1.93294018 1.59653563,2.07544918 M0.134713382,0.0192479681 C0.231197292,0.0684783481 0.285446735,-0.0703291142 0.427077832,0.0769918724 C0.388120178,0.0340540974 0.339696178,0.190999068 0.231197292,0.0866158565 M0.921148264,0.0192479681 C0.824664355,0.0684783481 0.770414912,-0.0703291142 0.628783815,0.0769918724 C0.667741469,0.0340540974 0.716165469,0.190999068 0.824664355,0.0866158565" id="Shape" stroke-width="0.01"></path>
                                        <path id="Shape" stroke-width="0.5"></path>
                                    </g>
                                    <path id="Shape" stroke-width="0.5" fill="#FF0016"></path>
                                    <g id="Group" transform="translate(1.820451, 1.480613)" stroke-width="0.5" fill="#000000">
                                        <path id="Shape"></path>
                                    </g>
                                    <g id="Group" transform="translate(0.000000, 0.370153)" stroke-width="0.01" fill="#0051BA">
                                        <path d="M0.775512175,0.153243438 C0.666649198,0.0155464358 0.393945621,0.131774551 0.388484268,0.302785344 C0.480599094,0.191739375 0.630968356,0.351645571 0.712888657,0.317961627 C0.769686731,0.294641973 0.819567092,0.209136576 0.775512175,0.153243438 L0.775512175,0.153243438 Z M0.63715789,0.479348436 C0.528294913,0.341651434 0.255955427,0.457879549 0.250494073,0.628890342 C0.34224481,0.517844373 0.492614072,0.677750569 0.574898462,0.644066625 C0.631696537,0.621117124 0.681576897,0.535611728 0.63715789,0.479348436 L0.63715789,0.479348436 Z M0.564339846,0.917609864 C0.44091326,0.793238378 0.183137382,0.939819058 0.19660872,1.11008954 C0.275980389,0.989789744 0.442733711,1.13118828 0.520649019,1.08862066 C0.574534372,1.0590084 0.614584296,0.968320857 0.564339846,0.917609864 L0.564339846,0.917609864 Z M0.695412326,2.27570207 C0.558514402,2.16650687 0.319307126,2.34232966 0.351711155,2.51037922 C0.416883305,2.38119575 0.598564327,2.50223585 0.671018281,2.45078455 C0.721262732,2.41487969 0.75111813,2.32012046 0.695412326,2.27570207 L0.695412326,2.27570207 Z M0.688130521,2.57293512 C0.525018101,2.51185984 0.350254794,2.7543102 0.432175095,2.90348196 C0.454748688,2.76023266 0.664464657,2.81834671 0.71798592,2.74690714 C0.755123122,2.69730661 0.754394942,2.59773539 0.688130521,2.57293512 L0.688130521,2.57293512 Z M0.895661948,2.79502706 C0.732549529,2.73395178 0.557786222,2.97640214 0.639342431,3.1255739 C0.662280116,2.9823246 0.871996084,3.04043865 0.925517347,2.96899908 C0.962654549,2.91939855 0.961926369,2.81982733 0.895661948,2.79502706 L0.895661948,2.79502706 Z M5.17008117,3.22551527 C5.00696875,3.16443999 4.83220544,3.40689035 4.91412574,3.55606211 C4.93706342,3.41281281 5.1464153,3.47092686 5.19993656,3.39948729 C5.23707377,3.34988676 5.23634559,3.25031554 5.17008117,3.22551527 L5.17008117,3.22551527 Z M5.3921762,3.42687863 C5.22323834,3.38505131 5.07687407,3.64600934 5.17481434,3.78518696 C5.18136796,3.64008689 5.39618119,3.67377083 5.44132838,3.59640881 C5.47264014,3.54273659 5.46098925,3.44390568 5.3921762,3.42687863 L5.3921762,3.42687863 Z M5.23561741,2.93975697 C5.08488405,2.85129035 4.87225536,3.06005677 4.92796117,3.22107343 C4.97456472,3.08411673 5.17117344,3.1777655 5.2359815,3.11632007 C5.28076459,3.07375244 5.29678456,2.97566184 5.23561741,2.93975697 L5.23561741,2.93975697 Z M8.27577077,3.28807117 C8.1068329,3.24624385 7.96046863,3.50720188 8.0584089,3.6463795 C8.06532662,3.50127943 8.28013985,3.53496337 8.32492295,3.45760135 C8.35623471,3.40392913 8.34458382,3.30509821 8.27577077,3.28807117 L8.27577077,3.28807117 Z M8.28305257,3.01526823 C8.12977059,2.93198376 7.9244237,3.14815324 7.98522677,3.30768929 C8.02709715,3.16888183 8.22698268,3.25549768 8.2896062,3.19183133 C8.33293293,3.14741294 8.34567609,3.04932233 8.28305257,3.01526823 L8.28305257,3.01526823 Z M8.39956144,3.53200215 C8.22916722,3.4975779 8.09408975,3.76519868 8.19785546,3.89956431 C8.19858364,3.75446424 8.41448914,3.7785242 8.45599543,3.69894125 C8.48512265,3.64378842 8.46910268,3.54606797 8.39956144,3.53200215 L8.39956144,3.53200215 Z M2.72703577,1.6083158 C2.8340783,1.6083158 2.87740503,1.64014897 2.87740503,1.83670034 C2.87740503,2.25312273 2.87267186,2.43227689 2.7408712,2.43227689 C2.60870645,2.43227689 2.6178087,2.26200641 2.6178087,1.95625983 C2.6178087,1.79709394 2.6178087,1.71714085 2.58613285,1.73046636 C2.58613285,1.62608315 2.63164413,1.6083158 2.72703577,1.6083158 L2.72703577,1.6083158 Z" id="Shape"></path>
                                    </g>
                                </g>
                            </g>
                            <g id="b-link" transform="translate(3.729902, 16.862536)">
                                <g id="b">
                                    <g id="Group" transform="translate(0.271045, 0.000000)" fill="#F9DD16">
                                        <path d="M6.41021292,3.14630248 C6.32483376,3.16943706 6.32483376,3.29467223 6.28011135,3.29467223 C6.50209716,3.28757763 6.60997304,3.2181739 6.67719219,3.09077949 C6.6284041,3.14167556 6.67095816,3.23884079 6.65469546,3.26228382 C6.81759347,3.19750701 6.89511232,3.03957496 6.83819289,2.93315591 C6.87478395,2.99330581 6.98076253,3.02569422 7.01328792,3.03032113 C6.899178,2.92852899 6.98076253,2.6965663 6.7972651,2.57595804 C6.85852126,2.57133112 6.97669685,2.64998869 7.00922225,2.74283545 C6.98076253,2.5343158 6.95203176,2.39982679 6.80133077,2.28384545 C6.81759347,2.3048208 6.90324367,2.32332846 6.93983474,2.28384545 C6.84225856,2.21444171 6.8135278,2.09876883 6.82193019,2.02442972 C6.83331408,1.92047836 6.77287105,1.89919454 6.65876113,1.93189141 C6.5560351,1.96088675 6.32076809,1.97816057 6.18226412,1.97816057 C5.89712484,1.97816057 5.64857663,1.97816057 5.41222544,1.79246703 C5.76675222,1.95934445 6.21885519,1.60708195 6.21885519,1.31496936 C6.21885519,0.990468359 5.86839408,0.726117258 5.15961155,0.902248505 C4.45082902,1.07868821 3.58727983,1.0043491 3.58727983,0.73567955 C3.58727983,0.466701534 4.20634648,0.42937775 4.5242822,0.485209196 C4.84194688,0.540732181 5.06989567,0.577747504 5.66483932,0.336839442 C5.51820401,0.401616257 5.04550163,0.420123919 4.67091752,0.299824118 C4.29606236,0.179215857 3.37532268,0.179215857 3.36719134,0.74462492 C3.35905999,1.31034244 4.3475609,1.25882945 5.20053934,1.11570354 C5.69736472,1.03241906 5.95810995,1.08794204 5.95810995,1.27301866 C5.95810995,1.44945837 5.50194131,1.52348901 5.1514802,1.47721986 C4.80129013,1.43095071 4.44269767,1.44020454 4.02718577,1.579012 C3.68024825,1.69530181 3.44064452,1.579012 3.05765801,1.65335111 C2.87199222,1.68944105 2.42205762,1.65335111 2.20007181,1.2363118 C2.06346516,1.34735777 1.65201893,1.5805543 1.58290247,1.80758162 C1.48505525,2.01610127 1.55037708,2.22369555 1.68047865,2.42758828 C1.84473189,2.68453632 1.59916517,2.64567023 1.42407013,2.65492406 C1.18392431,2.66757096 0.862465011,2.62592873 0.694688191,2.40908062 C0.546155562,2.21721786 0.348292753,2.06329581 0.190273551,2.20549634 C0.108960067,2.27891007 0.187021011,2.37514991 0.251258663,2.3483138 C0.314954225,2.32147769 0.390304719,2.37514991 0.458337,2.40908062 C0.349647977,2.35602533 0.230117157,2.3973591 0.183497427,2.44455364 C0.119259775,2.51025584 0.197320719,2.63549102 0.275110618,2.59107263 C0.33609573,2.55652499 0.461318494,2.53339042 0.542631977,2.6182172 C0.454542371,2.59878415 0.36292918,2.60279415 0.319019899,2.65677483 C0.275110618,2.71075551 0.308991236,2.78879615 0.403856966,2.78386077 C0.556184225,2.77614925 0.595214696,2.89799135 0.747813,2.87269755 C0.654031449,2.88657829 0.60090664,2.94240974 0.576512595,2.98374352 C0.719082236,2.90971287 0.876559348,3.10990408 1.061412,3.06270954 C0.989314045,3.09664025 0.873035764,3.17714858 0.874119944,3.23914925 C0.983893146,3.09540641 1.72140644,3.35019522 1.73766913,3.03494805 C1.75799751,3.09972486 1.75393183,3.19719855 1.69701239,3.28079149 C1.79133603,3.21601467 2.09626159,3.19257163 2.1897721,2.94240974 C2.19790345,3.01644039 2.18570643,3.11391407 2.12878699,3.13674019 C2.22663421,3.17344705 2.35538056,3.09047103 2.4871084,2.86837909 C2.53942008,2.77985078 2.55188815,2.72124318 2.54294366,2.65492406 C2.67358733,2.66047636 2.76818201,2.62315258 2.87009491,2.52506197 C2.97607348,2.42326983 3.0901834,2.60834645 3.26934411,2.47879282 C3.44877586,2.34893072 3.60354253,2.46028515 3.70111871,2.39550834 C3.79896593,2.33042306 3.93340422,2.41833445 4.0393828,2.34430381 C4.14536137,2.27027316 4.30961461,2.38070221 4.48498068,2.22307862 C4.76090444,2.33782613 5.08290583,2.5509727 5.8727308,2.38594605 C6.32537585,2.29124851 6.4674034,2.46491207 6.4674034,2.70119322 C6.4674034,2.86344372 6.38392156,2.87763292 6.32076809,2.88195138 C6.06896734,2.89953366 5.9608204,2.7749154 5.86134691,2.81470687 C5.79466985,2.84185144 5.75401311,2.96523586 5.85050511,3.00749502 C5.7708179,3.05376417 5.78111761,3.14075018 5.82177435,3.17252167 C5.86243109,3.20429315 5.96732548,3.17560628 6.0386103,3.13766557 C5.94699711,3.18486011 5.85213138,3.26968689 5.90634037,3.35852366 C5.93913681,3.41219588 6.02207656,3.45784812 6.09959541,3.34310061 C6.17738531,3.22742773 6.31968391,3.13087943 6.41021292,3.14630248 L6.41021292,3.14630248 Z M1.39317101,0.698355766 C1.16495117,0.59162825 1.0879744,0.588852101 1.14055712,0.800147905 C1.16305385,0.890835447 1.21780493,1.01822985 1.27282706,1.07622052 C1.27499542,0.988309131 1.30345513,0.74462492 1.39317101,0.698355766 L1.39317101,0.698355766 Z" id="Shape" stroke-width="0.01"></path>
                                        <path id="Shape" stroke-width="0.5"></path>
                                        <path d="M1.62050182,0.555846771 C1.93587394,0.555846771 1.97527071,0.776077048 1.97368692,1.05048162 C1.97230111,1.3469681 1.86519733,1.24480245 1.80422143,1.62549463 C1.78046458,1.77447393 1.70068118,1.78271785 1.62050182,1.78271785 C1.5401245,1.78271785 1.46053906,1.77447393 1.43658424,1.62549463 C1.37580631,1.24509688 1.26850456,1.3469681 1.26711875,1.05048162 C1.26553496,0.776077048 1.30493173,0.555846771 1.62050182,0.555846771 L1.62050182,0.555846771 Z" id="Shape" stroke-width="0.01"></path>
                                        <path d="M0.639666067,1.69499334 C0.52962182,1.6209627 0.458608045,1.67216723 0.413885629,1.68604798 C0.55645527,1.72769021 0.562147213,1.93590141 0.888214281,2.03337509 C0.814761101,2.01024051 0.774104359,2.05650967 0.704716854,2.01486743 C0.839155146,2.13516723 0.989856135,2.27490008 1.30779185,2.27921853 C1.48505525,2.28137776 1.36254293,2.38594605 1.2465357,2.32548768 C1.36687965,2.4670713 1.60512816,2.35108995 1.75582915,2.60834645 C1.78428886,2.40908062 1.47475554,2.09383345 1.61732518,1.86649768 C1.17769028,1.84521387 1.1416413,1.5679074 0.888214281,1.34735777 C0.681949078,1.16783345 0.663518022,0.985532982 0.572446921,0.644066625 C0.530977045,0.48952765 0.371873663,0.392979349 0.283784056,0.429686211 C0.206807292,0.461766158 0.178618618,0.537647571 0.244753584,0.594712861 C0.31088855,0.65146969 0.395454573,0.659181215 0.413614584,0.803232515 C0.327693337,0.686017325 0.198946989,0.643758164 0.137148742,0.716863427 C0.0994734944,0.761590276 0.114652011,0.865541642 0.195694449,0.875103934 C0.327693337,0.890526986 0.232827607,1.03704597 0.382986506,1.18048035 C0.249903438,1.01020986 0.134709337,0.994786813 0.0634245168,1.08732512 C0.0208704607,1.14284811 0.0634245168,1.24155563 0.155037708,1.2307595 C0.287578685,1.21533645 0.441261168,1.59782812 0.639666067,1.69499334 L0.639666067,1.69499334 Z M4.18222348,3.12748636 C4.11283598,3.1413671 4.13343539,3.27122919 4.03965384,3.28048302 C4.26380801,3.28048302 4.37764689,3.22033312 4.48362546,3.12285944 C4.43483737,3.15524785 4.414509,3.23884079 4.41044332,3.28510994 C4.52861892,3.16912859 4.80969253,3.15987476 4.95632784,3.19257163 C5.10296316,3.2252685 5.1273572,3.14630248 5.18021096,3.03957496 C5.23333577,2.93284745 5.15988259,2.87238909 5.08670046,2.78910461 C5.01324728,2.70582013 4.99698458,2.58983878 5.01324728,2.39489142 C4.62212943,1.80172086 3.92147825,2.08889808 3.9133469,2.34862226 C4.16596079,2.68237709 4.19848618,2.64536177 4.41044332,2.69163092 C4.62212943,2.73790008 4.75195995,2.73790008 4.6099324,2.87238909 C4.56114431,2.91865824 4.35731852,2.89706597 4.19848618,2.90508595 C3.84314626,2.92266823 3.68051929,2.62562026 3.5756249,2.77985078 C3.48916156,2.90662826 3.57833535,2.96276817 3.75451456,2.95567356 C3.63254434,2.95690741 3.4707305,2.94950434 3.49837709,3.07874951 C3.54499682,3.296523 3.72795216,3.03834112 3.79923698,3.12810328 C3.73825186,3.11144638 3.64338613,3.154014 3.63986255,3.21940774 C3.63661001,3.28510994 3.77538502,3.36993672 3.92798332,3.23174618 C4.00116867,3.16780758 4.09002279,3.13136992 4.18222348,3.12748636 L4.18222348,3.12748636 Z" id="Shape" stroke-width="0.01"></path>
                                    </g>
                                    <g id="Group" transform="translate(1.626270, 0.925383)">
                                        <path d="M3.1305691,1.29738708 C3.00344902,1.24433178 2.8868997,1.21194338 2.73782498,1.24710793 M1.21428135,1.22860027 C1.109658,1.48462292 1.17308252,1.61078348 1.18853208,1.72954098 M0.100286629,0.0160399734 C0.172113539,0.05706529 0.212499236,-0.0586075952 0.317935719,0.0641598937 C0.28893391,0.0283784145 0.252884933,0.15916589 0.172113539,0.0721798804 M0.685743708,0.0160399734 C0.613916798,0.05706529 0.573531101,-0.0586075952 0.468094618,0.0641598937 C0.497096427,0.0283784145 0.533145404,0.15916589 0.613916798,0.0721798804" id="Shape" stroke-width="0.01"></path>
                                        <path id="Shape" stroke-width="0.5"></path>
                                    </g>
                                    <path id="Shape" stroke-width="0.5" fill="#FF0016"></path>
                                    <g id="Group" transform="translate(1.355225, 1.233844)" stroke-width="0.5" fill="#000000">
                                        <path id="Shape"></path>
                                    </g>
                                    <g id="Group" transform="translate(0.000000, 0.308461)" stroke-width="0.01" fill="#0051BA">
                                        <path d="M0.57732573,0.127702865 C0.496283292,0.0129553631 0.293270629,0.109812126 0.289204955,0.25232112 C0.357779326,0.159782812 0.469720888,0.293037976 0.530706,0.264968022 C0.572989011,0.245534978 0.610122168,0.17428048 0.57732573,0.127702865 L0.57732573,0.127702865 Z M0.474328652,0.39945703 C0.393286213,0.284709528 0.190544595,0.381566291 0.186478921,0.524075285 C0.254782247,0.431536977 0.366723809,0.564792141 0.427979966,0.536722187 C0.470262977,0.517597604 0.507396135,0.446343106 0.474328652,0.39945703 L0.474328652,0.39945703 Z M0.420119663,0.764674887 C0.328235427,0.661031981 0.136335607,0.783182548 0.14636427,0.925074621 C0.205452067,0.824824787 0.329590652,0.942656899 0.38759427,0.907183881 C0.427708921,0.882506999 0.457523865,0.806934047 0.420119663,0.764674887 L0.420119663,0.764674887 Z M0.517695843,1.8964184 C0.415782944,1.80542239 0.237706416,1.95194138 0.261829416,2.09198269 C0.310346461,1.98432979 0.445597888,2.08519654 0.499535831,2.04232046 C0.536940034,2.01239974 0.559165719,1.93343372 0.517695843,1.8964184 L0.517695843,1.8964184 Z M0.512274944,2.1441126 C0.390846809,2.09321653 0.260745236,2.2952585 0.321730348,2.4195683 C0.338535135,2.30019388 0.494657022,2.34862226 0.534500629,2.28908928 C0.562147213,2.24775551 0.561605123,2.16477949 0.512274944,2.1441126 L0.512274944,2.1441126 Z M0.666770562,2.32918922 C0.545342427,2.27829315 0.415240854,2.48033512 0.475954921,2.60464491 C0.493030753,2.4852705 0.64915264,2.53369888 0.688996247,2.4741659 C0.716642831,2.43283212 0.716100741,2.34985611 0.666770562,2.32918922 L0.666770562,2.32918922 Z M3.8488382,2.68792939 C3.72741007,2.63703332 3.59730849,2.83907529 3.65829361,2.96338509 C3.67536944,2.84401067 3.83122028,2.89243905 3.87106389,2.83290607 C3.89871047,2.7915723 3.89816838,2.70859628 3.8488382,2.68792939 L3.8488382,2.68792939 Z M4.01417562,2.85573219 C3.88841076,2.82087609 3.7794507,3.03834112 3.85236179,3.15432246 C3.85724059,3.03340574 4.01715711,3.0614757 4.05076668,2.99700734 C4.07407655,2.95228049 4.06540311,2.8699214 4.01417562,2.85573219 L4.01417562,2.85573219 Z M3.89762629,2.44979748 C3.78541368,2.37607529 3.62712344,2.55004731 3.66859331,2.68422786 C3.70328707,2.57009728 3.84965134,2.64813792 3.89789734,2.59693339 C3.93123586,2.56146037 3.94316184,2.4797182 3.89762629,2.44979748 L3.89762629,2.44979748 Z M6.16085157,2.74005931 C6.03508672,2.70520321 5.92612665,2.92266823 5.99903774,3.03864958 C6.00418759,2.91773286 6.16410411,2.94580281 6.19744264,2.88133446 C6.2207525,2.83660761 6.21207907,2.75424851 6.16085157,2.74005931 L6.16085157,2.74005931 Z M6.16627247,2.51272353 C6.05216255,2.4433198 5.8992932,2.62346104 5.94455771,2.75640774 C5.97572787,2.64073485 6.12453155,2.71291473 6.17115128,2.65985944 C6.20340563,2.62284411 6.2128922,2.54110194 6.16627247,2.51272353 L6.16627247,2.51272353 Z M6.25300685,2.94333512 C6.12615782,2.91464825 6.02560014,3.13766557 6.10284795,3.24963692 C6.10339004,3.1287202 6.26411969,3.14877017 6.29501882,3.08245105 C6.31670241,3.03649035 6.30477644,2.95505664 6.25300685,2.94333512 L6.25300685,2.94333512 Z M2.03012663,1.34026316 C2.10981384,1.34026316 2.14206819,1.36679081 2.14206819,1.53058362 C2.14206819,1.87760227 2.13854461,2.02689741 2.04042634,2.02689741 C1.94203702,2.02689741 1.94881315,1.88500534 1.94881315,1.63021653 C1.94881315,1.49757829 1.94881315,1.43095071 1.92523224,1.4420553 C1.92523224,1.35506929 1.95911285,1.34026316 2.03012663,1.34026316 L2.03012663,1.34026316 Z" id="Shape"></path>
                                    </g>
                                </g>
                            </g>
                        </g>
                    </g>
                </g>
            </g>
        </g>
    </g>
</svg>