<?xml version="1.0" encoding="UTF-8" standalone="no"?>
<svg width="122px" height="60px" viewBox="0 0 122 60" version="1.1" xmlns="http://www.w3.org/2000/svg" xmlns:xlink="http://www.w3.org/1999/xlink">
    <!-- Generator: Sketch 3.8.2 (29753) - http://www.bohemiancoding.com/sketch -->
    <title>im</title>
    <desc>Created with Sketch.</desc>
    <defs></defs>
    <g id="Page-1" stroke="none" stroke-width="1" fill="none" fill-rule="evenodd">
        <g id="im">
            <g>
                <rect id="Rectangle-131" fill="#BA0000" x="0" y="0" width="122" height="60"></rect>
                <g id="Clipped" transform="translate(37.000000, 9.000000)">
                    <g id="Group" transform="translate(0.462767, 0.000000)">
                        <path d="M26.1528923,34.3265078 C26.1764696,34.2551865 26.2239778,33.5196925 26.2002826,33.5196925 C26.1765875,33.5196925 25.0850762,32.2386198 25.1088893,32.2386198 C25.1327024,32.2386198 26.5086738,32.5470109 26.5086738,32.4995026 C26.5086738,32.4521123 27.0544883,31.1473443 27.0544883,31.1235312 C27.0544883,31.0999539 27.7186609,32.7132309 27.7186609,32.7132309 L29.0708192,33.3064358 L28.1218328,34.0892023 C28.1218328,34.0892023 28.3355611,35.6075806 28.3355611,35.6315115 C28.3355611,35.6550888 27.3865746,34.7296797 27.3865746,34.7296797 L26.3424538,34.8485093 C26.3424538,34.8485093 26.2002826,34.3740161 26.1528923,34.3266257 L26.1528923,34.3265078 Z" id="Shape" stroke="#000000" stroke-width="0.2" fill-opacity="0.988" fill="#FFEF00"></path>
                        <path d="M18.8014893,14.3895407 C17.9000111,14.8537778 14.4401599,18.8086345 13.9657845,19.4254168 C13.5681533,20.3208827 12.790456,21.4536542 11.9896529,22.1827823 C11.1347399,22.8297435 10.6596573,23.7133029 10.777308,24.5499435 C10.7678771,25.5908814 11.3514153,26.2996151 11.8163597,27.0321619 C12.0916248,27.3667238 12.4617884,27.5830456 12.8555294,27.6093343 C13.663052,27.7160216 13.734727,27.9646442 14.1389598,28.118604 C15.7310172,30.286537 18.1061947,31.8850781 19.816728,33.1511793 C20.9071782,33.7259939 21.6651885,34.3005728 21.9251282,34.6143867 C22.4259102,35.5706821 22.3337229,36.5031644 22.265113,36.9612714 C21.8419004,38.5586336 21.418452,40.1556422 20.9951215,41.7528866 C20.7813933,43.0578903 21.9154616,42.7643529 21.9764089,42.5033521 C22.4880363,41.8390616 23.251941,42.3055386 24.3432164,38.4622025 C24.8436447,37.7887168 25.3440729,37.1152312 25.8442654,36.4416276 C25.8442654,36.4416276 26.4216735,36.2108058 26.4216735,36.1531593 C27.2996923,35.0990181 26.6312757,34.495675 26.1328516,34.3058777 C25.7674034,34.1712513 25.4019552,34.0363891 25.0362712,33.9015269 C25.0362712,33.9015269 23.7662798,32.6316534 23.7085154,32.6316534 C23.1049365,30.8759696 20.1426842,27.1278858 19.4545806,26.6060022 C18.9783191,26.1097 18.7516233,25.8980937 18.2995285,25.6220035 C17.6043518,25.2895635 17.3800137,25.1813437 16.9544434,25.0113513 C16.5998408,24.8691802 16.8522358,24.4800368 17.0776348,24.3021461 C19.4239301,23.0249636 21.2838256,21.6054921 23.5352222,20.1622075 L23.8815728,19.9311499 L23.0733429,15.3129458 L19.3210152,13.9850721 C19.1241447,14.1198164 18.9747825,14.2546785 18.8014893,14.3894228 L18.8014893,14.3895407 Z" id="Shape" stroke="#000000" stroke-width="0.2" fill="#FFFFFF"></path>
                        <path d="M21.9408072,38.7048129 C21.9525958,38.6574225 24.2894602,38.2303197 24.2894602,38.2303197 C24.2894602,38.2303197 24.0166708,39.096314 24.0047642,39.096314 L21.6800422,39.7962062 L21.9408072,38.7049308 L21.9408072,38.7048129 Z" id="Shape" fill="#FFEC00"></path>
                        <path d="M15.8519688,29.9057636 C16.3027668,28.7076829 17.5540142,27.7590502 18.3945451,27.4973421" id="Shape" stroke="#000000" stroke-width="0.2"></path>
                        <path d="M21.8571077,38.7248536 C22.0080025,38.6824145 22.6775979,38.4869586 22.8728179,38.4565439 C23.0808876,38.4077389 23.2881321,38.3532753 23.4881855,38.2886735 C23.7192431,38.2415189 23.863772,38.1981367 24.1035531,38.1542829 C24.2915821,38.0827258 24.4772534,38.0335671 24.678132,37.9866483 M21.4338951,40.1696707 C21.4535822,40.1437357 21.612729,40.0028613 21.7270789,39.9348408 C21.8618232,39.8924016 22.3224058,39.6969458 22.4965242,39.6665311 C22.6821562,39.6188857 22.8655391,39.5628717 23.0461111,39.4986607 C23.2524125,39.4515061 23.3814982,39.4081238 23.5958159,39.3642701 C23.7634505,39.292713 23.9294347,39.2436722 24.1086222,39.1966354" id="Shape" stroke="#000000" stroke-width="0.2"></path>
                        <path d="M22.3828816,30.2440979 L22.3494018,30.2440979 C22.4543208,30.2440979 22.3899548,30.2353743 22.2486088,30.4118504 C22.1985071,30.5474199 21.7676319,30.8480305 21.443444,30.8480305 C21.2870086,30.8647704 21.0465201,30.8815102 20.8898489,30.8815102 C20.845052,30.8815102 20.783751,30.8480305 20.7389542,30.8480305 M22.3498734,37.156963 L22.517508,37.156963 C22.6915085,37.156963 22.8660984,37.1879671 23.0208834,37.1904428 C23.1886359,37.1904428 23.3563884,37.2380689 23.5242588,37.2380689 C23.6935438,37.2619999 23.8976054,37.2542194 24.0727847,37.2790934 C24.2691837,37.285813 24.4269158,37.3245976 24.631331,37.3245976 C24.7961364,37.3308456 24.8850228,37.3583132 25.0675111,37.3583132 L24.631331,37.3245976 C24.7961364,37.3308456 24.8850228,37.3583132 25.0675111,37.3583132 M21.2087319,41.2499827 C21.2266507,41.2238119 21.3725942,41.0831733 21.4770416,41.0151528 C21.6004688,40.9727137 22.0221488,40.7772578 22.1817672,40.7468431 C22.3520791,40.6989993 22.519987,40.6429775 22.6849068,40.5789727 C22.8739968,40.5318181 22.9921191,40.4884359 23.1882822,40.4445821 C23.3420062,40.373025 23.4938441,40.3238663 23.6579421,40.2769475 M24.3504075,35.4181369 C24.2555088,35.6936377 24.3784645,35.7628371 24.4293914,35.8817846 C24.5178063,35.9969597 24.7436769,36.1724927 25.1005194,36.284367 C25.2380929,36.3213834 25.3438371,36.3576924 25.5031018,36.4187576 C25.6084924,36.4284243 25.6603624,36.454713 25.7379317,36.4857172 M11.0763861,25.312905 L11.1098659,25.312905 C11.0047111,25.312905 11.0677804,25.3197424 11.2442565,25.1785144 C11.3530657,25.0568555 11.4440741,25.0016846 11.546046,24.8767249 M13.2478557,27.7024646 C13.2702541,27.7024646 15.1997027,26.7299009 15.4057683,26.5224206 C15.5517118,26.4163228 15.6622894,26.3048021 15.8395907,26.1845579 C15.9535869,26.1251431 16.0352823,26.0489884 16.1418517,25.9833256 C16.2302666,25.8548293 16.346149,25.77726 16.4100435,25.6597271 C16.5285194,25.5571659 16.4777104,25.4457631 16.5739058,25.3221002 C16.6191742,25.1953722 16.7041704,24.9819976 16.7318737,24.8658794 M19.1893359,26.3090461 C19.1999457,26.3785991 19.1586854,26.5922095 19.1615147,26.7548928 C19.1547952,26.9435113 18.9121847,27.5262243 18.6188831,27.7003427" id="Shape" stroke="#000000" stroke-width="0.2"></path>
                        <path d="M15.7234725,26.2878265 C15.7347896,26.2878265 16.0284449,26.3833146 16.5192064,26.5342093 C17.1101715,26.7467587 18.3391384,27.5211552 18.4610331,27.6278425 C18.5856391,27.7256883 18.8083267,27.813278 18.8936766,27.9296319 C19.027242,28.0451607 19.1249699,28.1781367 19.2292995,28.2986167 C19.3519014,28.4483326 19.456231,28.5747069 19.5310889,28.701435 C19.9041998,29.0040496 20.9080034,31.0996003 20.9401864,31.2178405 C20.9965362,31.3286538 21.066325,31.4826136 21.1080568,31.5868252 C21.1823253,31.6726466 21.2330165,31.793834 21.3092891,31.9224481 C21.3794316,32.0892576 21.4580619,32.1652944 21.5443548,32.2914329 C21.6554039,32.3687665 21.8051198,32.5154173 21.9469373,32.5934582 C22.0981856,32.7226618 22.2400031,32.7753571 22.3495197,32.8618858 C22.5078413,32.9290811 24.2760211,34.046881 24.3580701,34.1028771 C24.5195746,34.2325523 25.0129297,34.7438261 24.6665791,35.1155222 C24.5196925,35.2413072 24.3871881,35.4078808 24.2618747,35.4788485 C24.1339678,35.6068732 23.9560771,35.6641661 23.8091905,35.7304183 C23.0125134,35.9658377 22.6067481,35.8815488 22.449959,35.8815488 L22.2822065,35.8815488 M11.8178923,22.3350917 C12.0442344,22.4237424 11.9529902,22.3583153 12.156816,22.451092 C12.2938001,22.5112141 12.3839833,22.5126288 12.5187276,22.5619053 C12.6613703,22.6075274 13.0606519,22.6794382 13.2523354,22.8719469 C13.3930919,22.9990285 13.5004865,23.106541 13.6550357,23.1991998 C13.8377598,23.3253384 13.9697927,23.3813345 14.1963706,23.4758795 C14.3875825,23.5474366 14.6013107,23.6267742 14.7946446,23.6336116 C14.9956411,23.6454003 15.0438567,23.635262 15.236719,23.635262 L15.7063789,23.635262 L15.2366012,23.635262 L15.706261,23.635262" id="Shape" stroke="#000000" stroke-width="0.2"></path>
                        <path d="M11.7636645,24.5737566 C12.2668041,24.5402768 13.1055667,24.6912894 13.1223065,24.6912894 L14.2296146,24.6745495 C14.8112666,24.6184356 14.9397629,24.3948049 15.0347794,24.2381337 C15.2528695,23.9027465 15.404,23.7854495 15.5717525,23.5336439 C15.8400622,23.3324116 16.2095185,23.8020715 16.2260227,23.8020715 C17.1655782,24.6912894 16.410515,25.7816218 16.3601775,25.8151016 C15.8906355,26.245741 15.7899604,26.2736801 15.504793,25.999594 C15.2195076,25.6640889 15.1358082,25.5131942 14.9008604,25.3956613 C14.4481762,25.1775713 13.5086206,25.3454417 13.491645,25.3454417 C13.4749051,25.3454417 13.0052452,25.5299341 13.0052452,25.5299341 C12.7758381,25.6138693 12.6303661,25.8152194 12.2335601,25.882179 C11.8309777,25.910236 11.6967049,25.8710977 11.4953548,25.5467919 C11.2270451,25.1274695 11.3609641,24.6240941 11.7639002,24.5738745 L11.7636645,24.5737566 Z" id="Shape" stroke="#000000" stroke-width="0.2" fill="#FFE606"></path>
                        <path d="M38.0334951,4.22418668 C37.959816,4.23856883 37.2955255,4.55756974 37.3070784,4.57831776 C37.3186313,4.59906579 36.7368613,6.17803775 36.7251905,6.15740761 C36.7134019,6.13654169 36.3078723,4.78591591 36.266612,4.80925744 C36.2253517,4.83248109 34.8204981,4.99634334 34.7997501,5.0080141 C34.7790021,5.01956698 35.8595499,3.64996147 35.8595499,3.64996147 L35.71396,2.1803882 L36.8614674,2.62399515 C36.8614674,2.62399515 38.0804139,1.69363479 38.101044,1.68208191 C38.1216742,1.67029326 37.7801569,2.95113022 37.7801569,2.95113022 L38.3952888,3.80297817 C38.3952888,3.80297817 38.0515317,4.15946698 38.0333772,4.22383302 L38.0334951,4.22418668 Z" id="Shape" stroke="#000000" stroke-width="0.2" fill-opacity="0.988" fill="#FFEF00"></path>
                        <path d="M24.2560983,20.4029317 C25.1025234,20.9612423 30.2454405,22.0389608 31.0157109,22.1502456 C31.9911039,22.0579405 33.3596485,22.1805425 34.3878546,22.5213524 C35.3706745,22.9495162 36.373653,22.9306544 37.0452524,22.4180838 C37.9573404,21.916123 38.2891909,21.0600312 38.6997896,20.2957729 C38.8565787,19.8920116 38.8636519,19.4632583 38.6936595,19.1072411 C38.3906912,18.3509991 38.5724722,18.1665067 38.5085777,17.7389323 C39.6178898,15.288779 39.847297,12.4349823 40.1127774,10.3232812 C40.0792976,9.09136715 40.208737,8.1486287 40.3549163,7.7684447 C40.9429342,6.86307627 41.8010301,6.48654675 42.2340273,6.32197718 C43.8337473,5.90795975 45.4334673,5.49441386 47.0331873,5.0806322 C48.2753574,4.62724067 47.4637088,3.78270169 47.2064804,3.85732385 C46.3765594,3.73684383 46.4088603,2.84232097 42.5240281,3.77480329 L40.0271918,3.4565097 C40.0271918,3.4565097 39.5426782,3.06630535 39.4924586,3.09459811 C38.1433653,2.84609334 37.9450802,3.72446575 38.0238284,4.25177212 L38.2089102,5.40588109 C38.2089102,5.40588109 37.7243966,7.13527623 37.7526894,7.18561377 C36.5180639,8.57195917 34.6803311,13.024297 34.5626803,13.8797994 C34.50692,14.6837854 34.2033623,14.5385493 34.2848218,15.320019 C34.2878869,15.9306711 34.2169192,15.5494261 34.420745,16.807511 C34.4704931,17.1862803 34.0075528,17.1570445 33.7419544,17.0476458 C31.4787692,15.6282922 29.3299338,14.7028831 26.9684312,13.4476275 C26.8446503,13.3846761 26.7211053,13.3214889 26.5974423,13.2587733 L22.9679523,16.2265662 L23.6493364,20.148179 C23.8633004,20.2536874 24.0540408,20.3179356 24.2564519,20.4028139 L24.2560983,20.4029317 Z" id="Shape" stroke="#000000" stroke-width="0.2" fill="#FFFFFF"></path>
                        <path d="M43.9124955,5.74963816 C43.8653409,5.76260567 42.3477878,3.93489317 42.3477878,3.93489317 C42.3477878,3.93489317 43.2364163,3.74827882 43.2421928,3.75865284 L44.9916286,5.44230802 L43.9124955,5.74963816 L43.9124955,5.74963816 Z" id="Shape" fill="#FFEC00"></path>
                        <path d="M39.2276854,15.3703565 C37.9624095,15.5646335 36.52219,14.9388919 35.8820662,14.3344877" id="Shape" stroke="#000000" stroke-width="0.2"></path>
                        <path d="M43.9726176,5.81329687 C43.8618043,5.70248355 43.3631443,5.21443339 43.240896,5.05941262 C43.0977995,4.90199003 42.9483528,4.75045896 42.7929273,4.60519589 C42.6387317,4.42718725 42.5300403,4.32226826 42.3744301,4.13459293 C42.2199988,4.00609663 42.0859618,3.86816941 41.9465021,3.71609581 M45.4394795,5.47378372 C45.4070607,5.46977558 45.2063,5.39998676 45.0910069,5.33349877 C44.9879741,5.23683183 44.5918755,4.93150576 44.4800012,4.79440374 C44.3475037,4.65597176 44.208847,4.5235693 44.0644512,4.39759774 C43.9220443,4.24080868 43.8210155,4.14980029 43.6777834,3.98428762 C43.5331367,3.87323853 43.4090022,3.75275851 43.2802701,3.61942887" id="Shape" stroke="#000000" stroke-width="0.2"></path>
                        <path d="M36.3217829,9.51139679 L36.338287,9.54063265 C36.2867706,9.44903483 36.3107016,9.5096285 36.5339786,9.54617331 C36.6766213,9.5235391 37.1496999,9.75164951 37.308493,10.0342235 C37.3999729,10.1627198 37.5324774,10.3639521 37.6091036,10.5005825 C37.6310305,10.5394851 37.6319736,10.6096275 37.6539005,10.6487659 M42.3634667,6.15281003 L42.3469626,6.12357418 C42.3690074,6.1627125 42.3033446,6.04576908 42.2812998,6.00686653 C42.1960678,5.8550287 42.1374782,5.68762985 42.0637992,5.55147093 C41.9816323,5.40529165 41.9408435,5.23553507 41.8586766,5.0893558 C41.7965505,4.92997323 41.6897453,4.75597274 41.625615,4.59104951 C41.5351961,4.41657747 41.4918138,4.26014206 41.3916103,4.08177977 C41.3161629,3.93512895 41.2965937,3.84423845 41.2071179,3.68497377 L41.3916103,4.08189766 C41.3161629,3.93512895 41.2965937,3.84423845 41.2071179,3.68497377 M46.4906735,5.14134375 C46.4590799,5.13851447 46.2650387,5.08039642 46.1544612,5.02251414 C46.056969,4.93574967 45.679968,4.66413914 45.5751669,4.53976887 C45.4499895,4.41478546 45.3189072,4.29585934 45.182369,4.18339794 C45.0485678,4.04169836 44.952844,3.96012089 44.8185712,3.81040502 C44.680644,3.71161612 44.5635827,3.60327841 44.4421596,3.48326994 M39.8666303,5.26040913 C40.1533303,5.20806752 40.1533303,5.06707525 40.2320785,4.96451398 C40.2891356,4.83083067 40.3314569,4.54790304 40.2541233,4.18210119 C40.2189931,4.0439382 40.1987167,3.93395008 40.1739605,3.76525448 C40.1306961,3.66858754 40.1282205,3.61058738 40.1171392,3.52771316 M37.5643067,21.7845617 L37.5478026,21.7553258 C37.5994369,21.8470415 37.574445,21.7886877 37.3650785,21.7041631 C37.2054602,21.6687971 37.1128014,21.6165734 36.9540083,21.5888701 M38.5828462,18.7195123 C38.5718828,18.6999432 36.7785931,17.4946715 36.4966086,17.4168664 C36.3327463,17.3416548 36.1813801,17.3001587 35.9896966,17.2041991 C35.8819483,17.1341745 35.7754968,17.100459 35.6659802,17.0395116 C35.5106058,17.0251295 35.3863534,16.9621781 35.2525522,16.9640643 C35.1049583,16.9110153 35.0328118,17.01004 34.8779089,16.9869343 C34.7452866,17.0093327 34.5176477,17.0399832 34.4028262,17.0726377 M34.4568183,14.2233207 C34.5122249,14.1801743 34.7187621,14.1113285 34.8591649,14.0290438 C35.0267995,13.9423972 35.65372,13.8683644 35.9490257,14.0387104" id="Shape" stroke="#000000" stroke-width="0.2"></path>
                        <path d="M36.1367011,17.2553618 C36.1311604,17.2454594 36.0704488,16.9427268 35.9615217,16.440766 C35.8570743,15.8216261 35.9299281,14.3709146 35.9630542,14.2122394 C35.9874567,14.0556861 35.9545664,13.8184984 36.0140991,13.6871729 C36.0492293,13.5143512 36.1173677,13.3638102 36.1713597,13.2138585 C36.2416201,13.0337279 36.3006812,12.8807112 36.3744782,12.7533938 C36.4553483,12.2798437 37.7900594,10.3779806 37.8775312,10.2919234 C37.9529096,10.1797328 38.0327432,10.0706006 38.1168408,9.96478832 C38.1551539,9.85786525 38.2359062,9.75447878 38.3107641,9.62480362 C38.4215775,9.48216094 38.4495166,9.37629885 38.5173013,9.23931472 C38.5302688,9.10457044 38.5844966,8.90215929 38.583082,8.74030111 C38.6217488,8.54508104 38.5980536,8.39560095 38.6198626,8.25767373 C38.6010007,8.08673828 38.7086311,5.9975535 38.7172368,5.8987646 C38.7511882,5.6942315 38.9550139,5.01379054 39.4488405,5.13344535 C39.6303858,5.20005123 39.8402238,5.23388466 39.9637688,5.30838894 C40.1382409,5.35707607 40.275225,5.48403984 40.4050181,5.57952792 C41.0005807,6.15870436 41.1258941,6.55374206 41.2026382,6.69037253 L41.284923,6.83655181 M34.5959243,22.5296044 L34.5794202,22.5003686 C34.6238634,22.5793525 34.5994609,22.5399785 34.5428754,22.3669211 C34.5281396,22.2180304 34.4821639,22.0167981 34.4589402,21.8753343 C34.4288792,21.7283298 34.3599155,21.560931 34.3787774,21.4584876 C34.3260821,21.3092433 34.3592082,21.1861697 34.3733546,21.0381043 C34.4150864,20.8532582 34.4339483,20.719457 34.4391353,20.5392086 C34.4594118,20.3181713 34.4431434,20.1613823 34.4556394,19.9524874 C34.3974035,19.7803731 34.3856148,19.6363157 34.2967284,19.4644372 C34.2177444,19.3001034 34.1573865,19.1480298 34.0628415,18.9799236 L33.8326092,18.5705038 L34.0628415,18.9800415 L33.8326092,18.5706217" id="Shape" stroke="#000000" stroke-width="0.2"></path>
                        <path d="M36.583491,21.5464309 C36.3076365,21.1243972 36.0282455,20.3192323 36.0199934,20.3044965 L35.4627439,19.3474938 C35.1287714,18.8679315 34.8709536,18.8655737 34.6877579,18.8594436 C34.2884763,18.8337444 34.1120002,18.7597116 33.8104465,18.7368417 C33.50347,18.6015079 33.7319341,18.0495633 33.723682,18.0348275 C34.038439,16.7802792 35.358768,16.9039421 35.41276,16.9314097 C36.018343,17.1296948 36.0920221,17.2037275 35.9927616,17.5866229 C35.8402165,17.9998152 35.7499154,18.1465839 35.7624114,18.4089993 C35.7942407,18.9107243 36.4010026,19.6473971 36.4093726,19.6621329 C36.4176246,19.6767508 36.8085363,19.9957517 36.8085363,19.9957517 C36.9940897,20.1545449 37.240944,20.1826019 37.4936927,20.4958263 C37.7155551,20.8329817 37.7471487,20.9692586 37.5632458,21.3035847 C37.3291231,21.7430656 36.8246868,21.8729766 36.5833731,21.5464309 L36.583491,21.5464309 Z" id="Shape" stroke="#000000" stroke-width="0.2" fill="#FFE606"></path>
                        <path d="M5.43103676,9.88391817 C5.48337837,9.93779231 6.1141891,10.3189194 6.12515255,10.2976998 C6.136116,10.2764803 7.77603528,9.89841822 7.76495395,9.9195199 C7.75387262,9.94062159 6.84626435,11.0197547 6.88846772,11.0415637 C6.93043532,11.0634906 7.83710049,12.1489896 7.85820218,12.1599531 C7.87942175,12.1707986 6.14142089,12.0170746 6.14142089,12.0170746 L4.99202738,12.9436626 L4.73444535,11.7408665 C4.73444535,11.7408665 3.28844938,11.2306537 3.2673477,11.2198081 C3.2463639,11.2088447 4.50480243,10.793059 4.50480243,10.793059 L4.88062463,9.81177163 C4.88062463,9.81177163 5.36726016,9.90419465 5.43115465,9.88391817 L5.43103676,9.88391817 Z" id="Shape" stroke="#000000" stroke-width="0.2" fill-opacity="0.988" fill="#FFEF00"></path>
                        <path d="M26.5110315,12.5463851 C26.5145681,11.5325611 24.5989123,6.63956345 24.2700089,5.93413055 C23.6585315,5.16881131 23.0114525,3.95670218 22.7333582,2.90986994 C22.5533455,1.85325313 21.9880796,1.02439305 21.1914026,0.743351604 C20.2718878,0.255301439 19.3738283,0.44663125 18.5094844,0.521724959 C18.0856824,0.611790255 17.7231814,0.840725863 17.5184125,1.17788129 C17.0515819,1.84547262 16.7981259,1.79442775 16.4751169,2.08230662 C13.8174833,2.49644194 11.3043786,3.86781575 9.39225937,4.80242002 C8.37985,5.50525942 7.52045732,5.91350041 7.12223668,5.99943968 C6.04286776,6.00332993 5.25774359,5.49182035 4.88274659,5.21985617 L1.21553294,1.88484671 C0.155733183,1.09382821 -0.10621065,2.23555909 0.097261472,2.40991324 C0.450921012,3.17028125 -0.314869778,3.63298581 2.59315473,6.37243261 L3.69468631,8.6355 C3.69468631,8.6355 3.63362109,9.25440419 3.68478384,9.28092866 C4.2157447,10.5458509 5.05934058,10.2306224 5.45732545,9.875784 L6.32143359,9.08877364 C6.32143359,9.08877364 8.0337352,8.54684934 8.06025966,8.49580448 C9.89645999,8.76906542 14.6279531,7.86770514 15.408126,7.49730572 C16.1113191,7.10356476 16.156116,7.43718359 16.7652356,6.94088137 C17.2745053,6.60396172 16.9944069,6.87227142 17.9352592,6.01264297 C18.2250243,5.76354877 18.4539599,6.16683853 18.5081877,6.44882307 C18.5604114,9.1197778 18.9632296,11.4244591 19.2066653,14.0876333 C19.2219905,14.2255606 19.2369621,14.3634878 19.2520516,14.501415 C20.7421371,14.9717822 22.232812,15.4419136 23.7230155,15.9121629 C24.6920426,15.0060872 25.6615413,14.0998935 26.6305684,13.1936999 C26.6018041,12.9571017 26.550995,12.7622353 26.5112673,12.546503 L26.5110315,12.5463851 Z" id="Shape" stroke="#000000" stroke-width="0.2" fill="#FFFFFF"></path>
                        <path d="M3.48531986,4.1286986 C3.52186468,4.16111739 2.82421229,6.43184741 2.82421229,6.43184741 C2.82421229,6.43184741 2.18114137,5.79054478 2.18668203,5.77993499 L2.63700851,3.39426563 L3.48520197,4.1286986 L3.48531986,4.1286986 Z" id="Shape" fill="#FFEC00"></path>
                        <path d="M14.1001752,2.77830859 C14.9557955,3.73047796 15.2212759,5.27809211 15.0661373,6.14467586" id="Shape" stroke="#000000" stroke-width="0.2"></path>
                        <path d="M3.50653943,4.04535284 C3.47471007,4.19884108 3.33961213,4.88329017 3.27666073,5.07049396 C3.22338806,5.27638594 3.17847579,5.48435098 3.14203433,5.69387784 C3.07755041,5.9205736 3.04949342,6.06875695 2.97770053,6.30193647 C2.95483055,6.50163623 2.91286295,6.68907578 2.86193598,6.88901131 M2.41939001,3.00406127 C2.43353639,3.03353289 2.4850528,3.23959852 2.49271542,3.37245662 C2.4684308,3.51156271 2.42964613,4.01022266 2.37636143,4.17880037 C2.33311087,4.36552611 2.29826001,4.55409837 2.27191398,4.74394831 C2.21886505,4.94871719 2.19788125,5.08346147 2.13775913,5.29365312 C2.12408429,5.47555201 2.09131184,5.64542648 2.05052311,5.8261465" id="Shape" stroke="#000000" stroke-width="0.2"></path>
                        <path d="M10.7892146,8.41941402 L10.8045398,8.38970662 C10.7562063,8.48283697 10.79393,8.42978803 10.7022143,8.2228972 C10.6049579,8.11585625 10.5368195,7.59515152 10.6861817,7.30739054 C10.7434746,7.16073972 10.8394342,6.93958462 10.9115808,6.80047854 C10.932093,6.76098655 10.9902111,6.72173035 11.0108412,6.68200259 M4.67161184,5.20582767 L4.6562866,5.23553507 L4.59439618,5.35460045 C4.51423335,5.50903178 4.4062493,5.64955251 4.33268812,5.78571143 C4.25547245,5.9346021 4.13581764,6.06156587 4.05860197,6.21057442 C3.95934153,6.34991628 3.87234128,6.53476234 3.76930847,6.67858388 C3.67299519,6.84987299 3.56583635,6.97188553 3.47164502,7.15331287 C3.39030333,7.29678076 3.3249942,7.36315086 3.24082323,7.52500905 L3.4718808,7.15331287 C3.39030333,7.29678076 3.3249942,7.36315086 3.24082323,7.52500905 M1.56412336,2.30570156 C1.57909494,2.33364067 1.63674145,2.52791764 1.64900164,2.65205214 C1.62978614,2.78113787 1.60892023,3.24549285 1.56235506,3.40110304 C1.52722488,3.57439622 1.49751748,3.75004712 1.47948084,3.92499071 C1.43421242,4.11443433 1.41817985,4.23927615 1.36666345,4.43355312 C1.35959025,4.60307393 1.33306579,4.76045243 1.29911447,4.92773339 M5.29216645,7.78318051 C5.09140572,7.57180999 4.97328343,7.64914354 4.8441977,7.63935896 C4.70155502,7.66494034 4.44149737,7.78435937 4.17778524,8.04960403 C4.08170773,8.15452303 4.0007197,8.23185658 3.87316649,8.34502763 C3.81599153,8.43414984 3.76871904,8.46798326 3.70553187,8.52256472 M20.3766889,0.657530222 L20.3613637,0.687237623 C20.4096971,0.593871505 20.3745669,0.646802549 20.4185386,0.868311308 C20.476303,1.02109223 20.4833762,1.12730798 20.5472707,1.27537344 M17.2559971,1.48332525 C17.2456231,1.50336595 17.2194523,3.66363631 17.3090461,3.94220214 C17.3356884,4.12056443 17.383904,4.26992664 17.408778,4.48294757 C17.4090138,4.61144387 17.4390749,4.71895637 17.44827,4.8436803 C17.5213597,4.98160752 17.5369207,5.12012418 17.6117786,5.23105539 C17.6483234,5.38360053 17.7705718,5.38973063 17.8361167,5.53201965 C17.9275966,5.63069067 18.077784,5.8043375 18.1679672,5.88249626 M15.7545945,7.3986347 C15.6882244,7.37600049 15.5176426,7.24066678 15.371817,7.16840234 C15.2073653,7.07562566 14.8020715,6.59193729 14.7827381,6.25124527" id="Shape" stroke="#000000" stroke-width="0.2"></path>
                        <path d="M17.3711722,4.33169918 C17.3659852,4.34171953 17.146009,4.55839494 16.7856299,4.92443257 C16.3246937,5.35094597 15.0713243,6.08478951 14.9204295,6.14385066 C14.7761364,6.20927767 14.5957701,6.36665617 14.4532453,6.38870095 C14.289383,6.45412796 14.1261102,6.47970933 13.9710894,6.51660781 C13.7818816,6.55668923 13.6215559,6.59087632 13.4745514,6.59912837 C13.0340095,6.79069396 10.7117631,6.71607179 10.5919904,6.68990099 C10.4568245,6.68828725 10.3217765,6.68128709 10.1871681,6.66891719 C10.0768264,6.69544165 9.94597233,6.68424243 9.79661012,6.69296604 C9.61624375,6.678466 9.51250362,6.71300674 9.36078368,6.73151493 C9.24112887,6.79458421 9.04201854,6.86001123 8.90727426,6.94960498 C8.72266398,7.02434502 8.61067179,7.12608109 8.48335436,7.18337393 C8.35073203,7.29277262 6.54388544,8.34714959 6.45653154,8.39406842 C6.26697002,8.47776785 5.58605752,8.67994322 5.41559363,8.20120609 C5.37173984,8.01294132 5.28509326,7.81878224 5.27978836,7.67460703 C5.22497113,7.50213906 5.25621106,7.31788244 5.26505255,7.15708524 C5.42325625,6.34131057 5.6850822,6.02030559 5.75722874,5.88119951 L5.83456229,5.73230884 M22.6259636,2.73221497 L22.6106383,2.76204025 C22.6522523,2.68152377 22.632801,2.72372714 22.5189226,2.86578039 C22.4025686,2.95961805 22.2592186,3.10827294 22.1534744,3.20529354 C22.0471408,3.31091986 21.9448153,3.46016419 21.8489736,3.50059926 C21.7530139,3.62650206 21.6317087,3.66622981 21.5002653,3.73542919 C21.3227282,3.8017993 21.2004799,3.85921003 21.0468737,3.95351924 C20.8507106,4.05784881 20.7285801,4.15746291 20.5470349,4.26120304 C20.4350427,4.40419938 20.3209286,4.49308581 20.2257942,4.66142775 C20.131485,4.8175095 20.0375294,4.95142858 19.9487609,5.12236402 L19.7322033,5.53932862 L19.9487609,5.12236402 L19.7322033,5.53932862 M21.1173699,14.1594262 L21.148374,14.0997757 C21.0911991,14.2099995 21.1112398,14.1811174 21.1648781,13.9950924 C21.1654676,13.7720512 21.2183986,13.5023268 21.2206384,13.3054563 C21.2542361,13.0972688 21.2883053,12.8722234 21.2904273,12.6613244 C21.2778134,12.4144701 21.2781671,12.193315 21.2412686,11.9551842 C21.2384393,11.736269 21.2129758,11.5091016 21.2063742,11.2944303 C21.2022481,11.0818809 21.1863335,10.8995105 21.1403577,10.6932091 C21.1359959,10.5387778 21.1264471,10.326582 21.0888413,10.1372563 C21.108882,9.98789408 21.0664429,9.85055629 21.0348493,9.73113725 C20.9770849,9.50125855 20.9546865,9.36686793 20.8939749,9.12873717 C20.8574301,9.00094819 20.8214747,8.83779326 20.7664217,8.64658133 C20.746381,8.46538976 20.6494783,8.23008828 20.6101042,8.07388865 C20.5562301,7.95906719 20.5018844,7.80345699 20.4810185,7.66682652 C20.4246687,7.54068795 20.3442701,7.38684605 20.3224611,7.24420337 C20.2630463,7.13527623 20.1998591,6.9659912 20.1340785,6.80590132 C20.0774929,6.67433997 20.0357611,6.5123639 19.9755211,6.38339605 C19.9145738,6.22071266 19.8403053,6.08160658 19.8024637,5.9153866 C19.7443456,5.85927262 19.7311424,5.79750008 19.6999024,5.74893084" id="Shape" stroke="#000000" stroke-width="0.2"></path>
                        <path d="M20.7151411,1.60828495 C20.5130836,2.07040008 19.9924968,2.74518248 19.9848341,2.76003618 L19.489475,3.75051867 C19.271385,4.29256086 19.410491,4.50970781 19.5056255,4.66614322 C19.7028496,5.0141442 19.7375082,5.20229108 19.8834517,5.46718207 C19.9385047,5.79808951 19.3515478,5.9092565 19.3437673,5.92422808 C18.1217557,6.34814799 17.5020263,5.17564873 17.4953067,5.1155266 C17.3295583,4.50039478 17.3512494,4.39818717 17.7258928,4.27145917 C18.1549997,4.17278816 18.3275855,4.16795481 18.5401349,4.01364137 C18.9423637,3.71220555 19.2262344,2.80106069 19.2341328,2.7860891 C19.2417954,2.7712354 19.2944907,2.26939252 19.2944907,2.26939252 C19.3258485,2.02701785 19.2139742,1.80515543 19.3375193,1.42202426 C19.4981986,1.05186061 19.5947477,0.95071398 19.9752853,0.921478125 C20.4712339,0.87668125 20.8561333,1.22751151 20.7151411,1.60816706 L20.7151411,1.60828495 Z" id="Shape" stroke="#000000" stroke-width="0.2" fill="#FFE606"></path>
                        <path d="M19.1115308,13.5360424 C18.9269206,13.3684077 22.5842317,14.8610868 23.0873714,14.8781803 C23.7753571,14.6266105 26.6105277,12.2276199 26.6105277,12.2276199 C26.6384668,12.4625678 26.739024,13.072041 27.0129923,13.2007731 C25.9171192,14.0899911 24.9216855,14.9454935 23.8256946,15.8343578 C23.9038534,17.2436911 23.6465071,18.7367238 24.362314,20.3138095 C24.362314,20.3138095 23.5069295,20.3303137 23.5069295,20.3138095 C22.7519843,19.5588643 22.4834388,15.9185288 22.4834388,15.9185288 C21.2812321,15.3815557 20.0787897,14.8615583 18.876583,14.3247031 C19.0498762,14.2127109 19.1896896,13.8661246 19.111413,13.5360424 L19.1115308,13.5360424 Z" id="Shape" stroke="#000000" stroke-width="0.2" fill-opacity="0.987" fill="#FFEF00"></path>
                        <path d="M22.5915407,17.2671505 C22.6500124,17.2247113 21.9318478,17.6007693 21.7474733,17.6950785 C18.424724,19.4676201 16.714898,22.0457982 16.6083286,22.1431725 C16.5509179,22.2530427 16.4451737,22.3994577 16.3485067,22.5430435 C16.2707016,22.6632877 16.1587095,22.7877759 16.0851483,22.9094348 C15.9832943,23.0504271 15.7692124,23.328875 15.6525048,23.4524201 C15.6378868,23.5321113 15.7079114,23.4253062 15.6850414,23.4783551 M24.862035,15.1605185 C24.797551,15.1278639 25.4605448,15.5945766 25.6288867,15.7154103 C28.7245866,17.8594123 31.7995384,18.2006938 31.9348721,18.2507956 C32.0586529,18.2516208 32.2373689,18.2786168 32.4091295,18.299129 C32.5517722,18.3132754 32.7136304,18.3557146 32.8555657,18.3654991 C33.0274443,18.3914342 33.3730875,18.4543856 33.5363604,18.5018938 C33.6136939,18.4783165 33.486848,18.4651132 33.5442588,18.4611051" id="Shape" stroke="#000000" stroke-width="0.2"></path>
                    </g>
                </g>
            </g>
        </g>
    </g>
</svg>