<?xml version="1.0" encoding="UTF-8" standalone="no"?>
<svg width="122px" height="60px" viewBox="0 0 122 60" version="1.1" xmlns="http://www.w3.org/2000/svg" xmlns:xlink="http://www.w3.org/1999/xlink">
    <!-- Generator: Sketch 3.8.2 (29753) - http://www.bohemiancoding.com/sketch -->
    <title>ec</title>
    <desc>Created with Sketch.</desc>
    <defs></defs>
    <g id="Page-1" stroke="none" stroke-width="1" fill="none" fill-rule="evenodd">
        <g id="ec">
            <g id="Group">
                <g>
                    <g id="Shape">
                        <polygon fill="#FFE800" points="0 0 122 0 122 60 0 60"></polygon>
                        <polygon fill="#00148E" points="0 30 122 30 122 60 0 60"></polygon>
                        <polygon fill="#DA0010" points="0 45 122 45 122 60 0 60"></polygon>
                    </g>
                    <g transform="translate(43.500000, 36.125000)" id="Shape">
                        <path d="M11.19375,0.22925 L2.14075,9.789875 L1.981125,9.584375 L11.033875,0.02375 L11.1935,0.22925 L11.19375,0.22925 Z M17.50025,1.79175 L5.653125,14.28025 L5.445375,14.08375 L17.2925,1.595 L17.50025,1.79175 L17.50025,1.79175 Z" fill="#000000"></path>
                        <polygon stroke="#000000" stroke-width="0.500957042" fill="#808080" transform="translate(4.427939, 15.088389) rotate(225.000000) translate(-4.427939, -15.088389) " points="4.20870206 13.5224654 4.20870206 15.0884064 4.45870206 16.6543297 4.70870206 15.0883887 4.70870206 13.5224478 4.20870206 13.5224478"></polygon>
                        <polygon stroke="#000000" stroke-width="0.500957042" fill="#808080" transform="translate(1.372939, 10.209639) rotate(225.000000) translate(-1.372939, -10.209639) " points="1.15370206 8.64371543 1.15370206 10.2096564 1.40370206 11.7755797 1.65370206 10.2096387 1.65370206 8.64369775 1.15370206 8.64369775"></polygon>
                    </g>
                    <path d="M46.987625,14.3572 C46.987625,14.3572 45.9911,41.286 49.9773125,41.286 C53.963525,41.286 55.9566875,38.45136 55.9566875,38.45136 L55.9083125,23.64896 L46.987625,14.35696 L46.987625,14.3572 Z" id="Shape" stroke="#000000" stroke-width="0.1" fill="#FFDF00"></path>
                    <path d="M49.422125,16.866 C49.422125,18.28336 48.9807875,38.4516 50.9738938,38.4516 C52.967,38.4516 55.9566875,37.03424 55.9566875,37.03424 L55.9083125,23.64944 L49.422125,16.86624 L49.422125,16.866 Z" id="Shape" stroke="#000000" stroke-width="0.1" fill="#0000C4"></path>
                    <path d="M50.71925,18.2228 C50.71925,19.64016 50.9737813,35.6164 52.9668875,35.6164 L55.956575,35.6164 L55.9082,23.6492 L50.71925,18.22256 L50.71925,18.2228 Z" id="Shape" stroke="#000000" stroke-width="0.1" fill="#E10000"></path>
                    <polygon id="Shape" fill="#000000" points="46.77525 14.5025 55.828 24.063125 55.987625 23.857875 46.934875 14.29725 46.775375 14.5025"></polygon>
                    <path d="M44.0393,19.8726 C44.0393,19.8726 41.4704075,45.959875 49.177085,45.959875 C55.5993525,45.959875 55.5993525,41.84075 56.883835,41.84075 L55.599135,32.2292 L44.03901,19.8726 L44.0393,19.8726 Z" id="Shape" stroke="#000000" stroke-width="0.1" fill="#FFDF00"></path>
                    <g transform="translate(46.750000, 15.375000)" id="Shape" stroke="#000000">
                        <path d="M4.10355501,8.6367273 C4.16036411,8.6367273 5.52343164,4.48176785 10.0672575,2.1291352" stroke-width="0.1" transform="translate(7.085406, 5.382931) rotate(-4.289153) translate(-7.085406, -5.382931) "></path>
                        <path d="M2.9356575,5.17250169 C2.9356575,5.92288809 2.78679151,6.48498473 2.56640987,7.04753658 C2.38299211,6.29748124 2.27109,5.92288809 2.27109,5.17250169 C2.27109,4.4221153 2.49372077,3.71940139 2.67717112,3.15689092 C2.74986023,3.67251517 2.9356575,4.4221153 2.9356575,5.17250169 L2.9356575,5.17250169 Z" stroke-width="0.1" fill="#005B00" transform="translate(2.603374, 5.102214) rotate(-57.528808) translate(-2.603374, -5.102214) "></path>
                        <path stroke-width="0.5" fill="#FF0000" transform="translate(4.364051, 7.541244) rotate(-29.054604) translate(-4.364051, -7.541244) "></path>
                        <path d="M6.7600368,2.01064175 C6.7600368,2.81457501 6.63653765,3.41678233 6.45370916,4.01947735 C6.30154588,3.21589877 6.20871195,2.81457501 6.20871195,2.01064175 C6.20871195,1.20670849 6.39340632,0.453849581 6.54559664,-0.148801098 C6.60589948,0.403617607 6.7600368,1.20670849 6.7600368,2.01064175 L6.7600368,2.01064175 Z" stroke-width="0.1" fill="#005B00" transform="translate(6.484374, 1.935338) rotate(33.690068) translate(-6.484374, -1.935338) "></path>
                        <path stroke-width="0.5" fill="#005B00" transform="translate(5.483836, 2.082038) rotate(-10.007980) translate(-5.483836, -2.082038) "></path>
                        <path d="M6.62697053,2.660592 C6.62697053,3.25555408 6.48019903,3.70122606 6.26291806,4.14725895 C6.08208091,3.55255936 5.97175322,3.25555408 5.97175322,2.660592 C5.97175322,2.06562993 6.19125166,1.50846613 6.37212095,1.06246605 C6.44378735,1.47129126 6.62697053,2.06562993 6.62697053,2.660592 L6.62697053,2.660592 Z" stroke-width="0.1" fill="#005B00" transform="translate(6.299362, 2.604862) rotate(76.504267) translate(-6.299362, -2.604862) "></path>
                        <path d="M3.12292483,3.88616355 C3.12292483,4.59427983 2.96145699,5.12471294 2.72241955,5.65557561 C2.52347505,4.94777173 2.40210017,4.59427983 2.40210017,3.88616355 C2.40210017,3.17804726 2.64357714,2.51491801 2.84255699,1.98409439 C2.92139939,2.47067295 3.12292483,3.17804726 3.12292483,3.88616355 L3.12292483,3.88616355 Z" stroke-width="0.1" fill="#005B00" transform="translate(2.762512, 3.819835) rotate(-45.000000) translate(-2.762512, -3.819835) "></path>
                        <path d="M2.21174668,8.09874567 C2.21174668,8.82441974 2.03413207,9.36800497 1.77119088,9.91203041 C1.55235193,9.18667649 1.41883957,8.82441974 1.41883957,8.09874567 C1.41883957,7.37307159 1.68446423,6.69350001 1.90334206,6.14951459 C1.99006871,6.64815789 2.21174668,7.37307159 2.21174668,8.09874567 L2.21174668,8.09874567 Z" stroke-width="0.1" fill="#005B00" transform="translate(1.815293, 8.030772) rotate(-45.000000) translate(-1.815293, -8.030772) "></path>
                        <path d="M4.86632248,7.42129808 C4.86632248,8.27662998 4.7072951,8.91733881 4.47187052,9.55856651 C4.27593292,8.70361197 4.15639252,8.27662998 4.15639252,7.42129808 C4.15639252,6.56596619 4.39421975,5.76497402 4.59019218,5.12379349 C4.66784294,5.71153051 4.86632248,6.56596619 4.86632248,7.42129808 L4.86632248,7.42129808 Z" stroke-width="0.1" fill="#005B00" transform="translate(4.511358, 7.341180) rotate(21.037511) translate(-4.511358, -7.341180) "></path>
                        <path d="M5.4716325,7.29989601 C5.4716325,8.18009395 5.32891375,8.83942933 5.1176325,9.49929867 C4.94178875,8.61948907 4.8345075,8.18009395 4.8345075,7.29989601 C4.8345075,6.41969808 5.047945,5.59541963 5.22382,4.93559883 C5.2935075,5.54042242 5.4716325,6.41969808 5.4716325,7.29989601 L5.4716325,7.29989601 Z" stroke-width="0.1" fill="#005B00" transform="translate(5.153070, 7.217449) rotate(53.130102) translate(-5.153070, -7.217449) "></path>
                        <path stroke-width="0.5" fill="#005B00" transform="translate(10.082206, 2.154190) rotate(51.340192) translate(-10.082206, -2.154190) "></path>
                        <path d="M9.713865,1.24430125 C9.713865,1.6296275 9.56035036,1.91826625 9.33308685,2.20713875 C9.14394149,1.8219825 9.028545,1.6296275 9.028545,1.24430125 C9.028545,0.858975 9.25812787,0.49812875 9.44730685,0.2092775 C9.52226582,0.4740525 9.713865,0.858975 9.713865,1.24430125 L9.713865,1.24430125 Z" stroke-width="0.1" fill="#005B00" transform="translate(9.371205, 1.208208) scale(-1, 1) translate(-9.371205, -1.208208) "></path>
                        <path stroke-width="0.5" fill="#005B00" transform="translate(10.557946, 1.741575) rotate(90.000000) translate(-10.557946, -1.741575) "></path>
                        <path stroke-width="0.5" fill="#005B00" transform="translate(6.122337, 3.801722) rotate(55.007980) translate(-6.122337, -3.801722) "></path>
                        <path d="M8.044532,4.22737872 C8.044532,5.10201406 7.89865137,5.75718264 7.68268927,6.41288181 C7.50294978,5.53863234 7.39329175,5.10201406 7.39329175,4.22737872 C7.39329175,3.35274337 7.61145787,2.53367412 7.79122931,1.87802319 C7.86246071,2.47902448 8.044532,3.35274337 8.044532,4.22737872 L8.044532,4.22737872 Z" stroke-width="0.1" fill="#005B00" transform="translate(7.718912, 4.145452) rotate(59.420773) translate(-7.718912, -4.145452) "></path>
                        <path d="M1.04799707,10.6135588 C1.10508794,10.6135588 2.47491592,6.93460091 7.04127793,4.85149117" stroke-width="0.1" transform="translate(4.044638, 7.732525) rotate(-29.744881) translate(-4.044638, -7.732525) "></path>
                        <path stroke-width="0.5" fill="#FF0000" transform="translate(7.205301, 3.533744) rotate(-29.054604) translate(-7.205301, -3.533744) "></path>
                        <path stroke-width="0.5" fill="#FF0000" transform="translate(8.552801, 2.738744) rotate(-29.054604) translate(-8.552801, -2.738744) "></path>
                        <path stroke-width="0.5" fill="#FF0000" transform="translate(4.763163, 5.390144) rotate(-26.565051) translate(-4.763163, -5.390144) "></path>
                        <path stroke-width="0.5" fill="#FF0000" transform="translate(5.153162, 5.220144) rotate(-26.565051) translate(-5.153162, -5.220144) "></path>
                        <path stroke-width="0.5" fill="#FF0000" transform="translate(4.929412, 5.583894) rotate(-26.565051) translate(-4.929412, -5.583894) "></path>
                        <path stroke-width="0.22361" fill="#FF0000"></path>
                        <path stroke-width="0.22361" fill="#FF0000"></path>
                        <path stroke-width="0.22361" fill="#FF0000"></path>
                    </g>
                    <path d="M46.607975,22.618425 C46.607975,23.9914925 44.0390825,39.094925 50.46135,43.21405 C53.0302425,44.58704 56.883545,41.8409825 56.883545,43.21405 L55.59957,32.2292 L46.60812,22.618425 L46.607975,22.618425 Z" id="Shape" stroke="#000000" stroke-width="0.1" fill="#0000C4"></path>
                    <path d="M49.177375,25.36425 C49.177375,26.7373175 47.892965,37.721625 51.7462675,40.46745 C54.31516,43.2135075 60.7377175,42.468655 60.7377175,42.468655 L55.5996425,32.229355 L49.1775925,25.364405 L49.177375,25.36425 Z" id="Shape" stroke="#000000" stroke-width="0.1" fill="#E10000"></path>
                    <polygon id="Shape" fill="#000000" points="43.98125 19.76 55.828125 32.24875 56.035875 32.052125 44.188875 19.563375 43.981375 19.760125"></polygon>
                    <path d="M42.8687808,17.7847719 L43.3072294,18.4111448 L43.3072294,18.72434 C43.2858218,18.7012707 43.3072294,19.0375176 42.8687808,19.0375176 C42.4303074,19.0375176 42.4303074,18.4111448 42.4303074,18.4111448 C42.4303074,18.4111448 41.9918588,19.0375176 41.9918588,19.6638905 C41.9918588,20.2902634 42.4303074,20.6034586 42.4303074,20.6034586 C42.4303074,20.6034586 42.3657132,19.9546175 42.8687808,19.9770681 C43.3718731,19.9995187 43.3072294,20.2902457 43.3072294,20.2902457 L43.3072294,20.9166186 L43.7457028,20.9166186 L43.7457028,18.4111624 L44.1841762,17.7847896 L43.5125945,16.8452214 L42.8687808,17.7847896 L42.8687808,17.7847719 Z" id="Shape" stroke="#000000" stroke-width="0.1" fill="#CECECC" transform="translate(43.088018, 18.880920) rotate(-45.000000) translate(-43.088018, -18.880920) "></path>
                    <polygon id="Shape" stroke="#000000" stroke-width="0.1" fill="#CECECC" transform="translate(45.604081, 14.231175) rotate(-57.994617) translate(-45.604081, -14.231175) " points="45.598126 12.1356486 44.9772993 13.659658 45.3951539 14.802692 44.5594683 14.421695 45.3951775 15.564686 45.3951775 16.3267014 45.8130086 16.3267014 45.8130086 15.5647505 46.6486942 14.4217165 45.8130086 14.802735 46.2308632 13.659701"></polygon>
                    <path d="M47.59525,13.861 C47.59525,13.93855 47.49735,14.001475 47.37675,14.001475 C47.2561,14.001475 47.15815,13.93855 47.15815,13.861 C47.15815,13.78345 47.25615,13.7204875 47.37665,13.7204875 C47.49735,13.7204875 47.59525,13.7834875 47.59525,13.861 L47.59525,13.861 Z M47.28305,14.157625 C47.28305,15.500125 48.3289,21.2005 48.41215,21.341125 C48.41915,21.507625 48.17625,21.58045 48.0583,21.372325 C47.7308,20.722 47.02115,15.3757 46.9917,14.126575 C46.9795,13.61155 47.1797,13.571575 47.408,13.5802 C47.596,13.588075 47.82425,13.7198875 47.82425,13.876825 C47.82425,14.0641375 47.53275,14.204575 47.28305,14.157775 L47.28305,14.157625 Z" id="Shape" stroke="#000000" stroke-width="0.1" fill="#E10000"></path>
                    <path d="M46.3404718,15.0003911 C46.3404718,15.0870946 46.2443003,15.1574469 46.1258296,15.1574469 C46.0073098,15.1574469 45.9110892,15.0870946 45.9110892,15.0003911 C45.9110892,14.9136876 46.0073589,14.8432934 46.1257314,14.8432934 C46.2443003,14.8432934 46.3404718,14.9137295 46.3404718,15.0003911 L46.3404718,15.0003911 Z M46.033784,15.3320279 C47.5803866,17.9068882 48.4268725,22.3240727 48.5086527,22.4812963 C48.5155291,22.6674489 48.2769177,22.7488698 48.1610502,22.5161789 C48.0392395,22.3771933 47.5388826,18.3160048 45.7475289,15.297313 C45.7355443,14.7214975 45.9322096,14.6768041 46.1564788,14.6864472 C46.3411595,14.6952517 46.5653795,14.8426225 46.5653795,15.018084 C46.5653795,15.2275057 46.2790262,15.3845196 46.0337349,15.3321956 L46.033784,15.3320279 Z" id="Shape" stroke="#000000" stroke-width="0.1" fill="#0000C4" transform="translate(47.127903, 18.672074) rotate(14.743563) translate(-47.127903, -18.672074) "></path>
                    <path d="M44.331875,18.9425 C44.331875,19.07175 44.2095,19.176625 44.05875,19.176625 C43.907875,19.176625 43.7855,19.07175 43.7855,18.9425 C43.7855,18.81325 43.908,18.708375 44.058625,18.708375 C44.2095,18.708375 44.331875,18.813375 44.331875,18.9425 L44.331875,18.9425 Z M43.941625,19.436875 C43.941625,21.674375 45.248875,31.175 45.353,31.409375 C45.36175,31.686875 45.058125,31.80825 44.910625,31.461375 C44.50125,30.3775 43.61425,21.467 43.577375,19.385125 C43.562125,18.52675 43.812375,18.460125 44.09775,18.4745 C44.33275,18.487625 44.618125,18.707375 44.618125,18.968875 C44.618125,19.281125 44.25375,19.515125 43.941625,19.437125 L43.941625,19.436875 Z" id="Shape" stroke="#000000" stroke-width="0.1" fill="#E10000"></path>
                    <path d="M42.7763072,19.9502577 C42.7763072,20.0846777 42.6532245,20.1937477 42.5016027,20.1937477 C42.349918,20.1937477 42.2267724,20.0846777 42.2267724,19.9502577 C42.2267724,19.8158377 42.3499808,19.7067027 42.5014769,19.7067027 C42.6532245,19.7067027 42.7763072,19.8159027 42.7763072,19.9502577 L42.7763072,19.9502577 Z M42.3838003,20.4644077 C44.3631818,24.4563177 45.4465361,31.3044577 45.5512004,31.5482077 C45.560001,31.8368077 45.2546201,31.9630377 45.1063299,31.6022877 C44.9504335,31.3868127 44.3100639,25.0905877 42.0174437,20.4105877 C42.0021055,19.5178777 42.2538028,19.4485877 42.5408282,19.4635377 C42.7771873,19.4771877 43.0641498,19.7056627 43.0641498,19.9776877 C43.0641498,20.3023627 42.6976675,20.5457877 42.3837374,20.4646677 L42.3838003,20.4644077 Z" id="Shape" stroke="#000000" stroke-width="0.1" fill="#0000C4" transform="translate(43.784082, 25.642617) rotate(17.354025) translate(-43.784082, -25.642617) "></path>
                    <g transform="translate(61.000000, 36.125000)" id="Shape">
                        <path d="M6.30675,0.22925 L15.359625,9.789875 L15.51925,9.584375 L6.466375,0.02375 L6.306875,0.22925 L6.30675,0.22925 Z M0,1.79175 L11.84725,14.28025 L12.055,14.08375 L0.207875,1.595 L0.000125,1.79175 L0,1.79175 Z" fill="#000000"></path>
                        <polygon stroke="#000000" stroke-width="0.500957042" fill="#808080" transform="translate(13.072061, 15.088389) rotate(-45.000000) translate(-13.072061, -15.088389) " points="12.8528246 13.5224654 12.8528246 15.0884064 13.1028246 16.6543297 13.3528246 15.0883887 13.3528246 13.5224478 12.8528246 13.5224478"></polygon>
                        <polygon stroke="#000000" stroke-width="0.500957042" fill="#808080" transform="translate(16.127061, 10.209639) rotate(-45.000000) translate(-16.127061, -10.209639) " points="15.9078246 8.64371543 15.9078246 10.2096564 16.1578246 11.7755797 16.4078246 10.2096387 16.4078246 8.64369775 15.9078246 8.64369775"></polygon>
                    </g>
                    <g transform="translate(61.250000, 12.125000)" id="Shape">
                        <path d="M4.90653333,2.2322 C4.90653333,2.2322 3.91000833,29.161 7.89622083,29.161 C11.8824333,29.161 13.8755958,26.32636 13.8755958,26.32636 L13.8272208,11.52396 L4.90653333,2.23196 L4.90653333,2.2322 Z" stroke="#000000" stroke-width="0.1" fill="#FFDF00" transform="translate(9.335704, 15.696480) scale(-1, 1) translate(-9.335704, -15.696480) "></path>
                        <path d="M4.83739023,4.741 C4.83739023,6.15836 4.39605273,26.3266 6.38915898,26.3266 C8.38226523,26.3266 11.3719527,24.90924 11.3719527,24.90924 L11.3235777,11.52444 L4.83739023,4.74124 L4.83739023,4.741 Z" stroke="#000000" stroke-width="0.1" fill="#0000C4" transform="translate(8.083883, 15.533800) scale(-1, 1) translate(-8.083883, -15.533800) "></path>
                        <path d="M4.795925,6.0978 C4.795925,7.51516 5.05045625,23.4914 7.0435625,23.4914 L10.03325,23.4914 L9.984875,11.5242 L4.795925,6.09756 L4.795925,6.0978 Z" stroke="#000000" stroke-width="0.1" fill="#E10000" transform="translate(7.414587, 14.794480) scale(-1, 1) translate(-7.414587, -14.794480) "></path>
                        <polygon fill="#000000" points="13.97675 2.3775 4.923875 11.938125 4.764375 11.732875 13.81725 2.17225 13.976875 2.3775"></polygon>
                        <g transform="translate(4.500000, 2.000000)" stroke="#000000" stroke-width="0.1" fill="#005B00">
                            <path d="M3.73338852,6.86185976 C3.73338852,6.86185976 5.51378141,10.9286422 6.1567714,13.7753631 C6.79967408,16.6220839 7.34368544,20.7907401 7.34368544,20.7907401 C7.34368544,20.7907401 7.39315293,16.9273461 6.55242397,13.4706393 C5.41506474,9.09859461 3.68392104,7.06515849 3.73347585,6.86185976 L3.73338852,6.86185976 Z" transform="translate(5.538334, 13.826300) rotate(-23.629378) translate(-5.538334, -13.826300) "></path>
                            <path d="M3.53663336,4.53911547 C3.53663336,4.53911547 5.63828338,9.13887167 6.39729558,12.3586706 C7.15620471,15.5784694 7.79837841,20.2934505 7.79837841,20.2934505 C7.79837841,20.2934505 7.8567719,15.923738 6.86434037,12.0140112 C5.5217541,7.06898646 3.47823988,4.7690576 3.53673644,4.53911547 L3.53663336,4.53911547 Z" transform="translate(5.667267, 12.416283) rotate(-14.036243) translate(-5.667267, -12.416283) "></path>
                            <path d="M3.69568629,2.62294535 C3.69568629,2.62294535 6.44063942,7.16657063 7.43198095,10.3470782 C8.42318785,13.5275859 9.26192727,18.1850299 9.26192727,18.1850299 C9.26192727,18.1850299 9.33819466,13.8686411 8.04198549,10.0066247 C6.2884412,5.12194427 3.6194189,2.85008148 3.69582092,2.62294535 L3.69568629,2.62294535 Z" transform="translate(6.478495, 10.403988) rotate(31.328693) translate(-6.478495, -10.403988) "></path>
                            <path d="M3.25741833,1.21458743 C3.25741833,1.21458743 5.82432784,6.20372352 6.7513688,9.69608575 C7.67828387,13.188448 8.46262083,18.302563 8.46262083,18.302563 C8.46262083,18.302563 8.53394136,13.5629443 7.32180713,9.32225016 C5.68200153,3.95861778 3.1860978,1.46399468 3.25754423,1.21458743 L3.25741833,1.21458743 Z" transform="translate(5.859728, 9.758575) rotate(6.842773) translate(-5.859728, -9.758575) "></path>
                            <path d="M4.74275812,4.31828311 C4.74275812,4.31828311 7.26679773,8.30862747 8.17835621,11.1018421 C9.08979089,13.8950567 9.86102866,17.9853601 9.86102866,17.9853601 C9.86102866,17.9853601 9.93115806,14.1945814 8.73926766,10.8028459 C7.12684841,6.51297691 4.67262871,4.5177607 4.74288191,4.31828311 L4.74275812,4.31828311 Z" transform="translate(7.301606, 11.151822) rotate(43.363423) translate(-7.301606, -11.151822) "></path>
                            <path d="M2.56921475,2.7611 C2.56921475,2.7611 5.48767414,7.292 6.54167755,10.4636 C7.59553783,13.6352 8.48729329,18.2796 8.48729329,18.2796 C8.48729329,18.2796 8.56838149,13.9753 7.19023999,10.1241 C5.32585559,5.2531 2.48812655,2.9876 2.56935789,2.7611 L2.56921475,2.7611 Z"></path>
                            <path d="M3.30855044,5.08195269 C3.30855044,5.08195269 5.46872626,9.45872938 6.2488751,12.5224441 C7.02891799,15.5861588 7.68897465,20.0725747 7.68897465,20.0725747 C7.68897465,20.0725747 7.74899425,15.9146899 6.72892594,12.1944925 C5.34895193,7.4891847 3.24853084,5.30074805 3.30865639,5.08195269 L3.30855044,5.08195269 Z" transform="translate(5.498517, 12.577264) rotate(-19.290046) translate(-5.498517, -12.577264) "></path>
                            <path d="M3.38148165,3.90002561 C3.38148165,3.90002561 5.44319168,8.46618607 6.18777954,11.6624682 C6.93226628,14.8587502 7.56223604,19.539294 7.56223604,19.539294 C7.56223604,19.539294 7.61951981,15.201497 6.64594856,11.3203261 C5.32887694,6.4114189 3.32419788,4.12828829 3.38158277,3.90002561 L3.38148165,3.90002561 Z" transform="translate(5.471624, 11.719660) rotate(-8.530766) translate(-5.471624, -11.719660) "></path>
                            <path d="M3.81735855,2.77458523 C3.81735855,2.77458523 6.53185356,7.11604103 7.51219512,10.1550313 C8.49240354,13.1940217 9.32183627,17.6442318 9.32183627,17.6442318 C9.32183627,17.6442318 9.3972574,13.5199015 8.11543103,9.82972639 C6.38134414,5.16239071 3.74193742,2.99161491 3.81749169,2.77458523 L3.81735855,2.77458523 Z" transform="translate(6.569289, 10.209409) rotate(34.286877) translate(-6.569289, -10.209409) "></path>
                            <path d="M2.90184314,0.345527012 C2.90184314,0.345527012 5.40105554,5.32951701 6.30364764,8.81827701 C7.20611717,12.307037 7.96976881,17.415877 7.96976881,17.415877 C7.96976881,17.415877 8.0392084,12.681147 6.8590418,8.44482701 C5.2624828,3.08672701 2.83240355,0.594677012 2.90196572,0.345527012 L2.90184314,0.345527012 Z" transform="translate(5.435522, 8.880702) rotate(11.768289) translate(-5.435522, -8.880702) "></path>
                            <path d="M4.95392613,4.67735017 C4.95392613,4.67735017 7.40485015,8.47662532 8.29000289,11.1360928 C9.17503541,13.7955602 9.9239322,17.690008 9.9239322,17.690008 C9.9239322,17.690008 9.99203012,14.0807427 8.83466603,10.8514134 C7.26895484,6.7669557 4.88582821,4.86727619 4.95404634,4.67735017 L4.95392613,4.67735017 Z" transform="translate(7.438650, 11.183679) rotate(45.000000) translate(-7.438650, -11.183679) "></path>
                            <path d="M2.64025233,2.3082268 C2.64025233,2.3082268 5.09541304,6.8391268 5.98209586,10.0107268 C6.86865826,13.1823268 7.6188496,17.8267268 7.6188496,17.8267268 C7.6188496,17.8267268 7.68706524,13.5224268 6.52770051,9.6712268 C4.95928282,4.8002268 2.57203669,2.5347268 2.64037274,2.3082268 L2.64025233,2.3082268 Z" transform="translate(5.129272, 10.067477) rotate(4.763642) translate(-5.129272, -10.067477) "></path>
                        </g>
                        <path d="M4.2796878,7.7476 C4.2796878,7.7476 1.7107953,33.834875 9.4174728,33.834875 C15.8397403,33.834875 15.8397403,29.71575 17.1242228,29.71575 L15.8395228,20.1042 L4.2793978,7.7476 L4.2796878,7.7476 Z" stroke="#000000" stroke-width="0.1" fill="#FFDF00" transform="translate(10.496444, 20.791238) scale(-1, 1) translate(-10.496444, -20.791238) "></path>
                        <path d="M4.37638737,10.493425 C4.37638737,11.8664925 1.80749487,26.969925 8.22976237,31.08905 C10.7986549,32.46204 14.6519574,29.7159825 14.6519574,31.08905 L13.3679824,20.1042 L4.37653237,10.493425 L4.37638737,10.493425 Z" stroke="#000000" stroke-width="0.1" fill="#0000C4" transform="translate(9.260456, 20.989407) scale(-1, 1) translate(-9.260456, -20.989407) "></path>
                        <path d="M0.22028346,13.23925 C0.22028346,14.6123175 -1.06412654,25.596625 2.78917596,28.34245 C5.35806846,31.0885075 11.780626,30.343655 11.780626,30.343655 L6.64255096,20.104355 L0.22050096,13.239405 L0.22028346,13.23925 Z" stroke="#000000" stroke-width="0.1" fill="#E10000" transform="translate(5.897704, 21.837518) scale(-1, 1) translate(-5.897704, -21.837518) "></path>
                        <polygon fill="#000000" points="16.7715 7.635 4.924375 20.12375 4.716875 19.927125 16.56375 7.438375 16.7715 7.635125"></polygon>
                        <path d="M17.4439958,5.65977191 L17.8824444,6.28614477 L17.8824444,6.59934004 C17.8610368,6.57627068 17.8824444,6.91251764 17.4439958,6.91251764 C17.0055224,6.91251764 17.0055224,6.28614477 17.0055224,6.28614477 C17.0055224,6.28614477 16.5670738,6.91251764 16.5670738,7.5388905 C16.5670738,8.16526336 17.0055224,8.47845864 17.0055224,8.47845864 C17.0055224,8.47845864 16.9409282,7.82961745 17.4439958,7.85206809 C17.9470881,7.87451873 17.8824444,8.16524569 17.8824444,8.16524569 L17.8824444,8.79161855 L18.3209178,8.79161855 L18.3209178,6.28616245 L18.7593912,5.65978958 L18.0878095,4.72022145 L17.4439958,5.65978958 L17.4439958,5.65977191 Z" stroke="#000000" stroke-width="0.1" fill="#CECECC" transform="translate(17.663232, 6.755920) rotate(225.000000) translate(-17.663232, -6.755920) "></path>
                        <polygon stroke="#000000" stroke-width="0.1" fill="#CECECC" transform="translate(15.148419, 2.106175) rotate(237.994617) translate(-15.148419, -2.106175) " points="15.1424635 0.0106485649 14.5216368 1.53465802 14.9394914 2.67769198 14.1038058 2.296695 14.939515 3.43968596 14.939515 4.20170144 15.3573461 4.20170144 15.3573461 3.43975047 16.1930317 2.2967165 15.3573461 2.677735 15.7752007 1.53470103"></polygon>
                        <path d="M12.9467819,1.736 C12.9467819,1.81355 12.8488819,1.876475 12.7282819,1.876475 C12.6076319,1.876475 12.5096819,1.81355 12.5096819,1.736 C12.5096819,1.65845 12.6076819,1.5954875 12.7281819,1.5954875 C12.8488819,1.5954875 12.9467819,1.6584875 12.9467819,1.736 L12.9467819,1.736 Z M12.6345819,2.032625 C12.6345819,3.375125 13.6804319,9.0755 13.7636819,9.216125 C13.7706819,9.382625 13.5277819,9.45545 13.4098319,9.247325 C13.0823319,8.597 12.3726819,3.2507 12.3432319,2.001575 C12.3310319,1.48655 12.5312319,1.446575 12.7595319,1.4552 C12.9475319,1.463075 13.1757819,1.5948875 13.1757819,1.751825 C13.1757819,1.9391375 12.8842819,2.079575 12.6345819,2.032775 L12.6345819,2.032625 Z" stroke="#000000" stroke-width="0.1" fill="#E10000" transform="translate(13.053266, 5.414553) scale(-1, 1) translate(-13.053266, -5.414553) "></path>
                        <path d="M12.8359154,2.8753911 C12.8359154,2.96209464 12.7397439,3.03244693 12.6212732,3.03244693 C12.5027534,3.03244693 12.4065328,2.96209464 12.4065328,2.8753911 C12.4065328,2.78868757 12.5028025,2.71829335 12.621175,2.71829335 C12.7397439,2.71829335 12.8359154,2.7887295 12.8359154,2.8753911 L12.8359154,2.8753911 Z M12.5292276,3.20702794 C14.0758302,5.78188816 14.9223161,10.1990727 15.0040963,10.3562963 C15.0109727,10.5424489 14.7723613,10.6238698 14.6564938,10.3911789 C14.5346831,10.2521933 14.0343261,6.19100475 12.2429725,3.17231298 C12.2309879,2.59649753 12.4276532,2.55180412 12.6519223,2.56144716 C12.836603,2.57025168 13.0608231,2.71762253 13.0608231,2.89308399 C13.0608231,3.10250573 12.7744698,3.25951963 12.5291784,3.20719564 L12.5292276,3.20702794 Z" stroke="#000000" stroke-width="0.1" fill="#0000C4" transform="translate(13.623347, 6.547074) rotate(165.256437) translate(-13.623347, -6.547074) "></path>
                        <path d="M16.418125,6.8175 C16.418125,6.94675 16.5405,7.051625 16.69125,7.051625 C16.842125,7.051625 16.9645,6.94675 16.9645,6.8175 C16.9645,6.68825 16.842,6.583375 16.691375,6.583375 C16.5405,6.583375 16.418125,6.688375 16.418125,6.8175 L16.418125,6.8175 Z M16.808375,7.311875 C16.808375,9.549375 15.501125,19.05 15.397,19.284375 C15.38825,19.561875 15.691875,19.68325 15.839375,19.336375 C16.24875,18.2525 17.13575,9.342 17.172625,7.260125 C17.187875,6.40175 16.937625,6.335125 16.65225,6.3495 C16.41725,6.362625 16.131875,6.582375 16.131875,6.843875 C16.131875,7.156125 16.49625,7.390125 16.808375,7.312125 L16.808375,7.311875 Z" stroke="#000000" stroke-width="0.1" fill="#E10000"></path>
                        <path d="M15.9568932,7.82525775 C15.9568932,7.95967775 15.8338105,8.06874775 15.6821886,8.06874775 C15.530504,8.06874775 15.4073584,7.95967775 15.4073584,7.82525775 C15.4073584,7.69083775 15.5305668,7.58170275 15.6820629,7.58170275 C15.8338105,7.58170275 15.9568932,7.69090275 15.9568932,7.82525775 L15.9568932,7.82525775 Z M15.5643863,8.33940775 C17.5437678,12.3313177 18.6271221,19.1794577 18.7317864,19.4232077 C18.740587,19.7118077 18.4352061,19.8380377 18.2869159,19.4772877 C18.1310195,19.2618127 17.4906498,12.9655877 15.1980297,8.28558775 C15.1826915,7.39287775 15.4343888,7.32358775 15.7214142,7.33853775 C15.9577733,7.35218775 16.2447358,7.58066275 16.2447358,7.85268775 C16.2447358,8.17736275 15.8782535,8.42078775 15.5643234,8.33966775 L15.5643863,8.33940775 Z" stroke="#000000" stroke-width="0.1" fill="#0000C4" transform="translate(16.964668, 13.517617) rotate(162.645975) translate(-16.964668, -13.517617) "></path>
                    </g>
                    <g transform="translate(54.375000, 41.375000)" id="Shape" stroke="#000000" stroke-width="0.1">
                        <path d="M2.509125,11.449825 C3.7936075,12.275355 5.19815,12.090595 6.3625,11.449825 L6.3625,0.46575 L3.7936075,0.46575 C5.07809,4.584875 5.07809,8.704 2.509125,11.449825 L2.509125,11.449825 Z" fill="#E10000"></path>
                        <path d="M4.537875,0.710625 C4.537875,8.46155 2.6799875,10.18425 2.6799875,11.733875 C3.4550625,11.733875 3.96908125,11.012175 4.537875,10.0114375 C5.31295,8.4612 5.3877625,0.5894375 5.31295,0.7101875 L4.537875,0.7101875 L4.537875,0.710625 Z" fill="#0000C4"></path>
                        <path d="M2.9878125,0.710625 C2.952375,5.2405 1.028075,9.429125 1.39106875,10.356625 C1.80555625,11.1856875 2.9878125,8.4619 4.53800625,10.0121375 C5.313125,8.4619 5.3879375,0.5901375 5.313125,0.7108875 L2.9878125,0.7108875 L2.9878125,0.710625 Z" fill="#0000C4"></path>
                        <path d="M3.167875,0.043375 C3.167875,5.13684 1.387425,5.4754 1.387425,6.83355 C2.16254375,6.83355 3.16380625,6.09111 3.167875,6.155625 C3.94295,5.13684 4.0177625,-0.035975 3.94295,0.043375 L3.167875,0.043375 L3.167875,0.043375 Z" fill="#FFDF00"></path>
                        <path d="M1.6178125,0.043375 C1.582375,3.02015 -0.295375,5.54624 0.06761875,6.155625 C0.48210625,6.7004375 1.6178125,5.1368975 3.16805,6.155625 C3.943125,5.1368975 4.0179375,-0.035975 3.943125,0.043375 L1.6178125,0.043375 L1.6178125,0.043375 Z" fill="#FFDF00"></path>
                        <path d="M6.89,11.451075 C8.1744825,12.276605 9.579025,12.090605 10.743375,11.4499125 L10.743375,0.4666125 L8.1744825,0.4666125 C9.458965,4.5857375 9.458965,8.7048625 6.89,11.4506875 L6.89,11.451075 Z" fill="#E10000" transform="translate(8.816687, 6.234581) scale(-1, 1) translate(-8.816687, -6.234581) "></path>
                        <path d="M9.77351465,0.711875 C9.77351465,8.4628 7.91562715,10.1855 7.91562715,11.735125 C8.69070215,11.735125 9.2047209,11.013425 9.77351465,10.0126875 C10.5485896,8.46245 10.6234021,0.5906875 10.5485896,0.7114375 L9.77351465,0.7114375 L9.77351465,0.711875 Z" fill="#0000C4" transform="translate(9.243445, 6.222594) scale(-1, 1) translate(-9.243445, -6.222594) "></path>
                        <path d="M9.55775445,0.711875 C9.52231695,5.24175 7.59801695,9.430375 7.9610107,10.357875 C8.3754982,11.1869375 9.55775445,8.46315 11.1079482,10.0133875 C11.8830669,8.46315 11.9578794,0.5913875 11.8830669,0.7121375 L9.55775445,0.7121375 L9.55775445,0.711875 Z" fill="#0000C4" transform="translate(9.910596, 5.614730) scale(-1, 1) translate(-9.910596, -5.614730) "></path>
                        <path d="M9.28812715,6.8348 C10.0632459,6.8348 11.0645084,6.09236 11.0685771,6.156875 C11.8436521,5.13809 11.9184646,-0.034725 11.8436521,0.044625 L11.0685771,0.044625 C11.0685771,5.13809 9.28812715,5.47665 9.28812715,6.8348 Z" fill="#FFDF00" transform="translate(10.577226, 3.439261) scale(-1, 1) translate(-10.577226, -3.439261) "></path>
                        <path d="M10.8847018,0.043375 C10.8492643,3.02015 8.9715143,5.54624 9.33450805,6.155625 C9.74899555,6.7004375 10.8847018,5.1368975 12.4349393,6.155625 C13.2100143,5.1368975 13.2848268,-0.035975 13.2100143,0.043375 L10.8847018,0.043375 L10.8847018,0.043375 Z" fill="#FFDF00" transform="translate(11.260320, 3.158475) scale(-1, 1) translate(-11.260320, -3.158475) "></path>
                    </g>
                    <g transform="translate(49.750000, 40.250000)" stroke="#000000" id="Shape" stroke-width="0.1">
                        <path d="M1.4534,2.43868 L0.10826,3.413115 L1.4534,4.38755 L2.125955,3.9003325 L2.462255,4.38755 L2.798525,5.3619575 L3.134825,4.38755 L3.471095,3.9003325 L21.499595,3.9002775 L21.499595,2.92587 L3.471095,2.925925 L3.134795,2.43868 C3.134795,1.95149 3.205355,1.4642725 3.471095,1.4642725 C3.73685,1.4642725 4.284725,1.46419 4.81622,1.46419 C4.81622,0.977 4.14365,0.002565 2.79857,0.002565 C1.453445,0.002565 0.78092,0.977 0.78092,1.46419 L2.126045,1.464245 C2.391785,1.464245 2.462345,1.951435 2.462345,2.438625 L2.125745,2.9258425 L1.453145,2.438625 L1.4534,2.43868 Z" fill="#908F8A"></path>
                        <polygon fill="#B74D00" points="5.40975 4.8038625 17.1911 4.8038625 17.1911 5.401845 5.40975 5.401845"></polygon>
                        <path d="M5.40975,4.20598125 L17.1911,4.20598125 L17.1911,4.80393 L5.40975,4.80393 L5.40975,4.20598125 Z M5.40975,3.60799875 L17.1911,3.60799875 L17.1911,4.2059475 L5.40975,4.2059475 L5.40975,3.60799875 Z" fill="#B74D00"></path>
                        <path d="M5.40975,3.0101175 L17.1911,3.0101175 L17.1911,3.6081 L5.40975,3.6081 L5.40975,3.0101175 Z M5.40975,2.41216875 L17.1911,2.41216875 L17.1911,3.0101175 L5.40975,3.0101175 L5.40975,2.41216875 Z" fill="#B74D00"></path>
                        <path d="M5.40975,1.8142875 L17.1911,1.8142875 L17.1911,2.4122025 L5.40975,2.4122025 L5.40975,1.8142875 Z M5.40975,1.216305 L17.1911,1.216305 L17.1911,1.8142875 L5.40975,1.8142875 L5.40975,1.216305 Z" fill="#B74D00"></path>
                        <polygon fill="#908F8A" points="5.9621875 1.180465 10.2684375 5.36614 10.883625 5.36614 6.577375 1.180465 5.9621875 1.180465"></polygon>
                        <polygon fill="#908F8A" transform="translate(8.422906, 3.397948) scale(1, -1) translate(-8.422906, -3.397948) " points="5.9621875 1.30511 10.2684375 5.490785 10.883625 5.490785 6.577375 1.30511 5.9621875 1.30511"></polygon>
                        <polygon fill="#908F8A" points="6.077 1.180465 6.077 5.36614 6.69706 5.36614 6.69706 1.180465"></polygon>
                        <polygon fill="#908F8A" points="11.5046875 1.180465 15.8109375 5.36614 16.426125 5.36614 12.119875 1.180465 11.5046875 1.180465"></polygon>
                        <polygon fill="#908F8A" transform="translate(13.965406, 3.397948) scale(1, -1) translate(-13.965406, -3.397948) " points="11.5046875 1.30511 15.8109375 5.490785 16.426125 5.490785 12.119875 1.30511 11.5046875 1.30511"></polygon>
                        <polygon fill="#908F8A" points="15.932 1.180465 15.932 5.36614 16.55206 5.36614 16.55206 1.180465"></polygon>
                        <polygon fill="#908F8A" points="11.62075 1.180465 11.62075 5.36614 12.24081 5.36614 12.24081 1.180465"></polygon>
                        <polygon fill="#908F8A" points="10.38825 1.180465 10.38825 5.36614 11.00831 5.36614 11.00831 1.180465"></polygon>
                    </g>
                    <g transform="translate(51.625000, 17.125000)" id="Shape" stroke="#000000" stroke-width="0.1" fill="#FFDF00">
                        <path d="M18.103225,12.358375 C18.103225,19.179615 14.075125,24.71575 9.111775,24.71575 C4.148715,24.71575 0.120325,19.1796925 0.120325,12.358375 C0.120325,5.5372125 4.148425,0.001 9.111775,0.001 C14.0749075,0.001 18.103225,5.5370575 18.103225,12.358375 L18.103225,12.358375 Z M16.8187425,12.358375 C16.8187425,18.4217425 13.3661475,23.34245 9.1119925,23.34245 C4.85791,23.34245 1.4052425,18.4215875 1.4052425,12.358375 C1.4052425,6.295085 4.8578375,1.3743 9.1119925,1.3743 C13.366075,1.3743 16.8187425,6.2953175 16.8187425,12.358375 L16.8187425,12.358375 Z"></path>
                        <path d="M12.610625,0.97285 C11.535015,0.34727 10.352685,0.0012325 9.11192,0.0012325 C7.871155,0.0012325 6.688825,0.34727 5.6132875,0.97285 L6.11303,2.2378825 C7.03494,1.68182 8.0484175,1.3742225 9.11192,1.3742225 C10.1754225,1.3742225 11.1889,1.6817425 12.11081,2.237805 L12.610625,0.9727725 L12.610625,0.97285 Z"></path>
                        <path d="M12.625625,23.124985 C11.550015,22.499405 10.367685,22.1533675 9.12692,22.1533675 C7.886155,22.1533675 6.703825,22.499405 5.6282875,23.124985 L6.12803,24.3900175 C7.04994,23.833955 8.0634175,23.5263575 9.12692,23.5263575 C10.1904225,23.5263575 11.2039,23.8338775 12.12581,24.38994 L12.625625,23.1249075 L12.625625,23.124985 Z" transform="translate(9.126956, 23.271693) scale(1, -1) translate(-9.126956, -23.271693) "></path>
                    </g>
                    <path d="M68.44425,29.483375 C68.44425,35.549875 64.993875,40.4675 60.7375,40.4675 C56.48125,40.4675 53.03075,35.549625 53.03075,29.483375 C53.03075,23.416875 56.481125,18.49925 60.7375,18.49925 C64.99375,18.49925 68.44425,23.417125 68.44425,29.483375 L68.44425,29.483375 Z" id="Shape" fill="#A7CFFF"></path>
                    <path d="M68.44425,29.483375 C68.5263925,31.54937 68.108285,32.5550875 67.582225,34.703465 C67.443605,34.934415 66.78719,34.1968475 66.3898175,33.832675 C65.992445,33.4685025 65.8234475,34.161275 65.335885,33.59661 C64.8483225,33.0321 64.53476,33.756105 64.1771175,33.2792475 C63.819475,32.80239 60.4578675,32.73233 60.4530825,32.6913325 C60.7858575,32.5149425 62.5026575,32.7031125 62.2274475,31.823875 C61.9156975,30.915575 59.973205,31.79675 59.7124225,30.633165 C59.5355225,29.4778725 55.828815,29.4285825 55.5639725,29.1432275 C55.6686625,29.582265 58.4442525,29.7671025 58.3779875,30.8924025 C58.317595,31.3508925 55.645245,31.48489 55.38758,31.8729325 C55.1668175,32.360795 57.4847875,31.74064 57.570845,32.3404125 C57.5652625,32.58725 57.229805,32.3456825 56.0224625,32.7271375 C55.4188275,32.9177875 57.1428775,33.5277125 56.4871875,33.861505 C55.831425,34.195375 54.4383375,34.341075 54.498295,34.48135 C54.711445,35.17172 57.7385375,35.99539 57.4370825,36.1138875 C56.3674175,36.6222875 55.8020625,36.9564675 55.289125,37.2494175 C53.894225,35.26131 53.03104,32.515175 53.03104,29.4839175 C55.33045,28.60003 54.84122,28.419455 59.0953025,28.419455 C63.349385,28.419455 64.7488525,28.60003 68.4441775,29.4839175 L68.44425,29.483375 Z" id="Shape" stroke="#000000" stroke-width="0.1" fill="#AFFF7B"></path>
                    <path d="M68.44425,29.483375 C67.859175,29.483375 67.251335,29.746875 66.626675,29.746875 C66.0019425,29.746875 65.3604625,29.483375 64.70789,29.483375 C64.0553175,29.483375 63.3095825,29.834605 62.64077,29.834605 C61.97203,29.834605 61.38014,29.48353 60.70676,29.48353 C60.0334525,29.48353 59.360725,29.7467975 58.6945225,29.7467975 C58.02832,29.7467975 57.3686425,29.4832975 56.7212175,29.4832975 C56.0737925,29.4832975 55.4386925,29.7467975 54.8217175,29.7467975 C54.2047425,29.7467975 53.6058925,29.4832975 53.0309675,29.4832975 C53.0309675,27.9673975 53.2467275,26.52303 53.6369225,25.2091725 C55.59986,25.3641725 54.4374675,23.9911825 55.59986,23.9911825 C56.2273475,23.9911825 56.863825,24.1353325 57.429615,24.7497525 C57.6070225,24.7497525 58.479415,23.868345 59.453235,23.9911825 C60.427055,24.1140975 60.068905,26.1047625 61.36506,26.21055 C62.0221275,26.7373175 62.4085525,27.073435 63.30661,27.28563 C64.59102,27.410095 68.261985,27.09188 68.28765,27.270595 C68.392338,28.0028675 68.4446894,28.742601 68.44425,29.483375 L68.44425,29.483375 Z" id="Shape" stroke="#000000" stroke-width="0.1" fill="#FFFFFF"></path>
                    <path d="M61.9,35.8739 C61.9,35.53406 62.2378,35.30618 62.2378,34.76246 C62.2378,34.21874 61.93995,34.20146 61.9283,33.69086 C61.9233,33.48326 62.1863,33.2681 62.301175,33.25076 C62.41605,33.23342 62.5135,33.69596 62.5135,33.79796 C62.5135,33.89996 62.39695,33.54644 62.29905,33.53528 C62.20115,33.52412 61.991225,33.57308 61.991225,33.67508 C61.991225,33.87908 62.362475,34.13096 62.33415,34.81058 C62.30585,35.4902 62.0164,35.69 62.0164,35.89388 C62.0164,36.09776 62.1428,36.66548 62.1428,36.66548 C62.1428,36.66548 61.899975,36.21368 61.899975,35.87396 L61.9,35.8739 Z" id="Shape" stroke="#000000" stroke-width="0.1" fill="#000000"></path>
                    <path d="M62.29435,35.8264 C62.29435,35.48656 62.63215,35.25868 62.63215,34.71496 C62.63215,34.17124 62.3334,34.15408 62.32265,33.64336 C62.299,33.40564 62.618,33.25072 62.7329,33.23338 C62.8478,33.21604 62.982525,33.70858 62.982525,33.81058 C62.982525,33.91258 62.847275,33.49888 62.7494,33.48778 C62.651525,33.47668 62.385575,33.52558 62.385575,33.62758 C62.385575,33.83146 62.756825,34.0834 62.7285,34.76302 C62.7002,35.44264 62.41075,35.64244 62.41075,35.84632 C62.41075,36.0502 62.53715,36.61792 62.53715,36.61792 C62.53715,36.61792 62.294325,36.16612 62.294325,35.8264 L62.29435,35.8264 Z" id="Shape" stroke="#000000" stroke-width="0.1" fill="#000000" transform="translate(62.638425, 34.925427) scale(-1, 1) translate(-62.638425, -34.925427) "></path>
                    <path d="M62.620625,33.10575 C62.620625,33.272375 62.539375,33.407375 62.438875,33.407375 C62.3385,33.407375 62.257125,33.272375 62.257125,33.105625 C62.257125,32.938875 62.338375,32.804 62.439,32.804 C62.5395,32.804 62.620875,32.939 62.620875,33.105625 L62.620625,33.10575 Z M64.7395,34.22625 L64.797625,34.22625 L64.797625,36.678375 L64.739625,36.678375 L64.7395,34.22625 Z M65.26225,34.040375 L65.32025,34.040375 L65.32025,36.492375 L65.26225,36.492375 L65.26225,34.040375 Z" id="Shape" fill="#000000"></path>
                    <polygon id="Shape" fill="#000000" points="65.074625 35.3012005 65.0751273 35.092125 65.574625 35.3822013 65.5741227 35.592125"></polygon>
                    <path d="M57.9251,35.865425 C57.9251,35.865425 59.81387,36.743345 60.22451,37.270035 C60.63515,37.7968025 60.470865,37.796725 60.470865,37.796725 L64.65919,37.97234 C64.65919,37.708995 65.3981825,37.70884 65.56254,37.09442 C65.72668,36.479845 65.72668,36.304385 65.72668,36.304385 L64.4127625,36.743345 L64.4948325,35.95331 L63.3452,35.95331 L63.180915,36.743345 L60.71722,36.6555375 L60.881505,34.5486225 L60.388795,34.6363525 L60.3066525,36.65546 C60.2244375,36.65546 58.0070975,36.040885 57.9250275,35.8653475 L57.9251,35.865425 Z" id="Shape" stroke="#000000" stroke-width="0.1" fill="#B74D00"></path>
                    <path d="M54.142175,23.2392 C54.142175,23.2392 56.8714375,22.370115 60.82015,22.4321925 C64.7688625,22.49427 67.498125,23.425355 67.440125,23.425355 C67.382125,23.425355 66.68511,21.99765 66.68511,21.99765 C66.68511,21.99765 63.897775,21.19072 60.7620775,21.1286425 C57.626235,21.0666425 54.8969725,21.7494175 54.955045,21.8114175 L54.142175,23.2392 L54.142175,23.2392 Z" id="Shape" stroke="#FEDE00" stroke-width="0.600333241" fill="#FEDE00"></path>
                    <path d="M59.259,21.231875 L60.95425,21.199125 L60.971375,22.186625 L59.276375,22.219625 L59.259,21.231875 Z M55.346875,21.769375 L54.749,22.742375 L56.769625,22.493375 L56.6075,21.5205 L55.346875,21.76925 L55.346875,21.769375 Z M57.069125,21.395 L58.758875,21.246625 L58.836375,22.231125 L57.146875,22.3795 L57.069125,21.395 Z M63.17375,21.29425 L61.4815,21.1805 L61.422125,22.1665 L63.11425,22.28025 L63.17375,21.29425 Z M66.8215,21.913375 L67.43625,23.124625 L65.606,22.672875 L65.80975,21.708625 L66.8215,21.91325 L66.8215,21.913375 Z M65.3545,21.56125 L63.672875,21.3325 L63.55325,22.312125 L65.234875,22.541125 L65.3545,21.56125 Z" id="Shape" fill="#38A9F9"></path>
                    <polygon id="Shape" stroke="#000000" stroke-width="0.1" fill="#FFDF00" points="60.82015 23.797975 60.6331 22.75405 60.08645 23.6422 60.287275 22.601375 59.465125 23.198125 60.023375 22.3185 59.0497 22.53395 59.879825 21.9496 58.90325 21.74965 59.879825 21.5497 59.0497 20.966125 60.023375 21.1808 59.465125 20.301175 60.287275 20.897925 60.08645 19.8571 60.6331 20.74525 60.82015 19.701325 61.006475 20.74525 61.553125 19.8571 61.3523 20.897925 62.175175 20.301175 61.6162 21.1808 62.5906 20.966125 61.75975 21.5497 62.736325 21.74965 61.75975 21.9496 62.5906 22.53395 61.6162 22.3185 62.175175 23.198125 61.3523 22.601375 61.553125 23.6422 61.006475 22.75405"></polygon>
                    <path d="M62.2610625,21.085 C62.2610625,21.665625 61.78839,22.13625 61.20528,22.13625 C60.62217,22.13625 60.1494975,21.665625 60.1494975,21.085 C60.1494975,20.504375 60.62217,20.03375 61.20528,20.03375 C61.78839,20.03375 62.2610625,20.504375 62.2610625,21.085 L62.2610625,21.085 Z" id="Shape" stroke="#000000" stroke-width="0.1" fill="#FFDF00"></path>
                    <path id="Shape" fill="#000000"></path>
                    <path id="Shape" stroke="#000000" stroke-width="0.606176542" transform="translate(61.336392, 21.820930) rotate(-17.818889) translate(-61.336392, -21.820930) "></path>
                    <path id="Shape" stroke="#000000" stroke-width="0.600333241"></path>
                    <path d="M56.174375,24.35675 C56.174375,24.35675 56.290625,25.349875 55.535625,26.591375 C54.780625,27.833 54.896875,27.3985 54.896875,27.3985 C54.896875,27.3985 55.24525,28.08125 55.18725,28.08125 C55.12925,28.08125 54.6065,27.4605 54.6065,27.4605 L53.96775,28.14325 C53.96775,28.14325 54.5485,27.088 54.49025,27.088 C54.432,27.088 54.316125,26.7155 54.316125,26.7155 L54.7805,26.52925 C54.7805,26.52925 55.477375,25.22575 55.477375,25.288 C55.477375,25.35025 53.386875,26.7155 53.386875,26.7155 L56.174375,24.35675 L56.174375,24.35675 Z M56.639125,24.7295 C56.581,24.7295 56.929375,25.72275 57.21975,26.21925 C57.510125,26.715875 57.510125,27.33675 57.510125,27.33675 L58.497625,27.83325 L57.219875,25.909 L58.032875,26.21925 L56.639125,24.7295 L56.639125,24.7295 Z M56.639125,27.336625 C56.639125,27.336625 57.335875,28.081625 57.394125,28.32975 C57.452375,28.577875 57.452,29.13675 57.452,29.13675 L57.16175,28.516 L56.75525,29.07475 C56.75525,29.07475 57.045625,28.205625 56.9875,28.1435 C56.929375,28.081375 56.522875,28.454 56.522875,28.454 C56.522875,28.454 56.697125,27.957375 56.697125,27.89525 C56.697125,27.833125 56.697125,27.52275 56.639125,27.3365 L56.639125,27.336625 Z M53.15475,29.074125 C53.387,28.887875 53.8515,28.763875 53.8515,28.763875 C53.8515,28.763875 53.561125,29.2605 53.503125,29.2605 C53.445125,29.2605 53.270875,29.2605 53.15475,29.07425 L53.15475,29.074125 Z M61.168125,26.343125 C61.168125,26.343125 62.677875,27.274375 62.677875,27.336375 C62.677875,27.398375 61.69075,26.901875 61.69075,26.901875 L61.16825,26.343125 L61.168125,26.343125 Z M58.43925,24.41875 C58.5555,24.480875 60.645875,26.21875 60.58775,26.21875 C60.529625,26.21875 59.65875,25.72225 59.65875,25.784375 L59.65875,26.218875 L59.194125,25.22575 L59.077875,25.59825 L58.439125,24.418875 L58.43925,24.41875 Z M58.96125,27.211875 L59.542,28.39125 L60.122625,28.267125 C60.122625,28.267125 59.0195,27.211875 58.961375,27.211875 L58.96125,27.211875 Z M60.762125,26.467125 C60.762125,26.653375 60.82025,27.584375 60.82025,27.584375 C60.82025,27.584375 61.168625,27.89475 61.168625,27.83275 C61.168625,27.77075 60.820125,26.529 60.762,26.467125 L60.762125,26.467125 Z" id="Shape" fill="#B7E1FF"></path>
                    <g transform="translate(43.750000, 6.750000)" id="Shape">
                        <path d="M0.0765,4.44025 C0.0765,4.44025 2.699,2.989 5.68525,1.9085 C8.671,0.828 12.02025,0.117875 12.463,0.117875 C13.347625,0.117875 14.86425,2.34075 15.117125,2.34075 C15.369875,2.34075 16.380875,1.72325 17.645,1.72325 C18.909125,1.72325 19.66725,2.71125 19.92,2.71125 L22.195,2.71125 C22.447875,2.71125 21.43675,0.24125 22.195,0.365 C22.57425,0.426625 25.797125,0.920625 28.799125,1.893125 C31.800875,2.865625 36.062,4.5825 36.062,4.5825 C36.062,4.5825 29.09775,5.5125 27.251,5.2375 C26.99825,5.361 27.2385,6.87125 26.884375,6.20675 C26.302375,6.073875 24.166375,5.740875 23.787125,5.740875 C23.407875,5.740875 22.700875,6.16925 21.689625,6.416125 C20.678625,6.663125 19.414625,7.033625 19.414625,7.033625 L21.057875,9.627 L19.035625,10.614875 C19.035625,10.614875 17.771875,7.651125 17.266125,7.651125 C16.760375,7.651125 16.50775,9.7505 15.87575,9.627 C15.24375,9.5035 14.991,7.651 14.485375,7.157 C13.979875,6.66325 11.314375,6.48325 10.303125,6.23625 C9.291875,5.989375 7.660125,5.79875 6.775375,5.55175 C5.890625,5.30475 5.006,6.16925 4.626625,6.16925 C4.247625,6.16925 5.132375,5.42825 4.753125,5.30475 C4.373875,5.18125 4.12125,5.67525 3.868375,5.67525 C3.615625,5.67525 0.961375,5.18125 0.708625,5.05775 C0.455875,4.93425 1.340625,4.44025 1.087875,4.44025 L0.076625,4.44025 L0.0765,4.44025 Z" fill="#984000"></path>
                        <path d="M18.933775,3.20445 C18.933775,3.891825 18.370025,4.449135 17.67455,4.449135 C16.979075,4.449135 16.4152425,3.891825 16.4152425,3.20445 C16.4152425,2.517075 16.9789925,1.959765 17.6744675,1.959765 C18.3699425,1.959765 18.933775,2.517075 18.933775,3.20445 L18.933775,3.20445 Z" stroke="#772600" stroke-width="0.1" fill="#808080"></path>
                        <path d="M12.533725,3.43345 C12.7585,3.16705 13.0395362,2.76745 13.7700887,2.76745 C13.9387037,2.70081 13.9387037,2.30117 14.3320262,2.30117 C14.72545,2.30117 14.6130625,2.70077 14.894065,2.83397 C15.1750337,2.96717 17.47918,2.70077 17.47918,2.70077 C17.47918,2.70077 17.703955,2.90061 17.703955,3.16705 C17.703955,3.43345 17.5353737,3.63329 17.47918,3.63329 C17.4229862,3.63329 15.1750675,3.43349 15.0064525,3.50009 C14.8378712,3.56673 14.72545,3.63329 14.33206,3.63329 C13.9387037,3.63329 13.8262825,3.16709 13.5453475,3.16709 C13.2643112,3.16709 12.9833087,3.10049 12.533725,3.43349 L12.533725,3.43345 Z" stroke="#772600" stroke-width="0.1" fill="#984000"></path>
                        <path d="M19.3897,3.29862 L20.2888675,3.29862 C20.6119225,3.30318 20.7233313,3.41882 21.0194538,3.43182 L21.8061663,3.43182 C22.0922313,3.41926 22.2432963,3.34002 22.5367863,3.29862 C23.0262963,3.29162 22.8592675,3.24638 22.7615613,2.89902 C22.6729675,2.63642 22.6619988,2.51462 22.5367863,2.36614 C22.4896713,2.04838 22.37968,1.93534 22.3681713,1.56694 C22.316635,1.28586 22.2216288,1.09682 22.3119775,0.76762 C22.4415775,0.9935 22.4937888,1.08642 22.817755,1.10066 C23.1567738,1.10066 23.2881288,1.09242 23.4921475,1.23386 C23.6495238,1.42946 23.85955,1.36706 24.16654,1.36706 C24.4256388,1.4233 24.46894,1.57958 24.6723175,1.7001 C24.9120438,1.8575 25.06699,1.8999 25.40287,1.8999 C25.6717563,1.95678 25.90507,2.00302 26.077195,2.0997 C26.2206325,2.3029 26.446825,2.35322 26.7516213,2.3661 C26.9220588,2.3661 27.0536838,2.34514 27.2011713,2.2995 C27.4603038,2.3143 27.7234188,2.2995 28.0441788,2.2995 C28.25218,2.5879 28.30024,2.69398 28.6623775,2.6991 C28.910035,2.9053 29.1189138,2.94058 29.33677,3.03218 L30.17971,3.03218 C30.48103,3.05966 30.5776225,3.20618 30.854035,3.29858 C31.1279163,3.4493 31.3846525,3.55258 31.584655,3.63162 C31.7834425,3.68282 32.0427775,3.69822 32.3152075,3.69822 C32.5238838,3.82522 32.774545,3.83662 32.9334063,3.96462 C33.1659438,4.0237 33.4835988,4.09322 33.6639925,4.16446 C33.9615325,4.21118 34.0753038,4.32206 34.3383175,4.36426 C34.5645775,4.44086 34.2632913,4.50666 34.1135425,4.56406 C33.781915,4.5495 33.7579525,4.40622 33.4392175,4.36426 C33.2696575,4.24666 33.0126175,4.26234 32.764825,4.16442 L32.7085975,4.16442 C32.9313475,4.32054 33.1455925,4.4213 33.04576,4.69722 C32.7592225,4.69722 32.5271575,4.65334 32.2590475,4.63062 C31.9760538,4.56598 31.8463863,4.49742 31.5284613,4.49742 C31.8455088,4.40686 31.9285338,4.50822 32.1465925,4.63062 C32.2274575,4.95302 32.0546238,4.83046 31.7532025,4.83046 C31.496365,4.72126 31.34233,4.59114 31.0225825,4.56406 L30.3482575,4.56406 C30.682045,4.5787 30.7524475,4.72806 30.9663888,4.8971 C30.9838713,5.0007 30.9619338,4.99598 30.7978075,5.0303 C30.6236575,4.85118 30.39652,4.78978 30.123415,4.69726 C29.857465,4.68606 29.5760913,4.65866 29.3367025,4.56406 C29.1724075,4.5519 29.1977538,4.31698 29.5614775,4.69726 C29.7819325,4.85098 29.8595575,4.9751 29.8424463,5.09686 C29.5530063,5.01114 29.4096025,4.87366 29.2242475,4.7639 C28.9631575,4.6497 28.7474275,4.6307 28.4374675,4.6307 C28.14688,4.54006 28.46764,4.48774 28.6622425,4.8305 C29.0800675,5.1813 28.6071625,5.03078 28.4374675,4.9637 C28.1841063,4.87794 27.9216325,4.75634 27.706915,4.6973 C27.5366125,4.6397 27.388315,4.5831 27.2011375,4.5641 C27.4924,4.5955 27.591625,4.71702 27.706915,4.9637 C28.0023963,5.20498 27.693955,5.0877 27.4259125,5.03034 C27.2548,4.85426 27.0382263,4.76402 26.920135,4.5641 C26.6383225,4.39706 26.6311338,4.20482 26.8077475,4.6307 C26.8537488,4.76698 26.84521,5.0625 26.8639413,5.09694 C26.6568513,4.83194 26.7010975,4.76394 26.4705513,4.76394 C26.3141538,4.63418 26.0825613,4.53334 25.9647738,4.36434 C25.7475925,4.34018 25.7339238,4.24834 25.5152238,4.1645 C25.6954488,4.41542 25.9333863,4.66362 26.0771613,4.8971 C26.3335938,5.06678 26.4045363,5.2195 26.5829725,5.36334 C26.6551975,5.50894 26.8497325,5.62962 26.6391663,5.42998 C26.3980563,5.14826 26.2186413,5.08318 25.8523863,4.89718 C25.6448238,4.69878 25.5698988,4.61538 25.3466088,4.4309 C25.0427575,4.3147 25.1607138,4.24918 25.3466088,4.6307 C25.5598413,4.8615 25.7235963,5.1199 25.9086138,5.2967 C26.03575,5.49302 26.2507038,5.7015 26.4143913,5.82958 C26.4650163,5.91958 26.6165538,5.93614 26.4143913,5.96278 C26.2426038,5.77886 25.9959588,5.66158 25.7961925,5.49654 C25.516,5.40294 25.38478,5.23046 25.1780275,5.03034 C25.0464025,4.79634 24.8276013,4.61514 24.6722163,4.4309 C24.3472038,4.2801 24.7363413,4.57634 24.8407975,4.7639 C24.9134613,5.00662 25.0023925,5.2053 25.0655725,5.4299 C25.1593975,5.6523 24.77971,5.37682 24.6722163,5.2967 C24.4251663,5.13042 24.2444688,5.01922 23.94163,4.9637 C23.739805,4.9117 23.4825625,4.86498 23.2672375,4.8305 C23.010265,4.7485 23.403655,5.0225 23.54824,5.29674 C23.8323475,5.61306 23.267035,5.35374 23.09869,5.29674 C22.82113,5.23094 22.54897,5.2301 22.2556825,5.2301 C21.89557,5.25522 22.152745,5.30798 22.2556825,5.4965 C22.3666188,5.5977 22.4459313,5.8107 22.4242638,5.89618 C22.1869338,5.85818 21.98467,5.77526 21.6937113,5.76298 C21.4588113,5.85578 21.1758513,5.82958 20.9069988,5.82958 C20.8941063,5.99718 20.9557,5.85574 21.0755463,6.02938 C21.2700475,6.12298 21.39904,6.23646 21.3565488,6.36242 L19.7268625,6.36242 C19.548325,6.4203 19.7653375,6.39058 19.8956125,6.62894 C19.8227125,6.84506 19.72855,6.76222 19.5022563,6.76222 C19.3488625,6.6895 19.0433238,6.65678 18.8840575,6.56238 C18.72577,6.56238 18.7377175,6.51358 18.6030888,6.49578 C19.07677,6.89298 18.8418025,6.79378 19.1088663,7.09526 C19.1549688,7.1135 19.2615175,7.16186 19.1650263,7.16186 M15.4558,9.2931 C15.4221513,9.2931 15.3478,9.0781 15.231025,8.8935 C15.1524888,8.6515 15.049045,8.7899 14.9500225,8.42722 C14.9617675,8.05114 14.9731075,7.98346 14.9500225,7.62794 C14.7183963,7.43662 14.622175,7.37714 14.444245,7.0285 C14.15872,6.74538 14.48596,6.26598 14.5402638,5.9145 C14.2913575,5.84898 14.1690138,6.37358 13.7862888,6.56226 C13.5110238,6.78194 13.7555088,6.1081 13.6211838,5.71474 C13.5275613,5.15986 13.25584,5.99298 13.1517213,6.22922 C12.96721,6.37794 12.9111513,6.5709 12.6459438,6.29582 C12.6459438,6.09006 12.8125675,5.51622 12.7419625,5.40462 C12.4782063,5.55722 12.1314925,6.02422 11.85913,6.09598 C11.5847425,6.0253 11.9188675,5.50286 11.9188675,5.11526 C11.81971,5.07606 11.4228775,6.14546 11.2600675,6.15534 C11.0972575,6.16526 11.1685038,5.11562 11.0922625,5.13822 C10.97272,5.33662 10.732825,5.75542 10.5665725,5.89614 C10.2475,5.84734 10.613755,5.19874 10.6625913,4.95906 C10.7175363,4.67234 10.3620475,5.50906 10.1731488,5.56314 C10.0347738,5.7053 9.76015,5.80602 9.66737125,5.82954 C9.77672125,5.58434 10.3111863,5.08106 10.2726775,4.93842 C9.96184,4.95202 9.485965,5.44066 9.2177875,5.4965 C9.042625,5.4965 8.79972625,5.56682 8.7682375,5.5631 C8.7833575,5.24606 9.423595,4.9771 9.52575625,4.7845 C9.21167875,4.84426 8.60822875,5.17274 8.43104125,5.4299 C8.22361375,5.48334 7.96043125,5.5507 7.756615,5.4299 C7.78688875,5.1309 8.258005,4.54998 8.361955,4.35958 C8.07859,4.50746 7.9352875,4.62318 7.63136875,4.69258 C7.57561375,4.75866 7.41118375,4.90178 7.4627875,4.75918 C7.5524275,4.48138 7.6881025,4.35478 7.79995,4.15974 C7.5485125,4.2143 7.453,4.3851 7.18181875,4.55934 C7.00989625,4.56822 6.51876625,5.15354 6.35170375,5.16346 C5.96526625,5.49874 5.81136625,5.55574 5.39630875,5.69626 C5.1402475,5.7505 5.01628375,5.81362 4.89053125,5.96266 C5.01864625,5.69518 5.21443,5.43898 5.39630875,5.29666 C5.5204075,5.07398 5.63660875,4.88886 5.90208625,4.76386 C5.96611,4.67106 6.14468125,4.64762 5.95828,4.63066 C5.7981025,4.8001 5.52979,4.98926 5.3963425,5.09686 C5.22415,5.22514 5.024755,5.35606 4.946725,5.29666 C5.03515,5.00878 5.1977575,4.94058 5.34014875,4.69722 C5.63748625,4.47306 5.34156625,4.62066 5.11537375,4.69722 C4.96896625,4.85194 4.70625625,4.9663 4.49720875,5.0969 C4.257145,5.17114 4.1022325,5.34218 3.82288375,5.42994 C3.82288375,5.52494 3.90266875,5.25994 3.93527125,5.16354 C4.16578375,4.86714 4.22741125,4.7845 4.49720875,4.69726 C4.56173875,4.58262 4.64638375,4.6307 4.441015,4.6307 C4.2886675,4.79166 4.0761775,4.87918 3.8790775,5.0303 C3.6802225,5.08158 3.42092125,5.09694 3.1484575,5.09694 C2.79897625,5.14666 2.8291825,5.17794 3.1484575,4.96374 C3.32925625,4.76206 3.478195,4.81274 3.48562,4.56414 C3.2745475,4.7453 3.017575,4.8785 2.7550675,5.03034 C2.53792,5.03794 2.48057875,5.09694 2.24932375,5.09694 C2.36063125,4.96034 2.4274225,4.79162 2.58648625,4.69734 C2.81922625,4.39082 2.4387625,4.63822 2.36171125,4.69734 L1.5187375,4.69734 C1.36804375,4.92054 1.510975,4.69934 1.631125,4.56414 C1.7764525,4.47454 1.92664,4.35794 1.9121275,4.29774 C1.7443225,4.4703 1.550125,4.54962 1.40635,4.69734 C1.24975,4.75294 1.0691875,4.7807 1.0691875,4.83054 C1.191565,4.6167 1.3906225,4.4875 1.5187375,4.29774 C1.7081425,4.24894 1.8696025,4.1803 1.9121275,4.0979 L1.1253475,4.0979 L1.687285,4.0979 C1.970785,4.0979 2.2147975,4.0679 2.47409875,4.0313 C2.921725,3.9429 2.43494875,3.8981 2.19309625,3.8981 C2.14618375,3.79618 2.33180875,3.73862 2.53025875,3.6983 C2.69981875,3.6031 2.9093725,3.51858 3.09219625,3.4319 C3.26962,3.37454 3.5210575,3.1995 3.54181375,3.1655 C3.3725575,3.17602 3.3739075,3.2215 3.20465125,3.23206 C3.45595375,3.2091 3.63665125,3.16542 3.93520375,3.16542 C4.20614875,3.06222 4.43828125,2.94902 4.66579,2.83238 C4.76488,2.68886 4.80889,2.69918 4.5534025,2.69918 C4.77996625,2.61286 5.101435,2.57146 5.28398875,2.49938 C5.54966875,2.4319 5.78686375,2.32926 5.95838125,2.23298 C6.12294625,2.10034 6.21791875,1.94594 6.40793125,1.83338 C6.62825125,2.01086 6.63074875,2.03314 7.02616375,2.03314 C7.34375125,2.02866 7.53815125,1.93822 7.70048875,1.76674 C7.94375875,1.6881 7.98679,1.54954 8.26249375,1.50034 C8.51372875,1.55346 8.76975625,1.5669 9.04927375,1.5669 C9.32251375,1.4821 9.5783725,1.3265 9.77986,1.1673 C9.95174875,1.06722 10.155835,0.9225 10.3417975,0.83426 C10.54666,0.95958 10.7077825,1.06026 10.96003,1.10066 C11.22085,1.05474 11.3564913,0.90594 11.5782288,0.83426 C11.6989525,0.66106 11.8744525,0.56898 12.0840063,0.50126 C12.4103688,0.31126 12.38482,0.56418 12.5335563,0.76766 C12.6987963,0.97294 12.9174288,0.87486 13.1517888,0.96746 C13.2810513,1.20318 13.376125,1.36402 13.5452125,1.50026 C13.6765,1.68866 13.8323575,1.74166 14.10715,1.76666 C14.20732,1.92498 14.1274675,2.03914 14.3319925,2.09974 C14.4125538,2.20094 14.5519413,2.24398 14.669155,2.29954" stroke="#772600" stroke-width="0.1"></path>
                        <path d="M18.743725,7.59462 L18.743725,7.62794 C18.743725,7.53486 18.7402488,7.58434 18.7999188,7.76114 C18.82,7.90674 18.7725813,7.88994 18.7156113,7.99426 C18.7059588,8.14318 18.6875313,8.25026 18.6875313,8.42718 C18.6694075,8.57166 18.6007938,8.70878 18.54703,8.82678 C18.492895,8.9521 18.2582988,9.02158 18.2660275,9.19318 C18.131365,9.23878 18.1281925,9.13538 18.12556,8.95998 C18.0450325,8.85094 18.017155,8.70134 17.956945,8.56038 C17.91955,8.42134 17.8398325,8.3191 17.7883638,8.16078 C17.7053388,8.0093 17.6349363,7.96574 17.5635888,7.79438 C17.5356775,7.71178 17.5405375,7.6097 17.4792813,7.5613 C17.3874813,7.42378 17.3277438,7.4017 17.1701313,7.39478 C17.0489688,7.42858 17.0023938,7.49142 16.8891963,7.52798 C16.8024588,7.56226 16.6337088,7.55118 16.52392,7.59462 C16.49665,7.64718 16.57792,7.67222 16.6082275,7.79442 C16.5361713,7.86498 16.509475,7.98974 16.4677263,8.09414 C16.4014075,8.19362 16.356925,8.24238 16.327225,8.3939 C16.3731925,8.48654 16.333975,8.60938 16.2709975,8.69362 C16.251625,8.84818 16.18885,8.92858 16.15861,9.06002 C16.0679575,9.13302 16.035355,9.2015 15.961915,9.32642 C15.8973175,9.43354 15.8392,9.4263 15.6809125,9.4263 C15.5571513,9.3863 15.5398375,9.30678 15.4280238,9.25978 C15.4161438,9.21754 15.4075038,9.2073 15.37183,9.19322" stroke="#782600" stroke-width="0.1"></path>
                        <path d="M15.70625,8.94175 C15.70625,8.94175 15.649375,9.561125 15.250875,9.974 C14.852375,10.386875 14.026625,10.868625 14.026625,10.868625 C14.026625,10.868625 15.136875,10.340875 15.25075,10.455625 C15.3645,10.57025 14.539,11.487875 14.539,11.487875 C14.539,11.487875 15.620875,10.524375 15.76325,10.524375 C15.905625,10.524375 16.21875,11.464875 16.332625,11.441875 C16.446625,11.419 16.076375,10.249125 16.1335,10.065625 C16.190375,9.882125 16.1335,8.895625 16.1335,8.895625 L15.7065,8.941625 L15.70625,8.94175 Z M18.26825,8.85775 C18.26825,8.85775 18.21125,9.519875 17.81275,9.96125 C17.41425,10.402625 16.5885,10.9175 16.5885,10.9175 C16.5885,10.9175 17.69875,10.3535 17.812625,10.47625 C17.92675,10.59875 17.101125,11.579625 17.101125,11.579625 C17.101125,11.579625 18.182875,10.549625 18.32525,10.549625 C18.467625,10.549625 18.780875,11.555 18.89475,11.5305 C19.0085,11.506 18.6385,10.2555 18.6955,10.05925 C18.752375,9.863 18.6955,8.80875 18.6955,8.80875 L18.2685,8.85775 L18.26825,8.85775 Z M14.681625,2.852125 C14.681625,2.9755 14.56075,3.075625 14.411625,3.075625 C14.2625,3.075625 14.141875,2.975625 14.141875,2.852125 C14.141875,2.728625 14.262625,2.62875 14.411875,2.62875 C14.561125,2.62875 14.681625,2.72875 14.681625,2.852125 L14.681625,2.852125 Z" fill="#812E00"></path>
                    </g>
                </g>
            </g>
        </g>
    </g>
</svg>