<?xml version="1.0" encoding="UTF-8" standalone="no"?>
<svg width="122px" height="60px" viewBox="0 0 122 60" version="1.1" xmlns="http://www.w3.org/2000/svg" xmlns:xlink="http://www.w3.org/1999/xlink">
    <!-- Generator: Sketch 3.8.2 (29753) - http://www.bohemiancoding.com/sketch -->
    <title>um</title>
    <desc>Created with Sketch.</desc>
    <defs></defs>
    <g id="Page-1" stroke="none" stroke-width="1" fill="none" fill-rule="evenodd">
        <g id="um">
            <g id="The-United-States-of-America-flag,-produced-by-Daniel-McRae">
                <g>
                    <g id="Clipped">
                        <g id="Group">
                            <g>
                                <g>
                                    <rect id="Rectangle-286" fill="#FFFFFF" x="0" y="0" width="122" height="60"></rect>
                                    <path d="M0,0 L122,0 L122,4.32696533 L0,4.32696533 L0,0 Z M0,8.65393066 L122,8.65393066 L122,12.980896 L0,12.980896 L0,8.65393066 Z M0,17.3078613 L122,17.3078613 L122,21.6348267 L0,21.6348267 L0,17.3078613 Z M0,25.961792 L122,25.961792 L122,30.2887573 L0,30.2887573 L0,25.961792 Z M0,34.6157227 L122,34.6157227 L122,38.942688 L0,38.942688 L0,34.6157227 Z M0,43.2696533 L122,43.2696533 L122,47.5966187 L0,47.5966187 L0,43.2696533 Z M0,51.923584 L122,51.923584 L122,56.2505493 L0,56.2505493 L0,51.923584 Z" id="Shape" fill="#BD3D44"></path>
                                </g>
                            </g>
                            <polygon id="Shape" fill="#192F5D" points="0 0 42.75 0 42.75 30.288208 0 30.288208"></polygon>
                            <g transform="translate(1.867676, 1.208496)" id="Shape" fill="#FFFFFF">
                                <path d="M1.69486084,0.087890625 L2.08377686,1.28496094 L3.34259033,1.28496094 L2.32415771,2.02489014 L2.71318359,3.22196045 L1.69475098,2.48214111 L0.676538086,3.22196045 L1.0654541,2.02489014 L0.0471313477,1.28496094 L1.30583496,1.28496094 L1.69486084,0.087890625 Z M8.81982422,0.087890625 L9.2088501,1.28496094 L10.4676636,1.28496094 L9.44923096,2.02489014 L9.83825684,3.22196045 L8.81982422,2.48214111 L7.80161133,3.22196045 L8.19052734,2.02489014 L7.17220459,1.28496094 L8.4309082,1.28496094 L8.81982422,0.087890625 Z M15.9451172,0.087890625 L16.3340332,1.28496094 L17.5928467,1.28496094 L16.5744141,2.02489014 L16.9634399,3.22196045 L15.9451172,2.48214111 L14.9267944,3.22196045 L15.3157104,2.02489014 L14.2973877,1.28496094 L15.5562012,1.28496094 L15.9451172,0.087890625 Z M23.0699707,0.087890625 L23.4588867,1.28496094 L24.7175903,1.28496094 L23.6992676,2.02489014 L24.0881836,3.22196045 L23.0699707,2.48214111 L22.0515381,3.22196045 L22.440564,2.02489014 L21.4221313,1.28496094 L22.6809448,1.28496094 L23.0699707,0.087890625 Z M30.1951538,0.087890625 L30.5840698,1.28496094 L31.8428833,1.28496094 L30.8244507,2.02489014 L31.2134766,3.22196045 L30.1950439,2.48214111 L29.1768311,3.22196045 L29.5657471,2.02489014 L28.5474243,1.28496094 L29.8061279,1.28496094 L30.1951538,0.087890625 Z M37.3203369,0.087890625 L37.7092529,1.28496094 L38.9680664,1.28496094 L37.9496338,2.02489014 L38.3386597,3.22196045 L37.3203369,2.48214111 L36.3019043,3.22196045 L36.69104,2.02489014 L35.6726074,1.28496094 L36.9314209,1.28496094 L37.3203369,0.087890625 Z"></path>
                                <path d="M5.25750732,3.11682129 L5.64642334,4.3138916 L6.90523682,4.3138916 L5.8868042,5.05371094 L6.27593994,6.25089111 L5.25750732,5.51107178 L4.23918457,6.25089111 L4.62810059,5.05371094 L3.60977783,4.3138916 L4.86859131,4.3138916 L5.25750732,3.11682129 Z M12.3823608,3.11682129 L12.7712769,4.3138916 L14.0299805,4.3138916 L13.0116577,5.05371094 L13.4005737,6.25089111 L12.3823608,5.51107178 L11.3639282,6.25089111 L11.7529541,5.05371094 L10.7345215,4.3138916 L11.993335,4.3138916 L12.3823608,3.11682129 Z M19.5075439,3.11682129 L19.89646,4.3138916 L21.1552734,4.3138916 L20.1368408,5.05371094 L20.5258667,6.25089111 L19.5074341,5.51107178 L18.4892212,6.25089111 L18.8781372,5.05371094 L17.8598145,4.3138916 L19.1185181,4.3138916 L19.5075439,3.11682129 Z M26.6327271,3.11682129 L27.0216431,4.3138916 L28.2804565,4.3138916 L27.2620239,5.05371094 L27.6510498,6.25089111 L26.6327271,5.51107178 L25.6142944,6.25089111 L26.00354,5.05371094 L24.9851074,4.3138916 L26.2439209,4.3138916 L26.6327271,3.11682129 Z M33.7575806,3.11682129 L34.1464966,4.3138916 L35.4052002,4.3138916 L34.3868774,5.05371094 L34.7757935,6.25089111 L33.7575806,5.51107178 L32.7391479,6.25089111 L33.1281738,5.05371094 L32.1097412,4.3138916 L33.3685547,4.3138916 L33.7575806,3.11682129 Z"></path>
                                <g transform="translate(0.000000, 6.042480)">
                                    <path d="M1.69486084,0.103161621 L2.08377686,1.30023193 L3.34259033,1.30023193 L2.32415771,2.04016113 L2.71318359,3.23723145 L1.69475098,2.49741211 L0.676538086,3.23723145 L1.0654541,2.04016113 L0.0471313477,1.30023193 L1.30583496,1.30023193 L1.69486084,0.103161621 Z M8.81982422,0.103161621 L9.2088501,1.30023193 L10.4676636,1.30023193 L9.44923096,2.04016113 L9.83825684,3.23723145 L8.81982422,2.49741211 L7.80161133,3.23723145 L8.19052734,2.04016113 L7.17220459,1.30023193 L8.4309082,1.30023193 L8.81982422,0.103161621 Z M15.9451172,0.103161621 L16.3340332,1.30023193 L17.5928467,1.30023193 L16.5744141,2.04016113 L16.9634399,3.23723145 L15.9451172,2.49741211 L14.9267944,3.23723145 L15.3157104,2.04016113 L14.2973877,1.30023193 L15.5562012,1.30023193 L15.9451172,0.103161621 Z M23.0699707,0.103161621 L23.4588867,1.30023193 L24.7175903,1.30023193 L23.6992676,2.04016113 L24.0881836,3.23723145 L23.0699707,2.49741211 L22.0515381,3.23723145 L22.440564,2.04016113 L21.4221313,1.30023193 L22.6809448,1.30023193 L23.0699707,0.103161621 Z M30.1951538,0.103161621 L30.5840698,1.30023193 L31.8428833,1.30023193 L30.8244507,2.04016113 L31.2134766,3.23723145 L30.1950439,2.49741211 L29.1768311,3.23723145 L29.5657471,2.04016113 L28.5474243,1.30023193 L29.8061279,1.30023193 L30.1951538,0.103161621 Z M37.3203369,0.103161621 L37.7092529,1.30023193 L38.9680664,1.30023193 L37.9496338,2.04016113 L38.3386597,3.23723145 L37.3203369,2.49741211 L36.3019043,3.23723145 L36.69104,2.04016113 L35.6726074,1.30023193 L36.9314209,1.30023193 L37.3203369,0.103161621 Z"></path>
                                    <path d="M5.25750732,3.13198242 L5.64642334,4.3291626 L6.90523682,4.3291626 L5.8868042,5.06898193 L6.27593994,6.26616211 L5.25750732,5.52634277 L4.23918457,6.26616211 L4.62810059,5.06898193 L3.60977783,4.3291626 L4.86859131,4.3291626 L5.25750732,3.13198242 Z M12.3823608,3.13198242 L12.7712769,4.3291626 L14.0299805,4.3291626 L13.0116577,5.06898193 L13.4005737,6.26616211 L12.3823608,5.52634277 L11.3639282,6.26616211 L11.7529541,5.06898193 L10.7345215,4.3291626 L11.993335,4.3291626 L12.3823608,3.13198242 Z M19.5075439,3.13198242 L19.89646,4.3291626 L21.1552734,4.3291626 L20.1368408,5.06898193 L20.5258667,6.26616211 L19.5074341,5.52634277 L18.4892212,6.26616211 L18.8781372,5.06898193 L17.8598145,4.3291626 L19.1185181,4.3291626 L19.5075439,3.13198242 Z M26.6327271,3.13198242 L27.0216431,4.3291626 L28.2804565,4.3291626 L27.2620239,5.06898193 L27.6510498,6.26616211 L26.6327271,5.52634277 L25.6142944,6.26616211 L26.0034302,5.06898193 L24.9849976,4.3291626 L26.243811,4.3291626 L26.6327271,3.13198242 Z M33.7575806,3.13198242 L34.1464966,4.3291626 L35.4052002,4.3291626 L34.3868774,5.06898193 L34.7757935,6.26616211 L33.7575806,5.52634277 L32.7391479,6.26616211 L33.1281738,5.06898193 L32.1097412,4.3291626 L33.3685547,4.3291626 L33.7575806,3.13198242 Z"></path>
                                </g>
                                <g transform="translate(0.000000, 12.194824)">
                                    <path d="M1.69486084,0.00856933594 L2.08377686,1.20563965 L3.34259033,1.20563965 L2.32415771,1.94556885 L2.71318359,3.14263916 L1.69475098,2.40281982 L0.676538086,3.14263916 L1.0654541,1.94556885 L0.0471313477,1.20563965 L1.30583496,1.20563965 L1.69486084,0.00856933594 Z M8.81982422,0.00856933594 L9.2088501,1.20563965 L10.4676636,1.20563965 L9.44923096,1.94556885 L9.83825684,3.14263916 L8.81982422,2.40281982 L7.80161133,3.14263916 L8.19052734,1.94556885 L7.17220459,1.20563965 L8.4309082,1.20563965 L8.81982422,0.00856933594 Z M15.9451172,0.00856933594 L16.3340332,1.20563965 L17.5928467,1.20563965 L16.5744141,1.94556885 L16.9634399,3.14263916 L15.9451172,2.40281982 L14.9267944,3.14263916 L15.3157104,1.94556885 L14.2973877,1.20563965 L15.5562012,1.20563965 L15.9451172,0.00856933594 Z M23.0699707,0.00856933594 L23.4588867,1.20563965 L24.7175903,1.20563965 L23.6992676,1.94556885 L24.0881836,3.14263916 L23.0699707,2.40281982 L22.0515381,3.14263916 L22.440564,1.94556885 L21.4221313,1.20563965 L22.6809448,1.20563965 L23.0699707,0.00856933594 Z M30.1951538,0.00856933594 L30.5840698,1.20563965 L31.8428833,1.20563965 L30.8244507,1.94556885 L31.2134766,3.14263916 L30.1950439,2.40281982 L29.1768311,3.14263916 L29.5657471,1.94556885 L28.5474243,1.20563965 L29.8061279,1.20563965 L30.1951538,0.00856933594 Z M37.3203369,0.00856933594 L37.7092529,1.20563965 L38.9680664,1.20563965 L37.9496338,1.94556885 L38.3386597,3.14263916 L37.3203369,2.40281982 L36.3019043,3.14263916 L36.69104,1.94556885 L35.6726074,1.20563965 L36.9314209,1.20563965 L37.3203369,0.00856933594 Z"></path>
                                    <path d="M5.25750732,3.03739014 L5.64642334,4.23457031 L6.90523682,4.23457031 L5.8868042,4.97438965 L6.27593994,6.17156982 L5.25750732,5.43175049 L4.23918457,6.17156982 L4.62810059,4.97438965 L3.60977783,4.23457031 L4.86859131,4.23457031 L5.25750732,3.03739014 Z M12.3823608,3.03739014 L12.7712769,4.23457031 L14.0299805,4.23457031 L13.0116577,4.97438965 L13.4005737,6.17156982 L12.3823608,5.43175049 L11.3639282,6.17156982 L11.7529541,4.97438965 L10.7345215,4.23457031 L11.993335,4.23457031 L12.3823608,3.03739014 Z M19.5075439,3.03739014 L19.89646,4.23457031 L21.1552734,4.23457031 L20.1368408,4.97438965 L20.5258667,6.17156982 L19.5074341,5.43175049 L18.4892212,6.17156982 L18.8781372,4.97438965 L17.8598145,4.23457031 L19.1185181,4.23457031 L19.5075439,3.03739014 Z M26.6327271,3.03739014 L27.0216431,4.23457031 L28.2804565,4.23457031 L27.2620239,4.97438965 L27.6510498,6.17156982 L26.6327271,5.43175049 L25.6142944,6.17156982 L26.0034302,4.97438965 L24.9849976,4.23457031 L26.243811,4.23457031 L26.6327271,3.03739014 Z M33.7575806,3.03739014 L34.1464966,4.23457031 L35.4052002,4.23457031 L34.3868774,4.97438965 L34.7757935,6.17156982 L33.7575806,5.43175049 L32.7391479,6.17156982 L33.1281738,4.97438965 L32.1097412,4.23457031 L33.3685547,4.23457031 L33.7575806,3.03739014 Z"></path>
                                </g>
                                <g transform="translate(0.000000, 18.237305)">
                                    <path d="M1.69486084,0.023840332 L2.08377686,1.22091064 L3.34259033,1.22091064 L2.32415771,1.96083984 L2.71318359,3.15791016 L1.69475098,2.41809082 L0.676538086,3.15791016 L1.0654541,1.96083984 L0.0471313477,1.22091064 L1.30583496,1.22091064 L1.69486084,0.023840332 Z M8.81982422,0.023840332 L9.2088501,1.22091064 L10.4676636,1.22091064 L9.44923096,1.96083984 L9.83825684,3.15791016 L8.81982422,2.41809082 L7.80161133,3.15791016 L8.19052734,1.96083984 L7.17220459,1.22091064 L8.4309082,1.22091064 L8.81982422,0.023840332 Z M15.9451172,0.023840332 L16.3340332,1.22091064 L17.5928467,1.22091064 L16.5744141,1.96083984 L16.9634399,3.15791016 L15.9451172,2.41809082 L14.9267944,3.15791016 L15.3157104,1.96083984 L14.2973877,1.22091064 L15.5562012,1.22091064 L15.9451172,0.023840332 Z M23.0699707,0.023840332 L23.4588867,1.22091064 L24.7175903,1.22091064 L23.6992676,1.96083984 L24.0881836,3.15791016 L23.0699707,2.41809082 L22.0515381,3.15791016 L22.440564,1.96083984 L21.4221313,1.22091064 L22.6809448,1.22091064 L23.0699707,0.023840332 Z M30.1951538,0.023840332 L30.5840698,1.22091064 L31.8428833,1.22091064 L30.8244507,1.96083984 L31.2134766,3.15791016 L30.1950439,2.41809082 L29.1768311,3.15791016 L29.5657471,1.96083984 L28.5474243,1.22091064 L29.8061279,1.22091064 L30.1951538,0.023840332 Z M37.3203369,0.023840332 L37.7092529,1.22091064 L38.9680664,1.22091064 L37.9496338,1.96083984 L38.3386597,3.15791016 L37.3203369,2.41809082 L36.3019043,3.15791016 L36.69104,1.96083984 L35.6726074,1.22091064 L36.9314209,1.22091064 L37.3203369,0.023840332 Z"></path>
                                    <path d="M5.25750732,3.05266113 L5.64642334,4.24984131 L6.90523682,4.24984131 L5.8868042,4.98966064 L6.27593994,6.18684082 L5.25750732,5.44702148 L4.23918457,6.18684082 L4.62810059,4.98966064 L3.60977783,4.24984131 L4.86859131,4.24984131 L5.25750732,3.05266113 Z M12.3823608,3.05266113 L12.7712769,4.24984131 L14.0299805,4.24984131 L13.0116577,4.98966064 L13.4005737,6.18684082 L12.3823608,5.44702148 L11.3639282,6.18684082 L11.7529541,4.98966064 L10.7345215,4.24984131 L11.993335,4.24984131 L12.3823608,3.05266113 Z M19.5075439,3.05266113 L19.89646,4.24984131 L21.1552734,4.24984131 L20.1368408,4.98966064 L20.5258667,6.18684082 L19.5074341,5.44702148 L18.4892212,6.18684082 L18.8781372,4.98966064 L17.8598145,4.24984131 L19.1185181,4.24984131 L19.5075439,3.05266113 Z M26.6327271,3.05266113 L27.0216431,4.24984131 L28.2804565,4.24984131 L27.2620239,4.98966064 L27.6510498,6.18684082 L26.6327271,5.44702148 L25.6142944,6.18684082 L26.0034302,4.98966064 L24.9849976,4.24984131 L26.243811,4.24984131 L26.6327271,3.05266113 Z M33.7575806,3.05266113 L34.1464966,4.24984131 L35.4052002,4.24984131 L34.3868774,4.98966064 L34.7757935,6.18684082 L33.7575806,5.44702148 L32.7391479,6.18684082 L33.1281738,4.98966064 L32.1097412,4.24984131 L33.3685547,4.24984131 L33.7575806,3.05266113 Z"></path>
                                </g>
                                <path d="M1.69486084,24.3188965 L2.08377686,25.5159668 L3.34259033,25.5159668 L2.32415771,26.255896 L2.71318359,27.4529663 L1.69475098,26.713147 L0.676538086,27.4529663 L1.0654541,26.255896 L0.0471313477,25.5159668 L1.30583496,25.5159668 L1.69486084,24.3188965 Z M8.81982422,24.3188965 L9.2088501,25.5159668 L10.4676636,25.5159668 L9.44923096,26.255896 L9.83825684,27.4529663 L8.81982422,26.713147 L7.80161133,27.4529663 L8.19052734,26.255896 L7.17220459,25.5159668 L8.4309082,25.5159668 L8.81982422,24.3188965 Z M15.9451172,24.3188965 L16.3340332,25.5159668 L17.5928467,25.5159668 L16.5744141,26.255896 L16.9634399,27.4529663 L15.9451172,26.713147 L14.9267944,27.4529663 L15.3157104,26.255896 L14.2973877,25.5159668 L15.5562012,25.5159668 L15.9451172,24.3188965 Z M23.0699707,24.3188965 L23.4588867,25.5159668 L24.7175903,25.5159668 L23.6992676,26.255896 L24.0881836,27.4529663 L23.0699707,26.713147 L22.0515381,27.4529663 L22.440564,26.255896 L21.4221313,25.5159668 L22.6809448,25.5159668 L23.0699707,24.3188965 Z M30.1951538,24.3188965 L30.5840698,25.5159668 L31.8428833,25.5159668 L30.8244507,26.255896 L31.2134766,27.4529663 L30.1950439,26.713147 L29.1768311,27.4529663 L29.5657471,26.255896 L28.5474243,25.5159668 L29.8061279,25.5159668 L30.1951538,24.3188965 Z M37.3203369,24.3188965 L37.7092529,25.5159668 L38.9680664,25.5159668 L37.9496338,26.255896 L38.3386597,27.4529663 L37.3203369,26.713147 L36.3019043,27.4529663 L36.69104,26.255896 L35.6726074,25.5159668 L36.9314209,25.5159668 L37.3203369,24.3188965 Z"></path>
                            </g>
                        </g>
                    </g>
                </g>
            </g>
        </g>
    </g>
</svg>