<?xml version="1.0" encoding="UTF-8" standalone="no"?>
<svg width="122px" height="60px" viewBox="0 0 122 60" version="1.1" xmlns="http://www.w3.org/2000/svg" xmlns:xlink="http://www.w3.org/1999/xlink">
    <!-- Generator: Sketch 3.8.2 (29753) - http://www.bohemiancoding.com/sketch -->
    <title>tn</title>
    <desc>Created with Sketch.</desc>
    <defs></defs>
    <g id="Page-1" stroke="none" stroke-width="1" fill="none" fill-rule="evenodd">
        <g id="tn">
            <g transform="translate(-1.000000, 0.000000)" id="Clipped">
                <g>
                    <g id="Group" transform="translate(0.411184, 0.000000)">
                        <rect id="Rectangle-277" fill="#E70013" x="0.588815789" y="0" width="122" height="60"></rect>
                        <path d="M76.4196135,30.5790116 C76.4196135,38.8263903 69.7337968,45.512207 61.4864181,45.512207 C53.2389237,45.512207 46.553107,38.8262747 46.553107,30.578896 C46.553107,22.3315173 53.2390394,15.6457006 61.4864181,15.6457006 C69.7339124,15.6457006 76.4197291,22.3316329 76.4197291,30.5790116 L76.4196135,30.5790116 Z" id="Shape" fill="#FFFFFF"></path>
                        <path d="M61.4865337,40.4825504 C56.0199681,40.4825504 51.5832263,36.0459241 51.5832263,30.5792429 C51.5832263,25.1125617 56.0198525,20.6758198 61.4865337,20.6758198 C62.8532329,20.6758198 64.408897,20.9902601 65.4655505,21.7663574 C58.2226691,22.038934 56.3906122,28.1820261 56.3906122,30.6577662 C56.3906122,33.1335064 57.5618704,38.6551192 65.4654348,39.4705361 C64.5660593,40.0502673 62.8532329,40.4824347 61.4865337,40.4824347 L61.4865337,40.4825504 Z" id="Shape" fill="#E70013"></path>
                        <polygon id="Shape" fill="#E70013" points="70.2096782 34.7436395 65.7122225 33.1037855 62.7378187 36.8526676 62.9086272 32.0700298 58.4230829 30.3989515 63.0255448 29.0837145 63.2272307 24.3010768 65.900956 28.272114 70.5117444 26.986598 67.5623201 30.7559493"></polygon>
                    </g>
                </g>
            </g>
        </g>
    </g>
</svg>