<?xml version="1.0" encoding="UTF-8" standalone="no"?>
<svg width="122px" height="60px" viewBox="0 0 122 60" version="1.1" xmlns="http://www.w3.org/2000/svg" xmlns:xlink="http://www.w3.org/1999/xlink">
    <!-- Generator: Sketch 3.8.2 (29753) - http://www.bohemiancoding.com/sketch -->
    <title>kz</title>
    <desc>Created with Sketch.</desc>
    <defs></defs>
    <g id="Page-1" stroke="none" stroke-width="1" fill="none" fill-rule="evenodd">
        <g id="kz">
            <g id="Group">
                <g>
                    <polygon id="Shape" fill="#6FDCFF" points="0 0 122 0 122 60 0 60"></polygon>
                    <g transform="translate(3.000000, 0.625000)" id="Shape" fill="#FFE400">
                        <path d="M4.529375,57.749375 C4.935875,58.147375 4.802125,58.81675 5.9325,58.730625 C7.65825,58.730625 7.708,57.675 7.708,56.93775 C7.708,56.20175 5.136625,55.17225 5.01825,54.089125 C4.89825,53.004875 5.61175,52.702125 6.20875,52.702125 C6.80225,52.702125 7.219,53.04925 7.219,53.351875 C7.219,53.6545 6.92225,53.742125 6.5055,53.742125 C6.08875,53.742125 6.683875,53.5255 6.327125,53.351875 C5.970375,53.17825 5.731875,53.611625 5.731875,53.872625 C5.731875,54.13225 6.623875,54.218375 7.219,54.023875 C7.339125,54.6085 7.3975,54.652875 6.56375,55.6485 C7.16075,55.258375 7.217375,55.17225 7.874375,55.388875 C7.219,54.825125 7.709625,53.676875 7.731875,53.3845 C7.754125,53.092125 7.60675,52.745125 7.339125,52.571625 C6.86225,52.138375 5.821,52.118875 5.196625,52.398125 C4.2875,52.803875 4.242875,54.0005 4.481375,54.391875 L7.00125,56.975625 C7.179625,57.279625 7.24125,58.123875 6.171,58.166875 C5.0405,58.253125 4.652875,56.711875 4.45225,56.199125 C4.182875,56.759 3.882625,58.303875 2.75225,58.217875 C1.680125,58.17475 1.47425,57.330375 1.652625,57.0265 L4.241125,54.391875 C4.477875,54.0005 4.43325,52.803875 3.524125,52.398125 C2.89975,52.118875 1.86025,52.138375 1.383375,52.571625 C1.11575,52.745125 0.9665,53.09225 0.988875,53.3845 C1.01125,53.67675 1.50175,54.825125 0.846375,55.388875 C1.503375,55.17225 1.56175,55.258375 2.157,55.6485 C1.32325,54.652875 1.38325,54.6085 1.50175,54.023875 C2.097,54.218375 2.990625,54.13225 2.990625,53.872625 C2.990625,53.611625 2.7505,53.178375 2.39375,53.351875 C2.038625,53.5255 2.632125,53.742125 2.217,53.742125 C1.7985,53.742125 1.50175,53.654625 1.50175,53.351875 C1.50175,53.049125 1.9185,52.702125 2.51375,52.702125 C3.109,52.702125 3.8225,53.004875 3.7025,54.089125 C3.584125,55.17225 0.945875,56.3545 0.945875,57.090375 C0.945875,57.827625 1.1295,58.730625 2.855125,58.730625 C3.985625,58.81675 4.119375,58.147375 4.529375,57.749375 L4.529375,57.749375 Z"></path>
                        <path d="M4.392125,42.286625 C4.798625,41.888625 5.133125,40.709 6.263625,40.795125 C7.98925,40.795125 8.642875,41.748875 8.642875,42.48625 C8.642875,43.222125 5.133125,49.24675 5.014875,50.329875 C4.89475,51.414125 5.608375,51.716875 6.20525,51.716875 C6.79875,51.716875 7.215625,51.369875 7.215625,51.067125 C7.215625,50.764375 6.918875,50.676875 6.502,50.676875 C6.085125,50.676875 6.6805,50.8935 6.323625,51.067125 C5.96675,51.24075 5.728375,50.807375 5.728375,50.5465 C5.728375,50.28675 6.620375,50.200625 7.215625,50.395125 C7.335625,49.8105 7.394,49.766125 6.560375,48.7705 C7.157375,49.160625 7.213875,49.24675 7.870875,49.030125 C7.215625,49.593875 7.70625,50.742125 7.7285,51.0345 C7.75075,51.326875 7.603375,51.673875 7.33575,51.847375 C6.858875,52.280625 5.817625,52.30025 5.19325,52.021 C4.284125,51.615125 4.2395,50.4185 4.477875,50.027125 L7.869125,42.702875 C8.047625,42.39875 7.5725,41.401875 6.502,41.358875 C5.371625,41.272625 4.984,42.457625 4.78325,42.970375 L6.323625,42.858125 C6.323625,42.858125 6.383625,43.095625 6.323625,43.249625 C5.52775,43.30175 4.78325,43.446625 4.78325,43.446625 L4.724875,44.226875 L5.484875,44.226875 L5.424875,44.57275 C5.424875,44.57275 4.78325,44.529625 4.724875,44.57275 C4.664875,44.61575 4.604875,45.354375 4.604875,45.354375 C4.604875,45.354375 4.4865,45.397375 4.357875,45.397375 C4.2275,45.397375 4.109125,45.354375 4.109125,45.354375 C4.109125,45.354375 4.049125,44.61575 3.99075,44.57275 C3.93075,44.529625 3.289125,44.57275 3.289125,44.57275 L3.230875,44.226875 L3.99075,44.226875 L3.93075,43.446625 C3.93075,43.446625 3.18625,43.30175 2.39025,43.249625 C2.332,43.095625 2.39025,42.858125 2.39025,42.858125 L3.93075,42.970375 C3.73,42.4575 3.342375,41.27275 2.213625,41.358875 C1.1415,41.401875 0.666375,42.398875 0.84475,42.702875 L4.23775,50.027125 C4.4745,50.418625 4.429875,51.615125 3.52075,52.020875 C2.896375,52.30025 1.85675,52.280625 1.38,51.847375 C1.112375,51.673875 0.963125,51.32675 0.985375,51.0345 C1.007625,50.74225 1.49825,49.593875 0.843,49.030125 C1.5,49.24675 1.558375,49.160625 2.153625,48.7705 C1.319875,49.766125 1.379875,49.8105 1.49825,50.395125 C2.0935,50.200625 2.98725,50.28675 2.98725,50.546375 C2.98725,50.807375 2.747125,51.240625 2.39025,51.067125 C2.03525,50.8935 2.62875,50.676875 2.213625,50.676875 C1.795,50.676875 1.49825,50.764375 1.49825,51.067125 C1.49825,51.369875 1.915125,51.716875 2.510375,51.716875 C3.105625,51.716875 3.819125,51.414125 3.699125,50.329875 C3.58075,49.24675 0.071125,43.222125 0.071125,42.486125 C0.071125,41.749 0.724625,40.795125 2.450375,40.795125 C3.58075,40.708875 3.982125,41.888625 4.392125,42.286625 L4.392125,42.286625 Z"></path>
                        <path d="M4.392125,39.301 C4.798625,39.699 5.133125,40.878625 6.263625,40.7925 C7.98925,40.7925 8.642875,39.83875 8.642875,39.101375 C8.642875,38.365375 5.133125,32.340875 5.01475,31.25775 C4.89475,30.173375 5.608375,29.87075 6.20525,29.87075 C6.79875,29.87075 7.215625,30.21775 7.215625,30.5205 C7.215625,30.82325 6.918875,30.910625 6.502,30.910625 C6.085125,30.910625 6.680375,30.694125 6.323625,30.520625 C5.966875,30.347125 5.728375,30.78025 5.728375,31.041125 C5.728375,31.300875 6.620375,31.387 7.215625,31.1925 C7.335625,31.777125 7.394,31.8215 6.560375,32.817125 C7.15725,32.427 7.213875,32.340875 7.870875,32.5575 C7.215625,31.99375 7.70625,30.8455 7.7285,30.553125 C7.75075,30.26075 7.60325,29.91375 7.33575,29.74025 C6.858875,29.307 5.817625,29.287375 5.19325,29.566625 C4.284,29.9725 4.2395,31.169125 4.477875,31.5605 L7.869125,38.88475 C8.047625,39.188875 7.572375,40.18575 6.502,40.22875 C5.371625,40.315 4.983875,39.13 4.78325,38.61725 L6.323625,38.7295 C6.323625,38.7295 6.383625,38.492 6.323625,38.338 C5.52775,38.285875 4.78325,38.141 4.78325,38.141 L4.724875,37.360625 L5.484875,37.360625 L5.424875,37.014875 C5.424875,37.014875 4.78325,37.058 4.724875,37.014875 C4.664875,36.971875 4.604875,36.23325 4.604875,36.23325 C4.604875,36.23325 4.4865,36.19025 4.35775,36.19025 C4.2275,36.19025 4.109,36.23325 4.109,36.23325 C4.109,36.23325 4.049,36.971875 3.99075,37.014875 C3.93075,37.058 3.289125,37.014875 3.289125,37.014875 L3.23075,37.360625 L3.99075,37.360625 L3.93075,38.141 C3.93075,38.141 3.18625,38.285875 2.39025,38.338 C2.332,38.492 2.39025,38.7295 2.39025,38.7295 L3.930625,38.61725 C3.73,39.130125 3.34225,40.314875 2.213625,40.22875 C1.1415,40.18575 0.666375,39.18875 0.84475,38.88475 L4.23775,31.5605 C4.4745,31.169 4.429875,29.9725 3.52075,29.56675 C2.896375,29.287375 1.85675,29.307 1.379875,29.74025 C1.112375,29.91375 0.963125,30.260875 0.985375,30.553125 C1.007625,30.845375 1.49825,31.99375 0.843,32.5575 C1.5,32.340875 1.558375,32.427 2.1535,32.817125 C1.319875,31.8215 1.379875,31.777125 1.49825,31.1925 C2.0935,31.387 2.98725,31.300875 2.98725,31.04125 C2.98725,30.78025 2.747125,30.347 2.39025,30.5205 C2.03525,30.694125 2.62875,30.910625 2.213625,30.910625 C1.795,30.910625 1.49825,30.82325 1.49825,30.520625 C1.49825,30.218 1.915125,29.870625 2.510375,29.870625 C3.105625,29.870625 3.819125,30.173375 3.699125,31.25775 C3.58075,32.340875 0.071125,38.365375 0.071125,39.1015 C0.071125,39.838625 0.724625,40.7925 2.450375,40.7925 C3.58075,40.878625 3.982125,39.699 4.392125,39.301 L4.392125,39.301 Z"></path>
                        <path d="M4.392125,19.45125 C4.798625,19.05325 5.133125,17.87375 6.263625,17.95975 C7.98925,17.95975 8.642875,18.913625 8.642875,19.651 C8.642875,20.386875 5.133125,26.4115 5.014875,27.4945 C4.89475,28.578875 5.608375,28.881625 6.20525,28.881625 C6.79875,28.881625 7.215625,28.5345 7.215625,28.23175 C7.215625,27.929 6.918875,27.841625 6.502,27.841625 C6.085125,27.841625 6.6805,28.05825 6.323625,28.23175 C5.96675,28.40525 5.728375,27.972125 5.728375,27.711125 C5.728375,27.4515 6.620375,27.365375 7.215625,27.559875 C7.335625,26.975125 7.394,26.930875 6.560375,25.93525 C7.157375,26.32525 7.213875,26.4115 7.870875,26.194875 C7.215625,26.758625 7.70625,27.906875 7.7285,28.199125 C7.75075,28.491375 7.603375,28.8385 7.33575,29.012125 C6.858875,29.44525 5.817625,29.464875 5.19325,29.185625 C4.284125,28.779875 4.2395,27.58325 4.477875,27.191875 L7.869125,19.8675 C8.047625,19.5635 7.5725,18.566625 6.502,18.5235 C5.371625,18.437375 4.984,19.62225 4.78325,20.135 L6.323625,20.02275 C6.323625,20.02275 6.383625,20.26025 6.323625,20.41425 C5.52775,20.4665 4.78325,20.61125 4.78325,20.61125 L4.724875,21.391625 L5.484875,21.391625 L5.424875,21.737375 C5.424875,21.737375 4.78325,21.694375 4.724875,21.737375 C4.664875,21.7805 4.604875,22.519 4.604875,22.519 C4.604875,22.519 4.4865,22.562125 4.357875,22.562125 C4.2275,22.562125 4.109125,22.519 4.109125,22.519 C4.109125,22.519 4.049125,21.7805 3.99075,21.737375 C3.93075,21.694375 3.289125,21.737375 3.289125,21.737375 L3.230875,21.391625 L3.99075,21.391625 L3.93075,20.61125 C3.93075,20.61125 3.18625,20.4665 2.39025,20.41425 C2.332,20.26025 2.39025,20.02275 2.39025,20.02275 L3.93075,20.135 C3.73,19.62225 3.342375,18.4375 2.213625,18.5235 C1.1415,18.566625 0.666375,19.5635 0.84475,19.8675 L4.23775,27.19175 C4.4745,27.58325 4.429875,28.779875 3.52075,29.185625 C2.896375,29.464875 1.85675,29.44525 1.38,29.012125 C1.112375,28.8385 0.963125,28.4915 0.985375,28.199125 C1.007625,27.90675 1.49825,26.758625 0.843,26.194875 C1.5,26.4115 1.558375,26.325375 2.153625,25.93525 C1.319875,26.930875 1.379875,26.97525 1.49825,27.55975 C2.0935,27.365375 2.98725,27.4515 2.98725,27.711125 C2.98725,27.972125 2.747125,28.405375 2.39025,28.23175 C2.03525,28.05825 2.62875,27.841625 2.213625,27.841625 C1.795,27.841625 1.49825,27.929125 1.49825,28.23175 C1.49825,28.534375 1.915125,28.881625 2.510375,28.881625 C3.105625,28.881625 3.819125,28.578875 3.699125,27.4945 C3.58075,26.4115 0.071125,20.386875 0.071125,19.650875 C0.071125,18.913625 0.724625,17.95975 2.450375,17.95975 C3.58075,17.873625 3.982125,19.05325 4.392125,19.45125 L4.392125,19.45125 Z"></path>
                        <path d="M4.392125,16.46575 C4.798625,16.86375 5.133125,18.04325 6.263625,17.95725 C7.98925,17.95725 8.642875,17.003375 8.642875,16.266 C8.642875,15.530125 5.133125,9.5055 5.01475,8.4225 C4.89475,7.338125 5.608375,7.035375 6.20525,7.035375 C6.79875,7.035375 7.215625,7.3825 7.215625,7.68525 C7.215625,7.988 6.918875,8.075375 6.502,8.075375 C6.085125,8.075375 6.680375,7.85875 6.323625,7.68525 C5.966875,7.51175 5.728375,7.944875 5.728375,8.205875 C5.728375,8.4655 6.620375,8.551625 7.215625,8.357125 C7.335625,8.94175 7.394,8.986125 6.560375,9.98175 C7.15725,9.59175 7.213875,9.5055 7.870875,9.722125 C7.215625,9.158375 7.70625,8.010125 7.7285,7.717875 C7.75075,7.425625 7.60325,7.0785 7.33575,6.904875 C6.858875,6.471625 5.817625,6.452125 5.19325,6.731375 C4.284,7.137125 4.2395,8.33375 4.477875,8.725125 L7.869125,16.0495 C8.047625,16.3535 7.572375,17.350375 6.502,17.3935 C5.371625,17.479625 4.983875,16.29475 4.78325,15.782 L6.323625,15.894125 C6.323625,15.894125 6.383625,15.656625 6.323625,15.50275 C5.52775,15.4505 4.78325,15.305625 4.78325,15.305625 L4.724875,14.525375 L5.484875,14.525375 L5.424875,14.179625 C5.424875,14.179625 4.78325,14.222625 4.724875,14.179625 C4.664875,14.1365 4.604875,13.398 4.604875,13.398 C4.604875,13.398 4.4865,13.354875 4.35775,13.354875 C4.2275,13.354875 4.109,13.398 4.109,13.398 C4.109,13.398 4.049,14.1365 3.99075,14.179625 C3.93075,14.222625 3.289125,14.179625 3.289125,14.179625 L3.23075,14.525375 L3.99075,14.525375 L3.93075,15.305625 C3.93075,15.305625 3.18625,15.450625 2.39025,15.50275 C2.332,15.65675 2.39025,15.894125 2.39025,15.894125 L3.930625,15.782 C3.73,16.29475 3.34225,17.4795 2.213625,17.3935 C1.1415,17.350375 0.666375,16.3535 0.84475,16.0495 L4.23775,8.72525 C4.4745,8.33375 4.429875,7.137125 3.52075,6.731375 C2.896375,6.452125 1.85675,6.471625 1.379875,6.904875 C1.112375,7.0785 0.963125,7.4255 0.985375,7.717875 C1.007625,8.01025 1.49825,9.158375 0.843,9.722125 C1.5,9.5055 1.558375,9.591625 2.1535,9.98175 C1.319875,8.986125 1.379875,8.94175 1.49825,8.35725 C2.0935,8.551625 2.98725,8.4655 2.98725,8.205875 C2.98725,7.944875 2.747125,7.511625 2.39025,7.68525 C2.03525,7.85875 2.62875,8.075375 2.213625,8.075375 C1.795,8.075375 1.49825,7.987875 1.49825,7.68525 C1.49825,7.382625 1.915125,7.035375 2.510375,7.035375 C3.105625,7.035375 3.819125,7.338125 3.699125,8.4225 C3.58075,9.5055 0.071125,15.530125 0.071125,16.266125 C0.071125,17.003375 0.724625,17.95725 2.450375,17.95725 C3.58075,18.043375 3.982125,16.86375 4.392125,16.46575 L4.392125,16.46575 Z"></path>
                        <path d="M4.52925,1.000375 C4.935875,0.602375 4.802,-0.067125 5.9325,0.019125 C7.658125,0.019125 7.707875,1.07475 7.707875,1.812 C7.707875,2.547875 5.136625,3.5775 5.018125,4.6605 C4.898125,5.744875 5.61175,6.047625 6.208625,6.047625 C6.802125,6.047625 7.219,5.7005 7.219,5.39775 C7.219,5.095 6.92225,5.007625 6.505375,5.007625 C6.0885,5.007625 6.68375,5.22425 6.327,5.39775 C5.97025,5.57125 5.73175,5.138125 5.73175,4.877125 C5.73175,4.6175 6.62375,4.531375 7.219,4.725875 C7.339,4.141125 7.397375,4.09675 6.56375,3.10125 C7.160625,3.49125 7.21725,3.5775 7.87425,3.360875 C7.219,3.924625 7.709625,5.072875 7.731875,5.365125 C7.754125,5.657375 7.606625,6.0045 7.339125,6.178125 C6.86225,6.61125 5.821,6.630875 5.196625,6.351625 C4.287375,5.945875 4.242875,4.74925 4.48125,4.357875 L7.00125,1.774125 C7.1795,1.470125 7.24125,0.625875 6.170875,0.582875 C5.0405,0.496625 4.65275,2.03775 4.452125,2.5505 C4.18275,1.99075 3.882625,0.44575 2.752125,0.531875 C1.680125,0.575 1.47425,1.41925 1.652625,1.723125 L4.241125,4.35775 C4.477875,4.74925 4.43325,5.945875 3.524125,6.351625 C2.89975,6.630875 1.860125,6.61125 1.38325,6.178125 C1.11575,6.0045 0.9665,5.6575 0.98875,5.365125 C1.011,5.07275 1.501625,3.924625 0.846375,3.360875 C1.503375,3.5775 1.56175,3.491375 2.156875,3.10125 C1.32325,4.09675 1.38325,4.14125 1.501625,4.72575 C2.096875,4.531375 2.990625,4.6175 2.990625,4.877125 C2.990625,5.138125 2.7505,5.571375 2.393625,5.39775 C2.038625,5.22425 2.632125,5.007625 2.217,5.007625 C1.798375,5.007625 1.501625,5.095125 1.501625,5.39775 C1.501625,5.700375 1.9185,6.047625 2.51375,6.047625 C3.109,6.047625 3.8225,5.744875 3.7025,4.6605 C3.584125,3.5775 0.945875,2.39525 0.945875,1.65925 C0.945875,0.922 1.129375,0.019125 2.855125,0.019125 C3.9855,-0.067125 4.119375,0.602375 4.52925,1.000375 L4.52925,1.000375 Z"></path>
                    </g>
                    <g transform="translate(20.618762, 8.506725)" fill="#FFE400">
                        <rect id="Rectangle-path" x="11.8603712" y="6.46383563" width="22.712144" height="21.5194362" rx="10.7597181"></rect>
                        <path d="M22.6721202,0.0473614375 C22.5776642,0.04642755 22.067228,3.62841976 21.8699109,4.43343079 C21.6931393,6.22516066 24.2806748,6.15978854 23.8573569,4.36245534 L22.6726539,0.0473614375 L22.6721202,0.0473614375 Z M23.5833276,34.7152666 C23.6775168,34.7223375 24.4491747,31.182637 24.7050599,30.3925682 C25.0127091,28.6168478 22.4266412,28.5117188 22.7172137,30.3325326 L23.5833276,34.7151332 L23.5833276,34.7152666 Z M5.49259263,17.1581816 C5.48458788,17.2474346 9.21680256,17.9956119 10.04943,18.2418914 C11.9221412,18.5419361 12.0455478,16.0922157 10.1224066,16.3587739 L5.49259263,17.1581816 L5.49259263,17.1581816 Z M41.7434371,17.5837675 C41.7474395,17.4943811 37.9857406,16.88015 37.1429739,16.6637549 C35.2587891,16.4309501 35.2439804,18.8834721 37.1535135,18.5482065 L41.7434371,17.5836341 L41.7434371,17.5837675 Z M9.31085837,5.82225491 C9.24655355,5.88789386 11.6980082,8.65713712 12.1932354,9.33740746 C13.4723945,10.6675301 15.1636647,8.81109515 13.47613,7.89748635 L9.31099179,5.82172126 L9.31085837,5.82225491 Z M37.4822419,28.635659 C37.5402763,28.5649504 34.8444099,26.0076996 34.2887469,25.3707883 C32.892585,24.150731 31.3778195,26.1393777 33.1427335,26.9107688 L37.4823753,28.635659 L37.4822419,28.635659 Z M14.9381976,1.95035734 C14.85228,1.98771284 16.0009616,5.43429136 16.1842704,6.24237087 C16.8299869,7.93470844 19.1416253,6.83125365 17.9506519,5.37612351 L14.9381976,1.95035734 L14.9381976,1.95035734 Z M31.3492692,32.947551 C31.4377217,32.9159322 30.544525,29.4021138 30.4207182,28.5838949 C29.9008097,26.8531346 27.5136599,27.8018309 28.5953684,29.3318054 L31.3492692,32.9474176 L31.3492692,32.947551 Z M35.3756585,4.34951432 C35.3074847,4.28747751 32.3457272,6.56549595 31.6198298,7.02376789 C30.1955179,8.21420763 32.1277312,9.84624274 33.1188526,8.26210271 L35.3756585,4.34951432 L35.3756585,4.34951432 Z M10.971844,30.1952511 C11.0353483,30.2615571 14.156934,28.1839243 14.9145836,27.7744813 C16.4226785,26.6806322 14.6148057,24.9254574 13.5100168,26.4404897 L10.971844,30.1952511 L10.971844,30.1952511 Z M6.29039937,10.961171 C6.25170975,11.0428194 9.50884253,12.9243359 10.2076572,13.4188961 C11.8685094,14.2918141 12.8445553,12.0204662 10.9374236,11.6659892 L6.29039938,10.961171 L6.29039937,10.961171 Z M40.1665014,24.0942975 C40.2111946,24.0154507 37.0997482,21.9242098 36.4388227,21.384823 C34.8460109,20.4046414 33.7057342,22.6063479 35.5824479,23.0855656 L40.1665014,24.0942975 L40.1665014,24.0942975 Z M29.4001126,1.02981109 C29.3124606,0.99632455 27.4561591,4.15379819 26.9619992,4.834869 C26.1065582,6.44142232 28.5404025,7.27645116 28.8393799,5.45683807 L29.400246,1.02981109 L29.4001126,1.02981109 Z M16.8793495,33.6159476 C16.9643333,33.6551709 19.0475694,30.6273742 19.5905583,29.980457 C20.5618013,28.4340727 18.1949302,27.4409501 17.7633407,29.2364155 L16.8793495,33.6158142 L16.8793495,33.6159476 Z M6.542549,24.3717955 C6.57683601,24.4551783 10.2762312,23.5731883 11.1384762,23.4477805 C12.9598237,22.9374777 11.9342818,20.6857415 10.3305301,21.7259588 L6.542549,24.3717955 L6.542549,24.3717955 Z M40.1745061,10.6876754 C40.1464895,10.6022914 36.3913279,11.238669 35.522012,11.3071096 C33.6677117,11.6962739 34.5256875,14.0101803 36.2018821,13.0778937 L40.1745061,10.6876754 L40.1745061,10.6876754 Z" id="Shape"></path>
                        <path d="M26.3649782,0.282701087 C26.2726568,0.263889925 25.0121755,3.67524755 24.6479594,4.42622651 C24.0944309,6.147648 26.6430099,6.5767026 26.6097902,4.73547669 L26.3649782,0.2828345 L26.3649782,0.282701087 Z M19.8984744,34.4164226 C19.9891949,34.4413708 21.4966227,31.1211339 21.9150043,30.3959035 C22.5934069,28.7150394 20.0824502,28.1193526 19.9805231,29.9583105 L19.8984744,34.4164226 L19.8984744,34.4164226 Z M18.5950342,0.618900587 C18.5027128,0.638111987 18.8509194,4.23731441 18.848518,5.06380485 C19.0993335,6.84752998 21.6058875,6.23556684 20.7689909,4.57351391 L18.5957013,0.618900588 L18.5950342,0.618900587 Z M27.6684184,34.2149698 C27.7618071,34.2018953 27.6784243,30.5884178 27.7412616,29.7640619 C27.6218574,27.9680628 25.0764803,28.413794 25.7897035,30.1269439 L27.6684184,34.2148363 L27.6684184,34.2149698 Z M12.1618835,3.61441145 C12.0845042,3.66564185 13.8648941,6.86233876 14.1977582,7.62612533 C15.1521913,9.18184849 17.2184841,7.70470529 15.7720257,6.47477545 L12.1618835,3.61441145 L12.1618835,3.61441145 Z M34.1562682,31.3332597 C34.2372496,31.2872324 32.6954014,27.9811373 32.4193709,27.1972054 C31.5811402,25.5823805 29.4115861,26.9201077 30.7645223,28.2423589 L34.1562682,31.3332597 L34.1562682,31.3332597 Z M7.4711,8.090134 C7.41813524,8.16431135 10.2898393,10.5435899 10.8896619,11.1436793 C12.3693399,12.2718154 13.7393529,10.1908472 11.9236088,9.53405749 L7.4711,8.090134 L7.4711,8.090134 Z M38.7149734,26.7171873 C38.7731412,26.646612 36.0828782,24.0841582 35.5284158,23.4460462 C34.1349222,22.2233206 32.6157541,24.2091657 34.3790671,24.9837586 L38.7149734,26.7170538 L38.7149734,26.7171873 Z M5.41254512,13.6787836 C5.38839746,13.7653683 8.92609672,15.117504 9.70082311,15.497196 C11.4897513,16.1015546 12.0612905,13.7094685 10.1184042,13.6549028 L5.41254512,13.6787836 L5.41254512,13.6787836 Z M41.0963865,21.3926944 C41.126938,21.3079774 37.6967692,19.7263722 36.9516604,19.2965172 C35.2112943,18.5760897 34.4659187,20.9246833 36.3999997,21.1069248 L41.0963865,21.3928278 L41.0963865,21.3926944 Z M5.29647625,20.5401885 C5.30955067,20.6289078 9.12394746,20.5751426 9.99353014,20.6405147 C11.8898554,20.5400551 11.4374536,18.1252888 9.62437775,18.7888826 L5.29647625,20.5401885 L5.29647625,20.5401885 Z M41.3458679,14.5379601 C41.3391972,14.4485737 37.530137,14.2512567 36.6674917,14.128784 C34.7683648,14.1042361 35.0427943,16.5428832 36.9000297,16.0001611 L41.3458679,14.5379601 L41.3458679,14.5379601 Z M8.56241425,27.6737549 C8.61511219,27.7480656 12.0212667,26.1207 12.8336154,25.8194545 C14.4930001,24.9440017 12.9723644,22.9593574 11.6475783,24.3068236 L8.56241425,27.6737549 L8.56241425,27.6737549 Z M38.220013,7.35102875 C38.1729184,7.27338267 34.6556312,8.67274639 33.8232706,8.91982634 C32.1037169,9.68387972 33.475064,11.763914 34.8955069,10.5069014 L38.2201464,7.35116216 L38.220013,7.35102875 Z M14.1190449,32.3885526 C14.1986921,32.436848 16.6368056,29.6570651 17.2549057,29.0737856 C18.4079899,27.6438705 16.178,26.3985982 15.5305491,28.1349619 L14.1190449,32.3885526 L14.1190449,32.3885526 Z M32.7581052,2.54324249 C32.6821935,2.48987749 30.0462294,5.10249448 29.3869048,5.64361558 C28.1318934,6.99428373 30.2651593,8.38324126 31.0382847,6.69357195 L32.7581052,2.54310908 L32.7581052,2.54324249 Z" id="Shape"></path>
                        <g transform="translate(0.000800, 17.539301)">
                            <path d="M5.86307764,6.84986711 C6.04505229,7.53790872 6.09047317,11.4080052 10.1850484,15.1063665 C14.2793324,18.8044526 21.2400811,19.6215708 21.2400811,19.6215708 C21.2400811,19.6215708 21.285502,20.137602 20.7849989,20.1805358 C20.2844959,20.2237448 17.9188254,19.7506474 16.7361358,19.4066266 C15.553155,19.0626058 14.5070191,18.4604318 14.3704653,18.5036408 C14.2339115,18.5465746 14.006516,18.9335292 13.6425667,18.8905954 C13.2786174,18.8476616 11.5954247,17.1704913 10.8675261,16.7403277 C10.1396275,16.3104393 7.68282414,13.7732171 6.8640838,12.5262104 C6.04505229,11.2792038 5.86307764,10.4620856 5.59026125,10.4620856 C5.31715369,10.4620856 4.36185957,11.0639844 4.36185957,11.0639844 C4.36185957,11.0639844 3.49740719,9.81697777 2.72408772,7.83872052 C1.95076825,5.86073848 2.04160999,4.69959945 2.22358464,4.61373186 C2.40555929,4.52758905 2.40555929,6.07568268 2.99690412,7.49469971 C3.5885401,8.91399196 4.40728044,9.34388036 4.40728044,9.34388036 C4.40728044,9.34388036 3.86135649,8.61290494 3.45198632,6.7637243 C3.04261615,4.91454365 2.90606237,3.15150582 3.17887877,2.59254081 C3.45198632,2.0335758 3.72480272,1.8615654 3.77051475,1.90449919 C3.81593562,1.94743299 3.27001167,2.76455121 3.63396097,4.87160986 C3.99791027,6.9786685 5.0443373,8.78491535 5.27173282,8.69877254 C5.49912834,8.61290494 5.13517904,8.18274133 4.95320439,6.9357347 C4.77122974,5.68872808 5.13517904,4.91454365 5.45370747,4.82867606 C5.59026125,4.69959945 5.81765677,6.20475929 5.86307764,6.84986711 L5.86307764,6.84986711 Z M2.99661296,10.3753923 C2.22329348,9.68735073 0.994891806,7.27920508 0.722075411,7.40828168 C0.448967856,7.53735829 2.72379656,10.9775664 2.76921743,11.2786534 C2.81463831,11.5794652 3.31514138,12.52566 2.95119208,12.3965834 C2.58724278,12.2675068 -0.142376966,9.55854934 0.176151461,10.0745806 C0.494679889,10.5906118 2.54182191,12.9555484 2.40526813,13.084625 C2.26871436,13.2137016 0.722075411,11.7944094 0.676654539,11.966695 C0.630942506,12.1387054 2.22329348,13.5577224 2.17787261,13.7297328 C2.13245174,13.9017432 1.17686646,12.826747 1.17686646,13.0416912 C1.17686646,13.2566354 2.17787261,14.3316316 2.17787261,14.503642 C2.17787261,14.6756524 1.31342023,13.7297328 1.58652779,14.245764 C1.85934418,14.7617953 2.63266366,15.2348927 2.58724278,15.4069031 C2.54182191,15.5789135 1.95047709,15.1916837 1.95047709,15.2778265 C1.95047709,15.3636941 3.08774586,15.7509239 3.36056226,16.0517357 C3.63366981,16.3528227 5.49883718,18.3740137 6.90921351,19.4060762 C8.31958984,20.4381386 12.3230321,22.2011764 12.5958485,22.2011764 C12.8689561,22.2011764 13.2783263,21.6422114 13.1871934,21.4272672 C13.0963516,21.2120478 9.18375106,19.9650412 8.09190316,19.0191216 C7.00005526,18.0729267 4.31614754,15.8367915 4.08846086,15.7077149 C3.86106533,15.5789135 3.26972051,15.6218473 3.26972051,15.4927707 C3.26972051,15.3636941 4.04303998,15.5789135 3.99761911,15.4927707 C3.95219824,15.4069031 2.90577121,14.9767395 2.95119208,14.8908719 C2.99661296,14.8047291 3.67909068,15.0628823 3.67909068,14.9767395 C3.67909068,14.8908719 2.45068901,14.245764 2.49640104,14.1166874 C2.54182191,13.9876108 3.40627429,14.503642 3.40627429,14.4177744 C3.40627429,14.3316316 2.22329348,13.5577224 2.26871436,13.4286458 C2.31442639,13.2995692 3.17858761,14.0308198 3.13316673,13.8588094 C3.08774586,13.686799 2.45068901,12.783538 2.45068901,12.6547366 C2.45068901,12.52566 3.49711603,13.6006562 3.58824894,13.385712 C3.67909068,13.1707678 3.22429964,11.4074548 3.26972051,11.364521 C3.31514138,11.3215872 4.03983723,11.755879 4.17639101,11.4977258 C4.31265363,11.2398478 3.64153112,10.8809653 2.99661296,10.3753923 L2.99661296,10.3753923 Z M16.4213924,23.9163266 C15.8702276,23.9848555 15.6215774,23.8081664 15.9345738,23.3840576 C16.3678191,23.3537837 17.5211016,23.0045338 17.9287248,22.8446329 C18.3363481,22.6847321 18.7713403,22.4549262 19.1332514,22.147234 C19.4942891,21.8114696 19.6873279,22.3624534 19.5065178,22.647853 C19.3565707,22.8487612 18.6802074,23.2103959 18.1831982,23.4016714 C17.4614139,23.6287252 16.8409532,23.9430226 16.4213924,23.9163266 L16.4213924,23.9163266 Z M20.0571003,22.5041899 C19.693151,22.1169601 20.0116795,21.8590821 20.5576034,21.5579951 C21.3763438,21.1281067 21.1492394,20.5691417 22.1953753,20.0960443 C22.6504575,19.8378911 29.1558328,17.3438778 31.2941078,16.0107284 C33.4323827,14.677579 39.3921253,10.4202527 40.9841851,7.49607579 C42.5765361,4.57189893 41.8032166,4.35695473 42.0306121,4.22787812 C42.2580076,4.09907673 42.4856943,4.65804174 42.4399823,5.30314956 C42.3945614,5.94798216 41.8940583,7.88330562 42.0306121,8.05531602 C42.1671659,8.22732642 44.4417034,6.55015618 45.3515767,4.48603133 C46.2614499,2.42190649 46.9893485,0.27163883 47.4444307,0.27163883 C47.8992218,0.27163883 46.6711113,3.79798972 45.8975006,5.17407295 C45.1241812,6.55015618 44.2143079,7.2381978 44.4417034,7.53928481 C44.6693901,7.8400966 46.9439277,6.03412497 47.7172471,4.70097553 C48.4908578,3.3678261 49.2187564,2.16375327 49.355019,2.42190649 C49.4915728,2.67978448 48.6271204,5.51809376 47.3990099,6.85124319 C46.1706082,8.18411741 44.714811,9.13031224 44.9422065,9.34525644 C45.169602,9.56047586 46.8073739,9.77542006 48.5362786,8.65721482 C50.2648922,7.53928481 50.4468669,5.90504836 50.6745536,5.99119117 C50.9019491,6.07705877 50.4468669,8.31319402 48.809095,9.68927725 C47.1713232,11.0653605 44.9422065,11.1944371 45.0333394,11.4955241 C45.1241812,11.7966111 49.7646803,10.2485175 49.6735474,10.5925383 C49.5827057,10.9365591 43.668384,13.1294853 43.6226719,13.3447047 C43.6229631,13.5167151 44.6239693,13.5596489 46.2160291,13.2156281 C47.80838,12.8716073 49.3098893,11.7107435 49.5372848,11.9686215 C49.5824145,12.3555761 48.3997249,13.3017709 46.5799784,13.7316593 C44.7602319,14.161823 43.8503586,14.7637218 43.8049377,14.8927984 C43.7595169,15.0215998 47.0350606,14.5055686 47.0350606,14.677579 C47.0350606,14.8495894 42.7585107,15.6237738 42.7130898,15.8389932 C42.667669,16.0539374 46.8073739,15.0648088 46.7165321,15.279753 C46.6253992,15.4946972 41.1207389,17.0427908 41.1661597,17.1289336 C41.2118718,17.2148012 45.761238,16.1827388 45.6701051,16.3547492 C45.5792634,16.5267596 37.9817489,18.5479507 37.9363281,18.6770273 C37.890616,18.8058287 44.6236781,17.257735 44.5782572,17.3868116 C44.5328363,17.5158882 41.075318,18.3327312 41.075318,18.4188741 C41.075318,18.5047416 43.8503586,17.9889856 43.8049377,18.117787 C43.7595169,18.2468636 36.7987681,19.9240339 36.6622144,20.1819119 C36.5259517,20.4400651 40.2562865,19.4938703 40.2108656,19.9669677 C40.1654447,20.4400651 32.1585601,23.0202212 32.1128481,22.5471237 C32.0674272,22.0740263 36.9807428,20.8699535 36.9353219,20.7411521 C36.889901,20.6120755 34.1148604,21.0419639 34.0691484,20.7840859 C34.0237275,20.5259327 35.8888949,19.9669677 35.7526323,19.8378911 C35.6160785,19.7090897 34.2057022,20.2248457 34.3422559,19.9240339 C34.4788097,19.6229469 37.1172966,18.4618078 37.0718757,18.3759403 C37.0264548,18.2897974 36.1165816,18.676752 36.2074233,18.3759403 C36.2985562,18.0748532 41.9394792,16.5267596 41.8486375,16.3547492 C41.7575046,16.1827388 39.2555715,16.7417038 39.028176,16.7846376 C38.9370431,16.6129024 42.5311152,15.3656206 42.4399823,15.1506764 C42.3491405,14.9357322 40.529394,15.8816518 40.4385523,15.6237738 C40.3474194,15.3656206 43.5775422,14.1615477 43.3955676,13.9895373 C43.2135929,13.8175269 41.7123749,14.4626348 41.5304002,14.2906244 C41.3484256,14.118614 44.5782572,11.9686215 44.0777541,11.9254125 C43.5775422,11.8824787 42.9859062,12.5707955 42.8950645,12.1406319 C42.9861974,11.5813917 45.4427096,10.6784059 44.8967856,10.2485175 C44.0323333,9.99036426 41.075318,10.4205279 39.8469163,11.1085695 C38.6185146,11.7966111 34.5696515,15.6237738 33.5686453,16.2256726 C32.5679303,16.8278466 29.2012537,18.1609961 28.564488,18.4188741 C27.5634819,18.7628949 27.3815072,19.2789261 26.3807922,19.7520235 C24.5607546,20.2251209 24.5610457,20.7411521 23.6965933,21.0419639 C23.3783561,21.1281067 20.1028124,22.6329913 20.0571003,22.5041899 L20.0571003,22.5041899 Z M15.4626044,24.4384125 C14.9166804,24.6965658 14.4164685,25.3846074 14.7344146,25.6424854 C14.9166804,25.9865062 15.4626044,24.91151 15.9173954,24.9544437 C16.3724776,24.9973775 17.0092433,24.9976528 18.237645,25.0837956 C19.4660467,25.1696632 20.1028124,24.8256424 20.7852901,24.8685762 C21.4677678,24.91151 23.0146979,24.5245553 23.7425965,24.5245553 C24.4704951,24.5245553 24.6067578,24.6104229 24.6978907,24.3093359 C24.7887324,24.0085241 22.423062,24.2234683 21.3766349,24.1805345 C20.3304991,24.1376007 19.0109645,24.3954787 18.237645,24.3954787 C17.5097464,24.3525449 16.2359239,24.1373255 15.4626044,24.4384125 L15.4626044,24.4384125 Z" id="Shape"></path>
                            <rect id="Rectangle-path" x="17.9645374" y="23.7071619" width="1.00100615" height="0.817118223" rx="0.408559111"></rect>
                            <path d="M30.5775644,23.3193817 C31.0777763,23.2332388 32.413907,23.6634025 33.3371736,23.8783467 C35.0340508,24.4805207 38.1712937,24.1794337 38.1712937,24.4805207 C38.1712937,24.7816077 37.9762169,25.1685623 37.2273548,25.2114961 C36.4784928,25.2544299 34.6773805,24.9536181 34.7271687,24.9536181 C34.776957,24.9536181 36.1748135,25.5555169 35.7753427,25.7275273 C35.375872,25.8995377 34.178042,25.3835065 33.9785978,25.5125831 C33.7791536,25.6416597 35.0765601,25.8995377 34.8771158,25.9856805 C34.6773805,26.0715481 33.7759508,25.8566039 33.4763478,25.8998129 C33.1770359,25.9424715 33.7290742,26.2435585 33.3793917,26.3726351 C33.0302915,26.5017117 32.4430229,26.2008999 32.1934993,26.2864923 C31.9439756,26.3729103 32.7306884,26.8457325 32.3812971,26.8886663 C32.0319058,26.9316001 31.1907462,26.6737221 30.7414872,26.6307883 C30.2922281,26.5878545 31.1834672,27.0606767 30.8841553,27.1036105 C30.5842611,27.1465443 29.7698881,26.7598649 29.5704439,26.7598649 C29.3709997,26.7598649 29.5861665,27.2756209 29.2868546,27.2756209 C28.9872515,27.2756209 28.6349486,26.8457325 28.4852927,26.8457325 C28.3356367,26.8457325 28.4882042,27.3617638 28.1888923,27.3617638 C27.8895804,27.3617638 27.7821426,26.8027987 27.532619,26.8457325 C27.2373833,26.8889416 27.539898,27.576708 27.1407184,27.5337742 C26.7415388,27.4905651 26.6885477,26.8027987 26.3892358,26.8457325 C26.0893416,26.8886663 26.4422269,27.5337742 26.1426238,27.5337742 C25.8433119,27.5337742 25.7946883,26.8886663 25.4950852,26.8457325 C25.1957733,26.8027987 25.3436823,27.4476313 25.1442381,27.4476313 C24.9447939,27.4476313 24.7963025,26.8457325 24.6964349,26.8457325 C24.5968583,26.8457325 24.6952702,27.4476313 24.3455877,27.4046976 C23.9959052,27.3617638 23.9979434,26.7166559 23.8977845,26.7595897 C23.798208,26.8027987 23.796461,27.2326871 23.5472286,27.2326871 C23.2979961,27.2326871 23.2988695,26.8027987 23.199293,26.8457325 C23.0991342,26.8886663 22.7485782,27.4476313 22.4990546,27.3617638 C22.2495309,27.2756209 22.5590334,26.8457325 22.4594569,26.8457325 C22.3595892,26.8457325 22.0500867,27.1465443 21.8503513,27.1036105 C21.650616,27.0606767 21.8605419,26.7166559 21.8104625,26.7166559 C21.7606742,26.7166559 21.3009335,26.9316001 21.1014893,26.9316001 C20.902045,26.9316001 20.3529183,27.2326871 20.2029712,26.9745339 C20.0536064,26.7166559 20.5937072,26.7166559 20.6932837,26.4585027 C20.7934426,26.2006247 20.4027066,25.4696493 20.8018862,25.2114961 C21.2013569,24.9536181 22.4492663,25.5555169 24.2957995,25.1256285 C27.6895539,24.2655765 30.3088242,23.2767231 30.5775644,23.3193817 L30.5775644,23.3193817 Z" id="Shape"></path>
                        </g>
                    </g>
                </g>
            </g>
        </g>
    </g>
</svg>