<?xml version="1.0" encoding="UTF-8" standalone="no"?>
<svg width="122px" height="60px" viewBox="0 0 122 60" version="1.1" xmlns="http://www.w3.org/2000/svg" xmlns:xlink="http://www.w3.org/1999/xlink">
    <!-- Generator: Sketch 3.8.2 (29753) - http://www.bohemiancoding.com/sketch -->
    <title>mn</title>
    <desc>Created with Sketch.</desc>
    <defs></defs>
    <g id="Page-1" stroke="none" stroke-width="1" fill="none" fill-rule="evenodd">
        <g id="mn">
            <g id="Group">
                <g>
                    <polygon id="Shape" fill="#C4272F" points="0 0 122 0 122 60 0 60"></polygon>
                    <polygon id="Shape" fill="#015197" points="40 0 82 0 82 60 40 60"></polygon>
                    <g id="Group-2" transform="translate(13.000000, 15.000000)">
                        <circle id="Oval" fill="#F9CF02" cx="7.333375" cy="8.666625" r="3.666625"></circle>
                        <circle id="Oval" fill="#C4272F" cx="7.333375" cy="7" r="4"></circle>
                        <circle id="Oval" fill="#F9CF02" cx="7.333375" cy="7.666625" r="2.666625"></circle>
                        <path d="M5.666625,2.666625 C5.666625,3.58711109 6.41282641,4.3333125 7.3333125,4.3333125 C8.25379859,4.3333125 9,3.58711109 9,2.666625 C9,2 8.583375,1.916625 8.583375,1.666625 C8.583375,1.416625 8.833375,1.083375 8.333375,0.666625 C8.583375,1.083375 8.166625,1.166625 8.166625,1.583375 C8.166625,2 8.333375,2 8.333375,2.333375 L5.666625,2.666625 Z M0,13 L0,29 L3.333375,29 L3.333375,13 L0,13 Z M11.333375,13 L11.333375,29 L14.666625,29 L14.666625,13 L11.333375,13 Z M4,15.666625 L4,17 L10.666625,17 L10.666625,15.666625 L4,15.666625 Z M4,25 L4,26.333375 L10.666625,26.333375 L10.666625,25 L4,25 Z M4,13 L10.666625,13 L7.333375,15 L4,13 Z M4,27 L10.666625,27 L7.333375,29 L4,27 Z" id="Shape" fill="#F9CF02"></path>
                        <g id="Group" transform="translate(3.799755, 17.466105)" stroke="#C4272F" stroke-width="0.200000048">
                            <ellipse id="Oval" fill="#F9CF02" cx="3.533245" cy="3.533245" rx="3.533245" ry="3.533245"></ellipse>
                            <path d="M3.533245,0 C4.50892367,0 5.2998675,0.790943835 5.2998675,1.7666225 C5.2998675,2.74230117 4.50892367,3.533245 3.533245,3.533245 C2.55756633,3.533245 1.7666225,4.32418883 1.7666225,5.2998675 C1.7666225,6.27554617 2.55756633,7.06649 3.533245,7.06649" id="Shape"></path>
                        </g>
                        <g id="Group" transform="translate(6.666350, 18.566078)" fill="#C4272F">
                            <ellipse id="Oval" cx="0.66665" cy="0.66665" rx="0.66665" ry="0.66665"></ellipse>
                            <ellipse id="Oval" cx="0.66665" cy="4.199895" rx="0.66665" ry="0.66665"></ellipse>
                        </g>
                    </g>
                </g>
            </g>
        </g>
    </g>
</svg>