<?xml version="1.0" encoding="UTF-8" standalone="no"?>
<svg width="122px" height="60px" viewBox="0 0 122 60" version="1.1" xmlns="http://www.w3.org/2000/svg" xmlns:xlink="http://www.w3.org/1999/xlink">
    <!-- Generator: Sketch 3.8.2 (29753) - http://www.bohemiancoding.com/sketch -->
    <title>ao</title>
    <desc>Created with Sketch.</desc>
    <defs></defs>
    <g id="Page-1" stroke="none" stroke-width="1" fill="none" fill-rule="evenodd">
        <g id="ao">
            <g id="Group">
                <g>
                    <g id="Shape">
                        <polygon fill="#FF0000" points="0 0 122 0 122 30 0 30"></polygon>
                        <polygon fill="#000000" points="0 30 122 30 122 60 0 60"></polygon>
                    </g>
                    <g id="Group-2" transform="translate(30.000000, 15.000000)">
                        <path d="M10.58375,3.4831185 C31.23625,8.88486486 17.9575,35.371684 1.68175,24.3471518 L0.579625,26.0367568 C10.158125,32.8548025 19.650875,27.3664865 22.317125,20.2540541 C25.10425,12.9208316 21.377125,2.60582121 10.753375,1.53929314 L10.583875,3.48224532 L10.58375,3.4831185 Z" id="Shape" fill="#FFEC00"></path>
                        <path d="M3.244375,26.2674012 L5.960625,27.530395 L4.692875,30.2367568 L1.976625,28.973763 L3.244375,26.2674012 Z M21.8675,13.8582536 L24.865,13.8582536 L24.865,16.8447817 L21.8675,16.8447817 L21.8675,13.8582536 Z M20.407,9.00686071 L23.19975,7.92237006 L24.288125,10.7053222 L21.495375,11.7896881 L20.407,9.00686071 Z M17.17025,5.36594595 L19.299625,3.26407484 L21.40925,5.38590437 L19.279875,7.48777547 L17.17025,5.36594595 Z M13.88475,0.402910603 L16.689,1.45758836 L15.6305,4.25176715 L12.82625,3.1970894 L13.88475,0.402910603 Z M21.5125,18.6810811 L24.295625,19.7897713 L23.182875,22.5627443 L20.39975,21.4541788 L21.5125,18.6810811 Z M12.778,27.4191268 L15.5355,26.2480665 L16.71075,28.9954678 L13.9535,30.1667775 L12.778,27.4191268 Z M7.84,27.764657 L10.8375,27.764657 L10.8375,30.7509356 L7.84,30.7509356 L7.84,27.764657 Z M13.00125,13.3026611 L10.4575,11.4308108 L7.926875,13.2358004 L8.931125,10.3767568 L6.387625,8.51114345 L9.4435,8.48993763 L10.514375,5.67704782 L11.487125,8.50889813 L14.574625,8.47871102 L12.126375,10.3787526 L13.000875,13.3026611 L13.00125,13.3026611 Z" id="Shape" fill="#FFEC00"></path>
                        <path d="M22.55875,30.3638669 C17.2375,27.3360499 11.645,24.0619958 6.32375,21.0338046 C3.98,19.5824532 3.863375,16.8694802 5.4275,14.8123909 C5.59025,14.5208732 5.782,14.5930977 5.86675,14.747027 C6.049625,15.7486902 6.613,16.7834096 7.288,17.4284407 C12.874625,20.9689397 18.2545,24.3894387 23.75175,28.107817 C23.32075,28.8271933 22.98875,29.6446154 22.558,30.3638669 L22.55875,30.3638669 Z" id="Shape" fill="#FFEE00"></path>
                        <polygon id="Shape" fill="#FFEC00" points="19.14675 23.1027443 21.378 25.0968399 19.37675 27.3202079 17.1455 25.3261123"></polygon>
                        <path d="M8,19 L24,29" id="Line" stroke="#000000" stroke-width="0.4" stroke-linecap="square"></path>
                        <path d="M24.00375,28.2069854 C23.8525,28.2591268 23.225,29.7525156 22.794375,30.4832432 C23.019,30.5468607 23.114375,30.5575884 23.2475,30.6111019 C24.954375,31.2098545 25.7955,31.7562162 26.52075,32.794553 C26.88175,33.142578 27.39975,33.1600416 27.7955,32.8814969 C27.7955,32.8814969 28.144875,32.7425364 28.59925,32.2553015 C28.97025,31.6914761 28.8735,31.243659 28.42625,30.8632017 C27.05825,29.8712682 25.56375,29.1290644 24.00375,28.2068607 L24.00375,28.2069854 Z" id="Shape" fill="#FFEE00"></path>
                        <path d="M27.655875,31.5083576 C27.655875,31.806237 27.413375,32.0477339 27.114625,32.0477339 C26.815875,32.0477339 26.573,31.806237 26.573,31.5083576 C26.573,31.2104782 26.8155,30.9688565 27.1145,30.9688565 C27.4135,30.9688565 27.65575,31.2103534 27.65575,31.5083576 L27.655875,31.5083576 Z M24.98375,29.8029106 C24.98375,30.10079 24.74125,30.3422869 24.4425,30.3422869 C24.14375,30.3422869 23.900875,30.10079 23.900875,29.8029106 C23.900875,29.5050312 24.143375,29.2634096 24.442375,29.2634096 C24.741375,29.2634096 24.983625,29.5049064 24.983625,29.8029106 L24.98375,29.8029106 Z M26.346,30.672973 C26.346,30.9711019 26.1035,31.212474 25.80475,31.212474 C25.506,31.212474 25.263125,30.9709771 25.263125,30.672973 C25.263125,30.3749688 25.505625,30.1335967 25.804625,30.1335967 C26.103625,30.1335967 26.345875,30.3752183 26.345875,30.6730977 L26.346,30.672973 Z" id="Shape" fill="#000000"></path>
                    </g>
                </g>
            </g>
        </g>
    </g>
</svg>