<?xml version="1.0" encoding="UTF-8" standalone="no"?>
<svg width="122px" height="60px" viewBox="0 0 122 60" version="1.1" xmlns="http://www.w3.org/2000/svg" xmlns:xlink="http://www.w3.org/1999/xlink">
    <!-- Generator: Sketch 3.8.2 (29753) - http://www.bohemiancoding.com/sketch -->
    <title>gb-nir</title>
    <desc>Created with Sketch.</desc>
    <defs></defs>
    <g id="Page-1" stroke="none" stroke-width="1" fill="none" fill-rule="evenodd">
        <g id="gb-nir">
            <g id="Group">
                <g>
                    <rect id="Rectangle-path" fill="#FFFFFF" x="21" y="0" width="80" height="60"></rect>
                    <rect id="a" fill="#CC0000" x="0" y="24" width="122" height="12"></rect>
                    <g id="a-link" transform="translate(61.000000, 30.000000) rotate(90.000000) translate(-61.000000, -30.000000) translate(31.000000, 24.000000)" fill="#CC0000">
                        <rect id="a" x="0" y="0" width="60" height="12"></rect>
                    </g>
                    <path d="M65.400625,18.32625 C65.785625,17.72375 65.5555,17.334625 64.973125,17.214375 C64.973125,17.214375 63.11475,17.810125 61.107625,17.8755 C59.100625,17.940875 56.716125,17.37075 56.716125,17.37075 C56.2885,17.639125 56.392875,18.275875 56.604875,18.673375 C56.604875,18.673375 58.706,19.371375 61.097875,19.302875 C62.617,19.259375 64.056625,18.871625 64.864125,18.61475 C65.328125,18.46725 65.400875,18.333 65.400625,18.32625 L65.400625,18.32625 Z" id="Shape" stroke="#000000" stroke-width="0.522" fill="#EBEAE3"></path>
                    <polygon id="Shape" stroke="#161111" stroke-width="0.600000024" fill="#FFFFFF" points="61 44.694 57.142875 36.68075 48.274625 37.347 53.285625 30 48.274625 22.653 57.142875 23.31925 61 15.306 64.857125 23.31925 73.725375 22.653 68.714375 30 73.725375 37.347 64.857125 36.68075"></polygon>
                    <path d="M60.9425,15.2785 C65.787875,16.07725 65.61475,16.3035 65.61475,16.3035 L66.879375,12.522875 C66.879375,12.522875 67.0125,11.7775 66.666375,11.324875 C66.32025,10.872375 65.3485,11.12525 65.3485,11.12525 C65.3485,11.12525 65.215375,10.512875 64.7895,10.3665 C64.3635,10.22 62.7795,10.938875 62.286875,11.098625 C61.794375,11.258375 61.541375,11.418125 60.84925,11.404875 C60.157,11.3915 58.919,10.779125 58.69275,10.65925 C58.4665,10.5395 58.133625,10.41975 57.8275,10.433 C57.52125,10.446375 57.201875,10.52625 57.042125,10.73925 C56.882375,10.952125 56.882375,11.218375 56.882375,11.218375 C56.882375,11.218375 56.629375,11.058625 56.230125,11.058625 C55.83075,11.058625 55.604375,11.111875 55.418,11.324875 C55.23175,11.537875 54.992125,12.136875 54.992125,12.136875 L55.444625,13.161875 L55.47125,14.572875 L56.416375,16.063875 L60.942375,15.2785 L60.9425,15.2785 Z" id="Shape" stroke="#000000" stroke-width="0.1" fill="#B02320"></path>
                    <path d="M65.45925,17.414375 C65.45925,17.414375 65.70325,17.70525 65.693875,17.8085 C65.6845,17.911625 65.58125,18.0055 65.58125,18.0055 C65.58125,18.0055 65.65625,18.0805 65.6375,18.19325 C65.61875,18.30575 65.46875,18.315125 65.46875,18.315125 C65.46875,18.315125 65.49675,18.418375 65.403,18.465375 C65.309125,18.51225 64.924375,18.596625 64.924375,18.596625 C64.924375,18.596625 63.047625,18.061875 61.039625,18.061875 C59.0315,18.061875 56.66675,18.709375 56.66675,18.709375 C56.66675,18.709375 56.422875,18.624875 56.4135,18.465375 C56.404125,18.30575 56.441625,18.19325 56.441625,18.19325 C56.441625,18.19325 56.308,18.207 56.27275,18.09 C56.22325,17.92625 56.2915,17.799125 56.2915,17.799125 C56.2915,17.799125 56.198375,17.829125 56.300875,17.611375 C56.375875,17.451875 56.4885,17.395625 56.4885,17.395625 C56.4885,17.395625 58.590375,16.644875 60.98325,16.635625 C63.376125,16.626125 65.45925,17.395625 65.45925,17.414375 L65.45925,17.414375 Z" id="Shape" stroke="#000000" stroke-width="0.1" fill="#EBEAE3"></path>
                    <path d="M55.528625,12.686875 C55.528625,12.686875 55.4485,12.414375 55.62475,12.174125 C55.801,11.93375 56.1215,11.94975 56.21775,11.997875 C56.313875,12.045875 56.29775,12.158125 56.426,12.190125 C56.55425,12.222125 56.650375,12.126 56.650375,12.126" id="Shape" stroke="#000000" stroke-width="0.1"></path>
                    <path d="M67.228,13.32475 L66.50025,14.8305 L66.214125,14.88075 C66.214125,14.88075 66.039625,14.77575 65.541625,14.8105 C65.18525,14.8355 65.079875,14.925875 65.079875,14.925875 L65.727375,13.425125 C65.727375,13.425125 65.77775,13.747625 65.85275,13.937125 C65.948125,14.178 66.3095,14.403875 66.3095,14.403875 C66.3095,14.403875 66.3595,14.11575 66.264375,13.766375 C66.159,13.38 65.913125,12.858 65.913125,12.858 L67.228125,13.32475 L67.228,13.32475 Z" id="Shape" stroke="#000000" stroke-width="0.1" fill-opacity="0.941" fill="#FFCC00"></path>
                    <polygon id="Shape" stroke="#121116" stroke-width="0.1" fill="#121116" points="60.5615 8.645125 61.376 8.645125 61.376 12.106875 60.5615 12.106875"></polygon>
                    <path d="M55.57,15.029375 L56.093125,16.14875 C56.093125,16.14875 58.319375,15.280875 60.94725,15.297125 C64.889,15.321375 66.008375,16.112125 66.008375,16.112125 L66.59225,14.72525 L66.154375,14.98075 L65.704125,15.260625 L65.19325,15.45525 L64.57275,15.4065 L64.02525,15.005125 L63.7455,14.421125 L63.283125,14.847 L62.468125,15.0295 L61.665125,14.822625 L60.9595,13.9345 C60.9595,13.9345 60.433875,14.92175 59.767125,14.98075 C58.806125,15.065875 58.2465,14.5185 58.2465,14.5185 C58.2465,14.5185 57.889125,15.321375 57.2975,15.467375 C56.36075,15.698625 55.582125,15.029375 55.57,15.029375 L55.57,15.029375 Z" id="Shape" stroke="#000000" stroke-width="0.1" fill="#F6CA1F"></path>
                    <g transform="translate(53.375000, 7.375000)" id="Shape">
                        <path d="M11.180875,0.830875 C11.180875,1.066 10.993125,1.25675 10.761125,1.25725 C10.529125,1.25775 10.3405,1.06775 10.339625,0.8325 C10.33875,0.597375 10.525875,0.405875 10.75775,0.4045 C10.98975,0.403 11.179,0.592375 11.180875,0.8275" stroke="#1E1E1E" stroke-width="0.1" fill="#EEEEEE"></path>
                        <path fill="#A3AFB8"></path>
                        <path d="M10.159,1.308625 C10.159,1.54375 9.971125,1.7345 9.739125,1.735 C9.507125,1.7355 9.3185,1.5455 9.317625,1.31025 C9.31675,1.075125 9.503875,0.8835 9.73575,0.882125 C9.96775,0.880875 10.157,1.07 10.158875,1.30525" stroke="#1E1E1E" stroke-width="0.1" fill="#EEEEEE"></path>
                        <path fill="#A3AFB8"></path>
                        <path d="M12.3675,0.55075 C12.3675,0.78575 12.179625,0.976625 11.9475,0.977 C11.715625,0.977625 11.527,0.7875 11.526125,0.552375 C11.525125,0.31725 11.712375,0.125625 11.94425,0.12425 C12.17625,0.123 12.3655,0.312125 12.367375,0.547375" stroke="#1E1E1E" stroke-width="0.1" fill="#EEEEEE"></path>
                        <path fill="#A3AFB8"></path>
                        <path d="M13.703875,0.819625 C13.703875,1.05475 13.516125,1.245625 13.284125,1.246 C13.052125,1.2465 12.8635,1.0565 12.862625,0.82125 C12.861625,0.58625 13.04875,0.394625 13.28075,0.39325 C13.51275,0.391875 13.702,0.581125 13.703875,0.81625" stroke="#1E1E1E" stroke-width="0.1" fill="#EEEEEE"></path>
                        <path fill="#A3AFB8"></path>
                        <path d="M14.7225,1.659 C14.7225,1.894125 14.53475,2.085 14.30275,2.085375 C14.07075,2.085875 13.882125,1.895875 13.88125,1.660625 C13.880375,1.425625 14.0675,1.234 14.299375,1.232625 C14.531375,1.23125 14.720625,1.4205 14.7225,1.655625" stroke="#1E1E1E" stroke-width="0.1" fill="#EEEEEE"></path>
                        <path fill="#A3AFB8"></path>
                        <path d="M15.1625,3.03625 C15.1625,3.271375 14.97475,3.462125 14.74275,3.462625 C14.51075,3.463125 14.32225,3.273125 14.32125,3.037875 C14.320375,2.80275 14.5075,2.61125 14.7395,2.609875 C14.9715,2.608375 15.16075,2.79775 15.162625,3.032875" stroke="#1E1E1E" stroke-width="0.1" fill="#EEEEEE"></path>
                        <path fill="#A3AFB8"></path>
                        <path d="M14.999625,4.42975 C14.999625,4.664875 14.81175,4.85575 14.57975,4.856125 C14.34775,4.856625 14.15925,4.666625 14.158375,4.4315 C14.157375,4.19625 14.3445,4.00475 14.5765,4.003375 C14.8085,4.002 14.99775,4.19125 14.999625,4.426375" stroke="#1E1E1E" stroke-width="0.1" fill="#EEEEEE"></path>
                        <path fill="#A3AFB8"></path>
                        <path d="M14.38025,5.652125 C14.38025,5.887375 14.1925,6.078125 13.9605,6.078625 C13.7285,6.079 13.539875,5.889 13.539,5.653875 C13.538,5.418625 13.72525,5.227125 13.957125,5.22575 C14.189125,5.224375 14.378375,5.413625 14.38025,5.64875" stroke="#1E1E1E" stroke-width="0.1" fill="#EEEEEE"></path>
                        <path fill="#A3AFB8"></path>
                        <path d="M9.16475,1.67525 C9.16475,1.9105 8.976875,2.10125 8.744875,2.10175 C8.512875,2.102125 8.324375,1.912125 8.323375,1.677 C8.3225,1.44175 8.509625,1.25025 8.741625,1.248875 C8.973625,1.2475 9.162875,1.43675 9.16475,1.672" stroke="#1E1E1E" stroke-width="0.1" fill="#EEEEEE"></path>
                        <path fill="#A3AFB8"></path>
                        <g transform="translate(7.125000, 1.125000)">
                            <path d="M0.76875,0.44125 C0.76875,0.637875 0.61175,0.7975 0.41775,0.797875 C0.22375,0.79825 0.066,0.63925 0.06525,0.442625 C0.0645,0.246 0.221,0.08575 0.415,0.084625 C0.609,0.083375 0.76725,0.24175 0.76875,0.438375" stroke="#1E1E1E" stroke-width="1.16978112" fill="#EEEEEE"></path>
                            <path fill="#A3AFB8"></path>
                        </g>
                        <g transform="translate(7.125000, 1.625000)">
                            <path d="M0.772875,0.384375 C0.772875,0.581125 0.615875,0.740625 0.421875,0.741 C0.227875,0.741375 0.070125,0.5825 0.069375,0.385875 C0.068625,0.189125 0.225,0.029 0.419,0.027875 C0.613,0.026625 0.771375,0.185 0.772875,0.381625" stroke="#1E1E1E" stroke-width="0.1" fill="#EEEEEE"></path>
                            <path fill="#A3AFB8"></path>
                        </g>
                        <g transform="translate(7.125000, 2.250000)">
                            <path d="M0.797375,0.41125 C0.797375,0.608 0.64025,0.7675 0.44625,0.768 C0.25225,0.768375 0.094625,0.6095 0.09375,0.41275 C0.093,0.216125 0.2495,0.055875 0.4435,0.05475 C0.6375,0.0535 0.795875,0.211875 0.79725,0.4085" stroke="#1E1E1E" stroke-width="1.16978112" fill="#EEEEEE"></path>
                            <path fill="#A3AFB8"></path>
                        </g>
                        <g transform="translate(7.125000, 2.875000)">
                            <path d="M0.83375,0.479 C0.83375,0.69175 0.663875,0.86425 0.454125,0.86475 C0.24425,0.865125 0.07375,0.69325 0.072875,0.480625 C0.072125,0.267875 0.24125,0.094625 0.451125,0.093375 C0.660875,0.092125 0.832125,0.263375 0.83375,0.476" stroke="#1E1E1E" stroke-width="0.1" fill="#EEEEEE"></path>
                            <path fill="#A3AFB8"></path>
                        </g>
                        <path d="M7.999375,4.283125 C7.999375,4.518125 7.8115,4.709 7.579625,4.709375 C7.347625,4.71 7.159,4.519875 7.158125,4.28475 C7.157125,4.049625 7.34425,3.858 7.57625,3.856625 C7.80825,3.855375 7.9975,4.0445 7.999375,4.27975" stroke="#1E1E1E" stroke-width="1.16983665" fill="#EEEEEE"></path>
                        <path fill="#A3AFB8"></path>
                        <g transform="translate(7.125000, 5.750000)">
                            <path d="M0.83225,0.439625 C0.83225,0.6605 0.655875,0.839625 0.438,0.840125 C0.220125,0.8405 0.043,0.662125 0.042125,0.44125 C0.04125,0.220375 0.217,0.0405 0.434875,0.03925 C0.65275,0.038 0.8305,0.215625 0.83225,0.4365" stroke="#1E1E1E" stroke-width="1.16969016" fill="#EEEEEE"></path>
                            <path fill="#A3AFB8"></path>
                        </g>
                        <path d="M6.819,1.664 C6.819,1.899125 6.63125,2.089875 6.39925,2.090375 C6.16725,2.090875 5.978625,1.900875 5.97775,1.665625 C5.97675,1.4305 6.164,1.239 6.395875,1.237625 C6.627875,1.236125 6.817125,1.4255 6.819,1.660625" stroke="#1E1E1E" stroke-width="0.1" fill="#EEEEEE"></path>
                        <path fill="#A3AFB8"></path>
                        <g transform="translate(4.875000, 0.750000)">
                            <path d="M0.901125,0.502625 C0.901125,0.737875 0.71325,0.928625 0.48125,0.929125 C0.24925,0.929625 0.06075,0.7395 0.05975,0.504375 C0.058875,0.26925 0.246,0.077625 0.478,0.07625 C0.71,0.075 0.89925,0.264125 0.901125,0.499375" stroke="#1E1E1E" stroke-width="0.1" fill="#EEEEEE"></path>
                            <path fill="#A3AFB8"></path>
                        </g>
                        <g transform="translate(3.875000, 0.250000)">
                            <path d="M0.90225,0.532625 C0.90225,0.76775 0.714375,0.958625 0.482375,0.959 C0.250375,0.9595 0.061875,0.7695 0.060875,0.534375 C0.06,0.299125 0.247125,0.107625 0.479125,0.10625 C0.711125,0.104875 0.900375,0.294125 0.90225,0.52925" stroke="#1E1E1E" stroke-width="0.1" fill="#EEEEEE"></path>
                            <path fill="#A3AFB8"></path>
                        </g>
                        <g transform="translate(2.750000, 0.000000)">
                            <path d="M0.8815,0.532875 C0.8815,0.768125 0.693625,0.958875 0.461625,0.959375 C0.229625,0.95975 0.041125,0.76975 0.040125,0.534625 C0.03925,0.299375 0.226375,0.107875 0.458375,0.1065 C0.690375,0.105125 0.879625,0.294375 0.8815,0.529625" stroke="#1E1E1E" stroke-width="0.1" fill="#EEEEEE"></path>
                            <path fill="#A3AFB8"></path>
                        </g>
                        <g transform="translate(1.375000, 0.375000)">
                            <path d="M0.905,0.481125 C0.905,0.71625 0.71725,0.907 0.48525,0.9075 C0.25325,0.908 0.06475,0.718 0.06375,0.48275 C0.062875,0.247625 0.25,0.056125 0.482,0.054625 C0.714,0.053375 0.90325,0.2425 0.905125,0.47775" stroke="#1E1E1E" stroke-width="0.1" fill="#EEEEEE"></path>
                            <path fill="#A3AFB8"></path>
                        </g>
                        <g transform="translate(0.375000, 1.375000)">
                            <path d="M0.95025,0.435875 C0.95025,0.671 0.7625,0.861875 0.5305,0.86225 C0.2985,0.86275 0.109875,0.67275 0.109,0.4375 C0.108125,0.2025 0.29525,0.010875 0.527125,0.0095 C0.759125,0.008125 0.948375,0.197375 0.95025,0.4325" stroke="#1E1E1E" stroke-width="0.1" fill="#EEEEEE"></path>
                            <path fill="#A3AFB8"></path>
                        </g>
                        <g transform="translate(0.000000, 2.625000)">
                            <path d="M0.92875,0.5225 C0.92875,0.75775 0.740875,0.9485 0.508875,0.949 C0.276875,0.9495 0.08825,0.7595 0.087375,0.52425 C0.0865,0.289125 0.273625,0.0975 0.5055,0.096125 C0.7375,0.094875 0.92675,0.284 0.92875,0.51925" stroke="#1E1E1E" stroke-width="0.1" fill="#EEEEEE"></path>
                            <path fill="#A3AFB8"></path>
                        </g>
                        <g transform="translate(0.250000, 4.000000)">
                            <path d="M0.855,0.543 C0.855,0.77825 0.667125,0.969 0.435125,0.9695 C0.203125,0.969875 0.014625,0.779875 0.013625,0.54475 C0.01275,0.3095 0.199875,0.118 0.431875,0.116625 C0.663875,0.11525 0.853125,0.3045 0.855,0.53975" stroke="#1E1E1E" stroke-width="0.1" fill="#EEEEEE"></path>
                            <path fill="#A3AFB8"></path>
                        </g>
                        <g transform="translate(0.875000, 5.375000)">
                            <path d="M0.87625,0.43125 C0.87625,0.6665 0.6885,0.85725 0.4565,0.85775 C0.2245,0.858125 0.035875,0.668125 0.035,0.433 C0.034125,0.197875 0.22125,0.00625 0.453125,0.004875 C0.685125,0.003625 0.874375,0.19275 0.87625,0.428" stroke="#1E1E1E" stroke-width="0.1" fill="#EEEEEE"></path>
                            <path fill="#A3AFB8"></path>
                        </g>
                        <g transform="translate(1.750000, 6.875000)">
                            <path d="M0.740655685,0.591190489 C0.740655685,0.82634529 0.622894212,1.01710297 0.477327947,1.01755933 C0.33184346,1.01801568 0.213591314,0.828040334 0.212977973,0.592820339 C0.212405521,0.357665538 0.3297581,0.166125531 0.475283476,0.164756456 C0.620767963,0.163387382 0.739510782,0.352645599 0.740655685,0.587865594" stroke="#1E1E1E" stroke-width="0.1" fill="#EEEEEE" transform="translate(0.476816, 0.591155) rotate(-14.999339) translate(-0.476816, -0.591155) "></path>
                            <path fill="#A3AFB8"></path>
                        </g>
                        <g transform="translate(12.625000, 6.875000)">
                            <path d="M0.728397234,0.541236646 C0.728397234,0.776395277 0.610636168,0.967156063 0.465070406,0.967612428 C0.319586422,0.968068794 0.201334685,0.778090349 0.200721346,0.542866523 C0.200148897,0.307707891 0.31750107,0.116164764 0.463025943,0.114795668 C0.608509927,0.113426571 0.727252335,0.302687871 0.728397234,0.537911697" stroke="#1E1E1E" stroke-width="0.1" fill="#EEEEEE" transform="translate(0.464558, 0.541201) rotate(13.867167) translate(-0.464558, -0.541201) "></path>
                            <path fill="#A3AFB8"></path>
                        </g>
                    </g>
                    <path d="M60.59025,6.7265 L60.620625,7.438875 C60.620625,7.438875 59.776,7.513 59.7415,7.590375 C59.577375,7.95825 59.9385,8.454375 59.9385,8.454375 C59.9385,8.454375 60.2225,8.242125 60.938875,8.242125 C61.621,8.242125 61.969625,8.408875 61.969625,8.408875 C61.969625,8.408875 62.1515,8.120875 62.1515,7.90875 C62.1515,7.6965 62.07575,7.48425 62.07575,7.48425 C62.07575,7.48425 61.727,7.438875 61.621,7.438875 L61.317875,7.438875 L61.2875,6.711375 L60.59025,6.726375 L60.59025,6.7265 Z" id="Shape" stroke="#000000" stroke-width="1.17" fill="#B3A192"></path>
                    <path d="M61.794875,7.831625 C61.794875,7.911625 61.727375,7.976375 61.644,7.976625 C61.560625,7.976625 61.492875,7.912125 61.492625,7.83225 C61.49225,7.752375 61.5595,7.68725 61.64275,7.686875 C61.726125,7.686375 61.79425,7.750625 61.794875,7.8305 M62.143,7.90925 C62.143,7.992625 62.072625,8.06025 61.9855,8.0605 C61.898625,8.0605 61.828,7.99325 61.8275,7.909875 C61.827125,7.8265 61.897375,7.758625 61.984375,7.758125 C62.07125,7.757625 62.14225,7.824625 62.143,7.908125 M61.44625,7.826125 C61.44625,7.906 61.37875,7.970875 61.295375,7.971 C61.212125,7.971125 61.14425,7.906625 61.144,7.82675 C61.143625,7.74675 61.210875,7.68175 61.294125,7.68125 C61.3775,7.68075 61.445625,7.745 61.44625,7.825 M60.7475,7.834 C60.7475,7.917125 60.6775,7.9845 60.590625,7.98475 C60.503875,7.984875 60.433375,7.91775 60.433125,7.834625 C60.432625,7.7515 60.502625,7.68375 60.589375,7.68325 C60.676125,7.68275 60.746875,7.749625 60.747625,7.83275 M60.35975,7.859875 C60.35975,7.943 60.289625,8.010375 60.202875,8.010625 C60.116125,8.01075 60.0455,7.943625 60.04525,7.8605 C60.044875,7.777375 60.11475,7.709625 60.2015,7.709125 C60.28825,7.708625 60.359,7.7755 60.35975,7.858625 M61.071625,7.42375 C61.071625,7.49375 61.012375,7.55075 60.939125,7.550875 C60.866,7.551 60.806625,7.494375 60.80625,7.42425 C60.806,7.354125 60.865,7.297 60.938125,7.2965 C61.01125,7.296125 61.071,7.3525 61.071625,7.42275 M61.071625,6.8325 C61.071625,6.90275 61.012375,6.959625 60.939125,6.95975 C60.866,6.959875 60.8065,6.90325 60.80625,6.833125 C60.806,6.763 60.865,6.705875 60.938125,6.705375 C61.01125,6.705 61.071,6.761375 61.071625,6.831625 M61.071625,7.150875 C61.071625,7.221 61.012375,7.277875 60.939125,7.278 C60.866,7.27825 60.806625,7.2215 60.80625,7.151375 C60.806,7.081375 60.865,7.024125 60.938125,7.02375 C61.01125,7.02325 61.071,7.07975 61.071625,7.149875 M59.96675,7.965375 C59.96675,8.045625 59.899,8.11075 59.81525,8.110875 C59.7315,8.111125 59.6635,8.04625 59.663125,7.966 C59.66275,7.885875 59.730375,7.8205 59.814,7.82 C59.89775,7.8195 59.966125,7.884125 59.96675,7.96425" id="Shape" stroke="#121116" stroke-width="0.596" fill="#F0DDCB"></path>
                    <path id="Shape" stroke="#4D3126" stroke-width="0.596" fill="#916C68"></path>
                    <g transform="translate(60.625000, 5.250000)" id="Shape">
                        <path d="M0.632875,0.43125 C0.632875,0.60525 0.493875,0.746375 0.322125,0.74675 C0.150375,0.747125 0.010875,0.6065 0.010125,0.4325 C0.0095,0.258375 0.148,0.116625 0.319625,0.115625 C0.491375,0.114625 0.6315,0.254625 0.632875,0.42875" stroke="#1E1E1E" stroke-width="1.169966" fill="#EEEEEE"></path>
                        <path fill="#A3AFB8"></path>
                    </g>
                    <path d="M55.995875,16.266875 C55.995875,16.266875 56.273625,16.526125 56.34775,16.757625 C56.42175,16.989125 56.532875,17.6095 56.532875,17.6095 C56.532875,17.6095 59.44025,16.804 60.866125,16.86875 C62.292,16.933625 65.578875,17.65575 65.578875,17.65575 C65.578875,17.65575 65.634375,17.303875 65.69925,16.933625 C65.764,16.56325 66.0325,16.155875 66.0325,16.155875 C66.0325,16.155875 62.89375,15.174375 60.912375,15.267 C58.931,15.3595 57.94025,15.5725 57.495875,15.711375 C57.051375,15.85025 55.968125,16.27625 55.995875,16.266875 L55.995875,16.266875 Z" id="Shape" stroke="#000000" stroke-width="0.1" fill="#FFCC00"></path>
                    <path d="M60.332625,4.506 L61.583125,4.506 C61.583125,4.506 61.2745,4.7195 61.21175,4.92275 C61.15775,5.09775 61.173875,5.385125 61.173875,5.385125 C61.173875,5.385125 61.514875,5.385125 61.666375,5.25625 C61.818,5.1275 62.136375,4.9 62.136375,4.9 L62.136375,6.4915 C62.136375,6.4915 61.829375,6.19475 61.64375,6.0975 C61.5023661,6.02497088 61.3520255,5.97142491 61.196625,5.93825 C61.196625,5.93825 61.196625,6.196 61.302625,6.3475 C61.408875,6.499125 61.833125,7.075 61.833125,7.075 L60.044625,7.14325 C60.044625,7.14325 60.468875,6.696 60.643375,6.37025 C60.757125,6.158125 60.7115,5.93825 60.7115,5.93825 C60.7115,5.93825 60.408375,5.93825 60.256875,6.0445 C60.10525,6.1505 59.84,6.46875 59.84,6.46875 L59.84,4.938 C59.84,4.938 59.95375,5.2335 60.20375,5.347125 C60.453875,5.460875 60.68875,5.40025 60.68875,5.40025 C60.68875,5.40025 60.737375,5.095625 60.63575,4.907625 C60.531,4.713875 60.309875,4.498375 60.332625,4.506 L60.332625,4.506 Z" id="Shape" stroke="#000000" stroke-width="0.1" fill="#FFCC00"></path>
                    <path d="M60.234625,9.556125 C60.234625,9.556125 59.345125,9.545375 58.584125,9.09525 C57.823125,8.645125 57.055625,8.173625 55.926125,8.4415 C55.694875,8.49625 54.843625,8.87025 54.468625,10.08125 C54.205375,10.931 54.511375,11.95675 54.779375,12.417625 C55.047375,12.8785 55.479375,13.345625 55.479375,13.345625 L55.938875,13.034375 C55.938875,13.034375 54.768625,12.0425 54.908,10.756375 C55.047375,9.470375 55.690375,9.170125 55.690375,9.170125 C55.690375,9.170125 56.4835,8.548625 57.5445,9.138125 C58.605625,9.7275 59.645125,9.9955 59.645125,9.9955 C59.645125,9.9955 60.6205,10.23125 60.70625,10.2205 C60.792,10.209875 60.21325,9.545375 60.234625,9.556125 L60.234625,9.556125 Z" id="Shape" stroke="#121116" stroke-width="0.1" fill="#FFCC00"></path>
                    <path d="M55.314375,14.38 L54.841875,13.450875 L56.25975,12.89675 C56.25975,12.89675 55.9175,13.353 55.836,13.679125 C55.7365,14.07725 55.77075,14.4125 55.77075,14.4125 C55.77075,14.4125 55.901125,14.31475 56.064125,14.054 C56.187875,13.856 56.390125,13.14125 56.390125,13.14125 L57.02575,15.1785 C57.03075,15.184 56.699,14.85175 56.46575,14.81225 C56.202875,14.767875 55.884875,14.852625 55.884875,14.852625 L55.51,14.966625 L55.314375,14.379875 L55.314375,14.38 Z" id="Shape" stroke="#000000" stroke-width="0.1" fill="#FFCC00"></path>
                    <path d="M61.837875,9.53925 C61.837875,9.53925 62.7275,9.528625 63.488375,9.0785 C64.249375,8.62825 65.016875,8.156875 66.146375,8.42475 C66.377625,8.4795 67.228875,8.853375 67.603875,10.0645 C67.867125,10.91425 67.561125,11.94 67.293125,12.400875 C67.02525,12.86175 66.843,13.132875 66.843,13.132875 L66.290625,12.9345 C66.290625,12.9345 67.303875,12.02575 67.1645,10.739625 C67.02525,9.4535 66.382125,9.153375 66.382125,9.153375 C66.382125,9.153375 65.589,8.531875 64.528,9.121375 C63.467,9.71075 62.427375,9.97875 62.427375,9.97875 C62.427375,9.97875 61.452,10.2145 61.36625,10.20375 C61.280625,10.193125 61.859375,9.528625 61.837875,9.53925 L61.837875,9.53925 Z" id="Shape" stroke="#121116" stroke-width="0.1" fill="#FFCC00"></path>
                    <path d="M61.3785,8.659 L61.749875,8.659 L61.749875,12.122375 L61.3785,12.122375 L61.3785,8.659 Z M60.128,8.643875 L60.5675,8.643875 L60.5675,12.10725 L60.128,12.10725 L60.128,8.643875 Z" id="Shape" stroke="#121116" stroke-width="0.1" fill="#FFCC00"></path>
                    <path d="M62.1515,7.8405 C62.1515,8.454875 61.610125,8.953375 60.941375,8.954625 C60.272625,8.955875 59.729,8.459375 59.726375,7.845 C59.72375,7.230625 60.263,6.730125 60.93175,6.7265 C61.6005,6.722875 62.146125,7.217375 62.1515,7.83175" id="Shape" stroke="#121116" stroke-width="0.1" fill="#FFCC00"></path>
                    <path d="M59.863375,12.093375 L61.9485,12.07625 C61.9485,12.07625 61.704,12.222125 61.49375,12.595375 C61.2835,12.968625 61.3135,13.204625 61.3135,13.204625 C61.3135,13.204625 61.631,13.200375 61.854125,13.03725 C62.07725,12.87425 62.326125,12.569625 62.326125,12.569625 L62.3175,14.49175 C62.3175,14.49175 62.167375,14.24725 61.9185,14.101375 C61.66975,13.9555 61.317875,13.9555 61.317875,13.9555 L60.605625,13.9555 C60.605625,13.9555 60.28,13.97475 60.133625,14.07125 C59.927375,14.2075 59.67025,14.470375 59.67025,14.470375 L59.636,12.655375 C59.636,12.655375 59.738875,12.972875 60.0735,13.101625 C60.40825,13.230375 60.597,13.21325 60.597,13.21325 C60.597,13.21325 60.597,12.805625 60.425375,12.595375 C60.25375,12.385125 59.863375,12.102 59.863375,12.093375 L59.863375,12.093375 Z" id="Shape" stroke="#000000" stroke-width="0.1" fill="#FFCC00"></path>
                    <path d="M61.025125,13.602625 C61.025125,13.602625 61.33025,14.3145 61.685,14.62875 C61.8915,14.811625 62.512375,14.949375 62.793,14.87775 C63.423875,14.716625 63.857375,14.212 63.857375,14.212 C63.857375,14.212 63.834875,14.764875 64.22975,15.0695 C64.62475,15.374125 64.940625,15.45325 65.26775,15.362875 C65.595,15.272625 66.52025,14.584375 66.52025,14.584375 L66.712125,14.753625 C66.712125,14.753625 66.1815,15.268875 65.62375,15.542375 C65.336625,15.68325 64.465,15.605 64.182875,15.379375 C63.90075,15.153625 63.73325,14.606875 63.73325,14.606875 C63.73325,14.606875 63.5595,14.958375 63.18725,15.0825 C62.81475,15.206625 62.303125,15.20125 61.828,15.0625 C61.50825,14.969 61.092875,14.527875 61.013875,14.38125 C60.934875,14.2345 60.9575,14.1555 60.9575,14.1555 C60.9575,14.1555 60.723125,14.827125 60.235375,15.0105 C59.774625,15.183375 59.2495,15.18475 58.80325,15.0565 C58.35225,14.92675 58.317,14.674625 58.317,14.674625 C58.317,14.674625 58.28325,15.3855 57.301625,15.5885 C56.319875,15.791625 55.541375,15.0695 55.541375,15.0695 L55.67675,14.866375 C55.67675,14.866375 56.229625,15.487 57.075875,15.430625 C57.922125,15.374125 58.20425,14.291 58.20425,14.291 C58.20425,14.291 58.576625,14.855125 59.569625,14.866375 C60.5625,14.877625 60.844625,13.580125 60.844625,13.580125 L61.025125,13.602625 L61.025125,13.602625 Z" id="Shape" stroke="#000000" stroke-width="0.1" fill="#F6CA1F"></path>
                    <g transform="translate(56.500000, 11.500000)" id="Shape" stroke="#000000" fill="#FFCC00">
                        <path d="M2.078625,2.51675 C2.078625,2.51675 2.086125,2.17125 2.160375,2.067375 C2.265625,1.920125 2.409,1.914125 2.482125,1.934625 C2.57225,1.959875 2.665875,2.041875 2.650625,2.281875 C2.63525,2.521875 2.568875,2.639375 2.640375,2.73125 C2.711875,2.82325 2.722125,2.8845 2.86,2.864 C2.997875,2.843625 3.059125,2.79775 3.0285,2.67 C2.997875,2.54225 2.957,2.68025 2.9315,2.573 C2.906,2.46575 3.064875,2.002375 3.03875,1.715 C3.01325,1.434125 2.906,1.209375 2.6915,1.153125 C2.489875,1.100375 2.318625,1.102125 2.129625,1.24 C1.948375,1.37225 1.716,1.806875 1.716,1.806875 L1.711,2.736375 L2.088875,2.716 L2.078625,2.51675 L2.078625,2.51675 Z" stroke-width="0.1"></path>
                        <path d="M1.374625,2.767 C1.374625,2.767 1.23,2.453 1.1205,2.387375 C0.96525,2.29425 0.831375,2.345875 0.7725,2.393875 C0.7,2.453 0.646625,2.5655 0.756375,2.7795 C0.866125,2.9935 0.973875,3.07475 0.944875,3.187625 C0.915875,3.300375 0.931,3.36075 0.796375,3.396875 C0.66175,3.433125 0.58725,3.415375 0.5645,3.286125 C0.541625,3.15675 0.634125,3.267 0.61475,3.158375 C0.5955,3.049875 0.265,2.688375 0.1745,2.41425 C0.085875,2.1465 0.09475,1.897625 0.269,1.760625 C0.432875,1.631875 0.590625,1.56525 0.819,1.616375 C1.03775,1.665375 1.42425,1.971375 1.42425,1.971375 L1.799375,2.821875 L1.444625,2.95375 L1.374625,2.767 L1.374625,2.767 Z" stroke-width="0.1"></path>
                        <path d="M1.302375,0.01425 C1.302375,0.01425 0.934625,0.63225 1.016375,1.10725 C1.098,1.58225 1.588375,2.6035 1.588375,2.6035 L1.593375,2.7415 L1.858,2.712875 L1.79775,2.572875 C1.79775,2.572875 1.929875,1.35025 1.84875,0.964125 C1.7885,0.67725 1.3075,0.019375 1.302375,0.01425 L1.302375,0.01425 Z M1.889625,2.843625 C1.889625,2.843625 2.073375,3.0635 2.293125,3.1705 C2.533125,3.287375 2.631875,3.288125 2.72725,3.2165 C2.797125,3.164 2.773125,2.940625 2.6915,2.879375 C2.60975,2.818125 2.517,2.84925 2.5025,2.91 C2.477875,3.012625 2.4445,3.00575 2.36975,2.96625 C2.260625,2.908375 2.007125,2.75175 2.007125,2.75175 L1.889625,2.843625 L1.889625,2.843625 Z M1.605,2.8935 C1.605,2.8935 1.527625,3.169375 1.37125,3.35725 C1.20025,3.56225 1.110625,3.6035 0.99425,3.57725 C0.908875,3.558 0.839125,3.344625 0.8885,3.255125 C0.937875,3.16575 1.035125,3.156125 1.0735,3.2055 C1.137875,3.289125 1.165625,3.269125 1.2175,3.20225 C1.293375,3.10475 1.460125,2.857875 1.460125,2.857875 L1.605125,2.8935 L1.605,2.8935 Z" stroke-width="0.1"></path>
                        <path stroke-width="1.14741"></path>
                    </g>
                    <g transform="translate(62.375000, 11.500000)" id="Shape" stroke="#000000" fill="#FFCC00">
                        <path d="M1.8295,2.65525 C1.8295,2.65525 1.957625,2.33425 2.063625,2.263 C2.213875,2.162 2.35025,2.20675 2.4115,2.2515 C2.487125,2.30675 2.546,2.4165 2.4475,2.63575 C2.349,2.85525 2.245625,2.942 2.280375,3.053125 C2.315125,3.164375 2.303125,3.22525 2.4395,3.254375 C2.57575,3.283625 2.64925,3.262125 2.665375,3.131875 C2.681375,3.0015 2.59475,3.11625 2.6085,3.006875 C2.62225,2.8975 2.9335,2.519375 3.00975,2.241 C3.084375,1.969 3.06275,1.721 2.881625,1.593125 C2.71125,1.473 2.550375,1.414625 2.325,1.4775 C2.108875,1.53775 1.73875,1.86325 1.73875,1.86325 L1.408125,2.732 L1.76925,2.845375 L1.8295,2.65525 L1.8295,2.65525 Z" stroke-width="0.1"></path>
                        <path d="M1.0825,2.642625 C1.0825,2.642625 1.057125,2.297875 0.977625,2.198 C0.864875,2.056375 0.721375,2.057875 0.6495,2.082 C0.56075,2.112 0.471375,2.198625 0.499125,2.437625 C0.52675,2.676375 0.599125,2.790375 0.5325,2.885875 C0.465875,2.981375 0.45875,3.043125 0.32,3.029875 C0.18125,3.0165 0.11775,2.97375 0.14175,2.84475 C0.16575,2.715625 0.213625,2.85125 0.233625,2.74275 C0.253625,2.634375 0.070875,2.179875 0.082125,1.8915 C0.093125,1.609625 0.188625,1.37975 0.4,1.3125 C0.598625,1.249375 0.769625,1.24225 0.9655,1.37025 C1.153375,1.493 1.408,1.915 1.408,1.915 L1.461,2.843 L1.0825,2.842125 L1.0825,2.642625 L1.0825,2.642625 Z" stroke-width="0.1"></path>
                        <path d="M1.98,0.0395 C1.98,0.0395 1.419,0.48925 1.329,0.962625 C1.239,1.436125 1.339875,2.564625 1.339875,2.564625 L1.29625,2.6955 L1.554125,2.7615 L1.546625,2.609375 C1.546625,2.609375 2.09925,1.510625 2.15875,1.120625 C2.202875,0.830875 1.983,0.046 1.98,0.039375 L1.98,0.0395 Z M1.537875,2.895 C1.537875,2.895 1.632875,3.165375 1.801125,3.342625 C1.984875,3.536375 2.077,3.571625 2.1915,3.537875 C2.275375,3.51325 2.33125,3.29575 2.27625,3.20975 C2.22125,3.123625 2.1235,3.120375 2.0885,3.17225 C2.0295,3.25975 2.000625,3.2415 1.9445,3.178125 C1.8625,3.085625 1.680125,2.850125 1.680125,2.850125 L1.537875,2.895125 L1.537875,2.895 Z M1.25375,2.842 C1.25375,2.842 1.084625,3.07325 0.87225,3.194125 C0.64025,3.32625 0.541875,3.333375 0.442,3.268 C0.368875,3.220125 0.378375,2.99575 0.456,2.92925 C0.5335,2.863 0.628125,2.888 0.6465,2.94775 C0.67775,3.048625 0.710625,3.039625 0.78275,2.99525 C0.88775,2.9305 1.130625,2.75775 1.130625,2.75775 L1.253875,2.842 L1.25375,2.842 Z" stroke-width="0.1"></path>
                        <path stroke-width="1.14741"></path>
                    </g>
                    <path d="M55.88625,16.23375 C55.88625,16.23375 55.947125,16.489375 56.093125,16.3555 C56.239,16.22175 58.2465,15.430875 61.081125,15.430875 C63.91575,15.430875 65.777125,16.209625 65.886625,16.25825 C65.996125,16.306875 66.044875,16.36775 66.142125,16.25825 C66.2395,16.14875 66.044875,15.978375 66.044875,15.978375 C66.044875,15.978375 64.074,15.138875 60.996,15.151125 C57.918,15.16325 55.92275,16.03925 55.92275,16.03925 C55.92275,16.03925 55.789,16.1365 55.88625,16.233875 L55.88625,16.23375 Z" id="Shape" stroke="#000000" stroke-width="0.1" fill="#CCA715"></path>
                    <path d="M59.48075,17.413 C59.48075,17.413 59.57125,17.1615 59.729125,17.113125 C59.855,17.074625 60.053875,17.198375 60.053875,17.198375 C60.053875,17.198375 59.814375,17.176375 59.739375,17.219 C59.67175,17.2575 59.65125,17.371875 59.65125,17.371875 C59.65125,17.371875 59.702625,17.280625 59.886375,17.2895 C60.070125,17.29825 60.090625,17.29825 60.090625,17.29825 C60.090625,17.29825 59.779125,17.321875 59.707125,17.4115 C59.635125,17.501125 60.001,17.54225 60.001,17.54225 C60.001,17.54225 59.441,17.54525 59.367625,17.511375 C59.294125,17.477625 59.247125,17.363 59.122125,17.39825 C58.99725,17.4335 58.869375,17.54525 58.869375,17.54525 C58.869375,17.54525 59.011875,17.305625 59.101625,17.30425 C59.19125,17.30275 59.244125,17.298375 59.325,17.335125 C59.405875,17.37175 59.48075,17.413 59.48075,17.413 L59.48075,17.413 Z M57.387125,17.8665 C57.387125,17.8665 57.4295,17.60275 57.57575,17.525875 C57.692375,17.464625 57.91075,17.549625 57.91075,17.549625 C57.91075,17.549625 57.671125,17.57225 57.605375,17.628 C57.546,17.678375 57.547,17.7945 57.547,17.7945 C57.547,17.7945 57.58075,17.6955 57.762875,17.670125 C57.8304886,17.6612233 57.8979934,17.6515143 57.965375,17.641 C57.965375,17.641 57.663375,17.72175 57.609125,17.823125 C57.555,17.924625 57.92225,17.897375 57.92225,17.897375 C57.92225,17.897375 57.3725,18.00375 57.294125,17.984125 C57.215625,17.9645 57.14825,17.860625 57.032,17.918375 C56.91575,17.976125 56.81075,18.1095 56.81075,18.1095 C56.81075,18.1095 56.9065,17.84775 56.994375,17.82975 C57.08225,17.811625 57.133375,17.797625 57.219625,17.81875 C57.305875,17.84 57.387125,17.8665 57.387125,17.8665 L57.387125,17.8665 Z M61.2465,17.32 C61.2465,17.32 61.3515,17.07425 61.511875,17.035 C61.639875,17.003875 61.831125,17.139 61.831125,17.139 C61.831125,17.139 61.59325,17.103125 61.516125,17.141375 C61.446125,17.175875 61.419125,17.288875 61.419125,17.288875 C61.419125,17.288875 61.47575,17.200875 61.658625,17.22025 C61.8415,17.23975 61.862,17.240875 61.862,17.240875 C61.862,17.240875 61.549625,17.246375 61.472625,17.331625 C61.3955,17.417 61.758375,17.47925 61.758375,17.47925 C61.758375,17.47925 61.19925,17.44975 61.127875,17.41175 C61.0565,17.37375 61.016125,17.256625 60.889375,17.284625 C60.762625,17.3125 60.628625,17.416625 60.628625,17.416625 C60.628625,17.416625 60.784875,17.18575 60.874375,17.1895 C60.963875,17.19325 61.016875,17.191875 61.095625,17.23325 C61.174125,17.2745 61.2465,17.32 61.2465,17.32 L61.2465,17.32 Z M63.0145,17.52 C63.0145,17.52 63.14725,17.288125 63.31125,17.268 C63.441875,17.251875 63.61625,17.4085 63.61625,17.4085 C63.61625,17.4085 63.384125,17.345125 63.302875,17.374 C63.2295,17.400125 63.1895,17.509125 63.1895,17.509125 C63.1895,17.509125 63.256,17.428375 63.435375,17.469125 C63.61475,17.509625 63.635,17.51325 63.635,17.51325 C63.635,17.51325 63.324125,17.48225 63.2375,17.558 C63.151125,17.633625 63.50425,17.738 63.50425,17.738 C63.50425,17.738 62.952375,17.643375 62.885875,17.59725 C62.819375,17.55125 62.793125,17.430125 62.663875,17.443125 C62.53475,17.456125 62.389375,17.543875 62.389375,17.543875 C62.389375,17.543875 62.5715,17.33275 62.66,17.346875 C62.748625,17.361125 62.801375,17.366 62.874625,17.41625 C62.947875,17.466375 63.0145,17.52 63.0145,17.52 L63.0145,17.52 Z M64.77,17.833375 C64.77,17.833375 64.89375,17.656875 65.026875,17.652625 C65.133125,17.64925 65.26175,17.787875 65.26175,17.787875 C65.26175,17.787875 65.079875,17.719875 65.0125,17.73725 C64.951625,17.752875 64.9115,17.8375 64.9115,17.8375 C64.9115,17.8375 64.970875,17.7775 65.112,17.82325 C65.253125,17.869125 65.269125,17.8735 65.269125,17.8735 C65.269125,17.8735 65.021625,17.82575 64.946625,17.88025 C64.8715,17.93475 65.147625,18.044375 65.147625,18.044375 C65.147625,18.044375 64.711125,17.928 64.661,17.886125 C64.611,17.844125 64.598625,17.744875 64.494,17.746 C64.38925,17.747 64.266,17.80675 64.266,17.80675 C64.266,17.80675 64.42775,17.6505 64.497875,17.668375 C64.567875,17.68625 64.610125,17.694 64.66525,17.739625 C64.720375,17.7855 64.77,17.833375 64.77,17.833375 L64.77,17.833375 Z" id="Shape" fill="#000000"></path>
                    <path d="M59.12775,16.21525 C59.17,16.42475 58.9235,16.650875 58.5775,16.72025 C58.2315,16.7895 57.917125,16.67575 57.875375,16.466125 C57.833125,16.25675 58.0795,16.030625 58.4255,15.961375 C58.7715,15.892 59.086,16.00575 59.12775,16.21525 L59.12775,16.21525 Z" id="Shape" stroke="#000000" stroke-width="0.1" fill="#0F6545"></path>
                    <path id="Shape" fill="#CECFC1"></path>
                    <path d="M64.0175,16.46875 C63.95375,16.672625 63.629,16.75225 63.29225,16.646625 C62.955625,16.540875 62.73475,16.289875 62.798875,16.086125 C62.862625,15.882125 63.187375,15.8025 63.524125,15.90825 C63.86075,16.013875 64.081625,16.264875 64.0175,16.46875 L64.0175,16.46875 Z" id="Shape" stroke="#000000" stroke-width="0.1" fill="#0F6545"></path>
                    <path id="Shape" fill="#CECFC1"></path>
                    <polygon id="Shape" stroke="#000000" stroke-width="0.1" fill="#1F2D86" points="60.325375 15.742875 61.592875 15.742875 61.592875 16.381875 60.325375 16.381875"></polygon>
                    <path id="Shape" fill="#707C8B"></path>
                    <path d="M56.743,16.381875 L56.9525,16.999875 L56.565,17.209375 C56.565,17.209375 56.386875,17.335125 56.20875,17.24075 C56.03075,17.1465 55.92575,16.864125 56.02025,16.7485 C56.207875,16.519 56.743,16.371375 56.743,16.381875 L56.743,16.381875 Z" id="Shape" stroke="#000000" stroke-width="0.1" fill="#9F1209"></path>
                    <path id="Shape" fill="#8F322F"></path>
                    <path id="Shape" fill="#E2A494"></path>
                    <path d="M65.235,16.462375 L65.026875,17.01275 L65.52025,17.271125 C65.52025,17.271125 65.738375,17.3685 65.876,17.247625 C65.993625,17.144375 66.020375,16.905375 65.926375,16.7845 C65.837375,16.670125 65.22825,16.459 65.235,16.462375 L65.235,16.462375 Z" id="Shape" stroke="#000000" stroke-width="0.1" fill="#9F1209"></path>
                    <path id="Shape" fill="#AA675D"></path>
                    <path id="Shape" fill="#E2A494"></path>
                    <g transform="translate(61.875000, 15.625000)" id="Shape" fill="#F5D8BC">
                        <path d="M0.19375,0.1725 C0.19375,0.219625 0.153875,0.25775 0.104625,0.25775 C0.05525,0.25775 0.015375,0.219625 0.015375,0.172625 C0.015375,0.1255 0.055375,0.087375 0.104625,0.087375 C0.153875,0.087375 0.193875,0.1255 0.19375,0.172625 L0.19375,0.1725 Z M0.733125,0.20375 C0.733125,0.25075 0.693125,0.288875 0.643875,0.288875 C0.594625,0.288875 0.554625,0.25075 0.55475,0.20375 C0.55475,0.156625 0.594625,0.1185 0.643875,0.1185 C0.69325,0.1185 0.733125,0.156625 0.733125,0.20375 L0.733125,0.20375 Z M0.45975,0.41325 C0.45975,0.472375 0.409625,0.52025 0.347625,0.52025 C0.285625,0.52025 0.2355,0.472375 0.2355,0.41325 C0.2355,0.354125 0.285625,0.306125 0.347625,0.306125 C0.409625,0.306125 0.459875,0.354125 0.45975,0.41325 L0.45975,0.41325 Z M0.72,0.765 C0.72,0.812125 0.68,0.85025 0.63075,0.85025 C0.5815,0.85025 0.5415,0.812125 0.541625,0.765125 C0.541625,0.718 0.581625,0.679875 0.63075,0.679875 C0.680125,0.679875 0.72,0.718 0.72,0.765125 L0.72,0.765 Z M0.1995,0.698 C0.1995,0.745 0.1595,0.783125 0.110375,0.783125 C0.061,0.783125 0.021125,0.745 0.021125,0.698 C0.021125,0.651 0.061125,0.61275 0.110375,0.61275 C0.159625,0.61275 0.199625,0.651 0.1995,0.698 L0.1995,0.698 Z"></path>
                    </g>
                    <g transform="translate(59.250000, 15.625000)" id="Shape" fill="#F5D8BC">
                        <path d="M0.216125,0.264375 C0.22675,0.31025 0.196375,0.356375 0.148375,0.3675 C0.100375,0.37875 0.052875,0.3505 0.04225,0.304625 C0.031625,0.258875 0.061875,0.212625 0.11,0.2015 C0.158,0.190375 0.2055,0.218625 0.216125,0.264375 L0.216125,0.264375 Z M0.7485,0.173 C0.759125,0.218875 0.728875,0.265 0.680875,0.276125 C0.63275,0.287375 0.58525,0.259125 0.574625,0.21325 C0.564,0.1675 0.594375,0.12125 0.642375,0.110125 C0.690375,0.099 0.737875,0.12725 0.7485,0.173 L0.7485,0.173 Z M0.5295,0.43875 C0.542875,0.496375 0.50475,0.554375 0.4445,0.568375 C0.384,0.582375 0.32425,0.547 0.311,0.489375 C0.297625,0.431875 0.33575,0.37375 0.396,0.35975 C0.4565,0.34575 0.516125,0.38125 0.5295,0.43875 L0.5295,0.43875 Z M0.8625,0.722875 C0.873,0.76875 0.84275,0.814875 0.79475,0.826 C0.746625,0.83725 0.699125,0.809 0.6885,0.763125 C0.677875,0.717375 0.70825,0.671125 0.75625,0.66 C0.80425,0.648875 0.851875,0.677125 0.8625,0.722875 L0.8625,0.722875 Z M0.340125,0.775 C0.350875,0.82075 0.3205,0.867 0.2725,0.878125 C0.2245,0.88925 0.177,0.861 0.166375,0.81525 C0.15575,0.769375 0.186,0.72325 0.234,0.712125 C0.282125,0.700875 0.329625,0.729125 0.34025,0.775 L0.340125,0.775 Z"></path>
                    </g>
                    <g transform="translate(57.000000, 16.125000)" id="Shape" fill="#F5D8BC">
                        <path d="M0.1925,0.255125 C0.209625,0.298875 0.18625,0.349 0.14025,0.366875 C0.094375,0.384625 0.04325,0.363625 0.02625,0.31975 C0.00925,0.276 0.032625,0.225875 0.078625,0.208 C0.124625,0.190125 0.175625,0.21125 0.192625,0.255125 L0.1925,0.255125 Z M0.706625,0.088875 C0.723625,0.13275 0.70025,0.18275 0.65425,0.200625 C0.608375,0.2185 0.55725,0.197375 0.54025,0.1535 C0.52325,0.10975 0.546625,0.05975 0.592625,0.04175 C0.638625,0.024 0.689625,0.045125 0.706625,0.088875 L0.706625,0.088875 Z M0.527625,0.383125 C0.549125,0.43825 0.519625,0.501125 0.461875,0.5235 C0.404125,0.546 0.34,0.5195 0.318625,0.464375 C0.297125,0.40925 0.326625,0.346375 0.384375,0.323875 C0.442125,0.3015 0.50625,0.328 0.527625,0.383125 L0.527625,0.383125 Z M0.8975,0.617 C0.914625,0.66075 0.89125,0.710875 0.84525,0.72875 C0.799375,0.7465 0.74825,0.7255 0.73125,0.681625 C0.71425,0.63775 0.737625,0.58775 0.783625,0.569875 C0.829625,0.552 0.880625,0.573125 0.897625,0.617 L0.8975,0.617 Z M0.388125,0.742875 C0.405125,0.786625 0.38175,0.836625 0.33575,0.8545 C0.289875,0.872375 0.23875,0.85125 0.22175,0.807375 C0.20475,0.763625 0.228125,0.713625 0.274125,0.69575 C0.320125,0.677875 0.371125,0.699 0.388125,0.742875 L0.388125,0.742875 Z"></path>
                    </g>
                    <g transform="translate(64.000000, 16.000000)" id="Shape" fill="#F5D8BC">
                        <path d="M0.410375,0.132875 C0.398375,0.182125 0.346875,0.21175 0.29525,0.199125 C0.243625,0.186625 0.211625,0.136375 0.22375,0.087125 C0.23575,0.037875 0.287375,0.00825 0.338875,0.020875 C0.3905,0.033375 0.422625,0.083625 0.410375,0.132875 L0.410375,0.132875 Z M0.966875,0.30375 C0.954875,0.352875 0.903125,0.3825 0.851625,0.37 C0.8,0.35725 0.768,0.307125 0.780125,0.257875 C0.792125,0.20875 0.84375,0.179 0.895375,0.191625 C0.946875,0.20425 0.979,0.2545 0.966875,0.303625 L0.966875,0.30375 Z M0.627125,0.452875 C0.612,0.51475 0.547125,0.552 0.482375,0.536125 C0.417375,0.52025 0.37725,0.45725 0.392375,0.395375 C0.4075,0.3335 0.472375,0.296125 0.53725,0.312 C0.602,0.327875 0.64225,0.391 0.627125,0.452875 L0.627125,0.452875 Z M0.80925,0.88775 C0.79725,0.937 0.745625,0.96675 0.694,0.954 C0.6425,0.9415 0.610375,0.89125 0.6225,0.842 C0.6345,0.792875 0.686125,0.76325 0.73775,0.77575 C0.78925,0.788375 0.821375,0.838625 0.80925,0.88775 L0.80925,0.88775 Z M0.28175,0.684125 C0.26975,0.733375 0.218125,0.763125 0.166625,0.750375 C0.115,0.737875 0.082875,0.687625 0.095,0.638375 C0.107,0.589125 0.15875,0.5595 0.21025,0.572125 C0.261875,0.58475 0.293875,0.634875 0.28175,0.684125 L0.28175,0.684125 Z"></path>
                    </g>
                    <path id="Shape" stroke="#000000" stroke-width="1.2"></path>
                    <path d="M60.112,11.597125 C60.112,11.597125 59.64725,11.517125 59.454875,11.452875 C59.262625,11.388875 59.31075,11.260625 59.086375,11.276625 C58.862,11.292625 58.637625,11.452875 58.685625,11.67725 C58.73375,11.901625 58.894,11.93375 59.054375,11.885625 C59.2145,11.8375 59.1665,11.565125 58.958125,11.581125 C58.74975,11.597125 58.926125,11.7735 58.926125,11.7735" id="Shape" stroke="#000000" stroke-width="0.1"></path>
                    <path d="M56.906875,11.244625 C56.906875,11.244625 57.035,11.436875 57.371625,11.404875 C57.708125,11.37275 57.836375,11.1965 57.852375,11.116375 C57.868375,11.036375 57.852375,10.892 57.78825,10.827875 C57.724125,10.763875 57.49975,10.73175 57.49975,10.73175" id="Shape" stroke="#000000" stroke-width="0.1"></path>
                    <g transform="translate(57.625000, 21.875000)" id="Shape" stroke="#161111" stroke-width="0.600000024">
                        <path d="M5.77375,11.92525 C6.084625,11.61925 6.5845,11.2805 6.862125,10.54425 C7.122125,9.855125 7.248,8.590125 7.485125,7.949 C7.795125,6.85 8.419375,5.7785 7.676375,5.85175 C6.968875,5.92175 6.740125,6.60525 6.472,7.1055 C6.34775,7.29175 6.061625,7.690875 6.0075,7.917625 C5.996625,7.537 5.804375,6.426875 5.765,5.3105 C5.728375,4.267875 5.758,3.182625 5.73,2.777625 C5.696,2.243 5.6995,1.74075 5.574125,1.345625 C5.51575,1.161375 5.245,0.984375 5.10625,0.992 C4.821125,0.994125 4.64875,1.242125 4.610125,1.475125 C4.582375,1.65925 4.590125,1.592125 4.571375,1.830125 C4.547625,2.131125 4.577,2.51925 4.555375,2.86 C4.532,3.2275 4.58,3.6355 4.56,3.977375 C4.519625,4.666625 4.46975,5.298125 4.449375,5.427375 C4.449375,5.17175 4.3325,3.964375 4.2935,2.818375 C4.278625,2.3835 4.2685,1.954875 4.260875,1.55575 C4.254625,1.232875 4.26875,0.8895 4.234125,0.63875 C4.175,0.21075 4.036625,0.015875 3.726125,0.015875 C3.51675,0.015875 3.217,0.16825 3.121125,0.644125 C3.0695,0.90075 3.067375,1.214875 3.075875,1.557875 C3.08375,1.876625 3.10075,2.220125 3.095625,2.565 C3.07625,3.8705 3.053125,5.254125 2.999875,5.66175 C2.99125,5.52775 2.860625,4.84475 2.825375,3.93025 C2.8115,3.57 2.791875,3.13525 2.772625,2.71975 C2.7495,2.222875 2.751375,1.85225 2.738875,1.520875 C2.735375,1.320625 2.65575,0.744375 2.270375,0.779 C2.068125,0.75425 1.853875,0.89525 1.767625,1.440625 C1.719625,1.744375 1.72075,2.267125 1.71275,2.67 C1.697625,3.435 1.6645,4.104875 1.70125,4.785875 C1.724125,5.210875 1.720625,5.538375 1.7255,5.74775 C1.7305,5.803375 1.617,5.39075 1.559625,4.829875 C1.503375,4.28125 1.45375,3.582875 1.45825,3.744 C1.45825,3.46075 1.4445,3.039 1.419,2.691 C1.399,2.419125 1.4115,2.11925 1.11675,2.14325 C0.8175,2.1675 0.63375,2.268625 0.57175,2.781 C0.53175,3.112875 0.52075,3.83025 0.512,4.090375 C0.54425,4.751875 0.3675,6.294125 0.287375,6.732625 C0.2655,7.043375 0.142875,7.447625 0.091,7.88075 C-0.020625,8.81325 0.0855,9.90475 0.209,10.4635 C0.454375,11.3455 1.094875,11.74125 1.06275,12.33975 C1.0305,12.93825 1.06275,13.9935 1.06275,14.466 C1.06275,14.9385 1.473125,14.964 2.32275,14.781 C3.712125,14.48175 4.47125,15.08025 5.618375,14.63925 C5.472875,13.332 5.756375,12.546125 5.749,12.073625 L5.77375,11.92525 Z M4.963125,8.83625 C5.2505,8.043 5.613375,7.731375 5.963625,7.558375 L4.963125,8.83625 Z" fill="#CC0000"></path>
                        <path d="M1.804,8.0185 C2.236625,7.847875 2.685875,7.724 3.1255,7.57375 C3.6635,7.422 4.1845,7.2045 4.739625,7.1185 C5.007125,7.064 5.276,7.01125 5.548875,6.992875 M1.032375,12.250875 C1.092875,12.210875 1.151125,12.274375 1.209375,12.2865 C1.290875,12.3115 1.376125,12.33675 1.462125,12.322 C1.630875,12.31925 1.8,12.319 1.968875,12.322625 C2.16925,12.31525 2.335125,12.308 2.496375,12.194625 M3.7515,12.271375 C3.8095,12.319 3.8755,12.356375 3.94525,12.383875 C4.052625,12.431375 4.17,12.4375 4.86625,12.381375 C5.298,12.409 5.680375,12.036125 5.788125,11.9355"></path>
                    </g>
                </g>
            </g>
        </g>
    </g>
</svg>