<?xml version="1.0" encoding="UTF-8" standalone="no"?>
<svg width="122px" height="60px" viewBox="0 0 122 60" version="1.1" xmlns="http://www.w3.org/2000/svg" xmlns:xlink="http://www.w3.org/1999/xlink">
    <!-- Generator: Sketch 3.8.2 (29753) - http://www.bohemiancoding.com/sketch -->
    <title>sb</title>
    <desc>Created with Sketch.</desc>
    <defs></defs>
    <g id="Page-1" stroke="none" stroke-width="1" fill="none" fill-rule="evenodd">
        <g id="sb">
            <g id="Clipped">
                <g>
                    <g id="Group">
                        <polygon id="Shape" fill="#0000D6" points="0 60 113.4823 0 0 0"></polygon>
                        <polygon id="Shape" fill="#006000" points="122 0 0 60 122 60"></polygon>
                        <polygon id="Shape" fill="#FFCC00" points="111.47312 9.23705556e-14 5.00021973 53.3232422 0 56 0 60 4 60 11.0269897 56.25 117.49989 3.03222656 121.999998 1 121.999998 0.000439455085 117.49989 0.000439453125"></polygon>
                        <path d="M12.8439087,1.00239258 L14.1465576,4.78630371 L18.372998,4.78344727 L14.9515259,7.11848145 L16.2606567,10.9006348 L12.8433594,8.55999756 L9.42595215,10.9000854 L10.7357422,7.11848145 L7.31481934,4.78234863 L11.5412598,4.78630371 L12.8439087,1.00239258 Z M33.8435059,1.00239258 L35.1460449,4.78630371 L39.3724854,4.78344727 L35.9510132,7.11848145 L37.260144,10.9006348 L33.8428467,8.55999756 L30.4254395,10.9000854 L31.7352295,7.11848145 L28.3143066,4.78234863 L32.5407471,4.78630371 L33.8435059,1.00239258 Z M33.8435059,16.8753296 L35.1460449,20.6592407 L39.3724854,20.6563843 L35.9510132,22.9914185 L37.260144,26.7735718 L33.8428467,24.4329346 L30.4254395,26.7730225 L31.7352295,22.9914185 L28.3143066,20.6552856 L32.5407471,20.6592407 L33.8435059,16.8753296 Z M23.4050659,9.0314209 L24.7077148,12.815332 L28.9341553,12.8124756 L25.5126831,15.1475098 L26.821814,18.9296631 L23.4045166,16.5890259 L19.9871094,18.9291138 L21.2968994,15.1475098 L17.8759766,12.811377 L22.102417,12.815332 L23.4050659,9.0314209 Z M12.8439087,16.8753296 L14.1465576,20.6592407 L18.372998,20.6563843 L14.9515259,22.9914185 L16.2606567,26.7735718 L12.8433594,24.4329346 L9.42595215,26.7730225 L10.7357422,22.9914185 L7.31481934,20.6552856 L11.5412598,20.6592407 L12.8439087,16.8753296 Z" id="Shape" fill="#FFFFFF"></path>
                    </g>
                </g>
            </g>
        </g>
    </g>
</svg>