<?xml version="1.0" encoding="UTF-8" standalone="no"?>
<svg width="122px" height="60px" viewBox="0 0 122 60" version="1.1" xmlns="http://www.w3.org/2000/svg" xmlns:xlink="http://www.w3.org/1999/xlink">
    <!-- Generator: Sketch 3.8.2 (29753) - http://www.bohemiancoding.com/sketch -->
    <title>li</title>
    <desc>Created with Sketch.</desc>
    <defs></defs>
    <g id="Page-1" stroke="none" stroke-width="1" fill="none" fill-rule="evenodd">
        <g id="li">
            <g id="Group">
                <g>
                    <polygon id="Shape" fill="#002B7F" points="0 0 122 0 122 30 0 30"></polygon>
                    <polygon id="Shape" fill="#CE1126" points="0 30 122 30 122 60 0 60"></polygon>
                    <g transform="translate(11.900000, 5.300000)">
                        <g id="a" transform="translate(0.300000, 4.600000)">
                            <path d="M9.4377,2.329 L9.2539,8.579 L2.9119,8.579 C2.1316,7.062 1.4872,5.7737 1.4872,4.0292 C1.4872,2.5692 2.6355,1.4097 4.2905,1.4097 C6.0425,1.4097 7.9675,2.0001 9.4375,2.3289 L9.4377,2.329 Z" id="Shape" fill="#FFD83D"></path>
                            <g id="Group" transform="translate(1.800000, 1.600000)" stroke="#000000" stroke-width="0.1">
                                <path d="M0.4456,1.016 L0.4456,4.6236 M0.955,0.648 L0.955,5.4513 M1.4643,0.3952 L1.4643,6.1177 M1.9736,0.277 L1.9736,4.7652 M2.483,0.2548 L2.483,4.7875 M2.9923,0.0965 L2.9923,4.785 M3.5017,0.0965 L3.5017,4.785 M4.011,0.1424 L4.011,4.8309 M4.5204,0.1884 L4.5204,4.8769 M5.0297,0.487 L5.0297,5.1756 M5.539,0.533 L5.539,5.819 M6.0484,0.533 L6.0484,5.2216 M6.5577,0.533 L6.5577,5.2216" id="Shape" fill="#FFD83D"></path>
                                <path d="M3.6395,0.2923 C4.7159,0.4698 7.0802,1.576 6.8105,3.0726 C6.4285,5.1936 5.1897,4.3424 3.5475,4.0376 L2.3068,4.4513 C1.8628,4.9045 1.209,5.3196 0.7673,4.773 L0.032,4.773 L0.032,7.6452 L8.1662,7.6452 L8.1662,0.706 L3.6395,0.2923 Z" id="Shape" fill="#000000"></path>
                            </g>
                            <ellipse id="Oval" stroke="#000000" stroke-width="1.6" fill="#FFD83D" cx="9.0815" cy="1.3983" rx="0.494" ry="0.494"></ellipse>
                            <ellipse id="Oval" stroke="#000000" stroke-width="0.1" fill="#FFD83D" cx="7.9713" cy="1.1311" rx="0.494" ry="0.494"></ellipse>
                            <ellipse id="Oval" stroke="#000000" stroke-width="0.1" fill="#FFD83D" cx="6.845" cy="0.8482" rx="0.494" ry="0.494"></ellipse>
                            <ellipse id="Oval" stroke="#000000" stroke-width="0.1" fill="#FFD83D" cx="5.7143" cy="0.6596" rx="0.494" ry="0.494"></ellipse>
                            <ellipse id="Oval" stroke="#000000" stroke-width="0.1" fill="#FFD83D" cx="4.5836" cy="0.5481" rx="0.494" ry="0.494"></ellipse>
                            <ellipse id="Oval" stroke="#000000" stroke-width="0.1" fill="#FFD83D" cx="3.4749" cy="0.6113" rx="0.494" ry="0.494"></ellipse>
                            <ellipse id="Oval" stroke="#000000" stroke-width="0.1" fill="#FFD83D" cx="2.4179" cy="0.9732" rx="0.494" ry="0.494"></ellipse>
                            <ellipse id="Oval" stroke="#000000" stroke-width="0.1" fill="#FFD83D" cx="1.5276" cy="1.628" rx="0.494" ry="0.494"></ellipse>
                            <ellipse id="Oval" stroke="#000000" stroke-width="0.1" fill="#FFD83D" cx="0.8957" cy="2.5414" rx="0.494" ry="0.494"></ellipse>
                            <ellipse id="Oval" stroke="#000000" stroke-width="0.1" fill="#FFD83D" cx="0.5912" cy="3.6156" rx="0.494" ry="0.494"></ellipse>
                            <ellipse id="Oval" stroke="#000000" stroke-width="0.1" fill="#FFD83D" cx="0.6027" cy="4.7301" rx="0.494" ry="0.494"></ellipse>
                            <ellipse id="Oval" stroke="#000000" stroke-width="0.1" fill="#FFD83D" cx="0.8152" cy="5.8215" rx="0.494" ry="0.494"></ellipse>
                            <path d="M9.2998,2.053 L9.2538,2.6965 C8.0248,2.5082 6.2824,1.8233 4.6583,1.8233 C3.1577,1.8233 1.9929,2.4236 1.9929,3.9373 C1.9929,5.4293 2.6245,6.7858 3.4633,8.1653 L2.5903,8.5789 C1.8099,7.0619 1.1655,5.7736 1.1655,4.0291 C1.1655,2.5691 2.3139,1.1339 4.2905,1.1339 C6.0425,1.1339 7.8295,1.7243 9.2997,2.0529 L9.2998,2.053 Z" id="Shape" stroke="#000000" stroke-width="0.1" fill="#FFD83D"></path>
                        </g>
                        <g id="a-link" transform="translate(14.793800, 9.600000) scale(-1, 1) translate(-14.793800, -9.600000) translate(9.293800, 4.600000)">
                            <g id="a">
                                <path d="M9.4377,2.329 L9.2539,8.579 L2.9119,8.579 C2.1316,7.062 1.4872,5.7737 1.4872,4.0292 C1.4872,2.5692 2.6355,1.4097 4.2905,1.4097 C6.0425,1.4097 7.9675,2.0001 9.4375,2.3289 L9.4377,2.329 Z" id="Shape" fill="#FFD83D"></path>
                                <g id="Group" transform="translate(1.800000, 1.600000)" stroke="#000000" stroke-width="0.1">
                                    <path d="M0.4456,1.016 L0.4456,4.6236 M0.955,0.648 L0.955,5.4513 M1.4643,0.3952 L1.4643,6.1177 M1.9736,0.277 L1.9736,4.7652 M2.483,0.2548 L2.483,4.7875 M2.9923,0.0965 L2.9923,4.785 M3.5017,0.0965 L3.5017,4.785 M4.011,0.1424 L4.011,4.8309 M4.5204,0.1884 L4.5204,4.8769 M5.0297,0.487 L5.0297,5.1756 M5.539,0.533 L5.539,5.819 M6.0484,0.533 L6.0484,5.2216 M6.5577,0.533 L6.5577,5.2216" id="Shape" fill="#FFD83D"></path>
                                    <path d="M3.6395,0.2923 C4.7159,0.4698 7.0802,1.576 6.8105,3.0726 C6.4285,5.1936 5.1897,4.3424 3.5475,4.0376 L2.3068,4.4513 C1.8628,4.9045 1.209,5.3196 0.7673,4.773 L0.032,4.773 L0.032,7.6452 L8.1662,7.6452 L8.1662,0.706 L3.6395,0.2923 Z" id="Shape" fill="#000000"></path>
                                </g>
                                <ellipse id="Oval" stroke="#000000" stroke-width="1.6" fill="#FFD83D" cx="9.0815" cy="1.3983" rx="0.494" ry="0.494"></ellipse>
                                <ellipse id="Oval" stroke="#000000" stroke-width="0.1" fill="#FFD83D" cx="7.9713" cy="1.1311" rx="0.494" ry="0.494"></ellipse>
                                <ellipse id="Oval" stroke="#000000" stroke-width="0.1" fill="#FFD83D" cx="6.845" cy="0.8482" rx="0.494" ry="0.494"></ellipse>
                                <ellipse id="Oval" stroke="#000000" stroke-width="0.1" fill="#FFD83D" cx="5.7143" cy="0.6596" rx="0.494" ry="0.494"></ellipse>
                                <ellipse id="Oval" stroke="#000000" stroke-width="0.1" fill="#FFD83D" cx="4.5836" cy="0.5481" rx="0.494" ry="0.494"></ellipse>
                                <ellipse id="Oval" stroke="#000000" stroke-width="0.1" fill="#FFD83D" cx="3.4749" cy="0.6113" rx="0.494" ry="0.494"></ellipse>
                                <ellipse id="Oval" stroke="#000000" stroke-width="0.1" fill="#FFD83D" cx="2.4179" cy="0.9732" rx="0.494" ry="0.494"></ellipse>
                                <ellipse id="Oval" stroke="#000000" stroke-width="0.1" fill="#FFD83D" cx="1.5276" cy="1.628" rx="0.494" ry="0.494"></ellipse>
                                <ellipse id="Oval" stroke="#000000" stroke-width="0.1" fill="#FFD83D" cx="0.8957" cy="2.5414" rx="0.494" ry="0.494"></ellipse>
                                <ellipse id="Oval" stroke="#000000" stroke-width="0.1" fill="#FFD83D" cx="0.5912" cy="3.6156" rx="0.494" ry="0.494"></ellipse>
                                <ellipse id="Oval" stroke="#000000" stroke-width="0.1" fill="#FFD83D" cx="0.6027" cy="4.7301" rx="0.494" ry="0.494"></ellipse>
                                <ellipse id="Oval" stroke="#000000" stroke-width="0.1" fill="#FFD83D" cx="0.8152" cy="5.8215" rx="0.494" ry="0.494"></ellipse>
                                <path d="M9.2998,2.053 L9.2538,2.6965 C8.0248,2.5082 6.2824,1.8233 4.6583,1.8233 C3.1577,1.8233 1.9929,2.4236 1.9929,3.9373 C1.9929,5.4293 2.6245,6.7858 3.4633,8.1653 L2.5903,8.5789 C1.8099,7.0619 1.1655,5.7736 1.1655,4.0291 C1.1655,2.5691 2.3139,1.1339 4.2905,1.1339 C6.0425,1.1339 7.8295,1.7243 9.2997,2.0529 L9.2998,2.053 Z" id="Shape" stroke="#000000" stroke-width="0.1" fill="#FFD83D"></path>
                            </g>
                        </g>
                        <path d="M10.297,0.0125 L9.7813,0.9781 L10.2969,1.9407 L10.8124,0.9782 L10.2968,0.0127 L10.297,0.0125 Z M10.297,2.45 L9.7813,3.4125 L10.2969,4.3781 L10.8124,3.4126 L10.2968,2.4501 L10.297,2.45 Z M8.4587,2.1953 L9.2719,2.7109 L10.0823,2.1952 L9.2718,1.6796 L8.4585,2.1952 L8.4587,2.1953 Z M10.5113,2.1953 L11.3219,2.7109 L12.1349,2.1952 L11.3219,1.6796 L10.5112,2.1952 L10.5113,2.1953 Z" id="Shape" stroke="#000000" stroke-width="0.1" fill="#FFD83D"></path>
                        <ellipse id="Oval" stroke="#000000" stroke-width="0.1" fill="#FFD83D" cx="10.2969" cy="2.2069" rx="0.3906" ry="0.3906"></ellipse>
                        <ellipse id="Oval" stroke="#000000" stroke-width="0.1" fill="#FFD83D" cx="10.2969" cy="4.7" rx="1.0455" ry="1.0455"></ellipse>
                        <path d="M10.0344,3.6875 C10.0344,3.9989 10.0322,4.1799 10.0314,4.35 C9.78206517,4.36112294 9.53362034,4.38716957 9.2874,4.428 M11.3064,4.428 C11.0601919,4.38707884 10.8117416,4.36103163 10.5624,4.35 L10.5624,3.6875 M9.2844,4.9563 C9.61898819,4.9002387 9.95764771,4.87200871 10.2969,4.8719 C10.6419,4.8719 10.9799,4.9011 11.3093,4.9562" id="Shape" stroke="#000000" stroke-width="0.1"></path>
                        <path d="M9.275,6.4688 C9.1758,8.177 8.974,9.9168 8.3094,11.1812 L9.3906,10.7437 C9.7683,9.3109 9.8476,7.4595 9.9626,6.5844 L9.275,6.4688 L9.275,6.4688 Z M11.3188,6.4688 L10.6313,6.5844 C10.7461,7.4594 10.8255,9.3109 11.2031,10.7438 L12.2845,11.1813 C11.6197,9.9167 11.418,8.177 11.3189,6.4688 L11.3188,6.4688 Z" id="Shape" stroke="#000000" stroke-width="0.1" fill="#FFD83D"></path>
                        <path d="M10.2953,10.1688 C9.004,10.1688 8.0553,10.7774 7.9983,12.3281 C7.6828,11.7727 6.3473,10.0257 5.1016,10.2595 C4.3606,10.3985 3.7059,11.4261 3.8172,12.6032 C3.2037,10.8402 1.4065,10.5514 0.0952,11.5939 C1.2595,12.5512 1.7774,15.3774 2.7578,16.6033 L17.8328,16.6033 C18.8132,15.3775 19.3342,12.5513 20.4984,11.594 C19.1872,10.5515 17.3901,10.8404 16.7766,12.6034 C16.8879,11.4264 16.23,10.3988 15.4891,10.2598 C14.2433,10.026 12.9111,11.773 12.5954,12.3285 C12.5384,10.7779 11.5868,10.1692 10.2954,10.1692 L10.2953,10.1688 Z" id="Shape" stroke="#000000" stroke-width="0.1" fill="#FFD83D"></path>
                        <g transform="translate(0.900000, 5.700000)">
                            <path d="M16.9107,10.9026 C16.9107,11.4606 13.5445,12.0744 9.3969,12.0744 C5.2492,12.0744 1.8829,11.4607 1.8829,10.9026 C1.8829,10.3446 5.2492,10.0524 9.3969,10.0524 C13.5444,10.0524 16.9106,10.3444 16.9106,10.9026 L16.9107,10.9026 Z" id="Shape" stroke="#000000" stroke-width="0.1" fill="#000000"></path>
                            <ellipse id="Oval" stroke="#000000" stroke-width="0.1" fill="#FFD83D" cx="9.3969" cy="0.4445" rx="0.3504" ry="0.3504"></ellipse>
                            <ellipse id="Oval" stroke="#000000" stroke-width="0.1" fill="#FFD83D" cx="9.3969" cy="1.2027" rx="0.3734" ry="0.3734"></ellipse>
                            <ellipse id="Oval" stroke="#000000" stroke-width="0.1" fill="#FFD83D" cx="9.3969" cy="2.0184" rx="0.4079" ry="0.4079"></ellipse>
                            <ellipse id="Oval" stroke="#000000" stroke-width="0.1" fill="#FFD83D" cx="9.3969" cy="2.9261" rx="0.4653" ry="0.4653"></ellipse>
                            <ellipse id="Oval" stroke="#000000" stroke-width="0.1" fill="#FFD83D" cx="9.3969" cy="3.9371" rx="0.5113" ry="0.5113"></ellipse>
                            <path d="M9.1938,4.9206 C9.1385,4.9199 9.0862,4.9666 9.1,5.055 C9.1163,5.1593 9.1367,5.3545 9.1563,5.4862 C9.1783,5.6355 9.2653,5.5992 9.2875,5.4832 C9.3095,5.367 9.3007,5.2925 9.3063,5.0768 C9.309,4.969 9.249,4.9213 9.1938,4.9206 L9.1938,4.9206 Z M9.6,4.9206 C9.5447,4.9213 9.4847,4.969 9.4875,5.0768 C9.493,5.2925 9.4841,5.367 9.5063,5.4831 C9.5283,5.5993 9.6153,5.6356 9.6375,5.4863 C9.657,5.3546 9.6775,5.1593 9.6938,5.0551 C9.7076,4.9666 9.6553,4.9201 9.6,4.9207 L9.6,4.9206 Z M8.8313,4.9768 C8.7807,4.9838 8.7283,5.0348 8.7313,5.0893 C8.7368,5.1889 8.7643,5.3083 8.775,5.4581 C8.786,5.6131 8.8952,5.5529 8.9063,5.4644 C8.9173,5.376 8.9298,5.2452 8.9188,5.0738 C8.9146,5.0095 8.8865,4.9813 8.8531,4.9768 C8.84589709,4.97586176 8.83860291,4.97586176 8.8314,4.9768 L8.8313,4.9768 Z M9.9406,4.9768 C9.9072,4.9811 9.8791,5.0094 9.875,5.0738 C9.86649501,5.20406406 9.87068139,5.33484656 9.8875,5.4643 C9.8985,5.5528 10.0077,5.6129 10.0188,5.4581 C10.0295,5.3083 10.057,5.1891 10.0625,5.0894 C10.0655,5.035 10.0131,4.984 9.9625,4.9769 C9.95519838,4.97593553 9.94780162,4.97593553 9.9405,4.9769 L9.9406,4.9768 Z M8.3969,5.1518 C8.3505,5.1638 8.3079,5.2195 8.3219,5.2831 C8.3494,5.4104 8.3749,5.5511 8.3749,5.6801 C8.3749,5.7907 8.4694,5.7511 8.4749,5.6738 C8.48435817,5.54380496 8.48956095,5.41353528 8.4905,5.2832 C8.4905,5.1718 8.4431,5.1402 8.3968,5.152 L8.3969,5.1518 Z M10.3655,5.1518 C10.3325,5.1608 10.303,5.1995 10.303,5.2831 C10.303,5.4325 10.3133,5.5964 10.3188,5.6738 C10.3243,5.7512 10.4188,5.7908 10.4188,5.6801 C10.4188,5.5511 10.4442,5.4104 10.4718,5.2831 C10.4858,5.2196 10.4432,5.1639 10.3968,5.1519 C10.386618,5.14888834 10.375782,5.14888834 10.3656,5.1519 L10.3655,5.1518 Z M4.4562,5.1688 C4.4007,5.1671 4.3619,5.2423 4.3999,5.3252 C4.4607,5.4579 4.5253,5.5417 4.5874,5.6846 C4.6427,5.8116 4.7274,5.7324 4.6999,5.6439 C4.6722,5.5554 4.6422,5.4569 4.5593,5.2689 C4.5283,5.1983 4.4893,5.1699 4.4563,5.1689 L4.4562,5.1688 Z M14.3374,5.1688 C14.3042,5.17 14.2654,5.1984 14.2344,5.2688 C14.1514,5.4568 14.1214,5.5555 14.0937,5.6438 C14.066,5.7324 14.1507,5.8118 14.2062,5.6846 C14.2682,5.5416 14.3328,5.4579 14.3937,5.3252 C14.4317,5.2422 14.3929,5.1672 14.3374,5.1689 L14.3374,5.1688 Z M4.8562,5.1752 C4.8154,5.1876 4.7906,5.2394 4.8155,5.3002 C4.8653,5.4218 4.9372,5.5465 4.9875,5.6782 C5.0315,5.7944 5.13,5.7615 5.0968,5.6564 C5.0635,5.5514 5.0536,5.4899 4.9873,5.2908 C4.9541,5.1913 4.8968,5.1628 4.8561,5.1752 L4.8562,5.1752 Z M13.9062,5.1752 C13.8712,5.1826 13.831,5.2162 13.8062,5.2908 C13.7398,5.4898 13.7299,5.5514 13.6968,5.6564 C13.6635,5.7614 13.7618,5.7944 13.8061,5.6784 C13.8563,5.5464 13.9281,5.4218 13.9779,5.3002 C14.0029,5.2394 13.9782,5.1876 13.9374,5.1752 C13.9271871,5.17241016 13.9164129,5.17241016 13.9062,5.1752 L13.9062,5.1752 Z M5.3562,5.2722 C5.3047,5.2818 5.2649,5.3602 5.2999,5.4564 C5.3442,5.5781 5.4071,5.6932 5.4624,5.8314 C5.5177,5.9697 5.6094,5.9418 5.5874,5.8534 C5.5654,5.7648 5.5382,5.6182 5.4718,5.3971 C5.4428,5.3004 5.396,5.2646 5.3561,5.2721 L5.3562,5.2722 Z M13.4374,5.2722 C13.3974,5.2644 13.3508,5.3002 13.3218,5.3972 C13.2553,5.6182 13.2282,5.7648 13.2061,5.8532 C13.1839,5.9418 13.2757,5.9697 13.3311,5.8314 C13.3864,5.6932 13.4493,5.5781 13.4936,5.4564 C13.5286,5.3604 13.4886,5.2818 13.4373,5.2721 L13.4374,5.2722 Z M4.1187,5.3408 C4.063,5.3465 4.0122,5.4373 4.0467,5.5064 C4.1021,5.617 4.1371,5.6547 4.1905,5.7721 C4.2458,5.8938 4.3065,5.7996 4.2843,5.7221 C4.2621,5.6447 4.2338,5.5546 4.2063,5.4441 C4.1859,5.3631 4.1521,5.3375 4.1187,5.3409 L4.1187,5.3408 Z M14.6749,5.3408 C14.6415,5.3374 14.6077,5.3628 14.5874,5.4438 C14.5598,5.5545 14.5314,5.6446 14.5094,5.7221 C14.4871,5.7996 14.5477,5.8938 14.603,5.7721 C14.6565,5.6548 14.6915,5.6171 14.747,5.5065 C14.7814,5.4375 14.7307,5.3465 14.675,5.3409 L14.6749,5.3408 Z M7.9719,5.6206 C7.9134,5.6206 7.8509,5.698 7.8719,5.7706 C7.9049,5.8866 7.9562,5.9896 7.9937,6.1393 C8.0267,6.272 8.1211,6.2059 8.1155,6.1175 C8.11,6.029 8.0948,5.9085 8.0562,5.7205 C8.0416,5.6501 8.0068,5.6205 7.9718,5.6205 L7.9719,5.6206 Z M10.8219,5.6206 C10.7867,5.6206 10.7519,5.6501 10.7374,5.7206 C10.6987,5.9086 10.6836,6.029 10.678,6.1176 C10.6726,6.2059 10.7668,6.272 10.8,6.1393 C10.8374,5.9897 10.8887,5.8867 10.922,5.7706 C10.9426,5.698 10.8803,5.6206 10.822,5.6206 L10.8219,5.6206 Z M9.3969,5.7393 C9.3249,5.7393 9.3149,5.8359 9.3124,5.9143 C9.3041,6.1715 9.1974,6.4213 9.1062,6.5456 C9.0149,6.67 8.8806,6.6369 8.7562,6.5706 C8.6317,6.5042 8.5576,6.4546 8.4249,6.355 C8.2922,6.2554 8.1915,6.3136 8.3499,6.5393 C8.8116,7.1973 9.3124,7.7598 9.3124,8.8331 C9.3124,8.9721 9.3366,9.0144 9.3968,9.0144 C9.4568,9.0144 9.4842,8.972 9.4842,8.8332 C9.4842,7.76 9.9818,7.1976 10.4436,6.5395 C10.6019,6.3138 10.5013,6.2555 10.3686,6.3552 C10.2359,6.4547 10.1616,6.5044 10.0373,6.5708 C9.9129,6.6371 9.7785,6.6702 9.6873,6.5458 C9.596,6.4214 9.4893,6.1718 9.4811,5.9145 C9.4785,5.8361 9.4686,5.7395 9.3967,5.7395 L9.3969,5.7393 Z M5.8687,5.5783 C5.86231252,5.57827922 5.85596378,5.57929232 5.8499,5.5813 C5.8229,5.5899 5.8051,5.6223 5.8155,5.6783 C5.8341,5.7785 5.9035,5.975 5.9312,6.0689 C5.9588,6.1629 6.0744,6.1429 6.0468,6.0157 C6.019,5.8885 6.0205,5.8501 5.9873,5.7063 C5.9693,5.6277 5.9126,5.5793 5.8686,5.5783 L5.8687,5.5783 Z M12.9249,5.5783 C12.8809,5.5795 12.8243,5.6278 12.8062,5.7063 C12.773,5.8503 12.7744,5.8886 12.7468,6.0158 C12.719,6.143 12.8346,6.163 12.8623,6.0688 C12.8899,5.975 12.9593,5.7785 12.9779,5.6783 C12.9884,5.6223 12.9705,5.5899 12.9437,5.5813 C12.9376337,5.57930249 12.9312867,5.57828966 12.9249,5.5783 L12.9249,5.5783 Z M3.7719,5.6189 C3.7139,5.6234 3.6724,5.6961 3.7312,5.8032 C3.7945,5.9189 3.9032,6.064 3.953,6.147 C4.003,6.23 4.089,6.174 4.028,6.069 C3.9673,5.964 3.947,5.8432 3.875,5.694 C3.848,5.638 3.8066,5.6162 3.772,5.619 L3.7719,5.6189 Z M15.0219,5.6189 C14.9869,5.6161 14.9456,5.6379 14.9187,5.6939 C14.8467,5.8431 14.8263,5.9639 14.7655,6.0689 C14.7047,6.1739 14.7908,6.2299 14.8405,6.1469 C14.8903,6.0639 14.999,5.9189 15.0625,5.8032 C15.1212,5.6962 15.0797,5.6234 15.0218,5.6188 L15.0219,5.6189 Z M0.6029,5.9517 C0.5362,5.9482 0.5153,6.0687 0.5779,6.1487 C0.6693,6.2647 0.7329,6.3263 0.8374,6.4205 C0.9204,6.4951 0.9444,6.3983 0.903,6.3235 C0.8617,6.249 0.8017,6.1731 0.7188,6.0485 C0.6733,5.9805 0.6335,5.9535 0.6031,5.9517 L0.6029,5.9517 Z M18.1905,5.9517 C18.1602,5.9533 18.1205,5.9804 18.0749,6.0487 C17.9919,6.1731 17.9319,6.249 17.8905,6.3237 C17.8491,6.3983 17.8732,6.4951 17.9562,6.4205 C18.0608,6.3263 18.1242,6.2647 18.2155,6.1485 C18.2782,6.0688 18.2573,5.9482 18.1905,5.9517 L18.1905,5.9517 Z M1.1062,6.0517 C1.0529,6.0524 1.0178,6.0917 1.0592,6.183 C1.1187,6.3137 1.197,6.4617 1.2468,6.5612 C1.2964,6.6607 1.4481,6.6942 1.3873,6.5392 C1.3265,6.3845 1.3145,6.305 1.2593,6.1612 C1.2315,6.0892 1.1593,6.0512 1.1061,6.0518 L1.1062,6.0517 Z M17.6874,6.0517 C17.6342,6.051 17.5619,6.0892 17.5344,6.1611 C17.479,6.3049 17.467,6.3844 17.4062,6.5391 C17.3452,6.6941 17.497,6.6606 17.5468,6.5611 C17.5965,6.4616 17.6748,6.3136 17.7342,6.1831 C17.7756,6.0917 17.7405,6.0524 17.6872,6.0517 L17.6874,6.0517 Z M0.1312,6.0861 C0.0538,6.0869 0.0472,6.1645 0.1155,6.2141 C0.2068,6.2806 0.3155,6.3541 0.4218,6.4391 C0.5461,6.5388 0.5943,6.4471 0.5278,6.3641 C0.4616,6.2813 0.397,6.1971 0.2311,6.1141 C0.1896,6.0935 0.1568,6.0859 0.1311,6.0861 L0.1312,6.0861 Z M18.6624,6.0861 C18.6366,6.0858 18.6039,6.0935 18.5624,6.1141 C18.3964,6.1971 18.3319,6.2813 18.2654,6.3641 C18.1992,6.4471 18.2474,6.5388 18.3718,6.4391 C18.4778,6.3541 18.5868,6.2806 18.6778,6.2141 C18.7463,6.1645 18.7398,6.0869 18.6623,6.0861 L18.6624,6.0861 Z M7.6968,6.1581 C7.6534,6.1641 7.616,6.2131 7.6342,6.2767 C7.6672,6.3927 7.705,6.5159 7.7279,6.6361 C7.7502,6.7523 7.8845,6.7537 7.8624,6.6486 C7.8404,6.5436 7.8292,6.4121 7.7904,6.2516 C7.776,6.1916 7.7457,6.1626 7.7154,6.158 C7.70923527,6.15706471 7.70296473,6.15706471 7.6968,6.158 L7.6968,6.1581 Z M11.0778,6.1581 C11.0478,6.1627 11.0174,6.1916 11.0028,6.2517 C10.9643,6.4121 10.9531,6.5437 10.9311,6.6487 C10.9089,6.7537 11.0433,6.7523 11.0654,6.6361 C11.0884,6.5159 11.126,6.3928 11.1592,6.2767 C11.1772,6.2132 11.14,6.164 11.0967,6.158 C11.0904043,6.15702381 11.0839957,6.15702381 11.0777,6.158 L11.0778,6.1581 Z M4.6873,5.9595 C4.6533,5.9689 4.6337,6.0339 4.6593,6.1251 C4.8003,6.6311 4.8433,6.8975 4.8186,7.0221 C4.7936,7.1464 4.7254,7.1634 4.6342,7.1221 C4.53603629,7.07709183 4.44192318,7.02372873 4.3529,6.9626 C4.2701,6.9046 4.1839,6.974 4.3029,7.072 C4.9085,7.5697 5.3282,8.1385 5.4905,8.8283 C5.5237,8.9693 5.6123,8.9859 5.5875,8.8283 C5.4502,7.9593 5.4238,7.245 5.6312,6.7971 C5.7092,6.6288 5.6306,6.4671 5.5062,6.7409 C5.4232,6.9234 5.289,6.9954 5.1812,6.8379 C5.0732,6.6802 4.8506,6.2599 4.7842,6.0689 C4.7594,5.9975 4.7287,5.9644 4.703,5.9597 C4.69789751,5.95854832 4.69260249,5.95854832 4.6875,5.9597 L4.6873,5.9595 Z M14.0903,5.9595 C14.0648,5.9642 14.0341,5.9973 14.0093,6.0688 C13.9428,6.2595 13.7201,6.6798 13.6123,6.8375 C13.5043,6.9951 13.3703,6.9231 13.2873,6.7405 C13.1629,6.4669 13.0843,6.6285 13.1623,6.7969 C13.3697,7.2449 13.3433,7.9592 13.2061,8.8282 C13.1811,8.9858 13.2698,8.9692 13.3029,8.8282 C13.4653,8.1384 13.8849,7.5696 14.4905,7.072 C14.6097,6.974 14.5235,6.9046 14.4405,6.9627 C14.3575,7.0207 14.2505,7.0807 14.1593,7.1221 C14.0681,7.1636 13.9998,7.1466 13.9749,7.0221 C13.9499,6.8977 13.9933,6.6311 14.1343,6.1253 C14.1597,6.0341 14.1401,5.9691 14.1063,5.9597 C14.1011014,5.95850272 14.0956986,5.95850272 14.0905,5.9597 L14.0903,5.9595 Z M1.6436,6.2017 C1.5889,6.2024 1.5436,6.2407 1.5686,6.3237 C1.6084,6.4565 1.6909,6.6001 1.7186,6.683 C1.7462,6.766 1.8351,6.7273 1.8186,6.6112 C1.802,6.4952 1.7938,6.4259 1.7716,6.2987 C1.7606,6.2351 1.6982,6.2011 1.6436,6.2017 L1.6436,6.2017 Z M17.1498,6.2017 C17.0952,6.201 17.0328,6.235 17.0218,6.2987 C16.9995,6.4257 16.9914,6.495 16.9748,6.6111 C16.9582,6.7271 17.0471,6.7659 17.0748,6.6831 C17.1024,6.6001 17.1848,6.4565 17.2248,6.3236 C17.2498,6.2406 17.2044,6.2024 17.1498,6.2016 L17.1498,6.2017 Z M3.5218,6.0282 C3.4582,6.0168 3.449,6.1806 3.5028,6.247 C3.5748,6.3356 3.6748,6.4425 3.7748,6.5627 C3.8578,6.6622 3.909,6.5737 3.8592,6.4907 C3.8094,6.4077 3.7356,6.3197 3.6029,6.1097 C3.5699,6.057 3.5429,6.0321 3.5219,6.0283 L3.5218,6.0282 Z M15.2718,6.0282 C15.2505,6.032 15.2236,6.0569 15.1904,6.1095 C15.0577,6.3195 14.9839,6.4077 14.9342,6.4907 C14.8844,6.5737 14.9356,6.6621 15.0186,6.5627 C15.1186,6.4424 15.2186,6.3355 15.2904,6.247 C15.3444,6.1807 15.3352,6.017 15.2717,6.0283 L15.2718,6.0282 Z M2.0718,6.4236 C2.0323,6.4209 1.9988,6.4528 2.0154,6.533 C2.0386,6.6447 2.0721,6.7374 2.0998,6.8425 C2.1274,6.9475 2.1998,6.9295 2.1998,6.83 C2.1998,6.7304 2.182,6.6194 2.1654,6.5143 C2.1571,6.4618 2.1111,6.4265 2.0717,6.4237 L2.0718,6.4236 Z M16.7218,6.4236 C16.6823,6.4264 16.6362,6.4616 16.6278,6.5142 C16.6113,6.6192 16.5936,6.7302 16.5936,6.8299 C16.5936,6.9294 16.6659,6.9474 16.6936,6.8424 C16.7212,6.7374 16.7548,6.6446 16.7779,6.533 C16.7946,6.453 16.7612,6.421 16.7219,6.4237 L16.7218,6.4236 Z M3.3811,6.5656 C3.3191,6.5751 3.2647,6.6349 3.3373,6.7282 C3.4533,6.8775 3.5805,6.9822 3.6248,7.0376 C3.669,7.0929 3.7811,7.0726 3.7092,6.9563 C3.6357,6.8377 3.5246,6.6948 3.4748,6.6063 C3.4561,6.5733 3.4182,6.5601 3.3811,6.5657 L3.3811,6.5656 Z M15.3873,6.5656 C15.3601,6.5686 15.3325,6.5816 15.3186,6.6063 C15.2688,6.6948 15.1576,6.8377 15.0842,6.9563 C15.0122,7.0725 15.1242,7.0929 15.1686,7.0376 C15.2128,6.9823 15.3399,6.8776 15.4561,6.7282 C15.5286,6.6349 15.4741,6.5752 15.4123,6.5657 C15.4040098,6.56450062 15.3955902,6.56450062 15.3873,6.5657 L15.3873,6.5656 Z M1.3153,6.983 C1.2666,6.9787 1.2497,7.018 1.3153,7.108 C1.4647,7.3127 1.6293,7.6223 1.6403,7.755 C1.6515,7.8877 1.5859,7.8862 1.5248,7.8862 C1.3423,7.8862 1.2532,7.753 1.0873,7.7142 C0.9213,7.6756 0.8973,7.7629 1.0153,7.8487 C1.6237,8.2911 2.2333,8.7847 2.4779,9.2331 C2.5775,9.4157 2.7121,9.4824 2.6374,9.3081 C2.4087,8.7745 2.3534,8.3225 2.403,8.0488 C2.453,7.7751 2.5208,7.5908 2.5125,7.4332 C2.5042,7.2757 2.4148,7.2865 2.3781,7.4332 C2.3533,7.5328 2.3051,7.6647 2.2721,7.7145 C2.2388,7.7643 2.1054,7.7922 1.9781,7.6208 C1.8511,7.4494 1.5301,7.1193 1.4251,7.0364 C1.3857,7.0054 1.3451,6.9859 1.3157,6.9834 L1.3153,6.983 Z M17.4779,6.983 C17.4487,6.9857 17.4079,7.005 17.3687,7.0362 C17.2637,7.1192 16.9427,7.4492 16.8155,7.6206 C16.6883,7.792 16.5549,7.7641 16.5218,7.7143 C16.4885,7.6645 16.4403,7.5326 16.4154,7.4331 C16.3787,7.2864 16.2894,7.2756 16.2811,7.4331 C16.2728,7.5908 16.3406,7.7751 16.3904,8.0488 C16.4402,8.3225 16.3848,8.7745 16.1561,9.3082 C16.0814,9.4825 16.2159,9.4158 16.3154,9.2332 C16.5601,8.7848 17.1697,8.2912 17.7779,7.8489 C17.8961,7.7631 17.8721,7.6759 17.7062,7.7145 C17.5402,7.7532 17.4512,7.8865 17.2687,7.8865 C17.2077,7.8865 17.1419,7.8879 17.153,7.7552 C17.1642,7.6225 17.3288,7.3129 17.478,7.1082 C17.5438,7.0182 17.527,6.9789 17.478,6.9832 L17.4779,6.983 Z" id="Shape" fill="#000000"></path>
                            <path d="M2.2127,10.265 L2.4077,10.8825 M2.6137,10.1481 L2.7865,10.7721 M3.047,10.0769 L3.1657,10.7134 M3.449,9.9964 L3.576,10.6314 M3.9646,9.9456 L4.0678,10.5848 M4.513,9.9463 L4.6242,10.5841 M5.0484,9.7651 L5.1287,10.4077 M5.5521,9.7977 L5.6325,10.4402 M6.0395,9.7329 L6.12,10.3753 M6.5288,9.6825 L6.573,10.3285 M7.0516,9.6823 L7.09,10.3286 M7.5257,9.6496 L7.5583,10.2963 M8.0483,9.617 L8.0755,10.264 M8.6495,9.6008 L8.6767,10.2478 M16.5811,10.2654 L16.3861,10.8829 M16.1801,10.1485 L16.0073,10.7725 M15.7469,10.0773 L15.6282,10.7138 M15.345,9.9968 L15.218,10.6318 M14.8294,9.946 L14.7261,10.5852 M14.2808,9.9467 L14.1696,10.5845 M13.7456,9.7655 L13.6651,10.4081 M13.2418,9.7981 L13.1614,10.4406 M12.7544,9.7333 L12.674,10.3757 M12.265,9.6829 L12.2208,10.3289 M11.7421,9.6827 L11.7039,10.329 M11.2682,9.65 L11.2356,10.2967 M10.7456,9.6174 L10.7186,10.2644 M10.1444,9.6012 L10.1174,10.2482 M9.3971,9.5592 L9.3971,10.2714" id="Shape" stroke="#000000" stroke-width="1.2" fill="#FFD83D"></path>
                        </g>
                    </g>
                </g>
            </g>
        </g>
    </g>
</svg>