<?xml version="1.0" encoding="UTF-8" standalone="no"?>
<svg width="122px" height="60px" viewBox="0 0 122 60" version="1.1" xmlns="http://www.w3.org/2000/svg" xmlns:xlink="http://www.w3.org/1999/xlink">
    <!-- Generator: Sketch 3.8.2 (29753) - http://www.bohemiancoding.com/sketch -->
    <title>cv</title>
    <desc>Created with Sketch.</desc>
    <defs></defs>
    <g id="Page-1" stroke="none" stroke-width="1" fill="none" fill-rule="evenodd">
        <g id="cv">
            <g>
                <rect id="Rectangle-51" fill="#081873" x="0" y="0" width="122" height="60"></rect>
                <rect id="Rectangle-52" fill="#FFFFFF" x="0" y="30" width="122" height="15"></rect>
                <rect id="Rectangle-52" fill="#DE3929" x="0" y="35" width="122" height="5"></rect>
                <g id="The-United-States-of-America-flag,-produced-by-Daniel-McRae" transform="translate(21.000000, 19.000000)" fill="#FFCE08">
                    <g id="Clipped">
                        <g id="Group" transform="translate(0.170801, 0.000000)">
                            <path d="M9.27725468,27.5573706 L10.0670858,29.9446768 L12.623288,29.9446768 L10.555237,31.4201226 L11.3450681,33.8076621 L9.27725468,32.3322164 L7.20944123,33.8076621 L7.99927233,31.4201226 L5.93122134,29.9446768 L8.48742358,29.9446768 M31.3675834,10.2170921 L32.1574145,12.6043983 L34.7136167,12.6043983 L32.6455657,14.0798441 L33.4353968,16.4673836 L31.3675834,14.9919379 L29.2997699,16.4673836 L30.089601,14.0798441 L28.0215501,12.6043983 L30.5777523,12.6043983 M4.2116462,20.1253228 L5.0014773,22.512629 L7.55779831,22.512629 L5.48974732,23.9880748 L6.27981596,26.3756143 L4.21200252,24.9001686 L2.14395153,26.3756143 L2.93378263,23.9880748 L0.865969178,22.512629 L3.42193388,22.512629 M31.3675834,19.426673 L32.1574145,21.8139792 L34.7136167,21.8139792 L32.6455657,23.289425 L33.4353968,25.6769645 L31.3675834,24.2015187 L29.2997699,25.6769645 L30.089601,23.289425 L28.0215501,21.8139792 L30.5777523,21.8139792 M25.774629,2.94833474 L26.5644601,5.33564099 L29.1206624,5.33564099 L27.0526114,6.81108676 L27.8424425,9.19862629 L25.774629,7.72318051 L23.7068156,9.19862629 L24.4966467,6.81108676 L22.4285957,5.33564099 L24.9847979,5.33564099 M17.3323442,0.0615930147 L18.1221753,2.44889926 L20.6783775,2.44889926 L18.6103265,3.92434504 L19.4001576,6.31188456 L17.3323442,4.83643879 L15.2645307,6.31188456 L16.0543618,3.92434504 L13.9863108,2.44889926 L16.5425131,2.44889926 M8.88887156,2.78621066 L9.67870266,5.17351691 L12.2349049,5.17351691 L10.1668539,6.64896268 L10.956685,9.03650221 L8.88887156,7.56105643 L6.82105812,9.03650221 L7.61088921,6.64896268 L5.54283822,5.17351691 L8.09904047,5.17351691 M3.96388866,10.2170921 L4.75371976,12.6043983 L7.309922,12.6043983 L5.24187101,14.0798441 L6.0317021,16.4673836 L3.96388866,14.9919379 L1.89607521,16.4673836 L2.68590631,14.0798441 L0.617855319,12.6043983 L3.17405756,12.6043983 M17.3323442,30.0347199 L18.1221753,32.4220261 L20.6783775,32.4220261 L18.6103265,33.8974719 L19.4001576,36.2850114 L17.3323442,34.8095656 L15.2645307,36.2850114 L16.0543618,33.8974719 L13.9863108,32.4220261 L16.5425131,32.4220261 M26.3019749,27.5573706 L27.091806,29.9446768 L29.6480083,29.9446768 L27.5799573,31.4201226 L28.3697884,33.8076621 L26.3019749,32.3322164 L24.2341615,33.8076621 L25.0239926,31.4201226 L22.9559416,29.9446768 L25.5121438,29.9446768" id="Shape"></path>
                        </g>
                    </g>
                </g>
            </g>
        </g>
    </g>
</svg>