<?xml version="1.0" encoding="UTF-8" standalone="no"?>
<svg width="122px" height="60px" viewBox="0 0 122 60" version="1.1" xmlns="http://www.w3.org/2000/svg" xmlns:xlink="http://www.w3.org/1999/xlink">
    <!-- Generator: Sketch 3.8.2 (29753) - http://www.bohemiancoding.com/sketch -->
    <title>sk</title>
    <desc>Created with Sketch.</desc>
    <defs></defs>
    <g id="Page-1" stroke="none" stroke-width="1" fill="none" fill-rule="evenodd">
        <g id="sk">
            <g id="Group">
                <g>
                    <polygon id="Shape" fill="#EE1C25" points="0 0 122.209429 0 122.209429 60 0 60"></polygon>
                    <polygon id="Shape" fill="#0B4EA2" points="0 0 122.209429 0 122.209429 40 0 40"></polygon>
                    <polygon id="Shape" fill="#FFFFFF" points="0 0 122.209429 0 122.209429 20 0 20"></polygon>
                    <path d="M29.1255,46.35 C23.747375,43.7595 16.0545,38.61775 16.0545,28.44675 C16.0545,18.2755 16.54075,13.65 16.54075,13.65 L41.7105,13.65 C41.7105,13.65 42.196875,18.275625 42.196875,28.44675 C42.196875,38.61775 34.504,43.7595 29.1255,46.35 L29.1255,46.35 Z" id="Shape" fill="#FFFFFF"></path>
                    <path d="M29.1255,45 C24.1915,42.623375 17.13375,37.90625 17.13375,28.575 C17.13375,19.243625 17.58,15 17.58,15 L40.67125,15 C40.67125,15 41.1175,19.24375 41.1175,28.575 C41.1175,37.90625 34.05975,42.623375 29.1255,45 L29.1255,45 Z" id="Shape" fill="#EE1C25"></path>
                    <path d="M30.18075,26.128375 C31.51675,26.15 34.12325,26.20225 36.444375,25.425625 C36.444375,25.425625 36.383125,26.25625 36.383125,27.22375 C36.383125,28.1915 36.444375,29.022 36.444375,29.022 C34.315375,28.3095 31.686375,28.294625 30.180875,28.31375 L30.180875,33.467625 L28.0705,33.467625 L28.0705,28.31375 C26.565,28.294625 23.936,28.3095 21.807,29.021875 C21.807,29.021875 21.86825,28.191375 21.86825,27.223625 C21.86825,26.256125 21.807,25.425625 21.807,25.425625 C24.128,26.20225 26.7345,26.15 28.0705,26.128375 L28.0705,22.891625 C26.852875,22.88075 25.098125,22.938875 23.11425,23.602875 C23.11425,23.602875 23.1755,22.77225 23.1755,21.804625 C23.1755,20.837125 23.11425,20.0065 23.11425,20.0065 C25.09525,20.669375 26.84775,20.7285 28.065125,20.717875 C28.0025,18.668125 27.405375,16.08475 27.405375,16.08475 C27.405375,16.08475 28.63425,16.180625 29.1255,16.180625 C29.61725,16.180625 30.845875,16.08475 30.845875,16.08475 C30.845875,16.08475 30.248875,18.668125 30.18625,20.71775 C31.403625,20.72825 33.156125,20.66925 35.137,20.006375 C35.137,20.006375 35.07575,20.836875 35.07575,21.8045 C35.07575,22.772 35.137,23.602625 35.137,23.602625 C33.15325,22.93875 31.398375,22.880625 30.18075,22.891375 L30.18075,26.128125 L30.18075,26.128375 Z" id="Shape" fill="#FFFFFF"></path>
                    <path d="M29.125,32.909375 C26.64025,32.909375 25.309375,36.35625 25.309375,36.35625 C25.309375,36.35625 24.571,34.721875 22.54375,34.721875 C21.172125,34.721875 20.16125,35.942 19.51875,37.071875 C22.014125,41.0425 25.9955,43.492625 29.125,45 C32.254875,43.4925 36.23875,41.042875 38.734375,37.071875 C38.091875,35.942 37.081,34.721875 35.709375,34.721875 C33.682,34.721875 32.940625,36.35625 32.940625,36.35625 C32.940625,36.35625 31.609875,32.909375 29.125,32.909375 L29.125,32.909375 Z" id="Shape" fill="#0B4EA2"></path>
                </g>
            </g>
        </g>
    </g>
</svg>