<?xml version="1.0" encoding="UTF-8" standalone="no"?>
<svg width="122px" height="60px" viewBox="0 0 122 60" version="1.1" xmlns="http://www.w3.org/2000/svg" xmlns:xlink="http://www.w3.org/1999/xlink">
    <!-- Generator: Sketch 3.8.2 (29753) - http://www.bohemiancoding.com/sketch -->
    <title>ag</title>
    <desc>Created with Sketch.</desc>
    <defs></defs>
    <g id="Page-1" stroke="none" stroke-width="1" fill="none" fill-rule="evenodd">
        <g id="ag">
            <g>
                <g id="Clipped" transform="translate(14.000000, 0.000000)">
                    <g id="Group" transform="translate(0.861006, 0.000000)">
                        <polygon id="Shape" fill="#000000" points="0.0164508822 0 91.652 0.0723046875 91.652 25.3953516 0 25.3953516"></polygon>
                        <polygon id="Shape" fill="#0061FF" points="20.4232485 23.8160156 76.0899624 23.8160156 76.0899624 37.1542969 20.4232485 37.1542969"></polygon>
                        <polygon id="Shape" fill="#FFD600" points="66.6168878 23.8289062 58.2053178 21.5598047 65.3613802 15.8203125 56.5732683 17.1550781 61.0929852 9.01347656 53.3090588 13.8185156 54.6902274 4.34191406 49.4172059 11.8164844 47.2827328 3.140625 44.8973787 12.0832031 39.6243571 4.47539062 41.130856 14.2189453 33.3470398 9.14683594 37.8667568 17.2885547 29.3295259 15.8201953 36.360258 21.4262109 27.5720357 23.8285547 66.6173287 23.8285547"></polygon>
                    </g>
                </g>
                <polygon id="Rectangle-5" fill="#E20000" points="-3.55271368e-15 0 17 0 59 60 -3.55271368e-15 60"></polygon>
                <polygon id="Rectangle-5-Copy" fill="#E20000" points="106 0 122 0 122 60 63 60"></polygon>
            </g>
        </g>
    </g>
</svg>