<?xml version="1.0" encoding="UTF-8" standalone="no"?>
<svg width="122px" height="60px" viewBox="0 0 122 60" version="1.1" xmlns="http://www.w3.org/2000/svg" xmlns:xlink="http://www.w3.org/1999/xlink">
    <!-- Generator: Sketch 3.8.2 (29753) - http://www.bohemiancoding.com/sketch -->
    <title>mo</title>
    <desc>Created with Sketch.</desc>
    <defs></defs>
    <g id="Page-1" stroke="none" stroke-width="1" fill="none" fill-rule="evenodd">
        <g id="mo">
            <g id="Group">
                <g>
                    <polygon id="Shape" fill="#00785E" points="0 0 122 0 122 60 0 60"></polygon>
                    <polygon id="Shape" fill="#FBD116" points="57.864375 13.590875 62.9375 17.27625 61 11.3125 59.0625 17.27625 64.135625 13.590875"></polygon>
                    <g id="a" transform="translate(45.750000, 15.250000)">
                        <path d="M15.25,26.203125 L2.440375,26.203125 C2.27870319,26.0394641 2.12013331,25.8727678 1.96475,25.703125 L15.25,25.703125 C15.3516469,25.7389524 15.421865,25.8322808 15.428125,25.939875 C15.433875,26.054875 15.3615,26.16275 15.25,26.203 L15.25,26.203125 Z M15.25,22.286125 C15.324375,22.134125 15.469125,21.782375 15.403375,21.342375 C15.3784002,21.1763615 15.3265994,21.015513 15.25,20.866125 C14.53125,21.546125 13.180625,22.636125 11.188375,23.238875 C10.2355043,23.5267501 9.24540644,23.6726092 8.25,23.67175 L0.358375,23.67175 C0.590692458,24.0133564 0.834669493,24.3468862 1.089875,24.67175 L8.718625,24.67175 C11.206125,24.67175 13.484875,23.77425 15.249875,22.286125 L15.25,22.286125 Z M1.55075,19.199125 C1.162726,19.3485309 0.753943777,19.4370758 0.338875,19.461625 C2.197625,21.563875 4.913375,22.890375 7.937625,22.890375 C10.810125,22.890375 13.404625,21.693875 15.250125,19.77225 C15.6039573,17.3332151 15.7938,14.8731941 15.818375,12.40875 C15.8464143,9.57875899 15.6564357,6.75081183 15.250125,3.95 C14.42575,4.68875 12.881375,6.2855 12.15325,8.733375 C11.8747093,9.67183128 11.7336597,10.645705 11.7345,11.624625 C11.7345,13.709625 12.36475,15.648125 13.445375,17.260375 C12.118375,15.54625 11.328125,13.396125 11.328125,11.062125 C11.328125,9.51175 11.676875,8.0425 12.299875,6.728 C11.863749,6.26788079 11.5413979,5.71204996 11.358625,5.105 C10.523625,6.57825 10.046875,8.28 10.046875,10.093375 C10.046875,12.348625 10.784375,14.432125 12.03125,16.11675 C9.86,13.8405 6.797875,12.4215 3.40625,12.4215 C3.224,12.4215 3.0425,12.426125 2.862125,12.434 C3.20520343,12.7536025 3.49063118,13.1299443 3.705875,13.5465 C7.079875,13.5515 10.125875,14.9615 12.292125,17.2215 C10.223375,15.493375 7.5605,14.45275 4.656375,14.45275 C3.0335,14.45275 1.486,14.77775 0.0755,15.365875 C1.524875,19.195625 5.22725,21.9215 9.56275,21.9215 C9.84375,21.9215 10.122,21.909 10.396875,21.8865 C9.811875,21.9915 9.209375,22.0465 8.594375,22.0465 C5.858625,22.0465 3.375625,20.9615 1.551,19.199 L1.55075,19.199125 Z M15.25,30.29675 L8.61125,30.29675 C10.665875,31.113375 12.905625,31.562375 15.25,31.562375 C15.3503934,31.3711571 15.4039457,31.1588329 15.40625,30.942875 C15.4081915,30.7178767 15.3545181,30.4958835 15.25,30.296625 L15.25,30.29675 Z M15.25,27.23425 L3.545875,27.23425 C3.86254177,27.5059334 4.18857263,27.7665079 4.523375,28.0155 L15.25,28.0155 C15.276875,27.988 15.409125,27.847 15.409125,27.624875 C15.409125,27.402625 15.276875,27.261625 15.25,27.23425 L15.25,27.23425 Z M15.25,28.79675 L5.663125,28.79675 C6.24536496,29.1644392 6.84827791,29.4983242 7.468875,29.79675 L15.25,29.79675 C15.3486647,29.640032 15.3990878,29.4577696 15.395,29.272625 C15.3901741,29.1039521 15.3400932,28.9396781 15.25,28.797 L15.25,28.79675 Z" id="Shape" fill="#FFFFFF"></path>
                        <path d="M0.3105,6.59575 L3.4835,9.5545 L2.655375,5.29575 L0.822375,9.2285 L4.616125,7.124 L0.3105,6.59575 Z M4.921875,2.594625 L9.260625,2.67 L5.795,0.0595 L7.0635,4.209 L8.4765,0.1055 L4.921875,2.594625 Z" id="Shape" fill="#FBD116"></path>
                    </g>
                    <g id="a-link" transform="translate(68.250000, 31.250000) scale(-1, 1) translate(-68.250000, -31.250000) translate(60.250000, 15.250000)">
                        <g id="a">
                            <path d="M15.25,26.203125 L2.440375,26.203125 C2.27870319,26.0394641 2.12013331,25.8727678 1.96475,25.703125 L15.25,25.703125 C15.3516469,25.7389524 15.421865,25.8322808 15.428125,25.939875 C15.433875,26.054875 15.3615,26.16275 15.25,26.203 L15.25,26.203125 Z M15.25,22.286125 C15.324375,22.134125 15.469125,21.782375 15.403375,21.342375 C15.3784002,21.1763615 15.3265994,21.015513 15.25,20.866125 C14.53125,21.546125 13.180625,22.636125 11.188375,23.238875 C10.2355043,23.5267501 9.24540644,23.6726092 8.25,23.67175 L0.358375,23.67175 C0.590692458,24.0133564 0.834669493,24.3468862 1.089875,24.67175 L8.718625,24.67175 C11.206125,24.67175 13.484875,23.77425 15.249875,22.286125 L15.25,22.286125 Z M1.55075,19.199125 C1.162726,19.3485309 0.753943777,19.4370758 0.338875,19.461625 C2.197625,21.563875 4.913375,22.890375 7.937625,22.890375 C10.810125,22.890375 13.404625,21.693875 15.250125,19.77225 C15.6039573,17.3332151 15.7938,14.8731941 15.818375,12.40875 C15.8464143,9.57875899 15.6564357,6.75081183 15.250125,3.95 C14.42575,4.68875 12.881375,6.2855 12.15325,8.733375 C11.8747093,9.67183128 11.7336597,10.645705 11.7345,11.624625 C11.7345,13.709625 12.36475,15.648125 13.445375,17.260375 C12.118375,15.54625 11.328125,13.396125 11.328125,11.062125 C11.328125,9.51175 11.676875,8.0425 12.299875,6.728 C11.863749,6.26788079 11.5413979,5.71204996 11.358625,5.105 C10.523625,6.57825 10.046875,8.28 10.046875,10.093375 C10.046875,12.348625 10.784375,14.432125 12.03125,16.11675 C9.86,13.8405 6.797875,12.4215 3.40625,12.4215 C3.224,12.4215 3.0425,12.426125 2.862125,12.434 C3.20520343,12.7536025 3.49063118,13.1299443 3.705875,13.5465 C7.079875,13.5515 10.125875,14.9615 12.292125,17.2215 C10.223375,15.493375 7.5605,14.45275 4.656375,14.45275 C3.0335,14.45275 1.486,14.77775 0.0755,15.365875 C1.524875,19.195625 5.22725,21.9215 9.56275,21.9215 C9.84375,21.9215 10.122,21.909 10.396875,21.8865 C9.811875,21.9915 9.209375,22.0465 8.594375,22.0465 C5.858625,22.0465 3.375625,20.9615 1.551,19.199 L1.55075,19.199125 Z M15.25,30.29675 L8.61125,30.29675 C10.665875,31.113375 12.905625,31.562375 15.25,31.562375 C15.3503934,31.3711571 15.4039457,31.1588329 15.40625,30.942875 C15.4081915,30.7178767 15.3545181,30.4958835 15.25,30.296625 L15.25,30.29675 Z M15.25,27.23425 L3.545875,27.23425 C3.86254177,27.5059334 4.18857263,27.7665079 4.523375,28.0155 L15.25,28.0155 C15.276875,27.988 15.409125,27.847 15.409125,27.624875 C15.409125,27.402625 15.276875,27.261625 15.25,27.23425 L15.25,27.23425 Z M15.25,28.79675 L5.663125,28.79675 C6.24536496,29.1644392 6.84827791,29.4983242 7.468875,29.79675 L15.25,29.79675 C15.3486647,29.640032 15.3990878,29.4577696 15.395,29.272625 C15.3901741,29.1039521 15.3400932,28.9396781 15.25,28.797 L15.25,28.79675 Z" id="Shape" fill="#FFFFFF"></path>
                            <path d="M0.3105,6.59575 L3.4835,9.5545 L2.655375,5.29575 L0.822375,9.2285 L4.616125,7.124 L0.3105,6.59575 Z M4.921875,2.594625 L9.260625,2.67 L5.795,0.0595 L7.0635,4.209 L8.4765,0.1055 L4.921875,2.594625 Z" id="Shape" fill="#FBD116"></path>
                        </g>
                    </g>
                </g>
            </g>
        </g>
    </g>
</svg>