<?xml version="1.0" encoding="UTF-8"?>
<svg width="122px" height="60px" viewBox="0 0 122 60" version="1.1" xmlns="http://www.w3.org/2000/svg" xmlns:xlink="http://www.w3.org/1999/xlink">
    <!-- Generator: Sketch 46.2 (44496) - http://www.bohemiancoding.com/sketch -->
    <title>ca</title>
    <desc>Created with Sketch.</desc>
    <defs></defs>
    <g id="Page-1" stroke="none" stroke-width="1" fill="none" fill-rule="evenodd">
        <g id="ca">
            <g>
                <rect id="Rectangle-37-Copy-3" fill="#FFFFFF" x="0" y="0" width="122" height="60"></rect>
                <rect id="Rectangle-37-Copy" fill="#BF0A30" x="86" y="0" width="36" height="60"></rect>
                <rect id="Rectangle-37-Copy-2" fill="#BF0A30" x="0" y="0" width="36" height="60"></rect>
                <path d="M44.8583858,30.1759825 L43,30.7412496 L51.6473664,37.4950621 C52.301309,39.2308364 51.4201379,39.7424924 50.8586721,40.6529392 L60.2463807,39.5924756 L60.001978,48 L61.9463672,47.9502687 L61.5222953,39.6125798 L70.9192517,40.6039133 C70.3377052,39.5108834 69.8200997,38.9305677 70.3581822,37.182919 L79,30.7841619 L77.4877413,30.29696 C76.2511954,29.4478838 78.0219926,26.207474 78.2891182,24.1624958 C78.2891182,24.1624958 73.2431918,25.7067518 72.9125214,24.8987068 L71.6274913,22.7019483 L67.0370788,27.1895197 C66.5355907,27.2965066 66.3219695,27.1189788 66.2042598,26.7418206 L68.3250153,17.3638898 L64.9667891,19.0447598 C64.6856599,19.1517467 64.4045306,19.0594558 64.219313,18.7678871 L60.9892331,13 L57.6587499,18.9900907 C57.4077416,19.2047699 57.156337,19.2295768 56.947736,19.0836748 L53.750155,17.4873362 L55.6697076,26.7920222 C55.5169889,27.1611858 55.1513095,27.2652335 54.7211607,27.0652503 L50.333008,22.6285858 C49.7589917,23.4470944 49.3699289,24.7843131 48.6112234,25.083994 C47.8523859,25.3646288 45.3111255,24.5169634 43.6078363,24.186127 C44.189647,26.0548707 46.0090605,29.1594894 44.8575932,30.1770406 L44.8583858,30.1759825 Z" id="Shape" fill="#BF0A30"></path>
            </g>
        </g>
    </g>
</svg>