<?xml version="1.0" encoding="UTF-8" standalone="no"?>
<svg width="122px" height="60px" viewBox="0 0 122 60" version="1.1" xmlns="http://www.w3.org/2000/svg" xmlns:xlink="http://www.w3.org/1999/xlink">
    <!-- Generator: Sketch 3.8.2 (29753) - http://www.bohemiancoding.com/sketch -->
    <title>gb</title>
    <desc>Created with Sketch.</desc>
    <defs></defs>
    <g id="Page-1" stroke="none" stroke-width="1" fill="none" fill-rule="evenodd">
        <g id="gb">
            <g id="Shape">
                <polygon fill="#000066" points="0 0 122 0 122 60 0 60"></polygon>
                <path d="M47.557645,30.7808286 L0,7 L0,0 L1.26644742,0 L13.0000003,0 L60.7188933,24.0783409 L107.999998,0 L119.999998,0 L121.999998,0 L121.999998,7 L74.059436,30.8098075 L121.999998,55 L121.999998,60.369812 L106.730621,60.3698125 L60.7925523,37.3988405 L14.541435,60.3695806 L0,60.3695793 L0,55 L47.557645,30.7808286 Z" fill="#FFFFFF"></path>
                <path d="M50,19.7900009 L50,0 L50,0 L69.7900009,0 L69.7900009,19.7900009 L122,19.7900009 L122,39.5800018 L69.7900009,39.5800018 L69.7900009,60 L50,60 L50,39.5800018 L0,39.5800018 L0,19.7900009 L50,19.7900009 Z" fill="#FFFFFF"></path>
                <path d="M54.4327385,35.6199999 L-1.56319402e-13,35.6199999 L-1.56319402e-13,23.75 L54.4327385,23.75 L54.4327385,-9.9475983e-14 L54.4327385,-9.9475983e-14 L66.3064227,-9.9475983e-14 L66.3064227,23.75 L122,23.75 L122,35.6199999 L66.3064227,35.6199999 L66.3064227,60 L54.4327385,60 L54.4327385,35.6199999 Z M-1.56319402e-13,60.0000009 L40.5797204,39.5797204 L49.4297895,39.5797204 L9,60.0000009 L8,60.0000009 L-1.56319402e-13,60.0000009 Z M40.5797204,19.7898602 L31.7296513,19.7898602 L-3.3041625e-13,4 L-2.55457522e-09,2.08877537e-09 L1,-2.4158453e-13 L40.5797204,19.7898602 Z M71.3093717,19.7898602 L110.889092,-9.9475983e-14 L119.739161,-9.9475983e-14 L80.1594408,19.7898602 L71.3093717,19.7898602 L71.3093717,19.7898602 Z M80.1594408,39.5797204 L89.0095099,39.5797204 L122.000002,56.0000009 L122.000002,60.0000009 L121.000002,60.0000009 L80.1594408,39.5797204 Z" fill="#CC0000"></path>
            </g>
        </g>
    </g>
</svg>