<?xml version="1.0" encoding="UTF-8" standalone="no"?>
<svg width="122px" height="60px" viewBox="0 0 122 60" version="1.1" xmlns="http://www.w3.org/2000/svg" xmlns:xlink="http://www.w3.org/1999/xlink">
    <!-- Generator: Sketch 3.8.2 (29753) - http://www.bohemiancoding.com/sketch -->
    <title>lr</title>
    <desc>Created with Sketch.</desc>
    <defs></defs>
    <g id="Page-1" stroke="none" stroke-width="1" fill="none" fill-rule="evenodd">
        <g id="lr">
            <g id="Clipped">
                <g>
                    <g id="Group">
                        <rect id="Rectangle-157" fill="#CC0000" x="0" y="0" width="122" height="5"></rect>
                        <rect id="Rectangle-157-Copy-2" fill="#CC0000" x="0" y="10" width="122" height="5"></rect>
                        <rect id="Rectangle-157-Copy-4" fill="#CC0000" x="0" y="20" width="122" height="5"></rect>
                        <rect id="Rectangle-157-Copy-6" fill="#CC0000" x="0" y="30" width="122" height="5"></rect>
                        <rect id="Rectangle-157-Copy-8" fill="#CC0000" x="0" y="40" width="122" height="5"></rect>
                        <rect id="Rectangle-157-Copy-10" fill="#CC0000" x="0" y="50" width="122" height="5"></rect>
                        <rect id="Rectangle-157-Copy" fill="#FFFFFF" x="0" y="5" width="122" height="5"></rect>
                        <rect id="Rectangle-157-Copy-3" fill="#FFFFFF" x="0" y="15" width="122" height="5"></rect>
                        <rect id="Rectangle-157-Copy-5" fill="#FFFFFF" x="0" y="25" width="122" height="5"></rect>
                        <rect id="Rectangle-157-Copy-7" fill="#FFFFFF" x="0" y="35" width="122" height="5"></rect>
                        <rect id="Rectangle-157-Copy-9" fill="#FFFFFF" x="0" y="45" width="122" height="5"></rect>
                        <rect id="Rectangle-157-Copy-11" fill="#FFFFFF" x="0" y="55" width="122" height="5"></rect>
                        <polygon id="Shape" fill="#000066" points="0 0 24.9989259 0 24.9989259 25 0 25"></polygon>
                        <polygon id="Shape" fill="#FFFFFF" points="18.2757568 19.4974365 12.7045898 16.0938721 7.16033936 19.5314941 9.22236328 13.9449463 3.68822021 10.4958984 10.5350098 10.4477783 12.6584473 4.87869873 14.8275879 10.4349243 21.6743774 10.4422852 16.1685791 13.9241821 18.2761963 19.4977661"></polygon>
                    </g>
                </g>
            </g>
        </g>
    </g>
</svg>