<?xml version="1.0" encoding="UTF-8" standalone="no"?>
<svg width="122px" height="60px" viewBox="0 0 122 60" version="1.1" xmlns="http://www.w3.org/2000/svg" xmlns:xlink="http://www.w3.org/1999/xlink">
    <!-- Generator: Sketch 3.8.2 (29753) - http://www.bohemiancoding.com/sketch -->
    <title>sm</title>
    <desc>Created with Sketch.</desc>
    <defs></defs>
    <g id="Page-1" stroke="none" stroke-width="1" fill="none" fill-rule="evenodd">
        <g id="sm">
            <g id="Group">
                <g>
                    <g id="Shape">
                        <polygon fill="#19B6EF" points="0 30 122 30 122 60 0 60"></polygon>
                        <polygon fill="#FFFFFF" points="0 0 122 0 122 30 0 30"></polygon>
                    </g>
                    <path d="M62.8484507,42.632325 C69.4402167,37.7008797 76.5422319,27.6382882 68.2198917,22.3467779 C66.6695385,22.0466609 64.9388386,22.1366457 64.1086154,22.7969534 C63.6686197,22.5468559 63.3183575,22.5669642 62.8782362,23.0369967 C62.5683164,22.6568234 62.2580195,22.4866566 61.6179458,22.6769317 C60.3375471,22.0268039 59.1772958,21.8866739 57.6569794,22.2867042 C50.4150856,26.6378982 54.8460845,36.9607671 62.8484507,42.632325 L62.8484507,42.632325 Z" id="Shape" stroke="#7D6C00" stroke-width="2.3686254" fill="#FFDD00"></path>
                    <g transform="translate(69.123510, 21.239437)" id="Shape" stroke="#3A9D4F" stroke-width="0.1">
                        <path d="M5.91687974,10.1931701 C5.91687974,10.1931701 6.6587519,9.19541928 6.68426436,9.19541928 C7.42626219,8.76057638 7.50305092,8.19779415 7.50305092,8.19779415 C8.24492308,7.96742795 8.01455688,7.35349512 8.06570748,7.27683207 C8.42413868,6.89313976 8.29607367,6.5091961 8.24492308,6.38125677 C8.24492308,6.27920693 8.50080173,5.33248104 8.14262189,5.20466739 C8.1595883,4.19824485 7.53710943,4.29212568 7.0424442,4.94878873 C6.51372048,5.10224052 6.39432719,5.5372091 6.58196316,6.02332828 C5.89111593,6.02332828 5.86560347,7.02107909 6.07033153,7.58373564 C5.14936945,7.55822319 5.66100108,8.58148646 5.63536295,8.63276273 C5.32845937,8.78621452 5.86560347,10.2444464 5.91687974,10.1931701 L5.91687974,10.1931701 Z M0.107705309,18.763597 L0.568186349,19.0449881 C0.661941495,19.3944962 0.986062839,19.616442 1.23352113,19.5567454 C1.35291441,20.0938895 1.93266306,20.0173521 2.35908559,19.7101972 C2.70017335,20.2048624 3.11817551,20.2135341 3.68950379,20.0428646 C4.20100975,20.4180108 4.86634453,20.256013 5.30118743,19.863649 C5.77008884,20.2473413 6.08578982,19.9660758 6.3244507,19.5567454 C6.69105092,19.6505005 6.98098808,19.5909296 7.11747346,19.224078 C7.83383315,19.164507 7.4756533,18.4907519 6.88748429,18.2008147 C7.35626002,17.7913586 7.87656338,16.9471853 7.14323727,16.8192459 C6.91287107,16.6488277 6.47815385,16.6830119 6.14536078,16.8450098 C6.06027736,16.4696121 5.53984832,16.375857 4.96852004,16.7937335 C4.77246371,16.375857 4.09016251,16.572039 3.76604117,16.8705222 C3.3568364,16.5123424 2.87071723,16.5123424 2.15435753,16.9215471 L0.107705309,18.763597 L0.107705309,18.763597 Z M0.107705309,17.6645504 C0.19291441,17.195649 -0.131081257,16.3428039 0.363458288,16.2575948 C0.269703142,15.4729924 0.406188516,14.5860888 1.3100585,14.6714236 C1.4552156,13.9295515 1.42103142,13.2387042 2.28229686,13.1362774 C2.28229686,13.1362774 2.9731441,10.731571 3.68950379,12.3944052 C3.97089491,12.8807757 3.91974431,13.6734215 3.3568364,13.5199697 C3.46780932,14.1170618 3.2716273,14.6371138 2.61496425,14.6201473 C2.90490141,15.0378982 2.81102059,15.6094778 2.48702492,15.8739025 C1.69387649,16.4706176 0.900979415,17.0678353 0.107705309,17.6645504 L0.107705309,17.6645504 Z M4.27767281,14.6709209 L5.01967064,14.5175948 C5.78705525,14.0059632 6.09421018,13.8012351 6.47790249,14.3638917 C7.11747346,14.2274063 7.73140628,14.295649 7.70589382,14.7988602 C8.46498375,14.8500108 8.45631203,15.3360043 8.3712286,15.7198223 C8.49049621,16.3934518 8.20055905,17.271935 7.73153196,16.2058158 C6.24766197,15.3019458 5.40336295,15.4212134 3.04968147,15.9500628 L4.27767281,14.6709209 L4.27767281,14.6709209 Z M4.66287324,13.927792 C4.68863705,13.9022795 6.86310293,13.3393716 6.63286241,12.6742882 C7.24679523,12.5718613 7.37486024,11.9579285 7.40049837,11.9579285 C8.67951463,11.5487237 8.60272589,10.8066002 8.60272589,10.8066002 C8.96945179,10.4142362 9.6175688,10.0219978 9.47266306,9.32273023 C9.51539328,8.52970748 9.58351029,8.04371398 8.52606284,8.55534561 C7.73291441,8.4784312 7.45152329,8.93903792 7.22128277,9.62988516 C6.84613651,9.18649621 6.24074973,9.89430986 6.17250704,10.5252091 C6.17250704,10.5252091 5.20026869,11.4718093 5.20026869,11.4973218 C5.20026869,11.5228342 4.3816078,13.0067042 4.3816078,13.0067042 L4.66287324,13.9279177 L4.66287324,13.927792 Z" fill="#4FD46B"></path>
                        <path d="M4.7131441,12.2405764 C4.19284074,11.8482124 3.90302925,11.3793109 3.9967844,10.9101582 C3.65582232,10.4496771 3.41691008,10.168286 3.74103142,9.75895558 C3.74103142,9.75895558 3.48515276,8.83786782 3.48515276,8.81235536 C2.82006934,8.55660238 3.10146046,7.99382015 3.2804247,7.78909209 C2.96497508,7.35412351 2.95642904,6.89351679 3.25491224,6.48431203 C3.2463662,5.66552546 3.82624052,5.97268039 4.30368797,6.48431203 C4.30368797,6.48431203 5.0968364,7.04721993 4.50854171,7.55885157 C5.0968364,7.76357963 5.276052,8.27495991 4.94338462,8.47968797 C5.45501625,8.71005417 5.53167931,9.17053521 5.25028819,9.47756446 C5.77059155,9.89556663 5.57440953,10.4157443 5.73640737,10.8846457 L4.7131441,12.2405764 L4.7131441,12.2405764 Z" fill="#4FD46B"></path>
                        <path d="M5.63423185,8.4284117 C5.60871939,8.40289924 4.76454605,7.3283597 4.99466089,7.25157096 C4.94363597,6.91890358 4.68788299,6.56072373 4.84133478,6.22830769 C4.42345829,5.8104312 4.41478657,5.31589166 4.73890791,4.92377898 C4.45751679,4.539961 4.58545612,4.02832936 4.96914843,3.69566197 C4.84975515,3.06451138 5.29326977,2.91960563 5.68550813,2.80008667 C5.97544529,1.78524377 6.4443467,2.04966847 6.7087714,2.82559913 C7.10968147,3.17523294 7.04998483,3.70408234 6.91362514,4.10499242 C7.39107259,4.42898808 7.10113543,4.8296468 6.887987,5.00031636 L5.63423185,8.4284117 L5.63423185,8.4284117 Z" fill="#4FD46B"></path>
                        <path d="M5.50654388,3.02957313 L4.79018418,2.31321343 C4.97530661,1.93366847 5.1243597,1.26456338 4.58570748,0.957282774 C4.28860672,0.23375948 2.80335428,-0.662946912 2.56444204,1.05970964 C2.33834886,0.539908992 1.86530011,0.027900325 1.51566631,0.624866739 C0.739609967,-0.0402166847 0.321733478,0.164260022 0.722517876,1.00855905 C0.722517876,1.00855905 0.364589382,1.57134128 1.31093824,2.00630986 C1.38772698,2.08297291 1.00403467,3.02957313 2.12972481,3.05508559 C1.91657638,3.37920693 2.26621018,3.83114193 2.71814518,3.79695775 C2.39402384,4.19786782 2.93983965,4.62429036 3.28080173,4.46229252 C3.13577031,4.90568147 3.14431636,5.11895558 3.76692091,5.17865222 L4.45776815,5.97167497 L5.0204247,6.73905959 L5.50654388,3.02957313 L5.50654388,3.02957313 Z" fill="#4FD46B"></path>
                        <path d="M5.94201517,9.74098375 C5.97821018,9.70478873 7.31667172,6.6295948 7.4976468,5.68877573 M6.08654388,4.27930661 C6.08654388,4.27930661 6.30346262,6.77575731 5.68852438,8.6208234 M1.96244854,1.74628386 C1.96244854,1.74628386 4.71213868,4.38738895 4.96525244,5.47273673 M3.88003034,1.45735211 C3.88003034,1.45735211 4.06087974,3.62829902 4.82059805,5.76292524 M8.72827736,9.3432156 C8.72827736,9.3432156 5.97858722,11.6588169 4.64,13.6847324 M6.12198483,17.4490141 C6.12198483,17.4490141 2.50399133,17.955493 0.91216468,17.991688 M4.92880607,19.0042687 C4.92880607,19.0042687 0.442383532,18.8956836 0.116628386,18.5701798 M2.68458938,13.1783792 C2.68458938,13.2144485 0.405308776,16.9770964 0.332918743,18.2073499"></path>
                    </g>
                    <path d="M62.8233153,41.9059112 C58.0767411,37.4287887 53.2147952,29.0262665 58.0511029,24.7798873 C58.9107346,25.2675146 59.9240693,24.8312893 61.3224789,24.2796923 C61.7457595,24.7414301 62.2844117,24.8570531 62.8233153,24.5105612 C63.4261885,24.7671939 63.8752329,24.5618375 64.1703229,24.2411094 C65.5429686,25.0366457 67.3004377,25.4471073 67.7108992,24.6646414 C72.4702925,29.180221 67.6466782,37.6213261 62.8233153,41.9059112 L62.8233153,41.9059112 Z" id="Shape" stroke="#7D6C00" stroke-width="0.1" fill="#65C7FF"></path>
                    <path d="M62.8504615,41.7760867 C60.812104,39.7266696 58.9523337,37.4546782 57.5284117,34.5295428 C57.7720997,34.3244377 57.8853348,34.2608451 58.0136511,33.9015341 C58.7448407,34.004338 59.1296641,34.0298505 60.0918483,33.8630769 C60.2841343,34.5815731 60.3227172,35.1844464 60.784455,35.7873196 L61.7466392,33.9015341 C62.4007887,34.0556143 63.2091441,34.0941972 63.8247107,33.9015341 C64.2224789,34.4404377 64.0813434,35.2487931 64.7868949,35.8643597 C65.2101755,34.620156 65.6337075,34.5302969 66.0569881,33.8630769 C66.6856251,34.0812524 67.0833933,33.9913933 67.596533,33.824494 C67.8658592,34.132403 67.7312589,34.1273759 68.2217768,34.5794366 C66.9357226,37.1331961 65.172221,39.6980152 62.8504615,41.7760867 L62.8504615,41.7760867 Z" id="Shape" fill="#8FC753"></path>
                    <path d="M57.2658722,20.6492568 C57.2658722,20.8815012 57.0776009,21.0697725 56.8453564,21.0697725 C56.613112,21.0697725 56.4248407,20.8815012 56.4248407,20.6492568 C56.4248407,20.4170124 56.613112,20.2287411 56.8453564,20.2287411 C57.0776009,20.2287411 57.2658722,20.4170124 57.2658722,20.6492568 L57.2658722,20.6492568 Z M56.8270076,19.680286 C56.8296347,19.832232 56.7500763,19.9737736 56.6189077,20.0505151 C56.487739,20.1272566 56.3253704,20.1272566 56.1942017,20.0505151 C56.0630331,19.9737736 55.9834748,19.832232 55.9861018,19.680286 C55.9900677,19.4509099 56.1771443,19.2670398 56.4065547,19.2670398 C56.6359651,19.2670398 56.8230418,19.4509099 56.8270076,19.680286 L56.8270076,19.680286 Z M56.3151246,18.7843337 C56.3151246,19.0165781 56.1268533,19.2048494 55.8946089,19.2048494 C55.6623645,19.2048494 55.4740932,19.0165781 55.4740932,18.7843337 C55.4740932,18.5520893 55.6623645,18.363818 55.8946089,18.363818 C56.1268533,18.363818 56.3151246,18.5520893 56.3151246,18.7843337 L56.3151246,18.7843337 Z M55.967753,17.9067302 C55.967753,18.1389746 55.7794817,18.3272459 55.5472373,18.3272459 C55.3149929,18.3272459 55.1267216,18.1389746 55.1267216,17.9067302 C55.1267216,17.6744858 55.3149929,17.4862146 55.5472373,17.4862146 C55.7794817,17.4862146 55.967753,17.6744858 55.967753,17.9067302 L55.967753,17.9067302 Z M56.0225482,16.9561083 C56.0251753,17.1080543 55.945617,17.249596 55.8144483,17.3263374 C55.6832797,17.4030789 55.520911,17.4030789 55.3897424,17.3263374 C55.2585737,17.249596 55.1790154,17.1080543 55.1816425,16.9561083 C55.1856083,16.7267322 55.3726849,16.5428621 55.6020953,16.5428621 C55.8315058,16.5428621 56.0185824,16.7267322 56.0225482,16.9561083 L56.0225482,16.9561083 Z M58.2423835,15.3837616 C58.2423835,15.6160061 58.0541122,15.8042774 57.8218678,15.8042774 C57.5896234,15.8042774 57.4013521,15.6160061 57.4013521,15.3837616 C57.4013521,15.1515172 57.5896234,14.9632459 57.8218678,14.9632459 C58.0541122,14.9632459 58.2423835,15.1515172 58.2423835,15.3837616 L58.2423835,15.3837616 Z" id="Shape" stroke="#000000" stroke-width="0.1" fill="#FFFFFF"></path>
                    <path d="M57.4121603,15.5300498 C57.4121603,15.7622943 57.2238891,15.9505655 56.9916446,15.9505655 C56.7594002,15.9505655 56.5711289,15.7622943 56.5711289,15.5300498 C56.5711289,15.2978054 56.7594002,15.1095341 56.9916446,15.1095341 C57.2238891,15.1095341 57.4121603,15.2978054 57.4121603,15.5300498 L57.4121603,15.5300498 Z M56.4979848,16.0785049 C56.4979848,16.3107493 56.3097135,16.4990206 56.0774691,16.4990206 C55.8452247,16.4990206 55.6569534,16.3107493 55.6569534,16.0785049 C55.6569534,15.8462605 55.8452247,15.6579892 56.0774691,15.6579892 C56.3097135,15.6579892 56.4979848,15.8462605 56.4979848,16.0785049 L56.4979848,16.0785049 Z M59.3135298,15.4019848 C59.3135298,15.6342292 59.1252585,15.8225005 58.8930141,15.8225005 C58.6607697,15.8225005 58.4724984,15.6342292 58.4724984,15.4019848 C58.4724984,15.1697404 58.6607697,14.9814691 58.8930141,14.9814691 C59.1252585,14.9814691 59.3135298,15.1697404 59.3135298,15.4019848 L59.3135298,15.4019848 Z M60.4837096,15.4934778 C60.4837096,15.7257222 60.2954383,15.9139935 60.0631939,15.9139935 C59.8309495,15.9139935 59.6426782,15.7257222 59.6426782,15.4934778 C59.6426782,15.2612334 59.8309495,15.0729621 60.0631939,15.0729621 C60.2954383,15.0729621 60.4837096,15.2612334 60.4837096,15.4934778 L60.4837096,15.4934778 Z M61.5258245,15.4385569 C61.5258245,15.6708013 61.3375532,15.8590726 61.1053088,15.8590726 C60.8730644,15.8590726 60.6847931,15.6708013 60.6847931,15.4385569 C60.6847931,15.2063125 60.8730644,15.0180412 61.1053088,15.0180412 C61.3375532,15.0180412 61.5258245,15.2063125 61.5258245,15.4385569 L61.5258245,15.4385569 Z" id="Shape" stroke="#000000" stroke-width="0.1" fill="#FFFFFF"></path>
                    <path d="M63.9549122,14.7675666 C63.9549122,15.363309 63.4719677,15.8462535 62.8762254,15.8462535 C62.280483,15.8462535 61.7975385,15.363309 61.7975385,14.7675666 C61.7975385,14.1718243 62.280483,13.6888797 62.8762254,13.6888797 C63.4719677,13.6888797 63.9549122,14.1718243 63.9549122,14.7675666 L63.9549122,14.7675666 Z" id="Shape" stroke="#7D6C00" stroke-width="0.1" fill="#FFDD00"></path>
                    <path d="M65.0909079,15.4203337 C65.0909079,15.6525781 64.9026366,15.8408494 64.6703922,15.8408494 C64.4381478,15.8408494 64.2498765,15.6525781 64.2498765,15.4203337 C64.2498765,15.1880893 64.4381478,14.999818 64.6703922,14.999818 C64.9026366,14.999818 65.0909079,15.1880893 65.0909079,15.4203337 L65.0909079,15.4203337 Z M66.1879437,15.511701 C66.1905708,15.6636469 66.1110124,15.8051886 65.9798438,15.8819301 C65.8486751,15.9586715 65.6863065,15.9586715 65.5551378,15.8819301 C65.4239692,15.8051886 65.3444108,15.6636469 65.3470379,15.511701 C65.3510037,15.2823248 65.5380804,15.0984547 65.7674908,15.0984547 C65.9969012,15.0984547 66.1839778,15.2823248 66.1879437,15.511701 L66.1879437,15.511701 Z M67.2484074,15.4567801 C67.2484074,15.6890592 67.0601079,15.8773586 66.8278288,15.8773586 C66.5955497,15.8773586 66.4072503,15.6890592 66.4072503,15.4567801 C66.4072503,15.2245357 66.5955216,15.0362644 66.827766,15.0362644 C67.0600104,15.0362644 67.2482817,15.2245357 67.2482817,15.4567801 L67.2484074,15.4567801 Z M68.1441083,15.4203337 C68.1441083,15.6525781 67.955837,15.8408494 67.7235926,15.8408494 C67.4913482,15.8408494 67.3030769,15.6525781 67.3030769,15.4203337 C67.3030769,15.1880893 67.4913482,14.999818 67.7235926,14.999818 C67.955837,14.999818 68.1441083,15.1880893 68.1441083,15.4203337 L68.1441083,15.4203337 Z M69.259493,15.548273 C69.259493,15.7805174 69.0712217,15.9687887 68.8389772,15.9687887 C68.6067328,15.9687887 68.4184615,15.7805174 68.4184615,15.548273 C68.4184615,15.3160286 68.6067328,15.1277573 68.8389772,15.1277573 C69.0712217,15.1277573 69.259493,15.3160286 69.259493,15.548273 L69.259493,15.548273 Z M70.1369707,16.0967281 C70.1369707,16.3289725 69.9486995,16.5172438 69.716455,16.5172438 C69.4842106,16.5172438 69.2959393,16.3289725 69.2959393,16.0967281 C69.2959393,15.8644836 69.4842106,15.6762124 69.716455,15.6762124 C69.9486995,15.6762124 70.1369707,15.8644836 70.1369707,16.0967281 L70.1369707,16.0967281 Z" id="Shape" stroke="#000000" stroke-width="0.1" fill="#FFFFFF"></path>
                    <path d="M56.8591809,19.0648451 C57.2173608,19.7460152 57.5752893,20.4535775 57.9334691,21.1347476 L67.8908689,21.1347476 L69.043831,19.1432676 C68.3712069,18.6803987 67.908338,18.3222189 66.9475363,18.5406457 C66.4058678,17.7633326 65.8120433,17.6149079 64.9299155,17.7022535 C64.667753,17.431545 64.431857,17.2655255 63.9863315,17.2044464 L61.8902882,17.2567281 C61.3398223,17.3090098 60.9205634,17.7283944 60.8944225,17.7283944 C60.0033716,17.623454 59.1912459,17.6495948 58.9816165,18.5143792 C58.1693651,18.3134215 57.5928841,18.531974 56.8591809,19.0648451 L56.8591809,19.0648451 Z" id="Shape" stroke="#AC0000" stroke-width="0.1" fill="#E40000"></path>
                    <path d="M70.5026912,17.0109036 C70.5026912,17.243148 70.3144199,17.4314193 70.0821755,17.4314193 C69.8499311,17.4314193 69.6616598,17.243148 69.6616598,17.0109036 C69.6616598,16.7786592 69.8499311,16.5903879 70.0821755,16.5903879 C70.3144199,16.5903879 70.5026912,16.7786592 70.5026912,17.0109036 L70.5026912,17.0109036 Z M70.5758353,17.9982232 C70.5758353,18.2304676 70.387564,18.4187389 70.1553196,18.4187389 C69.9230752,18.4187389 69.7348039,18.2304676 69.7348039,17.9982232 C69.7348039,17.7659788 69.9230752,17.5777075 70.1553196,17.5777075 C70.387564,17.5777075 70.5758353,17.7659788 70.5758353,17.9982232 L70.5758353,17.9982232 Z M70.2649101,18.9123987 C70.2649101,19.1446431 70.0766388,19.3329144 69.8443944,19.3329144 C69.61215,19.3329144 69.4238787,19.1446431 69.4238787,18.9123987 C69.4238787,18.6801543 69.61215,18.491883 69.8443944,18.491883 C70.0766388,18.491883 70.2649101,18.6801543 70.2649101,18.9123987 L70.2649101,18.9123987 Z M69.8809664,19.6619372 C69.8809664,19.8941816 69.6926951,20.0824529 69.4604507,20.0824529 C69.2282063,20.0824529 69.039935,19.8941816 69.039935,19.6619372 C69.039935,19.4296927 69.2282063,19.2414215 69.4604507,19.2414215 C69.6926951,19.2414215 69.8809664,19.4296927 69.8809664,19.6619372 L69.8809664,19.6619372 Z M69.4238787,20.6126847 C69.4276113,20.7653263 69.3483119,20.9079979 69.2167074,20.9854166 C69.0851029,21.0628353 68.9218743,21.0628353 68.7902698,20.9854166 C68.6586654,20.9079979 68.5793659,20.7653263 68.5830986,20.6126847 C68.5886783,20.3845135 68.7752492,20.2024492 69.0034886,20.2024492 C69.2317281,20.2024492 69.418299,20.3845135 69.4238787,20.6126847 L69.4238787,20.6126847 Z" id="Shape" stroke="#000000" stroke-width="0.1" fill="#FFFFFF"></path>
                    <path d="M63.5391723,19.4075666 C63.5391723,19.7509011 63.2608447,20.0292286 62.9175103,20.0292286 C62.5741759,20.0292286 62.2958483,19.7509011 62.2958483,19.4075666 C62.2958483,19.0642322 62.5741759,18.7859047 62.9175103,18.7859047 C63.2608447,18.7859047 63.5391722,19.0642322 63.5391723,19.4075666 L63.5391723,19.4075666 Z" id="Shape" stroke="#000000" stroke-width="0.1" fill="#FFFFFF"></path>
                    <path d="M63.6623359,17.9774865 C63.6623359,18.3915145 63.3266998,18.7271506 62.9126717,18.7271506 C62.4986437,18.7271506 62.1630076,18.3915145 62.1630076,17.9774865 C62.1630076,17.5634584 62.4986437,17.2278223 62.9126717,17.2278223 C63.3266998,17.2278223 63.6623359,17.5634584 63.6623359,17.9774865 L63.6623359,17.9774865 Z" id="Shape" stroke="#000000" stroke-width="0.1" fill="#FFFFFF"></path>
                    <path d="M63.5541278,16.5887541 C63.557452,16.8326263 63.4292519,17.0594095 63.218589,17.1823153 C63.0079261,17.3052211 62.7474152,17.3052211 62.5367523,17.1823153 C62.3260893,17.0594095 62.1978893,16.8326263 62.2012134,16.5887541 C62.2062568,16.2187526 62.5076348,15.9214546 62.8776706,15.9214546 C63.2477064,15.9214546 63.5490845,16.2187526 63.5541278,16.5887541 L63.5541278,16.5887541 Z" id="Shape" stroke="#000000" stroke-width="0.1" fill="#FFFFFF"></path>
                    <path d="M62.6495038,13.7057205 C62.6495038,13.5893434 62.6459848,13.1822752 62.6541538,13.1659372 L62.2052351,13.1578938 L62.2180542,12.7588689 L62.6076533,12.7542189 L62.6123034,12.4054648 L63.1646544,12.4054648 L63.1646544,12.7251874 L63.6007541,12.7251874 L63.5917053,13.1497248 L63.1392676,13.1450748 L63.1354973,13.7138895 L62.6495038,13.7057205 L62.6495038,13.7057205 Z" id="Shape" stroke="#7D6C00" stroke-width="0.1" fill="#FFDD00"></path>
                    <path d="M57.8829469,21.1351246 C56.9916446,19.6241083 55.6823402,17.5700412 56.4938375,16.6806241 C57.6192763,15.4058808 60.2582449,16.5583402 61.944078,15.8158397 C62.0662362,17.2571051 61.664572,19.6414518 62.3110553,20.1395103 L61.7083077,20.663584 C61.3413304,20.1919177 60.6503575,19.5598873 59.7955016,20.6897248 C59.3063662,20.2620455 58.7503705,20.3372004 58.4884594,20.9058895 C58.2393673,20.9394453 58.2538202,21.0391073 57.8828212,21.1351246 L57.8829469,21.1351246 Z M67.9521993,21.0828429 C68.8432503,19.5718267 70.1528061,17.5177595 69.3410574,16.6283424 C68.2156186,15.3535991 65.5767757,16.5060585 63.8909426,15.7634323 C63.7686587,17.2048234 64.1703229,19.5891701 63.5239653,20.0872286 L64.1265872,20.6113023 C64.7064615,19.7957833 65.4302362,19.7693911 66.0393933,20.6373174 C66.5286544,20.2096381 67.0353846,20.2683294 67.3464355,20.8536078 C67.5956533,20.8871636 67.5812004,20.9868256 67.9521993,21.0828429 L67.9521993,21.0828429 Z" id="Shape" stroke="#FFDD00" stroke-width="0.1"></path>
                    <path d="M57.855675,22.2614431 C61.4368451,21.8947172 64.7558527,22.0255471 67.8130748,22.2614431 L68.2060672,21.1344962 C64.7298375,20.5057335 62.3277703,20.4271853 57.7771268,21.0560737 L57.855675,22.2613174 L57.855675,22.2614431 Z" id="Shape" stroke="#7D6C00" stroke-width="0.1" fill="#FFDD00"></path>
                    <path d="M62.4778288,41.3951593 C62.5035926,41.215441 62.5291051,41.048039 62.5548689,40.8684464 C62.9110379,40.964338 63.1827519,40.9272633 63.4785959,40.8179242 C63.5810228,40.6639697 63.6838267,40.5100152 63.7865049,40.355935 L63.5555103,40.0867346 C63.3525417,40.1304702 63.1858938,40.3192373 63.0553153,40.483623 C62.8507129,40.4933001 62.6702405,40.3943922 62.4778288,40.355935 L62.2855428,39.547831 C62.0945135,39.3222405 61.6985049,39.3382015 61.7850964,39.7402427 L61.8236793,40.0481517 C61.9007194,40.2405634 61.9293738,40.5054908 62.0545482,40.6495168 L62.0545482,40.9650921 C62.1956836,41.1084897 62.3368191,41.251636 62.4778288,41.3951593 L62.4778288,41.3951593 Z M62.6306522,39.0965244 C62.3629599,39.2292394 62.0451224,38.9984962 61.7070509,38.8656555 C61.3991419,38.8445417 61.1516836,39.1009231 60.7834496,39.0194843 C60.8506869,38.8196576 61.0143185,38.7886154 61.1299415,38.6731181 C61.0453608,38.1539458 61.3222275,37.9803857 61.3993933,37.9803857 C61.4760563,37.9803857 61.784091,38.0574258 61.784091,38.0574258 L62.092,38.095883 C62.2717183,38.4294301 62.5234496,38.7267822 62.6306522,39.0965244 L62.6306522,39.0965244 Z" id="Shape" fill="#C76E2E"></path>
                    <path d="M60.8010444,46.0090184 C61.6890791,44.5672503 67.8715146,41.6721517 73.6731484,35.4205937 C67.7675796,41.1066046 64.0768191,42.5025005 59.2439047,45.9742059 L60.8010444,46.0090184 L60.8010444,46.0090184 Z" id="Shape" stroke="#E9BF00" stroke-width="0.1" fill="#FFE100"></path>
                    <path d="M69.3002124,39.3603207 C69.3029295,39.5229231 69.2177377,39.6743503 69.0773553,39.7564459 C68.9369729,39.8385416 68.7632265,39.8385416 68.6228441,39.7564459 C68.4824616,39.6743503 68.3972699,39.5229231 68.399987,39.3603207 C68.404092,39.1146623 68.604407,38.9176667 68.8500997,38.9176667 C69.0957923,38.9176667 69.2961073,39.1146623 69.3002124,39.3603207 L69.3002124,39.3603207 Z M73.6209924,34.9788386 C73.6250981,35.1637876 73.528777,35.3364719 73.3692558,35.4301519 C73.2097345,35.523832 73.0120033,35.523832 72.852482,35.4301519 C72.6929608,35.3364719 72.5966397,35.1637876 72.6007454,34.9788386 C72.6069016,34.7015167 72.8334787,34.4799136 73.1108689,34.4799136 C73.3882591,34.4799136 73.6148362,34.7015167 73.6209924,34.9788386 L73.6209924,34.9788386 Z M75.0620065,31.2575385 C75.0647236,31.4201409 74.9795319,31.571568 74.8391494,31.6536637 C74.698767,31.7357594 74.5250206,31.7357594 74.3846382,31.6536637 C74.2442558,31.571568 74.159064,31.4201409 74.1617811,31.2575385 C74.1658862,31.0118801 74.3662012,30.8148844 74.6118938,30.8148844 C74.8575865,30.8148844 75.0579015,31.0118801 75.0620065,31.2575385 L75.0620065,31.2575385 Z M73.6504009,26.4273889 C73.6504009,26.676014 73.4488504,26.8775645 73.2002254,26.8775645 C72.9516003,26.8775645 72.7500498,26.676014 72.7500498,26.4273889 C72.7500498,26.1787639 72.9516003,25.9772134 73.2002254,25.9772134 C73.4488504,25.9772134 73.6504009,26.1787639 73.6504009,26.4273889 L73.6504009,26.4273889 Z" id="Shape" stroke="#68300E" stroke-width="0.1" fill="#9D4916"></path>
                    <path d="M58.0796316,33.8819285 L58.0796316,31.9781712 L57.8860888,31.8169274 L57.8860888,31.3652438 L58.2410011,31.3329447 L58.3054735,29.2033456 L58.0796316,29.0741495 L58.0473326,28.7193629 C58.0473326,28.7193629 58.3054735,28.8161343 58.3054735,28.751662 C58.3054735,28.6871896 58.3699458,28.332026 58.3699458,28.332026 C58.3699458,28.332026 58.2088277,28.2998527 58.2088277,28.2352546 C58.2088277,28.1706566 58.4022449,28.0095385 58.4022449,28.0095385 C58.4022449,28.0095385 58.3054735,27.9125157 58.2733001,27.8480433 C58.2411268,27.783571 58.1765287,27.4932568 58.1765287,27.4932568 L58.2733001,27.1382189 L58.2088277,26.9446761 L58.0473326,26.6542362 L58.2733001,26.4283944 C58.2733001,26.4283944 58.2088277,26.1380802 58.2088277,26.0734821 C58.2088277,26.0088841 58.3699458,25.7508689 58.4022449,25.7184442 C58.4346696,25.6862709 58.6928104,25.3313586 58.6928104,25.3313586 L59.2412654,25.2022882 L59.8866176,25.2990596 L60.2415298,25.5250271 L60.3060022,26.1056555 C60.3060022,26.1056555 60.2415298,26.4605677 60.2092308,26.4605677 C60.1769317,26.4605677 59.9189166,26.5897638 59.9189166,26.5897638 C59.9189166,26.5897638 59.596052,26.6219372 59.5638787,26.5897638 C59.5317053,26.5575905 59.6606501,26.9769751 59.6606501,26.9769751 L59.6606501,27.3640607 L59.6284767,27.8480433 C59.6284767,27.8480433 59.6284767,28.0740108 59.596052,28.1061842 C59.5638787,28.1384832 59.4992806,28.2353803 59.4992806,28.2353803 L59.4671073,28.7193629 L59.9833889,28.8483077 L59.9510899,29.1388732 L59.596052,29.1711723 L59.6607757,31.1392763 L60.1770574,31.2360477 L60.1770574,31.7847541 L59.9510899,31.9136988 L59.8866176,33.8818028 L58.0796316,33.8818028 L58.0796316,33.8819285 Z M65.9215081,33.9153586 L65.9215081,32.0116013 L65.7279653,31.8504832 L65.7279653,31.3986739 L66.0828776,31.3665005 L66.1473499,29.2369014 L65.9215081,29.1077053 L65.8892091,28.7529187 C65.8892091,28.7529187 66.1473499,28.8496901 66.1473499,28.7850921 C66.1473499,28.720494 66.2118223,28.3655818 66.2118223,28.3655818 C66.2118223,28.3655818 66.0507042,28.3332828 66.0507042,28.2688104 C66.0507042,28.204338 66.2441213,28.0429686 66.2441213,28.0429686 C66.2441213,28.0429686 66.1473499,27.9460715 66.1151766,27.8815991 C66.0830033,27.8171268 66.0184052,27.5268126 66.0184052,27.5268126 L66.1151766,27.171649 L66.0507042,26.9781062 L65.8892091,26.687792 L66.1151766,26.4618245 C66.1151766,26.4618245 66.0507042,26.1715103 66.0507042,26.1070379 C66.0507042,26.0425655 66.2118223,25.7844247 66.2441213,25.752 C66.276546,25.719701 66.5346869,25.3649144 66.5346869,25.3649144 L67.0831419,25.2357183 L67.728494,25.3326154 L68.0834063,25.5585829 L68.1478787,26.1392113 C68.1478787,26.1392113 68.0834063,26.4941235 68.0511073,26.4941235 C68.0188082,26.4941235 67.7607931,26.6231939 67.7607931,26.6231939 C67.7607931,26.6231939 67.4379285,26.655493 67.4057551,26.6231939 C67.3735818,26.5908949 67.5026522,27.0105309 67.5026522,27.0105309 L67.5026522,27.3976165 L67.4704789,27.8814735 C67.4704789,27.8814735 67.4704789,28.107441 67.4379285,28.13974 C67.4057551,28.1719133 67.3411571,28.2688104 67.3411571,28.2688104 L67.3089837,28.7529187 L67.8252654,28.8818635 L67.7929664,29.172429 L67.4379285,29.2046024 L67.5026522,31.1728321 L68.0189339,31.2696035 L68.0189339,31.8181842 L67.7929664,31.9471289 L67.728494,33.9153586 L65.9215081,33.9153586 L65.9215081,33.9153586 Z M61.9523727,33.9803337 L61.9523727,32.0765764 L61.7588299,31.9153326 L61.7588299,31.463649 L62.1138678,31.4313499 L62.1783402,29.3017508 L61.9523727,29.1725547 L61.9201993,28.8177681 C61.9201993,28.8177681 62.1783402,28.9145395 62.1783402,28.8499415 C62.1783402,28.7853434 62.2428126,28.4304312 62.2428126,28.4304312 C62.2428126,28.4304312 62.0815688,28.3982579 62.0815688,28.3336598 C62.0815688,28.2690618 62.2751116,28.107818 62.2751116,28.107818 C62.2751116,28.107818 62.1783402,28.0110466 62.1460412,27.9464485 C62.1137421,27.8818505 62.0492698,27.591662 62.0492698,27.591662 L62.1460412,27.2366241 L62.0815688,27.0430813 L61.9201993,26.7526414 L62.1460412,26.5266739 C62.1460412,26.5266739 62.0815688,26.2363597 62.0815688,26.1718873 C62.0815688,26.107415 62.2428126,25.8492741 62.2751116,25.8168494 C62.3074106,25.7846761 62.5655515,25.4297638 62.5655515,25.4297638 L63.1140065,25.3005677 L63.7594843,25.3975905 L64.1142709,25.6234323 L64.1787432,26.2040607 C64.1787432,26.2040607 64.1142709,26.5589729 64.0819718,26.5589729 C64.0496728,26.5589729 63.7916576,26.688169 63.7916576,26.688169 C63.7916576,26.688169 63.4689187,26.7203424 63.4366197,26.688169 C63.4043207,26.6559957 63.5335168,27.0753803 63.5335168,27.0753803 L63.5335168,27.4624659 L63.5013434,27.9464485 C63.5013434,27.9464485 63.5013434,28.172416 63.4689187,28.2045894 C63.4366197,28.2368884 63.3721473,28.3337855 63.3721473,28.3337855 L63.339974,28.8176425 L63.85613,28.9467129 L63.8239567,29.2372784 L63.4689187,29.2694518 L63.5335168,31.2376815 L64.0497985,31.3344529 L64.0497985,31.8831593 L63.8239567,32.012104 L63.7594843,33.980208 L61.9523727,33.980208 L61.9523727,33.9803337 Z" id="Shape" stroke="#A9A9A9" stroke-width="0.1" fill="#FFFFFF"></path>
                    <path d="M58.5569534,33.8693608 L58.5569534,32.3690271 L59.3972308,32.3690271 L59.3972308,33.9294345 L58.5569534,33.8693608 L58.5569534,33.8693608 Z M62.5176685,33.9886284 L62.5475796,32.4581322 L63.2978722,32.4581322 L63.2978722,33.9584659 L62.5176685,33.9886284 L62.5176685,33.9886284 Z M66.4196923,33.9593456 L66.3596186,32.5190856 L67.1699848,32.4889231 L67.1699848,33.9895081 L66.4196923,33.9593456 L66.4196923,33.9593456 Z M58.7662059,29.4271766 L59.2462925,29.4271766 L59.2462925,30.2073803 L58.7662059,30.2073803 L58.7662059,29.4271766 Z M62.5782449,29.4585959 L63.2385525,29.4585959 L63.2385525,30.2088884 L62.5783705,30.2088884 L62.5782449,29.4585959 Z M66.4783835,29.5171614 L67.0485807,29.5171614 L67.0485807,30.2372914 L66.4783835,30.2372914 L66.4783835,29.5171614 Z" id="Shape" fill="#000000"></path>
                    <path d="M59.0152979,26.0107692 C59.5315796,26.5913976 59.5638787,26.5913976 59.5638787,26.5913976 M62.8547346,26.0107692 C62.9513803,26.2041863 63.1127497,26.6236966 63.3064182,26.65587 M66.9849881,26.1069122 C66.9849881,26.1069122 67.1463575,26.5587216 67.3721993,26.6231939" id="Shape" stroke="#A8A8A8" stroke-width="0.1"></path>
                    <path d="M58.4668429,24.38413 C59.9764767,23.8961257 58.1141928,22.9202427 57.8049014,24.38413 C57.31652,24.4630553 57.2533044,24.8253824 56.1976165,24.6680347 C53.6447367,28.8281993 55.535675,35.5413694 63.0054215,42.4910639 C49.6262102,31.1054691 55.0633803,22.683844 58.7683424,23.0014301 C60.7834496,23.1391723 59.7668472,25.6527151 58.4668429,24.38413 L58.4668429,24.38413 Z" id="Shape" fill="#B97700"></path>
                    <path d="M58.88761,22.2510119 C58.88761,22.2510119 60.1168581,22.5819198 60.1168581,23.1018462 M60.116481,22.1567541 C60.116481,22.1567541 60.967441,22.5347909 61.1564594,22.8658245 M66.8300282,22.2991463 C66.8300282,22.2991463 65.7425439,22.4410358 65.5061452,22.7716923 M65.1741062,22.3932784 C65.1741062,22.3932784 64.5597963,22.9133304 64.6067996,23.0549686 M65.0339762,24.6625049 C64.9393413,24.6152503 64.5139242,24.0479437 64.6083077,23.3387476 M60.8721777,24.2858505 C60.8721777,24.2858505 61.155831,23.9548169 61.155831,23.34013 M62.8588819,23.1029772 L62.9315752,24.4739892 M64.0876273,24.2858505 C64.0876273,24.1910899 64.4659155,23.2930011 64.0403727,22.8674583 M61.5014049,22.6780628 C61.5014049,22.6780628 61.1450887,23.5762774 61.3999096,24.3326024 M63.8992373,23.4818938 C63.8992373,23.4818938 63.3793109,23.6236576 63.1426609,23.860182 M61.6761343,23.6221495 C61.6761343,23.5750206 62.243441,23.4803857 62.4324594,23.8114193" id="Shape" stroke="#7D6C00" stroke-width="0.1"></path>
                    <path d="M60.7823185,37.9369014 C60.8061972,37.9489664 61.2529794,37.852195 61.2529794,37.6348992 C61.4824659,37.4901192 61.3133044,37.079532 61.3133044,37.079532 L60.8909036,36.9949512 L60.3111549,36.3430639 C60.2831289,36.1419805 60.351623,35.9529621 60.2268256,35.7395623 C59.828429,35.8442514 59.5990683,36.1781755 59.4661018,36.5603597 C59.5628732,36.6812611 59.5749382,36.8139762 59.756039,36.9225612 C59.9450574,36.9548602 60.0737508,36.8421278 60.2509556,36.8744269 C60.343454,37.0352936 60.3150509,37.1722817 60.3473499,37.3212091 C60.5890271,37.4901192 60.6372871,37.7316706 60.7821928,37.9367757 L60.7823185,37.9369014 Z M60.2630206,35.148377 L60.2630206,34.375714 L59.7076533,34.3514583 C59.6391593,34.468338 59.5103402,34.5246414 59.4299068,34.6292048 L59.0435753,34.8224962 C59.2045677,35.015662 59.4017551,35.1243727 59.5265525,35.2208927 C59.8083207,35.3054735 60.0418288,35.3054735 60.2630206,35.148377 L60.2630206,35.148377 Z M58.5233976,36.295558 L58.2215211,35.788325 C58.4066436,35.728 58.640026,35.75213 58.8130834,35.8246457 C58.8130834,35.8246457 58.9460498,36.1385872 58.8494041,36.2592373 C58.8010184,36.3678223 58.5113326,36.3195623 58.5233976,36.2956836 L58.5233976,36.295558 Z M63.1121213,36.8147302 C63.2731138,36.7342969 63.4220412,36.5935385 63.4501928,36.3923294 L62.8948256,35.7523814 L62.387844,35.740442 C62.2712156,35.6196663 62.0819458,35.5955363 61.9291224,35.5955363 C61.9291224,35.5955363 62.0862189,35.8368364 62.2913239,35.8853478 C62.4362297,36.2109772 63.063987,36.8147302 63.1121213,36.8147302 L63.1121213,36.8147302 Z M63.6565547,36.8859892 C63.6565547,36.8740498 64.1513456,36.7048884 64.4169014,36.7291441 C64.3930228,36.5237876 64.7912936,36.0530011 64.7912936,36.0530011 L65.4915666,36.9704442 C65.3627476,37.0791549 65.1372828,37.0429599 64.9602037,37.0791549 C64.9602037,37.0791549 64.6221322,37.4051614 64.5859372,37.4172264 C64.5497421,37.4292914 63.9340498,37.5740715 63.6320477,37.3932221 C63.4994583,37.1396056 63.668494,36.8496685 63.656429,36.8859892 L63.6565547,36.8859892 Z M64.0541972,35.280338 C64.1387779,34.9866306 64.1627822,34.6926717 64.0541972,34.3264485 C64.0541972,34.3264485 63.2572784,34.3143835 63.2572784,34.3264485 C63.2572784,34.3385135 62.7261668,34.5678743 62.7261668,34.580065 C62.7261668,34.5922557 62.8953283,35.0991116 63.1004334,35.0508516 C63.1929317,35.3205547 63.4665309,35.251935 63.5953499,35.3527281 C63.748299,35.328598 63.9011224,35.3043424 64.0541972,35.280338 L64.0541972,35.280338 Z M67.1817985,34.472234 C67.0730878,34.8064095 67.0127627,35.1645894 67.1696078,35.4864485 C67.3145135,35.5105785 67.4835493,35.6070986 67.61639,35.5829686 L68.256338,34.4238483 C67.8135775,34.2830899 67.4553976,34.2991766 67.1817985,34.472234 L67.1817985,34.472234 Z" id="Shape" fill="#C76E2E"></path>
                    <path d="M67.3784832,24.2795666 C65.8689751,23.7914366 67.7312589,22.815428 68.0404247,24.2795666 C68.5288061,24.3583662 68.5921473,24.7206934 69.6478353,24.5633456 C72.2007151,28.7235103 70.3096511,35.4366804 62.8399047,42.3863749 C76.2191159,31.0007801 70.7819458,22.5791549 67.0771094,22.8967411 C65.0620022,23.0344832 66.0784789,25.548026 67.3784832,24.279441 L67.3784832,24.2795666 Z" id="Shape" fill="#B97700"></path>
                    <path d="M67.5313066,35.7765114 C67.5073023,35.7765114 67.1451008,36.0419415 67.1451008,36.0419415 C66.9719177,36.1103099 66.7991116,36.1788039 66.6260542,36.2472979 L66.0705612,36.2592373 L65.9497855,35.8729057 L66.3724377,35.4986392 C66.0142579,35.4463575 65.656078,35.5872416 65.3702882,35.8489014 C65.3702882,35.8489014 65.3702882,36.2713023 65.6118397,36.4766587 C65.7567454,36.6576338 66.1791463,36.983766 66.1791463,36.983766 C66.4448277,37.0360477 66.6983185,36.9916836 66.8673543,36.8507996 C67.088546,36.4926197 67.3101148,36.1345655 67.5313066,35.7763857 L67.5313066,35.7765114 Z M64.6089361,39.5675623 C64.7902882,39.615948 66.0337378,37.9619112 66.0337378,37.9619112 C65.9250271,37.652117 65.6834756,37.4266522 65.4179198,37.2857681 C65.4179198,37.2857681 64.8140412,37.9979805 64.8021018,38.239532 C64.7057075,38.4568277 64.4280867,39.2898158 64.5486111,39.3986522 C64.536546,39.4227822 64.488286,39.7606024 64.6089361,39.5675623 L64.6089361,39.5675623 Z" id="Shape" fill="#C76E2E"></path>
                    <path d="M56.476117,39.8899242 C54.6139588,38.2703229 52.1014215,37.3775125 48.5941495,38.5891658 C49.5379848,38.9973651 50.5582319,39.1376208 51.4255298,39.5839003 L56.476117,39.8899242 L56.476117,39.8899242 Z" id="Shape" stroke="#004100" stroke-width="0.1" fill="#006800"></path>
                    <path d="M51.0813001,38.7407324 C54.7544659,38.8171441 55.8258635,39.7352156 55.6345829,39.5822665" id="Shape" stroke="#00A400" stroke-width="0.1"></path>
                    <path d="M56.5513976,40.0804507 C55.4544875,40.2971181 53.9368104,41.3565764 53.4904052,41.3046717 C52.2914453,41.1651701 51.1711593,40.679428 50.0086457,40.3099372 C49.5257941,40.1564854 49.0392979,40.3099372 48.5545612,40.3099372 C52.6742579,38.3586739 54.0771918,38.6263662 56.5513976,40.0804507 L56.5513976,40.0804507 Z" id="Shape" stroke="#004100" stroke-width="0.1" fill="#006800"></path>
                    <path d="M53.8362687,37.2104875 C53.8362687,37.2104875 52.4589729,37.4015168 51.8467996,37.4398483 C51.2343749,37.4017681 50.3443294,36.8313196 49.359649,35.7947346 C48.8458808,35.231701 47.6762037,35.2973044 47.6762037,35.2973044 C50.2654041,34.7487237 52.28026,35.2716663 53.8362687,37.2103619 L53.8362687,37.2104875 Z M51.9605374,34.5329361 C50.0854345,34.4180672 47.75161,32.7347476 47.2160997,30.7451528 C47.2158483,30.7705395 47.9046847,31.1787389 47.7899415,31.2809144 C50.8636273,32.0588559 51.067727,32.683597 51.9605374,34.5329361 L51.9605374,34.5329361 Z M55.0985699,37.7463749 C55.3662622,36.0499848 55.4429252,34.9278137 54.6394713,33.92026 C53.976273,33.1548862 53.8105049,32.6957876 53.3387129,31.62439 C53.1984572,33.856416 52.7135948,35.7056295 55.0985699,37.7463749 L55.0985699,37.7463749 Z M52.1510639,33.0403944 C53.5410531,31.012468 53.78361,29.4819718 53.5666912,27.0714843 C53.5283597,27.2627649 53.0692611,28.4489057 53.0311809,28.4489057 C50.9650488,29.7496641 51.8833716,31.7778418 52.1510639,33.0403944 L52.1510639,33.0403944 Z" id="Shape" stroke="#004100" stroke-width="0.1" fill="#006800"></path>
                    <path d="M50.9286024,23.2452438 C52.3185915,25.2731701 52.1019242,27.1864789 51.8850054,29.5969664 C51.8466739,29.4055601 51.3875753,28.219545 51.3496208,28.219545 C49.2833629,26.9186609 50.6609101,24.5077963 50.9286024,23.2452438 L50.9286024,23.2452438 Z" id="Shape" stroke="#004100" stroke-width="0.1" fill="#006800"></path>
                    <path d="M52.0757833,26.383402 C55.4426739,24.6870119 54.1416641,22.531649 54.7539632,20.8737161 C52.4201387,22.608312 52.1139892,24.4573998 52.0757833,26.383402 L52.0757833,26.383402 Z" id="Shape" stroke="#004100" stroke-width="0.1" fill="#006800"></path>
                    <path d="M52.5341278,25.9625092 C52.9551463,24.776494 53.7969317,22.7485677 53.8733434,22.7485677 M51.5397703,28.4495341 C51.4633586,27.6074973 51.0425915,25.3500845 51.0043857,25.120598" id="Shape" stroke="#00A400" stroke-width="0.1"></path>
                    <path d="M51.6925937,32.2364377 C49.8174908,32.1215688 47.7896901,29.5582579 47.2541798,27.5686631 C47.2540542,27.5939242 47.9427649,28.0022492 47.8280217,28.104299 C50.5190206,29.3030076 50.7997833,30.3872243 51.6925937,32.2365634 L51.6925937,32.2364377 Z M51.135844,30.4759523 C49.7458548,28.448026 49.5032979,26.9175298 49.7202167,24.5070423 C49.7585482,24.6983229 50.2176468,25.8844637 50.255727,25.8844637 C52.3218592,27.1852221 51.4035363,29.2133998 51.135844,30.4759523 L51.135844,30.4759523 Z M52.3814301,26.9192893 C55.8630639,25.375974 54.7916663,23.7563727 55.8248581,22.0599827 C53.4909079,23.7945785 52.419636,24.9932871 52.3813044,26.9192893 L52.3814301,26.9192893 Z" id="Shape" stroke="#004100" stroke-width="0.1" fill="#006800"></path>
                    <path d="M52.5341278,26.5738028 C53.9500065,25.1580498 54.4473109,23.971909 54.4473109,23.971909" id="Shape" stroke="#00A400" stroke-width="0.1"></path>
                    <g transform="translate(51.151679, 26.140845)" id="Shape">
                        <path d="M13.7691874,19.9016035 L15.464572,19.9361647 C9.83586999,14.6650141 -0.948736728,12.3697725 0.550842904,2.66938245 C-0.994734561,13.1886847 9.36294691,14.1575298 13.7691874,19.9016035 L13.7691874,19.9016035 Z" stroke="#E9BF00" stroke-width="2.3686254" fill="#FFE100"></path>
                        <path d="M1.4348559,0.585781148 C1.4348559,0.88410347 1.19301788,1.1259415 0.894695558,1.1259415 C0.596373236,1.1259415 0.354535211,0.88410347 0.354535211,0.585781148 C0.354535211,0.287458826 0.596373236,0.0456208017 0.894695558,0.0456208017 C1.19301788,0.0456208017 1.4348559,0.287458826 1.4348559,0.585781148 L1.4348559,0.585781148 Z M1.10407367,3.55628602 C1.10817934,3.74123501 1.0118583,3.91391935 0.852337028,4.00759938 C0.692815759,4.10127942 0.495084566,4.10127942 0.335563297,4.00759938 C0.176042029,3.91391935 0.0797209809,3.74123501 0.0838266522,3.55628602 C0.0899829037,3.27896414 0.31655996,3.05736104 0.593950163,3.05736104 C0.871340365,3.05736104 1.09791742,3.27896414 1.10407367,3.55628602 L1.10407367,3.55628602 Z M1.58353196,7.78921777 C1.58353196,8.03784284 1.38198152,8.23939328 1.13335645,8.23939328 C0.884731375,8.23939328 0.683180932,8.03784284 0.683180932,7.78921777 C0.683180961,7.54059272 0.884731396,7.33904231 1.13335645,7.33904231 C1.3819815,7.33904231 1.58353193,7.54059272 1.58353196,7.78921777 L1.58353196,7.78921777 Z M5.51421018,12.4700628 C5.51692731,12.6326652 5.43173554,12.7840924 5.29135313,12.8661881 C5.15097073,12.9482838 4.97722429,12.9482838 4.83684188,12.8661881 C4.69645948,12.7840924 4.61126771,12.6326652 4.61398483,12.4700628 C4.61808984,12.2244045 4.81840484,12.0274088 5.06409751,12.0274088 C5.30979017,12.0274088 5.51010517,12.2244045 5.51421018,12.4700628 L5.51421018,12.4700628 Z M6.08428169,13.8127974 C6.08699882,13.9753998 6.00180704,14.126827 5.86142464,14.2089226 C5.72104223,14.2910183 5.5472958,14.2910183 5.40691339,14.2089226 C5.26653099,14.126827 5.18133921,13.9753998 5.18405634,13.8127974 C5.18816135,13.567139 5.38847635,13.3701434 5.63416901,13.3701434 C5.87986168,13.3701434 6.08017668,13.567139 6.08428169,13.8127974 L6.08428169,13.8127974 Z" stroke="#68300E" stroke-width="1.1110219" fill="#9D4916"></path>
                    </g>
                    <g transform="translate(45.119177, 40.970748)" id="Shape" fill="#FFFFFF">
                        <g stroke="#000000" stroke-width="0.1">
                            <path d="M14.1013521,2.89459588 C13.8053824,2.62640087 13.6171181,2.45434886 13.5009924,2.16214951 L11.7359827,1.97011484 C11.728065,2.30630119 11.7201473,2.64236186 11.7119783,2.97854821 L14.1013521,2.89459588 L14.1013521,2.89459588 Z"></path>
                            <path d="M1.1704312,1.70543879 C2.19557963,1.89483424 3.74128277,1.61092958 4.24600217,2.2732481 C4.85201733,2.96007367 2.3491571,4.01664139 2.7075883,4.6108429 C3.48175948,5.42988082 4.27855255,5.09218635 5.14497075,4.63924594 C5.34907042,4.19648537 5.50666956,3.40710726 5.61827086,3.17234236 C5.30282124,2.44680823 4.45538028,2.09139328 4.67192199,0.995614301 C6.10087107,0.461612134 8.84817335,0.505850488 9.14389166,0.71183532 C9.37614301,1.1671636 9.16739328,1.37453088 9.21477356,1.73736078 C8.97812351,2.19482557 8.36921777,2.97025352 8.367961,3.38046371 C9.86728927,3.90868472 10.2624182,3.29902492 11.6111853,3.3348429 C13.1915753,3.35432286 14.1530054,3.77860888 14.496104,3.15047454 C14.2610878,2.60817768 12.8116533,3.04930444 12.2615645,2.70092741 C11.9863315,2.60792633 11.8086241,2.38673456 11.5708429,2.14292091 C11.3330618,1.89910726 10.6647107,1.88653954 10.564546,1.28617985 C10.8441777,0.0025135428 12.6966587,0.198695558 12.9995406,0.00213651138 L17.8261712,0.333295775 C18.700507,0.308663055 19.1950466,1.88201517 18.0143099,2.35544095 C16.8336988,2.82886674 13.3416338,1.6531571 11.8268472,2.46126111 C11.7485504,2.13173564 10.6601863,1.63330011 10.5817638,1.61759047 C10.1180152,1.75646371 9.21439653,1.70556446 9.21439653,1.70556446 C8.99345612,2.11564897 8.74134778,2.41589166 8.52053304,2.82597616 C7.51825785,2.38648321 6.5707779,3.1671896 5.47613001,2.93581798 C5.47613001,2.93581798 3.81995666,3.12508776 3.77270206,3.12508776 C3.72544745,3.12508776 2.68458938,3.03045287 2.68458938,3.03045287 C2.13248971,3.188052 1.58051571,3.34590249 1.02841603,3.5036273 L2.21128927,2.46251788 L1.1704312,1.70556446 L1.1704312,1.70543879 Z"></path>
                            <path d="M1.09741278,1.50234453 C1.09741278,1.75430126 0.893161498,1.95855255 0.641204767,1.95855255 C0.389248036,1.95855255 0.18499675,1.75430126 0.18499675,1.50234453 C0.18499675,1.2503878 0.389248036,1.04613651 0.641204767,1.04613651 C0.893161498,1.04613651 1.09741278,1.2503878 1.09741278,1.50234453 L1.09741278,1.50234453 Z M0.977768147,3.75912893 C0.977768147,4.01108566 0.773516861,4.21533694 0.52156013,4.21533694 C0.269603399,4.21533694 0.0653521127,4.01108566 0.0653521127,3.75912893 C0.0653521127,3.5071722 0.269603399,3.30292091 0.52156013,3.30292091 C0.773516861,3.30292091 0.977768147,3.5071722 0.977768147,3.75912893 L0.977768147,3.75912893 Z"></path>
                        </g>
                        <g transform="translate(16.715060, 0.000000)" stroke="#000000" stroke-width="0.1">
                            <path d="M4.68185049,2.9027649 C4.97782015,2.63456988 5.16595883,2.46251788 5.28221018,2.17031853 L7.04709426,1.97828386 L7.07122427,2.98671723 L4.68185049,2.9027649 L4.68185049,2.9027649 Z"></path>
                            <path d="M17.6127714,1.71373348 C16.587623,1.90300325 15.0417941,1.61909859 14.5370748,2.28141712 C13.9310596,2.96824269 16.4339198,4.0248104 16.0756143,4.61901192 C15.3014431,5.43804984 14.5046501,5.10035536 13.6382319,4.64741495 C13.4341322,4.20465439 13.276533,3.41527627 13.1649317,3.18063705 C13.4803814,2.45497725 14.3278223,2.0995623 14.1112806,1.00390899 C12.6822059,0.469781148 9.93502925,0.514019502 9.63918527,0.719878657 C9.40705959,1.17533261 9.61568364,1.38269989 9.56842904,1.74552979 C9.80495341,2.20299458 10.4139848,2.97842254 10.4152416,3.38863272 C8.91591333,3.91685374 8.52065872,3.30719393 7.17189166,3.34301192 C5.5916273,3.36249187 4.63007151,3.7867779 4.28697291,3.15864355 C4.52198917,2.6163467 5.9715493,3.05747346 6.52163814,2.70909642 C6.79687107,2.61609534 6.97445287,2.39490358 7.2123597,2.15108992 C7.45026652,1.90727627 8.11849187,1.89470856 8.21865655,1.29447454 C7.93889924,0.0106825569 6.0864182,0.206864572 5.78353629,0.0103055255 L0.957031419,0.341464789 C0.0825698808,0.316832069 -0.411843987,1.89018418 0.768767064,2.36373564 C1.94950379,2.83703575 5.44144312,1.66145179 6.95622969,2.46943012 C7.03452654,2.13990466 8.12289057,1.64146912 8.20143879,1.62575948 C8.66518743,1.76463272 9.56880607,1.71373348 9.56880607,1.71373348 C9.78974648,2.12381798 10.0417291,2.42406067 10.2625439,2.83414518 C11.2649447,2.39465222 12.2124247,3.17535861 13.3070726,2.943987 C13.3070726,2.943987 14.9631203,3.13325677 15.0105005,3.13325677 C15.0578808,3.13325677 16.0986132,3.03862189 16.0986132,3.03862189 L17.7546609,3.51179632 C17.3605374,3.16467606 16.9661625,2.81780715 16.5719133,2.47068689 L17.6127714,1.71373348 L17.6127714,1.71373348 Z"></path>
                            <path d="M17.6856641,1.51063922 C17.6856641,1.76263066 17.8899436,1.96691008 18.141935,1.96691008 C18.3939264,1.96691008 18.5982059,1.76263066 18.5982059,1.51063922 C18.5982059,1.25868249 18.3939546,1.0544312 18.1419978,1.0544312 C17.8900411,1.0544312 17.6857898,1.25868249 17.6857898,1.51063922 L17.6856641,1.51063922 Z M17.8053088,3.76729794 C17.8053088,4.01925467 18.0095601,4.22350596 18.2615168,4.22350596 C18.5134735,4.22350596 18.7177248,4.01925467 18.7177248,3.76729794 C18.7177248,3.51534121 18.5134735,3.31108992 18.2615168,3.31108992 C18.0095601,3.31108992 17.8053088,3.51534121 17.8053088,3.76729794 L17.8053088,3.76729794 Z"></path>
                        </g>
                        <path d="M17.7187172,0.420138678 C17.3126544,0.343978332 17.1682514,0.365720477 16.8930184,0.338448537 C16.6774821,1.00089274 16.4623229,1.66321127 16.2469122,2.32565547 C17.2445374,2.4156403 18.1685157,2.4156403 18.1685157,2.40747129 C17.5632546,2.2848104 17.7105482,0.428307692 17.7187172,0.420138678 L17.7187172,0.420138678 Z"></path>
                    </g>
                    <g id="text" transform="translate(57.000000, 41.000000)" font-size="0.705882353" font-family="TrebuchetMS-Bold, Trebuchet MS" fill="#000000" font-weight="bold">
                        <text id="L">
                            <tspan x="0.139519102" y="1.16448669">L</tspan>
                        </text>
                        <text id="I">
                            <tspan x="1.62756" y="1.31018762">I</tspan>
                        </text>
                        <text id="B">
                            <tspan x="2.52540872" y="1.4918951">B</tspan>
                        </text>
                        <text id="E">
                            <tspan x="4.26968228" y="1.67360257">E</tspan>
                        </text>
                        <text id="R">
                            <tspan x="5.96282753" y="1.70960913">R</tspan>
                        </text>
                        <text id="T">
                            <tspan x="7.63055639" y="1.63717734">T</tspan>
                        </text>
                        <text id="A">
                            <tspan x="9.19543754" y="1.27376239">A</tspan>
                        </text>
                        <text id="S">
                            <tspan x="11.0425588" y="1.16448669">S</tspan>
                        </text>
                    </g>
                    <path d="M52.0757833,40.0428152 C53.3384615,40.2782952 55.0985699,40.1015886 55.8636923,40.0426219 M50.1623489,35.7178202 C51.2337465,36.5596056 53.5676966,37.0567844 53.5293651,37.0567844 M54.8683294,37.2879047 C54.523974,35.527922 54.1415385,35.1070293 53.8353889,33.9973001 M48.3641603,32.0061972 C50.1626002,32.8096511 50.4302925,33.3451614 51.5781018,34.1486154 M52.2286067,32.3892611 C52.3818072,30.2081343 52.687831,29.6341668 53.2235926,29.1367367 M48.3641603,28.8703012 C49.0147909,29.5973434 51.1573348,31.8546306 51.1573348,31.8546306 M50.2774691,26.8794496 C51.0811744,27.4532914 51.0811744,29.5192979 51.0811744,29.5192979" id="Shape" stroke="#00A400" stroke-width="0.220000029"></path>
                </g>
            </g>
        </g>
    </g>
</svg>