<?xml version="1.0" encoding="UTF-8" standalone="no"?>
<svg width="122px" height="60px" viewBox="0 0 122 60" version="1.1" xmlns="http://www.w3.org/2000/svg" xmlns:xlink="http://www.w3.org/1999/xlink">
    <!-- Generator: Sketch 3.8.2 (29753) - http://www.bohemiancoding.com/sketch -->
    <title>gb-wls</title>
    <desc>Created with Sketch.</desc>
    <defs></defs>
    <g id="Page-1" stroke="none" stroke-width="1" fill="none" fill-rule="evenodd">
        <g id="gb-wls">
            <g id="Group">
                <g>
                    <polygon id="Shape" fill="#00AB39" points="0 30 122 30 122 60 0 60"></polygon>
                    <polygon id="Shape" fill="#FFFFFF" points="0 0 122 0 122 30 0 30"></polygon>
                    <g transform="translate(28.875000, 8.750000)" id="Shape" stroke="#000000">
                        <path d="M44.4895,0.0965 C44.4885,0.098375 44.48775,0.100625 44.4865,0.1025 C44.48975,0.10075 44.492375,0.09825 44.495625,0.0965 L44.489375,0.0965 L44.4895,0.0965 Z M44.4865,0.1025 C39.451125,2.886875 34.944,5.784 30.513625,9.476 C28.387375,11.3335 28.987375,12.814 28.905125,14.482 C28.973625,15.60175 28.663125,16.6435 27.974375,17.27125 C26.3985,17.59 24.821125,17.910375 23.245625,18.229125 C23.094375,17.792875 22.944625,17.357625 22.79375,16.921625 C22.937875,16.252875 23.490875,15.924125 24.65525,16.3435 C24.747,15.4835 24.055,15.1335 23.245625,14.8345 C22.9675,14.618 22.622125,14.45175 22.66725,13.707875 C22.531,12.024375 25.232625,13.828375 25.257625,13.828375 C25.282875,13.828375 25.167625,12.129375 23.926375,11.78925 C23.249625,11.54975 22.96325,10.835875 23.221625,10.307375 C23.763125,9.226875 24.7825,10.391875 25.562,10.433625 C25.53275,9.728625 25.332,9.225875 24.7245,8.656625 C24.39775,8.455375 23.59475,8.304125 23.574,7.966875 C23.557125,7.508875 24.32675,7.313125 25.384375,7.43975 C25.163875,6.79775 24.452625,6.3825 23.47475,6.08125 L22.896375,5.075 C22.622625,4.56825 22.499625,4.5545 23.13425,3.59325 C23.70425,3.2245 24.46175,2.703 25.03175,2.33425 C24.822125,2.309 24.612,2.284 24.402375,2.258875 C24.486125,1.571375 24.49575,1.340125 24.655375,0.198625 C24.043625,1.034625 23.2795,0.885125 22.592125,1.228875 C22.592125,1.228875 20.632625,1.57675 20.00175,2.409625 C19.97675,2.409625 15.074,2.159625 15.074,2.159625 C14.029375,2.305125 13.136875,2.60125 12.96275,3.6175 C10.573125,3.85875 8.07075,3.645375 6.249,5.930875 C7.48925,5.872125 8.57525,5.57675 9.96875,5.756125 C9.96875,5.756125 11.15625,5.778625 11.4025,7.036125 C11.4275,7.086375 11.80625,7.087375 11.80625,7.087375 C11.957,7.204625 12.106875,7.322375 12.257875,7.439875 C12.316625,7.2805 12.374125,7.119875 12.432875,6.960875 L12.836375,7.237875 C12.878125,7.061875 12.921,6.886875 12.962875,6.710875 C13.097,6.803 13.229125,6.895875 13.3635,6.987875 C13.371875,6.778375 13.38225,6.567875 13.3905,6.358375 L13.91775,6.734875 L13.91775,5.906625 C13.91775,5.906625 15.864,5.902125 16.457,7.1385 C16.48225,7.1635 10.99525,8.146875 5.694875,7.692625 C6.206125,7.441125 6.71675,7.188125 7.228,6.936625 C5.2955,6.54375 3.4785,6.1885 1.77325,4.849125 C2.41675,7.272125 5.7425,10.117875 6.423875,10.105375 C6.423875,10.130375 5.770125,8.9245 5.770125,8.9245 C7.689875,9.00825 9.60975,9.09075 11.52925,9.1745 C11.738875,9.811625 11.646125,10.52575 12.15875,11.08725 C12.15875,11.08725 11.84075,12.14025 12.54725,12.569125 C12.5725,12.619375 13.390625,10.4335 13.390625,10.4335 C13.390625,10.4335 13.641375,11.021625 13.893875,11.4125 C14.259625,9.53225 16.306375,9.22575 16.306375,9.22575 C16.306375,9.22575 16.73425,10.206625 16.73425,10.232 C16.0945,10.3245 15.298875,11.62825 15.728,12.34325 C15.29925,12.351375 14.5375,13.614125 14.77325,14.304125 C14.412625,14.662875 13.5145,15.141375 13.743,16.6445 C13.036125,16.796 12.617625,18.0895 12.8365,19.46075 C11.7425,20.479 12.011125,22.34825 12.987125,23.10525 C12.582125,23.46575 12.3325,23.743 12.333375,24.1865 C11.948375,24.0435 11.593375,24.163125 11.42675,24.4155 C10.95475,23.93175 10.27675,23.50775 9.79425,23.96075 C9.66925,23.38825 8.92375,22.75825 8.107625,22.83125 C8.155375,22.2275 7.842,21.48 6.978,21.21975 C6.978,21.21975 6.803,18.390125 5.944875,17.47275 C5.86075,16.959375 5.994,16.61025 6.700875,16.189625 C7.40675,15.813 7.55675,15.520875 7.505125,14.454625 C7.783375,13.741625 7.99475,13.014875 7.128625,12.520875 C7.154875,13.368625 6.8945,13.776875 6.550375,14.153375 C6.139125,14.093375 5.995375,14.573375 5.718875,14.782875 C5.33175,14.261125 6.535375,13.452875 5.6435,12.292 C5.5935,12.241375 5.021,10.776375 3.60725,10.809875 C4.27925,11.203375 4.5635,11.865375 4.56225,12.544875 C4.1165,13.802125 3.890125,14.773875 4.336375,16.2165 C3.749125,15.3365 3.416,13.664 2.92975,13.373125 C2.5035,13.289875 2.29525,12.281875 0.6405,12.56875 C1.3545,12.76075 1.581125,13.305875 1.77325,13.80075 C1.3355,14.0265 1.553,14.622 1.872625,15.03275 C1.811875,15.998 2.390125,16.562 3.255125,16.92125 C3.112625,18.23725 2.969875,19.551 2.827375,20.867 C2.483875,20.82325 1.955125,22.161 1.746125,22.201375 C1.409875,22.410625 0.822625,22.9735 1.496125,23.132125 C1.296125,23.854375 1.1105,24.289625 0.03525,24.439625 C0.03525,24.439625 1.1715,25.113375 2.1135,23.960625 C3.123125,23.93525 2.791,22.7315 3.27925,22.2015 C3.27925,22.1765 3.55625,22.002375 3.959875,20.9425 C4.1365,21.889 5.107625,24.787125 7.303375,26.225625 C9.217125,28.274375 10.790125,30.209375 10.773375,32.939375 C11.52025,32.24475 11.96625,31.144375 12.309375,30.096125 C13.348125,29.734875 14.834,29.596875 16.158875,29.656375 C15.931625,30.1345 15.67725,30.593375 16.005125,30.903375 C15.080625,31.220875 14.878,31.892125 15.24925,32.563 C14.2745,33.224875 14.2105,33.65025 14.194875,34.74975 C12.39175,37.06175 11.279375,36.98475 9.493125,36.385375 C8.906625,36.041125 7.99875,35.545375 7.580625,35.807 C6.809125,35.292875 5.699875,35.216625 5.517375,36.385375 C6.096125,35.905375 6.441875,35.998125 6.902875,36.46075 C6.810125,36.6955 6.732625,36.9295 7.0775,37.06325 C6.926625,37.23075 6.77675,37.398625 6.62575,37.566125 C5.79575,37.438625 4.6795,37.44575 4.387875,38.647375 C4.814375,38.29425 5.760375,38.211375 6.523375,38.54825 C6.666125,38.5985 6.80875,38.64825 6.951375,38.69875 C6.968125,38.891625 6.985875,39.084375 7.002625,39.277125 C7.002625,39.277125 5.87175,39.102625 5.568875,40.936875 C6.628875,39.809 7.378875,40.105625 7.378875,40.105625 C7.787625,40.703625 9.291375,40.613625 10.373,39.629625 C11.89225,38.780375 12.335125,40.000875 13.31575,39.201875 C14.12875,38.595625 15.09075,38.99875 15.752375,39.705 C16.51525,39.99125 17.313625,40.226625 17.942125,39.705 C17.942125,39.705 18.709625,39.21525 19.475375,40.00625 C19.48375,39.11425 18.851625,38.6405 17.9935,38.62375 L17.7405,38.370625 C16.935875,38.202875 16.03175,38.270875 15.328,37.867625 C15.659625,36.608375 16.143,35.467375 17.087,34.49725 C18.252,33.24825 19.10975,32.680375 20.581,30.76825 C20.524125,31.848875 21.35225,33.050375 21.78875,34.147875 C21.78875,34.147875 22.6675,32.745 22.795,31.60575 C22.82,31.60575 23.895875,31.04575 24.355,30.5695 C25.32425,31.17075 26.904,30.08825 27.924375,29.19325 C28.553125,29.431125 29.030625,29.414 29.761625,29.19325 C29.174875,30.38725 30.101,31.495 31.571875,31.95825 C31.707875,33.012375 32.77275,33.23325 34.388125,33.24125 C34.45625,33.8615 35.418375,33.945875 35.418375,33.945875 C34.81025,34.22925 34.493375,34.513375 34.514625,35.15375 C33.8915,35.158 33.419625,35.31475 33.2555,36.03325 C32.4,36.047875 31.528,36.1135 30.79175,36.53625 C30.003625,36.414 29.045,36.0875 28.427125,35.455 C28.108375,35.186625 28.029,34.8 27.472375,34.650625 C27.119625,34.23375 26.697375,34.326875 26.56575,34.726 C26.201,34.44125 24.83325,34.308875 24.60475,35.605625 C25.24325,35.138125 25.81575,34.960125 26.21625,35.53025 C25.998,35.926 26.747875,36.1525 27.397,36.31025 C27.857375,36.339 28.67375,36.75825 28.930125,37.467 C28.336375,37.647 27.436375,37.58775 26.842625,37.138625 C26.315125,36.696875 25.602125,36.7495 25.210125,37.039125 C24.666625,36.692625 23.372,37.346875 23.32175,38.3945 C23.867,37.894875 24.363375,37.65325 24.85775,37.969875 C24.61175,38.02825 24.70525,38.052375 24.73125,38.19575 C25.150375,38.438875 25.56825,38.681625 25.9875,38.9245 C25.371,39.08725 24.791625,39.33325 25.059625,40.482 C25.059625,40.482 25.56175,39.4895 26.692125,39.855375 C26.717375,39.830375 26.848125,40.209875 27.171125,39.954875 C27.660375,39.398125 28.779125,39.148875 29.7615,39.051125 C30.55,38.957 31.337125,38.724875 32.023625,39.174875 C32.634875,38.86025 33.31525,38.648875 34.0115,39.150625 C34.833,39.410625 35.43275,40.368125 36.47525,39.930625 C36.994,39.571875 37.631,39.553625 38.285625,40.283125 C38.293625,39.363375 37.604375,39.055 36.626,38.849375 C36.39975,38.715125 36.17475,38.58 35.9485,38.445875 C35.31975,38.353375 34.6885,38.464875 34.05975,38.168625 C37.34975,37.318125 39.65625,35.483375 41.27975,32.864375 C41.7995,33.048875 42.31725,33.231125 42.837,33.415625 C43.20575,33.439375 43.23375,33.567375 43.993625,33.79525 C44.022375,32.67575 43.54175,31.52275 41.529875,31.4065 L38.888375,30.400625 C38.327625,29.809375 38.074125,28.554625 38.788875,27.81025 C39.4885,27.187375 39.6105,27.261875 40.072,26.503 C40.63325,26.45175 41.162,27.030125 41.6805,27.030125 C41.92675,27.761375 43.3455,28.407875 44.24675,28.18675 C44.811375,28.68675 45.886,28.964625 47.063,28.56325 C47.731,29.148 48.60125,29.392 49.62625,28.93975 C49.8985,29.21175 50.473,29.428125 51.135375,29.29225 C51.18575,29.29225 51.470125,30.018875 52.192625,30.274 C51.877625,30.58025 52.071375,31.90925 52.3945,32.38525 C52.174,32.8965 52.1045,33.4415 52.292,33.96975 C51.563625,34.438125 51.41525,34.786625 51.74075,35.57825 C50.78675,37.111375 49.645375,37.286625 48.57225,36.81325 C48.1865,36.57 47.801375,36.3245 47.415625,36.081125 C47.004875,35.678875 46.594375,35.278875 46.18375,34.8765 C45.9745,34.68025 45.541625,34.6185 45.451625,35.05125 C45.451625,35.05125 43.871,34.69875 43.74375,36.03325 C44.399,35.395125 45.328125,35.957 45.328125,35.982 C45.328125,36.00725 45.106875,36.15775 45.276875,36.41275 C45.31525,36.380875 46.431,36.829 47.424625,37.256125 C47.964375,37.460625 48.083,37.524625 48.319125,37.650625 C48.0224776,37.5156661 47.7242913,37.3841158 47.424625,37.256 C46.819625,37.026625 46.2305,36.8435 46.057125,36.8885 C45.494125,36.836 44.897125,36.766 44.623375,37.18975 C44.018375,37.445625 43.073125,37.650625 43.11425,38.774 C43.523,38.10525 44.0835,38.133375 44.798,38.195625 C44.78125,38.246 44.76675,38.295875 44.749875,38.34625 C45.525625,38.699625 45.378625,38.25 46.102125,38.18375 C46.707125,38.128125 47.564625,38.34475 48.01775,38.496875 C47.44775,38.664375 46.67275,38.594125 46.307,38.999875 C46.239875,39.13425 46.005125,39.079375 46.10825,39.400625 C46.10825,39.400625 44.9965,39.371875 44.6985,40.909625 C45.828875,40.185875 46.685375,40.207875 46.7105,40.207875 C46.7355,40.207875 47.063,40.283125 47.063,40.283125 C47.063,40.283125 48.4205,39.3765 48.4455,39.3765 C48.4705,39.3765 49.759875,38.805625 50.355,39.45175 C50.874375,39.707125 51.43,39.723375 51.9665,39.4005 C53.0235,38.940875 54.01275,38.908625 54.984625,39.55425 L55.863875,40.08125 C55.989625,39.9975 56.11475,39.91225 56.2405,39.828375 C56.2405,39.828375 57.236,39.547125 57.966375,40.43375 C57.6645,38.9 56.568875,38.8495 56.568875,38.8495 C56.484875,38.774 56.3995,38.699 56.31575,38.623625 C55.79575,38.422375 55.27825,38.21925 54.75825,38.018125 C54.5315,37.4565 53.9615,37.009375 54.5295,36.334375 C55.10975,33.449875 55.8035,31.283625 54.680125,28.361375 C55.727875,28.813875 56.511875,30.213625 57.824625,29.719875 C57.824625,28.546125 53.504625,26.318 50.204375,24.527125 C55.611,24.2505 62.108875,20.259375 59.611,15.18675 C60.005125,13.963 60.39775,12.738875 60.791875,11.515 C61.348125,12.6355 62.474,13.489375 63.484375,13.8525 C62.651625,12.2625 62.17375,7.40125 62.653125,4.04525 C60.474625,6.7365 58.068875,9.125 55.511625,11.55125 C56.7695,11.84525 57.8685,11.638375 59.084125,11.488 C58.740375,12.192125 58.406625,12.898375 58.062875,13.6025 C54.740125,11.65675 50.839125,13.117 50.809875,15.714 C50.923625,18.742375 54.668,19.17275 56.828,18.1175 C56.399875,20.87875 50.053875,19.8615 50.053875,19.8615 C47.799125,19.08425 45.657625,19.217375 43.288875,19.235 C43.781125,17.720875 46.513875,16.377 48.596125,16.97 C45.681125,13.701625 49.008125,9.64375 53.02075,8.394625 C48.647,6.952125 52.41325,3.618 55.6865,1.229 C55.6865,1.229 46.27325,5.1905 45.41525,5.17775 C42.73775,4.9765 43.46775,1.8075 44.48775,0.1025 L44.4865,0.1025 Z M14.9415,3.90675 C15.1605,3.908 15.418,3.92925 15.622,3.979 C16.0465,4.0825 16.56325,4.14175 16.55575,4.26825 C16.3595,4.597 15.876625,4.993875 15.40225,4.97 C14.927875,4.94625 14.6535,4.66175 14.495625,3.94875 C14.544125,3.9225 14.72225,3.905625 14.941375,3.90675 L14.9415,3.90675 Z M54.564875,15.0755 C55.181875,15.067 55.921125,15.328 56.643,16.0935 C56.296,17.093125 53.28475,17.606375 53.083,16.126625 C53.02175,15.679125 53.66275,15.087625 54.56475,15.075375 L54.564875,15.0755 Z" stroke-width="0.388000011" fill="#D21034"></path>
                        <path d="M18.05075,12.64375 L18.507375,13.307875 L18.05075,12.64375 Z M18.4865,13.328875 C18.4865,13.328875 18.4865,14.221375 18.67325,14.242375 L18.4865,13.328875 Z M18.25825,14.719625 C18.278875,14.7405 18.73575,15.508375 18.73575,15.508375 L18.25825,14.719625 Z M17.427875,15.715875 C17.4485,15.715875 18.009125,16.359625 18.009125,16.359625 L17.427875,15.715875 Z M18.496,15.86025 C18.496,15.881125 19.026,16.878625 19.067625,16.878625 L18.496,15.86025 Z M17.801375,16.5465 C17.801375,16.5465 17.98825,17.75025 18.15425,17.709 L17.801375,16.5465 Z M17.01675,18.75275 L17.552375,19.5565 L17.01675,18.75275 Z M18.009125,17.89575 C18.009125,17.89575 18.29975,19.037375 18.527875,18.9335 L18.009125,17.89575 Z M18.755875,17.21025 C18.776625,17.231 19.296125,17.979 19.44125,17.875 L18.755875,17.21025 Z M19.317,18.1655 L19.815125,19.162 L19.317,18.1655 Z M18.48675,18.9335 C18.5075,18.975125 18.90175,20.116875 18.90175,20.116875 L18.48675,18.9335 Z M17.53175,19.535625 C17.53175,19.535625 17.9055,20.801875 18.23775,20.594125 L17.53175,19.535625 Z M17.38675,21.217125 C17.38675,21.217125 17.4075,21.881375 17.739625,21.92275 L17.38675,21.217125 Z M17.968,20.884875 C17.968,20.905625 18.300125,21.362375 18.300125,21.362375 L17.968,20.884875 Z M18.916625,20.094875 L19.1925,20.532 L18.916625,20.094875 Z M19.794375,19.286625 L20.209625,19.805375 L19.794375,19.286625 Z M17.868125,13.3345 C17.888875,13.895 18.77775,13.137 19.130625,12.6595 L17.868125,13.3345 Z M17.49025,15.280375 C17.49025,15.280375 18.465875,14.595375 19.21325,13.5575 L17.49025,15.280375 Z M17.17875,16.92 C17.86375,16.733125 19.12425,15.20875 19.37325,14.39925 L17.17875,16.92 Z M17.0335,18.435125 C17.2205,18.51825 19.57475,16.822625 19.63725,15.577125 L17.0335,18.435125 Z M16.971375,19.743 C16.971375,19.722375 19.123875,19.19425 20.016375,16.828 L16.971375,19.743 Z M16.855875,21.53425 C16.855875,21.53425 20.29275,19.47325 20.479625,17.958 L16.855875,21.53425 Z M43.68625,24.99475 C43.68625,24.99475 43.464625,26.77325 41.679375,27.043125 L43.68625,24.99475 Z M44.246625,28.170625 C44.267375,28.149875 45.94875,26.3025 45.512875,25.741875 L44.246625,28.170625 Z M48.149125,26.385625 C48.149125,26.385625 48.128375,27.6725 47.069625,28.565 L48.149125,26.385625 Z M50.245625,26.759125 C50.245625,26.759125 50.28725,28.315875 49.622875,28.938625 L50.245625,26.759125 Z M52.176,27.693 C52.176,27.693 51.43125,29.150875 51.161375,29.29625 L52.176,27.693 Z M52.143875,30.276875 C52.143875,30.276875 53.123875,30.521125 53.435125,29.877625 L52.143875,30.276875 Z M52.397875,32.39175 C52.397875,32.39175 53.303875,32.5555 53.719125,31.683625 L52.397875,32.39175 Z M52.30075,34.02425 C52.30075,34.02425 53.034,34.64025 53.532,33.830875 L52.30075,34.02425 Z M41.778,22.029375 C41.778,22.029375 41.694875,25.184625 46.137,25.828125 C51.09825,27.198125 53.443625,26.4715 53.7345,32.034625 C53.547625,34.151875 53.2845,36.543375 51.7485,35.629875 L41.778,22.029375 Z M37.067,24.935875 C37.067,24.935875 37.772875,26.202125 38.623875,26.119 C39.74475,25.787 40.159875,26.472 40.159875,26.472 L37.067,24.935875 Z M34.0365,26.202 C34.0365,26.202 35.904875,27.1155 37.503,25.641625 L34.0365,26.202 Z M34.24425,24.8945 C34.410125,27.074125 31.732375,28.3195 30.673625,28.112 L34.24425,24.8945 Z M34.371125,33.2465 C34.391875,33.2465 35.821625,32.388125 35.531125,31.786 L34.371125,33.2465 Z M31.524875,31.973 C31.566125,31.93125 33.932625,31.703 34.368625,30.85175 L31.524875,31.973 Z M30.424625,28.4855 C30.424625,28.46475 33.783125,28.49475 34.011375,29.117375 L30.424625,28.4855 Z M34.887625,26.49275 C34.887625,26.49275 31.607625,32.097375 37.668875,32.097375 L34.887625,26.49275 Z M31.420875,26.409625 C31.420875,26.409625 30.715,28.506375 29.718625,29.212125 L31.420875,26.409625 Z M27.933625,25.683375 C27.933625,25.683375 29.1515,28.039875 27.92675,29.202125 L27.933625,25.683375 Z M24.7575,26.3475 C24.77825,26.389 25.151875,29.6895 24.3215,30.6235 L24.7575,26.3475 Z M23.18,26.45125 C23.18,26.45125 23.3045,28.54775 22.681875,29.295 C22.059,30.0425 22.827625,31.5945 22.827625,31.5945 L23.18,26.45125 Z M15.261375,32.602375 C15.261375,32.602375 15.70725,33.384375 16.330125,33.1145 L15.261375,32.602375 Z M16.018625,30.8935 C16.018625,30.8935 17.014875,31.329375 17.347125,31.16325 L16.018625,30.8935 Z M17.098,27.3645 C17.098,27.3645 15.62425,27.77975 16.18475,29.52325 C17.035625,30.2085 17.866,30.1045 17.866,30.1045 L17.098,27.3645 Z M14.19175,34.775 C14.171125,34.775 14.358,36.145 15.31275,35.107 C15.977,33.716375 18.0735,29.793 18.551,28.44375 L14.19175,34.775 Z M19.5265,27.800375 C19.5265,27.800375 18.509375,27.011625 18.551,28.111625 C18.530125,28.796625 18.86225,28.962625 18.86225,28.962625 C18.90375,29.461 19.33975,30.166625 19.6925,29.52325 C19.837875,28.9005 19.58875,28.63075 19.58875,28.63075 L19.5265,27.800375 Z M20.17,27.50975 C19.256625,27.44725 18.7585,29.461 20.523,28.195 L20.17,27.50975 Z M21.125,26.8245 C21.125,26.8245 20.896625,27.136 20.54375,26.80375 C20.35675,26.471875 19.69275,28.29875 20.855,28.36075 C21.0625,27.821 21.70625,27.67575 21.70625,27.67575 L21.125,26.8245 Z M22.246,25.952875 C22.246,25.952875 21.726875,26.201875 21.540125,26.160375 C20.917625,26.30575 21.042,27.758875 21.83075,27.67575 C22.1005,27.3645 22.39125,26.9285 22.39125,26.9285 L22.246,25.952875 Z M17.35125,24.05325 C17.33025,24.05325 15.29125,27.259875 18.487875,28.11075 L17.35125,24.05325 Z M43.231,19.226625 C43.231,19.226625 41.9855,20.285375 43.148,21.987375 C39.28675,21.924875 37.211375,23.710125 37.04525,24.914 C32.125625,24.56125 33.01825,26.01425 31.419875,26.4915 C29.28175,24.7065 26.147375,25.70275 26.354875,27.488 C24.922375,25.4745 22.722375,26.450125 22.452375,26.94825 C22.182625,27.4465 22.286375,24.47825 22.286375,24.47825 C22.286375,24.47825 20.854125,25.121625 19.857625,26.304875 C19.8785,25.516125 19.857625,24.229 19.857625,23.813875 C18.660625,24.056 17.505125,24.06975 16.266375,24.04225 L43.231,19.226625 Z M13.028375,23.12875 C13.028375,23.12875 14.813375,24.125 17.013875,22.775875 L13.028375,23.12875 Z M12.883,19.537625 C12.883,19.537625 14.273875,20.782875 16.88925,20.388625 L12.883,19.537625 Z M13.755,16.673 C13.755,16.673 14.06625,17.690125 17.055625,17.752375 L13.755,16.673 Z M14.767375,14.320625 C14.767375,14.320625 15.893,15.697375 17.40825,15.489875 L14.767375,14.320625 Z M15.727,12.355375 C15.727,12.355375 16.162875,13.102625 17.8235,13.227125 L15.727,12.355375 Z M16.70225,10.175875 C16.70225,10.175875 17.57425,11.130625 18.570625,10.964625 L16.70225,10.175875 Z M21.889375,2.415375 C21.889375,2.415375 22.275375,2.029375 22.918875,2.222375 L21.889375,2.415375 Z M21.610625,4.453 C21.610625,4.453 20.409375,4.41 20.495125,3.93825 C20.581125,3.402 21.76075,3.01575 21.76075,3.01575 C21.76075,3.01575 23.32625,2.007875 23.56225,1.6645 L21.610625,4.453 Z M16.4845,7.15525 L18.007375,10.07225 L18.736625,8.9785 L19.122875,9.729 L19.74475,8.63525 L20.817,9.3215 L20.4095,7.99175 L21.31025,7.927375 C21.31025,7.927375 21.07425,7.284 20.25925,7.15525 C20.47375,6.98375 21.22425,6.49025 21.22425,6.49025 C21.22425,6.49025 20.7955,5.997125 20.1305,5.975625 C20.345125,5.739625 20.6455,5.160625 20.623875,5.160625 C20.602625,5.160625 19.958875,5.010375 19.958875,5.010375 C19.958875,5.010375 21.481875,5.503625 22.661375,4.817375 L16.4845,7.15525 Z M19.74575,2.459 C19.767,2.4805 19.659875,3.059625 19.33825,3.40275 L19.74575,2.459 Z M13.869,4.06775 C13.869,4.06775 14.811125,3.808375 15.516125,3.95525 C16.2145,4.099 17.15075,4.3465 17.15075,4.3465 C17.15075,4.3465 18.26575,4.1965 18.63075,3.939 L13.869,4.06775 Z M11.53125,4.689625 C11.53125,4.689625 11.40275,5.14 11.36,5.440375 C11.36,5.65475 10.673375,5.933625 10.673375,5.933625 L11.53125,4.689625 Z M11.9605,3.767375 C11.9605,3.767375 12.561,4.518 12.582375,4.946875 C12.603625,5.375875 12.131875,5.697625 12.131875,5.697625 L11.9605,3.767375 Z M5.761875,8.893375 L5.139875,7.885375 L5.697375,7.692375 L5.761875,8.893375 Z M16.993875,22.797875 C16.49575,22.154375 17.367625,12.2735 19.215125,9.7 C18.571375,14.34975 20.7095,19.10325 21.24925,19.0825 L16.993875,22.797875 Z M11.37925,6.93875 C11.37925,6.93875 12.22,7.260625 13.963625,5.88 L11.37925,6.93875 Z M16.319625,9.2225 L17.570125,9.238 L16.319625,9.2225 Z M55.111375,1.478 C55.111375,1.478 34.273875,11.21475 33.970125,11.7305 C37.488875,10.668625 52.411625,8.1815 52.776,8.39375 C51.89625,8.60625 33.787875,12.7615 32.93875,13.7625 C37.458125,13.610875 46.9225,15.2185 48.4075,16.765375 C45.1925,16.037375 35.57675,14.611625 32.635,15.248625 C34.78875,15.764375 43.039,21.10275 43.039,21.952 C41.79525,20.769125 31.8765,16.67425 31.482375,17.068625 C33.757125,18.433625 36.972625,23.498875 36.972375,24.742625 C36.305125,23.681 30.572375,17.5235 30.238625,17.917625 C30.8455,18.76725 32.047625,26.035625 31.433,26.372625 C31.433,25.492875 29.2075,19.131125 29.0255,18.949125 C28.5705,19.070375 25.73375,26.710875 26.29575,27.421375 C25.932,24.873625 26.35625,19.555875 27.053875,19.768125 C25.8105,19.950125 21.841625,25.183125 22.266125,26.001875 C22.387375,24.69775 22.564875,23.83275 24.809375,19.495125 C22.322125,19.646625 17.165875,22.892375 16.286,24.045125 C16.9835,21.982625 21.3515,18.494125 23.26225,18.251375 L55.111375,1.478 Z M32.25675,10.661375 C34.45925,9.43925 41.264875,6.945125 45.804625,5.115125 L32.25675,10.661375 Z M27.981875,17.2385 C27.981875,17.2385 29.483125,17.21725 30.984625,13.142 C32.464125,7.566125 44.196125,1.346375 44.432125,0.18775 L27.981875,17.2385 Z M8.12725,22.845875 C8.12725,22.845875 7.77875,23.588375 7.34975,23.802875 L8.12725,22.845875 Z M9.81,23.971 C9.81,23.971 9.3445,24.875125 9.23725,25.304125 L9.81,23.971 Z M11.420375,24.413125 C11.420375,24.413125 11.810875,25.64725 11.489125,26.226375 L11.420375,24.413125 Z M6.936,21.20925 C5.756375,21.87425 7.60725,26.076125 13.205,26.483625 L6.936,21.20925 Z M12.304125,24.210375 C12.304125,24.210375 12.154125,24.961 13.205,26.462375 C12.90475,28.13525 14.47675,29.449875 15.09875,29.664375 L12.304125,24.210375 Z M11.85375,9.133125 C11.85375,9.111875 12.025,8.682875 12.025,8.682875 L12.21625,9.17875 L12.524125,9.170875 L12.72725,8.67375 L12.894,9.17275 L13.19975,9.17275 L13.3885,8.618625 L13.6735,9.143125 L13.9155,9.155375 L14.106125,8.516375 L14.499,8.974125 L14.64175,8.918875 L14.76425,8.27975 L15.15225,8.726625 L15.2635,8.66125 L15.4435,8.03125 L15.766,8.49975 L15.9285,8.446875 L16.079125,7.917375 L16.378875,8.404125 L11.85375,9.133125 Z M11.50825,9.1895 L13.847875,9.15475 C14.592375,9.1435 15.81825,8.11175 17.191,8.4335 L11.50825,9.1895 Z M6.577,14.19475 C6.577,14.19475 6.963,15.031375 7.49925,14.5595 L6.577,14.19475 Z M5.67625,14.752625 C5.67625,14.752625 4.9255,16.768625 5.82625,17.240375 L5.67625,14.752625 Z M4.60375,12.521875 C4.60375,12.521875 4.60375,12.99375 5.590375,12.264625 L4.60375,12.521875 Z M1.535125,23.1165 C1.535125,23.1165 2.328875,23.3525 2.200125,23.953 L1.535125,23.1165 Z M1.835125,13.850875 C1.835125,13.850875 2.32825,14.08675 2.800125,13.357625 L1.835125,13.850875 Z M7.06825,37.057875 C7.840375,37.015 8.006625,37.363625 8.709,37.363625 C9.51825,37.38825 10.306875,37.057875 11.3365,36.779 L7.06825,37.057875 Z M17.96375,38.64525 C17.94225,38.64525 17.599125,39.37425 17.899375,39.73875 L17.96375,38.64525 Z M6.960625,38.709375 C6.960625,38.709375 8.183125,37.70125 8.826625,38.323375 C9.44875,38.537875 9.791625,38.494875 9.791625,38.494875 L6.960625,38.709375 Z M7.60475,35.835625 C7.60475,35.835625 7.905,36.607625 6.896875,36.500625 L7.60475,35.835625 Z M6.596625,37.615625 C6.596625,37.615625 7.24,38.023375 6.510875,38.559375 L6.596625,37.615625 Z M6.982625,39.28875 C6.982625,39.28875 7.861875,39.4175 7.347125,40.125 L6.982625,39.28875 Z M35.386625,33.945375 C35.386625,33.945375 37.774625,34.1925 37.8845,34.371 C38.158875,34.08275 40.29125,32.3555 37.669875,32.1085 C37.230875,33.906625 35.427625,33.973 35.3865,33.9455 L35.386625,33.945375 Z M34.53575,35.139375 C35.427625,35.853125 35.062,36.280625 37.862,34.400625 L34.53575,35.139375 Z M33.259125,36.031625 C33.259125,36.031625 34.576625,37.445375 35.537375,35.729625 L33.259125,36.031625 Z M30.747375,36.539375 L28.963375,37.472625 L30.747375,36.539375 Z M25.751875,38.790375 C25.751875,38.790375 26.836125,37.857 27.343875,38.351125 C27.851625,38.845125 30.006375,37.92575 30.006375,37.92575 L25.751875,38.790375 Z M26.561375,34.741375 C26.561375,34.741375 26.93225,35.482375 26.218375,35.5785 L26.561375,34.741375 Z M25.148,37.061 C25.148,37.061 25.524,37.75775 24.7965,37.94975 L25.148,37.061 Z M25.98525,38.95475 C25.98525,38.95475 27.110625,39.00975 26.71275,39.860625 L25.98525,38.95475 Z M36.512125,38.80375 C36.512125,38.80375 35.894625,39.32525 36.3475,39.915625 L36.512125,38.80375 Z M45.474375,35.056875 C45.474375,35.056875 46.188125,35.4 45.337125,35.99025 L45.474375,35.056875 Z M44.623375,37.2255 C44.623375,37.2255 45.158625,37.788 44.801875,38.254625 L44.623375,37.2255 Z M46.119375,39.38 C46.119375,39.38 46.860625,39.585875 46.778125,40.2035 L46.119375,39.38 Z M56.494875,38.831 C56.494875,38.831 55.877375,39.283875 56.206625,39.874125 L56.494875,38.831 Z M45.495,20.79325 C46.97725,20.614875 49.104375,23.90875 50.18875,24.553875 L45.495,20.79325 Z M56.6725,16.127375 C56.6725,16.127375 57.4235,16.78275 56.762875,18.364 L56.6725,16.127375 Z M58.064625,13.605875 C58.273375,13.768375 59.080375,14.199 59.613375,15.195875 L58.064625,13.605875 Z M60.125375,8.674625 C60.125375,8.688125 59.082375,11.488 59.082375,11.488 L60.125375,8.674625 Z M61.291875,8.53725 C61.291875,8.53725 61.086,11.03475 60.784125,11.54275 L61.291875,8.53725 Z M56.643625,16.094375 C56.296625,17.094 53.285625,17.605625 53.083625,16.125625 C52.980875,15.372375 54.867125,14.210375 56.643625,16.094375 L56.643625,16.094375 Z" stroke-width="0.2"></path>
                        <path d="M14.91825,3.915 L16.07675,4.129375 C16.07675,4.129375 15.261375,5.223125 14.91825,3.914875 L14.91825,3.915 Z" stroke-width="0.388000011" fill="#000000"></path>
                    </g>
                </g>
            </g>
        </g>
    </g>
</svg>