<?xml version="1.0" encoding="UTF-8" standalone="no"?>
<svg width="122px" height="60px" viewBox="0 0 122 60" version="1.1" xmlns="http://www.w3.org/2000/svg" xmlns:xlink="http://www.w3.org/1999/xlink">
    <!-- Generator: Sketch 3.8.2 (29753) - http://www.bohemiancoding.com/sketch -->
    <title>nf</title>
    <desc>Created with Sketch.</desc>
    <defs></defs>
    <g id="Page-1" stroke="none" stroke-width="1" fill="none" fill-rule="evenodd">
        <g id="nf">
            <g id="Group">
                <g>
                    <polygon id="Shape" fill="#FFFFFF" points="45.34875 0 76.655 0 76.655 60 45.34875 60"></polygon>
                    <rect id="Rectangle-184" fill="#198200" x="0" y="0" width="40" height="60"></rect>
                    <rect id="Rectangle-184-Copy" fill="#198200" x="82" y="0" width="40" height="60"></rect>
                    <path d="M60.1875,43.91125 L60.1875,50.49 L62.846375,50.5175 C62.846375,50.5175 61.996625,44.788375 62.462625,44.020875 C62.928625,43.253375 63.367125,43.363 63.367125,43.363 C63.367125,43.363 65.094,43.883875 65.285875,43.80175 C65.477875,43.719375 65.2585,43.14375 66.1905,43.226 C66.492,43.116375 66.327625,42.5955 66.60175,42.568125 C66.875875,42.540625 72.16625,44.048375 73.3175,42.623 C73.016,41.828 71.974375,42.568 71.70025,42.5955 C71.4535,42.5955 70.412,42.102125 69.80875,42.5955 C69.2605,42.184375 66.766125,41.91025 66.766125,41.91025 C66.437125,41.58125 72.714375,42.07475 73.07075,41.828 C73.81075,41.087875 71.70025,41.170125 71.37125,41.41675 C70.7865,41.0605 70.053125,41.088 69.605375,41.334625 C69.390625,40.821125 67.350875,41.04225 66.217875,40.896 C65.85525,40.683375 65.91725,40.562375 66.163,40.430125 C68.5295,40.530625 70.8845,40.837625 73.2625,40.731625 C73.90525,39.893625 72.45275,39.579375 71.563,40.292875 C71.040625,39.434 69.973125,40.2655 69.2605,40.183375 C68.547875,40.101125 68.87675,39.224 69.78125,39.360875 C70.685875,39.498 72.303125,39.30625 72.60475,38.895 C72.90625,38.483875 72.42475,38.06625 70.932625,38.4565 C70.427625,37.962875 69.315375,38.4565 68.794625,38.620875 C68.10175,38.234375 66.492125,38.566 65.943875,38.703125 C65.40725,38.3695 68.76725,37.826 68.76725,37.826 C70.06425,37.803 70.79575,37.57925 71.20675,37.469625 C73.1675,36.418625 71.17875,36.30675 70.14975,37.070625 C69.511,36.571875 68.904375,37.113125 68.328625,37.305125 C67.753,37.497 66.6565,37.634125 66.6565,37.551875 C66.6565,37.469625 68.219,36.510125 68.219,36.510125 C68.219,36.510125 70.13775,36.373125 70.5215,36.318375 C70.90525,36.263375 72.86925,35.2555 70.192625,35.934625 C69.260625,36.01675 68.712375,35.962 68.356,35.989375 C66.2895,35.775625 68.547875,35.57825 68.547875,35.57825 C68.547875,35.57825 71.47375,35.30925 71.50825,35.167 C71.56575,34.02625 69.1235,34.564 69.096125,34.564 C69.10325,33.749 66.821125,34.5915 66.821125,34.564 C66.384875,34.307 67.06775,34.04325 67.06775,34.04325 C67.67075,33.897 68.57225,33.854125 68.808125,33.662 C68.808125,33.662 70.511375,33.645625 70.7135,33.1935 C70.29575,32.041 67.1105,33.398 66.684,33.60475 C66.108375,33.60475 67.06775,32.672625 67.09525,32.64525 C67.122625,32.61775 69.726625,32.50825 70.96025,30.836125 C71.045875,29.81825 69.507375,31.41175 69.507375,31.41175 C69.392625,30.09175 67.83525,31.494 66.93075,31.60375 C66.026375,31.71325 65.998875,31.1925 66.629375,31.11025 C67.25975,31.028 67.9725,31.082875 68.328875,30.1235 C68.685125,29.164 69.75425,30.17825 69.946125,29.822 C70.138,29.465625 69.562375,29.164 69.562375,29.164 C69.562375,29.164 70.35725,28.34175 69.069,28.369125 C67.780625,28.396625 66.1085,28.20475 66.1085,28.20475 C66.1085,28.20475 67.45175,27.683875 68.712625,27.71125 C69.973625,27.73875 69.28825,26.80675 68.082125,26.80675 C66.876125,26.80675 66.245625,26.3955 66.245625,26.3955 L68.3015,25.628 L68.164375,25.052375 C68.164375,25.052375 69.3705,24.093 67.671,24.31225 C65.9715,24.531625 65.77975,24.559 65.77975,24.559 C65.77975,24.559 62.380625,25.079875 62.35325,25.079875 C62.32575,25.079875 61.42125,24.80575 62.298375,24.586375 C63.175625,24.367125 66.273,23.736625 66.739,23.901125 C67.205125,24.0655 66.68425,22.749875 65.0395,22.585375 C63.394875,22.421 62.38075,22.996625 62.38075,22.996625 C62.38075,22.996625 61.311625,22.612875 62.2985,22.283875 C63.28525,21.955 64.84775,22.3935 64.84775,22.3935 C64.84775,22.3935 66.602125,21.87275 65.14925,21.6535 C63.6965,21.434125 63.23825,21.84975 62.572625,21.87275 C62.306875,21.541 64.85325,21.46175 65.012125,21.187375 C64.743625,20.693875 63.1665,21.187375 62.243625,21.187375 C61.851125,21.020875 61.82575,20.750875 62.271125,20.584375 C63.21225,20.54775 64.095875,20.603125 65.037125,20.5665 C65.009625,20.064 65.039625,19.469625 65.012125,18.967125 C63.818375,18.749 62.417875,19.124625 61.74775,19.09275 C61.927,18.544375 64.506125,18.40375 64.793,18.2545 C65.389875,17.5085 62.271125,18.2545 62.24375,18.2545 C61.69975,18.174125 61.735,17.83075 62.07925,17.624 C62.87425,17.53275 64.65625,17.73975 64.521375,17.20075 C64.418125,16.69575 63.28525,16.966125 62.81925,17.07575 C62.353375,17.185375 61.668,17.10325 61.668,17.10325 C61.369625,16.7015 64.35425,16.864875 64.326875,16.555 C64.288,16.199125 62.435375,16.445375 61.805,16.47275 C61.3125,16.132875 64.171375,15.908625 64.21725,15.86975 C64.320625,14.9585 62.2985,15.86975 61.91475,15.86975 C61.531,15.86975 61.722875,15.294125 61.722875,15.294125 C61.722875,15.294125 62.517875,14.93775 62.490375,14.882875 C62.462875,14.828125 61.887375,14.63625 61.8325,14.63625 C61.77775,14.63625 61.8325,14.00575 61.8325,14.00575 C61.8325,14.00575 62.490375,13.512375 62.435625,13.37525 C62.380625,13.23825 61.668125,13.484875 61.668125,13.484875 L61.668125,12.93675 C61.668125,12.93675 62.188875,12.881875 62.24375,12.635125 C62.298625,12.3885 61.61325,12.361125 61.61325,12.361125 L61.339125,9.483 L61.0925,12.16925 L60.187875,12.30625 C60.187875,12.30625 60.818375,12.6625 60.928,13.018875 C61.037625,13.37525 60.1605,13.265625 60.1605,13.265625 C60.1605,13.265625 60.873125,13.868625 60.928,14.088 C60.98275,14.30725 59.941125,14.362125 59.941125,14.362125 C59.941125,14.362125 60.818375,14.9925 60.873125,15.348875 C60.928125,15.70525 60.873125,15.897125 60.873125,15.897125 C60.873125,15.897125 59.420375,14.63625 58.48825,14.9925 C58.004,15.245625 59.597875,15.362625 60.65375,16.280875 C60.65125,16.485375 58.089125,15.656875 57.995,16.17125 C58.054375,16.314375 60.73075,16.69875 60.927875,17.0485 C59.95025,17.085 57.928,16.8345 57.994875,17.158 C57.790625,17.5315 59.904875,17.3195 60.79075,17.624125 C61.0505,17.919125 61.023375,18.168625 60.5715,18.19975 C59.7175,17.791375 57.8075,17.486375 57.803,18.00775 C57.814625,18.147 59.7775,18.056625 60.48925,18.528625 C59.53925,18.744875 56.316375,18.08875 56.296,18.40825 C56.387875,18.557375 56.8985,19.213875 57.7755,19.1865 C58.65275,19.159 60.681,19.54275 60.818125,19.817 C60.955125,20.091125 58.186625,19.241375 57.145,19.73475 C56.1035,20.228125 60.13275,19.926625 60.790625,20.52975 C61.448625,21.13275 59.474875,20.47475 59.474875,20.47475 C59.474875,20.47475 56.73375,20.091 56.322625,20.282875 C55.911375,20.474875 55.4455,20.913375 55.4455,20.913375 C55.4455,20.913375 55.719625,21.461625 55.99375,21.352125 C56.267875,21.242375 55.9115,21.680875 55.9115,21.680875 C55.9115,21.680875 59.749,22.612875 60.598875,23.43525 C61.448625,24.25775 55.719625,22.147 55.719625,22.147 C55.719625,22.147 53.417125,22.99675 55.856625,23.051625 C55.575875,23.46225 55.99375,23.709375 55.99375,23.709375 C55.99375,23.709375 60.050625,24.559125 60.46175,25.216875 C60.873,25.874875 57.69325,24.5865 56.9805,24.23025 C56.26775,23.873875 54.23925,24.4495 54.26675,24.5865 C54.29425,24.723625 55.253625,24.9155 55.281,25.162125 C55.3085,25.408875 54.102375,25.491125 54.102375,25.710375 C54.102375,25.92975 59.22825,26.99875 60.598875,28.15 C61.969375,29.30125 56.569375,26.7795 56.569375,26.7795 C56.569375,26.7795 56.870875,27.190625 56.569375,27.30025 C56.267875,27.409875 55.198875,25.76525 53.4445,26.7795 C53.125,27.19675 54.974875,27.5285 55.4455,27.5745 C55.28475,27.987625 55.144,28.122625 55.801875,28.53375 C56.45975,28.945 54.5135,27.93075 54.5135,27.9855 C54.5135,28.040375 54.650625,28.69825 54.650625,28.69825 C54.04325,28.204875 53.309875,28.055875 52.622125,28.561125 C52.622125,28.561125 52.594625,29.054625 53.307375,29.356125 C52.91825,30.15125 53.746,29.904375 55.06175,30.644375 C53.10625,30.133375 52.951125,31.083125 54.349125,31.30225 C55.747125,31.521375 59.584625,31.658625 60.489125,32.83725 C61.39375,34.016 59.204125,32.385375 58.954125,32.343875 C58.899375,32.371375 58.8445,32.947 58.8445,32.947 C58.25975,32.6085 57.72075,32.3045 57.021375,32.161 C56.9665,32.270625 56.980625,32.42625 56.92575,32.53575 C56.291,32.078 55.736875,31.758 54.815,31.7135 L54.705375,32.152125 C54.705375,32.152125 53.937875,31.192625 52.43025,32.152125 C51.588375,32.755625 55.61,32.371375 56.267875,33.084125 C56.92575,33.79675 56.404875,33.906375 56.404875,33.906375 C55.856625,33.7055 55.3085,33.504375 54.76025,33.303375 C54.76025,33.303375 52.814125,32.947 52.265875,33.3855 C51.717625,33.82425 60.27,34.893125 60.516625,36.071875 C60.682875,36.711125 58.506625,35.40075 56.62425,34.838375 L56.404875,35.468875 C56.404875,35.468875 55.657375,34.717875 54.815,34.591625 C54.7875,34.591625 54.9795,35.331875 54.9795,35.331875 C54.9795,35.331875 52.868875,34.345 51.799875,34.86575 C50.73075,35.386625 55.527875,35.66075 55.966375,36.154125 C56.404875,36.6475 54.513625,35.82525 54.349125,36.154125 C54.1845,36.483125 51.854625,35.551125 51.882,35.989625 C51.909375,36.428375 52.210875,36.675 52.210875,36.675 C52.210875,36.675 57.062625,37.140875 57.22725,37.716625 C57.39175,38.29225 54.541,37.387625 54.541,37.387625 C54.541,37.387625 54.26675,37.798875 54.486,37.990625 C54.705375,38.182625 52.841375,36.89425 53.00575,37.744 C52.401375,37.50325 50.84025,36.75725 51.059625,37.332875 C51.279,37.9085 55.472875,38.730875 55.472875,38.730875 C55.472875,38.730875 53.63625,38.867875 53.7185,39.334 C51.356,37.894625 51.416,38.813 51.47075,38.8405 C51.52575,38.868 48.42825,38.073 50.758125,39.334 C53.088125,40.594875 52.019125,40.3755 52.0465,40.403 C52.073875,40.430375 52.293125,41.033375 52.23825,41.033375 C52.1835,41.033375 50.648375,40.211 50.127625,40.15625 C49.60675,40.101375 47.13975,40.8415 49.771375,41.99275 C52.403,43.144 54.020125,41.718625 55.47275,41.883125 C56.9255,42.047625 57.61075,42.294375 57.47375,42.760375 C57.33675,43.22625 55.989625,41.23325 54.571875,42.957375 C52.959125,42.638125 51.864625,42.453 52.697125,43.638125 C50.063375,42.653875 48.455375,43.939 51.77225,44.459875 C55.031625,44.555875 57.035125,43.664875 57.035125,43.664875 C57.035125,43.664875 57.583375,44.679125 58.378375,43.966375 C59.173375,43.25375 59.20075,44.2405 59.228125,44.2405 C59.2555,44.2405 59.995625,43.9115 59.995625,43.9115 L60.1875,43.9115 L60.1875,43.91125 Z" id="Shape" stroke="#000000" stroke-width="0.2" fill="#198200"></path>
                    <path d="M60.50875,40.02 L60.50875,39.560875 C60.50875,39.560875 59.473375,39.377125 58.9685,39.4805 C58.6695,39.30925 58.386875,39.0835 58.0295,39.274 C57.960625,39.423125 58.68375,39.813375 58.92475,39.813375 C59.207125,39.992125 60.50875,40.043 60.50875,40.02 L60.50875,40.02 Z M60.49625,40.76625 C60.49625,40.76625 59.460875,40.38775 59.047625,40.82375 C59.115125,41.2875 60.26675,41.512375 60.50775,41.386125 C60.748875,41.259875 60.50775,40.78925 60.49625,40.76625 L60.49625,40.76625 Z M62.24125,40.95 L62.24125,41.271375 C62.24125,41.271375 63.480875,41.512375 63.699,41.2485 C63.917,40.9845 62.711875,40.81225 62.24125,40.95 L62.24125,40.95 Z M62.185,39.66875 L62.23075,40.031375 C62.23075,40.031375 63.298125,40.272375 63.711375,39.687 C64.1245,39.101625 62.773375,39.69175 62.185125,39.66875 L62.185,39.66875 Z M62.24125,38.425 L62.24125,38.666 C62.24125,38.666 63.04475,38.79225 63.228375,38.448 C63.412125,38.103625 62.26425,38.448 62.24125,38.425 L62.24125,38.425 Z M60.56375,37.6825 C60.440125,37.50625 60.00375,37.0695 58.833,36.94325 C58.01925,36.9405 60.30275,38.1405 60.56375,37.6825 L60.56375,37.6825 Z M62.21875,36.46125 C62.21875,36.46125 62.172875,36.794125 62.18425,36.794125 C62.19575,36.794125 64.939,35.979125 65.58175,36.036625 C66.155875,35.874125 66.2705,35.474125 66.2475,35.474125 C65.7575,35.117 63.3895,35.761125 62.21875,36.46125 L62.21875,36.46125 Z M62.27625,35.48625 C62.26475,35.54375 62.24175,35.807625 62.24175,35.807625 C62.24175,35.807625 64.1815,35.428875 64.698125,35.061625 C65.214625,34.69425 62.299375,35.497875 62.27625,35.48625 L62.27625,35.48625 Z M62.19625,34.53375 L62.196375,34.857375 C62.196375,34.857375 63.491125,34.817875 63.75725,34.55675 C63.927125,34.2955 62.616125,34.519625 62.19625,34.53375 L62.19625,34.53375 Z M64.8975,37.25125 C64.8975,37.25125 65.57,37.34525 65.69625,37.150125 C65.6715,36.803875 64.8975,37.262625 64.8975,37.25125 L64.8975,37.25125 Z M62.2525,33.32875 C62.241,33.386125 62.263875,34.040375 62.263875,34.040375 C62.263875,34.040375 65.3745,33.05325 65.569625,32.8695 C65.76475,32.685875 66.19775,32.133125 62.252375,33.32875 L62.2525,33.32875 Z M62.16125,32.34125 L62.16125,32.85775 C62.16125,32.85775 63.412375,32.765875 63.986375,32.29525 C64.56025,31.82475 62.16125,32.35275 62.16125,32.34125 L62.16125,32.34125 Z M60.6575,31.17 L60.737875,31.640625 C60.737875,31.640625 56.61725,30.309125 56.62875,30.309125 C56.640125,30.309125 56.42125,29.630875 60.6575,31.17 L60.6575,31.17 Z M60.72625,29.5175 C60.71475,29.563375 60.71475,29.965 60.70325,29.95375 C60.69175,29.942125 57.84525,28.76 57.742,28.86325 C57.364,27.9775 60.726375,29.540375 60.726375,29.5175 L60.72625,29.5175 Z M62.115,30.2525 C62.115,30.264 62.160875,30.65425 62.160875,30.65425 C62.160875,30.65425 63.905625,30.287 64.008875,30.114875 C64.11225,29.942625 62.115125,30.264 62.115125,30.2525 L62.115,30.2525 Z M62.15625,31.18125 C62.1725,31.28 62.20675,31.5945 62.20675,31.5945 C62.20675,31.5945 62.907,31.537125 63.01025,31.376375 C63.113625,31.21575 62.15625,31.19275 62.15625,31.18125 L62.15625,31.18125 Z M62.04625,29.05875 C62.04625,29.09325 62.057625,29.449 62.057625,29.449 C62.057625,29.449 63.9745,29.07025 64.181125,28.8865 C64.38775,28.703 62.01175,29.05875 62.04625,29.05875 L62.04625,29.05875 Z M62.0575,28.0025 C62.0575,28.0255 61.98875,28.39275 62.0345,28.39275 C62.08025,28.39275 64.364625,28.0025 64.720375,27.681125 C65.076375,27.35975 62.091875,28.037 62.0575,28.0025 L62.0575,28.0025 Z M62.02375,26.1425 L62.02375,26.54425 C62.02375,26.54425 63.5045,26.234375 63.78,25.924375 C64.0555,25.614375 62.02375,26.1655 62.02375,26.1425 L62.02375,26.1425 Z M61.77125,23.43375 L61.80575,24.042 C61.80575,24.042 63.7915,23.766625 64.07825,23.43375 C64.36525,23.100875 61.759875,23.43375 61.77125,23.43375 L61.77125,23.43375 Z M60.8525,18.8775 L60.8525,19.25625 C60.8525,19.25625 59.91125,19.210375 60.14075,19.049625 C60.37025,18.888875 60.8525,18.911875 60.8525,18.8775 L60.8525,18.8775 Z M61.725,19.3825 L61.748,19.899 C61.748,19.899 62.964625,19.78425 63.0565,19.589 C63.14825,19.394 61.748,19.3825 61.725,19.3825 L61.725,19.3825 Z M61.65625,20.12875 C61.65625,20.12875 61.67925,20.450125 61.702125,20.450125 C61.725125,20.450125 62.18425,20.41575 62.2875,20.2895 C62.39075,20.16325 61.702125,20.15175 61.65625,20.12875 L61.65625,20.12875 Z M60.62375,21.5975 C60.62375,21.631875 60.658125,22.091125 60.635125,22.0795 C60.612125,22.067875 57.97225,21.3105 57.731125,21.322 C57.49025,21.3335 57.42125,20.713625 60.62375,21.5975 L60.62375,21.5975 Z M60.84125,22.45875 C60.84125,22.550625 60.89875,23.032625 60.80675,23.00975 C60.715,22.98675 59.01625,22.44725 59.188375,22.286625 C59.3605,22.125875 60.84125,22.49325 60.84125,22.45875 L60.84125,22.45875 Z M60.6925,26.085 L60.703875,26.52125 C60.703875,26.52125 57.742625,25.625875 57.63925,25.47675 C57.536,25.3275 57.249,24.627375 60.6925,26.085 L60.6925,26.085 Z M60.80625,27.1525 C60.80625,27.164 60.82925,27.56575 60.81775,27.56575 C60.80625,27.56575 56.789,26.154 56.789,26.154 C56.789,26.154 56.467625,25.097875 60.80625,27.1525 L60.80625,27.1525 Z" id="Shape" stroke="#000000" stroke-width="0.2" fill="#FFFFFF"></path>
                    <path d="M56.0325,41.085 C56.0325,41.09875 56.01875,41.524625 56.01875,41.524625 C56.01875,41.524625 55.23575,41.30475 54.9885,40.86525 C55.441875,40.741625 56.04625,41.09875 56.0325,41.085 L56.0325,41.085 Z" id="Shape" stroke="#000000" stroke-width="0.2" fill="#FFFFFF"></path>
                </g>
            </g>
        </g>
    </g>
</svg>