<?xml version="1.0" encoding="UTF-8" standalone="no"?>
<svg width="122px" height="60px" viewBox="0 0 122 60" version="1.1" xmlns="http://www.w3.org/2000/svg" xmlns:xlink="http://www.w3.org/1999/xlink">
    <!-- Generator: Sketch 3.8.2 (29753) - http://www.bohemiancoding.com/sketch -->
    <title>tw</title>
    <desc>Created with Sketch.</desc>
    <defs></defs>
    <g id="Page-1" stroke="none" stroke-width="1" fill="none" fill-rule="evenodd">
        <g id="tw">
            <g id="Clipped">
                <g>
                    <g id="Group">
                        <rect id="Rectangle-279" fill="#DE2110" x="0" y="0" width="122" height="60"></rect>
                        <polygon id="Shape" fill="#08399C" points="0 0 45.3642162 0 45.3642162 30.0986842 0 30.0986842"></polygon>
                        <polygon id="Shape" fill="#FFFFFF" points="33.1798975 20.9932444 27.6127864 19.8489065 28.798732 25.4054058 24.5488287 21.6327238 22.795845 27.037554 21.0028711 21.6448339 16.7820195 25.4503187 17.9267987 19.8853541 12.3681562 21.0696668 16.1422933 16.8225779 10.735496 15.0702701 16.1288849 13.2779875 12.323226 9.05829307 17.8903371 10.2022782 16.7055676 4.64554379 20.9542947 8.41881361 22.7072784 3.01398348 24.5002523 8.405763 28.7211039 4.6011012 27.5763247 10.1664185 33.1349673 8.98128277 29.3608301 13.2294299 34.767745 14.9804443 29.3742386 16.7727269"></polygon>
                        <polygon id="Shape" fill="#005387" points="28.0484447 20.5663369 26.2918148 21.4989258 24.5781157 22.510994 22.5882487 22.442449 20.598264 22.4657284 18.9092647 21.4145084 17.1733357 20.4415919 16.237917 18.689049 15.2227532 16.9818893 15.2902661 14.9979627 15.2681539 13.012978 16.3226023 11.3293329 17.2985992 9.5991288 19.0552291 8.66630474 20.7689282 7.65435406 22.7589129 7.72254639 24.7499561 7.6998548 26.4391906 8.75095729 28.1737082 9.72387374 29.1091268 11.4758288 30.1244083 13.1829885 30.0568954 15.1669151 30.07889 17.1518998 29.0244416 18.8358977"></polygon>
                        <path d="M28.773797,15.0822625 C28.773797,18.4502583 26.042464,21.1804206 22.6734043,21.1804206 C19.3043447,21.1804206 16.5728941,18.4502583 16.5728941,15.0823801 C16.5728941,11.714502 19.3042271,8.98433966 22.6734043,8.98433966 C26.0425816,8.98433966 28.773797,11.714502 28.773797,15.0823801 L28.773797,15.0822625 Z" id="Shape" fill="#FFFFFF"></path>
                    </g>
                </g>
            </g>
        </g>
    </g>
</svg>