<?xml version="1.0" encoding="UTF-8" standalone="no"?>
<svg width="122px" height="60px" viewBox="0 0 122 60" version="1.1" xmlns="http://www.w3.org/2000/svg" xmlns:xlink="http://www.w3.org/1999/xlink">
    <!-- Generator: Sketch 3.8.2 (29753) - http://www.bohemiancoding.com/sketch -->
    <title>tj</title>
    <desc>Created with Sketch.</desc>
    <defs></defs>
    <g id="Page-1" stroke="none" stroke-width="1" fill="none" fill-rule="evenodd">
        <g id="tj">
            <g id="svg3446">
                <g>
                    <rect id="rect3880" fill="#006600" x="0" y="-1.23746273e-15" width="122" height="60"></rect>
                    <rect id="rect3882" fill="#FFFFFF" x="0" y="-1.23746273e-15" width="122" height="42.8571437"></rect>
                    <rect id="rect3884" fill="#CC0000" x="0" y="5.38894114e-16" width="122" height="17.1428563"></rect>
                    <g id="g3886" transform="translate(46.942857, 18.428571)">
                        <path d="M11.6571429,10.7742858 C11.8975336,10.3608826 12.382783,10.1568395 12.8463667,10.2742277 C13.3099505,10.3916159 13.6396127,10.8020099 13.6542858,11.2800001 L13.6542858,15.5657144 L14.4600001,15.5657144 L14.4600001,11.2800001 C14.4746732,10.8020099 14.8043354,10.3916159 15.2679192,10.2742277 C15.7315029,10.1568395 16.2167523,10.3608826 16.457143,10.7742858 C16.8032009,9.73094235 16.435544,8.58354404 15.5475592,7.93562072 C14.6595744,7.2876974 13.4547115,7.2876974 12.5667267,7.93562072 C11.6787419,8.58354404 11.311085,9.73094235 11.6571429,10.7742858" id="path3888" fill="#F8C300"></path>
                        <path d="M12.2314286,9.65571435 C12.9526286,9.50829151 13.6874371,9.83774792 14.0571429,10.4742858 C14.4268488,9.83774792 15.1616573,9.50829151 15.8828572,9.65571435 C15.7575435,8.74340636 14.9780172,8.06363557 14.0571429,8.06363557 C13.1362687,8.06363557 12.3567424,8.74340636 12.2314286,9.65571435" id="path3890" fill="#FFFFFF"></path>
                        <path d="M13.6542858,13.8537429 C13.5428548,15.0944102 12.7335742,16.1628724 11.5694831,16.606228 C10.4053921,17.0495836 9.0903803,16.7901792 8.18185719,15.9379715 C7.7963093,16.9057816 6.98667919,17.642213 5.98677222,17.9345988 C4.98686525,18.2269846 3.90802522,18.0427665 3.06180002,17.435143 C3.37462288,20.5573716 8.05482862,19.9199144 8.40351434,16.884103 C9.8738572,19.4653887 13.1069144,18.726103 14.0529429,15.564103 L13.6542858,13.8537429 Z" id="w" fill="#F8C300"></path>
                        <g id="use3893" transform="translate(19.585714, 16.671429) scale(-1, 1) translate(-19.585714, -16.671429) translate(14.057143, 13.800000)" fill="#F8C300">
                            <path d="M10.6542858,0.0537428575 C10.5428548,1.29441013 9.73357416,2.36287235 8.56948312,2.80622794 C7.40539208,3.24958353 6.09038028,2.9901791 5.18185718,2.13797144 C4.79630928,3.10578147 3.98667918,3.84221289 2.9867722,4.13459872 C1.98686523,4.42698455 0.908025197,4.2427664 0.0618000004,3.63514288 C0.374622859,6.75737147 5.0548286,6.11991432 5.40351432,3.08410288 C6.87385719,5.66538861 10.1069143,4.92610289 11.0529429,1.76410287 L10.6542858,0.0537428575 Z" id="w"></path>
                        </g>
                        <path d="M10.5291429,19.3980001 C9.87616292,20.8076573 8.57100005,21.0498001 7.42937148,19.911883 C7.42937148,19.911883 7.88827719,19.5876173 8.37960005,19.4982258 C8.28747434,19.1061344 8.47638005,18.5637687 8.74263434,18.2704544 C9.02184863,18.4612887 9.41151434,18.843763 9.5106172,19.2882258 C10.1988258,19.1991344 10.5291601,19.3980687 10.5291601,19.3980687 L10.5291429,19.3980001 Z" id="r" fill="#F8C300"></path>
                        <g id="use3896" transform="translate(14.076931, 19.040812) rotate(9.370000) translate(-14.076931, -19.040812) translate(12.491217, 17.840812)" fill="#F8C300">
                            <path d="M3.15771429,1.14085715 C2.50473429,2.55051429 1.19957143,2.79265715 0.0579428573,1.65474 C0.0579428573,1.65474 0.516848573,1.33047429 1.00817143,1.24108286 C0.916045716,0.848991431 1.10495143,0.306625715 1.37120572,0.0133114286 C1.65042,0.204145715 2.04008572,0.586620001 2.13918858,1.03108286 C2.82739715,0.941991431 3.15773144,1.14092572 3.15773144,1.14092572 L3.15771429,1.14085715 Z" id="r"></path>
                        </g>
                        <g id="use3898" transform="translate(19.196193, 19.463587) rotate(18.740000) translate(-19.196193, -19.463587) translate(17.610479, 18.263587)" fill="#F8C300">
                            <path d="M3.15771431,1.14085715 C2.50473431,2.55051431 1.19957144,2.79265717 0.0579428577,1.65474002 C0.0579428577,1.65474002 0.516848576,1.3304743 1.00817144,1.24108287 C0.916045723,0.848991436 1.10495144,0.306625717 1.37120573,0.0133114287 C1.65042002,0.204145716 2.04008573,0.586620005 2.13918859,1.03108287 C2.82739717,0.941991437 3.15773146,1.14092572 3.15773146,1.14092572 L3.15771431,1.14085715 Z" id="r"></path>
                        </g>
                        <path d="M5.74285718,22.5428573 C11.1680896,20.9279551 16.9461963,20.9279551 22.3714287,22.5428573" id="path3900" stroke="#F8C300" stroke-width="0.970999956"></path>
                        <g id="g3902" fill="#F8C300">
                            <g id="g3904" transform="translate(12.000000, 0.000000)">
                                <polygon id="s" points="0.0191646364 1.48067786 4.0951211 1.48067786 0.797603048 3.87646502 2.05714287 8.05721356e-09 3.31668269 3.87646502"></polygon>
                            </g>
                            <g id="h" transform="translate(0.000000, 1.542857)">
                                <g id="use3908" transform="translate(6.000000, 0.064838)">
                                    <polygon id="s" points="0.0191646364 1.48067786 4.0951211 1.48067786 0.797603048 3.87646502 2.05714287 8.05721356e-09 3.31668269 3.87646502"></polygon>
                                </g>
                                <g id="use3910" transform="translate(1.607695, 4.457143)">
                                    <polygon id="s" points="0.0191646364 1.48067786 4.0951211 1.48067786 0.797603048 3.87646502 2.05714287 8.05698619e-09 3.31668269 3.87646502"></polygon>
                                </g>
                                <g id="use3912" transform="translate(0.000000, 10.457143)">
                                    <polygon id="s" points="0.0191646364 1.48067786 4.0951211 1.48067786 0.797603048 3.87646502 2.05714287 8.05698619e-09 3.31668269 3.87646502"></polygon>
                                </g>
                            </g>
                            <g id="use3914" transform="translate(22.614286, 9.042857) scale(-1, 1) translate(-22.614286, -9.042857) translate(17.114286, 1.542857)">
                                <g id="h">
                                    <g id="use3908" transform="translate(6.000000, 0.064838)">
                                        <polygon id="s" points="0.0191646364 1.48067786 4.0951211 1.48067786 0.797603048 3.87646502 2.05714287 8.05721356e-09 3.31668269 3.87646502"></polygon>
                                    </g>
                                    <g id="use3910" transform="translate(1.607695, 4.457143)">
                                        <polygon id="s" points="0.0191646364 1.48067786 4.0951211 1.48067786 0.797603048 3.87646502 2.05714287 8.05721356e-09 3.31668269 3.87646502"></polygon>
                                    </g>
                                    <g id="use3912" transform="translate(-0.000000, 10.457143)">
                                        <polygon id="s" points="0.0191646364 1.48067786 4.0951211 1.48067786 0.797603048 3.87646502 2.05714287 8.05721356e-09 3.31668269 3.87646502"></polygon>
                                    </g>
                                </g>
                            </g>
                        </g>
                    </g>
                </g>
            </g>
        </g>
    </g>
</svg>