<?xml version="1.0" encoding="UTF-8" standalone="no"?>
<svg width="122px" height="60px" viewBox="0 0 122 60" version="1.1" xmlns="http://www.w3.org/2000/svg" xmlns:xlink="http://www.w3.org/1999/xlink">
    <!-- Generator: Sketch 3.8.2 (29753) - http://www.bohemiancoding.com/sketch -->
    <title>zm</title>
    <desc>Created with Sketch.</desc>
    <defs></defs>
    <g id="Page-1" stroke="none" stroke-width="1" fill="none" fill-rule="evenodd">
        <g id="zm">
            <g>
                <rect id="Rectangle-298" fill="#198A00" x="0" y="0" width="122" height="60"></rect>
                <polygon id="Shape" fill="#EF7D00" points="95.3792072 20.6263611 105.97155 20.6263611 105.97155 60 95.3792072 60"></polygon>
                <polygon id="Shape" fill="#000000" points="84.7993221 20.6075632 95.3802649 20.6075632 95.3802649 60 84.7993221 60"></polygon>
                <polygon id="Shape" fill="#DE2010" points="73.9984841 20.6310606 84.8034356 20.6310606 84.8034356 60 73.9984841 60"></polygon>
                <g id="Group-2" transform="translate(74.592001, 4.173211)" stroke="#000000" fill="#EF7D00">
                    <path d="M24.2824934,2.53840075 C24.2824934,2.53840075 28.2686961,0.834297903 28.6550111,0.482989823 C28.8305982,0.693798186 27.0569807,2.83691856 23.615286,3.62747931 C26.7409475,2.88959126 29.4101296,0.570816843 29.9544025,0.641125488 C30.1124779,0.676279811 30.0773369,2.9072272 22.9128202,4.83965679 C27.8647518,3.53953472 30.7445443,1.15056923 30.7095209,1.41405029 C30.7445443,1.46672299 30.2177831,3.29357203 25.8805238,4.71667545 C27.0922392,4.43544087 30.375976,2.43293778 30.3407175,2.81940019 C30.4461403,2.97753585 27.1624035,7.19346795 21.2275839,5.82338996 C25.9686699,7.05296824 29.0416788,4.08413279 29.4806465,4.13692306 C29.56844,4.154559 28.6027111,6.73681448 22.6322805,6.89483257 C25.4946789,6.59619719 24.6691611,6.87719662 24.6691611,6.87719662 C24.6691611,6.87719662 22.9834546,8.1947195 20.9464566,7.29893092 C22.544487,7.73818359 22.7199565,7.75570197 22.755215,7.89620169 C22.6497922,8.07173815 21.3327716,8.33533679 20.0685212,7.650239 C21.0869027,8.07173815 22.0000965,8.14216437 22.0176082,8.30018246 C22.0000965,8.35285516 21.3504008,8.72179919 20.770987,8.45831813 C20.1915732,8.1947195 14.853209,4.90984786 14.853209,4.90984786 L23.9489485,2.41530183 L24.2826109,2.53828318 L24.2824934,2.53840075 Z M13.5888411,11.4244494 C12.7889444,11.4244494 12.7668491,12.1364714 12.7668491,12.1364714 C12.7668491,12.1364714 12.7009158,12.1878508 12.7448713,12.5330451 C12.876973,12.2978991 12.9430238,12.2245336 12.9430238,12.2245336 C13.0311699,12.2393478 13.3979753,12.3493961 13.9777418,11.894271 C13.4493351,12.4447478 13.7650158,12.6503829 13.7650158,12.6503829 C13.7650158,12.6503829 13.6402009,13.0835218 14.0437926,13.1717015 C13.9190952,12.9953421 13.9924328,12.8413214 13.9924328,12.8413214 C13.9924328,12.8413214 14.5575082,12.782535 14.5208394,12.0924991 C14.5428172,12.7164589 14.8804756,12.8705971 14.8804756,12.8705971 C14.8804756,12.8705971 14.8804756,13.2156738 15.247281,13.2450671 C15.049246,13.0687076 15.0932015,12.797114 15.0932015,12.797114 C15.0932015,12.797114 15.5702483,12.4521549 15.1665391,11.8647602 C15.4086471,11.7253187 15.6069171,11.3362697 15.6069171,11.3362697 C15.6069171,11.3362697 15.276663,11.1967105 15.1227011,11.0793727 C15.0491285,10.9251169 15.1152968,10.0809429 15.1152968,10.0809429 L14.9171443,8.98704384 L14.3519514,10.6903237 C14.3739292,10.4481233 14.3887377,11.4244494 13.5888411,11.4244494 L13.5888411,11.4244494 Z" id="Shape" stroke-width="0.1"></path>
                    <path d="M17.5395502,8.96740915 C17.5570619,8.9850451 18.1365933,9.63510614 18.6983779,9.59995181 C18.9091059,9.4241802 18.2594102,9.0377178 18.2594102,8.94989078 C18.4877674,9.16069914 19.4534963,9.98629664 20.0681686,9.68766126 C20.31392,9.33635318 19.6292009,9.38902588 18.8740825,8.44044703 C19.4008437,8.79175511 20.7178643,9.56467992 21.332419,9.26616211 C21.5959172,8.9850451 19.9627458,8.10665733 19.4183554,7.42155954 L18.0136588,6.70142501 L16.0995952,8.26479299 L17.5395502,8.96740915 L17.5395502,8.96740915 Z" id="Shape" stroke-width="0.1"></path>
                    <path d="M15.3793826,3.62747931 C15.3793826,3.62747931 16.0290783,3.24101691 18.6279785,3.43418932 C18.9088708,3.46934365 20.4014785,2.92474558 20.8757046,2.76672749 C21.6307055,2.6261102 24.0363894,2.09914808 24.6862026,1.60734028 C25.1427996,1.55455001 24.5631507,2.45045616 23.9838544,2.66126452 C23.3691821,2.94238153 21.1390852,3.71530633 20.3487083,3.60996094 C21.2971606,3.62759689 20.7702818,4.40040412 19.1898807,4.03157766 C19.9449991,4.45319439 19.6639893,4.52338546 19.6639893,4.52338546 C19.6639893,4.52338546 18.329457,4.5936941 17.9782828,4.29505872 C18.8738474,4.62884843 18.5050441,4.75182977 18.5050441,4.75182977 C18.5050441,4.75182977 17.5919678,4.83965679 17.1705118,4.6463668 C17.8202075,4.83965679 17.4866625,4.96263813 17.4866625,4.96263813 C17.4866625,4.96263813 16.9597838,5.05046515 16.5208161,4.89232949 C16.0818484,4.73419382 15.4145235,3.62759689 15.3793826,3.62759689 L15.3793826,3.62747931 Z" id="Shape" stroke-width="0.1"></path>
                    <path d="M16.4213873,9.33176784 L16.5168202,11.0497443 C16.5168202,11.0497443 16.4654603,11.137924 16.4213873,11.1891859 C16.3773142,11.2405652 15.2032079,11.0056544 15.3645741,11.9013254 C15.3645741,12.2683883 15.3719783,12.36374 15.6214906,12.5693751 C15.5554398,12.3271748 15.5775351,12.1582224 15.5775351,12.1582224 C15.5775351,12.1582224 15.9076717,12.3564505 16.2306391,11.8132633 C16.0105088,12.3491609 16.1644707,12.5399819 16.2158305,12.5546785 C16.2673079,12.6501478 16.1279195,13.0832866 16.56818,13.0758795 C16.3994095,12.9143343 16.4800338,12.6794234 16.4800338,12.6794234 C16.4800338,12.6794234 16.9425072,12.6061755 16.7809059,11.7691734 C16.9497939,11.6003386 17.0158447,11.7618839 17.0158447,11.7618839 C17.0158447,11.7618839 17.0672045,12.2609812 17.4707962,12.1582224 C17.6543752,12.2609812 17.4414142,12.5326924 17.4414142,12.5326924 C17.4414142,12.5326924 17.7349995,12.5399819 17.8230281,12.2903744 C17.9111743,12.040767 18.0138939,11.5929315 17.5294428,11.4094001 C17.4707962,11.2332757 17.7203085,11.2185791 17.7203085,11.2185791 C17.7203085,11.2185791 18.0285849,11.3213379 18.1166135,11.4754761 C18.2046421,11.6296143 18.1753776,11.0717304 17.7937636,11.012944 C17.3240036,10.9982473 17.2947391,10.9028956 17.2947391,10.8809095 C17.2947391,10.8588058 17.2139972,9.63287225 17.1772109,9.28050601 L16.4213873,9.33176784 L16.4213873,9.33176784 Z" id="Shape" stroke-width="0.1"></path>
                    <path d="M18.0552638,10.7955515 C18.0611402,10.7167776 17.2540743,9.62981535 17.4588084,9.48931564 C17.6634249,9.53140676 17.9990853,10.0258012 18.270928,9.86531404 C18.1885407,9.67261192 17.94561,9.78113178 17.6697714,9.28779554 C17.3940503,8.73014687 17.3538557,7.89290964 16.3880093,6.97960269 C17.0132591,7.94605263 18.4317065,8.51251927 18.4917634,8.2308144 C18.5518203,7.94910953 17.2427916,6.88342799 17.3099002,6.62653102 C17.5702251,7.15396343 18.8845425,8.32910542 19.8529745,8.23175499 C19.919378,8.00554456 19.0598945,7.54889109 18.8387065,7.12257144 C18.2201558,6.70683337 16.5645366,5.27914461 16.5315112,4.94817666 C15.9290618,4.06931859 15.5529717,3.8033685 15.3778547,3.70202058 C15.3101585,3.6223061 15.2932345,3.54611881 15.2799538,3.49756116 C14.9059792,2.6156462 15.4013604,2.32923841 15.6913023,2.28691214 C15.9298845,2.26034064 15.9991086,2.29608283 16.1708172,2.21284115 C15.9674935,2.13336182 15.7641698,2.05893812 15.5610811,1.97934121 C15.8261071,2.17380692 16.5030694,2.00262066 16.3562767,2.56285593 C16.6531528,2.44986829 17.2847492,1.6982242 15.6405302,1.52856638 C15.1054245,0.914482679 12.9055323,0.561528577 12.3547954,3.24160477 C12.3987509,3.27922813 12.4217864,3.31014983 12.5616449,3.41467221 C11.8664659,3.07853104 9.99271439,2.81881232 9.31763263,2.70958702 C7.4928904,2.18297762 5.59810138,0.914012387 5.41593273,1.07003174 C5.17229685,1.17819888 6.51834688,2.43093904 6.4483001,2.45856869 C5.28124546,1.77782111 4.21502998,1.2956543 3.2230923,0.85663677 C2.52509255,0.595624743 1.82615257,-0.0118748715 1.7490541,0.103699373 C1.49213754,0.635952277 2.86792219,1.97405042 3.12389853,2.13136308 C3.37975734,2.2818565 5.39254463,3.21597386 5.36281,3.22761359 C2.33140614,1.85106908 1.82309684,1.6015792 1.6710154,1.44285567 C1.40375636,1.38254073 0.752885402,0.503447523 0.571539449,0.560000128 C0.472228152,0.657585706 0.671438386,2.04671053 2.117975,2.67031764 C2.35373649,2.84220934 5.218838,3.8703851 5.19074877,3.95104017 C5.18369708,3.97114515 1.90924498,2.59895084 1.78196198,2.5499229 C1.15071823,2.30219662 0.376090116,1.43415527 0.231177893,1.53174085 C0.0929647756,1.62039088 0.588345976,2.56003418 1.22628884,2.85467208 C1.56065645,3.00234375 2.84324128,3.63770816 3.99877816,4.0422768 C4.07258585,4.06896587 1.92170297,3.22632029 0.887572674,2.79400442 C0.418635311,2.53369783 0.197917424,2.20919639 0.126460302,2.27903475 C0.0208024846,2.34875553 0.297111192,3.73682219 3.62033748,4.51997584 C3.70789596,4.55724648 4.79009527,4.26343159 4.73661996,4.30246582 C4.72322175,4.31222438 3.66194245,4.54337287 3.5586352,4.5353779 C3.46672817,4.52126915 2.88519883,4.60427567 2.87473883,4.63437436 C2.83959791,4.72831517 3.08546682,5.22529618 4.80126045,5.12171438 C5.02068552,5.10842863 6.21101074,4.68798764 6.11099428,4.77840126 C6.06104481,4.82366686 4.49004588,5.33440391 4.37040221,5.34439762 C4.26650731,5.35909424 3.71459507,5.41682257 3.69414517,5.47560907 C3.6692292,5.55567627 4.10267306,5.90945338 5.02409384,5.96600599 C5.83997434,6.00950799 7.39028831,5.46737896 7.35914335,5.50253328 C7.32811592,5.5376876 5.86477278,6.03925396 5.82634107,6.06982293 C5.7734534,6.09980405 5.23752498,6.12884457 5.21872048,6.17011269 C5.17511753,6.27240119 5.99170319,7.03650802 8.40702444,6.22113937 C8.16432878,6.54905042 6.99363077,6.7732621 6.99539369,6.83228374 C6.98986987,6.87508031 7.25325048,7.1297434 7.66260106,7.22074489 C7.86710006,7.26624563 8.14740473,7.25695737 8.40338106,7.21651226 C8.86291617,7.12445261 9.34748478,6.9425672 9.96297976,6.37351395 C10.0365524,6.55210732 8.42535883,7.36771112 8.50092944,7.44554443 C8.85045819,7.76957558 10.0109313,7.40368845 10.086972,7.3612446 C10.1630127,7.31868318 12.32177,6.1008622 12.3142482,5.96000977 C12.3478612,6.14060187 9.5311813,7.67163728 9.56162109,7.73453883 C9.74237941,8.02306294 10.7045825,7.71925434 10.750536,7.69280042 C10.796372,7.6663465 11.9784702,7.02757247 12.010908,7.00864322 C12.0432282,6.98983154 10.6217251,7.84105996 10.7483029,7.97050781 C10.6870708,8.52321842 12.9684099,7.58910105 13.1470527,7.47270379 C13.2366092,7.41462274 12.0512201,7.99413998 12.0481644,8.26937834 C12.4297783,8.9149716 13.6519537,8.71027704 13.8404689,8.56824887 C13.9347264,8.49711721 13.7295223,9.04782908 13.7956906,8.99774298 C13.8186086,8.98739656 14.0614218,8.70028333 14.1548567,8.49229672 C14.1250045,8.67265368 13.9910224,8.95682759 13.9128662,9.28285747 C13.8345925,9.60888736 13.8121446,9.97677323 13.7048414,10.3675858 C13.6801605,10.5392424 14.4578443,10.0320325 14.3448997,8.81914962 C14.4114207,9.45004626 14.0992659,10.629656 14.1809479,10.6909115 C14.3443121,10.8135402 14.7960903,10.1033993 14.8416913,9.62334884 C14.9759084,9.86578433 15.2573884,10.3720536 15.4996139,10.488686 C15.4731701,10.1216231 15.5041975,10.1384361 15.3951314,9.77783974 C15.4580089,9.29908255 15.4668236,8.6364412 15.4821022,7.88820672 C16.1401424,9.14941214 16.4027003,9.68190019 16.2187687,10.6477623 C16.4144531,10.7293579 16.727078,9.97359876 16.7018095,9.58466733 C16.9532022,10.6655158 18.0378696,10.8276489 18.0551463,10.7961394 L18.0552638,10.7955515 Z" id="Shape" stroke-width="0.1"></path>
                    <path d="M7.09352971,2.78883121 C7.09352971,2.78883121 6.64562988,3.12732383 6.08819381,3.107454 C6.22746468,3.66498509 7.38217887,3.23678428 7.38217887,3.23678428 C7.38217887,3.23678428 6.8247428,3.8542776 6.42655739,3.95386192 C6.66549214,4.15291298 7.67082803,4.0831922 7.84006859,3.98372546 C8.00930914,3.88414114 8.30783067,3.49579757 8.30783067,3.49579757 C8.30783067,3.49579757 7.27264262,4.69069182 7.12338186,4.68058054 C7.10340207,4.8200221 8.20840184,4.77017116 8.4373467,4.56112639 C8.66629156,4.35196405 9.24358989,4.04333496 9.24358989,4.04333496 C9.24358989,4.04333496 7.73064987,5.09878765 7.66095567,5.09878765 C8.2282641,5.24810534 9.36311603,4.91960642 10.0897927,4.4714182 C9.01464503,5.18837826 8.91521621,5.31794369 8.36777003,5.556852 C8.8555119,5.66631245 9.10431902,5.99492894 10.756765,5.27796888 C11.7023966,4.8300158 12.2398528,4.01335385 12.2398528,4.01335385 C11.6525646,4.79991712 10.7267953,5.46726138 9.70159713,6.1243768 C9.6417753,6.24394852 10.7964895,6.73175884 12.2695875,5.19825439" id="Shape" stroke-width="0.1"></path>
                    <path d="M15.0966099,6.11450067 C15.0966099,6.11450067 15.1961562,6.58244115 15.5943416,6.94103875 C15.992527,7.29951879 16.0223792,7.64800511 16.0223792,7.64800511 M14.8978697,3.06747918 C14.8978697,3.06747918 15.0371406,3.48580387 15.4453159,3.75469328 C15.8633636,4.02346513 16.4906114,4.86987305 16.5403258,5.01930831 C16.5885123,5.20013556 16.8288574,6.50307938 16.8089952,6.64240337 M12.3594965,3.71471847 C12.3893487,3.87414744 11.7720908,4.68069811 12.618176,5.62669035 C11.8516573,6.56257131 11.8518924,6.68214304 11.8518924,6.68214304 C11.8518924,6.68214304 12.2796949,6.92116892 13.0463311,6.26393593 C14.3103465,7.81742779 13.8891255,8.52839163 13.8891255,8.52839163" id="Shape" stroke-width="0.1"></path>
                    <path d="M13.7884039,7.43190597 C13.7884039,7.43190597 13.672051,7.26495233 13.8796057,6.64181551 C14.0664755,6.86720292 14.2745004,6.91529027 14.3655847,7.00640933 C14.456669,7.09764597 15.4111152,7.2359118 15.4717597,7.87409796" id="Shape" stroke-width="0.1"></path>
                    <path d="M14.9100927,1.66330333 C14.9100927,1.59755507 14.7179341,1.01933287 14.0008948,1.74206942 C14.3852119,1.77502595 14.7648279,2.08382857 14.9100927,1.66330333 L14.9100927,1.66330333 Z" id="Shape" stroke-width="0.1"></path>
                    <path d="M21.7537575,3.46934365 C21.7890159,3.48697959 23.8961783,3.94363307 24.5985266,3.71530633 C23.7029621,4.90984786 21.9118329,4.10176873 21.9118329,4.10176873 C22.7897682,4.36513222 22.8250267,4.34773142 23.105919,4.59357653 C23.1937125,4.82202084 21.4903769,4.71655787 20.9284747,4.40040412 C22.4913642,4.89221191 22.5263876,4.85705759 22.5791578,5.05034758 C22.6494396,5.31382864 20.0153985,4.98003893 19.7871588,4.62873085 C20.4895071,5.17332892 20.8758221,5.27867432 21.2621372,5.524637 C20.7880286,5.73544536 19.9100932,5.94625373 18.2945511,4.80438489 C20.4192252,6.73669691 22.3332889,6.61383314 22.6318104,6.96514122 C21.8943212,8.05421978 19.0319228,6.31519775 17.7150198,5.43669241 C16.3979992,4.55842221 20.5948123,7.56241198 20.9812449,7.50950414 C20.7880286,7.80813952 19.4008437,7.54477603 19.3129326,7.40415874" id="Shape" stroke-width="0.1"></path>
                    <path id="Shape" stroke-width="0.993204787"></path>
                    <path d="M6.47638933,2.47009085 C6.47638933,2.47009085 8.07900334,3.31649877 8.75584802,3.25665412 C8.5767351,3.42595922 8.30783067,3.49568 8.30783067,3.49568 C8.47707122,3.56540078 8.94495083,3.81430279 9.65176519,3.65510896 C9.48252464,3.82441406 9.26356968,4.013589 9.26356968,4.013589 C9.26356968,4.013589 9.87072016,4.24262117 10.5575547,3.88414114 C10.3485897,4.14303685 10.2290635,4.33209421 10.2290635,4.33209421 L10.7068155,4.36207532" id="Shape" stroke-width="0.1"></path>
                </g>
            </g>
        </g>
    </g>
</svg>