<?xml version="1.0" encoding="UTF-8" standalone="no"?>
<svg width="122px" height="60px" viewBox="0 0 122 60" version="1.1" xmlns="http://www.w3.org/2000/svg" xmlns:xlink="http://www.w3.org/1999/xlink">
    <!-- Generator: Sketch 3.8.2 (29753) - http://www.bohemiancoding.com/sketch -->
    <title>il</title>
    <desc>Created with Sketch.</desc>
    <defs></defs>
    <g id="Page-1" stroke="none" stroke-width="1" fill="none" fill-rule="evenodd">
        <g id="il">
            <g transform="translate(-1.000000, 0.000000)" id="Clipped">
                <g>
                    <g id="Group" transform="translate(0.766955, 0.000000)">
                        <path d="M122.233045,10 L0.233045213,10 L0.233045213,-1.77635684e-15 L122.233045,-1.77635684e-15 L122.233045,10 Z M122.233045,60 L0.233045213,60 L0.233045213,50 L122.233045,50 L122.233045,60 Z M44.9354687,20.4454588 L60.4210937,47.3807713 L76.24,20.5565525 L44.9354687,20.4454588 L44.9354687,20.4454588 Z" id="Shape" fill="#0000CC"></path>
                        <polygon id="Shape" fill="#FFFFFF" points="57.4960938 38.3090525 60.4421875 43.3020838 63.4515625 38.3295838 57.4960938 38.3091932"></polygon>
                        <polygon id="Shape" fill="#0000CC" points="44.8778125 38.6985838 60.3648437 11.7632713 76.1823437 38.58749 44.8778125 38.6985838"></polygon>
                        <path d="M57.4960938,20.5621775 L60.4421875,15.5691463 L63.4515625,20.5416463 L57.4960938,20.5620369 L57.4960938,20.5621775 Z M51.3395313,31.741865 L48.2964063,36.8018338 L54.0479688,36.7839744 L51.3395313,31.741865 L51.3395313,31.741865 Z M48.3484375,22.3903025 L54.1457031,22.4310838 L51.3565469,27.5301463 L48.3485781,22.3903025 L48.3484375,22.3903025 Z M69.6165625,31.7995213 L72.5457813,36.8023963 L66.6803125,36.7274432 L69.6165625,31.7995213 L69.6165625,31.7995213 Z M72.4923438,22.3903025 L66.6950781,22.4310838 L69.484375,27.5301463 L72.4923438,22.3903025 L72.4923438,22.3903025 Z M56.423125,22.3846775 L52.4302188,29.6289744 L56.4802188,36.70199 L63.895375,36.8731307 L68.4015625,29.6288338 L64.2376563,22.3275838 L56.4228438,22.3845369 L56.423125,22.3846775 Z" id="Shape" fill="#FFFFFF"></path>
                    </g>
                </g>
            </g>
        </g>
    </g>
</svg>