<?xml version="1.0" encoding="UTF-8" standalone="no"?>
<svg width="122px" height="60px" viewBox="0 0 122 60" version="1.1" xmlns="http://www.w3.org/2000/svg" xmlns:xlink="http://www.w3.org/1999/xlink">
    <!-- Generator: Sketch 3.8.2 (29753) - http://www.bohemiancoding.com/sketch -->
    <title>pf</title>
    <desc>Created with Sketch.</desc>
    <defs></defs>
    <g id="Page-1" stroke="none" stroke-width="1" fill="none" fill-rule="evenodd">
        <g id="pf">
            <g transform="translate(0.000000, -290.000000)">
                <rect id="Rectangle-213" fill="#FFFFFF" x="0" y="290" width="122" height="60"></rect>
                <g id="Clipped">
                    <g id="Group">
                        <polygon id="Shape" fill="#FFFFFF" points="31 290 91 290 91 350 31 350"></polygon>
                        <path d="M55.66,332.59375 C55.66,332.59375 57.014875,331.49525 58.33325,331.49525 C59.651625,331.49525 60.017875,332.410625 60.933375,332.483875 C61.848875,332.557125 62.61775,331.568375 63.753125,331.53175 C64.888375,331.49525 66.316625,332.337375 66.316625,332.337375 L61.33625,333.839 L55.66,332.59375 L55.66,332.59375 Z M52.80375,330.9825 L69.7225,331.05575 C69.7225,331.05575 68.25775,329.481125 66.5365,329.4445 C64.815375,329.407625 65.2915,330.177 63.973125,330.286625 C62.654875,330.396625 62.325,329.481125 61.116625,329.517625 C59.908375,329.554125 59.212375,330.286625 58.297,330.323375 C57.3815,330.359875 56.209625,329.407625 55.51375,329.444625 C54.817875,329.481125 52.32775,330.543 52.32775,330.543 L52.803875,330.9825 L52.80375,330.9825 Z M50.64375,328.96875 L71.5175,329.042125 C71.847,328.566125 70.492,327.430875 69.247125,327.320875 C68.2215,327.3575 67.489375,328.382875 66.647,328.419625 C65.804625,328.456125 64.852625,327.3575 63.900375,327.394375 C62.948375,327.430875 61.959625,328.419625 61.007375,328.419625 C60.055375,328.419625 59.3595,327.3575 58.151125,327.3575 C56.942625,327.3575 56.393375,328.529375 55.477875,328.45625 C54.562125,328.382875 53.756625,327.284375 52.87775,327.284375 C51.999,327.284375 50.534,328.602625 50.241125,328.529375 C49.948125,328.456125 50.607125,329.07875 50.644,328.96875 L50.64375,328.96875 Z" id="Shape" stroke="#083D9C" stroke-width="0.1" fill="#083D9C"></path>
                        <path d="M58.6625,317.36 L63.46,318.641875 L63.46,311.793625 C61.262625,311.903625 59.43175,307.619 63.3135,307.326 C59.505,306.776625 59.065375,307.765375 58.626,308.827375 L58.6625,317.36 L58.6625,317.36 Z" id="Shape" stroke="#000000" stroke-width="0.1" fill="#FF0000"></path>
                        <path id="Shape" stroke="#083D9C" stroke-width="5" fill="#083D9C"></path>
                        <g transform="translate(56.125000, 319.625000)" id="Shape" stroke="#000000" stroke-width="0.3">
                            <path d="M0.01175,0.114875 L1.2935,1.836125 M0.01175,1.8375 L1.4035,0.153 M0.74525,0.004625 L0.70875,1.066625"></path>
                        </g>
                        <g transform="translate(58.125000, 319.625000)" id="Shape" stroke="#000000" stroke-width="0.3">
                            <path d="M0.0625,0.114875 L1.34425,1.836125 M0.0625,1.8375 L1.45425,0.153 M0.796,0.004625 L0.7595,1.066625"></path>
                        </g>
                        <g transform="translate(60.250000, 319.625000)" id="Shape" stroke="#000000" stroke-width="0.3">
                            <path d="M0.02475,0.114875 L1.306625,1.836125 M0.02475,1.8375 L1.4165,0.153 M0.758375,0.004625 L0.721875,1.066625"></path>
                        </g>
                        <g transform="translate(62.375000, 319.625000)" id="Shape" stroke="#000000" stroke-width="0.3">
                            <path d="M0.0605,0.114875 L1.34225,1.836125 M0.0605,1.8375 L1.45225,0.153 M0.794,0.004625 L0.7575,1.066625"></path>
                        </g>
                        <g transform="translate(64.500000, 319.625000)" id="Shape" stroke="#000000" stroke-width="0.3">
                            <path d="M0.022875,0.114875 L1.304625,1.836125 M0.022875,1.8375 L1.414625,0.153 M0.756375,0.004625 L0.719875,1.066625"></path>
                        </g>
                        <path d="M48.33625,322.45 L52.950375,322.486625 L52.950375,319.59375 L47.677,319.3375 L48.33625,322.45025 L48.33625,322.45 Z M48.11625,318.45875 L53.0235,318.934875 L52.987,316.884125 L48.1895,314.979875 L48.116125,318.458875 L48.11625,318.45875 Z M49.105,314.3575 L52.877,316.1885 L53.415625,315.62625 C53.415625,315.62625 53.06875,315.38725 53.085875,315.16725 C53.092375,314.94475 53.434875,314.911 53.441375,314.66975 C53.447625,314.44725 53.0535,314.4205 53.04925,314.198 C53.0235,313.95675 53.353,313.69825 53.353,313.69825 L49.947375,310.732 L49.105,314.3575 L49.105,314.3575 Z M73.86,322.48625 L68.9895,322.48625 L68.953,319.6665 L74.2995,319.263625 L73.86,322.486125 L73.86,322.48625 Z M69.02625,319.0075 L74.8125,318.311875 L73.56725,314.979375 L68.98975,316.920125 L69.02625,319.007375 L69.02625,319.0075 Z M73.2375,314.06375 L69.06275,316.261 C69.00175,316.022875 68.95,315.793875 68.660125,315.60175 C68.660125,315.60175 68.916375,315.45525 68.916375,315.19875 C68.916375,314.942625 68.586625,314.905875 68.586625,314.759375 C68.586625,314.612875 68.88875,314.485 68.907125,314.15525 C68.8705,313.926375 68.586625,313.606125 68.641625,313.541875 L71.882625,311.060625 L73.2375,314.06375 L73.2375,314.06375 Z M64.1925,318.9525 L66.27975,318.861 L66.31625,318.0185 L64.1925,318.9525 L64.1925,318.9525 Z M57.82125,318.88875 L55.624,318.82475 L55.624,317.94575 L57.82125,318.88875 L57.82125,318.88875 Z M57.81125,318.6325 L55.623125,317.50625 L55.623125,316.0415 C55.623125,316.0415 55.36675,316.078125 55.403375,315.78525 C55.4155,315.17475 57.0115,316.899 57.8295,317.4605 L57.81125,318.632375 L57.81125,318.6325 Z M64.1925,318.495 L64.1835,317.543 C64.1835,317.543 66.16075,315.757875 66.581875,315.428 C66.581875,315.79425 66.353125,316.078 66.353125,316.078 L66.353125,317.469625 L64.1925,318.494875 L64.1925,318.495 Z M51.375,310.475 C51.4115,310.511625 53.59375,312.937 53.59375,312.937 C53.655,312.707125 54.158125,312.67225 54.67075,312.708875 C55.1835,312.745375 55.59225,312.6745 55.59225,313.04075 C55.59225,313.407 55.332125,313.354875 55.332125,313.611375 C55.332125,313.867875 55.721875,313.84625 55.721875,314.1755 C55.721875,314.505 55.43925,314.43775 55.43775,314.693 C55.436875,314.904 55.73275,314.91525 55.73275,314.91525 L57.810875,316.9295 L57.82,314.777875 L53.5355,308.058125 L51.375,310.475 L51.375,310.475 Z M54.80375,307.93125 C54.83625,308.029 57.70575,313.865875 57.70575,313.865875 C57.70575,313.865875 57.73825,308.38775 58.227375,308.09425 L57.412375,306.59425 L54.803625,307.93125 L54.80375,307.93125 Z M67.4225,308.15875 L64.182125,313.939375 L64.186375,311.503 C64.186375,311.503 64.455125,311.093375 64.031125,311.126 C63.607375,311.1585 63.085625,311.093375 63.085625,311.093375 L64.389875,306.52825 L67.422375,308.15875 L67.4225,308.15875 Z M70.74875,310.6375 C70.716125,310.70275 68.56275,312.8925 68.56275,312.8925 C68.465,312.63175 67.814,312.756875 67.194375,312.756875 C66.57475,312.756875 66.4885,312.955625 66.52125,313.1185 C66.5865,313.5425 66.79575,313.230125 66.79575,313.6215 C66.79575,314.01275 66.49425,313.869875 66.467375,314.156375 C66.497375,314.485375 66.940625,314.404 66.680875,314.653375 L64.1875,317.047 L64.194625,314.77875 L68.824875,307.57225 L70.748875,310.63725 L70.74875,310.6375 Z" id="Shape" fill="#EF7D08"></path>
                        <path d="M59.7275,323.55 C58.684,325.27825 55.8945,324.76575 55.24225,323.559125 C55.04675,323.50375 55.162375,316.115375 55.162375,316.115375 C55.162375,316.115375 54.85075,315.973375 54.836375,315.746125 C54.822,315.51675 55.260125,315.495875 55.260125,315.20225 C55.260125,314.90875 54.81275,315.023875 54.803875,314.7285 C54.80575,314.446 55.281375,314.485 55.260125,314.224 C55.235,313.929875 54.727375,313.973375 54.705875,313.702125 C54.689375,313.48675 55.068875,313.299 55.174375,313.202125 C55.106125,313.2055 54.821875,313.197875 54.82,313.196875 L54.021,313.213125 C53.453375,313.21375 54.03075,313.336875 54.0225,313.664375 C54.01725,313.878375 53.734625,314.02075 53.70925,314.206875 C53.700375,314.39775 54.11375,314.531875 54.119,314.761125 C54.123625,314.965625 53.71275,314.979625 53.7275,315.169625 C53.753125,315.49125 54.0915,315.562 54.086375,315.756625 C54.08125,315.951125 53.631,316.025375 53.629875,316.1805 C53.6455,316.48075 53.695,323.778125 53.695,323.778125 C54.4125,327.4955 58.5535,328.441125 59.7275,323.55 L59.7275,323.55 Z M62.4575,323.55 C63.501,325.27825 66.290375,324.76575 66.942625,323.559125 C67.138125,323.50375 67.022625,316.115375 67.022625,316.115375 C67.022625,316.115375 67.33425,315.973375 67.3485,315.746125 C67.36275,315.51675 66.95225,315.495875 66.95225,315.20225 C66.95225,314.90875 67.37225,315.023875 67.381,314.7285 C67.37925,314.446 66.940125,314.46675 66.961375,314.205625 C66.986375,313.9115 67.33125,313.945875 67.350875,313.67475 C67.36725,313.441125 67.134375,313.298875 67.028875,313.202 C67.097125,313.205375 67.363,313.19775 67.365,313.196875 L68.163875,313.213125 C68.731625,313.21375 68.154125,313.336875 68.162625,313.664375 C68.167625,313.878375 68.45025,314.02075 68.47575,314.206875 C68.4845,314.39775 68.071125,314.531875 68.065875,314.761125 C68.061375,314.965625 68.472125,314.9795 68.45725,315.169625 C68.43175,315.491125 68.093375,315.562 68.0985,315.756625 C68.103625,315.951125 68.554,316.025375 68.555,316.180375 C68.539375,316.48075 68.49,323.778125 68.49,323.778125 C67.7725,327.4955 63.6315,328.441125 62.4575,323.55 L62.4575,323.55 Z" id="Shape" stroke="#000000" stroke-width="0.1" fill="#FF0000"></path>
                        <path d="M58.71375,326.94875 L63.373375,326.946 C63.409625,326.909375 62.330125,325.33675 61.044375,325.447625 C59.611875,325.485125 58.638875,326.94875 58.713875,326.94875 L58.71375,326.94875 Z M73.57125,326.835 L67.19525,326.835 C67.19525,326.835 68.0205,326.347375 68.2455,325.89725 C68.658,326.12225 68.5455,326.34725 69.37075,326.38475 C70.19575,326.42225 70.98325,325.44725 71.771125,325.48475 C72.558625,325.52225 73.571125,326.8725 73.571125,326.835 L73.57125,326.835 Z M48.44625,326.835 L54.82225,326.835 C54.82225,326.835 53.997,326.347375 53.772,325.89725 C53.3595,326.12225 53.472,326.34725 52.64675,326.38475 C51.821875,326.42225 51.03425,325.44725 50.246375,325.48475 C49.458875,325.52225 48.446375,326.8725 48.446375,326.835 L48.44625,326.835 Z M48.9225,324.83 L53.463375,324.8665 C53.463375,324.8665 53.170375,324.244 53.133875,323.47525 C51.96175,323.0725 51.00975,324.354 50.167375,324.390625 C49.325375,324.427125 48.4465,323.475125 48.4465,323.475125 L48.9225,324.830125 L48.9225,324.83 Z M73.165,324.83 L68.624,324.8665 C68.624,324.8665 68.917,324.244 68.953625,323.47525 C70.125625,323.0725 71.077625,324.354 71.919875,324.390625 C72.762125,324.427125 73.641,323.475125 73.641,323.475125 L73.165,324.830125 L73.165,324.83 Z M59.87125,324.8675 L62.178125,324.7945 C62.178125,324.7945 62.214875,324.098625 61.006375,324.098625 C59.797875,324.098625 59.907875,324.90425 59.87125,324.8675 L59.87125,324.8675 Z M58.48,323.87875 C58.882875,323.65875 59.249,323.439375 59.5055,322.9265 L57.93075,322.963 C57.93075,322.963 57.1985,323.402625 56.83225,323.87875 L58.480125,323.87875 L58.48,323.87875 Z M63.57,323.87875 C63.167125,323.65875 62.801125,323.439375 62.544625,322.9265 L64.11925,322.963 C64.11925,322.963 64.8515,323.402625 65.21775,323.87875 L63.57,323.87875 L63.57,323.87875 Z" id="Shape" stroke="#083D9C" stroke-width="0.1" fill="#083D9C"></path>
                        <path d="M0,335 L122,335 L122,350 L0,350 L0,335 Z M0,290 L122,290 L122,305 L0,305 L0,290 Z" id="Shape" fill="#DE2010"></path>
                    </g>
                </g>
            </g>
        </g>
    </g>
</svg>