<?xml version="1.0" encoding="UTF-8" standalone="no"?>
<svg width="122px" height="60px" viewBox="0 0 122 60" version="1.1" xmlns="http://www.w3.org/2000/svg" xmlns:xlink="http://www.w3.org/1999/xlink">
    <!-- Generator: Sketch 3.8.2 (29753) - http://www.bohemiancoding.com/sketch -->
    <title>gs</title>
    <desc>Created with Sketch.</desc>
    <defs>
        <linearGradient x1="103.058305%" y1="69.8338997%" x2="106.03114%" y2="-15.8908484%" id="linearGradient-1">
            <stop stop-color="#474747" offset="0%"></stop>
            <stop stop-color="#FF5500" offset="100%"></stop>
        </linearGradient>
        <linearGradient x1="219.062357%" y1="-8.57313546%" x2="219.642376%" y2="101.596279%" id="linearGradient-2">
            <stop stop-color="#B50000" offset="0%"></stop>
            <stop stop-color="#FFC500" offset="100%"></stop>
        </linearGradient>
        <linearGradient x1="60.9595235%" y1="29.6672686%" x2="118.176%" y2="27.3211413%" id="linearGradient-3">
            <stop stop-color="#D5DFFF" offset="0%"></stop>
            <stop stop-color="#FFFFFF" offset="100%"></stop>
        </linearGradient>
        <linearGradient x1="448.775987%" y1="44.3331702%" x2="562.342911%" y2="44.3331702%" id="linearGradient-4">
            <stop stop-color="#474747" offset="0%"></stop>
            <stop stop-color="#FF5500" offset="100%"></stop>
        </linearGradient>
        <linearGradient x1="133.030128%" y1="41.8013857%" x2="37.3111784%" y2="-52.9275914%" id="linearGradient-5">
            <stop stop-color="#D5DFFF" offset="0%"></stop>
            <stop stop-color="#FFFFFF" offset="100%"></stop>
        </linearGradient>
        <linearGradient x1="255.655118%" y1="71.936467%" x2="219.643226%" y2="1.61455014%" id="linearGradient-6">
            <stop stop-color="#D5DFFF" offset="0%"></stop>
            <stop stop-color="#FFFFFF" offset="100%"></stop>
        </linearGradient>
    </defs>
    <g id="Page-1" stroke="none" stroke-width="1" fill="none" fill-rule="evenodd">
        <g id="gs">
            <g id="Group">
                <g>
                    <polygon id="Shape" fill="#000066" points="0 0 122 0 122 60 0 60"></polygon>
                    <g id="Shape">
                        <path d="M0,0 L0,4.06754461 L49.6758483,36.381721 L55.92871,36.381721 L55.92871,32.3142999 L6.25286176,0 L0,0 L0,0 Z M55.92871,0 L55.92871,4.06742115 L6.25286176,36.3814741 L0,36.3814741 L0,32.3141764 L49.6758483,0 L55.92871,0 L55.92871,0 Z" fill="#FFFFFF"></path>
                        <path d="M23.3035676,12.1271992 L23.3035676,0 L23.3035676,0 L32.6250192,0 L32.6250192,12.1271992 L55.92871,12.1271992 L55.92871,24.2543984 L32.6250192,24.2543984 L32.6250192,36.3814741 L23.3035676,36.3814741 L23.3035676,24.2543984 L0,24.2543984 L0,12.1271992 L23.3035676,12.1271992 Z" fill="#FFFFFF"></path>
                        <path d="M25.1679072,21.8290079 L0,21.8290079 L0,14.5525896 L0,14.5523427 L25.1679072,14.5523427 L25.1679072,0 L30.7608028,0 L30.7608028,14.5523427 L55.92871,14.5523427 L55.92871,21.8290079 L30.7608028,21.8290079 L30.7608028,36.3814741 L25.1679072,36.3814741 L25.1679072,21.8290079 Z M0,36.3814741 L18.6429033,24.2543984 L22.8113957,24.2543984 L4.16849238,36.3814741 L0,36.3814741 L0,36.3814741 Z M0,0 L18.6429033,12.1271992 L14.474411,12.1271992 L0,2.71181987 L0,0 L0,0 Z M33.1173143,12.1271992 L51.7602176,0 L55.92871,0 L37.2858067,12.1271992 L33.1173143,12.1271992 L33.1173143,12.1271992 Z M55.92871,36.3814741 L37.2858067,24.2543984 L41.4542991,24.2543984 L55.92871,33.6699012 L55.92871,36.3815976 L55.92871,36.3814741 Z" fill="#CC0000"></path>
                    </g>
                    <path d="M57.1325907,43.2047907 C57.1325907,43.2047907 56.7780299,44.1443286 56.5753709,44.1443286 C56.3725887,44.1443286 55.637842,43.738142 55.637842,43.738142 C55.637842,43.738142 55.1056311,44.6011341 54.827206,44.6521235 C54.5484113,44.7027425 53.8136646,44.5249587 53.8136646,44.5249587 C53.8136646,44.5249587 53.1042965,44.5249587 53.0789179,44.4237207 C53.0535393,44.3219889 53.1042965,44.1187721 53.1042965,44.1187721 C53.1042965,44.1187721 52.0907551,44.9313921 51.8627175,44.8805262 C51.6348031,44.8299072 50.8746779,43.8649364 50.8746779,43.8649364 L50.747785,44.3739659 L49.303547,44.3229766 L48.0367127,43.5101096 C48.0367127,43.5101096 47.3273446,44.6780503 47.301966,44.6527408 C47.2767106,44.6273078 46.0605102,44.9320094 46.0605102,44.9320094 L45.9844977,44.7036067 L45.1736153,44.2211213 C45.1736153,44.2211213 45.8068477,43.3322024 45.8068477,43.3068929 C45.8068477,43.2815834 45.5029208,43.179975 45.5029208,43.179975 L45.047092,43.5608521 L44.1095632,44.1701319 L43.1720343,43.7385124 L43.5775987,42.9770052 L43.6281094,42.4183444 L44.3629793,41.3010228 L53.3573431,32.541468 L57.7912017,40.7426089 L57.1324675,43.205408 L57.1325907,43.2047907 Z" id="Shape" stroke="#000000" stroke-width="0.1" fill="#6A4C2D"></path>
                    <path d="M63.5228171,43.7360432 L65.863929,43.6518428 L64.8672655,43.1584928 L73.7879575,42.8214444 L72.5274062,42.3403171 L71.4108721,40.8242166 L66.7885221,40.4753159 C66.7885221,40.4753159 66.4402443,40.2104922 65.8760023,40.3428423 C65.8519789,39.9819659 65.4196807,39.5126908 65.4196807,39.5126908 L62.5742005,39.2961403 L60.7970843,40.511243 L61.9977619,43.5913469 L63.5226939,43.7357963 L63.5228171,43.7360432 Z" id="Shape" stroke="#000000" stroke-width="0.1" fill="#FFFFFF"></path>
                    <path d="M54.4044187,17.4516504 L54.6400501,16.6488505 C54.6400501,16.6488505 55.0524051,15.9521208 55.0524051,15.6451648 C55.0524051,15.3381026 55.3585988,14.9720063 55.3585988,14.9720063 C55.3585988,14.9720063 56.3012305,14.7005132 56.5014749,15.2790685 C57.5146689,13.744076 58.7045864,15.2081426 58.7045864,15.2081426 L59.0345128,14.8184752 L59.7062319,13.9921041 C59.7062319,13.9921041 60.6604121,14.8892948 60.6721725,15.0427198 C60.6839329,15.1961447 60.8371357,15.0899683 60.8371357,15.0899683 L61.8739564,15.007363 C61.8739564,15.007363 62.3659853,15.3933143 62.2627906,16.1290107 C62.6281041,16.3449736 62.9578186,17.6165424 62.9578186,17.6165424 L54.4045246,17.4513319 L54.4044187,17.4516504 Z" id="Shape" stroke="#000000" stroke-width="0.1" fill="url(#linearGradient-1)"></path>
                    <path d="M63.5086495,27.00338 C63.687285,26.8931294 64.2506648,26.714111 64.1819208,25.8879103 C64.1133001,25.0617096 63.3987578,24.9652866 63.0002156,24.9928184 C62.6016734,25.0203501 62.2444022,25.3644358 62.2444022,25.3644358 L60.9253324,24.5246544 C60.9253324,24.5246544 61.5848057,20.3520445 62.2856732,20.0904308 C62.9511832,19.6097973 63.0689595,19.401889 63.0689595,19.2916384 C63.0689595,19.1813878 62.82158,18.9061933 62.82158,18.9061933 L58.5205277,18.3966699 L54.4530568,18.8786615 C54.4530568,18.8786615 54.1371798,19.3606531 54.1783276,19.5533756 C54.2194754,19.7460982 54.2332734,19.9527718 54.9616139,20.5173587 C55.767322,21.1383673 56.3219547,24.7036728 56.3219547,24.7036728 C56.3219547,24.7036728 55.1813973,25.2682597 55.1127766,25.1993685 C55.0440326,25.1306008 54.7005595,25.0617096 54.5219239,25.0892414 C54.3432883,25.1167731 53.7523125,25.4197463 53.7523125,26.2045876 C53.7523125,26.9895524 54.3431651,27.4441356 54.3431651,27.4441356 C54.3431651,27.4441356 58.231754,26.9897993 58.809055,28.0636627 C59.3723115,26.769298 63.0687131,27.2237578 63.5084031,27.00338 L63.5086495,27.00338 Z" id="Shape" stroke="#000000" stroke-width="0.1" fill="#656263"></path>
                    <path d="M67.6979621,22.6659497 C67.6979621,22.6659497 67.7410811,22.212848 68.0638571,21.9974087 C68.3866331,21.7817224 70.5386376,21.673941 71.0550793,21.9974087 C71.571521,22.3208764 71.7653098,23.9168561 71.7653098,23.9168561 C71.7653098,23.9168561 72.0880858,24.4776158 72.1096453,24.8872592 C72.1312048,25.2969027 72.1742005,25.577406 72.1742005,25.577406 C72.1742005,25.577406 73.895878,27.8204446 73.9174375,29.8476735 C74.1111031,31.2279669 74.0679842,34.9157457 73.5299831,36.3176448 C73.5083004,38.0643704 72.7766336,39.2074954 72.7766336,39.2074954 C72.7766336,39.2074954 72.948863,39.5093574 72.9273035,39.8329486 C72.9057441,40.1564163 72.7335147,40.4584018 72.7335147,40.4584018 L75.2514142,41.7093081 L74.326205,41.3642348 C74.326205,41.3642348 75.2730969,42.1617925 75.2514142,42.1404338 C75.2299779,42.1188281 74.1968482,41.6443677 74.1968482,41.6443677 L74.8210872,42.2696974 C74.7995277,42.2480918 73.2931985,41.5795507 73.2931985,41.5795507 C73.2931985,41.5795507 74.0031826,42.2482152 73.9601868,42.2264861 C73.9170679,42.2050039 72.8196294,41.6873321 72.8196294,41.6873321 C72.8196294,41.6873321 73.5083004,42.4206902 73.4868641,42.3774788 C73.4654279,42.3342675 72.4968533,41.9462297 72.4968533,41.9462297 L72.5399723,42.3129088 C72.5399723,42.3129088 71.7650634,42.2696974 71.7650634,41.6873321 C71.3778553,41.4716458 71.1195113,41.1697838 71.1195113,41.1697838 L69.3334018,40.8679217 L67.3105077,34.8077173 L67.7839536,24.5636681 L67.9129408,24.0459963 L67.6975925,22.6657028 L67.6979621,22.6659497 Z" id="Shape" stroke-opacity="0.979" stroke="#000000" stroke-width="0.1" fill="#000000"></path>
                    <path d="M66.3459987,55.4033503 C66.3459987,55.4033503 65.3099122,53.2183383 64.7932242,53.18772 C64.3270469,52.2973196 66.4132642,45.0162098 70.4488271,44.6010106 C72.6676043,44.7843501 70.6311586,47.1644304 69.1725065,46.4319366 C69.3545917,47.0726989 70.0841641,47.9881619 70.0841641,47.9881619 C70.0841641,47.9881619 67.1966737,49.2394387 66.3458755,55.4034738 L66.3459987,55.4033503 Z" id="Shape" stroke="#000000" stroke-width="0.1" fill="#FFBB00"></path>
                    <path d="M52.4539397,55.7218796 C52.4539397,55.7218796 53.3113906,53.2356229 53.8321441,53.2050046 C54.3527745,53.1741393 52.4539397,44.9175645 48.3190801,44.8562044 C46.0833017,45.0404082 48.1355167,47.4344395 49.6055028,46.6978715 C49.4219393,47.3423377 48.6866999,48.2633564 48.6866999,48.2633564 C48.6866999,48.2633564 51.5963657,49.5216704 52.4540629,55.7218796 L52.4539397,55.7218796 Z" id="Shape" stroke="#000000" stroke-width="0.1" fill="#FFBB00"></path>
                    <path d="M56.2468046,40.1914792 C56.2369488,40.1714785 55.2205739,40.5109961 55.8784457,41.6193051 C55.928094,41.1899079 56.3863867,40.930393 56.3863867,40.930393 C56.3863867,40.930393 55.6890919,41.7590629 56.4263026,42.4579754 C56.5158667,41.7990643 56.9343668,41.5894276 56.9343668,41.5894276 C56.9343668,41.5894276 56.4164468,43.11701 56.944469,43.4265266 C57.0042195,42.8173702 57.3929059,42.547855 57.3929059,42.547855 C57.3929059,42.547855 56.9245111,43.9158023 57.3430111,44.2253189 C57.3927827,43.7061656 57.7415533,43.4764048 57.7415533,43.4764048 C57.7415533,43.4764048 57.5321185,44.8943539 58.080345,44.9941103 C58.0902007,44.4949577 58.4887429,44.0056819 58.4887429,44.0056819 C58.4887429,44.0056819 58.3093681,45.1637457 59.1663262,45.2138708 C59.1761819,44.7743498 59.335722,44.2751972 59.335722,44.2751972 C59.335722,44.2751972 59.7242852,45.5033867 60.2921,45.3036269 C60.2822442,44.9443555 60.3019558,44.2653203 60.2921,44.2653203 C60.2822442,44.2653203 60.6508495,45.4335078 61.3281864,45.2138708 C61.2287665,44.8842301 61.3682255,44.4948342 61.3682255,44.4948342 C61.3682255,44.4948342 61.726975,45.2237477 62.3747446,44.98411 C62.4841435,44.7643495 62.3445614,44.3350757 62.3445614,44.3350757 C62.3445614,44.3350757 63.2912068,45.3136273 63.5802269,44.7244716 C63.8691238,44.1353159 62.822812,43.9355561 62.822812,43.9355561 L63.5303321,43.9355561 C63.5303321,43.9355561 63.3011858,43.3367705 62.3445614,43.2067661 C62.6734973,43.0570079 63.0122889,43.1667647 63.0122889,43.1667647 C63.0122889,43.1667647 62.8129562,42.417974 61.8364971,42.3380948 C62.2152046,42.2082139 62.6335814,42.2980934 62.6335814,42.2980934 C62.6335814,42.2980934 62.5042246,41.5894276 61.4280992,41.3894208 C61.5976182,41.1997848 62.0557877,41.2597868 62.0557877,41.2597868 C62.0557877,41.2597868 61.6274319,40.5906284 61.1392023,40.6306298 C60.6509727,40.6706311 56.2371952,40.1812319 56.247051,40.1913557 L56.2468046,40.1914792 Z" id="Shape" stroke="#000000" stroke-width="0.1" fill="#00713D"></path>
                    <path d="M60.6003388,43.7961687 C60.6003388,43.7961687 60.988902,43.9859281 60.9789231,44.155687 M60.8302243,43.4871459 C60.8302243,43.4871459 61.3284328,43.8365404 61.3184539,44.0961788 M61.2678199,43.306646 C61.2678199,43.306646 61.6663621,43.556284 61.68632,43.9458033 M61.9353011,43.4668983 C61.9353011,43.4668983 62.1756245,43.8965424 62.0912588,43.9761747 M62.3470296,43.6962888 C62.3892905,44.0358064 62.3047687,44.0656839 62.3047687,44.0656839 M57.4218572,41.5495497 C57.4218572,41.5495497 57.8900056,41.8489425 57.8503362,42.2683393 M57.3921667,41.9094384 C57.3921667,41.9094384 57.6114573,42.1189516 57.5615625,42.2588329 M57.9706997,41.5600439 C57.9706997,41.5600439 58.2795544,41.9894411 58.1798881,42.2889573 M58.4983522,41.8393125 C58.4983522,41.8393125 58.6952218,42.1089513 58.5122653,42.2587094 M58.7473333,41.9688231 C58.7473333,41.9688231 58.9864637,42.2384618 58.7751594,42.3280945 M58.5587188,42.857495 C58.5587188,42.857495 58.9970535,42.9574984 59.0569273,43.2868922 M58.817186,42.5582257 C58.817186,42.5582257 59.2754787,42.5881032 59.3253734,43.077379 M59.4252862,42.3882199 C59.4351419,42.3882199 59.734141,42.9173736 59.6843694,43.0870089 M60.0134285,42.4380982 C60.0134285,42.4380982 60.1821241,42.9473746 60.0555154,43.1070096 M60.3916431,42.6377345 C60.3916431,42.6476114 60.4055562,43.2266433 60.4055562,43.2266433 M59.814219,41.8393125 C59.814219,41.8393125 60.1031159,41.9491928 60.0831579,42.2287084 M60.0822956,41.5791803 C60.0822956,41.5791803 60.4509009,41.7890639 60.4109851,42.1883367 M60.5113906,41.4104092 C60.5113906,41.4104092 60.8302243,41.7896812 60.7106001,42.2092016 M61.1025252,41.499548 C61.1025252,41.499548 60.9334817,41.9686996 61.0037426,42.1585826 M61.4501551,41.8191884 C61.4501551,41.8191884 61.173203,41.9789469 61.3182887,42.1787067 M59.5949284,43.6464105 C59.5949284,43.6464105 59.6931893,44.0056819 59.5949284,44.0656839 M59.1361429,43.4372677 C59.1361429,43.4372677 59.3759221,43.8365404 59.2923861,44.0363002 M58.647667,43.4171435 C58.647667,43.4171435 58.9067502,43.7166598 58.8967712,43.9562975 M58.2493712,43.4765283 C58.2493712,43.4765283 58.4883733,43.7061656 58.4686618,43.8357996 M58.0405523,43.8259228 C58.0405523,43.8259228 58.2696987,44.065437 58.2598429,44.1154387" id="Shape" stroke="#3EC26D" stroke-width="0.1"></path>
                    <path d="M53.0843386,27.4342587 L56.3796109,27.3753679 C56.3796109,27.3753679 58.556994,27.3753679 58.7924234,28.083046 C59.2042708,27.1395574 61.0873364,27.1985718 61.0873364,27.1985718 C62.2251835,27.1594346 63.3627843,27.1199271 64.5005082,27.0806666 L64.5596427,35.336871 C63.8925312,38.5410531 61.5779067,40.8016232 59.0278528,41.7648656 C55.9873518,40.7818695 54.0651096,38.2067209 53.4374211,35.2778566 L53.0844618,27.4343822 L53.0843386,27.4342587 Z" id="Shape" stroke="#000000" stroke-width="0.1" fill="#FFFFFF"></path>
                    <path d="M54.2581592,27.4033935 L59.0584056,40.223579 L63.3949387,27.1246187 C62.0498742,27.2115352 59.1634926,26.9122658 58.8048663,28.1424308 C58.2501104,27.0415294 55.2136749,27.4853716 54.2581592,27.4038873 L54.2581592,27.4033935 Z" id="Shape" stroke="#000000" stroke-width="0.1" fill="#006B00"></path>
                    <path d="M57.525589,34.3443684 C57.7103845,34.4411617 57.7052102,30.8652387 57.9476618,30.7541238 C58.0170217,30.4580644 58.0517633,30.3284304 58.1382475,30.0138519 C57.9304142,29.643716 56.9949797,29.6622351 56.6487963,29.9768136 C56.8045172,30.4765836 56.8737539,30.6431324 56.8737539,30.6431324 C57.3414096,31.4019234 57.2485191,34.4251118 57.5254658,34.3444918 L57.525589,34.3443684 Z" id="Shape" stroke="#006B00" stroke-width="0.1" fill="#FFC900"></path>
                    <path d="M56.2394128,6.70516445 C56.2394128,6.70516445 56.578574,6.31910204 56.5939736,6.22650632 C56.6094964,6.13391061 58.135414,6.07218013 59.0447308,4.37286355 C59.5535342,3.47678394 59.0447308,4.00198684 59.0447308,4.00198684 L59.0139315,3.56950312 C59.0139315,3.56950312 59.6459319,2.96701366 59.4149376,2.64268173 C59.1836969,2.31834981 59.260695,3.05973284 58.8907346,3.04430022 C58.5208973,3.02874414 58.7212155,2.24093979 58.7212155,2.24093979 C58.7212155,2.24093979 58.6904163,2.14834407 58.5824958,2.10192275 C58.4284996,2.11735537 58.4745752,2.39538944 58.3358554,2.42625468 C58.1972589,2.45711992 58.0739387,1.77746736 58.0739387,1.77746736 C58.0739387,1.77746736 57.842698,1.46844459 57.6422566,2.4416873 C57.7501771,3.47653702 58.4129767,3.27578951 58.4129767,3.9553186 C58.4129767,4.63497116 57.8271752,5.16029752 57.6577794,5.17560668 C57.4881372,5.19116276 57.5497356,4.60398246 57.5497356,4.60398246 C57.5497356,4.60398246 57.4573379,4.32619531 57.3957394,4.32619531 C57.334141,4.32619531 57.7347775,4.26446483 57.673179,3.49196964 C57.534336,2.56514825 57.4265387,3.70802631 57.1798984,3.66185191 C56.933258,3.61567752 57.1182999,2.81244055 57.2106976,2.71959791 C57.3030953,2.62675527 57.1027771,2.24093979 56.5632976,3.22949165 C56.5170987,3.70852016 56.455377,3.1060307 56.3477029,3.13689594 C56.1625379,3.52295834 56.1933371,3.80111587 56.455377,4.15631304 C56.8407371,4.5115102 57.0873774,4.86683083 57.0719778,5.05214572 C57.0565782,5.23758408 56.8563831,5.65463518 56.5786972,5.65463518 C56.3010112,5.65463518 56.5940968,5.14474144 56.5786972,4.97498263 C56.5632976,4.80510035 56.1009394,4.18730174 56.1009394,4.18730174 C56.1009394,4.18730174 55.7771778,3.66197538 55.8081002,3.64654276 C55.8388994,3.63111014 55.777301,3.55394704 55.6230584,4.0944591 C55.4688158,4.63497116 55.2838971,3.73926193 55.2838971,3.73926193 C55.2838971,3.73926193 55.0683024,4.40348187 55.5305374,4.80472997 C55.1760998,4.75855557 55.1451774,4.89757261 55.1451774,4.89757261 C55.1451774,5.08301096 55.6231816,5.16017406 55.68478,5.48450599 C55.7463785,5.80883792 55.1914994,5.99439973 55.1914994,5.99439973 C55.1914994,5.99439973 55.4227401,6.31873166 56.0698937,5.68537696 C56.0855398,6.08699545 55.8234998,6.36502952 55.8234998,6.36502952 C56.0390945,6.46281059 56.2087367,6.45268679 56.239536,6.70491752 L56.2394128,6.70516445 Z" id="Shape" stroke="#000000" stroke-width="0.1" fill="#CDAD56"></path>
                    <path d="M54.1247369,6.70516445 C54.1247369,6.70516445 53.8367024,6.27675493 53.8236436,6.19230764 C53.8107079,6.10798381 52.4066321,6.29897791 51.7422309,4.5829941 C51.3103023,3.76778141 51.7422309,4.24569877 51.7422309,4.24569877 L51.7684718,3.85222871 C51.7684718,3.85222871 51.3087008,3.28862945 51.5050767,2.99355777 C51.7014527,2.69848609 51.6206355,3.37295328 51.8731893,3.37443481 C52.1873415,3.36036026 52.0170833,2.64354596 52.0170833,2.64354596 C52.0170833,2.64354596 52.0432011,2.55909867 52.1349828,2.51699848 C52.265818,2.53107303 52.3190391,2.95405026 52.4370618,2.9820759 C52.5547149,3.010225 52.7980288,2.48452825 52.8752733,2.37625299 C52.9830707,2.36082037 52.9790052,1.94068275 53.1492634,2.82626817 C53.0576048,3.76790487 52.2790001,3.58518266 52.2790001,4.20359858 C52.2790001,4.82213797 52.7764694,5.29993186 52.9203634,5.31400641 C53.0645039,5.32808096 53.012022,4.79398887 53.012022,4.79398887 C53.012022,4.79398887 53.0904984,4.54089391 53.1428571,4.54089391 C53.195339,4.54089391 52.6854268,4.63916883 52.7375391,3.93642908 C52.8555618,3.27838219 53.1167394,3.97877618 53.3261742,3.93642908 C53.5356091,3.89445235 53.3015348,3.2407266 53.3616549,3.14097015 C53.3755762,3.04096677 53.684431,2.61255726 53.8036856,3.55826817 C53.8431087,3.99408534 54.0801396,3.18331725 54.1717982,3.21134289 C54.3289975,3.56283623 54.1023151,4.03211132 53.8798214,4.3553321 C53.5526102,4.6787998 53.4047739,5.03288582 53.4178328,5.20153348 C53.4308916,5.37018114 53.5086289,5.57969438 53.7443047,5.57969438 C53.9799805,5.57969438 53.8236436,5.28585731 53.8367024,5.13116074 C53.8498845,4.97658762 54.2426364,4.47620037 54.2426364,4.47620037 C54.3197577,4.35273942 54.2556953,4.12186743 54.3374981,4.01507371 C54.4652533,4.01630832 54.517612,3.8380307 54.6485704,4.32989914 C54.7794056,4.8220145 54.9364817,4.00680182 54.9364817,4.00680182 C54.9364817,4.00680182 55.1197988,4.61114319 54.7270469,4.97658762 C55.0282634,4.9346109 55.054258,5.06091145 55.054258,5.06091145 C55.054258,5.22968258 54.9106103,5.30005532 54.8581284,5.595127 C54.8057697,5.89019868 55.0149582,6.05896981 55.0149582,6.05896981 C55.0149582,6.05896981 54.8185822,6.35404149 54.2687542,5.77784922 C54.2555721,6.14329364 54.478189,6.3963886 54.478189,6.3963886 C54.2949951,6.48528049 54.1511011,6.47602091 54.1246137,6.70553483 L54.1247369,6.70516445 Z" id="Shape" stroke="#000000" stroke-width="0.1" fill="#CDAD56"></path>
                    <path d="M62.5942816,29.3158037 C62.3072327,29.0546838 62.2731071,29.2828396 62.1318002,29.2244426 C62.0625635,29.1953058 62.0082337,29.1303653 61.9482367,29.071351 C61.8957548,29.0173985 61.8336636,28.9951756 61.7644269,28.9659153 L61.6860736,29.1980219 C61.6599559,29.275185 61.7587598,29.4033375 61.7565423,29.5193908 C61.7368308,29.6917423 61.6668549,29.8344631 61.4510138,29.8934775 C61.5126123,29.7712511 61.5473538,29.765325 61.5286279,29.6161842 C61.5192649,29.5416138 61.3111853,29.4093871 61.3368102,29.3387674 C61.3750013,29.2251833 61.4400493,29.0940678 61.3920025,28.9807306 C61.3033007,29.0414734 61.1874955,29.0096205 61.0987937,29.0466588 C61.0243827,29.0799933 61.0193317,29.2188868 60.915723,29.2766666 C60.809404,29.3264213 60.5752066,29.3017291 60.3798162,29.1904908 C60.4993173,29.099747 60.5978749,29.1608602 60.7173759,29.0701164 C60.7772496,29.0246827 60.7745393,28.8301083 60.834413,28.7846747 C60.8942867,28.739241 61.037072,28.6908443 61.0968225,28.6454107 C61.0432319,28.5840506 61.0460654,28.4868868 60.9923515,28.4256502 C60.9385144,28.3642901 60.7003747,28.3775004 60.6464145,28.3161403 C60.5389867,28.1935436 60.5594374,28.0321801 60.4517633,27.9093365 C60.7301884,28.0093399 60.6897798,28.1451469 60.7595093,28.1350231 C60.89133,28.0716876 61.0229044,28.0590946 61.0921411,28.0881079 C61.1611314,28.1173682 61.2929521,28.2897197 61.3619424,28.3189799 C61.3880602,28.2415699 61.4260048,28.1434185 61.4522458,28.0661319 C61.4783635,27.9887219 61.3348391,27.8547667 61.36108,27.7772333 C61.4131923,27.6229071 61.5429187,27.4861123 61.5951543,27.3315392 C61.6138802,27.4805566 61.6386428,27.6059929 61.6573687,27.7550103 C61.6667317,27.8297042 61.8129665,27.8683474 61.8224526,27.9430413 C61.8316924,28.0177352 61.7460705,28.1908275 61.7553103,28.2652744 C61.8353883,28.2492245 61.9508239,28.260336 62.0306555,28.2442861 C62.1104871,28.2282361 62.1637082,28.0421805 62.2434167,28.026254 C62.4032031,27.9944011 62.5181459,28.004031 62.6810123,28.0348963 C62.5615112,28.146505 62.4687439,28.1389739 62.3939633,28.2416934 C62.3340896,28.2870035 62.4171244,28.4367617 62.244279,28.5419504 C62.1793542,28.5797295 62.0087265,28.5342958 61.9489759,28.5797295 L62.1101176,28.7636863 C62.1101176,28.7636863 62.4052975,28.8535659 62.4590113,28.914926 C62.5664391,29.0377696 62.6233561,29.1840708 62.593912,29.3158037 L62.5942816,29.3158037 Z M55.2128125,29.4421042 C55.4998614,29.1809843 55.5341102,29.4090167 55.6752939,29.3507431 C55.7445306,29.3214829 55.7988604,29.2565424 55.8588573,29.1976515 C55.9113393,29.1436991 55.9734305,29.1213527 56.0426672,29.0922159 L56.1210205,29.3240756 C56.1210205,29.3240756 56.0483343,29.5293911 56.0505518,29.6454444 C56.0700169,29.8182898 56.1402392,29.9607637 56.3560803,30.020025 C56.2944818,29.8977986 56.2597403,29.8916256 56.2784662,29.7426082 C56.2878292,29.6680378 56.4959088,29.5358111 56.4702839,29.465068 C56.4320928,29.3517308 56.3670448,29.2206153 56.4150916,29.1070312 C56.5037934,29.167774 56.6195986,29.1360445 56.7083004,29.1728359 C56.7827114,29.2061703 56.7877624,29.3449405 56.8913711,29.4027202 C56.9976901,29.4525984 57.2318875,29.4279062 57.4272779,29.3167914 C57.3077768,29.2256772 57.2092192,29.2871607 57.0897182,29.1960466 C57.0298445,29.1506129 57.032678,28.9561619 56.9729275,28.9108517 C56.9130537,28.8651712 56.7698989,28.8170214 56.7101483,28.7713409 C56.7638622,28.7101042 56.7609055,28.6129405 56.8146194,28.5515804 C56.8684564,28.4903437 57.1065962,28.5034306 57.1605564,28.442194 C57.2679842,28.3194738 57.2475335,28.1579868 57.3549612,28.0353901 C57.0769057,28.1356404 57.1171911,28.2714475 57.0473384,28.2610767 C56.9155177,28.1978647 56.7840665,28.1852717 56.7147066,28.2144085 C56.6457163,28.2435453 56.5142652,28.4158968 56.4449053,28.4450336 C56.4190339,28.367747 56.3808429,28.2694721 56.3547251,28.1921855 C56.3286074,28.114899 56.4721318,27.9810673 56.4458909,27.9036573 C56.3937786,27.7489607 56.2640522,27.6122894 56.2118166,27.4575928 C56.1930907,27.6067337 56.1683281,27.7320466 56.1496022,27.8810639 C56.1402392,27.9557578 55.9938812,27.994648 55.9845182,28.0692184 C55.9751553,28.1437888 56.0609004,28.3167576 56.0516606,28.3914515 C55.9715826,28.3754016 55.856147,28.3862661 55.7763154,28.3704631 C55.6964838,28.3544132 55.6432627,28.1683576 55.563431,28.1523076 C55.4036446,28.1202078 55.2887018,28.1300847 55.1258354,28.1609499 C55.2453365,28.2725586 55.338227,28.264904 55.4131307,28.367747 C55.4728813,28.4131806 55.3897233,28.5628153 55.5625687,28.6681275 C55.6273703,28.7057831 55.7982444,28.6607199 55.857995,28.70603 L55.696607,28.8899868 C55.6430163,28.9512235 55.4016734,28.9798664 55.3479596,29.0412265 C55.2404086,29.1638232 55.1834916,29.3103714 55.2129357,29.4419808 L55.2128125,29.4421042 Z" id="Shape" fill="#FFC900"></path>
                    <path d="M62.3368,30.1417575 C62.0768544,30.345468 60.3968174,30.7709145 60.3795698,32.2329391 C60.3623223,33.6949637 60.6740106,34.0280614 60.3623223,34.0650997 C59.7559468,34.0650997 59.6693394,32.4366497 59.6867101,31.7148969 C59.7039577,30.9930207 59.7212053,31.1041356 59.7212053,31.1041356 C59.7212053,31.1041356 60.1368718,31.2152505 60.1023767,31.5668673 C60.0678815,31.9183606 60.5180432,30.6970848 60.3623223,30.3638637 C60.639269,30.6414039 61.0029465,30.5302891 61.0029465,30.5117699 C61.0029465,30.4932508 60.7952364,30.271268 60.7085057,30.1047192 C60.6220215,29.9380469 61.0204404,30.1973149 61.0204404,30.1973149 C61.0204404,30.1973149 61.037688,29.9197747 60.6912581,29.9380469 C60.2409733,29.9380469 60.760618,29.7901407 60.760618,29.7901407 C60.760618,29.7901407 61.0203172,30.0306426 61.1935322,29.7716215 C61.0029465,29.5681579 60.7258765,29.457043 60.7258765,29.457043 C60.7258765,29.457043 60.4831785,28.9944348 60.1542426,28.9019626 C59.7731944,28.8093668 59.8250603,29.0683879 59.392023,29.0315966 C59.3057851,29.1978985 59.3057851,29.2165411 59.4788769,29.271975 C59.1844361,29.4756856 59.3402803,29.8827364 59.3402803,29.8827364 C59.3402803,29.8827364 59.8079359,29.6790258 59.7905652,30.0123704 C59.7733176,30.3453446 59.513372,30.2899106 59.3402803,30.086447 C59.1844361,29.9938512 59.132447,30.1787957 59.132447,30.1787957 L59.3748986,30.4378168 C59.3748986,30.4378168 58.907243,30.4192977 58.7860171,30.7341231 C59.0459627,30.715604 59.1845593,30.7896806 59.1845593,30.7896806 C59.1845593,30.7896806 58.6474206,31.0301825 58.5954314,31.159693 C58.5436887,31.289327 58.5264411,31.0115399 58.5089472,31.0115399 C58.4916996,31.0115399 57.9894256,30.8265954 57.9894256,30.8265954 L57.8159643,31.6268693 C57.8159643,31.6268693 58.1626405,31.9737946 58.353103,31.8626797 C58.5438119,31.7515649 58.8902418,31.4185907 59.0979519,31.5110629 C58.4918228,31.9737946 57.8856938,32.6399899 57.5565115,32.7325856 C57.469904,32.658509 57.1754633,32.3624497 57.0542375,32.5103559 C56.9331348,32.658509 57.0197423,32.8437005 57.1755865,32.8251813 C57.3314306,32.8066622 56.6733125,32.9730875 56.811909,33.2506278 C56.9505056,33.5284149 56.9331348,33.5098958 57.0543607,33.4358192 C57.1757097,33.3617426 56.9506288,33.3432235 57.4009137,33.2135895 C57.8511986,33.0842024 57.8338278,32.9545684 57.8338278,32.9545684 C57.8338278,32.9545684 57.7473436,33.158279 57.5048919,33.2138364 C57.2624403,33.2693938 57.0717314,33.2693938 57.1238437,33.3432235 C57.1755865,33.4173001 57.2795647,33.5469341 57.2449464,33.6210106 C57.2104512,33.6948403 57.7473436,33.2321086 57.8859401,33.6024915 C58.2497408,33.5839723 58.4920692,33.1397598 58.3188543,32.8806153 C58.3361018,33.1581555 58.50944,33.2506278 58.4054617,33.3802618 C58.3014835,33.5098958 59.2195473,32.9545684 58.7691392,32.6214707 C58.8904882,32.8992579 58.9076125,33.1211172 58.9076125,33.1211172 C58.9076125,33.1211172 59.115569,33.1025981 59.1675581,33.0285215 C59.2193009,32.9544449 59.0635799,33.2322321 59.133063,33.2877895 C59.2020533,33.3433469 59.5312356,33.6579255 59.392639,33.8800317 C59.3064011,33.7503977 59.2889071,33.5466871 59.1850521,33.5652063 C59.0809507,33.5837254 58.6479134,33.8985509 58.3882142,33.91707 C58.128515,33.9355891 58.6999025,34.8793247 58.6999025,34.8793247 C58.6999025,34.8793247 58.3014835,34.8237672 58.2497408,34.8608055 C58.1977517,34.8978438 57.9380525,34.5277079 57.8859401,34.7496907 C57.7992095,35.0274778 57.9724244,34.916363 57.9724244,34.916363 C57.9724244,34.916363 57.7473436,34.8052481 57.626241,34.9348821 C57.5048919,35.0645161 57.3835429,35.1939032 57.4701504,35.2493372 C57.5567579,35.3048946 57.9379293,35.3048946 57.9897952,35.2863754 C58.0416611,35.2678563 57.5567579,35.3234137 57.5221395,35.3789712 C57.487398,35.4345286 57.4182845,35.6382392 57.5221395,35.7123157 C57.6259946,35.7863923 57.8859401,35.6752774 57.9031877,35.61972 C57.9204353,35.5641626 57.9379293,35.8234306 57.9379293,35.8234306 C57.9379293,35.8234306 58.3882142,35.860222 58.3882142,35.3974903 C58.3882142,34.9347586 58.4229557,35.7308349 58.4229557,35.7308349 C58.4229557,35.7308349 58.8731174,35.8046645 58.890365,35.3419329 C58.9076125,34.8792012 58.9423541,35.6567583 58.9423541,35.6567583 C58.9423541,35.6567583 59.2367948,35.5641626 59.2367948,35.490086 C59.2367948,35.4160094 59.2195473,36.4154259 59.011714,36.6930896 C58.6824085,36.4708598 58.4745752,36.8409958 58.4745752,36.8409958 C58.4745752,36.8409958 58.4918228,37.377804 58.4573277,37.5073146 C58.4228325,37.6367016 58.6824085,37.433238 58.6997793,37.3776806 C58.7170268,37.3221231 59.0287152,37.17397 59.0462091,37.1369317 L59.1500642,36.9149489 C59.1500642,36.9149489 59.0807043,37.17397 58.9596017,37.2110083 C58.8384991,37.2480466 58.7169036,37.3776806 58.7688928,37.4887954 C58.8208819,37.5996633 59.0115908,37.6737399 59.0805811,37.7847313 C59.149941,37.8958462 59.3922694,37.1370552 59.3922694,37.1370552 L59.4097634,37.3037274 C59.4097634,37.3037274 59.7214517,37.2296509 59.7561932,37.0814977 C59.7906884,36.9335915 59.4272573,36.804081 59.7216981,36.5634556 C60.0161388,36.3229536 59.7216981,36.7856853 59.7216981,36.7856853 C59.7216981,36.7856853 59.8254299,37.1371786 59.8947898,37.1371786 C59.9641497,37.1371786 60.136995,36.4711068 59.9637801,36.3044345 C59.7906884,36.1380091 60.2237257,36.508145 60.2237257,36.508145 C60.2237257,36.508145 60.4664237,35.8234306 60.2064781,35.7308349 C59.9465325,35.6382392 59.8253067,35.6012009 59.8253067,35.6012009 C59.8253067,35.6012009 59.9639033,35.4160094 59.8946666,35.3974903 C59.8254299,35.3789712 60.2580976,35.8049115 60.3274575,35.6937966 C60.3968174,35.5826817 60.5007956,35.2493372 59.9985216,35.0645161 C59.4961244,34.8793247 59.9812741,34.361159 59.9812741,34.361159 C59.9812741,34.361159 60.2929624,34.731295 60.5181664,34.5278313 C60.7433705,34.3241208 60.5009188,34.3241208 60.5009188,34.3241208 C60.5009188,34.3241208 61.1417894,33.9171935 61.159037,33.7134829 C61.0378112,33.6949637 60.8301011,33.732002 60.8301011,33.732002 C60.8301011,33.732002 61.1937786,33.4915001 61.1072943,33.102845 C60.9685745,33.3063087 60.7779888,33.3065556 60.7779888,33.3065556 C60.7779888,33.3065556 61.0896771,32.9917301 61.037688,32.6956708 C60.8472255,32.8438239 60.8644731,32.9546919 60.7432473,32.9179005 C60.6220215,32.8811091 60.4143114,31.7148969 60.8990914,31.6406969 C61.3841179,31.5669907 61.1242955,32.2147904 61.1417894,32.2147904 C61.159037,32.2147904 61.8691443,31.9184841 61.1417894,31.4373567 C61.3148812,31.3817993 61.6785586,31.7151439 61.6785586,31.7151439 C61.6785586,31.7151439 61.5227144,30.9005485 60.7432473,31.4003184 C60.933833,31.1968548 61.0549356,31.0672208 61.2109029,31.1042591 C61.3668703,31.1412974 61.9212566,31.0857399 61.9212566,30.9190676 C61.78266,30.8079528 61.4880961,30.9746251 61.3321287,30.9190676 C61.1762846,30.8635102 62.440655,30.7709145 62.3368,30.1420044 L62.3368,30.1417575 Z" id="Shape" stroke="#006B00" stroke-width="0.1" fill="#FFC900"></path>
                    <path d="M56.8834865,30.7899275 C56.8834865,30.7899275 57.5775313,30.3930005 57.9245254,30.8843751 M58.2022114,31.6405735 C58.1848702,31.6405735 57.9593212,31.8862608 57.9072409,31.8862608 M58.6708773,32.4344274 C58.6708773,32.4344274 59.3128418,32.491096 59.7292574,31.7918131" id="Shape" stroke="#006B00" stroke-width="0.1"></path>
                    <path d="M59.4451011,32.2263957 C59.4451011,32.2263957 59.5318135,32.6043714 59.7048611,32.6043714 C59.8779088,32.6043714 59.4162598,32.698819 59.2430237,32.6232609 C59.4451011,32.7933284 59.5606547,33.095746 59.2430237,33.2090832" id="Shape" stroke="#006B00" stroke-width="0.600520607"></path>
                    <path d="M59.0347025,36.9895193 C59.0347025,36.9895193 58.8091535,37.4562005 58.5314676,37.4895193" id="Shape" stroke="#006B00" stroke-width="0.600520607" fill="#E80000"></path>
                    <path d="M59.2953873,35.779602 C59.2953873,35.779602 59.1565443,35.0235888 59.2432503,34.8345083 C59.2953873,34.5889445 59.5209363,34.4943734 59.6944617,34.1730663 M59.2256825,35.2314353 C59.2256825,35.2314353 59.0521571,35.6850309 58.2887474,35.5339147 M59.4342303,34.0974464 C59.4342303,34.0974464 59.4863672,34.7022199 58.7922657,34.4754222 M58.5836045,31.376367 C58.5836045,31.376367 58.3059186,31.6410056 58.4100792,32.0000918" id="Shape" stroke="#006B00" stroke-width="0.1"></path>
                    <path d="M59.5943124,30.5684385 C59.5943124,30.5684385 59.9583594,30.4202854 60.0275961,30.3462088 C60.0968328,30.2721322 60.2181818,30.1239791 60.2528002,30.0128642 C60.2875417,29.9017494 60.0101022,29.7350771 60.1488219,29.4943282 C60.2355526,29.3832134 60.3567784,29.3646942 60.5648581,29.4943282 C60.7730609,29.6239622 60.3742724,29.0869071 60.1663159,29.0683879 C59.9583594,29.0498688 59.8196396,29.2165411 59.7676505,29.1795028 C59.7155382,29.1424645 59.7848981,29.3276559 59.6981674,29.3276559 C59.6114368,29.3276559 59.8715056,29.4758091 59.854258,29.5684048 C59.8370104,29.6610005 60.1314512,29.9758259 60.1142036,30.0499025 C60.096956,30.1239791 59.6809199,30.5499194 59.5943124,30.5684385 L59.5943124,30.5684385 Z" id="Shape" fill="#006B00"></path>
                    <path d="M59.8853283,29.4949854 C60.3627605,29.3759657 60.4394846,29.5080851 60.3560963,29.9534734 C60.1322465,29.8299623 60.0502252,29.7255394 59.8853283,29.4949854 L59.8853283,29.4949854 Z" id="Shape" stroke="#FFC900" stroke-width="0.600520607" fill="#FFC900"></path>
                    <path d="M58.7768513,37.8876978 C58.7768513,37.8876978 58.7183106,38.2833901 58.8612905,38.3164777 C58.8542067,38.1633861 58.8917226,38.0586912 58.9268584,38.0178873 C58.8963696,38.0024547 58.7839351,37.8902287 58.7768513,37.887636 L58.7768513,37.8876978 Z M58.4549623,37.4006443 C58.3237132,37.3802732 58.1019044,37.4987957 58.1656588,37.6420105 C58.2721996,37.5420071 58.3711465,37.6503441 58.4456116,37.5483036 C58.4685632,37.5203397 58.4620461,37.436448 58.4549623,37.4006443 L58.4549623,37.4006443 Z M58.4538289,37.1193635 C58.4538289,37.1193635 58.2469812,37.0689562 58.2182492,37.2886623 C58.3610591,37.2608514 58.4037887,37.237386 58.4511653,37.2834478 C58.4647663,37.2365169 58.451562,37.130314 58.4538289,37.1193635 L58.4538289,37.1193635 Z" id="Shape" stroke="#006B00" stroke-width="0.600520607" fill="#E80000"></path>
                    <path d="M57.5771346,34.8888312 C57.5771346,34.8888312 57.7012433,34.939944 57.736379,35.0777264 C57.8348159,35.0113662 57.8817391,34.7178377 57.5771346,34.8888312 L57.5771346,34.8888312 Z M57.26998,35.2252623 C57.2746836,35.2227931 57.530098,35.0542688 57.5558832,35.2150767 C57.5019328,35.2737207 57.4785278,35.3119936 57.4363082,35.3248335 C57.4035526,35.3248335 57.337928,35.2150767 57.26998,35.2252623 L57.26998,35.2252623 Z M57.2444782,35.799952 C57.2491252,35.7965294 57.4084829,35.5944359 57.4694605,35.7292192 C57.5303247,35.8639211 57.4201571,35.8571575 57.4201571,35.8571575 C57.4201571,35.8571575 57.3639398,35.8201613 57.2444782,35.799952 L57.2444782,35.799952 Z M57.0194959,32.7294991 C57.0172291,32.7294991 56.8156518,32.6452987 56.7313259,32.7983903 C56.8648985,32.8162921 56.9117651,32.8673432 56.9726293,32.9183943 C56.9561949,32.854565 56.9281429,32.7575864 57.0194959,32.7294991 L57.0194959,32.7294991 Z M56.6284688,33.8752167 C56.6284688,33.8752167 56.6378194,33.6174303 56.7503106,33.5128588 C56.813555,33.5511317 56.8322562,33.6122449 56.8744192,33.6889142 C56.79015,33.7092852 56.6776588,33.7144088 56.6284688,33.8752167 L56.6284688,33.8752167 Z M57.1737482,33.6912599 C57.1737482,33.6912599 56.9417986,33.8036094 57.0175011,33.9260826 C57.0932035,33.8418823 57.1762283,33.8674387 57.1762283,33.864846 C57.1762283,33.8622533 57.1762283,33.6938526 57.1737482,33.6912599 L57.1737482,33.6912599 Z" id="Shape" stroke="#006B00" stroke-width="0.1" fill="#E80000"></path>
                    <path id="Shape" stroke="#006B00" stroke-width="0.5" fill="#FFC900"></path>
                    <path id="Shape"></path>
                    <path d="M57.0523649,31.0498128 C57.0523649,31.0498128 57.0995347,31.2310535 57.3165919,31.1825333 C57.2819753,31.0421582 57.1309559,30.9374633 57.1309559,30.9374633 C57.121598,30.9783906 57.1624531,31.0421582 57.0523649,31.0498128 L57.0523649,31.0498128 Z M57.1969175,31.5757565 C57.1969175,31.5757565 57.3163637,31.6803896 57.5523649,31.4659997 C57.445472,31.4914943 57.2567167,31.4149486 57.2567167,31.4149486 C57.2567167,31.4149486 57.2567167,31.5629782 57.1969175,31.5757565 L57.1969175,31.5757565 Z" id="Shape" stroke="#006B00" stroke-width="0.1" fill="#E80000"></path>
                    <path id="Shape" stroke="#006B00" stroke-width="0.1" fill="#FFC900"></path>
                    <path d="M56.8730394,29.7532505 C56.8730394,29.7532505 57.6186052,29.5398359 58.0141143,29.8599578 C58.4096233,30.1800797 58.4098352,29.8904305 58.4098352,29.8904305 C58.4098352,29.8904305 58.988001,30.1038451 59.1554011,30.0581892 C59.3228011,30.0125334 59.0337712,30.0734786 59.2619861,29.9360863 C59.4902011,29.7991187 58.8053443,29.9668775 58.7446353,29.6770159 C58.6380502,29.4939677 58.759786,29.2652637 58.5164203,29.3414984 C58.3490203,29.1280838 58.6230054,28.9756144 58.5619785,28.7469104 C58.3947904,28.8688009 58.303462,28.7010422 58.1664695,29.0059809 C57.8470321,28.9450356 58.1209112,28.5027046 57.7708545,28.4570488 C57.7708545,28.7772769 57.5121261,28.7925663 57.4969753,28.9755082 C57.344832,29.0823217 56.6753378,29.4787845 56.8731453,29.7532505 L56.8730394,29.7532505 Z" id="Shape" fill="url(#linearGradient-2)"></path>
                    <path d="M48.2916072,54.063552 C48.7752785,53.9462641 51.3965402,54.6433247 52.4070017,55.7290403 C52.192639,53.7953948 51.6579642,52.3141103 51.6579642,52.3141103 C51.6579642,52.3141103 50.0958267,51.8674286 49.881464,52.0823741 C49.5670653,52.4142371 48.622391,53.4087151 48.2916072,54.0634286 L48.2916072,54.063552 Z M47.4924285,45.1318927 C47.308865,45.162511 47.124932,45.2853547 46.9412453,45.5924021 C46.7268826,46.1140246 46.5736256,47.4338222 46.2673579,47.7408696 C45.9610903,48.0477936 45.6853755,48.0784119 45.6853755,48.3547175 C45.6853755,48.6308996 45.7161747,49.2754893 46.5430727,49.5210531 C47.3699707,49.5519184 48.6870695,48.2012555 48.6870695,48.2012555 C48.6870695,48.2012555 49.3609568,47.464564 49.6364252,46.6666359 C48.0438581,47.2190002 46.9105693,45.7456171 47.4925517,45.1320162 L47.4924285,45.1318927 Z" id="Shape" stroke="#000000" stroke-width="0.1" fill="#C01500"></path>
                    <path d="M70.5265643,53.755517 C70.0467122,53.6390933 67.3952672,54.3320796 66.3925671,55.4114987 C66.6054515,53.4892117 67.1359376,52.0163225 67.1359376,52.0163225 C67.3209794,51.9657035 68.6690006,51.5723569 68.8818849,51.7860678 C69.1939428,52.1160789 70.1983676,53.1046308 70.5265643,53.755517 L70.5265643,53.755517 Z M71.269442,44.8759582 C71.4517735,44.906453 71.5163287,45.1465846 71.6651507,45.4516566 C71.8777886,45.9701926 72.0970792,46.7260206 72.4011293,47.0310926 C72.704933,47.3362881 72.9785535,47.7882786 72.9785535,48.0629793 C72.9785535,48.337433 72.914491,48.70868 72.0939993,48.9526389 C71.2732611,48.9831337 70.0841641,47.9272957 70.0841641,47.9272957 C70.0841641,47.9272957 69.415451,47.1946784 69.1417073,46.4013183 C70.7223243,46.9507195 71.7458447,45.5364743 71.2693188,44.8757112 L71.269442,44.8759582 Z" id="Shape" stroke="#000000" stroke-width="0.1" fill="#C01500"></path>
                    <path d="M46.5737488,52.3762112 C46.5737488,52.3762112 48.2275448,53.5120519 48.258344,54.0336745 C52.6995945,47.4344395 64.0319901,45.377827 70.4949027,53.5731651 C71.3523536,52.4375713 72.2406037,52.0694107 72.2406037,52.0694107 C65.4409938,43.1675055 51.9027565,44.2728514 46.5735024,52.3762112 L46.5737488,52.3762112 Z" id="Shape" stroke="#000000" stroke-width="0.1" fill="#FFBB00"></path>
                    <path d="M68.6672758,22.7795338 C68.6672758,22.7795338 69.3064216,22.230503 69.7629896,22.2153173 M68.7595503,22.7032349 C68.7747036,22.6879258 72.5790257,22.1542041 72.7006211,22.0322247 M68.774334,22.7341002 C68.7896104,22.7186676 73.0352241,22.367915 73.0352241,22.367915 M68.7595503,22.7862056 C68.7595503,22.7862056 73.2790309,22.4846914 73.5528977,22.8076428 M68.7436579,22.7341002 C68.7436579,22.7341002 73.1718495,22.7725687 73.2479852,22.9083859 M68.7595503,22.7341002 L73.020194,23.0847293 M68.7139675,22.7647185 C68.7291207,22.7647185 73.0508701,23.1459659 73.476762,23.6948733 M73.7041836,24.47206 C73.6890303,24.4568743 72.228284,22.7182972 68.6977055,22.748792 M68.7139675,22.7795338 C68.7139675,22.7795338 71.1638622,22.9471938 71.9400031,23.8012967 M68.7595503,22.7489155 C68.7595503,22.7489155 70.3420153,22.4439669 72.0008624,24.4415652" id="Shape" stroke="#FFF700" stroke-width="0.1"></path>
                    <path d="M67.7625173,24.5633471 C67.7625173,24.5633471 69.9575767,24.6496685 69.9575767,24.8653128 C69.9575767,25.0809571 68.322036,25.4906919 68.3005283,26.3965892 C68.2790206,27.302274 69.5486121,27.3670416 69.6347489,28.5100308 C69.7209917,29.6532323 68.6449698,29.8255567 68.4296806,30.1276286 C68.2146034,30.2786115 67.6979941,31.8961031 67.7626233,32.8450017 C67.8272524,33.7940066 68.1069588,37.007436 68.6017424,37.6543689 C68.9893053,37.9563346 69.5703317,38.9267871 70.1943736,38.6248214 C70.8184155,38.3229618 70.3880491,37.2230803 70.3236318,36.9211145 C70.2592146,36.6191488 70.5817246,36.1230926 70.5817246,35.6703563 C70.5817246,35.2173015 70.3450336,34.8506743 70.3666473,34.7429053 C70.3880491,34.63503 72.1097266,35.1527462 72.002082,36.8564531 C71.8945434,38.5600538 71.2058724,38.0424437 71.2058724,38.0424437 C71.2058724,38.0424437 71.4209496,40.1344377 70.8829387,40.4147435 C69.9145613,40.9323535 69.2043825,40.3069744 69.2043825,40.3069744 L69.2952871,40.7324233 L68.558621,40.3501882 C68.558621,40.3501882 67.6117513,38.9913424 67.3965681,38.3875171 C67.1813849,37.7836918 66.9229744,35.0878725 67.0092172,34.5057071 C67.095354,33.9232233 67.1598772,30.5155972 67.1168618,30.3431667 C67.0738463,30.1707362 66.9017845,27.323934 67.0093231,26.892433 C67.1169677,26.4613568 67.784131,24.5633471 67.7626233,24.5633471 L67.7625173,24.5633471 Z" id="Shape" stroke="#000000" stroke-width="0.1" fill="url(#linearGradient-3)"></path>
                    <path d="M65.3956573,24.002785 C65.3956573,24.002785 66.923546,22.5147101 67.8058827,22.687185 C68.2577691,22.687185 67.8273189,23.0106527 67.8273189,23.0106527 C67.8273189,23.0106527 68.6022278,23.0753463 68.7096556,23.4205431 C68.731215,23.5714124 68.3437606,23.6143768 68.3437606,23.6143768 C68.3437606,23.6143768 68.6665366,23.6791938 68.6882193,23.9595736 C68.709902,24.2399534 65.4170936,24.0242672 65.3956573,24.002785 L65.3956573,24.002785 Z" id="Shape" stroke="#000000" stroke-width="0.1" fill="#FF7000"></path>
                    <path d="M65.4814024,23.9378445 C65.4814024,23.9378445 67.1169652,23.7222817 67.8056363,23.0321349 M67.1386479,23.4870302 C67.1386479,23.4870302 68.3435142,23.4310098 68.3435142,23.6550915" id="Shape" stroke="#000000" stroke-width="0.1"></path>
                    <path d="M71.4209743,41.1268194 C71.4209743,41.1268194 72.4539808,40.8897743 72.7336379,40.5230953 C72.9061136,40.3934613 73.8097634,41.8816596 71.4209743,41.1268194 L71.4209743,41.1268194 Z" id="Shape" stroke="#000000" stroke-width="1.075" fill="#FFFFFF"></path>
                    <path d="M71.1413172,32.5648022 C71.1413172,32.5648022 71.2704276,33.3627303 70.9044094,33.9018843 C70.7107438,34.1175706 70.1297469,34.4841262 70.1297469,34.7430238 C70.1297469,35.0016745 70.3448488,35.3467478 70.3017299,35.6487333 C70.258611,35.9507188 69.9358349,36.2524574 69.9573944,36.511355 C69.9573944,36.7701292 70.3232894,38.1504227 70.2804168,38.1719049 M69.2477799,29.9773075 C69.2477799,29.9773075 68.4302449,30.2575638 68.2580155,31.0773446" id="Shape" stroke="#FFFFFF" stroke-width="1.075"></path>
                    <path d="M68.902582,23.485607 C68.902582,23.485607 69.1822391,24.2621764 70.0862584,23.5288184 C69.5051383,22.7310137 68.902582,23.5072127 68.902582,23.485607 L68.902582,23.485607 Z" id="Shape" stroke="#000000" stroke-width="0.1" fill="#C75B00"></path>
                    <path d="M69.8958626,23.6426409 C69.8958626,23.7807128 69.7839745,23.8926409 69.6457037,23.8926409 C69.5074329,23.8926409 69.3958626,23.7807128 69.3958626,23.6426409 C69.3958626,23.504569 69.5077507,23.3926409 69.6457037,23.3926409 C69.7836567,23.3926409 69.8958626,23.504569 69.8958626,23.6426409 L69.8958626,23.6426409 Z" id="Shape" fill="#000000"></path>
                    <path d="M61.5126123,21.6838178 C61.5126123,21.6838178 63.2265284,23.5428929 64.3354243,23.5227688 C64.5370977,24.0684662 63.8320415,24.5758907 63.549674,24.8182446 C62.9851856,24.63651 62.4749038,24.851579 61.1642113,23.2349813 C61.2449053,22.2044527 61.5325702,21.7244365 61.5126123,21.6839413 L61.5126123,21.6838178 Z M63.8317951,17.3592275 C64.0535496,16.6722908 64.4970587,16.1267168 64.8802012,16.0660975 C64.7795493,15.5407711 65.6868949,13.216989 68.3284842,12.3279467 C68.4896258,13.5200857 67.1991376,14.692224 67.1991376,14.692224 C67.1991376,14.692224 71.0909296,14.0252879 71.8771726,13.0351311 C71.7966018,13.4795905 71.0102356,16.2480789 66.8565269,16.2278313 C68.4291361,17.7231904 66.3522817,18.9155763 65.4650172,18.5516134 C67.0983625,17.2987317 65.0013038,16.5511756 63.8316719,17.359351 L63.8317951,17.3592275 Z" id="Shape" stroke="#000000" stroke-width="0.1" fill="#FFFFFF"></path>
                    <path d="M65.1625687,16.4328245 C65.9489349,15.8802071 66.2311791,15.8802071 66.8764848,15.9906766 C66.4126482,16.0568502 66.4126482,16.0791332 66.4126482,16.0791332 C66.4126482,16.0791332 66.3723628,16.1453068 66.6546071,16.4329596 C66.3322006,16.3443679 66.04971,16.1453068 65.1626919,16.4329596 L65.1625687,16.4328245 Z" id="Shape" stroke="#CCCCCC" stroke-width="0.86" fill="#CCCCCD"></path>
                    <path d="M64.8595041,16.065974 C64.8595041,16.065974 66.4120322,15.237551 67.2790924,14.6717295" id="Shape" stroke="#000000" stroke-width="0.1"></path>
                    <path d="M63.5287306,24.8160223 C63.5287306,24.8160223 65.6661978,25.4020914 65.9080335,22.3305063 C65.4444433,20.997128 64.7992608,18.1276485 65.7873004,17.2992255 C64.8798316,16.6727846 63.891792,17.3194731 63.891792,17.3194731 C63.8314255,17.4608359 63.0247318,18.6126031 64.1135465,20.633412 C61.5325702,19.9463518 62.5809763,22.391496 62.5809763,22.391496 C62.6819978,22.0075325 64.05318,21.643693 64.3956676,23.6038826 C64.5369745,24.0887138 63.468364,24.8363933 63.5288538,24.8162692 L63.5287306,24.8160223 Z" id="Shape" stroke="#000000" stroke-width="0.1" fill="#0000FF"></path>
                    <path d="M65.9284842,22.3506305 C65.9284842,22.3506305 68.1866845,21.1382439 68.126318,18.289012 C66.2106052,18.3295072 65.5252605,20.8150231 65.5252605,20.8150231 L65.9286074,22.3506305 L65.9284842,22.3506305 Z" id="Shape" stroke="#000000" stroke-width="0.1" fill="#0000FF"></path>
                    <path d="M55.806129,22.2093911 C55.806129,22.2093911 54.1324983,23.6643785 53.1848673,23.199548 C52.4789487,23.6238833 51.6522971,22.8760803 51.6522971,22.8760803 C51.6522971,22.8760803 52.6202556,26.4527441 56.0883733,23.8662371 C56.0280068,23.0783093 55.8464145,22.269887 55.8062522,22.2093911 L55.806129,22.2093911 Z" id="Shape" stroke="#000000" stroke-width="0.1" fill="#FFFFFF"></path>
                    <path d="M53.1647862,23.1384348 C53.3059699,22.3907553 53.8906627,22.0272862 54.3544993,22.7343471 C54.9796006,22.8555858 55.604702,20.2893264 53.3866639,20.7136617 C54.0117653,17.3592275 52.1365844,16.1064692 52.1365844,16.1064692 C52.1365844,16.1064692 51.4713208,19.8244959 51.7736461,20.5115561 C52.0762179,21.1986163 51.3301371,19.2386736 48.9306298,18.6929762 C48.8903444,21.5017129 51.6126277,22.8153375 51.6126277,22.8153375 C51.6126277,22.8153375 52.3786664,23.5223984 53.1649094,23.1385583 L53.1647862,23.1384348 Z" id="Shape" stroke="#000000" stroke-width="0.1" fill="#0000FF"></path>
                    <path d="M53.3861711,20.6932906 C53.3861711,20.6932906 52.337765,21.5822095 52.5797238,22.7945961 M51.7938504,20.5722989 C51.7938504,20.5722989 51.5518916,21.4410936 52.0759715,22.6736043 M51.6324624,22.9569472 C51.6324624,22.9569472 52.1163801,22.1688959 53.1650326,23.1791769" id="Shape" stroke="#000000" stroke-width="0.1"></path>
                    <path d="M51.8341358,17.5005903 C51.8341358,17.4803427 50.2411991,17.5005903 51.1888301,19.1170646 C50.4831579,19.3392943 48.9103023,18.3087657 49.9991171,16.9346453 C46.4301011,16.8539018 44.9783481,15.136313 44.9783481,13.5602105 C46.0267543,14.6513584 48.5271598,14.2067755 49.4144243,14.8735881 C48.3257328,13.8631837 48.5474873,12.4690626 48.5474873,12.4690626 C48.5474873,12.4690626 51.5923002,13.3783525 52.1365844,16.0859747 C51.9551152,16.6114245 51.8745444,17.5409621 51.8341358,17.5004669 L51.8341358,17.5005903 Z" id="Shape" stroke="#000000" stroke-width="0.1" fill="#FFFFFF"></path>
                    <path d="M49.3847338,14.8035858 C49.9723833,15.4027418 51.4821621,15.5817602 52.248324,16.2485728" id="Shape" stroke="#000000" stroke-width="0.1"></path>
                    <path d="M50.0799343,16.5743977 C50.0799343,16.5743977 51.3297675,16.3958886 51.6919665,16.8867204 C51.2028746,16.8867204 51.039885,16.7527705 50.3334736,17.0427455 C50.5328063,16.9314158 50.4784765,16.7306953 50.5872594,16.7306953 C50.6960423,16.7306953 50.1342642,16.5745339 50.0799343,16.5745339 L50.0799343,16.5743977 Z" id="Shape" stroke="#CCCCCC" stroke-width="0.815" fill="#CCCCCD"></path>
                    <path d="M56.3104974,6.77096913 C56.3104974,6.77096913 56.9959653,6.16477585 57.7420461,6.71047327 C57.4049792,7.71964311 56.1893948,7.33666723 56.1893948,7.33666723 C56.1893948,7.33666723 56.2298034,7.84186946 56.108824,8.08434677 C56.352138,8.26780975 56.552333,8.8725215 56.552333,8.8725215 C56.552333,8.8725215 57.8027822,8.56942486 58.0646989,9.11499882 C58.5434423,9.04882375 58.8913505,9.11499882 58.8913505,9.11499882 C58.8913505,9.11499882 59.8593091,8.8725215 60.2021662,8.8725215 C60.5446538,8.8725215 61.6337149,9.15549401 61.73449,9.35772306 C61.8352651,9.55958172 62.1982034,10.9133311 62.4401622,10.8933304 C62.682121,10.8730828 61.8554694,11.2165512 61.6337149,10.8730828 C61.4119604,10.5296144 61.4723269,11.3175422 61.4723269,11.3175422 C61.4723269,11.3175422 62.157918,12.0450977 62.238612,12.206708 C62.3191828,12.3684419 61.815184,13.6818195 62.1982034,14.5911095 C61.8626149,14.6222216 61.8352651,14.975073 61.8352651,14.975073 C61.8167856,15.3753334 61.3110621,15.4802753 61.3110621,15.4802753 L61.1900826,14.9345778 L60.8472255,15.1366834 L60.9884092,14.7123481 C60.9884092,14.7123481 61.4522458,13.580705 61.4925312,13.217236 C61.5328166,12.8533965 61.0691032,12.206708 60.706165,12.206708 C60.3432267,12.206708 60.0810636,13.3585988 60.0810636,13.3585988 C60.0810636,13.3585988 59.8995945,14.2273935 59.9600842,14.3082604 C60.0206971,14.3891273 59.7182485,14.0255348 59.7182485,14.0255348 C59.7182485,14.0255348 59.5568605,14.5507377 59.4361275,14.7123481 C59.3150249,14.874082 59.052985,14.9345778 59.052985,14.9345778 C59.052985,14.9345778 58.8713926,14.4092515 58.9318823,14.2073928 C58.9922489,14.0051638 59.919922,13.217236 59.839228,12.6512909 C59.7584108,12.0855928 59.839228,12.2270791 59.8189005,12.2068315 C59.7988194,12.1867074 59.3349828,11.7824962 59.3150249,11.5602665 C59.2946974,11.3380368 58.7098814,11.8429921 57.9438427,11.6815051 C57.7092757,12.0921363 57.6816796,13.1161214 57.6816796,13.1161214 C57.6816796,13.1161214 57.6009856,14.3487556 57.7622504,14.4902419 C57.9236384,14.6316047 57.3591499,14.9347013 57.3591499,14.9347013 L56.9558031,15.4803987 C56.9558031,15.4803987 56.8147426,15.1368069 56.8147426,15.156931 C56.8147426,15.1771786 56.5322519,15.3590366 56.5322519,15.3590366 L56.69364,14.9549489 C56.6837842,14.6487657 57.0856527,13.8134289 57.0856527,13.1061211 C57.0856527,12.3986898 57.1370258,11.6408865 57.1370258,11.6408865 C57.1370258,11.6408865 56.3910682,11.6003913 56.4111493,12.3683184 C56.4313536,13.1359987 56.2296802,13.1764938 56.2700888,13.3987236 C56.3103742,13.6209533 56.5120476,14.2473942 56.4515579,14.4292522 C56.3911914,14.6111101 56.1491094,14.6717295 56.1491094,14.6717295 L56.0887429,14.7729674 C56.0887429,14.7729674 55.3425389,15.1161889 55.36262,15.2577986 C55.3828243,15.3991614 55.3425389,14.8535875 55.3425389,14.8535875 L55.3022535,14.2676418 C55.3022535,14.2676418 55.7457625,13.9846693 55.7457625,13.2774849 C55.7457625,12.5700536 55.6435091,12.4696799 55.6638366,12.3080695 C55.6840409,12.1463356 55.7861711,11.5598961 55.76609,11.4994002 C55.7458857,11.4386574 55.3426621,11.6608872 55.2215595,11.6608872 C55.1004569,11.6608872 55.443314,11.2365519 55.4837226,10.9334552 C55.5241312,10.6303586 55.0804989,11.2161808 54.7174375,10.8729594 C54.8862173,10.4997369 55.1409887,10.3877578 55.1812741,10.1050322 C55.2215595,9.82230663 54.899153,10.3475095 54.617032,10.1454039 C54.6398234,9.87428369 54.9193573,9.64020172 54.9193573,9.64020172 C54.9193573,9.64020172 54.689595,9.61205262 54.5965813,9.64020172 C54.4152354,9.57970585 54.7983779,9.29673334 54.8183358,8.89252218 C54.8386633,8.48843447 54.5965813,8.32682409 54.5965813,8.30657649 C54.5965813,8.28645235 54.1934808,7.94298398 54.1329911,7.80162118 C54.0726246,7.66013493 54.0726246,7.49840108 54.0726246,7.49840108 C54.0726246,7.49840108 53.4071146,7.98335571 52.6207484,6.95270366 C53.3408347,6.3366335 54.1126636,6.79121673 54.1126636,6.79121673 C54.1126636,6.79121673 54.3144602,6.22539518 55.2420102,6.26576691 C56.1696833,6.3062621 56.3510292,6.83158846 56.3107438,6.77096913 L56.3104974,6.77096913 Z" id="Shape" stroke="#000000" stroke-width="0.1" fill="#923F00"></path>
                    <path d="M61.3832555,17.2234205 C61.4001335,17.2234205 63.096186,17.2737925 63.1129408,18.1827121 C63.1296956,19.0913847 62.5923105,18.8555743 62.5755557,18.8555743 C62.5588009,18.8555743 61.3329911,18.7043346 61.3329911,18.7043346 L61.3835019,17.223297 L61.3832555,17.2234205 Z" id="Shape" stroke="#000000" stroke-width="0.1" fill="#0000FF"></path>
                    <path d="M59.7369745,16.9706959 C59.7369745,16.9706959 61.8527591,16.9537818 61.7352292,17.8793685 C61.6175761,18.8049553 61.080191,18.6198873 61.080191,18.6198873 L60.0559314,18.535687 L59.7368513,16.9706959 L59.7369745,16.9706959 Z" id="Shape" stroke="#000000" stroke-width="0.1" fill="#FFFEFF"></path>
                    <path d="M58.5449207,16.8697048 L59.7707305,16.9709428 C59.7707305,16.9709428 60.5096658,17.071687 60.4760331,17.7783775 C60.4424003,18.4853149 59.7202197,18.502229 59.7202197,18.502229 L58.5280427,18.4348194 L58.5447975,16.8698283 L58.5449207,16.8697048 Z" id="Shape" stroke="#000000" stroke-width="0.1" fill="#0000FF"></path>
                    <path d="M55.6736923,17.2234205 C55.6569375,17.2234205 53.9607618,17.2737925 53.944007,18.1827121 C53.9272522,19.0913847 54.4646373,18.8555743 54.4813921,18.8555743 C54.4981469,18.8555743 55.7240799,18.7043346 55.7240799,18.7043346 L55.6733227,17.2231736 L55.6736923,17.2234205 Z" id="Shape" stroke="#000000" stroke-width="0.1" fill="#FFFFFF"></path>
                    <path d="M57.3191109,16.9706959 C57.3191109,16.9706959 55.2032031,16.9537818 55.3208562,17.8793685 C55.4383861,18.8049553 55.9756481,18.6198873 55.9756481,18.6198873 L56.9999076,18.535687 L57.3189877,16.9706959 L57.3191109,16.9706959 Z" id="Shape" stroke="#000000" stroke-width="0.1" fill="#0000FF"></path>
                    <path d="M58.5120271,16.8697048 L57.2862173,16.9709428 C57.2862173,16.9709428 56.5474052,17.071687 56.5809147,17.7783775 C56.6145475,18.4853149 57.3366049,18.502229 57.3366049,18.502229 L58.5289051,18.4348194 L58.5120271,16.8698283 L58.5120271,16.8697048 Z" id="Shape" stroke="#000000" stroke-width="0.1" fill="#FFFFFF"></path>
                    <path d="M61.7943637,27.0873334 C61.7943637,27.0873334 62.675838,25.7853142 63.0470304,25.9247016 C63.3717776,26.0333473 63.1243981,27.0407887 62.9696627,27.1336313 L61.7943637,27.08721 L61.7943637,27.0873334 Z M55.7520456,27.319687 C55.4736205,26.9322665 55.0716288,25.8628477 54.7004363,26.1573021 C54.3756891,26.2657008 54.6231918,27.2731422 54.777804,27.3662317 L55.7520456,27.3195635 L55.7520456,27.319687 Z" id="Shape" stroke="#000000" stroke-width="0.1" fill="#5E0043"></path>
                    <path d="M56.335876,24.7449088 C56.335876,24.7449088 58.053488,25.8054384 58.6169909,25.8328467 C59.1802474,25.860255 60.9666034,24.4555163 60.9666034,24.4555163" id="Shape" stroke="#000000" stroke-width="0.1"></path>
                    <polygon id="Shape" stroke="#000000" stroke-width="0.1" fill="#5E0043" points="56.5012063 20.5871142 56.8310046 20.1738904 58.4799959 21.0139187 60.1563369 20.2703134 60.4861352 20.6145225 58.6174837 21.9365424 56.5013295 20.5871142"></polygon>
                    <path d="M55.1916226,20.5648912 C55.3255377,20.7342796 56.3913146,22.032842 56.5837483,23.1069523 C56.7759355,24.1810626 56.4737334,21.6335692 56.4737334,21.6335692 C56.4737334,21.6335692 57.7929264,22.2807516 57.8341974,22.6938519 C57.8753452,23.1069523 58.4649659,22.6659497 58.4930548,22.5953301 L54.6735794,20.1093203 L55.1916226,20.5648912 L55.1916226,20.5648912 Z M61.7086187,20.4904443 C61.7086187,20.4904443 60.3206817,22.3219875 60.4856424,24.3185981 C60.1993327,23.3625164 60.4305734,21.7848089 60.4305734,21.7848089 L60.1283712,21.9777784 C60.1283712,21.9777784 59.8122478,23.3272066 59.4138289,23.5338802 C59.3465633,23.3731341 59.3587598,23.3135024 59.3587598,23.3135024 C59.3587598,23.3135024 58.9328679,23.8643852 58.850326,23.9194488 C58.767784,23.9745124 58.8779221,25.7785239 58.8779221,25.7785239 C58.8779221,25.7785239 59.0208306,27.0859754 59.1859145,27.0723947 C58.9982855,27.1643731 58.7679072,27.3073409 58.7679072,27.3073409 L58.597033,23.8162355 L58.9878138,23.4238765 C58.9878138,23.4238765 59.5097993,22.7905218 59.5510703,22.1707478 C59.3243879,22.3633469 59.0701093,22.4186574 59.0701093,22.4186574 C59.0701093,22.4186574 59.0013654,23.2999217 58.7953801,23.4238765 C58.5891484,23.5478313 58.5834813,23.7777156 58.5834813,23.7777156 L58.5345721,22.6260719 L61.7084955,20.4908146 L61.7086187,20.4904443 Z" id="Shape" stroke="#474747" stroke-width="0.1" fill="#474747"></path>
                    <path d="M58.5343258,22.6106392 L59.0343258,28.1182324" id="Shape" stroke="#000000" stroke-width="0.0750000477"></path>
                    <path d="M55.1545403,25.2407279 C55.1545403,25.2407279 55.7865407,25.6125923 56.0202454,26.7417662 C58.0813305,26.5904031 58.7273754,27.3203043 58.7273754,27.3203043 C58.7273754,27.3203043 60.4176377,26.5079312 61.2008008,26.6592943 C61.47553,26.0808797 62.2590627,25.3372744 62.2590627,25.3372744" id="Shape" stroke="#000000" stroke-width="0.1"></path>
                    <path d="M54.2921616,19.8426446 L58.5348185,22.6244669 L62.3549099,20.0493183 C62.3549099,20.0493183 63.1519943,19.6085627 63.0832503,19.2920088 C63.0145064,18.9754549 62.7397772,19.0991628 62.6022894,19.1542263 C62.4649248,19.2094134 58.6035624,21.9496293 58.6035624,21.9496293 L54.4949438,19.3470724 C54.4949438,19.3470724 54.1926184,19.2507728 54.1376726,19.4433719 C54.0827268,19.635971 54.2510138,19.7464685 54.2920384,19.8427681 L54.2921616,19.8426446 Z" id="Shape" stroke="#000000" stroke-width="0.1" fill="#B4B6B9"></path>
                    <path d="M61.8791232,19.1207684 C61.8791232,19.1207684 60.793758,18.6590245 60.793758,19.0590379 C60.793758,19.4594218 60.8243109,19.5004109 60.998265,19.7570862 C61.1724655,20.0136381 60.8652123,20.1778411 60.8652123,20.1778411 C60.8652123,20.1778411 60.8243109,20.0649978 60.7629588,19.890424 C60.7013603,19.7159737 60.1176531,19.5928831 60.0665264,19.3875675 C60.0152764,19.1823754 60.1893537,18.8538458 59.8410759,18.8128568 C59.4929213,18.7716208 59.1548688,18.9564419 59.0834146,19.3567023 C59.0115908,19.7569627 58.5610595,20.6909448 58.5610595,20.6909448 L58.622658,18.5664287 C59.3870951,18.6211219 60.8073097,18.7886585 61.8996971,18.9153294 C61.5719932,18.8640931 62.0225245,18.9358239 62.0122992,19.0486672 C61.9814999,19.1412629 61.8687747,19.1513867 61.8790001,19.120645 L61.8791232,19.1207684 Z M58.038458,18.5866763 C57.8438068,18.5866763 56.8710436,18.6996431 56.6253888,18.8432282 C56.3794877,18.9869368 57.024547,19.2127468 56.9427442,19.4076917 C56.860695,19.60276 56.8503465,19.9928966 56.5432165,19.9106716 C56.2359632,19.8286935 55.2016016,19.3155898 55.1708023,19.141016 C55.1402495,18.9665657 54.9251476,18.9563184 54.9251476,18.9563184 C54.9251476,18.9563184 57.8950567,18.556058 58.0383348,18.5867998 L58.038458,18.5866763 Z" id="Shape" stroke="#474747" stroke-width="0.1" fill="#474747"></path>
                    <path d="M58.5097726,18.342594 L58.4993378,20.9525586 M56.5012063,15.267552 C56.5012063,15.267552 55.3111237,17.2039136 55.2877162,17.262928" id="Shape" stroke="#000000" stroke-width="0.1"></path>
                    <path d="M58.6932498,15.219822 C58.6932498,15.219822 59.2116602,15.9282311 59.1527523,16.1289045 C59.3646511,16.2942212 59.6003885,16.9553818 59.6003885,16.9553818" id="Shape" stroke="#000000" stroke-width="0.1" fill="url(#linearGradient-4)"></path>
                    <path d="M60.6956932,15.1019909 C60.6956932,15.1019909 59.5764488,16.684143 59.6118064,16.8020482" id="Shape" stroke="#000000" stroke-width="0.1"></path>
                    <path d="M54.9720856,7.66427957 C54.946707,7.77691088 54.804045,7.82058104 54.6532519,7.76167345 C54.5024588,7.70276586 54.4009445,7.56374395 54.4263231,7.45126972 C54.4517017,7.33863841 54.5944869,7.29496825 54.7451568,7.35387584 C54.8958267,7.41278343 54.9977106,7.55180534 54.9722088,7.66427957 L54.9720856,7.66427957 Z M55.4245881,7.62453658 C55.4499666,7.73716789 55.5926287,7.78083806 55.7434218,7.72193046 C55.8942149,7.66302287 55.995606,7.52400096 55.9703506,7.41152673 C55.944972,7.29889542 55.8021867,7.25522526 55.6515169,7.31413285 C55.500847,7.37304044 55.3992095,7.51206235 55.4245881,7.62453658 L55.4245881,7.62453658 Z" id="Shape" fill="#000000"></path>
                    <path d="M68.513526,40.3188909 C68.513526,40.3188909 68.0987218,40.3966713 68.1116575,40.4358084 C68.1245932,40.4749455 66.9055593,40.5135888 66.8796879,40.4746986 C66.8535701,40.4356849 66.6979724,40.6826068 66.6979724,40.6826068 L66.8926236,40.5655659 C66.8926236,40.5655659 67.1907602,40.8775517 67.2816796,40.8515014 C67.3724757,40.8255746 67.2428725,40.968419 67.2687439,40.9944692 C67.2946153,41.020396 67.3855346,40.9426156 67.3855346,40.9426156 L69.4010369,40.9086639 L68.5140188,40.3187674 L68.513526,40.3188909 Z" id="Shape" stroke="#000000" stroke-width="0.86" fill="#FF7000"></path>
                    <path d="M69.2650275,40.9474306 L67.6187465,40.99521 C67.6187465,40.99521 67.2035727,41.3721363 67.1777014,41.463127 C67.15183,41.5541177 67.4499666,41.5800445 67.4499666,41.5800445 L67.540886,41.8920304 L67.7484729,41.814003 C67.7484729,41.814003 69.1479903,42.022652 70.4329347,41.7359757 C71.0815667,41.5085606 71.1950311,41.2355885 70.7409271,41.0699039 C70.2871926,40.9042193 69.2778399,40.9538506 69.2650275,40.9474306 L69.2650275,40.9474306 Z" id="Shape" stroke="#000000" stroke-width="0.1" fill="#FF7000"></path>
                    <path d="M63.6273128,44.3323349 L66.5907171,44.2000391 L66.0389327,43.731164 L74.053686,43.4064765 L73.7775818,42.7692056 L64.8029272,43.1299931 L65.8827633,43.6349682 L63.4590651,43.7071681 L63.5311107,43.9595495 L62.8952025,43.9354474 C62.8952025,43.9354474 63.6029444,44.212037 63.6271009,44.3322287 L63.6273128,44.3323349 Z" id="Shape" stroke="#000000" stroke-width="0.1" fill="url(#linearGradient-5)"></path>
                    <path d="M66.9498855,27.9270161 C66.714466,27.8091603 65.6787048,27.6675209 64.5253398,28.4224353 L64.5723813,31.0881005 C64.5723813,31.0881005 66.2672536,30.1680818 67.0911161,30.3803285 C67.0440745,29.5547006 67.0440745,28.4931488 66.9498855,27.9270161 L66.9498855,27.9270161 Z" id="Shape" stroke="#000000" stroke-width="0.1" fill="url(#linearGradient-6)"></path>
                    <path d="M50.5642215,36.0209681 L43.5761203,42.9730545 M53.6786407,36.071834 L48.0070222,43.5572717 M53.4255942,34.1181879 L45.8547713,43.303436 M45.6269801,43.1760243 L46.361234,42.3134026 M54.868477,38.7358745 L51.9314614,42.7960115 M51.8046918,43.3289924 L51.9119961,44.8759582 M56.2098455,40.1564163 L53.0956727,44.0639555 M55.6536112,43.7599946 L56.9195832,41.6794306 M56.1346953,41.2733675 L54.6154304,42.9987344 M55.6788666,39.6499794 L54.6409322,40.9186642 M54.3366357,37.7972009 C54.3366357,37.7972009 51.1717058,42.4405674 51.2224629,42.821074 M54.0070838,37.1889088 C53.9311945,37.2395277 51.2726041,40.7664368 51.2726041,40.7664368 M51.121195,41.8816596 L50.6401109,42.465383 M50.0323803,43.3545488 L49.2981264,44.318532" id="Shape" stroke="#000000" stroke-width="0.1"></path>
                    <path d="M50.2184077,25.3341879 C50.2184077,25.3341879 50.004045,26.0095193 50.2184077,26.3470616 C50.4327704,26.6846038 51.7805451,29.4163009 51.7805451,29.4163009 C51.7805451,29.4163009 52.6993481,28.2808305 53.0362918,28.2500887 C53.3732355,28.2194704 53.2198552,31.1967313 53.2198552,31.1967313 C53.2198552,31.1967313 52.6687952,31.7186008 52.3318515,31.687859 C51.9949079,31.6572407 53.1587496,32.8541946 53.1281967,33.8671918 C53.0976439,34.8801889 51.5968585,39.9138155 51.0454289,40.0059174 C50.4941225,40.0980192 51.2905908,39.0851456 51.2597916,38.8088399 C51.2289924,38.5327812 51.0759817,38.7168615 50.9535239,38.4100611 C50.830943,38.1030137 51.1373338,37.6426278 51.0759817,37.3357038 C51.0146296,37.0287799 50.7391612,37.0900165 50.7084852,36.8751945 C50.6778091,36.6603724 50.8922951,36.5990123 50.861619,36.3535719 C50.8308198,36.1078846 50.4941225,36.1692447 50.5246753,35.9544227 C50.5554746,35.7396006 50.5860274,35.8317025 50.5554746,35.4326767 C50.5246753,35.0336509 50.4634464,35.7088588 50.1265027,35.7396006 C49.7898055,35.7704658 49.5142138,36.5376522 49.5142138,36.5376522 C49.5142138,36.5376522 48.8403265,37.4891658 48.1664391,37.0593982 C48.5646117,37.9186865 48.258344,38.2872174 48.1052102,38.3178357 C47.9520764,38.348454 48.227668,38.9931671 47.8600483,39.0240324 C47.4924285,39.0548976 48.1357631,40.4664267 47.7070376,40.5891469 C48.1665623,40.803969 47.7990658,41.0805215 47.7990658,41.0805215 C47.7990658,41.0805215 46.7373543,41.1687961 46.9720446,42.5536576 C43.8477696,41.450534 42.3164314,39.5478772 42.3472306,37.6143552 C42.3777835,35.6807097 42.9903188,33.9311445 44.4911042,33.2865549 C44.9198296,31.6904517 45.6549458,29.9716283 45.6549458,29.9716283 C45.6549458,29.9716283 45.5324881,29.2656785 45.624393,28.8052926 C45.7162979,28.3447833 46.1450234,27.8845208 46.1450234,27.8845208 C46.1450234,27.8845208 46.0839177,26.7795453 46.1145937,26.2270575 C46.1451466,25.6745697 46.3597557,25.4288824 46.3901853,25.122082 C46.4209845,24.815158 46.2982804,23.2496731 46.604548,22.973491 C46.9109389,22.6971854 47.4927981,22.7278037 47.7990658,22.5438469 C48.1053334,22.3596431 48.503506,22.0219774 48.9016786,22.0524723 C49.2998511,22.0829671 49.6367948,22.3596431 49.6367948,22.3596431 C49.6367948,22.3596431 51.1375802,22.3596431 51.2293619,22.9428727 C51.3212669,23.5258553 50.9230943,23.7406773 50.9230943,23.7406773 C50.9230943,23.7406773 51.137457,24.5694707 50.2186541,25.3367806 L50.2184077,25.3341879 Z" id="Shape" stroke="#2B2B2B" stroke-width="0.1" fill="#8A9396"></path>
                    <path d="M48.8909604,23.2247587 C48.9390072,23.3169693 48.8293619,23.4750812 48.6462913,23.5777644 C48.4632206,23.6804477 48.2754684,23.6895155 48.2274216,23.5973049 C48.1793748,23.5053497 48.2887737,23.3472379 48.4720908,23.2442992 C48.6554078,23.1413605 48.8429136,23.1326758 48.8909604,23.2247587 L48.8909604,23.2247587 Z" id="Shape" stroke="#2B2B2B" stroke-width="0.146999955" fill="#CECFCF"></path>
                    <path d="M48.9087675,23.5260654 C48.9087675,23.6641954 48.7968151,23.7762172 48.6586323,23.7762172 C48.5207199,23.7762172 48.4087675,23.6638918 48.4087675,23.5260654 C48.4087675,23.3882391 48.5207199,23.2762172 48.6586323,23.2762172 C48.7965447,23.2762172 48.9087675,23.3885427 48.9087675,23.526369 L48.9087675,23.5260654 Z" id="Shape" fill="#000000"></path>
                    <path d="M50.8711052,24.3786001 C50.8711052,24.3786001 51.24316,26.0428538 50.798419,27.1926456 M50.9855552,23.6501805 C50.9855552,23.6501805 51.7111853,24.6121882 51.6175556,25.8086483 M51.0557774,23.4390622 C51.0791848,23.4390622 51.6643704,23.955129 51.640963,24.3069927 M51.196222,23.2276971 C51.196222,23.2276971 51.5941481,23.5091881 51.6877778,23.790679" id="Shape" stroke="#2B2B2B" stroke-width="0.1"></path>
                    <path d="M51.0089626,23.0631236 C51.0089626,23.0631236 49.5808634,25.3857946 49.7681228,26.8404115" id="Shape" stroke="#000000" stroke-width="0.1"></path>
                    <path d="M51.1025923,22.9929978 C51.1025923,22.9929978 49.2062214,24.1192086 48.8551101,27.8026662" id="Shape" stroke="#2B2B2B" stroke-width="0.1"></path>
                    <path d="M50.8919255,23.6736381 L50.1426415,24.23662" id="Shape" stroke="#000000" stroke-width="0.1"></path>
                    <path d="M48.1527642,28.0140314 C48.1527642,28.0140314 49.2063446,23.6265994 51.0791848,22.9932447" id="Shape" stroke="#2B2B2B" stroke-width="0.1"></path>
                    <path d="M51.8049381,29.4921059 C51.8049381,29.4921059 52.8117037,28.2251496 53.0457779,28.2720648 C53.2798522,28.3189799 53.2096299,31.2047563 53.2096299,31.2047563 C53.2096299,31.2047563 52.4605924,31.7677382 52.296494,31.7442807 C52.1326421,31.7208231 53.1394076,33.1051908 53.1160002,33.621381 C53.0925928,34.1374478 53.0691854,34.1374478 53.0691854,34.1374478 C53.0691854,34.1374478 53.0691854,33.8324992 52.8351111,33.33989 C52.6010369,32.8472808 52.7414814,32.2840519 51.2196294,31.0405532 C50.8451106,30.266453 51.9686669,31.5097048 52.2027411,31.3220442 C52.4370618,31.1343835 51.7814075,29.5155635 51.8048149,29.4921059 L51.8049381,29.4921059 Z" id="Shape" stroke="#2B2B2B" stroke-width="0.1" fill="#2B2B2B"></path>
                    <path d="M50.0152559,22.3570504 C50.0152559,22.3570504 49.5920743,22.4726099 49.534295,22.646196 C49.4766388,22.8196586 49.2265489,22.9931213 49.0920179,22.9353415 C48.9572404,22.8775618 48.7070274,22.6654559 48.7070274,22.6654559" id="Shape" stroke="#2B2B2B" stroke-width="0.1"></path>
                    <path d="M47.6106976,23.841298 C47.6106976,23.841298 46.9756173,24.4776158 47.2834865,24.5546554 C47.5912325,24.6318185 47.9183204,24.0534039 47.9183204,24.0534039 C47.9183204,24.0534039 47.9183204,25.036647 48.187629,24.8824443 C48.4569375,24.7282415 49.2458909,24.1692103 49.2458909,24.1692103 C49.2458909,24.1692103 49.5150762,24.1499504 49.5727324,24.1692103 C49.630635,24.1884702 50.3037832,24.7667613 50.7463067,24.5547789 C50.4962168,25.2103566 50.2075663,25.2873962 50.2075663,25.2873962 C50.2075663,25.2873962 49.7458241,25.8849472 49.1493045,25.7501278 C48.5530312,25.615185 48.399035,25.3645593 48.399035,25.3645593 C48.399035,25.3645593 47.8988553,25.4030791 47.7451055,25.1717133 C47.5911093,24.9403474 47.5334531,24.8054046 47.5334531,24.8054046 C47.5334531,24.8054046 47.2449258,25.0946736 47.1679277,24.9597308 C47.0909296,24.8246645 47.1679277,24.0342675 47.6102048,23.8415449 L47.6106976,23.841298 Z" id="Shape" stroke="#2B2B2B" stroke-width="0.1" fill="#2B2B2B"></path>
                    <path d="M51.2080489,22.9547249 C51.2080489,22.9547249 50.0344746,22.6077996 49.6305118,23.1860907 C49.2264257,23.7646288 49.3227658,24.0922941 49.5344182,24.1503208" id="Shape" stroke="#2B2B2B" stroke-width="0.1"></path>
                    <path d="M51.4466249,22.9217608 C51.4466249,23.0605309 51.3347095,23.1728804 51.1966249,23.1728804 C51.0585403,23.1728804 50.9466249,23.0605309 50.9466249,22.9218843 C50.9466249,22.7832376 51.0585403,22.6708882 51.1966249,22.6708882 C51.3347095,22.6708882 51.4466249,22.7832376 51.4466249,22.9220078 L51.4466249,22.9217608 Z" id="Shape" fill="#000000"></path>
                    <path d="M47.973759,25.9223559 C47.973759,25.9223559 48.452256,26.6601585 49.0227812,26.8631284 C49.5933063,27.0660982 48.6270725,27.2411658 48.0565474,26.8538688 C47.6423592,26.2911337 47.7527437,25.8854411 47.7527437,25.8854411 C47.7527437,25.8854411 47.8631282,25.7746966 47.9736359,25.9222324 L47.973759,25.9223559 Z M52.068826,30.2755891 C52.068826,30.2755891 50.72524,28.4036741 50.3387711,28.3021892 C49.952179,28.2007043 50.6332118,28.1177386 51.0471536,28.5142952 C51.4613418,28.9108517 50.9368924,27.8685944 50.9368924,27.8685944 L52.0685796,30.2755891 L52.068826,30.2755891 Z" id="Shape" stroke="#2B2B2B" stroke-width="0.1" fill="#2B2B2B"></path>
                    <path d="M47.8450182,41.0927441 C48.3603511,40.9544679 50.6056157,42.3841457 51.1117088,42.743664 C51.617802,43.1033058 52.6760639,42.8726807 52.6760639,42.8726807 C52.6760639,42.8726807 52.1882039,43.1677524 51.8846466,43.2415821 C51.5810893,43.3154117 52.7864483,43.3154117 52.7864483,43.3154117 C52.7864483,43.3154117 49.9153432,44.1084014 46.9982855,42.5684729 C46.7313177,41.3696671 47.6238797,41.1021272 47.8446486,41.0928676 L47.8450182,41.0927441 Z" id="Shape" stroke="#2B2B2B" stroke-width="0.1" fill="#2B2B2B"></path>
                    <path d="M51.1301884,30.7364689 C51.1301884,30.7364689 50.7528361,30.6626392 50.5597865,30.4413972 C50.3663672,30.2200317 50.090406,29.6759393 49.8050819,29.4453142 C49.5197577,29.2146892 48.0933833,28.4308356 47.5780504,28.4860226 C47.0627175,28.54158 46.9063806,28.4308356 46.8419486,28.3662655 C46.7775166,28.3016954 46.5659874,28.3939207 46.6027001,28.6613372 C46.6394128,28.928877 46.2069914,29.5190204 46.3634516,29.7956964 C46.5199117,30.0722489 47.2560136,31.1973486 47.4032339,31.2342635 C47.5504543,31.2713017 47.4584262,31.8889769 47.4584262,31.8889769 C47.4584262,31.8889769 48.1118628,32.5529499 48.2774396,32.5898647 C48.4431395,32.626903 48.6088394,32.7466601 48.5903598,32.9034556 C48.5718803,33.060251 47.8726143,33.9178108 47.8726143,33.9178108 C47.8726143,33.9178108 47.118033,34.3143673 47.1087932,34.5357328 C47.0995534,34.7570983 47.2928494,35.218225 47.8910939,35.3657608 C48.4890919,35.5132967 50.0995226,35.3934161 50.182311,35.2551398 C50.2650993,35.1168636 50.3939633,34.2868356 50.3387711,34.2038698 C50.2835789,34.1207806 49.8878702,33.8717598 49.6854576,33.9087981 C49.483045,33.9455895 49.2989888,34.1116445 49.3174683,34.1483124 C49.3359478,34.1853506 49.0321441,34.3421461 49.0321441,34.1946102 C49.0321441,34.0470744 49.6302654,33.3831014 49.6855808,33.4384119 C49.7410195,33.4937224 50.5873826,33.5766881 50.7438427,34.0009 C50.9003029,34.4251118 50.9003029,34.7293196 51.3420872,34.6833921 C51.7837483,34.6372177 52.4003491,34.231525 52.4554181,33.3831014 C52.5108567,32.5346777 51.9585648,31.96293 51.820461,31.8799642 C51.6824804,31.796875 51.2222165,31.520199 51.1853806,31.3910589 C51.1486679,31.2620422 51.0566398,30.8379538 51.1301884,30.7363454 L51.1301884,30.7364689 Z" id="Shape" stroke="#2B2B2B" stroke-width="0.1" fill="#2B2B2B"></path>
                    <path d="M43.1701863,34.48141 C43.1701863,34.48141 44.5964376,34.1122618 44.9646733,34.1216448 C45.3327858,34.1309044 46.7222011,34.7763582 47.1271495,35.1729148 C47.5320979,35.5695949 48.3603511,36.5102439 48.9031569,36.4272781 C49.4462091,36.3441889 49.6026693,36.2334444 49.6026693,36.2334444 L49.3910169,36.6392606 C49.3910169,36.6392606 48.9493558,36.7590177 48.7284636,36.7038307 C48.5076947,36.6485202 48.0751501,36.5102439 47.6426056,36.086032 C47.2101843,35.6618202 45.8759612,34.5183248 44.7437811,34.6012906 C43.6120938,34.6842564 42.9586572,35.8000965 42.9586572,35.8000965 C42.9586572,35.8000965 42.9678969,35.256004 43.0140958,35.1361235 C43.0599251,35.0163663 42.7746009,35.3941569 42.7746009,35.3941569 L43.1703095,34.4812866 L43.1701863,34.48141 Z" id="Shape" stroke="#2B2B2B" stroke-width="0.1" fill="#2B2B2B"></path>
                    <path d="M48.4246599,35.5876202 C48.4337765,35.5968797 48.7835327,35.6891051 49.3724141,35.6891051 C49.9612956,35.6891051 50.2742159,35.4308248 50.2742159,35.4308248 L50.2375032,35.2003232 L50.3295313,34.8775962 C50.3295313,34.8775962 50.7804322,35.338476 50.7710692,35.4307013 C50.7618295,35.5229266 50.587013,35.5598415 50.587013,35.5598415 L50.522581,35.338476 L50.3661208,35.5323097 C50.3661208,35.5323097 49.5103947,36.2145549 49.0410143,36.1131935 C48.5718803,36.0117086 48.1392126,35.7073773 48.25896,35.6336711 C48.3787075,35.5599649 48.4430163,35.5874967 48.4246599,35.5874967 L48.4246599,35.5876202 Z M46.344972,36.7959325 C46.344972,36.7959325 45.8296391,36.786673 45.5996304,36.8974174 C45.3694985,37.007915 45.2867101,37.1461913 45.13025,37.1277956 C44.9737898,37.1092764 44.8542888,36.9064301 44.9002413,36.8234643 C44.9645501,36.6944476 45.2682306,36.5283926 45.8478723,36.574567 C46.427514,36.6207414 46.3448488,36.7959325 46.3448488,36.7959325 L46.344972,36.7959325 Z M48.1486987,38.1975848 C48.1486987,38.169806 48.1117396,37.4412629 47.8265387,37.1461913 C47.5413377,36.8511196 47.1915815,36.8511196 47.0351214,36.8879109 C46.8786613,36.9249492 47.6148863,37.2475527 47.6885581,37.4595352 C47.7621067,37.671888 48.0014784,38.2620314 47.9370464,38.4095672 C47.8724911,38.5571031 47.7528669,37.9947384 47.301966,37.837943 C46.8510651,37.6811476 46.2252246,37.7638664 46.3540886,37.9669597 C46.4829526,38.170053 46.9891689,37.9854788 47.2467738,38.4188268 C47.5043786,38.8521747 47.6976747,39.3133014 47.6976747,39.3133014 L47.7805862,38.9997106 L48.0104717,38.935264 L48.0380679,38.3357376 L48.1485755,38.1974613 L48.1486987,38.1975848 Z" id="Shape" stroke="#2B2B2B" stroke-width="0.1" fill="#2B2B2B"></path>
                    <path d="M47.7807094,40.5577878 L47.311329,39.6170153 C47.311329,39.6170153 47.1639854,39.0177359 46.7682768,38.8515574 C46.3725681,38.6857494 45.8479955,38.7132812 45.8388789,38.916251 C45.8297623,39.1192208 46.6854884,39.3775011 46.7406807,39.4881221 C46.7961193,39.5988666 46.7682768,39.7831938 46.6947282,39.7924534 C46.6210564,39.8017129 46.2438273,39.6541771 46.0504081,39.700228 C45.8573585,39.7464024 45.7468508,39.9952997 45.4615266,39.9215935 C45.1763257,39.8477639 44.9370772,38.9347701 45.0475848,38.8425448 C45.1579693,38.7504429 44.8359324,39.0085998 44.7716236,38.7688386 C44.7070684,38.5290774 44.8635286,37.7821386 44.7531441,37.6897898 C44.6426364,37.597688 44.108824,37.274961 44.0997074,37.210391 C44.0905908,37.1458209 44.1274267,33.5398968 47.1365125,36.5278988 C45.8482419,34.996983 45.3420256,35.1631614 45.1029003,35.1537784 C44.9279606,35.1537784 43.7593142,35.2552633 43.4648735,36.7492643 C43.1704327,38.2431418 42.8205534,37.3118759 42.8205534,37.3118759 C42.8205534,37.3118759 42.7562445,37.9573297 43.0691648,38.1417804 C43.3820851,38.3262311 42.9219445,38.8610639 42.9219445,38.8610639 C42.9219445,38.8610639 42.3606591,37.4869435 42.4434475,36.8875406 C42.3329398,37.3671864 42.3421796,38.5567327 43.0508085,39.8570234 C43.8789385,40.7331024 44.6612392,41.5447347 46.7409271,42.457605 C47.8359016,40.7791533 47.7807094,40.5764304 47.7807094,40.5579113 L47.7807094,40.5577878 Z" id="Shape" stroke="#2B2B2B" stroke-width="0.1" fill="#2B2B2B"></path>
                    <path d="M45.8112828,40.5672943 C45.8112828,40.5672943 46.4186438,40.641124 46.5842205,40.9545913 C46.7499204,41.2681822 46.823469,41.747828 46.823469,41.747828 C46.9247369,41.5449816 46.9708126,41.3697905 47.1733484,41.2222547 C47.3758842,41.0747188 47.5228582,41.0561997 47.5137416,40.9457021 C47.5045018,40.8348342 46.8694215,40.1617251 46.5475078,40.1246868 C46.2253478,40.0878954 45.6641856,40.4753159 45.6641856,40.4753159 C45.6641856,40.4753159 45.5627945,40.6227283 45.8112828,40.5674178 L45.8112828,40.5672943 Z" id="Shape" stroke="#2B2B2B" stroke-width="0.1" fill="#8A9396"></path>
                    <path d="M47.1984806,42.1536441 C47.1984806,42.1536441 48.7724449,42.8726807 51.3650018,42.919102" id="Shape" stroke="#8A9396" stroke-width="0.0750000477"></path>
                    <path d="M52.452831,34.8316687 C52.452831,34.8316687 52.3173143,36.1551702 51.3015554,38.767604" id="Shape" stroke="#2B2B2B" stroke-width="0.1"></path>
                    <path d="M52.2502952,35.6460172 C52.2502952,35.6460172 51.9457523,36.5961727 51.099266,37.3086659" id="Shape" stroke="#2B2B2B" stroke-width="0.1"></path>
                </g>
            </g>
        </g>
    </g>
</svg>