<?xml version="1.0" encoding="UTF-8" standalone="no"?>
<svg width="122px" height="60px" viewBox="0 0 122 60" version="1.1" xmlns="http://www.w3.org/2000/svg" xmlns:xlink="http://www.w3.org/1999/xlink">
    <!-- Generator: Sketch 3.8.2 (29753) - http://www.bohemiancoding.com/sketch -->
    <title>ve</title>
    <desc>Created with Sketch.</desc>
    <defs></defs>
    <g id="Page-1" stroke="none" stroke-width="1" fill="none" fill-rule="evenodd">
        <g id="ve">
            <g id="Group">
                <g>
                    <polygon id="Shape" fill="#CF142B" points="0 0 122 0 122 60 0 60"></polygon>
                    <polygon id="Shape" fill="#00247D" points="0 0 122 0 122 40 0 40"></polygon>
                    <polygon id="Shape" fill="#FFCC00" points="0 0 122 0 122 20 0 20"></polygon>
                    <g transform="translate(40.000000, 14.500000)" fill="#FFFFFF">
                        <g id="f" transform="translate(19.500000, 6.500000)">
                            <g id="e">
                                <g id="d-link" transform="translate(4.495431, 4.012066) rotate(10.000000) translate(-4.495431, -4.012066) translate(0.995431, 0.762066)">
                                    <g id="d">
                                        <g id="c" transform="translate(2.500000, 0.000000)">
                                            <g id="b">
                                                <polygon id="a" points="1 0 0.2275 2.3775 1.654 2.841"></polygon>
                                                <g id="a-link" transform="translate(1.000000, 1.500000) scale(-1, 1) translate(-1.000000, -1.500000) ">
                                                    <polygon id="a" points="1 0 0.2275 2.3775 1.654 2.841"></polygon>
                                                </g>
                                            </g>
                                            <g id="b-link" transform="translate(1.951057, 2.190983) rotate(72.000000) translate(-1.951057, -2.190983) translate(0.951057, 0.690983)">
                                                <g id="b">
                                                    <polygon id="a" points="1 0 0.2275 2.3775 1.654 2.841"></polygon>
                                                    <g id="a-link" transform="translate(1.000000, 1.500000) scale(-1, 1) translate(-1.000000, -1.500000) ">
                                                        <polygon id="a" points="1 0 0.2275 2.3775 1.654 2.841"></polygon>
                                                    </g>
                                                </g>
                                            </g>
                                        </g>
                                        <g id="b-link" transform="translate(2.548943, 2.190983) rotate(-72.000000) translate(-2.548943, -2.190983) translate(1.548943, 0.690983)">
                                            <g id="b">
                                                <polygon id="a" points="1 0 0.2275 2.3775 1.654 2.841"></polygon>
                                                <g id="a-link" transform="translate(1.000000, 1.500000) scale(-1, 1) translate(-1.000000, -1.500000) ">
                                                    <polygon id="a" points="1 0 0.2275 2.3775 1.654 2.841"></polygon>
                                                </g>
                                            </g>
                                        </g>
                                        <g id="c-link" transform="translate(2.984876, 3.492294) rotate(144.000000) translate(-2.984876, -3.492294) translate(0.984876, 1.492294)">
                                            <g id="c">
                                                <g id="b">
                                                    <polygon id="a" points="1 0 0.2275 2.3775 1.654 2.841"></polygon>
                                                    <g id="a-link" transform="translate(1.000000, 1.500000) scale(-1, 1) translate(-1.000000, -1.500000) ">
                                                        <polygon id="a" points="1 0 0.2275 2.3775 1.654 2.841"></polygon>
                                                    </g>
                                                </g>
                                                <g id="b-link" transform="translate(1.951057, 2.190983) rotate(72.000000) translate(-1.951057, -2.190983) translate(0.951057, 0.690983)">
                                                    <g id="b">
                                                        <polygon id="a" points="1 0 0.2275 2.3775 1.654 2.841"></polygon>
                                                        <g id="a-link" transform="translate(1.000000, 1.500000) scale(-1, 1) translate(-1.000000, -1.500000) ">
                                                            <polygon id="a" points="1 0 0.2275 2.3775 1.654 2.841"></polygon>
                                                        </g>
                                                    </g>
                                                </g>
                                            </g>
                                        </g>
                                    </g>
                                </g>
                                <g id="d-link" transform="translate(10.125000, 6.061062) rotate(30.000000) translate(-10.125000, -6.061062) translate(6.625000, 2.811062)">
                                    <g id="d">
                                        <g id="c" transform="translate(2.500000, 0.000000)">
                                            <g id="b">
                                                <polygon id="a" points="1 0 0.2275 2.3775 1.654 2.841"></polygon>
                                                <g id="a-link" transform="translate(1.000000, 1.500000) scale(-1, 1) translate(-1.000000, -1.500000) ">
                                                    <polygon id="a" points="1 0 0.2275 2.3775 1.654 2.841"></polygon>
                                                </g>
                                            </g>
                                            <g id="b-link" transform="translate(1.951057, 2.190983) rotate(72.000000) translate(-1.951057, -2.190983) translate(0.951057, 0.690983)">
                                                <g id="b">
                                                    <polygon id="a" points="1 0 0.2275 2.3775 1.654 2.841"></polygon>
                                                    <g id="a-link" transform="translate(1.000000, 1.500000) scale(-1, 1) translate(-1.000000, -1.500000) ">
                                                        <polygon id="a" points="1 0 0.2275 2.3775 1.654 2.841"></polygon>
                                                    </g>
                                                </g>
                                            </g>
                                        </g>
                                        <g id="b-link" transform="translate(2.548943, 2.190983) rotate(-72.000000) translate(-2.548943, -2.190983) translate(1.548943, 0.690983)">
                                            <g id="b">
                                                <polygon id="a" points="1 0 0.2275 2.3775 1.654 2.841"></polygon>
                                                <g id="a-link" transform="translate(1.000000, 1.500000) scale(-1, 1) translate(-1.000000, -1.500000) ">
                                                    <polygon id="a" points="1 0 0.2275 2.3775 1.654 2.841"></polygon>
                                                </g>
                                            </g>
                                        </g>
                                        <g id="c-link" transform="translate(2.984876, 3.492294) rotate(144.000000) translate(-2.984876, -3.492294) translate(0.984876, 1.492294)">
                                            <g id="c">
                                                <g id="b">
                                                    <polygon id="a" points="1 0 0.2275 2.3775 1.654 2.841"></polygon>
                                                    <g id="a-link" transform="translate(1.000000, 1.500000) scale(-1, 1) translate(-1.000000, -1.500000) ">
                                                        <polygon id="a" points="1 0 0.2275 2.3775 1.654 2.841"></polygon>
                                                    </g>
                                                </g>
                                                <g id="b-link" transform="translate(1.951057, 2.190983) rotate(72.000000) translate(-1.951057, -2.190983) translate(0.951057, 0.690983)">
                                                    <g id="b">
                                                        <polygon id="a" points="1 0 0.2275 2.3775 1.654 2.841"></polygon>
                                                        <g id="a-link" transform="translate(1.000000, 1.500000) scale(-1, 1) translate(-1.000000, -1.500000) ">
                                                            <polygon id="a" points="1 0 0.2275 2.3775 1.654 2.841"></polygon>
                                                        </g>
                                                    </g>
                                                </g>
                                            </g>
                                        </g>
                                    </g>
                                </g>
                            </g>
                            <g id="e-link" transform="translate(16.059475, 12.983037) rotate(40.000000) translate(-16.059475, -12.983037) translate(8.559475, 7.483037)">
                                <g id="e">
                                    <g id="d-link" transform="translate(4.495431, 4.012066) rotate(10.000000) translate(-4.495431, -4.012066) translate(0.995431, 0.762066)">
                                        <g id="d">
                                            <g id="c" transform="translate(2.500000, 0.000000)">
                                                <g id="b">
                                                    <polygon id="a" points="1 0 0.2275 2.3775 1.654 2.841"></polygon>
                                                    <g id="a-link" transform="translate(1.000000, 1.500000) scale(-1, 1) translate(-1.000000, -1.500000) ">
                                                        <polygon id="a" points="1 0 0.2275 2.3775 1.654 2.841"></polygon>
                                                    </g>
                                                </g>
                                                <g id="b-link" transform="translate(1.951057, 2.190983) rotate(72.000000) translate(-1.951057, -2.190983) translate(0.951057, 0.690983)">
                                                    <g id="b">
                                                        <polygon id="a" points="1 0 0.2275 2.3775 1.654 2.841"></polygon>
                                                        <g id="a-link" transform="translate(1.000000, 1.500000) scale(-1, 1) translate(-1.000000, -1.500000) ">
                                                            <polygon id="a" points="1 0 0.2275 2.3775 1.654 2.841"></polygon>
                                                        </g>
                                                    </g>
                                                </g>
                                            </g>
                                            <g id="b-link" transform="translate(2.548943, 2.190983) rotate(-72.000000) translate(-2.548943, -2.190983) translate(1.548943, 0.690983)">
                                                <g id="b">
                                                    <polygon id="a" points="1 0 0.2275 2.3775 1.654 2.841"></polygon>
                                                    <g id="a-link" transform="translate(1.000000, 1.500000) scale(-1, 1) translate(-1.000000, -1.500000) ">
                                                        <polygon id="a" points="1 0 0.2275 2.3775 1.654 2.841"></polygon>
                                                    </g>
                                                </g>
                                            </g>
                                            <g id="c-link" transform="translate(2.984876, 3.492294) rotate(144.000000) translate(-2.984876, -3.492294) translate(0.984876, 1.492294)">
                                                <g id="c">
                                                    <g id="b">
                                                        <polygon id="a" points="1 0 0.2275 2.3775 1.654 2.841"></polygon>
                                                        <g id="a-link" transform="translate(1.000000, 1.500000) scale(-1, 1) translate(-1.000000, -1.500000) ">
                                                            <polygon id="a" points="1 0 0.2275 2.3775 1.654 2.841"></polygon>
                                                        </g>
                                                    </g>
                                                    <g id="b-link" transform="translate(1.951057, 2.190983) rotate(72.000000) translate(-1.951057, -2.190983) translate(0.951057, 0.690983)">
                                                        <g id="b">
                                                            <polygon id="a" points="1 0 0.2275 2.3775 1.654 2.841"></polygon>
                                                            <g id="a-link" transform="translate(1.000000, 1.500000) scale(-1, 1) translate(-1.000000, -1.500000) ">
                                                                <polygon id="a" points="1 0 0.2275 2.3775 1.654 2.841"></polygon>
                                                            </g>
                                                        </g>
                                                    </g>
                                                </g>
                                            </g>
                                        </g>
                                    </g>
                                    <g id="d-link" transform="translate(10.125000, 6.061062) rotate(30.000000) translate(-10.125000, -6.061062) translate(6.625000, 2.811062)">
                                        <g id="d">
                                            <g id="c" transform="translate(2.500000, 0.000000)">
                                                <g id="b">
                                                    <polygon id="a" points="1 0 0.2275 2.3775 1.654 2.841"></polygon>
                                                    <g id="a-link" transform="translate(1.000000, 1.500000) scale(-1, 1) translate(-1.000000, -1.500000) ">
                                                        <polygon id="a" points="1 0 0.2275 2.3775 1.654 2.841"></polygon>
                                                    </g>
                                                </g>
                                                <g id="b-link" transform="translate(1.951057, 2.190983) rotate(72.000000) translate(-1.951057, -2.190983) translate(0.951057, 0.690983)">
                                                    <g id="b">
                                                        <polygon id="a" points="1 0 0.2275 2.3775 1.654 2.841"></polygon>
                                                        <g id="a-link" transform="translate(1.000000, 1.500000) scale(-1, 1) translate(-1.000000, -1.500000) ">
                                                            <polygon id="a" points="1 0 0.2275 2.3775 1.654 2.841"></polygon>
                                                        </g>
                                                    </g>
                                                </g>
                                            </g>
                                            <g id="b-link" transform="translate(2.548943, 2.190983) rotate(-72.000000) translate(-2.548943, -2.190983) translate(1.548943, 0.690983)">
                                                <g id="b">
                                                    <polygon id="a" points="1 0 0.2275 2.3775 1.654 2.841"></polygon>
                                                    <g id="a-link" transform="translate(1.000000, 1.500000) scale(-1, 1) translate(-1.000000, -1.500000) ">
                                                        <polygon id="a" points="1 0 0.2275 2.3775 1.654 2.841"></polygon>
                                                    </g>
                                                </g>
                                            </g>
                                            <g id="c-link" transform="translate(2.984876, 3.492294) rotate(144.000000) translate(-2.984876, -3.492294) translate(0.984876, 1.492294)">
                                                <g id="c">
                                                    <g id="b">
                                                        <polygon id="a" points="1 0 0.2275 2.3775 1.654 2.841"></polygon>
                                                        <g id="a-link" transform="translate(1.000000, 1.500000) scale(-1, 1) translate(-1.000000, -1.500000) ">
                                                            <polygon id="a" points="1 0 0.2275 2.3775 1.654 2.841"></polygon>
                                                        </g>
                                                    </g>
                                                    <g id="b-link" transform="translate(1.951057, 2.190983) rotate(72.000000) translate(-1.951057, -2.190983) translate(0.951057, 0.690983)">
                                                        <g id="b">
                                                            <polygon id="a" points="1 0 0.2275 2.3775 1.654 2.841"></polygon>
                                                            <g id="a-link" transform="translate(1.000000, 1.500000) scale(-1, 1) translate(-1.000000, -1.500000) ">
                                                                <polygon id="a" points="1 0 0.2275 2.3775 1.654 2.841"></polygon>
                                                            </g>
                                                        </g>
                                                    </g>
                                                </g>
                                            </g>
                                        </g>
                                    </g>
                                </g>
                            </g>
                        </g>
                        <g id="f-link" transform="translate(13.351666, 14.727843) rotate(-80.000000) translate(-13.351666, -14.727843) translate(0.601666, 3.477843)">
                            <g id="f">
                                <g id="e">
                                    <g id="d-link" transform="translate(4.495431, 4.012066) rotate(10.000000) translate(-4.495431, -4.012066) translate(0.995431, 0.762066)">
                                        <g id="d">
                                            <g id="c" transform="translate(2.500000, 0.000000)">
                                                <g id="b">
                                                    <polygon id="a" points="1 0 0.2275 2.3775 1.654 2.841"></polygon>
                                                    <g id="a-link" transform="translate(1.000000, 1.500000) scale(-1, 1) translate(-1.000000, -1.500000) ">
                                                        <polygon id="a" points="1 0 0.2275 2.3775 1.654 2.841"></polygon>
                                                    </g>
                                                </g>
                                                <g id="b-link" transform="translate(1.951057, 2.190983) rotate(72.000000) translate(-1.951057, -2.190983) translate(0.951057, 0.690983)">
                                                    <g id="b">
                                                        <polygon id="a" points="1 0 0.2275 2.3775 1.654 2.841"></polygon>
                                                        <g id="a-link" transform="translate(1.000000, 1.500000) scale(-1, 1) translate(-1.000000, -1.500000) ">
                                                            <polygon id="a" points="1 0 0.2275 2.3775 1.654 2.841"></polygon>
                                                        </g>
                                                    </g>
                                                </g>
                                            </g>
                                            <g id="b-link" transform="translate(2.548943, 2.190983) rotate(-72.000000) translate(-2.548943, -2.190983) translate(1.548943, 0.690983)">
                                                <g id="b">
                                                    <polygon id="a" points="1 0 0.2275 2.3775 1.654 2.841"></polygon>
                                                    <g id="a-link" transform="translate(1.000000, 1.500000) scale(-1, 1) translate(-1.000000, -1.500000) ">
                                                        <polygon id="a" points="1 0 0.2275 2.3775 1.654 2.841"></polygon>
                                                    </g>
                                                </g>
                                            </g>
                                            <g id="c-link" transform="translate(2.984876, 3.492294) rotate(144.000000) translate(-2.984876, -3.492294) translate(0.984876, 1.492294)">
                                                <g id="c">
                                                    <g id="b">
                                                        <polygon id="a" points="1 0 0.2275 2.3775 1.654 2.841"></polygon>
                                                        <g id="a-link" transform="translate(1.000000, 1.500000) scale(-1, 1) translate(-1.000000, -1.500000) ">
                                                            <polygon id="a" points="1 0 0.2275 2.3775 1.654 2.841"></polygon>
                                                        </g>
                                                    </g>
                                                    <g id="b-link" transform="translate(1.951057, 2.190983) rotate(72.000000) translate(-1.951057, -2.190983) translate(0.951057, 0.690983)">
                                                        <g id="b">
                                                            <polygon id="a" points="1 0 0.2275 2.3775 1.654 2.841"></polygon>
                                                            <g id="a-link" transform="translate(1.000000, 1.500000) scale(-1, 1) translate(-1.000000, -1.500000) ">
                                                                <polygon id="a" points="1 0 0.2275 2.3775 1.654 2.841"></polygon>
                                                            </g>
                                                        </g>
                                                    </g>
                                                </g>
                                            </g>
                                        </g>
                                    </g>
                                    <g id="d-link" transform="translate(10.125000, 6.061062) rotate(30.000000) translate(-10.125000, -6.061062) translate(6.625000, 2.811062)">
                                        <g id="d">
                                            <g id="c" transform="translate(2.500000, 0.000000)">
                                                <g id="b">
                                                    <polygon id="a" points="1 0 0.2275 2.3775 1.654 2.841"></polygon>
                                                    <g id="a-link" transform="translate(1.000000, 1.500000) scale(-1, 1) translate(-1.000000, -1.500000) ">
                                                        <polygon id="a" points="1 0 0.2275 2.3775 1.654 2.841"></polygon>
                                                    </g>
                                                </g>
                                                <g id="b-link" transform="translate(1.951057, 2.190983) rotate(72.000000) translate(-1.951057, -2.190983) translate(0.951057, 0.690983)">
                                                    <g id="b">
                                                        <polygon id="a" points="1 0 0.2275 2.3775 1.654 2.841"></polygon>
                                                        <g id="a-link" transform="translate(1.000000, 1.500000) scale(-1, 1) translate(-1.000000, -1.500000) ">
                                                            <polygon id="a" points="1 0 0.2275 2.3775 1.654 2.841"></polygon>
                                                        </g>
                                                    </g>
                                                </g>
                                            </g>
                                            <g id="b-link" transform="translate(2.548943, 2.190983) rotate(-72.000000) translate(-2.548943, -2.190983) translate(1.548943, 0.690983)">
                                                <g id="b">
                                                    <polygon id="a" points="1 0 0.2275 2.3775 1.654 2.841"></polygon>
                                                    <g id="a-link" transform="translate(1.000000, 1.500000) scale(-1, 1) translate(-1.000000, -1.500000) ">
                                                        <polygon id="a" points="1 0 0.2275 2.3775 1.654 2.841"></polygon>
                                                    </g>
                                                </g>
                                            </g>
                                            <g id="c-link" transform="translate(2.984876, 3.492294) rotate(144.000000) translate(-2.984876, -3.492294) translate(0.984876, 1.492294)">
                                                <g id="c">
                                                    <g id="b">
                                                        <polygon id="a" points="1 0 0.2275 2.3775 1.654 2.841"></polygon>
                                                        <g id="a-link" transform="translate(1.000000, 1.500000) scale(-1, 1) translate(-1.000000, -1.500000) ">
                                                            <polygon id="a" points="1 0 0.2275 2.3775 1.654 2.841"></polygon>
                                                        </g>
                                                    </g>
                                                    <g id="b-link" transform="translate(1.951057, 2.190983) rotate(72.000000) translate(-1.951057, -2.190983) translate(0.951057, 0.690983)">
                                                        <g id="b">
                                                            <polygon id="a" points="1 0 0.2275 2.3775 1.654 2.841"></polygon>
                                                            <g id="a-link" transform="translate(1.000000, 1.500000) scale(-1, 1) translate(-1.000000, -1.500000) ">
                                                                <polygon id="a" points="1 0 0.2275 2.3775 1.654 2.841"></polygon>
                                                            </g>
                                                        </g>
                                                    </g>
                                                </g>
                                            </g>
                                        </g>
                                    </g>
                                </g>
                                <g id="e-link" transform="translate(16.059475, 12.983037) rotate(40.000000) translate(-16.059475, -12.983037) translate(8.559475, 7.483037)">
                                    <g id="e">
                                        <g id="d-link" transform="translate(4.495431, 4.012066) rotate(10.000000) translate(-4.495431, -4.012066) translate(0.995431, 0.762066)">
                                            <g id="d">
                                                <g id="c" transform="translate(2.500000, 0.000000)">
                                                    <g id="b">
                                                        <polygon id="a" points="1 0 0.2275 2.3775 1.654 2.841"></polygon>
                                                        <g id="a-link" transform="translate(1.000000, 1.500000) scale(-1, 1) translate(-1.000000, -1.500000) ">
                                                            <polygon id="a" points="1 0 0.2275 2.3775 1.654 2.841"></polygon>
                                                        </g>
                                                    </g>
                                                    <g id="b-link" transform="translate(1.951057, 2.190983) rotate(72.000000) translate(-1.951057, -2.190983) translate(0.951057, 0.690983)">
                                                        <g id="b">
                                                            <polygon id="a" points="1 0 0.2275 2.3775 1.654 2.841"></polygon>
                                                            <g id="a-link" transform="translate(1.000000, 1.500000) scale(-1, 1) translate(-1.000000, -1.500000) ">
                                                                <polygon id="a" points="1 0 0.2275 2.3775 1.654 2.841"></polygon>
                                                            </g>
                                                        </g>
                                                    </g>
                                                </g>
                                                <g id="b-link" transform="translate(2.548943, 2.190983) rotate(-72.000000) translate(-2.548943, -2.190983) translate(1.548943, 0.690983)">
                                                    <g id="b">
                                                        <polygon id="a" points="1 0 0.2275 2.3775 1.654 2.841"></polygon>
                                                        <g id="a-link" transform="translate(1.000000, 1.500000) scale(-1, 1) translate(-1.000000, -1.500000) ">
                                                            <polygon id="a" points="1 0 0.2275 2.3775 1.654 2.841"></polygon>
                                                        </g>
                                                    </g>
                                                </g>
                                                <g id="c-link" transform="translate(2.984876, 3.492294) rotate(144.000000) translate(-2.984876, -3.492294) translate(0.984876, 1.492294)">
                                                    <g id="c">
                                                        <g id="b">
                                                            <polygon id="a" points="1 0 0.2275 2.3775 1.654 2.841"></polygon>
                                                            <g id="a-link" transform="translate(1.000000, 1.500000) scale(-1, 1) translate(-1.000000, -1.500000) ">
                                                                <polygon id="a" points="1 0 0.2275 2.3775 1.654 2.841"></polygon>
                                                            </g>
                                                        </g>
                                                        <g id="b-link" transform="translate(1.951057, 2.190983) rotate(72.000000) translate(-1.951057, -2.190983) translate(0.951057, 0.690983)">
                                                            <g id="b">
                                                                <polygon id="a" points="1 0 0.2275 2.3775 1.654 2.841"></polygon>
                                                                <g id="a-link" transform="translate(1.000000, 1.500000) scale(-1, 1) translate(-1.000000, -1.500000) ">
                                                                    <polygon id="a" points="1 0 0.2275 2.3775 1.654 2.841"></polygon>
                                                                </g>
                                                            </g>
                                                        </g>
                                                    </g>
                                                </g>
                                            </g>
                                        </g>
                                        <g id="d-link" transform="translate(10.125000, 6.061062) rotate(30.000000) translate(-10.125000, -6.061062) translate(6.625000, 2.811062)">
                                            <g id="d">
                                                <g id="c" transform="translate(2.500000, 0.000000)">
                                                    <g id="b">
                                                        <polygon id="a" points="1 0 0.2275 2.3775 1.654 2.841"></polygon>
                                                        <g id="a-link" transform="translate(1.000000, 1.500000) scale(-1, 1) translate(-1.000000, -1.500000) ">
                                                            <polygon id="a" points="1 0 0.2275 2.3775 1.654 2.841"></polygon>
                                                        </g>
                                                    </g>
                                                    <g id="b-link" transform="translate(1.951057, 2.190983) rotate(72.000000) translate(-1.951057, -2.190983) translate(0.951057, 0.690983)">
                                                        <g id="b">
                                                            <polygon id="a" points="1 0 0.2275 2.3775 1.654 2.841"></polygon>
                                                            <g id="a-link" transform="translate(1.000000, 1.500000) scale(-1, 1) translate(-1.000000, -1.500000) ">
                                                                <polygon id="a" points="1 0 0.2275 2.3775 1.654 2.841"></polygon>
                                                            </g>
                                                        </g>
                                                    </g>
                                                </g>
                                                <g id="b-link" transform="translate(2.548943, 2.190983) rotate(-72.000000) translate(-2.548943, -2.190983) translate(1.548943, 0.690983)">
                                                    <g id="b">
                                                        <polygon id="a" points="1 0 0.2275 2.3775 1.654 2.841"></polygon>
                                                        <g id="a-link" transform="translate(1.000000, 1.500000) scale(-1, 1) translate(-1.000000, -1.500000) ">
                                                            <polygon id="a" points="1 0 0.2275 2.3775 1.654 2.841"></polygon>
                                                        </g>
                                                    </g>
                                                </g>
                                                <g id="c-link" transform="translate(2.984876, 3.492294) rotate(144.000000) translate(-2.984876, -3.492294) translate(0.984876, 1.492294)">
                                                    <g id="c">
                                                        <g id="b">
                                                            <polygon id="a" points="1 0 0.2275 2.3775 1.654 2.841"></polygon>
                                                            <g id="a-link" transform="translate(1.000000, 1.500000) scale(-1, 1) translate(-1.000000, -1.500000) ">
                                                                <polygon id="a" points="1 0 0.2275 2.3775 1.654 2.841"></polygon>
                                                            </g>
                                                        </g>
                                                        <g id="b-link" transform="translate(1.951057, 2.190983) rotate(72.000000) translate(-1.951057, -2.190983) translate(0.951057, 0.690983)">
                                                            <g id="b">
                                                                <polygon id="a" points="1 0 0.2275 2.3775 1.654 2.841"></polygon>
                                                                <g id="a-link" transform="translate(1.000000, 1.500000) scale(-1, 1) translate(-1.000000, -1.500000) ">
                                                                    <polygon id="a" points="1 0 0.2275 2.3775 1.654 2.841"></polygon>
                                                                </g>
                                                            </g>
                                                        </g>
                                                    </g>
                                                </g>
                                            </g>
                                        </g>
                                    </g>
                                </g>
                            </g>
                        </g>
                    </g>
                </g>
            </g>
        </g>
    </g>
</svg>