<?xml version="1.0" encoding="UTF-8" standalone="no"?>
<svg width="122px" height="60px" viewBox="0 0 122 60" version="1.1" xmlns="http://www.w3.org/2000/svg" xmlns:xlink="http://www.w3.org/1999/xlink">
    <!-- Generator: Sketch 3.8.2 (29753) - http://www.bohemiancoding.com/sketch -->
    <title>un</title>
    <desc>Created with Sketch.</desc>
    <defs></defs>
    <g id="Page-1" stroke="none" stroke-width="1" fill="none" fill-rule="evenodd">
        <g id="un">
            <g id="Group">
                <g>
                    <polygon id="Shape" fill="#4B92DB" points="0 0 122 0 122 60 0 60"></polygon>
                    <g transform="translate(43.443750, 16.200000)" fill="#FFFFFF">
                        <path d="M22.263975,27.82725 C22.061925,28.05825 21.800475,28.27395 21.554025,28.47285 C19.96155,26.827125 18.092025,25.0032 16.314975,25.0032 C15.213225,25.0032 14.419725,25.84185 13.494,26.4336 C12.20925,27.25485 10.44705,27.717225 8.937,27.1146 C8.1246,26.806125 7.3377,26.35185 6.74955,25.61385 C7.93815,26.4336 9.71805,26.54385 11.05995,25.987125 C12.54315,25.37175 14.05275,24.554625 15.74295,24.554625 C18.234675,24.554625 20.602725,26.240175 22.263975,27.827325 L22.263975,27.82725 Z M3.84825,22.651275 C5.498025,24.529275 8.18865,23.925 10.390875,24.39405 C10.6974,24.4593 10.985325,24.561075 11.31435,24.5106 C11.0526,24.34455 10.7055,24.325875 10.4031,24.21195 C8.694375,23.568225 8.427975,21.739425 7.4928,20.48085 C8.68725,21.274875 9.6768,22.362 10.7937,23.383575 C11.571,24.094575 12.539475,24.39885 13.54395,24.603225 C13.3026,24.691425 12.98685,24.670725 12.7269,24.735075 C10.9227,25.182675 8.922375,25.889175 7.0026,25.255575 C5.7636,24.846825 4.47435,23.878575 3.848325,22.651275 L3.84825,22.651275 Z M1.203975,18.305025 C2.232975,20.63475 4.818225,20.817225 6.537225,22.246425 C6.864225,22.518225 7.188225,22.768425 7.54725,22.935675 L7.565775,22.916925 C7.169025,22.558125 6.739875,22.1304 6.432525,21.683925 C5.450025,20.256375 5.777025,18.305175 5.019525,16.791675 C5.7078,17.6157 6.353325,18.464175 6.749625,19.407825 C7.38735,20.926275 7.604025,22.658475 9.03435,23.812275 C7.48635,23.301525 5.70045,23.403225 4.30635,22.490175 C2.84115,21.5304 1.483125,20.015475 1.203975,18.305025 L1.203975,18.305025 Z M0.1017,13.591575 C0.2505,15.644175 2.4357,16.7406 3.47775,18.427875 C3.700275,18.78825 3.92925,19.16025 4.2525,19.45125 C4.2021,19.2327 4.02225,19.03905 3.92325,18.824625 C3.589125,18.10065 3.43785,17.2629 3.52125,16.401375 C3.6228,15.35325 4.05975,14.3799 3.89205,13.27725 C4.790175,15.21585 4.50045,17.6394 5.019525,19.7355 C5.134275,20.199225 5.416725,20.60505 5.590725,21.04425 C4.708275,20.373 3.55185,19.77705 2.583225,19.01355 C1.646475,18.275175 0.833325,17.40975 0.4107,16.28355 C0.1062,15.4722 0.026925,14.504325 0.1017,13.5915 L0.1017,13.591575 Z M0.16275,9.809625 C0.268125,9.351525 0.34875,8.877375 0.5481,8.45715 C0.17085,10.3935 1.4589,11.792175 1.8987,13.467375 C2.06445,14.09865 2.12115,14.769375 2.37645,15.3585 C2.400225,15.37125 2.42085,15.3465 2.43555,15.32745 C1.800075,13.5447 2.73165,11.89695 3.6393,10.491675 C3.8778,10.1223 3.99255,9.692175 4.104,9.257325 C4.2021,10.064325 4.03035,10.9986 3.881025,11.831325 C3.6888,12.9036 3.322275,13.908525 3.031125,14.943075 C2.83935,15.589275 2.8899,16.318575 2.988375,16.995825 L2.89575,16.92195 C2.22,15.67455 0.88695,14.700075 0.48435,13.3386 C0.1626,12.2505 -0.06,10.99335 0.16275,9.809625 L0.16275,9.809625 Z M0.8754,7.726875 C0.8754,6.261525 1.445925,5.06625 2.30175,3.975 C2.3265,3.96255 2.344275,3.93765 2.3763,3.9435 C1.4343,5.3766 2.2917,7.1856 2.17065,8.811 L2.046375,10.479375 C2.064825,10.491525 2.064825,10.541625 2.108625,10.522425 C2.164275,10.336425 2.18115,10.138425 2.213625,9.946425 C2.44035,8.601525 3.621375,7.665375 4.622925,6.715875 C4.8519775,6.49896773 5.0302327,6.23409485 5.144925,5.940225 C5.061675,6.6102 4.874775,7.296975 4.574025,7.905825 C3.803025,9.466575 2.314125,10.726425 2.0463,12.5001 C1.91655,10.80015 0.875325,9.536475 0.875325,7.726575 L0.8754,7.726875 Z M3.3588,2.784075 C3.8325,2.258775 4.3635,1.849575 4.9956,1.6878 C3.76815,2.531775 3.834825,4.04025 3.459,5.301525 C3.3216,5.762775 3.119625,6.194775 3.012225,6.6714 L3.04335,6.6963 C3.2475,6.157425 3.5979,5.63955 4.05435,5.20875 C4.91775,4.39425 6.21585,3.9012 6.642975,2.70975 C6.623475,4.36545 5.211975,5.6241 3.923025,6.59775 C3.344775,7.03455 2.853525,7.6209 2.553675,8.2356 C2.6037,7.7781 2.626425,7.397475 2.585625,6.95085 C2.453325,5.50455 2.367375,3.883125 3.358725,2.78415 L3.3588,2.784075 Z M8.3409,0.0003 C7.42995,0.79965 6.82215,1.828575 6.12225,2.75355 C5.54025,3.52275 4.7415,3.9993 4.054725,4.6449 C4.42545,3.875775 4.493925,2.994375 4.964775,2.25015 C5.7699,0.9777 7.100625,0.4839 8.3409,0.000375 L8.3409,0.0003 Z" id="a"></path>
                        <g id="a-link" transform="translate(23.977500, 14.250000) scale(-1, 1) translate(-23.977500, -14.250000) translate(12.840000, 0.000000)">
                            <path d="M22.263975,27.82725 C22.061925,28.05825 21.800475,28.27395 21.554025,28.47285 C19.96155,26.827125 18.092025,25.0032 16.314975,25.0032 C15.213225,25.0032 14.419725,25.84185 13.494,26.4336 C12.20925,27.25485 10.44705,27.717225 8.937,27.1146 C8.1246,26.806125 7.3377,26.35185 6.74955,25.61385 C7.93815,26.4336 9.71805,26.54385 11.05995,25.987125 C12.54315,25.37175 14.05275,24.554625 15.74295,24.554625 C18.234675,24.554625 20.602725,26.240175 22.263975,27.827325 L22.263975,27.82725 Z M3.84825,22.651275 C5.498025,24.529275 8.18865,23.925 10.390875,24.39405 C10.6974,24.4593 10.985325,24.561075 11.31435,24.5106 C11.0526,24.34455 10.7055,24.325875 10.4031,24.21195 C8.694375,23.568225 8.427975,21.739425 7.4928,20.48085 C8.68725,21.274875 9.6768,22.362 10.7937,23.383575 C11.571,24.094575 12.539475,24.39885 13.54395,24.603225 C13.3026,24.691425 12.98685,24.670725 12.7269,24.735075 C10.9227,25.182675 8.922375,25.889175 7.0026,25.255575 C5.7636,24.846825 4.47435,23.878575 3.848325,22.651275 L3.84825,22.651275 Z M1.203975,18.305025 C2.232975,20.63475 4.818225,20.817225 6.537225,22.246425 C6.864225,22.518225 7.188225,22.768425 7.54725,22.935675 L7.565775,22.916925 C7.169025,22.558125 6.739875,22.1304 6.432525,21.683925 C5.450025,20.256375 5.777025,18.305175 5.019525,16.791675 C5.7078,17.6157 6.353325,18.464175 6.749625,19.407825 C7.38735,20.926275 7.604025,22.658475 9.03435,23.812275 C7.48635,23.301525 5.70045,23.403225 4.30635,22.490175 C2.84115,21.5304 1.483125,20.015475 1.203975,18.305025 L1.203975,18.305025 Z M0.1017,13.591575 C0.2505,15.644175 2.4357,16.7406 3.47775,18.427875 C3.700275,18.78825 3.92925,19.16025 4.2525,19.45125 C4.2021,19.2327 4.02225,19.03905 3.92325,18.824625 C3.589125,18.10065 3.43785,17.2629 3.52125,16.401375 C3.6228,15.35325 4.05975,14.3799 3.89205,13.27725 C4.790175,15.21585 4.50045,17.6394 5.019525,19.7355 C5.134275,20.199225 5.416725,20.60505 5.590725,21.04425 C4.708275,20.373 3.55185,19.77705 2.583225,19.01355 C1.646475,18.275175 0.833325,17.40975 0.4107,16.28355 C0.1062,15.4722 0.026925,14.504325 0.1017,13.5915 L0.1017,13.591575 Z M0.16275,9.809625 C0.268125,9.351525 0.34875,8.877375 0.5481,8.45715 C0.17085,10.3935 1.4589,11.792175 1.8987,13.467375 C2.06445,14.09865 2.12115,14.769375 2.37645,15.3585 C2.400225,15.37125 2.42085,15.3465 2.43555,15.32745 C1.800075,13.5447 2.73165,11.89695 3.6393,10.491675 C3.8778,10.1223 3.99255,9.692175 4.104,9.257325 C4.2021,10.064325 4.03035,10.9986 3.881025,11.831325 C3.6888,12.9036 3.322275,13.908525 3.031125,14.943075 C2.83935,15.589275 2.8899,16.318575 2.988375,16.995825 L2.89575,16.92195 C2.22,15.67455 0.88695,14.700075 0.48435,13.3386 C0.1626,12.2505 -0.06,10.99335 0.16275,9.809625 L0.16275,9.809625 Z M0.8754,7.726875 C0.8754,6.261525 1.445925,5.06625 2.30175,3.975 C2.3265,3.96255 2.344275,3.93765 2.3763,3.9435 C1.4343,5.3766 2.2917,7.1856 2.17065,8.811 L2.046375,10.479375 C2.064825,10.491525 2.064825,10.541625 2.108625,10.522425 C2.164275,10.336425 2.18115,10.138425 2.213625,9.946425 C2.44035,8.601525 3.621375,7.665375 4.622925,6.715875 C4.8519775,6.49896773 5.0302327,6.23409485 5.144925,5.940225 C5.061675,6.6102 4.874775,7.296975 4.574025,7.905825 C3.803025,9.466575 2.314125,10.726425 2.0463,12.5001 C1.91655,10.80015 0.875325,9.536475 0.875325,7.726575 L0.8754,7.726875 Z M3.3588,2.784075 C3.8325,2.258775 4.3635,1.849575 4.9956,1.6878 C3.76815,2.531775 3.834825,4.04025 3.459,5.301525 C3.3216,5.762775 3.119625,6.194775 3.012225,6.6714 L3.04335,6.6963 C3.2475,6.157425 3.5979,5.63955 4.05435,5.20875 C4.91775,4.39425 6.21585,3.9012 6.642975,2.70975 C6.623475,4.36545 5.211975,5.6241 3.923025,6.59775 C3.344775,7.03455 2.853525,7.6209 2.553675,8.2356 C2.6037,7.7781 2.626425,7.397475 2.585625,6.95085 C2.453325,5.50455 2.367375,3.883125 3.358725,2.78415 L3.3588,2.784075 Z M8.3409,0.0003 C7.42995,0.79965 6.82215,1.828575 6.12225,2.75355 C5.54025,3.52275 4.7415,3.9993 4.054725,4.6449 C4.42545,3.875775 4.493925,2.994375 4.964775,2.25015 C5.7699,0.9777 7.100625,0.4839 8.3409,0.000375 L8.3409,0.0003 Z" id="a"></path>
                        </g>
                    </g>
                    <path d="M72.1265,32.751 L71.8575,32.604125 C71.2895735,33.7747074 70.5367608,34.8461445 69.628,35.77725 L68.056125,34.205375 C68.826125,33.411625 69.447,32.511 69.904375,31.5375 L69.636625,31.39125 C69.1867343,32.3514517 68.5803431,33.2301804 67.84225,33.9915 L66.41825,32.56775 C67.0208005,31.9420427 67.5101495,31.2164781 67.8645,30.423375 L67.598875,30.278375 C67.2582509,31.0461434 66.7866341,31.748789 66.205125,32.354875 L64.631375,30.781125 C65.0631056,30.3245139 65.4043033,29.7901519 65.636875,29.206375 L65.371125,29.061375 C65.1530744,29.620012 64.8301906,30.1317893 64.419875,30.569125 L62.991625,29.141125 C63.3971456,28.6903349 63.6358352,28.1141266 63.667875,27.508625 L65.6895,27.508625 C65.6728718,28.0406257 65.5652318,28.5658465 65.37125,29.0615 L65.63725,29.2065 C65.8523289,28.66537 65.9707916,28.0906986 65.98725,27.508625 L68.216,27.508625 C68.1969027,28.4637461 67.9871729,29.4054261 67.599125,30.278375 L67.864875,30.423375 C68.2746018,29.5051063 68.4952365,28.5137383 68.513625,27.508375 L70.531625,27.508375 C70.5119769,28.8513648 70.2068931,30.174815 69.636625,31.390875 L69.904125,31.537375 C70.490375,30.290625 70.808625,28.924 70.829625,27.508625 L73.058125,27.508625 C73.0382432,29.2748291 72.628168,31.0147997 71.85725,32.604 L72.12625,32.750875 C72.932,31.09125 73.35975,29.258625 73.35975,27.359625 C73.35975,25.744625 73.050375,24.177875 72.46225,22.724375 L72.18625,22.843125 C72.74,24.214625 73.04,25.689625 73.0585,27.210625 L70.82975,27.210625 C70.8130986,26.0159097 70.5784158,24.8342779 70.13725,23.723875 L69.863,23.841375 C70.2885984,24.9145499 70.5152117,26.0562572 70.53175,27.210625 L68.51375,27.210625 C68.4973116,26.3303233 68.3260311,25.4597882 68.00775,24.638875 L67.733625,24.756625 C68.0362606,25.54025 68.1995526,26.3707549 68.216125,27.210625 L65.9875,27.210625 C65.9723812,26.6731858 65.8703965,26.1417341 65.6855,25.636875 L65.411375,25.754375 C65.5809568,26.2219209 65.6749683,26.7134983 65.689875,27.210625 L63.66825,27.210625 C63.6362402,26.6051166 63.3975466,26.0288987 62.992,25.578125 L64.42175,24.14875 C64.8577079,24.6110532 65.1945992,25.1575657 65.41175,25.75475 L65.6855,25.63725 C65.4531494,25.0053795 65.094767,24.4273405 64.632125,23.93825 L66.208,22.3625 C66.8805,23.0625 67.393875,23.875 67.73425,24.75675 L68.008,24.639 C67.6485771,23.7126935 67.1083255,22.8672171 66.41875,22.151875 L67.8455,20.724625 C68.72925,21.636125 69.40825,22.693625 69.86325,23.8415 L70.137375,23.724 C69.667125,22.541875 68.966875,21.45275 68.056125,20.514375 L69.63175,18.938125 C70.74625,20.08 71.605875,21.404625 72.186375,22.843125 L72.462625,22.724625 C71.849125,21.206625 70.932125,19.8125 69.7395,18.62 C68.542625,17.422875 67.14225,16.50375 65.61775,15.890375 L65.508,16.169875 C66.94975,16.7505 68.277375,17.611125 69.421125,18.727625 L67.845375,20.303625 C66.922875,19.409625 65.854125,18.716625 64.693875,18.247125 L64.585125,18.52425 C65.707,18.97925 66.741375,19.64975 67.634875,20.5165 L66.208,21.9435 C65.5256271,21.2853659 64.7245887,20.7626656 63.847375,20.403125 L63.738375,20.68025 C64.5775219,21.0247482 65.3439794,21.5247777 65.997375,22.154 L64.421625,23.72975 C63.9852064,23.3173112 63.4777894,22.9872064 62.923875,22.755375 L62.814875,23.032875 C63.3308296,23.2494185 63.8037403,23.5567894 64.211125,23.940375 L62.7815,25.37 C62.3307372,24.964436 61.7545129,24.7257397 61.149,24.69375 L61.149,22.6725 C61.7217108,22.6895112 62.2864035,22.8117546 62.814875,23.033125 L62.923875,22.755625 C62.3605799,22.5208471 61.7589001,22.3916978 61.148875,22.374625 L61.148875,20.145875 C62.0376923,20.1626297 62.9157151,20.3438964 63.7385,20.6805 L63.84725,20.403375 C62.9897731,20.0532157 62.0748172,19.8650369 61.14875,19.848375 L61.14875,17.82925 C62.345375,17.8475 63.50575,18.086125 64.585,18.523625 L64.69375,18.246375 C63.58,17.795375 62.383375,17.549625 61.14875,17.531375 L61.14875,15.3025 C62.666625,15.320875 64.139,15.62 65.508,16.17125 L65.61775,15.89175 C64.16925,15.308625 62.608375,15.00125 60.999875,15.00125 C59.0795817,14.9998623 57.1857197,15.4487961 55.470375,16.312 L55.606125,16.572 C57.217375,15.7645 58.999875,15.324875 60.851125,15.3025 L60.851125,17.5315 C59.3895006,17.5524052 57.9512167,17.90119 56.642375,18.552125 L56.77775,18.811375 C58.03125,18.191 59.414875,17.851 60.851125,17.829125 L60.851125,19.847375 C59.7632603,19.8679834 58.6930421,20.1260883 57.715375,20.603625 L57.851625,20.863875 C58.7876246,20.4099418 59.8110446,20.1647065 60.851125,20.145125 L60.851125,22.373875 C60.1710741,22.3935167 59.5023361,22.5528616 58.8865,22.842 L59.023375,23.1035 C59.5970897,22.8372455 60.2189141,22.690316 60.851125,22.671625 L60.851125,24.6935 C60.5454081,24.7103759 60.2448857,24.7798085 59.96275,24.89875 L60.099375,25.16 C60.3852495,25.0431885 60.6911813,24.9833184 61,24.98375 C61.63525,24.98375 62.232125,25.231 62.68125,25.68 C63.1285473,26.1249452 63.379257,26.7303395 63.3775,27.36125 C63.3775,28.672125 62.31125,29.73875 61,29.73875 C60.3690978,29.7404652 59.763719,29.4897618 59.31875,29.0425 C58.8714882,28.597531 58.6207848,27.9921522 58.6225,27.36125 C58.6225,26.72625 58.87,26.12875 59.31875,25.68 C59.5418118,25.4565073 59.8071925,25.2797286 60.099375,25.16 L59.96275,24.89875 C59.6906608,25.0136817 59.4395062,25.1729236 59.2195,25.37 L57.78925,23.93975 C58.153318,23.5968052 58.5699714,23.3143941 59.023375,23.10325 L58.8865,22.84175 C58.4066759,23.0670369 57.9656817,23.3671087 57.58,23.73075 L56.0025,22.15325 C56.5475451,21.6292029 57.171525,21.1940241 57.851625,20.863625 L57.715375,20.603125 C57.009188,20.9476707 56.361132,21.4003736 55.794625,21.944875 L54.365125,20.5155 C55.0759132,19.8254392 55.8899376,19.2504096 56.777875,18.811125 L56.6425,18.551875 C55.7284211,19.0054154 54.890142,19.5978611 54.1575,20.308125 L52.5785,18.729125 C53.4702244,17.8580319 54.4914986,17.1303213 55.606,16.571875 L55.470375,16.311875 C53.06375,17.52125 51.104625,19.492125 49.911625,21.908125 L50.170375,22.047875 C50.7338711,20.9020507 51.475591,19.8528841 52.367875,18.9395 L53.94725,20.51875 C53.2082907,21.2797014 52.5968984,22.1548555 52.136625,23.1105 L52.394625,23.249875 C52.8407749,22.3189416 53.4350878,21.4666063 54.154375,20.726125 L55.584,22.1555 C55.0043722,22.7586799 54.5291343,23.4540903 54.17775,24.21325 L54.43625,24.35275 C54.7734341,23.618348 55.2317915,22.9459186 55.792125,22.363625 L57.369625,23.941125 C56.9631759,24.3719762 56.63644,24.8715604 56.404625,25.416625 L56.6655,25.557625 C56.8824437,25.0372576 57.1917128,24.5604165 57.578375,24.150125 L59.00875,25.580125 C58.6040021,26.0311393 58.3653036,26.606785 58.332125,27.211875 L56.31,27.211875 C56.3269751,26.6434073 56.4474006,26.0827912 56.665375,25.5575 L56.40475,25.416625 C56.1632431,25.9854157 56.0301262,26.5943198 56.01225,27.212 L53.7835,27.212 C53.8020792,26.2241889 54.0242069,25.250827 54.436,24.35275 L54.1775,24.21325 C53.7413196,25.1539777 53.5059017,26.1752571 53.48625,27.212 L51.46775,27.212 C51.489,25.81825 51.808625,24.473625 52.394625,23.2495 L52.136625,23.110375 C51.519896,24.3910209 51.1901376,25.7908517 51.170375,27.212125 L48.94125,27.212125 C48.96325,25.39175 49.38875,23.63775 50.170375,22.048 L49.911375,21.90825 C49.0734957,23.6037286 48.6384443,25.4697871 48.640125,27.361 C48.639514,28.5399949 48.8070336,29.7130528 49.137625,30.84475 L49.4295,30.771 C49.1187674,29.711366 48.954576,28.6141775 48.9415,27.51 L51.17025,27.51 C51.1831366,28.4308374 51.3250595,29.345321 51.591875,30.22675 L51.880875,30.153875 C51.619911,29.2963567 51.4809231,28.4063799 51.468,27.510125 L53.486125,27.510125 C53.5001183,28.2401406 53.6201222,28.9642485 53.842375,29.65975 L54.132,29.58675 C53.9152336,28.915245 53.7979892,28.2156114 53.784,27.510125 L56.01275,27.510125 C56.0276068,28.0322701 56.1243254,28.5488478 56.299375,29.041 L56.589,28.967875 C56.4194022,28.4998917 56.3253104,28.0079139 56.31025,27.510375 L58.332125,27.510375 C58.3641911,28.1157962 58.602881,28.691917 59.008375,29.142625 L57.578625,30.57225 C57.1431959,30.1102314 56.8064718,29.564336 56.589,28.967875 L56.299375,29.041 C56.5309997,29.6894089 56.8949574,30.2825535 57.368125,30.78275 L55.792375,32.35875 C55.0359076,31.5729873 54.4683079,30.6252779 54.132625,29.5875 L53.843,29.6605 C54.188,30.7395 54.77625,31.732 55.58225,32.56975 L54.155125,33.997 C53.087875,32.8965 52.317,31.583625 51.881375,30.1545 L51.592625,30.2275 C52.041375,31.70775 52.838875,33.06825 53.9445,34.2075 L52.368625,35.783375 C50.974,34.354375 49.977875,32.639125 49.430125,30.772125 L49.13825,30.845375 C49.712625,32.811375 50.7725,34.61325 52.261125,36.101625 C53.269125,37.109875 54.421375,37.921625 55.6705,38.5195 L55.818375,38.257 C54.63625,37.69375 53.542625,36.9345 52.57925,35.993875 L54.155,34.41825 C54.961,35.2017248 55.8953712,35.8411983 56.9175,36.308875 L57.064625,36.048 C56.0657932,35.5945247 55.1527244,34.9720547 54.365625,34.208 L55.79275,32.78075 C56.4509897,33.4153212 57.2197705,33.9241136 58.061125,34.282 L58.207875,34.021625 C57.3900389,33.6779949 56.6427424,33.1861964 56.003625,32.571 L57.579625,30.995 C58.0780358,31.4665877 58.6687997,31.8297287 59.314625,32.0615 L59.463375,31.79775 C58.8403989,31.5818226 58.2701906,31.23646 57.79025,30.784375 L59.219875,29.35475 C59.6705501,29.760453 60.2468258,29.9991706 60.852375,30.031 L60.852375,32.053 C60.3792316,32.0384692 59.9110126,31.9524113 59.463625,31.79775 L59.314625,32.0615 C59.8086929,32.2382718 60.3275937,32.3358504 60.852125,32.350625 L60.852125,34.579125 C59.9436361,34.5622711 59.0465661,34.373441 58.208375,34.022625 L58.061625,34.283 C58.9451541,34.6580939 59.8925543,34.8598382 60.85225,34.87725 L60.85225,36.8955 C59.524125,36.875 58.241625,36.583 57.065,36.04925 L56.918,36.31 C58.13925,36.868125 59.47225,37.1725 60.852125,37.19325 L60.852125,39.421625 C59.081875,39.400375 57.373375,38.999125 55.818625,38.25825 L55.67075,38.52075 C57.31375,39.307 59.125125,39.723 61.00075,39.723 C62.96825,39.723 64.864,39.263375 66.57025,38.400125 L66.429375,38.12675 C64.7918625,38.9573142 62.9853564,39.4003872 61.149375,39.42175 L61.149375,37.1925 C62.653875,37.17025 64.101875,36.809625 65.410625,36.1515 L65.271375,35.88175 C63.9917764,36.5269507 62.5824006,36.8732361 61.1495,36.8945 L61.1495,34.876375 C62.27825,34.854625 63.36475,34.583875 64.348875,34.092875 L64.210625,33.8245 C63.2588056,34.2998915 62.2131016,34.5574532 61.149375,34.5785 L61.149375,32.35 C61.8577503,32.3302015 62.5536613,32.1588558 63.19025,31.8475 L63.05275,31.580875 C62.4588405,31.8710243 61.8100536,32.0316552 61.149375,32.052125 L61.149375,30.0305 C61.7548947,29.9985403 62.3311287,29.75984 62.781875,29.35425 L64.210125,30.78225 C63.8664799,31.1048619 63.4763907,31.3741069 63.052875,31.581 L63.190375,31.84775 C63.6415283,31.6268905 64.0567836,31.3392375 64.422125,30.9945 L65.9955,32.567875 C65.4674127,33.0746833 64.8654777,33.4984234 64.21025,33.824625 L64.3485,34.092875 C65.0314702,33.7524881 65.6586525,33.3101307 66.2085,32.781 L67.63225,34.20475 C66.9349553,34.8804432 66.1388292,35.4460097 65.27125,35.882 L65.410375,36.151625 C66.3057903,35.7014665 67.1271137,35.1170471 67.845875,34.418625 L69.417875,35.99075 C68.5360152,36.8503908 67.5281711,37.5704661 66.429125,38.126125 L66.569875,38.3995 C67.7417392,37.8066766 68.8118566,37.0312402 69.740125,36.10225 C70.7170029,35.127074 71.5237733,33.9952717 72.127,32.75375 L72.1265,32.751 Z" id="Shape" fill="#FFFFFF"></path>
                    <path d="M61.7075,24.49925 L61.632875,24.50225 L61.636625,24.591625 L61.711625,24.588125 L61.7075,24.49925 Z M61.5235,24.38025 L61.623125,24.38025 L61.623125,24.456125 L61.5235,24.456125 L61.5235,24.38025 Z M61.34375,24.35375 L61.43125,24.366875 L61.442,24.291875 L61.3545,24.279375 L61.34375,24.35375 Z M61.27,24.32825 L61.183,24.31575 L61.193625,24.240375 L61.280375,24.252875 L61.27,24.32825 Z M60.5515,24.228 L60.651125,24.228 L60.651125,24.304 L60.551375,24.304 L60.5515,24.228 Z M60.334375,24.379375 L60.421375,24.391875 L60.432,24.316875 L60.345125,24.304375 L60.334375,24.379375 Z M60.34325,24.494 L60.24325,24.4685 L60.2615,24.39475 L60.3615,24.42025 L60.34325,24.494 Z M60.165,24.5875 L60.1525,24.5115 L60.22625,24.499 L60.23875,24.57525 L60.165,24.5875 Z M50.34025,32.287875 L50.34025,32.22475 L50.27775,32.22475 L50.27775,32.351 L50.37775,32.351 L50.37775,32.51575 L50.453,32.51575 L50.440125,32.326125 L50.34025,32.287875 Z M51.275625,33.41375 L51.13875,33.2875 L51.03875,33.1485 L50.98875,33.0345 L50.90125,32.80675 L51.08825,32.895 L51.151125,33.072125 L51.237875,33.135875 L51.325375,33.3255 L51.275625,33.41375 Z M53.85625,36.805 L53.844,36.69125 L53.744,36.53925 L53.894,36.564875 L54.0555,36.703625 L54.118375,36.86825 L54.030875,36.918875 L53.980875,36.84325 L53.85625,36.805 Z M60.61375,25.31625 L60.476625,25.31625 L60.451625,25.038 L60.526625,24.987125 L60.526625,24.848 L60.090125,24.848 L60.077625,24.709 L60.140125,24.671 L60.040375,24.633 L59.965375,24.73425 L59.94075,24.848 L59.816125,24.873375 L59.816125,24.936625 L59.728875,24.936625 L59.728875,25.101 L59.379625,25.392 L58.681625,25.367 C58.631625,25.48075 58.506625,25.354 58.506625,25.354 C58.482,25.27825 58.307625,25.354 58.307625,25.354 C58.307625,25.493375 58.070625,25.290875 58.070625,25.290875 L57.634375,24.974625 C57.384875,24.74675 57.010875,25.037875 56.9985,25.100875 C57.011,25.278375 56.71175,25.139 56.71175,25.139 C56.71175,25.139 56.4625,25.063125 56.425,25.164375 C56.3875,25.265625 56.22525,25.240375 56.22525,25.240375 L56.20025,25.291 L56.0755,25.31625 L56.05075,25.392125 L55.901,25.4175 L56.275,25.40475 C56.37475,25.39225 56.2375,25.62 56.175375,25.60725 L56.000875,25.62 L55.938375,25.683125 L55.776375,25.683125 L55.70175,25.784375 L55.465,25.771875 C55.465,25.771875 55.3275,25.885625 55.34025,25.923625 C55.35275,25.9615 55.31525,26.075375 55.27775,26.075375 C55.24025,26.075375 55.1655,26.189125 55.1905,26.227125 C55.2155,26.265125 55.11575,26.391625 55.11575,26.391625 L55.09075,26.518375 L55.016125,26.543375 L55.016125,26.88525 L54.866125,26.9865 L54.866125,27.13825 L54.64175,27.378625 L54.66675,27.581125 L54.479875,27.783625 L54.504625,27.986125 L54.3925,28.024 L54.367875,28.1125 L54.317875,28.37825 L54.442625,28.391125 C54.504875,28.3655 54.492625,28.555375 54.442625,28.580625 C54.392625,28.606 54.2555,28.6565 54.3305,28.706875 C54.4055,28.757875 54.131,28.745125 54.131,28.669125 C54.131,28.593375 53.981375,28.53 53.944,28.555375 C53.90675,28.580625 53.84425,28.441625 53.84425,28.441625 C53.70725,28.302375 53.28325,28.454125 53.28325,28.454125 L53.22075,28.656625 C53.08375,28.682 52.9965,28.909625 52.9965,28.909625 C52.884375,28.947625 52.797125,29.08675 52.8345,29.124625 C52.87175,29.16275 52.772,29.17525 52.772,29.17525 L52.772,29.45375 L52.70975,29.5425 L52.72225,29.846 C52.797,29.846 52.78475,29.985375 52.78475,29.985375 C52.65975,29.997875 52.68475,30.1625 52.68475,30.1625 L52.423,30.251 L52.373,30.326875 L52.049,30.314125 L51.96175,30.402875 L51.87425,30.314125 L51.250875,30.314125 L51.22625,30.251 L51.1015,30.2255 L51.089,30.0865 L50.902,30.099 L50.8645,30.175 L50.665,30.1875 C50.6775,30.314125 50.4655,30.504 50.44075,30.4535 C50.4155,30.40275 50.2785,30.2635 50.341,30.2385 C50.4035,30.212875 50.5655,30.1875 50.5655,30.1875 L50.5655,30.099 L50.104,30.0865 L50.054375,30.162375 L49.867125,30.174875 L49.867125,30.377375 L49.779875,30.402625 C49.717375,30.4405 49.792375,30.579875 49.792375,30.579875 C49.8795,30.66825 49.779875,30.807375 49.779875,30.807375 C49.704875,30.883375 49.842125,31.02275 49.842125,31.02275 C49.942125,31.04775 49.779875,31.124 49.779875,31.124 C49.804625,31.25025 49.879625,31.28825 49.879625,31.28825 C49.804625,31.41475 49.929625,31.477875 49.929625,31.477875 L49.942125,31.69325 L50.02925,31.744 L50.02925,31.88275 L50.07925,31.9715 L50.2785,31.9715 L50.266,31.65525 C50.0915,31.45275 50.415625,31.402125 50.42825,31.47775 C50.44075,31.554 50.577875,31.591875 50.577875,31.591875 C50.602875,31.781875 50.815,31.895375 50.87725,31.705875 C50.93975,31.515875 50.989375,31.629875 51.026875,31.718375 C51.064375,31.807125 51.300875,32.022125 51.300875,32.022125 L51.488,32.022125 L51.51325,32.19925 C51.725125,32.18675 51.78725,32.212125 51.8745,32.503 C51.962,32.79375 52.19875,32.86975 52.19875,32.86975 L52.373375,32.857 C52.373375,32.705375 52.548,32.882625 52.548,32.9585 C52.548,33.034125 52.8845,33.32525 52.8845,33.32525 L53.221,33.401 L53.533125,33.654375 L53.769875,33.629125 L53.869875,33.629125 C53.932,33.41375 54.231375,33.641625 54.256125,33.7175 C54.281125,33.7935 54.480625,33.92 54.505375,33.856625 C54.530375,33.7935 54.6675,33.831625 54.692625,34.021125 C54.717375,34.211125 54.8045,34.17325 54.8045,34.17325 L55.5155,34.16075 L55.76475,33.94525 L56.40075,33.93275 C56.724875,33.92025 56.525375,33.477125 56.46325,33.477125 C56.351,33.38875 56.500375,33.02175 56.500375,33.02175 L55.590375,32.174 C55.378375,32.174 55.565375,31.87025 55.565375,31.87025 C55.727375,31.769 55.527875,31.604625 55.527875,31.604625 C55.552875,31.452625 55.440625,31.2755 55.440625,31.2755 C55.21625,31.123625 55.278375,30.8325 55.278375,30.8325 L55.278375,30.63 C55.0915,30.45325 55.353375,30.4275 55.353375,30.4275 C55.440375,30.27625 55.290875,30.162125 55.290875,30.162125 L55.278375,29.997625 L55.078875,29.972375 L55.054125,29.377625 L54.605375,28.732625 C54.517875,28.706875 54.580375,28.555125 54.580375,28.555125 C54.6925,28.491875 54.555125,28.340125 54.555125,28.340125 L54.542625,28.061875 L54.8045,28.036375 L54.867,27.935375 L54.991625,27.935375 L54.979125,27.60625 C55.041625,27.441625 55.191125,27.53 55.191125,27.53 L55.365625,27.542875 L55.465375,27.352875 L55.490125,27.201125 L55.353125,27.188625 C55.2035,27.099875 55.278125,26.771125 55.278125,26.771125 C55.51525,26.4165 55.789375,26.619 55.789375,26.619 L55.964,26.6065 C56.22575,26.7835 55.98875,27.1125 55.98875,27.1125 C55.939,27.18875 55.964,27.429 55.964,27.429 L56.02625,27.83375 L55.86425,27.973125 C55.727,28.049125 55.727,28.226125 55.87675,28.264125 C55.97625,28.276625 55.938875,28.517125 55.78925,28.352625 C55.565,28.352625 55.91425,28.555125 55.81425,28.504375 C56.038875,28.618375 55.98875,28.403125 55.98875,28.403125 L56.28825,28.162875 C56.400375,28.074375 56.6,28.352875 56.6,28.39075 C56.6,28.428625 57.09875,28.40325 57.09875,28.40325 C57.235625,28.492 57.2855,28.7195 57.2855,28.7195 C57.42275,28.542375 57.70925,28.707 57.4975,28.80825 C57.696875,28.93475 57.696875,29.0485 57.696875,29.0485 C57.859375,28.998 57.859375,29.1245 57.859375,29.1625 C57.859375,29.200375 57.909125,28.9725 57.909125,28.9725 C57.722,28.833375 58.158375,28.78275 58.033875,29.035875 L57.958875,29.149875 L58.083625,29.250875 L58.096125,29.542125 C58.370375,29.5165 58.2955,29.174875 58.2955,29.174875 L58.420125,29.149875 C58.420125,29.03575 58.50725,29.099 58.50725,29.099 C58.420125,28.66875 58.706875,28.593 58.706875,28.593 C58.869,28.555 58.881375,28.213 58.881375,28.213 C58.769375,28.162625 58.831375,27.9855 58.956375,28.1375 C59.080875,28.28925 58.881375,27.83375 58.881375,27.83375 L58.78175,27.74525 L58.6445,27.73275 L58.632,27.593375 L58.40775,27.593375 L58.37025,27.770625 L58.283,27.795875 L58.258,27.74525 L58.2205,27.884375 L57.99625,27.884375 L57.98375,27.732625 L58.120875,27.69475 L58.170875,27.618875 L58.208125,27.416375 L58.370375,27.416375 L58.58225,27.353125 C58.59475,27.138125 58.707,27.18875 58.707,27.18875 L58.782,27.25175 L58.894125,27.3405 L58.906625,27.416125 L58.831625,27.454 L58.819375,27.55525 L58.856625,27.6945 L58.95625,27.6945 C58.99375,27.492 59.255625,27.492 59.330375,27.6185 L59.405375,27.44125 C59.23075,27.35275 59.402,27.2135 59.451875,27.27675 C59.501875,27.340125 59.617125,27.11225 59.617125,27.11225 C59.617125,27.11225 59.704375,27.22625 59.617125,27.074375 C59.529875,26.922375 59.679375,26.846625 59.679375,26.846625 C59.654625,26.69475 59.8415,26.72 59.8415,26.72 L59.854,26.51775 L59.679375,26.504875 C59.64225,26.682125 59.4925,26.530375 59.567375,26.492375 C59.642375,26.4545 59.71675,26.378625 59.71675,26.378625 L59.71675,26.252 L59.7915,26.22675 L59.804,26.100125 L59.991125,26.100125 L60.153125,26.02425 L60.190625,25.961 L60.365125,25.94825 L60.6145,25.720375 L60.589875,25.619125 C60.440125,25.619125 60.589875,25.505375 60.589875,25.505375 L60.6145,25.316 L60.61375,25.31625 Z" id="Shape" fill="#FFFFFF"></path>
                    <path id="Shape" fill="#FFFFFF"></path>
                    <path id="Shape" fill="#FFFFFF"></path>
                    <ellipse id="Oval" fill="#FFFFFF" cx="56.00775" cy="30.320875" rx="0.25" ry="0.25"></ellipse>
                    <ellipse id="Oval" fill="#FFFFFF" cx="56.010625" cy="28.87525" rx="0.25" ry="0.25"></ellipse>
                    <path d="M60.052875,26.80875 L59.915375,26.79625 L59.89075,26.8595 L59.8285,26.8595 L59.8155,26.96075 L59.89075,26.96075 L59.90325,27.036625 L59.85325,27.087375 L59.8285,27.150375 L59.7285,27.176 L59.504125,27.39125 L59.491625,27.492 L59.4295,27.58075 L59.354875,27.7705 L59.092625,27.783 L59.042625,28.01075 L59.07975,28.200375 L59.304125,28.289125 L59.329375,28.162875 L59.404,28.12475 L59.416875,27.99825 L59.46625,27.9095 L59.5415,27.821125 L59.566125,27.719875 L59.690875,27.644125 L59.840625,27.6185 L59.903125,27.542625 L59.928125,27.391375 L59.936875,27.27725 L59.990625,27.201 L60.13975,27.13775 L60.13975,26.897375 L60.065,26.897375 L60.052875,26.80875 Z M60.4015,27.66975 L60.4015,27.492625 L60.3765,27.328125 L60.189625,27.239625 L60.0525,27.36625 L60.0275,27.54325 L60.0275,27.657 L59.902875,27.6825 L59.877875,28.024 L59.778125,28.062125 L59.790625,28.188625 L59.6535,28.226375 L59.516375,28.264375 L59.491625,28.428875 L59.392,28.492125 L59.34175,28.644 L59.279625,29.010875 C59.279625,29.010875 59.391875,29.225875 59.454125,29.124625 C59.516625,29.023625 59.61625,29.010875 59.61625,29.010875 L59.6535,28.922125 L59.990125,28.934875 C60.015125,28.795625 60.17725,28.846375 60.17725,28.909625 C60.17725,28.972875 60.302,28.922125 60.302,28.922125 L60.38925,28.783125 L60.52625,28.783125 L60.53875,28.631375 L60.601,28.593375 L60.601,28.3655 C60.800625,28.30225 60.775375,28.1125 60.775375,28.1125 L60.825625,28.049375 L60.800625,27.961 C60.700625,27.922875 60.750625,27.834125 60.812875,27.8595 C60.875375,27.88475 60.725625,27.74575 60.725625,27.74575 C60.650875,27.809 60.58875,27.66975 60.58875,27.66975 L60.4015,27.66975 L60.4015,27.66975 Z M60.601,29.2005 C60.5885,29.35225 60.4015,29.403 60.4015,29.403 L60.264375,29.365 L60.189625,29.30175 L60.177125,29.1245 L60.28925,29.112 L60.31425,29.188 L60.601,29.2005 L60.601,29.2005 Z M61.2745,28.39125 C61.3015,28.501625 61.29925,28.21375 61.349125,28.22675 C61.399125,28.23925 61.361625,28.049625 61.361625,28.049625 L61.13725,28.213875 C61.249375,28.226875 61.26175,28.34075 61.2745,28.391375 L61.2745,28.39125 Z M61.93525,27.73275 C61.98525,27.84675 61.97275,28.01125 62.1595,28.13775 C62.222625,28.18025 62.122,28.264375 62.0595,28.22625 C61.997375,28.188375 61.823,27.91 61.823,27.91 L61.823,27.745375 C61.8605,27.644125 61.913625,27.68375 61.93525,27.732875 L61.93525,27.73275 Z M61.9725,31.617 L62.0095,31.68025 L62.097,31.5415 L62.0225,31.515625 L61.9355,31.579375 L61.9725,31.617 Z M61.62325,31.377 L61.62325,31.52925 L61.62325,31.377 Z M63.42625,31.19375 L63.52625,31.1305 L63.48625,31.06675 L63.386875,31.12925 L63.42625,31.19375 Z M67.0345,33.83175 L67.147,33.88225 L67.159125,34.09725 C67.308875,34.249125 67.795125,34.122625 67.795125,34.08475 C67.795125,34.046625 67.770125,33.6165 67.770125,33.6165 L67.707625,33.55325 L67.695375,33.236625 C67.745125,33.07225 67.458375,32.831625 67.4335,32.882625 C67.4085,32.93325 67.2465,32.895125 67.2465,32.945875 C67.2465,32.996375 67.147,33.249625 67.19675,33.338125 C67.24675,33.426875 67.15925,33.426875 67.147,33.51525 C67.1345,33.604 67.00975,33.756 67.03475,33.832 L67.0345,33.83175 Z M66.76,33.3255 C66.73625,33.421375 66.648,33.477375 66.598125,33.43925 C66.548125,33.40125 66.660125,33.502375 66.685375,33.55325 C66.710125,33.60375 66.784875,33.60375 66.81,33.55325 C66.83475,33.502375 66.8225,33.388875 66.8475,33.33825 C66.87225,33.2875 66.7725,33.274875 66.76,33.3255 L66.76,33.3255 Z M66.18025,31.00425 L66.267375,31.00425 L66.267375,31.24475 L66.180125,31.24475 L66.18025,31.00425 Z M67.471,28.56825 C67.416625,28.4945 67.72025,28.36575 67.770125,28.517625 C67.820125,28.6695 67.770125,28.644375 67.720375,28.63175 C67.670375,28.619 67.546,28.6695 67.471125,28.568375 L67.471,28.56825 Z M67.739,26.87325 L67.726125,26.94775 L67.862875,26.97275 L67.876375,26.89825 L67.739,26.87325 Z M67.17675,27.06875 L67.27675,27.132 L67.2955,27.144 L67.31425,27.13325 L67.3895,27.09075 L67.398875,27.114125 L67.46825,27.086125 L67.443,27.02275 L67.427125,26.98275 L67.390125,27.00375 L67.297375,27.05625 L67.216125,27.005 L67.17675,27.06875 Z M67.85725,24.01275 L67.670125,24.01275 C67.670125,24.01275 67.732625,24.038 67.55825,23.8735 C67.3835,23.709 67.2715,23.9115 67.2715,23.9115 L67.072125,23.93675 L67.072125,24.13925 L66.972125,24.177125 L66.984875,24.30375 L67.121875,24.29125 C67.121875,24.29125 67.121875,24.443 67.159375,24.37975 C67.196875,24.316375 67.5085,24.39225 67.4835,24.54425 C67.4735,24.60675 67.795375,24.77175 67.757875,24.97425 C67.920125,24.999625 67.882875,25.16425 67.882875,25.16425 L68.0945,25.1895 L68.157,25.063 L68.21925,25.0755 L68.21925,24.999625 L68.082,24.96175 L68.05725,24.55675 L67.97,24.4935 L67.995,24.39225 L67.89525,24.35425 L67.94525,24.18975 L67.85775,24.01275 L67.85725,24.01275 Z M68.4055,25.3035 L68.305875,25.291 L68.081125,25.328875 L67.956625,25.569375 C67.956625,25.569375 68.018875,25.607375 68.068625,25.696 C68.118375,25.78475 68.143625,26.30325 67.993875,26.391875 C67.844375,26.480625 68.006375,26.42975 68.006375,26.42975 L67.981375,26.708125 C68.018875,26.83475 68.081,26.771625 68.118375,26.708125 C68.156125,26.645125 68.193375,26.632375 68.243375,26.569125 C68.293375,26.50575 68.368,26.391875 68.3805,26.30325 C68.393,26.21475 68.45525,26.07575 68.41775,26.037625 C68.3805,25.999625 68.45525,25.822625 68.45525,25.822625 C68.45525,25.822625 68.50525,25.721375 68.45525,25.620125 C68.4055,25.518875 68.46775,25.405125 68.50525,25.35425 L68.40525,25.303625 L68.4055,25.3035 Z M68.55625,25.81975 L68.569,25.7185 L68.643375,25.728 L68.630625,25.82925 L68.55625,25.81975 Z M68.55175,26.169375 L68.485,26.135375 L68.5225,26.0595 L68.58925,26.0935 L68.55175,26.169375 Z M68.443,25.16475 L68.393,25.05075 C68.393,25.05075 68.393,24.94975 68.418,24.898875 C68.443,24.8485 68.368,24.798 68.33075,24.785125 C68.29325,24.772625 68.30575,24.671375 68.29325,24.62075 C68.281,24.570125 68.19375,24.53225 68.19375,24.53225 C68.19375,24.53225 68.16875,24.34225 68.16875,24.3045 C68.16875,24.2665 68.05625,24.21575 68.09375,24.177875 C68.13125,24.14 68.15625,24.089375 68.19375,24.064125 C68.23125,24.03875 68.15625,23.861625 68.2185,23.8995 C68.281,23.9375 68.281,24.00075 68.306,24.051375 C68.33075,24.101875 68.2935,24.279125 68.35575,24.317125 C68.418,24.355 68.34325,24.4815 68.443,24.4815 C68.542625,24.4815 68.4805,24.722125 68.4805,24.722125 C68.4805,24.722125 68.4555,24.899125 68.517625,24.911875 C68.580125,24.924375 68.542875,25.228125 68.542875,25.228125 L68.443125,25.165 L68.443,25.16475 Z M67.633,23.11425 C67.67025,23.164875 67.745125,23.20275 67.745125,23.2535 C67.745125,23.304125 67.720375,23.342 67.795125,23.35475 C67.869875,23.36725 67.919875,23.342 67.94475,23.40525 C67.96975,23.4685 67.96975,23.56975 67.95725,23.62025 C67.94475,23.671 67.96975,23.746875 68.032,23.746875 C68.0945,23.746875 68.107,23.759625 68.107,23.797625 C68.107,23.835625 68.18175,23.658375 68.18175,23.658375 C68.11925,23.607875 68.06925,23.493875 68.06925,23.493875 C68.06925,23.493875 68.007125,23.31675 68.007125,23.291375 C68.007125,23.266375 67.919875,23.24075 67.8825,23.22825 C67.845,23.2155 67.7825,23.10175 67.7825,23.10175 L67.633,23.11425 L67.633,23.11425 Z M67.7575,23.001 C67.72,22.95025 67.6825,22.91225 67.63275,22.88725 C67.583,22.86175 67.545625,22.8365 67.4955,22.8365 C67.468169,22.8362782 67.4427511,22.822433 67.427741,22.7995916 C67.4127309,22.7767502 67.4101084,22.7479252 67.42075,22.72275 C67.44575,22.65925 67.38325,22.634 67.38325,22.583375 C67.38325,22.53275 67.42075,22.53275 67.48325,22.570875 C67.54575,22.60875 67.532875,22.62125 67.583,22.684625 C67.63275,22.747875 67.657625,22.811125 67.707375,22.798375 C67.757375,22.785875 67.794875,22.912375 67.844625,22.874375 C67.894375,22.8365 67.882125,22.963125 67.882125,22.963125 L67.757375,23.001 L67.7575,23.001 Z M66.29875,24.4305 C66.3675,24.5005 65.925,24.481 65.925,24.4305 C65.925,24.379875 65.96225,24.203 66.07425,24.2405 C66.1865,24.278625 66.198875,24.013 66.198875,24.013 C66.198875,24.013 66.099375,24.0255 66.186625,23.975 C66.273875,23.924375 66.186625,23.848375 66.149125,23.8105 C66.111875,23.7725 66.074375,23.70925 66.074375,23.70925 L66.249125,23.70925 C66.324125,23.6585 66.34875,23.41825 66.34875,23.41825 C66.498125,23.46875 66.572875,23.3675 66.572875,23.3675 C66.572875,23.3675 66.59825,23.4435 66.647875,23.506875 C66.697875,23.57 66.523125,23.595375 66.585375,23.633375 C66.647875,23.671375 66.672875,23.785125 66.647875,23.823 C66.622875,23.861 66.485625,23.83575 66.485625,23.785125 C66.485625,23.734625 66.435625,23.8485 66.485625,23.911875 C66.535375,23.975125 66.423375,24.063625 66.398375,24.063625 C66.373375,24.063625 66.211625,24.089 66.348375,24.164875 C66.485625,24.24075 66.6355,24.203 66.6355,24.203 C66.6355,24.203 66.747625,24.190125 66.785,24.2535 C66.8225,24.31675 66.7725,24.3295 66.71025,24.3295 C66.648,24.3295 66.348625,24.304 66.348625,24.304 C66.348625,24.304 66.261125,24.39275 66.298625,24.43075 L66.29875,24.4305 Z M65.50075,24.5445 C65.56325,24.532 65.712625,24.519125 65.737625,24.557 C65.762875,24.595 65.6505,24.64575 65.6505,24.64575 L65.500875,24.671 C65.450875,24.607625 65.438625,24.55725 65.500875,24.5445 L65.50075,24.5445 Z M67.1095,23.48175 C67.209125,23.431125 67.421,23.431125 67.408625,23.35525 C67.396125,23.27925 67.533125,23.254 67.533125,23.254 L67.570625,23.40575 L67.68275,23.48175 L67.69525,23.620875 C67.69525,23.620875 67.73275,23.595625 67.595625,23.633625 C67.458375,23.6715 67.545875,23.734625 67.545875,23.734625 L67.2465,23.747125 L67.209,23.620875 L67.109375,23.481625 L67.1095,23.48175 Z M66.62275,22.7985 C66.6985,22.7985 66.598,23.0895 66.79725,23.06425 C66.99675,23.038875 66.80975,23.15275 66.959375,23.1655 C67.109,23.178 67.071625,23.0515 67.121375,22.963 C67.171625,22.8745 67.146625,22.82375 67.059375,22.7985 C66.971875,22.77325 66.971875,22.77325 66.947125,22.671875 C66.922125,22.570625 66.822375,22.54525 66.822375,22.54525 L66.784875,22.393625 L66.622875,22.494625 L66.460875,22.709625 C66.460875,22.874375 66.548,22.798375 66.622875,22.798375 L66.62275,22.7985 Z M66.95275,23.86775 L66.99025,23.791875 L67.057375,23.826 L67.019875,23.901875 L66.95275,23.86775 Z M66.82225,23.74725 L66.89725,23.74725 L66.89725,23.83575 L66.82225,23.83575 L66.82225,23.74725 Z M66.885,22.06125 L66.8975,22.175 L66.82325,22.1835 L66.81075,22.06975 L66.885,22.06125 Z M66.673,23.241 L66.748,23.241 L66.748,23.304375 L66.673,23.304375 L66.673,23.241 Z M66.476625,23.23975 L66.469375,23.164 L66.594,23.1515 L66.60125,23.22725 L66.476625,23.23975 Z M65.448125,24.456625 L65.379375,24.426625 L65.416875,24.33825 L65.485625,24.36825 L65.448125,24.456625 Z M65.056875,24.22625 L65.049375,24.150875 L65.174375,24.138375 L65.181875,24.21375 L65.056875,24.22625 Z M62.89325,24.202875 L62.6195,24.215375 L62.623,24.291125 L62.89675,24.278625 L62.89325,24.202875 Z M62.435875,24.3125 L62.410875,24.199 L62.48425,24.1825 L62.509,24.29625 L62.435875,24.3125 Z M62.383375,24.39125 L62.359625,24.319125 L62.397125,24.306625 L62.420625,24.3785 L62.383375,24.39125 Z M63.007,24.17775 L62.9945,24.26625 L63.131625,24.279 C63.131625,24.279 63.19375,24.32975 63.19375,24.3675 C63.19375,24.4055 63.28125,24.443375 63.33125,24.443375 C63.380875,24.443375 63.518,24.342125 63.518,24.342125 C63.518,24.342125 63.5805,24.165 63.5305,24.177625 C63.4805,24.190375 63.380875,24.266375 63.368625,24.190375 C63.355875,24.114375 63.206375,24.152375 63.206375,24.152375 L63.006875,24.177875 L63.007,24.17775 Z M63.63025,24.03825 C63.63025,24.076125 63.6055,24.12675 63.68025,24.1395 C63.75525,24.152 63.89225,24.089 63.904625,24.16475 C63.917125,24.240625 63.917125,24.2915 64.016875,24.3295 C64.1165,24.36725 64.179,24.38 64.25375,24.38 C64.328375,24.38 64.49075,24.3545 64.49075,24.3545 C64.49075,24.3545 64.667,24.382 64.702625,24.417875 C64.83975,24.557 64.927,24.595 64.964375,24.531625 C65.001875,24.4685 64.951875,24.329375 64.939625,24.27875 C64.927125,24.228 64.7525,23.9875 64.690125,24.03825 C64.627875,24.089 64.6155,24.03825 64.503125,24.076125 C64.390875,24.114 64.154,24.088875 64.141625,24.038125 C64.129125,23.9875 63.95475,23.962375 63.95475,23.911625 C63.95475,23.860875 63.830125,23.797875 63.8425,23.873625 C63.85475,23.9495 63.755,23.987375 63.73,23.962375 C63.705,23.936875 63.63025,24.038125 63.63025,24.038125 L63.63025,24.03825 Z M66.49825,22.41825 L66.58575,22.14 C66.461125,22.114625 66.48575,21.975625 66.48575,21.975625 C66.4735,21.861625 66.299,21.735125 66.2365,21.773125 C66.174375,21.811 66.199,21.50725 66.199,21.50725 C66.199,21.50725 66.3115,21.4315 66.36125,21.469375 C66.41125,21.50725 65.9375,20.836875 65.8375,20.9 C65.737875,20.963375 65.51375,20.83675 65.526,20.722875 C65.5385,20.609125 65.07725,20.229375 65.07725,20.229375 C65.07725,20.229375 64.9275,20.128125 64.90275,20.204125 C64.87775,20.28 64.82775,20.33075 64.90275,20.3685 C64.977375,20.406625 64.964875,20.305375 65.052125,20.393875 C65.139375,20.482625 65.301625,20.596375 65.23925,20.672375 C65.17675,20.748375 65.102,20.773625 65.102,20.773625 L65.1895,20.874875 L65.3265,20.874875 L65.3515,21.089875 C65.3515,21.089875 65.501,21.165875 65.5385,21.2545 C65.576,21.343 65.576,21.393625 65.5385,21.4445 C65.501,21.494875 65.4265,21.5835 65.43875,21.672 C65.45125,21.7605 65.551,21.7985 65.551,21.7985 L65.650625,21.811 L65.725625,21.84925 L65.725625,22.01375 C65.825125,21.98825 65.987125,22.1275 65.974875,22.216 C65.962375,22.30475 65.9995,22.254 66.124125,22.342625 C66.249125,22.431375 66.211625,22.443875 66.298875,22.50725 C66.386125,22.57025 66.461,22.53225 66.498125,22.4185 L66.49825,22.41825 Z" id="Shape" fill="#FFFFFF"></path>
                    <path d="M64.441,20.69775 C64.4285,20.647 64.4035,20.469875 64.4785,20.4825 C64.553125,20.49525 64.5035,20.4825 64.590625,20.5205 C64.677875,20.558625 64.69025,20.45725 64.69025,20.45725 L64.82775,20.45725 L65.002,20.596375 L64.977,20.7105 L64.852375,20.723 C64.789875,20.62175 64.66525,20.659875 64.69025,20.7485 C64.71525,20.837 64.628,21.0015 64.57825,21.014 C64.52825,21.026875 64.366,21.026875 64.378625,20.951 C64.391125,20.875125 64.440875,20.698 64.440875,20.698 L64.441,20.69775 Z M64.34125,20.35575 L64.34125,20.2545 C64.34125,20.2545 64.3285,20.15325 64.26625,20.15325 C64.20425,20.15325 64.092,20.0775 64.116625,20.027 C64.141875,19.976125 63.904875,19.92575 63.904875,19.92575 C63.904875,19.92575 63.692875,19.72325 63.767625,19.748625 C63.842625,19.773625 63.805125,19.659875 63.805125,19.659875 C63.805125,19.659875 63.655375,19.684875 63.618,19.672375 C63.5805,19.659875 63.593,19.545875 63.593,19.545875 C63.593,19.545875 63.4435,19.508 63.4435,19.545875 C63.4435,19.583875 63.49325,19.583875 63.518,19.659625 C63.543,19.735625 63.5305,19.862125 63.643,19.8875 C63.75525,19.913 63.779875,19.938125 63.792625,19.98875 C63.805125,20.0395 63.942125,20.052125 63.942125,20.052125 L64.04175,20.102625 L64.340875,20.355875 L64.34125,20.35575 Z M62.995,19.0655 L62.957875,18.96425 L62.857875,18.939 L62.857875,19.05275 L62.995,19.0655 Z M62.9575,18.534 C62.827125,18.43525 63.131875,18.61 63.131875,18.61 C63.2315,18.61 63.294,18.685875 63.294,18.72375 C63.294,18.761875 63.431125,18.74925 63.431125,18.74925 L63.443625,18.6605 L63.343625,18.534 L63.256625,18.470875 C63.256625,18.470875 63.1195,18.458375 63.1195,18.42025 C63.1195,18.382375 63.00725,18.572 62.957375,18.534 L62.9575,18.534 Z M65.251,18.60975 C65.21475,18.7205 65.201,18.8755 65.13875,18.8755 C65.0765,18.8755 65.10125,19.040125 65.10125,19.040125 C65.10125,19.040125 65.26375,19.040125 65.3135,19.052875 C65.36325,19.065375 65.36325,19.191875 65.36325,19.191875 C65.550375,19.179375 65.62525,19.432375 65.600125,19.495625 C65.575125,19.558875 65.675125,19.558875 65.675125,19.558875 C65.675125,19.558875 65.675125,19.761375 65.650125,19.811875 C65.625125,19.862625 65.81225,19.900625 65.862,19.976375 C65.912,20.052375 65.837,20.305375 65.7995,20.318125 C65.76225,20.330625 65.89925,20.368625 65.887,20.431875 C65.87425,20.49525 65.9245,20.431875 65.93675,20.533125 C65.94925,20.634375 65.97425,20.849375 65.97425,20.849375 L66.148625,20.86225 C66.173625,20.69775 66.495125,20.6915 66.547625,20.710375 C66.759625,20.78625 66.921875,21.115375 66.921875,21.191125 C66.921875,21.267 66.784625,21.279875 66.784625,21.279875 L66.809625,21.646625 C67.0215,21.709875 67.195875,22.013625 67.17125,22.064125 C67.14625,22.114875 67.3205,22.10225 67.3205,22.10225 C67.3455,21.874375 67.5575,21.950375 67.56975,22.026375 C67.5825,22.10225 67.61975,22.26675 67.61975,22.26675 L67.68225,22.3805 L67.769375,22.46925 L67.906375,22.4565 L67.943875,22.53275 L68.106125,22.558 C68.106125,22.558 68.243375,22.709625 68.25575,22.74775 C68.26825,22.785625 68.45525,22.773 68.505,22.785625 C68.55475,22.798125 68.629625,22.83625 68.642,22.899375 C68.6545,22.962875 68.7295,23.064 68.7295,23.064 C68.7295,23.064 68.879,23.102125 68.8915,23.15275 C68.904,23.203125 68.9665,23.317 68.9665,23.317 L69.09075,23.41825 L69.10325,23.53225 L69.2405,23.54475 L69.278,23.6965 L69.502125,23.684 L69.627125,23.5955 C69.789125,23.507 69.901375,23.393 69.913875,23.342375 C69.926375,23.29175 69.951375,23.102125 70.076125,23.139875 C70.200625,23.178 70.113625,22.8615 70.113625,22.8615 C70.113625,22.8615 69.939,22.735 69.951375,22.6715 C69.963875,22.6085 69.776875,22.482 69.78925,22.43125 C69.80175,22.380625 69.62725,22.2795 69.639625,22.22875 C69.652125,22.17825 69.552375,22.039 69.552375,22.039 L69.36525,21.861875 L69.34025,21.748125 L69.190875,21.735625 L68.89175,21.3685 L68.90425,21.26725 L68.81675,21.25475 L68.81675,21.1155 L68.72975,21.06475 L68.5925,21.05225 L68.31825,20.7485 L68.29325,20.60925 L68.15625,20.60925 L68.18125,20.3435 C68.2685,20.22975 68.2185,20.0145 68.2185,20.0145 C68.2185,20.0145 68.04375,20.103 67.95675,20.065 C67.86925,20.02725 67.994,19.9385 67.994,19.9385 L67.994,19.83725 L67.919375,19.7615 C67.919375,19.7615 67.70725,19.786875 67.694875,19.749 C67.682375,19.711 67.644875,19.5465 67.644875,19.5465 L67.632375,19.33125 L67.545375,19.2935 L67.532875,19.21725 L67.395875,19.23 L67.395875,19.07825 L67.320875,19.053 L67.24625,19.015 L67.23375,18.863125 L66.9595,18.850625 L66.87225,18.724 L66.7725,18.572125 L66.460875,18.546875 L66.385875,18.471 L66.261375,18.445625 L66.174125,18.407625 L66.136625,18.470875 L65.89975,18.483375 L65.88725,18.559375 C65.76275,18.622625 65.264125,18.571875 65.251375,18.609875 L65.251,18.60975 Z M66.5605,18.28125 C66.54075,18.18125 66.81,18.0915 66.87225,18.16725 C66.93475,18.24325 67.109125,18.256 67.134125,18.635625 C67.142875,18.7715 66.90975,18.4965 66.90975,18.4965 L66.7225,18.43325 C66.622875,18.40775 66.572875,18.34475 66.5605,18.28125 L66.5605,18.28125 Z M62.90375,18.435875 L62.835625,18.405 L62.885625,18.29125 L62.95375,18.322 L62.90375,18.435875 Z M62.25925,17.193 L62.09675,17.0285 L62.09675,16.88925 L62.047,16.8385 L61.99725,16.6615 L61.835125,16.610875 L61.67325,16.674125 L61.498625,16.787875 L61.31175,16.813375 L61.21175,16.927125 L61.610875,16.965 L61.6855,17.09175 L61.972625,17.117 L62.159375,17.30675 C62.321875,17.3575 62.359,17.2815 62.259375,17.193 L62.25925,17.193 Z M62.2345,16.57275 C62.207,16.4615 62.047375,16.711875 62.20975,16.762375 C62.371875,16.813125 62.5335,16.762375 62.5335,16.762375 L62.571,16.686375 L63.19425,16.699125 C63.2445,16.648375 63.26925,16.5725 63.26925,16.5725 C63.26925,16.5725 63.418875,16.522 63.481,16.54725 C63.5435,16.57275 63.49375,16.37025 63.43125,16.3955 C63.369,16.42075 63.244375,16.408 63.244375,16.408 L63.019875,16.408 C63.007375,16.319625 62.807875,16.3575 62.795375,16.408 C62.782875,16.45875 62.70825,16.471375 62.70825,16.471375 L62.4215,16.496875 C62.3965,16.572875 62.247,16.623375 62.234375,16.572875 L62.2345,16.57275 Z M61,18.708 C61.19175,18.768875 61.26175,18.72375 61.274375,18.67325 C61.286875,18.6225 61.299125,18.609875 61.374,18.597375 C61.44875,18.5845 61.3615,18.432625 61.28675,18.44525 C61.21175,18.458 61.137125,18.42 61.12475,18.35675 C61.112,18.2935 60.98725,18.129 60.975,18.2555 C60.9625,18.382125 60.88775,18.382125 60.9,18.47075 C60.91275,18.559125 60.95,18.692 61,18.707875 L61,18.708 Z M59.56675,18.8505 C59.55775,18.80575 59.816,18.799875 59.8535,18.83775 C59.891,18.87575 59.866,18.939 59.978125,18.939 C60.09025,18.939 60.040625,19.015 60.028125,19.053 C60.015625,19.090875 59.891,19.07825 59.878125,19.0405 C59.866,19.002375 59.67875,18.989625 59.67875,18.989625 C59.67875,18.989625 59.579125,18.913625 59.56675,18.8505 L59.56675,18.8505 Z M63.807,16.138125 L63.70825,16.218125 L63.64475,16.153625 L63.591875,16.207125 L63.678875,16.295625 L63.703125,16.319875 L63.729,16.298625 L63.85425,16.197375 L63.807,16.138125 Z M63.1195,15.907875 L63.0395,15.85725 L63.00025,15.92175 L63.10025,15.98475 L63.1195,15.997625 L63.1395,15.984875 L63.277,15.896125 L63.237,15.832375 L63.1195,15.907875 Z M62.7175,18.510875 L62.699375,18.509125 L62.57475,18.496 L62.56725,18.57175 L62.674125,18.582375 L62.751625,18.70575 L62.8145,18.66525 L62.727625,18.52625 L62.7175,18.510875 Z M58.594,22.03875 L58.60675,22.178 L58.7935,22.178 C58.8685,22.178 58.731375,22.0895 58.731375,22.0895 C58.731375,22.0895 58.58175,22.102 58.594125,22.03875 L58.594,22.03875 Z M58.83175,22.042875 L58.8795,21.984375 L58.9545,22.047375 L58.906625,22.10575 L58.83175,22.042875 Z M56.56025,19.675625 L56.613125,19.621875 L56.687875,19.697875 L56.634875,19.751625 L56.56025,19.675625 Z M60.181625,35.96125 L60.057,35.898125 L60.0235,35.966125 L60.101625,36.005375 L60.075875,36.031625 L60.12925,36.085375 L60.19175,36.022 L60.228,35.985125 L60.181625,35.96125 Z M59.21625,35.05 L59.16875,34.99175 L59.093375,35.054875 L59.056375,35.086375 L59.095875,35.115125 L59.183375,35.17825 L59.226875,35.11675 L59.17875,35.08175 L59.21625,35.05 Z M68.48725,32.64975 C68.47075,32.58525 68.398,32.55875 68.38975,32.556 L68.366,32.62825 L68.366,32.62775 C68.372,32.63 68.380625,32.634625 68.38925,32.64025 L68.4045,32.705875 C68.399,32.71425 68.392875,32.722125 68.388,32.72775 L68.443,32.779 C68.483,32.734625 68.49775,32.6915 68.48725,32.64975 L68.48725,32.64975 Z M68.60225,32.41075 L68.480625,32.402 L68.49,32.287875 L68.611625,32.307 L68.60225,32.41075 Z M71.49175,31.42425 C71.545,31.3905 71.61325,31.32925 71.604,31.47175 C71.5945,31.614 71.5385,31.56675 71.49175,31.614 C71.445,31.6615 71.417,31.47175 71.49175,31.42425 L71.49175,31.42425 Z M72.12625,30.88725 C72.1250062,30.8814908 72.1242535,30.8756365 72.124,30.86975 C72.1229646,30.8422834 72.1164628,30.815299 72.104875,30.790375 L72.037875,30.824375 C72.04625,30.84125 72.047875,30.859125 72.049125,30.876375 C72.051125,30.898625 72.053625,30.923875 72.074875,30.940125 C72.08825,30.950125 72.105125,30.953125 72.12525,30.94925 L72.111,30.87575 C72.116625,30.876625 72.12425,30.882 72.126,30.887375 L72.12625,30.88725 Z M71.95975,30.9495 C71.97875,31.026375 72.0065,31.10225 72.00775,31.105375 L72.07775,31.078625 C72.060022,31.0301582 72.0448347,30.9807994 72.03225,30.93075 L71.95975,30.9495 L71.95975,30.9495 Z M71.6875,31.248 L71.613,31.2405 C71.607125,31.30025 71.621375,31.374 71.6805,31.386 L71.695,31.311625 C71.6955,31.311625 71.69625,31.312125 71.69625,31.312125 C71.690375,31.30675 71.68475,31.276125 71.6875,31.248125 L71.6875,31.248 Z M71.35975,29.73825 C71.3563992,29.714563 71.3408909,29.6943596 71.318875,29.685 C71.263625,29.66075 71.170375,29.701 71.124625,29.732 L71.165875,29.79525 C71.213375,29.763125 71.2755,29.74775 71.289375,29.75475 C71.2877501,29.7538738 71.286537,29.7523912 71.286,29.750625 L71.35975,29.738125 L71.35975,29.73825 Z M67.90675,25.69575 C67.85675,25.7465 67.74475,25.77175 67.74475,25.77175 L67.70725,25.910875 L67.645,25.9615 C67.645,25.9615 67.6575,25.999375 67.645,26.088 C67.6325,26.1765 67.52025,26.22725 67.52025,26.22725 L67.4705,26.2905 C67.4705,26.2905 67.169875,26.30675 67.133875,26.2905 C67.02175,26.239875 67.096625,26.088 67.171375,26.1005 C67.246125,26.113375 67.158875,25.8855 67.158875,25.8855 L67.258875,25.873 C67.258875,25.873 67.271,25.645125 67.3085,25.645125 C67.346,25.645125 67.296,25.569375 67.246,25.531375 C67.19625,25.4935 67.134,25.367 67.083875,25.379625 C67.034125,25.392125 66.834625,25.379625 66.834625,25.379625 L66.797125,25.4555 L66.66,25.48075 C66.66,25.48075 66.671625,25.578625 66.64775,25.607375 C66.57275,25.695875 66.286,25.885625 66.4105,25.569375 L66.448,25.493625 L66.448,25.379625 L66.22375,25.367125 C66.22375,25.367125 66.1115,25.329125 66.1115,25.278375 C66.1115,25.22775 66.099,25.164625 66.099,25.164625 L65.837125,24.873625 L65.5255,24.83575 L65.5005,24.772375 L65.313625,24.747 C65.089,24.63325 64.889375,24.7345 64.926875,24.92425 C64.964375,25.11425 65.0265,25.19 64.901875,25.19 C64.777125,25.19 64.752375,25.08875 64.752375,25.08875 C64.752375,25.08875 64.65275,25.050625 64.65275,25.10125 C64.65275,25.151875 64.61525,25.253125 64.65275,25.30375 C64.69,25.35425 64.60275,25.43025 64.56525,25.39225 C64.528125,25.35425 64.42825,25.2405 64.45325,25.202625 C64.47825,25.16475 64.2785,24.92425 64.47825,24.886375 C64.677625,24.84825 64.46575,24.734375 64.54075,24.70925 L64.640125,24.6585 L64.739875,24.6585 L64.802375,24.607875 L64.640125,24.582875 L64.540625,24.57 L64.353375,24.55725 C64.1665,24.68375 64.12925,24.835625 64.12925,24.835625 C64.02925,25.025375 63.792625,24.759625 63.879875,24.6585 C63.967,24.55725 63.6055,24.64575 63.543125,24.696375 C63.480625,24.747125 63.293625,24.721875 63.293625,24.721875 C63.256375,24.835625 63.081875,24.709375 63.131625,24.633375 C63.181625,24.557375 63.181625,24.50675 63.181625,24.50675 L63.119125,24.49425 L63.0445,24.63325 C62.87,24.63325 62.82,24.7345 62.857375,24.79775 C62.894875,24.861 62.807375,24.78525 62.782375,24.87375 C62.75775,24.9625 62.795125,24.9625 62.869875,25.000375 C62.944875,25.038375 62.832375,25.038375 62.882375,25.101625 C62.932375,25.165 63.081875,25.101625 62.994625,25.190375 C62.907375,25.27875 62.732625,25.241 62.732625,25.241 C62.720125,25.35475 62.483375,25.3295 62.458625,25.2915 C62.433625,25.253375 62.246625,25.025625 62.246625,25.025625 L62.0095,25.013125 C61.98475,24.835875 62.122,24.924375 62.171625,24.78525 C62.221625,24.646 62.246625,24.418375 62.246625,24.418375 C62.246625,24.418375 62.047,24.405875 62.034625,24.468875 C62.022125,24.532125 61.8975,24.570125 61.8975,24.570125 C61.8975,24.570125 61.79775,24.607875 61.83525,24.658625 C61.87275,24.70925 61.76025,24.734375 61.76025,24.734375 C61.76025,24.734375 61.77975,24.816125 61.748,24.848125 C61.648375,24.949625 61.39875,24.860875 61.3615,24.823125 L61.211875,24.75975 L61.062125,24.6585 L60.88775,24.734375 L60.83775,24.785 L60.65075,24.785 L60.63825,24.936625 L60.975,24.9745 L61,25.287625 L60.86275,25.2405 L60.7755,25.2405 L60.738,25.1645 L60.66325,25.152 L60.66325,25.430125 L60.73825,25.4935 L60.80075,25.556625 L60.92525,25.569375 L60.95025,25.721125 L61.26175,25.733875 L61.29925,25.797125 L61.486375,25.809625 L61.848,26.176625 L61.823,26.290375 L61.7605,26.3285 C61.7855,26.41725 61.59875,26.3665 61.59875,26.3665 L61.59875,26.4425 L61.685625,26.455 L61.773125,26.505625 L61.897625,26.290625 C62.034875,26.201875 62.097125,26.328625 62.10975,26.404375 C62.12225,26.480375 62.04725,26.46775 62.04725,26.46775 L62.04725,26.645 L62.12225,26.67 C62.247,26.822 62.07225,26.910625 62.07225,26.910625 L62.03475,27.037125 C61.99725,27.151125 61.86025,27.125625 61.86025,27.125625 L61.81075,27.201625 L61.66075,27.23975 L61.957,27.277625 C61.985,27.176375 62.0595,27.151125 62.097,27.20175 C62.1345,27.252625 62.1345,27.341125 62.1345,27.341125 L62.2095,27.353625 L62.197,27.492875 L62.272,27.518125 L62.272,27.923125 L62.359125,28.024375 C62.508875,27.961125 62.508875,28.06225 62.434125,28.11275 C62.359125,28.163125 62.409125,28.391125 62.409125,28.391125 L62.346625,28.45425 L62.346625,28.5555 L62.271875,28.606125 L62.271875,28.74525 C62.147125,28.682 61.9975,28.70725 61.96,28.74525 C61.848,28.66925 61.61125,28.694625 61.61125,28.758 C61.68575,28.85925 61.524,28.8845 61.524,28.8845 L61.4365,28.98575 C61.499,29.112375 61.37425,29.124875 61.37425,29.124875 L61.37425,29.365375 L61.2245,29.504625 L61.237,29.833625 C61.237,29.922375 61.424,29.934875 61.46125,29.88425 C61.49875,29.83375 61.6485,29.98575 61.6485,29.98575 L61.7605,29.98575 L61.7855,29.757875 L61.7105,29.71975 L61.7105,29.35275 L61.8355,29.213375 C61.985,29.16275 61.93525,29.5425 61.93525,29.5805 C61.94775,29.719625 62.00975,29.707 62.07225,29.68175 C62.196875,29.631 62.097,29.821 61.9975,29.808 C61.89775,29.7955 61.96,29.93475 61.96,29.93475 L62.0225,29.960125 L61.91,30.0485 L61.810625,30.1625 L61.685625,30.12425 L61.53625,30.11175 L61.48625,30.023 L61.39875,30.0105 L61.3865,30.1875 L61.32425,30.263375 L61.174625,30.4155 C61.37425,30.4155 61.149625,30.55425 61.099625,30.55425 C61.212125,30.592375 61.087375,30.706375 60.800625,30.618 L60.800625,30.70625 L60.700625,30.719 L60.788125,30.82 L60.887875,30.83275 L60.850375,31.04775 C60.850375,31.212375 60.439125,31.09825 60.401625,31.0605 L60.389125,31.28825 L60.3145,31.30075 L60.327,31.45275 L60.3145,31.66775 L60.4515,31.64275 L60.4515,31.73125 L60.78825,31.74375 L61.2745,31.225 L61.561125,31.16175 C61.586125,31.035125 61.7105,31.187125 61.7105,31.187125 C61.83525,31.17425 61.86025,31.263 61.86025,31.263 L62.022375,31.28825 C62.159375,31.326375 62.076625,31.3395 62.084625,31.3895 C62.097125,31.4655 62.159375,31.440125 62.159375,31.440125 L62.184375,31.27575 L62.259375,31.28825 L62.184375,31.19975 L62.047125,31.136375 L61.897625,31.07325 C61.797625,30.934125 61.922625,30.9595 62.02225,30.972 L62.184375,30.972 C62.184375,30.972 62.3715,31.225125 62.3715,31.28825 C62.3715,31.352 62.459,31.3645 62.459,31.3645 L62.570875,31.35175 L62.608375,31.44025 L62.7205,31.44025 L62.758,31.516125 L62.9825,31.516125 L62.995,31.402375 L62.78275,31.364625 L62.77025,31.237875 L62.620875,31.2 C62.570875,30.985 62.658125,30.92175 62.7205,31.023125 L62.79525,31.035625 L62.77025,30.845625 L62.8575,30.820375 L62.8325,30.5545 L62.757875,30.5295 L62.757875,30.44075 L63.069625,30.453625 C63.044875,30.288875 63.082125,30.213125 63.082125,30.213125 L63.169375,30.213125 L63.181875,30.2765 L63.563125,30.312375 L63.833125,30.003 C63.819375,29.97925 63.86,29.964875 63.830375,29.934625 C63.792875,29.896625 63.742875,29.934625 63.680375,29.896625 C63.61825,29.859125 63.680375,29.64375 63.667875,29.59325 C63.655625,29.542625 63.880375,29.4665 63.842875,29.5805 C63.805375,29.694625 63.842875,29.74525 63.842875,29.74525 C64.004875,29.59325 64.142,29.75775 64.129625,29.79575 C64.116875,29.83375 64.21675,29.871625 64.278875,29.83375 C64.341375,29.79575 64.416375,29.9475 64.391375,30.023375 C64.366125,30.09925 64.142,30.08675 64.129625,30.010875 C64.116875,29.934875 64.079375,29.96025 64.054625,29.998375 C64.029625,30.03625 63.917625,30.061375 63.855125,30.023375 C63.8461717,30.0186948 63.8385574,30.0118119 63.833,30.003375 L63.563375,30.312625 L63.580875,30.314375 C63.730375,30.403125 63.655875,30.516875 63.605875,30.542375 C63.555875,30.567625 63.468625,30.567625 63.468625,30.567625 L63.443875,30.618375 L63.11975,30.643375 L63.09475,30.770125 C62.932625,30.744625 62.870375,30.922 62.90775,31.010375 C62.94525,31.098875 62.90775,31.174875 62.90775,31.174875 L63.044875,31.23825 L63.21925,31.187875 C63.24425,31.061125 63.356375,31.035875 63.45625,30.960125 C63.555875,30.884125 63.718125,31.098875 63.668125,31.200375 C63.618375,31.301625 63.618375,31.3395 63.618375,31.3395 L63.630875,31.4535 L63.506125,31.504 L63.4065,31.554625 L63.394,31.618125 L63.057375,31.618125 L62.995125,31.68125 L62.832875,31.69425 L62.782875,31.77 L62.670875,31.78275 C62.670875,31.78275 62.48375,31.87125 62.558625,31.9725 C62.633625,32.07375 62.247,32.06125 62.1595,31.921875 C62.13475,32.048125 61.997625,31.934375 61.997625,31.934375 L61.8605,31.896375 L61.848,31.706875 C61.823,31.580125 61.58625,31.580125 61.598875,31.668875 C61.611375,31.757625 61.14975,31.706875 61.14975,31.706875 L61.000375,31.779375 L60.862875,31.858625 L60.850625,31.921875 L60.626,31.947125 L60.526375,31.997875 L60.488875,31.921875 L60.389375,31.921875 L60.289375,32.061125 C60.02775,32.073875 59.7785,32.22575 59.803125,32.289 C59.828125,32.352125 59.70375,32.41575 59.70375,32.41575 L59.59125,32.45325 L59.51675,32.567 L59.367,32.61775 L59.342,32.883625 L59.26725,32.934125 L59.26725,33.048125 L59.17975,33.073125 L59.17975,33.1365 L59.05525,33.149 L59.129875,33.339 L59.229875,33.389625 C59.404375,33.414625 59.3295,33.630125 59.3295,33.630125 L59.429125,33.642625 L59.479125,33.78175 L59.578625,33.984 C59.616125,34.136125 59.728375,34.098 59.77825,34.08525 C59.828,34.073 59.87775,34.237125 59.87775,34.237125 L60.37625,34.249875 C60.37625,34.249875 60.3515,34.300625 60.43875,34.325875 C60.526,34.350875 61.0995,34.3765 61.124625,34.338375 C61.099625,34.224625 61.435875,34.19925 61.573375,34.3005 C61.710375,34.40175 61.8975,34.3385 61.8975,34.3385 L62.084375,34.566 L62.209375,34.8445 L62.421125,34.90775 L62.570625,34.94575 L62.620625,35.16075 L62.73275,35.1735 L62.77025,35.312875 C62.9075,35.413875 62.73275,35.629125 62.73275,35.629125 L62.73275,35.90725 L62.8325,35.958 L62.82,36.0595 L62.98225,36.22375 L63.169125,36.236625 L63.643125,36.7425 L64.016875,36.85625 L64.079375,37.05875 L64.179375,37.04625 L64.254,36.983 L64.553,36.9705 L64.702625,36.831 L64.864625,36.806 L66.248375,35.629125 L66.123625,35.552875 L66.123625,35.27475 C66.348125,35.11025 66.3605,34.819125 66.148625,34.793875 C65.987875,34.774625 66.0615,34.603875 66.211125,34.578875 L66.29825,34.540875 L66.29825,34.426875 L66.585,34.161375 L66.585,33.958875 L65.96175,33.439875 C65.68725,33.338875 65.96175,32.731375 66.1485,32.744 C66.335625,32.7565 66.136,31.80775 66.136,31.80775 L66.03625,31.757125 L66.06125,31.453375 L65.92425,31.453375 L65.69975,31.744625 L65.6375,31.94675 C65.6125,32.21275 64.8395,32.16175 64.802,32.123875 C64.7645,32.08575 64.502875,31.972 64.502875,31.972 C64.502875,31.972 64.303375,31.8075 64.266,31.85825 C64.2285,31.908875 64.054125,31.79475 64.054125,31.832875 C64.054125,31.870875 63.892125,31.744375 63.892125,31.744375 L63.64275,31.655625 L63.83,31.617625 L63.7925,31.465875 L64.11625,31.630375 C64.15375,31.680875 64.315875,31.668375 64.315875,31.668375 L64.365875,31.73175 C64.365875,31.73175 64.465625,31.718875 64.528125,31.794875 C64.590375,31.870875 64.914375,31.807625 64.914375,31.807625 L65.001625,31.883375 L65.13875,31.934125 L65.525375,31.946625 L65.537875,31.706625 L65.612625,31.630375 L65.600125,31.4785 L65.687625,31.40275 L65.687625,31.2765 L65.762375,31.251125 L65.774875,30.972875 L65.837,30.960375 L65.837,30.352875 L65.65,30.175625 C65.6375,30.239 65.438,30.239 65.438,30.239 C65.438,30.239 65.38825,30.327375 65.35075,30.327375 C65.3135,30.327375 65.40075,30.441125 65.37575,30.517125 C65.35075,30.593 65.251,30.593 65.251,30.593 L65.063875,30.64375 L65.014125,30.707 L64.814625,30.707 L64.789875,30.5425 L65.014,30.479125 L65.139,30.41625 L65.2015,30.2895 C65.213625,30.16325 65.363375,30.17575 65.363375,30.17575 C65.363375,30.17575 65.650125,29.93525 65.6625,29.8215 C65.67525,29.7075 65.775,29.391125 65.94925,29.391125 L66.2735,29.391125 C66.398125,29.340375 66.36075,29.175875 66.36075,29.175875 L66.522875,29.150875 L66.547875,29.239375 C66.547875,29.239375 66.7725,29.264625 66.79725,29.226625 C66.82225,29.189125 66.87225,29.100375 66.93475,29.13825 C66.996875,29.176125 67.196375,29.0495 67.196375,29.0495 C67.208875,28.961 67.520375,28.999 67.520375,28.999 L67.557875,28.885 C67.557875,28.885 67.346,28.594 67.308625,28.594 C67.271125,28.594 67.07175,28.41675 67.046625,28.48025 C66.847375,28.4295 66.85975,28.151125 66.85975,28.151125 L66.78475,27.974 C66.78475,27.87275 66.598125,27.65775 66.5605,27.683 C66.3735,27.543875 66.51075,27.37925 66.5605,27.36675 C66.6105,27.35425 66.73525,27.17675 66.73525,27.17675 L66.7975,26.999625 L67.009375,26.936625 L67.034375,26.772125 L66.9225,26.759625 C66.9225,26.759625 67.047,26.531625 67.1095,26.531625 C67.172,26.531625 67.5835,26.531625 67.62075,26.50625 C67.658,26.48125 67.73275,26.27875 67.73275,26.240625 C67.73275,26.202625 67.83275,26.19 67.869875,26.17725 C67.907375,26.16475 67.994625,26.0635 68.0195,26.012875 C68.0445,25.961875 67.9575,25.645375 67.9075,25.696125 L67.90675,25.69575 Z" id="Shape" fill="#FFFFFF"></path>
                    <path d="M61,30.25725 C61.01875,30.2385 61.0375,30.31425 61.075,30.30475 C61.112,30.29525 61.130875,30.37125 61.09375,30.37125 C61.05625,30.37125 61.05625,30.41875 61.05625,30.43775 C61.05625,30.45675 61.05625,30.504 61.028,30.53275 C61,30.561125 60.97175,30.542125 60.93425,30.523125 C60.897,30.504125 60.8785,30.504125 60.8315,30.504125 C60.784875,30.504125 60.822125,30.580125 60.822125,30.580125 C60.822125,30.580125 60.625875,30.57075 60.663375,30.542125 C60.700625,30.513875 60.738,30.50425 60.710125,30.485125 C60.682125,30.466375 60.710125,30.447375 60.710125,30.409375 C60.710125,30.371375 60.803875,30.390375 60.7755,30.361875 C60.747625,30.333375 60.776125,30.223125 60.82225,30.285875 L60.850375,30.219375 C60.82225,30.190875 60.841125,30.181375 60.785,30.162625 C60.72875,30.143625 60.775375,30.029625 60.775375,30.029625 L60.784875,29.95375 C60.803625,29.859 60.990375,29.84925 60.999875,29.934625 C61.009,30.020125 60.999875,30.077125 60.999875,30.077125 L61.056125,30.095875 C61.056125,30.095875 61.0465,30.153125 60.999875,30.153125 C60.952875,30.153125 60.999875,30.18125 60.971625,30.209875 L60.999875,30.257125 L61,30.25725 Z M60.38275,30.3525 C60.410875,30.2955 60.47625,30.04875 60.551125,30.12475 C60.625625,30.200625 60.672375,30.12475 60.672375,30.12475 C60.672375,30.12475 60.709875,30.16275 60.691125,30.23875 C60.672375,30.3145 60.653625,30.3905 60.60675,30.4 C60.56025,30.4095 60.52275,30.438 60.46675,30.4475 C60.410875,30.457 60.382625,30.3525 60.382625,30.3525 L60.38275,30.3525 Z" id="Shape" fill="#FFFFFF"></path>
                </g>
            </g>
        </g>
    </g>
</svg>