<?xml version="1.0" encoding="UTF-8" standalone="no"?>
<svg width="122px" height="60px" viewBox="0 0 122 60" version="1.1" xmlns="http://www.w3.org/2000/svg" xmlns:xlink="http://www.w3.org/1999/xlink">
    <!-- Generator: Sketch 3.8.2 (29753) - http://www.bohemiancoding.com/sketch -->
    <title>sy</title>
    <desc>Created with Sketch.</desc>
    <defs></defs>
    <g id="Page-1" stroke="none" stroke-width="1" fill="none" fill-rule="evenodd">
        <g id="sy">
            <g id="Group">
                <g>
                    <rect id="Rectangle-path" fill="#FFFFFF" x="0" y="0" width="122" height="60"></rect>
                    <rect id="Rectangle-path" fill="#FFFFFF" x="21" y="40.0875" width="60" height="19.9125"></rect>
                    <path d="M21,0 L81,0 L81,19.9125 L21,19.9125 L21,0 Z M46.2375,35.125 L42.63475,32.516625 L39.04975,35.150625 L40.383125,30.870375 L36.804625,28.22725 L41.231875,28.190375 L42.605,23.923125 L44.007625,28.180625 L48.434875,28.18625 L44.87475,30.85425 L46.2375,35.125 L46.2375,35.125 Z M84.6925,35.125 L81.08975,32.516625 L77.50475,35.150625 L78.838125,30.870375 L75.259625,28.22725 L79.686875,28.190375 L81.06,23.923125 L82.462625,28.180625 L86.889875,28.18625 L83.32975,30.85425 L84.6925,35.125 L84.6925,35.125 Z" id="Shape" fill="#FFFFFF"></path>
                    <rect id="Rectangle-path" fill="#000000" x="0" y="40.0875" width="122" height="19.9125"></rect>
                    <polygon id="Shape" fill="#FF0000" points="0 0 122 0 122 19.9125 0 19.9125"></polygon>
                    <path d="M46.2375,35.125 L42.63475,32.516625 L39.04975,35.150625 L40.383125,30.870375 L36.804625,28.22725 L41.231875,28.190375 L42.605,23.923125 L44.007625,28.180625 L48.434875,28.18625 L44.87475,30.85425 L46.2375,35.125 L46.2375,35.125 Z M84.6925,35.125 L81.08975,32.516625 L77.50475,35.150625 L78.838125,30.870375 L75.259625,28.22725 L79.686875,28.190375 L81.06,23.923125 L82.462625,28.180625 L86.889875,28.18625 L83.32975,30.85425 L84.6925,35.125 L84.6925,35.125 Z" id="Shape" fill="#009900"></path>
                </g>
            </g>
        </g>
    </g>
</svg>