<?xml version="1.0" encoding="UTF-8" standalone="no"?>
<svg width="122px" height="60px" viewBox="0 0 122 60" version="1.1" xmlns="http://www.w3.org/2000/svg" xmlns:xlink="http://www.w3.org/1999/xlink">
    <!-- Generator: Sketch 3.8.2 (29753) - http://www.bohemiancoding.com/sketch -->
    <title>tg</title>
    <desc>Created with Sketch.</desc>
    <defs></defs>
    <g id="Page-1" stroke="none" stroke-width="1" fill="none" fill-rule="evenodd">
        <g id="tg">
            <g id="Clipped">
                <g>
                    <g id="Group">
                        <g id="Group-2">
                            <rect id="Rectangle-264" fill="#118600" x="0" y="0" width="122" height="12"></rect>
                            <rect id="Rectangle-264-Copy-2" fill="#118600" x="0" y="24" width="122" height="12"></rect>
                            <rect id="Rectangle-264-Copy-4" fill="#118600" x="0" y="48" width="122" height="12"></rect>
                            <rect id="Rectangle-264-Copy" fill="#FFE300" x="0" y="12" width="122" height="12"></rect>
                            <rect id="Rectangle-264-Copy-3" fill="#FFE300" x="0" y="36" width="122" height="12"></rect>
                        </g>
                        <polygon id="Shape" fill="#D80000" points="0 0.0291581003 36.0511963 0.0291581003 36.0511963 36 0 36"></polygon>
                        <path d="M15.8102568,15.0998985 C15.8102568,14.999256 18.0257158,8.85877172 18.0257158,8.85877172 L20.0398122,14.999256 C20.0398122,14.999256 26.786988,15.2006585 26.786988,15.0998985 C26.786988,14.9991384 21.4497032,19.1265381 21.4497032,19.1265381 C21.4497032,19.1265381 23.967206,26.1730398 23.8666423,25.9717549 C23.7659611,25.7704699 18.0258334,21.7438303 18.0258334,21.7438303 C18.0258334,21.7438303 12.185142,25.7704699 12.2858233,25.7704699 C12.3865046,25.7704699 14.5011647,19.1266557 14.5011647,19.1266557 L9.26456112,15.2006585 L15.8102568,15.1000161 L15.8102568,15.0998985 Z" id="Shape" fill="#FFFFFF"></path>
                    </g>
                </g>
            </g>
        </g>
    </g>
</svg>