<?xml version="1.0" encoding="UTF-8" standalone="no"?>
<svg width="122px" height="60px" viewBox="0 0 122 60" version="1.1" xmlns="http://www.w3.org/2000/svg" xmlns:xlink="http://www.w3.org/1999/xlink">
    <!-- Generator: Sketch 3.8.2 (29753) - http://www.bohemiancoding.com/sketch -->
    <title>tv</title>
    <desc>Created with Sketch.</desc>
    <defs>
        <polygon id="path-1" points="0 0 80 0 80 60 0 60"></polygon>
    </defs>
    <g id="Page-1" stroke="none" stroke-width="1" fill="none" fill-rule="evenodd">
        <g id="tv">
            <g>
                <g id="Clipped">
                    <mask id="mask-2" fill="white">
                        <use xlink:href="#path-1"></use>
                    </mask>
                    <g id="Shape"></g>
                    <g id="Group" mask="url(#mask-2)">
                        <g transform="translate(-0.375000, -0.125000)">
                            <g id="Group" stroke-width="1" fill="none" transform="translate(0.375000, 0.049458)">
                                <polygon id="Shape" fill="#009FCA" points="40.798891 0.712306512 80.0004026 0.712306512 80.0004026 60.0754019 40.798891 60.0754019"></polygon>
                                <rect id="Rectangle-path" fill="#009FCA" x="0" y="0.0756034538" width="42.2116162" height="60.000604"></rect>
                            </g>
                            <polygon id="Shape" fill="#FFFFFF" points="0.377125 0.125 49.85925 0.125 49.85925 24.699625 0.377125 24.699625"></polygon>
                            <polygon id="Shape" fill="#CC0000" points="0.377 0.125 0.375 1.969625 12.183125 8.037 16.626 8.165625 0.377125 0.125"></polygon>
                            <polygon id="Shape" fill="#000066" points="5.432875 0.125 19.74825 7.60275 19.74825 0.125"></polygon>
                            <polygon id="Shape" fill="#CC0000" points="21.6575 0.125 21.6575 9.671 0.37725 9.671 0.37725 15.125875 21.6575 15.125875 21.6575 24.67175 28.205625 24.67175 28.205625 15.125875 49.48625 15.125875 49.48625 9.671 28.20575 9.671 28.20575 0.125125 21.6575 0.125125"></polygon>
                            <polygon id="Shape" fill="#000066" points="30.115125 0.125 30.115125 7.171 44.120875 0.17975"></polygon>
                            <polygon id="Shape" fill="#CC0000" points="30.55775 7.939125 34.497 7.9075 49.79925 0.179625 45.738 0.245875"></polygon>
                            <polygon id="Shape" fill="#000066" points="0.377 16.717 0.377 21.9445 10.199 16.77075 0.377 16.716375"></polygon>
                            <path d="M38.1985,16.93275 L34.104125,16.900875 L49.538375,24.5855 L49.43675,22.827375 L38.19875,16.93275 L38.1985,16.93275 Z M4.213,24.714 L18.68475,17.116875 L14.883875,17.141875 L0.3775,24.70375 L4.213,24.714 Z" id="Shape" fill="#CC0000"></path>
                            <path d="M49.69375,2.283875 L38.006,8.079875 L49.538125,8.123 L49.538125,16.759625 L39.71625,16.759625 L49.44725,22.03225 L49.590125,24.7145 L44.3925,24.652375 L30.1675,17.66875 L30.1675,24.7145 L19.8,24.7145 L19.8,17.66875 L6.45625,24.695625 L0.429625,24.714625 L0.429625,49.260875 L98.648375,49.260875 L98.648375,0.168375 L49.795875,0.125875 L49.69375,2.283875 Z M0.427125,2.896375 L0.37525,7.99425 L10.7155,8.123875 L0.427125,2.896375 L0.427125,2.896375 Z" id="Shape" fill="#000066"></path>
                            <g id="Group" stroke-width="1" fill="none" transform="translate(0.078596, 0.125000)">
                                <polygon id="Shape" fill="#009FCA" points="49.4325168 0 98.5678799 0 98.5678799 49.5917383 49.4325168 49.5917383"></polygon>
                                <rect id="Rectangle-path" fill="#009FCA" x="0.0690387213" y="24.4539675" width="52.0801567" height="25.1377708"></rect>
                            </g>
                            <g id="Group" stroke-width="1" fill="none" transform="translate(31.750000, 12.375000)">
                                <path d="M42.7925,3.0865 L46.239,3.08425 L43.449,4.98825 L44.5165,8.0725 L41.729875,6.16375 L38.94325,8.072 L40.01125,4.98825 L37.22175,3.08325 L40.668125,3.0865 L41.730375,0.001 L42.7925,3.0865 Z M34.1425,27.684 L37.588875,27.681625 L34.798875,29.58575 L35.866375,32.669875 L33.07975,30.76125 L30.293125,32.6695 L31.361125,29.58575 L28.571625,27.68075 L32.018,27.684 L33.08025,24.598375 L34.1425,27.684 Z M42.7925,22.115875 L46.239,22.113625 L43.449,24.017625 L44.5165,27.10175 L41.729875,25.193125 L38.94325,27.101375 L40.01125,24.017625 L37.22175,22.112625 L40.668125,22.115875 L41.730375,19.030375 L42.7925,22.115875 Z M5.5985,39.95575 L9.045,39.953375 L6.255,41.8575 L7.3225,44.941625 L4.535875,43.033 L1.74925,44.94125 L2.81725,41.8575 L0.027625,39.9525 L3.474125,39.95575 L4.536375,36.87025 L5.5985,39.95575 Z M13.42025,30.395 L9.97375,30.39725 L12.76375,28.49325 L11.69625,25.409 L14.482875,27.31775 L17.2695,25.4095 L16.2015,28.49325 L18.991,30.39825 L15.544625,30.395 L14.482375,33.4805 L13.42025,30.395 Z M23.5835,16.3395 L20.137125,16.34175 L22.927125,14.437625 L21.859625,11.3535 L24.64625,13.26225 L27.432875,11.354 L26.364875,14.43775 L29.154375,16.34275 L25.708,16.3395 L24.64575,19.425 L23.5835,16.3395 Z M32.1255,13.419375 L28.679,13.421625 L31.469,11.517625 L30.4015,8.433375 L33.188125,10.342125 L35.97475,8.433875 L34.90675,11.517625 L37.69625,13.422625 L34.249875,13.419375 L33.187625,16.504875 L32.1255,13.419375 Z M23.5835,37.7465 L20.137125,37.74875 L22.927125,35.844625 L21.859625,32.7605 L24.64625,34.66925 L27.432875,32.761 L26.364875,35.84475 L29.154375,37.74975 L25.708,37.7465 L24.64575,40.832 L23.5835,37.7465 Z M13.42025,40.23375 L9.97375,40.236 L12.76375,38.331875 L11.69625,35.24775 L14.482875,37.156375 L17.2695,35.248125 L16.2015,38.331875 L18.991,40.236875 L15.544625,40.233625 L14.482375,43.319125 L13.42025,40.23375 Z" id="Shape" fill="#FFF40D"></path>
                            </g>
                        </g>
                    </g>
                </g>
                <rect id="Rectangle-278" fill="#009FCA" x="78" y="0" width="44" height="60"></rect>
            </g>
        </g>
    </g>
</svg>