<?xml version="1.0" encoding="UTF-8" standalone="no"?>
<svg width="122px" height="60px" viewBox="0 0 122 60" version="1.1" xmlns="http://www.w3.org/2000/svg" xmlns:xlink="http://www.w3.org/1999/xlink">
    <!-- Generator: Sketch 3.8.2 (29753) - http://www.bohemiancoding.com/sketch -->
    <title>cx</title>
    <desc>Created with Sketch.</desc>
    <defs></defs>
    <g id="Page-1" stroke="none" stroke-width="1" fill="none" fill-rule="evenodd">
        <g id="cx">
            <g id="Group">
                <g>
                    <polygon id="Shape" fill="#0021AD" points="0 0 101 0 101 60 0 60"></polygon>
                    <polygon id="Shape" fill="#1C8A42" points="21 0 101 0 122 0 122 60 101 60"></polygon>
                    <circle id="Oval" fill="#FFC639" cx="61" cy="30" r="7.225625"></circle>
                    <path d="M56.58725,26.754375 C57.0815,27.4325 57.8305,28.569375 58.433,28.27275 C58.903,28.274375 59.14575,28.307375 59.2095,28.62025 C60.31825,28.809 62.18175,28.34125 63.34125,26.831 C63.34125,26.831 63.43875,26.843875 63.405,26.26975 C63.41125,26.01975 63.746875,26.06975 63.755,26.15125 C63.801625,26.275375 63.79375,26.368125 63.8565,26.37125 C63.99925,26.32375 64.194375,26.00375 64.358,25.8005 C64.402375,25.711 64.37825,25.61675 64.388625,25.50375 C64.474875,25.291625 64.690125,25.3375 64.73525,25.44875 C64.7765,25.520625 64.77725,25.5755 64.8175,25.64725 C65.03625,25.79325 65.4305,25.656875 65.46125,25.656875 C65.5,25.47875 65.614375,25.495625 65.614375,25.495625 C65.76025,25.463375 65.703125,25.47625 65.799,25.52625 C65.714375,26.48675 65.98775,26.529375 65.96525,27.022 C65.97475,27.572 65.799,27.72825 65.799,27.938 C65.854625,28.1945 66.66575,28.203375 66.38025,28.42025 C66.129625,28.554 66.381125,28.804875 66.00375,28.9025 C64.9055,29.459625 64.695,29.937875 64.695,29.937875 C64.695,29.937875 64.41925,30.45875 64.38875,30.45875 C64.20475,30.80625 63.97175,30.61675 63.842,30.78625 C63.7775,30.999 63.704875,31.47075 63.833875,31.715875 C63.8985,32.052875 63.826,32.23675 63.745375,32.57375 C63.672875,33.276875 63.39375,33.383375 63.361625,33.63 C63.2325,33.89375 63.388875,35.1325 63.266375,35.1325 C62.448875,35.1485 61.822125,34.975875 61.498875,34.91125 C61.814125,33.5525 61.691375,32.359375 61.691375,32.23675 C61.610875,31.265125 60.236125,31.501375 60.025625,31.372375 C59.8515,31.335125 59.741875,31.19325 59.680625,31.132 C59.486125,31.111 59.413625,31.066625 59.219375,31.0465 C59.1225,31.094875 59.180625,31.144875 58.964375,31.21175 C58.416125,31.278 58.174375,30.733625 58.174375,30.733625 C58.200875,30.550625 56.941375,30.77075 56.256875,30.611875 C55.976125,30.768125 55.8535,31.231125 55.62375,31.286 C55.617125,31.429375 55.245375,31.168125 55.1705,31.027 C55.155125,30.616625 55.5285,30.435125 55.5285,30.435125 C55.82525,30.226375 56.001,30.192375 56.14375,30.048125 C56.2155,29.690875 56.179125,29.426375 56.331625,29.157875 C56.460625,28.952875 56.650875,29.049125 56.779875,28.957125 C56.918625,28.865 56.977375,28.263375 56.849125,28.099 C56.849125,28.099 56.294375,27.59825 56.26375,27.56775 C56.08325,27.05 56.475,26.716125 56.58725,26.754 L56.58725,26.754375 Z" id="Shape" fill="#1C8A42"></path>
                    <path d="M91.234375,17.804375 C90.906875,16.508875 87.976875,13.71875 85.774625,11.943125 C85.248875,11.585 84.90625,11.798375 84.974625,12.309 C85.248875,12.7665 85.454625,13.269 85.728625,13.7265 C85.805125,14.031125 85.9495,14.2445 86.026125,14.54925 C86.026125,14.54925 86.048625,15.075 86.094625,15.12075 C86.78,15.875375 86.872125,16.51525 86.872125,16.51525 C87.267875,17.277375 87.618625,17.8335 88.312125,18.4585 C89.089625,18.946375 88.51775,20.46225 88.540375,21.27025 C88.540375,21.780625 88.175,21.72025 87.854875,21.659 C85.332625,19.34225 82.833,19.335 80.630875,18.664 C79.769625,18.573 79.754375,18.98425 80.036625,19.212375 C81.575875,20.858875 83.02325,21.978875 84.928625,22.915875 L85.889,23.510875 C86.254375,23.815875 86.62025,24.1205 86.985625,24.425375 C87.8315,24.973625 87.900875,25.476625 87.900875,25.522 C87.923375,26.55075 87.374375,27.35075 87.214625,27.67075 C86.925875,28.76175 86.34625,28.951375 86.34625,28.951375 C81.6365,32.129125 79.1675,32.951625 71.532,31.968625 C71.4175,31.90825 70.686125,32.029875 71.532,32.334875 C73.47525,32.982375 78.248875,34.020875 82.86725,31.834 C83.976,31.05675 84.71775,31.3115 85.521,30.84625 C86.840125,30.03275 88.72375,29.02 89.066375,28.90625 C90.095375,28.357125 92.97575,27.74025 93.639375,27.19125 C94.400625,27.13 95.190625,27.03 95.244,26.375 C95.494,26.213125 95.86025,26.331625 96.131875,25.797875 C96.735875,25.692875 96.634375,25.476875 96.634375,25.476875 C96.481875,25.050375 95.917375,24.874375 95.514375,24.5625 C94.919125,24.364125 94.507875,24.302875 94.073125,24.5165 C93.936125,24.57775 93.799125,24.63825 93.661875,24.699625 C93.661875,24.699625 93.021875,24.607625 93.021875,24.5625 C91.599375,24.48425 91.738125,19.770375 91.234875,17.80425 L91.234375,17.804375 Z" id="Shape" fill="#FFC639"></path>
                    <path id="Shape" fill="#1C8A42"></path>
                    <g transform="translate(23.640000, 20.720000)" fill="#FFFFFF">
                        <polygon id="a" points="12.4128 4.5552 11.3928 3.60032 10.3604 4.54192 10.47104 3.14952 9.09104 2.9292 10.24912 2.14728 9.56064 0.93152 10.89408 1.34912 11.41552 0.05272 11.92032 1.35568 13.25904 0.95512 12.55504 2.162 13.70288 2.9588 12.32024 3.1612 12.41288 4.55512"></polygon>
                        <polygon id="Shape" points="16.0312 16.1224 14.93104 15.38904 13.85984 16.16216 14.23664 14.91672 13.15024 14.16344 14.48352 14.12776 14.88256 12.88808 15.33016 14.11208 16.66352 14.0996 15.60672 14.89176 16.03128 16.12232"></polygon>
                        <g id="a-link" transform="translate(9.241760, 21.524880)">
                            <polygon id="a" points="3.3728 4.5552 2.3528 3.60032 1.3204 4.54192 1.43104 3.14952 0.05104 2.9292 1.20912 2.14728 0.52064 0.93152 1.85408 1.34912 2.37552 0.05272 2.88032 1.35568 4.21904 0.95512 3.51504 2.162 4.66288 2.9588 3.28024 3.1612 3.37288 4.55512"></polygon>
                        </g>
                        <g id="a-link" transform="translate(0.074720, 9.857840)">
                            <polygon id="a" points="3.3728 4.5552 2.3528 3.60032 1.3204 4.54192 1.43104 3.14952 0.05104 2.9292 1.20912 2.14728 0.52064 0.93152 1.85408 1.34912 2.37552 0.05272 2.88032 1.35568 4.21904 0.95512 3.51504 2.162 4.66288 2.9588 3.28024 3.1612 3.37288 4.55512"></polygon>
                        </g>
                        <g id="a-link" transform="translate(17.714160, 6.802160)">
                            <polygon id="a" points="3.3728 4.5552 2.3528 3.60032 1.3204 4.54192 1.43104 3.14952 0.05104 2.9292 1.20912 2.14728 0.52064 0.93152 1.85408 1.34912 2.37552 0.05272 2.88032 1.35568 4.21904 0.95512 3.51504 2.162 4.66288 2.9588 3.28024 3.1612 3.37288 4.55512"></polygon>
                        </g>
                    </g>
                </g>
            </g>
        </g>
    </g>
</svg>