<?xml version="1.0" encoding="UTF-8" standalone="no"?>
<svg width="122px" height="60px" viewBox="0 0 122 60" version="1.1" xmlns="http://www.w3.org/2000/svg" xmlns:xlink="http://www.w3.org/1999/xlink">
    <!-- Generator: Sketch 3.8.2 (29753) - http://www.bohemiancoding.com/sketch -->
    <title>ky</title>
    <desc>Created with Sketch.</desc>
    <defs></defs>
    <g id="Page-1" stroke="none" stroke-width="1" fill="none" fill-rule="evenodd">
        <g id="ky">
            <g id="Group">
                <g>
                    <polygon id="Shape" fill="#000066" points="0 0 122 0 122 60 0 60"></polygon>
                    <polygon id="Shape" fill="#000066" points="0 0 50 0 50 25 0 25"></polygon>
                    <g id="Shape">
                        <path d="M18.2697462,15.143625 L0,3.38625 L0,0 L0,0.00025 L5.261625,0.00025 L23.531418,11.7575107 L41.801375,0 L47.063125,0 L47.063125,3.386125 L28.7931422,15.1436171 L47.063125,26.901 L47.063125,30.28725 L41.801375,30.28725 L23.5314302,18.5297472 L5.261625,30.287125 L0,30.287125 L0,26.901 L18.2697462,15.143625 Z" fill="#FFFFFF"></path>
                        <path d="M19.609625,10.09575 L19.609625,0 L27.453375,0 L27.453375,10.09575 L47.063125,10.09575 L47.063125,20.191375 L27.453375,20.191375 L27.453375,30.287125 L19.609625,30.287125 L19.609625,20.191375 L0,20.191375 L0,10.09575 L19.609625,10.09575 Z" fill="#FFFFFF"></path>
                        <path d="M21.178375,18.172375 L0,18.172375 L0,12.114875 L0,12.114875 L21.178375,12.114875 L21.178375,0 L25.884625,0 L25.884625,12.114875 L47.063125,12.114875 L47.063125,18.172375 L25.884625,18.172375 L25.884625,30.287125 L21.178375,30.287125 L21.178375,18.172375 Z M0,30.287125 L15.68775,20.191375 L19.1955,20.191375 L3.50775,30.287125 L0,30.287125 L0,30.287125 Z M0,0 L15.68775,10.09575 L12.179875,10.09575 L0,2.2575 L0,0 L0,0 Z M27.867625,10.09575 L43.555375,0 L47.063125,0 L31.375375,10.09575 L27.867625,10.09575 L27.867625,10.09575 Z M47.063125,30.287 L31.375375,20.191375 L34.883125,20.191375 L47.063125,28.02975 L47.063125,30.287125 L47.063125,30.287 Z" fill="#CC0000"></path>
                    </g>
                    <g transform="translate(43.000000, 15.750000)" id="Shape">
                        <path d="M13.04125,6.642625 C12.915125,6.718875 12.66275,6.947625 12.41025,6.871375 C12.157875,6.795125 11.59,5.803625 10.959,5.956125 C10.32775,6.108625 9.94925,6.3375 9.696875,6.3375 C9.444375,6.3375 8.75025,6.566375 8.75025,7.1765 C8.75025,7.78675 8.813375,8.244375 8.939625,8.244375 C9.065875,8.244375 9.255125,7.863125 9.255125,7.863125 C9.255125,7.863125 9.31825,8.625625 9.76,8.625625 C10.20175,8.625625 11.14825,8.702 11.21125,8.930875 C11.2745,9.159625 10.769625,9.693625 10.895875,10.15125 C11.022125,10.608875 11.59,11.371625 11.59,11.371625 C11.59,11.371625 10.769625,11.98175 10.769625,12.36325 C10.769625,12.74475 10.895875,13.126 10.895875,13.126 L7.235875,13.2785 C7.235875,13.2785 6.983375,24.109375 7.109625,24.9485 C7.235875,25.78725 7.55125,27.84675 7.55125,27.84675 C7.55125,27.84675 6.731,27.58 6.03675,28.2665 C5.342625,28.953125 2.91325,30.135 2.850125,30.668875 C2.787,31.20275 2.566125,31.660625 2.818625,32.041875 C3.071,32.423125 3.959125,33.459375 3.702,33.415 C2.854875,33.26875 2.5395,32.06525 1.96675,31.6225 C1.40375,31.188 0.2945,31.279375 0.168375,31.73675 C0.042125,32.1945 0.10525,32.957125 0.168375,33.10975 C0.231375,33.26225 0.9255,35.703125 1.114875,36.237 C1.30425,36.770875 3.291875,37.571625 4.175375,37.4955 C5.8475,37.5335 6.60475,36.771 6.667875,36.8475 C6.731,36.9235 10.265375,40.5685 17.521625,40.58475 C23.170125,40.59725 27.428875,36.9235 27.428875,37 C27.428875,37.076125 29.76375,37.762625 30.584,37.534 C31.404375,37.30475 32.603375,36.770875 32.85575,36.237 C33.10825,35.70325 33.802375,32.957125 33.8655,32.499875 C33.928625,32.042 33.8655,31.508125 33.2975,31.3555 C32.7295,31.202875 32.414125,31.241 32.098625,31.3935 C31.783125,31.546 31.688375,31.966 31.215125,32.7285 C30.96275,32.957625 30.300125,33.567625 30.4895,33.415 C30.678875,33.262375 31.088875,32.1185 31.152,31.73675 C31.215125,31.3555 31.4045,30.669 30.96275,30.287625 C30.521,29.906375 29.844375,29.7505 29.069625,29.181875 C28.333875,28.677625 27.744625,27.846875 27.30275,27.846875 C26.861,27.846875 26.356125,27.61825 26.41925,27.61825 C26.482375,27.61825 26.98825,26.510125 26.862,25.36625 C26.73575,24.221875 26.924,13.27875 26.861,13.27875 C26.797875,13.27875 23.70575,13.5075 23.70575,13.355 C23.70575,13.2025 23.95825,12.134625 23.70575,11.448125 C23.453375,10.76175 22.380625,10.304 22.696125,10.1515 C23.011625,9.999 24.399875,9.617625 24.33675,9.007375 C24.273625,8.397125 23.39025,8.4735 23.011625,8.244625 C22.633,8.015875 21.497125,6.948 21.370875,6.948 C21.244625,6.948 24.652125,4.888625 24.399875,4.888625 C24.1475,4.888625 22.822375,4.507375 22.380625,4.736125 C22.380625,4.35475 24.210625,3.210625 23.895125,3.058 C23.579625,2.9055 22.128125,2.753 22.50675,2.67675 C22.8855,2.6005 23.011625,1.685125 22.9485,1.685125 C22.885375,1.685125 21.307875,1.913875 21.307875,1.913875 C21.307875,1.913875 20.929125,1.380125 20.803,1.380125 C20.67675,1.380125 20.108875,1.685125 20.108875,1.685125 L19.793375,0.846125 L19.09925,1.30375 L18.78375,0.922375 C18.78375,0.922375 18.21575,1.074875 18.21575,0.922375 C18.239625,0.916875 18.150375,0.539375 18.06125,0.539375 C17.971875,0.539375 17.34725,1.02475 17.325,0.99775 C17.302625,0.970875 16.611,1.89848137e-14 16.611,0.027 C16.611,0.054 16.120125,1.86075 16.097875,1.86075 C16.075625,1.86075 15.607,1.914625 15.58475,1.941625 C15.562375,1.968625 13.086,0.512375 13.108375,0.539375 C13.130625,0.566375 13.75525,1.941625 13.75525,1.941625 C13.75525,1.941625 13.219875,2.23825 13.219875,2.265375 C13.219875,2.29225 13.309125,2.885375 13.309125,2.885375 L11.657875,2.319125 C11.657875,2.319125 12.282625,3.5865 12.237875,3.5865 C12.193375,3.5865 11.010875,3.6405 11.03325,3.6405 C11.0555,3.6405 11.591,4.692125 11.591,4.692125 L11.39025,5.312375 C11.39025,5.312375 13.167375,6.5665 13.041125,6.642875 L13.04125,6.642625 Z M23.579625,33.186 C23.737375,33.41475 24.58925,34.4825 24.463,34.4825 C24.33675,34.4825 22.223,35.893625 21.370875,36.16075 C20.519,36.4275 17.7425,36.92325 17.90025,36.88525 C18.058,36.84725 20.3935,35.568375 21.340125,34.9585 C22.286625,34.3485 23.5795,33.26225 23.5795,33.186 L23.579625,33.186 Z M10.3905,33.1475 C10.26425,33.3 9.66475,34.4825 9.66475,34.4825 C9.66475,34.4825 11.400125,35.702875 12.69375,36.160625 C13.987375,36.618 16.196,36.770625 16.06975,36.7325 C15.9435,36.6945 13.29325,35.512125 12.536,34.902125 C11.77875,34.29175 10.422,33.147375 10.390375,33.147375 L10.3905,33.1475 Z" fill="#FFFFFF"></path>
                        <g transform="translate(11.500000, 1.000000)" stroke="#6D6666" fill="#FEC500">
                            <path d="M0.27644375,3.90351155 C0.27644375,3.90351155 1.38076112,4.70434857 1.6331535,4.89503731 C1.88554587,5.08572604 2.70588825,5.92473792 2.76897675,5.88660945 C2.83210362,5.84848098 3.27379987,5.42897504 3.27379987,5.42897504 C3.27379987,5.42897504 2.35882475,4.55183469 1.79091312,4.36114596 C1.2230015,4.17045722 0.27644375,3.97976849 0.27644375,3.90351155 L0.27644375,3.90351155 Z" stroke-width="0.3"></path>
                            <path d="M0.1187225,3.0263712 C0.213393625,3.0263712 1.94871112,4.09424667 2.4850785,4.62813802 C3.02144587,5.16202937 3.242294,5.84852737 3.30542087,5.84852737 C3.36850937,5.84852737 4.18885175,5.6959671 4.15726912,5.6959671 C4.12572487,5.6959671 3.77866137,4.32306387 2.98990162,3.90355793 C2.2011035,3.48405199 0.150305125,3.0263712 0.1187225,3.0263712 L0.1187225,3.0263712 Z" stroke-width="0.3"></path>
                            <path d="M8.290295,0.26745115 C8.25875075,0.26745115 7.9432315,1.41158356 7.84856037,1.75478617 C7.75392762,2.09803517 7.596168,2.82261526 7.596168,2.82261526 C7.596168,2.82261526 6.207914,2.97517552 6.2710025,2.78448679 C6.33412937,2.59379805 8.38492775,0.26745115 8.290295,0.26745115 L8.290295,0.26745115 Z" stroke-width="0.3"></path>
                            <path d="M0.434165,1.6533752 C0.434165,1.6533752 2.07484975,2.98814996 2.64276138,3.7509049 C3.210673,4.51361346 3.77858463,5.8484346 3.81012888,5.8484346 C3.8417115,5.8484346 5.3561425,5.46705713 5.3561425,5.5051856 C5.3561425,5.54331407 3.58928075,3.36952743 2.73739413,2.72120429 C1.8855075,2.07288114 0.46570925,1.72963214 0.434165,1.6533752 L0.434165,1.6533752 Z" stroke-width="0.3"></path>
                            <path d="M2.138015,1.29719815 C2.138015,1.29719815 2.95835737,2.82266164 3.11607862,3.35659938 C3.27383825,3.89049073 3.74711712,5.26344034 3.74711712,5.26344034 L5.0407,5.26344034 C5.0407,5.26344034 4.40969987,3.54728811 3.71557287,2.70827623 C3.02144587,1.86926435 2.16955925,1.37350147 2.138015,1.29719815 L2.138015,1.29719815 Z" stroke-width="0.3"></path>
                            <path d="M2.5793275,0.4580935 C2.61091013,0.572525295 3.77827763,1.90730006 4.06225263,2.78444041 C4.34618925,3.66158076 4.56707575,4.7675847 4.56707575,4.7675847 L5.702899,4.4243357 C5.702899,4.4243357 4.69325275,2.17424573 4.06225263,1.56405106 C3.43121413,0.953902765 2.64245438,0.534396825 2.5793275,0.4580935 L2.5793275,0.4580935 Z" stroke-width="0.3"></path>
                            <path d="M12.0134375,4.0561182 C12.0134375,4.0561182 9.64711987,4.36123873 8.79523325,4.62818441 C7.94334663,4.89513008 7.47006775,5.88670223 7.47006775,5.88670223 C7.47006775,5.88670223 8.57438512,6.38246511 8.63747363,6.30620817 C8.70056213,6.22995123 9.36314487,5.42906782 10.0888161,5.12394729 C10.8144874,4.81887314 12.076526,4.09424667 12.0134375,4.0561182 L12.0134375,4.0561182 Z" stroke-width="0.3"></path>
                            <path d="M11.9186512,2.18726655 C11.8555244,2.22544141 9.96248562,4.0941539 9.36299137,4.70430219 C8.7635355,5.31449687 8.1955855,5.96282001 8.132497,6.00094848 C8.0694085,6.03912334 6.90200262,5.81030613 6.96509112,5.73400281 C7.028218,5.65774587 8.70040862,4.01785058 9.804726,3.29327049 C10.909005,2.56864402 11.8239801,2.26356988 11.9186512,2.18726655 L11.9186512,2.18726655 Z" stroke-width="0.3"></path>
                            <path d="M11.4454875,0.85230625 C11.2561836,1.11925192 9.39465075,2.94983595 8.88982762,3.59815909 C8.3850045,4.24648224 7.5647005,5.39061465 7.5647005,5.39061465 C7.5647005,5.39061465 6.5865985,4.85667691 6.64972537,4.62785971 C6.71281387,4.3990425 8.037941,3.06426774 8.98449875,2.3015128 C9.93101812,1.53875786 11.5401202,0.92856319 11.4454875,0.85230625 L11.4454875,0.85230625 Z" stroke-width="0.3"></path>
                            <path d="M9.55244875,0.6996996 C9.5209045,0.737874455 8.4166255,2.14890616 8.195739,2.53028363 C7.97489087,2.9116611 7.31230812,4.58968486 7.31230812,4.58968486 C7.31230812,4.58968486 6.3342445,3.55998424 6.3342445,3.52185577 C6.3342445,3.4837273 7.56473887,1.92008895 8.29041012,1.30989428 C9.01608137,0.6996996 9.583993,0.814131395 9.55244875,0.6996996 L9.55244875,0.6996996 Z" stroke-width="0.3"></path>
                            <path d="M6.81707875,2.78337355 C6.81707875,3.05147885 6.63729187,3.26879258 6.41548437,3.26879258 C6.19367687,3.26879258 6.01389,3.05147885 6.01389,2.78337355 C6.01389,2.51526825 6.19367687,2.29795453 6.41548437,2.29795453 C6.63729187,2.29795453 6.81707875,2.51526825 6.81707875,2.78337355 L6.81707875,2.78337355 Z M7.6202675,3.43090815 C7.6202675,3.6691879 7.44048062,3.86238142 7.21867312,3.86238142 C6.99686562,3.86238142 6.81707875,3.6691879 6.81707875,3.43090815 C6.81707875,3.19262841 6.99686562,2.99943488 7.21867312,2.99943488 C7.44048062,2.99943488 7.6202675,3.19262841 7.6202675,3.43090815 L7.6202675,3.43090815 Z M5.83544625,2.9452572 C5.83544625,3.18353695 5.615711,3.37673047 5.34463,3.37673047 C5.073549,3.37673047 4.85381375,3.18353695 4.85381375,2.9452572 C4.85381375,2.70697746 5.073549,2.51378393 5.34463,2.51378393 C5.615711,2.51378393 5.83544625,2.70697746 5.83544625,2.9452572 L5.83544625,2.9452572 Z" stroke-width="0.3"></path>
                            <path d="M7.12945125,3.83538535 C7.12945125,4.29710164 6.87974512,4.67133582 6.571709,4.67133582 C6.26367287,4.67133582 6.01396675,4.29705525 6.01396675,3.83538535 C6.01396675,3.37366906 6.26367287,2.99943488 6.571709,2.99943488 C6.87974512,2.99943488 7.12945125,3.37371544 7.12945125,3.83538535 L7.12945125,3.83538535 Z M5.6124875,3.86228865 C5.6124875,4.21973146 5.36278137,4.50949855 5.05474525,4.50949855 C4.74670912,4.50949855 4.497003,4.21973146 4.497003,3.86228865 C4.497003,3.50484584 4.74670912,3.21507874 5.05474525,3.21507874 C5.36278137,3.21507874 5.6124875,3.50484584 5.6124875,3.86228865 L5.6124875,3.86228865 Z" stroke-width="0.509804187"></path>
                            <path d="M4.85381375,4.3748429 C4.85381375,4.68761696 4.664011,4.94115737 4.4299235,4.94115737 C4.195836,4.94115737 4.00603325,4.68761696 4.00603325,4.3748429 C4.00603325,4.06206885 4.19579763,3.80852844 4.4299235,3.80852844 C4.664011,3.80852844 4.85381375,4.06206885 4.85381375,4.3748429 L4.85381375,4.3748429 Z M7.977155,4.32057245 C7.977155,4.69290485 7.6875005,4.99473204 7.3301525,4.99473204 C6.97284288,4.99473204 6.68315,4.69290485 6.68315,4.32057245 C6.68315,3.94824006 6.9728045,3.64641286 7.3301525,3.64641286 C7.68746213,3.64641286 7.977155,3.94824006 7.977155,4.32057245 L7.977155,4.32057245 Z M6.41567625,3.3497344 C6.41567625,3.57312456 6.18592513,3.7542116 5.90252575,3.7542116 C5.61912638,3.7542116 5.38937525,3.57312456 5.38937525,3.3497344 C5.38937525,3.12634424 5.61912638,2.9452572 5.90252575,2.9452572 C6.18592513,2.9452572 6.41567625,3.12634424 6.41567625,3.3497344 L6.41567625,3.3497344 Z" stroke-width="0.3"></path>
                            <path d="M6.50470625,4.23986255 C6.50470625,4.56752619 6.1850425,4.8331267 5.79077775,4.8331267 C5.396513,4.8331267 5.07684925,4.56752619 5.07684925,4.23986255 C5.07684925,3.91219891 5.396513,3.6465984 5.79077775,3.6465984 C6.1850425,3.6465984 6.50470625,3.91219891 6.50470625,4.23986255 L6.50470625,4.23986255 Z M8.3340425,5.2914105 C8.3340425,5.69356845 8.03437213,6.01951585 7.66474413,6.01951585 C7.29511613,6.01951585 6.99544575,5.69352207 6.99544575,5.2914105 C6.99544575,4.88929894 7.29511613,4.56330516 7.66474413,4.56330516 C8.0344105,4.56330516 8.3340425,4.88929894 8.3340425,5.2914105 L8.3340425,5.2914105 Z M4.67537,5.10262355 C4.67537,5.37072885 4.50556063,5.58804258 4.29610988,5.58804258 C4.08665913,5.58804258 3.91681138,5.37072885 3.91681138,5.10262355 C3.91681138,4.83451825 4.08662075,4.61720453 4.29610988,4.61720453 C4.505599,4.61720453 4.67537,4.83451825 4.67537,5.10262355 L4.67537,5.10262355 Z" stroke-width="0.3"></path>
                            <path d="M7.35241,5.02191365 C7.35241,5.36446688 7.092688,5.64217387 6.7723335,5.64217387 C6.451979,5.64217387 6.192257,5.36446688 6.192257,5.02191365 C6.192257,4.67936043 6.451979,4.40165343 6.7723335,4.40165343 C7.092688,4.40165343 7.35241,4.67936043 7.35241,5.02191365 L7.35241,5.02191365 Z M5.52307375,4.99501035 C5.52307375,5.29289482 5.29332262,5.53432875 5.00996162,5.53432875 C4.72656225,5.53432875 4.4968495,5.29284844 4.4968495,4.99501035 C4.4968495,4.69712588 4.72660062,4.45569196 5.00996162,4.45569196 C5.293361,4.45569196 5.52307375,4.69717227 5.52307375,4.99501035 L5.52307375,4.99501035 Z" stroke-width="0.509804187"></path>
                            <path d="M6.41567625,5.15643015 C6.41567625,5.48409379 6.17594762,5.7496943 5.88022987,5.7496943 C5.58451212,5.7496943 5.3447835,5.48409379 5.3447835,5.15643015 C5.3447835,4.82876651 5.58451212,4.563166 5.88022987,4.563166 C6.17594762,4.563166 6.41567625,4.82876651 6.41567625,5.15643015 L6.41567625,5.15643015 Z M4.09514,1.59684525 C4.228992,1.59684525 5.16603275,1.97437276 5.16603275,1.97437276 C5.16603275,1.97437276 4.00587975,2.51373754 4.18436187,2.45979179 C4.362844,2.40584603 5.47836687,2.24405515 5.38910662,2.24405515 C5.29988475,2.24405515 4.40747412,3.26879257 4.67517812,3.21484682 C4.9429205,3.16094745 5.47836687,2.51373754 5.52295862,2.51373754 C5.56758875,2.51373754 6.10303512,3.53847496 6.14766525,3.48452921 C6.192257,3.43058345 6.14766525,2.45979179 6.192257,2.45979179 C6.23688712,2.45979179 7.30777987,3.10700169 7.21851962,3.05305594 C7.12929775,2.99911018 6.5046295,2.24405515 6.54922125,2.24405515 C6.59385137,2.24405515 8.02170837,2.40584603 7.93244812,2.35190028 C7.84322625,2.29800091 6.99544575,1.81258188 6.99544575,1.81258188 C6.99544575,1.81258188 7.620114,1.11147261 7.486262,1.11147261 C7.35241,1.11147261 6.32614737,1.81258188 6.41536925,1.75863613 C6.5046295,1.70473676 7.53089212,0.302471825 7.53089212,0.302471825 L6.5046295,0.895735975 C6.5046295,0.895735975 6.68311162,0.032789435 6.59385137,0.086688805 C6.5046295,0.14063456 5.790701,1.21931773 5.74607087,1.21931773 C5.70144075,1.21931773 5.52295862,0.14063456 5.52295862,0.14063456 C5.52295862,0.14063456 5.56758875,1.32716286 5.29988475,1.38110861 C5.03214237,1.43505437 4.09514,1.650791 4.09514,1.59684525 L4.09514,1.59684525 Z" stroke-width="0.3"></path>
                        </g>
                        <g transform="translate(9.250000, 6.375000)">
                            <path d="M3.438625,4.942 C3.460875,5.049875 4.174875,6.9915 5.268125,6.9375 C6.361375,6.8835 6.8075,6.56 6.762875,6.533 C6.71825,6.506 6.24975,6.1825 5.982,5.48125 C5.71425,4.780125 5.669625,4.4835 5.669625,4.4835 L3.438625,4.942 L3.438625,4.942 Z M7.343,4.186875 C7.343,4.186875 8.146125,6.1015 8.503,6.371125 C8.860125,6.640875 9.6855,6.856625 10.0425,6.829625 C10.3995,6.802625 10.823375,6.829625 10.823375,6.829625 C10.823375,6.829625 10.4665,6.640875 10.176375,5.589125 C9.88625,4.537375 9.797125,4.186875 9.797125,4.186875 L7.343,4.186875 L7.343,4.186875 Z M12.25125,4.888 C12.25125,4.888 12.095,6.29025 12.25125,6.640875 C12.4075,6.9915 13.18825,7.638625 13.18825,7.638625 C13.18825,7.638625 14.12525,7.50375 14.147625,6.640875 C14.169875,5.777875 13.83525,4.968875 13.83525,4.968875 L12.25125,4.888 L12.25125,4.888 Z" fill="#00389B"></path>
                            <path d="M2.6796975,2.43415578 C2.6796975,2.43415578 2.72432763,2.64984603 2.6796975,2.81172968 C2.63506738,2.97361333 2.25580725,3.40499383 2.25580725,3.75552527 C2.25580725,4.1061031 2.70199338,5.18473989 4.06292438,5.21173596 C5.423817,5.23868565 7.14171225,4.32183974 7.119378,4.29484367 C7.0971205,4.26794037 3.862108,1.65210468 3.817593,1.67905436 C3.773078,1.70605043 2.67977425,2.48805515 2.67977425,2.43420216 L2.6796975,2.43415578 Z M11.6705763,4.29484367 C11.6705763,4.29484367 11.9605761,5.23868565 12.0721323,5.34657716 C12.1836884,5.45442228 12.2283185,5.67015892 12.2506144,5.67015892 C12.2729103,5.67015892 14.1246575,6.15553156 14.1246575,6.15553156 C14.1246575,6.15553156 14.3031396,5.53536411 14.0354356,5.0498987 C13.7676933,4.56447967 12.7637649,3.29705593 12.7637649,3.29705593 L11.6704611,4.29484367 L11.6705763,4.29484367 Z M12.9423238,3.13526505 C12.9869155,3.13526505 13.43314,3.59368801 13.7901043,3.3509553 C14.1470301,3.10831537 14.7271066,2.46110546 14.7271066,2.46110546 C14.7271066,2.46110546 14.2362904,2.64989241 13.8793261,2.62289634 C13.5223619,2.59594666 12.9646196,3.16221474 12.9423238,3.13526505 L12.9423238,3.13526505 Z" stroke="#000000" stroke-width="0.509804187" fill="#005120"></path>
                            <path d="M2.612925,2.5420009 C2.612925,2.5420009 2.479073,2.08357795 2.12210875,2.05658188 C1.7651445,2.02963219 1.118142,2.11052763 0.895068125,1.894791 C0.671955875,1.67905436 0.605029875,1.16668565 0.49347375,1.19363534 C0.381917625,1.22058502 0.091879375,1.19363534 0.0695835,1.19363534 C0.047287625,1.19363534 -0.0642685,0.762162065 0.248065625,0.54642543 C0.56039975,0.330688795 0.828142125,0.51942936 1.00658587,0.35763848 C1.185068,0.1958476 1.45281037,0.08795609 1.80977462,0.061006405 C2.16673887,0.03405672 2.746777,0.600371185 3.01451937,0.735165995 C3.28222337,0.87000719 3.86229987,1.03179807 4.08537375,0.896956875 C4.308486,0.76211568 5.55786087,0.16885153 6.004047,0.141901845 C6.45023312,0.11495216 7.38727387,0.088002475 7.74423812,0.11495216 C8.10120237,0.141901845 9.50672512,0.35763848 9.93061537,0.600371185 C10.3545056,0.843057505 12.6078089,1.78689949 12.920143,2.00258974 C13.2324771,2.21837276 13.9241097,2.54195452 13.9241097,2.54195452 C13.9241097,2.54195452 12.6970307,3.99816521 12.0946967,4.24085153 C11.4923244,4.48353785 9.57365112,4.86111175 8.43583237,4.78016992 C7.29801362,4.69927448 6.40564137,4.56443329 5.53552662,4.02511489 C4.66518162,3.48584288 3.72806412,2.97347417 3.68354912,2.70379178 C3.63903412,2.43415578 3.66129162,2.08357795 3.66129162,2.08357795 L2.61273312,2.5420009 L2.612925,2.5420009 Z" stroke="#000000" stroke-width="0.509804187" fill="#005120"></path>
                            <path stroke="#000000" stroke-width="0.509804187" fill="#005120"></path>
                            <path stroke="#000000" stroke-width="0.509804187" fill="#000000"></path>
                            <path d="M4.33020625,1.06728259 C4.40910525,0.895658095 4.33020625,0.666887275 4.787713,0.399895215 C5.24518138,0.13294954 6.04184638,0.209252865 6.04184638,0.209252865 C6.04184638,0.209252865 5.81313138,0.41895945 5.80522613,0.63826773 C5.79735925,0.857529625 5.82099825,0.952897185 5.82099825,0.952897185 C5.82099825,0.952897185 5.38716888,0.781272685 5.0558775,0.88614917 C4.72458613,0.991025655 4.3381115,1.09590214 4.33020625,1.06728259 L4.33020625,1.06728259 Z M6.38135,0.13294954 C6.33403363,0.161569085 5.98697013,0.62871242 6.02638125,0.77176376 C6.06583075,0.914768715 6.53120438,1.25801771 6.68109713,1.22939817 C6.8309515,1.20082501 7.51717325,0.80033692 7.55662275,0.60013926 C7.59607225,0.3999416 7.6276165,0.13294954 7.57239488,0.075756835 C7.51717325,0.01856413 6.38921688,0.15206016 6.38135,0.13294954 L6.38135,0.13294954 Z M7.8879525,0.0566926 C7.80118663,0.161569085 7.83273088,0.666887275 7.86427513,0.72407998 C7.89581938,0.781272685 8.440092,1.43915114 8.55840213,1.47727961 C8.67671225,1.51540808 9.55227625,1.41053159 9.62327,1.29614619 C9.69426375,1.18176077 9.90720663,0.695460435 9.84411813,0.581075025 C9.78099125,0.46664323 9.59168738,0.314082965 9.00800363,0.161569085 C8.42431988,0.009055205 8.07725638,0.028073055 7.8879525,0.0566926 L7.8879525,0.0566926 Z M10.1198425,0.695460435 C10.26183,0.781272685 11.0900393,1.26752664 11.5790903,1.65841303 C12.0681029,2.04929943 12.265312,2.49742492 12.4072995,2.53555339 C12.549287,2.57368185 13.1250655,2.15417591 13.1487429,2.0397905 C13.1724203,1.92535871 12.446749,1.31521042 11.957698,1.03870943 C11.468647,0.762254835 10.1198425,0.72407998 10.1198425,0.695460435 L10.1198425,0.695460435 Z M9.9463875,1.10545745 C9.87539375,1.18171439 10.8298184,3.19343184 11.011217,3.26017985 C11.192654,3.32688149 12.2811609,2.86924707 12.2653888,2.71673319 C12.249655,2.56421931 11.96568,2.25909878 11.2952688,1.81101968 C10.6248575,1.3628942 10.0807,1.06732898 9.9463875,1.10545745 L9.9463875,1.10545745 Z M8.76328625,1.83954646 C8.61343188,1.94442295 8.37681163,3.74643381 8.526666,3.83224606 C8.67652038,3.91805831 10.5222811,3.61293778 10.5932749,3.41274012 C10.6642303,3.21249608 9.836021,1.62028456 9.5914955,1.62028456 C9.34700838,1.62028456 8.90527375,1.69658789 8.76328625,1.83959285 L8.76328625,1.83954646 Z M6.85451375,1.45821537 C6.65726625,1.67747727 6.6967925,3.35550103 6.78352,3.46037752 C6.87028588,3.56520762 7.96665963,3.90845662 8.08496975,3.7845159 C8.20331825,3.66057518 8.36107788,1.77279845 8.25063463,1.62979349 C8.14019138,1.48678854 7.83257738,1.14353953 7.59595713,1.11496637 C7.3592985,1.08639321 6.96491863,1.39142097 6.85451375,1.45821537 L6.85451375,1.45821537 Z M4.37779125,1.42959583 C4.19635425,1.60122033 4.18848738,2.04929943 4.38565813,2.12560276 C4.58286725,2.2018597 5.07187988,2.45929645 5.52938663,2.69766896 C5.98689338,2.93604148 6.247191,3.22205139 6.38127325,3.21249608 C6.5153555,3.20294077 6.64157088,1.52496339 6.49958338,1.42959583 C6.35759588,1.33427466 5.93953863,1.25797133 5.54515875,1.27703557 C5.15077888,1.2960998 4.574962,1.34382997 4.37779125,1.42959583 L4.37779125,1.42959583 Z" stroke="#000007" stroke-width="0.509804187" fill="#001707"></path>
                        </g>
                        <path d="M5.497,29.150125 C5.82075,28.835125 6.324,28.064875 7.007125,28.029875 C7.690375,27.994875 8.409625,28.625 8.409625,28.625 C8.409625,28.625 9.128625,31.566 9.09275,31.566 C9.05675,31.566 7.906125,32.40625 7.87025,32.40625 C7.83425,32.40625 7.36675,31.250875 6.93525,31.35575 C6.503875,31.460875 6.53975,33.036375 6.467875,32.931375 C6.396,32.826375 4.56225,30.655625 4.634125,30.585625 C4.706125,30.515625 5.533125,29.255375 5.497125,29.15025 L5.497,29.150125 Z M24.48325,28.765 C24.699,28.73 25.669875,27.994625 26.353,28.02975 C27.03625,28.06475 27.43175,28.37975 27.79125,28.694875 C28.15075,29.01 28.582375,29.815125 28.582375,29.815125 C28.582375,29.815125 27.719375,32.195875 27.6475,32.195875 C27.575625,32.195875 27.216,32.406 27.144,32.230875 C27.072,32.05575 26.8565,31.495625 26.424875,31.425625 C25.9935,31.355625 25.8855,32.19575 25.8855,32.19575 L24.483375,28.764875 L24.48325,28.765 Z" fill-opacity="0.996" fill="#D40F0F"></path>
                        <path d="M24.9505,29.500875 C24.9505,29.711125 26.280875,33.002125 28.438375,33.632125 C30.595625,34.26225 31.278875,33.037 31.5305,32.616875 C31.782125,32.19675 32.681125,32.231875 32.681125,32.231875 C32.681125,32.231875 32.4655,35.31275 32.10575,35.69775 C31.74625,36.082875 31.4585,36.923125 29.445,36.958 C27.431625,36.993125 25.59775,35.067625 24.986625,34.507375 C24.375125,33.947125 23.584125,32.476875 23.260375,31.8115 C22.937,31.1465 24.9865,29.571 24.950375,29.500875 L24.9505,29.500875 Z M1.506,36.04675 C1.542,36.04675 2.476875,37.062125 3.843125,36.957 C5.2095,36.852125 7.54675,36.04675 8.625375,34.646375 C9.704125,33.246125 10.243375,31.7405 10.243375,31.7405 C10.243375,31.7405 8.661375,28.93975 8.625375,28.93975 C8.589375,28.93975 8.445625,29.85 8.157875,30.445125 C7.87025,31.040375 7.079125,32.72075 5.748875,33.246125 C4.418375,33.771125 4.418375,33.981125 3.879125,33.911125 C3.33975,33.841125 1.9375,33.001 1.9375,32.965875 C1.9375,32.930875 1.254375,34.6115 1.254375,34.6115 C1.254375,34.6115 1.1105,35.69675 1.506,36.046875 L1.506,36.04675 Z" fill-opacity="0.996" fill="#FDDC59"></path>
                        <path d="M5.47275,29.052875 C5.371,29.052875 2.8285,30.43925 2.93025,31.033375 C3.031875,31.6275 7.303375,40.0445 16.456,40.143375 C25.608875,40.242625 31.202875,32.518625 30.795875,31.231375 C30.389125,29.944125 27.541625,28.45875 27.541625,28.45875 C27.541625,28.45875 28.253375,29.052875 28.15175,29.845 C28.05,30.63725 24.89725,37.47 16.964625,37.272 C9.032,37.073875 5.269,31.0335 5.269,30.340375 C5.269,29.64725 5.675875,29.251 5.4725,29.053 L5.47275,29.052875 Z" fill-opacity="0.996" fill="#FDDC59"></path>
                        <path d="M30.271375,35.1725 C30.48725,34.9975 31.817625,31.356375 32.572625,31.4615 C33.327875,31.5665 33.07625,32.65175 33.00425,32.931875 C32.932375,33.211875 32.17725,35.73275 32.17725,35.73275 C32.17725,35.73275 32.21325,35.1375 31.70975,34.9975 C31.2065,34.8575 30.379375,35.242625 30.2715,35.172625 L30.271375,35.1725 Z M1.506,36.083875 C1.506,35.886 0.89575,35.19275 1.607625,34.994625 C2.319625,34.79675 3.235,35.19275 3.235,35.19275 C3.235,35.19275 2.726375,33.707375 2.11625,32.519 C1.506,31.330875 1.3025,31.529 0.794125,31.726875 C0.285625,31.925 0.297875,32.449125 0.603125,33.24125 C0.908125,34.0335 1.506,36.282 1.506,36.083875 L1.506,36.083875 Z" fill-opacity="0.996" fill="#D40F0F"></path>
                        <polygon fill="#FDC400" points="9.897 29.293375 10.779875 26.303 8.327875 24.42325 11.398875 24.352375 12.400375 21.401375 13.41575 24.347375 16.486625 24.40425 14.043 26.2955 14.93925 29.281375 12.414125 27.504375"></polygon>
                        <path d="M26.454625,13.729125 L26.454625,25.234125 C26.477125,30.857 20.7435,35.780875 16.93625,36.739125 C13.128625,35.780875 7.39525,30.857 7.417875,25.234625 L7.417875,13.729625 L26.454625,13.729625 L26.454625,13.729125 Z" fill="#FFFFFF"></path>
                        <path d="M7.417515,13.7292968 L7.43367088,20.9277907 C7.43367088,20.9277907 7.52523363,20.7805335 8.77725638,20.8702852 C10.0293175,20.9600368 10.1369978,22.4571964 11.4967775,22.4571964 C12.8565189,22.4571964 12.8565189,20.8702852 14.2162603,20.8702852 C15.5760016,20.8702852 15.5760016,22.4571964 16.935743,22.4571964 C18.2954844,22.4571964 18.2954844,20.8702852 19.6552258,20.8702852 C21.0149671,20.8702852 21.0149671,22.4571964 22.451612,22.5479333 C23.7344499,22.4571964 23.7344499,20.8702852 25.1018663,20.7805335 L26.4539326,20.8702852 L26.4539326,13.7291176 L7.41763013,13.7291176 L7.417515,13.7292968 Z" stroke="#000000" stroke-width="0.1" fill-opacity="0.996" fill="#D40F0F"></path>
                        <path d="M7.4175,23.25075 L7.4175,25.631125 L8.777375,25.631125 C10.029375,25.720875 10.137125,27.218 11.496875,27.218 C12.856625,27.218 12.856625,25.631125 14.216375,25.631125 C15.576125,25.631125 15.576125,27.218 16.936,27.218 C18.295875,27.218 18.29575,25.631125 19.6555,25.631125 C21.01525,25.631125 20.938375,27.12725 22.375,27.218 C23.657875,27.12725 23.727125,25.720875 25.094625,25.631125 L26.454375,25.631125 L26.454375,23.25075 L25.094625,23.25075 C23.73475,23.25075 23.73475,24.837625 22.375,24.837625 C21.01525,24.837625 21.01525,23.25075 19.6555,23.25075 C18.29575,23.25075 18.29575,24.8375 16.936,24.8375 C15.576125,24.8375 15.576125,23.250625 14.216375,23.250625 C12.856625,23.250625 12.856625,24.8375 11.496875,24.8375 C10.137125,24.8375 10.137125,23.250625 8.777375,23.250625 L7.4175,23.250625 L7.4175,23.25075 Z M7.827875,28.011 L8.777375,30.391375 C10.0295,30.481125 10.137125,31.97825 11.497,31.97825 C12.85675,31.97825 12.85675,30.391375 14.2165,30.391375 C15.57625,30.391375 15.57625,31.97825 16.936,31.97825 C18.29575,31.97825 18.295875,30.391375 19.655625,30.391375 C21.015375,30.391375 20.9385,31.887625 22.375125,31.97825 C23.658,31.8875 23.695625,30.481125 25.063125,30.391375 L26.044375,27.97425 L25.094625,28.011 C23.734875,28.011 23.734875,29.597875 22.375125,29.598 C21.015375,29.598 21.015375,28.011 19.655625,28.011 C18.295875,28.011 18.295875,29.597875 16.936,29.597875 C15.57625,29.597875 15.57625,28.011 14.2165,28.011 C12.85675,28.011 12.85675,29.597875 11.497,29.597875 C10.13725,29.597875 10.13725,28.011 8.777375,28.011 L7.827875,28.011 L7.827875,28.011 Z M16.93625,36.738875 C18.296125,36.738875 21.411625,34.3585 21.37975,34.3585 C21.411375,34.3585 21.0155,32.771625 19.65575,32.771625 C18.296,32.771625 18.296,34.3585 16.936125,34.3585 C15.576375,34.3585 15.576375,32.771625 14.216625,32.771625 C12.856875,32.771625 12.50975,34.3585 12.506625,34.3585 C12.443625,34.3585 15.576375,36.738875 16.936,36.738875 L16.93625,36.738875 Z" fill-opacity="0.996" fill="#0062BB"></path>
                        <path d="M9.90661556,19.2222347 C10.0607919,19.2222347 11.4487544,19.4234295 12.4509009,19.3563646 C13.4532349,19.2892997 13.8388634,18.9538119 13.8388634,18.8867469 L13.8388634,18.6855522 L15.1495501,18.6855522 C15.1495501,18.6855522 15.3808147,19.6246243 15.2266383,19.6916892 C15.0724619,19.7587541 14.6868334,20.027177 14.6097453,20.027177 C14.5326571,20.027177 14.6097453,19.5575594 14.4555689,19.6916892 C14.3013925,19.8258191 14.2243043,20.027177 14.2243043,20.027177 C14.2243043,20.027177 14.0701279,19.8258191 13.9930398,19.8258191 C13.9159516,19.8258191 13.7617752,20.027177 13.7617752,20.027177 C13.7617752,20.027177 13.7617752,19.8258191 13.6844994,19.8258191 C13.6074113,19.8258191 13.2219703,20.1613069 13.2219703,20.1613069 L12.8365294,19.892884 C12.8365294,19.892884 12.6050773,20.2283718 12.5279891,20.2283718 C12.4509009,20.2283718 11.9883718,19.9601121 11.9883718,19.9601121 L11.2173023,20.3625016 C11.2173023,20.3625016 11.2173023,19.7587541 11.0631259,19.8258191 C10.9089496,19.892884 10.0607919,19.892884 10.0607919,19.892884 C10.0607919,19.892884 9.82933981,20.2954367 9.75225163,20.2954367 C9.67516344,20.2954367 9.36681069,19.9601121 9.44389888,19.9601121 C9.52098706,19.9601121 9.67516344,19.7587541 9.59807525,19.6916892 C9.52117463,19.6246243 9.13554613,19.6916892 9.13554613,19.6246243 C9.13554613,19.5575594 8.98136975,19.1550066 9.05845794,19.1550066 C9.13554613,19.1550066 9.44389888,19.2222347 9.44389888,19.2222347 L9.44389888,18.819682 L9.82933981,18.819682 L9.90661556,19.2222347 L9.90661556,19.2222347 Z" stroke="#000000" stroke-width="0.1" fill-opacity="0.996" fill="#FDC400"></path>
                        <path d="M11.2943905,15.3983918 C11.2173023,15.3983918 10.6774974,15.9350744 10.7545856,16.5386587 C10.8316738,17.1424062 12.1425481,18.0144134 12.1425481,18.0144134 C12.1425481,18.0144134 12.8365294,17.7461537 13.0677939,18.0144134 C13.2990585,18.2826731 13.2990585,19.0876154 13.2219703,19.0876154 C13.1448821,19.0876154 12.2196363,19.2889733 12.2196363,19.1545171 C12.2196363,19.0205505 12.2196363,18.8864206 12.1425481,18.8864206 C12.0654599,18.8864206 11.2173023,18.9533224 11.2173023,18.9533224 L11.2943905,18.6852258 L10.5235086,18.551096 L10.8318614,18.2826731 C10.8318614,18.2826731 9.59807525,17.8132186 9.67516344,17.8132186 C9.75225162,17.8132186 10.2149683,17.5449589 10.2149683,17.5449589 L9.2897225,17.00795 L9.82952737,17.00795 C9.82952737,17.00795 9.05845794,16.4714306 9.13554612,16.4714306 C9.21244675,16.4714306 9.59807525,16.5383324 9.59807525,16.5383324 L9.36681069,16.0019761 L9.59807525,16.0019761 L9.36681069,15.5994234 L9.75225162,15.4652936 L9.98370375,15.8006182 L9.90661556,14.9956759 L10.4462329,15.062904 L10.4462329,15.7335533 C10.4462329,15.7335533 10.6774974,15.3311637 10.6774974,15.2640988 C10.6774974,15.1970339 11.3714787,15.5323585 11.2943905,15.3982286 L11.2943905,15.3983918 Z" stroke="#000000" stroke-width="0.1" fill-opacity="0.996" fill="#FDC400"></path>
                        <path d="M23.245625,19.556625 C23.14925,19.6405 22.86,19.824875 22.86,19.824875 C22.86,19.824875 23.5155,19.774625 23.49625,19.774625 C23.477,19.774625 23.265,19.606875 23.245625,19.556625 L23.245625,19.556625 Z M23.8045,19.87475 C23.766125,19.925125 23.650375,20.445 23.7275,20.411375 C23.8045,20.377875 24.112875,19.992125 24.112875,19.992125 L23.8045,19.87475 L23.8045,19.87475 Z M24.689875,19.94175 C24.786125,20.0255 25.2295,20.411125 25.171625,20.32725 C25.113875,20.2435 25.056,19.89125 25.0175,19.87475 C24.97875,19.857875 24.72825,19.975125 24.689875,19.94175 L24.689875,19.94175 Z M16.923,19.3885 C16.86525,19.405375 16.383375,19.724 16.383375,19.724 C16.383375,19.724 17.193,19.58975 17.15425,19.58975 C17.115875,19.58975 16.90375,19.439 16.923,19.3885 L16.923,19.3885 Z M17.42375,19.791625 C17.34675,19.858625 17.09625,20.328125 17.1925,20.3115 C17.289,20.294625 17.713,19.99275 17.713,19.99275 L17.423875,19.7915 L17.42375,19.791625 Z M17.114375,19.13725 C17.056625,19.1205 16.651625,18.95275 16.671,18.95275 C16.690375,18.95275 17.21075,18.835375 17.21075,18.835375 L17.114375,19.13725 L17.114375,19.13725 Z M9.48225,18.92025 L8.904,18.51775 L9.6365,18.719 L9.48225,18.92025 L9.48225,18.92025 Z M8.981125,19.187875 C8.904,19.187875 8.1715,19.59025 8.19075,19.59025 C8.21,19.59025 9.212375,19.607 9.193125,19.59025 C9.173875,19.573625 9.019625,19.2215 8.981125,19.18775 L8.981125,19.187875 Z M9.443625,19.77525 C9.3665,19.809 8.78825,20.1945 8.82675,20.1945 C8.865375,20.1945 9.69425,20.21125 9.69425,20.1945 C9.69425,20.17775 9.462875,19.792 9.443625,19.77525 L9.443625,19.77525 Z M9.3665,15.599 C9.3665,15.599 9.1545,15.1295 9.17375,15.1295 C9.193,15.1295 9.7135,15.498375 9.7135,15.498375 L9.3665,15.599 L9.3665,15.599 Z M9.94475,15.012 C9.94475,14.99525 10.002625,14.71025 10.002625,14.71025 C10.002625,14.71025 10.523,15.062375 10.50375,15.062375 C10.4845,15.062375 9.98325,15.062375 9.94475,15.012 L9.94475,15.012 Z M10.754375,15.23 C10.754375,15.21325 10.81225,14.794 10.81225,14.794 C10.81225,14.794 11.294125,15.36425 11.255625,15.381 C11.217,15.39775 10.793,15.29725 10.754375,15.23 L10.754375,15.23 Z" fill-opacity="0.996" fill="#000000"></path>
                        <path d="M18.4835787,18.1642055 C18.4835787,18.1978196 19.2930985,18.767953 19.3124174,18.9020829 C19.3315488,19.0362127 17.8473667,19.0698268 17.8473667,19.0698268 C17.8473667,19.0698268 17.4232879,18.78476 17.2884305,18.8014039 C17.1533855,18.8182109 17.0956162,19.1032776 17.0956162,19.1032776 L17.4426069,19.2710215 L16.7872635,19.3044724 L16.9800777,19.6231532 L17.4812447,19.5895391 L17.3655187,19.8914129 C17.3655187,19.8914129 17.6738714,20.0927708 17.7318282,20.0591568 C17.7895975,20.0257059 17.9824117,19.7238322 18.1365881,19.6734111 C18.2907645,19.6231532 18.6184362,19.6231532 18.6184362,19.6231532 C18.6184362,19.6231532 18.3678527,19.9920919 18.4835787,19.9920919 C18.5991172,19.9920919 19.1196032,19.6063462 19.1196032,19.6063462 C19.1196032,19.6063462 19.2353292,19.9584778 19.2544606,19.9584778 C19.2737796,19.9584778 19.6400891,19.5560883 19.6400891,19.5560883 C19.6400891,19.5560883 19.6400891,19.874769 19.6978584,19.874769 C19.7556276,19.874769 20.2954325,19.4722163 20.2954325,19.4722163 C20.2954325,19.4722163 20.7195113,19.941834 20.7772806,19.9082199 C20.8352374,19.874769 20.8930066,19.4051514 20.9507759,19.4051514 C21.0085451,19.4051514 21.3748547,19.3548935 21.3748547,19.3380865 C21.3748547,19.3212794 21.1435901,19.1535355 21.1049522,18.9188899 C21.0665019,18.6840811 21.1435901,18.1307546 21.1242712,18.1307546 C21.1049522,18.1307546 18.5220291,18.2144634 18.4835787,18.1642055 L18.4835787,18.1642055 Z" stroke="#000000" stroke-width="0.1" fill-opacity="0.996" fill="#FDC400"></path>
                        <path d="M14.3778356,17.14273 L21.9339785,17.14273 C22.7050479,17.14273 23.3988416,16.8744703 23.3988416,16.4719176 C23.3988416,16.069528 22.1652431,16.0024631 21.7027139,16.1365929 C21.2399973,16.2707228 19.2353293,17.0756651 18.3871716,17.0086001 C17.539014,16.9415352 16.7681321,16.4719176 16.6910439,16.0024631 C16.6137682,15.5328454 17.0764849,15.1304559 17.9246425,15.1304559 C18.7728001,15.1304559 19.8522223,15.3987156 20.0834869,15.3316507 C20.3147514,15.2645857 20.8545563,14.7279032 21.0858209,14.6610014 C21.3170854,14.5937733 22.0110667,14.5267084 22.0110667,14.5267084 L21.7027139,14.7279032 L22.7050479,14.5267084 C22.7050479,14.5267084 21.9339785,15.2645857 21.1629091,15.4657805 C20.3918396,15.6671385 18.7728001,15.5999104 18.1559071,15.5999104 C17.539014,15.5999104 17.2306613,15.5330086 17.3077494,15.9353982 C17.3848376,16.3377877 17.8475543,16.6062106 18.2329953,16.5389825 C18.6186238,16.4719176 19.7751341,16.1365929 19.7751341,16.1365929 L19.4665938,15.9353982 L20.8545563,15.8683332 C20.8545563,15.8683332 20.7774681,15.6671385 20.8545563,15.6671385 C20.9316445,15.6671385 21.6256258,15.7340402 21.6256258,15.7340402 C21.6256258,15.7340402 21.1629091,15.5328454 21.2399973,15.5328454 C21.3170854,15.5328454 21.6256258,15.5328454 22.2423313,15.6000735 C22.8592243,15.6669753 24.1699111,15.8683332 24.0928229,16.4048526 C24.0157347,16.9415352 23.5532056,17.4109897 23.0134007,17.4109897 C22.4735958,17.4109897 22.0110667,17.2768598 22.0110667,17.4782178 C22.0110667,17.6794126 22.6279598,17.8135424 23.0134007,17.8135424 C23.3988416,17.8135424 23.8615583,17.5452827 23.9386465,17.5452827 C24.0157347,17.5452827 24.1699111,17.9476723 24.2469993,17.9476723 C24.3240874,17.9476723 24.7868041,17.8135424 24.7868041,17.8135424 L24.4784514,18.5514198 L25.0180687,18.6855496 C25.0180687,18.6855496 24.7097159,18.9538093 24.7868041,18.9538093 C24.8638923,18.9538093 25.3264214,18.9538093 25.3264214,19.0208742 C25.3264214,19.0879392 24.7097159,19.4904919 24.7097159,19.5575568 C24.7097159,19.6246217 25.1722451,19.8258165 25.1722451,19.8258165 C25.1722451,19.8258165 24.8638923,20.2283692 24.7868041,20.1613043 C24.7097159,20.0942394 24.4011756,19.7587516 24.4011756,19.7587516 C24.4011756,19.7587516 24.3240874,20.0271745 24.1699111,20.0271745 C24.0157347,20.0271745 23.7073819,19.9601095 23.7073819,19.9601095 C23.7073819,19.9601095 23.9386465,19.5575568 23.8615583,19.5575568 C23.7844701,19.5575568 23.3988416,19.8258165 23.3988416,19.7587516 L23.1677646,19.5570673 C23.1677646,19.5570673 23.7844701,19.3390655 23.7844701,19.0203847 C23.7844701,18.7018671 23.5338866,18.3831863 22.4160141,18.3329284 C21.2979541,18.2825074 21.2786351,18.5675741 20.4497964,18.5341232 C19.6209578,18.5005092 19.6209578,18.2154424 19.0040647,18.2154424 C18.3873592,18.2154424 16.4789108,18.8862549 15.5923028,18.8694478 C14.7056949,18.852804 13.5876348,18.8023829 13.6260851,18.768932 C13.664723,18.735318 14.3587043,17.1924984 14.3778356,17.14273 L14.3778356,17.14273 Z" stroke="#000000" stroke-width="0.1" fill-opacity="0.996" fill="#FDC400"></path>
                        <path d="M12.91343,16.7566605 C12.8363418,16.7902745 12.1616795,16.8741465 12.1230416,17.4945378 C12.0845913,18.1150924 12.1809984,18.1150924 12.2580866,18.0814783 C12.3351748,18.0480274 12.4893512,17.5113449 12.4893512,17.5113449 C12.4893512,17.5113449 12.2580866,18.2492222 12.5086701,18.4169661 C12.6657039,18.5201709 12.8416849,18.5995067 13.0291561,18.6516118 L13.1253756,18.0646713 C13.1253756,18.0646713 12.9327489,18.6349679 13.3952781,18.8361627 C13.8579948,19.0373575 14.0314901,18.8864206 13.9928522,18.7354837 C13.9544019,18.5845468 13.8193569,18.1989643 13.8193569,18.1989643 C13.8193569,18.1989643 14.1856664,18.551096 14.2049854,18.5845468 C14.2241168,18.6181609 14.3976121,18.8864206 14.8603288,18.7690978 C15.3228579,18.6516118 14.9951862,18.3833521 14.9951862,18.3833521 L14.4362499,17.9819416 C14.4362499,17.9819416 15.0145051,18.5016539 15.2650886,18.3172662 C15.5156721,18.1328784 15.0722744,17.7303257 15.0915933,17.7471327 C15.1109123,17.7639398 15.4579029,18.3172662 15.5927603,17.9651345 C15.7276178,17.6130029 15.3808147,17.5123239 15.2650886,17.1769993 C15.1493626,16.8415115 15.0529554,16.8080606 15.1686815,16.6067027 C15.2844076,16.4055079 15.3037265,16.0199254 15.3037265,16.0199254 C15.3037265,16.0199254 15.7855746,16.1204412 15.7469367,15.7683095 C15.7084864,15.4161779 15.2264508,15.3323059 15.1302312,15.3154989 C15.0338241,15.2986919 15.0529554,14.9467234 15.0145051,14.9633672 C14.9758673,14.9801743 14.6675145,15.181369 14.6675145,15.181369 C14.6675145,15.181369 14.3976121,14.6278794 14.3398428,14.6614935 C14.2820736,14.6951075 13.9735333,14.9801743 13.7422687,14.9968181 C13.5110041,15.0136251 13.3759591,15.2986919 13.3759591,15.2986919 C13.3759591,15.2986919 12.5664394,14.9633672 12.5857583,15.5166937 C12.6050773,16.0701833 13.0676064,15.9360534 13.0676064,15.9526973 C13.0676064,15.9693411 12.9905182,16.7241887 12.91343,16.7576395 L12.91343,16.7566605 Z" stroke="#000000" stroke-width="0.1" fill-opacity="0.996" fill="#FDC400"></path>
                        <path fill-opacity="0.996" fill="#000000"></path>
                        <path stroke="#000000" stroke-width="0.592068019" fill-opacity="0.996" fill="#000039"></path>
                        <path stroke="#000000" stroke-width="1.18413604"></path>
                        <path d="M13.9805269,16.400054 L13.941889,16.7187348 M15.2728325,15.5456697 C15.2728325,15.5456697 15.523416,15.6463487 15.4849657,15.7468645 C15.4463278,15.8475434 15.2728325,15.8978013 15.2728325,15.8978013 M13.1721325,15.4617977 C13.1143632,15.4786048 13.0372751,15.5120556 12.9986372,15.6461855 C12.9601869,15.7804785 13.1721325,15.8643505 13.1721325,15.8643505" stroke="#000000" stroke-width="0.3"></path>
                        <path stroke="#000000" stroke-width="2.10528699"></path>
                        <polygon fill="#FDC400" points="14.7935 34.72 15.59475 32.08725 13.36975 30.43225 16.156375 30.37 17.06525 27.772 17.9865 30.36575 20.77325 30.41575 18.55575 32.08075 19.369 34.7095 17.07775 33.145"></polygon>
                        <polygon fill-opacity="0.996" fill="#003017" points="15.172875 34.014375 15.840375 31.923125 13.986375 30.608375 16.3085 30.558875 17.066 28.495125 17.833625 30.555375 20.155875 30.595125 18.308 31.917875 18.985625 34.006 17.07625 32.76325"></polygon>
                        <polygon fill="#FDC400" points="10.207625 29.388125 11.000125 26.8985 8.79925 25.3335 11.55575 25.2745 12.454875 22.817625 13.36625 25.270375 16.122875 25.317625 13.929375 26.89225 14.73375 29.378125 12.46725 27.898625"></polygon>
                        <polygon fill-opacity="0.996" fill="#003017" points="10.584125 28.7205 11.2445 26.74275 9.410375 25.4995 11.7075 25.45275 12.45675 23.501 13.21625 25.4495 15.513375 25.487 13.6855 26.737875 14.355875 28.712625 12.467125 27.53725"></polygon>
                        <polygon fill="#FDC400" points="19.44625 29.388125 20.249125 26.8985 18.01975 25.3335 20.811875 25.2745 21.7225 22.817625 22.645625 25.270375 25.43775 25.317625 23.216 26.89225 24.03075 29.378125 21.735 27.898625"></polygon>
                        <polygon fill-opacity="0.996" fill="#003017" points="19.82725 28.7205 20.49625 26.74275 18.6385 25.4995 20.96525 25.45275 21.724 23.501 22.49325 25.4495 24.82 25.487 22.968625 26.737875 23.6475 28.712625 21.7345 27.53725"></polygon>
                        <path d="M3.659,30.81925 C4.66225,35.137125 8.89675,38.34175 14.6,39.099625 C21.925625,40.073 28.91425,36.361375 30.199375,30.815"></path>
                        <path d="M3.641,31.487375 L5.01675,30.710125 L5.14625,30.993 L4.606625,31.297875 L4.78525,31.687875 L5.32475,31.383125 L5.45425,31.666 L4.0785,32.44325 L3.949,32.160375 L4.5725,31.808125 L4.394,31.418 L3.7705,31.77025 L3.641,31.487375 M4.216875,32.691125 L5.501375,31.74025 L5.940875,32.473375 L5.727375,32.631375 L5.446125,32.162375 L5.14925,32.38225 L5.411,32.81875 L5.2075,32.969375 L4.94575,32.532875 L4.592125,32.794625 L4.88,33.274625 L4.663125,33.43525 L4.216875,32.691 M5.111875,34.07175 L6.245,32.907375 L6.439,33.14025 L5.994625,33.597 L6.262,33.91825 L6.706375,33.461625 L6.900375,33.694625 L5.76725,34.859 L5.573375,34.626 L6.086875,34.09825 L5.819375,33.777 L5.305875,34.30475 L5.112,34.07175 M6.591625,34.76125 L6.775375,34.9405 L7.109625,34.30925 L6.591625,34.76125 M5.872875,34.97625 L7.151875,33.941625 L7.442,34.22425 L6.688125,35.77075 L6.45525,35.543875 L6.65375,35.164 L6.405,34.92175 L6.093625,35.191375 L5.87275,34.976375 M6.989,36.013125 L7.751125,34.858375 L7.484375,34.641 L7.635,34.412875 L8.40025,35.036625 L8.24975,35.26475 L7.983,35.04725 L7.220875,36.20225 L6.988875,36.013125 M7.614875,36.5135 L8.418875,35.04975 L8.662625,35.215 L8.347375,35.789125 L8.683625,36.017125 L8.998875,35.443 L9.242625,35.608375 L8.438625,37.072125 L8.194875,36.906875 L8.55925,36.243375 L8.223,36.015375 L7.858625,36.678875 L7.614875,36.5135 M9.126125,37.47 L9.774875,35.914 L10.507,36.29075 L10.400875,36.545375 L9.929875,36.302875 L9.7765,36.67075 L10.221125,36.8995 L10.1175,37.14825 L9.672875,36.91925 L9.38725,37.60425 L9.12625,37.47 M10.557875,37.23375 C10.46775,37.4975 10.42475,37.6695 10.42875,37.74975 C10.433625,37.82975 10.4735,37.885375 10.5485,37.917 C10.62225,37.948125 10.683875,37.936 10.7335,37.88075 C10.783875,37.825 10.85475,37.663875 10.94575,37.39725 C11.03675,37.130625 11.080125,36.95775 11.075875,36.878125 C11.071625,36.7985 11.032375,36.743125 10.958,36.711625 C10.88375,36.680375 10.821125,36.692875 10.7705,36.74925 C10.71975,36.80575 10.648875,36.967125 10.557875,37.23375 M10.28325,37.117875 C10.341375,36.947875 10.394875,36.81525 10.443875,36.72 C10.493125,36.624 10.54175,36.55675 10.59,36.518375 C10.656625,36.463125 10.7245,36.432125 10.79325,36.425375 C10.862,36.418625 10.94375,36.435375 11.03875,36.475375 C11.13375,36.515375 11.205,36.56325 11.252375,36.619 C11.299875,36.67475 11.332375,36.748 11.349875,36.83875 C11.362375,36.9045 11.35825,36.990875 11.337375,37.098 C11.317125,37.205375 11.278125,37.34375 11.22025,37.513 C11.16275,37.68175 11.10925,37.814 11.06,37.91 C11.011,38.00525 10.9625,38.073 10.9145,38.113125 C10.847125,38.168125 10.779125,38.198875 10.710375,38.205625 C10.641625,38.212375 10.55975,38.195625 10.46475,38.155625 C10.36975,38.115625 10.298625,38.06775 10.25125,38.012 C10.20375,37.95625 10.171625,37.88325 10.154625,37.792625 C10.1415,37.728375 10.145125,37.642625 10.165375,37.535125 C10.185875,37.427 10.225125,37.288 10.28325,37.117875 M11.61075,36.753625 L11.886375,36.844875 L11.5895,37.952625 C11.555625,38.079375 11.546375,38.17 11.561625,38.224625 C11.577875,38.27875 11.621375,38.317625 11.6925,38.341125 C11.763,38.364375 11.81775,38.35775 11.856875,38.321125 C11.8965,38.28475 11.933625,38.202125 11.968125,38.07325 L12.263875,36.96975 L12.53575,37.05975 L12.23175,38.19425 C12.202125,38.3045 12.17475,38.383375 12.1495,38.43075 C12.127232,38.4749672 12.096083,38.5141161 12.058,38.54575 C12.0029891,38.5902043 11.9360543,38.6173871 11.865625,38.623875 C11.792625,38.630625 11.711375,38.61925 11.62175,38.589625 C11.452625,38.533625 11.344125,38.453625 11.296125,38.349375 C11.248875,38.24475 11.252375,38.091 11.30675,37.888125 L11.61075,36.753625 M12.349,38.775875 L12.686,37.102375 L12.9745,37.174125 L13.131,38.442 L13.358875,37.269625 L13.623875,37.335625 L13.286875,39.009 L13.000375,38.93775 L12.841375,37.667 L12.613,38.8415 L12.349,38.775875 M13.85775,38.861125 L13.9835,38.883 C14.0475,38.89425 14.093125,38.89675 14.12025,38.891 C14.1473616,38.8852768 14.17168,38.8704033 14.189125,38.848875 C14.221625,38.8095 14.249125,38.752625 14.271,38.67825 C14.293125,38.60325 14.316,38.481375 14.33975,38.312625 C14.362875,38.148375 14.373125,38.027625 14.3705,37.950625 C14.367875,37.8735 14.353375,37.813125 14.327125,37.769375 C14.3128996,37.7470998 14.2924812,37.7294618 14.268375,37.718625 C14.243625,37.706125 14.203625,37.694875 14.14825,37.685375 L14.026375,37.664125 L13.857625,38.861125 M13.54425,39.062375 L13.783,37.368125 L14.2395,37.447625 C14.332625,37.463875 14.40525,37.4855 14.457625,37.512625 C14.510625,37.539875 14.552125,37.576375 14.582125,37.62225 C14.6275,37.6895 14.654625,37.769375 14.664,37.861875 C14.674,37.95375 14.665875,38.092875 14.639625,38.279125 C14.605875,38.51975 14.57425,38.688625 14.545,38.78575 C14.515875,38.882 14.478125,38.962 14.432,39.02525 C14.38725,39.088875 14.3315,39.129125 14.264875,39.146125 C14.199,39.162375 14.08925,39.15725 13.935375,39.1305 L13.54425,39.062375 M14.738,39.258625 L14.8865,37.55175 L15.6755,37.636375 L15.650875,37.920125 L15.146125,37.866 L15.11175,38.260625 L15.58175,38.311 L15.558125,38.5815 L15.08825,38.531 L15.0475,39.001 L15.564125,39.0565 L15.539125,39.344625 L14.738125,39.25875 M16.041875,39.1205 L16.169125,39.1255 C16.233875,39.12825 16.279375,39.124875 16.30575,39.1155 C16.3321553,39.1061384 16.3546501,39.0881777 16.369625,39.0645 C16.39775,39.021125 16.41875,38.961 16.432625,38.884375 C16.4465,38.806875 16.45625,38.682875 16.46175,38.512125 C16.467125,38.346 16.464375,38.22475 16.4535,38.148625 C16.442625,38.072375 16.42175,38.014375 16.391,37.9745 C16.3744443,37.95423 16.3521965,37.9393837 16.327125,37.931875 C16.301375,37.922625 16.260375,37.916875 16.204375,37.914625 L16.081125,37.909625 L16.041875,39.1205 M15.75225,39.361875 L15.80775,37.648125 L16.2695,37.666625 C16.363625,37.670375 16.43825,37.68225 16.493,37.70225 C16.5485,37.72225 16.593625,37.753125 16.628375,37.794625 C16.680625,37.855375 16.71625,37.931125 16.735375,38.02175 C16.75525,38.11175 16.762,38.250875 16.756,38.43925 C16.748,38.682625 16.73475,38.8545 16.716125,38.95475 C16.697625,39.05425 16.66875,39.1385 16.62975,39.207625 C16.592125,39.276625 16.541,39.324 16.47675,39.349625 C16.413,39.374625 16.3035,39.384 16.148,39.37775 L15.75225,39.361875 M17.4715,39.384375 L17.41025,37.670625 L17.69775,37.658125 L17.759,39.371625 L17.4715,39.384375 M18.239125,39.33925 L18.133625,37.911875 L17.804,37.942 L17.78325,37.660125 L18.729125,37.573875 L18.75,37.85575 L18.420375,37.88575 L18.525875,39.313 L18.239125,39.33925 M19.251625,37.5005 L19.535125,37.44575 L19.71325,38.5845 C19.733625,38.71475 19.761625,38.8005 19.79725,38.841875 C19.8335,38.882375 19.888,38.895625 19.961,38.881375 C20.0335,38.867375 20.079875,38.834375 20.10025,38.78225 C20.12125,38.729875 20.121375,38.637625 20.100625,38.50525 L19.923125,37.37075 L20.202625,37.316875 L20.385125,38.483125 C20.40275,38.596375 20.409875,38.680625 20.40625,38.735625 C20.403125,38.789625 20.39125,38.839 20.370375,38.88375 C20.3391372,38.9505071 20.2904149,39.0075658 20.229375,39.048875 C20.166875,39.091125 20.089375,39.121125 19.997375,39.138875 C19.823625,39.1725 19.69425,39.1545 19.6095,39.085 C19.52525,39.014625 19.46675,38.875125 19.434125,38.66675 L19.251625,37.5005 M20.78725,37.935375 L20.904125,37.90375 C20.991125,37.880125 21.048,37.845 21.074875,37.797875 C21.1015,37.75025 21.104875,37.6805 21.084875,37.588875 C21.0645,37.496625 21.03425,37.437125 20.994125,37.410625 C20.954375,37.383125 20.889375,37.381625 20.799125,37.406 L20.6785,37.43875 L20.78725,37.935375 M20.723,38.945375 L20.35775,37.279125 L20.84275,37.147875 C20.990625,37.107875 21.10525,37.11575 21.18625,37.17175 C21.26725,37.22775 21.326125,37.3395 21.36275,37.50675 C21.398875,37.67125 21.391,37.80325 21.33925,37.902875 C21.288,38.001625 21.19125,38.070125 21.049125,38.108625 L20.845625,38.163625 L21.0005,38.870125 L20.723,38.94525 M21.825125,37.737875 C21.901875,38.00675 21.96425,38.171375 22.012375,38.231625 C22.06075,38.29075 22.12325,38.306875 22.199625,38.28 C22.27475,38.2535 22.316375,38.2015 22.324375,38.123875 C22.33275,38.045375 22.298125,37.87025 22.220625,37.5985 C22.143125,37.32675 22.080375,37.161125 22.032625,37.10175 C21.98475,37.04225 21.923,37.025875 21.847125,37.0525 C21.771375,37.07925 21.729375,37.13225 21.721125,37.2115 C21.712875,37.29075 21.747625,37.466125 21.825125,37.737875 M21.54525,37.836625 C21.49575,37.663125 21.463625,37.52225 21.44875,37.41375 C21.43375,37.304625 21.434375,37.218375 21.450625,37.155 C21.472,37.065625 21.507875,36.994625 21.558,36.941875 C21.608125,36.889125 21.681625,36.845625 21.778375,36.811625 C21.87525,36.7775 21.95775,36.765875 22.026125,36.776875 C22.094375,36.787875 22.160875,36.822875 22.225375,36.881875 C22.271875,36.92475 22.317,36.99525 22.360375,37.093625 C22.404625,37.19175 22.45125,37.32725 22.500625,37.499875 C22.549625,37.671875 22.58175,37.812375 22.596875,37.921625 C22.611625,38.030125 22.6115,38.116625 22.59625,38.181125 C22.574125,38.27075 22.538,38.341875 22.487875,38.3945 C22.437875,38.44725 22.36425,38.49075 22.2675,38.52475 C22.170625,38.558875 22.088125,38.5705 22.01975,38.5595 C21.9515,38.5485 21.885375,38.513375 21.8215,38.454125 C21.77525,38.412875 21.73025,38.343 21.686,38.244875 C21.64175,38.146125 21.59475,38.009875 21.54525,37.8365 M22.956,38.2285 L22.38175,36.636625 L22.65625,36.5145 L23.430875,37.4615 L23.02175,36.3515 L23.273875,36.239375 L23.848125,37.831125 L23.575625,37.952625 L22.797375,37.004625 L23.20725,38.116625 L22.956,38.2285 M24.7435,37.3505 L24.1415,36.08425 L23.849,36.256 L23.730125,36.006 L24.56925,35.51325 L24.688125,35.76325 L24.39575,35.935 L24.997875,37.20125 L24.743625,37.3505 M25.423,36.9455 L24.598875,35.4955 L24.840375,35.326 L25.163625,35.89475 L25.496625,35.661 L25.173375,35.09225 L25.414875,34.922875 L26.239,36.372875 L25.9975,36.54225 L25.624,35.885125 L25.291,36.118875 L25.6645,36.776 L25.423,36.945375 M26.4525,36.203875 L25.522375,34.8355 L26.154875,34.304625 L26.309625,34.532125 L25.904875,34.871625 L26.119875,35.188 L26.496625,34.871875 L26.644125,35.08875 L26.267375,35.404875 L26.523375,35.781625 L26.93775,35.434 L27.09475,35.665 L26.4525,36.203875 M27.2465,34.732375 L27.451625,34.508375 L27.52125,34.587125 C27.58775,34.662125 27.6415,34.7045 27.6825,34.713875 C27.7235,34.722125 27.76475,34.703625 27.80625,34.658375 C27.849625,34.610875 27.87175,34.562875 27.8725,34.514125 C27.873875,34.46475 27.8535,34.41625 27.81125,34.368625 C27.779,34.332 27.7435,34.309375 27.704875,34.300625 C27.66575,34.291375 27.60175,34.294625 27.51275,34.310625 L27.334625,34.34275 C27.182125,34.371625 27.0735,34.376875 27.008375,34.358375 C26.943875,34.339375 26.881125,34.2955 26.82025,34.226625 C26.7295,34.123875 26.685625,34.0135 26.689,33.895375 C26.69225,33.777375 26.742,33.66575 26.83825,33.560625 C26.94025,33.449375 27.04575,33.395 27.155,33.397625 C27.26425,33.40025 27.37,33.4595 27.4725,33.5755 C27.48275,33.587125 27.4905,33.596375 27.495625,33.60325 C27.50125,33.609625 27.505875,33.6155 27.509625,33.62075 L27.31525,33.833 L27.2865,33.8005 C27.227875,33.73425 27.17625,33.697625 27.1315,33.69025 C27.0865,33.683 27.04175,33.703875 26.997,33.75275 C26.964125,33.788625 26.94775,33.827875 26.947875,33.870375 C26.947875,33.911875 26.964875,33.951625 26.998625,33.989875 C27.044,34.041125 27.1365,34.052 27.276125,34.022375 C27.2772972,34.0219942 27.278518,34.0217838 27.27975,34.02175 L27.467875,33.983375 C27.60075,33.95475 27.705,33.95125 27.780375,33.973 C27.855375,33.99425 27.928875,34.0455 28.001,34.127125 C28.099375,34.238375 28.146625,34.355375 28.142875,34.478125 C28.139125,34.601 28.084,34.720375 27.97775,34.836375 C27.867125,34.957125 27.756625,35.015375 27.646125,35.011125 C27.536125,35.006375 27.423375,34.938875 27.30825,34.808625 C27.296,34.794875 27.276875,34.771125 27.25075,34.73725 L27.2465,34.7325 M28.44075,34.25075 L27.257875,33.149375 L27.767,32.47425 L27.963625,32.657375 L27.637875,33.08925 L27.911375,33.343875 L28.214625,32.94175 L28.402125,33.116375 L28.098875,33.518375 L28.4245,33.821625 L28.758,33.3795 L28.95775,33.565375 L28.44075,34.25075 M28.74125,32.7155 L28.877875,32.490125 L28.272,32.20175 L28.74125,32.7155 M29.02425,33.4805 L27.938375,32.201875 L28.154,31.846375 L29.630125,32.481125 L29.457125,32.766625 L29.092875,32.596 L28.908,32.90075 L29.18825,33.209875 L29.02425,33.4805 M29.207375,32.086 L29.33875,31.801625 L29.427125,31.852 C29.5115,31.900125 29.5745,31.9215 29.616,31.916 C29.65725,31.9095 29.69125,31.877625 29.717875,31.820125 C29.745625,31.760125 29.752875,31.706625 29.74,31.660125 C29.72725,31.612625 29.69425,31.573875 29.64075,31.54325 C29.59975,31.519875 29.5595,31.51075 29.520375,31.516 C29.480625,31.520875 29.42075,31.546375 29.340875,31.5925 L29.180875,31.68525 C29.044375,31.766 28.942625,31.809 28.875625,31.814 C28.809,31.818625 28.737,31.798875 28.65975,31.75475 C28.5445,31.689 28.471625,31.5995 28.441375,31.48625 C28.411125,31.373 28.42675,31.249625 28.488375,31.11625 C28.55375,30.975 28.6385,30.886375 28.742875,30.85075 C28.84725,30.81525 28.9645,30.8345 29.094625,30.90875 C29.10775,30.91625 29.117625,30.922375 29.1245,30.927125 C29.131625,30.931125 29.137625,30.935 29.14275,30.93875 L29.01825,31.208125 L28.981625,31.187375 C28.907375,31.144875 28.847875,31.128125 28.80325,31.136875 C28.75875,31.145625 28.722,31.181125 28.69325,31.243125 C28.67225,31.28875 28.667875,31.331625 28.68,31.372 C28.691875,31.411375 28.71925,31.44325 28.762,31.467625 C28.819625,31.5005 28.910625,31.4785 29.03475,31.401625 C29.0356559,31.4007669 29.0367163,31.4000882 29.037875,31.399625 L29.205625,31.297625 C29.32375,31.223875 29.42175,31.18425 29.499375,31.1785 C29.576625,31.1725 29.661,31.195625 29.7525,31.24775 C29.877375,31.319 29.95525,31.413625 29.986375,31.5315 C30.017625,31.649375 29.999125,31.782 29.931,31.92925 C29.86025,32.0825 29.77175,32.176375 29.665625,32.211 C29.559875,32.244875 29.433875,32.220125 29.287625,32.13675 C29.2621825,32.1216055 29.2372124,32.1056813 29.21275,32.089 L29.2075,32.086" fill="#000000"></path>
                    </g>
                </g>
            </g>
        </g>
    </g>
</svg>