<?xml version="1.0" encoding="UTF-8" standalone="no"?>
<svg width="122px" height="60px" viewBox="0 0 122 60" version="1.1" xmlns="http://www.w3.org/2000/svg" xmlns:xlink="http://www.w3.org/1999/xlink">
    <!-- Generator: Sketch 3.8.2 (29753) - http://www.bohemiancoding.com/sketch -->
    <title>np</title>
    <desc>Created with Sketch.</desc>
    <defs></defs>
    <g id="Page-1" stroke="none" stroke-width="1" fill="none" fill-rule="evenodd">
        <g id="np">
            <g id="Group">
                <g>
                    <polygon id="Shape" fill="#FFFFFF" points="0 0 122 0 122 60 0 60"></polygon>
                    <g id="Clipped" transform="translate(0.000000, 1.034483)">
                        <g id="Group" transform="translate(0.680581, 0.542650)">
                            <g transform="translate(0.000000, 0.000000)" id="Shape">
                                <polygon stroke="#000063" stroke-width="1.96799994" fill="#CE0000" points="0.0612522686 56.6628857 43.0269964 56.6617514 14.9046053 28.1431488 44.08598 28.1774047 0.0636343013 0.0596642468"></polygon>
                                <path d="M19.8204401,41.4930808 L16.7594147,42.5066924 L19.1539247,44.7596416 L15.9281987,44.5524047 L17.2571461,47.5279038 L14.3591198,46.1338475 L14.418784,49.3776089 L12.2878857,47.0069192 L11.0695327,50.0277904 L10.031647,47.0423094 L7.72164247,49.3776089 L7.93273593,46.2317377 L4.8832804,47.5279038 L6.31272686,44.7014519 L2.98525408,44.7596416 L5.41606171,42.6813748 L2.31998639,41.4930808 L5.38112523,40.4809437 L2.98525408,38.2279946 L6.21075318,38.4338702 L4.8832804,35.4597323 L7.78142015,36.8537886 L7.72164247,33.6085526 L9.85265426,35.9793557 L11.0695327,32.9598457 L12.1087795,35.9453267 L14.418784,33.6086661 L14.2063294,36.7545372 L17.2571461,35.4598457 L15.8278131,38.2861842 L19.1538113,38.2279946 L16.7230036,40.3063748 L19.8204401,41.4930808 Z M16.1433757,20.5450318 L14.8582123,21.4963702 L15.4916062,22.0197368 C17.0298321,20.8307623 18.1244328,19.7441016 18.9799229,17.9407895 C19.1805808,20.3477768 16.9741379,25.7510209 11.1838702,25.8106851 C4.98684211,25.8054673 2.83654719,20.0725953 3.07565789,17.8392695 C4.21415608,19.9047187 4.90880218,20.9118648 6.69589383,21.9871824 L7.24262704,21.4853675 L6.03221416,20.4768603 L7.59040381,20.0716878 L6.75215517,18.6606171 L8.38452813,18.7797187 L8.17944646,17.1365699 L9.61048094,17.9740245 L10.0583031,16.4445327 L11.0865472,17.6763838 L12.0496824,16.5085073 L12.5741833,18.0953947 L13.9115245,17.1649274 L13.7400181,18.7788113 L15.3431261,18.5906307 L14.5915381,20.0825771 L16.1434891,20.5450318 L16.1433757,20.5450318 Z" fill="#FFFFFF"></path>
                            </g>
                        </g>
                    </g>
                </g>
            </g>
        </g>
    </g>
</svg>