<?xml version="1.0" encoding="UTF-8" standalone="no"?>
<svg width="122px" height="60px" viewBox="0 0 122 60" version="1.1" xmlns="http://www.w3.org/2000/svg" xmlns:xlink="http://www.w3.org/1999/xlink">
    <!-- Generator: Sketch 3.8.2 (29753) - http://www.bohemiancoding.com/sketch -->
    <title>rw</title>
    <desc>Created with Sketch.</desc>
    <defs></defs>
    <g id="Page-1" stroke="none" stroke-width="1" fill="none" fill-rule="evenodd">
        <g id="rw">
            <g id="Group">
                <g>
                    <polygon id="Shape" fill="#20603D" points="0 0 122 0 122 60 0 60"></polygon>
                    <polygon id="Shape" fill="#FAD201" points="0 0 122 0 122 45 0 45"></polygon>
                    <polygon id="Shape" fill="#00A1DE" points="0 0 122 0 122 30 0 30"></polygon>
                    <g transform="translate(75.124951, 5.924951)" fill="#E5BE01">
                        <g id="b" transform="translate(9.666715, 0.000000)">
                            <polygon id="a" points="9.75838213 9.75004875 3.05768196 10.1417174 9.42871381 12.2542279 2.85501428 10.8980545 8.46220898 14.5874896 2.46334565 11.5763079 6.92461796 16.591333 1.90959288 12.130144 4.92085794 18.1290073 1.23142282 12.5217293 2.5874296 19.0954288 0.475002375 12.724397 0.08333375 19.4250971 0 9.666715"></polygon>
                            <g id="a-link" transform="translate(4.916691, 4.916691) scale(1, -1) translate(-4.916691, -4.916691) ">
                                <polygon id="a" points="9.75838213 0.08333375 3.05768196 0.475002375 9.42871381 2.58751294 2.85501428 1.23133949 8.46220898 4.9207746 2.46334565 1.90959288 6.92461796 6.92461796 1.90959288 2.46342898 4.92085794 8.46229231 1.23142282 2.85501428 2.5874296 9.42871381 0.475002375 3.05768196 0.08333375 9.75838213 0 0"></polygon>
                            </g>
                        </g>
                        <g id="b-link" transform="translate(4.916691, 9.750049) scale(-1, 1) translate(-4.916691, -9.750049) ">
                            <g id="b">
                                <polygon id="a" points="9.75838213 9.75004875 3.05768196 10.1417174 9.42871381 12.2542279 2.85501428 10.8980545 8.46220898 14.5874896 2.46334565 11.5763079 6.92461796 16.591333 1.90959288 12.130144 4.92085794 18.1290073 1.23142282 12.5217293 2.5874296 19.0954288 0.475002375 12.724397 0.08333375 19.4250971 0 9.666715"></polygon>
                                <g id="a-link" transform="translate(4.916691, 4.916691) scale(1, -1) translate(-4.916691, -4.916691) ">
                                    <polygon id="a" points="9.75838213 0.08333375 3.05768196 0.475002375 9.42871381 2.58751294 2.85501428 1.23133949 8.46220898 4.9207746 2.46334565 1.90959288 6.92461796 6.92461796 1.90959288 2.46342898 4.92085794 8.46229231 1.23142282 2.85501428 2.5874296 9.42871381 0.475002375 3.05768196 0.08333375 9.75838213 0 0"></polygon>
                                </g>
                            </g>
                        </g>
                        <circle id="Oval" stroke="#00A1DE" stroke-width="2.266678" cx="9.75004875" cy="9.75004875" r="2.85834763"></circle>
                    </g>
                </g>
            </g>
        </g>
    </g>
</svg>