<?xml version="1.0" encoding="UTF-8" standalone="no"?>
<svg width="122px" height="60px" viewBox="0 0 122 60" version="1.1" xmlns="http://www.w3.org/2000/svg" xmlns:xlink="http://www.w3.org/1999/xlink">
    <!-- Generator: Sketch 3.8.2 (29753) - http://www.bohemiancoding.com/sketch -->
    <title>gd</title>
    <desc>Created with Sketch.</desc>
    <defs></defs>
    <g id="Page-1" stroke="none" stroke-width="1" fill="none" fill-rule="evenodd">
        <g id="gd">
            <g id="Group">
                <g>
                    <polygon id="Shape" fill="#FF0000" points="0 0 122 0 122 60 0 60"></polygon>
                    <polygon id="Shape" fill="#009A00" points="39.2495 10.43175 84.36325 10.43175 84.36325 49.733 39.2495 49.733"></polygon>
                    <polygon id="Shape" fill="#FFCA00" points="39.2495 49.733125 84.36325 49.733125 61.80575 30.084375 39.24825 49.733125"></polygon>
                    <polygon id="Shape" fill="#FFCA00" points="39.2495 10.441 61.807 30.08975 84.36325 10.441 39.2495 10.441"></polygon>
                    <path d="M43.21375,7.67075 L41.157875,6.205 L39.099625,7.66725 L39.85875,5.2595 L37.832875,3.754 L40.356875,3.731875 L41.162625,1.339375 L41.963875,3.733375 L44.487875,3.759875 L42.458375,5.261625 M63.824625,7.732 L61.76875,6.266 L59.7105,7.7285 L60.469625,5.320625 L58.44375,3.81525 L60.96775,3.793 L61.7735,1.4005 L62.5745,3.7945 L65.098625,3.821125 L63.069,5.32275 M84.44875,7.69875 L82.392875,6.232875 L80.334625,7.695375 L81.09375,5.2875 L79.067875,3.782 L81.591875,3.759875 L82.397625,1.367125 L83.198875,3.76125 L85.722875,3.787875 L83.693375,5.28975 M43.21375,58.599125 L41.157875,57.133125 L39.099625,58.595625 L39.85875,56.18775 L37.832875,54.682375 L40.356875,54.659875 L41.162625,52.267375 L41.963875,54.6615 L44.487875,54.688125 L42.458375,56.189875 M63.824625,58.660375 L61.76875,57.194375 L59.7105,58.656875 L60.469625,56.249 L58.44375,54.743625 L60.96775,54.721125 L61.7735,52.328625 L62.5745,54.72275 L65.098625,54.749375 L63.069,56.251125 M84.44875,58.627875 L82.392875,57.161875 L80.334625,58.624375 L81.09375,56.2165 L79.067875,54.711125 L81.591875,54.688625 L82.397625,52.296125 L83.198875,54.69025 L85.722875,54.716875 L83.693375,56.218625" id="Shape" fill="#FFCE00"></path>
                    <path d="M67.21525,30.387125 C67.21525,33.408625 64.766,35.85775 61.74475,35.85775 C58.7235,35.85775 56.274125,33.4085 56.274125,30.387125 C56.274125,27.365875 58.7235,24.916625 61.74475,24.916625 C64.766,24.916625 67.21525,27.365875 67.21525,30.387125 L67.21525,30.387125 Z" id="Shape" fill="#FF0000"></path>
                    <polyline id="Shape" fill="#FFCE00" points="64.219375 33.755 61.777375 32.01375 59.332375 33.750625 60.234125 30.890625 57.827875 29.1025 60.825875 29.07625 61.783 26.234 62.7345 29.07775 65.732625 29.109375 63.321875 30.893375"></polyline>
                    <path d="M42.2465,34.183 C42.2465,34.183 42.524,31.88375 42.3655,30.33775 C42.20675,28.79175 38.242625,28.355625 38.242625,28.355625 L38.203125,31.963125 C38.203125,31.963125 41.374625,34.53975 42.246625,34.183125 L42.2465,34.183 Z" id="Shape" fill="#FF0000"></path>
                    <path d="M36.45875,25.065625 C36.45875,25.065625 36.84075,27.0915 36.3,31.130875 C36.01125,33.324125 38.40125,34.817625 41.33475,35.4915 C40.740125,34.460875 39.1545,32.795875 39.551,29.743375 C41.6915,30.020875 43.71325,34.183375 43.71325,34.183375 C43.71325,34.183375 45.314875,28.28125 42.087875,27.365 C38.951625,26.48375 36.45875,25.105375 36.45875,25.06575 L36.45875,25.065625 Z" id="Shape" fill="#FFCE00"></path>
                </g>
            </g>
        </g>
    </g>
</svg>