<?xml version="1.0" encoding="UTF-8" standalone="no"?>
<svg width="122px" height="60px" viewBox="0 0 122 60" version="1.1" xmlns="http://www.w3.org/2000/svg" xmlns:xlink="http://www.w3.org/1999/xlink">
    <!-- Generator: Sketch 3.8.2 (29753) - http://www.bohemiancoding.com/sketch -->
    <title>gu</title>
    <desc>Created with Sketch.</desc>
    <defs></defs>
    <g id="Page-1" stroke="none" stroke-width="1" fill="none" fill-rule="evenodd">
        <g id="gu">
            <g id="Group">
                <g>
                    <polygon id="Shape" fill="#BE0027" points="0 0 122 0 122 60.3533344 0 60.3533344"></polygon>
                    <polygon id="Shape" fill="#3B5AA3" points="3 3.43800255 118 3.43800255 118 57.2995814 3 57.2995814"></polygon>
                    <path d="M59.2386269,51.9585628 C59.5410818,52.1257918 60.0196671,52.1169903 60.2889182,51.9717651 C77.4885298,42.755308 77.498516,17.4792058 60.3138835,8.39263409 C59.9947018,8.22314181 59.5305964,8.23232055 59.2134119,8.40571065 C42.4529404,17.6422855 42.4080028,42.6318351 59.2383773,51.9598201 L59.2386269,51.9585628 Z" id="Shape" fill="#CBE0E5"></path>
                    <path d="M59.2386269,52.4143562 C59.5060055,52.6341429 60.0452566,52.6130193 60.2889182,52.4276842 C72.9638141,42.8692249 73.0379612,36.9105905 72.4762413,36.9109677 L47.3904577,36.9239185 C47.0068655,36.9242957 47.6114008,42.9727057 59.2382524,52.4143562 L59.2386269,52.4143562 Z" id="Shape" fill="#ADD2D9"></path>
                    <path d="M49.3773232,41.6466927 C50.4649376,41.3616489 51.7787379,41.286333 52.8491262,41.8623301 C53.8000555,42.3627598 54.3510402,42.3579819 55.3756172,42.3715614 C56.4478779,42.3862725 57.290957,43.1800446 58.4504716,43.2109756 C60.5855062,43.2673054 61.4850069,44.3337991 59.8253121,44.3358109 C59.0406519,44.3370683 57.3587379,43.8089766 56.5471151,43.9225163 C54.8510957,44.0987983 53.7747157,44.4770126 52.178932,46.2652316 L54.0234951,47.5383097 C55.6190291,46.8832246 55.8864078,46.146411 56.7699307,46.1171144 C57.7680444,46.0848003 58.1071983,45.4620293 59.2614702,45.4605205 C60.5727739,45.7006764 62.348932,45.2965606 63.3894868,45.061937 C65.2347989,44.6294047 64.3568932,43.3305507 63.2384466,42.8595432 C62.3339528,42.4716473 60.6408044,42.8452093 59.5895146,42.4604568 C58.7937448,42.1492599 59.4484605,41.6489559 59.875742,41.5420802 C60.3076422,41.4618606 60.770749,41.6041939 61.3080028,41.6912032 C62.2666713,41.774692 63.4712483,41.6818988 64.3129542,41.5491214 C66.0535368,41.2775314 65.9801387,40.7632707 66.8207212,40.7494398 C67.43362,40.7198918 67.9000971,40.5353112 68.3173925,40.2331673 C68.8082108,39.9022298 69.3185021,39.2240092 69.913301,39.2495337 L71.5054646,39.3174312 L69.2628294,44.3977988 L62.927129,50.8935779 L59.6459362,52.147167 L52.4334535,47.4178545 L48.7965049,41.7987076 L49.377448,41.6465669 L49.3773232,41.6466927 Z" id="Shape" fill="#FDF9A1"></path>
                    <path d="M57.666061,36.7070237 L72.1479473,36.6391262 L72.4025936,35.346559 C72.4025936,35.346559 71.8858114,35.2689798 71.4688904,35.2443355 C70.9491123,35.2122728 70.0578502,35.7921678 69.4608044,35.7887729 C69.038516,35.7856295 68.5545631,35.0242973 68.1317753,35.0401401 C67.3935506,35.0332246 67.3278918,35.7023922 66.6323578,35.7207496 C66.0710125,35.7013863 65.8318447,35.2696085 65.1049792,35.3124845 C64.342663,35.3558634 64.3994591,35.7784625 63.4364216,35.7544469 C62.1644383,35.7225099 61.6538974,34.6107512 60.6361859,34.5983034 C58.9376699,34.5779341 58.8823717,36.2309868 57.6659362,36.706898 L57.666061,36.7070237 Z" id="Shape" fill="#179A3B"></path>
                    <polygon id="Shape" fill="#FDF9A1" points="57.666061 37.1420803 72.5721082 37.0461621 72.5721082 36.534388 57.3270319 36.6303062 57.6661859 37.1420803"></polygon>
                    <path d="M63.7914286,41.5310154 C64.0211096,42.4178322 64.2632732,42.7192217 65.1889875,42.9455467 C66.1034674,43.1718717 67.4985298,42.2738644 66.6316089,41.4069139 C65.8061304,40.6003167 64.9387101,40.3954926 64.1991123,39.6692408 C62.6425243,38.1201719 60.297656,34.3250788 60.2954092,31.6485341 C60.2935368,29.3503295 60.0734674,24.632962 60.0719695,20.1650549 C60.0732178,19.8754846 59.2051734,20.9766815 59.2065465,21.270904 C59.246491,25.2127312 59.2402497,28.1917969 59.3992788,32.1665669 C59.6458114,35.072077 61.0223994,37.028531 62.2309709,38.7943689 C62.7724688,39.640573 63.5551318,40.5530399 63.7915534,41.5312669 L63.7914286,41.5310154 Z" id="Shape" fill="#A79270"></path>
                    <path d="M52.4078641,20.2300605 C52.2156311,20.6037482 52.8579889,20.1209215 53.0035368,20.0688668 C53.8361304,19.7706207 54.1623024,18.7111682 55.5965603,19.3490275 C56.7256172,19.8402785 58.2412621,19.5547318 57.4489875,20.0522696 C56.4700971,20.6424749 54.5203051,21.2965542 54.4818585,24.2238166 C54.6448821,24.5101178 54.6566158,24.4649785 54.7926768,24.1580567 C55.0890153,23.4758125 56.5021775,21.6229651 57.2014563,21.7771176 C57.4829404,21.8505475 58.3095423,20.9397151 58.3288904,21.1997374 C58.4037864,21.9307671 57.2063245,23.4095496 57.2191817,25.3890132 C57.2220527,25.8474471 57.7819001,25.9959414 58.0517753,25.6734283 C58.3199029,25.3890132 58.4709431,25.0950422 58.9405409,24.7213544 C59.7710125,24.0348353 59.5418308,21.1240442 59.6443135,21.2608451 C60.2322469,22.0274582 60.3223717,24.1896164 61.1980305,25.0764332 C61.9257698,25.8132469 62.5139528,25.4605571 62.3551734,24.4369394 C62.0391123,22.384926 61.0761997,22.9716107 60.6179612,20.8493108 C60.5248405,20.4358905 60.5018724,20.0624542 61.0452427,20.2353414 C61.7093204,20.4293522 62.0992788,20.7400462 62.5948405,21.49484 C63.0901526,22.214805 64.0191123,22.9047191 64.5558669,23.328324 C65.4925659,24.0533185 65.8213592,23.4203629 65.3744799,22.4899156 C64.879792,21.4460544 63.764466,20.580487 62.7502497,20.2018956 C61.9818169,19.9344549 61.7079473,19.9089304 61.0308877,19.7781649 C60.8426491,19.7379293 60.648294,19.3494047 60.9828294,19.1350247 C61.6998336,18.6936909 62.557767,18.1948958 63.4275589,18.1697485 C64.2651456,18.1483734 64.9284743,18.8245822 65.5159085,18.993823 C66.6870319,19.3031339 66.6810402,18.5542496 66.1647573,17.9988731 C65.740846,17.5298774 64.8438419,16.7435238 64.0065049,16.8478848 C62.3166019,17.0566067 62.4232039,17.008827 61.3867684,17.701633 C61.0064216,17.9273293 60.5841331,18.1764125 60.7417892,17.9028108 C61.1210125,17.2155372 60.7676283,17.3336034 61.3534397,16.6343848 C61.8090569,16.1220102 62.1435922,15.7532262 62.595215,15.6253525 C63.0242441,15.521243 63.5908322,15.0623062 63.7660888,14.8294429 C64.1870042,14.2430097 63.8241331,13.9083002 63.1737864,14.1047 C62.6093204,14.2611157 62.305742,14.6395814 61.9177809,14.7441939 C61.0077947,15.0330097 60.2733148,17.1304138 60.1612205,17.4274025 C60.016172,17.7823556 59.8557698,17.6064507 59.8853537,17.3059414 C60.0167961,15.8250215 60.1409986,13.3455053 59.6219695,12.3247796 C58.8403051,10.8197183 58.9127046,11.5215773 58.6126214,12.2357584 C58.160749,13.3704011 58.3177809,14.4279675 58.6022607,15.5401035 C58.7265881,16.0951027 59.1881969,16.7266752 59.270957,17.1623508 C59.3304993,17.504353 59.0737309,17.0557266 58.9243135,16.8505252 C58.4337448,16.0940968 58.0748682,15.5824765 57.2757282,15.1706908 C56.7298613,14.8224017 55.259154,14.7756279 54.7471151,14.9343069 C54.525423,15.0030845 54.9930236,15.3215741 55.1909986,15.4800016 C55.7267545,15.9091389 56.7420943,16.0427964 57.4253953,16.4657727 C58.0120804,16.8291501 58.4587101,17.0630193 58.65319,17.5650836 C58.7343273,17.9380169 58.8544105,18.4915072 58.6104993,18.4779277 C57.9703883,18.4410871 56.9757698,17.8831959 54.9334813,18.1125386 C53.8905548,18.2516027 52.9849376,19.1502387 52.4078641,20.230312 L52.4078641,20.2300605 Z" id="Shape" fill="#239E46"></path>
                    <polygon id="Shape" fill="#000000" points="56.8588072 39.0483559 57.4632848 39.0483559 57.4632848 40.04318 56.8588072 40.04318"></polygon>
                    <path d="M53.9168932,32.4210568 C56.2667545,35.6984943 60.0333981,37.6093061 60.1086685,39.0976444 C57.7289736,39.0882142 55.1493065,39.0989018 52.7696117,39.0895973 C54.4557698,37.0476428 55.4833426,35.6689464 53.917018,32.4209311 L53.9168932,32.4210568 Z" id="Shape" fill="#FDF9FF"></path>
                    <path d="M51.7802358,39.1720802 C54.9728017,39.8890275 58.784258,40.2842161 61.2186269,39.0717428 C61.2385992,39.7884386 60.4272261,40.8203549 59.7619001,40.8203549 L53.6357836,40.8203549 C54.3472954,40.7176285 54.752982,40.4990992 55.9108738,40.4384943 L52.658516,40.4787299 C52.2992649,40.4921837 51.660527,39.5203693 51.7802358,39.1720802 L51.7802358,39.1720802 Z" id="Shape" fill="#A68861"></path>
                    <path d="M59.02043,53.4450151 C59.3449792,53.6241891 59.8580166,53.6147589 60.1467406,53.459349 C78.5914979,43.5702037 78.601484,16.4516903 60.1737032,6.70060322 C59.8311789,6.51866306 59.33362,6.52859621 58.9934674,6.71443419 C41.0203051,16.6249546 40.9722469,43.4364205 59.0205548,53.4451409 L59.02043,53.4450151 Z M59.1120527,51.2125704 C59.3956588,51.3706207 59.8432871,51.3624479 60.0954369,51.2248926 C75.5347434,42.0721837 75.7237309,17.8927519 60.1189043,9.22525863 C59.8201942,9.00434028 59.3857975,9.07349515 59.088835,9.23783225 C44.3018724,18.0460242 43.4772677,41.2286201 59.1121775,51.212319 L59.1120527,51.2125704 Z" id="Shape" fill="#BE0027"></path>
                    <g id="Group-2" transform="translate(50.000000, 26.000000)" stroke="#FFFFFF" font-weight="normal" font-family="Helvetica" stroke-width="2.17854" fill="#BD0728" font-size="6.93021077">
                        <text id="G">
                            <tspan x="0.0576029019" y="6.03197008">G</tspan>
                        </text>
                        <text id="U">
                            <tspan x="4.2097945" y="6.04289244">U</tspan>
                        </text>
                        <text id="A">
                            <tspan x="9.26894237" y="6.0413451">A</tspan>
                        </text>
                        <text id="M">
                            <tspan x="14.1686352" y="6.03697616">M</tspan>
                        </text>
                    </g>
                </g>
            </g>
        </g>
    </g>
</svg>