<?xml version="1.0" encoding="UTF-8" standalone="no"?>
<svg width="122px" height="60px" viewBox="0 0 122 60" version="1.1" xmlns="http://www.w3.org/2000/svg" xmlns:xlink="http://www.w3.org/1999/xlink">
    <!-- Generator: Sketch 3.8.2 (29753) - http://www.bohemiancoding.com/sketch -->
    <title>mp</title>
    <desc>Created with Sketch.</desc>
    <defs></defs>
    <g id="Page-1" stroke="none" stroke-width="1" fill="none" fill-rule="evenodd">
        <g id="mp">
            <g id="Clipped">
                <g>
                    <g id="Group">
                        <polygon id="Shape" fill="#0071BC" points="0 0 122 0 122 60 0 60"></polygon>
                        <path d="M67.240875,45.707625 C67.240875,45.707625 69.14375,43.695125 70.973375,44.07925 C71.522375,41.95675 73.589875,41.792125 73.589875,41.792125 C73.589875,41.792125 73.388625,39.450125 76.04175,38.937875 C76.114875,37.346 77.725125,36.028625 77.725125,36.028625 C77.725125,36.028625 77.39575,33.558625 79.079125,32.991375 C78.054375,31.033625 79.426625,29.606375 79.408375,29.569875 C79.390125,29.53325 77.67025,26.477625 79.207125,25.599375 C77.57875,24.227125 78.109375,22.671875 78.109375,22.671875 C78.109375,22.671875 76.334375,22.214375 76.974875,20.091875 C75.511125,19.83575 75.218375,17.4755 75.218375,17.4755 C75.218375,17.4755 72.967875,17.932875 72.693375,15.975 C71.211375,16.212875 71.046625,14.74925 71.028375,14.74925 C71.010125,14.74925 68.0825,15.536 67.497125,13.322 C66.36275,13.9075 65.868625,12.8645 65.868625,12.8645 C65.868625,12.8645 64.24025,13.669625 63.2705,12.1145 C61.331,13.322 60.2515,12.0595 60.2515,12.0595 C60.2515,12.0595 57.70825,13.742875 56.8665,12.44375 C55.366125,13.9625 54.0305,13.30375 54.0305,13.30375 C54.0305,13.30375 52.896125,15.31625 51.066375,14.804 C50.645625,16.67025 48.541375,16.706875 48.541375,16.706875 C48.541375,16.706875 48.761,18.353625 46.236,18.79275 C45.90675,20.73225 44.589375,21.0615 44.589375,21.0615 C44.589375,21.0615 44.717375,22.94625 43.528125,23.549875 C43.948875,24.611125 42.851125,25.91025 42.851125,25.91025 C42.851125,25.91025 44.022125,27.374 42.43025,29.02075 C43.96725,29.42325 42.851125,32.076375 42.851125,32.076375 C42.851125,32.076375 44.973625,33.02775 43.637875,34.78425 C45.156625,35.278375 44.68075,36.485875 44.699125,37.1995 C45.668875,37.638625 46.52875,37.419125 46.108,39.376875 C49.0905,39.70625 47.6815,41.353 47.6815,41.353 C47.6815,41.353 49.072,41.407875 48.52325,42.50575 C51.0665,42.45075 51.432375,44.408625 51.432375,44.408625 C51.432375,44.408625 53.79275,43.7865 54.103875,44.701375 C54.414875,45.61625 53.07925,51.78225 53.07925,51.78225 C53.07925,51.78225 51.084875,51.78225 49.60275,50.1905 C46.1265,50.099 46.894875,47.811875 46.839875,47.811875 C46.785,47.811875 45.687125,48.23275 45.119875,46.329875 C42.796125,46.805625 42.869375,44.847875 42.851125,44.829625 C42.832875,44.81125 41.80825,44.353875 42.192375,43.384125 C39.795625,43.603625 39.978625,41.261625 39.978625,41.261625 C39.454,41.04825 39.258875,40.560375 39.338125,40.072375 C39.027125,39.962625 36.904625,39.926125 38.0025,37.126625 C35.9715,35.90075 37.234,34.491875 37.234,34.491875 C37.234,34.491875 34.4345,33.0465 36.593625,31.3815 C34.983375,29.002875 36.721625,27.813625 36.721625,27.813625 C36.721625,27.813625 34.489375,25.54475 36.75825,23.934625 C36.392375,20.49475 38.441625,19.671375 38.441625,19.671375 C38.441625,19.671375 37.362125,16.872 40.289625,15.700875 C40.4725,12.864875 42.521875,12.79175 42.521875,12.79175 C42.521875,12.79175 42.57675,10.541125 45.797,10.76075 C46.419125,8.74825 48.61475,9.150625 48.61475,9.150625 C48.61475,9.150625 49.29175,6.717125 52.274125,7.888125 C53.792875,4.924 56.043375,6.442625 56.043375,6.442625 C56.043375,6.442625 57.4705,5.5095 58.184125,5.80225 C59.09025,4.245125 61.019125,5.741875 62.266625,6.04325 C62.7185,5.8675 64.331875,4.6495 65.576125,6.1865 C67.222875,5.107 68.63175,7.0465 68.63175,7.0465 C68.63175,7.0465 70.9005,5.893875 71.96175,8.5285 C76.774,8.089375 76.078625,11.2365 76.078625,11.2365 C76.078625,11.2365 79.866125,10.3765 79.04275,14.145625 C82.482625,14.3835 82.135,16.652375 82.135,16.652375 C82.135,16.652375 84.31225,18.299125 83.36075,19.781125 C85.30025,19.872625 84.586625,21.738875 84.586625,21.738875 C84.586625,21.738875 86.068625,22.306125 84.842875,24.611625 C87.67875,26.880375 85.391625,29.131 85.373375,29.11275 C85.355125,29.094375 86.892125,30.942375 85.5015,33.064875 C85.922375,36.4315 84.22075,37.2915 84.22075,37.2915 C84.22075,37.2915 84.659875,39.468875 82.757,40.091 C82.720375,42.6525 80.305125,42.963625 80.305125,42.963625 C80.305125,42.963625 80.945625,44.076375 78.54875,45.247375 C78.454125,46.961375 75.9505,47.098875 75.9505,47.098875 C75.9505,47.098875 75.712625,50.245875 72.528875,49.40425 C71.75625,51.92925 68.027875,51.179 67.95475,51.142375 C67.8815,51.10575 67.241125,45.7265 67.241125,45.708125 L67.240875,45.707625 Z" id="Shape" stroke="#000000" stroke-width="0.1" fill="#FFFFFF"></path>
                        <path d="M44.1175,15.510375 C44.12675,15.510375 44.924375,16.202125 44.7755,17.24475 C44.6265,18.28725 44.024375,19.736625 44.1455,20.816375 C44.219375,21.24925 44.191375,22.025 44.191375,22.025 C44.191375,22.025 43.468375,20.9975 43.459,19.899 C43.449625,18.8005 44.242,17.757625 44.242,16.94775 C44.242,16.137875 44.098875,15.49175 44.1175,15.51025 L44.1175,15.510375 Z M43.7215,15.8215 C43.7215,15.8215 42.674875,16.820625 42.540125,17.791625 C42.4405,18.292125 42.401875,20.624375 42.390125,21.6595 C42.366625,21.977 42.235125,23.23075 42.207125,23.68675 C42.179125,24.143 42.977,22.908125 43.022625,21.90275 C42.997625,20.862125 42.997625,18.67025 43.103375,18.34075 C43.1975,17.917375 43.177125,17.4495 43.322625,17.02475 C43.515125,16.435375 43.730875,15.83075 43.7215,15.8215 L43.7215,15.8215 Z" id="Shape" stroke="#000000" stroke-width="0.1" fill="#217900"></path>
                        <g transform="translate(37.625000, 6.375000)" id="Shape" stroke="#EF8A10" fill="#FFD200">
                            <path d="M29.120625,6.181625 C29.120625,6.181625 30.477625,5.555625 30.865625,4.38975 C31.253625,3.223875 29.691125,3.21275 29.48475,3.583375 C29.278375,3.953875 29.66075,4.8765 29.56225,5.120375 C29.46375,5.364375 28.91175,5.953125 29.120625,6.181625 L29.120625,6.181625 Z" stroke-width="1.85760712"></path>
                            <path d="M17.093125,6.606875 C17.093125,6.606875 17.974125,5.39975 17.745625,4.192375 C17.51725,2.98525 16.146875,3.735625 16.146875,4.159875 C16.146875,4.584 16.93,5.203875 16.962625,5.464875 C16.995125,5.725875 16.7995,6.509 17.093125,6.606875 L17.093125,6.606875 Z M14.711375,7.324875 C14.711375,7.324875 15.592375,6.117625 15.363875,4.910375 C15.1355,3.703125 13.765125,4.4535 13.765125,4.87775 C13.765125,5.301875 14.54825,5.92175 14.580875,6.18275 C14.6135,6.443875 14.41775,7.226875 14.711375,7.32475 L14.711375,7.324875 Z M12.06875,8.1405 C12.06875,8.1405 12.949625,6.93325 12.72125,5.726 C12.49275,4.51875 11.1225,5.269125 11.1225,5.693375 C11.1225,6.1175 11.9055,6.737375 11.938125,6.998375 C11.97075,7.2595 11.775,8.0425 12.068625,8.140375 L12.06875,8.1405 Z M10.209,10.000125 C10.209,10.000125 11.089875,8.793 10.8615,7.585625 C10.633125,6.3785 9.26275,7.128875 9.26275,7.553125 C9.26275,7.977125 10.04575,8.597125 10.0785,8.858125 C10.111,9.119125 9.91525,9.90225 10.209,10.000125 L10.209,10.000125 Z M8.25125,11.79475 C8.25125,11.79475 9.13225,10.5875 8.90375,9.38025 C8.6755,8.173 7.305125,8.923375 7.305125,9.347625 C7.305125,9.77175 8.088125,10.391625 8.12075,10.652625 C8.153375,10.91375 7.957625,11.69675 8.251375,11.794625 L8.25125,11.79475 Z" stroke-width="0.1"></path>
                            <path d="M12.75225,1.340875 C12.75225,1.340875 11.579125,2.266625 11.4745,3.490875 C11.369875,4.715 12.8915,4.36075 13.0055,3.952125 C13.119625,3.543625 12.532125,2.735875 12.570875,2.475875 C12.609625,2.215625 13.008875,1.514 12.75225,1.340875 L12.75225,1.340875 Z M16.6675,0.1335 C16.6675,0.1335 15.494375,1.059375 15.38975,2.2835 C15.285125,3.507625 16.80675,3.153375 16.920875,2.74475 C17.034875,2.33625 16.447375,1.5285 16.486125,1.2685 C16.524875,1.00825 16.924125,0.30675 16.6675,0.1335 L16.6675,0.1335 Z M2.077125,10.702875 C2.077125,10.702875 2.324875,12.176625 3.348,12.857 C4.371125,13.53725 4.792,12.032625 4.488625,11.73625 C4.18525,11.439875 3.194625,11.566625 2.985125,11.4075 C2.775625,11.2485 2.352375,10.56125 2.077125,10.702875 L2.077125,10.702875 Z M0.12175,15.707 C0.12175,15.707 0.133875,17.2015 1.03675,18.03475 C1.93975,18.867875 2.592875,17.448625 2.34,17.108 C2.087125,16.767375 1.088875,16.736375 0.907125,16.54625 C0.725375,16.356 0.415875,15.610625 0.12175,15.707 L0.12175,15.707 Z M4.633,21.297625 C4.633,21.297625 4.099625,19.9015 2.9625,19.43625 C1.825375,18.970875 1.70925,20.528875 2.065,20.75975 C2.421,20.990625 3.367125,20.671 3.603875,20.785625 C3.840625,20.900375 4.391125,21.490625 4.633,21.297625 L4.633,21.297625 Z M3.695875,18.881625 C3.695875,18.881625 4.600125,17.69175 4.39525,16.480375 C4.190375,15.268875 2.80575,15.9925 2.7975,16.416625 C2.78925,16.840625 3.56,17.475625 3.5875,17.73725 C3.615,17.998875 3.404125,18.778 3.695875,18.8815 L3.695875,18.881625 Z M31.89375,7.38875 C31.89375,7.38875 33.25075,6.76275 33.638625,5.597 C34.0265,4.43125 32.46425,4.419875 32.25775,4.7905 C32.0515,5.161 32.433875,6.083625 32.33525,6.327625 C32.23675,6.571375 31.68475,7.16025 31.893625,7.38875 L31.89375,7.38875 Z M35.996875,9.4355 C35.996875,9.4355 36.795125,8.172125 36.4865,6.98275 C36.17775,5.7935 34.86075,6.634 34.889125,7.057125 C34.9175,7.480375 35.74025,8.0465 35.790375,8.30475 C35.840375,8.563 35.697375,9.357375 35.996875,9.4355 L35.996875,9.4355 Z M47.197625,21.06375 C47.197625,21.06375 46.662375,19.6685 45.524625,19.204625 C44.386875,18.740875 44.272875,20.299 44.629,20.529375 C44.98525,20.75975 45.931,20.438875 46.167875,20.553125 C46.40475,20.667625 46.956,21.25725 47.197625,21.06375 L47.197625,21.06375 Z M41.7205,21.930375 C41.7205,21.930375 41.7515,20.43625 42.664875,19.614375 C43.57825,18.792625 44.213375,20.22 43.95625,20.5575 C43.699125,20.89475 42.700625,20.91325 42.516375,21.101125 C42.33225,21.288875 42.013375,22.030375 41.7205,21.93025 L41.7205,21.930375 Z M40.83925,6.0855 C40.83925,6.0855 39.44225,5.554875 38.33825,6.094125 C37.23425,6.633375 38.320125,7.756625 38.72925,7.644625 C39.13825,7.5325 39.52925,6.613625 39.772375,6.513125 C40.015625,6.41275 40.8225,6.394625 40.839375,6.085625 L40.83925,6.0855 Z M37.642375,3.41 C37.642375,3.41 36.24525,2.87925 35.141375,3.4185 C34.037375,3.957875 35.123125,5.081125 35.53225,4.969125 C35.941375,4.857 36.33225,3.938 36.5755,3.837625 C36.818625,3.737125 37.6255,3.719125 37.642375,3.41 L37.642375,3.41 Z M32.875,0.85875 C32.875,0.85875 31.69075,1.77 31.571,2.99275 C31.451375,4.215625 32.97725,3.88 33.09625,3.472875 C33.215375,3.06575 32.637875,2.251 32.67975,1.99125 C32.72175,1.731625 33.1295,1.035 32.875125,0.858625 L32.875,0.85875 Z M29.77,0.11175 C29.77,0.11175 29.23,1.50525 29.76175,2.61275 C30.2935,3.72025 31.424125,2.64225 31.314875,2.232375 C31.2055,1.822375 30.28925,1.42525 30.190375,1.1815 C30.091625,0.93775 30.079125,0.130625 29.77,0.11175 L29.77,0.11175 Z M20.964375,5.481375 C20.964375,5.481375 21.930375,4.34125 21.79,3.120625 C21.649625,1.9 20.228625,2.549125 20.197875,2.97225 C20.167125,3.39525 20.90325,4.07025 20.916875,4.333 C20.930625,4.595625 20.6785,5.3625 20.964375,5.481375 L20.964375,5.481375 Z" stroke-width="0.1"></path>
                        </g>
                        <path d="M63.846875,14.304 C63.846875,14.304 66.162625,14.44975 66.276,15.777625 C66.389375,17.1055 65.725375,17.915125 65.725375,17.915125 C65.725375,17.915125 66.016875,20.781625 63.74975,21.623625 C61.320625,21.915125 57.515125,21.6885 57.515125,21.6885 C57.515125,21.6885 56.397625,21.96375 55.944375,19.648 C55.490875,17.332375 55.361375,15.69675 55.361375,15.69675 C55.361375,15.69675 55.588125,14.401125 57.223625,14.32025 C58.85925,14.23925 63.83075,14.3365 63.847,14.304 L63.846875,14.304 Z" id="Shape" stroke="#000000" stroke-width="0.3" fill="#8C8A8C"></path>
                        <path d="M65.70925,17.899125 C65.70925,17.899125 64.46225,19.45375 64.59175,20.085375" id="Shape" stroke="#000000" stroke-width="0.3"></path>
                        <path d="M64.041625,21.542125 C64.349375,21.80125 64.64075,22.09275 64.705625,23.04825 L64.835125,24.959125 L66.4545,39.5335 L67.8795,50.075875 L67.97675,51.7115 C67.97675,51.7115 67.63675,52.90975 66.68125,53.006875 C65.985,54.464375 62.21175,54.885375 61.83925,54.86925 C61.49925,54.853 60.30075,54.351 59.572,54.41575 C58.84325,54.4805 57.580125,54.966375 57.013375,54.885375 C56.446625,54.8045 55.167375,54.36725 54.940625,53.444125 C53.353625,52.942125 53.0945,51.727625 53.0945,51.727625 L54.811125,39.533375 L56.479,24.117125 C56.479,24.117125 56.673375,22.0605 57.49925,21.75275 C58.3575,21.67175 62.794625,21.83375 64.0415,21.54225 L64.041625,21.542125 Z" id="Shape" stroke="#000000" stroke-width="0.1" fill="#8C8A8C"></path>
                        <path d="M55.296875,42.643375 L54.95675,53.4285 M65.7745,44.068375 L66.73,52.958875" id="Shape" stroke="#000000" stroke-width="0.3"></path>
                        <path d="M38.0715,37.039 L38.036,37.163375 M82.8715,36.6485 L82.907,36.772875" id="Shape" stroke="#000000" stroke-width="0.96770688"></path>
                        <path d="M36.870625,22.47875 C36.870625,22.47875 37.58,23.46125 37.707375,24.025 C37.83475,24.589 38.071125,25.69875 38.3805,26.1535 C38.68975,26.60825 40.454375,29.137 40.545375,30.192 C40.5635,30.88325 39.817625,32.06575 38.707875,32.084 C38.016625,32.06575 36.233875,31.611 36.161,30.08275 C36.08825,28.554625 36.70675,28.518375 36.779625,27.590625 C36.852375,26.66275 36.8705,22.496875 36.8705,22.478625 L36.870625,22.47875 Z" id="Shape" stroke="#6B18B5" stroke-width="0.1"></path>
                        <path d="M49.05825,9.10175 C49.05825,9.10175 48.32375,9.15425 47.75825,9.46075 C47.320125,9.730875 46.577875,10.119625 46.05925,10.83875 C44.74,11.867125 42.7555,12.347 42.1295,13.20125 C41.754875,13.7825 41.777875,15.1805 42.716625,15.7725 C43.31675,16.116125 45.076375,16.65375 45.932375,15.38575 C46.7885,14.11775 46.278875,13.765375 46.698625,12.93475 C47.391375,11.031 49.048875,9.11725 49.058375,9.10175 L49.05825,9.10175 Z M66.8765,7.246 C66.8765,7.246 66.32775,6.75475 65.71425,6.56175 C65.215375,6.434875 64.3845,6.490125 63.52475,6.40575 C61.868375,6.173375 60.160625,4.9755 59.1115,5.120125 C58.433375,5.25525 57.445125,6.24425 57.67275,7.3305 C57.843375,8.0005 58.592875,9.355875 60.09925,9.089 C61.605625,8.822 61.592625,8.493375 62.48125,8.21725 C64.64875,7.00175 66.85875,7.25 66.8765,7.246 L66.8765,7.246 Z M84.546625,24.4205 C84.670375,24.137875 84.442625,23.6065 84.28075,22.984 C84.12375,22.49375 83.88925,21.732875 83.31575,21.0565 C82.63425,19.529 82.751125,17.434375 82.072,16.6215 C81.597875,16.11825 80.235375,15.804875 79.43525,16.574 C78.9575,17.074 78.013125,18.653 79.038375,19.7885 C80.063625,20.924 80.510375,20.496375 81.215875,21.10325 C82.897625,22.233 83.72125,24.21325 84.546625,24.420375 L84.546625,24.4205 Z M83.944,37.7645 C84.17375,37.4465 84.584875,36.83375 84.536,36.32325 C84.49725,35.919125 84.72125,34.693625 84.74575,34.158875 C84.89775,32.493125 85.940375,31.141125 85.656875,29.693875 C85.489125,29.023125 84.5065,28.066125 83.432625,28.346 C82.7715,28.548875 81.2995,29.358875 81.638875,30.8505 C81.9785,32.34225 82.4605,32.3175 82.77925,33.19175 C83.694375,34.99925 83.10875,37.146375 83.944,37.764375 L83.944,37.7645 Z" id="Shape" stroke="#6B18B5" stroke-width="0.1"></path>
                        <path d="M71.685625,48.35425 C71.685625,48.35425 71.40325,48.89725 72.53275,49.375125 M73.945,47.072875 C73.945,47.072875 75.20475,46.76875 76.051875,47.072875 M77.70225,43.900875 C77.70225,43.922625 77.5285,44.465625 78.527625,45.2475 M78.419125,42.49 C78.419125,42.49 79.157625,43.033 80.395625,43.01125 M70.96875,44.074875 C70.96875,44.074875 71.01225,45.508375 70.27375,46.18175 M73.444625,41.859 C73.444625,41.859 74.660875,42.163125 75.660125,41.6635 M81.243,39.753 C81.243,39.753 81.503625,40.12225 82.850375,40.057125 M75.98675,38.905625 C76.03025,38.927375 77.572375,39.426875 78.549875,38.970875 M79.07075,32.99775 C79.07075,32.99775 79.13575,32.910875 79.61375,34.583375 M80.265,28.284375 C80.265,28.284375 80.2,29.174875 79.483125,29.565875 M84.848,24.63475 C84.848,24.63475 83.8055,25.481875 84.000875,25.829375 M79.657,24.02675 C79.657,24.02675 80.2,24.939 79.3095,25.568875 M77.028875,20.117125 C77.028875,20.117125 77.962875,20.07375 78.375625,20.877375 M75.27,17.46725 L75.98675,17.46725 M78.98375,14.209375 C78.98375,14.231 79.179125,14.40475 78.81,14.774 M72.3155,14.29625 C72.3155,14.29625 72.815,15.07825 72.728125,16.034 M75.204625,11.64625 C75.421875,11.6245 76.160375,11.29875 76.160375,11.29875 M71.99025,8.540125 C71.9685,8.540125 71.70775,9.517625 72.18575,9.865125 M70.79475,12.993 C70.79475,14.0355 71.620125,13.774875 71.055375,14.774 M68.774625,12.124 C68.753,12.124 67.4715,13.123125 67.4715,13.296875 M65.429625,11.581125 C65.429625,11.581125 65.972625,12.124125 65.842375,12.862625 M63.84475,11.146625 C63.84475,11.146625 63.562375,11.972 63.193125,12.189125 M60.9555,10.929375 C60.933875,10.972875 60.499375,11.906875 60.195375,12.080625 M57.0025,10.95125 C57.02425,10.95125 57.436875,11.82 56.893875,12.45 M56.089875,6.455 C56.1115,6.476625 56.17675,7.12825 55.764,7.693 M52.18025,7.932 C52.18025,7.953625 52.354,8.6705 51.20275,8.9095 M49.9655,14.55625 C49.98725,14.59975 51.07325,14.7735 51.07325,14.7735 M47.250375,17.07675 C47.272125,17.055 48.575375,16.664125 48.575375,16.664125 M45.14325,18.70525 C45.18675,18.70525 46.0555,18.85725 46.27275,18.748625 M44.53525,19.509125 C44.53525,19.509125 44.817625,19.661125 44.578625,21.116375 M40.299375,15.6865 L40.820625,16.4685 M38.518625,19.705 C38.518625,19.683125 39.039875,20.48675 39.734875,20.63875 M42.624,23.7885 C42.645625,23.7885 43.471,23.61475 43.6015,23.527875 M42.254125,26.741875 C42.275875,26.741875 42.232375,26.198875 42.90575,25.829625 M41.36325,28.088625 C41.36325,28.11025 41.993125,28.89225 42.4275,29.000875 M40.994375,29.5875 C41.059625,29.565875 41.732875,28.979375 42.514875,29.02275 M40.776875,31.6075 C40.776875,31.6075 40.798625,32.281 42.796875,32.10725 M40.972625,33.974625 C40.972625,33.952875 41.559125,32.628 42.75375,32.128375 M42.5805,35.6695 C42.5805,35.6695 42.75425,35.10475 43.75325,34.71375 M43.687875,37.906 C43.687875,37.906 44.404625,37.3195 44.66525,37.232625 M44.57875,39.64425 C44.57875,39.64425 45.013125,40.1005 46.099125,39.3185 M39.343125,40.013 C39.4735,39.99125 41.059,39.622125 41.602125,40.4475 M39.974125,41.31625 C39.974125,41.31625 41.646625,41.099 41.86375,41.27275 M45.947125,41.66425 C45.947125,41.66425 45.73,42.1205 47.793375,41.36025 M48.51,42.49 C48.14075,43.119875 48.596875,43.619375 48.119,43.90175 M42.232375,43.358 C42.2975,43.314625 42.992625,43.075625 42.884,42.0765 M42.862125,44.857 C42.949125,44.83525 44.10025,44.33575 44.33925,44.596375 M45.1215,46.3125 C45.1215,46.3125 45.273625,45.291625 45.599375,45.183 M46.85875,47.853875 C46.85875,47.853875 47.8145,47.832125 48.22725,47.528125 M48.70475,44.40125 C48.7265,44.422875 49.59525,44.879 51.4415,44.422875 M49.399875,48.549 C49.399875,48.549 49.6605,49.874 49.63875,50.178125" id="Shape" stroke="#000000" stroke-width="0.3"></path>
                        <g transform="translate(38.750000, 7.125000)" id="Shape" stroke="#000000" stroke-width="0.1" fill="#DE2010">
                            <path d="M44.0143689,21.156185 C44.0147742,20.7157942 43.8534479,20.3088139 43.591394,20.0883053 C43.3291375,19.8680055 43.0060796,19.8680055 42.7442284,20.0883053 C42.4823772,20.3086051 42.3206456,20.7157942 42.3210509,21.156185 C42.3206456,21.5965757 42.4819719,22.0035561 42.7440257,22.2240647 C43.0060796,22.4443644 43.3291375,22.4443644 43.5911914,22.2240647 C43.8532452,22.0037649 44.0147742,21.5965757 44.0143689,21.156185 L44.0143689,21.156185 Z" transform="translate(43.167710, 21.156185) rotate(-7.124797) translate(-43.167710, -21.156185) "></path>
                            <path d="M43.8347439,18.949685 C43.8351492,18.5092942 43.6738229,18.1023139 43.411769,17.8818053 C43.1495125,17.6615055 42.8264546,17.6615055 42.5646034,17.8818053 C42.3027522,18.1021051 42.1410206,18.5092942 42.1414259,18.949685 C42.1410206,19.3900757 42.3023469,19.7970561 42.5644007,20.0175647 C42.8264546,20.2378644 43.1495125,20.2378644 43.4115664,20.0175647 C43.6736202,19.7972649 43.8351492,19.3900757 43.8347439,18.949685 L43.8347439,18.949685 Z" transform="translate(42.988085, 18.949685) rotate(-7.124797) translate(-42.988085, -18.949685) "></path>
                            <path d="M43.3989049,16.6663767 C43.3993103,16.225986 43.2379825,15.8190057 42.9759262,15.5984972 C42.7136672,15.3781974 42.3906063,15.3781974 42.1287526,15.5984972 C41.8668989,15.8187969 41.7051658,16.225986 41.7055712,16.6663767 C41.7051658,17.1067674 41.8664936,17.5137477 42.1285499,17.7342563 C42.3906063,17.954556 42.7136672,17.954556 42.9757235,17.7342563 C43.2377798,17.5139565 43.3993103,17.1067674 43.3989049,16.6663767 L43.3989049,16.6663767 Z" transform="translate(42.552238, 16.666377) rotate(-12.166060) translate(-42.552238, -16.666377) "></path>
                            <path d="M42.6547496,14.4082399 C42.6551549,13.9678513 42.4938267,13.5608728 42.2317698,13.3403653 C41.9695101,13.1200666 41.6464484,13.1200666 41.3845941,13.3403653 C41.1227398,13.560664 40.9610063,13.9678513 40.9614116,14.4082399 C40.9610063,14.8486286 41.1223345,15.255607 41.3843914,15.4761145 C41.6464484,15.6964133 41.9695101,15.6964133 42.2315671,15.4761145 C42.4936241,15.2558158 42.6551549,14.8486286 42.6547496,14.4082399 L42.6547496,14.4082399 Z" transform="translate(41.808081, 14.408240) rotate(-26.935169) translate(-41.808081, -14.408240) "></path>
                            <path d="M41.7824996,12.4326149 C41.7829049,11.9922263 41.6215767,11.5852478 41.3595198,11.3647403 C41.0972601,11.1444416 40.7741984,11.1444416 40.5123441,11.3647403 C40.2504898,11.585039 40.0887563,11.9922263 40.0891616,12.4326149 C40.0887563,12.8730036 40.2500845,13.279982 40.5121414,13.5004895 C40.7741984,13.7207883 41.0972601,13.7207883 41.3593171,13.5004895 C41.6213741,13.2801908 41.7829049,12.8730036 41.7824996,12.4326149 L41.7824996,12.4326149 Z" transform="translate(40.935831, 12.432615) rotate(-26.935169) translate(-40.935831, -12.432615) "></path>
                            <path d="M40.5763242,10.5083448 C40.5767295,10.067955 40.4154024,9.66097549 40.1533471,9.44046735 C39.8910891,9.22016802 39.5680294,9.22016802 39.3061768,9.44046735 C39.0443241,9.66076668 38.8825916,10.067955 38.8829969,10.5083448 C38.8825916,10.9487347 39.0439188,11.3557142 39.3059741,11.5762223 C39.5680294,11.7965217 39.8910891,11.7965217 40.1531444,11.5762223 C40.4151997,11.355923 40.5767295,10.9487347 40.5763242,10.5083448 L40.5763242,10.5083448 Z" transform="translate(39.729661, 10.508345) rotate(-31.793146) translate(-39.729661, -10.508345) "></path>
                            <path d="M39.24248,8.66071267 C39.2428854,8.22032327 39.0815574,7.81334417 38.8195008,7.59283625 C38.5572414,7.37253714 38.2341801,7.37253714 37.9723262,7.59283625 C37.7104722,7.81313535 37.5487389,8.22032327 37.5491442,8.66071267 C37.5487389,9.10110206 37.7100669,9.50808117 37.9721235,9.72858909 C38.2341801,9.94888819 38.5572414,9.94888819 38.8192981,9.72858909 C39.0813547,9.50828998 39.2428854,9.10110206 39.24248,8.66071267 L39.24248,8.66071267 Z" transform="translate(38.395812, 8.660713) rotate(-37.340811) translate(-38.395812, -8.660713) "></path>
                            <path d="M37.6775623,6.96780204 C37.6779676,6.52741266 37.5166388,6.12043356 37.2545807,5.89992564 C36.99232,5.67962654 36.669257,5.67962654 36.4074016,5.89992564 C36.1455462,6.12022474 35.983812,6.52741266 35.9842174,6.96780204 C35.983812,7.40819143 36.1451409,7.81517053 36.4071989,8.03567845 C36.669257,8.25597755 36.99232,8.25597755 37.2543781,8.03567845 C37.5164361,7.81537934 37.6779676,7.40819143 37.6775623,6.96780204 L37.6775623,6.96780204 Z" transform="translate(36.830890, 6.967802) rotate(-45.675671) translate(-36.830890, -6.967802) "></path>
                            <path d="M35.8809905,5.37770462 C35.8813958,4.93731353 35.7200692,4.53033286 35.4580147,4.30982409 C35.1957575,4.08952414 34.8726988,4.08952414 34.610847,4.30982409 C34.3489952,4.53012405 34.1872632,4.93731353 34.1876685,5.37770462 C34.1872632,5.81809571 34.3485898,6.22507638 34.6106443,6.44558514 C34.8726988,6.6658851 35.1957575,6.6658851 35.457812,6.44558514 C35.7198665,6.22528519 35.8813958,5.81809571 35.8809905,5.37770462 L35.8809905,5.37770462 Z" transform="translate(35.034329, 5.377705) rotate(-50.953760) translate(-35.034329, -5.377705) "></path>
                            <path d="M34.0338799,4.14644391 C34.0342852,3.70605406 33.8729571,3.29907453 33.6109002,3.07856639 C33.3486407,2.85826705 33.0255791,2.85826705 32.7637249,3.07856639 C32.5018708,3.29886572 32.3401373,3.70605406 32.3405426,4.14644391 C32.3401373,4.58683376 32.5014654,4.99381329 32.7635223,5.21432144 C33.0255791,5.43462077 33.3486407,5.43462077 33.6106976,5.21432144 C33.8727544,4.99402211 34.0342852,4.58683376 34.0338799,4.14644391 L34.0338799,4.14644391 Z" transform="translate(33.187211, 4.146444) rotate(-60.509732) translate(-33.187211, -4.146444) "></path>
                            <path d="M31.9045254,3.01574459 C31.9049308,2.57535562 31.7436028,2.1683769 31.4815461,1.94786919 C31.2192868,1.7275703 30.8962255,1.7275703 30.6343715,1.94786919 C30.3725176,2.16816809 30.2107842,2.57535562 30.2111896,3.01574459 C30.2107842,3.45613357 30.3721122,3.86311229 30.6341688,4.08362 C30.8962255,4.30391889 31.2192868,4.30391889 31.4813435,4.08362 C31.7434001,3.8633211 31.9049308,3.45613357 31.9045254,3.01574459 L31.9045254,3.01574459 Z" transform="translate(31.057857, 3.015745) rotate(-65.731168) translate(-31.057857, -3.015745) "></path>
                            <path d="M29.8004507,2.16906165 C29.800856,1.72867116 29.6395285,1.32169105 29.3774726,1.10118259 C29.115214,0.880882941 28.7921535,0.880882941 28.5303003,1.10118259 C28.2684471,1.32148224 28.1067142,1.72867116 28.1071195,2.16906165 C28.1067142,2.60945213 28.2680417,3.01643224 28.5300976,3.2369407 C28.7921535,3.45724035 29.115214,3.45724035 29.3772699,3.2369407 C29.6393258,3.01664105 29.800856,2.60945213 29.8004507,2.16906165 L29.8004507,2.16906165 Z" transform="translate(28.953785, 2.169062) rotate(-69.575437) translate(-28.953785, -2.169062) "></path>
                            <path d="M27.6707721,1.50322074 C27.6711775,1.06282918 27.5098502,0.655848073 27.2477948,0.435339071 C26.9855367,0.215038883 26.6624769,0.215038883 26.4006242,0.435339071 C26.1387715,0.655639258 25.9770389,1.06282918 25.9774442,1.50322074 C25.9770389,1.9436123 26.1383661,2.3505934 26.4004215,2.5711024 C26.6624769,2.79140259 26.9855367,2.79140259 27.2475922,2.5711024 C27.5096476,2.35080222 27.6711775,1.9436123 27.6707721,1.50322074 L27.6707721,1.50322074 Z" transform="translate(26.824108, 1.503221) rotate(-73.952670) translate(-26.824108, -1.503221) "></path>
                            <path d="M25.3872896,1.11827461 C25.387695,0.677886544 25.2263674,0.270908666 24.9643113,0.0504014116 C24.7020526,-0.169897029 24.3789921,-0.169897029 24.1171387,0.0504014116 C23.8552853,0.270699853 23.6935524,0.677886544 23.6939577,1.11827461 C23.6935524,1.55866268 23.85488,1.96564056 24.116936,2.18614781 C24.3789921,2.40644625 24.7020526,2.40644625 24.9641087,2.18614781 C25.2261647,1.96584937 25.387695,1.55866268 25.3872896,1.11827461 L25.3872896,1.11827461 Z" transform="translate(24.540624, 1.118275) rotate(-82.811867) translate(-24.540624, -1.118275) "></path>
                            <path d="M23.0784521,0.990129737 C23.0788575,0.549737496 22.9175296,0.142755762 22.6554731,-0.0777535826 C22.3932139,-0.298054111 22.0701528,-0.298054111 21.808299,-0.0777535826 C21.5464452,0.142546946 21.3847119,0.549737496 21.3851173,0.990129737 C21.3847119,1.43052198 21.5460398,1.83750371 21.8080963,2.05801306 C22.0701528,2.27831359 22.3932139,2.27831359 22.6552704,2.05801306 C22.9173269,1.83771253 23.0788575,1.43052198 23.0784521,0.990129737 L23.0784521,0.990129737 Z" transform="translate(22.231785, 0.990130) rotate(-87.700323) translate(-22.231785, -0.990130) "></path>
                            <path d="M20.8977021,1.06737974 C20.8981075,0.626987496 20.7367796,0.220005762 20.4747231,-0.000503582597 C20.2124639,-0.220804111 19.8894028,-0.220804111 19.627549,-0.000503582597 C19.3656952,0.219796946 19.2039619,0.626987496 19.2043673,1.06737974 C19.2039619,1.50777198 19.3652898,1.91475371 19.6273463,2.13526306 C19.8894028,2.35556359 20.2124639,2.35556359 20.4745204,2.13526306 C20.7365769,1.91496253 20.8981075,1.50777198 20.8977021,1.06737974 L20.8977021,1.06737974 Z" transform="translate(20.051035, 1.067380) rotate(-87.700323) translate(-20.051035, -1.067380) "></path>
                            <path d="M18.5625855,1.34986809 C18.5629909,0.909475846 18.4016643,0.502494111 18.13961,0.281984767 C17.877353,0.0616842378 17.5542946,0.0616842378 17.2924429,0.281984767 C17.0305913,0.502285295 16.8688594,0.909475846 16.8692647,1.34986809 C16.8688594,1.79026033 17.0301859,2.19724206 17.2922403,2.41775141 C17.5542946,2.63805194 17.877353,2.63805194 18.1394073,2.41775141 C18.4014617,2.19745088 18.5629909,1.79026033 18.5625855,1.34986809 L18.5625855,1.34986809 Z" transform="translate(17.715925, 1.349868) rotate(257.123620) translate(-17.715925, -1.349868) "></path>
                            <path d="M16.3049598,1.91266874 C16.3053651,1.47227595 16.1440381,1.0652937 15.881983,0.844784074 C15.6197252,0.624483267 15.2966658,0.624483267 15.0348134,0.844784074 C14.772961,1.06508488 14.6112286,1.47227595 14.6116339,1.91266874 C14.6112286,2.35306154 14.7725556,2.76004379 15.0346107,2.98055341 C15.2966658,3.20085422 15.6197252,3.20085422 15.8817803,2.98055341 C16.1438354,2.76025261 16.3053651,2.35306154 16.3049598,1.91266874 L16.3049598,1.91266874 Z" transform="translate(15.458297, 1.912669) rotate(252.392795) translate(-15.458297, -1.912669) "></path>
                            <path d="M14.2779236,2.78639857 C14.278329,2.34600861 14.1170022,1.93902898 13.8549474,1.71852078 C13.59269,1.49822139 13.269631,1.49822139 13.0077789,1.71852078 C12.7459268,1.93882017 12.5841947,2.34600861 12.5846,2.78639857 C12.5841947,3.22678854 12.7455215,3.63376817 13.0075762,3.85427637 C13.269631,4.07457576 13.59269,4.07457576 13.8547447,3.85427637 C14.1167995,3.63397698 14.278329,3.22678854 14.2779236,2.78639857 L14.2779236,2.78639857 Z" transform="translate(13.431262, 2.786399) rotate(245.552156) translate(-13.431262, -2.786399) "></path>
                            <path d="M12.2254261,3.83871312 C12.2258314,3.39832587 12.064505,2.99134875 11.8024508,2.7708419 C11.540194,2.55054387 11.2171358,2.55054387 10.9552843,2.7708419 C10.6934328,2.99113993 10.531701,3.39832587 10.5321064,3.83871312 C10.531701,4.27910037 10.6930275,4.6860775 10.9550816,4.90658434 C11.2171358,5.12688238 11.540194,5.12688238 11.8022481,4.90658434 C12.0643023,4.68628631 12.2258314,4.27910037 12.2254261,3.83871312 L12.2254261,3.83871312 Z" transform="translate(11.378766, 3.838713) rotate(240.658282) translate(-11.378766, -3.838713) "></path>
                            <path d="M10.3011413,5.146504 C10.3015467,4.706116 10.1402193,4.29913819 9.87816366,4.07863096 C9.61590534,3.85833256 9.29284524,3.85833256 9.03099227,4.07863096 C8.76913929,4.29892937 8.60740657,4.706116 8.60781191,5.146504 C8.60740657,5.586892 8.76873394,5.99386982 9.03078959,6.21437704 C9.29284524,6.43467545 9.61590534,6.43467545 9.87796099,6.21437704 C10.1400166,5.99407863 10.3015467,5.586892 10.3011413,5.146504 L10.3011413,5.146504 Z" transform="translate(9.454477, 5.146504) rotate(234.419682) translate(-9.454477, -5.146504) "></path>
                            <path d="M8.50511435,6.50659319 C8.50551969,6.06620687 8.34419327,5.6592306 8.08213916,5.43872422 C7.81988238,5.21842665 7.49682418,5.21842665 7.23497274,5.43872422 C6.97312131,5.65902179 6.81138954,6.06620687 6.81179488,6.50659319 C6.81138954,6.94697952 6.97271596,7.35395579 7.23477007,7.57446217 C7.49682418,7.79475974 7.81988238,7.79475974 8.08193649,7.57446217 C8.3439906,7.3541646 8.50551969,6.94697952 8.50511435,6.50659319 L8.50511435,6.50659319 Z" transform="translate(7.658455, 6.506593) rotate(229.565323) translate(-7.658455, -6.506593) "></path>
                            <path d="M6.91397342,8.17433706 C6.91437877,7.73394768 6.75305185,7.32696858 6.49099696,7.10646067 C6.22873939,6.88616157 5.90568023,6.88616157 5.64382801,7.10646067 C5.38197578,7.32675977 5.22024353,7.73394768 5.22064887,8.17433706 C5.22024353,8.61472644 5.38157044,9.02170553 5.64362533,9.24221345 C5.90568023,9.46251255 6.22873939,9.46251255 6.49079429,9.24221345 C6.75284918,9.02191435 6.91437877,8.61472644 6.91397342,8.17433706 L6.91397342,8.17433706 Z" transform="translate(6.067311, 8.174337) rotate(225.453779) translate(-6.067311, -8.174337) "></path>
                            <path d="M5.55459161,10.0217666 C5.55499695,9.58137658 5.39366963,9.17439687 5.13161407,8.95388862 C4.86935584,8.73358918 4.54629585,8.73358918 4.28444296,8.95388862 C4.02259008,9.17418805 3.86085741,9.58137658 3.86126276,10.0217666 C3.86085741,10.4621567 4.02218473,10.8691364 4.28424029,11.0896447 C4.54629585,11.3099441 4.86935584,11.3099441 5.1314114,11.0896447 C5.39346696,10.8693452 5.55499695,10.4621567 5.55459161,10.0217666 L5.55459161,10.0217666 Z" transform="translate(4.707927, 10.021767) rotate(220.652502) translate(-4.707927, -10.021767) "></path>
                            <path d="M4.32238051,11.8939729 C4.32278585,11.4535848 4.16145825,11.0466069 3.89940223,10.8260996 C3.63714354,10.6058011 3.31408298,10.6058011 3.05222964,10.8260996 C2.79037629,11.046398 2.62864334,11.4535848 2.62904869,11.8939729 C2.62864334,12.3343611 2.78997094,12.741339 3.05202696,12.9618463 C3.31408298,13.1821448 3.63714354,13.1821448 3.89919956,12.9618463 C4.16125558,12.7415478 4.32278585,12.3343611 4.32238051,11.8939729 L4.32238051,11.8939729 Z" transform="translate(3.475715, 11.893973) rotate(214.530818) translate(-3.475715, -11.893973) "></path>
                            <path d="M3.32245619,13.9727084 C3.32286153,13.5323196 3.16153509,13.1253411 2.89948094,12.9048334 C2.63722413,12.6845346 2.31416589,12.6845346 2.05231442,12.9048334 C1.79046294,13.1251322 1.62873115,13.5323196 1.6291365,13.9727084 C1.62873115,14.4130973 1.7900576,14.8200758 2.05211174,15.0405835 C2.31416589,15.2608823 2.63722413,15.2608823 2.89927827,15.0405835 C3.16133241,14.8202847 3.32286153,14.4130973 3.32245619,13.9727084 L3.32245619,13.9727084 Z" transform="translate(2.475796, 13.972708) rotate(204.639814) translate(-2.475796, -13.972708) "></path>
                            <path d="M2.5017605,16.2040412 C2.50216584,15.763651 2.34083971,15.3566712 2.07878608,15.1361629 C1.81652978,14.9158635 1.49347218,14.9158635 1.23162122,15.1361629 C0.969770266,15.3564624 0.808038793,15.763651 0.808444135,16.2040412 C0.808038793,16.6444313 0.969364924,17.0514111 1.23141855,17.2719194 C1.49347218,17.4922189 1.81652978,17.4922189 2.07858341,17.2719194 C2.34063704,17.0516199 2.50216584,16.6444313 2.5017605,16.2040412 L2.5017605,16.2040412 Z" transform="translate(1.655102, 16.204041) rotate(199.438388) translate(-1.655102, -16.204041) "></path>
                            <path d="M1.80686885,20.348713 C1.80727357,19.9948395 1.6461923,19.6678127 1.38453641,19.4906243 C1.12267815,19.3136036 0.800110877,19.3136036 0.53865735,19.4906243 C0.277203823,19.6676449 0.115717821,19.9948395 0.116122548,20.348713 C0.115717821,20.7025865 0.276799096,21.0296132 0.538454986,21.2068017 C0.800110877,21.3838223 1.12267815,21.3838223 1.38433404,21.2068017 C1.64598993,21.029781 1.80727357,20.7025865 1.80686885,20.348713 L1.80686885,20.348713 Z" transform="translate(0.961496, 20.348713) rotate(184.252670) translate(-0.961496, -20.348713) "></path>
                            <path d="M1.98823896,18.437467 C1.98864431,17.9970801 1.82731789,17.5901032 1.5652638,17.3695965 C1.30300703,17.1492986 0.979948857,17.1492986 0.718097437,17.3695965 C0.456246017,17.5898944 0.294514257,17.9970801 0.2949196,18.437467 C0.294514257,18.877854 0.455840674,19.2848308 0.717894766,19.5053375 C0.979948857,19.7256354 1.30300703,19.7256354 1.56506113,19.5053375 C1.82711522,19.2850397 1.98864431,18.877854 1.98823896,18.437467 L1.98823896,18.437467 Z" transform="translate(1.141579, 18.437467) rotate(192.841231) translate(-1.141579, -18.437467) "></path>
                        </g>
                        <path d="M81.0015,24.33125 C81.26975,24.044125 81.519375,23.963 81.835125,24.067625 C81.72375,23.310125 81.484,23.053125 81.192,23.144375 C80.9,23.235625 80.767875,23.625 81.0015,24.331375 L81.0015,24.33125 Z M81.411625,26.61675 C81.70075,26.350625 81.95575,26.2885 82.26275,26.41675 C82.20875,25.653 81.989,25.378625 81.691,25.4475 C81.393,25.5165 81.231875,25.894875 81.411625,26.61675 L81.411625,26.61675 Z M80.44125,22.24375 C80.627875,21.898 80.848625,21.756 81.180625,21.777125 C80.880625,21.07275 80.583375,20.885 80.324125,21.047375 C80.064875,21.209875 80.036,21.619875 80.441375,22.243875 L80.44125,22.24375 Z M79.42425,20.164 C79.61075,19.818125 79.8315,19.676125 80.1635,19.69725 C79.8635,18.992875 79.566375,18.805125 79.307,18.9675 C79.04775,19.13 79.018875,19.540125 79.42425,20.164 L79.42425,20.164 Z M76.98425,16.35225 C77.11275,15.981 77.308,15.805375 77.639,15.772875 C77.229625,15.125875 76.906125,14.98825 76.676375,15.19025 C76.446625,15.39225 76.483875,15.80175 76.98425,16.35225 L76.98425,16.35225 Z M75.389625,14.69125 C75.504,14.31525 75.69225,14.1325 76.021875,14.0875 C75.588375,13.45625 75.26,13.33125 75.038,13.541625 C74.815875,13.752125 74.86875,14.16 75.389625,14.69125 L75.389625,14.69125 Z M72.035875,11.861875 C72.028875,11.469 72.15175,11.237 72.4515,11.092625 C71.844625,10.62575 71.493625,10.607875 71.34725,10.876375 C71.201,11.145125 71.37675,11.516875 72.035875,11.861875 L72.035875,11.861875 Z M73.78075,13.17 C73.842,12.781875 74.003125,12.57475 74.32325,12.4845 C73.806375,11.9195 73.463875,11.841125 73.27325,12.08025 C73.0825,12.3195 73.19125,12.716125 73.78075,13.17 L73.78075,13.17 Z M70.04525,10.76325 C69.99775,10.37325 70.096,10.129875 70.37925,9.955375 C69.7275,9.5535 69.3765,9.571875 69.258625,9.854125 C69.14075,10.1365 69.354,10.488125 70.04525,10.76325 L70.04525,10.76325 Z M68.011,9.87525 C67.90825,9.495875 67.970625,9.241 68.226,9.02775 C67.5235,8.723375 67.17875,8.79175 67.102375,9.088 C67.026125,9.38425 67.2875,9.70175 68.011,9.87525 L68.011,9.87525 Z M65.819125,9.196125 C65.684625,8.826875 65.72525,8.567625 65.961625,8.3335 C65.23575,8.08975 64.898,8.187 64.847125,8.488625 C64.796125,8.790375 65.0835,9.0845 65.819125,9.196125 L65.819125,9.196125 Z M63.66625,8.77925 C63.5055,8.42075 63.52725,8.15925 63.746,7.908625 C63.0045,7.717875 62.67475,7.839375 62.64575,8.144 C62.61675,8.4485 62.924625,8.721125 63.666375,8.77925 L63.66625,8.77925 Z M61.38625,8.6045 C61.189125,8.264625 61.18375,8.00225 61.375375,7.730375 C60.618,7.617625 60.302625,7.772625 60.305375,8.0785 C60.308125,8.384375 60.642625,8.62375 61.386375,8.6045 L61.38625,8.6045 Z M56.922,8.94075 C56.64875,8.6585 56.580125,8.405125 56.7005,8.095 C55.938375,8.168125 55.669625,8.394625 55.746125,8.690875 C55.8225,8.987125 56.204875,9.138625 56.922,8.940875 L56.922,8.94075 Z M59.119375,8.6515 C58.886875,8.33475 58.853125,8.0745 59.014375,7.783625 C58.249375,7.752875 57.9525,7.941 57.988125,8.244875 C58.02375,8.548625 58.382,8.7505 59.119375,8.6515 L59.119375,8.6515 Z M54.766,9.406625 C54.455,9.166375 54.350875,8.925375 54.425625,8.60125 C53.681875,8.783 53.44825,9.045625 53.566375,9.327875 C53.6845,9.61 54.084625,9.70525 54.766,9.406625 L54.766,9.406625 Z M50.63775,11.304625 C50.28675,11.128 50.13875,10.91125 50.150375,10.578875 C49.45475,10.89875 49.2755,11.201 49.445125,11.4555 C49.61475,11.710125 50.025625,11.7275 50.637875,11.304625 L50.63775,11.304625 Z M52.6285,10.28775 C52.3015,10.06975 52.180875,9.83675 52.232875,9.508125 C51.5035,9.741125 51.288875,10.019375 51.426375,10.29275 C51.563875,10.566 51.9695,10.633125 52.6285,10.28775 L52.6285,10.28775 Z M46.935,13.882625 C46.554875,13.783 46.364875,13.601875 46.307,13.274375 C45.69325,13.732125 45.581,14.065125 45.799875,14.27875 C46.018875,14.4925 46.424375,14.42375 46.934875,13.882625 L46.935,13.882625 Z M48.7015,12.436875 C48.33025,12.30775 48.15525,12.112375 48.123125,11.78125 C47.475375,12.189625 47.337375,12.51275 47.539,12.742875 C47.7405,12.973 48.15025,12.936375 48.7015,12.436875 L48.7015,12.436875 Z M45.36525,15.42875 C44.977625,15.364 44.772,15.201 44.684625,14.88 C44.115,15.39175 44.033375,15.733625 44.270875,15.926375 C44.508375,16.11925 44.905875,16.014 45.36525,15.42875 L45.36525,15.42875 Z M43.95875,17.254125 C43.566875,17.224875 43.34725,17.081125 43.231,16.769375 C42.71025,17.330625 42.660125,17.6785 42.914125,17.849 C43.168125,18.0195 43.5545,17.878625 43.958625,17.254 L43.95875,17.254125 Z M42.781625,19.12075 C42.39,19.151875 42.151,19.0435 41.988375,18.75325 C41.559625,19.387625 41.563375,19.739 41.8405,19.868625 C42.117625,19.99825 42.477875,19.799875 42.78175,19.12075 L42.781625,19.12075 Z M41.74825,21.114625 C41.363875,21.196375 41.112875,21.119875 40.914,20.85325 C40.57125,21.537875 40.6205,21.88575 40.912125,21.97825 C41.20375,22.070875 41.535125,21.827375 41.748375,21.114625 L41.74825,21.114625 Z M40.9215,23.160875 C40.555,23.302375 40.295,23.266625 40.0565,23.034875 C39.8265,23.765125 39.93025,24.100875 40.23275,24.146125 C40.53525,24.191375 40.824,23.898375 40.9215,23.160875 L40.9215,23.160875 Z M40.367875,25.43975 C40.011625,25.6055 39.74975,25.58725 39.49625,25.372 C39.31575,26.116 39.441625,26.444125 39.746625,26.468875 C40.051625,26.49375 40.319875,26.182125 40.367875,25.43975 L40.367875,25.43975 Z M40.142625,27.338 C39.80725,27.515625 39.545875,27.536625 39.27175,27.402375 C39.172,28.008625 39.33175,28.248375 39.6365,28.22675 C39.94125,28.205125 40.174,27.92525 40.14275,27.338 L40.142625,27.338 Z M78.515875,18.310375 C78.65,17.941 78.84775,17.768375 79.17925,17.740875 C78.77975,17.08775 78.4585,16.945375 78.225625,17.14375 C77.99275,17.342125 78.024,17.75225 78.515875,18.31025 L78.515875,18.310375 Z M81.661875,28.93375 C81.951,28.667625 82.205875,28.6055 82.512875,28.73375 C82.459,27.97 82.23925,27.695625 81.94125,27.764625 C81.64325,27.8335 81.482125,28.211875 81.661875,28.93375 L81.661875,28.93375 Z" id="Shape" fill="#FFE300"></path>
                        <path d="M78.665,16.50125 C78.655625,16.50125 77.79925,17.35775 77.948125,18.40025 C78.097125,19.442875 78.758125,20.7275 78.637,21.807375 C78.516,22.88725 78.3205,23.604 78.3205,23.604 C78.3205,23.604 79.325875,22.459 79.33525,21.3605 C79.3445,20.262 78.646375,18.81925 78.646375,18.00925 C78.646375,17.19925 78.683625,16.48275 78.665,16.501375 L78.665,16.50125 Z M80.256375,20.00075 C80.256375,20.00075 79.586125,20.494125 79.651375,21.629875 C79.716375,22.7655 80.889375,24.85075 80.889375,24.85075 C80.889375,24.85075 81.74575,26.610125 81.717875,27.06625 C81.689875,27.522375 81.876125,26.62875 81.792375,25.623375 C81.708625,24.618 80.414625,22.4025 80.414625,22.4025 C80.414625,22.4025 80.135375,21.946375 80.163375,21.192375 C80.19125,20.438375 80.265625,20.010125 80.256375,20.00075 L80.256375,20.00075 Z" id="Shape" fill="#217900"></path>
                        <path d="M60.11575,5.92875 C60.11575,5.69375 59.8515,5.503125 59.52525,5.503125 C59.199,5.503125 58.93475,5.69375 58.934875,5.92875 C58.93475,6.16375 59.199125,6.354375 59.52525,6.354375 C59.851375,6.354375 60.115875,6.163875 60.11575,5.92875 L60.11575,5.92875 Z M60.368125,6.91875 C60.368125,6.69325 60.096,6.5105 59.76025,6.5105 C59.424625,6.5105 59.1525,6.69325 59.1525,6.918625 C59.1525,7.144 59.424625,7.32675 59.76025,7.32675 C60.096,7.32675 60.368125,7.144125 60.368125,6.918625 L60.368125,6.91875 Z M61.123125,5.7465 C61.123125,5.7465 60.428375,6.2675 60.715,6.475875 C61.0015,6.68425 61.79175,6.024375 61.79175,6.024375 L61.123,5.7465 L61.123125,5.7465 Z M81.54,17.675 C81.54025,17.527 81.47075,17.39 81.357875,17.315875 C81.2475843,17.2417672 81.1034157,17.2417672 80.993125,17.315875 C80.880375,17.39 80.810875,17.527 80.811125,17.675 C80.810875,17.823125 80.880375,17.96 80.993125,18.03425 C81.1034157,18.1083578 81.2475843,18.1083578 81.357875,18.03425 C81.47075,17.960125 81.54025,17.823125 81.54,17.675 L81.54,17.675 Z M81.274625,16.681875 C81.274625,16.434875 81.104,16.234625 80.893625,16.234625 C80.68325,16.234625 80.512625,16.434875 80.512625,16.681875 C80.512625,16.928875 80.683125,17.129125 80.893625,17.129125 C81.104125,17.129125 81.274625,16.928875 81.274625,16.681875 L81.274625,16.681875 Z M81.457375,18.702 C81.457375,18.573875 81.390625,18.47 81.30825,18.47 C81.225875,18.47 81.159125,18.57375 81.159125,18.702 C81.159125,18.83025 81.225875,18.933875 81.30825,18.933875 C81.390625,18.933875 81.457375,18.830125 81.457375,18.702 L81.457375,18.702 Z M82.06975,16.89625 C82.06975,16.74975 82.003,16.63125 81.920625,16.63125 C81.838375,16.63125 81.771625,16.74975 81.771625,16.89625 C81.771625,17.04275 81.838375,17.16125 81.920625,17.16125 C82.003,17.16125 82.06975,17.0425 82.06975,16.89625 L82.06975,16.89625 Z M80.39675,17.079 C80.39675,16.96 80.33,16.863625 80.247625,16.863625 C80.16525,16.863625 80.0985,16.96 80.0985,17.079 C80.0985,17.197875 80.16525,17.29425 80.247625,17.29425 C80.33,17.29425 80.39675,17.197875 80.39675,17.079 L80.39675,17.079 Z M80.662125,18.504 C80.662125,18.31175 80.52125,18.156 80.347375,18.156 C80.1735,18.156 80.032625,18.31175 80.032625,18.504 C80.032625,18.696125 80.1735,18.852 80.347375,18.852 C80.52125,18.852 80.66225,18.696125 80.662125,18.504 L80.662125,18.504 Z M79.83325,17.874125 C79.83325,17.7095 79.7145,17.576 79.56825,17.576 C79.42175,17.576 79.30325,17.7095 79.30325,17.874125 C79.30325,18.03875 79.42175,18.17225 79.56825,18.17225 C79.7145,18.17225 79.83325,18.03875 79.83325,17.874125 L79.83325,17.874125 Z M79.701625,17.028875 C79.701625,16.940125 79.6575,16.857875 79.58575,16.813375 C79.5147641,16.7689068 79.4246109,16.7689068 79.353625,16.813375 C79.281875,16.857875 79.237625,16.94 79.23775,17.028875 C79.23775,17.11775 79.281875,17.199875 79.353625,17.244375 C79.4246109,17.2888432 79.5147641,17.2888432 79.58575,17.244375 C79.6575,17.199875 79.70175,17.11775 79.701625,17.028875 L79.701625,17.028875 Z M83.477375,21.324625 C83.13525,20.873 82.587375,20.68275 82.25375,20.899625 C81.92025,21.1165 81.92725,21.658375 82.269375,22.109875 C82.6115,22.5615 83.159375,22.75175 83.493,22.534875 C83.8265,22.318 83.8195,21.776125 83.477375,21.324625 L83.477375,21.324625 Z M84.449875,29.656125 C84.516125,29.102 84.245875,28.614 83.846125,28.566125 C83.4465,28.51825 83.068625,28.928625 83.002375,29.482875 C82.936125,30.037 83.206375,30.525 83.606125,30.572875 C84.00575,30.620625 84.383625,30.21025 84.449875,29.656125 L84.449875,29.656125 Z M84.6555,34.5055 C84.76925,33.95925 84.54225,33.449625 84.148125,33.3675 C83.754125,33.285375 83.34225,33.661625 83.228375,34.208 C83.1145,34.75425 83.341625,35.263875 83.735625,35.346 C84.12975,35.428125 84.5415,35.051875 84.6555,34.5055 L84.6555,34.5055 Z M85.589875,29.966125 C85.589875,29.7465 85.4415,29.568625 85.258625,29.568625 C85.07575,29.568625 84.92725,29.7465 84.92725,29.966125 C84.92725,30.185625 85.075625,30.363625 85.2585,30.363625 C85.441375,30.363625 85.589875,30.185625 85.589875,29.966125 L85.589875,29.966125 Z M84.778375,30.877625 L84.09925,31.648 C84.09925,31.648 83.4615,31.6645 83.494625,31.871625 C83.52775,32.078625 84.3725,32.699875 84.36425,32.948375 C84.356,33.196875 84.9275,32.890375 84.9275,32.890375 C84.9275,32.890375 85.383,31.507125 85.383,31.498875 C85.383,31.490625 85.358125,30.538 85.10975,30.554625 C84.86125,30.57125 84.793875,30.860125 84.7785,30.87775 L84.778375,30.877625 Z M40.104625,30.573125 C40.104625,30.394599 39.959901,30.249875 39.781375,30.249875 C39.602849,30.249875 39.458125,30.394599 39.458125,30.573125 C39.458125,30.751651 39.602849,30.896375 39.781375,30.896375 C39.959901,30.896375 40.104625,30.751651 40.104625,30.573125 L40.104625,30.573125 Z M40.40925,29.585375 C40.40925,29.396875 40.2645,29.244125 40.086,29.244125 C39.9075,29.244125 39.76275,29.396875 39.76275,29.585375 C39.76275,29.773875 39.907375,29.926625 40.086,29.926625 C40.2645,29.926625 40.40925,29.773875 40.40925,29.585375 L40.40925,29.585375 Z M37.755,24.88825 C37.63375,24.6165 37.38125,24.465 37.191,24.549875 C37.000875,24.634875 36.945,24.923875 37.066125,25.195625 C37.187375,25.46725 37.439875,25.61875 37.630125,25.533875 C37.82025,25.449 37.876125,25.16 37.755,24.88825 L37.755,24.88825 Z M38.556625,27.8145 C38.390125,27.46225 38.043375,27.265875 37.782,27.375875 C37.520625,27.485875 37.443875,27.860625 37.6105,28.21275 C37.777125,28.564875 38.123875,28.76125 38.385125,28.65125 C38.646375,28.54125 38.72325,28.166625 38.556625,27.8145 L38.556625,27.8145 Z M39.415,29.960625 C39.468875,29.52075 39.286625,29.11675 39.007875,29.058125 C38.729125,28.999625 38.45925,29.308625 38.405375,29.7485 C38.351375,30.1885 38.533625,30.5925 38.812375,30.651 C39.091125,30.70975 39.361,30.4005 39.414875,29.960625 L39.415,29.960625 Z M38.03775,30.274 C38.21025,29.86575 38.145625,29.427125 37.893625,29.294375 C37.641625,29.161625 37.297375,29.385 37.124875,29.79325 C36.952375,30.2015 37.017125,30.640125 37.269125,30.77275 C37.521125,30.905375 37.865375,30.68225 38.037875,30.274 L38.03775,30.274 Z" id="Shape" fill="#6B18B5"></path>
                        <path d="M37.410125,29.3515 C37.410125,29.14325 37.249375,28.974375 37.051,28.974375 C36.852625,28.974375 36.69175,29.143125 36.69175,29.3515 C36.69175,29.559875 36.852625,29.728625 37.051,29.728625 C37.249375,29.728625 37.410125,29.559875 37.410125,29.3515 L37.410125,29.3515 Z M37.123,28.418125 C37.123,28.22975 36.97825,28.076875 36.79975,28.076875 C36.621125,28.076875 36.4765,28.22975 36.4765,28.418125 C36.4765,28.606625 36.621125,28.759375 36.79975,28.759375 C36.978375,28.759375 37.123,28.606625 37.123,28.418125 L37.123,28.418125 Z M37.428625,26.62225 C37.428625,26.30475 37.287875,26.0475 37.114375,26.0475 C36.94075,26.0475 36.800125,26.304875 36.800125,26.62225 C36.800125,26.939625 36.94075,27.196875 37.114375,27.196875 C37.288,27.196875 37.428625,26.939625 37.428625,26.62225 L37.428625,26.62225 Z M38.395625,26.484 C38.4375,26.1695 38.332,25.895875 38.16,25.873 C37.987875,25.85 37.8145,26.0865 37.772625,26.401125 C37.73075,26.71575 37.836375,26.989375 38.008375,27.01225 C38.180375,27.035125 38.35375,26.798625 38.395625,26.484 L38.395625,26.484 Z M45.28575,12.73675 C45.413875,12.29125 45.28175,11.843375 44.99075,11.736625 C44.69975,11.62975 44.359875,11.904375 44.231875,12.349875 C44.10375,12.7955 44.235875,13.24325 44.526875,13.350125 C44.818,13.456875 45.15775,13.18225 45.28575,12.73675 L45.28575,12.73675 Z M43.977125,14.7195 C44.361,14.392875 44.525,13.941125 44.343375,13.710625 C44.161875,13.48 43.7035,13.558 43.319625,13.884625 C42.93575,14.21125 42.771875,14.663 42.953375,14.893625 C43.135,15.124125 43.593375,15.046125 43.977125,14.7195 L43.977125,14.7195 Z M43.2135,13.619 C43.593125,13.3385 43.75525,12.95075 43.57575,12.75275 C43.39625,12.55475 42.942875,12.621875 42.56325,12.90225 C42.18375,13.18275 42.021625,13.5705 42.201125,13.7685 C42.380625,13.9665 42.834,13.899375 43.213625,13.619 L43.2135,13.619 Z M46.157125,11.683375 C46.413125,11.487625 46.5225,11.217125 46.401375,11.079 C46.28025,10.940875 45.974625,10.987625 45.718625,11.18325 C45.462625,11.378875 45.353375,11.6495 45.474375,11.787625 C45.5955,11.92575 45.901125,11.879 46.157125,11.683375 L46.157125,11.683375 Z" id="Shape" fill="#6B18B5"></path>
                        <path d="M44.62225,13.55875 C44.79725,13.288375 44.809,12.99675 44.6485,12.9075 C44.488,12.818375 44.216,12.96525 44.041,13.23575 C43.866,13.50625 43.854125,13.797875 44.014625,13.887 C44.175125,13.97625 44.447125,13.829375 44.622125,13.558875 L44.62225,13.55875 Z M46.837,12.39975 C47.11225,12.16775 47.2195,11.8605 47.0765,11.7135 C46.933625,11.56625 46.5945,11.635125 46.31925,11.867125 C46.044,12.099125 45.93675,12.406375 46.07975,12.553375 C46.222625,12.700625 46.56175,12.63175 46.837,12.39975 L46.837,12.39975 Z M42.835,15.1035 C43.092375,15.090625 43.2865,14.9625 43.26875,14.81725 C43.251125,14.671875 43.028125,14.5645 42.770875,14.577375 C42.5135,14.59025 42.31925,14.718375 42.337,14.863625 C42.35475,15.009 42.577625,15.116375 42.835,15.1035 L42.835,15.1035 Z M47.68,10.962875 C47.855,10.692375 47.866875,10.40075 47.70625,10.311625 C47.54575,10.222375 47.27375,10.369375 47.09875,10.639875 C46.92375,10.910375 46.911875,11.202 47.0725,11.291125 C47.233,11.380375 47.505,11.233375 47.68,10.962875 L47.68,10.962875 Z" id="Shape" fill="#6B18B5"></path>
                        <path d="M76.85375,19.171875 C76.85375,19.171875 77.652,17.908375 77.343375,16.71925 C77.034625,15.529875 75.717625,16.370375 75.745875,16.793625 C75.774375,17.21675 76.597125,17.783 76.647125,18.04125 C76.697125,18.2995 76.554125,19.094 76.85375,19.171875 L76.85375,19.171875 Z" id="Shape" stroke="#EF8A10" stroke-width="0.96770688" fill="#FFD200"></path>
                        <path d="M61.610375,8.662875 C61.610375,8.662875 64.486875,8.774625 64.505375,10.636375 C64.496125,10.924875 64.505375,11.269375 64.403125,12.09775 C64.970875,11.790625 65.352625,10.934125 65.278125,10.385 C65.287375,8.49525 62.708875,7.20125 61.610375,8.66275 L61.610375,8.662875 Z" id="Shape" stroke="#000000" stroke-width="0.1" fill="#217900"></path>
                        <path d="M59.78625,8.579125 C59.78625,8.579125 62.104,8.095 62.122625,9.95675 C62.141375,11.8185 61.38725,12.116375 61.38725,12.116375 C61.38725,12.116375 63.16525,11.73475 63.1745,9.845125 C63.183875,7.955375 60.8845,7.117625 59.786125,8.579125 L59.78625,8.579125 Z" id="Shape" stroke="#000000" stroke-width="0.1" fill="#217900"></path>
                        <path d="M67.66025,48.744 C67.66025,48.744 78.50975,45.67925 81.785875,32.363875 C79.883625,46.0315 68.0125,50.364375 68.0125,50.364375 L67.66025,48.744 L67.66025,48.744 Z" id="Shape" stroke="#000000" stroke-width="0.1" fill="#F7DF73"></path>
                        <path d="M68.77325,49.573 C69.1085,49.573 69.93825,48.655125 70.41475,48.54925 C70.89125,48.443375 70.94425,47.96675 70.397,47.94925 C69.849875,47.9315 69.37325,48.567 69.37325,48.567 C69.37325,48.567 68.89675,48.972875 68.4025,49.025875 C67.908375,49.078875 68.226,49.696625 68.77325,49.573 L68.77325,49.573 Z" id="Shape" fill="#8C1800"></path>
                        <path d="M75.020875,44.91225 C75.020875,44.91225 73.89125,45.565375 74.050125,45.72425 C74.209,45.883 75.215125,45.1065 75.232625,45.08875 C75.250375,45.07125 75.656375,44.577 75.020875,44.91225 L75.020875,44.91225 Z" id="Shape" stroke="#8C1800" stroke-width="0.476999998" fill="#8C1800"></path>
                        <path d="M71.08475,47.8795 C71.08475,47.8795 70.749375,47.756 71.61425,47.42075 C72.47925,47.08525 72.42625,46.697 72.708625,46.538125 C72.991125,46.379375 73.591125,45.955625 73.714625,46.20275 C73.838125,46.449875 73.07925,46.944 72.90275,46.997 C72.72625,47.05 71.861375,47.84425 71.61425,47.914875 C71.367125,47.9855 71.190625,47.950125 71.08475,47.8795 L71.08475,47.8795 Z" id="Shape" fill="#8C1800"></path>
                        <path d="M76.69775,43.254375 C75.9565,44.083875 75.9565,44.06625 75.9565,44.06625" id="Shape" stroke="#8C1800" stroke-width="0.2"></path>
                        <path d="M77.810625,41.895 L77.104625,42.759875" id="Shape" stroke="#8C1800" stroke-width="0.1"></path>
                        <path d="M78.921625,40.1305 L78.12725,41.40125" id="Shape" stroke="#8C1800" stroke-width="0.1"></path>
                        <path d="M79.857,38.3305 L79.204,39.636625 M80.281,37.37625 L80.069125,37.835" id="Shape" stroke="#8C1800" stroke-width="0.1"></path>
                        <path id="Shape" stroke="#8C1800" stroke-width="1.39320534"></path>
                        <g transform="translate(39.375000, 31.750000)" id="Shape">
                            <path d="M0.06813763,16.7081127 C0.06813763,16.7081127 10.8187674,13.5881127 14.0649784,0.032683265 C12.1800283,13.946731 0.4171948,18.3577141 0.4171948,18.3577141 L0.06813763,16.7081127 L0.06813763,16.7081127 Z" stroke="#000000" stroke-width="0.1" fill="#F7DF73" transform="translate(7.066558, 9.195199) scale(-1, 1) translate(-7.066558, -9.195199) "></path>
                            <path d="M12.962125,17.552 C12.629875,17.552 11.807875,16.617625 11.335625,16.509875 C10.863375,16.402125 10.811,15.916875 11.353125,15.898875 C11.89525,15.881 12.3675,16.527875 12.3675,16.527875 C12.3675,16.527875 12.83975,16.941125 13.329375,16.995 C13.819125,17.049 13.504375,17.67775 12.962125,17.552 L12.962125,17.552 Z" fill="#8C1800"></path>
                            <path d="M7.39600684,12.8073156 C7.39600684,12.8073156 6.27662374,13.4720454 6.43408225,13.6338169 C6.59133385,13.7955883 7.58843314,13.0050126 7.60581358,12.9869435 C7.62340093,12.969087 8.02563397,12.4659161 7.39600684,12.8073156 L7.39600684,12.8073156 Z" stroke="#8C1800" stroke-width="0.488999963" fill="#8C1800" transform="translate(7.083704, 13.172232) scale(-1, 1) translate(-7.083704, -13.172232) "></path>
                            <path d="M10.671625,15.828 C10.671625,15.828 11.004,15.70225 10.147,15.360875 C9.29,15.0195 9.3425,14.624125 9.062625,14.462375 C8.78275,14.30075 8.188125,13.8695 8.06575,14.121125 C7.943375,14.37275 8.695375,14.87575 8.87025,14.929625 C9.04525,14.9835 9.902125,15.792125 10.147,15.864 C10.391875,15.935875 10.56675,15.899875 10.671625,15.828 L10.671625,15.828 Z" fill="#8C1800"></path>
                            <path d="M5.8444441,11.1194502 C5.1099136,11.9640206 5.1099136,11.9459515 5.1099136,11.9459515" stroke="#8C1800" stroke-width="0.1" transform="translate(5.477179, 11.532716) scale(-1, 1) translate(-5.477179, -11.532716) "></path>
                            <path d="M4.70664601,9.73557067 L4.0070833,10.6160667" stroke="#8C1800" stroke-width="0.1" transform="translate(4.356865, 10.175819) scale(-1, 1) translate(-4.356865, -10.175819) "></path>
                            <path d="M3.69340774,7.9392908 L2.9063221,9.23303746" stroke="#8C1800" stroke-width="0.1" transform="translate(3.299865, 8.586164) scale(-1, 1) translate(-3.299865, -8.586164) "></path>
                            <path d="M2.20634557,6.10687275 L1.559338,7.43654501 M2.62637287,5.13539358 L2.41656613,5.60263892" stroke="#8C1800" stroke-width="2.33256336" transform="translate(2.092855, 6.285969) scale(-1, 1) translate(-2.092855, -6.285969) "></path>
                            <path stroke="#8C1800" stroke-width="1.39953801" transform="translate(1.158967, 4.138405) scale(-1, 1) translate(-1.158967, -4.138405) "></path>
                        </g>
                        <path d="M82.3025,29.91275 C82.355875,30.748 83.173375,31.54775 82.8535,33.005 C82.44475,34.657625 81.00525,38.585125 81.254125,39.27825 C80.827625,38.69175 80.898625,38.14075 80.863125,37.32325 C80.8275,36.505875 82.05375,33.467 82.160375,32.43625 C82.160375,31.51225 82.24925,30.2505 82.3025,29.91275 L82.3025,29.91275 Z" id="Shape" fill="#217900"></path>
                        <path d="M82.3025,29.93025 C82.3025,29.93025 83.635375,31.6185 83.56425,32.951375 C83.49325,34.28425 82.74675,35.848 82.9955,36.541125 C82.569125,35.954625 82.4625,35.581375 82.426875,34.764 C82.391375,33.9465 83.084375,33.040125 82.94225,32.1515 C82.800125,31.263 82.28475,29.93025 82.3025,29.93025 L82.3025,29.93025 Z M38.640375,30.303375 C38.587125,31.138625 37.965125,31.884875 38.285,33.342125 C38.69375,34.994875 40.151,37.092 39.92,39.491125 C40.3465,38.904625 40.470875,38.247125 40.506375,37.429625 C40.542,36.612125 38.889125,33.857625 38.782625,32.826875 C38.782625,31.902875 38.69375,30.641125 38.640375,30.303375 L38.640375,30.303375 Z" id="Shape" stroke="#000000" stroke-width="0.1" fill="#217900"></path>
                        <path d="M38.640375,30.321875 C38.640375,30.321875 37.343125,31.956875 37.414125,33.289625 C37.431875,34.17825 39.066875,37.892375 38.818125,38.5855 C39.244625,37.999125 39.369,38.070125 39.351125,37.181625 C38.871375,34.906875 38.01825,33.449625 38.1605,32.561 C38.302625,31.6725 38.658,30.321875 38.640375,30.321875 L38.640375,30.321875 Z" id="Shape" stroke="#000000" stroke-width="0.1" fill="#217900"></path>
                        <polygon id="Shape" stroke="#000000" stroke-width="0.1" fill="#FFFFFF" points="60.8047786 15.3698081 64.0340195 25.3088473 74.4830287 25.3092843 66.0297929 31.4523742 69.2583056 41.3917047 60.8049242 35.2518196 52.3511058 41.3931614 55.5797642 31.4542678 47.1265284 25.3114694 57.5755376 25.3114694"></polygon>
                    </g>
                </g>
            </g>
        </g>
    </g>
</svg>