<?xml version="1.0" encoding="UTF-8" standalone="no"?>
<svg width="122px" height="60px" viewBox="0 0 122 60" version="1.1" xmlns="http://www.w3.org/2000/svg" xmlns:xlink="http://www.w3.org/1999/xlink">
    <!-- Generator: Sketch 3.8.2 (29753) - http://www.bohemiancoding.com/sketch -->
    <title>gi</title>
    <desc>Created with Sketch.</desc>
    <defs></defs>
    <g id="Page-1" stroke="none" stroke-width="1" fill="none" fill-rule="evenodd">
        <g id="gi">
            <g id="Group">
                <g>
                    <polygon id="Shape" fill="#DA000C" points="0 0 122 0 122 60 0 60"></polygon>
                    <polygon id="Shape" fill="#FFFFFF" points="0 0 122 0 122 40.195375 0 40.195375"></polygon>
                    <g transform="translate(43.656250, 5.625000)">
                        <g id="a" transform="translate(0.000000, 2.109375)">
                            <polygon id="Shape" fill="#000000" points="3.41484375 19.5241406 18.4148437 19.5241406 18.4148437 29.835 3.41484375 29.835"></polygon>
                            <path d="M11.2078125,28.3277344 L2.05078125,28.3277344 L0.02109375,29.6636719 L0.02109375,31.0792969 L11.2078125,31.0792969 L11.2078125,28.3277344 Z M7.37578125,22.4048438 C8.69390625,22.4048438 9.770625,23.5040625 9.770625,24.85875 L9.770625,28.3228125 L11.4916406,28.3228125 L11.4916406,15.1978125 L2.05101563,15.1978125 L2.05101563,28.3228125 L4.98070313,28.3228125 L4.98070313,24.85875 C4.98070313,23.5567969 6.03890625,22.4048438 7.37601563,22.4048438 L7.37578125,22.4048438 Z" id="Shape" stroke="#000000" stroke-width="0.1" fill="#DA000C"></path>
                            <polygon id="Shape" fill="#000000" points="5.28 6.31921875 9.62132813 6.31921875 9.62132813 14.2785938 5.28046875 14.2785938"></polygon>
                            <path d="M9.609375,13.044375 L5.81015625,13.044375 L5.81015625,11.6967188 L3.02484375,11.6967188 L3.02484375,13.044375 L1.1353125,13.044375 L1.1353125,11.6967188 L0.007265625,11.6967188 L0.007265625,14.143125 L9.609375,14.143125 L9.609375,13.044375 Z M1.1353125,14.1342188 L9.33140625,14.1342188 L9.33140625,15.1978125 L1.1353125,15.1978125 L1.1353125,14.1342188 Z M4.3875,3.42773438 L4.3875,11.6964844 L5.81015625,11.6964844 L5.81015625,9.4265625 C5.81015625,8.57578125 6.41085937,7.8796875 7.25109375,7.83703125 C7.27804687,7.835625 7.3040625,7.83703125 7.33148437,7.83703125 C7.75301116,7.83690691 8.15731586,8.00427062 8.45542428,8.30229112 C8.75353269,8.60031162 8.92101564,9.00456694 8.92101562,9.42609375 L8.92101562,11.6967188 L10.2761719,11.6967188 L10.2761719,3.42796875 L4.3875,3.42773438 Z M3.87421875,2.3071875 L3.87421875,3.4275 L10.7296875,3.4275 L10.7296875,2.3071875 L3.87421875,2.3071875 Z M2.9953125,0.16125 L2.9953125,2.3071875 L11.2207031,2.3071875 L11.2207031,0.161015625 L9.95367187,0.161015625 L9.95367187,1.2525 L8.42273437,1.2525 L8.42273437,0.161015625 L6.08601562,0.161015625 L6.08601562,1.2525 L4.55554687,1.2525 L4.55554687,0.161015625 L2.9953125,0.16125 Z M0.02109375,29.6634375 L11.25,29.6634375 L0.02109375,29.6634375 Z M18.515625,29.0186719 L10.9129687,29.0186719 L8.62078125,30.1244531 L8.62078125,31.7725781 L18.515625,31.7725781 L18.515625,29.0186719 Z" id="Shape" stroke="#000000" stroke-width="0.1" fill="#DA000C"></path>
                            <path id="Shape" stroke="#000000" stroke-width="1.875" fill="#DA000C"></path>
                        </g>
                        <g id="a-link" transform="translate(25.187500, 18.109375) scale(-1, 1) translate(-25.187500, -18.109375) translate(15.687500, 2.109375)">
                            <g id="a">
                                <polygon id="Shape" fill="#000000" points="3.41484375 19.5241406 18.4148437 19.5241406 18.4148437 29.835 3.41484375 29.835"></polygon>
                                <path d="M11.2078125,28.3277344 L2.05078125,28.3277344 L0.02109375,29.6636719 L0.02109375,31.0792969 L11.2078125,31.0792969 L11.2078125,28.3277344 Z M7.37578125,22.4048438 C8.69390625,22.4048438 9.770625,23.5040625 9.770625,24.85875 L9.770625,28.3228125 L11.4916406,28.3228125 L11.4916406,15.1978125 L2.05101563,15.1978125 L2.05101563,28.3228125 L4.98070313,28.3228125 L4.98070313,24.85875 C4.98070313,23.5567969 6.03890625,22.4048438 7.37601563,22.4048438 L7.37578125,22.4048438 Z" id="Shape" stroke="#000000" stroke-width="0.1" fill="#DA000C"></path>
                                <polygon id="Shape" fill="#000000" points="5.28 6.31921875 9.62132813 6.31921875 9.62132813 14.2785938 5.28046875 14.2785938"></polygon>
                                <path d="M9.609375,13.044375 L5.81015625,13.044375 L5.81015625,11.6967188 L3.02484375,11.6967188 L3.02484375,13.044375 L1.1353125,13.044375 L1.1353125,11.6967188 L0.007265625,11.6967188 L0.007265625,14.143125 L9.609375,14.143125 L9.609375,13.044375 Z M1.1353125,14.1342188 L9.33140625,14.1342188 L9.33140625,15.1978125 L1.1353125,15.1978125 L1.1353125,14.1342188 Z M4.3875,3.42773438 L4.3875,11.6964844 L5.81015625,11.6964844 L5.81015625,9.4265625 C5.81015625,8.57578125 6.41085937,7.8796875 7.25109375,7.83703125 C7.27804687,7.835625 7.3040625,7.83703125 7.33148437,7.83703125 C7.75301116,7.83690691 8.15731586,8.00427062 8.45542428,8.30229112 C8.75353269,8.60031162 8.92101564,9.00456694 8.92101562,9.42609375 L8.92101562,11.6967188 L10.2761719,11.6967188 L10.2761719,3.42796875 L4.3875,3.42773438 Z M3.87421875,2.3071875 L3.87421875,3.4275 L10.7296875,3.4275 L10.7296875,2.3071875 L3.87421875,2.3071875 Z M2.9953125,0.16125 L2.9953125,2.3071875 L11.2207031,2.3071875 L11.2207031,0.161015625 L9.95367187,0.161015625 L9.95367187,1.2525 L8.42273437,1.2525 L8.42273437,0.161015625 L6.08601562,0.161015625 L6.08601562,1.2525 L4.55554687,1.2525 L4.55554687,0.161015625 L2.9953125,0.16125 Z M0.02109375,29.6634375 L11.25,29.6634375 L0.02109375,29.6634375 Z M18.515625,29.0186719 L10.9129687,29.0186719 L8.62078125,30.1244531 L8.62078125,31.7725781 L18.515625,31.7725781 L18.515625,29.0186719 Z" id="Shape" stroke="#000000" stroke-width="0.1" fill="#DA000C"></path>
                                <path id="Shape" stroke="#000000" stroke-width="1.875" fill="#DA000C"></path>
                            </g>
                        </g>
                        <g transform="translate(12.421875, 29.531250)" stroke="#000000" id="Shape" stroke-width="0.1" fill="#F8D80E">
                            <g transform="translate(0.468750, 0.000000)">
                                <path d="M8.50710938,0.00703125 C7.88507813,0.21421875 7.3228125,0.5625 6.75632813,0.886875 C6.02976563,1.31578125 5.32523438,1.78382812 4.6696875,2.3165625 C4.43882813,2.4684375 4.21734375,2.6353125 4.03921875,2.8490625 C3.79898438,3.05484375 3.55546875,3.33070312 3.60140625,3.67242187 C3.613125,3.82289062 3.80601563,3.49523437 3.9328125,3.47929687 C4.15592088,3.35193052 4.41860586,3.31263646 4.66921875,3.36914062 C4.966875,3.05507812 5.35125,2.84484375 5.68289063,2.570625 C6.38695313,2.0446875 7.14445313,1.59328125 7.9153125,1.17328125 C8.184375,1.035 8.454375,0.8953125 8.74148438,0.7978125 L8.50710938,0.006796875 L8.50710938,0.00703125 Z"></path>
                                <path d="M5.484375,1.73203125 L5.484375,2.64914063 M6.05085937,1.33242188 L6.05085937,2.2425 M6.61710937,0.9796875 L6.61710937,1.88390625 M7.18359375,0.63140625 L7.18359375,1.56421875"></path>
                                <path d="M0.44296875,0.0365625 L0.165,0.813046875 C1.4625,1.30523437 2.698125,1.95609375 3.86742187,2.70210937 C4.26398437,2.97164062 4.68023437,3.23296875 4.99171875,3.60328125 C5.06039062,3.793125 4.87125,3.9525 4.68375,3.89484375 C4.5121875,3.83625 4.34320312,3.76992187 4.16203125,3.89367187 C3.90257812,4.0115625 3.6684375,4.39523437 4.0621875,4.52414062 C4.605,4.88882812 5.48789062,4.73039062 5.74875,4.09195312 C5.8846875,3.76382812 5.89359375,3.343125 5.6296875,3.07382812 C5.14617187,2.51976562 4.50539062,2.13445312 3.890625,1.74445312 C2.79140625,1.08351562 1.64671875,0.484921875 0.443671875,0.036328125 L0.44296875,0.0365625 Z"></path>
                                <path d="M3.99609375,1.88320313 L3.92273437,2.66601563 M4.648125,2.2828125 L4.44609375,3.04921875 M5.3446875,2.8153125 L4.9209375,3.40992188 M5.55820312,4.2609375 L4.94648437,3.9328125 M5.74875,3.61640625 L5.04679687,3.68203125 M4.84335937,4.63242188 L4.7953125,4.0153125 M4.58625,3.9271875 L4.00664062,4.35421875 M1.79929687,0.688359375 L1.79929687,1.4184375 M3.27257812,1.4634375 L3.27257812,2.29171875 M2.5359375,1.07648438 L2.5359375,1.85460938"></path>
                            </g>
                            <path d="M0.1828125,18.1788281 L0.1828125,20.0608594 L1.3621875,20.0608594 L1.3621875,19.1163281 L2.96625,19.1163281 L2.96625,20.0608594 L4.23328125,20.0608594 L4.23328125,18.1788281 L0.1828125,18.1788281 Z M0.1828125,20.7714844 L0.1828125,22.66125 L4.23328125,22.66125 L4.23328125,20.7714844 L2.96625,20.7714844 L2.96625,21.7160156 L1.3621875,21.7160156 L1.3621875,20.7714844 L0.1828125,20.7714844 Z"></path>
                            <polygon points="4.2309375 10.2304688 5.40046875 10.2304688 5.40046875 23.8514063 4.2309375 23.8514063"></polygon>
                            <polygon points="4.2309375 11.409375 5.40046875 11.409375 5.40046875 23.1421875 4.2309375 23.1421875"></polygon>
                            <path d="M4.81570312,6.89203125 L7.3059375,8.34234375 L4.81570312,9.78515625 L2.32546875,8.34234375 L4.81570312,6.89203125 Z M1.48289062,7.8225 L0.831328125,7.8225 L0.831328125,8.8621875 L1.48289062,8.8621875 L4.81570312,10.7957813 L8.14851562,8.8621875 L8.80007812,8.8621875 L8.80007812,7.82226562 L8.14851562,7.82226562 L4.81570312,5.88867188 L1.48289062,7.8225 Z"></path>
                            <path d="M4.768125,3.346875 C4.2009375,3.4265625 3.77765625,3.98671875 3.80859375,4.55039063 C3.8109375,5.42648438 3.804375,6.30257813 3.811875,7.17867188 C3.84234375,7.7428125 4.33523437,8.24859375 4.90757812,8.25375 C5.37257812,8.2978125 5.83992187,8.0259375 6.03492187,7.6021875 L5.63226562,7.36078125 C5.52820312,7.63804688 5.22820312,7.81007813 4.93617187,7.77796875 C4.55320312,7.78875 4.24289062,7.41609375 4.27710937,7.0434375 C4.27945312,6.17320313 4.27242187,5.3025 4.280625,4.4325 C4.30171875,4.0771875 4.64039062,3.78679688 4.995,3.823125 C5.14171875,3.7809375 5.34351562,3.9815625 5.43445312,3.80835938 C5.57109375,3.61382813 5.3371875,3.4621875 5.20710937,3.354375 C5.0634375,3.33445313 4.9134375,3.3525 4.76789062,3.346875 L4.768125,3.346875 Z M6.1228125,4.26257813 C6.03023437,4.43742188 5.83804687,4.54148438 5.68359375,4.63289063 L5.68359375,6.39398438 L6.15234375,6.66515625 C6.15046875,5.91421875 6.15609375,5.16328125 6.15,4.4128125 C6.14226562,4.36640625 6.14765625,4.295625 6.12304687,4.2628125 L6.1228125,4.26257813 Z"></path>
                        </g>
                        <g transform="translate(8.906250, 0.000000)" id="Shape">
                            <polygon fill="#000000" points="4.87570313 3.36328125 11.7499219 3.36328125 11.7499219 15.8451563 4.87570313 15.8451563"></polygon>
                            <path d="M4.39453125,3.36914062 L4.39453125,13.8135937 L6.57726562,13.8135937 L6.57726562,10.7151562 C6.57726562,10.0007812 7.03476562,9.00890625 8.4375,9.00890625 C9.84023438,9.00890625 10.2979687,10.0007812 10.2979687,10.7151562 L10.2979687,13.8135937 L12.4804688,13.8135937 L12.4804688,3.36890625 L4.39453125,3.36914062 Z M8.10070312,4.54101562 L8.77453125,4.54101562 L8.77453125,8.11523437 L8.10070312,8.11523437 L8.10070312,4.54101562 Z M6.16710937,5.24414062 L6.84820312,5.24414062 L6.84820312,7.85859375 L6.166875,7.85859375 L6.16710937,5.24414062 Z M10.0267969,5.24414062 L10.7083594,5.24414062 L10.7083594,7.85859375 L10.0270313,7.85859375 L10.0267969,5.24414062 Z M3.65484375,1.86796875 L3.65484375,3.35460937 L13.2201563,3.35460937 L13.2201563,1.86773437 L3.65484375,1.86796875 Z M2.75390625,0.13921875 L2.75390625,1.86773437 L14.1210938,1.86773437 L14.1210938,0.138984375 L12.6928125,0.138984375 L12.6928125,1.09101562 L11.0814844,1.09101562 L11.0814844,0.138984375 L9.24351563,0.138984375 L9.24351563,1.09101562 L7.6321875,1.09101562 L7.6321875,0.138984375 L5.79375,0.138984375 L5.79375,1.09101562 L4.1821875,1.09101562 L4.1821875,0.138984375 L2.75390625,0.13921875 Z M0.64453125,17.3071875 L0.64453125,18.3839062 L16.2304688,18.3839062 L16.2304688,17.3071875 L0.64453125,17.3071875 Z" stroke="#000000" stroke-width="0.1" fill="#DA000C"></path>
                            <polygon stroke="#000000" stroke-width="0.1" fill="#DA000C" points="0.00703125 13.8060937 0.00703125 17.3071875 16.8679688 17.3071875 16.8679688 13.8060937 15.2709375 13.8060937 15.2709375 15.15375 13.1470313 15.15375 13.1470313 13.8060937 10.2979688 13.8060937 10.2979688 15.15375 6.57726563 15.15375 6.57726563 13.8060937 3.72796875 13.8060937 3.72796875 15.15375 1.6040625 15.15375 1.6040625 13.8060937"></polygon>
                            <path d="M2.03625,18.3839062 L2.03625,31.1205469 L5.04632813,31.1205469 L5.04632813,26.3526563 C5.04632813,24.106875 6.54585938,23.0496094 8.43773438,23.0496094 C10.2564844,23.0496094 11.8291406,24.1066406 11.8291406,26.3528906 L11.8291406,31.1207813 L14.8389844,31.1207813 L14.8389844,18.3841406 L2.03625,18.3839062 Z" stroke="#000000" stroke-width="0.1" fill="#DA000C"></path>
                        </g>
                    </g>
                </g>
            </g>
        </g>
    </g>
</svg>