<?xml version="1.0" encoding="UTF-8" standalone="no"?>
<svg width="122px" height="60px" viewBox="0 0 122 60" version="1.1" xmlns="http://www.w3.org/2000/svg" xmlns:xlink="http://www.w3.org/1999/xlink">
    <!-- Generator: Sketch 3.8.2 (29753) - http://www.bohemiancoding.com/sketch -->
    <title>vi</title>
    <desc>Created with Sketch.</desc>
    <defs></defs>
    <g id="Page-1" stroke="none" stroke-width="1" fill="none" fill-rule="evenodd">
        <g id="vi">
            <g id="Group">
                <g>
                    <polygon id="Shape" fill="#FFFFFF" points="0 0 122 0 122 60 0 60"></polygon>
                    <path d="M46.5435,39.3665 C46.5435,39.3665 46.47875,38.928 47.3115,38.6065 C48.144,38.284875 48.209,37.08625 48.042375,36.28725 C48.042375,36.28725 47.607375,37.04725 47.079875,37.300625 C47.079875,37.300625 46.2195,37.748875 46.180125,38.605125 C46.180125,38.605125 46.17325,38.918375 46.1085,39.161875 C46.073,39.29525 45.692,38.090125 46.41375,37.193625 C47.1585,36.268625 47.36675,35.517625 46.7745,34.056125 C46.7745,34.056125 46.719,34.94275 46.136125,35.449375 C45.553375,35.956125 45.47925,35.995125 45.488625,37.203375 C45.488625,37.203375 45.497875,37.622375 45.27575,37.75875 C45.27575,37.75875 44.822375,37.096 44.702,36.6575 C44.582,36.219125 44.526375,36.03375 45.0445,35.52725 C45.0445,35.52725 46.7045,34.45475 45.507,32.107 C45.507,32.107 45.470125,32.91575 44.8965,33.39325 C44.32275,33.87075 44.369,34.19225 44.34125,35.0205 C44.31375,35.84875 44.258125,35.7905 44.193375,35.90725 C44.193375,35.90725 43.138625,33.968125 43.952875,32.93525 C44.767,31.902375 45.220375,31.688 44.322875,29.768375 C44.322875,29.768375 44.362875,30.752625 43.644125,31.239625 C42.92575,31.727125 43.092375,32.867125 43.092375,32.867125 C43.092375,32.867125 43.138625,33.295875 42.9905,33.607625 C42.9905,33.607625 41.97425,31.625375 42.94425,30.557875 C43.767625,29.651625 43.82325,29.01825 43.37925,27.732 C43.37925,27.732 43.3235,28.326375 42.87025,28.648 C42.416875,28.9695 42.056,29.291125 42.13925,30.528625 C42.13925,30.528625 42.17625,31.39575 42.06525,31.639375 C42.06525,31.639375 41.639625,30.850125 41.519375,30.33375 C41.399125,29.817125 41.35275,29.515 41.667375,28.99875 C41.982,28.48225 43.231125,27.00125 41.741375,24.867125 C41.741375,24.867125 41.695125,25.559 41.31575,26.182625 C40.936375,26.806375 41.11225,27.546875 41.1955,28.112 C41.27875,28.67725 41.00125,29.222875 41.00125,29.222875 C41.00125,29.222875 40.35375,28.034125 40.4925,26.669875 C40.63125,25.30575 40.07625,24.185125 38.81775,23.376375 C38.81775,23.376375 37.90175,25.500625 39.150875,26.58225 C39.150875,26.58225 40.214875,27.63475 40.483375,28.911 C40.483375,28.911 39.678375,28.833125 38.947125,27.4105 C38.216375,25.988 36.699,26.21175 36.597125,26.202125 C36.597125,26.202125 36.847125,28.404375 39.178625,29.028 C39.178625,29.028 40.668125,29.281375 40.945625,30.372625 C40.945625,30.372625 41.195625,31.123 41.29725,31.522625 C41.29725,31.522625 40.82525,31.337375 40.390375,30.69425 C39.955375,30.051125 40.011,29.973 38.539875,29.827 C38.539875,29.827 37.947875,29.75875 37.63325,29.33975 C37.63325,29.33975 38.25325,31.6685 39.8445,31.649125 C39.8445,31.649125 41.29725,31.49325 42.1115,33.403125 C42.1115,33.403125 41.954,33.305625 41.7415,33.159375 C41.5285,33.013375 40.991875,32.740625 39.92775,32.867125 C38.864,32.993875 38.56775,32.818375 38.2995,32.730875 C38.2995,32.730875 39.37275,34.699125 40.890125,34.114625 C42.407625,33.529625 43.1405,35.66175 43.157,35.70275 C43.157,35.70275 42.9535,35.547 42.685125,35.284 C42.41675,35.02075 41.85975,34.6965 40.806875,35.0305 C40.806875,35.0305 40.048125,35.323 39.28025,35.089 C39.28025,35.089 40.02025,36.5215 41.750625,36.27775 C43.480875,36.034 43.915625,37.55425 43.915625,37.55425 C43.915625,37.55425 43.684375,37.418 43.527125,37.291125 C43.369625,37.1645 42.786875,36.833125 41.537875,37.203625 C40.28875,37.573625 39.835375,37.144875 39.835375,37.144875 C39.835375,37.144875 40.529125,38.41175 41.861625,38.557875 C41.861625,38.557875 42.601875,38.54825 42.916375,38.431375 C43.231,38.314375 44.063875,38.12925 44.637375,38.957625 C44.637375,38.957625 44.480125,38.98675 44.2395,38.879625 C44.2395,38.879625 43.35125,38.558 42.67575,39.123125 C42.67575,39.123125 42.0745,39.736875 41.22325,39.620125 C41.22325,39.620125 42.32425,40.692 44.073,39.78575 C44.073,39.78575 44.665125,39.357 45.1,39.68825 C45.535,40.01975 46.5435,39.367 46.5435,39.367 L46.5435,39.3665 Z" id="Shape" stroke="#010002" stroke-width="0.1" fill="#369443"></path>
                    <g transform="translate(56.125000, 9.375000)" id="Shape" stroke="#010002" stroke-width="0.1">
                        <path d="M0.15125,3.5845 C0.15125,3.5845 -0.05175,1.771125 1.39725,1.59675 C2.9085,1.414875 3.65475,1.733125 3.65475,1.733125 L4.333375,3.064875 L4.099,3.96125 L3.1615,4.39 C3.1615,4.39 3.32175,3.012875 2.059375,2.98425 C1.7395,2.977 1.5515,3.103875 1.045625,3.023625 C0.536875,2.94275 0.26475,3.501875 0.151375,3.5845 L0.15125,3.5845 Z" fill="#F4C53D"></path>
                        <path d="M10.34725,8.07325 C10.131375,8.3525 9.267875,8.45 9.267875,8.45 C9.267875,8.45 10.156125,9.132125 10.5385,10.1065 C10.921,11.080875 0.243875,10.113 0.243875,10.113 C0.243875,10.113 0.706625,9.78175 1.021375,9.158 C1.021375,9.158 0.549375,9.3335 0.077625,8.86575 C0.077625,8.86575 0.428875,8.982625 0.891625,8.281125 C0.891625,8.281125 1.576375,7.404 2.0575,7.170125 C2.0575,7.170125 1.83525,7.306625 1.29875,7.01425 C1.29875,7.01425 2.22375,6.897375 2.557,5.31875 C2.557,5.31875 2.6125,4.968125 2.964,4.4615 C3.315625,3.95475 3.2415,4.559 3.88925,3.779375 C3.88925,3.779375 4.1855,3.22725 3.92625,2.889375 C3.66725,2.551625 3.389625,2.675125 2.846875,2.35025 C2.304,2.0255 2.0635,1.843625 2.2485,1.343375 C2.4335,0.843375 2.91475,0.921125 2.9825,0.921125 C3.050375,0.921125 3.0875,0.48575 3.679625,0.187 C4.27175,-0.11175 5.844625,0.01825 6.079,0.148 C6.313375,0.278 7.26325,0.55725 7.818375,1.9605 C8.373375,3.3635 7.670375,3.88975 9.181625,6.007375 C9.181625,6.007375 8.577125,6.137375 8.1885,6.020375 C8.1885,6.020375 8.97175,7.410375 10.34725,8.073125 L10.34725,8.07325 Z" fill="#F4C53D"></path>
                        <path d="M3.74125,2.152125 C2.510625,2.093625 2.9825,0.921125 2.9825,0.921125"></path>
                        <path d="M5.8785,2.312875 C5.8785,2.312875 5.661,2.210625 5.47725,1.967 C5.219,1.625125 4.64325,1.460375 4.3335,1.782 C4.3335,1.782 4.01875,2.132625 3.741,2.152 C3.741,2.152 4.05575,2.2495 4.27325,2.4495 C4.49075,2.649125 4.71725,2.79525 5.041125,2.751375 C5.364875,2.707625 5.41575,2.537125 5.568375,2.434875 C5.720875,2.332375 5.878375,2.313 5.878375,2.313 L5.8785,2.312875 Z" fill="#F4C53D"></path>
                    </g>
                    <path d="M46.351625,42.057 C46.351625,42.057 46.323875,41.26775 47.323125,41.20925 L50.26525,45.30175 C50.26525,45.30175 50.15425,45.564625 48.821875,45.5355 C48.821875,45.5355 48.680875,45.5345 48.606875,45.6905 C48.493125,45.92975 46.351625,42.057 46.351625,42.057 L46.351625,42.057 Z" id="Shape" stroke="#010002" stroke-width="0.1" fill="#369443"></path>
                    <g id="a" transform="translate(27.528081, 9.199156)" stroke="#010002" stroke-width="0.1">
                        <path d="M22.0540319,28.0942484 C22.0540319,28.0942484 21.1164817,29.7052463 19.9815229,29.731235 C19.9815229,29.731235 18.0292658,29.4935918 17.4772554,30.0040693 C17.0923367,30.3600447 16.700041,30.6536925 16.5397053,31.5631274 C16.3793131,32.4725623 16.8480881,32.6674493 16.9591188,32.7064229 C16.9591188,32.7064229 17.0454968,33.3560085 17.6869527,33.1871103 C17.6869527,33.1871103 17.7239692,33.8627034 18.8589092,33.5378918 C19.993868,33.2130801 20.4626431,33.3170349 20.6847043,32.1867055 C20.9067656,31.0564514 21.1117582,31.0749314 21.3138151,30.9394929 C21.585238,30.7576096 22.095132,30.5857004 22.4734265,30.3678545 C22.8133308,30.1721395 24.1141769,29.5103782 24.5582806,29.4584196 C25.0024031,29.4064798 24.9036987,27.912384 24.9036987,27.912384 L23.7564324,27.912384 L23.201317,27.0939001 L22.0540507,28.0942296 L22.0540319,28.0942484 Z M25.66742,20.0133078 C25.66742,20.0133078 24.520135,20.9487314 23.5579134,20.0133078 C23.5579134,20.0133078 23.1693063,20.4810102 22.3921295,20.3445931 C21.6149151,20.2081948 21.4854045,19.7989434 21.4113904,19.5651204 C21.4113904,19.5651204 20.7390341,19.9573032 20.1715735,19.6475466 C19.6040941,19.3377335 19.6040941,18.8700311 19.6040941,18.8700311 C19.6040941,18.8700311 18.6171824,19.0645793 18.1113908,18.3956669 C17.6056181,17.7267544 17.9140198,17.064165 18.1854238,16.9861989 C18.1854238,16.9861989 17.1184007,17.2657327 16.8284037,16.3495983 C16.5816899,15.570088 17.136843,15.1673291 17.136843,15.1673291 C17.136843,15.1673291 14.888567,15.1565272 13.9663918,14.4527812 C13.9663918,14.4527812 13.2015413,13.972075 13.6579901,13.465399 C13.6579901,13.465399 11.6348427,13.1405874 11.1290512,12.3351072 C11.1290512,12.3351072 10.9069899,12.1142504 10.9810229,11.7244764 C10.9810229,11.7244764 10.993368,11.5036196 11.2154104,11.4906158 C11.2154104,11.4906158 8.90823169,11.1342452 8.24238667,10.373309 C8.24238667,10.373309 7.9216399,10.0225275 8.08201329,9.55484394 C8.08201329,9.55484394 8.11594349,9.43139294 8.17145881,9.34859044 C8.17145881,9.34859044 6.07119221,8.90522069 5.03493774,7.9698159 C5.03493774,7.9698159 4.43674614,7.4368689 4.74512899,6.72232096 C4.74512899,6.72232096 1.23533802,5.76119094 2.04953124,4.21513654 C2.04953124,4.21513654 0.408818525,3.68247182 0.92693635,2.20137974 C0.92693635,2.20137974 -0.430083713,1.51280167 0.162085894,0.421502362 C0.728793731,-0.622938263 2.46898236,0.603366762 4.52954139,1.17349961 C4.52954139,1.17349961 10.1051606,2.92891261 12.8509668,3.3961069 L20.6527125,15.0114534 L25.2048175,16.7653609 L25.6673824,20.0133454 L25.66742,20.0133078 Z" id="Shape" fill="#F4C53D"></path>
                        <path d="M25.7229354,11.458097 C25.7229354,11.458097 24.9916952,10.9091541 23.6874429,11.5555405 C23.6874429,11.5555405 23.248345,11.8579202 22.9029457,11.5266349 C22.6143413,11.2498111 22.5872611,10.7394466 22.9842803,10.444745 C23.9557606,9.72368576 24.3166102,7.56052691 22.836252,6.66409575 C22.836252,6.66409575 20.6897289,5.3908944 12.818655,3.38784547 C12.818655,3.38784547 12.1591708,3.20498367 11.80758,3.29267905 C11.4204407,3.38921924 11.1537602,3.72140781 11.0990541,4.00564621 C11.0990541,4.00564621 10.7468612,5.00657789 11.9309558,5.57927009 C11.9309558,5.57927009 12.4655588,5.82391384 13.016553,5.98202897 C13.016553,5.98202897 12.411342,5.85120102 12.153017,6.44973137 C11.9063032,7.0213509 12.2640476,7.60599301 13.3743163,7.9827632 C13.3743163,7.9827632 13.6746259,8.09962764 14.1021691,8.20362005 C14.1021691,8.20362005 13.1522738,8.47643547 13.6087414,9.24297961 C13.6087414,9.24297961 14.0158286,10.0484597 15.4529789,10.1913693 C15.4529789,10.1913693 14.3797456,10.3082902 15.1384235,11.3281724 C15.1384235,11.3281724 15.4715154,11.8868258 16.5200961,12.0946977 C16.5200961,12.0946977 15.7244018,12.1206676 16.1253352,12.8352155 C16.5262687,13.5498011 17.4697467,13.9525412 18.3981698,14.0175035 C18.3981698,14.0175035 18.9010068,14.043511 19.2525975,13.9655637 C19.2525975,13.9655637 18.3705627,14.4072963 18.8886805,15.1478329 C18.8886805,15.1478329 19.2710775,15.6740051 20.2271641,15.6480353 C20.2271641,15.6480353 19.9790012,16.4750064 20.6805078,16.7880751 C21.2264021,17.0316462 21.6797834,16.6418911 21.6797834,16.6418911 C21.6797834,16.6418911 21.4947198,17.528593 22.2904142,17.8404008 C22.2904142,17.8404008 22.6882426,18.0450171 23.2803933,17.8404008 C23.2803933,17.8404008 23.733737,18.8537905 25.3436435,18.1424418 C26.9534934,17.4311306 25.7229542,11.4580782 25.7229542,11.4580782 L25.7229354,11.458097 Z M25.8184217,20.6678051 C25.8184217,20.6678051 25.5822088,21.9360571 23.709028,23.5323952 C23.709028,23.5323952 22.263748,24.8072714 22.3007457,26.2753598 C22.3384396,27.7703213 22.0416868,27.9383351 21.4742262,28.4450111 C21.4742262,28.4450111 22.6461638,28.5359621 23.2136432,27.756433 C23.2136432,27.756433 23.188953,29.0556231 23.0162346,29.172544 C23.0162346,29.172544 23.3838024,29.1959921 23.916787,28.6139094 C23.916787,28.6139094 24.2375338,28.2761128 24.5336092,28.146207 C24.5336092,28.146207 24.1881722,29.042657 24.4595762,29.8741446 C24.4595762,29.8741446 24.5459543,29.549333 25.0023654,29.4064234 C25.0023654,29.4064234 25.8288849,29.2375251 26.1496317,28.0422522 C26.1496317,28.0422522 26.3593479,27.249757 27.6546612,26.548194 C27.6546612,26.548194 29.1226555,25.9945464 29.085639,25.2709654 C29.0486601,24.547441 25.8183652,20.6678239 25.8183652,20.6678239 L25.8184217,20.6678051 Z" id="Shape" fill="#F4C53D"></path>
                        <path d="M32.6227548,37.0197181 C32.6227548,37.0197181 32.2864637,38.5036894 31.1177252,38.3838893 C31.1177252,38.3838893 30.2911681,38.3059232 30.352856,36.9287671 C30.352856,36.9287671 29.1315567,37.5783527 28.9341857,35.9673548 C28.9341857,35.9673548 27.8239171,36.2271852 27.8362622,34.7201233 C27.8362622,34.7201233 26.8000077,34.9020065 26.9233646,33.5638428 C26.9233646,33.5638428 25.8007697,33.8626846 25.8007697,32.6024305 C25.8007697,32.6024305 23.1731453,32.1666447 28.6504554,27.1717909 L33.5356147,30.0819601 L32.6227171,37.0196804 L32.6227548,37.0197181 Z" id="Shape" fill="#F4C53D"></path>
                        <path d="M33.1655628,30.3600447 C33.1655628,30.3600447 32.3513696,31.0824024 31.7715639,30.0040881 C31.7715639,30.0040881 30.9820421,29.9651333 30.8586663,29.3674874 C30.8586663,29.3674874 30.2171916,29.3025251 30.0938347,28.6918943 C30.0938347,28.6918943 29.2179724,28.6009621 29.2426626,27.8604254 C29.2426626,27.8604254 27.65022,27.737539 29.2421357,25.9346463 C30.8340138,24.1317724 33.53569,28.9257925 33.53569,28.9257925 L33.1655816,30.3600635 L33.1655628,30.3600447 Z M34.074038,29.9131559 C34.8632963,29.9131559 35.7576198,34.8435743 35.5255281,37.8140199 C35.4412201,38.8928612 34.8632963,39.7740303 34.074038,39.7740303 C33.2847796,39.7740303 32.7068558,38.8928612 32.6225478,37.8140575 C32.3904561,34.8435931 33.2847796,29.9131371 34.074038,29.9131371 L34.074038,29.9131559 Z" id="Shape" fill="#F4C53D"></path>
                        <ellipse id="Oval" fill="#F4C53D" cx="34.074038" cy="29.8741634" rx="1.0920897" ry="1.61749038"></ellipse>
                        <path d="M30.3528748,36.9287859 C30.3528748,36.9287859 30.4762317,34.317402 32.7395439,30.5756888 M28.9342045,35.9673736 C28.9342045,35.9673736 28.5826138,34.4603116 31.7715639,30.0040881 C31.7715639,30.0040881 31.4014744,28.938721 32.5364143,28.2566542 M27.8362433,34.7201421 C27.8362433,34.7201421 27.7375766,33.089648 30.8586663,29.3674686 C30.8586663,29.3674686 30.5829716,28.4060563 31.7138844,27.639531 M26.9233834,33.5638616 C26.9233834,33.5638616 27.0405866,31.9138901 30.0938159,28.6918755 C30.0938159,28.6918755 29.9410641,27.7044933 31.0351862,27.0938625 M25.8007509,32.602487 C25.8007509,32.602487 26.0228121,30.718636 29.2426062,27.8604066 C29.2426062,27.8604066 29.1315755,27.1198888 30.2048465,26.3663296" id="Shape"></path>
                        <path d="M0.926955169,2.2013421 C0.926955169,2.2013421 3.45589407,3.66555376 11.331748,5.12976543 M2.04955006,4.2150989 C2.04955006,4.2150989 8.89424936,6.44786831 12.0818257,6.72224569 M4.74514781,6.72224569 C4.74514781,6.72224569 8.7605045,7.98272556 13.4627079,8.77813767 M8.17143999,9.34853398 C8.17143999,9.34853398 12.7081137,10.4382337 14.8740013,10.6190819 M11.2154481,11.4905782 C11.2154481,11.4905782 15.0527418,12.2908644 16.0249937,12.3871035 M13.6580277,13.4653614 C13.6580277,13.4653614 16.4583706,13.8908533 17.5728923,13.8680826 M17.1368619,15.1672915 C17.1368619,15.1672915 18.2691108,15.1141097 18.8132361,15.0237797 M18.1854426,16.9861613 C18.1854426,16.9861613 19.1476829,16.7263308 19.7151435,16.3625456 M19.6041129,18.8699935 C19.6041129,18.8699935 20.3443108,18.5841743 20.7020552,17.804664 M21.4113904,19.565064 C21.4113904,19.565064 21.9849859,19.0518767 22.0220212,18.4802195 M23.5578946,20.0132702 C23.5578946,20.0132702 23.3431162,19.8279996 23.490053,19.0226512 M23.2987485,17.8403632 C23.2987485,17.8403632 23.1626308,17.6097582 23.2080111,17.245973 M19.2340045,6.30676533 C19.2340045,6.30676533 20.5292991,6.82644511 20.9610953,7.54099304 C21.3928727,8.25554098 21.1085026,8.95000931 20.9610953,9.34847753 C20.8870247,9.54870903 19.9741836,11.3086385 21.0474734,12.5818399 M19.2525034,13.9654885 C19.2525034,13.9654885 19.2587136,13.958996 19.7151435,13.8160676 M16.5200209,12.0946601 C16.5200209,12.0946601 17.2920789,12.250103 18.0497218,12.2570659 M15.4529225,10.1913317 C15.4529225,10.1913317 16.3596663,10.3061403 17.2108572,10.2897255 M14.1021126,8.20354478 C14.1021126,8.20354478 15.4097523,8.46339408 16.1129337,8.47641665 M13.0164965,5.98193488 C13.0164965,5.98193488 14.6292634,6.44224151 15.8292034,6.60555062 M18.4938631,7.55395916 C18.4938631,7.55395916 17.3342517,8.63227354 18.7282506,9.63267829 C18.7282506,9.63267829 18.1484449,10.5420944 19.3080563,11.4905029 M18.9996546,11.9387656 C18.9996546,11.9387656 18.826955,13.6729886 20.9487879,13.6731016 C20.9487879,13.6731016 20.5416818,15.2191936 22.5895194,15.167235 C22.5895194,15.167235 22.8239069,16.4014627 24.3042839,16.1546172 M21.0424864,29.731235 C21.0424864,29.731235 20.7067599,29.956235 19.9784743,29.731235 M17.9306556,30.6406699 C17.9306556,30.6406699 16.9067274,30.4847378 16.9560889,32.7063665 M18.5474965,31.1473271 C18.5474965,31.1473271 17.6222727,31.0304062 17.6839606,33.1870538 M27.482018,25.950567 C27.482018,25.950567 27.0378955,26.041518 26.7294938,26.3922995 C26.4210545,26.743081 25.8289414,26.6781187 25.8289414,26.6781187 C25.8289414,26.6781187 26.1496882,26.4182882 26.2607188,25.7686837 C26.3717494,25.1190605 26.7294938,24.9241923 26.7294938,24.9241923 M25.6699982,24.309045 C25.6699982,24.309045 25.2259134,24.3999961 24.9175117,24.7507776 C24.60911,25.1015591 24.0169592,25.0365967 24.0169592,25.0365967 C24.0169592,25.0365967 24.337706,24.7767663 24.4487366,24.1271618 C24.5597672,23.4775386 24.9175117,23.2826892 24.9175117,23.2826892 M25.3646452,26.8307199 C25.3646452,26.8307199 24.9769037,26.910135 24.7076262,27.2164102 C24.4383299,27.5226853 23.9213223,27.4659468 23.9213223,27.4659468 C23.9213223,27.4659468 24.201383,27.2390868 24.2983184,26.6719085 C24.3952349,26.1047113 24.7076262,25.9345898 24.7076262,25.9345898" id="Shape"></path>
                    </g>
                    <g id="a-link" transform="translate(76.899375, 29.625000) scale(-1, 1) translate(-76.899375, -29.625000) translate(58.399375, 9.125000)" stroke="#010002" stroke-width="0.1">
                        <g id="a" transform="translate(0.028081, 0.074156)">
                            <path d="M22.0540319,28.0942484 C22.0540319,28.0942484 21.1164817,29.7052463 19.9815229,29.731235 C19.9815229,29.731235 18.0292658,29.4935918 17.4772554,30.0040693 C17.0923367,30.3600447 16.700041,30.6536925 16.5397053,31.5631274 C16.3793131,32.4725623 16.8480881,32.6674493 16.9591188,32.7064229 C16.9591188,32.7064229 17.0454968,33.3560086 17.6869527,33.1871103 C17.6869527,33.1871103 17.7239692,33.8627034 18.8589092,33.5378918 C19.993868,33.2130801 20.4626431,33.3170349 20.6847043,32.1867055 C20.9067656,31.0564514 21.1117582,31.0749314 21.3138152,30.9394929 C21.585238,30.7576096 22.095132,30.5857004 22.4734265,30.3678545 C22.8133308,30.1721395 24.1141769,29.5103782 24.5582806,29.4584196 C25.0024031,29.4064799 24.9036987,27.912384 24.9036987,27.912384 L23.7564324,27.912384 L23.201317,27.0939001 L22.0540507,28.0942296 L22.0540319,28.0942484 Z M25.6674201,20.0133078 C25.6674201,20.0133078 24.520135,20.9487314 23.5579135,20.0133078 C23.5579135,20.0133078 23.1693063,20.4810102 22.3921295,20.3445931 C21.6149152,20.2081948 21.4854045,19.7989434 21.4113904,19.5651204 C21.4113904,19.5651204 20.7390341,19.9573032 20.1715735,19.6475466 C19.6040941,19.3377335 19.6040941,18.8700311 19.6040941,18.8700311 C19.6040941,18.8700311 18.6171824,19.0645793 18.1113908,18.3956669 C17.6056181,17.7267544 17.9140198,17.064165 18.1854238,16.9861989 C18.1854238,16.9861989 17.1184007,17.2657327 16.8284037,16.3495983 C16.5816899,15.570088 17.136843,15.1673291 17.136843,15.1673291 C17.136843,15.1673291 14.888567,15.1565272 13.9663918,14.4527812 C13.9663918,14.4527812 13.2015413,13.972075 13.6579901,13.465399 C13.6579901,13.465399 11.6348427,13.1405874 11.1290512,12.3351072 C11.1290512,12.3351072 10.9069899,12.1142504 10.9810229,11.7244764 C10.9810229,11.7244764 10.993368,11.5036196 11.2154104,11.4906158 C11.2154104,11.4906158 8.90823169,11.1342452 8.24238668,10.373309 C8.24238668,10.373309 7.9216399,10.0225275 8.08201329,9.55484394 C8.08201329,9.55484394 8.11594349,9.43139294 8.17145881,9.34859044 C8.17145881,9.34859044 6.07119221,8.90522069 5.03493774,7.9698159 C5.03493774,7.9698159 4.43674614,7.4368689 4.74512899,6.72232096 C4.74512899,6.72232096 1.23533803,5.76119094 2.04953124,4.21513654 C2.04953124,4.21513654 0.408818525,3.68247182 0.92693635,2.20137974 C0.92693635,2.20137974 -0.430083712,1.51280168 0.162085894,0.421502363 C0.728793731,-0.622938262 2.46898236,0.603366763 4.52954139,1.17349961 C4.52954139,1.17349961 10.1051606,2.92891261 12.8509668,3.3961069 L20.6527125,15.0114534 L25.2048175,16.7653609 L25.6673824,20.0133454 L25.6674201,20.0133078 Z" id="Shape" fill="#F4C53D"></path>
                            <path d="M25.7229354,11.458097 C25.7229354,11.458097 24.9916952,10.9091541 23.6874429,11.5555405 C23.6874429,11.5555405 23.248345,11.8579202 22.9029457,11.5266349 C22.6143413,11.2498111 22.5872611,10.7394466 22.9842803,10.444745 C23.9557606,9.72368576 24.3166102,7.56052691 22.836252,6.66409575 C22.836252,6.66409575 20.6897289,5.3908944 12.818655,3.38784547 C12.818655,3.38784547 12.1591708,3.20498367 11.80758,3.29267905 C11.4204407,3.38921924 11.1537602,3.72140781 11.0990541,4.00564621 C11.0990541,4.00564621 10.7468612,5.00657789 11.9309558,5.57927009 C11.9309558,5.57927009 12.4655588,5.82391384 13.016553,5.98202897 C13.016553,5.98202897 12.411342,5.85120102 12.153017,6.44973137 C11.9063032,7.0213509 12.2640476,7.60599301 13.3743163,7.9827632 C13.3743163,7.9827632 13.6746259,8.09962764 14.1021691,8.20362005 C14.1021691,8.20362005 13.1522738,8.47643547 13.6087414,9.24297961 C13.6087414,9.24297961 14.0158286,10.0484597 15.4529789,10.1913693 C15.4529789,10.1913693 14.3797456,10.3082902 15.1384235,11.3281724 C15.1384235,11.3281724 15.4715154,11.8868258 16.5200961,12.0946977 C16.5200961,12.0946977 15.7244018,12.1206676 16.1253352,12.8352155 C16.5262687,13.5498011 17.4697467,13.9525412 18.3981698,14.0175035 C18.3981698,14.0175035 18.9010068,14.043511 19.2525975,13.9655637 C19.2525975,13.9655637 18.3705627,14.4072963 18.8886805,15.1478329 C18.8886805,15.1478329 19.2710775,15.6740051 20.2271641,15.6480353 C20.2271641,15.6480353 19.9790012,16.4750064 20.6805078,16.7880751 C21.2264021,17.0316462 21.6797834,16.6418911 21.6797834,16.6418911 C21.6797834,16.6418911 21.4947198,17.528593 22.2904142,17.8404008 C22.2904142,17.8404008 22.6882426,18.0450171 23.2803933,17.8404008 C23.2803933,17.8404008 23.733737,18.8537905 25.3436435,18.1424418 C26.9534934,17.4311306 25.7229542,11.4580782 25.7229542,11.4580782 L25.7229354,11.458097 Z M25.8184217,20.6678051 C25.8184217,20.6678051 25.5822088,21.9360571 23.709028,23.5323952 C23.709028,23.5323952 22.263748,24.8072714 22.3007457,26.2753598 C22.3384396,27.7703213 22.0416868,27.9383351 21.4742262,28.4450111 C21.4742262,28.4450111 22.6461638,28.5359621 23.2136432,27.756433 C23.2136432,27.756433 23.188953,29.0556231 23.0162346,29.172544 C23.0162346,29.172544 23.3838024,29.1959921 23.916787,28.6139094 C23.916787,28.6139094 24.2375338,28.2761128 24.5336092,28.146207 C24.5336092,28.146207 24.1881722,29.042657 24.4595762,29.8741446 C24.4595762,29.8741446 24.5459543,29.549333 25.0023654,29.4064234 C25.0023654,29.4064234 25.8288849,29.2375251 26.1496317,28.0422522 C26.1496317,28.0422522 26.3593479,27.249757 27.6546612,26.548194 C27.6546612,26.548194 29.1226555,25.9945464 29.085639,25.2709654 C29.0486601,24.547441 25.8183652,20.6678239 25.8183652,20.6678239 L25.8184217,20.6678051 Z" id="Shape" fill="#F4C53D"></path>
                            <path d="M32.6227548,37.0197181 C32.6227548,37.0197181 32.2864637,38.5036894 31.1177252,38.3838893 C31.1177252,38.3838893 30.2911681,38.3059232 30.352856,36.9287671 C30.352856,36.9287671 29.1315567,37.5783527 28.9341857,35.9673548 C28.9341857,35.9673548 27.8239171,36.2271852 27.8362622,34.7201233 C27.8362622,34.7201233 26.8000077,34.9020065 26.9233646,33.5638428 C26.9233646,33.5638428 25.8007697,33.8626846 25.8007697,32.6024305 C25.8007697,32.6024305 23.1731453,32.1666447 28.6504554,27.1717909 L33.5356147,30.0819601 L32.6227171,37.0196804 L32.6227548,37.0197181 Z" id="Shape" fill="#F4C53D"></path>
                            <path d="M33.1655628,30.3600447 C33.1655628,30.3600447 32.3513696,31.0824025 31.7715639,30.0040881 C31.7715639,30.0040881 30.9820421,29.9651333 30.8586663,29.3674874 C30.8586663,29.3674874 30.2171916,29.3025251 30.0938347,28.6918943 C30.0938347,28.6918943 29.2179724,28.6009621 29.2426626,27.8604254 C29.2426626,27.8604254 27.65022,27.737539 29.2421357,25.9346463 C30.8340138,24.1317724 33.53569,28.9257925 33.53569,28.9257925 L33.1655816,30.3600636 L33.1655628,30.3600447 Z M34.074038,29.9131559 C34.8632963,29.9131559 35.7576198,34.8435743 35.5255281,37.8140199 C35.4412201,38.8928612 34.8632963,39.7740303 34.074038,39.7740303 C33.2847796,39.7740303 32.7068558,38.8928612 32.6225478,37.8140575 C32.3904561,34.8435931 33.2847796,29.9131371 34.074038,29.9131371 L34.074038,29.9131559 Z" id="Shape" fill="#F4C53D"></path>
                            <ellipse id="Oval" fill="#F4C53D" cx="34.074038" cy="29.8741634" rx="1.0920897" ry="1.61749038"></ellipse>
                            <path d="M30.3528748,36.9287859 C30.3528748,36.9287859 30.4762317,34.317402 32.7395439,30.5756888 M28.9342045,35.9673736 C28.9342045,35.9673736 28.5826138,34.4603116 31.7715639,30.0040881 C31.7715639,30.0040881 31.4014744,28.938721 32.5364144,28.2566542 M27.8362434,34.7201421 C27.8362434,34.7201421 27.7375766,33.089648 30.8586663,29.3674686 C30.8586663,29.3674686 30.5829716,28.4060563 31.7138844,27.639531 M26.9233834,33.5638616 C26.9233834,33.5638616 27.0405866,31.9138901 30.0938159,28.6918755 C30.0938159,28.6918755 29.9410641,27.7044933 31.0351862,27.0938625 M25.8007509,32.602487 C25.8007509,32.602487 26.0228121,30.718636 29.2426062,27.8604066 C29.2426062,27.8604066 29.1315756,27.1198888 30.2048465,26.3663296" id="Shape"></path>
                            <path d="M0.926955169,2.2013421 C0.926955169,2.2013421 3.45589407,3.66555376 11.331748,5.12976543 M2.04955006,4.2150989 C2.04955006,4.2150989 8.89424936,6.44786831 12.0818257,6.72224569 M4.74514781,6.72224569 C4.74514781,6.72224569 8.7605045,7.98272556 13.4627079,8.77813767 M8.17143999,9.34853398 C8.17143999,9.34853398 12.7081137,10.4382337 14.8740013,10.6190819 M11.2154481,11.4905782 C11.2154481,11.4905782 15.0527418,12.2908644 16.0249937,12.3871035 M13.6580277,13.4653614 C13.6580277,13.4653614 16.4583706,13.8908533 17.5728923,13.8680826 M17.1368619,15.1672915 C17.1368619,15.1672915 18.2691108,15.1141097 18.8132361,15.0237797 M18.1854426,16.9861613 C18.1854426,16.9861613 19.1476829,16.7263308 19.7151435,16.3625456 M19.6041129,18.8699935 C19.6041129,18.8699935 20.3443108,18.5841743 20.7020552,17.804664 M21.4113904,19.565064 C21.4113904,19.565064 21.9849859,19.0518767 22.0220212,18.4802195 M23.5578946,20.0132702 C23.5578946,20.0132702 23.3431162,19.8279996 23.490053,19.0226512 M23.2987485,17.8403632 C23.2987485,17.8403632 23.1626308,17.6097582 23.2080111,17.245973 M19.2340045,6.30676533 C19.2340045,6.30676533 20.5292991,6.82644511 20.9610953,7.54099304 C21.3928727,8.25554098 21.1085026,8.95000931 20.9610953,9.34847753 C20.8870247,9.54870903 19.9741836,11.3086385 21.0474734,12.5818399 M19.2525034,13.9654885 C19.2525034,13.9654885 19.2587136,13.958996 19.7151435,13.8160676 M16.5200209,12.0946601 C16.5200209,12.0946601 17.2920789,12.250103 18.0497218,12.2570659 M15.4529225,10.1913317 C15.4529225,10.1913317 16.3596663,10.3061403 17.2108572,10.2897255 M14.1021126,8.20354478 C14.1021126,8.20354478 15.4097523,8.46339408 16.1129337,8.47641665 M13.0164965,5.98193488 C13.0164965,5.98193488 14.6292634,6.44224151 15.8292034,6.60555062 M18.4938631,7.55395916 C18.4938631,7.55395916 17.3342517,8.63227354 18.7282506,9.63267829 C18.7282506,9.63267829 18.1484449,10.5420944 19.3080563,11.4905029 M18.9996546,11.9387656 C18.9996546,11.9387656 18.826955,13.6729886 20.9487879,13.6731016 C20.9487879,13.6731016 20.5416818,15.2191936 22.5895194,15.167235 C22.5895194,15.167235 22.8239069,16.4014627 24.3042839,16.1546172 M21.0424864,29.731235 C21.0424864,29.731235 20.7067599,29.956235 19.9784743,29.731235 M17.9306556,30.6406699 C17.9306556,30.6406699 16.9067274,30.4847378 16.9560889,32.7063665 M18.5474965,31.1473271 C18.5474965,31.1473271 17.6222727,31.0304062 17.6839606,33.1870538 M27.482018,25.950567 C27.482018,25.950567 27.0378955,26.041518 26.7294938,26.3922995 C26.4210545,26.743081 25.8289414,26.6781187 25.8289414,26.6781187 C25.8289414,26.6781187 26.1496882,26.4182882 26.2607188,25.7686837 C26.3717494,25.1190605 26.7294938,24.9241923 26.7294938,24.9241923 M25.6699982,24.309045 C25.6699982,24.309045 25.2259134,24.3999961 24.9175117,24.7507776 C24.60911,25.1015591 24.0169592,25.0365967 24.0169592,25.0365967 C24.0169592,25.0365967 24.337706,24.7767663 24.4487366,24.1271618 C24.5597672,23.4775386 24.9175117,23.2826892 24.9175117,23.2826892 M25.3646452,26.8307199 C25.3646452,26.8307199 24.9769037,26.910135 24.7076262,27.2164102 C24.4383299,27.5226853 23.9213223,27.4659468 23.9213223,27.4659468 C23.9213223,27.4659468 24.201383,27.2390868 24.2983184,26.6719085 C24.3952349,26.1047113 24.7076262,25.9345898 24.7076262,25.9345898" id="Shape"></path>
                        </g>
                    </g>
                    <path d="M79.25625,31.991125 L77.46625,39.718 L76.72775,39.1875 L78.47025,31.78475 L77.25525,31.807 L80.139125,26.526 L80.331375,32.61475 L79.25625,31.991125 Z M83.8775,33.622375 L78.505125,39.970375 L77.923375,39.319125 L83.275375,33.051625 L82.19275,32.4705 L87.093375,29.2335 L84.54875,34.70475 L83.8775,33.622375 Z" id="Shape" stroke="#010002" stroke-width="0.1" fill="#0081C6"></path>
                    <polygon id="Shape" stroke="#010002" stroke-width="0.1" fill="#0081C6" points="82.57625 30.255625 77.768 39.50125 77.027 39.06875 81.86775 29.842125 80.68875 29.5325 84.77225 25.2175 83.4615 31.15125"></polygon>
                    <path d="M76.578125,42.32125 L76.218125,43.79375 L77.204,44.77625 L75.81025,50.66275 L74.570875,48.99775 L72.734125,49.855 L74.127875,43.968375 L75.419875,43.608375 L75.755125,42.138375 C75.755125,42.138375 76.146,41.98525 76.578,42.321375 L76.578125,42.32125 Z" id="Shape" stroke="#010002" stroke-width="0.1" fill="#0081C6"></path>
                    <path d="M76.90825,41.35025 L76.1985,42.6745 L76.9095,43.892 L74.11675,49.19825 L73.3285,47.252 L71.34375,47.5795 L74.136625,42.27325 L75.473125,42.277625 L76.1585,40.94925 C76.1585,40.94925 76.657,40.94825 76.90825,41.3505 L76.90825,41.35025 Z" id="Shape" stroke="#010002" stroke-width="0.1" fill="#0081C6"></path>
                    <path d="M77.028125,41.735375 L75.14,44.13375 L75.572875,45.48875 L71.71825,49.99725 L71.366,47.91425 L69.36225,47.763 L73.216875,43.2545 L74.518125,43.57525 L76.520625,41.029 C76.520625,41.029 77.057875,41.29575 77.028125,41.73525 L77.028125,41.735375 Z M29.1905,36.11225 C29.6405,35.9285 29.964625,35.75125 29.96325,35.271 C29.963,35.1565 29.8995,34.903125 29.771625,34.511 L26.7495,25.27475 C26.5705,24.726 26.43525,24.39975 26.372375,24.2795 C26.2365,24.0195 25.969875,23.9135 25.610625,23.763875 L29.45175,23.763875 C29.0345,23.961125 28.654,24.117625 28.657625,24.560125 C28.658875,24.728875 28.706375,24.967125 28.8045,25.27475 L31.1195,32.522625 L33.4325,25.27475 C33.530625,24.96725 33.58125,24.729 33.579625,24.56 C33.575125,24.10525 33.179,23.94125 32.789625,23.76375 L36.5125,23.76375 C36.172,23.90025 35.894625,24.007125 35.752125,24.2795 C35.68925,24.3995 35.554,24.72575 35.375125,25.2745 L32.353125,34.51125 C32.22525,34.903375 32.179,35.161 32.161375,35.28025 C32.161375,35.28025 32.022375,35.864375 32.93425,36.1125 L29.1905,36.1125 L29.1905,36.11225 Z M93.594375,35.1625 L93.594375,24.704625 C93.594375,24.52375 93.564625,24.385125 93.505,24.288375 C93.445375,24.192125 93.18575,23.914125 92.81525,23.763875 L96.276375,23.763875 C95.906,23.886625 95.646375,24.184625 95.58675,24.284125 C95.527125,24.383625 95.497375,24.523875 95.497375,24.704875 L95.497375,35.162375 C95.497375,35.3495 95.52825,35.49275 95.589875,35.592375 C95.651625,35.69175 95.906125,35.934625 96.2765,36.112375 L92.815375,36.112375 C93.185875,35.943875 93.445375,35.68425 93.505125,35.58775 C93.56475,35.4915 93.5945,35.349625 93.5945,35.16275 L93.594375,35.1625 Z" id="Shape" stroke="#010002" stroke-width="0.1" fill="#0081C6"></path>
                    <path d="M61.602875,38.720875 C61.602875,38.720875 70.865625,34.616125 70.88875,25.1205 L52.317,25.1205 C52.340125,34.616125 61.602875,38.720875 61.602875,38.720875 L61.602875,38.720875 Z" id="Shape" stroke="#010002" stroke-width="0.1" fill="#FFFFFF"></path>
                    <g transform="translate(53.625000, 25.000000)" id="Shape" stroke="#010002" stroke-width="0.1" fill="#A60032">
                        <path d="M0.12,0.12 L0.12,6.187125 C0.12,6.187125 0.829375,7.59425 1.5485,8.47675 L1.5485,0.12 L0.12,0.12 L0.12,0.12 Z"></path>
                        <path d="M2.977125,0.12 L2.977125,10.12125 C2.977125,10.12125 3.8705,10.99725 4.405625,11.4195 L4.405625,0.12 L2.977125,0.12 L2.977125,0.12 Z M5.83425,0.12 L5.83425,12.4825 C5.83425,12.4825 6.8535,13.140625 7.263,13.356625 L7.263,0.12 L5.83425,0.12 L5.83425,0.12 Z M15.83425,0.12 L15.83425,6.187125 C15.83425,6.187125 15.12475,7.59425 14.4055,8.47675 L14.4055,0.12 L15.83425,0.12 L15.83425,0.12 Z M12.977125,0.12 L12.977125,10.12125 C12.977125,10.12125 12.08375,10.99725 11.548375,11.4195 L11.548375,0.12 L12.977125,0.12 L12.977125,0.12 Z M10.12,0.12 L10.12,12.4825 C10.12,12.4825 9.10075,13.140625 8.69125,13.356625 L8.69125,0.12 L10.12,0.12 L10.12,0.12 Z"></path>
                    </g>
                    <path d="M70.88875,18.221625 C70.88875,18.221625 66.34375,20.599125 61.602875,18.026625 C56.862125,20.599125 52.317,18.221625 52.317,18.221625 L52.317,25.120375 L70.88875,25.120375 L70.88875,18.221625 L70.88875,18.221625 Z" id="Shape" stroke="#010002" stroke-width="0.1" fill="#162667"></path>
                </g>
            </g>
        </g>
    </g>
</svg>