<?xml version="1.0" encoding="UTF-8" standalone="no"?>
<svg width="122px" height="60px" viewBox="0 0 122 60" version="1.1" xmlns="http://www.w3.org/2000/svg" xmlns:xlink="http://www.w3.org/1999/xlink">
    <!-- Generator: Sketch 3.8.2 (29753) - http://www.bohemiancoding.com/sketch -->
    <title>lk</title>
    <desc>Created with Sketch.</desc>
    <defs></defs>
    <g id="Page-1" stroke="none" stroke-width="1" fill="none" fill-rule="evenodd">
        <g id="lk">
            <g id="Group">
                <g>
                    <polygon id="Shape" fill="#FFB700" points="0 0 122 0 122 60 0 60"></polygon>
                    <polygon id="Shape" fill="#FF5B00" points="24.333375 30 35.333375 3.333375 46.333375 3.333375 46.333375 56.666625 35.333375 56.666625"></polygon>
                    <polygon id="Shape" fill="#005641" points="24.333375 3.333375 35.333375 3.333375 35.333375 56.666625 24.333375 56.666625"></polygon>
                    <polygon id="Shape" fill="#8D2029" points="49.666625 3.333375 98 3.333375 98 56.666625 49.6665 56.666625"></polygon>
                    <path d="M93.406625,51.070625 C93.406625,51.070625 93.859875,51.993375 94.360625,52.369375 C95.1025,52.926375 96.623625,52.886125 97.269375,53.536 C98.04275,54.30225 97.209125,55.31475 97.216125,55.402625 L97.258375,55.937625 C97.258375,55.937625 96.73675,55.943875 96.517125,55.978 C96.186875,56.0295 96.058125,56.29825 95.443375,56.258375 C93.897125,56.158 93.959625,54.76525 93.872125,53.575 C93.794625,53.121625 93.614875,52.53075 93.51275,52.0775 C93.42525,51.689125 93.4065,51.070625 93.4065,51.070625 L93.406625,51.070625 Z" id="a" stroke="#000000" stroke-width="0.133999944" fill="#FFB700"></path>
                    <g id="a-link" transform="translate(51.791625, 54.000000) scale(-1, 1) translate(-51.791625, -54.000000) translate(49.291625, 51.000000)" stroke="#000000" stroke-width="0.133999944" fill="#FFB700">
                        <path d="M0.031625,0.070625 C0.031625,0.070625 0.484875,0.993375 0.985625,1.369375 C1.7275,1.926375 3.248625,1.886125 3.894375,2.536 C4.66775,3.30225 3.834125,4.31475 3.841125,4.402625 L3.883375,4.937625 C3.883375,4.937625 3.36175,4.943875 3.142125,4.978 C2.811875,5.0295 2.683125,5.29825 2.068375,5.258375 C0.522125,5.158 0.584625,3.76525 0.497125,2.575 C0.419625,2.121625 0.239875,1.53075 0.13775,1.0775 C0.05025,0.689125 0.0315,0.070625 0.0315,0.070625 L0.031625,0.070625 Z" id="a"></path>
                    </g>
                    <g id="a-link" transform="translate(95.875000, 6.000000) scale(1, -1) translate(-95.875000, -6.000000) translate(93.375000, 3.000000)" stroke="#000000" stroke-width="0.133999944" fill="#FFB700">
                        <path d="M0.031625,0.070625 C0.031625,0.070625 0.484875,0.993375 0.985625,1.369375 C1.7275,1.926375 3.248625,1.886125 3.894375,2.536 C4.66775,3.30225 3.834125,4.31475 3.841125,4.402625 L3.883375,4.937625 C3.883375,4.937625 3.36175,4.943875 3.142125,4.978 C2.811875,5.0295 2.683125,5.29825 2.068375,5.258375 C0.522125,5.158 0.584625,3.76525 0.497125,2.575 C0.419625,2.121625 0.239875,1.53075 0.13775,1.0775 C0.05025,0.689125 0.0315,0.070625 0.0315,0.070625 L0.031625,0.070625 Z" id="a"></path>
                    </g>
                    <g id="a-link" transform="translate(51.791750, 6.000000) rotate(180.000000) translate(-51.791750, -6.000000) translate(49.291750, 3.000000)" stroke="#000000" stroke-width="0.133999944" fill="#FFB700">
                        <path d="M0.031625,0.070625 C0.031625,0.070625 0.484875,0.993375 0.985625,1.369375 C1.7275,1.926375 3.248625,1.886125 3.894375,2.536 C4.66775,3.30225 3.834125,4.31475 3.841125,4.402625 L3.883375,4.937625 C3.883375,4.937625 3.36175,4.943875 3.142125,4.978 C2.811875,5.0295 2.683125,5.29825 2.068375,5.258375 C0.522125,5.158 0.584625,3.76525 0.497125,2.575 C0.419625,2.121625 0.239875,1.53075 0.13775,1.0775 C0.05025,0.689125 0.0315,0.070625 0.0315,0.070625 L0.031625,0.070625 Z" id="a"></path>
                    </g>
                    <g transform="translate(58.625000, 17.250000)">
                        <g id="b-link" stroke="#000000">
                            <g id="b">
                                <path d="M7.811,25.220625 L8.101625,25.052875 L8.226,25.221 C8.391625,25.44475 8.84975,25.44225 9.154,25.216 L9.3865,25.042625 L9.58125,25.216 C9.83725,25.44375 10.315375,25.444 10.620625,25.21675 C10.834375,25.0575 10.864375,25.05425 11.005625,25.1755 C11.08975,25.247625 11.336875,25.329875 11.554625,25.358 C11.946875,25.409 11.95275,25.40625 12.182125,25.062 C12.374375,24.77375 12.404625,24.657 12.358625,24.377375 C12.3244153,24.1575781 12.3000991,23.936355 12.28575,23.714375 C12.26825,23.38975 12.270125,23.38775 12.743,23.223125 C13.00425,23.132125 13.3065,23.01025 13.41475,22.951875 C13.6035,22.850625 14.124125,22.23875 14.124125,22.118125 C14.124125,22.08625 13.92075,22.03725 13.672125,22.009375 C12.683125,21.8985 12.515875,21.3675 13.158375,20.38125 C14.206875,18.7725 14.839625,17.20625 14.84375,16.20825 C14.845625,15.762 14.871,15.612375 14.928375,15.7095 C15.162625,16.10575 14.743,17.767875 14.107125,18.961375 L13.851375,19.442125 L14.095625,19.385875 C14.229875,19.355 15.019625,19.02175 15.850625,18.645375 C18.124875,17.615375 18.906125,17.4135 20.378125,17.475375 C21.611125,17.527375 22.13625,17.768375 23.006875,18.681625 C23.468125,19.165375 23.9125,19.511375 24.72525,20.020125 C26.456875,21.104125 26.529,21.198 26.6115,22.472625 C26.694875,23.76425 26.653375,23.83425 25.6765,24.050125 C24.8415,24.2345 24.31825,24.623875 24.17775,25.1645 C24.10275,25.45325 24.260625,25.461625 24.6815,25.191125 L24.99,24.992875 L25.12725,25.191125 C25.307625,25.45175 25.691,25.452875 26.009375,25.193625 L26.25,24.9975 L26.495875,25.193375 C26.87775,25.49775 27.385625,25.423875 27.529,25.043375 C27.5565,24.970125 27.63,24.993375 27.779,25.122875 C28.058,25.365375 28.77325,25.469375 28.85025,25.27875 C28.879875,25.206 28.824,25.02625 28.726,24.8795 C28.30975,24.2555 28.17975,23.958 28.17425,23.61825 C28.16675,23.14575 28.307625,22.918 28.845,22.53375 C29.49775,22.067 29.699375,21.465 29.203,21.465 C28.8965,21.465 28.587625,21.194 28.3905,20.7525 C27.99,19.855 28.0685,18.849 28.669625,17.175375 C29.28025,15.475375 29.348,15.161875 29.350375,14.025 C29.352375,13.10575 29.329125,12.94675 29.120125,12.44275 C28.992375,12.134625 28.732875,11.67575 28.543625,11.423125 L28.1995,10.96375 L28.64125,10.59775 C29.99,9.48025 29.714125,7.65125 28.090375,6.9465 C27.5935,6.730875 27.469375,6.711875 26.598875,6.71775 C26.07675,6.72125 25.280125,6.79 24.82925,6.8705 C24.36925,6.9525 23.590875,7.0185 23.05675,7.0205 C22.208625,7.024 22.064625,7.003 21.737625,6.82925 C21.39675,6.647625 21.33825,6.5615 21.271625,6.142125 C21.257875,6.055875 21.197625,5.969875 21.137625,5.950875 C21.02175,5.914625 20.486375,6.379125 20.407125,6.585 C20.368125,6.686625 20.33625,6.679625 20.22175,6.544125 C20.1455,6.454125 20.0395,6.2475 19.98575,6.084875 C19.85075,5.67575 20.016625,5.369125 20.497375,5.139375 L20.870375,4.961125 L20.650375,4.824625 C20.196625,4.543 19.42475,4.735625 19.145625,5.20025 C19.066625,5.33175 18.980625,5.4395 18.954375,5.43975 C18.928125,5.43975 18.777875,5.3145 18.620625,5.161 C18.03475,4.5885 18.23625,3.74125 19.020125,3.4825 C19.438125,3.344625 19.808,3.45 19.884875,3.7285 C20.002375,4.154125 20.367625,3.59475 20.302125,3.08975 C20.258625,2.75375 20.265125,2.74225 20.4975,2.74225 C20.8205,2.74225 21.508375,3.16625 21.72125,3.49675 C21.96825,3.8805 21.95025,4.485 21.678375,4.9355 L21.464875,5.28925 L21.744,5.23325 C22.1535,5.151125 22.5515,4.897 22.75275,4.58825 C22.9655,4.26225 22.988375,3.627375 22.79975,3.28475 C22.61675,2.952625 22.637625,2.9 22.908,3.01225 C23.368,3.203 23.613625,3.4135 23.798,3.77425 C23.96425,4.09925 23.973375,4.17975 23.8835,4.518 C23.828,4.72675 23.70475,5.001 23.60925,5.128 C23.46075,5.3255 23.4555,5.3585 23.574,5.3585 C23.79425,5.3585 24.254375,5.15 24.41775,4.976 C24.50025,4.888125 24.62075,4.67175 24.68525,4.495125 L24.80275,4.173875 L24.9375,4.418875 C25.12825,4.764875 25.499,5.076375 25.95125,5.270125 C26.4375,5.478625 26.63975,5.490375 26.3855,5.295375 C26.21425,5.163875 25.898,4.236625 25.993875,4.146125 C26.050125,4.092875 26.710375,4.600875 27.464125,5.277375 C28.177125,5.917375 28.625125,6.127375 29.28,6.127375 C30.1165,6.127375 30.60375,5.399 30.2275,4.7105 C30.008375,4.309 29.52,4.25325 29.2345,4.597 C29.10325,4.755125 29.067,4.88075 29.10575,5.04675 C29.15275,5.249875 29.1345,5.27675 28.94925,5.27675 C28.706125,5.27675 28.22675,4.965875 27.3755,4.2555 C26.0775,3.172375 24.50025,2.25425 23.36125,1.918875 C22.630375,1.703625 21.069125,1.619625 20.32625,1.755625 C19.522,1.90275 18.570875,2.362875 18.0525,2.855625 C17.1345,3.728375 17.12,4.89 18.01375,5.947875 L18.27,6.250875 L18.096625,6.520125 C17.844375,6.911875 17.866,7.439125 18.150125,7.827625 C18.275375,7.9985 18.401625,8.138375 18.43075,8.13825 C18.459875,8.13825 18.492,8.02825 18.50175,7.893875 C18.52675,7.554125 18.67275,7.326375 18.923,7.236375 C19.1485,7.155125 19.29425,7.1935 20.326375,7.6055 C21.412375,8.039 23.19825,8.06875 25.097125,7.685125 C26.028,7.497125 27.125625,7.508125 27.608625,7.7105 C28.493875,8.081375 28.699125,9.04625 28.04825,9.778625 C27.7665,10.095625 27.49475,10.224875 26.582625,10.475125 C25.8885,10.665625 25.724125,10.67825 24.146375,10.662625 C22.798625,10.648875 22.314125,10.675125 21.763875,10.789875 C21.166625,10.9145 20.79925,10.927125 19.044625,10.882875 L17.015875,10.831625 L17.240875,11.017875 C17.364625,11.120375 17.539625,11.246625 17.629625,11.29825 C17.7825,11.386 17.777375,11.397875 17.55,11.482 C17.41625,11.53175 17.119625,11.57225 16.89075,11.57225 L16.4745,11.57225 L16.41825,11.926 C16.387625,12.120375 16.389875,12.3475 16.4235,12.430625 C16.47325,12.553125 16.45475,12.570625 16.325625,12.52375 C16.237875,12.492 15.994125,12.429375 15.78375,12.38475 C15.57325,12.34 15.29,12.249125 15.15425,12.182625 C14.92575,12.07075 14.9005,12.073875 14.81625,12.222625 C14.74125,12.3555 14.03625,12.880125 13.93275,12.880125 C13.916,12.880125 13.8945,12.779125 13.884875,12.655375 C13.875125,12.531625 13.773625,12.209875 13.658625,11.94 C13.544125,11.67025 13.424375,11.375875 13.39275,11.286 C13.344875,11.15025 13.32325,11.1435 13.265625,11.245125 C13.227625,11.312625 13.171875,11.496375 13.141875,11.653875 C13.111875,11.811375 13.005625,12.066875 12.905625,12.222 L12.724125,12.504 L12.608375,12.26275 C12.484,12.004 12.277625,11.735625 12.202875,11.735625 C12.177625,11.735625 12.134625,11.818375 12.107375,11.919625 C12.050375,12.130875 11.560875,12.716625 11.441375,12.716625 C11.397375,12.716625 11.361375,12.551 11.361375,12.348625 C11.361375,12.146375 11.322625,11.98075 11.275125,11.98075 C11.227625,11.98075 11.188625,12.033 11.188625,12.097 C11.188625,12.252625 10.770625,12.7165 10.630375,12.7165 C10.569125,12.7165 10.47075,12.7715 10.411625,12.839 C10.257625,13.015 10.131625,12.99025 10.19625,12.796875 C10.226625,12.706125 10.206875,12.494625 10.1525,12.326875 C10.097875,12.15875 10.04,11.98 10.02375,11.929375 C10.003,11.865875 9.853125,11.88275 9.53625,11.984375 C9.02375,12.14875 8.852,12.119625 9.1155,11.913125 C9.21175,11.837875 9.35825,11.5765 9.441,11.3325 C9.52375,11.08875 9.646,10.872125 9.71225,10.8515 C9.805375,10.82275 9.8005,10.858375 9.69075,11.00675 C9.612375,11.1125 9.548,11.2555 9.54775,11.32425 C9.54775,11.39275 9.4885,11.5555 9.41675,11.686 C9.345,11.81625 9.299875,11.936 9.3165,11.951625 C9.333125,11.96725 9.528,11.893125 9.749625,11.786875 L10.152625,11.59375 L10.15425,11.7665 C10.155125,11.8615 10.20375,12.11225 10.262125,12.32375 L10.368375,12.708125 L10.642625,12.582125 C10.923,12.453375 11.1885,11.993875 11.1885,11.63775 C11.1885,11.46175 11.289375,11.48875 11.330625,11.675875 C11.342875,11.730875 11.406125,11.936875 11.471375,12.133875 L11.590125,12.491875 L11.777875,12.265625 C11.881125,12.141375 12.010625,11.897375 12.065625,11.723625 C12.161,11.422 12.310875,11.292375 12.310875,11.511375 C12.310875,11.66925 12.74175,12.235375 12.824625,12.18675 C12.865,12.16325 12.945,11.95075 13.0025,11.7145 C13.1225,11.22325 13.315625,10.88925 13.438375,10.961 C13.484625,10.988125 13.5025,11.0405 13.478375,11.077625 C13.454125,11.114625 13.553375,11.433875 13.69875,11.787375 C13.8073103,12.0506886 13.9155188,12.3141472 14.023375,12.57775 C14.0765,12.70875 14.124625,12.68975 14.436375,12.414375 C14.6305,12.243125 14.806625,12.051125 14.827875,11.988125 C14.859875,11.892625 14.903125,11.896125 15.084625,12.00875 C15.338375,12.16625 16.191625,12.42 16.2575,12.3575 C16.28225,12.334125 16.3075,12.11 16.31375,11.8595 L16.325,11.404125 L16.5705,11.455125 C16.70525,11.483125 16.989,11.481375 17.200875,11.451375 L17.586125,11.396375 L17.242875,11.161 C17.053875,11.0315 16.862875,10.863875 16.8185,10.7885 C16.771,10.70825 16.603,10.640125 16.412625,10.624 C15.898375,10.58025 14.98675,10.069 14.98675,9.824 C14.98675,9.778125 15.113,9.85625 15.2675,9.99775 C15.60975,10.3115 16.085375,10.508375 16.50075,10.508375 L16.8115,10.508375 L16.61925,10.25275 C16.508875,10.105875 16.40975,9.827125 16.3865,9.59775 C16.3495,9.2325 16.310875,9.174375 15.929375,8.90925 C15.70025,8.749875 15.416375,8.511 15.298625,8.3785 L15.0845,8.1375 L14.975375,8.42375 C14.915375,8.581 14.841875,8.70975 14.81225,8.70975 C14.7825,8.70975 14.667,8.61775 14.5555,8.505375 C14.444,8.393125 14.3305,8.301625 14.303,8.302 C14.27575,8.3025 14.17675,8.454 14.0835,8.6385 L13.91375,8.974125 L13.7825,8.78075 C13.71025,8.6745 13.53975,8.486125 13.40375,8.3625 C13.2675,8.23875 13.19575,8.1375 13.2445,8.1375 C13.29325,8.1375 13.461125,8.26625 13.618,8.42375 L13.903,8.71 L14.01925,8.500375 C14.088,8.376 14.11375,8.18475 14.082625,8.030375 C14.037125,7.804875 14.0435,7.791625 14.129875,7.93325 C14.184875,8.02325 14.351625,8.19575 14.5005,8.316375 L14.771375,8.536 L14.958125,8.19375 C15.144,7.853125 15.145375,7.8525 15.229875,8.055875 C15.343125,8.327875 16.161875,8.999125 16.859,9.391375 C16.9665,9.45175 16.92125,9.243875 16.72275,8.765875 C16.67025,8.639375 16.62725,8.411125 16.62725,8.25875 C16.62725,8.03275 16.562,7.93225 16.273,7.71225 C15.8555,7.39475 15.7205,7.168875 15.642,6.656625 C15.610125,6.449125 15.537,6.21825 15.47975,6.14375 C15.3945,6.033 15.3805,6.095 15.40325,6.48 C15.418625,6.73975 15.384875,7.0625 15.32825,7.1975 L15.22525,7.4425 L15.145625,7.23825 C15.101875,7.12575 14.908375,6.930375 14.715625,6.803875 C14.52275,6.67725 14.387375,6.552625 14.41475,6.526625 C14.44225,6.500625 14.640625,6.615875 14.855625,6.782875 C15.183375,7.037125 15.255625,7.064625 15.300875,6.952625 C15.354125,6.821 15.300875,6.2485 15.19775,5.848375 C15.1465,5.648625 15.150875,5.649625 15.397375,5.896125 C15.579125,6.077875 15.679625,6.294625 15.757375,6.67275 C15.856375,7.153125 15.906375,7.233125 16.350625,7.62325 C16.617375,7.8575 16.849375,8.036 16.8665,8.019875 C16.8835,8.003625 16.917125,7.397875 16.9415,6.67325 C16.98775,5.283875 16.93525,4.95325 16.600625,4.524 L16.42875,4.3035 L16.699,4.011875 C17.0515,3.631625 17.2135,3.326875 17.28375,2.910875 L17.340875,2.572625 L17.035875,2.861375 C16.786125,3.097875 16.66675,3.150125 16.3775,3.150125 C16.09125,3.150125 15.97925,3.10225 15.78625,2.896375 C15.554625,2.64975 15.14425,2.41225 14.749625,2.29675 C14.60375,2.254 14.555375,2.272625 14.555375,2.37125 C14.555375,2.443375 14.47475,2.652 14.376375,2.83475 L14.197625,3.166875 L13.822625,2.796375 C13.592625,2.569125 13.319625,2.39225 13.116625,2.338875 C12.597875,2.202375 12.56975,2.216 12.56975,2.602375 C12.56975,3.188625 12.3195,3.297875 11.869,2.90825 C11.525625,2.611125 11.240875,2.546625 10.589625,2.61825 L10.08675,2.6735 L10.177125,2.9005 C10.25275,3.090125 10.235625,3.17 10.07375,3.3855 C9.81125,3.734625 9.469625,3.886 8.94375,3.886 C8.70175,3.886 8.39875,3.936 8.2705,3.99725 C8.142375,4.0585 7.82375,4.129125 7.562625,4.154125 C7.301375,4.179125 7.023125,4.22375 6.944125,4.25325 C6.820375,4.2995 6.806625,4.261375 6.846625,3.98 C6.9075,3.549375 6.606625,3.23175 6.137875,3.23175 C5.53,3.23175 5.2495,3.77575 5.487625,4.49325 C5.5392812,4.6525023 5.58374286,4.81399908 5.620875,4.97725 C5.649375,5.110125 5.923375,5.46275 6.25875,5.7985 C6.582125,6.122 6.887875,6.45875 6.938,6.546625 C6.98825,6.6345 7.15425,6.775625 7.30675,6.860375 L7.58425,7.013875 L7.5475,6.71725 C7.50725,6.391 7.578375,6.33975 7.751875,6.570125 C7.814125,6.652375 7.971625,6.785375 8.10225,6.865625 C8.308,6.992125 8.33975,6.994625 8.33975,6.884875 C8.33975,6.815125 8.381625,6.654625 8.432875,6.528 L8.526,6.298 L8.687625,6.611 C8.776625,6.78325 9.06575,7.17475 9.330125,7.481 C9.8435,8.075 10.156375,8.738875 9.994875,8.89175 C9.929375,8.95375 9.752375,8.948875 9.385625,8.87525 C9.101375,8.81825 8.74975,8.788 8.604375,8.80825 C8.306875,8.8495 8.283625,8.811125 8.466375,8.582375 C8.65925,8.340875 8.628625,8.301125 8.249625,8.301125 C7.81125,8.301125 6.723,8.090875 6.305125,7.9255 C5.898875,7.76475 5.805125,7.804875 5.685625,8.190125 C5.631875,8.363375 5.533125,8.677625 5.466625,8.88825 L5.345375,9.27125 L5.785125,9.22875 C6.02675,9.2055 6.337625,9.1525 6.476,9.11125 C6.61425,9.06975 6.74,9.04775 6.75525,9.06225 C6.770625,9.07675 6.709,9.226375 6.61825,9.39475 L6.453625,9.701 L6.727625,9.645125 C6.878375,9.6145 7.105125,9.53925 7.231375,9.478125 C7.451375,9.371875 7.46925,9.379375 7.642625,9.658125 C7.856125,10.000625 8.02675,9.986375 8.064625,9.623125 C8.104,9.247625 8.2275,9.303125 8.459875,9.800625 C8.68325,10.279375 8.91575,10.448125 8.960375,10.164375 C8.975375,10.070375 9.095625,9.917125 9.227875,9.823875 C9.495375,9.635375 9.697125,9.692 9.812625,9.987875 C9.932375,10.294125 9.6655,10.61 8.889125,11.080625 C7.334125,12.023125 6.430125,13.312625 6.172,14.955875 C5.939125,16.438 6.666125,17.969625 8.1245,19.069625 C8.8225,19.596125 9.93125,20.15175 9.86075,19.939625 C9.5615,19.039625 9.571375,17.3215 9.877375,17.03175 C9.923375,16.98825 9.907625,17.1675 9.842375,17.43 C9.599375,18.408125 9.704875,19.1875 10.32775,21.014125 C10.891125,22.66625 10.813125,23.372375 10.015875,23.839125 C9.759875,23.989125 9.595,24.013625 8.906375,24.005375 C8.15925,23.99625 8.077875,24.01125 7.838,24.202375 C7.6055,24.387625 7.304,24.996125 7.304,25.279875 C7.304,25.433625 7.47475,25.413375 7.81025,25.219625 L7.811,25.220625 Z" id="Shape" fill="#FFB700"></path>
                                <path d="M19.938375,25.1875 L20.25175,24.985875 L20.46425,25.187375 C20.743,25.451125 21.0695,25.44525 21.337375,25.171375 C21.454125,25.052 21.559125,24.96925 21.5705,24.987625 C21.58175,25.00575 21.634,25.09425 21.686375,25.18425 C21.752625,25.298 21.888875,25.3555 22.1345,25.372625 C22.43075,25.3935 22.510125,25.364875 22.62775,25.194875 L22.768,24.992125 L23.0765,25.190375 C23.921125,25.73325 24.37125,25.16375 23.99375,24.029625 C23.802,23.453 23.9075,23.128875 24.52625,22.394875 C24.787,22.085375 25.000625,21.755125 25.000875,21.660875 C25.000875,21.510625 24.952625,21.4905 24.605375,21.497375 C24.27325,21.504 24.176,21.46825 24.001125,21.27575 C23.716625,20.962625 23.733625,20.604125 24.051375,20.206125 L24.305375,19.88825 L23.85475,19.5825 C23.60675,19.414375 23.15975,19.0165 22.861375,18.69825 C22.191125,17.983625 21.532125,17.64475 20.663,17.568 L20.0805,17.516375 L20.08125,17.957625 C20.0825,18.525375 20.34875,19.071625 21.07625,19.99675 C21.903125,21.04875 21.960875,21.21175 21.994375,22.5865 L22.02275,23.7495 L21.783375,23.9765 C21.567125,24.1815 21.469625,24.20775 20.77175,24.248125 C20.1075,24.286375 19.968,24.320625 19.773,24.493375 C19.51425,24.72275 19.43675,24.8475 19.35675,25.16425 C19.310125,25.34875 19.329,25.389 19.46225,25.389 C19.551625,25.389 19.765625,25.298375 19.938,25.18775 L19.938375,25.1875 Z M2.163,22.182 C2.23675,22.082 2.297375,21.92075 2.297375,21.82325 C2.297375,21.676375 2.363,21.637 2.686125,21.59125 L3.074875,21.536 L2.8155,21.329375 C2.5075,21.084 2.479,20.89225 2.7505,20.891875 C3.020875,20.891875 3.478875,20.611 3.548375,20.403125 C3.580875,20.306875 3.560375,20.177625 3.502375,20.1115 C3.35075,19.9385 3.065875,19.9645 3.012875,20.15625 C2.956,20.3625 2.86075,20.362875 2.64475,20.15825 C2.31975,19.85075 2.3125,19.21375 2.6295,18.842875 C2.779,18.667875 2.777625,18.656625 2.587,18.476125 C2.382,18.281875 2.23575,17.897625 2.332,17.8065 C2.36275,17.7775 2.5245,17.800625 2.692,17.85775 C2.9295,17.93925 3.0235,17.9405 3.121375,17.8635 C3.418,17.63025 3.096625,17.330375 2.621,17.3965 C2.4295,17.423125 2.350375,17.3965 2.322875,17.29725 C2.302125,17.221875 2.134625,17.1235 1.946,17.076 C1.608875,16.990625 1.6065,16.99175 1.6065,17.224 C1.6065,17.4785 1.46125,17.5265 1.18525,17.36325 C0.96075,17.2305 0.74325,17.3335 0.74325,17.5725 C0.74325,17.795375 0.967375,17.90525 1.369125,17.879375 C1.67725,17.859375 1.688625,18.088625 1.396,18.418125 L1.185625,18.654875 L1.35225,18.8945 C1.59925,19.24925 1.5785,19.83825 1.30875,20.131 L1.09725,20.36025 L0.9585,20.17625 C0.76575,19.920625 0.502,19.93775 0.42975,20.210625 C0.38225,20.389375 0.4215,20.471 0.64525,20.660375 C0.795625,20.787625 1.01525,20.891625 1.133,20.891625 C1.425,20.891625 1.4135,21.12125 1.110125,21.353125 L0.872625,21.534625 L1.239625,21.591375 C1.44125,21.622625 1.606375,21.681375 1.606375,21.72225 C1.606375,21.87825 1.860625,22.3635 1.942375,22.3635 C1.989625,22.3635 2.088625,22.2815 2.162625,22.181625 L2.163,22.182 Z" id="Shape" fill="#FFB700"></path>
                                <path d="M6.940375,20.11125 C7.273625,19.98 7.995125,19.369125 7.995125,19.218125 C7.995125,19.170625 7.796125,18.951625 7.552625,18.7315 C7.0405,18.268125 6.483375,17.48775 6.339125,17.0315 C6.263875,16.7935 5.900125,16.38625 4.87575,15.39275 L3.5125,14.070375 L3.1195,14.169875 C2.90325,14.224625 2.63975,14.27075 2.533625,14.272375 C2.3505,14.275125 2.353875,14.285625 2.597,14.473875 L2.853625,14.672625 L3.213375,14.472625 C3.562125,14.27925 3.574625,14.278125 3.6175,14.433875 C3.64275,14.525125 3.5885,14.683 3.492,14.799125 C3.398625,14.911625 3.345375,15.039125 3.37375,15.082875 C3.402125,15.12625 3.3125,15.217125 3.17425,15.28475 C2.91825,15.41 2.7405,15.82275 2.942625,15.82275 C3.124375,15.82275 3.525125,15.32825 3.478875,15.161 C3.455375,15.075375 3.46675,14.98725 3.504375,14.96525 C3.660625,14.874 3.650625,15.262125 3.492125,15.453 C3.39875,15.5655 3.3455,15.693 3.373875,15.73675 C3.40225,15.780125 3.312625,15.871125 3.174375,15.93875 C2.92,16.06325 2.740625,16.47675 2.940625,16.47675 C3.137125,16.47675 3.53125,16.00425 3.4825,15.8275 C3.45675,15.735 3.466625,15.64125 3.50425,15.61925 C3.60925,15.55775 3.666125,15.86425 3.577375,16.01425 C3.529875,16.094875 3.530125,16.204625 3.578375,16.29175 C3.665625,16.4495 3.577125,16.752375 3.41625,16.84675 C3.3475,16.887 3.394125,16.966125 3.56125,17.0925 C3.8035,17.275375 3.808125,17.2945 3.808125,18.10125 C3.808125,18.77525 3.835375,18.94925 3.959375,19.066625 C4.098125,19.198375 4.110375,19.19875 4.110375,19.0725 C4.110375,18.934625 4.3525,18.766 4.550375,18.766 C4.609125,18.766 4.974125,19.075375 5.361625,19.4535 C5.751625,19.833875 6.159875,20.1575 6.275375,20.178125 C6.390375,20.198625 6.51475,20.220375 6.551875,20.2265 C6.589,20.23275 6.76375,20.18075 6.94025,20.111125 L6.940375,20.11125 Z M2.7725,16.85 C2.7725,16.6325 2.324,16.40075 1.787875,16.340625 C1.355,16.291875 1.347875,16.29475 1.347875,16.511 C1.347875,16.69 1.416,16.760375 1.71475,16.8905 C2.195,17.099625 2.77225,17.0775 2.77225,16.85 L2.7725,16.85 Z" id="Shape" fill="#FFB700"></path>
                                <path d="M3.26375,16.83 C3.4825,16.631625 3.585875,16.395625 3.454375,16.395625 C3.303125,16.395625 2.9015,16.756 2.9015,16.891875 C2.9015,17.103625 2.976125,17.090875 3.263625,16.83 L3.26375,16.83 Z M2.7975,16.1875 C2.81625,16.06475 2.740375,15.982875 2.513,15.88025 C2.022625,15.65875 1.436375,15.556125 1.295125,15.667125 C1.035125,15.871625 1.2085,16.145875 1.628875,16.195375 C1.798,16.215375 2.027625,16.266875 2.138625,16.310125 C2.46175,16.435625 2.768875,16.3785 2.79775,16.187625 L2.7975,16.1875 Z M2.7975,15.530625 C2.824125,15.355625 2.71225,15.293125 1.799125,14.971875 C1.1175,14.731875 0.815625,14.845 1.0335,15.258875 C1.109375,15.403125 1.23675,15.468875 1.5225,15.51175 C1.735,15.543625 2.02525,15.60575 2.16775,15.65 C2.54825,15.768 2.768125,15.72625 2.79775,15.530625 L2.7975,15.530625 Z M3.255,14.915375 C3.39275,14.775625 3.5055,14.610875 3.5055,14.549125 C3.5055,14.348625 2.961375,14.70325 2.892,14.948875 C2.808875,15.2435 2.94375,15.231125 3.255,14.9155 L3.255,14.915375 Z M2.7975,14.874 C2.82775,14.67475 2.49625,14.494875 1.84475,14.3565 C1.366625,14.255 1.15575,14.31275 1.191625,14.53475 C1.211125,14.656 1.370375,14.74475 1.822,14.885625 C2.544875,15.111125 2.76225,15.108625 2.797625,14.874 L2.7975,14.874 Z M3.435,13.946625 C4.27,13.575 4.34225,12.637625 3.555,12.391625 C3.227875,12.289375 3.01925,12.3445 2.894125,12.565875 C2.79825,12.7355 2.862375,13.04375 2.993375,13.04375 C3.03775,13.04375 3.073875,13.100875 3.073875,13.1705 C3.073875,13.496 1.799125,13.6435 1.276375,13.3785 C1.092625,13.285375 1.012625,13.04375 1.165625,13.04375 C1.279875,13.04375 1.358875,12.7975 1.300625,12.623375 C1.220875,12.386125 0.981875,12.303875 0.634875,12.394625 C-0.147625,12.59925 -0.12575,13.518875 0.671125,13.909125 C1.3245,14.229125 2.756875,14.248625 3.435125,13.946625 L3.435,13.946625 Z" id="Shape" fill="#FFB700"></path>
                                <path d="M2.915625,13.226 C2.964,13.18025 2.943125,13.10975 2.861875,13.046 C2.684375,12.906625 2.693875,12.699125 2.888625,12.4615 C3.034875,12.283125 3.053,12.016125 3.10325,9.32325 C3.19,4.6825 3.535125,1.192 3.99,0.3545 C4.17125,0.02125 4.14575,0.019875 3.677875,0.33825 C3.075,0.74825 2.616125,1.2825 2.2095,2.047 C1.44175,3.490375 1.174875,5.432375 1.174875,9.577625 C1.174875,11.931375 1.190875,12.239375 1.324875,12.460625 C1.452375,12.670625 1.459,12.748375 1.3695,12.972875 C1.3115,13.118375 1.28525,13.257375 1.311125,13.281875 C1.482375,13.444375 2.731125,13.401125 2.9155,13.2265 L2.915625,13.226 Z M9.931,8.800625 C9.95725,8.760625 9.899375,8.558125 9.802625,8.351 C9.65175,8.027875 9.591,7.97425 9.376,7.97425 C8.702625,7.97425 7.62,7.67325 6.503875,7.17575 C5.859375,6.8885 5.63675,6.8225 5.559375,6.89575 C5.36225,7.0825 5.69,7.52575 6.1975,7.75875 C6.6475,7.9655 7.90625,8.2195 8.480625,8.2195 C8.81375,8.2195 8.821625,8.2345 8.631875,8.5085 L8.492625,8.71 L8.8695,8.71975 C9.07675,8.725 9.362875,8.7575 9.505375,8.79175 C9.875375,8.881 9.87875,8.881 9.93125,8.80075 L9.931,8.800625 Z" id="Shape" fill="#FFB700"></path>
                                <path d="M13.865,10.892 C13.865,10.772 13.51275,10.447 13.15575,10.2375 C12.8755,10.073 12.829125,10.068 12.8285,10.20225 C12.827625,10.406 12.6465,10.917625 12.575375,10.917625 C12.535375,10.917625 12.476,10.817625 12.4435,10.6955 C12.411,10.57325 12.27525,10.332375 12.141625,10.16025 L11.8985,9.847375 L11.70925,10.137375 C11.53275,10.40775 11.227125,10.672625 11.0915,10.672625 C11.059,10.672625 11.05275,10.530125 11.077375,10.356 C11.104,10.166875 11.083375,10.016875 11.025875,9.98325 C10.973,9.952375 10.929625,9.96325 10.929625,10.00725 C10.929625,10.109125 10.50525,10.59075 10.415375,10.59075 C10.378375,10.59075 10.326625,10.45275 10.300375,10.284125 C10.274125,10.115375 10.229125,9.84875 10.200875,9.691375 C10.1725,9.533875 10.233,9.64075 10.33525,9.9285 L10.521125,10.451875 L10.724875,10.132875 C10.837125,9.9575 10.929,9.765875 10.92925,9.707 C10.92925,9.64825 10.967375,9.622 11.0135,9.649 C11.0595,9.676125 11.1235,9.887 11.156,10.11775 L11.21475,10.53725 L11.439,10.29125 C11.562375,10.156 11.707,9.975 11.76025,9.88875 C11.8555,9.73525 11.860875,9.735375 12.05025,9.895875 C12.156125,9.985875 12.319,10.200875 12.412375,10.373875 C12.50575,10.54675 12.5945,10.6755 12.609875,10.660125 C12.624875,10.644375 12.659125,10.466 12.685625,10.263625 C12.712125,10.061375 12.735625,9.88825 12.738125,9.879125 C12.751375,9.829125 13.413875,10.2595 13.659,10.477625 C13.8165,10.617625 13.966125,10.712625 13.9915,10.688875 C14.016875,10.664875 14.0375,10.458 14.0375,10.229375 C14.0375,9.874875 14,9.779875 13.78325,9.586125 C13.534,9.36325 13.527,9.362 13.435,9.524875 C13.315375,9.736625 13.174375,9.739625 13.174375,9.530625 C13.174375,9.378125 12.703375,8.791875 12.580625,8.791875 C12.549,8.791875 12.449875,8.920625 12.360375,9.078125 C12.270875,9.235625 12.174625,9.364125 12.146625,9.364 C12.025625,9.363375 11.361625,8.623 11.361875,8.489375 C11.361875,8.383125 11.406625,8.41025 11.523125,8.58775 C11.6115,8.72275 11.788125,8.924 11.915625,9.03525 C12.173875,9.2605 12.26775,9.20575 12.367375,8.7715 C12.39575,8.648 12.444875,8.546875 12.476875,8.546875 C12.587375,8.546875 13.165375,9.160875 13.246875,9.364375 L13.328375,9.568875 L13.39025,9.343875 C13.46575,9.068875 13.54925,9.058875 13.669875,9.309625 C13.720375,9.414375 13.969375,9.632125 14.223375,9.79375 L14.685,10.0875 L14.777875,9.792 C14.82875,9.6295 14.896375,9.536125 14.927875,9.5845 C14.974875,9.656625 14.854875,10.146 14.764375,10.251375 C14.750625,10.26725 14.601125,10.180125 14.431875,10.057625 L14.124,9.8355 L14.12275,10.2335 C14.122,10.45225 14.09825,10.714375 14.069625,10.8155 C14.013625,11.013375 13.865,11.069 13.865,10.892125 L13.865,10.892 Z M11.563,7.71875 C11.01425,7.2605 10.930875,7.155625 10.943,6.9385 L10.956,6.70725 L10.991875,6.930625 C11.01275,7.061 11.158875,7.256375 11.343125,7.400125 L11.6585,7.646375 L11.85225,7.42225 C11.959,7.299 12.047625,7.15225 12.049375,7.096 C12.05375,6.949375 12.080125,6.961625 12.451625,7.284 C12.781625,7.5705 12.786875,7.571875 12.836,7.3865 C12.8635,7.28275 12.8535,7.088125 12.814375,6.9535 C12.7065,6.5835 12.727625,6.527625 12.891125,6.75075 C12.972375,6.862 13.103375,7.019125 13.181875,7.100125 C13.31875,7.24075 13.327125,7.238875 13.378125,7.058875 C13.40725,6.955625 13.431875,6.766375 13.432375,6.6385 L13.433625,6.406 L13.731125,6.74325 C14.00925,7.0585 14.034875,7.070125 14.119875,6.919875 C14.169625,6.8315 14.211125,6.618625 14.211875,6.447375 C14.21275,6.2255 14.236125,6.169625 14.2925,6.254 C14.38675,6.39525 14.32125,6.779 14.1475,7.105875 L14.022875,7.3405 L13.859125,7.0855 C13.649625,6.75925 13.579875,6.7645 13.445375,7.1165 C13.3185,7.449 13.235875,7.474375 13.112125,7.218625 C13.032125,7.053125 13.01675,7.073375 12.959875,7.421125 L12.896625,7.807625 L12.517875,7.513625 L12.1395,7.219875 L11.96925,7.413375 C11.8755,7.519625 11.79775,7.652875 11.79625,7.709 C11.792875,7.831 11.701875,7.83475 11.563,7.719 L11.563,7.71875 Z M16.444375,6.012 C16.244625,5.832 16.106875,5.660375 16.1385,5.6305 C16.170125,5.6005 16.205625,5.592 16.2175,5.6115 C16.229375,5.630875 16.3925,5.8025 16.580375,5.993 C17.0125,6.431375 16.923625,6.443875 16.444375,6.012 L16.444375,6.012 Z M9.9425,5.34 C9.760625,5.094375 9.773125,4.9315 9.994375,4.66525 C10.154125,4.47275 10.227125,4.44675 10.50625,4.482125 C10.68525,4.504875 11.0705,4.663125 11.3625,4.833625 C11.699375,5.030625 12.048,5.162375 12.318,5.195375 C12.55175,5.22375 12.743,5.2345 12.743,5.219125 C12.743,5.203875 12.646,5.045625 12.52725,4.8675 C12.245375,4.44475 12.255,4.399375 12.573,4.65275 C12.89925,4.91275 13.28975,4.989 14.162,4.962375 L14.58825,4.94925 L14.341,4.704875 C13.99525,4.363 14.101625,4.332375 14.4835,4.663875 C14.841625,4.974625 14.81925,4.996625 14.065375,5.07175 C13.745125,5.10375 13.400625,5.0805 13.114125,5.00775 C12.685875,4.899 12.669125,4.9005 12.750375,5.044 C12.797125,5.126875 12.872875,5.1945 12.91875,5.1945 C12.9645,5.1945 13.002,5.2365 13.002,5.28775 C13.002,5.44525 12.07675,5.30675 11.6345,5.08275 C10.6245,4.5715 10.497375,4.52725 10.257,4.603 C10.12325,4.645125 9.9895,4.7685 9.94325,4.892125 C9.78925,5.304625 10.37425,5.62525 10.6155,5.260625 C10.6855,5.155 10.66925,5.082625 10.54625,4.954125 C10.377875,4.777875 10.39375,4.752875 10.620875,4.835375 C10.782125,4.894125 10.804,5.281375 10.653875,5.4235 C10.48225,5.586 10.090375,5.54 9.942375,5.33975 L9.9425,5.34 Z" id="Shape" fill="#000000"></path>
                                <path d="M13.921,4.32125 C13.79475,4.20175 13.89375,4.1725 14.46,4.161875 C15.1605,4.14875 15.586,4.031875 16.088,3.715125 C16.49025,3.461375 16.59925,3.511375 16.2175,3.774625 C15.86925,4.014625 15.326,4.199375 14.8015,4.255875 C14.54775,4.283375 14.258125,4.321125 14.158375,4.34 C14.058625,4.35875 13.95175,4.3505 13.920875,4.32125 L13.921,4.32125 Z" id="Shape" fill="#000000"></path>
                            </g>
                        </g>
                        <g id="b">
                            <path d="M7.811,25.220625 L8.101625,25.052875 L8.226,25.221 C8.391625,25.44475 8.84975,25.44225 9.154,25.216 L9.3865,25.042625 L9.58125,25.216 C9.83725,25.44375 10.315375,25.444 10.620625,25.21675 C10.834375,25.0575 10.864375,25.05425 11.005625,25.1755 C11.08975,25.247625 11.336875,25.329875 11.554625,25.358 C11.946875,25.409 11.95275,25.40625 12.182125,25.062 C12.374375,24.77375 12.404625,24.657 12.358625,24.377375 C12.3244153,24.1575781 12.3000991,23.936355 12.28575,23.714375 C12.26825,23.38975 12.270125,23.38775 12.743,23.223125 C13.00425,23.132125 13.3065,23.01025 13.41475,22.951875 C13.6035,22.850625 14.124125,22.23875 14.124125,22.118125 C14.124125,22.08625 13.92075,22.03725 13.672125,22.009375 C12.683125,21.8985 12.515875,21.3675 13.158375,20.38125 C14.206875,18.7725 14.839625,17.20625 14.84375,16.20825 C14.845625,15.762 14.871,15.612375 14.928375,15.7095 C15.162625,16.10575 14.743,17.767875 14.107125,18.961375 L13.851375,19.442125 L14.095625,19.385875 C14.229875,19.355 15.019625,19.02175 15.850625,18.645375 C18.124875,17.615375 18.906125,17.4135 20.378125,17.475375 C21.611125,17.527375 22.13625,17.768375 23.006875,18.681625 C23.468125,19.165375 23.9125,19.511375 24.72525,20.020125 C26.456875,21.104125 26.529,21.198 26.6115,22.472625 C26.694875,23.76425 26.653375,23.83425 25.6765,24.050125 C24.8415,24.2345 24.31825,24.623875 24.17775,25.1645 C24.10275,25.45325 24.260625,25.461625 24.6815,25.191125 L24.99,24.992875 L25.12725,25.191125 C25.307625,25.45175 25.691,25.452875 26.009375,25.193625 L26.25,24.9975 L26.495875,25.193375 C26.87775,25.49775 27.385625,25.423875 27.529,25.043375 C27.5565,24.970125 27.63,24.993375 27.779,25.122875 C28.058,25.365375 28.77325,25.469375 28.85025,25.27875 C28.879875,25.206 28.824,25.02625 28.726,24.8795 C28.30975,24.2555 28.17975,23.958 28.17425,23.61825 C28.16675,23.14575 28.307625,22.918 28.845,22.53375 C29.49775,22.067 29.699375,21.465 29.203,21.465 C28.8965,21.465 28.587625,21.194 28.3905,20.7525 C27.99,19.855 28.0685,18.849 28.669625,17.175375 C29.28025,15.475375 29.348,15.161875 29.350375,14.025 C29.352375,13.10575 29.329125,12.94675 29.120125,12.44275 C28.992375,12.134625 28.732875,11.67575 28.543625,11.423125 L28.1995,10.96375 L28.64125,10.59775 C29.99,9.48025 29.714125,7.65125 28.090375,6.9465 C27.5935,6.730875 27.469375,6.711875 26.598875,6.71775 C26.07675,6.72125 25.280125,6.79 24.82925,6.8705 C24.36925,6.9525 23.590875,7.0185 23.05675,7.0205 C22.208625,7.024 22.064625,7.003 21.737625,6.82925 C21.39675,6.647625 21.33825,6.5615 21.271625,6.142125 C21.257875,6.055875 21.197625,5.969875 21.137625,5.950875 C21.02175,5.914625 20.486375,6.379125 20.407125,6.585 C20.368125,6.686625 20.33625,6.679625 20.22175,6.544125 C20.1455,6.454125 20.0395,6.2475 19.98575,6.084875 C19.85075,5.67575 20.016625,5.369125 20.497375,5.139375 L20.870375,4.961125 L20.650375,4.824625 C20.196625,4.543 19.42475,4.735625 19.145625,5.20025 C19.066625,5.33175 18.980625,5.4395 18.954375,5.43975 C18.928125,5.43975 18.777875,5.3145 18.620625,5.161 C18.03475,4.5885 18.23625,3.74125 19.020125,3.4825 C19.438125,3.344625 19.808,3.45 19.884875,3.7285 C20.002375,4.154125 20.367625,3.59475 20.302125,3.08975 C20.258625,2.75375 20.265125,2.74225 20.4975,2.74225 C20.8205,2.74225 21.508375,3.16625 21.72125,3.49675 C21.96825,3.8805 21.95025,4.485 21.678375,4.9355 L21.464875,5.28925 L21.744,5.23325 C22.1535,5.151125 22.5515,4.897 22.75275,4.58825 C22.9655,4.26225 22.988375,3.627375 22.79975,3.28475 C22.61675,2.952625 22.637625,2.9 22.908,3.01225 C23.368,3.203 23.613625,3.4135 23.798,3.77425 C23.96425,4.09925 23.973375,4.17975 23.8835,4.518 C23.828,4.72675 23.70475,5.001 23.60925,5.128 C23.46075,5.3255 23.4555,5.3585 23.574,5.3585 C23.79425,5.3585 24.254375,5.15 24.41775,4.976 C24.50025,4.888125 24.62075,4.67175 24.68525,4.495125 L24.80275,4.173875 L24.9375,4.418875 C25.12825,4.764875 25.499,5.076375 25.95125,5.270125 C26.4375,5.478625 26.63975,5.490375 26.3855,5.295375 C26.21425,5.163875 25.898,4.236625 25.993875,4.146125 C26.050125,4.092875 26.710375,4.600875 27.464125,5.277375 C28.177125,5.917375 28.625125,6.127375 29.28,6.127375 C30.1165,6.127375 30.60375,5.399 30.2275,4.7105 C30.008375,4.309 29.52,4.25325 29.2345,4.597 C29.10325,4.755125 29.067,4.88075 29.10575,5.04675 C29.15275,5.249875 29.1345,5.27675 28.94925,5.27675 C28.706125,5.27675 28.22675,4.965875 27.3755,4.2555 C26.0775,3.172375 24.50025,2.25425 23.36125,1.918875 C22.630375,1.703625 21.069125,1.619625 20.32625,1.755625 C19.522,1.90275 18.570875,2.362875 18.0525,2.855625 C17.1345,3.728375 17.12,4.89 18.01375,5.947875 L18.27,6.250875 L18.096625,6.520125 C17.844375,6.911875 17.866,7.439125 18.150125,7.827625 C18.275375,7.9985 18.401625,8.138375 18.43075,8.13825 C18.459875,8.13825 18.492,8.02825 18.50175,7.893875 C18.52675,7.554125 18.67275,7.326375 18.923,7.236375 C19.1485,7.155125 19.29425,7.1935 20.326375,7.6055 C21.412375,8.039 23.19825,8.06875 25.097125,7.685125 C26.028,7.497125 27.125625,7.508125 27.608625,7.7105 C28.493875,8.081375 28.699125,9.04625 28.04825,9.778625 C27.7665,10.095625 27.49475,10.224875 26.582625,10.475125 C25.8885,10.665625 25.724125,10.67825 24.146375,10.662625 C22.798625,10.648875 22.314125,10.675125 21.763875,10.789875 C21.166625,10.9145 20.79925,10.927125 19.044625,10.882875 L17.015875,10.831625 L17.240875,11.017875 C17.364625,11.120375 17.539625,11.246625 17.629625,11.29825 C17.7825,11.386 17.777375,11.397875 17.55,11.482 C17.41625,11.53175 17.119625,11.57225 16.89075,11.57225 L16.4745,11.57225 L16.41825,11.926 C16.387625,12.120375 16.389875,12.3475 16.4235,12.430625 C16.47325,12.553125 16.45475,12.570625 16.325625,12.52375 C16.237875,12.492 15.994125,12.429375 15.78375,12.38475 C15.57325,12.34 15.29,12.249125 15.15425,12.182625 C14.92575,12.07075 14.9005,12.073875 14.81625,12.222625 C14.74125,12.3555 14.03625,12.880125 13.93275,12.880125 C13.916,12.880125 13.8945,12.779125 13.884875,12.655375 C13.875125,12.531625 13.773625,12.209875 13.658625,11.94 C13.544125,11.67025 13.424375,11.375875 13.39275,11.286 C13.344875,11.15025 13.32325,11.1435 13.265625,11.245125 C13.227625,11.312625 13.171875,11.496375 13.141875,11.653875 C13.111875,11.811375 13.005625,12.066875 12.905625,12.222 L12.724125,12.504 L12.608375,12.26275 C12.484,12.004 12.277625,11.735625 12.202875,11.735625 C12.177625,11.735625 12.134625,11.818375 12.107375,11.919625 C12.050375,12.130875 11.560875,12.716625 11.441375,12.716625 C11.397375,12.716625 11.361375,12.551 11.361375,12.348625 C11.361375,12.146375 11.322625,11.98075 11.275125,11.98075 C11.227625,11.98075 11.188625,12.033 11.188625,12.097 C11.188625,12.252625 10.770625,12.7165 10.630375,12.7165 C10.569125,12.7165 10.47075,12.7715 10.411625,12.839 C10.257625,13.015 10.131625,12.99025 10.19625,12.796875 C10.226625,12.706125 10.206875,12.494625 10.1525,12.326875 C10.097875,12.15875 10.04,11.98 10.02375,11.929375 C10.003,11.865875 9.853125,11.88275 9.53625,11.984375 C9.02375,12.14875 8.852,12.119625 9.1155,11.913125 C9.21175,11.837875 9.35825,11.5765 9.441,11.3325 C9.52375,11.08875 9.646,10.872125 9.71225,10.8515 C9.805375,10.82275 9.8005,10.858375 9.69075,11.00675 C9.612375,11.1125 9.548,11.2555 9.54775,11.32425 C9.54775,11.39275 9.4885,11.5555 9.41675,11.686 C9.345,11.81625 9.299875,11.936 9.3165,11.951625 C9.333125,11.96725 9.528,11.893125 9.749625,11.786875 L10.152625,11.59375 L10.15425,11.7665 C10.155125,11.8615 10.20375,12.11225 10.262125,12.32375 L10.368375,12.708125 L10.642625,12.582125 C10.923,12.453375 11.1885,11.993875 11.1885,11.63775 C11.1885,11.46175 11.289375,11.48875 11.330625,11.675875 C11.342875,11.730875 11.406125,11.936875 11.471375,12.133875 L11.590125,12.491875 L11.777875,12.265625 C11.881125,12.141375 12.010625,11.897375 12.065625,11.723625 C12.161,11.422 12.310875,11.292375 12.310875,11.511375 C12.310875,11.66925 12.74175,12.235375 12.824625,12.18675 C12.865,12.16325 12.945,11.95075 13.0025,11.7145 C13.1225,11.22325 13.315625,10.88925 13.438375,10.961 C13.484625,10.988125 13.5025,11.0405 13.478375,11.077625 C13.454125,11.114625 13.553375,11.433875 13.69875,11.787375 C13.8073103,12.0506886 13.9155188,12.3141472 14.023375,12.57775 C14.0765,12.70875 14.124625,12.68975 14.436375,12.414375 C14.6305,12.243125 14.806625,12.051125 14.827875,11.988125 C14.859875,11.892625 14.903125,11.896125 15.084625,12.00875 C15.338375,12.16625 16.191625,12.42 16.2575,12.3575 C16.28225,12.334125 16.3075,12.11 16.31375,11.8595 L16.325,11.404125 L16.5705,11.455125 C16.70525,11.483125 16.989,11.481375 17.200875,11.451375 L17.586125,11.396375 L17.242875,11.161 C17.053875,11.0315 16.862875,10.863875 16.8185,10.7885 C16.771,10.70825 16.603,10.640125 16.412625,10.624 C15.898375,10.58025 14.98675,10.069 14.98675,9.824 C14.98675,9.778125 15.113,9.85625 15.2675,9.99775 C15.60975,10.3115 16.085375,10.508375 16.50075,10.508375 L16.8115,10.508375 L16.61925,10.25275 C16.508875,10.105875 16.40975,9.827125 16.3865,9.59775 C16.3495,9.2325 16.310875,9.174375 15.929375,8.90925 C15.70025,8.749875 15.416375,8.511 15.298625,8.3785 L15.0845,8.1375 L14.975375,8.42375 C14.915375,8.581 14.841875,8.70975 14.81225,8.70975 C14.7825,8.70975 14.667,8.61775 14.5555,8.505375 C14.444,8.393125 14.3305,8.301625 14.303,8.302 C14.27575,8.3025 14.17675,8.454 14.0835,8.6385 L13.91375,8.974125 L13.7825,8.78075 C13.71025,8.6745 13.53975,8.486125 13.40375,8.3625 C13.2675,8.23875 13.19575,8.1375 13.2445,8.1375 C13.29325,8.1375 13.461125,8.26625 13.618,8.42375 L13.903,8.71 L14.01925,8.500375 C14.088,8.376 14.11375,8.18475 14.082625,8.030375 C14.037125,7.804875 14.0435,7.791625 14.129875,7.93325 C14.184875,8.02325 14.351625,8.19575 14.5005,8.316375 L14.771375,8.536 L14.958125,8.19375 C15.144,7.853125 15.145375,7.8525 15.229875,8.055875 C15.343125,8.327875 16.161875,8.999125 16.859,9.391375 C16.9665,9.45175 16.92125,9.243875 16.72275,8.765875 C16.67025,8.639375 16.62725,8.411125 16.62725,8.25875 C16.62725,8.03275 16.562,7.93225 16.273,7.71225 C15.8555,7.39475 15.7205,7.168875 15.642,6.656625 C15.610125,6.449125 15.537,6.21825 15.47975,6.14375 C15.3945,6.033 15.3805,6.095 15.40325,6.48 C15.418625,6.73975 15.384875,7.0625 15.32825,7.1975 L15.22525,7.4425 L15.145625,7.23825 C15.101875,7.12575 14.908375,6.930375 14.715625,6.803875 C14.52275,6.67725 14.387375,6.552625 14.41475,6.526625 C14.44225,6.500625 14.640625,6.615875 14.855625,6.782875 C15.183375,7.037125 15.255625,7.064625 15.300875,6.952625 C15.354125,6.821 15.300875,6.2485 15.19775,5.848375 C15.1465,5.648625 15.150875,5.649625 15.397375,5.896125 C15.579125,6.077875 15.679625,6.294625 15.757375,6.67275 C15.856375,7.153125 15.906375,7.233125 16.350625,7.62325 C16.617375,7.8575 16.849375,8.036 16.8665,8.019875 C16.8835,8.003625 16.917125,7.397875 16.9415,6.67325 C16.98775,5.283875 16.93525,4.95325 16.600625,4.524 L16.42875,4.3035 L16.699,4.011875 C17.0515,3.631625 17.2135,3.326875 17.28375,2.910875 L17.340875,2.572625 L17.035875,2.861375 C16.786125,3.097875 16.66675,3.150125 16.3775,3.150125 C16.09125,3.150125 15.97925,3.10225 15.78625,2.896375 C15.554625,2.64975 15.14425,2.41225 14.749625,2.29675 C14.60375,2.254 14.555375,2.272625 14.555375,2.37125 C14.555375,2.443375 14.47475,2.652 14.376375,2.83475 L14.197625,3.166875 L13.822625,2.796375 C13.592625,2.569125 13.319625,2.39225 13.116625,2.338875 C12.597875,2.202375 12.56975,2.216 12.56975,2.602375 C12.56975,3.188625 12.3195,3.297875 11.869,2.90825 C11.525625,2.611125 11.240875,2.546625 10.589625,2.61825 L10.08675,2.6735 L10.177125,2.9005 C10.25275,3.090125 10.235625,3.17 10.07375,3.3855 C9.81125,3.734625 9.469625,3.886 8.94375,3.886 C8.70175,3.886 8.39875,3.936 8.2705,3.99725 C8.142375,4.0585 7.82375,4.129125 7.562625,4.154125 C7.301375,4.179125 7.023125,4.22375 6.944125,4.25325 C6.820375,4.2995 6.806625,4.261375 6.846625,3.98 C6.9075,3.549375 6.606625,3.23175 6.137875,3.23175 C5.53,3.23175 5.2495,3.77575 5.487625,4.49325 C5.5392812,4.6525023 5.58374286,4.81399908 5.620875,4.97725 C5.649375,5.110125 5.923375,5.46275 6.25875,5.7985 C6.582125,6.122 6.887875,6.45875 6.938,6.546625 C6.98825,6.6345 7.15425,6.775625 7.30675,6.860375 L7.58425,7.013875 L7.5475,6.71725 C7.50725,6.391 7.578375,6.33975 7.751875,6.570125 C7.814125,6.652375 7.971625,6.785375 8.10225,6.865625 C8.308,6.992125 8.33975,6.994625 8.33975,6.884875 C8.33975,6.815125 8.381625,6.654625 8.432875,6.528 L8.526,6.298 L8.687625,6.611 C8.776625,6.78325 9.06575,7.17475 9.330125,7.481 C9.8435,8.075 10.156375,8.738875 9.994875,8.89175 C9.929375,8.95375 9.752375,8.948875 9.385625,8.87525 C9.101375,8.81825 8.74975,8.788 8.604375,8.80825 C8.306875,8.8495 8.283625,8.811125 8.466375,8.582375 C8.65925,8.340875 8.628625,8.301125 8.249625,8.301125 C7.81125,8.301125 6.723,8.090875 6.305125,7.9255 C5.898875,7.76475 5.805125,7.804875 5.685625,8.190125 C5.631875,8.363375 5.533125,8.677625 5.466625,8.88825 L5.345375,9.27125 L5.785125,9.22875 C6.02675,9.2055 6.337625,9.1525 6.476,9.11125 C6.61425,9.06975 6.74,9.04775 6.75525,9.06225 C6.770625,9.07675 6.709,9.226375 6.61825,9.39475 L6.453625,9.701 L6.727625,9.645125 C6.878375,9.6145 7.105125,9.53925 7.231375,9.478125 C7.451375,9.371875 7.46925,9.379375 7.642625,9.658125 C7.856125,10.000625 8.02675,9.986375 8.064625,9.623125 C8.104,9.247625 8.2275,9.303125 8.459875,9.800625 C8.68325,10.279375 8.91575,10.448125 8.960375,10.164375 C8.975375,10.070375 9.095625,9.917125 9.227875,9.823875 C9.495375,9.635375 9.697125,9.692 9.812625,9.987875 C9.932375,10.294125 9.6655,10.61 8.889125,11.080625 C7.334125,12.023125 6.430125,13.312625 6.172,14.955875 C5.939125,16.438 6.666125,17.969625 8.1245,19.069625 C8.8225,19.596125 9.93125,20.15175 9.86075,19.939625 C9.5615,19.039625 9.571375,17.3215 9.877375,17.03175 C9.923375,16.98825 9.907625,17.1675 9.842375,17.43 C9.599375,18.408125 9.704875,19.1875 10.32775,21.014125 C10.891125,22.66625 10.813125,23.372375 10.015875,23.839125 C9.759875,23.989125 9.595,24.013625 8.906375,24.005375 C8.15925,23.99625 8.077875,24.01125 7.838,24.202375 C7.6055,24.387625 7.304,24.996125 7.304,25.279875 C7.304,25.433625 7.47475,25.413375 7.81025,25.219625 L7.811,25.220625 Z" id="Shape" fill="#FFB700"></path>
                            <path d="M19.938375,25.1875 L20.25175,24.985875 L20.46425,25.187375 C20.743,25.451125 21.0695,25.44525 21.337375,25.171375 C21.454125,25.052 21.559125,24.96925 21.5705,24.987625 C21.58175,25.00575 21.634,25.09425 21.686375,25.18425 C21.752625,25.298 21.888875,25.3555 22.1345,25.372625 C22.43075,25.3935 22.510125,25.364875 22.62775,25.194875 L22.768,24.992125 L23.0765,25.190375 C23.921125,25.73325 24.37125,25.16375 23.99375,24.029625 C23.802,23.453 23.9075,23.128875 24.52625,22.394875 C24.787,22.085375 25.000625,21.755125 25.000875,21.660875 C25.000875,21.510625 24.952625,21.4905 24.605375,21.497375 C24.27325,21.504 24.176,21.46825 24.001125,21.27575 C23.716625,20.962625 23.733625,20.604125 24.051375,20.206125 L24.305375,19.88825 L23.85475,19.5825 C23.60675,19.414375 23.15975,19.0165 22.861375,18.69825 C22.191125,17.983625 21.532125,17.64475 20.663,17.568 L20.0805,17.516375 L20.08125,17.957625 C20.0825,18.525375 20.34875,19.071625 21.07625,19.99675 C21.903125,21.04875 21.960875,21.21175 21.994375,22.5865 L22.02275,23.7495 L21.783375,23.9765 C21.567125,24.1815 21.469625,24.20775 20.77175,24.248125 C20.1075,24.286375 19.968,24.320625 19.773,24.493375 C19.51425,24.72275 19.43675,24.8475 19.35675,25.16425 C19.310125,25.34875 19.329,25.389 19.46225,25.389 C19.551625,25.389 19.765625,25.298375 19.938,25.18775 L19.938375,25.1875 Z M2.163,22.182 C2.23675,22.082 2.297375,21.92075 2.297375,21.82325 C2.297375,21.676375 2.363,21.637 2.686125,21.59125 L3.074875,21.536 L2.8155,21.329375 C2.5075,21.084 2.479,20.89225 2.7505,20.891875 C3.020875,20.891875 3.478875,20.611 3.548375,20.403125 C3.580875,20.306875 3.560375,20.177625 3.502375,20.1115 C3.35075,19.9385 3.065875,19.9645 3.012875,20.15625 C2.956,20.3625 2.86075,20.362875 2.64475,20.15825 C2.31975,19.85075 2.3125,19.21375 2.6295,18.842875 C2.779,18.667875 2.777625,18.656625 2.587,18.476125 C2.382,18.281875 2.23575,17.897625 2.332,17.8065 C2.36275,17.7775 2.5245,17.800625 2.692,17.85775 C2.9295,17.93925 3.0235,17.9405 3.121375,17.8635 C3.418,17.63025 3.096625,17.330375 2.621,17.3965 C2.4295,17.423125 2.350375,17.3965 2.322875,17.29725 C2.302125,17.221875 2.134625,17.1235 1.946,17.076 C1.608875,16.990625 1.6065,16.99175 1.6065,17.224 C1.6065,17.4785 1.46125,17.5265 1.18525,17.36325 C0.96075,17.2305 0.74325,17.3335 0.74325,17.5725 C0.74325,17.795375 0.967375,17.90525 1.369125,17.879375 C1.67725,17.859375 1.688625,18.088625 1.396,18.418125 L1.185625,18.654875 L1.35225,18.8945 C1.59925,19.24925 1.5785,19.83825 1.30875,20.131 L1.09725,20.36025 L0.9585,20.17625 C0.76575,19.920625 0.502,19.93775 0.42975,20.210625 C0.38225,20.389375 0.4215,20.471 0.64525,20.660375 C0.795625,20.787625 1.01525,20.891625 1.133,20.891625 C1.425,20.891625 1.4135,21.12125 1.110125,21.353125 L0.872625,21.534625 L1.239625,21.591375 C1.44125,21.622625 1.606375,21.681375 1.606375,21.72225 C1.606375,21.87825 1.860625,22.3635 1.942375,22.3635 C1.989625,22.3635 2.088625,22.2815 2.162625,22.181625 L2.163,22.182 Z" id="Shape" fill="#FFB700"></path>
                            <path d="M6.940375,20.11125 C7.273625,19.98 7.995125,19.369125 7.995125,19.218125 C7.995125,19.170625 7.796125,18.951625 7.552625,18.7315 C7.0405,18.268125 6.483375,17.48775 6.339125,17.0315 C6.263875,16.7935 5.900125,16.38625 4.87575,15.39275 L3.5125,14.070375 L3.1195,14.169875 C2.90325,14.224625 2.63975,14.27075 2.533625,14.272375 C2.3505,14.275125 2.353875,14.285625 2.597,14.473875 L2.853625,14.672625 L3.213375,14.472625 C3.562125,14.27925 3.574625,14.278125 3.6175,14.433875 C3.64275,14.525125 3.5885,14.683 3.492,14.799125 C3.398625,14.911625 3.345375,15.039125 3.37375,15.082875 C3.402125,15.12625 3.3125,15.217125 3.17425,15.28475 C2.91825,15.41 2.7405,15.82275 2.942625,15.82275 C3.124375,15.82275 3.525125,15.32825 3.478875,15.161 C3.455375,15.075375 3.46675,14.98725 3.504375,14.96525 C3.660625,14.874 3.650625,15.262125 3.492125,15.453 C3.39875,15.5655 3.3455,15.693 3.373875,15.73675 C3.40225,15.780125 3.312625,15.871125 3.174375,15.93875 C2.92,16.06325 2.740625,16.47675 2.940625,16.47675 C3.137125,16.47675 3.53125,16.00425 3.4825,15.8275 C3.45675,15.735 3.466625,15.64125 3.50425,15.61925 C3.60925,15.55775 3.666125,15.86425 3.577375,16.01425 C3.529875,16.094875 3.530125,16.204625 3.578375,16.29175 C3.665625,16.4495 3.577125,16.752375 3.41625,16.84675 C3.3475,16.887 3.394125,16.966125 3.56125,17.0925 C3.8035,17.275375 3.808125,17.2945 3.808125,18.10125 C3.808125,18.77525 3.835375,18.94925 3.959375,19.066625 C4.098125,19.198375 4.110375,19.19875 4.110375,19.0725 C4.110375,18.934625 4.3525,18.766 4.550375,18.766 C4.609125,18.766 4.974125,19.075375 5.361625,19.4535 C5.751625,19.833875 6.159875,20.1575 6.275375,20.178125 C6.390375,20.198625 6.51475,20.220375 6.551875,20.2265 C6.589,20.23275 6.76375,20.18075 6.94025,20.111125 L6.940375,20.11125 Z M2.7725,16.85 C2.7725,16.6325 2.324,16.40075 1.787875,16.340625 C1.355,16.291875 1.347875,16.29475 1.347875,16.511 C1.347875,16.69 1.416,16.760375 1.71475,16.8905 C2.195,17.099625 2.77225,17.0775 2.77225,16.85 L2.7725,16.85 Z" id="Shape" fill="#FFB700"></path>
                            <path d="M3.26375,16.83 C3.4825,16.631625 3.585875,16.395625 3.454375,16.395625 C3.303125,16.395625 2.9015,16.756 2.9015,16.891875 C2.9015,17.103625 2.976125,17.090875 3.263625,16.83 L3.26375,16.83 Z M2.7975,16.1875 C2.81625,16.06475 2.740375,15.982875 2.513,15.88025 C2.022625,15.65875 1.436375,15.556125 1.295125,15.667125 C1.035125,15.871625 1.2085,16.145875 1.628875,16.195375 C1.798,16.215375 2.027625,16.266875 2.138625,16.310125 C2.46175,16.435625 2.768875,16.3785 2.79775,16.187625 L2.7975,16.1875 Z M2.7975,15.530625 C2.824125,15.355625 2.71225,15.293125 1.799125,14.971875 C1.1175,14.731875 0.815625,14.845 1.0335,15.258875 C1.109375,15.403125 1.23675,15.468875 1.5225,15.51175 C1.735,15.543625 2.02525,15.60575 2.16775,15.65 C2.54825,15.768 2.768125,15.72625 2.79775,15.530625 L2.7975,15.530625 Z M3.255,14.915375 C3.39275,14.775625 3.5055,14.610875 3.5055,14.549125 C3.5055,14.348625 2.961375,14.70325 2.892,14.948875 C2.808875,15.2435 2.94375,15.231125 3.255,14.9155 L3.255,14.915375 Z M2.7975,14.874 C2.82775,14.67475 2.49625,14.494875 1.84475,14.3565 C1.366625,14.255 1.15575,14.31275 1.191625,14.53475 C1.211125,14.656 1.370375,14.74475 1.822,14.885625 C2.544875,15.111125 2.76225,15.108625 2.797625,14.874 L2.7975,14.874 Z M3.435,13.946625 C4.27,13.575 4.34225,12.637625 3.555,12.391625 C3.227875,12.289375 3.01925,12.3445 2.894125,12.565875 C2.79825,12.7355 2.862375,13.04375 2.993375,13.04375 C3.03775,13.04375 3.073875,13.100875 3.073875,13.1705 C3.073875,13.496 1.799125,13.6435 1.276375,13.3785 C1.092625,13.285375 1.012625,13.04375 1.165625,13.04375 C1.279875,13.04375 1.358875,12.7975 1.300625,12.623375 C1.220875,12.386125 0.981875,12.303875 0.634875,12.394625 C-0.147625,12.59925 -0.12575,13.518875 0.671125,13.909125 C1.3245,14.229125 2.756875,14.248625 3.435125,13.946625 L3.435,13.946625 Z" id="Shape" fill="#FFB700"></path>
                            <path d="M2.915625,13.226 C2.964,13.18025 2.943125,13.10975 2.861875,13.046 C2.684375,12.906625 2.693875,12.699125 2.888625,12.4615 C3.034875,12.283125 3.053,12.016125 3.10325,9.32325 C3.19,4.6825 3.535125,1.192 3.99,0.3545 C4.17125,0.02125 4.14575,0.019875 3.677875,0.33825 C3.075,0.74825 2.616125,1.2825 2.2095,2.047 C1.44175,3.490375 1.174875,5.432375 1.174875,9.577625 C1.174875,11.931375 1.190875,12.239375 1.324875,12.460625 C1.452375,12.670625 1.459,12.748375 1.3695,12.972875 C1.3115,13.118375 1.28525,13.257375 1.311125,13.281875 C1.482375,13.444375 2.731125,13.401125 2.9155,13.2265 L2.915625,13.226 Z M9.931,8.800625 C9.95725,8.760625 9.899375,8.558125 9.802625,8.351 C9.65175,8.027875 9.591,7.97425 9.376,7.97425 C8.702625,7.97425 7.62,7.67325 6.503875,7.17575 C5.859375,6.8885 5.63675,6.8225 5.559375,6.89575 C5.36225,7.0825 5.69,7.52575 6.1975,7.75875 C6.6475,7.9655 7.90625,8.2195 8.480625,8.2195 C8.81375,8.2195 8.821625,8.2345 8.631875,8.5085 L8.492625,8.71 L8.8695,8.71975 C9.07675,8.725 9.362875,8.7575 9.505375,8.79175 C9.875375,8.881 9.87875,8.881 9.93125,8.80075 L9.931,8.800625 Z" id="Shape" fill="#FFB700"></path>
                            <path d="M13.865,10.892 C13.865,10.772 13.51275,10.447 13.15575,10.2375 C12.8755,10.073 12.829125,10.068 12.8285,10.20225 C12.827625,10.406 12.6465,10.917625 12.575375,10.917625 C12.535375,10.917625 12.476,10.817625 12.4435,10.6955 C12.411,10.57325 12.27525,10.332375 12.141625,10.16025 L11.8985,9.847375 L11.70925,10.137375 C11.53275,10.40775 11.227125,10.672625 11.0915,10.672625 C11.059,10.672625 11.05275,10.530125 11.077375,10.356 C11.104,10.166875 11.083375,10.016875 11.025875,9.98325 C10.973,9.952375 10.929625,9.96325 10.929625,10.00725 C10.929625,10.109125 10.50525,10.59075 10.415375,10.59075 C10.378375,10.59075 10.326625,10.45275 10.300375,10.284125 C10.274125,10.115375 10.229125,9.84875 10.200875,9.691375 C10.1725,9.533875 10.233,9.64075 10.33525,9.9285 L10.521125,10.451875 L10.724875,10.132875 C10.837125,9.9575 10.929,9.765875 10.92925,9.707 C10.92925,9.64825 10.967375,9.622 11.0135,9.649 C11.0595,9.676125 11.1235,9.887 11.156,10.11775 L11.21475,10.53725 L11.439,10.29125 C11.562375,10.156 11.707,9.975 11.76025,9.88875 C11.8555,9.73525 11.860875,9.735375 12.05025,9.895875 C12.156125,9.985875 12.319,10.200875 12.412375,10.373875 C12.50575,10.54675 12.5945,10.6755 12.609875,10.660125 C12.624875,10.644375 12.659125,10.466 12.685625,10.263625 C12.712125,10.061375 12.735625,9.88825 12.738125,9.879125 C12.751375,9.829125 13.413875,10.2595 13.659,10.477625 C13.8165,10.617625 13.966125,10.712625 13.9915,10.688875 C14.016875,10.664875 14.0375,10.458 14.0375,10.229375 C14.0375,9.874875 14,9.779875 13.78325,9.586125 C13.534,9.36325 13.527,9.362 13.435,9.524875 C13.315375,9.736625 13.174375,9.739625 13.174375,9.530625 C13.174375,9.378125 12.703375,8.791875 12.580625,8.791875 C12.549,8.791875 12.449875,8.920625 12.360375,9.078125 C12.270875,9.235625 12.174625,9.364125 12.146625,9.364 C12.025625,9.363375 11.361625,8.623 11.361875,8.489375 C11.361875,8.383125 11.406625,8.41025 11.523125,8.58775 C11.6115,8.72275 11.788125,8.924 11.915625,9.03525 C12.173875,9.2605 12.26775,9.20575 12.367375,8.7715 C12.39575,8.648 12.444875,8.546875 12.476875,8.546875 C12.587375,8.546875 13.165375,9.160875 13.246875,9.364375 L13.328375,9.568875 L13.39025,9.343875 C13.46575,9.068875 13.54925,9.058875 13.669875,9.309625 C13.720375,9.414375 13.969375,9.632125 14.223375,9.79375 L14.685,10.0875 L14.777875,9.792 C14.82875,9.6295 14.896375,9.536125 14.927875,9.5845 C14.974875,9.656625 14.854875,10.146 14.764375,10.251375 C14.750625,10.26725 14.601125,10.180125 14.431875,10.057625 L14.124,9.8355 L14.12275,10.2335 C14.122,10.45225 14.09825,10.714375 14.069625,10.8155 C14.013625,11.013375 13.865,11.069 13.865,10.892125 L13.865,10.892 Z M11.563,7.71875 C11.01425,7.2605 10.930875,7.155625 10.943,6.9385 L10.956,6.70725 L10.991875,6.930625 C11.01275,7.061 11.158875,7.256375 11.343125,7.400125 L11.6585,7.646375 L11.85225,7.42225 C11.959,7.299 12.047625,7.15225 12.049375,7.096 C12.05375,6.949375 12.080125,6.961625 12.451625,7.284 C12.781625,7.5705 12.786875,7.571875 12.836,7.3865 C12.8635,7.28275 12.8535,7.088125 12.814375,6.9535 C12.7065,6.5835 12.727625,6.527625 12.891125,6.75075 C12.972375,6.862 13.103375,7.019125 13.181875,7.100125 C13.31875,7.24075 13.327125,7.238875 13.378125,7.058875 C13.40725,6.955625 13.431875,6.766375 13.432375,6.6385 L13.433625,6.406 L13.731125,6.74325 C14.00925,7.0585 14.034875,7.070125 14.119875,6.919875 C14.169625,6.8315 14.211125,6.618625 14.211875,6.447375 C14.21275,6.2255 14.236125,6.169625 14.2925,6.254 C14.38675,6.39525 14.32125,6.779 14.1475,7.105875 L14.022875,7.3405 L13.859125,7.0855 C13.649625,6.75925 13.579875,6.7645 13.445375,7.1165 C13.3185,7.449 13.235875,7.474375 13.112125,7.218625 C13.032125,7.053125 13.01675,7.073375 12.959875,7.421125 L12.896625,7.807625 L12.517875,7.513625 L12.1395,7.219875 L11.96925,7.413375 C11.8755,7.519625 11.79775,7.652875 11.79625,7.709 C11.792875,7.831 11.701875,7.83475 11.563,7.719 L11.563,7.71875 Z M16.444375,6.012 C16.244625,5.832 16.106875,5.660375 16.1385,5.6305 C16.170125,5.6005 16.205625,5.592 16.2175,5.6115 C16.229375,5.630875 16.3925,5.8025 16.580375,5.993 C17.0125,6.431375 16.923625,6.443875 16.444375,6.012 L16.444375,6.012 Z M9.9425,5.34 C9.760625,5.094375 9.773125,4.9315 9.994375,4.66525 C10.154125,4.47275 10.227125,4.44675 10.50625,4.482125 C10.68525,4.504875 11.0705,4.663125 11.3625,4.833625 C11.699375,5.030625 12.048,5.162375 12.318,5.195375 C12.55175,5.22375 12.743,5.2345 12.743,5.219125 C12.743,5.203875 12.646,5.045625 12.52725,4.8675 C12.245375,4.44475 12.255,4.399375 12.573,4.65275 C12.89925,4.91275 13.28975,4.989 14.162,4.962375 L14.58825,4.94925 L14.341,4.704875 C13.99525,4.363 14.101625,4.332375 14.4835,4.663875 C14.841625,4.974625 14.81925,4.996625 14.065375,5.07175 C13.745125,5.10375 13.400625,5.0805 13.114125,5.00775 C12.685875,4.899 12.669125,4.9005 12.750375,5.044 C12.797125,5.126875 12.872875,5.1945 12.91875,5.1945 C12.9645,5.1945 13.002,5.2365 13.002,5.28775 C13.002,5.44525 12.07675,5.30675 11.6345,5.08275 C10.6245,4.5715 10.497375,4.52725 10.257,4.603 C10.12325,4.645125 9.9895,4.7685 9.94325,4.892125 C9.78925,5.304625 10.37425,5.62525 10.6155,5.260625 C10.6855,5.155 10.66925,5.082625 10.54625,4.954125 C10.377875,4.777875 10.39375,4.752875 10.620875,4.835375 C10.782125,4.894125 10.804,5.281375 10.653875,5.4235 C10.48225,5.586 10.090375,5.54 9.942375,5.33975 L9.9425,5.34 Z" id="Shape" fill="#000000"></path>
                            <path d="M13.921,4.32125 C13.79475,4.20175 13.89375,4.1725 14.46,4.161875 C15.1605,4.14875 15.586,4.031875 16.088,3.715125 C16.49025,3.461375 16.59925,3.511375 16.2175,3.774625 C15.86925,4.014625 15.326,4.199375 14.8015,4.255875 C14.54775,4.283375 14.258125,4.321125 14.158375,4.34 C14.058625,4.35875 13.95175,4.3505 13.920875,4.32125 L13.921,4.32125 Z" id="Shape" fill="#000000"></path>
                        </g>
                    </g>
                </g>
            </g>
        </g>
    </g>
</svg>