<?xml version="1.0" encoding="UTF-8" standalone="no"?>
<svg width="122px" height="60px" viewBox="0 0 122 60" version="1.1" xmlns="http://www.w3.org/2000/svg" xmlns:xlink="http://www.w3.org/1999/xlink">
    <!-- Generator: Sketch 3.8.2 (29753) - http://www.bohemiancoding.com/sketch -->
    <title>nu</title>
    <desc>Created with Sketch.</desc>
    <defs></defs>
    <g id="Page-1" stroke="none" stroke-width="1" fill="none" fill-rule="evenodd">
        <g id="nu">
            <g>
                <rect id="Rectangle-193" fill="#FFD900" x="0" y="0" width="122" height="60"></rect>
                <polygon id="Shape" fill="#000066" points="13 0 109 0 109 47.2131148 13 47.2131148"></polygon>
                <path d="M50.4224092,24.2209799 L13,5.50819672 L13,0 L13.9965488,0 L23.2295084,0 L60.7788013,18.9468912 L97.9836053,0 L107.426228,0 L108.999999,0 L108.999999,5.50819672 L71.2762775,24.243783 L108.999999,43.2786885 L108.999999,47.5041144 L96.9847509,47.5041148 L60.8367625,29.4285958 L24.4424407,47.5039323 L13,47.5039313 L13,43.2786885 L50.4224092,24.2209799 Z" id="Shape" fill="#FFFFFF"></path>
                <path d="M52.3442623,15.5724597 L52.3442623,0 L52.3442623,0 L67.916722,0 L67.916722,15.5724597 L109,15.5724597 L109,31.1449195 L67.916722,31.1449195 L67.916722,47.2131148 L52.3442623,47.2131148 L52.3442623,31.1449195 L13,31.1449195 L13,15.5724597 L52.3442623,15.5724597 Z" id="Shape" fill="#FFFFFF"></path>
                <path d="M55.8323188,28.0288524 L13,28.0288524 L13,18.6885246 L55.8323188,18.6885246 L55.8323188,-1.03028697e-13 L55.8323188,-1.03028697e-13 L65.1755457,-1.03028697e-13 L65.1755457,18.6885246 L109,18.6885246 L109,28.0288524 L65.1755457,28.0288524 L65.1755457,47.2131148 L55.8323188,47.2131148 L55.8323188,28.0288524 Z M13,47.2131154 L44.9315833,31.144698 L51.895572,31.144698 L20.0819672,47.2131154 L19.295082,47.2131154 L13,47.2131154 Z M44.9315833,15.572349 L37.9675945,15.572349 L13,3.14754098 L13,1.64359615e-09 L13.7868852,-2.20490293e-13 L44.9315833,15.572349 Z M69.1122925,15.572349 L100.256991,-1.03028697e-13 L107.220979,-1.03028697e-13 L76.0762813,15.572349 L69.1122925,15.572349 L69.1122925,15.572349 Z M76.0762813,31.144698 L83.0402701,31.144698 L109.000001,44.0655744 L109.000001,47.2131154 L108.213116,47.2131154 L76.0762813,31.144698 Z" id="Shape" fill="#CC0000"></path>
                <g id="Group" transform="translate(36.299999, 8.200000)">
                    <path d="M24.2911252,21.5208952 C20.777284,21.5208952 17.9286015,18.6393541 17.9286015,15.0846458 C17.9286015,11.5299374 20.7771352,8.64839635 24.2911252,8.64839635 C27.8051152,8.64839635 30.6536489,11.5299374 30.6536489,15.0846458 C30.6537977,18.6392036 27.8051152,21.5208952 24.2911252,21.5208952 Z" id="Shape" fill="#000067"></path>
                    <path d="M22.9830119,13.393515 L24.20666,9.69252481 L25.4301593,13.3933645 L29.4002836,13.3906555 L26.1863664,15.6744277 L27.4161141,19.3736119 L24.2060649,17.0844219 L20.9960157,19.37301 L22.2263585,15.6744277 L19.0128876,13.3896021 L22.9830119,13.393515 Z M45.0827656,13.9994106 L45.6891595,12.2669042 L46.2955534,13.9994106 L48.2632092,13.9982067 L46.6703095,15.0673281 L47.2798276,16.7992326 L45.688862,15.7274022 L44.0980451,16.7989316 L44.7077119,15.0673281 L43.1152585,13.9977552 L45.0827656,13.9994106 Z M23.5584612,26.8728125 L24.1648551,25.140306 L24.771249,26.8728125 L26.7389048,26.8716085 L25.1460051,27.9407299 L25.7555232,29.6726344 L24.1645576,28.6008041 L22.5737407,29.6723334 L23.1834075,27.9407299 L21.5909542,26.871157 L23.5584612,26.8728125 Z M23.5584612,1.73250645 L24.1648551,0 L24.771249,1.73250645 L26.7389048,1.73130249 L25.1460051,2.80042391 L25.7555232,4.53232838 L24.1645576,3.46049803 L22.5737407,4.53202739 L23.1834075,2.80042391 L21.5909542,1.730851 L23.5584612,1.73250645 Z M1.96765586,13.9994106 L2.57404973,12.2669042 L3.18044359,13.9994106 L5.14795068,13.9982067 L3.55519976,15.0673281 L4.16456907,16.7992326 L2.57375218,15.7274022 L0.982786527,16.7989316 L1.59260215,15.0673281 L-3.10862447e-15,13.9977552 L1.96765586,13.9994106 Z" id="Shape" fill="#FFF40D"></path>
                </g>
            </g>
        </g>
    </g>
</svg>