<?xml version="1.0" encoding="UTF-8" standalone="no"?>
<svg width="122px" height="60px" viewBox="0 0 122 60" version="1.1" xmlns="http://www.w3.org/2000/svg" xmlns:xlink="http://www.w3.org/1999/xlink">
    <!-- Generator: Sketch 3.8.2 (29753) - http://www.bohemiancoding.com/sketch -->
    <title>mk</title>
    <desc>Created with Sketch.</desc>
    <defs></defs>
    <g id="Page-1" stroke="none" stroke-width="1" fill="none" fill-rule="evenodd">
        <g id="mk">
            <g id="Group">
                <g>
                    <polygon id="Shape" fill="#D20000" points="0 0 122 0 122 60 0 60"></polygon>
                    <path d="M21,0 L33,0 L61,28.92875 L89,0 L101,0 L21,60 L33,60 L61,31.07125 L89,60 L101,60 L21,0 Z M101,24 L101,36 L21,24 L21,36 L101,24 Z M56,0 L61,25.71425 L66,0 L56,0 Z M56,60 L61,34.28575 L66,60 L56,60 Z" id="Shape" fill="#FFE600"></path>
                    <circle id="Oval" stroke="#D20000" stroke-width="2.14299989" fill="#FFE600" cx="61" cy="30" r="9.642875"></circle>
                </g>
            </g>
        </g>
    </g>
</svg>