<?xml version="1.0" encoding="UTF-8" standalone="no"?>
<svg width="122px" height="60px" viewBox="0 0 122 60" version="1.1" xmlns="http://www.w3.org/2000/svg" xmlns:xlink="http://www.w3.org/1999/xlink">
    <!-- Generator: Sketch 39 (31667) - http://www.bohemiancoding.com/sketch -->
    <title>gr</title>
    <desc>Created with Sketch.</desc>
    <defs></defs>
    <g id="Page-1" stroke="none" stroke-width="1" fill="none" fill-rule="evenodd">
        <g id="gr">
            <g id="Clipped">
                <g>
                    <g id="Group">
                        <polygon id="Shape" fill="#0D5EAF" points="0 0 122 0 122 6.6625 0 6.6625"></polygon>
                        <polygon id="Shape" fill="#FFFFFF" points="0 6.6625 122 6.6625 122 13.325 0 13.325"></polygon>
                        <polygon id="Shape" fill="#0D5EAF" points="0 13.325 122 13.325 122 19.9875 0 19.9875"></polygon>
                        <polygon id="Shape" fill="#FFFFFF" points="0 19.9875 122 19.9875 122 26.65 0 26.65"></polygon>
                        <polygon id="Shape" fill="#0D5EAF" points="0 26.65 122 26.65 122 33.3125 0 33.3125"></polygon>
                        <polygon id="Shape" fill="#FFFFFF" points="0 33.3125 122 33.3125 122 39.975 0 39.975"></polygon>
                        <polygon id="Shape" fill="#0D5EAF" points="0 39.975 122 39.975 122 46.6375 0 46.6375"></polygon>
                        <polygon id="Shape" fill="#FFFFFF" points="0 46.6375 122 46.6375 122 53.3 0 53.3"></polygon>
                        <path d="M0,53.3333333 L122,53.3333333 L122,60 L0,60 L0,53.3333333 Z M0,0 L33.4945355,0 L33.4945355,33.3333333 L0,33.3333333 L0,0 Z" id="Shape" fill="#0D5EAF"></path>
                        <g id="Shape" fill="#FFFFFF">
                            <polygon points="13.3978142 0 20.0967213 0 20.0967213 33.3125 13.3978142 33.3125"></polygon>
                            <polygon points="0 13.325 33.4945355 13.325 33.4945355 19.9875 0 19.9875"></polygon>
                        </g>
                    </g>
                </g>
            </g>
        </g>
    </g>
</svg>