<?xml version="1.0" encoding="UTF-8" standalone="no"?>
<svg width="122px" height="60px" viewBox="0 0 122 60" version="1.1" xmlns="http://www.w3.org/2000/svg" xmlns:xlink="http://www.w3.org/1999/xlink">
    <!-- Generator: Sketch 3.8.2 (29753) - http://www.bohemiancoding.com/sketch -->
    <title>bz</title>
    <desc>Created with Sketch.</desc>
    <defs></defs>
    <g id="Page-1" stroke="none" stroke-width="1" fill="none" fill-rule="evenodd">
        <g id="bz">
            <g id="Clipped">
                <g>
                    <g id="Group">
                        <polygon id="Shape" fill="#C60000" points="0 0 122 0 122 60 0 60"></polygon>
                        <polygon id="Shape" fill="#003BB2" points="0 10 122 10 122 50 0 50"></polygon>
                        <path d="M76.142125,29.99975 C76.142125,39.467625 68.46675,47.142625 58.999375,47.142625 C49.5315,47.142625 41.856625,39.467375 41.856625,29.999875 C41.856625,20.532 49.531875,12.857125 58.999375,12.857125 C68.46725,12.857125 76.142125,20.5325 76.142125,29.999875 L76.142125,29.99975 Z" id="Shape" fill="#FFFFFF"></path>
                        <g transform="translate(53.125000, 18.250000)" id="Shape" stroke="#000000" stroke-width="0.1">
                            <path d="M9.0305,6.220502 C9.20280912,6.242228 9.38845125,6.2461898 9.610386,6.220502 C9.79458537,6.2629742 9.93035312,6.3407831 10.0660214,6.3978458 C10.1420394,6.5185103 10.2485541,6.6960458 10.3559395,6.7879766 C10.4025552,6.9343502 10.4713595,6.9957581 10.5630487,7.1426642 C10.5859337,7.2873977 10.6422259,7.4327063 10.5630487,7.5682382 C10.4686481,7.669328 10.3203434,7.728329 10.1902969,7.7810678 C10.0186096,7.8596222 9.918239,7.8885476 9.69324462,7.9229258 C9.50807512,7.9512548 9.31937337,7.9584116 9.11335862,7.9584116 C8.91406012,7.9279526 8.76038237,7.8996875 8.57491437,7.8874826 C8.39049112,7.8592814 8.17945162,7.8447335 7.99502837,7.8165536 C7.875305,7.7565728 7.72075662,7.7073485 7.58085962,7.6746956 C7.48364812,7.5953318 7.34305462,7.5052754 7.208058,7.4264015 C7.10383175,7.2666089 7.0089585,7.2090137 6.918115,7.0717139 C6.83557975,6.9678551 6.7964265,6.8337929 6.79381462,6.6461399 C6.8591115,6.5322914 6.96694462,6.4218509 7.04231587,6.3269168 C7.17161612,6.2537939 7.31775675,6.1567298 7.49795125,6.078644 C7.74132825,6.0712742 7.83635075,6.0101858 8.07783725,6.007715 L8.69914012,6.007715 C8.83968387,6.0197495 8.90908512,6.1266329 9.03047512,6.220502 L9.0305,6.220502 Z" fill="#003300"></path>
                            <path d="M7.53324,11.576632 C7.3675725,10.7608846 7.1190215,8.739259 7.1190215,7.85254 C7.16043838,7.178608 10.1428265,4.873309 10.2256603,4.624951 C10.308494,4.3766782 11.8410428,2.496868 12.089544,1.929436 C11.468266,2.3195668 10.4327446,4.0220119 10.2256603,4.199377 C10.018551,4.3767208 10.6812708,2.4260029 10.4741615,1.823149 C10.2670771,2.5325029 9.93571725,4.341235 9.68719113,4.518664 C9.56296538,4.6250788 7.40908888,6.753034 7.16063738,6.682105 C6.91213613,6.611176 6.24941638,6.256531 6.37369188,6.0437014 C6.4979425,5.8309144 8.15474188,4.5186214 8.23757563,4.057519 C8.32040938,3.5964166 8.44470975,2.4969532 8.61037725,2.390581 C8.7760945,2.2841449 9.02462063,1.7521348 9.231705,1.3265182 C8.69326075,1.5393052 8.61040213,2.1777514 8.40331775,2.2132372 C8.1962085,2.2486804 7.69915625,1.503862 7.69915625,1.503862 C7.69915625,1.503862 8.03049125,2.3196094 8.071933,2.4969532 C8.11337475,2.674297 7.9062655,3.8447107 7.78199,3.98659 C7.65773938,4.128448 6.7464935,5.1215392 6.58077625,5.157025 C6.41510875,5.1924895 5.95949825,3.5255089 5.95949825,3.2063071 C5.95949825,2.8871053 6.29083325,1.6457413 5.95949825,1.574791 C5.752389,1.574791 5.710997,3.028942 5.5867215,3.028942 C5.462446,3.028942 5.172503,1.574791 5.172503,1.574791 C5.172503,1.574791 5.0068355,2.2486804 5.08966925,2.7097402 C4.841168,2.745226 4.17842338,1.8585496 4.17842338,1.8585496 C4.17842338,1.8585496 5.421054,3.7028527 5.669605,3.7737817 C5.91810625,3.8801539 6.1666075,5.2279327 6.1252155,5.2988617 C6.0838235,5.3697907 4.88260975,4.9442167 4.63408363,4.8023161 C4.38558238,4.6604581 3.88850525,3.099871 3.88850525,3.099871 C3.88850525,3.099871 4.1370065,4.6249936 3.84708838,4.4122066 C3.55714538,4.1994196 3.10153488,4.0220545 2.85300875,3.7028527 C2.6045075,3.3836296 2.72875813,2.0713153 2.72875813,2.0713153 C2.72875813,2.0713153 2.31458938,3.2417503 2.14887213,3.2417503 C1.98320463,3.2417503 1.4447355,1.6811845 1.4447355,1.6811845 C1.4447355,1.6811845 1.52756925,3.3836296 1.7760705,3.4900231 C2.02457175,3.5964166 5.75233925,5.7243931 5.7938805,5.9373931 C5.83532225,6.1501801 6.29095763,6.9659275 6.53948375,7.2142003 C6.498042,7.6752814 6.70515125,10.6545763 6.787985,11.3638663 L7.53356338,11.5766533 L7.53324,11.576632 Z" fill="#520900"></path>
                            <path d="M0.3735025,1.574498 C0.41952125,1.7111588 0.4363865,1.8332078 0.6634455,1.8936998 C0.78916375,1.9347023 1.03674462,1.9901888 1.16049775,2.0355578 C1.2908925,2.088467 1.43760525,2.15471 1.61610825,2.1774158 C1.750284,2.2157558 1.97878575,2.2551608 2.15457737,2.2838519 C2.33974687,2.3121809 2.52844862,2.3193164 2.73448825,2.3193164 C2.97221862,2.2829573 3.078012,2.2462574 3.23149075,2.1419726 C3.27755925,1.9974308 3.33954775,1.932551 3.35579112,1.7518205 C3.36989525,1.5826133 3.397208,1.4361545 3.397208,1.2553175 C3.3589005,1.1568263 3.35268175,0.9281495 3.31437425,0.8296796 C3.17564637,0.7132538 3.1390055,0.6454346 2.90015575,0.5814068 C2.71419025,0.5093702 2.54426912,0.5104778 2.32026975,0.5104778 C2.14713975,0.5598938 1.93861262,0.5459423 1.7404335,0.5459423 L1.1605475,0.5459423 C0.987094125,0.5782544 0.854784,0.6047942 0.704912125,0.6878003 C0.502628625,0.7660565 0.47265425,0.8223737 0.373577125,1.0070447 C0.300593875,1.1944847 0.298056625,1.3353842 0.373577125,1.5745193 L0.3735025,1.574498 Z" fill="#003300"></path>
                            <path d="M0.4562125,3.028737 C0.4562125,2.969523 0.306465,3.086034 0.24910325,3.1351305 C0.11497725,3.2155167 0.058884125,3.32289 0.041994,3.5252826 C-0.02024325,3.6358296 0.041994,3.8173908 0.041994,3.9863424 C0.041994,4.1818764 0.04353625,4.3183029 0.1662695,4.411959 C0.30551975,4.4853375 0.37248325,4.5183525 0.62188,4.5183525 L1.781652,4.5183525 C1.928315,4.476498 2.10726575,4.4554536 2.27870425,4.411959 C2.47036612,4.3249485 2.6038205,4.3157469 2.8171485,4.270101 C2.93861312,4.1798316 3.10656912,4.086921 3.31420075,4.057314 C3.55168237,4.0476012 3.69371862,3.976587 3.85266987,3.8799489 C4.05706775,3.8361987 4.24161537,3.7443744 4.39116387,3.6671619 C4.51148425,3.5970849 4.59787512,3.5092011 4.68110687,3.3834033 C4.76558237,3.2146221 4.79259662,3.1087611 4.63969,2.9223435 C4.337608,2.828304 4.48770375,2.7265965 4.2668635,2.6386275 C4.16582125,2.5863573 3.930454,2.5177713 3.811253,2.4612624 C3.60496462,2.4743619 3.458227,2.5183464 3.231367,2.5321914 C3.11420575,2.5823742 2.873963,2.5676772 2.69289787,2.5676772 L2.03017812,2.5676772 C1.83197412,2.5676772 1.62347187,2.5537044 1.45029212,2.6031417 C1.2844505,2.6418651 1.20191525,2.7062763 1.03612337,2.7449997 C0.926822625,2.8086228 0.749861875,2.8602327 0.62188,2.9223435 L1.0360985,2.7449997 C0.926822625,2.8086228 0.749861875,2.8602327 0.4562125,3.0287583 L0.4562125,3.028737 Z" fill="#003300"></path>
                            <path d="M4.2255625,0.286716875 C4.30799825,0.286716875 4.0962125,0.359003625 4.01845325,0.407679125 C3.9187045,0.535960862 3.9071625,0.6514562 3.85278575,0.770565875 C3.7889565,0.875417987 3.71032663,1.00789526 3.68711825,1.13350711 C3.60901075,1.26961689 3.56572825,1.31923684 3.56281788,1.49643019 C3.56281788,1.6358637 3.56057913,1.79393194 3.60423475,1.88957566 C3.7298535,2.00514365 3.85049725,2.07078292 4.05987013,2.16177705 C4.23911938,2.20709249 4.37055888,2.23413645 4.55687263,2.2525169 L5.1367835,2.2525169 C5.26780013,2.28441025 5.48428725,2.28275746 5.67522775,2.28275746 C5.88646625,2.22514601 5.96646425,2.15184216 6.17223025,2.13153649 C6.39899075,2.11649794 6.43809425,2.04722616 6.54503188,1.91983439 C6.64448213,1.82597059 6.68617263,1.71981077 6.71069938,1.58717004 C6.71069938,1.43460504 6.69204313,1.30332649 6.6692825,1.16376584 C6.56963325,1.08214356 6.493864,0.969499737 6.42078125,0.831101487 C6.2927745,0.670908237 6.29262525,0.599711237 6.08944625,0.528695862 C5.99051838,0.430073487 5.8195525,0.382124487 5.71661975,0.3169756 C5.501451,0.305751175 5.338072,0.286208325 5.1781755,0.226253912 C4.98718525,0.226253912 4.770723,0.224619287 4.63970638,0.256494475 C4.48971013,0.256494475 4.37986213,0.2668471 4.22553763,0.286735037 L4.2255625,0.286716875 Z" fill="#003300"></path>
                            <path d="M7.249035,0.0493655 C7.22448337,0.0493655 7.14761962,0.1521167 7.0833675,0.2621525 C6.9753105,0.4094633 6.96085812,0.5457833 6.87625825,0.6523046 C6.8431745,0.8108405 6.83484137,0.972401 6.83484137,1.1488502 C6.85359712,1.3259384 6.914317,1.3900301 7.04190087,1.4680733 C7.23376175,1.5613673 7.324655,1.6046489 7.53895312,1.6454171 C7.72419725,1.657622 7.85735312,1.6808816 8.07742225,1.6808816 C8.27562625,1.6808816 8.4841285,1.6948757 8.65730825,1.6454384 C8.86334787,1.6454384 9.0520745,1.6382816 9.23719425,1.6099739 C9.33229137,1.5409619 9.53668925,1.4791919 9.651363,1.4326727 C9.78775262,1.2911981 9.85302462,1.1505542 9.94133087,1.0425206 C9.94133087,0.8332907 9.94327112,0.7109861 9.81708025,0.5459537 C9.726983,0.4098893 9.6190255,0.3474377 9.48567062,0.2267519 C9.31856037,0.1769951 9.17771812,0.0734984 8.98861837,0.0494294 L7.249035,0.0494294 L7.249035,0.0493655 Z" fill="#003300"></path>
                            <path d="M10.3555755,1.113117 C10.1992112,1.168923 10.1418992,1.183407 10.0656325,1.3259466 C9.95071,1.4774961 9.88300025,1.5487872 9.7756895,1.6451484 C9.75106325,1.7870916 9.68506987,1.9407924 9.610022,2.0353005 C9.58726137,2.1989697 9.56858025,2.3529474 9.56858025,2.5318461 C9.6736025,2.6699979 9.81944462,2.80029 9.982749,2.8864911 C10.1517,2.9365887 10.3297552,3.012864 10.4798261,3.0638562 C10.6730302,3.1071591 10.8517571,3.1575336 11.059737,3.1702497 C11.2392599,3.2086749 11.4369415,3.2056929 11.639623,3.2056929 C11.8237975,3.1713999 11.9816542,3.1316115 12.1366255,3.0283704 C12.2195587,2.9176743 12.3146559,2.7930906 12.3437596,2.6027325 C12.4122654,2.4267306 12.3571921,2.1967545 12.2609259,2.0352579 C12.2101809,1.8759978 12.1361529,1.814313 11.9295909,1.7160348 C11.8152654,1.6126446 11.6633537,1.4961762 11.5567644,1.4323188 C11.4254244,1.3346583 11.2547321,1.3225386 11.0597619,1.2549537 C10.8484985,1.2147819 10.7777291,1.1627247 10.5626847,1.1485815 L11.0597619,1.254975 C10.8486229,1.2148245 10.7778535,1.162746 10.3556999,1.113117 L10.3555755,1.113117 Z" fill="#003300"></path>
                            <path d="M6.48672,2.536495 C6.2467845,2.5936345 6.13518,2.6624725 5.962245,2.756275 C5.962245,2.9022505 5.996643,2.990575 6.0146925,3.113467 C6.1238715,3.191578 6.2397285,3.348592 6.3293775,3.415681 C6.397827,3.528079 6.5474205,3.6159415 6.6441255,3.690439 C6.8863605,3.741787 7.132218,3.780199 7.3784535,3.8278015 C7.668159,3.8278015 7.854009,3.8617915 8.1127185,3.8827795 C8.332053,3.9210595 8.596086,3.910252 8.847078,3.910252 C9.1037085,3.910252 9.354039,3.907942 9.581406,3.9377245 C9.8240505,3.9603295 10.00338,4.0096645 10.2632865,4.020142 C10.4125965,4.012717 10.6770705,4.001365 10.8927195,3.9926695 C11.13423,3.935167 11.2386525,3.898504 11.36481,3.8003455 C11.4830295,3.7254025 11.469705,3.61444 11.469705,3.4706755 C11.5201995,3.322621 11.5356345,3.2230435 11.417289,3.086011 C11.413887,2.938171 11.3600535,2.868673 11.312394,2.7288355 C11.217705,2.6296705 11.1345135,2.5861105 10.9451985,2.5365115 C10.773051,2.4736795 10.5399825,2.4375445 10.368213,2.3716765 C10.1340735,2.3570575 9.871773,2.3378515 9.6863325,2.3167315 C9.4812675,2.2450885 9.310443,2.2087225 9.004452,2.2068085 C8.7047295,2.1881305 8.5635465,2.169469 8.32254,2.234281 C8.070855,2.243686 7.845315,2.270086 7.693107,2.316715 C7.499571,2.32447 7.2116925,2.332885 7.063674,2.37166 C6.830133,2.37166 6.7490835,2.3928955 6.539199,2.399116 L7.063674,2.3716435 C6.830133,2.3716435 6.7490835,2.392879 6.48672,2.5364785 L6.48672,2.536495 Z" fill="#003300"></path>
                            <path d="M5.8411525,5.014641 C5.73419,5.0011794 5.41136225,4.9791765 5.17843275,4.9791765 C4.96085113,4.9791765 4.78391525,4.9915305 4.59854675,5.0501055 C4.40016863,5.0828436 4.25320713,5.1363066 4.1014945,5.1919635 C3.97580113,5.2429557 3.82903863,5.2948425 3.72871775,5.3693073 C3.60546213,5.4410883 3.501609,5.5042641 3.39738275,5.6530659 C3.28601738,5.7898545 3.27437588,5.8779939 3.19024863,6.043218 L3.19024863,6.539721 C3.20487513,6.7023252 3.23104363,6.84282 3.31452413,7.0008234 C3.43944638,7.0863855 3.612452,7.11333 3.7701595,7.1426814 C3.92015575,7.1705844 4.11530013,7.2017889 4.30862863,7.2136104 C4.53847363,7.2136104 4.66085863,7.2235362 4.84707288,7.2845394 C5.0895295,7.2768714 5.13577213,7.2285843 5.34412513,7.1426814 C5.57581088,7.0640418 5.71376763,7.0349034 5.92401113,6.9298944 C6.0526895,6.8429904 6.13738888,6.6959139 6.21395413,6.5397423 C6.33061788,6.3784161 6.41071538,6.2226918 6.50389713,6.0786825 C6.54877163,5.9249391 6.545314,5.7556893 6.545314,5.5821369 C6.4900915,5.4488415 6.402233,5.3924604 6.29681275,5.2629351 C6.18196488,5.1553701 6.13082188,5.0723853 6.04826175,4.9792191 L6.296763,5.2629351 C6.18196488,5.1553701 6.13084675,5.0723853 5.84117738,5.0146623 L5.8411525,5.014641 Z" fill="#003300"></path>
                            <path d="M9.704625,4.4828375 C9.92576947,4.50100625 10.1640257,4.50431938 10.4488606,4.4828375 C10.6852652,4.51835563 10.8595119,4.58342469 11.0336308,4.63114438 C11.1311936,4.73205219 11.2678965,4.88051938 11.4057167,4.95739813 C11.4655441,5.07980563 11.5538487,5.13115906 11.6715242,5.25401188 C11.7008952,5.37504781 11.7731415,5.49656469 11.6715242,5.60990563 C11.5503689,5.69444375 11.360032,5.74378438 11.1931281,5.78788813 C10.9727818,5.85358063 10.8439644,5.87777 10.5552028,5.90651938 C10.3175531,5.93021 10.07537,5.936195 9.81096717,5.936195 C9.55518407,5.91072313 9.35795142,5.88708594 9.11991862,5.87687938 C8.88322667,5.85329563 8.61237497,5.84112969 8.37568302,5.81756375 C8.222028,5.76740375 8.02367797,5.72623906 7.84413177,5.6989325 C7.71936887,5.63256313 7.53892877,5.55725188 7.3656718,5.49129219 C7.23190605,5.35766281 7.1101441,5.30949781 6.993554,5.19467844 C6.88762685,5.10782469 6.8373769,4.99571281 6.83402477,4.83878469 C6.9178279,4.74357688 7.05622277,4.65121906 7.15295552,4.57182875 C7.31890167,4.51067844 7.50646105,4.42950688 7.73772575,4.36420625 C8.05007995,4.35804313 8.17203345,4.30695688 8.48196135,4.30489063 L9.27935207,4.30489063 C9.45972832,4.31495469 9.54879907,4.40433781 9.70459307,4.4828375 L9.704625,4.4828375 Z" fill="#003300"></path>
                        </g>
                        <g transform="translate(51.125000, 33.625000)" id="Shape" stroke="#000000" stroke-width="0.1" fill="#006A00">
                            <path d="M9.36248807,1.88762618 L9.45972523,1.75339136 L9.19233337,1.70864008 L9.38680769,1.52967299 L9.11941583,1.44017044 L9.38680769,1.26116535 L9.11941583,1.12693052 L9.4111273,1.01506184 L9.26527156,0.791343474 L9.55698303,0.836094748 L9.43544691,0.567587102 L9.77575631,0.701840925 L9.77575631,0.34383073 L10.0188286,0.58997224 L10.2133029,0.276732322 L10.3591586,0.567587102 L10.6508701,0.254347184 L10.7481072,0.500469691 L11.1856125,0.299098458 L11.0640764,0.612338376 L11.5259012,0.433333278 L11.4286641,0.791343474 L11.8662313,0.612338376 L11.6960766,0.947963433 L12.1336231,0.970310566 L11.7689941,1.1716818 L12.1336231,1.30591662 L11.7933137,1.48492172 L12.0850252,1.70865909 C11.1532001,2.10395251 10.4401689,2.23073829 9.3625913,1.88766418 L9.36248807,1.88762618 Z" transform="translate(10.626519, 1.170527) rotate(-4.270991) translate(-10.626519, -1.170527) "></path>
                            <path d="M4.48298807,1.74600118 L4.58022523,1.61176636 L4.31283337,1.56701508 L4.50730769,1.38804799 L4.23991583,1.29854544 L4.50730769,1.11954035 L4.23991583,0.985305525 L4.5316273,0.87343684 L4.38577156,0.649718474 L4.67748303,0.694469748 L4.55594691,0.425962102 L4.89625631,0.560215925 L4.89625631,0.20220573 L5.13932855,0.44834724 L5.33380287,0.135107322 L5.4796586,0.425962102 L5.77137007,0.112722184 L5.86860722,0.358844691 L6.30611249,0.157473458 L6.18457637,0.470713376 L6.64640124,0.291708278 L6.54916409,0.649718474 L6.98673129,0.470713376 L6.81657659,0.806338433 L7.25412315,0.828685566 L6.88949413,1.0300568 L7.25412315,1.16429162 L6.91381374,1.34329672 L7.20552521,1.56703409 C6.2737001,1.96232751 5.56066892,2.08911329 4.4830913,1.74603918 L4.48298807,1.74600118 Z" transform="translate(5.747019, 1.028902) rotate(-4.270991) translate(-5.747019, -1.028902) "></path>
                            <path d="M12.0736131,1.81675118 L12.1708502,1.68251636 L11.9034584,1.63776508 L12.0979327,1.45879799 L11.8305408,1.36929544 L12.0979327,1.19029035 L11.8305408,1.05605552 L12.1222523,0.94418684 L11.9763966,0.720468474 L12.268108,0.765219748 L12.1465719,0.496712102 L12.4868813,0.630965925 L12.4868813,0.27295573 L12.7299536,0.51909724 L12.9244279,0.205857322 L13.0702836,0.496712102 L13.3619951,0.183472184 L13.4592322,0.429594691 L13.8967375,0.228223458 L13.7752014,0.541463376 L14.2370262,0.362458278 L14.1397891,0.720468474 L14.5773563,0.541463376 L14.4072016,0.877088433 L14.8447481,0.899435566 L14.4801191,1.1008068 L14.8447481,1.23504162 L14.5044387,1.41404672 L14.7961502,1.63778409 C13.8643251,2.03307751 13.1512939,2.15986329 12.0737163,1.81678918 L12.0736131,1.81675118 Z" transform="translate(13.337644, 1.099652) rotate(-4.270991) translate(-13.337644, -1.099652) "></path>
                            <path d="M10.1842274,2.73227922 L10.2824545,2.59910491 L10.0123405,2.55470718 L10.2087946,2.377154 L9.93868061,2.28835855 L10.2087946,2.11076766 L9.93868061,1.97759334 L10.2333618,1.86660846 L10.0860212,1.64465755 L10.3807024,1.68905528 L10.257929,1.42266894 L10.6017029,1.55586211 L10.6017029,1.20068032 L10.8472498,1.44487723 L11.0437039,1.13411202 L11.1910445,1.42266894 L11.4857258,1.11190373 L11.5839528,1.35608178 L12.0259121,1.15630145 L11.9031387,1.46706666 L12.3696652,1.28947577 L12.2714381,1.64465755 L12.7134599,1.46706666 L12.541573,1.80004016 L12.983574,1.82221074 L12.6152329,2.02199107 L12.983574,2.15516538 L12.6398,2.33275627 L12.9344813,2.55472604 C11.9931698,2.9468965 11.2728796,3.07268062 10.1843317,2.73231693 L10.1842274,2.73227922 Z" transform="translate(11.461127, 2.020846) rotate(-16.218995) translate(-11.461127, -2.020846) "></path>
                            <path d="M13.8808631,2.94925118 L13.9781002,2.81501636 L13.7107084,2.77026508 L13.9051827,2.59129799 L13.6377908,2.50179544 L13.9051827,2.32279035 L13.6377908,2.18855552 L13.9295023,2.07668684 L13.7836466,1.85296847 L14.075358,1.89771975 L13.9538219,1.6292121 L14.2941313,1.76346592 L14.2941313,1.40545573 L14.5372036,1.65159724 L14.7316779,1.33835732 L14.8775336,1.6292121 L15.1692451,1.31597218 L15.2664822,1.56209469 L15.7039875,1.36072346 L15.5824514,1.67396338 L16.0442762,1.49495828 L15.9470391,1.85296847 L16.3846063,1.67396338 L16.2144516,2.00958843 L16.6519981,2.03193557 L16.2873691,2.2333068 L16.6519981,2.36754162 L16.3116887,2.54654672 L16.6034002,2.77028409 C15.6715751,3.16557751 14.9585439,3.29236329 13.8809663,2.94928918 L13.8808631,2.94925118 Z" transform="translate(15.144894, 2.232152) rotate(-4.270991) translate(-15.144894, -2.232152) "></path>
                            <path d="M11.8328631,3.16200118 L11.9301002,3.02776636 L11.6627084,2.98301508 L11.8571827,2.80404799 L11.5897908,2.71454544 L11.8571827,2.53554035 L11.5897908,2.40130552 L11.8815023,2.28943684 L11.7356466,2.06571847 L12.027358,2.11046975 L11.9058219,1.8419621 L12.2461313,1.97621592 L12.2461313,1.61820573 L12.4892036,1.86434724 L12.6836779,1.55110732 L12.8295336,1.8419621 L13.1212451,1.52872218 L13.2184822,1.77484469 L13.6559875,1.57347346 L13.5344514,1.88671338 L13.9962762,1.70770828 L13.8990391,2.06571847 L14.3366063,1.88671338 L14.1664516,2.22233843 L14.6039981,2.24468557 L14.2393691,2.4460568 L14.6039981,2.58029162 L14.2636887,2.75929672 L14.5554002,2.98303409 C13.6235751,3.37832751 12.9105439,3.50511329 11.8329663,3.16203918 L11.8328631,3.16200118 Z" transform="translate(13.096894, 2.444902) rotate(-4.270991) translate(-13.096894, -2.444902) "></path>
                            <path d="M2.43461307,1.74600118 L2.53185023,1.61176636 L2.26445837,1.56701508 L2.45893269,1.38804799 L2.19154083,1.29854544 L2.45893269,1.11954035 L2.19154083,0.985305525 L2.4832523,0.87343684 L2.33739656,0.649718474 L2.62910803,0.694469748 L2.50757191,0.425962102 L2.84788131,0.560215925 L2.84788131,0.20220573 L3.09095355,0.44834724 L3.28542787,0.135107322 L3.4312836,0.425962102 L3.72299507,0.112722184 L3.82023222,0.358844691 L4.25773749,0.157473458 L4.13620137,0.470713376 L4.59802624,0.291708278 L4.50078909,0.649718474 L4.93835629,0.470713376 L4.76820159,0.806338433 L5.20574815,0.828685566 L4.84111913,1.0300568 L5.20574815,1.16429162 L4.86543874,1.34329672 L5.15715021,1.56703409 C4.2253251,1.96232751 3.51229392,2.08911329 2.4347163,1.74603918 L2.43461307,1.74600118 Z" transform="translate(3.698644, 1.028902) rotate(-4.270991) translate(-3.698644, -1.028902) "></path>
                            <path d="M0.544727439,2.66177922 L0.642954514,2.52860491 L0.372840484,2.48420718 L0.569294635,2.306654 L0.299180605,2.21785855 L0.569294635,2.04026766 L0.299180605,1.90709334 L0.593861832,1.79610846 L0.446521218,1.57415755 L0.741202445,1.61855528 L0.618429028,1.35216894 L0.962202937,1.48536211 L0.962202937,1.13018032 L1.20774977,1.37437723 L1.40420392,1.06361202 L1.55154453,1.35216894 L1.84622576,1.04140373 L1.94445284,1.28558178 L2.38641211,1.08580145 L2.26363869,1.39656666 L2.73016516,1.21897577 L2.63193809,1.57415755 L3.07395993,1.39656666 L2.90207297,1.72954016 L3.34407396,1.75171074 L2.97573285,1.95149107 L3.34407396,2.08466538 L3.00030005,2.26225627 L3.29498128,2.48422604 C2.35366975,2.8763965 1.63337958,3.00218062 0.544831714,2.66181693 L0.544727439,2.66177922 Z" transform="translate(1.821627, 1.950346) rotate(-16.218995) translate(-1.821627, -1.950346) "></path>
                            <path d="M4.24211307,2.87875118 L4.33935023,2.74451636 L4.07195837,2.69976508 L4.26643269,2.52079799 L3.99904083,2.43129544 L4.26643269,2.25229035 L3.99904083,2.11805552 L4.2907523,2.00618684 L4.14489656,1.78246847 L4.43660803,1.82721975 L4.31507191,1.5587121 L4.65538131,1.69296592 L4.65538131,1.33495573 L4.89845355,1.58109724 L5.09292787,1.26785732 L5.2387836,1.5587121 L5.53049507,1.24547218 L5.62773222,1.49159469 L6.06523749,1.29022346 L5.94370137,1.60346338 L6.40552624,1.42445828 L6.30828909,1.78246847 L6.74585629,1.60346338 L6.57570159,1.93908843 L7.01324815,1.96143557 L6.64861913,2.1628068 L7.01324815,2.29704162 L6.67293874,2.47604672 L6.96465021,2.69978409 C6.0328251,3.09507751 5.31979392,3.22186329 4.2422163,2.87878918 L4.24211307,2.87875118 Z" transform="translate(5.506144, 2.161652) rotate(-4.270991) translate(-5.506144, -2.161652) "></path>
                            <path d="M2.19373807,3.09087618 L2.29097523,2.95664136 L2.02358337,2.91189008 L2.21805769,2.73292299 L1.95066583,2.64342044 L2.21805769,2.46441535 L1.95066583,2.33018052 L2.2423773,2.21831184 L2.09652156,1.99459347 L2.38823303,2.03934475 L2.26669691,1.7708371 L2.60700631,1.90509092 L2.60700631,1.54708073 L2.85007855,1.79322224 L3.04455287,1.47998232 L3.1904086,1.7708371 L3.48212007,1.45759718 L3.57935722,1.70371969 L4.01686249,1.50234846 L3.89532637,1.81558838 L4.35715124,1.63658328 L4.25991409,1.99459347 L4.69748129,1.81558838 L4.52732659,2.15121343 L4.96487315,2.17356057 L4.60024413,2.3749318 L4.96487315,2.50916662 L4.62456374,2.68817172 L4.91627521,2.91190909 C3.9844501,3.30720251 3.27141892,3.43398829 2.1938413,3.09091418 L2.19373807,3.09087618 Z" transform="translate(3.457769, 2.373777) rotate(-4.270991) translate(-3.457769, -2.373777) "></path>
                            <path d="M5.72268973,3.25090315 L5.91985784,3.1159055 L5.37766647,3.07089992 L5.77200269,2.89091579 L5.22981131,2.80090462 L5.77200269,2.62088228 L5.22981131,2.48588463 L5.82131565,2.37338022 L5.52556348,2.14839051 L6.11706782,2.1933961 L5.87062861,1.92336258 L6.56067514,2.05837934 L6.56067514,1.69833465 L7.05355356,1.94587493 L7.44788978,1.63085493 L7.74364195,1.92336258 L8.33514628,1.60834259 L8.53231439,1.85586376 L9.41944531,1.65334817 L9.1730061,1.96836817 L10.10945,1.78834582 L9.91228187,2.14839051 L10.7995384,1.96836817 L10.4545151,2.30590051 L11.3417297,2.32837463 L10.6023703,2.53089022 L11.3417297,2.66588786 L10.6516832,2.84591021 L11.2431876,3.07091903 C9.35372261,3.46845882 7.90790685,3.59596509 5.72289904,3.25094137 L5.72268973,3.25090315 Z" transform="translate(8.285771, 2.529729) rotate(182.395915) translate(-8.285771, -2.529729) "></path>
                        </g>
                        <path d="M65.9798525,33.760148 C65.9798525,34.6065992 65.3316481,34.010564 64.6729333,34.010564 C64.0142525,34.010564 63.4228663,34.6692032 63.30923,34.010564 C63.30923,33.66502 64.1847069,33.1340328 64.8433876,33.1340328 C65.3316481,33.1966744 66.0935229,32.9762632 65.9798525,33.760148 L65.9798525,33.760148 Z" id="Shape" stroke="#000000" stroke-width="0.1" fill="#510800"></path>
                        <path d="M55.7124905,33.589148 C55.7124905,34.4355992 55.0642861,33.839564 54.4055712,33.839564 C53.7468905,33.839564 53.1555042,34.4982032 53.041868,33.839564 C53.041868,33.49402 53.9173448,32.9630328 54.5760256,32.9630328 C55.0642861,33.0256744 55.8261608,32.8052632 55.7124905,33.589148 L55.7124905,33.589148 Z" id="Shape" stroke="#000000" stroke-width="0.1" fill="#FFC600" transform="translate(54.382881, 33.547663) scale(-1, 1) translate(-54.382881, -33.547663) "></path>
                        <path d="M68.449903,33.390297 C68.449903,33.9568855 68.1517508,34.4162273 67.783881,34.4162273 C67.4160954,34.4162273 67.1179432,33.9568855 67.1179432,33.390297 C67.1179432,32.8237084 67.4160954,32.3643667 67.7839652,32.3643667 C68.1517087,32.3643667 68.449903,32.8237084 68.449903,33.390297 L68.449903,33.390297 Z" id="Shape" stroke="#000000" stroke-width="0.1" fill="#520900"></path>
                        <g transform="translate(51.391690, 22.892709) rotate(190.641264) translate(-51.391690, -22.892709) translate(47.391690, 18.892709)" stroke="#000000">
                            <path d="M0.965022659,2.83260645 C0.76820298,3.21276103 4.05545837,3.91237884 5.11384055,4.69753143 C6.17236656,5.48285075 6.17222273,5.53203742 6.63791665,5.92469708 L6.76483909,5.67918058 C6.51077847,5.38472752 3.99677921,3.48203719 2.27739356,2.83260645 C1.78804101,2.64311273 1.53671299,1.72815737 1.34614955,2.0964738 L0.965022659,2.83260645 L0.965022659,2.83260645 Z" id="Shape" stroke-width="0.1" fill="#AF8000" transform="translate(3.860695, 3.967321) rotate(216.997694) translate(-3.860695, -3.967321) "></path>
                            <path d="M2.7469832,0.936558804 L0.947401733,0.44034513 C0.947401733,0.44034513 0.528909294,0.638763167 0.487109812,1.38312582 C0.445168154,2.12740419 0.821932198,2.57413979 0.821932198,2.57413979 L2.7469832,1.78013048 L2.7469832,0.936558804 L2.7469832,0.936558804 Z" id="Shape" stroke-width="0.1" fill="#808080" transform="translate(1.615417, 1.507242) rotate(-19.408440) translate(-1.615417, -1.507242) "></path>
                            <rect id="Rectangle-path" stroke-width="0.62221348" fill="#808080" transform="translate(2.664042, 0.979867) rotate(-19.408440) translate(-2.664042, -0.979867) " x="2.40430113" y="0.161076343" width="0.519480519" height="1.63758099" rx="0.25974026"></rect>
                        </g>
                        <path d="M62.5646538,19.4539363 C63.2351438,18.9893051 63.5863223,19.1633465 64.1808991,19.6960944 C65.0345329,20.4627984 67.964378,24.2935839 68.42178,24.6188569 C68.8791819,24.94413 68.8100451,24.1175115 69.3690004,24.5104326 C69.6466466,24.8015691 68.4132638,25.8404276 68.1110763,25.6485758 C67.5239168,25.2562796 68.4694889,25.2286267 68.0785682,24.8951516 C67.6275763,24.4941845 63.38871,21.731707 62.558427,20.9448493 C62.0163209,20.4310053 61.9802416,19.8535753 62.5645623,19.4537801 L62.5646538,19.4539363 Z" id="Shape" stroke="#000000" stroke-width="0.1" fill="#923D09" transform="translate(65.774208, 22.428532) rotate(12.647573) translate(-65.774208, -22.428532) "></path>
                        <g transform="translate(49.000000, 21.125000)" id="Shape" stroke="#000000">
                            <path d="M6.48223958,4.4120375 C6.73194721,4.52504515 7.17734427,5.5904035 7.34585596,5.581972 C7.61332871,5.569708 8.68278602,3.600314 8.51141521,3.3271334 C8.39255271,3.1164481 7.42012896,4.379589 7.35729246,4.4545527 C7.34653058,4.2348227 7.10109558,3.1504296 6.90256308,2.92295795 C6.66772933,2.68508745 6.38518996,2.81672105 6.13445433,2.75274385 C6.01719808,2.6801052 5.83183683,2.39361305 5.75248808,2.11460705 C5.88391146,2.02405785 5.99861377,2.05124305 6.12690496,1.84249955 C6.21813996,1.6727709 6.16516583,0.64384685 6.13284808,0.53791655 C5.91937746,0.17336915 6.22006746,0.3507117 5.50604115,0.30587145 C4.4737364,0.24337615 4.28725077,1.57269155 4.99761483,2.11460705 C4.94200646,2.52156745 4.76920608,2.61523375 4.62914108,2.66766235 C4.48817658,2.67037065 4.00551452,2.6481677 3.73694952,2.98678185 C3.20041383,3.61403435 3.59359171,3.7763535 3.49035802,3.90147185 C3.37514171,4.0456505 3.20335327,4.40802615 3.13878202,4.62469015 C2.97057552,4.75233795 1.54080421,4.4970679 1.26750077,4.58217495 C1.00375452,4.6068307 0.360499584,4.98632485 0.0925288969,5.26282695 C0.149791709,5.6241806 3.97178327,5.06859585 4.09642827,5.19905415 C4.1919359,5.2845189 4.05297921,6.5081595 4.1287139,6.60302665 C4.15537765,6.83456075 6.00063765,6.75193205 6.1461639,6.75193205 C6.26756427,6.27005905 6.39336577,4.66812515 6.48228777,4.4119864 L6.48223958,4.4120375 Z" stroke-width="0.1" fill="#FFC600" transform="translate(4.311216, 3.533660) scale(-1, 1) translate(-4.311216, -3.533660) "></path>
                            <path d="M4.26932426,0.5336436 C4.29906559,0.989960325 4.13212481,0.5928678 3.52974251,0.5928678 C2.36244851,0.5025975 2.77254341,2.3709561 2.77254341,1.794273 C2.26699871,1.54852125 1.90832951,-0.00342525 3.34335326,0.05680275 C3.79708676,0.05680275 4.20995726,0.1976574 4.26942064,0.533661525 L4.26932426,0.5336436 Z" stroke-width="0.1" fill="#000000" transform="translate(3.300313, 0.980041) scale(-1, 1) translate(-3.300313, -0.980041) "></path>
                            <path d="M4.56501175,3.8268407 C4.56501175,3.8697647 4.55428152,4.03014205 4.51304498,4.1246515 C4.48528362,4.2202085 4.41697197,4.33101885 4.35720707,4.40117915 C4.33580898,4.51492775 4.22669749,4.53337485 4.20136915,4.65642365 C4.10504659,4.71442215 4.06349813,4.8083184 4.04553123,4.91171925 C4.04553123,5.02081775 4.08832739,5.10482615 4.097498,5.20953005 C4.12744283,5.30048805 4.19806274,5.3722069 4.20136915,5.48608325 C4.20136915,5.597609 4.20105722,5.67898575 4.097498,5.74132775 L4.097498,5.89028425" stroke-width="0.1" transform="translate(4.305271, 4.858562) scale(-1, 1) translate(-4.305271, -4.858562) "></path>
                            <path d="M2.29467866,3.3163006 C2.30932366,3.3163006 2.32068616,3.8306221 2.44183566,3.9544885 C2.46809566,4.0365551 2.55732916,4.14210215 2.58899266,4.209733 C2.63121066,4.272586 2.68948766,4.3468854 2.79922416,4.379896 L3.09353816,4.379896 C3.21054666,4.379896 3.28223141,4.3813268 3.36681891,4.3373808 C3.40434041,4.3169408 3.43075191,4.2902155 3.45090141,4.2522993 M3.76624866,4.316021 L3.78725666,4.316021 C3.72849991,4.316021 3.75968366,4.3133638 3.87133916,4.35856175 C3.91492066,4.4233821 3.96653166,4.4511805 4.03950416,4.48620955 C4.11482491,4.52371695 4.20090216,4.52877585 4.31281016,4.52877585 C4.41880966,4.51973115 4.48299516,4.48569855 4.54410016,4.44369435 C4.64616066,4.41022385 4.66565366,4.36867955 4.69123191,4.25222265 L4.69123191,3.95441185 C4.67916241,3.86422035 4.65628591,3.79160725 4.62815741,3.72042495 C4.61755241,3.68828305 4.60712416,3.7024122 4.60712416,3.6566266 M5.49006616,4.4649775 C5.47933491,4.4649775 5.42315366,4.53076875 5.38495041,4.59259975 C5.32010841,4.61605465 5.30331716,4.68754355 5.27985991,4.74150515 C5.26294241,4.8098514 5.23779341,4.81457815 5.23779341,4.91166815 C5.19542391,5.00645865 5.18211716,5.09072255 5.17471891,5.18822135 L5.23776816,4.9116937 C5.19539866,5.0064331 5.18209191,5.09072255 5.17469366,5.18822135 M4.24978616,2.7632453 L4.22875291,2.7632453 C4.28556541,2.7632453 4.25652791,2.76189115 4.14467041,2.78452845 C4.09879116,2.84252695 4.02329366,2.89449565 3.95547216,2.93338275 C3.88030291,2.9800115 3.81995541,3.03583825 3.74524066,3.06103055 L3.95547216,2.93338275 C3.88030291,2.9800115 3.81995541,3.03583825 3.74524066,3.06103055 M2.75725866,2.67813825 L2.77829191,2.67813825 C2.72152991,2.67813825 2.75039066,2.67675855 2.86237441,2.6994214 C2.93650841,2.7349359 2.98236241,2.7732609 3.05157266,2.82704365 C3.08414516,2.8764829 3.13381191,2.8859364 3.15668841,2.97594905 C3.19640666,2.99761545 3.21029416,3.01861755 3.21973766,3.08233925 M3.38800366,2.15198707 L3.49311941,2.15198707 C3.60750191,2.15198707 3.66312766,2.18036599 3.76642541,2.18675124 C3.85575991,2.16905616 3.87707091,2.11425981 3.95562366,2.0825422 M3.78745866,4.7628905 C3.79099366,4.7797535 3.82917166,4.8716313 3.85053316,4.9117959 C3.88883741,4.9759775 3.93986766,5.0373486 3.95564891,5.1245252 C3.98014141,5.19874795 3.99420566,5.2837017 3.99771541,5.3797697 C4.01690541,5.46927135 4.02963141,5.5489107 3.97668216,5.6138077 C3.95400766,5.6978672 3.91178966,5.7591872 3.87159166,5.84776905 C3.84356416,5.84776905 3.85058366,5.8406917 3.85058366,5.86907775 M3.11454616,4.8053035 L3.11454616,4.82658665 C3.11454616,4.76915025 3.11593491,4.7983539 3.09353816,4.91166815 C3.06457641,5.0142003 3.03925066,5.10043155 2.98842241,5.16691265 C2.96069791,5.2510999 2.92969091,5.2820154 2.92534791,5.40095065 C2.94206341,5.4403743 2.94638116,5.48429475 2.94638116,5.5498305 M3.00950616,5.6775805 L3.00950616,5.78394515 C3.06616542,5.81486065 3.0438262,5.81700685 3.11340227,5.8264859 M1.26473116,4.6351405 L1.26473116,4.6563981 C1.26473116,4.59694325 1.25821666,4.6324833 1.36984691,4.67768125 C1.46003991,4.69398215 1.57025616,4.7041766 1.64312766,4.720222 C1.71059566,4.7537436 1.77606891,4.809136 1.83232591,4.84784425 C1.88264916,4.89199465 1.95398041,4.93675825 2.02152416,4.97549205 C2.09737516,5.0138937 2.13073041,5.04764525 2.16868116,5.12444855 C2.19160816,5.15536405 2.18256866,5.15745915 2.21074766,5.16696375" stroke-width="0.1" transform="translate(3.377363, 3.975810) scale(-1, 1) translate(-3.377363, -3.975810) "></path>
                            <path d="M3.17107073,1.4571548 C3.17655255,1.42830999 3.28101912,1.15710616 3.39373071,1.06555527 C3.47417531,0.853295164 3.60819023,0.94954901 3.69055125,1.06555527" stroke-width="0.797457362" transform="translate(3.430811, 1.198534) scale(-1, 1) translate(-3.430811, -1.198534) "></path>
                            <path d="M2.59038481,1.02092678 L2.61593708,1.02092678 C2.54697968,1.02092678 2.58201053,1.02422061 2.71808483,0.970116513 C2.82483383,0.899360316 2.95342343,0.919367241 3.07563263,0.919367241 C3.11161441,0.943155962 3.10109288,0.934128448 3.10109288,1.02092678 M2.56492456,1.25820165 L2.56492456,1.2794848 C2.56492456,1.22002995 2.56176503,1.2516353 2.61602911,1.3645663 C2.63575313,1.4402454 2.67001711,1.5446938 2.64155071,1.5985532 C2.57455651,1.5985532 2.55382021,1.5915525 2.51385068,1.57727005" stroke-width="0.768281728" transform="translate(2.808188, 1.257655) scale(-1, 1) translate(-2.808188, -1.257655) "></path>
                            <path d="M3.26327664,1.64397784 C3.26327664,1.78675386 3.13806267,1.9025098 2.98359138,1.9025098 C2.82912009,1.9025098 2.70390611,1.78670949 2.70390611,1.64393348 C2.70390611,1.50115746 2.82912009,1.38526842 2.98359138,1.38526842 C3.13806267,1.38526842 3.26327664,1.50106873 3.26327664,1.64393348 L3.26327664,1.64397784 Z" stroke-width="0.1" fill="#000000" transform="translate(2.983591, 1.643890) rotate(188.236230) translate(-2.983591, -1.643890) "></path>
                            <path d="M3.67398993,0.828681143 C3.67398993,0.971457156 3.55770525,1.0872131 3.41424967,1.0872131 C3.27079408,1.0872131 3.15450941,0.971412788 3.15450941,0.828636775 C3.15450941,0.685860762 3.27079408,0.569971717 3.41424967,0.569971717 C3.55770525,0.569971717 3.67398993,0.685772026 3.67398993,0.828636775 L3.67398993,0.828681143 Z" stroke-width="0.889966815" fill="#000000" transform="translate(3.414254, 0.828598) rotate(187.487388) translate(-3.414254, -0.828598) "></path>
                            <path d="M3.00998993,0.764681143 C3.00998993,0.907457156 2.89370525,1.0232131 2.75024967,1.0232131 C2.60679408,1.0232131 2.49050941,0.907412788 2.49050941,0.764636775 C2.49050941,0.621860762 2.60679408,0.505971717 2.75024967,0.505971717 C2.89370525,0.505971717 3.00998993,0.621772026 3.00998993,0.764636775 L3.00998993,0.764681143 Z" stroke-width="0.1" fill="#000000" transform="translate(2.750254, 0.764598) rotate(187.487388) translate(-2.750254, -0.764598) "></path>
                            <path d="M2.504839,4.32225147 C2.504839,4.40794092 2.457773,4.47736179 2.39972325,4.47736179 C2.34164825,4.47736179 2.2946075,4.40789952 2.2946075,4.32225147 C2.2946075,4.23660342 2.3416735,4.16714115 2.39972325,4.16714115 C2.45779825,4.16714115 2.504839,4.23660342 2.504839,4.32225147 L2.504839,4.32225147 Z M3.934494,4.58097565 C3.934494,4.63810195 3.90154275,4.68438253 3.8609155,4.68438253 C3.820263,4.68438253 3.787337,4.63801916 3.787337,4.58097565 C3.787337,4.52393214 3.82028825,4.47756877 3.8609155,4.47756877 C3.901568,4.47756877 3.934494,4.52393214 3.934494,4.58097565 L3.934494,4.58097565 Z" stroke-width="0.1" fill="#000000" transform="translate(3.114551, 4.425762) scale(-1, 1) translate(-3.114551, -4.425762) "></path>
                            <path d="M2.105485,2.1676237 L2.105485,2.18890685 C2.105485,2.11746905 2.11045925,2.16259035 2.00036925,2.27398835 C1.90633825,2.3195951 1.86997825,2.3676802 1.83220425,2.44415135 C1.78821875,2.54251885 1.77306875,2.6131135 1.76912975,2.72070455 L1.76912975,2.89091865 M1.411615,2.146315 C1.42618425,2.146315 1.44890925,2.2044157 1.4746895,2.2739628 C1.5215535,2.3299173 1.55137375,2.4106553 1.558772,2.5080008 C1.558772,2.62341015 1.578467,2.6728494 1.57980525,2.78452845 L1.57980525,2.86960995 M3.5560975,4.656347 C3.5560975,4.668611 3.4904475,4.69352225 3.45098175,4.7414285 C3.37119175,4.7523639 3.30039075,4.76271165 3.19873425,4.76271165 C3.18333175,4.73930785 3.15237525,4.7316173 3.11465175,4.7201709" stroke-width="0.1" transform="translate(2.483856, 3.454513) scale(-1, 1) translate(-2.483856, -3.454513) "></path>
                        </g>
                        <g transform="translate(50.000000, 27.000000)" id="Shape" stroke="#000000" stroke-width="0.1" fill="#FFFFFF">
                            <path d="M1.06001125,0.02989225 L3.36562087,0.057489625 L3.36562087,0.25067125 C3.36562087,0.25067125 3.5831115,0.499080775 3.71360587,1.051078 C3.84412637,1.60307522 3.97464687,3.67307725 3.97464687,3.67307725 L4.54014862,6.01910275 C4.54014862,6.01910275 4.19216362,6.37790178 3.93117487,6.3503044 C3.67018612,6.32269045 2.88711537,6.1295254 2.88711537,6.10189488 C2.88711537,6.0742975 2.84361725,4.77712143 2.756621,3.89393913 C2.66962475,3.01074025 2.49563225,2.54155173 2.104123,2.15522162 C1.58209325,2.95559523 1.53859512,3.78359935 1.58209325,3.78359935 C1.62559137,3.78359935 1.62559137,4.44598608 1.6690895,4.94278855 C1.71261375,5.43957445 1.62559137,6.12955855 1.62559137,6.12955855 L0.103026375,6.0743638 C0.103026375,6.0743638 0.1465245,5.46717183 0.190022625,4.9979833 C0.233546875,4.52879478 0.36623575,4.30804893 0.4075655,3.78359935 C0.453232,3.20408763 0.51734275,2.89982035 0.581558,1.96200685 C0.66615075,1.20386635 0.965255875,0.7146055 1.0491955,0.25080385 C1.07192425,0.132574375 1.0383275,0.04381525 1.0600635,0.03002485 L1.06001125,0.02989225 Z" transform="translate(2.321587, 3.190855) scale(-1, 1) translate(-2.321587, -3.190855) "></path>
                            <path d="M3.27854625,2.18265325 C3.27854625,2.18265325 3.0610295,1.96187425 2.97403325,1.57546127 C2.887037,1.1890483 2.887037,1.10627275 2.887037,1.10627275 M2.79993625,3.286714 L2.5389475,3.94910072" transform="translate(2.908747, 2.527687) scale(-1, 1) translate(-2.908747, -2.527687) "></path>
                            <path d="M1.49805823,3.148464 L2.01753875,4.05926025" transform="translate(1.757798, 3.603862) scale(-1, 1) translate(-1.757798, -3.603862) "></path>
                            <path d="M3.58316375,6.35027125 L3.27854625,4.99775125 M0.6683975,0.167879125 L2.97400712,0.272088169 M1.75598125,2.154973 C1.75598125,2.12737563 1.88647563,1.6581871 1.88647563,1.6581871 M0.88601875,0.167879125 L0.668502,1.57546128" transform="translate(2.125781, 3.259075) scale(-1, 1) translate(-2.125781, -3.259075) "></path>
                        </g>
                        <path d="M73.4157985,30.0059965 C73.4157985,37.940563 66.991556,44.3731343 59.067263,44.3731343 C51.14297,44.3731343 44.7187275,37.940563 44.7187275,30.0059965 C44.7187275,22.07143 51.14297,15.6388588 59.067263,15.6388588 C66.991556,15.6388588 73.4157985,22.07143 73.4157985,30.0059965 L73.4157985,30.0059965 Z" id="Shape" stroke="#006A00" stroke-width="2.89437561"></path>
                        <g transform="translate(71.250000, 26.875000)" id="Shape">
                            <path d="M3.5215,0.05325 C5.32675,1.592625 3.164,3.132 2.1675,3.132 C1.171,3.132 -0.991875,1.5925 0.8135,0.05325 C0.36225,1.592625 2.1675,1.9775 2.1675,2.74725 C2.1675,1.9775 3.972875,1.59275 3.5215,0.05325 L3.5215,0.05325 Z" fill="#006A00"></path>
                            <path d="M3.52138975,0.054408 C4.42404542,2.7487425 2.1673935,2.3637755 2.1673935,3.13349225 C2.1673935,2.36371032 -0.08923295,2.74859042 0.81339725,0.054408" stroke="#000000" stroke-width="0.1"></path>
                        </g>
                        <g transform="translate(57.375000, 13.375000)" id="Shape">
                            <path d="M0.415,0.630625 C2.14275,-0.995625 3.431625,1.326875 3.32125,2.318375 C3.21125,3.31 1.444125,5.292125 0.11575,3.325375 C1.593875,3.94475 2.1755,2.19075 2.9395,2.275875 C2.1755,2.190875 1.99325,0.351625 0.415125,0.630625 L0.415,0.630625 Z" fill="#006A00"></path>
                            <path d="M3.14816091,0.610120072 C4.05189877,3.30081509 1.79254137,2.9163681 1.79254137,3.68504513 C1.79254137,2.91630301 -0.46679052,3.30066322 0.436921833,0.610120072" stroke="#000000" stroke-width="0.1" transform="translate(1.792546, 2.147583) rotate(-83.669111) translate(-1.792546, -2.147583) "></path>
                        </g>
                        <g transform="translate(58.875000, 42.000000)" id="Shape">
                            <path d="M3.505625,3.22775 C2.254375,5.2445 0.411875,3.33275 0.263375,2.346 C0.114875,1.359375 1.31275,-1.0115 3.102125,0.546625 C1.514625,0.329125 1.403375,2.173875 0.643375,2.288625 C1.403375,2.173625 2.052625,3.903875 3.505625,3.227625 L3.505625,3.22775 Z" fill="#006A00"></path>
                            <path d="M3.14177019,0.586351061 C4.0456525,3.27694202 1.78593398,2.8925099 1.78593398,3.6611572 C1.78593398,2.89244482 -0.473759026,3.27679016 0.430097769,0.586351061" stroke="#000000" stroke-width="0.1" transform="translate(1.785938, 2.123754) rotate(81.433140) translate(-1.785938, -2.123754) "></path>
                        </g>
                        <g transform="translate(42.625000, 27.750000)" id="Shape">
                            <path d="M0.638125,3.134 C-1.06775,1.484875 1.186625,0.083625 2.18125,0.145875 C3.175875,0.208125 5.23875,1.879625 3.340875,3.303125 C3.887125,1.794875 2.109375,1.298125 2.157125,0.52975 C2.109375,1.298 0.283625,1.569375 0.638125,3.134 L0.638125,3.134 Z" fill="#006A00"></path>
                            <path d="M3.43786175,0.146613836 C4.34050014,2.83995628 2.08389141,2.45513102 2.08389141,3.22456436 C2.08389141,2.45506587 -0.172691843,2.83980426 0.72992108,0.146613836" stroke="#000000" stroke-width="0.1" transform="translate(2.083896, 1.685589) rotate(183.572827) translate(-2.083896, -1.685589) "></path>
                        </g>
                        <g transform="translate(70.250000, 22.875000)" id="Shape">
                            <path d="M3.183375,0.155 C5.292875,1.239125 3.54,3.23375 2.569875,3.46225 C1.599875,3.691 -0.857625,2.68875 0.547375,0.776 C0.46025,2.378125 2.305625,2.3385 2.48175,3.087875 C2.3055,2.338625 3.974875,1.549875 3.18325,0.154875 L3.183375,0.155 Z" fill="#006A00"></path>
                            <path d="M3.57474974,0.425573599 C4.4776049,3.12018638 2.22045426,2.73517962 2.22045426,3.50497587 C2.22045426,2.73511444 -0.0366709008,3.12003429 0.866158778,0.425573599" stroke="#000000" stroke-width="0.1" transform="translate(2.220459, 1.965275) rotate(-13.272709) translate(-2.220459, -1.965275) "></path>
                        </g>
                        <g transform="translate(53.375000, 14.000000)" id="Shape">
                            <path d="M0.08,1.0475 C1.2,-1.045 3.160625,0.745 3.371875,1.72025 C3.583125,2.69525 2.53875,5.138 0.65375,3.6975 C2.251875,3.813 2.245,1.965 2.99625,1.80175 C2.245,1.964875 1.487,0.279875 0.08,1.047625 L0.08,1.0475 Z" fill="#006A00"></path>
                            <path d="M3.22310723,0.511241268 C4.12676379,3.20164643 1.86760963,2.81724086 1.86760963,3.58583508 C1.86760963,2.81717578 -0.391519021,3.20149458 0.512112039,0.511241268" stroke="#000000" stroke-width="0.1" transform="translate(1.867614, 2.048538) rotate(257.775792) translate(-1.867614, -2.048538) "></path>
                        </g>
                        <g transform="translate(62.875000, 40.152108)" id="Shape">
                            <path d="M4.1075,3.29289157 C3.6145,5.61539157 1.233125,4.44351657 0.75875,3.56589157 C0.284625,2.68839157 0.6075,0.0511415663 2.81875,0.908391566 C1.25175,1.24364157 1.772875,3.01651657 1.09675,3.38289157 C1.773,3.01664157 2.97,4.42314157 4.1075,3.29289157 L4.1075,3.29289157 Z" fill="#006A00"></path>
                            <path d="M3.46975004,1.29704852 C4.37343537,3.98779535 2.1142093,3.60334095 2.1142093,4.37203278 C2.1142093,3.60327586 -0.144991262,3.98764347 0.75866856,1.29704852" stroke="#000000" stroke-width="0.1" transform="translate(2.114214, 2.834541) rotate(61.613657) translate(-2.114214, -2.834541) "></path>
                        </g>
                        <g transform="translate(43.000000, 31.125000)" id="Shape">
                            <path d="M1.12875,3.794 C-1.013125,2.775 0.677875,0.7275 1.640375,0.46925 C2.602875,0.210875 5.09,1.137125 3.744125,3.092 C3.782125,1.48825 1.938875,1.5845 1.739875,0.84075 C1.938625,1.58425 0.2945,2.424 1.128625,3.794 L1.12875,3.794 Z" fill="#006A00"></path>
                            <path d="M3.38953924,0.405415817 C4.29201713,3.10164777 2.03580968,2.71640966 2.03580968,3.48666847 C2.03580968,2.71634444 -0.220372293,3.10149559 0.682080121,0.405415817" stroke="#000000" stroke-width="0.1" transform="translate(2.035814, 1.946042) rotate(164.981639) translate(-2.035814, -1.946042) "></path>
                        </g>
                        <g transform="translate(68.750000, 19.875000)" id="Shape">
                            <path d="M2.534625,0.165875 C4.882625,0.497625 3.879625,2.9575 3.038375,3.491875 C2.19675,4.026375 -0.453125,3.886375 0.248,1.618125 C0.6905,3.16025 2.4205,2.516875 2.8325,3.166875 C2.42075,2.517125 3.739375,1.223875 2.534625,0.165875 L2.534625,0.165875 Z" fill="#006A00"></path>
                            <path d="M3.5676318,0.650411401 C4.47024455,3.34311533 2.21369994,2.9583813 2.21369994,3.72763223 C2.21369994,2.95831617 -0.0428192077,3.34296334 0.85976807,0.650411401" stroke="#000000" stroke-width="0.1" transform="translate(2.213704, 2.189022) rotate(-32.434535) translate(-2.213704, -2.189022) "></path>
                        </g>
                        <g transform="translate(49.625000, 15.625000)" id="Shape">
                            <path d="M0.117875,1.55 C0.706625,-0.75 3.0375,0.52 3.474875,1.4165 C3.912375,2.313 3.480375,4.934625 1.3065,3.986125 C2.886,3.716125 2.439,1.92325 3.129625,1.58525 C2.438875,1.923125 1.301125,0.468 0.11775,1.549875 L0.117875,1.55 Z" fill="#006A00"></path>
                            <path d="M3.45132567,0.55467404 C4.3547927,3.24683348 2.09611238,2.86217725 2.09611238,3.63127263 C2.09611238,2.86211213 -0.162542437,3.24668152 0.740899092,0.55467404" stroke="#000000" stroke-width="0.1" transform="translate(2.096117, 2.092973) rotate(243.975104) translate(-2.096117, -2.092973) "></path>
                        </g>
                        <g transform="translate(66.000000, 38.875000)" id="Shape">
                            <path d="M4.274375,2.1175 C4.464,4.48425 1.847625,4.041875 1.142875,3.33625 C0.438125,2.631 -0.004375,0.01125 2.359375,0.200625 C0.953125,0.969875 1.958125,2.52 1.414625,3.064375 C1.958,2.52 3.5065,3.525875 4.274375,2.117625 L4.274375,2.1175 Z" fill="#006A00"></path>
                            <path d="M3.58043046,0.716414698 C4.48334744,3.40976116 2.22604226,3.02493533 2.22604226,3.79436981 C2.22604226,3.02487018 -0.0312374277,3.40960914 0.871654063,0.716414698" stroke="#000000" stroke-width="0.1" transform="translate(2.226047, 2.255392) rotate(45.059621) translate(-2.226047, -2.255392) "></path>
                        </g>
                        <g transform="translate(44.000000, 34.125000)" id="Shape">
                            <path d="M1.7275,4.15875 C-0.59525,3.68125 0.55875,1.28875 1.432,0.808 C2.30525,0.327125 4.94125,0.63225 4.10025,2.85225 C3.75475,1.285625 1.98775,1.8195 1.61725,1.145125 C1.987625,1.819625 0.591,3.027875 1.7275,4.158875 L1.7275,4.15875 Z" fill="#006A00"></path>
                            <path d="M3.52905861,0.614167407 C4.43200122,3.30751208 2.17463195,2.92268651 2.17463195,3.69212048 C2.17463195,2.92262136 -0.0827118328,3.30736006 0.820205294,0.614167407" stroke="#000000" stroke-width="0.1" transform="translate(2.174636, 2.153144) rotate(151.171968) translate(-2.174636, -2.153144) "></path>
                        </g>
                        <g transform="translate(66.125000, 17.000000)" id="Shape">
                            <path d="M2.043375,0.273375 C4.395875,-0.023125 4.0725,2.613875 3.4005,3.350625 C2.728375,4.087375 0.1345,4.648125 0.217,2.27525 C1.04775,3.647125 2.549125,2.572 3.11675,3.091125 C2.54925,2.572 3.483,0.97775 2.043375,0.27325 L2.043375,0.273375 Z" fill="#006A00"></path>
                            <path d="M3.61312436,0.773809575 C4.51667389,3.46427906 2.25778731,3.07986429 2.25778731,3.84847688 C2.25778731,3.07979921 -0.00107377601,3.4641272 0.902450257,0.773809575" stroke="#000000" stroke-width="0.1" transform="translate(2.257792, 2.311143) rotate(-47.622401) translate(-2.257792, -2.311143) "></path>
                        </g>
                        <g transform="translate(46.500000, 17.750000)" id="Shape">
                            <path d="M0.20425,2.20475 C0.170125,-0.16925 2.75175,0.44425 3.408875,1.1945 C4.066,1.94475 4.33575,4.587875 1.989625,4.2435 C3.443125,3.5685 2.542125,1.955625 3.120125,1.448125 C2.542125,1.955625 1.063,0.85 0.204375,2.20475 L0.20425,2.20475 Z" fill="#006A00"></path>
                            <path d="M3.60602417,0.669903874 C4.5093368,3.36231861 2.25104247,2.97762591 2.25104247,3.74679422 C2.25104247,2.97756078 -0.00722636553,3.36216664 0.896060774,0.669903874" stroke="#000000" stroke-width="0.1" transform="translate(2.251047, 2.208349) rotate(228.777076) translate(-2.251047, -2.208349) "></path>
                        </g>
                        <g transform="translate(68.375000, 36.125000)" id="Shape">
                            <path d="M4.12925,1.524 C4.871125,3.779 2.22425,3.967125 1.37325,3.448125 C0.52225,2.929 -0.525,0.487625 1.81675,0.1135 C0.631375,1.193125 1.973,2.46225 1.573,3.1195 C1.973,2.462 3.71475,3.073875 4.12925,1.524 L4.12925,1.524 Z" fill="#006A00"></path>
                            <path d="M3.52570237,0.595365776 C4.42857535,3.28837135 2.17138016,2.90359423 2.17138016,3.67293133 C2.17138016,2.90352909 -0.0857895344,3.28821935 0.81705796,0.595365776" stroke="#000000" stroke-width="0.1" transform="translate(2.171385, 2.134149) rotate(31.397588) translate(-2.171385, -2.134149) "></path>
                        </g>
                        <g transform="translate(46.000000, 37.000000)" id="Shape">
                            <path d="M2.34375,4.272 C-0.02275,4.42075 0.464375,1.80925 1.18125,1.11575 C1.89775,0.422625 4.5215,0.025 4.29125,2.38825 C3.5475,0.967 1.98225,1.946125 1.448,1.392625 C1.982125,1.946375 0.950875,3.478875 2.34375,4.272125 L2.34375,4.272 Z" fill="#006A00"></path>
                            <path d="M3.60284691,0.683469052 C4.50620167,3.37614933 2.24780202,2.99141868 2.24780202,3.76066285 C2.24780202,2.99135355 -0.0105721419,3.37599734 0.892757126,0.683469052" stroke="#000000" stroke-width="0.1" transform="translate(2.247806, 2.222066) rotate(135.953517) translate(-2.247806, -2.222066) "></path>
                        </g>
                        <g transform="translate(63.375000, 14.875000)" id="Shape">
                            <path d="M1.5545,0.288125 C3.8045,-0.461125 4,2.188375 3.483875,3.041875 C2.968,3.895625 0.532625,4.951125 0.152375,2.607625 C1.234,3.791375 2.497625,2.444375 3.155375,2.842875 C2.497875,2.444375 3.10375,0.69875 1.554625,0.28825 L1.5545,0.288125 Z" fill="#006A00"></path>
                            <path d="M3.52407107,0.706577416 C4.42760616,3.39849403 2.16875567,3.0138725 2.16875567,3.78289851 C2.16875567,3.01380738 -0.0900693129,3.39834209 0.813440282,0.706577416" stroke="#000000" stroke-width="0.1" transform="translate(2.168760, 2.244738) rotate(-58.858023) translate(-2.168760, -2.244738) "></path>
                        </g>
                        <g transform="translate(44.250000, 21.000000)" id="Shape">
                            <path d="M0.3075,2.798375 C-0.52125,0.573875 2.11625,0.283125 2.986875,0.768625 C3.857375,1.254125 4.998625,3.652875 2.673125,4.11775 C3.815625,2.993 2.425625,1.777125 2.799875,1.104625 C2.425625,1.777125 0.6615,1.233375 0.307375,2.798375 L0.3075,2.798375 Z" fill="#006A00"></path>
                            <path d="M3.59588583,0.575417057 C4.4986507,3.26872782 2.24172578,2.88390709 2.24172578,3.65333138 C2.24172578,2.88384194 -0.0151736726,3.26857581 0.887565725,0.575417057" stroke="#000000" stroke-width="0.1" transform="translate(2.241730, 2.114374) rotate(209.155626) translate(-2.241730, -2.114374) "></path>
                        </g>
                        <g transform="translate(70.086039, 33.500000)" id="Shape">
                            <path d="M3.98346104,1.263375 C4.97746104,3.418875 2.36933604,3.908 1.46471104,3.489625 C0.560086039,3.070875 -0.758538961,0.76525 1.52521104,0.126125 C0.470711039,1.333875 1.94833604,2.441375 1.62583604,3.140125 C1.94833604,2.441375 3.74833604,2.850125 3.98333604,1.26325 L3.98346104,1.263375 Z" fill="#006A00"></path>
                            <path d="M3.46339194,0.556038651 C4.36624232,3.25011625 2.10910363,2.86518596 2.10910363,3.63482931 C2.10910363,2.86512079 -0.148009577,3.24996419 0.754815321,0.556038651" stroke="#000000" stroke-width="0.1" transform="translate(2.109108, 2.095434) rotate(24.830108) translate(-2.109108, -2.095434) "></path>
                        </g>
                        <g transform="translate(49.875000, 40.250000)" id="Shape">
                            <path d="M2.8825,3.997 C0.703375,4.9335 0.28575,2.30975 0.728125,1.41575 C1.170625,0.521625 3.508125,-0.7355 4.084375,1.567375 C2.907125,0.479 1.761375,1.928 1.072375,1.586375 C1.761125,1.928 1.304125,3.7185 2.882375,3.996875 L2.8825,3.997 Z" fill="#006A00"></path>
                            <path d="M3.46232597,0.575567475 C4.36655383,3.26556394 2.10597142,2.88121676 2.10597142,3.64969422 C2.10597142,2.88115169 -0.154585478,3.26541211 0.749616865,0.575567475" stroke="#000000" stroke-width="0.1" transform="translate(2.105976, 2.112631) rotate(116.314031) translate(-2.105976, -2.112631) "></path>
                        </g>
                        <g transform="translate(71.250000, 30.500000)" id="Shape">
                            <path d="M3.7305,0.692875 C5.157,2.5895 2.710875,3.619375 1.738375,3.401625 C0.765875,3.184125 -1.0095,1.209125 1.087875,0.101375 C0.312,1.505125 1.989875,2.275125 1.82225,3.026375 C1.98975,2.275125 3.835625,2.293875 3.7305,0.693 L3.7305,0.692875 Z" fill="#006A00"></path>
                            <path d="M3.42388767,0.359585259 C4.32705185,3.05399647 2.06912864,2.66901851 2.06912864,3.43875717 C2.06912864,2.66895333 -0.188769076,3.05384439 0.71436962,0.359585259" stroke="#000000" stroke-width="0.1" transform="translate(2.069133, 1.899171) rotate(12.604999) translate(-2.069133, -1.899171) "></path>
                        </g>
                        <g transform="translate(60.375000, 13.875000)" id="Shape">
                            <path d="M1.0415,0.41875 C3.08175,-0.791 3.833625,1.756875 3.51,2.700625 C3.1865,3.644375 1.03,5.192625 0.162125,2.983125 C1.469625,3.910375 2.419625,2.325625 3.146625,2.575625 C2.419625,2.325625 2.64225,0.491125 1.041625,0.418625 L1.0415,0.41875 Z" fill="#006A00"></path>
                            <path d="M3.41513103,0.660781175 C4.31884013,3.35226699 2.05955463,2.96770701 2.05955463,3.73660995 C2.05955463,2.9676419 -0.199705355,3.35211508 0.703978237,0.660781175" stroke="#000000" stroke-width="0.1" transform="translate(2.059559, 2.198696) rotate(-71.067766) translate(-2.059559, -2.198696) "></path>
                        </g>
                        <g transform="translate(54.125000, 41.875000)" id="Shape">
                            <path d="M3.11125,3.68725 C1.167875,5.047625 0.22625,2.5635 0.478,1.59825 C0.729625,0.63275 2.76325,-1.074 3.795,1.06375 C2.42125,0.23775 1.59375,1.889625 0.84975,1.695375 C1.5935,1.889625 1.50975,3.735875 3.111375,3.68725 L3.11125,3.68725 Z" fill="#006A00"></path>
                            <path d="M3.31529972,0.439099076 C4.21887389,3.13136162 1.95992571,2.74669066 1.95992571,3.51581549 C1.95992571,2.74662553 -0.298996982,3.13120966 0.604551692,0.439099076" stroke="#000000" stroke-width="0.1" transform="translate(1.959930, 1.977457) rotate(104.622056) translate(-1.959930, -1.977457) "></path>
                        </g>
                        <g transform="translate(43.125000, 24.000000)" id="Shape">
                            <path d="M0.383125,3.114375 C-0.922375,1.132375 1.583125,0.25725 2.540125,0.53525 C3.497375,0.81325 5.146375,2.895 2.983875,3.86975 C3.84575,2.51725 2.219125,1.644 2.43325,0.90475 C2.219125,1.644 0.37825,1.51 0.38325,3.114375 L0.383125,3.114375 Z" fill="#006A00"></path>
                            <path d="M3.46983727,0.461762246 C4.37263474,3.15721683 2.11562833,2.77208979 2.11562833,3.54212653 C2.11562833,2.77202459 -0.141352605,3.15706469 0.761419386,0.461762246" stroke="#000000" stroke-width="0.1" transform="translate(2.115633, 2.001944) rotate(196.238842) translate(-2.115633, -2.001944) "></path>
                        </g>
                        <g transform="translate(61.125000, 21.250000)" id="Shape">
                            <path d="M6.43430688,4.4390375 C6.6840145,4.55204515 7.12941156,5.6174035 7.29792325,5.608972 C7.565396,5.596708 8.63485331,3.627314 8.4634825,3.3541334 C8.34462,3.1434481 7.37219625,4.406589 7.30935975,4.4815527 C7.29859788,4.2618227 7.05316288,3.1774296 6.85463038,2.94995795 C6.61979663,2.71208745 6.33725725,2.84372105 6.08652163,2.77974385 C5.96926538,2.7071052 5.78390413,2.42061305 5.70455538,2.14160705 C5.83597875,2.05105785 5.95068106,2.07824305 6.07897225,1.86949955 C6.17020725,1.6997709 6.11723313,0.67084685 6.08491538,0.56491655 C5.87144475,0.20036915 6.17213475,0.3777117 5.45810844,0.33287145 C4.42580369,0.27037615 4.23931806,1.59969155 4.94968213,2.14160705 C4.89407375,2.54856745 4.72127338,2.64223375 4.58120838,2.69466235 C4.44024388,2.69737065 3.95758181,2.6751677 3.68901681,3.01378185 C3.15248113,3.64103435 3.545659,3.8033535 3.44242531,3.92847185 C3.327209,4.0726505 3.15542056,4.43502615 3.09084931,4.65169015 C2.92264281,4.77933795 1.4928715,4.5240679 1.21956806,4.60917495 C0.955821813,4.6338307 0.312566875,5.01332485 0.0445961875,5.28982695 C0.101859,5.6511806 3.92385056,5.09559585 4.04849556,5.22605415 C4.14400319,5.3115189 4.0050465,6.5351595 4.08078119,6.63002665 C4.10744494,6.86156075 5.95270494,6.77893205 6.09823119,6.77893205 C6.21963156,6.29705905 6.34543306,4.69512515 6.43435506,4.4389864 L6.43430688,4.4390375 Z" stroke="#000000" stroke-width="0.1" fill="#520900"></path>
                            <path d="M6.2436975,0.5606436 C6.27343882,1.01696032 6.10649805,0.6198678 5.50411575,0.6198678 C4.33682175,0.5295975 4.74691665,2.3979561 4.74691665,1.821273 C4.24137195,1.57552125 3.88270275,0.02357475 5.3177265,0.08380275 C5.77146,0.08380275 6.1843305,0.2246574 6.24379387,0.560661525 L6.2436975,0.5606436 Z" stroke="#000000" stroke-width="0.1" fill="#000000"></path>
                            <path d="M4.52921877,3.8537157 C4.52921877,3.8966397 4.51848854,4.05701705 4.477252,4.1515265 C4.44949064,4.2470835 4.38117899,4.35789385 4.32141408,4.42805415 C4.300016,4.54180275 4.19090451,4.56024985 4.16557617,4.68329865 C4.06925361,4.74129715 4.02770515,4.8351934 4.00973825,4.93859425 C4.00973825,5.04769275 4.05253441,5.13170115 4.06170502,5.23640505 C4.09164985,5.32736305 4.16226976,5.3990819 4.16557617,5.51295825 C4.16557617,5.624484 4.16526424,5.70586075 4.06170502,5.76820275 L4.06170502,5.91715925" stroke="#000000" stroke-width="0.1"></path>
                            <path d="M4.1147025,3.3431756 C4.1293475,3.3431756 4.14071,3.8574971 4.2618595,3.9813635 C4.2881195,4.0634301 4.377353,4.16897715 4.4090165,4.236608 C4.4512345,4.299461 4.5095115,4.3737604 4.619248,4.406771 L4.913562,4.406771 C5.0305705,4.406771 5.10225525,4.4082018 5.18684275,4.3642558 C5.22436425,4.3438158 5.25077575,4.3170905 5.27092525,4.2791743 M5.5862725,4.342896 L5.6072805,4.342896 C5.54852375,4.342896 5.5797075,4.3402388 5.691363,4.38543675 C5.7349445,4.4502571 5.7865555,4.4780555 5.859528,4.51308455 C5.93484875,4.55059195 6.020926,4.55565085 6.132834,4.55565085 C6.2388335,4.54660615 6.303019,4.51257355 6.364124,4.47056935 C6.4661845,4.43709885 6.4856775,4.39555455 6.51125575,4.27909765 L6.51125575,3.98128685 C6.49918625,3.89109535 6.47630975,3.81848225 6.44818125,3.74729995 C6.43757625,3.71515805 6.427148,3.7292872 6.427148,3.6835016 M7.31009,4.4918525 C7.29935875,4.4918525 7.2431775,4.55764375 7.20497425,4.61947475 C7.14013225,4.64292965 7.123341,4.71441855 7.09988375,4.76838015 C7.08296625,4.8367264 7.05781725,4.84145315 7.05781725,4.93854315 C7.01544775,5.03333365 7.002141,5.11759755 6.99474275,5.21509635 L7.057792,4.9385687 C7.0154225,5.0333081 7.00211575,5.11759755 6.9947175,5.21509635 M6.06981,2.7901203 L6.04877675,2.7901203 C6.10558925,2.7901203 6.07655175,2.78876615 5.96469425,2.81140345 C5.918815,2.86940195 5.8433175,2.92137065 5.775496,2.96025775 C5.70032675,3.0068865 5.63997925,3.06271325 5.5652645,3.08790555 L5.775496,2.96025775 C5.70032675,3.0068865 5.63997925,3.06271325 5.5652645,3.08790555 M4.5772825,2.70501325 L4.59831575,2.70501325 C4.54155375,2.70501325 4.5704145,2.70363355 4.68239825,2.7262964 C4.75653225,2.7618109 4.80238625,2.8001359 4.8715965,2.85391865 C4.904169,2.9033579 4.95383575,2.9128114 4.97671225,3.00282405 C5.0164305,3.02449045 5.030318,3.04549255 5.0397615,3.10921425 M5.2080275,2.17886207 L5.31314325,2.17886207 C5.42752575,2.17886207 5.4831515,2.20724099 5.58644925,2.21362624 C5.67578375,2.19593116 5.69709475,2.14113481 5.7756475,2.1094172 M5.6074825,4.7897655 C5.6110175,4.8066285 5.6491955,4.8985063 5.670557,4.9386709 C5.70886125,5.0028525 5.7598915,5.0642236 5.77567275,5.1514002 C5.80016525,5.22562295 5.8142295,5.3105767 5.81773925,5.4066447 C5.83692925,5.49614635 5.84965525,5.5757857 5.796706,5.6406827 C5.7740315,5.7247422 5.7318135,5.7860622 5.6916155,5.87464405 C5.663588,5.87464405 5.6706075,5.8675667 5.6706075,5.89595275 M4.93457,4.8321785 L4.93457,4.85346165 C4.93457,4.79602525 4.93595875,4.8252289 4.913562,4.93854315 C4.88460025,5.0410753 4.8592745,5.12730655 4.80844625,5.19378765 C4.78072175,5.2779749 4.74971475,5.3088904 4.74537175,5.42782565 C4.76208725,5.4672493 4.766405,5.51116975 4.766405,5.5767055 M4.82953,5.7044555 L4.82953,5.81082015 C4.88618926,5.84173565 4.86385003,5.84388185 4.9334261,5.8533609 M3.084755,4.6620155 L3.084755,4.6832731 C3.084755,4.62381825 3.0782405,4.6593583 3.18987075,4.70455625 C3.28006375,4.72085715 3.39028,4.7310516 3.4631515,4.747097 C3.5306195,4.7806186 3.59609275,4.836011 3.65234975,4.87471925 C3.702673,4.91886965 3.77400425,4.96363325 3.841548,5.00236705 C3.917399,5.0407687 3.95075425,5.07452025 3.988705,5.15132355 C4.011632,5.18223905 4.0025925,5.18433415 4.0307715,5.19383875" stroke="#000000" stroke-width="0.1"></path>
                            <path d="M4.88432375,1.4836548 C4.88980557,1.45480999 4.99427214,1.18360616 5.10698373,1.09205527 C5.18742833,0.879795164 5.32144325,0.97604901 5.40380427,1.09205527" stroke="#000000" stroke-width="0.1"></path>
                            <path d="M5.5490085,1.04742678 L5.57456078,1.04742678 C5.50560338,1.04742678 5.54063423,1.05072061 5.67670853,0.996616513 C5.78345753,0.925860316 5.91204713,0.945867241 6.03425633,0.945867241 C6.0702381,0.969655962 6.05971658,0.960628448 6.05971658,1.04742678 M5.52354825,1.28470165 L5.52354825,1.3059848 C5.52354825,1.24652995 5.52038873,1.2781353 5.5746528,1.3910663 C5.59437683,1.4667454 5.6286408,1.5711938 5.6001744,1.6250532 C5.5331802,1.6250532 5.5124439,1.6180525 5.47247438,1.60377005" stroke="#000000" stroke-width="0.768281728"></path>
                            <path d="M5.92055704,2.01333447 C5.92055704,2.15611048 5.79534307,2.27186642 5.64087177,2.27186642 C5.48640048,2.27186642 5.36118651,2.15606611 5.36118651,2.0132901 C5.36118651,1.87051409 5.48640048,1.75462504 5.64087177,1.75462504 C5.79534307,1.75462504 5.92055704,1.87042535 5.92055704,2.0132901 L5.92055704,2.01333447 Z" stroke="#000000" stroke-width="0.1" fill="#000000" transform="translate(5.640872, 2.013247) rotate(-8.236230) translate(-5.640872, -2.013247) "></path>
                            <path d="M5.47361563,1.25611605 C5.47361563,1.39889206 5.35733096,1.514648 5.21387537,1.514648 C5.07041979,1.514648 4.95413511,1.39884769 4.95413511,1.25607168 C4.95413511,1.11329567 5.07041979,0.997406621 5.21387537,0.997406621 C5.35733096,0.997406621 5.47361563,1.11320693 5.47361563,1.25607168 L5.47361563,1.25611605 Z" stroke="#000000" stroke-width="0.1" fill="#000000" transform="translate(5.213880, 1.256033) rotate(-7.487388) translate(-5.213880, -1.256033) "></path>
                            <path d="M6.13799063,1.19236605 C6.13799063,1.33514206 6.02170596,1.450898 5.87825037,1.450898 C5.73479479,1.450898 5.61851011,1.33509769 5.61851011,1.19232168 C5.61851011,1.04954567 5.73479479,0.933656621 5.87825037,0.933656621 C6.02170596,0.933656621 6.13799063,1.04945693 6.13799063,1.19232168 L6.13799063,1.19236605 Z" fill="#000000" transform="translate(5.878255, 1.192283) rotate(-7.487388) translate(-5.878255, -1.192283) "></path>
                            <path d="M4.8504875,4.34912647 C4.8504875,4.43481592 4.8034215,4.50423679 4.74537175,4.50423679 C4.68729675,4.50423679 4.640256,4.43477452 4.640256,4.34912647 C4.640256,4.26347842 4.687322,4.19401615 4.74537175,4.19401615 C4.80344675,4.19401615 4.8504875,4.26347842 4.8504875,4.34912647 L4.8504875,4.34912647 Z M6.2801425,4.60785065 C6.2801425,4.66497695 6.24719125,4.71125753 6.206564,4.71125753 C6.1659115,4.71125753 6.1329855,4.66489416 6.1329855,4.60785065 C6.1329855,4.55080714 6.16593675,4.50444377 6.206564,4.50444377 C6.2472165,4.50444377 6.2801425,4.55080714 6.2801425,4.60785065 L6.2801425,4.60785065 Z" stroke="#000000" stroke-width="0.1" fill="#000000"></path>
                            <path d="M5.7125225,2.1944987 L5.7125225,2.21578185 C5.7125225,2.14434405 5.71749675,2.18946535 5.60740675,2.30086335 C5.51337575,2.3464701 5.47701575,2.3945552 5.43924175,2.47102635 C5.39525625,2.56939385 5.38010625,2.6399885 5.37616725,2.74757955 L5.37616725,2.91779365 M5.0186525,2.17319 C5.03322175,2.17319 5.05594675,2.2312907 5.081727,2.3008378 C5.128591,2.3567923 5.15841125,2.4375303 5.1658095,2.5348758 C5.1658095,2.65028515 5.1855045,2.6997244 5.18684275,2.81140345 L5.18684275,2.89648495 M7.163135,4.683222 C7.163135,4.695486 7.097485,4.72039725 7.05801925,4.7683035 C6.97822925,4.7792389 6.90742825,4.78958665 6.80577175,4.78958665 C6.79036925,4.76618285 6.75941275,4.7584923 6.72168925,4.7470459" stroke="#000000" stroke-width="0.1"></path>
                        </g>
                        <g transform="translate(64.125000, 27.125000)" id="Shape" stroke="#000000" stroke-width="0.1" fill="#FFFFFF">
                            <path d="M0.99183625,0.05614225 L3.29744588,0.083739625 L3.29744588,0.27692125 C3.29744588,0.27692125 3.5149365,0.525330775 3.64543088,1.077328 C3.77595138,1.62932522 3.90647188,3.69932725 3.90647188,3.69932725 L4.47197363,6.04535275 C4.47197363,6.04535275 4.12398863,6.40415177 3.86299988,6.3765544 C3.60201113,6.34894045 2.81894038,6.1557754 2.81894038,6.12814487 C2.81894038,6.1005475 2.77544225,4.80337142 2.688446,3.92018912 C2.60144975,3.03699025 2.42745725,2.56780172 2.035948,2.18147162 C1.51391825,2.98184522 1.47042013,3.80984935 1.51391825,3.80984935 C1.55741638,3.80984935 1.55741638,4.47223607 1.6009145,4.96903855 C1.64443875,5.46582445 1.55741638,6.15580855 1.55741638,6.15580855 L0.034851375,6.1006138 C0.034851375,6.1006138 0.0783495,5.49342182 0.121847625,5.0242333 C0.165371875,4.55504477 0.29806075,4.33429892 0.3393905,3.80984935 C0.385057,3.23033762 0.44916775,2.92607035 0.513383,1.98825685 C0.59797575,1.23011635 0.897080875,0.7408555 0.9810205,0.27705385 C1.00374925,0.158824375 0.9701525,0.07006525 0.9918885,0.05627485 L0.99183625,0.05614225 Z"></path>
                            <path d="M2.0360525,2.20890325 C2.0360525,2.20890325 1.81853575,1.98812425 1.7315395,1.60171128 C1.64454325,1.2152983 1.64454325,1.13252275 1.64454325,1.13252275 M1.5574425,3.312964 L1.29645375,3.97535072"></path>
                            <path d="M2.55746125,3.174714 L3.07694177,4.08551025"></path>
                            <path d="M3.9066025,6.37652125 L3.601985,5.02400125 M0.99183625,0.194129125 L3.29744588,0.298338169 M2.07942,2.181223 C2.07942,2.15362563 2.20991438,1.6844371 2.20991438,1.6844371 M1.2094575,0.194129125 L0.99194075,1.60171128"></path>
                        </g>
                        <path d="M51.609028,33.476172 C51.609028,34.0427605 51.3108758,34.5021023 50.943006,34.5021023 C50.5752204,34.5021023 50.2770682,34.0427605 50.2770682,33.476172 C50.2770682,32.9095834 50.5752204,32.4502417 50.9430902,32.4502417 C51.3108337,32.4502417 51.609028,32.9095834 51.609028,33.476172 L51.609028,33.476172 Z" id="Shape" stroke="#000000" stroke-width="0.1" fill="#FFC600"></path>
                        <g transform="translate(52.125000, 37.125000)" id="Shape">
                            <g stroke="#000000" stroke-width="0.1">
                                <path d="M2.28692,1.07078875 C2.28692,1.07078875 3.6395875,0.53709425 4.09048515,0.53709425 C4.54135735,0.53709425 4.54135735,1.07078875 4.5774709,1.08573075 L4.5413319,2.13820788 L2.28692,2.13820788 L2.28692,1.07078875 L2.28692,1.07078875 Z" fill="#00CFE6"></path>
                                <path d="M4.5414625,3.19772239 C4.5414625,3.19772239 4.5414625,2.66402789 4.99236015,2.66402789 C5.44323235,2.66402789 5.89413,2.64908589 6.34502765,2.66402789 L6.34502765,4.26517164 L4.5414625,4.26517164 L4.5414625,3.19772239 L4.5414625,3.19772239 Z" fill="#00CFE6" transform="translate(5.443245, 3.461279) scale(1, -1) translate(-5.443245, -3.461279) "></path>
                                <path d="M10.8159041,1.07741375 C10.8159041,1.07741375 12.1685716,0.54371925 12.6194693,0.54371925 C13.0703415,0.54371925 13.0703415,1.07741375 13.106455,1.09235575 L13.070316,2.14483287 L10.8159041,2.14483287 L10.8159041,1.07741375 L10.8159041,1.07741375 Z" fill="#00CFE6" transform="translate(11.961180, 1.344276) scale(-1, 1) translate(-11.961180, -1.344276) "></path>
                                <path d="M9.04859735,3.20372239 C9.04859735,3.20372239 9.04859735,2.67002789 9.499495,2.67002789 C9.9503672,2.67002789 10.4012648,2.65508589 10.8521625,2.67002789 L10.8521625,4.27117164 L9.04859735,4.27117164 L9.04859735,3.20372239 L9.04859735,3.20372239 Z" fill="#00CFE6" transform="translate(9.950380, 3.467279) scale(-1, -1) translate(-9.950380, -3.467279) "></path>
                                <path d="M9.4996994,4.26494963 C9.4996994,4.26494963 9.4996994,3.731225 9.0488272,3.731225 L10.4014947,3.731225 L9.4996994,4.26494963 L9.4996994,4.26494963 Z" fill="#FFFFFF" transform="translate(9.725161, 3.998087) scale(-1, -1) translate(-9.725161, -3.998087) "></path>
                                <path d="M11.3040469,1.07728875 L14.4598281,2.6784325 C14.4598281,2.6784325 13.3898906,3.681595 12.3559937,3.74585163 C11.8300203,3.74585163 11.3040766,2.6784325 11.3040766,2.6784325 L11.3040766,1.07728875 L11.3040469,1.07728875 Z" fill="#00CFE6" transform="translate(12.881937, 2.411570) scale(-1, 1) translate(-12.881937, -2.411570) "></path>
                                <path d="M9.55590085,1.61103875 C9.57397035,1.3441915 9.49955455,0.5435895 9.04868235,0.5435895 L10.4576707,0.5435895 C10.9085683,0.5435895 11.359466,1.07731413 11.359466,1.61103875 L11.323327,2.67842775 L9.55590085,2.67842775 L9.55590085,1.61103875 L9.55590085,1.61103875 Z" fill="#FFFFFF" transform="translate(10.204074, 1.611009) scale(-1, 1) translate(-10.204074, -1.611009) "></path>
                                <path d="M5.4430025,4.25894963 C5.4430025,4.25894963 5.4430025,3.725225 4.9921303,3.725225 L6.3447978,3.725225 L5.4430025,4.25894963 L5.4430025,4.25894963 Z" fill="#FFFFFF" transform="translate(5.668464, 3.992087) scale(1, -1) translate(-5.668464, -3.992087) "></path>
                                <path d="M0.933671875,1.07053875 L4.08945312,2.6716825 C4.08945312,2.6716825 3.01951562,3.674845 1.98561875,3.73910163 C1.45964531,3.73910163 0.933701562,2.6716825 0.933701562,2.6716825 L0.933701562,1.07053875 L0.933671875,1.07053875 Z" fill="#00CFE6"></path>
                                <path d="M4.5413775,1.60428875 C4.559447,1.3374415 4.4850312,0.5368395 4.034159,0.5368395 L5.44314735,0.5368395 C5.894045,0.5368395 6.34494265,1.07056413 6.34494265,1.60428875 L6.30880365,2.67167775 L4.5413775,2.67167775 L4.5413775,1.60428875 L4.5413775,1.60428875 Z" fill="#FFFFFF"></path>
                                <path d="M0.0352609,1.0469875 C0.0324614,1.077474 0.48335905,0.010085 1.3851289,0.010085 C2.28689875,0.010085 5.8938509,2.14489313 7.6946929,2.14489313 C9.50100665,2.14489313 12.6994354,-0.040976875 13.5588819,0.010054875 C14.4184047,0.0610565 14.9209659,1.12949988 14.9115494,1.07744388 C14.9020311,1.02538788 14.4606517,2.67858763 14.4606517,2.67858763 C14.4606517,2.14489313 14.0097541,1.6111685 13.5588819,1.6111685 C13.1079842,1.6111685 10.8535469,3.74597663 7.6946929,3.74597663 C4.5411834,3.74597663 2.2868224,1.61113838 1.8358484,1.61113838 C1.38495075,1.61113838 0.93407855,2.14480275 0.93407855,2.67852738 L0.03518455,1.04695738 L0.0352609,1.0469875 Z" fill="#FFFFFF"></path>
                            </g>
                            <path d="M12.182125,2.095 L11.788,0.891875 L12.1915,0.706875 L12.238125,0.84875 L11.908375,1 L12.029125,1.3685 L12.337875,1.226875 L12.384125,1.367875 L12.075375,1.5095 L12.209375,1.919 L12.551875,1.76175 L12.598625,1.903875 L12.182,2.095125 L12.182125,2.095 Z M10.49,2.88275 L10.095875,1.679625 L10.169625,1.645875 L10.517125,2.70675 L10.792125,2.5805 L10.83875,2.72275 L10.49,2.88275 L10.49,2.88275 Z M9.977875,3.12325 L9.58375,1.920125 L9.96025,1.747625 L10.00675,1.889625 L9.70425,2.028375 L9.826125,2.400875 L10.087875,2.280625 L10.1345,2.42275 L9.872625,2.543 L10.051625,3.0895 L9.977875,3.1235 L9.977875,3.12325 Z M5.444125,3.13875 L5.704125,1.898125 L5.856,1.942625 L5.852625,2.87425 C5.85225,2.96075 5.851625,3.02575 5.85075,3.0685 C5.86875,3.026 5.896375,2.9635 5.933,2.88175 L6.2965,2.072 L6.4325,2.112 L6.1725,3.352625 L6.07525,3.324125 L6.29275,2.285375 L5.8535,3.259125 L5.76225,3.23225 L5.763,2.11125 L5.54175,3.1675 L5.44425,3.13875 L5.444125,3.13875 Z M5.399625,1.7785 L5.495875,1.825625 L5.2565,2.50775 C5.215,2.62625 5.173625,2.7165 5.13275,2.778375 C5.0915,2.84 5.041875,2.882125 4.983125,2.904875 C4.925,2.927375 4.860875,2.921125 4.790875,2.886625 C4.722875,2.85325 4.673875,2.80725 4.644,2.747625 C4.614,2.688375 4.60275,2.618 4.60925,2.537 C4.61625,2.4555 4.64175,2.35225 4.6855,2.227 L4.924625,1.545 L5.020875,1.5925 L4.781875,2.27375 C4.745875,2.37625 4.725125,2.45475 4.719375,2.50925 C4.714375,2.56325 4.721625,2.6105 4.740625,2.650875 C4.760375,2.691125 4.790625,2.7215 4.831875,2.74175 C4.902625,2.7765 4.961875,2.7755 5.01025,2.738 C5.058625,2.7005 5.10875,2.608 5.16075,2.45975 L5.3995,1.7785 L5.399625,1.7785 Z M3.46625,0.95575 L3.538125,0.995125 L3.27375,1.67175 C3.227875,1.78925 3.185,1.8795 3.145625,1.942125 C3.10625,2.004625 3.061875,2.048625 3.012375,2.074625 C2.963375,2.10025 2.91275,2.098375 2.860375,2.069875 C2.81071243,2.04371699 2.7736766,1.99866123 2.757625,1.944875 C2.740125,1.889375 2.73825,1.822125 2.752375,1.74325 C2.766625,1.66375 2.797875,1.562 2.846375,1.438 L3.11075,0.761375 L3.182625,0.80075 L2.918625,1.4765 C2.878875,1.57825 2.853875,1.655875 2.843625,1.709 C2.833625,1.7615 2.834375,1.806875 2.845375,1.84475 C2.856625,1.8825 2.877875,1.90975 2.908625,1.92675 C2.9615,1.95575 3.00925,1.9505 3.051875,1.91125 C3.094625,1.872 3.144625,1.77875 3.201875,1.63175 L3.466125,0.956 L3.46625,0.95575 Z M2.183125,1.165875 L2.256,1.19025 C2.23625,1.25075 2.22475,1.30275 2.221625,1.34725 C2.218875,1.391 2.225375,1.43125 2.240875,1.4685 C2.256625,1.5045 2.28,1.53125 2.310875,1.548125 C2.338375,1.563125 2.365875,1.567625 2.39375,1.561625 C2.42302063,1.55471698 2.44925428,1.53848546 2.4685,1.515375 C2.491,1.490125 2.509375,1.459125 2.5235,1.42325 C2.537875,1.38625 2.545375,1.351625 2.546,1.319125 C2.54690273,1.28572864 2.53942514,1.25263818 2.52425,1.222875 C2.5145,1.202625 2.48975,1.166125 2.44975,1.113375 C2.410125,1.059875 2.38475,1.016375 2.3735,0.9825 C2.35889169,0.937108859 2.35357764,0.889239906 2.357875,0.84175 C2.36225,0.791375 2.375125,0.739 2.396125,0.6855 C2.419125,0.62625 2.448375,0.5755 2.484,0.533 C2.51975,0.48975 2.55775,0.463 2.598,0.45275 C2.638375,0.442375 2.67675,0.447375 2.71325,0.467375 C2.7535,0.48925 2.7835,0.52275 2.80325,0.56775 C2.82325,0.612375 2.83075,0.6665 2.82625,0.729625 C2.82057485,0.79784572 2.80529919,0.864923981 2.780875,0.928875 L2.707625,0.90225 C2.732875,0.826 2.742125,0.76325 2.7355,0.71375 C2.729,0.66425 2.704875,0.62825 2.663,0.605375 C2.619625,0.581625 2.581125,0.581375 2.547625,0.605 C2.5145,0.62825 2.488625,0.664125 2.4695,0.71275 C2.45325,0.754625 2.44675,0.793125 2.45025,0.828 C2.4535,0.863 2.478625,0.9105 2.525625,0.971375 C2.573125,1.031375 2.60375,1.078125 2.617125,1.111375 C2.636375,1.160125 2.644125,1.212625 2.640375,1.2695 C2.636625,1.32575 2.622625,1.385125 2.598125,1.448 C2.57573154,1.50696817 2.54408477,1.56199136 2.504375,1.611 C2.466375,1.656625 2.425625,1.6865 2.3825,1.700375 C2.34192752,1.71397136 2.29749003,1.70970027 2.26025,1.688625 C2.21300954,1.66394289 2.17567769,1.62378688 2.1545,1.574875 C2.13325,1.52575 2.125375,1.46525 2.1305,1.393125 C2.136125,1.320625 2.15375,1.244875 2.183375,1.165625 L2.183125,1.165875 Z M12.5705,1.18 C12.505125,0.98075 12.478875,0.812875 12.49175,0.6775 C12.50425,0.5415 12.55,0.455375 12.628625,0.41925 C12.680125,0.3955 12.735125,0.400875 12.793875,0.435 C12.852625,0.469125 12.908375,0.52875 12.961375,0.614125 C13.013875,0.69875 13.060125,0.801 13.0995,0.921625 C13.1395,1.043375 13.163875,1.157875 13.172625,1.264625 C13.181125,1.37125 13.172875,1.459375 13.14725,1.528375 C13.121375,1.596625 13.08425,1.64175 13.03575,1.664 C12.98325,1.688125 12.927375,1.682375 12.868,1.6465 C12.80875,1.611125 12.753,1.55075 12.70075,1.466 C12.6485,1.38125 12.604875,1.28575 12.57025,1.180125 L12.5705,1.18 Z M12.6475,1.14775 C12.695,1.29275 12.750375,1.398625 12.81375,1.465875 C12.8775,1.532625 12.9365,1.553375 12.99125,1.528375 C13.04675,1.50275 13.0785,1.439625 13.086625,1.33875 C13.095125,1.23825 13.074125,1.110375 13.02325,0.955625 C12.991125,0.857625 12.9555,0.775625 12.916125,0.710125 C12.876875,0.643875 12.835875,0.597625 12.793,0.571375 C12.7505,0.5445 12.7105,0.539375 12.67375,0.556375 C12.621625,0.580125 12.589375,0.63975 12.577,0.73475 C12.5645,0.829125 12.58825,0.967 12.6475,1.147875 L12.6475,1.14775 Z M11.53375,2.3785 L11.13975,1.175375 L11.38725,1.061875 C11.436875,1.039125 11.47825,1.032625 11.511375,1.042625 C11.544375,1.052375 11.577625,1.08075 11.610875,1.128375 C11.644375,1.176125 11.67175,1.232875 11.693375,1.299125 C11.7215,1.3845 11.732125,1.46225 11.725875,1.532875 C11.719375,1.602875 11.691875,1.658125 11.643625,1.698625 C11.669875,1.709875 11.691125,1.723125 11.70775,1.738 C11.743375,1.770875 11.7815,1.814875 11.8215,1.87 L12.025875,2.152875 L11.933,2.195375 L11.77725,1.979125 C11.731875,1.916625 11.696,1.869625 11.6695,1.837625 C11.64325,1.805875 11.621625,1.78475 11.6055,1.774625 C11.5925541,1.76547858 11.577503,1.75975916 11.56175,1.758 C11.55175,1.758 11.537625,1.76225 11.5185,1.771 L11.432875,1.81025 L11.608125,2.344875 L11.534375,2.378625 L11.53375,2.3785 Z M11.3875,1.6725 L11.54625,1.59975 C11.58,1.58425 11.604,1.5645 11.61825,1.541 C11.63225,1.517 11.63875,1.4865 11.638,1.449125 C11.6366249,1.4099143 11.6296372,1.37110306 11.61725,1.333875 C11.5985,1.27725 11.57375,1.234875 11.54225,1.207 C11.511375,1.179 11.475125,1.1745 11.43375,1.1935 L11.257125,1.27475 L11.387625,1.672625 L11.3875,1.6725 Z M10.69025,2.0805 C10.625,1.881125 10.5985,1.713375 10.6115,1.578 C10.624,1.44175 10.66975,1.355875 10.748375,1.31975 C10.799875,1.296 10.855,1.30125 10.91375,1.335375 C10.9725,1.3695 11.02825,1.429125 11.08125,1.5145 C11.13375,1.599125 11.18,1.7015 11.219375,1.822 C11.259375,1.943875 11.28375,2.05825 11.2925,2.165125 C11.30125,2.27175 11.2925,2.359875 11.267125,2.428875 C11.241375,2.49725 11.204125,2.542375 11.155875,2.564625 C11.103125,2.58875 11.047375,2.583 10.988,2.547125 C10.92875,2.51175 10.873,2.451375 10.82075,2.3665 C10.76825,2.28175 10.724875,2.1865 10.69025,2.08075 L10.69025,2.0805 Z M10.767125,2.048 C10.814625,2.193 10.870125,2.29925 10.933625,2.36625 C10.997125,2.433 11.056125,2.45375 11.110625,2.42875 C11.16625,2.40325 11.198125,2.34 11.20625,2.239125 C11.215,2.138625 11.19375,2.01075 11.143,1.856 C11.111,1.758 11.075125,1.676 11.035875,1.6105 C10.996625,1.54425 10.955625,1.498 10.912875,1.47175 C10.870375,1.44475 10.830375,1.439625 10.793625,1.4565 C10.741125,1.4805 10.709,1.54025 10.696625,1.635 C10.684375,1.7295 10.707875,1.86725 10.767,2.048125 L10.767125,2.048 Z M6.4905,3.411 L6.63875,2.14475 L6.93075,2.19275 C6.990375,2.2025 7.0365,2.22325 7.06925,2.25525 C7.102375,2.2865 7.12575,2.33025 7.13975,2.387125 C7.154125,2.443625 7.157875,2.500875 7.151,2.559 C7.14539592,2.61083423 7.13013276,2.66116025 7.106,2.707375 C7.08450142,2.7497403 7.05148696,2.78518102 7.01075,2.809625 C7.055125,2.839875 7.087,2.883875 7.10575,2.942125 C7.12475,3.000375 7.13,3.066625 7.121375,3.14025 C7.11545423,3.19608339 7.10112562,3.25070067 7.078875,3.30225 C7.057625,3.350125 7.033875,3.386375 7.008125,3.410125 C6.9820035,3.43432617 6.94997216,3.45122561 6.91525,3.459125 C6.87975,3.467375 6.837125,3.467625 6.7875,3.4595 L6.49075,3.41075 L6.4905,3.411 Z M6.67925,2.6935 L6.848,2.72125 C6.8935,2.72875 6.92675,2.729125 6.94775,2.723 C6.97589573,2.71421724 6.99960504,2.69498139 7.014,2.66925 C7.031125,2.64225 7.042125,2.6065 7.04725,2.562125 C7.05225,2.520125 7.050375,2.482125 7.041625,2.448625 C7.032875,2.414125 7.017875,2.389375 6.99625,2.374125 C6.974625,2.35825 6.93575,2.34575 6.88,2.336625 L6.72425,2.311 L6.67925,2.6935 L6.67925,2.6935 Z M6.611,3.2785 L6.80475,3.310125 C6.838125,3.31575 6.86175,3.317625 6.87575,3.315875 C6.90025,3.312625 6.921375,3.304375 6.93925,3.291125 C6.957125,3.277375 6.973,3.256125 6.98675,3.227375 C7.0005,3.198125 7.009875,3.163125 7.014625,3.123 C7.020125,3.0755 7.0175,3.033625 7.00675,2.99675 C6.996,2.959 6.978,2.931125 6.953,2.913 C6.928625,2.89425 6.89175,2.881 6.842,2.873 L6.662,2.843375 L6.611,3.278375 L6.611,3.2785 Z M7.40625,3.565625 L7.40625,2.28725 L7.755,2.28725 C7.82475,2.28725 7.878125,2.298875 7.914625,2.32225 C7.950875,2.34475 7.98025,2.385125 8.002125,2.4435 C8.023875,2.5015 8.034625,2.565625 8.034625,2.636 C8.034625,2.72675 8.016625,2.803125 7.9805,2.8655 C7.94425,2.9275 7.88875,2.967 7.81325,2.984 C7.84075,3.0055 7.86175,3.0265 7.876,3.0475 C7.906375,3.092875 7.935125,3.149625 7.96225,3.2175 L8.099,3.565625 L7.96825,3.565625 L7.864125,3.299625 C7.84110861,3.24005054 7.81609446,3.1812673 7.789125,3.123375 C7.769375,3.08275 7.751625,3.054125 7.736,3.038 C7.7230208,3.02329743 7.70692014,3.01168104 7.688875,3.004 C7.677125,2.99975 7.657875,2.99775 7.631,2.99775 L7.510375,2.99775 L7.510375,3.565625 L7.406375,3.565625 L7.40625,3.565625 Z M7.51025,2.8515 L7.734,2.8515 C7.7815,2.8515 7.818625,2.843375 7.84525,2.82775 C7.87225,2.8115 7.8925,2.786125 7.9065,2.75125 C7.92065979,2.71449233 7.9277425,2.67538897 7.927375,2.636 C7.927375,2.57575 7.913625,2.526 7.886625,2.487 C7.85975,2.448 7.817125,2.4285 7.759125,2.4285 L7.510125,2.4285 L7.510125,2.8515 L7.51025,2.8515 Z M8.316875,3.531625 L8.425625,2.210625 L8.536125,2.187375 L9.041125,3.379625 L8.9245,3.404125 L8.777,3.041625 L8.4535,3.1095 L8.425375,3.50875 L8.316625,3.531625 L8.316875,3.531625 Z M8.462875,2.967875 L8.725375,2.912875 L8.59225,2.581375 C8.55872705,2.4990381 8.52746533,2.41579857 8.4985,2.33175 C8.500625,2.414625 8.4985,2.49775 8.492625,2.580875 L8.463,2.968 L8.462875,2.967875 Z M3.4095,2.28 L3.867,1.10875 L4.07075,1.220375 C4.112375,1.243125 4.14075,1.273375 4.1565,1.311 C4.1725,1.34825 4.17775,1.395375 4.17275,1.4525 C4.1678334,1.50940094 4.15478397,1.56530304 4.134,1.6185 C4.114375,1.6685 4.089625,1.71225 4.05975,1.7495 C4.029875,1.78675 3.996875,1.812 3.961,1.8255 C3.9855,1.86425 3.997,1.91325 3.995,1.973 C3.993125,2.032625 3.97875,2.09675 3.95225,2.164875 C3.931,2.2195 3.9055,2.267625 3.876,2.30925 C3.84725,2.35025 3.81975,2.37925 3.794,2.396125 C3.76965619,2.41265764 3.74092689,2.4215376 3.7115,2.421625 C3.68275,2.421625 3.651125,2.412125 3.6165,2.39325 L3.4095,2.279875 L3.4095,2.28 Z M3.746625,1.64025 L3.864125,1.7045 C3.896,1.722 3.920625,1.729875 3.937875,1.728625 C3.96075,1.72675 3.98225,1.714625 4.001875,1.692375 C4.021875,1.670625 4.04,1.639 4.056,1.598 C4.071,1.55925 4.080125,1.522625 4.083,1.48875 C4.086,1.45425 4.0815,1.42725 4.069625,1.407875 C4.057875,1.387875 4.0325,1.36725 3.993375,1.345875 L3.884875,1.2865 L3.7465,1.64025 L3.746625,1.64025 Z M3.535375,2.181 L3.670625,2.255 C3.693875,2.26775 3.710875,2.27475 3.721625,2.27625 C3.7401495,2.27889569 3.75903718,2.27566031 3.775625,2.267 C3.792625,2.25825 3.81025,2.2415 3.828375,2.21725 C3.84675,2.1925 3.863375,2.161375 3.87775,2.124125 C3.8937731,2.08529369 3.90347915,2.04414851 3.9065,2.00225 C3.909,1.964 3.903375,1.9335 3.88975,1.910625 C3.87675,1.88725 3.852875,1.86625 3.81825,1.847375 L3.692625,1.778375 L3.5355,2.180875 L3.535375,2.181 Z" fill="#000000"></path>
                        </g>
                        <path d="M54.95884,26.3694225 L54.95884,31.4651787 C54.95884,34.8623176 59.4677147,36.560935 59.4677147,36.560935 C59.4677147,36.560935 63.9765894,34.8623656 63.9765894,31.4651787 L63.9765894,26.3694225 L54.9586364,26.3694225 L54.95884,26.3694225 Z" id="Shape" stroke="#000000" stroke-width="0.1" fill="#00DAEC"></path>
                        <path d="M54.95884,26.3694225 L54.95884,31.4651787 C54.9585694,31.8702442 55.0238956,32.2729794 55.1525654,32.6594936 L59.4677147,30.615918 L59.4677147,26.3694225 L54.95884,26.3694225 L54.95884,26.3694225 Z" id="Shape" stroke="#000000" stroke-width="0.1" fill="#FFFFFF"></path>
                        <path d="M59.4682861,26.3694225 L59.4682861,31.4651787 C59.4680155,31.8702442 59.5333417,32.2729794 59.6620115,32.6594936 L63.9771608,30.615918 L63.9771608,26.3694225 L59.4682861,26.3694225 L59.4682861,26.3694225 Z" id="Shape" stroke="#000000" stroke-width="0.1" fill="#FFF300" transform="translate(61.722723, 29.514458) scale(-1, 1) translate(-61.722723, -29.514458) "></path>
                        <g transform="translate(55.284600, 27.040397)" stroke="#000000" stroke-width="0.1">
                            <path d="M0.649976444,0.952761995 C0.904169226,0.748472323 1.03730625,0.824995085 1.26271922,1.05923442 C1.58634461,1.39633986 2.69709278,3.08066493 2.87050072,3.22368143 C3.04390866,3.36669794 3.01769785,3.00324917 3.22960617,3.17600926 C3.33486601,3.3040166 2.8672721,3.7607833 2.7527083,3.67642966 C2.53010735,3.50394433 2.88858791,3.49178587 2.74038401,3.34516304 C2.56940621,3.16886531 0.962388469,1.95425536 0.647615735,1.60828867 C0.442095212,1.38236106 0.428416988,1.12847584 0.649941727,0.952693303 L0.649976444,0.952761995 Z" id="Shape" fill="#923D09" transform="translate(1.866766, 2.260636) rotate(20.369235) translate(-1.866766, -2.260636) "></path>
                            <rect id="Rectangle-path" fill="#AF8000" transform="translate(1.712726, 2.658488) rotate(40.920734) translate(-1.712726, -2.658488) " x="1.45296554" y="1.07535777" width="0.519480519" height="3.16626039" rx="0.25974026"></rect>
                            <polygon id="Shape" fill="#B0B0D4" transform="translate(2.746818, 1.011592) rotate(33.779056) translate(-2.746818, -1.011592) " points="1.99921303 0.559363371 3.49442254 0.559363371 3.49442254 1.46381974 1.99921303 1.46381974"></polygon>
                        </g>
                        <g transform="translate(59.509300, 27.088517)" stroke="#000000" stroke-width="0.1">
                            <path d="M4.2304008,3.89666332 C4.4790473,3.79575488 2.8391511,2.18994451 2.5107443,1.41148745 C2.1823375,0.632982446 2.1998471,0.610116259 2.072139,0.245551571 L1.911804,0.310746571 C1.9527785,0.547078446 2.719587,2.4137647 3.4762155,3.3859372 C3.6898937,3.66493345 3.5082825,4.18984907 3.7490395,4.09205657 L4.2304008,3.89666332 L4.2304008,3.89666332 Z" id="Shape" fill="#AF8000"></path>
                            <path d="M2.0129932,0.300535884 L0.6961084,0.419660571 C0.6961084,0.419660571 0.4502614,0.616539884 0.5651427,1.02678901 C0.6799222,1.43703813 1.0214612,1.59686176 1.0214612,1.59686176 L2.1752624,0.755223071 L2.0129932,0.300487946 L2.0129932,0.300535884 Z" id="Shape" fill="#808080"></path>
                            <rect id="Rectangle-path" fill="#808080" transform="translate(2.180016, 0.529307) rotate(-18.580000) translate(-2.180016, -0.529307) " x="1.92026811" y="0.063641939" width="0.519480519" height="0.93132975" rx="0.25974026"></rect>
                            <path d="M0.82501022,2.71233128 C0.82501022,2.97423645 0.708834818,3.18652427 0.565306725,3.18652427 C0.42192569,3.18652427 0.305529701,2.97423645 0.305529701,2.71233128 C0.305529701,2.4504261 0.421852161,2.23813828 0.565306725,2.23813828 C0.708761289,2.23813828 0.82501022,2.4504261 0.82501022,2.71233128 L0.82501022,2.71233128 Z" id="Shape" fill="#CF0000" transform="translate(0.565287, 2.712332) rotate(-43.874391) translate(-0.565287, -2.712332) "></path>
                            <path d="M3.90772765,0.939243615 C3.90772765,1.20434601 3.79155225,1.41922534 3.64802416,1.41922534 C3.50464312,1.41922534 3.38824713,1.20434601 3.38824713,0.939243615 C3.38824713,0.67414122 3.50456959,0.459261887 3.64802416,0.459261887 C3.79147872,0.459261887 3.90772765,0.67414122 3.90772765,0.939243615 L3.90772765,0.939243615 Z" id="Shape" fill="#CF0000" transform="translate(3.647990, 0.939244) rotate(162.359549) translate(-3.647990, -0.939244) "></path>
                            <polygon id="Shape" fill="#B0B0D4" transform="translate(2.393929, 2.354317) rotate(-30.796714) translate(-2.393929, -2.354317) " points="0.386738291 1.92775897 4.40111877 1.92775897 4.40111877 2.78087576 0.386789191 2.78087576"></polygon>
                        </g>
                        <path d="M56.664005,34.8636632 L57.0933638,34.4770591 C57.0933638,34.4770591 57.1792841,34.9602459 57.4368994,34.9602459 C57.6945146,34.9602459 57.8662581,34.5415205 57.8662581,34.5415205 C57.8662581,34.5415205 57.8662581,34.9603006 58.1525621,34.9603006 C58.4388661,34.9603006 58.6678413,34.5415205 58.6678413,34.5737511 C58.6678413,34.6059271 58.6964328,34.9603006 58.9254565,34.9603006 C59.1544803,34.9603006 59.4407356,34.6059271 59.4407356,34.6059271 C59.4407356,34.6059271 59.4694244,35.024762 59.726991,34.9925313 C59.9847035,34.9602459 60.0705266,34.5415205 60.0991181,34.5737511 C60.1278069,34.6059271 60.2994531,34.9925313 60.4998854,34.9603006 C60.7003176,34.9280699 60.9866216,34.6059271 60.9866216,34.6059271 C60.9866216,34.6059271 61.0438046,34.9925313 61.2728284,34.9925313 C61.5018521,34.9925313 61.5877239,34.6381578 61.5877239,34.6381578 C61.5877239,34.6381578 61.7021385,34.9280152 61.9025221,34.9280152 C62.1029058,34.9280152 62.4178013,34.6058724 62.4178013,34.6058724" id="Shape" stroke="#0072FF" stroke-width="0.1"></path>
                        <path d="M57.322255,35.3510909 C57.482081,35.2803145 57.611876,35.3611871 57.8016312,34.9568239 C57.8016312,35.1690502 57.9515317,35.4420598 58.2211999,35.4420598 C58.4908681,35.4420598 58.6707487,35.0478442 58.6707487,35.0478442 C58.6707487,35.0478442 58.6707487,35.4420598 58.970397,35.4420598 C59.2700453,35.4420598 59.5097334,35.0478442 59.5097334,35.0781844 C59.5097334,35.108473 59.5396626,35.4420598 59.7794016,35.4420598 C60.0191406,35.4420598 60.3187889,35.108473 60.3187889,35.108473 C60.3187889,35.108473 60.3488199,35.50274 60.6184881,35.4723999 C60.8882581,35.4420082 60.9780966,35.0478442 61.0080258,35.0781844 C61.0380568,35.108473 61.2178356,35.4723999 61.4275945,35.4420598 C61.5773932,35.4116681 61.9371035,35.0781328 61.9371035,35.0781328" id="Shape" stroke="#0072FF" stroke-width="0.1"></path>
                        <g transform="translate(57.000000, 31.375000)" id="Shape">
                            <polygon stroke="#000000" stroke-width="0.1" fill="#FFFFFF" points="3.862208 1.443665 3.862208 2.117195 4.4538314 2.117195 4.2408518 1.443665 3.8621678 1.443665"></polygon>
                            <path d="M4.6685,1.801625 C4.64475,1.822875 3.72175,2.26475 2.51475,2.26475 C1.30775,2.26475 0.834125,2.1385 0.716,2.05425 C0.5975,1.970125 0.4555,1.80175 0.3135,1.80175 C0.171375,1.80175 0.053125,1.907 0.053125,1.907 C0.053125,1.907 0.28975,2.012 0.455625,2.13825 C0.621125,2.26475 0.6685,2.49625 0.6685,2.49625 L4.573875,2.538375 C4.573875,2.538375 4.550375,2.30675 4.550375,2.1805 C4.550375,2.05425 4.692375,1.864875 4.668625,1.80175 L4.6685,1.801625 Z" fill="#000000"></path>
                            <path d="M1.260375,0.30725 L1.355125,0.30725 L1.355125,2.26475 L1.2605,2.26475 L1.260375,0.30725 Z M2.5385,0.0545 L2.63325,0.0545 L2.63325,2.2855 L2.5385,2.2855 L2.5385,0.0545 Z M3.792875,0.4335 L3.887625,0.4335 L3.887625,2.26475 L3.793,2.26475 L3.792875,0.4335 Z" fill="#000000"></path>
                            <polygon stroke="#000000" stroke-width="0.1" fill="#FFFFFF" points="3.436364 0.5593525 4.193732 0.5593525 4.193732 1.07659388 3.436364 1.07659388"></polygon>
                            <polygon stroke="#000000" stroke-width="0.1" fill="#FFFFFF" points="3.388928 0.8539325 4.2645644 0.8539325 4.2645644 1.37117388 3.388928 1.37117388"></polygon>
                            <polygon stroke="#000000" stroke-width="0.1" fill="#FFFFFF" points="3.341492 1.14887 4.3117994 1.14887 4.3117994 1.66611138 3.341492 1.66611138"></polygon>
                            <polygon stroke="#000000" stroke-width="0.1" fill="#FFFFFF" points="2.113784 0.285865 3.0720314 0.285865 3.0720314 0.803106379 2.113784 0.803106379"></polygon>
                            <polygon stroke="#000000" stroke-width="0.1" fill="#FFFFFF" points="2.053886 0.7037825 3.161798 0.7037825 3.161798 1.22102388 2.053886 1.22102388"></polygon>
                            <polygon stroke="#000000" stroke-width="0.1" fill="#FFFFFF" points="1.993988 1.1217 3.221696 1.1217 3.221696 1.63894138 1.993988 1.63894138"></polygon>
                            <polygon stroke="#000000" stroke-width="0.1" fill="#FFFFFF" points="1.874192 1.485635 3.341492 1.485635 3.341492 2.03286025 1.874192 2.03286025"></polygon>
                            <polygon stroke="#000000" stroke-width="0.1" fill="#FFFFFF" points="0.9914 0.5593525 1.6250726 0.5593525 1.6250726 1.07659388 0.9914 1.07659388"></polygon>
                            <polygon stroke="#000000" stroke-width="0.1" fill="#FFFFFF" points="0.951602 0.9068425 1.6842872 0.9068425 1.6842872 1.42408388 0.951602 1.42408388"></polygon>
                            <polygon stroke="#000000" stroke-width="0.1" fill="#FFFFFF" points="0.912206 1.2543325 1.7241254 1.2543325 1.7241254 1.77157388 0.912206 1.77157388"></polygon>
                            <polygon stroke="#000000" stroke-width="0.1" fill="#FFFFFF" points="0.833012 1.5567775 1.8033194 1.5567775 1.8033194 2.07401888 0.833012 2.07401888"></polygon>
                            <polygon stroke="#000000" stroke-width="0.1" fill="#FFFFFF" points="0.25775 1.8156075 0.6547652 1.8156075 1.0807646 0.622487"></polygon>
                            <polygon fill="#000000" points="1.28175 0.32875 1.36925 0.36725 0.22075 1.94825 0.13325 1.909875"></polygon>
                        </g>
                        <path d="M56.124024,34.2710382 L56.5486366,33.8844341 C56.5486366,33.8844341 56.6336072,34.3676209 56.8883748,34.3676209 C57.1431424,34.3676209 57.3129874,33.9488955 57.3129874,33.9488955 C57.3129874,33.9488955 57.3129874,34.3676756 57.5961266,34.3676756 C57.8792658,34.3676756 58.1057099,33.9488955 58.1057099,33.9811261 C58.1057099,34.0133021 58.1339853,34.3676756 58.3604774,34.3676756 C58.5869696,34.3676756 58.8700607,34.0133021 58.8700607,34.0133021 C58.8700607,34.0133021 58.8984323,34.432137 59.1531518,34.3999063 C59.4080155,34.3676209 59.49289,33.9488955 59.5211654,33.9811261 C59.5495371,34.0133021 59.7192859,34.3999063 59.9175026,34.3676756 C60.1157193,34.3354449 60.3988585,34.0133021 60.3988585,34.0133021 C60.3988585,34.0133021 60.4554094,34.3999063 60.6819015,34.3999063 C60.9083936,34.3999063 60.9933162,34.0455328 60.9933162,34.0455328 C60.9933162,34.0455328 61.106466,34.3353902 61.3046346,34.3353902 C61.5028032,34.3353902 61.6443728,33.9488407 61.6443728,33.9488407 C61.6443728,33.9488407 61.7009237,34.3032142 61.8424933,34.3032142 C61.9840148,34.3032142 62.153908,33.948786 62.153908,33.948786 C62.153908,33.948786 62.210507,34.3997969 62.3520285,34.3675662 C62.4935981,34.3352807 62.5502451,33.9165553 62.5785206,33.948786 C62.6068922,33.9810714 62.8050127,34.3353355 62.7766411,34.3353355" id="Shape" stroke="#0072FF" stroke-width="0.1"></path>
                    </g>
                </g>
            </g>
        </g>
    </g>
</svg>