<?xml version="1.0" encoding="UTF-8" standalone="no"?>
<svg width="122px" height="60px" viewBox="0 0 122 60" version="1.1" xmlns="http://www.w3.org/2000/svg" xmlns:xlink="http://www.w3.org/1999/xlink">
    <!-- Generator: Sketch 3.8.2 (29753) - http://www.bohemiancoding.com/sketch -->
    <title>cw</title>
    <desc>Created with Sketch.</desc>
    <defs></defs>
    <g id="Page-1" stroke="none" stroke-width="1" fill="none" fill-rule="evenodd">
        <g id="cw">
            <g id="Clipped">
                <g>
                    <g id="Group">
                        <polygon id="Shape" fill="#002B7F" points="0 0 122 0 122 60 0 60"></polygon>
                        <polygon id="Shape" fill="#F9E814" points="0 37.0125 122 37.0125 122 44.5125 0 44.5125"></polygon>
                        <g id="b-link" transform="translate(5.144032, 4.935386)" fill="#FFFFFF">
                            <polygon id="b" points="4.72192159 0 5.83184139 3.40541603 9.40824961 3.40541603 6.51752517 5.52763181 7.62744496 8.93304784 4.72192159 6.82563821 1.82133119 8.93304784 2.93125099 5.51776104 0.035593567 3.40541603 3.6120018 3.40541603"></polygon>
                        </g>
                        <g id="b-link" transform="translate(13.460494, 13.162570)" fill="#FFFFFF">
                            <polygon id="b" points="6.27372538 0 7.75379185 4.54108676 12.5228949 4.54108676 8.66814403 7.37103938 10.1482105 11.9121261 6.27372538 9.10191737 2.40581833 11.9121261 3.88588481 7.3578768 0.0245558342 4.54108676 4.79365891 4.54108676"></polygon>
                        </g>
                    </g>
                </g>
            </g>
        </g>
    </g>
</svg>