<?xml version="1.0" encoding="UTF-8" standalone="no"?>
<svg width="122px" height="60px" viewBox="0 0 122 60" version="1.1" xmlns="http://www.w3.org/2000/svg" xmlns:xlink="http://www.w3.org/1999/xlink">
    <!-- Generator: Sketch 3.8.2 (29753) - http://www.bohemiancoding.com/sketch -->
    <title>fo</title>
    <desc>Created with Sketch.</desc>
    <defs></defs>
    <g id="Page-1" stroke="none" stroke-width="1" fill="none" fill-rule="evenodd">
        <g id="fo">
            <g id="Shape">
                <polygon fill="#FFFFFF" points="2.61138449e-15 0 122 0 122 60 5.22276898e-15 60"></polygon>
                <polygon fill="#003897" points="23.2375 23.33375 23.2375 0 36.51625 0 36.51625 23.33375 122 23.3337498 122 36.6674995 36.51625 36.6675 36.51625 60.00125 23.2375 60.00125 23.2375 36.6675 3.55271368e-15 36.6675 3.55271368e-15 23.33375"></polygon>
                <polygon fill="#D72828" points="26.55625 26.66625 26.55625 0 33.195375 0 33.195375 26.66625 122 26.6662502 122 33.3328743 33.195375 33.332875 33.195375 59.999125 26.55625 59.999125 26.55625 33.332875 1.77635684e-15 33.332875 1.77635684e-15 26.66625"></polygon>
            </g>
        </g>
    </g>
</svg>