<?xml version="1.0" encoding="UTF-8" standalone="no"?>
<svg width="122px" height="60px" viewBox="0 0 122 60" version="1.1" xmlns="http://www.w3.org/2000/svg" xmlns:xlink="http://www.w3.org/1999/xlink">
    <!-- Generator: Sketch 3.8.2 (29753) - http://www.bohemiancoding.com/sketch -->
    <title>mr</title>
    <desc>Created with Sketch.</desc>
    <defs></defs>
    <g id="Page-1" stroke="none" stroke-width="1" fill="none" fill-rule="evenodd">
        <g id="mr">
            <g id="Group">
                <g>
                    <polygon id="Shape" fill="#006233" points="0 0 122 0 122 60 0 60"></polygon>
                    <circle id="Oval" fill="#FFC400" cx="61" cy="22.5" r="19.375"></circle>
                    <path d="M51.428125,1.402 C45.7456358,4.77562379 42.2587118,10.8915248 42.25,17.5 C42.25,27.8553391 50.6446609,36.25 61,36.25 C65.9728092,36.25 70.7419451,34.2745592 74.2582521,30.7582521 C77.7745592,27.2419451 79.75,22.4728092 79.75,17.5 C79.7410786,10.8913219 76.2537483,4.77537477 70.570875,1.402 L51.428125,1.402 L51.428125,1.402 Z" id="Shape" fill="#006233"></path>
                    <g id="b" transform="translate(58.500000, 10.000000)" fill="#FFC400">
                        <polyline id="a" points="2.5 0 0.1825 7.133125 3.74875 8.291875"></polyline>
                        <g id="a-link" transform="translate(3.125000, 4.375000) scale(-1, 1) translate(-3.125000, -4.375000) translate(1.250000, 0.000000)">
                            <polyline id="a" points="2.5 0 0.1825 7.133125 3.74875 8.291875"></polyline>
                        </g>
                    </g>
                    <g id="b-link" transform="translate(63.972052, 16.534322) rotate(72.000000) translate(-63.972052, -16.534322) translate(61.472052, 12.159322)" fill="#FFC400">
                        <g id="b">
                            <polyline id="a" points="2.5 0 0.1825 7.133125 3.74875 8.291875"></polyline>
                            <g id="a-link" transform="translate(3.125000, 4.375000) scale(-1, 1) translate(-3.125000, -4.375000) translate(1.250000, 0.000000)">
                                <polyline id="a" points="2.5 0 0.1825 7.133125 3.74875 8.291875"></polyline>
                            </g>
                        </g>
                    </g>
                    <g id="b-link" transform="translate(62.836829, 20.028178) rotate(144.000000) translate(-62.836829, -20.028178) translate(60.336829, 15.653178)" fill="#FFC400">
                        <g id="b">
                            <polyline id="a" points="2.5 0 0.1825 7.133125 3.74875 8.291875"></polyline>
                            <g id="a-link" transform="translate(3.125000, 4.375000) scale(-1, 1) translate(-3.125000, -4.375000) translate(1.250000, 0.000000)">
                                <polyline id="a" points="2.5 0 0.1825 7.133125 3.74875 8.291875"></polyline>
                            </g>
                        </g>
                    </g>
                    <g id="b-link" transform="translate(59.163171, 20.028178) rotate(216.000000) translate(-59.163171, -20.028178) translate(56.663171, 15.653178)" fill="#FFC400">
                        <g id="b">
                            <polyline id="a" points="2.5 0 0.1825 7.133125 3.74875 8.291875"></polyline>
                            <g id="a-link" transform="translate(3.125000, 4.375000) scale(-1, 1) translate(-3.125000, -4.375000) translate(1.250000, 0.000000)">
                                <polyline id="a" points="2.5 0 0.1825 7.133125 3.74875 8.291875"></polyline>
                            </g>
                        </g>
                    </g>
                    <g id="b-link" transform="translate(58.027948, 16.534322) rotate(-72.000000) translate(-58.027948, -16.534322) translate(55.527948, 12.159322)" fill="#FFC400">
                        <g id="b">
                            <polyline id="a" points="2.5 0 0.1825 7.133125 3.74875 8.291875"></polyline>
                            <g id="a-link" transform="translate(3.125000, 4.375000) scale(-1, 1) translate(-3.125000, -4.375000) translate(1.250000, 0.000000)">
                                <polyline id="a" points="2.5 0 0.1825 7.133125 3.74875 8.291875"></polyline>
                            </g>
                        </g>
                    </g>
                </g>
            </g>
        </g>
    </g>
</svg>