<?xml version="1.0" encoding="UTF-8" standalone="no"?>
<svg width="122px" height="60px" viewBox="0 0 122 60" version="1.1" xmlns="http://www.w3.org/2000/svg" xmlns:xlink="http://www.w3.org/1999/xlink">
    <!-- Generator: Sketch 3.8.2 (29753) - http://www.bohemiancoding.com/sketch -->
    <title>hk</title>
    <desc>Created with Sketch.</desc>
    <defs></defs>
    <g id="Page-1" stroke="none" stroke-width="1" fill="none" fill-rule="evenodd">
        <g id="hk">
            <g transform="translate(-1.000000, 0.000000)" id="Clipped">
                <g>
                    <g id="Group" transform="translate(0.809527, 0.000000)">
                        <polygon id="Shape" fill="#BA0000" points="122.190473 60 0.190472561 60 0.190472561 0 122.190473 0"></polygon>
                        <path d="M60.1140256,28.733736 C60.1140256,28.733736 54.1503811,26.1565436 55.0061098,19.4786398 C55.834689,16.2640485 57.297873,14.0749539 59.9484715,12.8834112 C61.1907626,12.4954293 62.4610119,12.3291513 63.7586418,12.2182993 C63.4178291,12.5415789 63.1328173,12.8649745 62.9855169,13.2713931 C62.7001585,14.0010913 62.9118089,14.7030765 63.289129,15.4049457 C63.7676531,16.2177829 64.0527805,17.058449 64.1449732,18.1484161 C64.3197697,19.6816752 63.6664491,21.1597401 62.4607809,22.0557163 C61.6968983,22.6470814 60.7950733,22.8502327 60.0586868,23.5245049 C59.488201,24.0880411 59.1384926,24.6515773 59.0096769,25.6304605 C58.9911922,27.4961595 59.497559,27.7549688 60.1141411,28.7340839 L60.1140256,28.733736 Z" id="Shape" fill="#FFFFFF"></path>
                        <path id="Shape" stroke="#000000" stroke-width="2.02288" fill="#BA0000"></path>
                        <path d="M59.3588078,28.0403314 C57.0392019,25.9802936 57.2419566,20.7990074 59.0090993,19.0716414" id="Shape" stroke="#BA0000" stroke-width="2.02288"></path>
                        <polyline id="Shape" fill="#BA0000" points="60.4328876 17.9125658 60.8141357 18.5523997 60.1070938 18.2633265 59.5786608 18.8326604 59.6710846 18.0853372 58.9633495 17.7973076 59.7274631 17.6245362 59.818385 16.877097 60.1984778 17.5177426 60.9621293 17.3438117"></polyline>
                        <path d="M60.6207389,28.2918355 C60.6207389,28.2918355 61.3283585,21.8139523 67.9407024,20.6782993 C71.2456612,20.5313857 73.7597036,21.2940148 75.6714895,23.4883273 C76.4051032,24.5669309 76.9356157,25.7370222 77.4214182,26.9497845 C77.0135983,26.7176447 76.6221836,26.5387278 76.1918354,26.5165806 C75.413165,26.4565164 74.8064029,26.8653701 74.2481633,27.4330806 C73.6141361,28.1305436 72.8969276,28.6503651 71.8855804,29.0581752 C70.4761177,29.675398 68.8767242,29.4814071 67.6699007,28.5870543 C66.8831433,28.0272286 66.4251834,27.2214646 65.5672597,26.7123109 C64.863106,26.3298947 64.223649,26.1594424 63.2534303,26.3227056 C61.4705756,26.8516875 61.3726064,27.4133684 60.6205079,28.2919515 L60.6207389,28.2918355 Z" id="Shape" fill="#FFFFFF"></path>
                        <path id="Shape" stroke="#000000" stroke-width="2.02288" fill="#BA0000"></path>
                        <path d="M61.059983,27.363972 C62.342825,24.5344638 67.3378683,23.2107336 69.5012779,24.4001891" id="Shape" stroke="#BA0000" stroke-width="2.02288"></path>
                        <polyline id="Shape" fill="#BA0000" points="71.0228044 25.4269613 70.5248713 25.9800617 70.5930338 25.2170847 69.8958119 24.8768758 70.63474 24.7466595 70.7017473 23.9832187 71.0901582 24.6658396 71.8287397 24.534 71.3298824 25.0864046 71.7194486 25.7682138"></polyline>
                        <path d="M61.0664526,28.7597097 C61.0664526,28.7597097 67.4113452,27.3757993 70.5840225,33.3080033 C71.7724768,36.4066406 71.8504593,39.0415781 70.3845026,41.5578947 C69.5985539,42.5985814 68.6614923,43.4751933 67.6701317,44.3227007 C67.7598983,43.8608561 67.8046083,43.4313627 67.6888476,43.0147401 C67.4982235,42.254662 66.9194196,41.8070798 66.2056769,41.4563191 C65.3454426,41.0741349 64.6263856,40.5567484 63.9200369,39.7239671 C62.8895117,38.5783421 62.5646421,36.9946431 63.0262989,35.562148 C63.3053032,34.6353281 63.9213077,33.9437788 64.1296078,32.9654753 C64.2673192,32.1739737 64.2252664,31.5114128 63.7629164,30.639787 C62.6969236,29.1111661 62.1351026,29.1961604 61.0662216,28.7595938 L61.0664526,28.7597097 Z" id="Shape" fill="#FFFFFF"></path>
                        <path id="Shape" stroke="#000000" stroke-width="2.02288" fill="#BA0000"></path>
                        <path d="M62.0825366,28.8829688 C65.1631367,29.2053207 67.9999691,33.5385197 67.5632667,35.9752919" id="Shape" stroke="#BA0000" stroke-width="2.02288"></path>
                        <polyline id="Shape" fill="#BA0000" points="67.07654 37.7493873 66.3957233 37.4511538 67.1385795 37.2737442 67.2383972 36.5021867 67.5963083 37.1638199 68.3389333 36.9852508 67.8173166 37.5717459 68.1766141 38.2326834 67.496375 37.9335222 66.9756826 38.520713"></polyline>
                        <g transform="translate(47.882431, 29.336349)" id="Shape">
                            <path d="M13.0409954,0.0800082237 C13.0409954,0.0800082237 16.1464345,5.80326316 11.3646591,10.5254877 C8.73543361,12.5407673 6.23768095,13.3555757 3.41967988,12.6501118 C2.20384505,12.1851365 1.10250017,11.5288372 0.0136325076,10.8118939 C0.480372599,10.7686431 0.903673514,10.6910699 1.26944062,10.4626406 C1.94297893,10.0657303 2.20835071,9.3822977 2.34352048,8.59636184 C2.46713729,7.66038158 2.76000514,6.82249836 3.35810253,5.90808553 C4.16392237,4.59374753 5.58724859,3.83598849 7.08682443,3.87854359 C8.05149764,3.88712418 8.88562226,4.28612171 9.87975554,4.21214309 C10.6751777,4.12251069 11.2969587,3.89593668 12.0006502,3.20566283 C13.1631103,1.74962911 12.9239638,1.23212664 13.041342,0.0800082237 L13.0409954,0.0800082237 Z" fill="#FFFFFF"></path>
                            <path stroke="#000000" stroke-width="2.02288" fill="#BA0000"></path>
                            <path d="M13.2085135,1.09344572 C13.7657134,4.15149918 10.4184707,8.10123849 7.96577458,8.36468586" stroke="#BA0000" stroke-width="2.02288"></path>
                            <polyline fill="#BA0000" points="6.13266442 8.39413816 6.22659009 7.65458388 6.60494994 8.32015954 7.37091202 8.19956743 6.83831999 8.73028865 7.21771961 9.39551645 6.51067769 9.05785855 5.97924095 9.58939145 6.07443744 8.84995313 5.36658681 8.51345477"></polyline>
                        </g>
                        <g transform="translate(45.109718, 20.523849)" id="Shape">
                            <path d="M15.1103639,8.7684375 C15.1103639,8.7684375 10.7639045,13.6095148 4.73741193,10.6521094 C1.97012841,8.83256003 0.374316311,6.73889556 0.10120404,3.83703207 C0.133898952,2.53162253 0.384713986,1.27097122 0.696759775,0.00197121711 C0.89258266,0.429377467 1.10608159,0.804372533 1.44238862,1.07477714 C2.03921519,1.58033635 2.76982517,1.60445477 3.55311671,1.47133964 C4.47388862,1.27734868 5.35849973,1.27618914 6.41652096,1.53859293 C7.91933163,1.86477138 9.1042045,2.96018832 9.56262645,4.39395888 C9.87513436,5.30999507 9.77728068,6.23229276 10.1772446,7.14867681 C10.5256822,7.87188158 10.9451707,8.3852097 11.8274712,8.82189227 C13.5821367,9.43876727 13.9890324,9.04046546 15.110826,8.76855345 L15.1103639,8.7684375 Z" fill="#FFFFFF"></path>
                            <path stroke="#000000" stroke-width="2.02288" fill="#BA0000"></path>
                            <path d="M14.2136221,9.26356086 C11.5252454,10.8071398 6.7011862,8.95094901 5.63865932,6.7166324" stroke="#BA0000" stroke-width="2.02288"></path>
                            <polyline fill="#BA0000" points="5.001975 4.99100576 5.72819486 4.83423602 5.22829773 5.41365789 5.59602885 6.09859786 4.92052654 5.77091201 4.42143813 6.35091365 4.50392635 5.56938405 3.8278464 5.24285773 4.55429731 5.08747944 4.63539918 4.30548602"></polyline>
                        </g>
                    </g>
                </g>
            </g>
        </g>
    </g>
</svg>