<?xml version="1.0" encoding="UTF-8" standalone="no"?>
<svg width="122px" height="60px" viewBox="0 0 122 60" version="1.1" xmlns="http://www.w3.org/2000/svg" xmlns:xlink="http://www.w3.org/1999/xlink">
    <!-- Generator: Sketch 3.8.2 (29753) - http://www.bohemiancoding.com/sketch -->
    <title>vu</title>
    <desc>Created with Sketch.</desc>
    <defs></defs>
    <g id="Page-1" stroke="none" stroke-width="1" fill="none" fill-rule="evenodd">
        <g id="vu">
            <g transform="translate(0.000000, -1.000000)" id="Clipped">
                <g>
                    <g id="Group" transform="translate(0.000000, 0.951525)">
                        <g id="Shape">
                            <polygon fill="#000000" points="0 0.0488261162 55.1901169 25.7634299 122 25.7634299 122 34.3350427 55.1901169 34.3350427 0 60.0484745 0 0.048474542"></polygon>
                            <polygon fill="#FFFF00" points="41.690407 31.470765 122 31.470765 122 28.8940127 41.690407 28.8940127 0 2.26541874 0 6.13037109 39.1115305 30.1808034 0 54.2325275 0 58.0975973"></polygon>
                            <polygon fill="#40AA40" points="0 60.0484745 41.690407 33.6174518 122 33.6174518 122 60.0484745 0 60.2448714"></polygon>
                            <polygon fill="#CE0000" points="41.690407 26.7448596 122 26.7448596 122 0.048474542 0 0.117440059"></polygon>
                            <path d="M11.2597112,31.429661 C11.4039158,31.4613698 11.4418767,31.5024738 11.5847885,31.2931956 C11.6154629,31.1878519 11.7050178,31.0404646 11.7829377,30.9098713 C11.8871834,30.7388786 11.932901,30.6702936 12.0309178,30.8002997 C12.094382,30.8746393 12.3470632,30.7375867 12.4518965,30.80946 C12.6139651,30.9171526 12.5165359,30.901533 12.6493405,30.7851499 C12.7512357,30.5681207 12.6614457,30.5937226 12.5177112,30.495073 C12.4167562,30.4257834 12.1590214,30.5685905 12.0581839,30.4994183 C12.0934418,30.2826239 12.1625471,30.2593708 12.2873599,30.2172098 C12.381851,30.2820367 12.6570972,30.167885 12.7421862,30.169764 C12.8622979,30.1948962 12.9692467,30.2081669 13.0070901,30.0318894 C13.0664408,29.9070506 13.0405851,29.9931342 12.992987,29.902353 C12.8921495,29.8331808 12.6344147,29.9759879 12.5334597,29.9066983 C12.402418,29.8075789 12.4240428,29.7707027 12.5005524,29.604525 C12.6030352,29.5482712 12.6793097,29.5755173 12.8060029,29.6542022 C12.9363394,29.7436915 13.1416576,29.5698802 13.2560105,29.5635384 C13.3588459,29.4466856 13.4801329,29.4076955 13.4035059,29.2652407 C13.3606088,29.1570784 13.3284066,29.1448646 13.1872577,29.1169139 C13.0430531,29.0180294 12.8551288,29.1991219 12.8002441,29.0511475 C12.9147146,28.8873186 12.9573766,28.9223157 13.096175,29.0145062 C13.1854948,29.0450406 13.4550998,28.8853221 13.5415991,28.8806245 C13.6699377,28.8435134 13.6077663,28.9878473 13.698379,28.6686452 C13.6669995,28.5303008 13.4347678,28.7535544 13.3037261,28.7175003 C13.1779732,28.7342942 13.0778409,28.6897844 13.0659707,28.554376 C13.0678511,28.3723439 13.1582288,28.3598953 13.2877426,28.3869065 C13.401743,28.4073411 13.6590077,28.2658258 13.754674,28.2678223 C13.8908868,28.3401653 13.9340189,28.3131541 14.0412028,28.1448625 C14.1202979,27.9461539 14.0326234,28.0282445 13.8974683,27.926424 C13.7966309,27.8571344 13.538896,27.9999415 13.437941,27.9307693 C13.4555699,27.8573693 13.4875371,27.7681148 13.5562899,27.7322956 C13.655717,27.7519081 13.741276,27.7474454 13.8664414,27.8251907 C13.9894913,27.8789782 14.1922239,27.641397 14.2976449,27.5617726 C14.2776654,27.4485604 14.0762256,27.6096882 13.9537633,27.5256011 C13.8761961,27.4724007 13.7788844,27.4164993 13.7545565,27.3489712 C13.8240145,27.1507324 13.7901669,27.1605974 13.9809119,27.2247197 C14.0824545,27.1982956 14.2545128,27.1998224 14.1378093,27.0127404 C14.1192402,26.9825583 14.0187553,26.9932453 13.9310808,26.9508494 C13.8253072,26.8782715 13.7236471,26.8052238 13.6116447,26.7715185 C13.5307867,26.7590698 13.4133781,26.7329981 13.3494438,26.7515537 C13.3426273,26.869346 13.3723614,26.9441554 13.3654274,27.08203 C13.4180791,27.1679961 13.5176238,27.17011 13.5384259,27.2006444 C13.4326523,27.2934221 13.3755346,27.2459763 13.2640023,27.2520832 C13.1311977,27.1610671 13.2073547,26.8786238 13.0506923,26.9460344 C13.0867729,27.0289471 13.0737275,27.3423946 13.1409524,27.407339 C13.2119382,27.4560766 13.3023158,27.5036398 13.3185344,27.5691714 C13.2057093,27.7427478 13.1629298,27.7330002 13.0273046,27.6490306 C12.9140094,27.5712853 12.9497374,27.3163229 12.8525432,27.3293588 C12.7331366,27.4194353 12.7311387,27.4153249 12.7558192,27.5426299 C12.7621656,27.7090425 12.6956458,27.9407517 12.8291555,28.0323549 C12.9898138,28.1461544 13.0101458,28.1326488 12.8836877,28.3494431 C12.7966008,28.4549043 12.7477099,28.4356441 12.6478127,28.3873762 C12.5403937,28.3136239 12.5636639,28.0418676 12.4805729,27.952848 C12.3230879,27.858896 12.4142882,27.8624192 12.283129,27.977393 C12.2427,28.1248977 12.2720815,28.1637704 12.3377786,28.2944812 C12.3911355,28.3755148 12.3877273,28.6527908 12.47881,28.6707591 C12.6257177,28.7548462 12.6310064,28.7379348 12.4637667,28.900237 C12.33249,28.9054043 12.2760774,28.941341 12.1753575,28.8221393 C12.0531303,28.7300663 12.1295223,28.4460963 11.9741527,28.4444521 C11.8303007,28.4561961 11.7990387,28.4599542 11.8173728,28.6564314 C11.8421708,28.8293032 11.777884,29.1012944 11.917035,29.2041719 C12.047254,29.2635965 12.1259965,29.259721 12.1717142,29.3388756 C12.1311677,29.3744599 12.0547757,29.4845013 12.0101157,29.5077544 C11.9189154,29.5142136 11.8248945,29.4511483 11.721589,29.4296568 C11.5988917,29.3731681 11.654364,29.263714 11.5562297,29.1963034 C11.4426994,29.2330621 11.4407015,29.074518 11.3805281,29.2355284 C11.4037983,29.3677659 11.3590208,29.5404027 11.4830109,29.6254294 C11.5838483,29.694719 11.6725806,29.8354122 11.7733005,29.9045844 C11.8890638,30.041402 11.8436987,30.0652424 11.7724778,30.2634812 C11.6759888,30.2661823 11.5628112,30.1994764 11.4577428,30.1273682 C11.3569053,30.058196 11.3742992,29.7905501 11.2734618,29.7213779 C11.1862573,29.6356466 11.2115255,29.5624815 11.0761353,29.7458054 C11.0634425,29.8758116 11.0877704,29.8852068 11.1212654,29.9764577 C11.1251437,30.1092824 11.0895333,30.3541449 11.211643,30.4379971 C11.3350455,30.462777 11.4680851,30.5272516 11.5649266,30.5604871 C11.6577723,30.6692366 11.5770318,30.6479799 11.4729036,30.8168588 C11.4074416,30.9859724 11.4067364,31.0159197 11.3037835,31.1003591 C11.2144636,31.2193258 11.1792058,31.2715867 11.2597112,31.429661 L11.2597112,31.429661 Z" fill="#FFFF00"></path>
                            <path d="M14.2110281,31.5736425 C14.2975273,31.4333016 14.3505316,31.4094613 14.215024,31.1741114 C14.1304052,31.0994195 14.030743,30.9455731 13.9417757,30.810517 C13.8261299,30.6316558 13.7812349,30.5556721 13.9398952,30.5036461 C14.0334461,30.4659479 14.0080604,30.1431051 14.1158319,30.0605448 C14.2791933,29.9315956 14.2260714,30.028836 14.1718919,29.8414016 C14.0132316,29.6464511 14.0010088,29.7519123 13.8531609,29.8651245 C13.7493853,29.944514 13.7779442,30.2749903 13.6742861,30.3544972 C13.4890649,30.2303631 13.4952938,30.1478027 13.5062237,29.998419 C13.6034179,29.9240794 13.6080014,29.5864393 13.6436118,29.4969499 C13.7144801,29.3793924 13.7693648,29.2712301 13.6224571,29.1606016 C13.5313743,29.0478591 13.6001271,29.1096326 13.4978794,29.1238429 C13.3941038,29.2032323 13.4226626,29.5337087 13.3190045,29.6132156 C13.1756226,29.7126873 13.1503545,29.6749891 13.0281273,29.5273669 C13.0173149,29.3960689 13.0727872,29.3260746 13.195367,29.2231971 C13.3294644,29.1205545 13.2515445,28.8332962 13.2911508,28.7092794 C13.2247486,28.5534365 13.2370888,28.4092201 13.0758429,28.4336476 C12.9593745,28.4357616 12.9353992,28.4651216 12.853601,28.6037008 C12.7052829,28.7172654 12.7969534,28.9890217 12.6389982,28.9881996 C12.5340473,28.801235 12.5831733,28.7698785 12.7231469,28.6593674 C12.7867286,28.5770419 12.7474748,28.2269531 12.777444,28.1333534 C12.7943678,27.982208 12.9022568,28.1059899 12.6451096,27.8821491 C12.5054885,27.8601878 12.6180785,28.1958315 12.5328721,28.3204354 C12.4983194,28.4606588 12.4174614,28.5492086 12.2884177,28.5076349 C12.1220006,28.4328255 12.1464461,28.3319445 12.2228381,28.2053442 C12.2870073,28.0926017 12.2592712,27.7629475 12.2992301,27.6623013 C12.4199294,27.5466229 12.4122902,27.4900168 12.3004053,27.3090416 C12.1492667,27.1456825 12.1898132,27.2715782 12.0424354,27.3742209 C11.9386598,27.4536103 11.9672187,27.7842041 11.8635606,27.8635936 C11.8031522,27.8154432 11.7338117,27.7460361 11.7284055,27.6586607 C11.7859933,27.561068 11.815845,27.4684078 11.937132,27.3667047 C12.0355014,27.2576029 11.8979958,26.9474437 11.8667338,26.8038145 C11.7547314,26.7798567 11.822544,27.0579548 11.6966735,27.1543731 C11.6167557,27.2154419 11.5268482,27.2963581 11.4550397,27.2951837 C11.3006103,27.1421593 11.2961443,27.1819715 11.4309468,27.0051067 C11.4471654,26.886962 11.516976,26.70493 11.2987299,26.7540199 C11.263472,26.7616535 11.2333853,26.8726344 11.1595789,26.9486181 C11.0507497,27.0318831 10.9430957,27.1106854 10.8676439,27.2160291 C10.8241592,27.2968279 10.753291,27.4109796 10.7449466,27.4861412 C10.8504851,27.540516 10.9309905,27.5389893 11.0549806,27.6012325 C11.1548779,27.5798584 11.1963646,27.4751019 11.2327977,27.4652369 C11.2759298,27.6146207 11.2095275,27.6561944 11.1708614,27.7769228 C11.034296,27.8814445 10.8053551,27.6877858 10.8046499,27.8809747 C10.8952626,27.8758073 11.1780305,28.0150913 11.2645298,27.969642 C11.337396,27.9138579 11.4170787,27.8368172 11.4838336,27.8457427 C11.5984216,28.0350561 11.5723308,28.0765124 11.4412891,28.1867886 C11.3247032,28.2760431 11.1046942,28.1362894 11.0780157,28.2445691 C11.1132736,28.4072236 11.1086901,28.4078108 11.2355008,28.4324732 C11.3908704,28.4922502 11.5772669,28.6553745 11.7145374,28.5502656 C11.8830699,28.4253094 11.878839,28.3982982 12.0275096,28.6190855 C12.0897985,28.7537892 12.0526602,28.7979467 11.9685115,28.8845 C11.8580369,28.9691743 11.6176959,28.8358798 11.5028728,28.888493 C11.3538496,29.0180294 11.3933384,28.9225506 11.4468128,29.1076361 C11.5662194,29.2096915 11.6137,29.1939546 11.759785,29.176456 C11.8555688,29.1522634 12.1088377,29.2667674 12.1617245,29.1772781 C12.2974672,29.0549055 12.2839517,29.0426918 12.366455,29.2848532 C12.3189745,29.4263685 12.3295518,29.5005906 12.179941,29.5597804 C12.0466664,29.652558 11.8161976,29.4581947 11.752851,29.6222585 C11.7064281,29.7796281 11.6974961,29.814273 11.8851854,29.8735802 C12.053953,29.9162109 12.2781929,30.0931931 12.4281563,29.9865575 C12.5345174,29.8721709 12.5622536,29.7870269 12.6532189,29.7702329 C12.66979,29.8274263 12.7404233,29.9524999 12.7439491,30.009106 C12.7137448,30.1085778 12.6183136,30.1831522 12.557435,30.2840332 C12.4567151,30.3918432 12.3782076,30.2890831 12.2772527,30.3663587 C12.2658526,30.5014148 12.119415,30.4403459 12.2434051,30.568473 C12.3742118,30.5966586 12.5148906,30.7131592 12.6424065,30.6154491 C12.7460645,30.536177 12.9107187,30.4983613 13.0143767,30.4189718 C13.1862,30.3508566 13.1899608,30.4086371 13.3438026,30.5634231 C13.3078396,30.6667704 13.2015959,30.7602526 13.0934718,30.8429304 C12.9898138,30.9224374 12.7508831,30.7968939 12.6471075,30.8762834 C12.5335772,30.9345337 12.476577,30.8786322 12.5910475,31.0954266 C12.7054005,31.1608407 12.7238521,31.1388794 12.8209287,31.1397015 C12.9445662,31.188674 13.1552906,31.3243172 13.2808085,31.2282513 C13.3527346,31.107288 13.464972,30.9918444 13.5339599,30.9023551 C13.6708779,30.8471583 13.6191664,30.9245513 13.7329317,31.102473 C13.8622105,31.2394081 13.8894765,31.2522091 13.9261447,31.395251 C13.9998336,31.5373535 14.0337986,31.5958387 14.2110281,31.5736425 L14.2110281,31.5736425 Z" fill="#FFFF00"></path>
                            <path d="M11.5183863,37.0528085 C11.5183863,36.4280273 11.4214272,35.8033637 11.5183863,35.8033637 C17.0197858,35.8033637 18.3949594,32.0551467 18.3949594,29.5561397 C18.3949594,27.0573676 16.483984,24.5585954 12.8936774,24.5585954 C8.76756899,24.5585954 7.39227788,26.9998219 7.39227788,29.5561397 C7.39227788,32.0550293 9.4554496,33.9292552 11.5183863,33.9292552 C14.2692035,33.9292552 14.9568491,33.3044741 17.0197858,30.8057019 C16.3321402,33.9292552 12.8936774,35.1788174 11.5183863,35.1788174 C8.76768652,35.1788174 6.01710429,33.304709 6.01710429,29.5563746 C6.01710429,26.4329388 8.08015848,23.309503 12.89403,23.309503 C17.0201383,23.309503 19.770603,26.4330562 19.770603,29.5563746 C19.770603,33.9294901 16.3322577,37.0529259 11.5183863,37.0529259 L11.5183863,37.0528085 Z" fill="#FFFF00"></path>
                        </g>
                    </g>
                </g>
            </g>
        </g>
    </g>
</svg>