<?xml version="1.0" encoding="UTF-8" standalone="no"?>
<svg width="122px" height="60px" viewBox="0 0 122 60" version="1.1" xmlns="http://www.w3.org/2000/svg" xmlns:xlink="http://www.w3.org/1999/xlink">
    <!-- Generator: Sketch 3.8.2 (29753) - http://www.bohemiancoding.com/sketch -->
    <title>bb</title>
    <desc>Created with Sketch.</desc>
    <defs></defs>
    <g id="Page-1" stroke="none" stroke-width="1" fill="none" fill-rule="evenodd">
        <g id="bb">
            <g id="Group">
                <g>
                    <polygon id="Shape" fill="#00267F" points="0 0 122 0 122 60 0 60"></polygon>
                    <polygon id="Shape" fill="#FFC726" points="40.6666031 0 81.3332063 0 81.3332063 60 40.6666031 60"></polygon>
                    <path d="M60.9561563,9.97600833 C59.6345531,13.59985 58.2874063,17.37185 55.4051563,20.2596917 C56.29995,19.963375 57.8655531,19.6975333 58.8720531,19.723025 L58.8720531,34.9643583 L54.59195,35.603375 C54.43945,35.5880417 54.3885531,35.3478833 54.3885531,35.0207083 C53.9768031,30.2878833 52.8635531,26.311375 51.5825531,22.1968667 C51.4910531,21.6347083 49.8694063,19.4880417 51.1199063,19.8662 C51.2724063,19.8867083 52.94495,20.5715333 52.6805531,20.24455 C50.4031563,17.8730583 47.0737,16.1658833 43.8407,15.6598833 C43.5559063,15.5883917 43.3881563,15.7315667 43.64245,16.063725 C47.9326563,22.7030583 51.5215531,30.5383917 51.4910531,39.8355667 C53.15845,39.8355667 57.1997,38.844075 58.8720531,38.844075 L58.8720531,49.5979167 L60.9817,49.5979167 L61.4645531,19.5650917 L60.9561563,9.97600833 Z" id="a" fill="#000000"></path>
                    <g id="a-link" transform="translate(68.949813, 29.875000) scale(-1, 1) translate(-68.949813, -29.875000) translate(59.449813, 9.875000)" fill="#000000">
                        <path d="M17.4936563,0.101008333 C16.1720531,3.72485 14.8249063,7.49685 11.9426563,10.3846917 C12.83745,10.088375 14.4030531,9.82253333 15.4095531,9.848025 L15.4095531,25.0893583 L11.12945,25.728375 C10.97695,25.7130417 10.9260531,25.4728833 10.9260531,25.1457083 C10.5143031,20.4128833 9.40105313,16.436375 8.12005313,12.3218667 C8.02855313,11.7597083 6.40690625,9.61304167 7.65740625,9.9912 C7.80990625,10.0117083 9.48245,10.6965333 9.21805313,10.36955 C6.94065625,7.99805833 3.6112,6.29088333 0.3782,5.78488333 C0.09340625,5.71339167 -0.07434375,5.85656667 0.17995,6.188725 C4.47015625,12.8280583 8.05905313,20.6633917 8.02855313,29.9605667 C9.69595,29.9605667 13.7372,28.969075 15.4095531,28.969075 L15.4095531,39.7229167 L17.5192,39.7229167 L18.0020531,9.69009167 L17.4936563,0.101008333 Z" id="a"></path>
                    </g>
                </g>
            </g>
        </g>
    </g>
</svg>