<?xml version="1.0" encoding="UTF-8" standalone="no"?>
<svg width="122px" height="60px" viewBox="0 0 122 60" version="1.1" xmlns="http://www.w3.org/2000/svg" xmlns:xlink="http://www.w3.org/1999/xlink">
    <!-- Generator: Sketch 3.8.2 (29753) - http://www.bohemiancoding.com/sketch -->
    <title>ly</title>
    <desc>Created with Sketch.</desc>
    <defs></defs>
    <g id="Page-1" stroke="none" stroke-width="1" fill="none" fill-rule="evenodd">
        <g id="ly">
            <g>
                <rect id="Rectangle-171" fill="#E70013" x="0" y="0" width="122" height="15"></rect>
                <rect id="Rectangle-171-Copy-2" fill="#239E46" x="0" y="45" width="122" height="15"></rect>
                <rect id="Rectangle-171-Copy" fill="#000000" x="0" y="15" width="122" height="30"></rect>
                <path d="M63.2904976,25.10816 C60.6954555,23.2563307 57.1229057,23.652353 54.9964375,26.0275683 C52.8699693,28.4027837 52.8699693,31.9972163 54.9964375,34.3724317 C57.1229057,36.747647 60.6954555,37.1436693 63.2904976,35.29184 C60.4785268,38.1030694 55.920084,38.1026688 53.1086074,35.2909451 C50.2971309,32.4792214 50.2971309,27.9207786 53.1086074,25.1090549 C55.920084,22.2973312 60.4785268,22.2969306 63.2904976,25.10816 L63.2904976,25.10816 Z" id="Shape" fill="#FFFFFF"></path>
                <polygon id="Shape" fill="#FFFFFF" transform="translate(66.793965, 29.670162) rotate(-17.000000) translate(-66.793965, -29.670162) " points="69.9568864 34.5452977 66.8070977 32.2703028 63.6726388 34.567863 64.8384286 30.833302 61.7097951 28.5275362 65.5804992 28.4957396 66.7810368 24.7724612 68.0074309 28.4871237 71.8781349 28.4920471 68.7653424 30.8198653 69.9569886 34.5460157"></polygon>
            </g>
        </g>
    </g>
</svg>