<?xml version="1.0" encoding="UTF-8" standalone="no"?>
<svg width="122px" height="60px" viewBox="0 0 122 60" version="1.1" xmlns="http://www.w3.org/2000/svg" xmlns:xlink="http://www.w3.org/1999/xlink">
    <!-- Generator: Sketch 3.8.2 (29753) - http://www.bohemiancoding.com/sketch -->
    <title>bt</title>
    <desc>Created with Sketch.</desc>
    <defs></defs>
    <g id="Page-1" stroke="none" stroke-width="1" fill="none" fill-rule="evenodd">
        <g id="bt">
            <g>
                <polygon id="Triangle-4" fill="#FFD520" points="0 0 122 0 0 60"></polygon>
                <polygon id="Triangle-4-Copy" fill="#FF4E12" points="122 0 122 60 0 60"></polygon>
                <g id="Group" transform="translate(28.000000, 6.000000)">
                    <g transform="translate(0.737910, 0.375000)" id="Shape">
                        <g transform="translate(0.000000, 8.750000)" stroke="#000000" stroke-width="0.1" fill="#FFFFFF">
                            <path d="M35.3687363,2.634 C34.8707644,2.456875 34.549142,2.7145 34.5653666,3.358375 C34.5812168,4.002375 34.919064,4.372625 35.4170359,4.131125 L35.3687363,2.634 L35.3687363,2.634 Z"></path>
                            <path d="M35.806053,1.428 C35.3913261,1.1 35.0044306,1.240625 34.8129797,1.8555 C34.6216537,2.4705 34.8225897,2.92975 35.3717317,2.861375 L35.806053,1.428125 L35.806053,1.428 Z"></path>
                            <path d="M36.4969735,0.261 C36.1396568,-0.1295 35.7352886,-0.05275 35.4478627,0.5235 C35.1608112,1.09975 35.2856162,1.58525 35.8388768,1.606 L36.4969735,0.261 L36.4969735,0.261 Z M36.0436817,5.934 C35.4330109,6.159375 35.3684867,6.9965 35.7545086,7.5115 C36.140156,8.02675 36.8474259,8.12325 37.2330733,7.5115 L36.0439314,5.933625 L36.0436817,5.934 Z"></path>
                            <path d="M35.3367863,4.163 C34.7580655,3.969875 34.2367551,4.74825 34.1473947,5.45075 C34.0350702,6.336125 32.7811544,6.625875 33.4725741,7.962 C33.6169735,7.108875 34.179844,6.642 34.6295164,6.609875 C35.079688,6.57775 35.754883,6.481125 36.0440562,5.93375 L35.3367863,4.163 L35.3367863,4.163 Z M37.1689236,7.608 C36.4937285,7.769 36.3972543,8.6705 36.879376,9.314375 C37.2921061,9.865625 38.5829641,9.733 38.551014,9.185625 L37.1689236,7.608125 L37.1689236,7.608 Z M39.0819345,13.033 C39.1140094,12.4535 38.1820905,12.228125 37.7319189,12.34075 C37.2818721,12.4535 36.4218409,12.32475 36.2210296,11.84175 C36.0604056,12.228125 36.2934165,12.64675 36.9443994,12.856 C37.4370047,13.014375 37.4266459,13.371 37.2818721,13.532125 C37.6516693,13.5965 38.7445866,13.5965 39.0819345,13.033 L39.0819345,13.033 Z"></path>
                            <path d="M38.5517629,9.331 C37.8927925,9.04125 37.5021529,9.482625 37.2500468,9.9105 C36.8801248,10.538375 35.7390328,9.7335 35.3533853,10.5705 C35.875819,10.345125 36.4074883,10.82575 36.6551014,10.989125 C37.3623713,11.455875 38.7286115,11.311 38.9215601,10.216375 L38.5517629,9.331 L38.5517629,9.331 Z"></path>
                            <path d="M38.9371607,10.103 C38.2781903,10.602 38.021092,11.197625 38.0373167,11.600125 C38.0535413,12.002625 38.6160374,12.887875 39.2267083,12.93625 C39.5804056,12.21175 39.7571295,10.6825 38.9371607,10.103 L38.9371607,10.103 Z M36.205429,13.21 C36.205429,12.9685 36.5590016,12.872 36.7998752,12.9525 C37.041248,13.032875 37.4106708,13.274375 37.2821217,13.532 L36.205429,13.21 L36.205429,13.21 Z M32.5721061,11.89 C32.5080811,11.60025 32.9739782,11.10125 33.6008736,11.374875 C34.2273947,11.648625 34.3081435,12.179875 34.0506708,12.389125 L32.5721061,11.89 L32.5721061,11.89 Z"></path>
                            <path d="M34.0987207,12.421 C34.0504212,12.26 34.5018409,11.9385 35.2722621,12.13125 C36.0435569,12.324375 36.2328861,12.821875 36.2045554,13.20975 L34.0987207,12.421 L34.0987207,12.421 Z M32.4922309,11.89 C32.894103,11.584125 32.7418409,11.0045 32.379532,10.8275 C31.7205616,10.5055 31.9618097,9.6685 31.5437129,9.5075 C31.1259906,9.3465 30.7241186,9.05675 30.7078939,8.767 C30.4990952,9.1695 30.6276443,9.53975 30.9171919,9.79725 C31.2063651,10.054875 30.6921685,11.10125 31.0615913,11.374875 L32.4922309,11.89 L32.4922309,11.89 Z M23.8766927,11.665 C23.53922,11.13375 22.7354758,11.230375 22.3980031,11.600625 C22.0605304,11.970875 22.1087051,12.518125 22.4302028,12.759625 L23.8766927,11.664875 L23.8766927,11.665 Z M25.8056786,10.876 C25.6771295,10.16775 24.8252106,10.08725 24.3591888,10.26425 C23.8930421,10.441375 23.5716693,11.149625 23.8769423,11.66475 L25.8058034,10.876 L25.8056786,10.876 Z"></path>
                            <path d="M27.0916693,10.779 C27.3970671,10.183375 26.8023713,9.298 26.1273011,9.16925 C25.5636817,9.06175 24.8977223,9.064625 24.6808112,8.50925 C24.5441498,8.992125 24.9058346,9.298 25.3236817,9.57175 C25.7415289,9.845375 25.2433073,10.55375 25.9183775,10.956125 L27.0916693,10.779 L27.0916693,10.779 Z"></path>
                            <path d="M27.0277691,10.8 C26.8871139,10.373375 27.1724181,9.805625 27.7498908,9.8455 C28.3273635,9.88525 28.6564743,10.3055 28.4018721,10.831 L27.0277691,10.8 L27.0277691,10.8 Z"></path>
                            <path d="M28.3127613,10.832 C28.2332605,10.38975 28.5953198,9.868 29.1614353,9.9885 C29.7276755,10.109 29.9943838,10.5715 29.6690172,11.056 L28.3127613,10.832 L28.3127613,10.832 Z"></path>
                            <path d="M29.589766,11.035 C29.5323557,10.58925 29.9201248,10.08625 30.4796256,10.234875 C31.0391264,10.383625 31.2824961,10.858875 30.9330421,11.326375 L29.589766,11.035 L29.589766,11.035 Z M19.8909204,18.41 C18.8139782,18.41 18.551014,18.66675 18.396131,19.77825 C18.2033073,21.16275 20.083869,21.32375 19.8909204,18.41 L19.8909204,18.41 Z"></path>
                            <path d="M20.3731669,16.961 C18.7176287,16.333125 17.8176599,18.957125 16.1782215,18.49025 C16.764805,19.424 18.1868331,18.492 18.7176287,18.586875 C19.6177223,18.747875 21.5625585,18.40975 20.3731669,16.961 L20.3731669,16.961 Z M19.2958502,20.551 C18.476131,20.18075 17.5921373,21.436375 17.7528861,21.98375 C17.9569423,22.678875 19.8262715,22.1125 19.2958502,20.551 L19.2958502,20.551 Z M15.4708268,25.96 C15.9208736,26.088375 16.4672699,26.34625 16.3709204,27.215375 C16.2744462,28.084625 14.6351326,29.855375 13.1564431,29.952125 C11.6777535,30.04875 11.1472075,31.835375 9.8775663,31.33625 C11.0669579,31.11125 11.0669579,29.75875 11.9991264,29.3405 C11.3239314,29.098875 10.9703588,30.628375 10.1025897,30.628375 C9.23469579,30.628375 8.81672387,32.012625 7.75588144,31.915875 C6.695039,31.819625 6.58346334,33.60125 4.46102964,33.622625 C2.83769111,33.638375 0.828705148,35.538 0.105335413,34.71725 C1.68049922,34.49175 2.31613105,33.617625 3.25566303,32.656375 C4.76655226,31.111375 6.47026521,31.8035 7.04886115,30.435125 C6.37559981,30.8901887 5.57864544,31.1263269 4.76655226,31.111375 C3.77784711,31.090875 2.69316693,32.688875 1.58402496,31.9805 C2.22702028,31.900125 2.64486739,31.626375 3.3200624,30.918 C4.01123245,30.192625 5.02564743,30.661375 5.8273947,29.920125 C7.08093604,28.760875 8.15787832,29.72675 9.36336973,28.278 C9.02577223,28.117125 8.3025273,28.229625 7.62733229,28.583875 C6.9523869,28.938 6.08449298,28.342125 5.31294852,28.760875 C5.40942278,27.811375 7.20948518,28.354625 8.33460218,27.698375 C9.60449298,26.958 10.6572231,27.175125 11.6617785,27.263875 C10.2634633,27.255875 9.71694228,25.927625 7.78833073,26.313875 C6.94714509,26.482625 6.2774415,25.155125 5.44162246,25.830875 C5.46570983,25.332125 6.34171607,24.929625 7.24180967,25.412625 C8.14190328,25.8955 8.50471139,24.99 10.2957878,26.120875 C11.0350078,26.587625 12.3047738,25.830875 13.1083931,26.330125 C13.0039314,26.02425 12.5457722,25.830875 12.0073635,25.871375 C12.344961,25.17925 14.5228081,25.267625 15.4710764,25.960125 L15.4708268,25.96 Z"></path>
                            <path d="M16.9015913,24.913 C16.1944462,24.365625 15.2139782,25.025875 14.538908,24.768125 C14.538908,25.21875 14.7639314,25.895 15.5032761,26.1525 C15.7282995,25.99175 16.7408424,25.10625 16.9015913,24.913 L16.9015913,24.913 Z"></path>
                            <path d="M18.010858,23.352 C16.9018409,22.788625 16.7090172,24.189125 15.8409984,23.899375 C15.8731981,24.301875 16.1946958,24.800875 16.9018409,24.9135 L18.0109828,23.352 L18.010858,23.352 Z"></path>
                            <path d="M18.6698284,22.08 C17.03039,21.436125 16.8214665,23.01375 15.8570983,22.70775 C16.0821217,23.255125 17.4644618,23.544875 18.1716069,23.35175 L18.6698284,22.08 L18.6698284,22.08 Z M20.9193136,15.174 C20.4853666,14.56225 19.5691732,15.061375 19.4245242,15.78575 C19.2798752,16.510125 19.6334477,17.52425 20.2442434,17.298875 L20.9193136,15.174 L20.9193136,15.174 Z"></path>
                            <path d="M22.0285803,13.242 C21.2731357,13.065 20.4052418,13.145375 20.5017161,13.885875 C20.2122933,14.014625 20.1320437,14.964625 20.9195632,15.17375 L22.0285803,13.241875 L22.0285803,13.242 Z"></path>
                            <path d="M22.5268019,12.743 C21.7874571,11.87375 20.9629953,11.893875 20.5017161,12.26 C19.6497972,12.93625 18.8219657,12.549875 18.7978783,13.225875 C19.3123245,12.8315 19.7622465,13.306375 20.1802184,13.1615 C20.5980655,13.016625 20.9034633,13.8215 22.06078,13.4835 L22.5268019,12.743 L22.5268019,12.743 Z M20.7425897,25.735 C20.8551638,25.944125 21.546209,26.040875 21.8838066,25.686625 C22.3311076,25.217125 21.8356318,23.91575 21.1283619,23.819125 C20.4212168,23.722625 20.3569423,25.284125 20.7427145,25.735 L20.7425897,25.735 Z"></path>
                            <path d="M19.9388456,25.767 C20.9513885,26.137 21.3853354,25.299875 20.8389392,24.768875 C20.6941654,24.946 20.1637441,25.589875 19.9388456,25.767 L19.9388456,25.767 Z"></path>
                            <path d="M16.1457722,27.151 C15.9528237,27.730625 14.9563807,27.82725 13.8312637,29.63025 C12.7061466,31.433125 11.6293292,30.6765 11.3560062,31.916 C12.7061466,30.821375 13.7664899,31.5485 14.5704836,30.46725 C15.7920749,28.825125 16.7980031,29.061 17.2707644,27.956 C17.9458346,26.3785 20.9032137,26.4105 21.0639626,23.9315 C20.0675195,23.73825 16.9171919,26.4105 16.1457722,27.150875 L16.1457722,27.151 Z M41.509142,2.811 C42.7950078,3.2295 42.8270827,4.90375 44.3055226,5.451 C45.7844618,5.998375 45.9292356,7.31825 47.1344774,6.996375 C46.0094852,6.6905 46.0898596,5.386625 44.9166927,5.064625 C43.540468,4.687125 43.0200312,2.5855 41.9267395,2.263625 L41.509142,2.811 Z M47.4079251,11.552 C47.6329485,12.067125 47.6009984,12.98475 46.7972543,13.22625 C47.2310764,13.499875 47.8738222,13.24225 48.2275195,12.64675 C47.6970983,13.82175 48.0506708,14.88425 48.8864899,15.093625 C48.4846178,14.272625 49.3848362,13.886125 49.095663,13.355 C49.6260842,13.580375 50.0921061,14.30475 50.0758814,14.7555 C50.7673011,13.98275 49.5616849,12.9525 49.7867083,12.22825 L47.4079251,11.552 L47.4079251,11.552 Z M39.0819345,19.826 C38.294415,19.13375 37.9583151,20.007 37.5710452,19.70525 C37.2094852,19.4235 36.7273635,19.38325 36.5426521,19.665 C37.2178471,19.689125 36.8878627,20.212375 38.1979407,20.341125 C36.8878627,20.429625 37.1292356,21.894625 36.2531045,21.822125 C37.1853978,22.7075 37.6675195,21.033375 38.4229641,21.307125 C38.1979407,21.371375 38.7765367,21.902625 38.3746646,22.610875 C39.0257722,22.594875 39.2907332,21.693375 39.3714821,21.2265 L39.0819345,19.826 L39.0819345,19.826 Z M21.7390328,27.344 C21.4497348,27.10275 20.6139158,26.989875 20.2925429,27.183125 C19.9710452,27.376125 20.0836193,27.424375 20.4692668,27.456875 C20.855039,27.489 21.3531357,28.114 20.5175663,28.149 C20.1317941,28.164875 20.260468,29.098625 19.4567239,29.16325 C19.786209,29.56575 20.7264899,29.299875 21.0639626,28.857375 C20.999688,29.2195 21.4818097,29.5495 21.288986,29.984125 C21.8836817,30.048625 21.5380967,28.777 22.4783775,28.841125 C22.0927301,28.8895 22.2533541,29.758625 22.9284243,29.53325 C22.5265523,29.726625 22.7356006,30.19325 23.1855226,30.08075 C22.8963495,30.177375 22.7998752,30.547375 23.2017473,30.757 C23.5873947,30.22575 23.1534477,28.32625 21.7390328,27.344125 L21.7390328,27.344 Z M56.7463339,9.582 C57.9765367,9.582 58.9736037,8.583 58.9736037,7.35075 C58.9736037,6.11875 57.9764119,5.11975 56.7463339,5.11975 C55.5157566,5.11975 54.5185647,6.11875 54.5185647,7.35075 C54.5185647,8.583 55.5157566,9.582 56.7463339,9.582 L56.7463339,9.582 Z"></path>
                            <path d="M45.1095164,12.277 C45.7847114,11.633125 46.8136037,11.311125 47.5203744,11.794 C48.2275195,12.277 50.5743526,12.8565 51.7316693,12.051625 C52.8886115,11.246625 53.4352574,10.828125 53.949454,10.92475 C54.3356006,11.50425 54.8014977,11.777875 55.3802184,11.82625 C55.5569423,12.019375 56.1839626,12.180375 56.5375351,12.132 C57.0517317,12.26075 57.6786271,12.099875 58.1767239,11.5525 C58.9483931,11.66525 59.6715133,11.08575 59.9447114,10.2165 C60.7643058,10.119875 60.8126053,9.20225 60.2984087,8.5905 C59.8161622,8.494 60.1860842,6.868 58.4338222,7.19 C59.1734165,7.64075 58.610546,8.54225 59.2217161,8.960875 C58.8036193,8.960875 58.2653354,9.137875 58.1366615,9.76575 C58.2972855,9.331125 58.1125741,9.041375 57.9998752,8.94475 C58.0160998,8.5745 57.1965055,7.665 56.4248362,7.995 C56.9793448,8.11575 56.6660842,9.009125 57.0679563,9.347125 C56.7784087,9.363375 56.4730109,9.508125 56.2962871,9.76575 C56.0873635,9.3955 55.3481435,9.009125 54.8979719,8.977 C54.8979719,8.84825 54.8738846,8.590625 54.8177223,8.46175 C54.6167863,8.0755 54.4479251,7.61675 54.5281747,7.029125 C54.1425273,7.447625 53.8210296,8.02725 53.6283307,8.44575 C53.0176599,8.027125 51.5066459,8.638875 50.7995008,8.799875 C50.0922309,8.960875 47.7134477,8.5745 47.1668019,7.994875 C46.6206552,7.4155 45.5598128,7.06125 44.5633697,6.7715 C43.1930109,6.37325 43.1810296,4.872 41.6700156,3.84175 C41.6379407,5.70925 44.4668955,11.633125 45.1096412,12.277 L45.1095164,12.277 Z M29.3581279,26.507 C30.5475195,26.507 31.5118877,25.541125 31.5118877,24.349875 C31.5118877,23.158625 30.5475195,22.192875 29.3581279,22.192875 C28.1687363,22.192875 27.2043682,23.158625 27.2043682,24.349875 C27.2043682,25.541125 28.1686115,26.507 29.3581279,26.507 L29.3581279,26.507 Z"></path>
                            <path d="M24.2141654,24.849 C24.6481123,25.4125 25.3873323,25.380375 25.6928549,25.332 C25.9499532,26.007875 26.7696724,25.992 27.1233697,26.362 C27.4769423,26.7325 28.6821841,26.700375 29.0358814,26.49075 C28.7146334,26.45875 28.2966615,26.26575 27.8947894,25.9275 C27.4097972,25.5195 27.6376911,24.704 27.2519189,24.414375 C27.5412168,24.092375 27.5893916,23.56125 27.5252418,23.351875 C27.8305148,23.17475 28.0555382,22.885 28.0877379,22.740125 C28.6181591,22.708 29.0840562,22.43425 29.2771295,22.225125 C29.5504524,22.482625 30.2414977,22.1445 30.6112949,22.579125 C30.6916693,21.516625 29.6790016,20.95325 29.0038066,21.3075 C28.7304836,21.1625 28.0073635,21.259125 27.8788144,21.452375 C27.653791,21.35575 27.0268955,21.67775 26.7375975,21.887 C27.0590952,21.709875 27.1072699,21.178625 26.9787207,20.9855 C27.2519189,20.872875 27.5573167,20.502625 27.5893916,20.228875 C27.9751638,20.29325 28.5536349,20.03575 28.810858,20.100125 C28.3931357,19.55275 27.7020905,19.359625 26.9948206,19.407875 C26.2634633,19.44825 25.9502028,19.963375 25.8536037,20.51875 C25.4196568,20.77625 25.2750078,21.6455 25.4357566,21.951375 C25.1865211,21.943375 24.9535101,22.184875 24.8571607,22.321625 C24.5195632,22.17675 24.0374415,22.07225 23.6918565,22.07225 L24.2141654,24.849 Z M23.8447426,21.195 C23.7000936,20.7765 23.8916693,20.399625 23.9893916,20.06825 C24.2385023,19.223125 24.0858658,19.00575 23.3304212,19.1185 C23.2661466,19.520875 23.6519189,20.841 23.8447426,21.195 L23.8447426,21.195 Z"></path>
                            <path d="M23.2906084,19.166 C23.4834321,19.359125 24.1666147,19.44775 24.2388768,18.836 C24.3219969,18.13375 24.0379407,17.862 23.4272699,18.13575 C23.3790952,18.29675 23.3226833,18.95675 23.2906084,19.166 L23.2906084,19.166 Z"></path>
                            <path d="M23.4353822,18.112 C23.6924805,18.216625 24.2471139,18.425875 24.5523869,17.83025 C24.8086115,17.33075 24.4721373,16.944875 23.9417161,16.977 C23.8131669,17.122 23.5559438,17.637 23.4353822,18.112 L23.4353822,18.112 Z"></path>
                            <path d="M23.9096412,16.929 C23.9739158,17.122125 24.6328861,17.766125 25.1150078,17.29925 C25.5972543,16.832375 25.5972543,16.14025 24.8740094,15.882625 C24.6810608,15.914875 24.1024649,16.591 23.9096412,16.928875 L23.9096412,16.929 Z"></path>
                            <path d="M24.8731357,15.883 C25.0177847,16.2855 25.4678315,16.977625 26.3036505,16.655625 C27.1394696,16.33375 26.7857722,15.287375 26.4001248,15.078125 C26.1751014,15.09425 25.258908,15.51275 24.8731357,15.883 L24.8731357,15.883 Z"></path>
                            <path d="M26.4007488,15.078 C26.3364743,15.432125 26.4007488,16.398 27.5418409,16.381875 C28.6829329,16.365875 28.3618097,15.02975 28.0722621,14.8365 C27.6062402,14.8365 26.8185959,14.852625 26.4007488,15.078 L26.4007488,15.078 Z"></path>
                            <path d="M28.1200624,14.884 C27.9915133,15.15775 27.7017161,16.959 29.9363495,16.4615 C30.2253978,16.39725 30.9809672,14.739 28.1200624,14.884 L28.1200624,14.884 Z"></path>
                            <path d="M29.3411544,15.045 C29.1165055,15.270375 29.694727,17.089375 31.205741,16.7835 C32.7166303,16.477625 31.4469891,14.75525 29.3411544,15.045 L29.3411544,15.045 Z"></path>
                            <path d="M30.6271451,15.319 C30.3862715,15.818 30.7482059,17.299 32.6122933,17.299 C34.3017785,17.299 32.5236817,15.35125 30.6271451,15.319 L30.6271451,15.319 Z"></path>
                            <path d="M32.0898596,15.754 C31.9687988,16.030625 31.8206552,17.60075 34.0185959,17.734 C35.6098596,17.830625 35.2242122,15.576875 32.0898596,15.754 L32.0898596,15.754 Z"></path>
                            <path d="M34.4531669,16.414 C34.1802184,16.897 33.8906708,18.10425 36.3015289,18.200875 C37.8462402,18.262875 36.8964743,16.44625 34.4531669,16.414 L34.4531669,16.414 Z"></path>
                            <path d="M36.4620281,16.784 C36.1084555,17.267 36.3687988,18.21425 37.2653978,18.39375 C38.3906396,18.619125 38.5512637,17.55675 37.7799688,17.041625 C37.0082995,16.5265 36.4620281,16.784125 36.4620281,16.784125 L36.4620281,16.784 Z"></path>
                            <path d="M37.5553198,17.009 C37.2982215,17.45975 37.4575975,18.554375 39.1624337,18.554375 C39.5160062,18.554375 40.8663963,17.17 37.5553198,17.009 L37.5553198,17.009 Z M24.3599376,38.002 C25.74078,38.002 26.8602808,36.88075 26.8602808,35.49775 C26.8602808,34.1145 25.74078,32.99325 24.3599376,32.99325 C22.9789704,32.99325 21.8595944,34.1145 21.8595944,35.49775 C21.8595944,36.88075 22.9790952,38.002 24.3599376,38.002 L24.3599376,38.002 Z"></path>
                            <path d="M42.6982839,1.588 C42.5052106,1.781125 42.1038378,2.360625 42.0230889,2.586 C41.1872699,5.09725 43.4184087,6.973125 44.7234945,9.669 C45.7522621,11.794 45.6237129,15.142375 44.0162246,17.26725 C43.4663339,17.994125 43.6305772,18.201 42.9233073,18.9415 C42.6521061,19.2255 42.3447114,19.58525 42.4411856,20.615625 C42.8913573,20.454625 43.534103,20.873125 43.6625273,21.227375 C43.9841498,21.066375 44.4343214,21.13075 44.5948206,21.323875 C45.141092,21.066375 45.5912637,21.195125 46.0733853,21.710375 C46.4914821,21.645875 46.9415289,21.710375 47.3592512,22.161 C47.5842746,21.710375 48.0344462,21.549375 48.3555694,21.646 C48.3236193,21.066375 48.9022153,20.647875 49.4164119,20.87325 C49.2559126,20.1005 49.9630577,19.520875 50.6382527,19.746375 C51.2165991,19.295625 52.3739158,19.263375 52.9526365,19.9395 C51.923869,19.64975 51.9563183,20.7445 51.0880499,20.647875 C51.3130733,21.29175 50.7344774,21.662 50.156131,21.87125 C50.5255538,21.694125 50.9274259,21.485 51.055975,21.71025 C51.3775975,21.428625 52.0203432,21.53325 52.1813417,21.678125 C52.6069267,21.54125 53.0171607,21.645875 53.2097348,22.161 C53.7884555,22.515125 54.174103,23.416625 53.7563807,24.09275 C53.6278315,23.3845 53.1457098,23.416625 52.9526365,23.126875 C52.5024649,23.287875 52.0524181,23.287875 51.923869,22.998125 C51.6667707,23.255625 50.7988768,23.481125 50.4133541,23.09475 C50.2685803,23.67425 49.7701092,24.15725 49.1915133,24.15725 C49.3525117,24.607875 48.9023401,25.38075 48.5487676,25.767 C49.0954134,26.056625 48.934415,26.70075 48.8058658,27.087 C49.6415601,27.21575 48.934415,27.956125 50.3809048,28.439125 C49.6740094,28.6645 48.2916693,28.439125 48.0985959,27.569875 C47.3913261,27.537875 46.9092044,26.8295 46.9416537,26.088625 C46.3950078,25.573625 46.3146334,24.83325 47.0702028,24.318125 C46.4269579,24.51125 46.0733853,23.481 45.141092,23.899625 C44.6775663,24.107875 43.4537285,23.754625 43.4699532,23.32 C43.2768799,23.642 42.1037129,23.51325 41.9425897,22.965875 C41.5569423,23.175125 40.6567239,22.821 40.6729485,22.28975 C40.1744774,22.515125 39.4997816,22.11275 39.5318565,21.597625 C39.0658346,21.53325 39.0176599,21.114625 39.04961,20.7605 C38.6315133,20.567375 38.744337,20.164875 38.9048362,19.682 C38.6157878,19.36 38.744337,18.90925 38.9693604,18.49075 C38.6477379,18.16875 38.7122621,17.782375 38.8083619,17.33175 C37.2653978,17.203 35.3325429,16.83025 30.9007176,15.464375 C24.214415,13.403875 22.4142278,18.233125 23.8929173,21.259625 C25.5990016,24.7515 23.7000936,25.509625 24.2786895,28.1175 C24.8894852,28.24625 25.2109828,28.76125 25.1787832,29.30875 C25.5403432,29.324625 25.7975663,29.6625 25.6688924,30.30675 C25.9742902,30.2505 26.3681747,30.33875 26.625273,30.59625 C26.8504212,30.178 27.589766,30.08125 27.9755382,30.56425 C28.8111076,30.499625 29.2292044,31.175875 29.1971295,32.013 C29.6468019,32.818 29.4863027,33.800125 29.0040562,34.427625 C29.0523557,34.08975 29.0040562,33.60675 28.9883307,33.31725 C28.9583775,32.78425 28.2165367,32.673 28.2969111,32.2385 C27.9112637,32.2705 27.5414665,32.061375 27.4129173,31.77175 C27.1878939,31.964625 26.8665211,32.02925 26.5931981,31.932625 C27.0271451,32.125875 27.3647426,32.898375 27.2361934,33.413375 C27.4612168,33.8 27.4129173,34.508375 27.1397192,34.814125 C27.01117,35.441625 26.5289236,35.667125 25.9021529,35.393375 C26.2557254,35.168375 26.3842746,34.765875 26.3681747,34.4275 C26.1431513,34.234625 26.030702,33.86425 26.0146022,33.63875 C25.3878315,33.7355 24.5198128,33.20425 24.359688,32.99425 C22.9788456,32.99425 21.8594696,34.1155 21.8594696,35.49875 C21.795195,34.983375 21.1445866,34.475875 21.224961,34.04125 C20.8393136,32.85 21.3857098,31.73925 22.9608736,31.51425 C22.7680499,31.063375 23.4429953,30.59625 23.185897,30.08125 C22.8574103,29.423375 22.2536037,28.568 21.3537598,27.57 C21.900156,26.63625 21.7394072,25.38075 21.4179095,24.608 C20.9563807,23.498375 20.5178159,23.770875 18.8783775,25.57375 C16.2065523,28.512125 12.6421217,27.69875 9.49179407,29.6305 C8.65485179,30.143875 7.82040562,30.338875 8.72049922,29.437625 C9.62046802,28.535875 11.9992512,27.634625 13.5422153,26.86175 C16.4317005,25.414625 18.8783775,22.99825 19.8427457,18.29775 C22.10883,7.25175 30.4501716,10.89275 35.7219345,12.95325 C40.6713261,14.887875 39.7722309,10.506375 37.2648986,7.866375 C34.2513573,4.693125 34.8540406,2.2 36.2685803,0.203875 C38.8078627,-0.150375 43.6782527,0.735125 42.6976599,1.58825 L42.6982839,1.588 Z"></path>
                            <path d="M51.6512949,28.723 C53.1706708,28.723 54.4023713,27.48975 54.4023713,25.968 C54.4023713,24.44625 53.170546,23.212625 51.6512949,23.212625 C50.1319189,23.212625 48.9002184,24.44625 48.9002184,25.968 C48.9002184,27.48975 50.1320437,28.723 51.6512949,28.723 L51.6512949,28.723 Z"></path>
                        </g>
                        <g transform="translate(8.611544, 8.500000)" stroke="#000000" stroke-width="0.1">
                            <path d="M32.5441498,1.966 C31.9334789,4.6705 32.4476755,5.893875 33.3478939,7.085125 C35.2078627,9.54725 36.6909204,15.16625 34.5692356,18.836125"></path>
                            <g transform="translate(12.605304, 4.625000)">
                                <path d="M23.1528237,11.041 C23.409922,10.944375 23.8920437,10.6385 24.0048674,10.10725 M23.3455226,9.866 C23.4257722,9.399125 24.1488924,9.198 24.165117,8.699 M23.3614977,8.046 C23.3131981,7.563 24.0849922,7.1285 23.9721685,6.6455 M22.9441498,6.308 C22.8796256,6.03425 23.5868955,5.51925 23.3943214,5.084625 M22.4139782,4.618 C22.2692044,4.312125 22.7513261,3.958 22.5425273,3.636 M21.6421841,3.265 C21.5938846,3.05575 21.8914197,2.597 21.7307956,2.323375 M20.87039,1.672 C20.934415,1.5915 21.1920125,1.39825 21.0871763,1.156875 M20.3402184,0.505 C20.4446802,0.448625 20.7579407,0.352 20.7180031,0.11875"></path>
                                <path d="M4.25135725,30.857 C3.60848674,30.631625 2.80486739,30.953625 2.64411856,31.501125 M3.12611544,32 C3.20648986,31.452875 4.04218409,31.21125 4.29928237,31.46875 C3.76898596,31.179125 3.51176287,32.209125 3.97790952,32.241625 M8.30202808,19.267 C7.91638066,19.46025 7.80405616,20.1685 8.30202808,20.699875 M8.8801248,19.428 C8.60717629,19.653375 8.62302652,20.3295 9.0248986,20.4905 C8.6875507,20.249 9.0248986,19.8305 9.26614665,19.814375 C9.50702028,19.79825 9.66764431,20.088125 9.37847114,20.37775 M31.4628393,21.021 C30.5629953,20.77975 29.8396256,21.826 30.6590952,22.75975 C30.6432449,21.858125 31.2859906,21.26275 32.0736349,21.4235 M31.7114509,22.047 C31.4901716,22.047 31.365741,22.220375 31.365741,22.389125 C31.365741,22.566125 31.5183775,22.735375 31.7676131,22.735375 C31.9286115,22.735375 32.0571607,22.550375 32.0571607,22.405375 M34.8854914,2.283 C35.0302652,2.830375 35.7857098,3.05575 36.3802808,2.926875 M36.380156,2.573 C35.914259,2.589125 35.5286115,2.1545 35.5605616,1.78425 C35.5605616,2.057875 36.1875819,2.18675 36.380156,2.009625"></path>
                                <path d="M4.47600624,20.957 C4.3474571,20.634875 4.86177847,20.313 4.87787832,20.007 C4.89397816,19.70125 5.45647426,19.45975 6.0350702,20.03925 M5.76199688,16.611 C5.64954758,16.65925 5.55307332,16.723625 5.45659906,16.755875 M6.87126365,18.365 C6.73460218,18.373125 6.45341654,18.357 6.30065523,18.25225 M6.30914197,18.977 C6.19669267,19.033375 5.9474571,19.13 5.80280811,19.16225 M0.79575663,28.7 C0.779656786,28.99 1.06907956,29.408375 1.22970359,29.537125 M2.04979719,28.008 C1.88904836,28.24925 1.79269891,28.668 1.88904836,28.957625 M4.44405616,28.974 C4.15475819,28.780625 4.3475819,28.2815 4.31550702,27.95975 C4.28330733,27.63775 4.65297972,27.12275 5.37634945,27.55725 M1.74427457,27.139 C2.03357254,27.090625 2.33897036,27.1065 2.53179407,27.186875 M5.40854914,26.221 C5.28,26.398125 5.24780031,26.591375 5.23182527,26.720125 M6.75843994,26.189 C6.53341654,26.189 6.34059282,26.349875 6.24411856,26.511125 M3.64031201,17.947 C3.8974103,18.035625 4.56449298,18.446 4.58858034,18.872625 M6.37304212,15.854 C5.58552262,15.837875 5.2801248,15.033 5.87482059,15.033 M7.78783151,16.932 C7.4824337,17.06075 7.62720749,17.592 8.06115445,17.8495 M5.90677067,21.987 C5.75400936,21.794125 5.9549454,21.23075 6.45329173,21.3995 M7.0799376,27.863 C7.11188768,27.372125 7.73092044,27.082125 7.98015601,27.637625 M4.7975039,29.263 C4.75731669,28.723875 5.03051482,28.54675 5.27163807,28.514625 C5.51263651,28.482625 5.85834633,28.683375 6.01909516,29.037625 M0.0079875195,29.666 C0.0401872075,29.343875 0.313385335,29.006 0.602683307,29.054375 M29.4210296,15.371 C29.2117317,15.524 29.0753198,16.208125 29.870702,16.2725 M28.1999376,16.498 C28.1999376,16.5785 28.3043994,16.691125 28.3687988,16.7395 M31.9930109,17.786 C31.7842122,17.625 31.245429,18.277 31.7359126,18.751875 M26.8819969,23.195 C26.7613105,22.73625 27.1873947,22.615375 27.5892668,22.712125 M25.8536037,19.943 C26.0944774,19.782 26.3357254,19.605 26.6411232,19.5245 M25.724805,21.713 C25.724805,21.32675 25.9173791,21.005125 26.0942278,20.908375 M27.1385959,17.271 C27.1065211,17.737875 27.2995944,18.1885 27.4443682,18.43 M30.9646178,17.303 C30.7312324,17.3755 30.5224337,17.464 30.4341966,17.657125 M30.7070203,18.623 C30.8197192,18.526375 30.9482683,18.41375 31.0044306,18.33325 M36.7825273,4.569 C36.7825273,5.01975 36.2200312,5.261125 35.8506084,4.9715 M38.0046178,4.585 C38.2533541,4.778125 39.1132605,4.593125 38.9123245,4.094125 M36.9592512,7.177 C36.7824025,7.14475 36.4771295,6.951625 36.3485803,6.79075 M38.7274883,5.841 C38.4383151,5.905375 38.2453666,5.841 38.1005928,5.776625 M34.1626209,7.451 C34.3232449,7.451 34.7088924,7.386625 34.9742278,7.24975 M33.6803744,4.602 C33.4715757,4.577875 33.3184399,4.618125 33.1982527,4.698625 M36.9193136,5.39 C36.8631513,5.59125 36.7183775,5.905125 36.5415289,6.042"></path>
                                <path d="M33.1342278,6.099 C33.5360998,5.921875 34.0344462,7.29025 34.9988144,6.80725 M35.0791888,5.39 C34.9506396,5.567125 34.87039,5.84075 34.8541654,6.08225"></path>
                            </g>
                            <path d="M28.4615289,7.923 C28.590078,7.906875 28.8151014,7.858625 28.8634009,7.697625 M11.9223713,22.91 C12.4046178,23.18375 12.7420905,23.6505 12.5331669,24.34275 M34.0218409,6.442 C34.1666147,6.538625 34.7132605,6.538625 35.0186583,6.425875 M35.4046802,6.764 C35.3884555,6.989375 35.4529797,7.8425 35.0190328,8.019625 M35.1800312,7.907 C35.5819033,8.03575 36.3856474,7.9875 36.6427457,7.247 M36.0796256,7.874 C36.2884243,8.196 36.3525741,8.82375 35.726053,9.16175 M36.2403744,8.406 C36.7062715,8.567 37.7833385,8.583 37.6706396,7.6655 M37.3017161,8.406 C37.6233385,8.85675 39.0377535,9.388 38.8126053,8.45425 M35.9997504,9.709 C36.5460218,9.83775 37.3176911,9.4675 36.9960686,8.50175 M38.5387832,8.985 C38.6190328,9.35525 40.4190952,9.741625 40.1783463,8.9045 M39.8407488,9.388 C40.1785959,10.160625 41.9624337,10.09625 41.4000624,9.066 M41.1107644,9.87 C41.464337,10.304625 43.0398752,10.047125 42.4129797,9.00075 M42.3957566,9.854 C43.3763495,10.5945 44.5174415,9.532 43.2797504,8.75925 M43.8424961,9.613 C44.7107644,10.30525 45.7716069,9.0495 45.0160374,8.6955 M36.97922,9.323 C37.2525429,9.4035 37.8312637,9.37125 37.9598128,8.87225 M37.7430265,9.21 C37.7109516,9.9425 38.94078,10.22425 39.2539158,9.379125 M38.8443058,9.838 C39.0693292,10.320875 40.1460218,10.514125 40.3227457,9.821875 M40.1462715,10.144 C40.3231201,10.627 41.2552886,10.578625 41.5123869,10.079625 M41.1746646,10.402 C41.4638378,11.02975 42.6531045,11.02975 42.9265523,10.11225 M42.7182527,10.514 C43.1841498,10.80375 44.1809672,10.691125 44.1003432,9.789625 M43.9073947,10.434 C44.5984399,10.9975 45.5790328,10.450125 45.0967863,9.50025 M45.0486115,11.174 C45.4184087,11.109625 45.6111076,10.369125 45.2254602,10.176 M36.4819969,11.303 C37.2532917,10.8845 37.3980655,10.17625 36.8676443,9.484 M37.1409672,10.595 C37.6230889,10.88475 38.5391576,10.578875 38.6997816,9.870625 M37.7999376,10.675 C38.0728861,11.029125 38.1210608,11.46375 37.7674883,11.86625 M38.0245866,11.126 C38.876131,10.59475 39.9369735,11.57675 39.1495788,12.172375 M39.0050546,11.078 C39.1981279,11.02975 39.5354758,10.6755 39.5675507,10.273125 M39.3904524,11.448 C39.744025,11.07775 42.1553822,11.834375 40.6281435,12.607 M40.5156942,10.434 C40.9815913,10.611125 41.2229641,11.271125 40.5156942,11.4965 M41.1267395,12.044 C41.640936,11.51275 43.2484243,11.850875 42.6697036,12.527 M42.2839314,11.834 C42.5731045,10.852 44.2929173,11.46375 43.7304212,11.866125 M41.9304836,10.852 C41.9787832,11.04525 41.9945086,11.528125 41.6733853,11.78575 M43.3772231,10.659 C43.441248,10.82 43.4255226,11.125875 43.2807488,11.319 M44.4695164,10.675 C44.5659906,10.852 44.7266147,11.190125 44.3730421,11.46375 M30.7120125,3.27 C30.7278627,4.1875 31.0493604,4.79925 32.2870515,4.21975 M31.0974103,4.365 C30.4867395,5.186 31.1776599,6.071375 32.3832761,5.186 M29.2163495,4.767 C30.0521685,5.6685 31.5469579,5.0085 30.5824649,3.640125 M31.5956318,5.54 C31.4346334,6.425375 32.1581279,6.6025 32.7525741,6.2 M28.4775039,4.912 C28.629766,5.802125 29.5383463,6.50575 30.4223401,5.958375 M29.5707956,6.136 C29.5707956,7.40775 31.3226833,7.552625 31.7245554,6.232625 M31.0974103,7.037 C31.6599064,8.196 32.8813729,7.72925 33.2832449,7.020875 M29.8593448,5.186 C30.0843682,5.749375 30.5345398,6.37725 31.5791576,5.910375 M26.6453666,4.912 C26.7901404,5.378875 27.6259594,5.94225 28.5902028,5.29825 M27.2394384,5.508 C26.7248674,6.264625 27.7536349,6.973 28.9913261,5.846 M27.8504836,6.442 C28.0592824,7.5045 28.4770047,8.35775 29.9878939,6.989375 M29.2323245,7.536 C29.7789704,8.212125 30.6147894,8.630625 31.4021841,7.48775"></path>
                            <path d="M31.9810296,7.729 C31.9327301,8.533875 32.0933541,8.93625 32.7202496,8.904 C33.2144774,8.87875 33.6846178,8.4855 33.9579407,8.067 M32.6080499,8.905 C32.5918253,9.8225 33.3148206,10.547 34.6652106,9.613375 M33.1701716,9.983 C32.9130733,10.67525 33.6843682,11.802 35.1952574,11.2225 M29.9721685,8.148 C29.8760686,9.033375 30.695663,9.629 32.0136037,8.486 M30.6151638,9.13 C30.6634633,9.854375 31.4829329,10.72375 32.6886739,9.468 M31.1932605,10.048 C31.0967863,11.2875 32.2378783,11.64175 33.2022465,10.691875 M29.473947,9.13 C29.7310452,9.146125 29.939844,8.92075 30.0683931,8.75975 M30.0200936,10.031 C30.245117,10.07925 30.6312637,9.87 30.7598128,9.6125 M30.5832137,11.496 C30.840312,11.76975 31.7082059,11.5765 31.8205304,11.20625 M31.5477067,11.48 C32.0298284,12.60675 33.3153198,12.5585 33.8458658,11.286875 M33.604493,11.738 C33.8453666,12.398 34.4565367,12.8165 35.4528549,12.591125 M34.0867395,12.414 C33.5242434,13.3315 34.2635881,14.410125 35.5170047,13.34775 M34.3922621,13.782 C34.3282371,14.3615 34.8586583,15.0215 35.5816537,15.102 M32.0129797,12.092 C31.8199064,13.395875 32.7521997,14.02375 33.925741,13.3315 M30.6471139,12.72 C30.9525117,12.9615 31.4991576,12.99375 32.0132293,12.8005 M32.64,13.557 C32.3504524,14.65175 33.475819,15.4405 34.4400624,14.217 M31.0814353,12.897 C31.0976599,13.460375 31.6443058,14.072 32.5923245,13.895 M35.2439314,15.022 C34.6008112,15.456625 34.4722621,16.22925 35.3724805,16.72825 M33.6683931,14.796 C33.7008424,15.456 34.0062402,15.82625 34.7292356,15.890625 M32.7208736,14.458 C31.7565055,15.343375 32.704649,16.37375 33.8458658,15.504375 M33.395819,15.778 C33.0741966,16.79225 34.2798128,17.403875 34.9226833,16.373625 M31.4029329,13.621 C31.0493604,14.619125 31.4994072,15.279125 32.3190016,15.21475 M30.1329173,13.428 C30.1812168,14.023625 30.6954134,14.232875 31.2740094,14.104125 M30.5023401,14.056 C30.0683931,14.893125 30.7273635,15.34375 31.5956318,15.021875 M34.2315133,16.889 C34.0867395,17.42025 34.1669891,17.8065 34.9545086,17.98375 M34.2794384,17.646 C33.3309204,18.080625 33.2506708,18.99825 33.9898908,19.59375 M33.5156318,16.624 C33.0176599,17.07475 33.1137598,17.855375 33.6604056,18.16125 M29.2972231,13.686 C28.7505772,14.225375 29.2731357,15.71425 30.4782527,14.9015 M32.4313261,15.569 C31.6916069,16.18075 32.029454,17.2915 33.2509204,16.985625 M31.2092356,15.102 C30.8235881,16.19675 31.1933853,16.583 32.0612793,16.599125"></path>
                            <path d="M28.4934789,13.637 C27.8345086,14.136 28.0113573,14.84425 28.3009048,15.16625 C28.5899532,15.48825 29.1362246,15.343375 29.3130733,14.924875 M27.1106396,13.203 C26.3714197,14.15275 27.1106396,15.279625 28.1557566,14.941625 M31.0654602,16.02 C30.3100156,16.29375 29.733791,16.98075 30.1971919,17.5815 C30.4705148,17.935625 31.6599064,17.984 31.9973791,16.615625 M29.6985959,15.134 C29.264649,15.761875 29.4090484,16.3575 30.2127925,16.66325 M29.6506708,16.31 C29.1842746,16.5675 28.8790016,16.8735 28.9917005,17.436875 M28.6063027,15.328 C28.429454,16.084625 28.6383775,16.5515 29.1042746,16.77675 M28.5903276,16.229 C27.8668331,16.18075 27.4974103,16.4865 27.7382839,17.194875 M27.8025585,16.406 C27.0952886,16.1485 26.9825897,15.53675 27.2879875,14.89275 M27.1915133,15.843 C26.419844,15.87525 26.0824961,16.2615 26.0824961,16.79275"></path>
                            <path d="M26.1461466,12.832 C25.5836505,13.0735 25.4069267,13.830125 25.6157254,14.248625 C25.8250234,14.667125 26.4839938,14.699375 26.8858658,14.425625 M24.5716069,12.237 C24.0574103,12.8165 24.6518565,13.943375 25.5684243,13.66975 M23.2536661,11.786 C22.7715445,12.462125 23.3019657,13.589 24.539532,13.267 M24.6035569,16.406 C24.4750078,15.601 25.3108268,15.069875 26.3395944,16.11625 M25.8416225,14.491 C25.5362246,14.76475 25.3919501,15.19925 25.4397504,15.5535 M21.9357254,11.4 C21.4053042,12.3015 22.0484243,13.1225 23.1895164,12.8005 M24.9090796,13.637 C24.1536349,14.393625 24.4107332,15.15025 24.9731045,15.58475 M24.4268331,14.523 C23.285741,14.539125 23.2215913,15.859125 24.1538846,16.27775 M23.5591888,13.203 C23.0932917,13.525 22.9485179,14.41025 23.7522621,14.7645 M23.5272387,15.183 C23.045117,14.957625 22.4663963,15.23125 22.514571,15.79475 M22.8033697,15.199 C22.3694228,14.16875 21.0997816,14.345875 21.2126053,15.40825 M23.1568175,13.927 C22.883869,13.97525 22.3372231,14.13625 22.1284243,14.554875 M22.209298,12.768 C21.6951014,13.3475 22.0965991,14.03975 22.5146958,14.184625 M20.6826833,11.142 C20.586209,11.83425 20.859532,12.17225 21.7273011,12.107875 M20.9872075,12.028 C20.6493604,12.865125 21.099532,13.23525 21.9673011,13.187 M21.1799064,13.058 C20.6657098,13.66975 21.0192824,14.32975 21.5172543,14.603375 M20.9392824,13.831 C20.0232137,13.71825 19.8784399,14.78075 20.1838378,15.27975"></path>
                            <path d="M20.1994384,11.062 C19.6370671,11.3035 19.3156942,12.01175 19.6209672,12.446375 C19.9264899,12.881 20.5372855,12.736125 20.8746334,12.51075 M19.8140406,12.639 C19.3480187,13.34725 19.765741,13.8785 20.2642122,14.08775"></path>
                            <path d="M18.0138534,10.981 C17.644181,11.36725 17.8692044,12.15625 18.769298,12.17225 C19.4939158,12.18525 19.8622153,11.496125 19.6371919,11.01325 M18.6408736,12.172 C18.3515757,12.815875 18.5284243,13.508125 19.6213417,13.395375 M20.0876131,14.41 C19.4125429,14.104125 18.5125741,14.41 18.8982215,15.215 M18.8016225,13.267 C18.5282995,13.65325 18.6247738,14.20075 18.9301716,14.53875 M18.7536973,14.297 C18.3036505,14.3775 17.8697036,14.619 18.1429017,15.32725 M18.0777535,14.748 C17.4991576,14.570875 16.7598128,14.9895 17.2098596,15.585125 M17.114259,15.022 C16.6160374,14.9415 16.0213417,15.47275 16.5034633,16.004 M16.3105148,15.569 C15.860468,15.68175 15.3300468,16.196875 15.7961934,16.59925 M18.5769735,13.042 C17.934103,13.33175 17.8697036,14.05625 18.1751014,14.587375 M17.9010296,11.706 C16.9366615,12.07625 16.9527613,13.364125 18.0134789,13.7665 M17.5635569,13.476 C16.984961,13.814 16.8723869,14.458 17.2581591,14.8765 M16.5511388,11.223 C16.1653666,11.35175 16.1975663,12.543 17.226209,12.51075 M15.4907956,11.625 C14.7192512,12.140125 15.6515445,13.444 16.9052106,12.510375 M16.2136661,12.832 C16.1012168,13.36325 16.2458658,13.94275 17.0976599,14.00725 M16.2615913,13.541 C15.6507956,13.766375 15.5383463,15.022 16.6472387,15.1185 M14.3176287,12.398 C13.5301092,13.122375 14.9604992,13.75025 15.4910452,12.703875 M13.224337,13.605 C12.8385647,14.071875 14.1887051,15.29525 14.7834009,13.250875 M14.9276755,13.219 C14.9597504,13.701875 15.2491732,13.991625 15.8437441,14.023875 M15.8282683,14.491 C14.88,14.635875 14.5746022,15.827125 15.6354446,16.08475 M14.0760062,14.33 C14.0438066,14.78075 14.5099532,15.151 15.0403744,15.0705 M15.5227457,16.052 C14.6548518,16.245125 14.5422777,17.372 15.3138222,17.307625 M14.9117005,18.354 C14.1883307,18.13675 14.1723557,17.275375 14.8152262,16.9535"></path>
                            <path d="M14.3176287,17.597 C13.7069579,17.96725 13.9479563,18.852625 14.269454,18.981375 C14.5908268,19.110125 14.8480499,18.94925 14.8802496,18.675625 M14.8318253,19.915 C14.8960998,20.3335 13.3450234,20.1725 14.14078,18.86875 M14.1319189,19.988 C13.60961,20.809 14.4614041,21.477 14.9998128,20.77675 M14.204805,20.978 C13.9958814,21.638 14.7913885,22.113 15.305585,21.597875 M12.4685179,14.796 C12.17922,15.391625 13.6257098,15.617 13.7221841,14.3935 M12.0671451,15.682 C11.7778471,16.841 13.9636817,16.5995 13.4011856,15.1025 M13.448986,15.875 C13.7543838,16.052125 14.6705772,16.068125 14.8954758,15.08625 M14.2367551,15.907 C14.3010296,16.212875 14.5742278,16.583125 14.8314509,16.69575 M13.1923869,16.213 C13.0959126,16.840875 13.7228081,17.356 14.446053,17.30775 M13.3042122,16.825 C12.9506396,17.308 12.8380655,18.241625 13.9472075,18.306 M11.6168487,16.986 C11.44,17.485 12.4847426,18.00025 13.0955382,17.179125 M11.295351,18.257 C11.2068643,18.635375 12.1471451,19.142375 12.6775663,17.532625 M12.259844,18.354 C12.4848674,18.7565 13.240312,19.078375 13.7063339,18.289625 M12.9507644,18.773 C12.7579407,19.336375 13.2883619,19.867625 13.9312324,19.70675 M11.7456474,18.644 C11.6170983,19.448875 12.5492668,19.91575 13.1278627,19.497125 M11.1346022,18.998 C10.8614041,20.02825 12.1793448,20.414625 12.6775663,19.641875 M12.3407176,19.948 C12.3890172,20.5275 13.2891108,21.0265 13.9962559,20.543625 M10.7332293,20.431 C10.6689548,20.6885 11.745897,20.946125 11.9063963,20.044625 M11.3602496,20.656 C11.6173479,21.316 12.4852418,21.477 12.9835881,20.672125 M12.6941654,20.994 C12.8067395,21.60575 13.594259,21.94375 14.285429,21.52525 M14.5742278,21.767 C14.3975039,22.588 15.249298,23.248 15.7795944,22.79725 M13.2083619,21.622 C12.9512637,22.5235 14.0762559,23.038625 14.7031513,22.5395 M11.8584711,21.171 C11.7941966,22.008125 12.4531669,22.507125 13.2086115,22.136875 M10.4277067,21.252 C10.2026833,21.799375 11.3920749,22.250125 11.954571,21.78325 M9.68786271,22.749 C9.99326053,23.103125 11.0539782,22.749 11.1505772,21.96025 M10.8620281,22.539 C11.2476755,22.98975 12.163869,23.23125 12.5336661,22.26525 M12.2119189,22.765 C12.195819,23.45725 13.4335101,23.95625 13.8352574,22.6845 M15.2891108,22.934 C15.1765367,23.272125 15.4418721,23.81125 15.9962559,23.875625 M14.2687051,22.725 C14.1883307,23.11125 14.7509516,23.6505 15.3456474,23.43325 M15.4588456,23.594 C15.2980967,24.0125 15.4346334,24.616125 15.9972543,24.608125 M15.5147582,24.375 C15.0969111,24.729125 15.2736349,25.357 15.8764431,25.38125 M15.2980967,24.97 C14.7034009,25.37225 14.9124493,26.25775 15.6999688,26.20975 M13.4979095,23.264 C13.4979095,24.13325 14.574727,24.262 14.7836505,23.457125 M14.3655538,23.972 C14.204805,24.487125 14.6226521,24.98625 15.2816225,24.84125 M14.4943526,30.186 C14.6391264,30.395625 15.2336973,30.041375 15.0729485,29.68725 C14.9123245,29.333125 14.2823089,29.525625 14.3497036,29.896375 M14.9276755,29.542 C15.0080499,28.833625 14.1722309,28.721125 13.9633073,29.332875 M14.2687051,28.979 C14.4776287,28.624875 13.7704836,28.141875 13.4811856,28.656875 M13.7385335,28.447 C13.9313573,27.931625 13.1277379,27.706625 13.0634633,28.17325 M12.8868643,27.497 C12.9833385,27.2395 13.8834321,27.400375 13.4976599,27.931625 M14.18883,28.576 C14.5424025,28.253875 13.9478315,27.593875 13.5780343,27.835625 M16.5671139,29.558 C16.2858034,29.590125 15.9963807,29.775125 16.205429,30.370875 C16.3502028,30.78425 16.9688612,30.8055 17.0572231,30.555875"></path>
                            <path d="M16.1577535,29.856 C15.8844306,29.678875 15.2898596,29.976875 15.5630577,30.556375 C15.7687363,30.992625 16.2863027,30.813875 16.3668019,30.5885 M14.6221529,30.685 C14.7586895,30.92625 15.4417473,30.822125 15.5623089,30.55625 M15.0884243,29.888 C15.2330733,29.791375 15.4981591,29.91175 15.554571,30.032625 M15.0404992,25.92 C14.5743526,26.225875 14.8636505,27.159625 15.5870203,26.917875 M14.8957254,26.677 C14.526053,26.966625 14.8635257,27.86825 15.5546958,27.530375 M15.0085491,27.53 C14.7514509,27.7875 15.0004368,28.50375 15.6675195,28.367125 M14.9117005,27.884 C14.7669267,27.819375 14.3892668,27.86775 14.2285179,28.109 M14.4943526,24.624 C14.14078,24.962 14.3095164,25.654375 14.9684867,25.710625 M14.3655538,25.332 C13.85922,25.581625 13.85922,26.587375 14.8717629,26.62775 M14.3256162,26.467 C14.0444306,26.692375 14.1809672,27.561625 14.9042122,27.448625 M14.5582527,27.417 C14.4536661,27.521625 14.4375663,27.787375 14.526053,27.899875 M14.2367551,27.087 C13.9796568,27.094875 13.6420593,27.280375 13.5535725,27.54575 M13.0875507,26.612 C13.184025,26.3545 13.9796568,26.37075 14.035819,27.127375 M14.1159438,26.226 C14.0033697,26.250125 13.7864587,26.35475 13.7302964,26.57225 M13.7704836,23.868 C13.4247738,24.181875 13.2561622,25.172 14.3088924,25.365 M13.0715757,25.912 C13.0715757,25.646125 13.7868331,25.42075 14.0359438,25.815375 M12.6132917,24.471 C12.7177535,24.67225 13.215975,24.946 13.5213729,24.720625 M10.0253354,22.894 C10.0093604,23.360875 10.3950078,23.779375 10.925429,23.715 C11.4558502,23.650625 11.5682995,23.18375 11.4075507,22.877875 M11.0058034,23.731 C10.6522309,24.165625 11.0861778,24.777375 11.4879251,24.60025 M11.4081747,23.425 C11.6170983,23.3445 12.3082683,23.247875 12.5171919,23.569875 M9.17366615,23.554 C9.01291732,23.7955 10.0094852,24.037 10.3468331,23.570125 M10.0093604,23.811 C9.97716069,24.133 10.1379095,24.68025 10.9576287,24.454875"></path>
                            <path d="M11.0866771,24.954 C11.2152262,24.68025 10.6044306,24.229625 10.1384087,24.728625 C9.67226209,25.227625 10.2026833,25.791125 10.4919813,25.59775 M8.94901716,23.876 C8.70789392,24.2945 9.64018721,25.05925 10.1706084,24.351"></path>
                            <path d="M8.3299844,24.6 C7.9925117,24.94625 8.41035881,25.582125 8.91669267,25.38875 C9.42290172,25.195625 9.37472699,24.664375 9.25429017,24.527625"></path>
                            <path d="M7.67900156,25.244 C7.40567863,25.493375 7.67088924,26.080875 8.04867395,26.080875 C8.42633385,26.080875 8.65946958,25.783375 8.58708268,25.405125 M9.21360374,25.196 C9.16530421,25.56625 9.71182527,25.82375 10.0653978,25.477875 M10.0822465,24.801 C10.1304212,24.7205 10.0903588,24.5835 10.0099844,24.51925 M7.09291732,25.743 C6.77965679,25.992625 7.45460218,26.684625 7.88043682,26.048875 M9.51113885,25.606 C9.31020281,25.798875 9.63157566,26.306 9.95307332,26.153125 M8.41085803,25.96 C8.45903276,26.305875 9.13410296,26.563375 9.5600624,26.0325 M8.78028081,26.306 C8.67581903,26.5235 8.88486739,26.86975 9.14196568,26.821375 M15.1772855,28.295 C14.9282995,28.785875 15.7238066,29.3575 16.3024025,28.761625 M15.7553822,29.027 C15.6349454,29.292375 15.7795944,29.662875 15.9965055,29.7995 M15.0005616,29.582 C15.0568487,29.340375 15.4024337,29.114875 15.715819,29.227875 M14.5822153,28.946 C14.63039,28.728875 14.919688,28.511375 15.1367239,28.568125 M33.5076443,18.901 C32.3665523,18.917125 32.8486739,20.75225 33.8292668,20.382 M33.1382215,20.254 C32.9131981,20.62425 33.3470203,21.211875 33.8292668,20.86575 M33.7013417,20.938 C33.3634945,21.501375 34.5691108,22.362625 35.0513573,21.47725 M34.6658346,21.815 C34.6816849,22.34625 36.224649,22.68425 36,21.621875 M35.8549766,22.201 C36.2243994,22.82875 37.6068643,22.89325 37.4620905,21.9595 M37.1569423,22.604 C37.4464899,23.0225 38.7965055,23.280125 38.7482059,22.41075 M31.675507,17.308 C31.8680811,17.807 32.5270515,17.984125 33.250546,17.69425 M31.2581591,17.662 C31.7083307,17.95175 31.0493604,19.27175 30.3583151,18.7405 M31.2581591,18.483 C31.7565055,18.7245 32.3671763,18.547375 32.544025,17.839125 M32.2386271,18.386 C32.2869267,18.75625 32.8173479,19.046 33.5083931,18.901125 M31.0005616,18.773 C31.6436817,19.320375 30.7113885,20.44725 30.2932917,19.932 M31.2421841,19.191 C31.5475819,19.416375 32.3351014,19.287625 32.415351,18.692 M32.0619033,19.191 C32.1264275,19.57725 32.4317005,19.72225 32.8656474,19.738375 M31.0654602,19.722 C31.3865835,20.17275 32.1904524,20.3015 32.5439002,19.705875 M32.1897036,20.044 C32.1576287,20.478625 32.6398752,20.83275 33.1382215,20.73625 M30.4384399,21.01 C30.8561622,21.21925 31.306209,20.4305 30.9526365,19.88325 M30.9206864,21.847 C31.4190328,21.87925 31.4831825,21.122625 31.0171607,20.704 M32.0619033,22.539 C32.48,22.442375 32.3510764,21.52475 31.3384087,21.44425 M33.3309204,23.216 C33.7327925,23.10325 33.41117,22.089125 32.3025273,22.1535 M34.8585335,23.57 C35.1314821,23.1515 34.2316381,22.44325 33.4924181,22.813375 M35.6133541,24.149 C36.1117005,24.293875 36.4491732,22.974 34.8741342,23.183125 M36.529922,24.149 C36.9642434,24.036375 37.2696412,23.2475 35.9998752,23.505125 M37.494415,24.214 C37.8800624,24.40725 38.0569111,23.28025 36.8832449,23.58625 M31.0165367,20.704 C31.4986583,20.97775 32.2542278,20.65575 32.1897036,20.044 M31.9970047,20.576 C32.1580031,20.86575 32.0934789,21.429125 31.7882059,21.574 M32.0449298,21.252 C32.3665523,21.38075 32.8003744,21.268125 33.0575975,20.753 M32.6080499,21.252 C32.7041498,21.477375 32.7365991,21.928125 32.5273011,22.1535 M32.6889236,21.638 C33.0424961,21.831125 33.4602184,21.573625 33.6370671,21.203375 M33.4117941,21.525 C33.6688924,21.686 33.8939158,22.4425 33.4600936,22.7485 M33.7013417,22.395 C34.0067395,22.411125 34.4567863,22.411125 34.7459594,22.02475 M34.5370359,22.234 C34.8103588,22.3145 35.1314821,22.76525 35.0191576,23.16775 M35.0352574,23.022 C35.3410296,22.98975 35.8710764,22.7805 36.0158502,22.41025 M35.8709516,22.652 C36.1284243,22.796875 36.305273,23.10275 36.2728237,23.456875 M36.2723245,23.199 C36.5777223,23.182875 36.8510452,23.022 36.9312949,22.683875 M36.8514197,22.91 C37.0764431,22.9905 37.349766,23.248 37.3659906,23.553875 M37.3336661,23.36 C37.5586895,23.32775 37.7193136,23.182875 37.8640874,22.9575 M38.474883,22.926 C38.7644306,23.21575 38.3787832,24.18175 37.7838378,24.004625 M32.3025273,3.415 C31.7075819,3.769125 30.019844,3.6565 30.8555382,2.256 M32.4632761,2.465 C31.2901092,2.931875 29.8431201,2.030375 31.354259,1.048375 M30.9526365,0.727 C29.9720437,0.727 29.3130733,2.3045 30.6315133,2.852 M27.1435881,1.387 C26.8864899,1.886 27.8025585,2.43325 28.429454,1.934375 C28.9149454,1.54775 28.8792512,0.501625 28.590078,0.099125 M26.6453666,2.578 C26.3237441,3.6405 28.6868019,3.70475 28.3170047,2.0145 M26.5165679,4.156 C26.5968175,4.960875 28.7830265,4.703375 28.0753822,3.077375 M28.3327301,2.626 C28.5095788,2.8675 28.9917005,3.286 29.81117,3.2055 M28.7181279,1.483 C28.7905148,1.77275 29.280624,1.998125 29.9075195,1.780875 M6.7873947,25.976 C6.23288612,26.370625 7.08480499,26.99025 7.39819033,26.306 M6.35307332,26.282 C5.79868955,26.676125 6.65048362,27.29575 6.96386895,26.611625 M5.89478939,26.58 C5.34015601,26.974625 6.19207488,27.59425 6.50558502,26.91 M5.4125429,26.854 C4.88212168,27.135625 5.50090484,27.82775 6.03931357,27.216125 M4.89035881,27.12 C4.3599376,27.40125 4.97884555,28.09375 5.51725429,27.482125 M7.58315133,26.29 C7.575039,26.700375 8.35469579,26.869625 8.63575663,26.2575 M8.07338534,26.669 C7.83226209,26.974875 8.27432137,27.353125 8.51544462,27.216125 M7.03600624,26.612 C7.01179407,26.95825 7.68686427,27.1595 8.01647426,26.781125 M7.40642746,26.975 C7.18939158,27.256625 7.61535101,27.635 7.88854914,27.522125 M6.58670827,26.926 C6.61079563,27.19975 6.99644306,27.5135 7.41441498,27.336375 M6.83531981,27.296 C6.67457098,27.441 6.7549454,27.779375 6.9799688,27.883875 M5.99962559,27.272 C5.93535101,27.521625 6.36131045,27.9645 6.79525741,27.6745 M6.0874883,27.562 C5.83039002,27.76325 5.8624649,28.069125 6.19195008,28.109125 M5.46945398,27.53 C5.4373791,27.69875 5.65441498,27.9725 5.9276131,27.940375 M4.09460218,27.514 C3.8375039,27.650625 4.49647426,28.351125 4.90620905,27.699 M3.45959438,27.803 C3.13809672,27.956375 3.93385335,28.728875 4.2874259,27.940125 M5.54134165,27.771 C5.29210608,27.82725 5.13148206,28.18975 5.34040562,28.334375 M4.72960998,27.9 C4.6974103,28.045 5.00293292,28.28625 5.25204368,28.197875 M4.52093604,27.965 C4.27981279,28.117875 4.40836193,28.544125 4.68979719,28.48 M3.66127925,28.246 C3.43625585,28.41475 3.58889236,28.753125 3.9024025,28.672625 M4.07063963,28.222 C4.07875195,28.310375 4.27956318,28.447375 4.44842434,28.391125 M2.88149766,28.077 C2.60031201,28.197875 2.61641186,28.906125 3.56468019,28.519875 M2.24648986,28.359 C1.8526053,28.552375 1.98127925,29.083625 2.84118565,28.5765 M2.91344774,28.617 C2.80898596,28.697375 2.69653666,29.051625 3.09029641,28.9145 M2.19057722,28.785 C2.02982839,28.93 2.13441498,29.227875 2.48798752,29.115 M1.36287051,28.834 C1.07357254,29.003125 1.70833073,29.228625 2.13441498,28.77775 M1.55556942,29.043 C1.42702028,29.17175 1.42702028,29.550125 1.76449298,29.413375 M0.735850234,29.196 C0.543026521,29.341 0.872386895,29.534375 1.47519501,29.2685 M0.976474259,29.405 C0.751450858,29.59 0.775538222,29.823375 1.1050234,29.750875 M0.309516381,29.51 C0.0604056162,29.735375 0.421965679,29.888375 0.856037441,29.702875 M0.3175039,29.76 C-0.108455538,29.952875 0.0763806552,30.307125 0.341591264,30.170375 M14.5422777,30.991 C14.4435569,31.203875 14.7673011,31.37725 15.0726989,31.328875 C15.3659906,31.282625 15.6466771,31.040625 15.4262715,30.701375 M15.4418721,31.12 C15.73117,31.345375 16.2454914,31.087875 16.2454914,30.749625"></path>
                        </g>
                        <g transform="translate(30.452418, 0.000000)" stroke="#000000" stroke-width="0.1">
                            <path d="M11.329298,5.508 C10.0434321,4.864125 7.37547582,3.67275 6.6199064,4.63875 C7.31095164,4.349 9.33616225,4.654875 11.0076755,6.20025 L11.329298,5.508 L11.329298,5.508 Z" fill="#FFFFFF"></path>
                            <path d="M12.1090796,5.44 C10.6221529,3.70525 9.74652106,4.093625 8.67731669,3.496125 C7.67313573,2.934625 6.07351014,2.819875 5.76361934,3.71275 C7.23095164,2.997 8.57797192,4.09775 9.40542902,4.230875 C10.5419033,4.413625 11.1834009,5.293625 11.5158814,5.698375 L12.1092044,5.44 L12.1090796,5.44 Z M17.7103276,5.218 C16.9386583,3.44725 15.2887363,3.90975 14.5598752,3.1575 C13.4994072,2.062875 10.815351,1.04875 9.70620905,1.80525 C12.1490172,1.6765 13.1895164,3.49175 14.4957254,4.123375 C15.4280187,4.574125 16.4244618,5.54 17.7103276,5.218125 L17.7103276,5.218 Z" fill="#FFFFFF"></path>
                            <path d="M14.8178471,5.025 C13.4999064,3.383 11.4743214,1.93425 10.5424025,2.4815 C11.763869,2.545875 12.1495164,3.399 13.0177847,3.9465 C13.8855538,4.49375 13.4999064,5.2825 14.8178471,5.025 L14.8178471,5.025 Z M8.54864275,7.923 C7.16617785,7.407875 4.46627145,7.150375 3.21235569,8.728 C5.30196568,9.082 8.45204368,8.888875 8.54864275,7.923 L8.54864275,7.923 Z" fill="#FFFFFF"></path>
                            <path d="M8.29204368,8.535 C6.90957878,7.891125 5.83014041,8.7905 4.53079563,8.66375 C2.05591264,8.42225 0.287800312,8.567125 0.0627769111,9.7585 C1.47731669,8.48675 3.85609984,9.533125 4.82034321,9.2755 C5.78471139,9.018 9.35288612,9.243375 10.4777535,9.72625 C9.89915757,9.018 8.99931357,8.82475 8.29204368,8.535 L8.29204368,8.535 Z M12.6312637,4.848 C12.3101404,3.7855 12.3258658,2.65875 13.9171295,2.73925 C13.5152574,2.240125 12.0368175,1.982625 11.7954446,3.85 C10.0435569,2.56225 8.13079563,2.33675 7.7775975,3.4475 C8.6774415,2.674875 10.0756318,3.23825 11.7471451,5.137875 C11.8919189,5.057375 12.2775663,4.896375 12.6311388,4.848125 L12.6312637,4.848 Z" fill="#FFFFFF"></path>
                            <path d="M10.2210296,6.313 C9.22471139,5.669125 7.87432137,4.62275 10.2372543,4.20425 C9.22458658,3.656875 7.74577223,3.898375 7.90664587,5.76575 C5.20636505,4.671 3.26726989,5.0405 2.85953198,6.119875 C2.40948518,7.311125 4.08137285,7.971125 4.37054602,7.2145 C4.06514821,7.34325 3.02053042,6.989125 3.56680187,6.313 C4.11344774,5.637 6.91407176,6.1445 9.57815913,7.5365 C10.3175039,7.92275 12.8567863,7.8585 10.2209048,6.313 L10.2210296,6.313 Z" fill="#FFFFFF"></path>
                            <path d="M9.51313573,8.084 C8.74433697,6.51175 6.25035881,7.939125 5.74776911,6.41625 C5.06084243,8.6475 9.29422777,7.41275 9.51313573,8.084 L9.51313573,8.084 Z M25.3773479,9.79 C25.9002808,10.05025 26.3524493,9.641125 25.5524493,9.32025 C26.0758814,9.58025 26.5321685,9.181 25.7321685,8.859875 C26.2556006,9.12 26.7118877,8.72075 25.9118877,8.399625 C25.6984711,8.614875 25.3931981,9.403625 25.3773479,9.79 L25.3773479,9.79 Z M25.649922,6.764 C26.8073635,5.540625 25.5538222,5.122 26.9678627,3.8665 C28.1253042,2.839 27.1887676,2.154375 28.2861778,1.355125 C28.6398752,1.097625 29.41117,0.582375 29.4755694,0.06725 C29.9415913,1.22625 28.0287051,1.38725 28.1572543,3.25475 C28.2392512,4.44375 27.4367551,4.33975 27.1288612,6.3455 C27.0644618,6.764 26.7752886,7.69775 25.649922,6.764 L25.649922,6.764 Z" fill="#FFFFFF"></path>
                            <path d="M26.165117,7.311 C26.8078627,5.926625 27.5458346,5.95325 27.9006552,5.4115 C28.5758502,4.38125 30.0061154,5.588625 31.2117317,4.671 C31.0029329,5.974875 29.3795944,5.508125 28.6724493,6.34525 C27.9653042,7.18225 27.3865835,7.56875 26.165117,7.311125 L26.165117,7.311 Z" fill="#FFFFFF"></path>
                            <path d="M26.3258658,7.762 C27.4512324,6.8605 28.280312,7.462 29.0583463,6.98925 C31.0190328,5.798 31.8069267,7.23075 33.5588144,6.667375 C33.0924181,7.794125 30.5048362,6.828375 29.379844,7.665375 C28.2546022,8.5025 24.30078,9.307375 26.3258658,7.762 L26.3258658,7.762 Z M23.0469891,14.185 C23.0307644,13.669875 22.5486427,13.00975 21.8734477,12.929375 C21.1986271,12.848875 20.9090796,12.140625 20.394883,12.108375 C19.8806864,12.07625 19.5429641,11.045875 18.8356942,11.062 C18.1284243,11.078125 17.8392512,11.99575 19.4946646,12.83275 C21.1503276,13.669875 22.9824649,14.63575 23.0469891,14.185125 L23.0469891,14.185 Z M20.9572543,14.62 C20.2499844,14.65225 20.1535101,15.6825 19.4788144,15.71475 C20.4106084,16.21375 21.0858034,15.489375 21.5680499,14.845375 L20.9572543,14.62 L20.9572543,14.62 Z" fill="#FFFFFF"></path>
                            <path d="M21.5363495,14.748 C20.9256786,15.263125 20.74883,16.34175 21.6328237,16.6475 C21.1024025,15.915 22.565117,15.585 22.1150702,14.908875 L21.5363495,14.748 L21.5363495,14.748 Z" fill="#FFFFFF"></path>
                            <path d="M22.1463963,14.781 C21.6642746,15.71475 22.9018409,15.82725 22.5803432,16.53575 C23.2874883,16.37475 23.400312,15.038625 22.7570671,14.6845 L22.1463963,14.781 L22.1463963,14.781 Z" fill="#FFFFFF"></path>
                            <path d="M17.42078,12.784 C18.5782215,12.719625 19.6365679,13.346625 20.346209,14.3615 C20.7963807,15.0055 22.3068955,15.263 22.8215913,14.747875 C23.3357878,14.232875 23.0466147,13.138125 21.7607488,13.492375 C21.4391264,12.945 20.5068331,13.138125 20.0571607,12.687375 C19.6069891,12.23675 17.8708268,10.948875 17.42078,12.784 L17.42078,12.784 Z" fill="#FFFFFF"></path>
                            <path d="M21.7609984,13.493 C21.4556006,13.557375 21.3591264,14.088625 21.5517005,14.36225 M22.4199688,13.815 C22.5164431,13.976 22.4520437,14.20125 22.4037441,14.314 M19.2539158,12.833 C19.8483619,12.86525 19.9611856,13.299875 20.6039314,13.460875" fill="#FFFFFF"></path>
                            <path d="M18.8605304,11.368 C20.9144462,11.883125 22.544025,12.333875 23.5544462,12.913375 C24.5649922,13.493 26.1296724,13.653875 27.4987832,13.267625 C28.8678939,12.88125 31.5078939,12.527125 31.3777223,14.2335 C32.095351,13.38025 31.1821529,12.462625 29.3566303,12.301625 C29.389454,11.464625 28.4951014,10.707875 27.8518565,11.207 C28.4468019,11.1265 28.9601248,12.23725 27.7869579,12.688 C28.0149766,11.850875 27.1837754,11.09425 26.3201248,11.4645 C26.874259,11.6255 27.4346334,12.55625 26.1948206,12.91325 C25.4122933,13.13875 24.2715757,12.849 23.4241498,12.333875 C22.5767239,11.818625 17.8175351,9.951375 18.8605304,11.368 L18.8605304,11.368 Z" fill="#FFFFFF"></path>
                            <path d="M24.0434321,10.531 C23.4006864,10.82075 23.8184087,11.496875 22.8220905,11.88325 C21.825273,12.2695 21.1342278,13.154875 21.359376,13.9115 C22.034571,12.4305 23.2239626,12.494875 23.6415601,11.915375 C24.0596568,11.335875 24.6703276,10.48275 24.0434321,10.531 L24.0434321,10.531 Z" fill="#FFFFFF"></path>
                            <path d="M24.220156,10.627 C24.1880811,11.802 23.2645242,11.374 23.6252106,13.025625 C23.7380343,13.540625 23.9468331,14.37775 23.5932605,15.214875 C24.6298908,14.458375 23.9630577,12.868875 24.4289548,12.269 C24.654103,11.97925 24.9431513,11.5285 25.055975,11.14225 C24.8146022,11.81825 24.8308268,13.074 25.4897972,13.396 C24.959376,12.14025 26.9205616,11.11 25.5701716,9.66125 C25.3774727,10.015375 24.7664275,10.643125 24.220156,10.627125 L24.220156,10.627 Z M20.9412793,9.452 C21.1022777,9.6935 21.2629017,10.30525 21.1181279,10.64325 C21.4396256,10.450125 21.9060218,9.951125 22.0504212,9.613 C22.7093916,9.709625 22.9664899,10.5305 22.3399688,10.88475 C22.7256162,10.88475 23.3845866,10.88475 23.7540094,10.450125 C23.304337,9.951 21.9061466,9.17825 20.9412793,9.452 L20.9412793,9.452 Z" fill="#FFFFFF"></path>
                            <path d="M10.9439002,7.143 C10.8399376,7.048 10.664337,6.957875 10.349454,6.893 C9.37634945,6.693125 9.87893916,5.814625 10.7071451,5.8225 C12.4747582,3.89075 13.4674571,5.379875 15.6212168,4.768125 C16.375039,4.554125 16.8924805,4.617375 17.3032137,4.79525 C18.2674571,4.1515 19.3986895,4.33125 20.2186583,5.087875 C20.309766,4.942875 20.4320749,4.832 20.6038066,4.784125 C21.3588768,4.574125 21.9696724,5.219125 22.1784711,6.056125 C22.7671763,5.946875 23.439376,6.238625 23.8816849,6.641125 C24.4939782,6.326125 24.915819,6.312125 25.0710764,6.636125 C25.6177223,6.3785 26.3258658,6.217 26.6793136,7.08625 C27.0330109,7.9555 25.8436193,7.698 25.650546,9.533125 C25.5316069,10.66525 24.2685803,11.11075 23.2717629,10.434625 C21.6776287,9.353 20.1216849,9.179 19.3500156,10.820875 C18.5787207,12.463 17.9742902,13.417 16.1033385,12.8815 C15.4286427,12.68825 14.5603744,12.945875 14.014103,13.686375 C13.4674571,14.426875 12.6317629,13.734625 11.6353198,13.815125 C12.8888612,13.622 12.4087363,13.306125 13.4999064,13.235625 C14.4963495,13.17125 14.2392512,12.237625 14.8819969,12.10875 C12.3746646,12.75275 12.4711388,11.819 10.4139782,12.462875 C11.3138222,11.303875 12.7282371,11.947875 13.435507,11.271625 C11.5709204,11.2395 10.7372231,10.0195 9.89940718,10.53125 C8.58146646,11.336125 9.15968799,13.62775 5.72056162,13.42875 C4.04892356,13.33225 2.98808112,13.5575 1.99176287,14.55575 C3.72780031,10.949875 6.08911076,12.93075 7.23145086,11.787 C7.90664587,11.11075 8.42084243,10.595625 8.77441498,9.95175 C8.89884555,9.725 9.06733229,9.5955 9.27775351,9.5455 C6.41684867,8.643875 8.14702028,7.239625 10.9439002,7.143125 L10.9439002,7.143 Z" fill="#FFFFFF"></path>
                            <path d="M25.0698284,6.636 C25.1135101,6.7265 25.135975,6.844 25.135975,6.98925 C25.135975,7.6975 24.0751326,7.72975 24.0109828,8.776125 C23.9772855,9.3235 23.9145086,9.629375 23.5447114,9.564875 C23.1752886,9.5005 22.8536661,8.921125 23.2072387,8.244875" fill="#FFFFFF"></path>
                            <path d="M11.4740718,6.088 C11.2078627,5.900625 10.9415289,5.8245 10.7027769,5.82225 L11.4740718,6.088 Z M17.2969735,4.79 C18.1481435,5.159125 18.5632449,6.044625 19.7998128,6.088 C20.9899532,6.129875 21.7287988,7.85875 23.7215601,6.731875 C23.7756006,6.701375 23.8283931,6.672875 23.8795632,6.6465 L17.2969735,4.79 Z M20.2184087,5.088 C20.0408112,5.370875 20.0003744,5.765875 20.0490484,6.112375 L20.2184087,5.088 Z M16.3284867,8.728 C14.8179719,8.728 14.4318253,9.500625 14.4318253,10.24125 C14.4318253,10.98175 15.1390952,11.9475 16.3930109,11.9475 C17.6464275,11.9475 18.3216225,11.175 18.3216225,10.33775 C18.3216225,9.500625 17.5499532,8.728 16.3284867,8.728 L16.3284867,8.728 Z" fill="#FFFFFF"></path>
                            <path d="M16.6010608,11.915 C16.568986,11.4965 15.8135413,11.560875 15.8456162,11.238875 C15.8775663,10.916875 16.2637129,10.788125 16.2637129,10.337375 C16.2637129,9.886625 16.9384087,9.8545 17.1635569,10.208625 C17.3885803,10.56275 18.0637754,11.254875 18.2085491,10.900875 M17.164181,10.209 C16.8106084,10.563125 16.6499844,11.2875 17.1158814,11.851 M17.6464275,10.756 C17.534103,10.9975 17.5020281,11.36775 17.6305772,11.593125" fill="#FFFFFF"></path>
                            <path d="M23.6490484,9.573 C24.8304524,9.669625 25.0315133,8.3655 24.1473947,8.28525 M22.1953198,6.056 C21.785585,5.532875 20.8453042,5.35575 20.8292044,6.4665"></path>
                            <path d="M20.7166303,7.73 C20.3147582,6.731875 19.2859906,6.587 18.7393448,7.086125 C18.2845554,7.501375 18.2733229,8.583125 19.2539158,8.808625 C19.5913885,8.406125 20.2503588,7.874875 20.7166303,7.730125 L20.7166303,7.73 Z M20.2743214,7.102 C19.6956006,6.586875 18.8436817,7.56075 19.615351,8.45425 L20.2743214,7.102 Z M9.26652106,9.541 C9.65379095,9.448875 10.2200312,9.63875 11.0882995,10.04775 C11.6349454,10.30525 13.2745086,10.85275 14.3029017,10.30525 C13.2420593,10.691625 12.4386895,9.081875 11.6349454,9.275 C10.8312012,9.46825 9.36062402,9.766 8.74196568,9.178375 C10.2524805,9.275 11.064961,8.07625 12.7918877,9.114 C13.2745086,9.40375 13.8851794,9.597 14.4314509,9.56475 C13.0174103,7.858375 11.1528237,8.953 10.9597504,7.568625 C11.8117941,8.48625 13.8930421,7.359375 14.9538846,9.081875 L9.26652106,9.541 Z M11.2653978,7.826 C11.0665835,7.578125 11.1564431,7.331 10.9430265,7.1355 L11.2653978,7.826 Z" fill="#FFFFFF"></path>
                        </g>
                        <path d="M52.6477379,6.056 C52.2941654,5.67775 51.5227457,5.9755 51.739532,6.74025 C51.9085179,6.386125 52.2699532,6.08825 52.6477379,6.056 L52.6477379,6.056 Z M50.4621529,8.118 C50.7055226,7.941 50.9567551,7.795625 51.1685491,7.729875 C51.0528549,7.443375 50.8861154,7.22725 50.6934165,7.076375 C50.5095788,6.949125 49.9812793,7.66075 50.4621529,8.118 L50.4621529,8.118 Z" fill="#000000"></path>
                        <g transform="translate(42.683307, 5.250000)" stroke="#000000" stroke-width="0.1">
                            <path d="M6.82932917,1.562 C6.25060842,1.17575 5.72031201,1.207875 5.54346334,1.529875 C5.12574103,1.513625 4.7800312,1.819625 4.76380655,2.43125 M5.65616225,2.689 C4.965117,2.214125 4.01659906,2.39125 4.08112324,3.45375 M3.66327613,4.057 C4.00062402,3.78325 4.48287051,3.590125 4.85266771,4.073125 M8.82321373,3.011 C8.69466459,3.188 8.59819033,3.46175 8.80698908,3.88025 C8.5498908,3.54225 7.90714509,3.54225 7.21572543,4.443625 M10.3498284,2.963 C9.51400936,3.059625 9.53023401,3.606875 10.2050546,3.848375 M4.40312012,0.918 C3.69585023,0.773125 3.18177847,1.19175 4.16224649,1.545875 M5.75301092,0.435 C4.75619345,0.1935 4.35444618,0.451125 4.80449298,0.6765 M2.87550702,4.444 C2.84343214,4.798125 3.03613105,5.265 3.61472699,4.73375 M3.06920437,5.506 C3.06920437,5.602625 3.05297972,5.71525 2.98845554,5.79575 M0.753822153,0.789 C0.143151326,0.611875 0.0308268331,0.0485 0.737971919,0.09675 M0.545148206,2.093 C-0.130046802,1.867625 -0.130046802,1.207625 0.432449298,1.272 M1.79918877,1.755 C1.01166927,1.56175 0.979594384,1.0145 1.57453978,1.095 M1.895039,0.081 C1.47731669,0.048875 0.834196568,0.515625 1.91126365,0.789375 M3.06920437,1.015 C2.08861154,0.870125 2.10483619,1.2725 2.68318253,1.530125 M3.80804992,0.081 C3.0526053,-0.063875 2.79538222,0.386875 3.30970359,0.58 M1.42976599,2.866 C1.24468019,2.713125 1.0924181,1.980625 1.97603744,2.198 M3.26190328,2.641 C2.6674571,2.48 2.104961,3.0595 2.65123245,3.397625 M4.04867395,1.949 C3.42215289,1.83625 2.89173167,2.013375 3.22907956,2.23875"></path>
                        </g>
                        <path d="M52.613791,6.056 C52.2605928,6.1215 51.9439626,6.329375 51.738908,6.74" stroke="#000000" stroke-width="0.1" fill="#FFFFFF"></path>
                    </g>
                </g>
            </g>
        </g>
    </g>
</svg>