<?xml version="1.0" encoding="UTF-8" standalone="no"?>
<svg width="122px" height="60px" viewBox="0 0 122 60" version="1.1" xmlns="http://www.w3.org/2000/svg" xmlns:xlink="http://www.w3.org/1999/xlink">
    <!-- Generator: Sketch 3.8.2 (29753) - http://www.bohemiancoding.com/sketch -->
    <title>lb</title>
    <desc>Created with Sketch.</desc>
    <defs></defs>
    <g id="Page-1" stroke="none" stroke-width="1" fill="none" fill-rule="evenodd">
        <g id="lb">
            <g>
                <rect id="Rectangle-154" fill="#FF0000" x="0" y="0" width="122" height="15"></rect>
                <rect id="Rectangle-154-Copy-2" fill="#FFFFFF" x="0" y="15" width="122" height="30"></rect>
                <rect id="Rectangle-154-Copy" fill="#FF0000" x="0" y="45" width="122" height="15"></rect>
                <g id="Group" transform="translate(45.417878, 15.000000)">
                    <path d="M15.6724541,0.278609426 C14.7545592,2.11192498 14.1424725,2.11192498 12.612726,3.33433131 C12.0008744,3.94547569 11.0829794,4.25104788 12.3068002,4.86230983 C11.0829794,5.47333663 10.4710103,5.77902639 9.85904115,7.00119757 L10.164967,7.30676976 C10.164967,7.30676976 11.3279081,6.73654078 11.3889052,7.00119757 C11.5922289,7.24551424 9.85821845,8.18292365 9.63432731,8.32542211 C9.41055369,8.46792056 8.32905955,9.14020289 8.32905955,9.14020289 C6.799313,10.3626092 5.88130053,10.0568019 4.96340559,11.890235 L8.02313374,11.584898 C8.63510288,13.7237857 6.49326967,14.0292403 4.96340559,14.9460745 L2.51564658,16.474053 C3.12773324,18.6129407 4.96340559,17.390652 6.49326967,16.7795076 L6.799313,17.0851974 L6.799313,17.6962242 L3.73958485,19.2242027 C3.73958485,19.2242027 0.127591865,21.2916061 0.0680050872,21.3630904 C0.0433241733,21.4738442 0.0680050872,21.9742348 0.0680050872,21.9742348 C1.29182583,22.2799246 3.12773324,22.5854968 4.35167151,21.9742348 C5.88141806,21.3630904 6.18734386,20.7519461 8.02325127,20.7519461 C5.88141806,22.2796894 4.35167151,22.8909514 1.90379497,23.196406 L1.90379497,24.4188123 C3.73958485,24.4188123 4.96340559,24.4188123 6.4933872,24.1132401 L10.4710103,22.8909514 C11.3889052,22.8909514 12.3068002,23.8076679 12.0008744,24.7242669 C11.0829794,28.0854434 7.41116461,27.4744166 6.18722634,30.2244488 L11.0829794,28.3911332 C12.3068002,27.7799888 13.5306209,27.1688444 15.060485,27.4745342 C16.8962749,28.0854434 16.8962749,29.3079673 19.3441514,29.9188766 L18.7322998,28.3912508 C19.3441514,28.6967054 19.9561205,28.6967054 20.5679722,29.0022776 C22.0979538,29.6136571 22.4038796,30.2245663 24.2395519,29.9189941 C22.7098054,28.085561 22.4038796,28.3912508 21.1799413,27.168962 C19.9561205,25.3355289 19.3441514,22.5854968 21.1799413,22.279807 L23.3217745,22.891069 C25.4634902,23.1965236 25.4634902,22.5854968 28.5232183,23.8077855 C30.3591257,24.4188123 30.9710949,25.3355289 33.1129281,24.7243845 C32.1950332,22.5854968 28.8292617,21.0575182 26.687546,20.4463739 C29.1351875,18.9183954 28.5232183,21.0575182 31.8889898,20.1406841 L31.8889898,19.5297749 C29.4413483,17.6963417 28.5233359,16.1683632 25.1575644,16.1683632 L30.3592433,15.5572189 L30.3592433,14.9460745 C30.3592433,14.9460745 25.2292566,13.5997462 25.1099655,13.551894 C25.145694,13.3966977 25.2712141,13.1561433 25.6118107,13.0231683 C26.5860017,13.6540649 29.5321976,13.5804643 29.6994402,13.568707 C29.6134096,12.8167101 28.2174101,12.1959248 26.9935893,11.584898 C26.9935893,11.584898 21.7530086,8.35363962 21.7270349,8.06758455 C21.8309298,7.24868871 23.8794456,8.19773784 26.0755769,8.83463071 C25.4637252,7.61234195 24.239787,7.00131515 23.0159662,6.69574296 L24.8517561,6.39028834 C23.6279354,3.64013865 20.5680897,3.94571083 18.7324173,2.72342208 C17.5083615,1.80670552 17.5083615,1.19544356 15.6726892,0.278844572 L15.6724541,0.278609426 Z" id="Shape" fill="#007900"></path>
                    <path d="M12.3652117,20.6328446 C12.5922761,19.9045976 12.8912677,19.2602976 11.5287637,18.6395122 C10.1662598,18.018962 12.2098394,21.1219482 12.3652117,20.6328446 L12.3652117,20.6328446 Z M13.9788733,19.1761153 C13.70421,19.2118575 13.5604731,20.2148727 14.1101523,20.489288 C14.7198884,20.5845221 14.2179256,19.1882254 13.9788733,19.1761153 L13.9788733,19.1761153 Z M15.5690293,19.0691239 C15.2820256,19.1528359 15.2701552,20.5612427 16.2741983,20.3106946 C17.2782414,20.0602642 16.2620929,18.9500225 15.5690293,19.0691239 L15.5690293,19.0691239 Z M17.4212732,15.4525789 C17.6363497,15.1063265 17.4094028,13.6860448 16.5486266,14.2827277 C15.6882029,14.8796457 17.1462573,15.5480482 17.4212732,15.4525789 L17.4212732,15.4525789 Z M15.5443484,14.2709704 C15.807494,14.1755011 15.8313522,13.3041677 15.0784668,13.530966 C14.3256989,13.7578819 15.3414948,14.4500341 15.5443484,14.2709704 L15.5443484,14.2709704 Z M13.8484171,14.616635 C13.8484171,14.616635 13.3224785,13.8885055 12.9160662,14.0435842 C12.4021155,14.5330406 13.8842631,14.6285098 13.8484171,14.616635 L13.8484171,14.616635 Z M8.02019554,16.9434043 C8.24408669,16.9637445 9.90381938,16.6695769 10.4774743,16.0251593 C11.0510118,15.3805067 7.52434423,16.3009856 7.52434423,16.3128604 C7.52434423,16.3247353 7.85753656,16.882384 8.02031307,16.9434043 L8.02019554,16.9434043 Z M24.6045944,12.8330528 C24.6901549,12.6807958 23.7211352,11.9898193 23.1453647,12.2621184 C22.9971617,12.7722676 24.5997757,12.9379279 24.6045944,12.8330528 L24.6045944,12.8330528 Z M21.3420126,11.1905582 C21.5213606,10.9280177 20.9238474,9.85375334 19.7287036,10.4505538 C18.5334422,11.0473543 20.9834342,11.6084126 21.3420126,11.1905582 L21.3420126,11.1905582 Z M17.5646575,10.5580155 C17.5646575,10.5580155 17.8632966,9.59121286 18.5805709,9.78203382 C19.3933957,10.4029368 17.6003861,10.5938753 17.5646575,10.5580155 L17.5646575,10.5580155 Z M16.8594886,9.83023874 C16.7517152,9.55570582 15.9988298,9.72289461 15.1384062,10.2838353 C14.2776299,10.8448936 17.1222815,10.4510241 16.8594886,9.83023874 L16.8594886,9.83023874 Z M19.0584405,7.22834858 C19.0584405,7.22834858 19.8250766,6.88503546 20.0503781,7.22834858 C20.373228,7.74167223 19.0465701,7.24034103 19.0584405,7.22834858 L19.0584405,7.22834858 Z M18.4155614,6.89208984 C18.2601892,6.58169716 17.4118709,6.55230392 17.4336136,7.00084486 C17.2914045,7.35227051 18.5360278,7.28678236 18.4155614,6.89208984 L18.4155614,6.89208984 Z M16.394077,6.89326557 C16.3105145,6.71420192 15.1036178,6.89667519 14.7449219,7.62139507 C15.3206923,7.90145392 16.6572226,7.34686215 16.394077,6.89326557 L16.394077,6.89326557 Z M13.8119833,7.63397538 C13.8119833,7.63397538 12.2241779,8.60512824 12.126747,9.31703266 C12.1749336,9.9318218 14.0986345,8.20690854 14.0986345,8.20690854 C14.0986345,8.20690854 14.2659946,7.52651367 13.8119833,7.63397538 L13.8119833,7.63397538 Z M12.0549373,6.75100226 C12.099363,6.55347965 12.8394378,6.09588559 12.9034906,6.1302169 C12.96343,6.32938554 12.2990433,6.86857525 12.0549373,6.75100226 L12.0549373,6.75100226 Z M12.5567826,10.4627814 C12.5925111,10.176256 10.6683401,10.2000058 11.3974848,11.0833316 C12.0046353,11.824159 12.6884141,10.5941104 12.5567826,10.4627814 L12.5567826,10.4627814 Z M10.805613,11.7302182 C10.7052439,11.5365755 10.5609193,11.0203125 10.2974212,10.972813 C10.0826972,10.960703 8.92563249,11.1994937 8.83713379,11.3953703 C8.78941736,11.5505667 9.31606105,12.5046714 9.49552655,12.5285388 C9.69873274,12.6120156 10.7697669,11.8256874 10.805613,11.7302182 L10.805613,11.7302182 Z M21.1868755,18.2096654 C21.2465798,18.006852 23.2129434,17.327045 23.8917861,17.9773412 C24.6923879,19.0754729 21.139159,18.5560354 21.1868755,18.2096654 L21.1868755,18.2096654 Z M26.5908203,19.4947381 C27.0216786,18.7653153 25.2678058,17.900566 24.5232649,18.7340409 C24.7777134,19.73541 26.2424668,20.0978875 26.5908203,19.4947381 L26.5908203,19.4947381 Z" id="Shape" stroke="#FFFFFF" stroke-width="3.0178125" fill="#FFFFFF"></path>
                </g>
            </g>
        </g>
    </g>
</svg>