<?xml version="1.0" encoding="UTF-8" standalone="no"?>
<svg width="122px" height="60px" viewBox="0 0 122 60" version="1.1" xmlns="http://www.w3.org/2000/svg" xmlns:xlink="http://www.w3.org/1999/xlink">
    <!-- Generator: Sketch 3.8.2 (29753) - http://www.bohemiancoding.com/sketch -->
    <title>nz</title>
    <desc>Created with Sketch.</desc>
    <defs></defs>
    <g id="Page-1" stroke="none" stroke-width="1" fill="none" fill-rule="evenodd">
        <g id="nz">
            <g id="Group">
                <g>
                    <polygon id="Shape" fill="#00006A" points="0.000498960499 0 122.000499 0 122.000499 60 0.000498960499 60"></polygon>
                    <g id="Shape">
                        <polygon fill="#000066" points="0 0 122 0 122 60 0 60"></polygon>
                        <g>
                            <path d="M0,0.007875 L0,3.562875 L42.956,31.804125 L48.363,31.804125 L48.363,28.249375 L5.407,0.008 L0,0.008 L0,0.007875 Z M48.363,0.007875 L48.363,3.56275 L5.407,31.804125 L0,31.804125 L0,28.24925 L42.956,0.007875 L48.363,0.007875 L48.363,0.007875 Z" fill="#FFFFFF"></path>
                            <path d="M20.15125,10.606625 L20.15125,0.007875 L28.21175,0.007875 L28.21175,10.606625 L48.363,10.606625 L48.363,21.205375 L28.21175,21.205375 L28.21175,31.804125 L20.15125,31.804125 L20.15125,21.205375 L0,21.205375 L0,10.606625 L20.15125,10.606625 Z" fill="#FFFFFF"></path>
                            <path d="M21.763375,19.085625 L0,19.085625 L0,12.726375 L21.763375,12.726375 L21.763375,0.007875 L26.599625,0.007875 L26.599625,12.726375 L48.363,12.726375 L48.363,19.085625 L26.599625,19.085625 L26.599625,31.804125 L21.763375,31.804125 L21.763375,19.085625 Z M0,31.804125 L16.121,21.205375 L19.725625,21.205375 L3.604625,31.804125 L0,31.804125 L0,31.804125 Z M0,0.007875 L16.121,10.606625 L12.516375,10.606625 L0,2.377875 L0,0.007875 L0,0.007875 Z M28.637375,10.606625 L44.758375,0.007875 L48.363,0.007875 L32.242,10.606625 L28.637375,10.606625 L28.637375,10.606625 Z M48.363,31.804125 L32.242,21.205375 L35.846625,21.205375 L48.363,29.43425 L48.363,31.804125 L48.363,31.804125 Z" fill="#CC0000"></path>
                        </g>
                    </g>
                    <g transform="translate(49.022869, 14.719335)" id="Shape">
                        <polygon fill="#FFFFFF" points="15.8429938 7.77467775 13.4009563 5.96981289 10.8692308 7.64432432 11.8224948 4.75209979 9.45592516 2.84893971 12.4864865 2.86627859 13.5551351 0.0154677755 14.4762162 2.91817048 17.5024116 3.05962578 15.0415385 4.83629938"></polygon>
                        <polygon fill="#FF0000" points="14.863659 6.31347193 13.4191684 5.26877339 11.9426195 6.26756757 12.4852391 4.56361746 11.0835343 3.4604158 12.8639501 3.45205821 13.4743035 1.77155925 14.0317672 3.47051975 15.8098129 3.53488565 14.3760499 4.59330561"></polygon>
                        <polygon fill="#FFFFFF" points="6.47126819 23.3320166 4.02910603 21.5271518 1.49738046 23.2016632 2.45076923 20.3094387 0.0840748441 18.4062786 3.11476091 18.4236175 4.18328482 15.5728067 5.10449064 18.4756341 8.13068607 18.6169647 5.66981289 20.3936383"></polygon>
                        <polygon fill="#FF0000" points="5.49180873 21.8708108 4.04731809 20.8261123 2.57089397 21.8249064 3.11351351 20.1209563 1.71168399 19.0178794 3.49222453 19.0093971 4.10245322 17.3288981 4.66004158 19.0278586 6.43808732 19.0922245 5.00432432 20.1506445"></polygon>
                        <g transform="translate(19.209979, 13.970894)">
                            <polygon fill="#FFFFFF" points="6.44070686 7.82781705 3.99879418 6.02295218 1.46694387 7.69746362 2.4202079 4.80523909 0.0536382536 2.90220374 3.08419958 2.91941788 4.15284823 0.0687318087 5.07392931 2.97143451 8.10012474 3.11276507 5.6393763 4.88956341"></polygon>
                            <polygon fill="#FF0000" points="5.46137214 6.36673597 4.0168815 5.32191268 2.54045738 6.32070686 3.08307692 4.61675676 1.6812474 3.51367983 3.46178794 3.50532225 4.07201663 1.82482328 4.62948025 3.52365904 6.40752599 3.58802495 4.97376299 4.64656965"></polygon>
                        </g>
                        <g transform="translate(9.230769, 36.049896)">
                            <polygon fill="#FFFFFF" points="6.39430353 7.87983368 3.95226611 6.07509356 1.42054054 7.74948025 2.37380457 4.85738046 0.00711018711 2.95422037 3.03779626 2.97143451 4.10632017 0.120748441 5.02752599 3.02345114 8.05372141 3.16490644 5.59284823 4.94158004"></polygon>
                            <polygon fill="#FF0000" points="5.41496881 6.4187526 3.97035343 5.37405405 2.49392931 6.37284823 3.03654886 4.66889813 1.63471933 3.56569647 3.41525988 3.55733888 4.02561331 1.87683992 4.58295218 3.57580042 6.36112266 3.64016632 4.92735967 4.69858628"></polygon>
                        </g>
                    </g>
                </g>
            </g>
        </g>
    </g>
</svg>