<?xml version="1.0" encoding="UTF-8" standalone="no"?>
<svg width="122px" height="60px" viewBox="0 0 122 60" version="1.1" xmlns="http://www.w3.org/2000/svg" xmlns:xlink="http://www.w3.org/1999/xlink">
    <!-- Generator: Sketch 3.8.2 (29753) - http://www.bohemiancoding.com/sketch -->
    <title>au</title>
    <desc>Created with Sketch.</desc>
    <defs></defs>
    <g id="Page-1" stroke="none" stroke-width="1" fill="none" fill-rule="evenodd">
        <g id="au">
            <g id="Group">
                <g>
                    <polygon id="Shape" fill="#000066" points="0 0 122 0 122 60 0 60"></polygon>
                    <g id="Group-2">
                        <path d="M0,0 L0,3.49375 L38.8593703,31.25 L43.7506313,31.25 L43.7506313,27.75625 L4.89126094,0 L0,0 L0,0 Z M43.7506313,0 L43.7506313,3.49375 L4.89126094,31.25 L0,31.25 L0,27.75625 L38.8593703,0 L43.7506313,0 L43.7506313,0 Z" id="Shape" fill="#FFFFFF"></path>
                        <path d="M18.2294297,10.416625 L18.2294297,0 L18.2293031,0 L25.5212016,0 L25.5212016,10.416625 L43.7506313,10.416625 L43.7506313,20.83325 L25.5212016,20.83325 L25.5212016,31.25 L18.2294297,31.25 L18.2294297,20.83325 L0,20.83325 L0,10.416625 L18.2294297,10.416625 Z" id="Shape" fill="#FFFFFF"></path>
                        <path d="M19.6878094,18.75 L0,18.75 L0,12.5 L19.6878094,12.5 L19.6878094,0 L24.0628219,0 L24.0628219,12.5 L43.7506313,12.5 L43.7506313,18.75 L24.0628219,18.75 L24.0628219,31.25 L19.6878094,31.25 L19.6878094,18.75 Z M0,31.25 L14.5835438,20.83325 L17.8444266,20.83325 L3.26088281,31.25 L0,31.25 L0,31.25 Z M0,0 L14.5835438,10.416625 L11.3226609,10.416625 L0,2.329125 L0,0 L0,0 Z M25.9060781,10.416625 L40.489875,0 L43.7506313,0 L29.1670875,10.416625 L25.9060781,10.416625 L25.9060781,10.416625 Z M43.7507578,31.25 L29.1672141,20.83325 L32.4280969,20.83325 L43.7508844,28.92075 L43.7508844,31.25 L43.7507578,31.25 Z" id="Shape" fill="#CC0000"></path>
                    </g>
                    <path d="M37.9386281,49.065375 L32.4137953,49.53975 L33.1748156,54.9655 L29.3542734,50.995 L25.5338578,54.9655 L26.2950047,49.53975 L20.7701719,49.065375 L25.5390469,46.269875 L22.4706656,41.708 L27.6559313,43.64725 L29.3544,38.433125 L31.0528688,43.647125 L36.2381344,41.70775 L33.1700063,46.2695 M61.5762,54.066 L60.2426109,52.08425 L62.4966891,52.927 L63.2337891,50.661375 L63.9710156,52.927125 L66.2247141,52.084375 L64.891125,54.066125 L66.9629531,55.280875 L64.5626953,55.487125 L64.8937828,57.843375 L63.2337891,56.11925 L61.5736688,57.8435 L61.9047563,55.48725 L59.504625,55.281 M61.5762,18.804125 L60.2426109,16.822125 L62.4966891,17.664875 L63.2337891,15.399625 L63.9710156,17.664625 L66.2247141,16.822125 L64.891125,18.804 L66.9629531,20.018625 L64.5626953,20.224875 L64.8937828,22.581125 L63.2337891,20.857 L61.5736688,22.58125 L61.9047563,20.225 L59.504625,20.01875 M48.1876594,33.129125 L46.8540703,31.1475 L49.1078953,31.99025 L49.8451219,29.724625 L50.5823484,31.99025 L52.8361734,31.1475 L51.5027109,33.129125 L53.5745391,34.344125 L51.1742812,34.550375 L51.5052422,36.906625 L49.8451219,35.18225 L48.1850016,36.906625 L48.5162156,34.550375 L46.1160844,34.344125 M73.4804156,29.603 L72.1441688,27.62125 L74.3997656,28.464 L75.13155,26.198375 L75.8724469,28.464 L78.1217156,27.62125 L76.7917969,29.603 L78.8626125,30.81775 L76.4617219,31.024 L76.7917969,33.38025 L75.13155,31.656125 L73.4714297,33.38025 L73.8017578,31.024 L71.4051703,30.81775 M68.5890281,39.992 L67.2769547,40.795125 L67.6457578,39.315125 L66.4667016,38.33225 L68.0063344,38.22025 L68.5891547,36.809 L69.1721016,38.22025 L70.7117344,38.332375 L69.5325516,39.31525 L69.9011016,40.79525" id="Shape" fill="#FFFFFF"></path>
                </g>
            </g>
        </g>
    </g>
</svg>