<?xml version="1.0" encoding="UTF-8" standalone="no"?>
<svg width="122px" height="60px" viewBox="0 0 122 60" version="1.1" xmlns="http://www.w3.org/2000/svg" xmlns:xlink="http://www.w3.org/1999/xlink">
    <!-- Generator: Sketch 3.8.2 (29753) - http://www.bohemiancoding.com/sketch -->
    <title>dm</title>
    <desc>Created with Sketch.</desc>
    <defs></defs>
    <g id="Page-1" stroke="none" stroke-width="1" fill="none" fill-rule="evenodd">
        <g id="dm">
            <g transform="translate(0.000000, -50.000000)">
                <g id="Group-2" transform="translate(0.000000, 50.000000)">
                    <rect id="Rectangle-61" fill="#108C00" x="0" y="0" width="122" height="60"></rect>
                    <rect id="Rectangle-61-Copy" fill="#FFD600" x="0" y="20" width="122" height="6"></rect>
                    <rect id="Rectangle-61-Copy-2" fill="#000000" x="0" y="26" width="122" height="6"></rect>
                    <rect id="Rectangle-61-Copy-3" fill="#FFFFFF" x="0" y="32" width="122" height="6"></rect>
                </g>
                <g id="Group" transform="translate(52.000000, 0.000000)">
                    <rect id="Rectangle-61-Copy-4" fill="#FFD600" transform="translate(15.000000, 61.000000) rotate(90.000000) translate(-15.000000, -61.000000) " x="-46" y="58" width="122" height="6"></rect>
                    <rect id="Rectangle-61-Copy-5" fill="#000000" transform="translate(9.000000, 67.000000) rotate(90.000000) translate(-9.000000, -67.000000) " x="-52" y="64" width="122" height="6"></rect>
                    <rect id="Rectangle-61-Copy-6" fill="#FFFFFF" transform="translate(3.000000, 73.000000) rotate(90.000000) translate(-3.000000, -73.000000) " x="-58" y="70" width="122" height="6"></rect>
                </g>
                <g id="Clipped" transform="translate(44.000000, 63.000000)">
                    <g id="Group" transform="translate(0.824660, 0.000000)">
                        <rect id="Rectangle-path" fill="#E72910" transform="translate(16.497401, 16.725374) scale(-1, -1) translate(-16.497401, -16.725374) " x="0.501994701" y="0.779967105" width="31.9908118" height="31.8908141" rx="15.9454071"></rect>
                        <g transform="translate(13.612677, 0.914474)" id="Shape">
                            <path d="M2.04624334,1.96194079 C2.04624334,1.93202467 2.70183587,0.107025493 2.70183587,0.107025493 L3.29759535,1.93214063 C3.29759535,1.93214063 5.29358829,1.99185691 5.29358829,1.96194079 C5.29358829,1.93202467 3.7147906,3.15858553 3.7147906,3.15858553 C3.7147906,3.15858553 4.45954838,5.25294572 4.42974872,5.19311349 C4.39994906,5.13328125 2.70171901,3.93652056 2.70171901,3.93652056 C2.70171901,3.93652056 0.973689293,5.1331653 1.00348895,5.1331653 C1.03328861,5.1331653 1.65884776,3.15846957 1.65884776,3.15846957 L0.109732867,1.991625 L2.04612648,1.96170888 L2.04624334,1.96194079 Z" fill="#000000"></path>
                            <path d="M2.13552546,2.05470395 C2.13552546,2.02873026 2.70312135,0.448162007 2.70312135,0.448162007 L3.21929821,2.02861431 C3.21929821,2.02861431 4.94814595,2.08056168 4.94814595,2.05470395 C4.94814595,2.02884622 3.58086742,3.09110033 3.58086742,3.09110033 C3.58086742,3.09110033 4.22594242,4.90496793 4.19999918,4.85313651 C4.17428967,4.8013051 2.70335507,3.76479276 2.70335507,3.76479276 C2.70335507,3.76479276 1.20694467,4.80142105 1.23277105,4.80142105 C1.25859742,4.80142105 1.80036693,3.09110033 1.80036693,3.09110033 L0.458797908,2.08044572 L2.13575918,2.05458799 L2.13552546,2.05470395 Z" fill="#FFE700"></path>
                            <path d="M2.3755588,2.31757155 C2.3755588,2.30249753 2.70277076,1.39109951 2.70277076,1.39109951 L3.00041678,2.30249753 C3.00041678,2.30249753 3.99724463,2.33264556 3.99724463,2.31757155 C3.99724463,2.30249753 3.20878068,2.91519819 3.20878068,2.91519819 C3.20878068,2.91519819 3.5806337,3.9611028 3.5657923,3.93118668 C3.5509509,3.90138651 2.70288762,3.30387582 2.70288762,3.30387582 C2.70288762,3.30387582 1.83986609,3.90138651 1.85482435,3.90138651 C1.86978261,3.90138651 2.1820363,2.91531414 2.1820363,2.91531414 L1.40841375,2.33264556 L2.37544194,2.31757155 L2.3755588,2.31757155 Z" fill="#108C00"></path>
                        </g>
                        <g transform="translate(26.116848, 9.611020)" id="Shape">
                            <path d="M1.97203635,1.94802632 C1.97203635,1.9181102 2.62739515,0.0931110197 2.62739515,0.0931110197 L3.22338836,1.91822615 C3.22338836,1.91822615 5.21938129,1.97794243 5.21938129,1.94802632 C5.21938129,1.9181102 3.64034988,3.14467105 3.64034988,3.14467105 C3.64034988,3.14467105 4.38534139,5.23903125 4.35554173,5.17919901 C4.32574207,5.11936678 2.62751201,3.92260609 2.62751201,3.92260609 C2.62751201,3.92260609 0.899599158,5.11925082 0.929515679,5.11925082 C0.959432201,5.11925082 1.58475762,3.1445551 1.58475762,3.1445551 L0.035642731,1.97771053 L1.97203635,1.94779441 L1.97203635,1.94802632 Z" fill="#000000"></path>
                            <path d="M2.0612016,2.04078947 C2.0612016,2.01481579 2.62879749,0.434247533 2.62879749,0.434247533 L3.14485749,2.01469984 C3.14485749,2.01469984 4.87382209,2.0666472 4.87382209,2.04078947 C4.87382209,2.01493174 3.50630984,3.07718586 3.50630984,3.07718586 C3.50630984,3.07718586 4.15138484,4.89105345 4.12567533,4.83922204 C4.09973209,4.78739062 2.62891435,3.75087829 2.62891435,3.75087829 C2.62891435,3.75087829 1.13238709,4.78750658 1.15821346,4.78750658 C1.18403984,4.78750658 1.72580935,3.07718586 1.72580935,3.07718586 L0.384240326,2.06653125 L2.0612016,2.04067352 L2.0612016,2.04078947 Z" fill="#FFE700"></path>
                            <path d="M2.30123495,2.30365707 C2.30123495,2.28858306 2.6284469,1.37718503 2.6284469,1.37718503 L2.92609292,2.28858306 C2.92609292,2.28858306 3.92292077,2.31873109 3.92292077,2.30365707 C3.92292077,2.28858306 3.13433996,2.90128372 3.13433996,2.90128372 C3.13433996,2.90128372 3.50619298,3.94718832 3.49135158,3.9172722 C3.47651018,3.88747204 2.6284469,3.28996135 2.6284469,3.28996135 C2.6284469,3.28996135 1.76554223,3.88747204 1.78050049,3.88747204 C1.79545875,3.88747204 2.10771245,2.90139967 2.10771245,2.90139967 L1.33408989,2.31873109 L2.30111808,2.30365707 L2.30123495,2.30365707 Z" fill="#108C00"></path>
                        </g>
                        <g transform="translate(22.494144, 23.409539)" id="Shape">
                            <path d="M1.97203635,1.93063322 C1.97203635,1.90071711 2.62739515,0.0757179276 2.62739515,0.0757179276 L3.22338836,1.90083306 C3.22338836,1.90083306 5.21938129,1.96054934 5.21938129,1.93063322 C5.21938129,1.90071711 3.64034988,3.12727796 3.64034988,3.12727796 C3.64034988,3.12727796 4.38534139,5.22163816 4.35554173,5.16180592 C4.32574207,5.10197368 2.62751201,3.90521299 2.62751201,3.90521299 C2.62751201,3.90521299 0.899482296,5.10197368 0.929398818,5.10197368 C0.95931534,5.10197368 1.58464076,3.12727796 1.58464076,3.12727796 L0.0355258696,1.96043339 L1.97191948,1.93051727 L1.97203635,1.93063322 Z" fill="#000000"></path>
                            <path d="M2.0612016,2.02339638 C2.0612016,1.9974227 2.62879749,0.416854441 2.62879749,0.416854441 L3.14485749,1.99730674 C3.14485749,1.99730674 4.87382209,2.04925411 4.87382209,2.02339638 C4.87382209,1.99753865 3.50630984,3.05979276 3.50630984,3.05979276 C3.50630984,3.05979276 4.15138484,4.87366036 4.12567533,4.82182895 C4.09973209,4.76999753 2.62891435,3.7334852 2.62891435,3.7334852 C2.62891435,3.7334852 1.13238709,4.77011349 1.15821346,4.77011349 C1.18403984,4.77011349 1.72580935,3.05979276 1.72580935,3.05979276 L0.384240326,2.04913816 L2.0612016,2.02328043 L2.0612016,2.02339638 Z" fill="#FFE700"></path>
                            <path d="M2.30123495,2.28626398 C2.30123495,2.27118997 2.6284469,1.35979194 2.6284469,1.35979194 L2.92609292,2.27118997 C2.92609292,2.27118997 3.92292077,2.30133799 3.92292077,2.28626398 C3.92292077,2.27118997 3.13433996,2.88389063 3.13433996,2.88389063 C3.13433996,2.88389063 3.50619298,3.92979523 3.49135158,3.89987911 C3.47651018,3.87007895 2.6284469,3.27256826 2.6284469,3.27256826 C2.6284469,3.27256826 1.76554223,3.87007895 1.78050049,3.87007895 C1.79545875,3.87007895 2.10771245,2.88400658 2.10771245,2.88400658 L1.33408989,2.30133799 L2.30111808,2.28626398 L2.30123495,2.28626398 Z" fill="#108C00"></path>
                        </g>
                        <g transform="translate(5.081793, 23.409539)" id="Shape">
                            <path d="M2.00615988,1.93063322 C2.00615988,1.90071711 2.66151868,0.0757179276 2.66151868,0.0757179276 L3.25751189,1.90083306 C3.25751189,1.90083306 5.25350482,1.96054934 5.25350482,1.93063322 C5.25350482,1.90071711 3.67447341,3.12727796 3.67447341,3.12727796 C3.67447341,3.12727796 4.41934806,5.22163816 4.38966526,5.16180592 C4.35974874,5.10197368 2.66151868,3.90521299 2.66151868,3.90521299 C2.66151868,3.90521299 0.93372269,5.10197368 0.963522351,5.10197368 C0.993322011,5.10197368 1.61876429,3.12727796 1.61876429,3.12727796 L0.0696494022,1.96043339 L2.00604302,1.93051727 L2.00615988,1.93063322 Z" fill="#000000"></path>
                            <path d="M2.09532514,2.02339638 C2.09532514,1.9974227 2.66292102,0.416854441 2.66292102,0.416854441 L3.17898102,1.99730674 C3.17898102,1.99730674 4.90782876,2.04925411 4.90782876,2.02339638 C4.90782876,1.99753865 3.54031651,3.05979276 3.54031651,3.05979276 C3.54031651,3.05979276 4.18539151,4.87366036 4.159682,4.82182895 C4.13373876,4.76999753 2.66292102,3.7334852 2.66292102,3.7334852 C2.66292102,3.7334852 1.16639376,4.77011349 1.19222014,4.77011349 C1.21804651,4.77011349 1.75981602,3.05979276 1.75981602,3.05979276 L0.418013274,2.04913816 L2.09520827,2.02328043 L2.09532514,2.02339638 Z" fill="#FFE700"></path>
                            <path d="M2.33535848,2.28626398 C2.33535848,2.27118997 2.66257043,1.35979194 2.66257043,1.35979194 L2.96021645,2.27118997 C2.96021645,2.27118997 3.95704431,2.30133799 3.95704431,2.28626398 C3.95704431,2.27118997 3.16869721,2.88389063 3.16869721,2.88389063 C3.16869721,2.88389063 3.54055023,3.92979523 3.52570883,3.89987911 C3.51075057,3.87007895 2.6626873,3.27256826 2.6626873,3.27256826 C2.6626873,3.27256826 1.79978262,3.87007895 1.81474088,3.87007895 C1.82969914,3.87007895 2.14195284,2.88400658 2.14195284,2.88400658 L1.36833029,2.30133799 L2.33524162,2.28626398 L2.33535848,2.28626398 Z" fill="#108C00"></path>
                        </g>
                        <g transform="translate(1.926535, 9.263158)" id="Shape">
                            <path d="M1.98781264,1.94106908 C1.98781264,1.91115296 2.64317144,0.0861537829 2.64317144,0.0861537829 L3.23916465,1.91126891 C3.23916465,1.91126891 5.23515758,1.9709852 5.23515758,1.94106908 C5.23515758,1.91115296 3.65612617,3.13771382 3.65612617,3.13771382 C3.65612617,3.13771382 4.40100082,5.23207401 4.37131802,5.17224178 C4.34140149,5.11240954 2.64317144,3.91564885 2.64317144,3.91564885 C2.64317144,3.91564885 0.915258587,5.11229359 0.945175109,5.11229359 C0.97509163,5.11229359 1.60041705,3.13759786 1.60041705,3.13759786 L0.0513021603,1.97075329 L1.98769577,1.94083717 L1.98781264,1.94106908 Z" fill="#000000"></path>
                            <path d="M2.07697789,2.03383224 C2.07697789,2.00785855 2.64457378,0.427290296 2.64457378,0.427290296 L3.16063378,2.0077426 C3.16063378,2.0077426 4.88948152,2.05968997 4.88948152,2.03383224 C4.88948152,2.00797451 3.52196927,3.07022862 3.52196927,3.07022862 C3.52196927,3.07022862 4.16704427,4.88409622 4.14133476,4.8322648 C4.11539152,4.78043339 2.64457378,3.74392105 2.64457378,3.74392105 C2.64457378,3.74392105 1.14804652,4.78054934 1.17387289,4.78054934 C1.19969927,4.78054934 1.74146878,3.07022862 1.74146878,3.07022862 L0.399899755,2.05957401 L2.07686103,2.03371628 L2.07697789,2.03383224 Z" fill="#FFE700"></path>
                            <path d="M2.31701124,2.29669984 C2.31701124,2.28162582 2.64422319,1.3702278 2.64422319,1.3702278 L2.94186921,2.28162582 C2.94186921,2.28162582 3.93869707,2.31177385 3.93869707,2.29669984 C3.93869707,2.28162582 3.15023311,2.89432648 3.15023311,2.89432648 C3.15023311,2.89432648 3.52208613,3.94023109 3.50724473,3.91031497 C3.49240333,3.8805148 2.64434005,3.28300411 2.64434005,3.28300411 C2.64434005,3.28300411 1.78143538,3.8805148 1.79639364,3.8805148 C1.8113519,3.8805148 2.1236056,2.89444243 2.1236056,2.89444243 L1.34998304,2.31177385 L2.31701124,2.29669984 L2.31701124,2.29669984 Z" fill="#108C00"></path>
                        </g>
                        <g transform="translate(20.974946, 3.929276)" id="Shape">
                            <path d="M3.34398933,3.26294408 C3.34398933,3.2928602 2.68863053,5.11785937 2.68863053,5.11785937 L2.09263732,3.29274424 C2.09263732,3.29274424 0.0966443886,3.23302796 0.0966443886,3.26294408 C0.0966443886,3.2928602 1.6756758,2.06629934 1.6756758,2.06629934 C1.6756758,2.06629934 0.930684293,-0.0280608553 0.960483954,0.0317713816 C0.990283614,0.0916036184 2.68851367,1.28836431 2.68851367,1.28836431 C2.68851367,1.28836431 4.41642652,0.0917195724 4.38651,0.0917195724 C4.35659348,0.0917195724 3.73126806,2.0664153 3.73126806,2.0664153 L5.28038295,3.23325987 L3.34398933,3.26317599 L3.34398933,3.26294408 Z" fill="#000000"></path>
                            <path d="M3.25482408,3.17018092 C3.25482408,3.19615461 2.68722819,4.77672286 2.68722819,4.77672286 L2.17116819,3.19627056 C2.17116819,3.19627056 0.442203587,3.14432319 0.442203587,3.17018092 C0.442203587,3.19603865 1.80971584,2.13378454 1.80971584,2.13378454 C1.80971584,2.13378454 1.16464084,0.319916941 1.19035035,0.371748355 C1.21629359,0.42357977 2.68711133,1.46009211 2.68711133,1.46009211 C2.68711133,1.46009211 4.18363859,0.423463816 4.15781221,0.423463816 C4.13198584,0.423463816 3.59021633,2.13378454 3.59021633,2.13378454 L4.93178535,3.14443914 L3.25482408,3.17029688 L3.25482408,3.17018092 Z" fill="#FFE700"></path>
                            <path d="M3.01479073,2.90731332 C3.01479073,2.92238734 2.68757878,3.83378536 2.68757878,3.83378536 L2.38993276,2.92238734 C2.38993276,2.92238734 1.3931049,2.89223931 1.3931049,2.90731332 C1.3931049,2.92238734 2.18168572,2.30968668 2.18168572,2.30968668 C2.18168572,2.30968668 1.8098327,1.26378207 1.8246741,1.29369819 C1.8395155,1.32349836 2.68757878,1.92100905 2.68757878,1.92100905 C2.68757878,1.92100905 3.55048345,1.32349836 3.53552519,1.32349836 C3.52056693,1.32349836 3.20831323,2.30957072 3.20831323,2.30957072 L3.98193579,2.89223931 L3.0149076,2.90731332 L3.01479073,2.90731332 Z" fill="#108C00"></path>
                        </g>
                        <g transform="translate(25.999986, 17.379934)" id="Shape">
                            <path d="M3.30893091,3.27917763 C3.30893091,3.30909375 2.65357211,5.13409293 2.65357211,5.13409293 L2.0575789,3.3089778 C2.0575789,3.3089778 0.0615859647,3.24926151 0.0615859647,3.27917763 C0.0615859647,3.30909375 1.64061738,2.08253289 1.64061738,2.08253289 C1.64061738,2.08253289 0.89562587,-0.0118273026 0.92542553,0.0480049342 C0.95522519,0.107837171 2.65345524,1.30459786 2.65345524,1.30459786 C2.65345524,1.30459786 4.3813681,0.107953125 4.35145158,0.107953125 C4.32153505,0.107953125 3.69620963,2.08264885 3.69620963,2.08264885 L5.24532452,3.24949342 L3.30893091,3.27940954 L3.30893091,3.27917763 Z" fill="#000000"></path>
                            <path d="M3.21976565,3.18641447 C3.21976565,3.21238816 2.65216977,4.79295641 2.65216977,4.79295641 L2.13610977,3.21250411 C2.13610977,3.21250411 0.407145163,3.16055674 0.407145163,3.18641447 C0.407145163,3.2122722 1.77465742,2.15001809 1.77465742,2.15001809 C1.77465742,2.15001809 1.12958242,0.336150493 1.15529193,0.387981908 C1.18123516,0.439813322 2.65205291,1.47632566 2.65205291,1.47632566 C2.65205291,1.47632566 4.14858016,0.439697368 4.12275379,0.439697368 C4.09692742,0.439697368 3.55515791,2.15001809 3.55515791,2.15001809 L4.89672693,3.1606727 L3.21976565,3.18653043 L3.21976565,3.18641447 Z" fill="#FFE700"></path>
                            <path d="M2.97973231,2.92354688 C2.97973231,2.93862089 2.65252035,3.85001891 2.65252035,3.85001891 L2.35487433,2.93862089 C2.35487433,2.93862089 1.35804648,2.90847286 1.35804648,2.92354688 C1.35804648,2.93862089 2.1466273,2.32592023 2.1466273,2.32592023 C2.1466273,2.32592023 1.77477428,1.28001563 1.78961568,1.30993174 C1.80445708,1.33973191 2.65252035,1.9372426 2.65252035,1.9372426 C2.65252035,1.9372426 3.51542503,1.33973191 3.50046677,1.33973191 C3.48550851,1.33973191 3.17325481,2.32580428 3.17325481,2.32580428 L3.94687736,2.90847286 L2.97984917,2.92354688 L2.97973231,2.92354688 Z" fill="#108C00"></path>
                        </g>
                        <g transform="translate(13.612677, 27.236020)" id="Shape">
                            <path d="M3.32178567,3.27569901 C3.32178567,3.30561513 2.66642686,5.13061431 2.66642686,5.13061431 L2.07043365,3.30549918 C2.07043365,3.30549918 0.0744407201,3.24578289 0.0744407201,3.27569901 C0.0744407201,3.30561513 1.65347213,2.07905428 1.65347213,2.07905428 C1.65347213,2.07905428 0.908480625,-0.0153059211 0.938280285,0.0445263158 C0.968079946,0.104358553 2.66631,1.30111924 2.66631,1.30111924 C2.66631,1.30111924 4.39422285,0.104474507 4.36430633,0.104474507 C4.33438981,0.104474507 3.70906439,2.07917023 3.70906439,2.07917023 L5.25817928,3.2460148 L3.32178567,3.27593092 L3.32178567,3.27569901 Z" fill="#000000"></path>
                            <path d="M3.23262041,3.18293586 C3.23262041,3.20890954 2.66502452,4.7894778 2.66502452,4.7894778 L2.14896452,3.20902549 C2.14896452,3.20902549 0.419999918,3.15707813 0.419999918,3.18293586 C0.419999918,3.20879359 1.78751217,2.14653947 1.78751217,2.14653947 C1.78751217,2.14653947 1.14243717,0.332671875 1.16814668,0.384503289 C1.19408992,0.436334704 2.66490766,1.47284704 2.66490766,1.47284704 C2.66490766,1.47284704 4.16143492,0.43621875 4.13560855,0.43621875 C4.10978217,0.43621875 3.56801266,2.14653947 3.56801266,2.14653947 L4.90958168,3.15719408 L3.23262041,3.18305181 L3.23262041,3.18293586 Z" fill="#FFE700"></path>
                            <path d="M2.99258707,2.92006826 C2.99258707,2.93514227 2.66537511,3.8465403 2.66537511,3.8465403 L2.36772909,2.93514227 C2.36772909,2.93514227 1.37090124,2.90499424 1.37090124,2.92006826 C1.37090124,2.93514227 2.15948205,2.32244161 2.15948205,2.32244161 C2.15948205,2.32244161 1.78762904,1.27653701 1.80247043,1.30645312 C1.81731183,1.33625329 2.66537511,1.93376398 2.66537511,1.93376398 C2.66537511,1.93376398 3.52827978,1.33625329 3.51332152,1.33625329 C3.49836326,1.33625329 3.18610957,2.32232566 3.18610957,2.32232566 L3.95973212,2.90499424 L2.99270393,2.92006826 L2.99258707,2.92006826 Z" fill="#108C00"></path>
                        </g>
                        <g transform="translate(2.043397, 17.379934)" id="Shape">
                            <path d="M3.26452357,3.27917763 C3.26452357,3.30909375 2.60916477,5.13409293 2.60916477,5.13409293 L2.01317156,3.3089778 C2.01317156,3.3089778 0.0171786277,3.24926151 0.0171786277,3.27917763 C0.0171786277,3.30909375 1.59621004,2.08253289 1.59621004,2.08253289 C1.59621004,2.08253289 0.851218533,-0.0118273026 0.881018193,0.0480049342 C0.910817853,0.107837171 2.60904791,1.30459786 2.60904791,1.30459786 C2.60904791,1.30459786 4.33696076,0.107953125 4.30704424,0.107953125 C4.27712772,0.107953125 3.6518023,2.08264885 3.6518023,2.08264885 L5.20091719,3.24949342 L3.26452357,3.27940954 L3.26452357,3.27917763 Z" fill="#000000"></path>
                            <path d="M3.17535832,3.18641447 C3.17535832,3.21238816 2.60776243,4.79295641 2.60776243,4.79295641 L2.09170243,3.21250411 C2.09170243,3.21250411 0.362737826,3.16055674 0.362737826,3.18641447 C0.362737826,3.2122722 1.73025008,2.15001809 1.73025008,2.15001809 C1.73025008,2.15001809 1.08517508,0.336150493 1.11088459,0.387981908 C1.13682783,0.439813322 2.60764557,1.47632566 2.60764557,1.47632566 C2.60764557,1.47632566 4.10417283,0.439697368 4.07834645,0.439697368 C4.05252008,0.439697368 3.51075057,2.15001809 3.51075057,2.15001809 L4.85231959,3.1606727 L3.17535832,3.18653043 L3.17535832,3.18641447 Z" fill="#FFE700"></path>
                            <path d="M2.93532497,2.92354688 C2.93532497,2.93862089 2.60811302,3.85001891 2.60811302,3.85001891 L2.310467,2.93862089 C2.310467,2.93862089 1.31363914,2.90847286 1.31363914,2.92354688 C1.31363914,2.93862089 2.10221996,2.32592023 2.10221996,2.32592023 C2.10221996,2.32592023 1.73036694,1.28001563 1.74520834,1.30993174 C1.76004974,1.33973191 2.60811302,1.9372426 2.60811302,1.9372426 C2.60811302,1.9372426 3.47101769,1.33973191 3.45605943,1.33973191 C3.44110117,1.33973191 3.12884747,2.32580428 3.12884747,2.32580428 L3.90247003,2.90847286 L2.93544183,2.92354688 L2.93532497,2.92354688 Z" fill="#108C00"></path>
                        </g>
                        <g transform="translate(6.250408, 4.045230)" id="Shape">
                            <path d="M3.34866379,3.34527138 C3.34866379,3.3751875 2.69330499,5.20018668 2.69330499,5.20018668 L2.09731178,3.37507155 C2.09731178,3.37507155 0.101318845,3.31535526 0.101318845,3.34527138 C0.101318845,3.3751875 1.68035026,2.14862664 1.68035026,2.14862664 C1.68035026,2.14862664 0.93535875,0.0542664474 0.96515841,0.114098684 C0.994958071,0.173930921 2.69318813,1.37069161 2.69318813,1.37069161 C2.69318813,1.37069161 4.42110098,0.174046875 4.39118446,0.174046875 C4.36126793,0.174046875 3.73594251,2.1487426 3.73594251,2.1487426 L5.2850574,3.31558717 L3.34866379,3.34550329 L3.34866379,3.34527138 Z" fill="#000000"></path>
                            <path d="M3.25949853,3.25250822 C3.25949853,3.27848191 2.69190265,4.85905016 2.69190265,4.85905016 L2.17584265,3.27859786 C2.17584265,3.27859786 0.446878043,3.22665049 0.446878043,3.25250822 C0.446878043,3.27836595 1.8143903,2.21611184 1.8143903,2.21611184 C1.8143903,2.21611184 1.1693153,0.402244243 1.19502481,0.454075658 C1.22096804,0.505907072 2.69178579,1.54241941 2.69178579,1.54241941 C2.69178579,1.54241941 4.18831304,0.505791118 4.16248667,0.505791118 C4.1366603,0.505791118 3.59489079,2.21611184 3.59489079,2.21611184 L4.93645981,3.22676645 L3.25949853,3.25262418 L3.25949853,3.25250822 Z" fill="#FFE700"></path>
                            <path d="M3.01946519,2.98964062 C3.01946519,3.00471464 2.69225323,3.91611266 2.69225323,3.91611266 L2.39460721,3.00471464 C2.39460721,3.00471464 1.39777936,2.97456661 1.39777936,2.98964062 C1.39777936,3.00471464 2.18636018,2.39201398 2.18636018,2.39201398 C2.18636018,2.39201398 1.81450716,1.34610938 1.82934856,1.37602549 C1.84418996,1.40582566 2.69225323,2.00333635 2.69225323,2.00333635 C2.69225323,2.00333635 3.55515791,1.40582566 3.54019965,1.40582566 C3.52524139,1.40582566 3.21298769,2.39189803 3.21298769,2.39189803 L3.98661024,2.97456661 L3.01958205,2.98964062 L3.01946519,2.98964062 Z" fill="#108C00"></path>
                        </g>
                        <g transform="translate(13.004997, 8.417854)">
                            <g transform="translate(5.152085, 12.275468) rotate(-7.125016) translate(-5.152085, -12.275468) translate(3.652085, 7.275468)" stroke="#000000" id="Oval" stroke-width="0.1" fill="#009200">
                                <ellipse cx="0.863360589" cy="4.33790945" rx="0.845162843" ry="4.12034282"></ellipse>
                                <ellipse cx="1.94298278" cy="4.41019236" rx="0.905531618" ry="4.12034282"></ellipse>
                                <ellipse cx="1.51629577" cy="4.53311671" rx="0.724425294" ry="4.5323771"></ellipse>
                            </g>
                            <g transform="translate(0.104521, 11.962737)" stroke="#000000">
                                <path d="M0.0641709391,0.729341053 C0.792656941,0.689183882 0.468885385,0.327769342 0.833128386,0.126983487 C1.19749292,-0.0739229605 1.7236217,0.0466691447 1.88550748,0.287612171 C2.04739326,0.528555197 1.92597892,0.769498224 2.12833615,0.769498224 C2.33069337,0.769498224 7.82982686,0.463797237 8.03206255,0.664583092 C8.23441977,0.865368947 8.27489122,1.26706125 8.07253399,1.42756934 C7.87017677,1.58819803 0.914071275,1.7734275 0.671242608,1.61279882 C0.42841394,1.45217013 0.0641709391,0.769498224 0.0641709391,0.729341053 L0.0641709391,0.729341053 Z" id="Shape" stroke-width="0.1" fill="#A95600"></path>
                                <path d="M3.8719505,2.15329263 C3.8719505,2.63545605 4.70256309,2.48950342 4.72531461,2.89191928 C4.71211581,3.31889974 3.32693505,2.9337165 3.29176864,2.15329263 C3.32695328,1.37286876 4.66099783,0.972334145 4.69012997,1.4175602 C4.71284503,1.78759707 3.8719505,1.67112922 3.8719505,2.15329263 L3.8719505,2.15329263 Z" id="Shape" stroke-width="0.1" fill="#FFFF00"></path>
                                <path d="M4.35809398,2.15932224 C4.35809398,2.64148565 5.18870657,2.49553303 5.21145809,2.89794888 C5.19825929,3.32492935 3.81307853,2.93974611 3.77791212,2.15932224 C3.81309676,1.37889837 5.1471413,0.97836375 5.17627345,1.4235898 C5.19898851,1.79362668 4.35809398,1.67715882 4.35809398,2.15932224 L4.35809398,2.15932224 Z" id="Shape" stroke-width="0.5" fill="#FFFF00"></path>
                                <path d="M4.87948286,2.1400275 C4.87948286,2.62219091 5.71009545,2.47623829 5.73284697,2.87865414 C5.71964817,3.30563461 4.33446741,2.92045137 4.299301,2.1400275 C4.33448564,1.35960363 5.66853019,0.959069013 5.69766233,1.40429507 C5.72037739,1.77433194 4.87948286,1.65786409 4.87948286,2.1400275 L4.87948286,2.1400275 Z" id="Shape" stroke-width="0.5" fill="#FFFF00"></path>
                                <path d="M5.36562634,2.14605711 C5.36562634,2.62822052 6.19623893,2.48226789 6.21899045,2.88468375 C6.20579165,3.31166422 4.82061088,2.92648097 4.78544448,2.14605711 C4.82062911,1.36563324 6.15467366,0.965098618 6.18380581,1.41032467 C6.20652087,1.78036155 5.36562634,1.66389369 5.36562634,2.14605711 L5.36562634,2.14605711 Z" id="Shape" stroke-width="0.1" fill="#FFFF00"></path>
                                <ellipse id="Oval" stroke-width="0.1" fill="#A95600" transform="translate(7.713848, 3.135238) rotate(1.041627) translate(-7.713848, -3.135238) " cx="7.71384761" cy="3.13523797" rx="0.472536625" ry="0.472002539"></ellipse>
                            </g>
                            <g transform="translate(4.477293, 13.508464) rotate(-5.800000) translate(-4.477293, -13.508464) translate(2.977293, 11.008464)" stroke="#000000" id="Oval" fill="#009200">
                                <ellipse stroke-width="0.1" cx="1.75662998" cy="3.24771791" rx="0.43004009" ry="0.931704253"></ellipse>
                                <ellipse stroke-width="0.1" cx="1.05658337" cy="3.1210962" rx="0.43004009" ry="0.931704253"></ellipse>
                                <ellipse stroke-width="0.1" cx="0.643361416" cy="2.17444817" rx="0.43004009" ry="0.931704253"></ellipse>
                                <ellipse stroke-width="0.1" cx="1.17677019" cy="1.9754712" rx="0.404743614" ry="1.01905153"></ellipse>
                                <ellipse stroke-width="0.633792865" cx="2.1624261" cy="2.23836199" rx="0.404743614" ry="0.960820011"></ellipse>
                                <ellipse stroke-width="0.1" cx="1.6531908" cy="1.85970278" rx="0.404743614" ry="0.960820011"></ellipse>
                                <ellipse stroke-width="0.1" cx="1.0175582" cy="1.32306791" rx="0.404743614" ry="0.960820011"></ellipse>
                                <ellipse stroke-width="0.1" cx="0.412309574" cy="0.975762647" rx="0.404743614" ry="0.960820011"></ellipse>
                            </g>
                            <path d="M2.74306458,3.24730421 C2.74306458,3.24730421 1.32085183,4.45985783 1.51676765,7.7031825 C1.73249382,10.964596 4.73989891,12.4701884 4.73989891,12.4701884 C4.73989891,12.4701884 5.49244902,11.5365643 5.37565305,8.91561553 C5.12079233,5.08416316 3.69019361,3.40395336 3.69019361,3.40395336 L2.74306458,3.24730421 L2.74306458,3.24730421 Z" id="Shape" stroke="#000000" stroke-width="0.1" fill="#804BFF"></path>
                            <g transform="translate(5.053605, 13.533728) rotate(4.470000) translate(-5.053605, -13.533728) translate(3.053605, 11.033728)" stroke="#000000" id="Oval" stroke-width="0.1" fill="#009200">
                                <ellipse cx="2.74796636" cy="3.24720682" rx="0.43004009" ry="0.931704253"></ellipse>
                                <ellipse cx="2.04791976" cy="3.1205851" rx="0.43004009" ry="0.931704253"></ellipse>
                                <ellipse cx="1.6346978" cy="2.17393708" rx="0.43004009" ry="0.931704253"></ellipse>
                                <ellipse cx="2.16810658" cy="1.9749601" rx="0.404743614" ry="1.01905153"></ellipse>
                                <ellipse cx="3.15376248" cy="2.23785089" rx="0.404743614" ry="0.960820011"></ellipse>
                                <ellipse cx="2.64452719" cy="1.85919168" rx="0.404743614" ry="0.960820011"></ellipse>
                                <ellipse cx="2.00889459" cy="1.32255682" rx="0.404743614" ry="0.960820011"></ellipse>
                                <ellipse cx="1.40364596" cy="0.975251552" rx="0.404743614" ry="0.960820011"></ellipse>
                            </g>
                            <ellipse id="Oval" stroke="#000000" stroke-width="0.5" fill="#C90000" transform="translate(5.576528, 9.213394) rotate(-20.556045) translate(-5.576528, -9.213394) " cx="5.57652753" cy="9.21339361" rx="1.21036245" ry="3.63324496"></ellipse>
                            <g transform="translate(3.883413, 4.620679) rotate(1.020000) translate(-3.883413, -4.620679) translate(1.883413, 2.620679)" stroke="#000000" id="Oval" stroke-width="0.1" fill="#009200">
                                <ellipse cx="2.95597081" cy="3.31574171" rx="0.526153087" ry="0.466872336"></ellipse>
                                <ellipse cx="3.10102387" cy="2.66575026" rx="0.460383951" ry="0.466872336"></ellipse>
                                <ellipse cx="2.47268343" cy="2.66575026" rx="0.460383951" ry="0.466872336"></ellipse>
                                <ellipse cx="2.69662542" cy="1.67176983" rx="0.486691605" ry="0.420185102"></ellipse>
                                <ellipse cx="2.63221141" cy="1.13272312" rx="0.486691605" ry="0.420185102"></ellipse>
                                <ellipse cx="1.86621944" cy="2.31241539" rx="0.460383951" ry="0.466872336"></ellipse>
                                <ellipse cx="1.99626282" cy="1.98319895" rx="0.460383951" ry="0.466872336"></ellipse>
                                <ellipse cx="1.46107962" cy="1.75407395" rx="0.526153087" ry="0.466872336"></ellipse>
                                <ellipse cx="2.26395772" cy="0.46343694" rx="0.486691605" ry="0.420185102"></ellipse>
                                <ellipse cx="1.51984221" cy="1.3332075" rx="0.460383951" ry="0.466872336"></ellipse>
                                <ellipse cx="0.545124535" cy="1.7914575" rx="0.460383951" ry="0.466872336"></ellipse>
                                <ellipse cx="0.700690448" cy="1.7058371" rx="0.460383951" ry="0.466872336"></ellipse>
                                <ellipse cx="0.891501764" cy="1.32717789" rx="0.460383951" ry="0.466872336"></ellipse>
                            </g>
                            <g transform="translate(1.959398, 4.992513)" stroke="#000000" stroke-width="0.1" fill="#009200">
                                <ellipse id="Oval" transform="translate(3.701944, 4.965829) rotate(-17.020526) translate(-3.701944, -4.965829) " cx="3.70194364" cy="4.96582854" rx="1.51202515" ry="4.66977373"></ellipse>
                                <ellipse id="Oval" transform="translate(4.919750, 5.708745) rotate(-23.380000) translate(-4.919750, -5.708745) " cx="4.9197501" cy="5.70874469" rx="0.291416277" ry="0.983935105"></ellipse>
                                <path d="M4.82588962,5.71098108 C4.82588962,7.81831529 4.03178462,8.85935893 3.3630089,9.74172315 C3.68124368,8.55537258 3.90937685,7.81853452 3.90937685,5.71134645 C3.90937685,3.60401223 5.16182292,2.59340377 5.61910546,1.98495609 C5.4418238,2.59336723 4.82588962,3.60397569 4.82588962,5.71134645 L4.82588962,5.71098108 Z" id="Shape" transform="translate(4.491057, 5.863340) rotate(-13.749049) translate(-4.491057, -5.863340) "></path>
                                <path d="M4.90989521,7.01530529 C4.90989521,9.1226395 4.11579021,10.1636831 3.44701449,11.0460474 C3.76524927,9.85969679 3.99338245,9.12285873 3.99338245,7.01567066 C3.99338245,4.90833644 5.24582852,3.89772798 5.70311106,3.2892803 C5.52582939,3.89769144 4.90989521,4.9082999 4.90989521,7.01567066 L4.90989521,7.01530529 Z" id="Shape" transform="translate(4.575063, 7.167664) rotate(-13.749049) translate(-4.575063, -7.167664) "></path>
                                <path d="M5.01111798,8.0635657 C5.01111798,10.1759902 4.21691759,11.2195484 3.54806154,12.104044 C3.86633454,10.9148278 4.09449513,10.1762099 4.09449513,8.06393195 C4.09449513,5.95150749 5.34709164,4.93845791 5.80442911,4.32854054 C5.62712615,4.93842129 5.01111798,5.95147087 5.01111798,8.06393195 L5.01111798,8.0635657 Z" id="Shape" transform="translate(4.676245, 8.216292) rotate(-14.969551) translate(-4.676245, -8.216292) "></path>
                                <ellipse id="Oval" transform="translate(3.980514, 4.246598) rotate(-12.528808) translate(-3.980514, -4.246598) " cx="3.98051407" cy="4.24659793" rx="0.537345065" ry="1.75449728"></ellipse>
                                <ellipse id="Oval" transform="translate(3.606278, 5.012244) rotate(-8.031656) translate(-3.606278, -5.012244) " cx="3.6062779" cy="5.01224444" rx="0.479714035" ry="1.43063623"></ellipse>
                                <ellipse id="Oval" transform="translate(2.797444, 5.549388) rotate(-6.995192) translate(-2.797444, -5.549388) " cx="2.79744405" cy="5.54938821" rx="0.478570834" ry="1.42572163"></ellipse>
                                <ellipse id="Oval" transform="translate(3.359964, 3.301908) rotate(-8.746162) translate(-3.359964, -3.301908) " cx="3.35996431" cy="3.30190832" rx="0.383298269" ry="1.08719264"></ellipse>
                                <ellipse id="Oval" transform="translate(3.006124, 3.809111) rotate(-5.582606) translate(-3.006124, -3.809111) " cx="3.00612357" cy="3.80911148" rx="0.389430727" ry="1.08719264"></ellipse>
                                <path d="M2.94022325,3.33878509 C2.94022325,4.37752449 2.77210544,5.22070989 2.56488873,5.22070989 C2.35769706,5.22070989 2.18952916,4.37752449 2.18952916,3.33878509" id="Shape" transform="translate(2.564876, 4.279747) rotate(-25.893647) translate(-2.564876, -4.279747) "></path>
                                <ellipse id="Oval" transform="translate(2.969809, 2.684711) rotate(-5.582606) translate(-2.969809, -2.684711) " cx="2.96980865" cy="2.68471069" rx="0.389430727" ry="1.08719264"></ellipse>
                                <ellipse id="Oval" transform="translate(2.371019, 3.085344) rotate(-4.299863) translate(-2.371019, -3.085344) " cx="2.37101941" cy="3.08534419" rx="0.388677655" ry="1.08946101"></ellipse>
                                <path d="M2.38826997,1.99306578 C2.38826997,2.74993745 2.26809846,3.36431978 2.11997885,3.36431978 C1.97187714,3.36431978 1.85166982,2.74993745 1.85166982,1.99306578" id="Shape" transform="translate(2.119970, 2.678693) rotate(-35.049373) translate(-2.119970, -2.678693) "></path>
                                <path d="M2.64313068,1.57123459 C2.64313068,2.32810626 2.52295918,2.94248859 2.37483957,2.94248859 C2.22673785,2.94248859 2.10653054,2.32810626 2.10653054,1.57123459" id="Shape" transform="translate(2.374831, 2.256862) rotate(-35.049373) translate(-2.374831, -2.256862) "></path>
                                <path d="M3.88526361,1.8258054 C3.88526361,2.86958381 3.71828465,3.71685955 3.51247162,3.71685955 C3.30668348,3.71685955 3.13965475,2.86958381 3.13965475,1.8258054" id="Shape" transform="translate(3.512459, 2.771332) rotate(-34.249033) translate(-3.512459, -2.771332) "></path>
                                <path d="M3.03548726,1.20258921 C3.03548726,2.01699881 2.9109544,2.67808692 2.75745911,2.67808692 C2.60398239,2.67808692 2.47941242,2.01699881 2.47941242,1.20258921" id="Shape" transform="translate(2.757450, 1.940338) rotate(-37.815733) translate(-2.757450, -1.940338) "></path>
                            </g>
                            <g transform="translate(4.132220, 1.205921)" id="Shape" stroke="#000000" stroke-width="0.1" fill="#804BFF">
                                <path d="M0.990906252,2.37810043 C0.752151467,2.62148907 0.998879005,3.04517737 1.22468293,3.19204891 C1.47864428,3.39553603 2.90874227,4.73568574 3.87552609,3.51035901 C3.08223716,3.53245871 1.56809468,1.83409739 0.990945143,2.37810043 L0.990906252,2.37810043 Z"></path>
                                <path d="M0.820756034,1.66901886 C0.582001249,1.91240749 0.828728787,2.33609579 1.05453271,2.48296733 C1.30849406,2.68645445 2.73859206,4.02660416 3.70537587,2.80127743 C2.91208694,2.82337714 1.39794446,1.12501581 0.820794926,1.66901886 L0.820756034,1.66901886 Z"></path>
                                <path d="M0.604422187,0.991291224 C0.365667401,1.23467986 0.61239494,1.65836816 0.838198862,1.8052397 C1.09216022,2.00872682 2.52225821,3.34887653 3.48904202,2.12354979 C2.69575309,2.1456495 1.18161062,0.447288178 0.604461078,0.991291224 L0.604422187,0.991291224 Z"></path>
                                <path d="M0.134078371,0.215883987 C-0.104676414,0.459272621 0.142051124,0.882960924 0.367855047,1.02983246 C0.6218164,1.23331958 2.05191439,2.57346929 3.01869821,1.34814256 C2.22540928,1.37024227 0.7112668,-0.328119059 0.134117263,0.215883987 L0.134078371,0.215883987 Z"></path>
                            </g>
                            <g transform="translate(3.956209, 2.136475) rotate(1.020000) translate(-3.956209, -2.136475) translate(1.456209, 0.136475)">
                                <path d="M0.92226835,0.676940163 C1.46198947,0.405134239 2.32574652,0.457287634 2.89875866,0.928470468 C3.37866501,1.31017024 4.02185353,2.62247582 4.64193913,3.01987793 C4.14054111,3.02028345 3.86610707,2.88988869 3.59487075,2.67789584 C2.88175372,3.02573533 2.64973288,3.05463935 2.01113023,3.03001574 C1.12166745,2.9999853 0.462837349,2.63232076 0.321046839,2.1152925 C0.168225423,1.62408186 0.44315524,0.932593177 0.92226835,0.676917634 L0.92226835,0.676940163 Z" id="Shape" stroke="#000000" stroke-width="0.1" fill="#804BFF" transform="translate(2.460332, 1.774493) rotate(-11.309932) translate(-2.460332, -1.774493) "></path>
                                <ellipse id="Oval" stroke="#000000" stroke-width="0.5" fill="#FF0000" cx="2.02074992" cy="1.56050102" rx="0.430054674" ry="0.25"></ellipse>
                                <ellipse id="Oval" stroke="#000000" stroke-width="0.1" fill="#FFFF00" transform="translate(0.845097, 2.505663) rotate(-21.801409) translate(-0.845097, -2.505663) " cx="0.845096988" cy="2.50566284" rx="0.608781058" ry="0.352401509"></ellipse>
                                <ellipse id="Oval" fill="#000000" cx="1.45365211" cy="2.40457099" rx="0.25" ry="0.25"></ellipse>
                                <path d="M1.52275669,1.84908707 C1.57653631,2.02377197 1.44164365,2.26472464 1.12007189,2.35663512 C0.794659602,2.48371026 0.560034606,2.76018454 0.443846315,3.2057579 C-0.130349901,2.20947416 0.163001227,1.77524611 0.694210206,1.65880237 C1.14846267,1.52023722 1.42852993,1.52981706 1.52275669,1.84904848 L1.52275669,1.84908707 Z" id="Shape" stroke="#000000" stroke-width="0.1" fill="#FFFF00"></path>
                                <circle id="Oval" fill="#000000" cx="0.316027757" cy="2.97009973" r="0.25"></circle>
                            </g>
                        </g>
                    </g>
                </g>
                <ellipse id="Oval" stroke="#000000" stroke-width="0.1" fill="#FF0000" cx="61.5" cy="73.2752833" rx="0.5" ry="0.275283312"></ellipse>
            </g>
        </g>
    </g>
</svg>