<?xml version="1.0" encoding="UTF-8" standalone="no"?>
<svg width="122px" height="60px" viewBox="0 0 122 60" version="1.1" xmlns="http://www.w3.org/2000/svg" xmlns:xlink="http://www.w3.org/1999/xlink">
    <!-- Generator: Sketch 3.8.2 (29753) - http://www.bohemiancoding.com/sketch -->
    <title>jo</title>
    <desc>Created with Sketch.</desc>
    <defs></defs>
    <g id="Page-1" stroke="none" stroke-width="1" fill="none" fill-rule="evenodd">
        <g id="jo">
            <g id="Shape">
                <polygon fill="#000000" points="0 0 122 0 122 20 0 20"></polygon>
                <polygon fill="#FFFFFF" points="0 20 122 20 122 40 0 40"></polygon>
                <polygon fill="#009900" points="0 40 122 40 122 60 0 60"></polygon>
                <polygon fill="#FF0000" points="60.1320811 29.5082544 0 0 0 60"></polygon>
                <polygon fill="#FFFFFF" points="17.7351767 33.4174034 18.4026068 30.5470806 15.4037671 30.5470806 18.1055391 29.2697754 16.2358158 26.9684288 18.9378235 28.2463122 19.6052536 25.3759894 20.2723301 28.2463122 22.9743378 26.9684288 21.1047323 29.2697754 23.80674 30.5470806 20.8076646 30.5470806 21.4749769 33.4174034 19.6052536 31.1137438"></polygon>
            </g>
        </g>
    </g>
</svg>