<?xml version="1.0" encoding="UTF-8" standalone="no"?>
<svg width="122px" height="60px" viewBox="0 0 122 60" version="1.1" xmlns="http://www.w3.org/2000/svg" xmlns:xlink="http://www.w3.org/1999/xlink">
    <!-- Generator: Sketch 3.8.2 (29753) - http://www.bohemiancoding.com/sketch -->
    <title>tc</title>
    <desc>Created with Sketch.</desc>
    <defs></defs>
    <g id="Page-1" stroke="none" stroke-width="1" fill="none" fill-rule="evenodd">
        <g id="tc">
            <g id="Group">
                <g>
                    <polygon id="Shape" fill="#000066" points="122 60 122 0 0 0 0 60"></polygon>
                    <polygon id="Shape" fill="#000066" points="0 0 46.71 0 46.71 29.021 0 29.021"></polygon>
                    <g id="Shape">
                        <path d="M0,0 L0,3.244625 L41.487625,29.020875 L46.709875,29.020875 L46.709875,25.776375 L5.222125,0.000125 L0,0.000125 L0,0 Z M46.709875,0 L46.709875,3.2445 L5.222125,29.02075 L0,29.02075 L0,25.77625 L41.487625,0 L46.709875,0 L46.709875,0 Z" fill="#FFFFFF"></path>
                        <path d="M19.4625,9.6735 L19.4625,0 L27.2475,0 L27.2475,9.6735 L46.709875,9.6735 L46.709875,19.34725 L27.2475,19.34725 L27.2475,29.020875 L19.4625,29.020875 L19.4625,19.34725 L0,19.34725 L0,9.673625 L0,9.6735 L19.4625,9.6735 Z" fill="#FFFFFF"></path>
                        <path d="M21.019375,17.4125 L0,17.4125 L0,11.608375 L21.019375,11.608375 L21.019375,0 L25.690375,0 L25.690375,11.608375 L46.709875,11.608375 L46.709875,17.4125 L25.690375,17.4125 L25.690375,29.020875 L21.019375,29.020875 L21.019375,17.4125 Z M0,29.020875 L15.57,19.347125 L19.051375,19.347125 L3.481375,29.020875 L0,29.020875 L0,29.020875 Z M0,0 L15.57,9.673625 L12.0885,9.673625 L0,2.163125 L0,0 L0,0 Z M27.658375,9.673625 L43.228375,0 L46.709875,0 L31.139875,9.673625 L27.658375,9.673625 L27.658375,9.673625 Z M46.71,29.020875 L31.14,19.347125 L34.6215,19.347125 L46.71,26.85775 L46.71,29.020875 L46.71,29.020875 Z" fill="#CC0000"></path>
                    </g>
                    <g transform="translate(51.000000, 26.500000)" id="Shape">
                        <path d="M25.5675,0.05525 L25.5675,10.044 C25.5675,18.244875 22.34625,25.751875 12.790375,30.315125 C3.238375,25.751875 0.01675,18.245125 0.01675,10.044125 L0.01675,0.05525 L25.57225,0.05525 L25.5675,0.05525 Z" fill-opacity="0.996" fill="#FFFFFF"></path>
                        <path d="M24.711375,1.073125 L24.711375,10.39 C24.711375,18.039 21.706875,25.041125 12.793875,29.297 C3.8805,25.041 0.876375,18.039125 0.876375,10.39 L0.876375,1.073125 L24.712625,1.073125 L24.711375,1.073125 Z" fill-opacity="0.996" fill="#FDC300"></path>
                        <g transform="translate(2.500000, 2.250000)" stroke="#000000" stroke-width="0.1">
                            <path d="M4.745705,2.90663272 C4.56898172,2.76875218 4.35172547,2.69300529 4.12759438,2.69112705 C4.1847635,2.05829292 3.72496738,1.7851236 3.39416825,1.6697963 C3.06385775,1.55495767 2.94854225,1.4254588 2.89137313,1.16646105 C2.83371538,0.907951975 2.66123075,0.75010995 2.3592605,0.663614475 C2.05729025,0.577607675 1.798319,0.275606525 1.68349213,0.131936075 C1.56866525,-0.01222305 1.52517763,0.016608775 1.43917963,0.260946275 C1.352693,0.505283775 1.00772375,0.965615625 1.32386413,0.980275875 C1.09421038,1.16694972 0.96472475,1.3824554 1.1083805,1.67028497 C0.950066,1.79978385 0.835239125,1.9864577 1.05072275,2.05829292 C1.266695,2.13012815 1.32386413,2.1877918 1.33852288,2.24545545 C1.14453875,2.24545545 1.09421038,2.6334634 1.5540065,2.7194702 C1.45334975,2.73413045 1.41035075,3.05030317 1.59749413,3.05030317 C1.33852288,3.05030317 1.12255063,3.4387998 0.792240125,3.4387998 C0.461441,3.4387998 0.288956375,3.51063502 0.27478625,3.65430547 C0.2601275,3.79797592 0.087642875,3.9704782 0.001644875,4.04231342 C0.245957375,4.07163392 0.40378325,4.04231342 0.533268875,3.94164637 C0.6627545,3.84097932 0.878238125,3.81263617 1.0223825,3.9274748 C1.16603825,4.04231342 1.4680085,4.09997707 1.61166425,4.07114525 C1.29552388,4.2871396 1.0653815,4.5744805 1.03655263,4.84764982 C1.00772375,5.12130782 0.821069,5.43699187 0.60509675,5.52348735 C0.389613125,5.60949415 0.102301625,5.83966007 0.001644875,6.1128294 C0.27478625,6.78866692 0.662265875,6.95579377 1.05072275,7.13416015 C1.74114988,7.4498442 2.17211713,7.68001012 2.45991725,7.99618285 C2.74722875,8.31284425 2.86254425,8.08267832 3.2935115,8.62901697 C3.72496738,9.17535562 4.12759438,10.2103693 4.55856163,10.3833602 C4.9900175,10.5558625 5.53630025,10.4405352 5.85244063,9.89468522 C6.16906963,9.3478579 6.37038313,3.82680775 4.745705,2.90663272 L4.745705,2.90663272 Z" fill="#FF9E3D"></path>
                            <path d="M5.4786425,0.605950825 C5.0760155,1.03745085 4.558073,1.4684622 4.64455963,2.24496678 C4.73104625,3.02147135 4.81704425,4.28665093 4.09827688,4.71766228 C3.3795095,5.14965098 3.03454025,6.24232828 3.89696338,6.87467373 C4.7593865,7.50750785 4.78821538,8.28401243 4.93187113,9.00285335 C5.0760155,9.7212056 5.44981363,10.2968648 6.02492525,9.80770108 C6.59954825,9.89419655 6.91617725,9.66403063 6.91617725,9.20418745 C6.91617725,8.74434428 6.94500613,8.48534653 7.37597338,8.3411874 C7.80742925,8.19751695 7.92225613,8.0538465 8.12356963,7.66534988 C8.32488313,7.27734193 8.43971,7.10483965 8.32488313,6.87467373 C8.21005625,6.64499648 8.16656863,6.17049305 8.25305525,5.82499983 C8.33954188,5.47999528 8.13822838,5.29332143 8.02291288,5.07732708 C7.908086,4.86231008 7.865087,4.67514755 7.92225613,4.38731798 C7.97991388,4.09997708 7.83625813,3.91330323 7.63494463,3.7691441 C7.43363113,3.62547365 7.3471445,3.4818032 7.39063213,3.2511486 C7.43363113,3.02147135 7.24648775,2.8778009 7.03100413,2.70529863 C6.8155205,2.53279635 6.657206,2.30263043 6.657206,1.95762588 C6.657206,1.61262133 5.99609638,0.807284925 5.4786425,0.605950825 L5.4786425,0.605950825 Z" fill="#FF927F"></path>
                            <path d="M5.63988875,9.9948636 C6.60296862,9.7505261 6.51697062,8.16868512 6.37331487,7.50750785 C6.2291705,6.84633057 5.85977,5.89878975 6.1431725,5.14965097 C6.5457995,4.0858055 5.65405887,3.079135 5.88420125,2.67695547 C6.11434362,2.2737986 6.08551475,2.05829292 6.05668587,1.92928272 C6.02834562,1.79929517 5.81237337,1.69862812 5.79820325,1.97179745 C5.7835445,2.24545545 5.71171662,2.34563382 5.539232,2.5181361 C5.36674737,2.69063837 5.40974637,3.06447475 5.539232,3.4818032 C5.66871762,3.89864297 5.941859,4.5314771 5.51040312,5.36515665 C5.07943587,6.1988362 5.25680675,6.57071787 5.42440512,6.9611692 C5.68288775,7.5651715 6.301487,9.66403062 5.63988875,9.9948636 L5.63988875,9.9948636 Z" fill="#FF9EE1"></path>
                            <path d="M1.32533,0.9797872 C1.43331612,0.9797872 1.641959,0.9367838 1.641959,1.08045425 M1.110335,1.6697963 C1.23982062,1.57645937 1.469963,1.68445655 1.69961675,1.54762755 M1.33998875,2.24496677 C1.51247337,2.24496677 1.74261575,2.23763665 1.95809937,2.06513437 M1.55498375,2.7194702 C1.71329825,2.7194702 2.00793912,2.61880315 2.079767,2.4106276 M1.59896,3.05030317 C1.907771,3.03564292 2.31772737,3.15097022 2.3748965,3.04297305 M1.61361875,4.07114525 C1.82910237,3.86981115 2.3397155,3.73347082 2.45454237,3.5248066 M2.16087875,0.864948575 C2.52001812,0.9797872 2.37147612,1.20213432 2.548847,1.339452 C2.865476,1.5837895 2.57767587,1.8574475 2.83664712,1.92879405 C3.09512975,2.00062927 3.09073212,2.04461002 3.02330187,2.33146225 C2.94414462,2.66962535 3.26761437,2.68330825 3.1527875,2.90663272 M4.1300375,2.69112705 C3.98638175,2.69112705 3.56225525,2.7057873 3.38244125,3.0869538 M1.0614725,6.83900045 C1.22711637,6.86783227 1.309694,6.773518 1.35611337,6.68066975 C1.40644175,6.5800027 1.42794125,6.50816747 1.57892637,6.50132602 C1.7299115,6.4939959 1.96005387,6.4509925 2.01038225,6.3356652 C2.06071062,6.22082657 2.24052462,6.32833507 2.39150975,6.0268226 C2.54249487,5.72482145 2.64315162,5.36515665 3.04529,5.23565777"></path>
                        </g>
                        <g transform="translate(7.875000, 11.500000)" stroke="#000000" stroke-width="0.1">
                            <path d="M7.09098,3.87140625 C7.25369212,4.10792495 7.0851165,4.36350197 7.36118962,4.46563505 C7.68465937,4.58536042 7.40223412,5.01099635 7.78385025,5.1605309 C8.12197875,5.29393917 7.78629337,5.70051677 8.15178487,5.88328122 C8.478675,6.04649867 8.09705887,6.42815385 8.533401,6.64659157 C8.9692545,6.86454062 8.451312,7.35517032 8.77869075,7.54575357 C9.10558087,7.7368255 8.66972737,8.2274552 9.0513435,8.41852712 C9.43295962,8.60911037 8.88765412,8.99076555 9.24190725,9.2634462 C9.59616037,9.53612685 9.16030687,9.94465915 9.51456,10.189974 C9.86881312,10.4352888 9.29712187,10.7631898 9.65088637,11.1169905 C9.92353912,11.3896711 9.55267275,11.6564877 9.75984975,12.0713727 C9.89617612,12.3435647 9.62352337,13.4342873 8.86029112,13.3253128 C8.58763837,13.7885767 7.524879,14.1975977 7.14326287,14.0612573 C6.76164675,14.333938 5.535198,14.7155932 4.9078035,14.1155003 C4.28138625,14.7155932 3.05444887,14.333938 2.67283275,14.0612573 C2.29121662,14.1975977 1.22845725,13.7885767 0.9558045,13.3253128 C0.19257225,13.4342873 -0.0800805,12.3435647 0.056245875,12.0713727 C0.263422875,11.6564877 -0.1074435,11.3896711 0.16520925,11.1169905 C0.51897375,10.7631898 -0.0527175,10.4357775 0.301535625,10.189974 C0.65578875,9.94417047 0.21993525,9.53612685 0.574188375,9.2634462 C0.9284415,8.99076555 0.383136,8.60911037 0.764752125,8.41803845 C1.14636825,8.2274552 0.71051475,7.7368255 1.03740487,7.54575357 C1.36478362,7.35517032 0.846841125,6.86454062 1.28269462,6.64659157 C1.71903675,6.42815385 1.33742062,6.04649867 1.66431075,5.88328122 C2.02980225,5.70051677 1.69411687,5.29393917 2.03224537,5.1605309 C2.4138615,5.01099635 2.13143625,4.58536042 2.454906,4.46563505 C2.73537675,4.36203595 2.55654,4.09961747 2.73342225,3.85967805 C3.54502837,4.1792715 6.05753812,4.40846007 7.09098,3.87140625 L7.09098,3.87140625 Z" fill="#00A728"></path>
                            <g transform="translate(1.000000, 5.125000)" fill-opacity="0.996" fill="#FDC300">
                                <path d="M2.05982375,0.1723599 C2.06031237,0.29452865 2.05738062,0.4166974 1.94401962,0.567697975 C1.69872987,0.895110225 2.052983,1.05832767 1.78033025,1.41310572 C1.50816612,1.76690642 1.83505625,1.98485547 1.5350405,2.28490192 C1.23551337,2.58494837 1.5897665,2.85762902 1.28975075,3.1845526 C0.990223625,3.51196485 1.34447675,3.7299139 1.044461,4.02996035 C0.744933875,4.32951812 1.099187,4.65693037 0.79917125,4.95648815 C0.499644125,5.2565346 0.85389725,5.63818977 0.5265185,5.99247915 C0.199628375,6.34676852 0.5812445,6.61944917 0.30859175,6.89164115 C0.035939,7.16481047 0.28122875,7.43700245 0.090665,7.62807437 C0.417555125,7.38275952 0.417555125,7.00110435 0.662844875,6.81003242 C0.908134625,6.61944917 0.5812445,6.34676852 0.717570875,6.2104282 C0.85389725,6.07408787 0.744933875,5.50184945 0.990223625,5.2291688 C1.23551337,4.95648815 1.01758662,4.41112685 1.23551337,4.2205436 C1.45344012,4.02996035 1.28975075,3.45723325 1.5624035,3.26665 C1.83505625,3.07606675 1.5624035,2.6118255 1.78033025,2.36699932 C1.99874562,2.12168447 1.78033025,1.7400293 1.99874562,1.43998285 C2.21667237,1.1399364 2.00851812,0.8682331 2.16194637,0.622429575 C2.23035387,0.512966375 2.23035387,-0.2772211 2.05982375,0.1723599 L2.05982375,0.1723599 Z M2.84651,0.512966375 C2.65594625,0.86725575 2.98283637,0.948864475 2.73754662,1.30364252 C2.49225687,1.65842057 2.873873,1.93061255 2.60122025,2.28490192 C2.3285675,2.6391913 2.73754662,2.82977455 2.49225687,3.18406392 C2.24696712,3.53884197 2.60122025,3.72942522 2.3832935,4.00210587 C2.16487812,4.27478652 2.54649425,4.54746717 2.27433012,4.87439075 C2.00167737,5.201803 2.3832935,5.44711785 2.16487812,5.74667562 C1.94695137,6.04672207 2.24696712,6.37364565 2.05591475,6.6189605 C1.865351,6.86427535 2.19224112,7.2190534 1.91958837,7.54597697 C1.64693562,7.87290055 1.97431437,8.09133827 1.810625,8.30928732 C2.13800375,8.2003128 2.01535887,7.75024312 2.13800375,7.6549515 C2.26064862,7.55965987 2.09695925,6.93268985 2.287523,6.76898372 C2.47857537,6.60576627 2.16487812,6.100965 2.342249,5.88301595 C2.64226475,5.51504367 2.3832935,5.26972882 2.56017575,4.98385395 C2.73754662,4.6974904 2.4927455,4.3300068 2.62858325,4.1384462 C2.8601915,3.81103395 2.525972,3.51636292 2.69650212,3.27984422 C2.94179187,2.93923775 2.6491055,2.65824962 2.819147,2.43443647 C3.07811825,2.09383 2.791784,1.75322352 2.901236,1.5758345 C3.01019937,1.39893415 3.18708162,0.6356238 2.84651,0.512966375 L2.84651,0.512966375 Z M3.90682625,0.81056945 C3.7162625,1.28556155 4.04315262,1.47516745 3.93418925,1.8553566 C3.82522587,2.23554575 4.07051562,2.52044327 3.90682625,2.93190762 C3.7436255,3.34386065 4.12524162,3.66003337 3.90682625,4.19855322 C3.6888995,4.73707307 4.04755025,4.87097002 3.90682625,5.40215975 C3.7436255,6.01935627 4.179479,6.34676852 3.90682625,6.78266662 C3.63466212,7.2190534 4.21905762,7.36321252 3.93418925,7.81865762 C3.79786287,8.03660667 3.94787075,8.59565087 4.1657975,7.92763215 C4.38421287,7.2601021 4.00259675,7.1780047 4.1931605,6.90532405 C4.38421287,6.6326434 4.12524162,5.91038175 4.206842,5.52872657 C4.288931,5.14756007 4.01627825,4.62956457 4.1931605,4.2205436 C4.37053137,3.81152262 3.92050775,3.37513585 4.09787862,3.02084647 C4.2752495,2.6665571 4.01627825,2.23017032 4.179479,1.94429545 C4.34316837,1.6579319 4.05683412,1.27627672 4.12524162,1.1125706 C4.1931605,0.94935315 4.05683412,0.34535085 3.90682625,0.81056945 L3.90682625,0.81056945 Z"></path>
                            </g>
                            <path d="M6.94927875,4.1929544 C6.94927875,1.11283588 6.51342525,0.049479075 4.90487175,0.049479075 C3.29680688,0.049479075 2.86095338,1.1123472 2.86095338,4.1929544 L6.94927875,4.1929544 L6.94927875,4.1929544 Z" fill="#EF072D"></path>
                            <g transform="translate(0.875000, 3.875000)">
                                <path d="M2.58549625,0.07263955 C2.2854805,0.372686 2.64022225,0.59063505 2.3402065,0.944924425 C2.04019075,1.2992138 2.3128435,1.49028572 2.06755375,1.8172093 C1.822264,2.14413287 2.17651713,2.307839 1.90386438,2.66261705 C1.63170025,3.01690642 1.95859038,3.2343668 1.65857463,3.53441325 C1.3590475,3.8344597 1.71330063,4.10714035 1.41328488,4.43406392 C1.11375775,4.76147617 1.46801088,4.97942522 1.16799513,5.27947167 C0.868468,5.57902945 1.22272113,5.9064417 0.922705375,6.20599947 C0.62317825,6.50604592 0.977431375,6.8877011 0.650052625,7.24199047 C0.3231625,7.59627985 0.704778625,7.8689605 0.432125875,8.14115247 C0.159473125,8.4143218 0.404762875,8.68700245 0.214199125,8.8775857 C0.02314675,9.06816895 -0.003727625,9.33449682 0.07787275,9.4503128 M3.1571875,0.181614075 C2.88502338,0.53590345 3.29351388,0.699609575 3.04822413,0.99916735 C2.80293438,1.2992138 3.1571875,1.40818832 2.96662375,1.76296637 C2.77606,2.11774442 3.10295013,2.19886447 2.85766038,2.55315385 C2.61237063,2.90744322 2.99398675,3.18012387 2.721334,3.53441325 C2.44868125,3.88870262 2.85766038,4.07977455 2.61237063,4.43406392 C2.36708088,4.7883533 2.721334,4.97942522 2.50340725,5.25210587 C2.28499188,5.52478652 2.666608,5.7969785 2.39444388,6.12439075 C2.12179113,6.451803 2.50340725,6.69662917 2.28499188,6.99667562 C2.06706513,7.29672207 2.36708088,7.62364565 2.1760285,7.8689605 C1.98546475,8.11427535 2.31235488,8.46856472 2.03970213,8.79597697 C1.76704938,9.12338922 2.09442813,9.3408496 1.93073875,9.55928732 C1.76704938,9.77723637 1.63805238,10.0973185 1.79441238,10.1862573 M4.03182625,0.509026325 C3.8959885,1.07882137 4.22287863,1.58557735 4.03182625,2.06056945 C3.8412625,2.53556155 4.16815263,2.72516745 4.05918925,3.1053566 C3.95022588,3.48554575 4.19551563,3.77044327 4.03182625,4.18190762 C3.8686255,4.59386065 4.25024163,4.91003337 4.03182625,5.44855322 C3.8138995,5.98707307 4.17255025,6.12097002 4.03182625,6.65215975 C3.8686255,7.26935627 4.304479,7.59676852 4.03182625,8.03266662 C3.75966213,8.4690534 4.27760463,8.57802792 4.05918925,9.06865762 C3.8412625,9.55928732 4.19551563,9.75035925 4.03182625,10.2409889 M5.47815625,0.07263955 C5.778172,0.372686 5.42343025,0.59063505 5.723446,0.944924425 C6.02346175,1.2992138 5.750809,1.49028572 5.99609875,1.8172093 C6.2413885,2.14413287 5.88713538,2.307839 6.15978813,2.66261705 C6.43195225,3.01690642 6.10506213,3.2343668 6.40507788,3.53441325 C6.704605,3.8344597 6.35035188,4.10714035 6.65036763,4.43406392 C6.94989475,4.76147617 6.59564163,4.97942522 6.89565738,5.27947167 C7.1951845,5.57902945 6.84093138,5.9064417 7.14094713,6.20599947 C7.44047425,6.50604592 7.08622113,6.8877011 7.41359988,7.24199047 C7.74049,7.59627985 7.35887388,7.8689605 7.63152663,8.14115247 C7.90417938,8.4143218 7.65888963,8.68700245 7.84945338,8.8775857 C8.04050575,9.06816895 8.06786875,9.33449682 7.98577975,9.4503128 M4.906465,0.181614075 C5.17862913,0.53590345 4.77013863,0.699609575 5.01542838,0.99916735 C5.26071813,1.2992138 4.906465,1.40818832 5.09702875,1.76296637 C5.28808113,2.11725575 4.96070238,2.19886447 5.20599213,2.55315385 C5.45128188,2.90744322 5.06966575,3.18012387 5.3423185,3.53441325 C5.61497125,3.88870262 5.20599213,4.07977455 5.45128188,4.43406392 C5.69657163,4.7883533 5.3423185,4.97942522 5.56024525,5.25210587 C5.77866063,5.52478652 5.3970445,5.7969785 5.66969725,6.12439075 C5.94186138,6.451803 5.56024525,6.69662917 5.77866063,6.99667562 C5.99658738,7.29672207 5.69657163,7.62364565 5.887624,7.8689605 C6.07818775,8.11427535 5.75129763,8.46856472 6.02395038,8.79597697 C6.29660313,9.12338922 5.96922438,9.3408496 6.13291375,9.55928732 C6.29660313,9.77723637 6.42608875,10.0973185 6.26924013,10.1862573"></path>
                            </g>
                            <path d="M2.86437375,4.1929544 C2.86437375,1.11283588 3.30022725,0.049479075 4.90829212,0.049479075 C4.17242287,0.049479075 3.72288787,0.6217175 3.600243,1.00337268 C3.47759812,1.38502785 3.545517,1.35766205 3.70920637,1.2081275 C3.87289575,1.05859295 3.79080675,1.38502785 3.654969,1.56241688 C3.51864262,1.73931723 3.38231625,2.24362983 3.57288,2.08041238 C3.76393237,1.91670625 3.91345162,2.10777818 3.70920637,2.39365305 C3.50496112,2.67952793 3.32759025,3.34803533 3.5318355,3.11640338 C3.73656937,2.88428275 3.77712525,3.26593793 3.654969,3.45700985 C3.5318355,3.6475931 3.545517,3.81129923 3.654969,3.7296905 C3.76393237,3.6475931 3.75025087,4.04293118 3.6412875,4.1929544 L2.86437375,4.1929544 L2.86437375,4.1929544 Z M6.63655875,4.01605405 C6.63655875,1.60346558 6.33703162,0.881203925 5.73748875,0.635889075 C5.39789437,0.4966167 5.38812187,0.52691455 5.55034537,0.7448636 C5.71256887,0.96281265 5.687649,1.276542 5.53764112,1.05810428 C5.38812187,0.840155225 5.33828212,0.799106525 5.27573812,0.894886825 C5.21319412,0.99017845 5.45017725,1.43975945 5.625105,1.84878043 C5.765829,2.1776587 5.67494475,2.33941013 5.4628815,2.01248655 C5.25081825,1.68556298 5.25081825,1.98170003 5.43698437,2.2578014 C5.675922,2.61209078 5.66859262,3.68913048 5.66859262,4.13871148 L6.63655875,4.01605405 L6.63655875,4.01605405 Z" fill="#000000"></path>
                            <path d="M4.90682625,4.64302408 C5.54741362,4.64302408 6.2485905,4.52867413 6.719625,4.34590968 C7.278612,4.12893798 7.30841812,3.93835473 7.11492262,3.69499458 C6.97859625,3.52346965 6.6785805,3.62658008 6.39273487,3.75216955 C6.10640062,3.87775903 5.31580537,3.95741305 4.90682625,3.95741305 C4.49833575,3.95741305 3.7077405,3.87775903 3.42140625,3.75216955 C3.13556062,3.6260914 2.83554487,3.52346965 2.6992185,3.69499458 C2.505723,3.93835473 2.53552912,4.12893798 3.09451612,4.34590968 C3.565062,4.52867413 4.2667275,4.64302408 4.90682625,4.64302408 L4.90682625,4.64302408 Z" fill="#EF072D"></path>
                        </g>
                        <g transform="translate(13.000000, 1.750000)" stroke-width="0.1" fill="#B95A1E">
                            <path d="M6.49413797,9.97028152 C6.49413797,9.97028152 6.49319158,10.8073827 6.49413797,11.4185636 C6.49508436,12.0296637 6.65046599,12.2662498 6.9220802,12.255584 C7.19369442,12.2448375 7.24628221,11.7802301 7.1944121,11.5115659 C7.14254199,11.2428208 6.77452996,9.90386287 6.77452996,9.90386287 L6.49413797,9.97029768 L6.49413797,9.97028152 Z" stroke="#000000" transform="translate(6.852989, 11.079895) rotate(-32.856358) translate(-6.852989, -11.079895) "></path>
                            <path d="M6.10646404,10.2715544 C6.10646404,10.2715544 6.10552947,11.1185462 6.10646404,11.7369483 C6.10739861,12.3552687 6.26083944,12.5946502 6.52906105,12.5838584 C6.79728266,12.5729849 6.84921361,12.1028881 6.79799138,11.8310495 C6.74676915,11.5591291 6.38335379,10.204351 6.38335379,10.204351 L6.10646404,10.2715707 L6.10646404,10.2715544 Z" stroke="#000000" transform="translate(6.460832, 11.394279) rotate(-12.617581) translate(-6.460832, -11.394279) "></path>
                            <path d="M5.7182657,10.3967412 C5.7182657,10.3967412 5.7173333,11.2456137 5.7182657,11.865389 C5.7191981,12.4850823 5.87228264,12.7249953 6.13988144,12.7141796 C6.40748024,12.7032819 6.4592906,12.2321412 6.40818731,11.9596991 C6.35708402,11.6871749 5.99451251,10.3293886 5.99451251,10.3293886 L5.7182657,10.3967576 L5.7182657,10.3967412 Z" stroke="#000000"></path>
                            <path d="M5.71868401,10.3803895 C6.48801088,10.3689674 6.57281666,10.0900685 6.57281666,10.0900685 C6.57281666,10.0900685 6.74363355,9.50941026 6.65822993,9.3642334 C6.57281184,9.21907292 5.71866473,9.21907292 5.71866473,9.21907292 L5.71866473,10.3803731 L5.71868401,10.3803895 Z" stroke="#000000"></path>
                            <path d="M5.7191981,9.7995145 C6.5451491,9.7995145 6.6828335,9.50919355 6.6828335,9.50919355 C6.6828335,9.50919355 6.9581246,8.92853526 6.82048682,8.7833584 C6.68282573,8.63819792 5.71924472,8.63819792 5.71924472,8.63819792 L5.71924472,9.79949811 L5.7191981,9.7995145 Z" stroke="#000000"></path>
                            <path d="M5.7191981,9.2186395 C6.40748801,9.2186395 6.8204402,8.92831036 6.8204402,8.92831036 C6.8204402,8.92831036 7.0957313,8.34765207 6.95809352,8.20247521 C6.82040912,8.05728196 5.71916702,8.05736389 5.71916702,8.05736389 L5.71916702,9.21866408 L5.7191981,9.2186395 Z" stroke="#000000"></path>
                            <path d="M6.1831169,3.86508931 C6.1831169,3.86508931 6.86644231,3.13926236 8.0622473,2.41340262 C9.25801373,1.68758386 10.1231388,1.12927812 10.2830115,1.25210244 C10.2830115,1.39727111 9.25801373,2.12309806 8.40388108,2.70378912 C7.549652,3.28439825 6.52465425,4.15539387 6.52465425,4.15539387 L6.18299155,3.86506473 L6.1831169,3.86508931 Z" stroke="#000000"></path>
                            <path d="M6.2628669,4.44596431 C6.2628669,4.44596431 6.93832402,4.01968447 8.23360105,3.42977544 C9.50862882,2.90604732 11.3084979,2.99427762 11.3084979,3.13944629 C11.1377292,3.28460677 9.60023257,3.28460677 8.57523482,3.72010458 C7.59671392,4.13576532 6.60440425,4.73621152 6.60440425,4.73621152 L6.26274155,4.44588237 L6.2628669,4.44596431 Z" stroke="#000000"></path>
                            <path d="M6.2703669,5.44596431 C6.2703669,5.44596431 6.86506809,5.15862589 8.24110105,4.72013736 C9.60763615,4.28463954 11.4218725,4.57496869 11.4218725,4.72013736 C11.2512003,4.86527325 9.77879053,4.77703476 8.75379278,5.01043372 C7.6932142,5.23787584 6.61228995,5.73626888 6.61228995,5.73626888 L6.27062725,5.44593973 L6.2703669,5.44596431 Z" stroke="#000000"></path>
                            <path d="M6.3353669,6.46071431 C6.3353669,6.46071431 7.02074616,5.87915471 8.48053387,5.73488736 C9.94908662,5.58969411 11.1447566,6.46071431 11.1447566,6.60580104 C10.9740844,6.75099429 9.60677787,5.96691797 8.58274437,6.07905763 C7.4963239,6.19093509 6.67651855,6.75099429 6.67651855,6.75099429 L6.33485585,6.46066515 L6.3353669,6.46071431 Z" stroke="#000000"></path>
                            <path d="M5.7191981,8.4937645 C6.959057,8.48234241 6.9581246,8.12088332 6.9581246,8.12088332 C6.9581246,8.12088332 7.2334157,7.54022504 7.09577792,7.39504817 C6.95811683,7.2498877 5.71924472,7.33244792 5.71924472,7.33244792 L5.71924472,8.49374811 L5.7191981,8.4937645 Z" stroke="#000000"></path>
                            <path d="M5.7191981,7.9128895 C6.959057,7.90146741 7.0957313,7.62256855 7.0957313,7.62256855 C7.0957313,7.62256855 7.3710224,7.04191026 7.23338462,6.8967334 C7.09572353,6.75157293 5.71916702,6.75157293 5.71916702,6.75157293 L5.71916702,7.91287311 L5.7191981,7.9128895 Z" stroke="#000000"></path>
                            <path d="M5.7191981,7.1871395 C6.959057,7.17571741 7.2334157,6.89681036 7.2334157,6.89681036 C7.2334157,6.89681036 7.5087068,6.31615207 7.37106902,6.1709834 C7.23340793,6.02582293 5.71916702,6.02582293 5.71916702,6.02582293 L5.71916702,7.18712311 L5.7191981,7.1871395 Z" stroke="#000000"></path>
                            <path d="M5.7191981,6.4612645 C6.959057,6.44984241 7.3711001,6.17093536 7.3711001,6.17093536 C7.3711001,6.17093536 7.50873788,5.59027707 7.3711001,5.4451084 C7.23343901,5.29994792 5.7191981,5.29994792 5.7191981,5.29994792 L5.7191981,6.46124811 L5.7191981,6.4612645 Z" stroke="#000000"></path>
                            <path d="M5.9951169,3.26733931 C5.9951169,3.26733931 7.09638682,2.54151236 7.09638682,1.96084588 C7.09638682,1.38018759 6.61089659,0.799545688 6.47324026,0.509159188 C6.74855292,0.509159188 7.37168984,1.38015481 7.37168984,1.96084588 C7.37168984,2.59540265 6.33685674,3.55764388 6.33685674,3.55764388 L5.99519404,3.26731473 L5.9951169,3.26733931 Z" stroke="#000000"></path>
                            <path d="M5.9951169,3.26733931 C5.9951169,3.26733931 5.85746057,2.8318415 5.85746057,1.96084588 C5.85746057,0.944657 6.46494771,0.298415938 6.68337926,0.073661375 C6.74025073,0.298350388 6.13277323,1.08985025 6.13277323,1.96084588 C6.13277323,2.59540265 6.3367796,3.55764388 6.3367796,3.55764388 L5.9951169,3.26731473 L5.9951169,3.26733931 Z" stroke="#000000"></path>
                            <path d="M5.7191981,5.7353895 C6.959057,5.72396741 7.3711001,5.44506036 7.3711001,5.44506036 C7.3711001,5.44506036 7.3711001,4.86440207 7.23344678,4.7192334 C7.09578569,4.57407292 5.71922918,4.57407292 5.71922918,4.57407292 L5.71922918,5.73537311 L5.7191981,5.7353895 Z" stroke="#000000"></path>
                            <path d="M5.7191981,5.0095145 C6.959057,4.99809241 7.2334157,4.71918536 7.2334157,4.71918536 C7.2334157,4.71918536 7.2334157,4.13852707 7.09576238,3.9933584 C6.95810129,3.84819793 5.71922918,3.84819793 5.71922918,3.84819793 L5.71922918,5.00949811 L5.7191981,5.0095145 Z" stroke="#000000"></path>
                            <path d="M5.71852859,13.7193069 C6.14638364,12.7170474 6.26915741,10.9612087 6.26915741,10.6708222 C6.26915741,9.85323342 6.01315145,5.87657712 5.993843,4.28354825 C5.97453455,2.69051937 6.9574784,1.81575462 7.9210361,1.81575462 C8.7469871,1.81575462 9.297647,2.39641291 9.297647,3.26744131 L8.8846715,3.26744131 C8.8846715,2.68678302 8.471696,2.25125244 7.9210361,2.25125244 C7.0950851,2.25125244 6.4603538,2.93738887 6.4068185,4.28354825 C6.34772765,5.83945944 6.57244382,9.87938787 6.54447959,10.9611267 C6.51651536,12.0428656 6.14639141,13.00727 5.71852859,13.7192249 L5.71852859,13.7193069 Z" stroke="#FDC301" transform="translate(7.508088, 7.767531) scale(-1, 1) translate(-7.508088, -7.767531) "></path>
                            <path d="M4.22603569,9.97028152 C4.22603569,9.97028152 4.2250893,10.8073827 4.22603569,11.4185636 C4.22698209,12.0296637 4.38236371,12.2662498 4.65397793,12.255584 C4.92559214,12.2448375 4.97817993,11.7802301 4.92630982,11.5115659 C4.87443971,11.2428208 4.50642768,9.90386287 4.50642768,9.90386287 L4.22603569,9.97029768 L4.22603569,9.97028152 Z" stroke="#000000" transform="translate(4.584886, 11.079895) rotate(212.856358) translate(-4.584886, -11.079895) "></path>
                            <path d="M5.7191981,3.18856828 C6.6836882,3.18972359 7.100471,4.02752634 7.0980623,4.01048334 L6.82040912,4.28372032 C6.67289567,4.42888899 5.71916702,4.42888899 5.73097742,4.42814336 L5.71916702,3.18851092 L5.7191981,3.18856828 Z" stroke="#000000"></path>
                            <path d="M4.62154909,10.2715544 C4.62154909,10.2715544 4.62061452,11.1185462 4.62154909,11.7369483 C4.62248366,12.3552687 4.77592449,12.5946502 5.0441461,12.5838584 C5.31236771,12.5729849 5.36429865,12.1028881 5.31307643,11.8310495 C5.2618542,11.5591291 4.89843884,10.204351 4.89843884,10.204351 L4.62154909,10.2715707 L4.62154909,10.2715544 Z" stroke="#000000" transform="translate(4.975918, 11.394279) rotate(192.617581) translate(-4.975918, -11.394279) "></path>
                            <path d="M5.01139312,10.3967412 C5.01139312,10.3967412 5.01046072,11.2456137 5.01139312,11.865389 C5.01232552,12.4850823 5.16541006,12.7249953 5.43300886,12.7141796 C5.70060766,12.7032819 5.75241802,12.2321412 5.70131473,11.9596991 C5.65021144,11.6871749 5.28763993,10.3293886 5.28763993,10.3293886 L5.01139312,10.3967576 L5.01139312,10.3967412 Z" stroke="#000000" transform="translate(5.364939, 11.521958) scale(-1, 1) translate(-5.364939, -11.521958) "></path>
                            <path d="M4.75462735,10.3803895 C5.52395421,10.3689674 5.60876,10.0900685 5.60876,10.0900685 C5.60876,10.0900685 5.77957688,9.50941026 5.69417326,9.3642334 C5.60875517,9.21907292 4.75460806,9.21907292 4.75460806,9.21907292 L4.75460806,10.3803731 L4.75462735,10.3803895 Z" stroke="#000000" transform="translate(5.236347, 9.799731) scale(-1, 1) translate(-5.236347, -9.799731) "></path>
                            <path d="M4.57772622,9.7995145 C5.40367722,9.7995145 5.54136162,9.50919355 5.54136162,9.50919355 C5.54136162,9.50919355 5.81665272,8.92853526 5.67901494,8.7833584 C5.54135385,8.63819792 4.57777284,8.63819792 4.57777284,8.63819792 L4.57777284,9.79949811 L4.57772622,9.7995145 Z" stroke="#000000" transform="translate(5.147639, 9.218856) scale(-1, 1) translate(-5.147639, -9.218856) "></path>
                            <path d="M4.4401506,9.2186395 C5.12844051,9.2186395 5.5413927,8.92831036 5.5413927,8.92831036 C5.5413927,8.92831036 5.8166838,8.34765207 5.67904602,8.20247521 C5.54136162,8.05728196 4.44011952,8.05736389 4.44011952,8.05736389 L4.44011952,9.21866408 L4.4401506,9.2186395 Z" stroke="#000000" transform="translate(5.078851, 8.638014) scale(-1, 1) translate(-5.078851, -8.638014) "></path>
                            <path d="M1.15386388,3.86508931 C1.15386388,3.86508931 1.83718928,3.13926236 3.03299428,2.41340262 C4.2287607,1.68758386 5.0938858,1.12927812 5.25375845,1.25210244 C5.25375845,1.39727111 4.2287607,2.12309806 3.37462805,2.70378912 C2.52039898,3.28439825 1.49540123,4.15539387 1.49540123,4.15539387 L1.15373853,3.86506473 L1.15386388,3.86508931 Z" stroke="#000000" transform="translate(3.203748, 2.695244) scale(-1, 1) translate(-3.203748, -2.695244) "></path>
                            <path d="M0.129377477,4.44596431 C0.129377477,4.44596431 0.804834602,4.01968447 2.10011163,3.42977544 C3.3751394,2.90604732 5.17500845,2.99427762 5.17500845,3.13944629 C5.00423978,3.28460677 3.46674315,3.28460677 2.4417454,3.72010458 C1.4632245,4.13576532 0.470914827,4.73621152 0.470914827,4.73621152 L0.129252125,4.44588237 L0.129377477,4.44596431 Z" stroke="#000000" transform="translate(2.652130, 3.881998) scale(-1, 1) translate(-2.652130, -3.881998) "></path>
                            <path d="M0.016002475,5.44596431 C0.016002475,5.44596431 0.610703663,5.15862589 1.98673663,4.72013736 C3.35327173,4.28463954 5.1675081,4.57496869 5.1675081,4.72013736 C4.99683585,4.86527325 3.5244261,4.77703476 2.49942835,5.01043372 C1.43884978,5.23787584 0.357925525,5.73626888 0.357925525,5.73626888 L0.0162628225,5.44593973 L0.016002475,5.44596431 Z" stroke="#000000" transform="translate(2.591755, 5.113198) scale(-1, 1) translate(-2.591755, -5.113198) "></path>
                            <path d="M0.293504428,6.46071431 C0.293504428,6.46071431 0.978883685,5.87915471 2.4386714,5.73488736 C3.90722415,5.58969411 5.10289415,6.46071431 5.10289415,6.60580104 C4.9322219,6.75099429 3.5649154,5.96691797 2.5408819,6.07905763 C1.45446143,6.19093509 0.634656078,6.75099429 0.634656078,6.75099429 L0.292993375,6.46066515 L0.293504428,6.46071431 Z" stroke="#000000" transform="translate(2.697944, 6.234811) scale(-1, 1) translate(-2.697944, -6.234811) "></path>
                            <path d="M4.30243512,8.4937645 C5.54229402,8.48234241 5.54136162,8.12088332 5.54136162,8.12088332 C5.54136162,8.12088332 5.81665272,7.54022504 5.67901494,7.39504817 C5.54135385,7.2498877 4.30248174,7.33244792 4.30248174,7.33244792 L4.30248174,8.49374811 L4.30243512,8.4937645 Z" stroke="#000000" transform="translate(5.009994, 7.901416) scale(-1, 1) translate(-5.009994, -7.901416) "></path>
                            <path d="M4.1648595,7.9128895 C5.4047184,7.90146741 5.5413927,7.62256855 5.5413927,7.62256855 C5.5413927,7.62256855 5.8166838,7.04191026 5.67904602,6.8967334 C5.54138493,6.75157293 4.16482842,6.75157293 4.16482842,6.75157293 L4.16482842,7.91287311 L4.1648595,7.9128895 Z" stroke="#000000" transform="translate(4.941206, 7.332231) scale(-1, 1) translate(-4.941206, -7.332231) "></path>
                            <path d="M4.0271751,7.1871395 C5.267034,7.17571741 5.5413927,6.89681036 5.5413927,6.89681036 C5.5413927,6.89681036 5.8166838,6.31615207 5.67904602,6.1709834 C5.54138493,6.02582293 4.02714402,6.02582293 4.02714402,6.02582293 L4.02714402,7.18712311 L4.0271751,7.1871395 Z" stroke="#000000" transform="translate(4.872363, 6.606481) scale(-1, 1) translate(-4.872363, -6.606481) "></path>
                            <path d="M4.00447755,6.4612645 C5.24433645,6.44984241 5.65637955,6.17093536 5.65637955,6.17093536 C5.65637955,6.17093536 5.79401733,5.59027707 5.65637955,5.4451084 C5.51871846,5.29994792 4.00447755,5.29994792 4.00447755,5.29994792 L4.00447755,6.46124811 L4.00447755,6.4612645 Z" stroke="#000000" transform="translate(4.861015, 5.880606) scale(-1, 1) translate(-4.861015, -5.880606) "></path>
                            <path d="M4.06618516,3.26733931 C4.06618516,3.26733931 5.16745508,2.54151236 5.16745508,1.96084588 C5.16745508,1.38018759 4.68196485,0.799545688 4.54430852,0.509159188 C4.81962118,0.509159188 5.4427581,1.38015481 5.4427581,1.96084588 C5.4427581,2.59540265 4.407925,3.55764388 4.407925,3.55764388 L4.0662623,3.26731473 L4.06618516,3.26733931 Z" stroke="#000000" transform="translate(4.754472, 2.033402) scale(-1, 1) translate(-4.754472, -2.033402) "></path>
                            <path d="M4.8883943,3.26733931 C4.8883943,3.26733931 4.75073797,2.8318415 4.75073797,1.96084588 C4.75073797,0.944657 5.35822511,0.298415938 5.57665666,0.073661375 C5.63352813,0.298350388 5.02605063,1.08985025 5.02605063,1.96084588 C5.02605063,2.59540265 5.230057,3.55764388 5.230057,3.55764388 L4.8883943,3.26731473 L4.8883943,3.26733931 Z" stroke="#000000" transform="translate(5.165576, 1.815653) scale(-1, 1) translate(-5.165576, -1.815653) "></path>
                            <path d="M4.0656499,5.7353895 C5.3055088,5.72396741 5.7175519,5.44506036 5.7175519,5.44506036 C5.7175519,5.44506036 5.7175519,4.86440207 5.57989858,4.7192334 C5.44223749,4.57407292 4.06568098,4.57407292 4.06568098,4.57407292 L4.06568098,5.73537311 L4.0656499,5.7353895 Z" stroke="#000000" transform="translate(4.891601, 5.154731) scale(-1, 1) translate(-4.891601, -5.154731) "></path>
                            <path d="M4.2033343,5.0095145 C5.4431932,4.99809241 5.7175519,4.71918536 5.7175519,4.71918536 C5.7175519,4.71918536 5.7175519,4.13852707 5.57989858,3.9933584 C5.44223749,3.84819793 4.20336538,3.84819793 4.20336538,3.84819793 L4.20336538,5.00949811 L4.2033343,5.0095145 Z" stroke="#000000" transform="translate(4.960443, 4.428856) scale(-1, 1) translate(-4.960443, -4.428856) "></path>
                            <path d="M2.139103,13.7193069 C2.56695805,12.7170474 2.68973182,10.9612087 2.68973182,10.6708222 C2.68973182,9.85323342 2.43372586,5.87657712 2.41441741,4.28354825 C2.39510896,2.69051937 3.37805281,1.81575462 4.34161051,1.81575462 C5.16756151,1.81575462 5.71822141,2.39641291 5.71822141,3.26744131 L5.30524591,3.26744131 C5.30524591,2.68678302 4.89227041,2.25125244 4.34161051,2.25125244 C3.51565951,2.25125244 2.88092821,2.93738887 2.82739291,4.28354825 C2.76830206,5.83945944 2.99301823,9.87938787 2.965054,10.9611267 C2.93708977,12.0428656 2.56696582,13.00727 2.139103,13.7192249 L2.139103,13.7193069 Z" stroke="#FDC301"></path>
                            <path d="M4.3387084,3.18856828 C5.3031985,3.18972359 5.7199813,4.02752634 5.7175726,4.01048334 L5.43991942,4.28372032 C5.29240597,4.42888899 4.33867732,4.42888899 4.35048772,4.42814336 L4.33867732,3.18851092 L4.3387084,3.18856828 Z" stroke="#000000" transform="translate(5.028130, 3.808375) scale(-1, 1) translate(-5.028130, -3.808375) "></path>
                        </g>
                    </g>
                </g>
            </g>
        </g>
    </g>
</svg>