<?xml version="1.0" encoding="UTF-8" standalone="no"?>
<svg width="122px" height="60px" viewBox="0 0 122 60" version="1.1" xmlns="http://www.w3.org/2000/svg" xmlns:xlink="http://www.w3.org/1999/xlink">
    <!-- Generator: Sketch 3.8.2 (29753) - http://www.bohemiancoding.com/sketch -->
    <title>mw</title>
    <desc>Created with Sketch.</desc>
    <defs></defs>
    <g id="Page-1" stroke="none" stroke-width="1" fill="none" fill-rule="evenodd">
        <g id="mw">
            <g id="Group">
                <g>
                    <polygon id="Shape" fill="#F41408" points="0 0 122 0 122 60 0 60"></polygon>
                    <polygon id="Shape" fill="#21873B" points="0 40 122 40 122 60.000375 0 60.000375"></polygon>
                    <polygon id="Shape" fill="#000000" points="0 0 122 0 122 20.000375 0 20.000375"></polygon>
                    <g transform="translate(37.125000, 1.000000)" id="Shape">
                        <path d="M11.434875,16.6325 C14.223375,10.47475 21.997625,7.52925 28.788625,10.057875 C32.208625,11.331375 34.631125,13.527125 36.037,16.627875 L11.43575,16.6325 L11.434875,16.6325 Z M8.188625,17.428125 C5.257375,17.231 2.141625,16.621125 1.63325,16.453375 C1.125,16.2855 1.105375,16.00525 1.168,15.7905 C1.230625,15.575875 1.555,15.332125 1.933875,15.423 C2.644125,15.593375 5.532375,16.286125 8.188125,17.4285 L8.188625,17.428125 Z M23.767375,6.68925 C23.241375,4.06675 23.108625,1.1795 23.159875,0.691125 C23.211125,0.202875 23.5055,0.115125 23.750375,0.116125 C23.995375,0.117125 24.337,0.340625 24.335375,0.695875 C24.332,1.362125 24.318875,4.07125 23.767375,6.689375 L23.767375,6.68925 Z M25.209875,6.750125 C24.933625,4.096375 25.074125,1.209375 25.171375,0.726875 C25.268625,0.244375 25.570125,0.179875 25.814,0.199875 C26.058,0.219875 26.377375,0.469 26.342,0.822875 C26.27575,1.486375 26.00675,4.1845 25.209875,6.750125 L25.209875,6.750125 Z M26.517375,6.91075 C26.482875,4.2455 26.884875,1.37875 27.025625,0.905 C27.166375,0.431375 27.472625,0.389625 27.713875,0.42775 C27.955125,0.465875 28.25075,0.738125 28.1835,1.088125 C28.05725,1.744375 27.544375,4.41325 26.517375,6.91075 L26.517375,6.91075 Z M27.893625,7.189875 C28.11775,4.532125 28.796375,1.708625 28.9825,1.247875 C29.16875,0.787375 29.477875,0.77025 29.714375,0.827375 C29.951125,0.884625 30.21925,1.179375 30.118125,1.522625 C29.928875,2.166375 29.159,4.783875 27.893625,7.189875 L27.893625,7.189875 Z M29.249875,7.581625 C29.73325,4.952375 30.685625,2.1945 30.916125,1.75075 C31.146625,1.307 31.45625,1.31475 31.68625,1.39075 C31.916375,1.466875 32.154625,1.782 32.0205,2.11575 C31.76925,2.741625 30.7455,5.287 29.2505,7.5815 L29.249875,7.581625 Z M30.513625,8.0605 C31.243125,5.478375 32.452,2.8045 32.7235,2.380125 C32.995,1.955875 33.30275,1.987625 33.52475,2.081375 C33.746875,2.174875 33.9545,2.50725 33.789375,2.8295 C33.479625,3.433625 32.220375,5.89025 30.513625,8.0605 L30.513625,8.0605 Z M31.757375,8.650875 C32.733375,6.13675 34.19575,3.569 34.50725,3.168 C34.818625,2.76675 35.12225,2.823 35.334375,2.933875 C35.5465,3.04475 35.72125,3.392375 35.525625,3.700125 C35.15875,4.277375 33.667125,6.624625 31.757375,8.651 L31.757375,8.650875 Z M32.933625,9.334375 C34.147625,6.906875 35.85125,4.464625 36.2,4.089625 C36.54875,3.714625 36.84575,3.794625 37.046375,3.92175 C37.247125,4.049 37.387875,4.409125 37.163375,4.70025 C36.7425,5.24625 35.030875,7.46675 32.933625,9.3345 L32.933625,9.334375 Z M34.041125,10.109375 C35.484125,7.78725 37.41625,5.489 37.799875,5.143125 C38.183375,4.797125 38.471625,4.90025 38.65925,5.042875 C38.847,5.185375 38.952375,5.555375 38.70075,5.827625 C38.228875,6.33825 36.31,8.41475 34.041125,10.109375 L34.041125,10.109375 Z M35.072375,10.970625 C36.733875,8.771875 38.880375,6.635625 39.29575,6.321625 C39.71125,6.007375 39.98825,6.132875 40.1615,6.289875 C40.33475,6.446875 40.404,6.823625 40.127125,7.075 C39.607875,7.54625 37.496,9.4625 35.07225,10.97075 L35.072375,10.970625 Z M36.019875,11.91375 C37.88775,9.8555 40.2325,7.898375 40.67675,7.6185 C41.121,7.3385 41.384875,7.48575 41.54225,7.655875 C41.699625,7.825875 41.73225,8.206875 41.432125,8.43525 C40.869125,8.86325 38.58025,10.60425 36.019875,11.91375 L36.019875,11.91375 Z M36.834875,12.880625 C38.886125,10.971375 41.4035,9.19925 41.872,8.954 C42.3405,8.708875 42.589875,8.875375 42.731,9.056875 C42.872125,9.238375 42.8695,9.620375 42.54925,9.825125 C41.948875,10.209 39.507,11.770125 36.834875,12.880625 L36.834875,12.880625 Z M37.572375,13.929125 C39.79625,12.186125 42.4715,10.615625 42.9615,10.407625 C43.4515,10.199625 43.68425,10.385125 43.80775,10.57675 C43.931125,10.7685 43.8925,11.149 43.554,11.328 C42.919625,11.664 40.339625,13.029875 37.572375,13.929 L37.572375,13.929125 Z M38.256125,15.12375 C40.648375,13.575 43.4725,12.235875 43.981625,12.07 C44.49075,11.904 44.7035,12.108 44.806875,12.309375 C44.91025,12.510625 44.832875,12.88625 44.47775,13.036125 C43.811625,13.317375 41.10325,14.46075 38.256125,15.12375 L38.256125,15.12375 Z M38.778625,16.277625 C41.308625,14.920625 44.249,13.80625 44.771875,13.680375 C45.29475,13.554625 45.4875,13.7745 45.571375,13.983125 C45.655375,14.191875 45.54275,14.559875 45.17475,14.681625 C44.4845,14.91 41.678,15.8385 38.7785,16.277625 L38.778625,16.277625 Z M39.198625,17.50075 C41.850625,16.351125 44.887875,15.476 45.421,15.392375 C45.954125,15.309 46.12475,15.543375 46.188,15.757875 C46.251375,15.972375 46.1035,16.330125 45.725,16.422 C45.01525,16.59425 42.129375,17.295 39.19875,17.50075 L39.198625,17.50075 Z M22.356125,6.739 C21.564875,4.17175 21.138125,1.308 21.1395,0.817375 C21.14075,0.326875 21.424875,0.214875 21.66875,0.195375 C21.91275,0.17575 22.27575,0.369625 22.31025,0.7235 C22.375,1.387125 22.63825,4.08575 22.356125,6.738875 L22.356125,6.739 Z M20.968625,6.901625 C19.93325,4.406875 19.2325,1.58775 19.186625,1.099 C19.14075,0.61025 19.412875,0.47625 19.654,0.437375 C19.89525,0.398625 20.2755,0.563 20.344,0.91275 C20.47225,1.56875 20.994375,4.236125 20.968625,6.9015 L20.968625,6.901625 Z M19.589875,7.176625 C18.316125,4.774375 17.343625,2.02225 17.249875,1.538875 C17.156625,1.05575 17.414875,0.9005 17.651125,0.842625 C17.887625,0.784625 18.282375,0.917875 18.384625,1.260875 C18.576125,1.904125 19.355375,4.519625 19.58875,7.1765 L19.589875,7.176625 Z M18.289875,7.544875 C16.796125,5.24925 15.569875,2.582 15.432375,2.107625 C15.29425,1.633375 15.536875,1.458875 15.767,1.383 C15.997125,1.307 16.403,1.4095 16.537,1.743375 C16.788125,2.369375 17.809375,4.915375 18.29075,7.544875 L18.289875,7.544875 Z M17.019875,8.016375 C15.313625,5.84525 13.839875,3.283 13.657375,2.821125 C13.474875,2.35925 13.70025,2.1665 13.922375,2.073 C14.1445,1.9795 14.558625,2.05 14.7235,2.372375 C15.032875,2.976625 16.290875,5.433875 17.01875,8.016375 L17.019875,8.016375 Z M15.736125,8.61675 C13.822,6.593875 12.099875,4.16225 11.872375,3.71725 C11.644875,3.27225 11.85,3.061875 12.061875,2.950625 C12.273875,2.839375 12.69325,2.87575 12.889625,3.183125 C13.257625,3.75975 14.754625,6.10425 15.73625,8.616875 L15.736125,8.61675 Z M14.567375,9.28825 C12.467375,7.42275 10.521125,5.135 10.251125,4.7095 C9.982,4.284 10.1665,4.05825 10.367,3.930875 C10.567625,3.803375 10.988875,3.806875 11.21375,4.097875 C11.63525,4.643375 13.349875,6.862 14.567,9.288375 L14.567375,9.28825 Z M13.472375,10.03525 C11.205,8.339 9.049625,6.21025 8.7415,5.807125 C8.433375,5.403875 8.595875,5.16475 8.783625,5.022375 C8.9715,4.879875 9.391625,4.850625 9.643,5.123125 C10.114375,5.634125 12.0315,7.711875 13.472375,10.03525 L13.472375,10.03525 Z M12.408625,10.90375 C9.983625,9.397125 7.627375,7.451125 7.281125,7.0745 C6.934625,6.69775 7.073,6.4465 7.246,6.2895 C7.419125,6.13225 7.834625,6.06925 8.11175,6.320375 C8.6315,6.791125 10.74525,8.70575 12.408875,10.90325 L12.408625,10.90375 Z M11.489875,11.79475 C8.934,10.478125 6.406375,8.718 6.02625,8.369 C5.646125,8.02 5.76075,7.759 5.91875,7.589375 C6.076625,7.419625 6.484875,7.325375 6.78425,7.554375 C7.34575,7.984125 9.629,9.731375 11.489875,11.794625 L11.489875,11.79475 Z M10.609875,12.8125 C7.935125,11.70725 5.244875,10.157875 4.832,9.841 C4.419125,9.524 4.50775,9.25475 4.648375,9.073125 C4.789125,8.891375 5.1865,8.764375 5.507125,8.9685 C6.1085,9.35125 8.554125,10.907375 10.609875,12.812625 L10.609875,12.8125 Z M9.821125,13.9155 C7.04725,13.0335 4.213875,11.71075 3.771125,11.428875 C3.328375,11.147 3.389875,10.87175 3.511875,10.67925 C3.633875,10.48675 4.017,10.32775 4.35675,10.50475 C4.99375,10.836625 7.584125,12.186375 9.82125,13.915625 L9.821125,13.9155 Z M9.166125,15.0365 C6.318,14.377125 3.36825,13.283375 2.900125,13.0375 C2.432,12.791625 2.46675,12.5125 2.56975,12.311125 C2.672875,12.109625 3.03925,11.921125 3.39475,12.0705 C4.061125,12.350875 6.7715,13.49075 9.166,15.0365 L9.166125,15.0365 Z M8.641125,16.15975 C5.742125,15.71925 2.701625,14.8535 2.212375,14.644 C1.723125,14.434625 1.732,14.15375 1.816125,13.94525 C1.900125,13.736625 2.247875,13.520875 2.615875,13.642875 C3.305875,13.871625 6.112,14.801375 8.641125,16.15975 L8.641125,16.15975 Z" fill="#F31509"></path>
                        <path d="M8.188625,17.428125 C5.257375,17.231 2.141625,16.621125 1.63325,16.453375 C1.125,16.2855 1.105375,16.00525 1.168,15.7905 C1.230625,15.575875 1.555,15.332125 1.933875,15.423 C2.644125,15.593375 5.532375,16.286125 8.188125,17.4285 L8.188625,17.428125 Z" fill="#F31509"></path>
                        <polygon fill="#000000" points="0.04825 16.69025 47.702 16.69025 47.702 18.2605 0.04825 18.2605"></polygon>
                    </g>
                </g>
            </g>
        </g>
    </g>
</svg>