<?xml version="1.0" encoding="UTF-8" standalone="no"?>
<svg width="122px" height="60px" viewBox="0 0 122 60" version="1.1" xmlns="http://www.w3.org/2000/svg" xmlns:xlink="http://www.w3.org/1999/xlink">
    <!-- Generator: Sketch 3.8.2 (29753) - http://www.bohemiancoding.com/sketch -->
    <title>kr</title>
    <desc>Created with Sketch.</desc>
    <defs></defs>
    <g id="Page-1" stroke="none" stroke-width="1" fill="none" fill-rule="evenodd">
        <g id="kr">
            <g>
                <rect id="Rectangle-151" fill="#FFFFFF" x="0" y="0" width="122" height="60"></rect>
                <g id="Clipped" transform="translate(18.000000, 0.000000)">
                    <g id="Group">
                        <polygon id="Shape" fill="#FFFFFF" points="85.451462 59.948538 0.0514619883 59.948538 0.0514619883 0.065497076 85.451462 0.065497076"></polygon>
                        <path d="M43.4936842,30.0609357 C43.4936842,37.3284211 37.6022222,43.2197661 30.3349708,43.2197661 C23.0674854,43.2197661 17.1762573,37.3283041 17.1762573,30.0609357 C17.1762573,22.7934503 23.0676023,16.9022222 30.3349708,16.9022222 C37.6024561,16.9022222 43.4936842,22.7936842 43.4936842,30.0609357 L43.4936842,30.0609357 Z" id="Shape" fill="#FFFFFF"></path>
                        <path d="M60.0012865,30.8245614 C60.0012865,40.3074854 52.3949708,47.9945029 43.0116959,47.9945029 C33.6284211,47.9945029 26.0219883,40.3076023 26.0219883,30.8245614 C26.0219883,21.3415205 33.6283041,13.6545029 43.0116959,13.6545029 C52.3950877,13.6545029 60.0011696,21.3416374 60.0011696,30.8245614 L60.0012865,30.8245614 Z" id="Shape" fill="#C70000"></path>
                        <path d="M8.25532164,14.9052632 L18.040117,3.5871345 L20.3583626,5.59122807 L10.5735673,16.9094737 L8.25532164,14.9052632 Z M11.459883,17.6756725 L21.2446784,6.35754386 L23.562807,8.36163743 L13.7780117,19.6797661 L11.459883,17.6756725 Z" id="Shape" fill="#000000"></path>
                        <polygon id="Shape" fill="#000000" points="8.25532164 14.9052632 18.040117 3.5871345 20.3583626 5.59122807 10.5735673 16.9094737"></polygon>
                        <path d="M8.25532164,14.9052632 L18.040117,3.5871345 L20.3583626,5.59122807 L10.5735673,16.9094737 L8.25532164,14.9052632 Z M14.7329825,20.5052632 L24.5177778,9.1871345 L26.8359064,11.191345 L17.0511111,22.5094737 L14.7329825,20.5052632 Z" id="Shape" fill="#000000"></path>
                        <polygon id="Shape" fill="#000000" points="8.25532164 14.9052632 18.040117 3.5871345 20.3583626 5.59122807 10.5735673 16.9094737"></polygon>
                        <path d="M8.25532164,14.9052632 L18.040117,3.5871345 L20.3583626,5.59122807 L10.5735673,16.9094737 L8.25532164,14.9052632 Z M67.7676023,3.58339181 L77.4754386,14.9676023 L75.1436257,16.9559064 L65.4357895,5.57181287 L67.7676023,3.58339181 Z M61.2522807,9.13929825 L70.960117,20.5235088 L68.6284211,22.5118129 L58.9205848,11.1277193 L61.2522807,9.13929825 Z" id="Shape" fill="#000000"></path>
                        <polygon id="Shape" fill="#FFFFFF" points="62.871345 15.6947368 72.0645614 7.76327485 73.7769591 9.74608187 63.9528655 18.5787135 62.871345 15.6946199"></polygon>
                        <path d="M74.1787135,43.6272515 L64.7733333,54.8353216 L62.4673684,52.917193 L71.8728655,41.7092398 L74.1787135,43.6272515 Z M64.5442105,6.33216374 L74.2520468,17.7162573 L71.9203509,19.7046784 L62.2125146,8.3205848 L64.5442105,6.33216374 Z M77.3654971,46.2778947 L67.96,57.4859649 L65.654152,55.5679532 L75.0596491,44.359883 L77.3654971,46.2778947 Z M70.922807,40.9189474 L61.5173099,52.1271345 L59.211462,50.2090058 L68.6168421,39.0009357 L70.922807,40.9189474 Z" id="Shape" fill="#000000"></path>
                        <path d="M26.2690058,27.7988304 C26.8060819,32.1232749 27.5902924,36.9421053 34.2454971,37.4426901 C36.74,37.5921637 41.5925146,36.8492398 43.2584795,30.0520468 C45.4442105,23.5223392 52.0274854,21.6450292 56.5076023,25.1850292 C59.0477193,26.8418713 59.7505263,29.4734503 59.9325146,31.4490058 C59.7291228,37.7932164 56.0876023,43.2852632 51.4152047,45.734386 C46.0432749,48.9273684 38.6011696,48.9940351 32.0818713,44.1566082 C29.1438596,41.399883 25.0387135,36.3180117 26.2690058,27.7987135 L26.2690058,27.7988304 Z" id="Shape" fill="#3D5897"></path>
                        <polygon id="Shape" fill="#FFFFFF" points="65.0187135 43.4608187 74.2273684 51.374386 72.5208187 53.3623392 62.3271345 44.9587135 65.0187135 43.4608187"></polygon>
                        <polygon id="Shape" fill="#000000" points="13.814386 41.894386 23.5222222 53.2785965 21.1904094 55.2669006 11.4825731 43.882807"></polygon>
                        <polygon id="Shape" fill="#FFFFFF" points="12.1417544 51.2573099 21.3349708 43.325848 23.0473684 45.308655 13.2232749 54.1412865 12.1417544 51.257193"></polygon>
                        <path d="M17.0376608,39.145731 L26.745614,50.5298246 L24.4138012,52.5181287 L14.7059649,41.1340351 L17.0376608,39.145731 Z M10.5224561,44.7016374 L20.2302924,56.085731 L17.8985965,58.0740351 L8.19064327,46.6900585 L10.5224561,44.7016374 Z" id="Shape" fill="#000000"></path>
                    </g>
                </g>
            </g>
        </g>
    </g>
</svg>