<?xml version="1.0" encoding="UTF-8" standalone="no"?>
<svg width="122px" height="60px" viewBox="0 0 122 60" version="1.1" xmlns="http://www.w3.org/2000/svg" xmlns:xlink="http://www.w3.org/1999/xlink">
    <!-- Generator: Sketch 3.8.2 (29753) - http://www.bohemiancoding.com/sketch -->
    <title>ir</title>
    <desc>Created with Sketch.</desc>
    <defs></defs>
    <g id="Page-1" stroke="none" stroke-width="1" fill="none" fill-rule="evenodd">
        <g id="ir">
            <g transform="translate(-1.000000, 0.000000)">
                <rect id="Rectangle-132" fill="#239F40" x="1" y="0" width="122" height="18"></rect>
                <rect id="Rectangle-132-Copy" fill="#DA0000" x="1" y="42" width="122" height="18"></rect>
                <g id="Clipped" transform="translate(0.000000, 16.000000)">
                    <g id="Group" transform="translate(0.260177, 0.000000)">
                        <polygon id="Shape" fill="#DA0000" points="0.739823191 25 122.739823 25 122.739823 27.5442023 0.739823191 27.5442023"></polygon>
                        <g transform="translate(29.775391, 24.475946)" id="Shape" fill="#FFFFFF">
                            <path d="M0.043020148,0.110788446 L5.71774774,0.110788446 L5.71774774,0.501323499 L0.043020148,0.501323499 L0.043020148,0.110788446 Z M0.889083059,2.06334807 L1.27961811,2.06334807 L1.27961811,2.4426655 L0.889083059,2.4426655 L0.889083059,2.06334807 Z M5.73255037,2.05108964 L5.73255037,2.44162469 L4.59841437,2.44162469 L4.59841437,2.05108964 L5.73255037,2.05108964 Z M6.34246505,0.110788446 L6.7330001,0.110788446 L6.7330001,2.44220292 L6.34246505,2.44220292 L6.34246505,0.110788446 Z"></path>
                            <path d="M8.60160105,2.05108964 L8.60160105,2.44162469 L6.45232833,2.44162469 L6.45232833,2.05108964 L8.60160105,2.05108964 Z M4.59841437,1.13899311 L4.98894942,1.13899311 L4.98894942,2.44231856 L4.59841437,2.44231856 L4.59841437,1.13899311 Z"></path>
                            <path d="M8.28184108,0.110788446 L8.67237613,0.110788446 L8.67237613,2.44220292 L8.28184108,2.44220292 L8.28184108,0.110788446 Z M7.30556127,0.110788446 L7.69609632,0.110788446 L7.69609632,2.44220292 L7.30556127,2.44220292 L7.30556127,0.110788446 Z M2.12475586,1.03872841 L2.12475586,1.42926347 L0.0535438939,1.42926347 L0.0535438939,1.03872841 L2.12475586,1.03872841 Z M6.66962634,1.03872841 L6.66962634,1.42926347 L4.59841437,1.42926347 L4.59841437,1.03872841 L6.66962634,1.03872841 Z"></path>
                            <polygon points="4.59841437 1.13899311 5.09841437 1.13899311 5.09841437 2.44231856 4.59841437 2.44231856"></polygon>
                            <polygon points="4.59841437 1.13899311 5.09841437 1.13899311 5.09841437 2.44231856 4.59841437 2.44231856"></polygon>
                            <path d="M4.59841437,1.13899311 L4.98894942,1.13899311 L4.98894942,2.44231856 L4.59841437,2.44231856 L4.59841437,1.13899311 Z M0.0535438939,1.13899311 L0.444078947,1.13899311 L0.444078947,2.44231856 L0.0535438939,2.44231856 L0.0535438939,1.13899311 Z M3.38494552,1.13899311 L3.77536493,1.13899311 L3.77536493,2.44231856 L3.38494552,2.44231856 L3.38494552,1.13899311 Z M1.7344521,1.13899311 L2.12498715,1.13899311 L2.12498715,2.44231856 L1.7344521,2.44231856 L1.7344521,1.13899311 Z"></path>
                            <path d="M3.65890985,2.05108964 L3.65890985,2.44162469 L1.90803608,2.44162469 L1.90803608,2.05108964 L3.65890985,2.05108964 Z M3.77536493,1.03872841 L3.77536493,1.42926347 L2.66539885,1.42926347 L2.66539885,1.03872841 L3.77536493,1.03872841 Z"></path>
                        </g>
                        <g transform="translate(20.408100, 24.475946)" id="Shape" fill="#FFFFFF">
                            <path d="M0.0892783717,0.110788446 L5.76400596,0.110788446 L5.76400596,0.501323499 L0.0892783717,0.501323499 L0.0892783717,0.110788446 Z M0.935341283,2.06334807 L1.32587634,2.06334807 L1.32587634,2.4426655 L0.935341283,2.4426655 L0.935341283,2.06334807 Z M5.77880859,2.05108964 L5.77880859,2.44162469 L4.64467259,2.44162469 L4.64467259,2.05108964 L5.77880859,2.05108964 Z M6.38872327,0.110788446 L6.77925833,0.110788446 L6.77925833,2.44220292 L6.38872327,2.44220292 L6.38872327,0.110788446 Z"></path>
                            <path d="M8.64785927,2.05108964 L8.64785927,2.44162469 L6.49858655,2.44162469 L6.49858655,2.05108964 L8.64785927,2.05108964 Z M4.64467259,1.13899311 L5.03520765,1.13899311 L5.03520765,2.44231856 L4.64467259,2.44231856 L4.64467259,1.13899311 Z"></path>
                            <path d="M8.3280993,0.110788446 L8.71863435,0.110788446 L8.71863435,2.44220292 L8.3280993,2.44220292 L8.3280993,0.110788446 Z M7.35181949,0.110788446 L7.74235454,0.110788446 L7.74235454,2.44220292 L7.35181949,2.44220292 L7.35181949,0.110788446 Z M2.17101408,1.03872841 L2.17101408,1.42926347 L0.0998021176,1.42926347 L0.0998021176,1.03872841 L2.17101408,1.03872841 Z M6.71588456,1.03872841 L6.71588456,1.42926347 L4.64467259,1.42926347 L4.64467259,1.03872841 L6.71588456,1.03872841 Z"></path>
                            <polygon points="4.64467259 1.13899311 5.14467259 1.13899311 5.14467259 2.44231856 4.64467259 2.44231856"></polygon>
                            <polygon points="4.64467259 1.13899311 5.14467259 1.13899311 5.14467259 2.44231856 4.64467259 2.44231856"></polygon>
                            <path d="M4.64467259,1.13899311 L5.03520765,1.13899311 L5.03520765,2.44231856 L4.64467259,2.44231856 L4.64467259,1.13899311 Z M0.0998021176,1.13899311 L0.490337171,1.13899311 L0.490337171,2.44231856 L0.0998021176,2.44231856 L0.0998021176,1.13899311 Z M3.43120374,1.13899311 L3.82162315,1.13899311 L3.82162315,2.44231856 L3.4310881,2.44231856 L3.43120374,1.13899311 Z M1.78071032,1.13899311 L2.17124537,1.13899311 L2.17124537,2.44231856 L1.78071032,2.44231856 L1.78071032,1.13899311 Z"></path>
                            <path d="M3.70516807,2.05108964 L3.70516807,2.44162469 L1.95429431,2.44162469 L1.95429431,2.05108964 L3.70516807,2.05108964 Z M3.82162315,1.03872841 L3.82162315,1.42926347 L2.71165707,1.42926347 L2.71165707,1.03872841 L3.82162315,1.03872841 Z"></path>
                        </g>
                        <g transform="translate(39.027035, 24.475946)" id="Shape" fill="#FFFFFF">
                            <path d="M0.0343467311,0.110788446 L5.70907432,0.110788446 L5.70907432,0.501323499 L0.0343467311,0.501323499 L0.0343467311,0.110788446 Z M0.880409642,2.06334807 L1.27082905,2.06334807 L1.27082905,2.4426655 L0.880409642,2.4426655 L0.880409642,2.06334807 Z M5.72376131,2.05108964 L5.72376131,2.44162469 L4.58962531,2.44162469 L4.58962531,2.05108964 L5.72376131,2.05108964 Z M6.33379163,0.110788446 L6.72432669,0.110788446 L6.72432669,2.44220292 L6.33379163,2.44220292 L6.33379163,0.110788446 Z"></path>
                            <path d="M8.59281199,2.05108964 L8.59281199,2.44162469 L6.44377056,2.44162469 L6.44377056,2.05108964 L8.59281199,2.05108964 Z M4.58962531,1.13899311 L4.98016036,1.13899311 L4.98016036,2.44231856 L4.58962531,2.44231856 L4.58962531,1.13899311 Z"></path>
                            <path d="M8.27316766,0.110788446 L8.66370271,0.110788446 L8.66370271,2.44220292 L8.27316766,2.44220292 L8.27316766,0.110788446 Z M7.29688785,0.110788446 L7.6874229,0.110788446 L7.6874229,2.44220292 L7.29688785,2.44220292 L7.29688785,0.110788446 Z M2.11608244,1.03872841 L2.11608244,1.42926347 L0.044870477,1.42926347 L0.044870477,1.03872841 L2.11608244,1.03872841 Z M6.66083727,1.03872841 L6.66083727,1.42926347 L4.58962531,1.42926347 L4.58962531,1.03872841 L6.66083727,1.03872841 Z"></path>
                            <polygon points="4.58962531 1.13899311 5.08962531 1.13899311 5.08962531 2.44231856 4.58962531 2.44231856"></polygon>
                            <polygon points="4.58962531 1.13899311 5.08962531 1.13899311 5.08962531 2.44231856 4.58962531 2.44231856"></polygon>
                            <path d="M4.58962531,1.13899311 L4.98016036,1.13899311 L4.98016036,2.44231856 L4.58962531,2.44231856 L4.58962531,1.13899311 Z M0.044870477,1.13899311 L0.43540553,1.13899311 L0.43540553,2.44231856 L0.044870477,2.44231856 L0.044870477,1.13899311 Z M3.37615646,1.13899311 L3.76669151,1.13899311 L3.76669151,2.44231856 L3.37615646,2.44231856 L3.37615646,1.13899311 Z M1.72566303,1.13899311 L2.11631373,1.13899311 L2.11631373,2.44231856 L1.72577868,2.44231856 L1.72566303,1.13899311 Z"></path>
                            <path d="M3.65012079,2.05108964 L3.65012079,2.44162469 L1.89924702,2.44162469 L1.89924702,2.05108964 L3.65012079,2.05108964 Z M3.76657586,1.03872841 L3.76657586,1.42926347 L2.65660979,1.42926347 L2.65660979,1.03872841 L3.76657586,1.03872841 Z"></path>
                        </g>
                        <g transform="translate(104.251131, 24.475946)" id="Shape" fill="#FFFFFF">
                            <path d="M0.0788702714,0.110788446 L5.75359786,0.110788446 L5.75359786,0.501323499 L0.0788702714,0.501323499 L0.0788702714,0.110788446 Z M0.924933183,2.06334807 L1.31546824,2.06334807 L1.31546824,2.4426655 L0.924933183,2.4426655 L0.924933183,2.06334807 Z M5.76840049,2.05108964 L5.76840049,2.44162469 L4.63426449,2.44162469 L4.63426449,2.05108964 L5.76840049,2.05108964 Z M6.37831517,0.110788446 L6.76885023,0.110788446 L6.76885023,2.44220292 L6.37831517,2.44220292 L6.37831517,0.110788446 Z"></path>
                            <path d="M8.63745117,2.05108964 L8.63745117,2.44162469 L6.48817845,2.44162469 L6.48817845,2.05108964 L8.63745117,2.05108964 Z M4.63426449,1.13899311 L5.02479955,1.13899311 L5.02479955,2.44231856 L4.63426449,2.44231856 L4.63426449,1.13899311 Z"></path>
                            <path d="M8.3176912,0.110788446 L8.70822625,0.110788446 L8.70822625,2.44220292 L8.3176912,2.44220292 L8.3176912,0.110788446 Z M7.34141139,0.110788446 L7.73194644,0.110788446 L7.73194644,2.44220292 L7.34141139,2.44220292 L7.34141139,0.110788446 Z M2.16060598,1.03872841 L2.16060598,1.42926347 L0.0893940173,1.42926347 L0.0893940173,1.03872841 L2.16060598,1.03872841 Z M6.70547646,1.03872841 L6.70547646,1.42926347 L4.63426449,1.42926347 L4.63426449,1.03872841 L6.70547646,1.03872841 Z"></path>
                            <polygon points="4.63426449 1.13899311 5.13426449 1.13899311 5.13426449 2.44231856 4.63426449 2.44231856"></polygon>
                            <polygon points="4.63426449 1.13899311 5.13426449 1.13899311 5.13426449 2.44231856 4.63426449 2.44231856"></polygon>
                            <path d="M4.63426449,1.13899311 L5.02479955,1.13899311 L5.02479955,2.44231856 L4.63426449,2.44231856 L4.63426449,1.13899311 Z M0.0893940173,1.13899311 L0.479929071,1.13899311 L0.479929071,2.44231856 L0.0893940173,2.44231856 L0.0893940173,1.13899311 Z M3.42079564,1.13899311 L3.81121505,1.13899311 L3.81121505,2.44231856 L3.42068,2.44231856 L3.42079564,1.13899311 Z M1.77030222,1.13899311 L2.16083727,1.13899311 L2.16083727,2.44231856 L1.77030222,2.44231856 L1.77030222,1.13899311 Z"></path>
                            <path d="M3.69475997,2.05108964 L3.69475997,2.44162469 L1.9438862,2.44162469 L1.9438862,2.05108964 L3.69475997,2.05108964 Z M3.81121505,1.03872841 L3.81121505,1.42926347 L2.70124897,1.42926347 L2.70124897,1.03872841 L3.81121505,1.03872841 Z"></path>
                        </g>
                        <g transform="translate(48.278680, 24.475946)" id="Shape" fill="#FFFFFF">
                            <path d="M0.0858090049,0.110788446 L5.7605366,0.110788446 L5.7605366,0.501323499 L0.0858090049,0.501323499 L0.0858090049,0.110788446 Z M0.931871916,2.06334807 L1.32240697,2.06334807 L1.32240697,2.4426655 L0.931871916,2.4426655 L0.931871916,2.06334807 Z M5.77533923,2.05108964 L5.77533923,2.44162469 L4.64120323,2.44162469 L4.64120323,2.05108964 L5.77533923,2.05108964 Z M6.38525391,0.110788446 L6.77578896,0.110788446 L6.77578896,2.44220292 L6.38525391,2.44220292 L6.38525391,0.110788446 Z"></path>
                            <path d="M8.64438991,2.05108964 L8.64438991,2.44162469 L6.49511719,2.44162469 L6.49511719,2.05108964 L8.64438991,2.05108964 Z M4.64120323,1.13899311 L5.03173828,1.13899311 L5.03173828,2.44231856 L4.64120323,2.44231856 L4.64120323,1.13899311 Z"></path>
                            <path d="M8.32462993,0.110788446 L8.71516499,0.110788446 L8.71516499,2.44220292 L8.32462993,2.44220292 L8.32462993,0.110788446 Z M7.34835012,0.110788446 L7.73888518,0.110788446 L7.73888518,2.44220292 L7.34835012,2.44220292 L7.34835012,0.110788446 Z M2.16754472,1.03872841 L2.16754472,1.42926347 L0.0963327508,1.42926347 L0.0963327508,1.03872841 L2.16754472,1.03872841 Z M6.71241519,1.03872841 L6.71241519,1.42926347 L4.64120323,1.42926347 L4.64120323,1.03872841 L6.71241519,1.03872841 Z"></path>
                            <polygon points="4.64120323 1.13899311 5.14120323 1.13899311 5.14120323 2.44231856 4.64120323 2.44231856"></polygon>
                            <polygon points="4.64120323 1.13899311 5.14120323 1.13899311 5.14120323 2.44231856 4.64120323 2.44231856"></polygon>
                            <path d="M4.64120323,1.13899311 L5.03173828,1.13899311 L5.03173828,2.44231856 L4.64120323,2.44231856 L4.64120323,1.13899311 Z M0.0963327508,1.13899311 L0.486867804,1.13899311 L0.486867804,2.44231856 L0.0963327508,2.44231856 L0.0963327508,1.13899311 Z M3.42773437,1.13899311 L3.81815378,1.13899311 L3.81815378,2.44231856 L3.42761873,2.44231856 L3.42773437,1.13899311 Z M1.77724095,1.13899311 L2.16777601,1.13899311 L2.16777601,2.44231856 L1.77724095,2.44231856 L1.77724095,1.13899311 Z"></path>
                            <path d="M3.7016987,2.05108964 L3.7016987,2.44162469 L1.95082494,2.44162469 L1.95082494,2.05108964 L3.7016987,2.05108964 Z M3.81815378,1.03872841 L3.81815378,1.42926347 L2.70818771,1.42926347 L2.70818771,1.03872841 L3.81815378,1.03872841 Z"></path>
                        </g>
                        <g transform="translate(57.645970, 24.475946)" id="Shape" fill="#FFFFFF">
                            <path d="M0.0557411595,0.110788446 L5.73046875,0.110788446 L5.73046875,0.501323499 L0.0557411595,0.501323499 L0.0557411595,0.110788446 Z M0.901804071,2.06334807 L1.29233912,2.06334807 L1.29233912,2.4426655 L0.901804071,2.4426655 L0.901804071,2.06334807 Z M5.74527138,2.05108964 L5.74527138,2.44162469 L4.61113538,2.44162469 L4.61113538,2.05108964 L5.74527138,2.05108964 Z M6.35518606,0.110788446 L6.74572111,0.110788446 L6.74572111,2.44220292 L6.35518606,2.44220292 L6.35518606,0.110788446 Z"></path>
                            <path d="M8.61432206,2.05108964 L8.61432206,2.44162469 L6.46504934,2.44162469 L6.46504934,2.05108964 L8.61432206,2.05108964 Z M4.61113538,1.13899311 L5.00167044,1.13899311 L5.00167044,2.44231856 L4.61113538,2.44231856 L4.61113538,1.13899311 Z"></path>
                            <path d="M8.29456209,0.110788446 L8.68509714,0.110788446 L8.68509714,2.44220292 L8.29456209,2.44220292 L8.29456209,0.110788446 Z M7.31828228,0.110788446 L7.70881733,0.110788446 L7.70881733,2.44220292 L7.31828228,2.44220292 L7.31828228,0.110788446 Z M2.13747687,1.03872841 L2.13747687,1.42926347 L0.0662649054,1.42926347 L0.0662649054,1.03872841 L2.13747687,1.03872841 Z M6.68234735,1.03872841 L6.68234735,1.42926347 L4.61113538,1.42926347 L4.61113538,1.03872841 L6.68234735,1.03872841 Z"></path>
                            <polygon points="4.61113538 1.13899311 5.11113538 1.13899311 5.11113538 2.44231856 4.61113538 2.44231856"></polygon>
                            <polygon points="4.61113538 1.13899311 5.11113538 1.13899311 5.11113538 2.44231856 4.61113538 2.44231856"></polygon>
                            <path d="M4.61113538,1.13899311 L5.00167044,1.13899311 L5.00167044,2.44231856 L4.61113538,2.44231856 L4.61113538,1.13899311 Z M0.0662649054,1.13899311 L0.456799959,1.13899311 L0.456799959,2.44231856 L0.0662649054,2.44231856 L0.0662649054,1.13899311 Z M3.39766653,1.13899311 L3.78808594,1.13899311 L3.78808594,2.44231856 L3.39755088,2.44231856 L3.39766653,1.13899311 Z M1.74717311,1.13899311 L2.13770816,1.13899311 L2.13770816,2.44231856 L1.74717311,2.44231856 L1.74717311,1.13899311 Z"></path>
                            <path d="M3.67163086,2.05108964 L3.67163086,2.44162469 L1.92075709,2.44162469 L1.92075709,2.05108964 L3.67163086,2.05108964 Z M3.78808594,1.03872841 L3.78808594,1.42926347 L2.67811986,1.42926347 L2.67811986,1.03872841 L3.78808594,1.03872841 Z"></path>
                        </g>
                        <polygon id="Shape" fill="#239F40" points="0.739823191 0.902754934 122.739823 0.902754934 122.739823 3.44695724 0.739823191 3.44695724"></polygon>
                        <g transform="translate(67.013261, 24.475946)" id="Shape" fill="#FFFFFF">
                            <path d="M0.080026727,0.110788446 L5.75475432,0.110788446 L5.75475432,0.501323499 L0.080026727,0.501323499 L0.080026727,0.110788446 Z M0.926089638,2.06334807 L1.31662469,2.06334807 L1.31662469,2.4426655 L0.926089638,2.4426655 L0.926089638,2.06334807 Z M5.76955695,2.05108964 L5.76955695,2.44162469 L4.63542095,2.44162469 L4.63542095,2.05108964 L5.76955695,2.05108964 Z M6.37947163,0.110788446 L6.77000668,0.110788446 L6.77000668,2.44220292 L6.37947163,2.44220292 L6.37947163,0.110788446 Z"></path>
                            <path d="M8.63860763,2.05108964 L8.63860763,2.44162469 L6.48933491,2.44162469 L6.48933491,2.05108964 L8.63860763,2.05108964 Z M4.63542095,1.13899311 L5.025956,1.13899311 L5.025956,2.44231856 L4.63542095,2.44231856 L4.63542095,1.13899311 Z"></path>
                            <path d="M8.31884766,0.110788446 L8.70938271,0.110788446 L8.70938271,2.44220292 L8.31884766,2.44220292 L8.31884766,0.110788446 Z M7.34256785,0.110788446 L7.7331029,0.110788446 L7.7331029,2.44220292 L7.34256785,2.44220292 L7.34256785,0.110788446 Z M2.16176244,1.03872841 L2.16176244,1.42926347 L0.0905504729,1.42926347 L0.0905504729,1.03872841 L2.16176244,1.03872841 Z M6.70663292,1.03872841 L6.70663292,1.42926347 L4.63542095,1.42926347 L4.63542095,1.03872841 L6.70663292,1.03872841 Z"></path>
                            <polygon points="4.63542095 1.13899311 5.13542095 1.13899311 5.13542095 2.44231856 4.63542095 2.44231856"></polygon>
                            <polygon points="4.63542095 1.13899311 5.13542095 1.13899311 5.13542095 2.44231856 4.63542095 2.44231856"></polygon>
                            <path d="M4.63542095,1.13899311 L5.025956,1.13899311 L5.025956,2.44231856 L4.63542095,2.44231856 L4.63542095,1.13899311 Z M0.0905504729,1.13899311 L0.481085526,1.13899311 L0.481085526,2.44231856 L0.0905504729,2.44231856 L0.0905504729,1.13899311 Z M3.4219521,1.13899311 L3.8123715,1.13899311 L3.8123715,2.44231856 L3.42183645,2.44231856 L3.4219521,1.13899311 Z M1.77145868,1.13899311 L2.16199373,1.13899311 L2.16199373,2.44231856 L1.77145868,2.44231856 L1.77145868,1.13899311 Z"></path>
                            <path d="M3.69591643,2.05108964 L3.69591643,2.44162469 L1.94504266,2.44162469 L1.94504266,2.05108964 L3.69591643,2.05108964 Z M3.8123715,1.03872841 L3.8123715,1.42926347 L2.70240543,1.42926347 L2.70240543,1.03872841 L3.8123715,1.03872841 Z"></path>
                        </g>
                        <g transform="translate(76.380551, 24.475946)" id="Shape" fill="#FFFFFF">
                            <path d="M0.048802426,0.110788446 L5.72353002,0.110788446 L5.72353002,0.501323499 L0.048802426,0.501323499 L0.048802426,0.110788446 Z M0.894865337,2.06334807 L1.28540039,2.06334807 L1.28540039,2.4426655 L0.894865337,2.4426655 L0.894865337,2.06334807 Z M5.73833265,2.05108964 L5.73833265,2.44162469 L4.60419665,2.44162469 L4.60419665,2.05108964 L5.73833265,2.05108964 Z M6.34824733,0.110788446 L6.73878238,0.110788446 L6.73878238,2.44220292 L6.34824733,2.44220292 L6.34824733,0.110788446 Z"></path>
                            <path d="M8.60738333,2.05108964 L8.60738333,2.44162469 L6.45811061,2.44162469 L6.45811061,2.05108964 L8.60738333,2.05108964 Z M4.60419665,1.13899311 L4.9947317,1.13899311 L4.9947317,2.44231856 L4.60419665,2.44231856 L4.60419665,1.13899311 Z"></path>
                            <path d="M8.28762336,0.110788446 L8.67815841,0.110788446 L8.67815841,2.44220292 L8.28762336,2.44220292 L8.28762336,0.110788446 Z M7.31134354,0.110788446 L7.7018786,0.110788446 L7.7018786,2.44220292 L7.31134354,2.44220292 L7.31134354,0.110788446 Z M2.13053814,1.03872841 L2.13053814,1.42926347 L0.0593261719,1.42926347 L0.0593261719,1.03872841 L2.13053814,1.03872841 Z M6.67540861,1.03872841 L6.67540861,1.42926347 L4.60419665,1.42926347 L4.60419665,1.03872841 L6.67540861,1.03872841 Z"></path>
                            <polygon points="4.60419665 1.13899311 5.10419665 1.13899311 5.10419665 2.44231856 4.60419665 2.44231856"></polygon>
                            <polygon points="4.60419665 1.13899311 5.10419665 1.13899311 5.10419665 2.44231856 4.60419665 2.44231856"></polygon>
                            <path d="M4.60419665,1.13899311 L4.9947317,1.13899311 L4.9947317,2.44231856 L4.60419665,2.44231856 L4.60419665,1.13899311 Z M0.0593261719,1.13899311 L0.449861225,1.13899311 L0.449861225,2.44231856 L0.0593261719,2.44231856 L0.0593261719,1.13899311 Z M3.3907278,1.13899311 L3.7811472,1.13899311 L3.7811472,2.44231856 L3.39061215,2.44231856 L3.3907278,1.13899311 Z M1.74023437,1.13899311 L2.13076943,1.13899311 L2.13076943,2.44231856 L1.74023437,2.44231856 L1.74023437,1.13899311 Z"></path>
                            <path d="M3.66469213,2.05108964 L3.66469213,2.44162469 L1.91381836,2.44162469 L1.91381836,2.05108964 L3.66469213,2.05108964 Z M3.7811472,1.03872841 L3.7811472,1.42926347 L2.67118113,1.42926347 L2.67118113,1.03872841 L3.7811472,1.03872841 Z"></path>
                        </g>
                        <g transform="translate(85.747841, 24.475946)" id="Shape" fill="#FFFFFF">
                            <path d="M0.0187345806,0.110788446 L5.69346217,0.110788446 L5.69346217,0.501323499 L0.0187345806,0.501323499 L0.0187345806,0.110788446 Z M0.864797492,2.06334807 L1.25533255,2.06334807 L1.25533255,2.4426655 L0.864797492,2.4426655 L0.864797492,2.06334807 Z M5.7082648,2.05108964 L5.7082648,2.44162469 L4.5741288,2.44162469 L4.5741288,2.05108964 L5.7082648,2.05108964 Z M6.31817948,0.110788446 L6.70871454,0.110788446 L6.70871454,2.44220292 L6.31817948,2.44220292 L6.31817948,0.110788446 Z"></path>
                            <path d="M8.57731548,2.05108964 L8.57731548,2.44162469 L6.42804276,2.44162469 L6.42804276,2.05108964 L8.57731548,2.05108964 Z M4.5741288,1.13899311 L4.96466386,1.13899311 L4.96466386,2.44231856 L4.5741288,2.44231856 L4.5741288,1.13899311 Z"></path>
                            <path d="M8.25755551,0.110788446 L8.64809056,0.110788446 L8.64809056,2.44220292 L8.25755551,2.44220292 L8.25755551,0.110788446 Z M7.2812757,0.110788446 L7.67181075,0.110788446 L7.67181075,2.44220292 L7.2812757,2.44220292 L7.2812757,0.110788446 Z M2.10047029,1.03872841 L2.10047029,1.42926347 L0.0292583265,1.42926347 L0.0292583265,1.03872841 L2.10047029,1.03872841 Z M6.64534077,1.03872841 L6.64534077,1.42926347 L4.5741288,1.42926347 L4.5741288,1.03872841 L6.64534077,1.03872841 Z"></path>
                            <polygon points="4.5741288 1.13899311 5.0741288 1.13899311 5.0741288 2.44231856 4.5741288 2.44231856"></polygon>
                            <polygon points="4.5741288 1.13899311 5.0741288 1.13899311 5.0741288 2.44231856 4.5741288 2.44231856"></polygon>
                            <path d="M4.5741288,1.13899311 L4.96466386,1.13899311 L4.96466386,2.44231856 L4.5741288,2.44231856 L4.5741288,1.13899311 Z M0.0292583265,1.13899311 L0.41979338,1.13899311 L0.41979338,2.44231856 L0.0292583265,2.44231856 L0.0292583265,1.13899311 Z M3.36065995,1.13899311 L3.75107936,1.13899311 L3.75107936,2.44231856 L3.36054431,2.44231856 L3.36065995,1.13899311 Z M1.71016653,1.13899311 L2.10070158,1.13899311 L2.10070158,2.44231856 L1.71016653,2.44231856 L1.71016653,1.13899311 Z"></path>
                            <path d="M3.63462428,2.05108964 L3.63462428,2.44162469 L1.88375051,2.44162469 L1.88375051,2.05108964 L3.63462428,2.05108964 Z M3.75107936,1.03872841 L3.75107936,1.42926347 L2.64111328,1.42926347 L2.64111328,1.03872841 L3.75107936,1.03872841 Z"></path>
                        </g>
                        <g transform="translate(95.115132, 24.475946)" id="Shape" fill="#FFFFFF">
                            <path d="M0.043020148,0.110788446 L5.71774774,0.110788446 L5.71774774,0.501323499 L0.043020148,0.501323499 L0.043020148,0.110788446 Z M0.889083059,2.06334807 L1.27961811,2.06334807 L1.27961811,2.4426655 L0.889083059,2.4426655 L0.889083059,2.06334807 Z M5.73255037,2.05108964 L5.73255037,2.44162469 L4.59841437,2.44162469 L4.59841437,2.05108964 L5.73255037,2.05108964 Z M6.34246505,0.110788446 L6.7330001,0.110788446 L6.7330001,2.44220292 L6.34246505,2.44220292 L6.34246505,0.110788446 Z"></path>
                            <path d="M8.60160105,2.05108964 L8.60160105,2.44162469 L6.45232833,2.44162469 L6.45232833,2.05108964 L8.60160105,2.05108964 Z M4.59841437,1.13899311 L4.98894942,1.13899311 L4.98894942,2.44231856 L4.59841437,2.44231856 L4.59841437,1.13899311 Z"></path>
                            <path d="M8.28184108,0.110788446 L8.67237613,0.110788446 L8.67237613,2.44220292 L8.28184108,2.44220292 L8.28184108,0.110788446 Z M7.30556127,0.110788446 L7.69609632,0.110788446 L7.69609632,2.44220292 L7.30556127,2.44220292 L7.30556127,0.110788446 Z M2.12475586,1.03872841 L2.12475586,1.42926347 L0.0535438939,1.42926347 L0.0535438939,1.03872841 L2.12475586,1.03872841 Z M6.66962634,1.03872841 L6.66962634,1.42926347 L4.59841437,1.42926347 L4.59841437,1.03872841 L6.66962634,1.03872841 Z"></path>
                            <polygon points="4.59841437 1.13899311 5.09841437 1.13899311 5.09841437 2.44231856 4.59841437 2.44231856"></polygon>
                            <polygon points="4.59841437 1.13899311 5.09841437 1.13899311 5.09841437 2.44231856 4.59841437 2.44231856"></polygon>
                            <path d="M4.59841437,1.13899311 L4.98894942,1.13899311 L4.98894942,2.44231856 L4.59841437,2.44231856 L4.59841437,1.13899311 Z M0.0535438939,1.13899311 L0.444078947,1.13899311 L0.444078947,2.44231856 L0.0535438939,2.44231856 L0.0535438939,1.13899311 Z M3.38494552,1.13899311 L3.77536493,1.13899311 L3.77536493,2.44231856 L3.38482987,2.44231856 L3.38494552,1.13899311 Z M1.7344521,1.13899311 L2.12498715,1.13899311 L2.12498715,2.44231856 L1.7344521,2.44231856 L1.7344521,1.13899311 Z"></path>
                            <path d="M3.65890985,2.05108964 L3.65890985,2.44162469 L1.90803608,2.44162469 L1.90803608,2.05108964 L3.65890985,2.05108964 Z M3.77536493,1.03872841 L3.77536493,1.42926347 L2.66539885,1.42926347 L2.66539885,1.03872841 L3.77536493,1.03872841 Z"></path>
                        </g>
                        <g transform="translate(11.040810, 24.475946)" id="Shape" fill="#FFFFFF">
                            <path d="M0.0245168586,0.110788446 L5.69924445,0.110788446 L5.69924445,0.501323499 L0.0245168586,0.501323499 L0.0245168586,0.110788446 Z M0.87057977,2.06334807 L1.26111482,2.06334807 L1.26111482,2.4426655 L0.87057977,2.4426655 L0.87057977,2.06334807 Z M5.71404708,2.05108964 L5.71404708,2.44162469 L4.57991108,2.44162469 L4.57991108,2.05108964 L5.71404708,2.05108964 Z M6.32396176,0.110788446 L6.71449681,0.110788446 L6.71449681,2.44220292 L6.32396176,2.44220292 L6.32396176,0.110788446 Z"></path>
                            <path d="M8.58309776,2.05108964 L8.58309776,2.44162469 L6.43382504,2.44162469 L6.43382504,2.05108964 L8.58309776,2.05108964 Z M4.57991108,1.13899311 L4.97044613,1.13899311 L4.97044613,2.44231856 L4.57991108,2.44231856 L4.57991108,1.13899311 Z"></path>
                            <path d="M8.26333779,0.110788446 L8.65387284,0.110788446 L8.65387284,2.44220292 L8.26333779,2.44220292 L8.26333779,0.110788446 Z M7.28705798,0.110788446 L7.67759303,0.110788446 L7.67759303,2.44220292 L7.28705798,2.44220292 L7.28705798,0.110788446 Z M2.10625257,1.03872841 L2.10625257,1.42926347 L0.0350406044,1.42926347 L0.0350406044,1.03872841 L2.10625257,1.03872841 Z M6.65112305,1.03872841 L6.65112305,1.42926347 L4.57991108,1.42926347 L4.57991108,1.03872841 L6.65112305,1.03872841 Z"></path>
                            <polygon points="4.57991108 1.13899311 5.07991108 1.13899311 5.07991108 2.44231856 4.57991108 2.44231856"></polygon>
                            <polygon points="4.57991108 1.13899311 5.07991108 1.13899311 5.07991108 2.44231856 4.57991108 2.44231856"></polygon>
                            <path d="M4.57991108,1.13899311 L4.97044613,1.13899311 L4.97044613,2.44231856 L4.57991108,2.44231856 L4.57991108,1.13899311 Z M0.0350406044,1.13899311 L0.425575658,1.13899311 L0.425575658,2.44231856 L0.0350406044,2.44231856 L0.0350406044,1.13899311 Z M3.36644223,1.13899311 L3.75686164,1.13899311 L3.75686164,2.44231856 L3.36632658,2.44231856 L3.36644223,1.13899311 Z M1.71594881,1.13899311 L2.10648386,1.13899311 L2.10648386,2.44231856 L1.71594881,2.44231856 L1.71594881,1.13899311 Z"></path>
                            <path d="M3.64040656,2.05108964 L3.64040656,2.44162469 L1.88953279,2.44162469 L1.88953279,2.05108964 L3.64040656,2.05108964 Z M3.75686164,1.03872841 L3.75686164,1.42926347 L2.64689556,1.42926347 L2.64689556,1.03872841 L3.75686164,1.03872841 Z"></path>
                        </g>
                        <g transform="translate(29.775391, 0.537315)" id="Shape" fill="#FFFFFF">
                            <path d="M0.043020148,0.0511153372 L5.71774774,0.0511153372 L5.71774774,0.441650391 L0.043020148,0.441650391 L0.043020148,0.0511153372 Z M0.889083059,2.00367496 L1.27961811,2.00367496 L1.27961811,2.38299239 L0.889083059,2.38299239 L0.889083059,2.00367496 Z M5.73255037,1.99141653 L5.73255037,2.38195158 L4.59841437,2.38195158 L4.59841437,1.99141653 L5.73255037,1.99141653 Z M6.34246505,0.0511153372 L6.7330001,0.0511153372 L6.7330001,2.38252981 L6.34246505,2.38252981 L6.34246505,0.0511153372 Z"></path>
                            <path d="M8.60160105,1.99141653 L8.60160105,2.38195158 L6.45232833,2.38195158 L6.45232833,1.99141653 L8.60160105,1.99141653 Z M4.59841437,1.07932 L4.98894942,1.07932 L4.98894942,2.38264546 L4.59841437,2.38264546 L4.59841437,1.07932 Z"></path>
                            <path d="M8.28184108,0.0511153372 L8.67237613,0.0511153372 L8.67237613,2.38252981 L8.28184108,2.38252981 L8.28184108,0.0511153372 Z M7.30556127,0.0511153372 L7.69609632,0.0511153372 L7.69609632,2.38252981 L7.30556127,2.38252981 L7.30556127,0.0511153372 Z M2.12475586,0.979055304 L2.12475586,1.36959036 L0.0535438939,1.36959036 L0.0535438939,0.979055304 L2.12475586,0.979055304 Z M6.66962634,0.979055304 L6.66962634,1.36959036 L4.59841437,1.36959036 L4.59841437,0.979055304 L6.66962634,0.979055304 Z"></path>
                            <polygon points="4.59841437 1.07932 5.09841437 1.07932 5.09841437 2.38264546 4.59841437 2.38264546"></polygon>
                            <polygon points="4.59841437 1.07932 5.09841437 1.07932 5.09841437 2.38264546 4.59841437 2.38264546"></polygon>
                            <path d="M4.59841437,1.07932 L4.98894942,1.07932 L4.98894942,2.38264546 L4.59841437,2.38264546 L4.59841437,1.07932 Z M0.0535438939,1.07932 L0.444078947,1.07932 L0.444078947,2.38264546 L0.0535438939,2.38264546 L0.0535438939,1.07932 Z M3.38494552,1.07932 L3.77536493,1.07932 L3.77536493,2.38264546 L3.38494552,2.38264546 L3.38494552,1.07932 Z M1.7344521,1.07932 L2.12498715,1.07932 L2.12498715,2.38264546 L1.7344521,2.38264546 L1.7344521,1.07932 Z"></path>
                            <path d="M3.65890985,1.99141653 L3.65890985,2.38195158 L1.90803608,2.38195158 L1.90803608,1.99141653 L3.65890985,1.99141653 Z M3.77536493,0.979055304 L3.77536493,1.36959036 L2.66539885,1.36959036 L2.66539885,0.979055304 L3.77536493,0.979055304 Z"></path>
                        </g>
                        <g transform="translate(20.408100, 0.537315)" id="Shape" fill="#FFFFFF">
                            <path d="M0.0892783717,0.0511153372 L5.76400596,0.0511153372 L5.76400596,0.441650391 L0.0892783717,0.441650391 L0.0892783717,0.0511153372 Z M0.935341283,2.00367496 L1.32587634,2.00367496 L1.32587634,2.38299239 L0.935341283,2.38299239 L0.935341283,2.00367496 Z M5.77880859,1.99141653 L5.77880859,2.38195158 L4.64467259,2.38195158 L4.64467259,1.99141653 L5.77880859,1.99141653 Z M6.38872327,0.0511153372 L6.77925833,0.0511153372 L6.77925833,2.38252981 L6.38872327,2.38252981 L6.38872327,0.0511153372 Z"></path>
                            <path d="M8.64785927,1.99141653 L8.64785927,2.38195158 L6.49858655,2.38195158 L6.49858655,1.99141653 L8.64785927,1.99141653 Z M4.64467259,1.07932 L5.03520765,1.07932 L5.03520765,2.38264546 L4.64467259,2.38264546 L4.64467259,1.07932 Z"></path>
                            <path d="M8.3280993,0.0511153372 L8.71863435,0.0511153372 L8.71863435,2.38252981 L8.3280993,2.38252981 L8.3280993,0.0511153372 Z M7.35181949,0.0511153372 L7.74235454,0.0511153372 L7.74235454,2.38252981 L7.35181949,2.38252981 L7.35181949,0.0511153372 Z M2.17101408,0.979055304 L2.17101408,1.36959036 L0.0998021176,1.36959036 L0.0998021176,0.979055304 L2.17101408,0.979055304 Z M6.71588456,0.979055304 L6.71588456,1.36959036 L4.64467259,1.36959036 L4.64467259,0.979055304 L6.71588456,0.979055304 Z"></path>
                            <polygon points="4.64467259 1.07932 5.14467259 1.07932 5.14467259 2.38264546 4.64467259 2.38264546"></polygon>
                            <polygon points="4.64467259 1.07932 5.14467259 1.07932 5.14467259 2.38264546 4.64467259 2.38264546"></polygon>
                            <path d="M4.64467259,1.07932 L5.03520765,1.07932 L5.03520765,2.38264546 L4.64467259,2.38264546 L4.64467259,1.07932 Z M0.0998021176,1.07932 L0.490337171,1.07932 L0.490337171,2.38264546 L0.0998021176,2.38264546 L0.0998021176,1.07932 Z M3.43120374,1.07932 L3.82162315,1.07932 L3.82162315,2.38264546 L3.4310881,2.38264546 L3.43120374,1.07932 Z M1.78071032,1.07932 L2.17124537,1.07932 L2.17124537,2.38264546 L1.78071032,2.38264546 L1.78071032,1.07932 Z"></path>
                            <path d="M3.70516807,1.99141653 L3.70516807,2.38195158 L1.95429431,2.38195158 L1.95429431,1.99141653 L3.70516807,1.99141653 Z M3.82162315,0.979055304 L3.82162315,1.36959036 L2.71165707,1.36959036 L2.71165707,0.979055304 L3.82162315,0.979055304 Z"></path>
                        </g>
                        <g transform="translate(39.027035, 0.537315)" id="Shape" fill="#FFFFFF">
                            <path d="M0.0343467311,0.0511153372 L5.70907432,0.0511153372 L5.70907432,0.441650391 L0.0343467311,0.441650391 L0.0343467311,0.0511153372 Z M0.880409642,2.00367496 L1.27082905,2.00367496 L1.27082905,2.38299239 L0.880409642,2.38299239 L0.880409642,2.00367496 Z M5.72376131,1.99141653 L5.72376131,2.38195158 L4.58962531,2.38195158 L4.58962531,1.99141653 L5.72376131,1.99141653 Z M6.33379163,0.0511153372 L6.72432669,0.0511153372 L6.72432669,2.38252981 L6.33379163,2.38252981 L6.33379163,0.0511153372 Z"></path>
                            <path d="M8.59281199,1.99141653 L8.59281199,2.38195158 L6.44377056,2.38195158 L6.44377056,1.99141653 L8.59281199,1.99141653 Z M4.58962531,1.07932 L4.98016036,1.07932 L4.98016036,2.38264546 L4.58962531,2.38264546 L4.58962531,1.07932 Z"></path>
                            <path d="M8.27316766,0.0511153372 L8.66370271,0.0511153372 L8.66370271,2.38252981 L8.27316766,2.38252981 L8.27316766,0.0511153372 Z M7.29688785,0.0511153372 L7.6874229,0.0511153372 L7.6874229,2.38252981 L7.29688785,2.38252981 L7.29688785,0.0511153372 Z M2.11608244,0.979055304 L2.11608244,1.36959036 L0.044870477,1.36959036 L0.044870477,0.979055304 L2.11608244,0.979055304 Z M6.66083727,0.979055304 L6.66083727,1.36959036 L4.58962531,1.36959036 L4.58962531,0.979055304 L6.66083727,0.979055304 Z"></path>
                            <polygon points="4.58962531 1.07932 5.08962531 1.07932 5.08962531 2.38264546 4.58962531 2.38264546"></polygon>
                            <polygon points="4.58962531 1.07932 5.08962531 1.07932 5.08962531 2.38264546 4.58962531 2.38264546"></polygon>
                            <path d="M4.58962531,1.07932 L4.98016036,1.07932 L4.98016036,2.38264546 L4.58962531,2.38264546 L4.58962531,1.07932 Z M0.044870477,1.07932 L0.43540553,1.07932 L0.43540553,2.38264546 L0.044870477,2.38264546 L0.044870477,1.07932 Z M3.37615646,1.07932 L3.76669151,1.07932 L3.76669151,2.38264546 L3.37615646,2.38264546 L3.37615646,1.07932 Z M1.72566303,1.07932 L2.11631373,1.07932 L2.11631373,2.38264546 L1.72577868,2.38264546 L1.72566303,1.07932 Z"></path>
                            <path d="M3.65012079,1.99141653 L3.65012079,2.38195158 L1.89924702,2.38195158 L1.89924702,1.99141653 L3.65012079,1.99141653 Z M3.76657586,0.979055304 L3.76657586,1.36959036 L2.65660979,1.36959036 L2.65660979,0.979055304 L3.76657586,0.979055304 Z"></path>
                        </g>
                        <g transform="translate(104.251131, 0.537315)" id="Shape" fill="#FFFFFF">
                            <path d="M0.0788702714,0.0511153372 L5.75359786,0.0511153372 L5.75359786,0.441650391 L0.0788702714,0.441650391 L0.0788702714,0.0511153372 Z M0.924933183,2.00367496 L1.31546824,2.00367496 L1.31546824,2.38299239 L0.924933183,2.38299239 L0.924933183,2.00367496 Z M5.76840049,1.99141653 L5.76840049,2.38195158 L4.63426449,2.38195158 L4.63426449,1.99141653 L5.76840049,1.99141653 Z M6.37831517,0.0511153372 L6.76885023,0.0511153372 L6.76885023,2.38252981 L6.37831517,2.38252981 L6.37831517,0.0511153372 Z"></path>
                            <path d="M8.63745117,1.99141653 L8.63745117,2.38195158 L6.48817845,2.38195158 L6.48817845,1.99141653 L8.63745117,1.99141653 Z M4.63426449,1.07932 L5.02479955,1.07932 L5.02479955,2.38264546 L4.63426449,2.38264546 L4.63426449,1.07932 Z"></path>
                            <path d="M8.3176912,0.0511153372 L8.70822625,0.0511153372 L8.70822625,2.38252981 L8.3176912,2.38252981 L8.3176912,0.0511153372 Z M7.34141139,0.0511153372 L7.73194644,0.0511153372 L7.73194644,2.38252981 L7.34141139,2.38252981 L7.34141139,0.0511153372 Z M2.16060598,0.979055304 L2.16060598,1.36959036 L0.0893940173,1.36959036 L0.0893940173,0.979055304 L2.16060598,0.979055304 Z M6.70547646,0.979055304 L6.70547646,1.36959036 L4.63426449,1.36959036 L4.63426449,0.979055304 L6.70547646,0.979055304 Z"></path>
                            <polygon points="4.63426449 1.07932 5.13426449 1.07932 5.13426449 2.38264546 4.63426449 2.38264546"></polygon>
                            <polygon points="4.63426449 1.07932 5.13426449 1.07932 5.13426449 2.38264546 4.63426449 2.38264546"></polygon>
                            <path d="M4.63426449,1.07932 L5.02479955,1.07932 L5.02479955,2.38264546 L4.63426449,2.38264546 L4.63426449,1.07932 Z M0.0893940173,1.07932 L0.479929071,1.07932 L0.479929071,2.38264546 L0.0893940173,2.38264546 L0.0893940173,1.07932 Z M3.42079564,1.07932 L3.81121505,1.07932 L3.81121505,2.38264546 L3.42068,2.38264546 L3.42079564,1.07932 Z M1.77030222,1.07932 L2.16083727,1.07932 L2.16083727,2.38264546 L1.77030222,2.38264546 L1.77030222,1.07932 Z"></path>
                            <path d="M3.69475997,1.99141653 L3.69475997,2.38195158 L1.9438862,2.38195158 L1.9438862,1.99141653 L3.69475997,1.99141653 Z M3.81121505,0.979055304 L3.81121505,1.36959036 L2.70124897,1.36959036 L2.70124897,0.979055304 L3.81121505,0.979055304 Z"></path>
                        </g>
                        <g transform="translate(48.278680, 0.537315)" id="Shape" fill="#FFFFFF">
                            <path d="M0.0858090049,0.0511153372 L5.7605366,0.0511153372 L5.7605366,0.441650391 L0.0858090049,0.441650391 L0.0858090049,0.0511153372 Z M0.931871916,2.00367496 L1.32240697,2.00367496 L1.32240697,2.38299239 L0.931871916,2.38299239 L0.931871916,2.00367496 Z M5.77533923,1.99141653 L5.77533923,2.38195158 L4.64120323,2.38195158 L4.64120323,1.99141653 L5.77533923,1.99141653 Z M6.38525391,0.0511153372 L6.77578896,0.0511153372 L6.77578896,2.38252981 L6.38525391,2.38252981 L6.38525391,0.0511153372 Z"></path>
                            <path d="M8.64438991,1.99141653 L8.64438991,2.38195158 L6.49511719,2.38195158 L6.49511719,1.99141653 L8.64438991,1.99141653 Z M4.64120323,1.07932 L5.03173828,1.07932 L5.03173828,2.38264546 L4.64120323,2.38264546 L4.64120323,1.07932 Z"></path>
                            <path d="M8.32462993,0.0511153372 L8.71516499,0.0511153372 L8.71516499,2.38252981 L8.32462993,2.38252981 L8.32462993,0.0511153372 Z M7.34835012,0.0511153372 L7.73888518,0.0511153372 L7.73888518,2.38252981 L7.34835012,2.38252981 L7.34835012,0.0511153372 Z M2.16754472,0.979055304 L2.16754472,1.36959036 L0.0963327508,1.36959036 L0.0963327508,0.979055304 L2.16754472,0.979055304 Z M6.71241519,0.979055304 L6.71241519,1.36959036 L4.64120323,1.36959036 L4.64120323,0.979055304 L6.71241519,0.979055304 Z"></path>
                            <polygon points="4.64120323 1.07932 5.14120323 1.07932 5.14120323 2.38264546 4.64120323 2.38264546"></polygon>
                            <polygon points="4.64120323 1.07932 5.14120323 1.07932 5.14120323 2.38264546 4.64120323 2.38264546"></polygon>
                            <path d="M4.64120323,1.07932 L5.03173828,1.07932 L5.03173828,2.38264546 L4.64120323,2.38264546 L4.64120323,1.07932 Z M0.0963327508,1.07932 L0.486867804,1.07932 L0.486867804,2.38264546 L0.0963327508,2.38264546 L0.0963327508,1.07932 Z M3.42773437,1.07932 L3.81815378,1.07932 L3.81815378,2.38264546 L3.42761873,2.38264546 L3.42773437,1.07932 Z M1.77724095,1.07932 L2.16777601,1.07932 L2.16777601,2.38264546 L1.77724095,2.38264546 L1.77724095,1.07932 Z"></path>
                            <path d="M3.7016987,1.99141653 L3.7016987,2.38195158 L1.95082494,2.38195158 L1.95082494,1.99141653 L3.7016987,1.99141653 Z M3.81815378,0.979055304 L3.81815378,1.36959036 L2.70818771,1.36959036 L2.70818771,0.979055304 L3.81815378,0.979055304 Z"></path>
                        </g>
                        <g transform="translate(57.645970, 0.537315)" id="Shape" fill="#FFFFFF">
                            <path d="M0.0557411595,0.0511153372 L5.73046875,0.0511153372 L5.73046875,0.441650391 L0.0557411595,0.441650391 L0.0557411595,0.0511153372 Z M0.901804071,2.00367496 L1.29233912,2.00367496 L1.29233912,2.38299239 L0.901804071,2.38299239 L0.901804071,2.00367496 Z M5.74527138,1.99141653 L5.74527138,2.38195158 L4.61113538,2.38195158 L4.61113538,1.99141653 L5.74527138,1.99141653 Z M6.35518606,0.0511153372 L6.74572111,0.0511153372 L6.74572111,2.38252981 L6.35518606,2.38252981 L6.35518606,0.0511153372 Z"></path>
                            <path d="M8.61432206,1.99141653 L8.61432206,2.38195158 L6.46504934,2.38195158 L6.46504934,1.99141653 L8.61432206,1.99141653 Z M4.61113538,1.07932 L5.00167044,1.07932 L5.00167044,2.38264546 L4.61113538,2.38264546 L4.61113538,1.07932 Z"></path>
                            <path d="M8.29456209,0.0511153372 L8.68509714,0.0511153372 L8.68509714,2.38252981 L8.29456209,2.38252981 L8.29456209,0.0511153372 Z M7.31828228,0.0511153372 L7.70881733,0.0511153372 L7.70881733,2.38252981 L7.31828228,2.38252981 L7.31828228,0.0511153372 Z M2.13747687,0.979055304 L2.13747687,1.36959036 L0.0662649054,1.36959036 L0.0662649054,0.979055304 L2.13747687,0.979055304 Z M6.68234735,0.979055304 L6.68234735,1.36959036 L4.61113538,1.36959036 L4.61113538,0.979055304 L6.68234735,0.979055304 Z"></path>
                            <polygon points="4.61113538 1.07932 5.11113538 1.07932 5.11113538 2.38264546 4.61113538 2.38264546"></polygon>
                            <polygon points="4.61113538 1.07932 5.11113538 1.07932 5.11113538 2.38264546 4.61113538 2.38264546"></polygon>
                            <path d="M4.61113538,1.07932 L5.00167044,1.07932 L5.00167044,2.38264546 L4.61113538,2.38264546 L4.61113538,1.07932 Z M0.0662649054,1.07932 L0.456799959,1.07932 L0.456799959,2.38264546 L0.0662649054,2.38264546 L0.0662649054,1.07932 Z M3.39766653,1.07932 L3.78808594,1.07932 L3.78808594,2.38264546 L3.39755088,2.38264546 L3.39766653,1.07932 Z M1.74717311,1.07932 L2.13770816,1.07932 L2.13770816,2.38264546 L1.74717311,2.38264546 L1.74717311,1.07932 Z"></path>
                            <path d="M3.67163086,1.99141653 L3.67163086,2.38195158 L1.92075709,2.38195158 L1.92075709,1.99141653 L3.67163086,1.99141653 Z M3.78808594,0.979055304 L3.78808594,1.36959036 L2.67811986,1.36959036 L2.67811986,0.979055304 L3.78808594,0.979055304 Z"></path>
                        </g>
                        <g transform="translate(67.013261, 0.537315)" id="Shape" fill="#FFFFFF">
                            <path d="M0.080026727,0.0511153372 L5.75475432,0.0511153372 L5.75475432,0.441650391 L0.080026727,0.441650391 L0.080026727,0.0511153372 Z M0.926089638,2.00367496 L1.31662469,2.00367496 L1.31662469,2.38299239 L0.926089638,2.38299239 L0.926089638,2.00367496 Z M5.76955695,1.99141653 L5.76955695,2.38195158 L4.63542095,2.38195158 L4.63542095,1.99141653 L5.76955695,1.99141653 Z M6.37947163,0.0511153372 L6.77000668,0.0511153372 L6.77000668,2.38252981 L6.37947163,2.38252981 L6.37947163,0.0511153372 Z"></path>
                            <path d="M8.63860763,1.99141653 L8.63860763,2.38195158 L6.48933491,2.38195158 L6.48933491,1.99141653 L8.63860763,1.99141653 Z M4.63542095,1.07932 L5.025956,1.07932 L5.025956,2.38264546 L4.63542095,2.38264546 L4.63542095,1.07932 Z"></path>
                            <path d="M8.31884766,0.0511153372 L8.70938271,0.0511153372 L8.70938271,2.38252981 L8.31884766,2.38252981 L8.31884766,0.0511153372 Z M7.34256785,0.0511153372 L7.7331029,0.0511153372 L7.7331029,2.38252981 L7.34256785,2.38252981 L7.34256785,0.0511153372 Z M2.16176244,0.979055304 L2.16176244,1.36959036 L0.0905504729,1.36959036 L0.0905504729,0.979055304 L2.16176244,0.979055304 Z M6.70663292,0.979055304 L6.70663292,1.36959036 L4.63542095,1.36959036 L4.63542095,0.979055304 L6.70663292,0.979055304 Z"></path>
                            <polygon points="4.63542095 1.07932 5.13542095 1.07932 5.13542095 2.38264546 4.63542095 2.38264546"></polygon>
                            <polygon points="4.63542095 1.07932 5.13542095 1.07932 5.13542095 2.38264546 4.63542095 2.38264546"></polygon>
                            <path d="M4.63542095,1.07932 L5.025956,1.07932 L5.025956,2.38264546 L4.63542095,2.38264546 L4.63542095,1.07932 Z M0.0905504729,1.07932 L0.481085526,1.07932 L0.481085526,2.38264546 L0.0905504729,2.38264546 L0.0905504729,1.07932 Z M3.4219521,1.07932 L3.8123715,1.07932 L3.8123715,2.38264546 L3.42183645,2.38264546 L3.4219521,1.07932 Z M1.77145868,1.07932 L2.16199373,1.07932 L2.16199373,2.38264546 L1.77145868,2.38264546 L1.77145868,1.07932 Z"></path>
                            <path d="M3.69591643,1.99141653 L3.69591643,2.38195158 L1.94504266,2.38195158 L1.94504266,1.99141653 L3.69591643,1.99141653 Z M3.8123715,0.979055304 L3.8123715,1.36959036 L2.70240543,1.36959036 L2.70240543,0.979055304 L3.8123715,0.979055304 Z"></path>
                        </g>
                        <g transform="translate(76.380551, 0.537315)" id="Shape" fill="#FFFFFF">
                            <path d="M0.048802426,0.0511153372 L5.72353002,0.0511153372 L5.72353002,0.441650391 L0.048802426,0.441650391 L0.048802426,0.0511153372 Z M0.894865337,2.00367496 L1.28540039,2.00367496 L1.28540039,2.38299239 L0.894865337,2.38299239 L0.894865337,2.00367496 Z M5.73833265,1.99141653 L5.73833265,2.38195158 L4.60419665,2.38195158 L4.60419665,1.99141653 L5.73833265,1.99141653 Z M6.34824733,0.0511153372 L6.73878238,0.0511153372 L6.73878238,2.38252981 L6.34824733,2.38252981 L6.34824733,0.0511153372 Z"></path>
                            <path d="M8.60738333,1.99141653 L8.60738333,2.38195158 L6.45811061,2.38195158 L6.45811061,1.99141653 L8.60738333,1.99141653 Z M4.60419665,1.07932 L4.9947317,1.07932 L4.9947317,2.38264546 L4.60419665,2.38264546 L4.60419665,1.07932 Z"></path>
                            <path d="M8.28762336,0.0511153372 L8.67815841,0.0511153372 L8.67815841,2.38252981 L8.28762336,2.38252981 L8.28762336,0.0511153372 Z M7.31134354,0.0511153372 L7.7018786,0.0511153372 L7.7018786,2.38252981 L7.31134354,2.38252981 L7.31134354,0.0511153372 Z M2.13053814,0.979055304 L2.13053814,1.36959036 L0.0593261719,1.36959036 L0.0593261719,0.979055304 L2.13053814,0.979055304 Z M6.67540861,0.979055304 L6.67540861,1.36959036 L4.60419665,1.36959036 L4.60419665,0.979055304 L6.67540861,0.979055304 Z"></path>
                            <polygon points="4.60419665 1.07932 5.10419665 1.07932 5.10419665 2.38264546 4.60419665 2.38264546"></polygon>
                            <polygon points="4.60419665 1.07932 5.10419665 1.07932 5.10419665 2.38264546 4.60419665 2.38264546"></polygon>
                            <path d="M4.60419665,1.07932 L4.9947317,1.07932 L4.9947317,2.38264546 L4.60419665,2.38264546 L4.60419665,1.07932 Z M0.0593261719,1.07932 L0.449861225,1.07932 L0.449861225,2.38264546 L0.0593261719,2.38264546 L0.0593261719,1.07932 Z M3.3907278,1.07932 L3.7811472,1.07932 L3.7811472,2.38264546 L3.39061215,2.38264546 L3.3907278,1.07932 Z M1.74023437,1.07932 L2.13076943,1.07932 L2.13076943,2.38264546 L1.74023437,2.38264546 L1.74023437,1.07932 Z"></path>
                            <path d="M3.66469213,1.99141653 L3.66469213,2.38195158 L1.91381836,2.38195158 L1.91381836,1.99141653 L3.66469213,1.99141653 Z M3.7811472,0.979055304 L3.7811472,1.36959036 L2.67118113,1.36959036 L2.67118113,0.979055304 L3.7811472,0.979055304 Z"></path>
                        </g>
                        <g transform="translate(85.747841, 0.537315)" id="Shape" fill="#FFFFFF">
                            <path d="M0.0187345806,0.0511153372 L5.69346217,0.0511153372 L5.69346217,0.441650391 L0.0187345806,0.441650391 L0.0187345806,0.0511153372 Z M0.864797492,2.00367496 L1.25533255,2.00367496 L1.25533255,2.38299239 L0.864797492,2.38299239 L0.864797492,2.00367496 Z M5.7082648,1.99141653 L5.7082648,2.38195158 L4.5741288,2.38195158 L4.5741288,1.99141653 L5.7082648,1.99141653 Z M6.31817948,0.0511153372 L6.70871454,0.0511153372 L6.70871454,2.38252981 L6.31817948,2.38252981 L6.31817948,0.0511153372 Z"></path>
                            <path d="M8.57731548,1.99141653 L8.57731548,2.38195158 L6.42804276,2.38195158 L6.42804276,1.99141653 L8.57731548,1.99141653 Z M4.5741288,1.07932 L4.96466386,1.07932 L4.96466386,2.38264546 L4.5741288,2.38264546 L4.5741288,1.07932 Z"></path>
                            <path d="M8.25755551,0.0511153372 L8.64809056,0.0511153372 L8.64809056,2.38252981 L8.25755551,2.38252981 L8.25755551,0.0511153372 Z M7.2812757,0.0511153372 L7.67181075,0.0511153372 L7.67181075,2.38252981 L7.2812757,2.38252981 L7.2812757,0.0511153372 Z M2.10047029,0.979055304 L2.10047029,1.36959036 L0.0292583265,1.36959036 L0.0292583265,0.979055304 L2.10047029,0.979055304 Z M6.64534077,0.979055304 L6.64534077,1.36959036 L4.5741288,1.36959036 L4.5741288,0.979055304 L6.64534077,0.979055304 Z"></path>
                            <polygon points="4.5741288 1.07932 5.0741288 1.07932 5.0741288 2.38264546 4.5741288 2.38264546"></polygon>
                            <polygon points="4.5741288 1.07932 5.0741288 1.07932 5.0741288 2.38264546 4.5741288 2.38264546"></polygon>
                            <path d="M4.5741288,1.07932 L4.96466386,1.07932 L4.96466386,2.38264546 L4.5741288,2.38264546 L4.5741288,1.07932 Z M0.0292583265,1.07932 L0.41979338,1.07932 L0.41979338,2.38264546 L0.0292583265,2.38264546 L0.0292583265,1.07932 Z M3.36065995,1.07932 L3.75107936,1.07932 L3.75107936,2.38264546 L3.36054431,2.38264546 L3.36065995,1.07932 Z M1.71016653,1.07932 L2.10070158,1.07932 L2.10070158,2.38264546 L1.71016653,2.38264546 L1.71016653,1.07932 Z"></path>
                            <path d="M3.63462428,1.99141653 L3.63462428,2.38195158 L1.88375051,2.38195158 L1.88375051,1.99141653 L3.63462428,1.99141653 Z M3.75107936,0.979055304 L3.75107936,1.36959036 L2.64111328,1.36959036 L2.64111328,0.979055304 L3.75107936,0.979055304 Z"></path>
                        </g>
                        <g transform="translate(95.115132, 0.537315)" id="Shape" fill="#FFFFFF">
                            <path d="M0.043020148,0.0511153372 L5.71774774,0.0511153372 L5.71774774,0.441650391 L0.043020148,0.441650391 L0.043020148,0.0511153372 Z M0.889083059,2.00367496 L1.27961811,2.00367496 L1.27961811,2.38299239 L0.889083059,2.38299239 L0.889083059,2.00367496 Z M5.73255037,1.99141653 L5.73255037,2.38195158 L4.59841437,2.38195158 L4.59841437,1.99141653 L5.73255037,1.99141653 Z M6.34246505,0.0511153372 L6.7330001,0.0511153372 L6.7330001,2.38252981 L6.34246505,2.38252981 L6.34246505,0.0511153372 Z"></path>
                            <path d="M8.60160105,1.99141653 L8.60160105,2.38195158 L6.45232833,2.38195158 L6.45232833,1.99141653 L8.60160105,1.99141653 Z M4.59841437,1.07932 L4.98894942,1.07932 L4.98894942,2.38264546 L4.59841437,2.38264546 L4.59841437,1.07932 Z"></path>
                            <path d="M8.28184108,0.0511153372 L8.67237613,0.0511153372 L8.67237613,2.38252981 L8.28184108,2.38252981 L8.28184108,0.0511153372 Z M7.30556127,0.0511153372 L7.69609632,0.0511153372 L7.69609632,2.38252981 L7.30556127,2.38252981 L7.30556127,0.0511153372 Z M2.12475586,0.979055304 L2.12475586,1.36959036 L0.0535438939,1.36959036 L0.0535438939,0.979055304 L2.12475586,0.979055304 Z M6.66962634,0.979055304 L6.66962634,1.36959036 L4.59841437,1.36959036 L4.59841437,0.979055304 L6.66962634,0.979055304 Z"></path>
                            <polygon points="4.59841437 1.07932 5.09841437 1.07932 5.09841437 2.38264546 4.59841437 2.38264546"></polygon>
                            <polygon points="4.59841437 1.07932 5.09841437 1.07932 5.09841437 2.38264546 4.59841437 2.38264546"></polygon>
                            <path d="M4.59841437,1.07932 L4.98894942,1.07932 L4.98894942,2.38264546 L4.59841437,2.38264546 L4.59841437,1.07932 Z M0.0535438939,1.07932 L0.444078947,1.07932 L0.444078947,2.38264546 L0.0535438939,2.38264546 L0.0535438939,1.07932 Z M3.38494552,1.07932 L3.77536493,1.07932 L3.77536493,2.38264546 L3.38482987,2.38264546 L3.38494552,1.07932 Z M1.7344521,1.07932 L2.12498715,1.07932 L2.12498715,2.38264546 L1.7344521,2.38264546 L1.7344521,1.07932 Z"></path>
                            <path d="M3.65890985,1.99141653 L3.65890985,2.38195158 L1.90803608,2.38195158 L1.90803608,1.99141653 L3.65890985,1.99141653 Z M3.77536493,0.979055304 L3.77536493,1.36959036 L2.66539885,1.36959036 L2.66539885,0.979055304 L3.77536493,0.979055304 Z"></path>
                        </g>
                        <g transform="translate(11.040810, 0.537315)" id="Shape" fill="#FFFFFF">
                            <path d="M0.0245168586,0.0511153372 L5.69924445,0.0511153372 L5.69924445,0.441650391 L0.0245168586,0.441650391 L0.0245168586,0.0511153372 Z M0.87057977,2.00367496 L1.26111482,2.00367496 L1.26111482,2.38299239 L0.87057977,2.38299239 L0.87057977,2.00367496 Z M5.71404708,1.99141653 L5.71404708,2.38195158 L4.57991108,2.38195158 L4.57991108,1.99141653 L5.71404708,1.99141653 Z M6.32396176,0.0511153372 L6.71449681,0.0511153372 L6.71449681,2.38252981 L6.32396176,2.38252981 L6.32396176,0.0511153372 Z"></path>
                            <path d="M8.58309776,1.99141653 L8.58309776,2.38195158 L6.43382504,2.38195158 L6.43382504,1.99141653 L8.58309776,1.99141653 Z M4.57991108,1.07932 L4.97044613,1.07932 L4.97044613,2.38264546 L4.57991108,2.38264546 L4.57991108,1.07932 Z"></path>
                            <path d="M8.26333779,0.0511153372 L8.65387284,0.0511153372 L8.65387284,2.38252981 L8.26333779,2.38252981 L8.26333779,0.0511153372 Z M7.28705798,0.0511153372 L7.67759303,0.0511153372 L7.67759303,2.38252981 L7.28705798,2.38252981 L7.28705798,0.0511153372 Z M2.10625257,0.979055304 L2.10625257,1.36959036 L0.0350406044,1.36959036 L0.0350406044,0.979055304 L2.10625257,0.979055304 Z M6.65112305,0.979055304 L6.65112305,1.36959036 L4.57991108,1.36959036 L4.57991108,0.979055304 L6.65112305,0.979055304 Z"></path>
                            <polygon points="4.57991108 1.07932 5.07991108 1.07932 5.07991108 2.38264546 4.57991108 2.38264546"></polygon>
                            <polygon points="4.57991108 1.07932 5.07991108 1.07932 5.07991108 2.38264546 4.57991108 2.38264546"></polygon>
                            <path d="M4.57991108,1.07932 L4.97044613,1.07932 L4.97044613,2.38264546 L4.57991108,2.38264546 L4.57991108,1.07932 Z M0.0350406044,1.07932 L0.425575658,1.07932 L0.425575658,2.38264546 L0.0350406044,2.38264546 L0.0350406044,1.07932 Z M3.36644223,1.07932 L3.75686164,1.07932 L3.75686164,2.38264546 L3.36632658,2.38264546 L3.36644223,1.07932 Z M1.71594881,1.07932 L2.10648386,1.07932 L2.10648386,2.38264546 L1.71594881,2.38264546 L1.71594881,1.07932 Z"></path>
                            <path d="M3.64040656,1.99141653 L3.64040656,2.38195158 L1.88953279,2.38195158 L1.88953279,1.99141653 L3.64040656,1.99141653 Z M3.75686164,0.979055304 L3.75686164,1.36959036 L2.64689556,1.36959036 L2.64689556,0.979055304 L3.75686164,0.979055304 Z"></path>
                        </g>
                        <g transform="translate(9.000000, 24.203845)" id="Shape" fill="#D90000">
                            <path d="M14.9842337,0.0586322985 L15.683658,0.0586322985 L15.683658,1.2734889 L14.9842337,1.2734889 L14.9842337,0.0586322985 Z M33.5490466,0.0586322985 L34.2484709,0.0586322985 L34.2484709,1.2734889 L33.5490466,1.2734889 L33.5490466,0.0586322985 Z M0.739823191,0.0586322985 L1.43924753,0.0586322985 L1.43924753,1.2734889 L0.739823191,1.2734889 L0.739823191,0.0586322985 Z M10.1620451,0.0586322985 L10.8614695,0.0586322985 L10.8614695,1.2734889 L10.1620451,1.2734889 L10.1620451,0.0586322985 Z M19.5171926,0.0586322985 L20.216617,0.0586322985 L20.216617,1.2734889 L19.5171926,1.2734889 L19.5171926,0.0586322985 Z M24.1457905,0.0586322985 L24.8453305,0.0586322985 L24.8453305,1.2734889 L24.1456749,1.2734889 L24.1457905,0.0586322985 Z M28.8711837,0.0586322985 L29.570608,0.0586322985 L29.570608,1.2734889 L28.8711837,1.2734889 L28.8711837,0.0586322985 Z M38.1777601,0.0586322985 L38.8771844,0.0586322985 L38.8771844,1.2734889 L38.1777601,1.2734889 L38.1777601,0.0586322985 Z M61.6602847,0.0586322985 L62.3597091,0.0586322985 L62.3597091,1.2734889 L61.6602847,1.2734889 L61.6602847,0.0586322985 Z M42.902922,0.0586322985 L43.6023463,0.0586322985 L43.6023463,1.2734889 L42.902922,1.2734889 L42.902922,0.0586322985 Z M47.5327919,0.0586322985 L48.2322163,0.0586322985 L48.2322163,1.2734889 L47.5327919,1.2734889 L47.5327919,0.0586322985 Z M52.2092671,0.0586322985 L52.9086914,0.0586322985 L52.9086914,1.2734889 L52.2092671,1.2734889 L52.2092671,0.0586322985 Z M56.8868986,0.0586322985 L57.586323,0.0586322985 L57.586323,1.2734889 L56.8868986,1.2734889 L56.8868986,0.0586322985 Z M94.2569516,0.0586322985 L94.9562603,0.0586322985 L94.9562603,1.2734889 L94.2568359,1.2734889 L94.2569516,0.0586322985 Z M66.1932437,0.0586322985 L66.8926681,0.0586322985 L66.8926681,1.2734889 L66.1932437,1.2734889 L66.1932437,0.0586322985 Z M70.9185213,0.0586322985 L71.6180613,0.0586322985 L71.6180613,1.2734889 L70.9185213,1.2734889 L70.9185213,0.0586322985 Z M75.6928325,0.0586322985 L76.3923725,0.0586322985 L76.3923725,1.2734889 L75.6928325,1.2734889 L75.6928325,0.0586322985 Z M80.1771047,0.0586322985 L80.8766447,0.0586322985 L80.8766447,1.2734889 L80.1771047,1.2734889 L80.1771047,0.0586322985 Z M84.9502596,0.0586322985 L85.6496839,0.0586322985 L85.6496839,1.2734889 L84.9502596,1.2734889 L84.9502596,0.0586322985 Z M89.6278911,0.0586322985 L90.3273155,0.0586322985 L90.3273155,1.2734889 L89.6278911,1.2734889 L89.6278911,0.0586322985 Z M103.467658,0.0586322985 L104.167082,0.0586322985 L104.167082,1.2734889 L103.467658,1.2734889 L103.467658,0.0586322985 Z M98.9831543,0.0586322985 L99.6825786,0.0586322985 L99.6825786,1.2734889 L98.9831543,1.2734889 L98.9831543,0.0586322985 Z M5.43653629,0.0586322985 L6.13596063,0.0586322985 L6.13596063,1.2734889 L5.43653629,1.2734889 L5.43653629,0.0586322985 Z"></path>
                        </g>
                        <g transform="translate(9.000000, 2.734581)" id="Shape" fill="#239E3F">
                            <path d="M14.9842337,0.0701968544 L15.683658,0.0701968544 L15.683658,1.28505345 L14.9842337,1.28505345 L14.9842337,0.0701968544 Z M33.5490466,0.0701968544 L34.2484709,0.0701968544 L34.2484709,1.28505345 L33.5490466,1.28505345 L33.5490466,0.0701968544 Z M0.739823191,0.0701968544 L1.43924753,0.0701968544 L1.43924753,1.28505345 L0.739823191,1.28505345 L0.739823191,0.0701968544 Z M10.1620451,0.0701968544 L10.8614695,0.0701968544 L10.8614695,1.28505345 L10.1620451,1.28505345 L10.1620451,0.0701968544 Z M19.5171926,0.0701968544 L20.216617,0.0701968544 L20.216617,1.28505345 L19.5171926,1.28505345 L19.5171926,0.0701968544 Z M24.1457905,0.0701968544 L24.8453305,0.0701968544 L24.8453305,1.28505345 L24.1456749,1.28505345 L24.1457905,0.0701968544 Z M28.8711837,0.0701968544 L29.570608,0.0701968544 L29.570608,1.28505345 L28.8711837,1.28505345 L28.8711837,0.0701968544 Z M38.1777601,0.0701968544 L38.8771844,0.0701968544 L38.8771844,1.28505345 L38.1777601,1.28505345 L38.1777601,0.0701968544 Z M61.6602847,0.0701968544 L62.3597091,0.0701968544 L62.3597091,1.28505345 L61.6602847,1.28505345 L61.6602847,0.0701968544 Z M42.902922,0.0701968544 L43.6023463,0.0701968544 L43.6023463,1.28505345 L42.902922,1.28505345 L42.902922,0.0701968544 Z M47.5327919,0.0701968544 L48.2322163,0.0701968544 L48.2322163,1.28505345 L47.5327919,1.28505345 L47.5327919,0.0701968544 Z M52.2092671,0.0701968544 L52.9086914,0.0701968544 L52.9086914,1.28505345 L52.2092671,1.28505345 L52.2092671,0.0701968544 Z M56.8868986,0.0701968544 L57.586323,0.0701968544 L57.586323,1.28505345 L56.8868986,1.28505345 L56.8868986,0.0701968544 Z M94.2569516,0.0701968544 L94.9562603,0.0701968544 L94.9562603,1.28505345 L94.2568359,1.28505345 L94.2569516,0.0701968544 Z M66.1932437,0.0701968544 L66.8926681,0.0701968544 L66.8926681,1.28505345 L66.1932437,1.28505345 L66.1932437,0.0701968544 Z M70.9185213,0.0701968544 L71.6180613,0.0701968544 L71.6180613,1.28505345 L70.9185213,1.28505345 L70.9185213,0.0701968544 Z M75.6928325,0.0701968544 L76.3923725,0.0701968544 L76.3923725,1.28505345 L75.6928325,1.28505345 L75.6928325,0.0701968544 Z M80.1771047,0.0701968544 L80.8766447,0.0701968544 L80.8766447,1.28505345 L80.1771047,1.28505345 L80.1771047,0.0701968544 Z M84.9502596,0.0701968544 L85.6496839,0.0701968544 L85.6496839,1.28505345 L84.9502596,1.28505345 L84.9502596,0.0701968544 Z M89.6278911,0.0701968544 L90.3273155,0.0701968544 L90.3273155,1.28505345 L89.6278911,1.28505345 L89.6278911,0.0701968544 Z M103.467658,0.0701968544 L104.167082,0.0701968544 L104.167082,1.28505345 L103.467658,1.28505345 L103.467658,0.0701968544 Z M98.9831543,0.0701968544 L99.6825786,0.0701968544 L99.6825786,1.28505345 L98.9831543,1.28505345 L98.9831543,0.0701968544 Z M5.43653629,0.0701968544 L6.13596063,0.0701968544 L6.13596063,1.28505345 L5.43653629,1.28505345 L5.43653629,0.0701968544 Z"></path>
                        </g>
                        <g transform="translate(53.020148, 5.816201)" id="Shape" fill="#DA0000">
                            <path d="M11.6570724,2.02252519 C12.6346243,3.22061318 15.6481163,9.84617856 9.83796772,14.1861251 C7.10641961,16.2419562 8.79785156,16.3458059 8.87857216,16.6913549 C13.2691715,14.3591309 14.7031764,11.1993472 14.6698705,8.36880654 C14.6363333,5.53826583 13.1357165,3.03731497 11.6570724,2.02298777 L11.6570724,2.02252519 Z"></path>
                            <path d="M12.2383069,1.71456106 C14.4066612,2.82475843 19.1253469,8.40801038 14.0464253,14.7066458 C17.2021613,14.0062963 21.214137,4.71290347 12.2383069,1.71456106 L12.2383069,1.71456106 Z M5.57932,1.71456106 C3.41108141,2.82475843 -1.30771998,8.40801038 3.77120169,14.7066458 C0.615465666,14.0062963 -3.39651007,4.71290347 5.57932,1.71456106 L5.57932,1.71456106 Z"></path>
                            <path d="M6.15234375,2.02252519 C5.17467619,3.22061318 2.16118421,9.84617856 7.9714484,14.1861251 C10.7027652,16.2419562 9.01144891,16.3458059 8.93061266,16.6913549 C4.54012901,14.3591309 3.10612407,11.1993472 3.13943,8.36880654 C3.17285156,5.53826583 4.67346834,3.03731497 6.1522281,2.02298777 L6.15234375,2.02252519 Z"></path>
                            <path d="M14.4785927,16.0875694 C12.7600997,16.1148617 10.5937115,15.8508429 8.9870477,15.015882 C9.25164474,15.5305047 9.47148694,15.8545436 9.73608398,16.3690507 C11.2683876,16.5103696 13.3829667,16.6852256 14.4787084,16.0875694 L14.4785927,16.0875694 Z M3.49538703,16.0875694 C5.21388004,16.1148617 7.3802683,15.8508429 8.9870477,15.015882 C8.72233501,15.5305047 8.5024928,15.8545436 8.23789576,16.3690507 C6.70559211,16.5103696 4.59101306,16.6852256 3.49527138,16.0875694 L3.49538703,16.0875694 Z M6.64753803,0.045911287 C6.99574681,0.971307052 7.90923109,1.10580284 8.88701429,0.560996608 C9.59950658,0.98853824 10.7014931,1.01548366 11.0815044,0.0906661184 C11.3705027,2.37859786 8.96461246,1.83737664 8.87498715,1.38948139 C7.97931229,2.2553197 6.31170333,1.7552683 6.64765368,0.045911287 L6.64753803,0.045911287 Z"></path>
                            <polygon points="8.95119757 17.5282818 9.85473633 16.4955669 9.98391242 2.59751491 8.90817743 1.650956 7.83267373 2.55449476 8.04765882 16.5383558 8.95119757 17.5280505"></polygon>
                        </g>
                    </g>
                </g>
            </g>
        </g>
    </g>
</svg>