<?xml version="1.0" encoding="UTF-8" standalone="no"?>
<svg width="122px" height="60px" viewBox="0 0 122 60" version="1.1" xmlns="http://www.w3.org/2000/svg" xmlns:xlink="http://www.w3.org/1999/xlink">
    <!-- Generator: Sketch 3.8.2 (29753) - http://www.bohemiancoding.com/sketch -->
    <title>bi</title>
    <desc>Created with Sketch.</desc>
    <defs></defs>
    <g id="Page-1" stroke="none" stroke-width="1" fill="none" fill-rule="evenodd">
        <g id="bi">
            <g>
                <rect id="Rectangle-13" fill="#00CF00" x="0" y="0" width="122" height="60"></rect>
                <polygon id="Rectangle-14" fill="#FF0000" points="21 51 21 18 0 0 21 0 122 0 101 9 101 51 122 60 0 60"></polygon>
                <path d="M21,13 C21,13 52.11083,27.4827586 61,27.4827586 C78.7774967,27.4827586 101,13 101,13 L101,43 C101,43 76.9115144,32.6551724 64,32.6551724 C50.2448478,32.6551724 21,43 21,43 L21,13 Z" id="Rectangle-13-Copy" fill="#00CF00"></path>
                <polygon id="Rectangle-15" fill="#FFFFFF" points="0 0 122 51 122 60 0 9"></polygon>
                <polygon id="Rectangle-15-Copy" fill="#FFFFFF" points="0 51 122 0 122 9 0 60"></polygon>
                <circle id="Oval-10" fill="#FFFFFF" cx="61.5" cy="30.5" r="17.5"></circle>
                <path d="M64.2094879,25.4919969 L61.9827125,25.5269432 L60.8319612,27.3113756 L59.6844489,25.5236874 L57.4611437,25.4791905 L58.5372836,23.6535172 L57.467853,21.8220919 L59.6913895,21.7860603 L60.8454954,20 L61.9927763,21.7902929 L64.2163129,21.8347897 L63.1367027,23.6599204 L64.2094879,25.4919969 Z M56.7483442,37.6059938 L54.5215688,37.6409401 L53.3708175,39.4253724 L52.2233052,37.6379013 L50,37.5934044 L51.0761398,35.7675141 L50.0067092,33.9360887 L52.2302457,33.9000571 L53.3843517,32.1139969 L54.5316326,33.9042898 L56.7551691,33.9487866 L55.675559,35.7739173 L56.7483442,37.6059938 Z M71.852244,37.6059938 L69.6254685,37.6409401 L68.4747172,39.4253724 L67.3272049,37.6379013 L65.1038998,37.5934044 L66.1800396,35.7675141 L65.110609,33.9360887 L67.3341455,33.9000571 L68.4882514,32.1139969 L69.6355324,33.9042898 L71.8590689,33.9487866 L70.7794588,35.7739173 L71.852244,37.6059938 Z" id="Shape" stroke="#00DE00" fill="#FF0000"></path>
            </g>
        </g>
    </g>
</svg>