<?xml version="1.0" encoding="UTF-8" standalone="no"?>
<svg width="122px" height="60px" viewBox="0 0 122 60" version="1.1" xmlns="http://www.w3.org/2000/svg" xmlns:xlink="http://www.w3.org/1999/xlink">
    <!-- Generator: Sketch 3.8.2 (29753) - http://www.bohemiancoding.com/sketch -->
    <title>eg</title>
    <desc>Created with Sketch.</desc>
    <defs></defs>
    <g id="Page-1" stroke="none" stroke-width="1" fill="none" fill-rule="evenodd">
        <g id="eg">
            <g id="Group">
                <g>
                    <polygon id="Shape" fill="#000000" points="0 40 122 40 122 60 0 60"></polygon>
                    <polygon id="Shape" fill="#FFFFFF" points="0 20 122 20 122 40 0 40"></polygon>
                    <polygon id="Shape" fill="#CE1126" points="0 0 122 0 122 20 0 20"></polygon>
                    <g transform="translate(53.999500, 20.500250)">
                        <path d="M7.081,9.74 L13.9298,16.098 L13.4422,4.551 C13.3706,2.801 11.8498,3.2024 10.7452,3.8337 C9.626,4.5509 8.3492,4.5509 7.0005,4.0774 C5.652,4.5509 4.3752,4.5509 3.2561,3.8337 C2.1516,3.2024 0.6311,2.8009 0.5591,4.5509 L0.0713,16.0979 L7.0811,9.7399 L7.081,9.74 Z" id="Shape" stroke="#C09300" stroke-width="0.1" fill="#FFFFFF"></path>
                        <path d="M1.347,4.149 L0.8736,15.381 L0.0701,16.0978 L0.5581,4.5508 C0.7875,4.393 1.1894,4.1491 1.3471,4.1491 L1.347,4.149 Z M2.309,4.953 L1.9073,14.3485 L1.1041,15.1705 L1.5919,4.3215 C1.7499,4.4792 2.2233,4.8665 2.3091,4.9525 L2.309,4.953 Z M3.184,5.67 L2.8685,13.5062 L2.223,14.1372 L2.6248,5.1966 C2.7822,5.3544 3.0978,5.584 3.184,5.67 L3.184,5.67 Z M4.131,6.072 L3.8154,12.7507 L3.1841,13.2627 L3.4998,5.8282 C3.6578,5.8999 3.9733,6.072 4.1311,6.072 L4.131,6.072 Z M5.006,6.072 L4.7763,11.6377 L4.1308,12.269 L4.3748,6.1438 C4.5323,6.1438 4.9341,6.1438 5.006,6.072 L5.006,6.072 Z" id="a" fill="#C09300"></path>
                        <g id="a-link" transform="translate(11.000000, 10.100000) scale(-1, 1) translate(-11.000000, -10.100000) translate(8.000000, 4.100000)" fill="#C09300">
                            <path d="M1.347,0.049 L0.8736,11.281 L0.0701,11.9978 L0.5581,0.4508 C0.7875,0.293 1.1894,0.0491 1.3471,0.0491 L1.347,0.049 Z M2.309,0.853 L1.9073,10.2485 L1.1041,11.0705 L1.5919,0.2215 C1.7499,0.3792 2.2233,0.7665 2.3091,0.8525 L2.309,0.853 Z M3.184,1.57 L2.8685,9.4062 L2.223,10.0372 L2.6248,1.0966 C2.7822,1.2544 3.0978,1.484 3.184,1.57 L3.184,1.57 Z M4.131,1.972 L3.8154,8.6507 L3.1841,9.1627 L3.4998,1.7282 C3.6578,1.7999 3.9733,1.972 4.1311,1.972 L4.131,1.972 Z M5.006,1.972 L4.7763,7.5377 L4.1308,8.169 L4.3748,2.0438 C4.5323,2.0438 4.9341,2.0438 5.006,1.972 L5.006,1.972 Z" id="a"></path>
                        </g>
                        <polygon id="Shape" stroke="#C09300" stroke-width="0.1" fill="#C09300" points="7.316 11.006 8.2773 15.3815 7.9615 15.697 7.6315 15.453 7.0865 11.5513 7.3159 15.4531 7.0002 15.8548 6.6845 15.4532 6.9141 11.5515 6.3691 15.4533 6.0388 15.6973 5.7233 15.3818 6.6843 11.0063 7.3158 11.0063"></polygon>
                        <g id="b" transform="translate(2.900000, 9.000000)" stroke="#C09300">
                            <polygon id="Shape" stroke-width="0.1" fill="#FFFFFF" points="1.948 0.084 0.04 6.8545 2.6655 7.2563 3.7843 2.1639 1.948 0.0839"></polygon>
                            <polyline id="Shape" stroke-width="1.016" points="1.317 2.394 1.5466 2.9533 2.7871 1.7685"></polyline>
                            <path d="M2.176,0.992 L2.4356,3.4266 L3.2246,2.3938 M2.909,2.795 L3.34,4.2825 M3.509,3.736 L2.6372,5.06 M2.9092,6.3817 L2.6302,5.0619 L2.3865,3.7195 L1.8025,4.5105 L1.5463,3.5985 L0.7289,4.437 L1.1445,5.9622 L1.7183,5.0187 L2.0338,5.9799 L2.6228,5.0636" id="Shape" stroke-width="0.1"></path>
                            <polyline id="Shape" stroke-width="0.1" points="0.599 6.697 1.129 5.9526 1.4742 7.0983 1.9477 6.2951 2.2634 7.2566"></polyline>
                        </g>
                        <g id="b-link" transform="translate(9.100000, 13.000000) scale(-1, 1) translate(-9.100000, -13.000000) translate(7.100000, 9.000000)" stroke="#C09300">
                            <g id="b">
                                <polygon id="Shape" stroke-width="0.1" fill="#FFFFFF" points="1.948 0.084 0.04 6.8545 2.6655 7.2563 3.7843 2.1639 1.948 0.0839"></polygon>
                                <polyline id="Shape" stroke-width="1.016" points="1.317 2.394 1.5466 2.9533 2.7871 1.7685"></polyline>
                                <path d="M2.176,0.992 L2.4356,3.4266 L3.2246,2.3938 M2.909,2.795 L3.34,4.2825 M3.509,3.736 L2.6372,5.06 M2.9092,6.3817 L2.6302,5.0619 L2.3865,3.7195 L1.8025,4.5105 L1.5463,3.5985 L0.7289,4.437 L1.1445,5.9622 L1.7183,5.0187 L2.0338,5.9799 L2.6228,5.0636" id="Shape" stroke-width="0.1"></path>
                                <polyline id="Shape" stroke-width="0.1" points="0.599 6.697 1.129 5.9526 1.4742 7.0983 1.9477 6.2951 2.2634 7.2566"></polyline>
                            </g>
                        </g>
                        <g transform="translate(0.900000, 15.400000)" id="Shape">
                            <path d="M6.1,3.481 C8.0943,3.481 10.0024,3.3232 11.1213,3.0076 C11.5948,2.9216 11.5948,2.6778 11.5948,2.3621 C12.0684,2.2044 11.8243,1.6451 12.1543,1.6451 C11.8243,1.7314 11.7527,1.0857 11.351,1.1721 C11.351,0.6123 10.7914,0.5407 10.318,0.6981 C9.371,1.0141 7.6925,1.0857 6.1,1.0857 C4.5076,1.014 2.8433,1.014 1.882,0.6982 C1.4087,0.5408 0.8494,0.6124 0.8494,1.1722 C0.4476,1.0858 0.3758,1.7315 0.046,1.6452 C0.376,1.6452 0.132,2.2045 0.6054,2.3622 C0.6054,2.678 0.6054,2.9219 1.0932,3.0078 C2.1977,3.3234 4.106,3.4812 6.1,3.4812 L6.1,3.481 Z" stroke="#C09300" stroke-width="0.1" fill="#FFFFFF"></path>
                            <path d="M3.389,0.454 C4.0344,0.54 4.7518,0.6118 5.3115,0.54 C5.6268,0.54 5.8565,1.0852 5.2252,1.1714 C4.6659,1.2429 3.7907,1.1714 3.3172,1.0852 C2.9155,1.0134 2.0404,0.8557 1.4808,0.6976 C0.9214,0.454 1.3232,-0.0192 1.6386,0.0524 C2.1266,0.2101 2.7578,0.3681 3.3891,0.454 L3.389,0.454 Z M8.812,0.454 C8.1663,0.54 7.4492,0.6118 6.904,0.54 C6.5738,0.54 6.3443,1.0852 6.9756,1.1714 C7.5352,1.2429 8.4103,1.1714 8.8834,1.0852 C9.2854,1.0134 10.1604,0.8557 10.7198,0.6976 C11.2795,0.454 10.8778,-0.0192 10.5621,0.0524 C10.0744,0.2101 9.4431,0.3681 8.8121,0.454 L8.812,0.454 Z" stroke="#C09300" stroke-width="0.1" fill="#FFFFFF"></path>
                            <path d="M1.409,0.139 C0.9213,0.053 0.6918,0.6122 0.8497,0.9277 C0.9214,0.7699 1.2514,0.7699 1.3232,0.6122 C1.409,0.3685 1.2514,0.3685 1.409,0.139 L1.409,0.139 Z M3.317,1.606 C3.317,1.2907 3.6325,1.3295 3.6325,1.0139 C3.6325,0.8561 3.5465,0.6119 3.3888,0.6119 C3.2308,0.6119 3.073,0.7699 3.073,0.9276 C3.0012,1.2433 3.317,1.2906 3.317,1.6059 L3.317,1.606 Z M5.588,0.698 C6.061,0.698 6.0142,1.3294 5.7846,1.645 C5.7846,1.4155 5.3829,1.3294 5.3829,1.1718 C5.3829,0.9276 5.7454,0.9276 5.5879,0.698 L5.588,0.698 Z M10.791,0.139 C11.2788,0.053 11.5084,0.6122 11.3505,0.9277 C11.2787,0.7699 10.9488,0.7699 10.8771,0.6122 C10.7911,0.3685 10.9491,0.3685 10.7911,0.139 L10.791,0.139 Z M8.883,1.606 C8.883,1.2907 8.5677,1.3295 8.5677,1.0139 C8.5677,0.8561 8.6537,0.6119 8.8115,0.6119 C8.9692,0.6119 9.1271,0.7699 9.1271,0.9276 C9.1991,1.2433 8.8831,1.2906 8.8831,1.6059 L8.883,1.606 Z M6.612,0.698 C6.1388,0.698 6.1857,1.3294 6.4153,1.645 C6.4153,1.4155 6.8168,1.3294 6.8168,1.1718 C6.8168,0.9276 6.4542,0.9276 6.612,0.698 L6.612,0.698 Z" stroke="#C09300" stroke-width="0.1" fill="#FFFFFF"></path>
                            <path d="M1.567,0.297 C1.725,0.297 1.9688,0.3688 2.0405,0.4547 L1.5665,0.2967 L1.567,0.297 Z M2.355,0.541 C2.4412,0.541 2.7568,0.6126 2.9146,0.6985 L2.3546,0.5405 L2.355,0.541 Z M5.225,0.856 C5.0672,0.856 4.7516,0.856 4.6657,0.9275 L5.2247,0.8555 L5.225,0.856 Z M4.35,0.856 C4.264,0.7698 3.9484,0.7698 3.7907,0.856 L4.3497,0.856 L4.35,0.856 Z M10.634,0.297 C10.4762,0.297 10.2465,0.3688 10.1605,0.4547 L10.634,0.297 L10.634,0.297 Z M9.845,0.541 C9.759,0.541 9.4433,0.6126 9.2855,0.6985 L9.8455,0.5405 L9.845,0.541 Z M6.975,0.856 C7.133,0.856 7.4485,0.856 7.5345,0.9275 L6.9745,0.8555 L6.975,0.856 Z M7.85,0.856 C7.936,0.7698 8.2518,0.7698 8.4095,0.856 L7.8495,0.856 L7.85,0.856 Z" stroke="#C09300" stroke-width="0.1" fill="#FFFFFF"></path>
                            <g transform="translate(1.200000, 1.100000)" fill="#C09300">
                                <path d="M0.234,0.458 C0.1806,0.4478 0.1525,0.4055 0.166,0.3555 C0.1824,0.2945 0.231,0.2598 0.2772,0.2761 C0.3066,0.2866 0.3602,0.3407 0.3604,0.3601 C0.3607,0.3823 0.3324,0.4353 0.3202,0.4355 C0.3149,0.4355 0.3067,0.4401 0.302,0.4457 C0.292,0.4575 0.2607,0.4632 0.234,0.4581 L0.234,0.458 Z M5.727,0.85 C5.707,0.8426 5.6755,0.7982 5.6755,0.7776 C5.6757,0.7389 5.7329,0.6758 5.7685,0.6756 C5.7859,0.6754 5.8339,0.7003 5.8518,0.7189 C5.8843,0.7526 5.8772,0.8081 5.8364,0.8396 C5.8164,0.8551 5.7564,0.8608 5.727,0.8499 L5.727,0.85 Z M5.763,1.098 C5.721,1.0838 5.7056,1.0632 5.7022,1.0166 C5.6986,0.9681 5.7034,0.9606 5.7547,0.9326 L5.7912,0.9126 L5.8259,0.9281 C5.8737,0.9496 5.8951,0.9727 5.8969,1.0049 C5.8986,1.0397 5.8729,1.0753 5.8329,1.0932 C5.7976,1.1092 5.7955,1.1092 5.7629,1.0982 L5.763,1.098 Z"></path>
                                <path d="M0.675,0.009 C0.6404,0.008 0.593,0.0397 0.5656,0.056 C0.5006,0.071 0.4252,0.111 0.3626,0.0684 C0.3008,0.0494 0.2186,0.0644 0.2094,0.1402 C0.2252,0.2054 0.3164,0.2427 0.3719,0.1996 C0.4129,0.1459 0.5249,0.1143 0.5374,0.2059 C0.4917,0.2749 0.4969,0.3667 0.4594,0.4402 C0.4532,0.4859 0.4341,0.5294 0.4094,0.5682 C0.3631,0.5729 0.3139,0.5675 0.2749,0.5964 C0.2123,0.5998 0.1484,0.6309 0.1124,0.6839 C0.0721,0.7417 0.0334,0.8004 0.0218,0.8714 C0.0324,0.9439 0.1154,0.9647 0.1778,0.9684 C0.2446,0.9866 0.3114,1.0107 0.3778,1.0308 C0.4865,1.055 0.5881,1.0942 0.6968,1.1182 C0.8551,1.1659 1.0215,1.1879 1.181,1.2307 C1.1978,1.2361 1.2135,1.241 1.231,1.2431 C1.2973,1.2568 1.3318,1.1848 1.3373,1.1306 C1.3703,1.0146 1.3953,0.8966 1.4279,0.7806 C1.4505,0.7339 1.4777,0.6288 1.3874,0.6524 C1.3359,0.6832 1.2922,0.7297 1.228,0.7336 C1.1407,0.7386 1.1906,0.8281 1.225,0.8649 C1.2326,0.9236 1.214,0.9937 1.175,1.0399 C1.123,1.0729 1.0578,1.0342 1.003,1.0211 C0.9457,1.0221 0.8308,0.9928 0.8844,0.9149 C0.9034,0.8572 0.9051,0.7939 0.9281,0.7367 C0.9576,0.6754 0.9618,0.6083 0.9751,0.5431 C0.9391,0.4654 0.8771,0.5687 0.8281,0.5775 C0.7944,0.6009 0.6677,0.6109 0.7345,0.6712 C0.792,0.7149 0.7479,0.7909 0.7375,0.8462 C0.7339,0.9232 0.6538,0.9416 0.5907,0.9242 C0.5279,0.9212 0.4407,0.8746 0.4937,0.8056 C0.5059,0.748 0.526,0.6916 0.5377,0.6336 C0.5613,0.5638 0.5813,0.4973 0.6063,0.4274 C0.6173,0.3654 0.6393,0.3066 0.6688,0.2524 C0.6706,0.1838 0.7166,0.1248 0.7158,0.0554 C0.711,0.0216 0.6958,0.0094 0.6751,0.0086 L0.675,0.009 Z M0.3156,0.734 C0.323065121,0.732607608 0.33078025,0.733659671 0.3376,0.737 C0.3626,0.7477 0.3632,0.768 0.3376,0.7902 C0.3263,0.7999 0.3136,0.8092 0.3094,0.809 C0.2626,0.805 0.2488,0.798 0.2469,0.781 C0.2449,0.7658 0.2499,0.7614 0.2811,0.7465 C0.291992654,0.74089705 0.30355138,0.736696932 0.3155,0.734 L0.3156,0.734 Z M0.212,1.236 C0.1624,1.1894 0.1704,1.1554 0.2437,1.1007 C0.2751,1.0773 0.2942,1.0799 0.33,1.1127 C0.3853,1.1631 0.3875,1.195 0.3387,1.2382 C0.3147,1.2595 0.3041,1.2639 0.276,1.2642 C0.2467,1.2645 0.2384,1.2608 0.212,1.236 L0.212,1.236 Z M0.517,1.328 C0.493902964,1.32249405 0.474110068,1.30768378 0.462311279,1.28707851 C0.45051249,1.26647324 0.447757822,1.24190671 0.4547,1.2192 C0.4677,1.1758 0.475,1.1715 0.5387,1.1709 C0.6103,1.1701 0.6241,1.1819 0.6247,1.2449 C0.6252,1.2804 0.6225,1.2886 0.6047,1.3049 C0.580320036,1.32518521 0.548197313,1.33360964 0.517,1.3279 L0.517,1.328 Z M9.428,1.336 C9.4053,1.317 9.4007,1.3086 9.4005,1.2845 C9.4002,1.2435 9.4238,1.2133 9.4751,1.1901 C9.5434,1.1594 9.5711,1.1636 9.5968,1.2088 C9.631,1.2688 9.6293,1.2935 9.5884,1.334 C9.5659,1.3563 9.5616,1.3576 9.5099,1.358 C9.4592,1.3584 9.4534,1.357 9.4281,1.336 L9.428,1.336 Z M0.922,1.451 C0.8856,1.4413 0.8668,1.414 0.8663,1.3703 C0.8659,1.3369 0.8683,1.3316 0.8916,1.3133 C0.9068,1.3015 0.9306,1.2913 0.9496,1.2888 C0.9762,1.2851 0.9859,1.2875 1.0074,1.3026 C1.0624,1.3413 1.0742,1.3796 1.0424,1.4166 C1.0084,1.4563 0.9761,1.4654 0.922,1.451 L0.922,1.451 Z M3.114,1.549 C3.106,1.539 3.088,1.533 3.0862,1.5203 C3.0894,1.4648 3.0922,1.4086 3.1098,1.3555 C3.1194,1.3032 3.111,1.2485 3.1292,1.1975 C3.1479,1.1049 3.1479,1.0095 3.1694,0.9173 C3.1704,0.8698 3.1749,0.8223 3.1887,0.7767 C3.2044,0.7045 3.19,0.6291 3.2113,0.5577 C3.209,0.531 3.2398,0.4594 3.2669,0.5017 C3.3062,0.5595 3.3579,0.6063 3.4089,0.6534 C3.4527,0.6786 3.4125,0.7158 3.3823,0.7284 C3.3407,0.7447 3.3306,0.7904 3.3336,0.8306 C3.3278,0.872 3.3111,0.9112 3.3094,0.9536 C3.3007,1.0158 3.3024,1.079 3.2944,1.1412 C3.2761,1.2022 3.283,1.2672 3.277,1.33 C3.278,1.3698 3.259,1.406 3.2615,1.446 C3.2567,1.4866 3.2549,1.5354 3.2208,1.5632 C3.1878,1.5798 3.1404,1.577 3.114,1.549 L3.114,1.549 Z M6.084,0.569 C6.0358,0.6055 5.9926,0.6485 5.9496,0.691 C5.8904,0.7358 5.9983,0.762 6.0121,0.8003 C6.0279,0.8589 6.0271,0.9213 6.0311,0.9815 C6.0489,1.0367 6.0568,1.0953 6.0528,1.1535 C6.0478,1.2155 5.9665,1.2025 5.931,1.2378 C5.8817,1.2585 5.862,1.3068 5.8246,1.3408 C5.8,1.3892 5.7934,1.4485 5.7902,1.5034 C5.7938,1.5482 5.76,1.5984 5.7902,1.6378 C5.7942,1.6433 5.7988,1.651 5.8027,1.6565 C5.8129,1.671 5.837,1.6595 5.8527,1.6628 C5.9031,1.6598 5.9557,1.6675 6.0027,1.6471 C6.1237,1.6263 6.2459,1.6246 6.3684,1.6191 C6.4434,1.6215 6.5154,1.5954 6.5902,1.5971 C6.6489,1.6101 6.6752,1.5466 6.6746,1.5004 C6.6414,1.435 6.6701,1.3574 6.6434,1.291 C6.6199,1.2236 6.6291,1.148 6.6184,1.0784 C6.6169,1.0234 6.5474,1.0032 6.5121,1.044 C6.4781,1.0785 6.4229,1.0854 6.3966,1.1284 C6.3669,1.1886 6.4593,1.1887 6.4746,1.2346 C6.4923,1.2811 6.4866,1.3326 6.4903,1.3816 C6.5018,1.4408 6.4373,1.4441 6.3966,1.4503 C6.3429,1.4703 6.2676,1.4839 6.2372,1.419 C6.2182,1.371 6.2208,1.3197 6.2154,1.269 C6.2141,1.1798 6.1927,1.0922 6.1874,1.0034 C6.1822,0.8937 6.1632,0.7847 6.1561,0.6754 C6.1551,0.6297 6.1489,0.5554 6.0841,0.569 L6.084,0.569 Z M6.0215,1.394 L6.0528,1.397 L6.0558,1.4346 L6.059,1.4721 L6.0184,1.4847 C6.00504683,1.4886949 5.99145261,1.4918346 5.9777,1.4941 C5.97128584,1.49021041 5.96504644,1.48603969 5.959,1.4816 C5.937,1.4656 5.9426,1.4431 5.9715,1.4128 C5.9878,1.3958 5.9955,1.3925 6.0215,1.3941 L6.0215,1.394 Z M3.025,0.466 C2.987,0.4795 2.9388,0.5353 2.9,0.5348 C2.812,0.541 2.8243,0.6268 2.8875,0.6566 C2.8958,0.6826 2.888,0.7154 2.8905,0.7441 C2.9029,0.8231 2.8531,0.8867 2.8625,0.9661 C2.8581,1.0531 2.8318,1.1379 2.8281,1.2255 C2.8035,1.3158 2.8031,1.4087 2.7876,1.5005 C2.7772,1.5828 2.7176,1.5538 2.6656,1.5317 C2.6653,1.4961 2.663,1.4612 2.6626,1.4255 C2.6842,1.3438 2.6186,1.3199 2.5532,1.3099 C2.4847,1.3164 2.451,1.2576 2.4658,1.1974 C2.4953,1.1624 2.5694,1.172 2.6158,1.1661 C2.7138,1.1865 2.71,1.0549 2.6596,1.0099 C2.6251,0.9463 2.5396,0.9189 2.5158,0.8536 C2.5254,0.767 2.4678,0.6804 2.3971,0.638 C2.2881,0.6303 2.2059,0.7242 2.1657,0.816 C2.1205,0.829 2.0753,0.8427 2.0313,0.8598 C1.9603,0.8775 1.8593,1.0005 1.9563,1.0473 C2.0108,1.0623 2.1763,1.1001 2.1033,1.1753 C2.062,1.2461 1.9831,1.2473 1.9126,1.2285 C1.8402,1.2285 1.7596,1.1933 1.7626,1.1098 C1.7478,1.0348 1.7503,0.954 1.7156,0.8848 C1.7009,0.8008 1.6056,0.8205 1.6001,0.8973 C1.5268,0.9507 1.5365,1.037 1.5876,1.1003 C1.6196,1.1733 1.5879,1.2581 1.5563,1.3253 C1.5373,1.4129 1.4408,1.4159 1.372,1.4441 C1.338,1.4573 1.209,1.4364 1.2562,1.5099 C1.3316,1.5364 1.4215,1.5604 1.5,1.5411 C1.5823,1.5309 1.6538,1.4746 1.6938,1.4036 C1.749,1.3476 1.844,1.3769 1.9156,1.3756 C1.9929,1.3753 2.0719,1.4296 2.1469,1.3942 C2.1685,1.3379 2.2689,1.2448 2.2999,1.3412 C2.2946,1.4275 2.3709,1.4738 2.4499,1.4632 C2.5363,1.4582 2.5043,1.5242 2.5029,1.5756 C2.5087,1.669 2.5689,1.7181 2.6469,1.7568 C2.6733,1.764 2.7013,1.7616 2.7279,1.7568 C2.8029,1.7333 2.8834,1.7 2.9061,1.6162 C2.9365,1.5482 2.9371,1.4712 2.9593,1.4006 C2.977,1.2876 2.9999,1.1746 3.003,1.06 C3.0307,0.956 3.0228,0.8464 3.0437,0.7412 C3.057,0.663 3.0667,0.5849 3.075,0.5068 C3.0658,0.4651 3.0478,0.4581 3.025,0.4662 L3.025,0.466 Z M2.347,0.8816 C2.362,0.8836 2.3704,0.902 2.372,0.9346 C2.3735,0.9712 2.3925,1.0008 2.4156,1.0066 C2.4339,1.0112 2.4323,1.0306 2.4126,1.0441 C2.401,1.0521 2.3804,1.0569 2.3438,1.0567 C2.286,1.0564 2.2501,1.0414 2.2188,1.0097 L2.2,0.9911 L2.228,0.9723 C2.2423,0.9615 2.268,0.9391 2.2844,0.9223 C2.3129,0.8933 2.3317,0.8799 2.3469,0.8817 L2.347,0.8816 Z M8.95,0.094 C8.89410268,0.0967726155 8.8386247,0.105147914 8.7844,0.119 C8.6804,0.1125 8.6281,0.2217 8.7281,0.2753 C8.7884,0.4287 8.8823,0.2436 8.9781,0.2565 C9.1221,0.2845 9.1341,0.4397 9.1564,0.5565 C9.1644,0.6722 9.1978,0.7847 9.2314,0.894 C9.3276,1.001 9.1594,1.068 9.0876,0.9846 C9.0266,0.9182 8.8956,0.8366 8.822,0.9284 C8.7315,0.9666 8.7278,1.0874 8.653,1.1221 C8.5322,1.1591 8.517,1.0103 8.453,0.9471 C8.3944,0.8648 8.282,0.8576 8.1906,0.8285 C8.1476,0.7415 8.1701,0.5939 8.0812,0.5347 C8.0067,0.5651 7.8699,0.7049 7.9844,0.7691 C8.0961,0.8651 7.9356,0.9091 7.8844,0.9754 C7.8112,1.0568 7.7994,1.169 7.7874,1.2722 C7.6616,1.3419 7.6371,1.1936 7.6219,1.1005 C7.6119,0.9893 7.5182,1.0219 7.4529,1.063 C7.3579,1.1015 7.3102,1.192 7.2437,1.263 C7.2357,1.3277 7.2474,1.3986 7.2467,1.466 C7.2684,1.5472 7.367,1.509 7.428,1.5036 C7.526,1.4626 7.566,1.5663 7.4875,1.6256 C7.4343,1.6931 7.2655,1.6576 7.2812,1.7661 C7.3356,1.7723 7.3922,1.7703 7.4469,1.7661 C7.5559,1.7361 7.6729,1.6591 7.6843,1.5379 C7.6986,1.4319 7.851,1.4513 7.9343,1.4285 C8.0383,1.3985 8.1637,1.3908 8.1873,1.5222 C8.2583,1.5968 8.4123,1.6807 8.4905,1.5786 C8.57,1.5301 8.6081,1.4448 8.603,1.3536 C8.587,1.2751 8.73,1.2723 8.7656,1.3161 C8.8176,1.4018 8.9806,1.3765 9.0594,1.3285 C9.143,1.2668 9.1611,1.158 9.2812,1.1565 C9.4595,1.1032 9.6447,1.0725 9.8187,1.0065 C9.9597,0.9759 9.7977,0.8868 9.7625,0.8347 C9.6551,0.7817 9.5617,0.9989 9.4405,0.891 C9.347,0.8193 9.3535,0.6832 9.3187,0.5784 C9.295,0.4426 9.301,0.2861 9.2031,0.1784 C9.1361,0.1069 9.0446,0.0897 8.9501,0.094 L8.95,0.094 Z M8.2687,1.041 C8.2813,1.0406 8.2955,1.0468 8.3187,1.0596 C8.3627,1.0838 8.3937,1.1239 8.3937,1.1566 C8.3937,1.1778 8.3883,1.1792 8.3562,1.194 C8.3365,1.203 8.3142,1.213 8.3062,1.2128 C8.2882,1.2126 8.2438,1.1771 8.2437,1.1628 C8.2437,1.1568 8.2379,1.1341 8.2312,1.1158 C8.2195,1.0838 8.2212,1.0842 8.2375,1.0628 C8.2478,1.049 8.2562,1.0412 8.2688,1.0408 L8.2687,1.041 Z M8.9219,1.0753 C8.9589,1.0728 8.9811,1.0843 8.9969,1.1128 C9.0149,1.1458 9.0026,1.1708 8.9561,1.1908 C8.9358,1.1998 8.9154,1.2068 8.9124,1.2065 C8.9094,1.2062 8.8926,1.1963 8.8749,1.1845 C8.8479,1.1669 8.8439,1.1582 8.8436,1.1378 C8.8433,1.1062 8.8786,1.0781 8.9218,1.0753 L8.9219,1.0753 Z M8.0279,1.0846 C8.0389,1.0829 8.0489,1.0886 8.0624,1.1002 C8.0804,1.1157 8.0861,1.1282 8.0904,1.1596 C8.0937,1.1816 8.0932,1.2098 8.0904,1.2221 C8.0857,1.2448 8.0852,1.2438 8.0344,1.2441 C7.9702,1.2447 7.9644,1.2377 7.9654,1.1785 C7.9664,1.1408 7.9667,1.1307 7.9874,1.1097 C8.0034,1.0935 8.0171,1.0864 8.028,1.0847 L8.0279,1.0846 Z M7.4779,1.2284 C7.49990072,1.23301586 7.51713373,1.25013138 7.5219,1.2721 C7.5283,1.3041 7.5226,1.3184 7.4969,1.3316 C7.4746,1.3429 7.4234,1.3466 7.4093,1.3379 C7.40173343,1.33308416 7.39531584,1.32666657 7.3905,1.3191 C7.3837,1.3071 7.385,1.3011 7.3935,1.2941 C7.3997,1.2891 7.4062,1.2821 7.4061,1.2785 C7.4061,1.2748 7.4129,1.2622 7.4218,1.2505 C7.43432633,1.23255001 7.45640536,1.22387611 7.4778,1.2285 L7.4779,1.2284 Z M8.4029,1.3471 C8.4209,1.3471 8.4359,1.3533 8.4469,1.3628 C8.4653,1.3791 8.4647,1.4028 8.4436,1.4191 C8.4301,1.4295 8.3566,1.4286 8.3311,1.4191 C8.3199,1.4149 8.3156,1.4091 8.3155,1.3971 C8.3153,1.3831 8.3193,1.3745 8.3435,1.3628 C8.3641,1.3531 8.3852,1.3473 8.403,1.3472 L8.4029,1.3471 Z M6.686,1.829 C6.6764,1.8227 6.6622,1.8173 6.6765,1.8068 C6.6938,1.7766 6.7283,1.7661 6.759,1.7548 C6.81374763,1.73016777 6.86108605,1.69162126 6.8963,1.643 C6.9013,1.6097 6.9387,1.5917 6.9385,1.557 C6.9388,1.5094 6.9417,1.4607 6.9301,1.4143 C6.9173,1.3717 6.8851,1.3391 6.8475,1.3169 C6.8219,1.2966 6.7801,1.2909 6.7707,1.2554 C6.7654,1.2211 6.796,1.195 6.8067,1.1644 C6.829,1.1224 6.8477,1.0781 6.8717,1.0369 C6.8977,1.0081 6.9377,1.0354 6.9511,1.0632 C6.9701,1.0909 6.9868,1.1208 6.9961,1.1529 C7.0264,1.1861 7.0531,1.2249 7.0641,1.2691 C7.0789,1.3001 7.1024,1.3293 7.1011,1.3657 C7.1011,1.4073 7.1245,1.4444 7.1231,1.4863 C7.1244,1.5423 7.1243,1.6008 7.1039,1.6537 C7.0899,1.6831 7.0619,1.7007 7.0432,1.727 C7.0114,1.7566 6.9762,1.785 6.9352,1.8007 C6.9064,1.8099 6.8896,1.8433 6.8534,1.8352 C6.802,1.8362 6.7497,1.8432 6.6987,1.8348 C6.7019,1.8402 6.6831,1.8256 6.6862,1.829 L6.686,1.829 Z M6.001,1.874 C5.9767,1.849 5.9715,1.8385 5.9712,1.814 C5.9709,1.7892 5.9757,1.7794 5.9994,1.7554 C6.0434,1.7111 6.0647,1.7101 6.1404,1.7484 C6.2126,1.7849 6.2371,1.7884 6.2436,1.7624 C6.2498,1.7374 6.2914,1.7144 6.331,1.7144 C6.35262722,1.71304667 6.37391088,1.720309 6.3902,1.7346 C6.4152,1.7542 6.4165,1.7573 6.4172,1.8026 C6.4176,1.8489 6.417,1.8506 6.3882,1.8762 C6.3604,1.9006 6.3559,1.9022 6.3216,1.8986 C6.2779,1.8943 6.2516,1.8742 6.2446,1.8398 C6.2394,1.8148 6.2306,1.8088 6.224,1.8258 C6.222,1.8313 6.211,1.838 6.2,1.8408 C6.1797,1.8458 6.1452,1.8676 6.1207,1.8908 C6.1114,1.8995 6.0952,1.9036 6.0687,1.9038 C6.0333,1.9042 6.0283,1.9021 6.001,1.874 L6.001,1.874 Z M4.019,0.984 C3.9525,0.9847 3.881,1.0406 3.872,1.106 C3.8873,1.181 3.9498,1.2548 3.9096,1.334 C3.9374,1.4353 3.8336,1.4737 3.7626,1.4153 C3.72,1.3181 3.6984,1.2117 3.6346,1.1246 C3.5542,1.1019 3.5192,1.2303 3.4626,1.2746 C3.4906,1.3501 3.5723,1.4179 3.5816,1.5121 C3.601,1.6037 3.5454,1.7053 3.4659,1.7528 C3.3972,1.8183 3.3032,1.7948 3.2189,1.8091 C3.1165,1.8691 3.2941,1.8909 3.3409,1.8935 C3.4455,1.9041 3.5543,1.8903 3.6314,1.8122 C3.7084,1.7756 3.7024,1.6426 3.7939,1.6279 C3.9527,1.6209 4.1102,1.6523 4.2689,1.6561 C4.3539,1.6763 4.4852,1.6459 4.5439,1.7091 C4.5441,1.8198 4.6379,1.8881 4.7283,1.9311 C4.7781,1.9448 4.8307,1.8831 4.8813,1.8716 C4.9779,1.8408 4.9486,1.7214 5.0063,1.6746 C5.1713,1.6658 5.338,1.6676 5.5033,1.6653 C5.5347,1.6661 5.544,1.6213 5.5658,1.6028 C5.562,1.539 5.5598,1.4756 5.55,1.4122 C5.5182,1.3317 5.5552,1.2279 5.497,1.1592 C5.414,1.1366 5.3433,1.2126 5.2594,1.2186 C5.1668,1.2598 5.0888,1.3454 5.0844,1.4498 C5.0296,1.5395 4.9417,1.4338 4.9719,1.3592 C4.9686,1.3267 4.9791,1.2888 4.9689,1.2592 C4.9182,1.1984 4.8294,1.2182 4.7595,1.2092 C4.6577,1.2132 4.5583,1.1912 4.4565,1.1936 C4.3671,1.1868 4.2742,1.2014 4.1877,1.178 C4.0845,1.175 4.0987,1.074 4.0814,1.003 C4.06319457,0.990043813 4.04123202,0.983437478 4.0189,0.9842 L4.019,0.984 Z M4.219,1.3528 C4.2533,1.3534 4.2857,1.3578 4.319,1.3621 C4.362,1.3693 4.408,1.3474 4.4503,1.3621 C4.5479,1.3788 4.6456,1.3749 4.744,1.3841 C4.77,1.3837 4.7886,1.4026 4.8065,1.4185 C4.8067,1.4868 4.8065,1.5565 4.8065,1.6247 C4.8035,1.6505 4.8141,1.6845 4.7909,1.7027 C4.78350012,1.70854056 4.77499676,1.71282626 4.7659,1.7153 C4.7387,1.7083 4.7099,1.6906 4.6969,1.6653 C4.6929,1.6296 4.6989,1.5949 4.7001,1.5591 C4.6994,1.5498 4.7041,1.5354 4.7001,1.5278 C4.67934926,1.51220199 4.65425095,1.50346303 4.6283,1.5028 C4.5433,1.4998 4.4601,1.4938 4.3753,1.4903 C4.3045,1.4859 4.2318,1.4963 4.1626,1.4778 C4.1358,1.4681 4.1009,1.4714 4.0846,1.4435 C4.0611,1.4162 4.0949,1.3838 4.1189,1.3715 C4.1503995,1.35781465 4.1845837,1.35142221 4.2189,1.3528 L4.219,1.3528 Z M5.347,1.3778 C5.363,1.3775 5.368,1.3828 5.3752,1.4121 C5.3798,1.4311 5.3852,1.4539 5.3877,1.4621 C5.3914,1.4741 5.3855,1.4778 5.369,1.4841 C5.3196,1.5027 5.2704,1.5009 5.2534,1.4778 C5.2456,1.4674 5.2546,1.4344 5.269,1.4216 C5.298,1.3956 5.33,1.3779 5.347,1.3778 L5.347,1.3778 Z"></path>
                            </g>
                        </g>
                        <path d="M6.998,12.223 C10.2622,9.7124 9.9823,6.0347 9.9823,6.0347 C9.8963,6.0519 9.8143,6.0605 9.7283,6.0605 C9.0435,6.0605 7.4103,5.6688 7.0293,5.1713 C6.6213,5.6216 4.9523,6.0605 4.272,6.0605 C4.186,6.0605 4.0998,6.0519 4.018,6.0347 C4.018,6.0347 3.7337,9.7123 6.998,12.223 L6.998,12.223 Z" id="Shape" stroke="#C09300" stroke-width="0.1" fill="#FFFFFF"></path>
                        <path d="M9.722,6.304 C9.694,6.3058 9.6657,6.3066 9.6372,6.3066 C9.0167,6.3066 7.5752,5.9883 7.0197,5.5109 C6.4377,5.9519 4.9727,6.3065 4.3621,6.3065 C4.3336312,6.30620763 4.30524785,6.30332913 4.2773,6.2979 C4.2758,6.4369 4.2831,6.5811 4.2917,6.7123 C4.324,7.2023 4.41,7.6943 4.5405,8.1675 C4.9513,9.657 5.7921,10.9228 6.9977,11.883 C8.2043,10.922 9.0461,9.655 9.4577,8.1645 C9.5885,7.6913 9.6747,7.1995 9.7073,6.7095 C9.7159,6.581 9.723,6.4403 9.7221,6.304 L9.722,6.304 Z" id="Shape" stroke="#C09300" stroke-width="0.1" fill="#FFFFFF"></path>
                        <path d="M5.938,6.003 C5.3508,6.1875 4.715,6.306 4.363,6.306 C4.3344,6.306 4.3067,6.302 4.2786,6.2967 C4.2772,6.4357 4.2856,6.5813 4.2942,6.7124 C4.32714763,7.20384437 4.4099053,7.69067396 4.5412,8.1654 C4.8176,9.168 5.2918,10.0687 5.938,10.8436 L5.938,6.003 L5.938,6.003 Z M8,5.994 L8,10.919 C8.6794,10.127 9.1733,9.1984 9.4594,8.1628 C9.59057245,7.68804674 9.673328,7.20122966 9.7064,6.7098 C9.7148,6.5813 9.7229,6.4398 9.7219,6.3034 C9.6937,6.3052 9.6659,6.3066 9.6374,6.3066 C9.2644,6.3066 8.5954,6.1896 7.9999,5.9941 L8,5.994 Z" id="Shape" fill="#C09300"></path>
                        <g transform="translate(5.000000, 0.000000)">
                            <path d="M3.231,4.809 C3.2977,4.813 3.1408,4.4522 3.1408,4.4522 C3.3173,4.6326 3.9838,4.6757 3.9838,4.6757 C3.5838,4.4991 3.184,3.1661 3.231,2.1037 C3.2742,1.0372 3.0782,0.6177 2.9213,0.4607 C2.7213,0.2607 2.0783,0.0844 1.6549,0.0609 C1.4156,0.0489 1.4549,0.2411 1.4549,0.2411 C1.0119,0.1274 0.5689,0.0843 0.3687,0.2176 C0.1805,0.3431 0.1413,0.9704 0.2787,0.8606 C0.6117,0.594 0.902,0.8371 1.1019,1.1272 C1.2783,1.3822 1.2666,2.1035 1.0117,2.9464 C0.7451,3.8324 0.0157,4.7186 0.0157,4.7186 C0.4117,4.7186 0.9687,4.3658 0.9687,4.3658 L0.8353,4.9185 C1.2548,4.7185 1.5881,4.4088 1.5881,4.4088 L1.9881,4.8283 C2.1213,4.6519 2.3879,4.4088 2.3879,4.4088 C2.3879,4.4088 2.7212,4.7618 3.2309,4.8088 L3.231,4.809 Z" id="Shape" stroke="#C09300" stroke-width="0.1" fill="#FFFFFF"></path>
                            <path d="M1.612,2.257 C1.612,2.257 1.3885,3.8998 0.969,4.3664 M1.965,2.214 C1.965,2.214 1.8787,3.8763 1.5886,4.4096 M2.278,2.281 C2.278,2.281 2.278,4.1002 2.3878,4.41 M2.674,2.371 C2.674,2.371 2.7642,3.9 3.1406,4.453" id="Shape" stroke="#C09300" stroke-width="0.1"></path>
                            <path d="M1.208,1.461 C1.1884,1.316 1.153,1.2022 1.102,1.1277 C0.9022,0.8377 0.612,0.5945 0.2788,0.8611 C0.2788,0.8611 0.3925,0.5083 0.6356,0.4966 C0.8238,0.4848 1.2511,0.6376 1.6276,1.2806 C1.6276,1.2806 1.3492,1.218 1.2826,1.2768 C1.157,1.3866 1.208,1.4611 1.208,1.4611 L1.208,1.461 Z" id="Shape" stroke="#C09300" stroke-width="0.1" fill="#C09300"></path>
                            <path d="M0.244,0.426 C0.2714,0.3358 0.3146,0.2535 0.3695,0.2182 C0.5695,0.0849 1.0125,0.128 1.4555,0.2417 C1.4555,0.2417 1.4163,0.0497 1.6555,0.0614 C2.0789,0.0849 2.7219,0.2614 2.9218,0.4614 C2.9688,0.5124 3.0238,0.5868 3.0708,0.7004 L3.063,0.7004 C2.965,0.5632 2.6866,0.5711 2.62,0.5789 C2.514,0.5906 2.4474,0.5866 2.3062,0.6219 C2.2396,0.6376 2.1376,0.6572 2.0827,0.7003 C2.0397,0.7356 2.0043,0.865 1.9377,0.865 C1.8317,0.865 1.8397,0.8377 1.8122,0.8063 C1.7769,0.7633 1.7572,0.7003 1.722,0.7043 C1.6123,0.724 1.4358,0.6377 1.2124,0.4613 C0.9889,0.2848 0.9026,0.2417 0.6124,0.2613 C0.3264,0.2848 0.2361,0.4456 0.2361,0.4456 L0.2441,0.426 L0.244,0.426 Z" id="Shape" stroke="#C09300" stroke-width="0.1" fill="#C09300"></path>
                            <ellipse id="Oval" fill="#FFFFFF" cx="2.0148" cy="0.6996" rx="0.25" ry="0.25"></ellipse>
                        </g>
                    </g>
                </g>
            </g>
        </g>
    </g>
</svg>