<?xml version="1.0" encoding="UTF-8" standalone="no"?>
<svg width="122px" height="60px" viewBox="0 0 122 60" version="1.1" xmlns="http://www.w3.org/2000/svg" xmlns:xlink="http://www.w3.org/1999/xlink">
    <!-- Generator: Sketch 3.8.2 (29753) - http://www.bohemiancoding.com/sketch -->
    <title>md</title>
    <desc>Created with Sketch.</desc>
    <defs></defs>
    <g id="Page-1" stroke="none" stroke-width="1" fill="none" fill-rule="evenodd">
        <g id="md">
            <g id="Group">
                <g>
                    <g id="Shape">
                        <polygon fill="#00319C" points="0 0 47.667125 0 47.667125 60 0 60"></polygon>
                        <polygon fill="#FFDE00" points="47.667125 0 74.334375 0 74.334375 60 47.667125 60"></polygon>
                        <polygon fill="#DE2110" points="74.33275 0 121.999875 0 121.999875 60 74.33275 60"></polygon>
                    </g>
                    <path d="M66.047,40.047125 L69.080375,44.423625 C69.248875,44.66675 69.417375,44.909875 69.162875,45.070875 C68.9085,45.232 68.991125,45.87925 69.159625,46.122375 C69.496625,46.608625 69.919625,46.69075 70.174125,46.52975 L72.464,45.0805 C72.7185,44.9195 72.804375,44.51525 72.467375,44.029 C72.273875,43.784 71.707375,43.460625 71.452875,43.621625 C71.198375,43.78275 71.029875,43.539625 70.861375,43.296375 L67.828,38.919875" id="Shape" stroke="#000000" stroke-width="0.3" fill="#FF1900"></path>
                    <path d="M67.6272606,38.0814439 C67.6272606,40.1340148 66.8223691,41.7979894 65.8294045,41.7979894 C64.8365244,41.7979894 64.0315483,40.1340148 64.0315483,38.0814439 C64.0315483,36.0288729 64.8364398,34.3648983 65.8294045,34.3648983 C66.8222845,34.3648983 67.6272606,36.0288729 67.6272606,38.0814439 L67.6272606,38.0814439 Z" id="Shape" stroke="#000000" stroke-width="0.3" fill="#A77B3B" transform="translate(65.829404, 38.081444) rotate(-38.794455) translate(-65.829404, -38.081444) "></path>
                    <path d="M53.744,38.26775 L51.06625,42.85125 C50.9175,43.105875 50.76875,43.3605 50.50225,43.218375 C50.23575,43.076125 49.671625,43.443375 49.522875,43.697875 C49.225375,44.20725 49.343,44.604 49.6095,44.746125 L52.00775,46.025625 C52.27425,46.16775 52.6895,46.055375 52.987,45.546 C53.12625,45.269375 53.167,44.64 52.900375,44.49775 C52.633875,44.355625 52.78275,44.101 52.9315,43.846375 L55.609375,39.263" id="Shape" stroke="#000000" stroke-width="0.3" fill="#FF1900"></path>
                    <path d="M62.396125,35.072125 L59.954625,35.072125 C59.873875,35.14925 59.179625,39.521875 58.428625,41.19625 C57.513125,43.2375 54.771125,45.038875 54.771125,45.038875 C54.771125,45.038875 56.413875,45.536375 56.90275,45.862125 C57.02425,45.828 59.64475,45.279 59.949875,42.071 C60.255125,45.279 58.123625,46.737125 58.123625,46.737125 C58.123625,46.737125 61.1755,47.612 61.1755,49.653375 C61.1755,47.612 64.227375,46.737125 64.227375,46.737125 C64.227375,46.737125 62.696625,45.279 62.3915,42.071 C63.00175,45.279 65.3265,45.828 65.448125,45.86225 C65.936875,45.536375 67.57975,45.038875 67.57975,45.038875 C67.57975,45.038875 64.83775,43.237625 63.92225,41.19625 C63.171375,39.521875 62.477,35.14925 62.396375,35.072125 L62.396125,35.072125 Z M52.0155,20.488375 L56.593375,21.9465 C58.11925,21.9465 59.64525,20.49 59.64525,19.03175 C59.696,15.788 58.4245,14.655875 58.11925,14.655875 L58.72975,14.072625 L57.814125,13.197625 C57.814125,13.197625 58.12025,11.684875 61.171125,11.741125 C64.222,11.797375 64.223125,13.19925 64.223125,14.657375 C64.223125,16.1155 62.697125,16.1155 62.697125,19.031875 C62.697125,20.49 64.223125,21.948125 65.749125,21.948125 L70.327,20.49 L70.327,35.071375 L52.0155,35.071375 L52.0155,20.4885 L52.0155,20.488375 Z" id="Shape" stroke="#000000" stroke-width="0.3" fill="#A77B3B"></path>
                    <g transform="translate(59.000000, 17.750000)" id="Shape" stroke="#000000">
                        <polyline stroke-width="0.3" points="0.0345144 3.3235519 0.3397162 4.19844086 0.64489716 3.3235519 0.95009896 4.19844086 1.56050256 3.3235519 1.8577018 4.24784485 2.17088532 3.3235519 2.62113352 4.24784485 3.08646988 3.3235519 3.39167168 4.19844086 3.69687348 3.3235519"></polyline>
                        <path d="M1.25481675,0.116193363 L0.644490713,3.32406432 M1.56058269,0.116193363 L1.56058269,3.32406432 M2.17039194,0.116193363 L2.17039194,3.32406432 M2.7810625,0.116193363 L3.08622552,3.32406432 M3.39173306,0.116193363 L3.69689608,3.32406432" stroke-width="0.2"></path>
                    </g>
                    <g transform="translate(45.875000, 11.625000)" id="Shape" stroke="#000000">
                        <path d="M3.08836937,0.116971325 C6.14025796,1.57514686 6.14025796,4.49133333 6.14025796,5.94950887 C6.03250776,7.27599841 6.14025796,35.1121966 6.14025796,35.1121966 C6.14025796,35.1121966 5.94163929,33.4643109 4.6142706,32.1959278 L3.08836937,30.7378346 L1.56238202,29.2796591 C0.4468962,28.3106147 0.0364807937,26.3633903 0.0364807937,24.9052147 L0.0364807937,4.49141564 C0.0364807937,4.49141564 0.0364807937,3.0332401 3.08836937,0.116971325 L3.08836937,0.116971325 Z" stroke-width="0.3" fill="#A77B3B" transform="translate(3.088369, 17.614584) scale(-1, 1) translate(-3.088369, -17.614584) "></path>
                        <path d="M0.0370837125,5.94974857 C0.0730004438,5.94974857 1.56298494,4.49157304 1.56298494,4.49157304 L3.08897229,5.94974857 L4.61487352,4.49157304 L6.14086088,5.94974857" stroke-width="0.3" transform="translate(3.088972, 5.220661) scale(-1, 1) translate(-3.088972, -5.220661) "></path>
                        <path d="M0.0370837125,8.86417696 C0.0730004438,8.86417696 1.56298494,7.40600143 1.56298494,7.40600143 L3.08897229,8.86417696 L4.61487352,7.40600143 L6.14086088,8.86417696" stroke-width="0.3" transform="translate(3.088972, 8.135089) scale(-1, -1) translate(-3.088972, -8.135089) "></path>
                        <path d="M0.0370837125,11.7821236 C0.0730004438,11.7821236 1.56298494,10.323948 1.56298494,10.323948 L3.08897229,11.7821236 L4.61487352,10.323948 L6.14086088,11.7821236" stroke-width="0.3" transform="translate(3.088972, 11.053036) scale(-1, 1) translate(-3.088972, -11.053036) "></path>
                        <path stroke-width="2.56216996" transform="translate(4.578312, 16.887766) scale(-1, 1) translate(-4.578312, -16.887766) "></path>
                        <path stroke-width="0.3" transform="translate(3.070187, 18.314342) scale(-1, 1) translate(-3.070187, -18.314342) "></path>
                        <path stroke-width="2.57285495" transform="translate(1.543937, 18.344851) scale(-1, 1) translate(-1.543937, -18.344851) "></path>
                    </g>
                    <g transform="translate(70.250000, 11.625000)" id="Shape" stroke="#000000">
                        <path d="M3.12875563,0.116971325 C6.18064421,1.57514686 6.18064421,4.49133333 6.18064421,5.94950887 C6.07289401,7.27599841 6.18064421,35.1121966 6.18064421,35.1121966 C6.18064421,35.1121966 5.98202554,33.4643109 4.65465685,32.1959278 L3.12875563,30.7378346 L1.60276827,29.2796591 C0.48728245,28.3106147 0.0768670438,26.3633903 0.0768670438,24.9052147 L0.0768670438,4.49141564 C0.0768670438,4.49141564 0.0768670438,3.0332401 3.12875563,0.116971325 L3.12875563,0.116971325 Z" stroke-width="0.3" fill="#A77B3B"></path>
                        <path d="M0.076264125,5.94974857 C0.112180856,5.94974857 1.60216535,4.49157304 1.60216535,4.49157304 L3.12815271,5.94974857 L4.65405393,4.49157304 L6.18004129,5.94974857" stroke-width="0.3"></path>
                        <path d="M0.076264125,8.86417696 C0.112180856,8.86417696 1.60216535,7.40600143 1.60216535,7.40600143 L3.12815271,8.86417696 L4.65405393,7.40600143 L6.18004129,8.86417696" stroke-width="0.3" transform="translate(3.128153, 8.135089) scale(1, -1) translate(-3.128153, -8.135089) "></path>
                        <path d="M0.076264125,11.7821236 C0.112180856,11.7821236 1.60216535,10.323948 1.60216535,10.323948 L3.12815271,11.7821236 L4.65405393,10.323948 L6.18004129,11.7821236" stroke-width="0.3"></path>
                        <path stroke-width="2.56216996"></path>
                        <path stroke-width="2.36348162"></path>
                        <path stroke-width="2.57285495"></path>
                    </g>
                    <path d="M57.2936811,37.180374 C57.2936811,39.207725 56.4791714,40.8512542 55.4743413,40.8512542 C54.4695968,40.8512542 53.6550015,39.207725 53.6550015,37.180374 C53.6550015,35.1530231 54.4695112,33.5094938 55.4743413,33.5094938 C56.4790858,33.5094938 57.2936811,35.1530231 57.2936811,37.180374 L57.2936811,37.180374 Z" id="Shape" stroke="#000000" stroke-width="0.3" fill="#A77B3B" transform="translate(55.474341, 37.180374) rotate(21.708940) translate(-55.474341, -37.180374) "></path>
                    <polygon id="Shape" fill="#FF0000" points="52.014875 21.9485 70.3265 21.9485 70.3265 30.697375 52.014875 30.697375"></polygon>
                    <path d="M52.015,30.6975 L70.3265,30.6975 L70.3265,35.072 C70.3265,37.98825 65.748625,37.98825 61.17075,40.9045 C56.59275,37.98825 52.014875,37.98825 52.014875,35.072 L52.014875,30.6975 L52.015,30.6975 Z" id="Shape" fill="#564DFF"></path>
                    <path d="M52.0147651,21.9484594 L70.3262688,21.9484594 L70.3262688,35.0717923 C70.3262688,37.9880611 65.7483929,37.9880611 61.1705169,40.9043298 C56.5927271,37.9880611 52.0147651,37.9880611 52.0147651,35.0717923 L52.0147651,21.9484594 L52.0147651,21.9484594 Z" id="Shape" stroke="#FFFF00" stroke-width="1.3693931"></path>
                    <path d="M57.8135601,22.5316479 C57.8135601,22.5316479 54.7616743,24.6744665 54.7616743,26.7286306 C54.7616743,28.7826402 57.9661604,29.4673358 57.9661604,29.4673358 C57.9661604,29.4673358 56.8979582,29.4673358 56.8979582,32.2060409 C56.8979582,33.5753935 60.1025045,32.8907365 60.1025045,33.5753935 C60.1025045,34.2600891 60.0572249,35.916506 60.1025045,36.9987943 C60.1025045,37.6834512 57.9661604,36.9987943 57.9661604,37.6834512 C57.9661604,38.0258184 59.5684336,39.7374994 61.1707068,39.7374994 C62.7729197,39.7374994 64.3751929,38.0258184 64.3751929,37.6834512 C64.3751929,36.9987943 62.2388487,37.6834512 62.2388487,36.9987943 L62.2388487,33.5753935 C62.2388487,32.8907365 65.4433951,33.5753935 65.4433951,32.2060409 C65.4433951,29.4673358 64.3751929,29.4673358 64.3751929,29.4673358 C64.3751929,29.4673358 67.5797392,28.7826402 67.5797392,26.7286306 C67.5797392,24.6746211 64.5277932,22.5316479 64.5277932,22.5316479 C64.5277932,22.5316092 66.2445015,25.3591235 66.2445015,26.7286306 C66.2445015,27.4133262 65.4433951,28.7826402 63.3070509,28.7826402 C63.3070509,28.7826402 62.7667698,28.0979832 62.2388487,28.7826402 C62.2388487,28.7826402 61.6245284,28.0979832 61.1707068,28.7826402 C61.0140669,29.018962 60.7361787,28.0979832 60.1025045,28.7826402 C59.8332985,28.9641616 59.6211292,28.0979832 59.0343023,28.7826402 C57.9661604,28.7826402 55.8298765,28.0979832 55.8298162,26.7286306 C55.8298162,25.359278 57.8135601,22.5316479 57.8135601,22.5316479 L57.8135601,22.5316479 Z" id="Shape" stroke="#000000" stroke-width="0.3" fill="#FFFF00"></path>
                    <path d="M57.8681089,34.7841794 C57.6544926,34.9211031 58.1443088,37.1521897 58.2954018,37.2489986 C58.5090182,37.3859222 59.7908367,37.3859222 60.0044531,37.2489986 C60.1566916,37.1514168 60.0044531,35.0580267 59.7908367,34.9211031 C59.5772204,34.7841407 58.0192019,34.6873319 57.8681089,34.7841794 L57.8681089,34.7841794 Z" id="Shape" stroke="#000000" stroke-width="0.3" fill="#FFFF00"></path>
                    <path d="M62.3291727,34.7841794 C62.1155564,34.9211031 62.6053727,37.1521897 62.7564657,37.2489986 C62.970082,37.3859222 64.2519005,37.3859222 64.4655169,37.2489986 C64.6177554,37.1514168 64.4655169,35.0580267 64.2519005,34.9211031 C64.0382842,34.7841407 62.4802657,34.6873319 62.3291727,34.7841794 L62.3291727,34.7841794 Z" id="Shape" stroke="#000000" stroke-width="0.3" fill="#FFFF00" transform="translate(63.401594, 36.048348) scale(-1, 1) translate(-63.401594, -36.048348) "></path>
                    <path d="M60.065951,33.9763608 C60.065951,34.4006119 59.5712183,34.7445511 58.9609625,34.7445511 C58.3507067,34.7445511 57.855974,34.4006119 57.855974,33.9763608 C57.855974,33.5521098 58.3507067,33.2081706 58.9609625,33.2081706 C59.5712183,33.2081706 60.065951,33.5521098 60.065951,33.9763608 L60.065951,33.9763608 Z" id="Shape" stroke="#000000" stroke-width="0.3" fill="#FFFF00"></path>
                    <path d="M64.4859692,33.9766465 C64.4859692,34.4009086 63.9912276,34.7448567 63.3809608,34.7448567 C62.770694,34.7448567 62.2759523,34.4009086 62.2759523,33.9766465 C62.2759523,33.5523845 62.770694,33.2084364 63.3809608,33.2084364 C63.9912276,33.2084364 64.4859692,33.5523845 64.4859692,33.9766465 L64.4859692,33.9766465 Z" id="Shape" stroke="#000000" stroke-width="0.3" fill="#FFFF00"></path>
                    <path d="M63.094125,38.43725 C63.094125,38.626375 62.855,38.779625 62.56,38.779625 C62.265,38.779625 62.026,38.626375 62.026,38.43725 C62.026,38.248125 62.265125,38.094875 62.56,38.094875 C62.855,38.094875 63.094125,38.248125 63.094125,38.43725 L63.094125,38.43725 Z M60.316375,38.43725 C60.316375,38.626375 60.07725,38.779625 59.78225,38.779625 C59.48725,38.779625 59.24825,38.626375 59.24825,38.43725 C59.24825,38.248125 59.487375,38.094875 59.78225,38.094875 C60.07725,38.094875 60.316375,38.248125 60.316375,38.43725 L60.316375,38.43725 Z" id="Shape" fill="#000000"></path>
                    <polygon id="Shape" stroke="#000000" stroke-width="0.3" fill="#FFFF00" points="61.1710603 27.4895138 60.5172972 26.6656743 59.4442181 26.8061927 59.5921131 25.7816126 58.7299525 25.1569077 59.5921131 24.5313999 59.4442181 23.5068198 60.5172972 23.6481412 61.1710603 22.8234987 61.8248234 23.6481412 62.8979025 23.5068198 62.7500075 24.5313999 63.6121681 25.1569077 62.7500075 25.7816126 62.8979025 26.8061927 61.8248234 26.6656743"></polygon>
                    <polygon id="Shape" stroke="#000000" stroke-width="0.3" fill="#FFFF00" points="65.7482679 30.697348 67.5794183 31.5722369 69.4105686 30.697348 67.5794183 29.8224591 65.7482679 30.697348"></polygon>
                    <polygon id="Shape" stroke="#000000" stroke-width="0.3" fill="#FFFF00" points="52.6252679 30.697348 54.4564183 31.5722369 56.2875686 30.697348 54.4564183 29.8224591 52.6252679 30.697348"></polygon>
                    <path d="M68.3569618,36.9170879 C68.0551041,36.3270391 67.1494457,36.0319314 66.5457302,36.0319314 C65.9419295,36.0319314 65.3381289,36.0319314 64.7344134,36.9170879 C64.7344134,35.736907 65.6291664,35.1467749 66.5457302,35.1467749 C67.4621236,35.1467749 68.3569618,36.0213561 68.3569618,36.9170879 L68.3569618,36.9170879 Z" id="Shape" stroke="#000000" stroke-width="0.3" fill="#FFFF00" transform="translate(66.545688, 36.031931) rotate(-28.756177) translate(-66.545688, -36.031931) "></path>
                    <path d="M55.9824864,34.1970759 C55.9850974,34.4071005 55.8693361,34.6022477 55.6794141,34.7079868 C55.4894922,34.8137259 55.2547424,34.8137259 55.0648204,34.7079868 C54.8748985,34.6022477 54.7591372,34.4071005 54.7617482,34.1970759 C54.7657191,33.8776606 55.0378241,33.6207178 55.3721173,33.6207178 C55.7064104,33.6207178 55.9785155,33.8776606 55.9824864,34.1970759 L55.9824864,34.1970759 Z" id="Shape" stroke="#000000" stroke-width="0.3" fill="#FFFF00"></path>
                    <path d="M55.3719864,36.2385759 C55.3745974,36.4486005 55.2588361,36.6437477 55.0689141,36.7494868 C54.8789922,36.8552259 54.6442424,36.8552259 54.4543204,36.7494868 C54.2643985,36.6437477 54.1486372,36.4486005 54.1512482,36.2385759 C54.1552191,35.9191606 54.4273241,35.6622178 54.7616173,35.6622178 C55.0959104,35.6622178 55.3680155,35.9191606 55.3719864,36.2385759 L55.3719864,36.2385759 Z" id="Shape" stroke="#000000" stroke-width="0.3" fill="#FFFF00"></path>
                    <path d="M55.0668614,35.0720759 C55.0694724,35.2821005 54.9537111,35.4772477 54.7637891,35.5829868 C54.5738672,35.6887259 54.3391174,35.6887259 54.1491954,35.5829868 C53.9592735,35.4772477 53.8435122,35.2821005 53.8461232,35.0720759 C53.8500941,34.7526606 54.1221991,34.4957178 54.4564923,34.4957178 C54.7907854,34.4957178 55.0628905,34.7526606 55.0668614,35.0720759 L55.0668614,35.0720759 Z" id="Shape" stroke="#000000" stroke-width="0.3" fill="#FFFF00"></path>
                    <path d="M56.5928614,36.2385759 C56.5954724,36.4486005 56.4797111,36.6437477 56.2897891,36.7494868 C56.0998672,36.8552259 55.8651174,36.8552259 55.6751954,36.7494868 C55.4852735,36.6437477 55.3695122,36.4486005 55.3721232,36.2385759 C55.3760941,35.9191606 55.6481991,35.6622178 55.9824923,35.6622178 C56.3167854,35.6622178 56.5888905,35.9191606 56.5928614,36.2385759 L56.5928614,36.2385759 Z" id="Shape" stroke="#000000" stroke-width="0.3" fill="#FFFF00"></path>
                    <path d="M56.8981114,35.0720759 C56.9007224,35.2821005 56.7849611,35.4772477 56.5950391,35.5829868 C56.4051172,35.6887259 56.1703674,35.6887259 55.9804454,35.5829868 C55.7905235,35.4772477 55.6747622,35.2821005 55.6773732,35.0720759 C55.6813441,34.7526606 55.9534491,34.4957178 56.2877423,34.4957178 C56.6220354,34.4957178 56.8941405,34.7526606 56.8981114,35.0720759 L56.8981114,35.0720759 Z" id="Shape" stroke="#000000" stroke-width="0.3" fill="#FFFF00"></path>
                    <path d="M55.9824864,35.3637009 C55.9850974,35.5737255 55.8693361,35.7688727 55.6794141,35.8746118 C55.4894922,35.9803509 55.2547424,35.9803509 55.0648204,35.8746118 C54.8748985,35.7688727 54.7591372,35.5737255 54.7617482,35.3637009 C54.7657191,35.0442856 55.0378241,34.7873428 55.3721173,34.7873428 C55.7064104,34.7873428 55.9785155,35.0442856 55.9824864,35.3637009 L55.9824864,35.3637009 Z" id="Shape" stroke="#000000" stroke-width="0.3" fill="#FFFF00"></path>
                    <g transform="translate(54.125000, 10.250000)" id="Shape">
                        <path d="M4.09675,4.7975 C2.556375,4.7975 2.35275,5.040625 1.655125,5.28375 C1.655125,4.613 3.370375,3.8255 4.910625,3.8255 C4.910625,4.311625 4.503625,4.79775 4.09675,4.797625 L4.09675,4.7975 Z" fill="#DA4500"></path>
                        <path d="M6.4355,3.2415 C6.4355,3.563625 6.16225,3.82475 5.825125,3.82475 C5.488,3.82475 5.21475,3.563625 5.21475,3.2415 C5.21475,2.919375 5.488,2.65825 5.825125,2.65825 C6.16225,2.65825 6.4355,2.9195 6.4355,3.2415 L6.4355,3.2415 Z" fill="#CAC9C7"></path>
                        <polygon stroke="#000000" stroke-width="0.3" fill="#FFFF00" points="0.026556375 1.19979301 0.026556375 2.07468188 1.55254373 2.07468188 1.55254373 6.44912619 2.46811892 6.44912619 2.46811892 2.07468188 3.99402014 2.07468188 3.99402014 1.19979301 2.46811892 1.19979301 2.46811892 0.0333019638 1.55254373 0.0333019638 1.55254373 1.19979301"></polygon>
                        <path d="M4.907875,3.825875 C3.111,3.825875 2.0595,3.987625 1.245625,4.31175 C1.245625,3.417375 2.297125,2.367625 4.094,2.367625 C4.500875,2.367625 4.90775,3.339625 4.90775,3.825875 L4.907875,3.825875 Z" fill="#DA4500"></path>
                    </g>
                    <g transform="translate(37.875000, 26.000000)" id="Shape">
                        <path d="M1.54713012,8.12588537 C0.681682615,7.63779103 0.531406293,7.39012706 1.76347673,7.77798467 L19.0901352,16.3032741 L18.8845967,16.5432911 L1.54694693,8.12581648 L1.54713012,8.12588537 Z" stroke="#000000" stroke-width="0.2" fill="#008500" transform="translate(9.979337, 12.065264) rotate(37.374008) translate(-9.979337, -12.065264) "></path>
                        <path d="M11.67475,15.300625 C11.771,13.9775 9.3485,12.546125 9.252625,12.639125 C9.15675,12.732125 9.399875,13.5025 9.859375,13.904 C8.979625,13.45075 8.058125,13.171625 8.038875,13.368375 C7.967125,13.633625 9.406,14.267125 9.5255,14.511875 C9.545,14.68675 8.46875,14.663875 8.488375,14.83875 C8.507875,15.01375 11.519625,16.535375 11.674625,15.3005 L11.67475,15.300625 Z M9.254375,11.44625 C9.3505,10.12325 6.928,8.691875 6.832125,8.785 C6.73625,8.877875 6.979375,9.64825 7.438875,10.049625 C6.559125,9.5965 5.637625,9.317375 5.618375,9.514125 C5.546625,9.779375 6.985625,10.412875 7.105,10.6575 C7.1245,10.8325 6.048375,10.809625 6.067875,10.9845 C6.087375,11.159375 9.099125,12.681125 9.25425,11.44625 L9.254375,11.44625 Z M7.402125,7.94675 C7.498375,6.623625 5.07575,5.192375 4.98,5.285375 C4.884125,5.37825 5.12725,6.148625 5.586625,6.550125 C4.706875,6.096875 3.7855,5.81775 3.76625,6.0145 C3.6945,6.279875 5.133375,6.91325 5.252875,7.158 C5.272375,7.332875 4.196125,7.31 4.215625,7.484875 C4.23525,7.659875 7.246875,9.1815 7.402125,7.94675 L7.402125,7.94675 Z M5.571,4.155 C5.667125,2.831875 3.244625,1.400625 3.14875,1.493625 C3.052875,1.5865 3.296125,2.356875 3.7555,2.758375 C2.87575,2.305125 1.95425,2.026 1.935,2.22275 C1.86325,2.488125 3.30225,3.1215 3.42175,3.36625 C3.44125,3.541125 2.365,3.51825 2.3845,3.693125 C2.404,3.868125 5.41575,5.38975 5.570875,4.155 L5.571,4.155 Z" fill="#008F00"></path>
                        <path d="M6.200375,3.98325 C7.3725,3.273 7.142875,0.560125 7.007875,0.541625 C6.872625,0.522875 6.367375,1.166625 6.301375,1.75825 C6.161875,0.812625 5.851,-0.062 5.673625,0.03975 C5.4075,0.14175 5.7265,1.62475 5.591125,1.861625 C5.45525,1.980375 4.836625,1.138625 4.70075,1.25725 C4.565,1.376 5.067625,4.595875 6.200375,3.98325 L6.200375,3.98325 Z M7.898125,7.312125 C9.25125,7.0165 9.982625,4.386125 9.86175,4.3255 C9.740875,4.26475 9.03975,4.7105 8.77075,5.247 C8.96975,4.311125 8.98225,3.3875 8.7795,3.426875 C8.493125,3.438125 8.27575,4.93775 8.06525,5.117875 C7.89575,5.1865 7.606625,4.195625 7.437125,4.264125 C7.267625,4.33275 6.6165,7.528125 7.89825,7.312125 L7.898125,7.312125 Z M9.92625,10.717375 C11.16025,10.11025 11.186,7.388625 11.053125,7.358625 C10.92025,7.3285 10.356875,7.926375 10.235625,8.509875 C10.18525,7.556125 9.957625,6.658375 9.7715,6.744625 C9.496875,6.823375 9.675625,8.32775 9.5185,8.552125 C9.372125,8.65875 8.83475,7.767375 8.6885,7.873875 C8.542,7.9805 8.74075,11.2305 9.92625,10.71725 L9.92625,10.717375 Z M12.1215,15.163375 C13.4135,14.678625 13.727125,11.9735 13.598125,11.93075 C13.469125,11.887875 12.84525,12.42825 12.662875,12.997 C12.713875,12.04325 12.582375,11.12825 12.388125,11.196 C12.1065,11.247875 12.125,12.76175 11.945,12.96975 C11.788125,13.061625 11.348,12.122875 11.191,12.21475 C11.034125,12.30675 10.88775,15.55925 12.1215,15.16325 L12.1215,15.163375 Z" fill="#008F00"></path>
                    </g>
                    <path d="M53.0698407,44.8764538 C53.0698407,45.5279752 52.1908671,46.0560671 51.1067257,46.0560671 C50.0224991,46.0560671 49.1436107,45.527892 49.1436107,44.8764538 C49.1436107,44.2249323 50.0225843,43.6968404 51.1067257,43.6968404 C52.1909523,43.6968404 53.0698407,44.2250156 53.0698407,44.8764538 L53.0698407,44.8764538 Z" id="Shape" stroke="#000000" stroke-width="0.3" fill="#FF1900" transform="translate(51.106726, 44.876454) rotate(28.079555) translate(-51.106726, -44.876454) "></path>
                    <g transform="translate(70.625000, 26.125000)" stroke="#000000" id="Shape" fill="#FFFF00">
                        <polygon stroke-width="0.5" transform="translate(7.687575, 1.207388) rotate(17.479825) translate(-7.687575, -1.207388) " points="6.99264293 1.09546537 6.99264293 0.647711463 7.45590939 0.647711463 7.45590939 0.200020738 7.91924123 0.200020738 7.91924123 0.647711463 8.38250769 0.647711463 8.38250769 1.09546537 7.91924123 1.09546537 7.91924123 2.21475536 7.45590939 2.21475536 7.45590939 1.09546537"></polygon>
                        <polygon stroke-width="0.5" transform="translate(4.007503, 10.704761) rotate(17.479825) translate(-4.007503, -10.704761) " points="3.7758371 4.21273959 4.2758371 4.21273959 4.2758371 17.1967815 3.7758371 17.1967815"></polygon>
                        <path d="M3.34211815,16.9354305 L4.26871645,16.9354305 L4.26871645,20.5172722 L3.34211815,20.5172722 L3.34211815,16.9354305 Z M3.11068105,1.93659078 L4.50054581,1.93659078 C5.42720949,1.93659078 4.26891258,4.39907931 4.26891258,4.39907931 L3.34231428,4.39907931 C3.34231428,4.39907931 2.18401738,1.93659078 3.11068105,1.93659078 L3.11068105,1.93659078 Z" stroke-width="0.1" transform="translate(3.805613, 11.226931) rotate(17.479825) translate(-3.805613, -11.226931) "></path>
                        <path d="M7.74607554,2.25111136 C7.74607554,2.43654352 7.53863207,2.58691099 7.2827437,2.58691099 C7.02685534,2.58691099 6.81947724,2.43654352 6.81947724,2.25111136 C6.81947724,2.0656792 7.02692072,1.91531172 7.2827437,1.91531172 C7.53856669,1.91531172 7.74607554,2.0656792 7.74607554,2.25111136 L7.74607554,2.25111136 Z" stroke-width="0.5" transform="translate(7.282776, 2.251111) rotate(17.479825) translate(-7.282776, -2.251111) "></path>
                    </g>
                    <path d="M72.9394668,45.3189572 C72.9394668,45.9725125 72.0631156,46.502253 70.9822088,46.502253 C69.9012171,46.502253 69.0249509,45.972429 69.0249509,45.3189572 C69.0249509,44.6654019 69.901302,44.1356614 70.9822088,44.1356614 C72.0632006,44.1356614 72.9394668,44.6654853 72.9394668,45.3189572 L72.9394668,45.3189572 Z" id="Shape" stroke="#000000" stroke-width="0.3" fill="#FF1900" transform="translate(70.982209, 45.318957) rotate(-32.327959) translate(-70.982209, -45.318957) "></path>
                </g>
            </g>
        </g>
    </g>
</svg>