<?xml version="1.0" encoding="UTF-8" standalone="no"?>
<svg width="122px" height="60px" viewBox="0 0 122 60" version="1.1" xmlns="http://www.w3.org/2000/svg" xmlns:xlink="http://www.w3.org/1999/xlink">
    <!-- Generator: Sketch 3.8.2 (29753) - http://www.bohemiancoding.com/sketch -->
    <title>kg</title>
    <desc>Created with Sketch.</desc>
    <defs></defs>
    <g id="Page-1" stroke="none" stroke-width="1" fill="none" fill-rule="evenodd">
        <g id="kg">
            <g>
                <rect id="Rectangle-140" fill="#BE0027" x="0" y="0" width="122" height="60"></rect>
                <g id="Group-2" transform="translate(44.501714, 13.000000)">
                    <path d="M0,17.1485596 C1.47631088,15.3237305 4.53442973,17.1047241 7.03079814,15.7907593 C4.07363655,15.9559937 2.46177919,14.3483643 0.125493991,14.5736938 C2.54619849,13.0623047 4.60706708,15.0680786 7.31378115,14.261792 C3.72893342,13.9552734 3.8843687,12.3265503 0.624659581,12.0952881 C3.52020913,10.8399902 4.95220258,13.3861816 7.78851811,12.8070923 C4.44557869,12.0226685 4.00045875,10.0213989 1.51500756,9.59776611 C5.14773973,9.04042969 4.91091171,11.2230835 8.47219553,11.4896118 C4.85751461,9.91362305 5.80493479,8.54560547 2.78172942,7.34523926 C6.16466261,7.26394043 5.94037318,9.646875 9.36773189,10.2719971 C6.43370184,8.38015137 6.79613195,6.6536499 4.37942682,5.30266113 C7.24644027,5.35539551 7.52639672,8.33807373 10.452428,9.26213379 C7.84223948,7.15715332 8.52872728,5.38253174 6.27318627,3.502771 C9.12495885,4.18260498 8.70978019,6.75582275 11.6798046,8.3973999 C9.47874165,5.9128418 10.3232589,4.13415527 8.4031252,2.10025635 C11.1458337,2.99805908 10.1039417,5.44361572 12.9499854,7.76865234 C11.3184555,5.03800049 12.3257582,3.29644775 10.7201702,0.992614746 C13.2666929,2.32921143 12.0335874,4.82376709 14.3977602,7.31612549 C13.2849603,4.51373291 14.3993816,2.77305908 13.262045,0.291357422 C15.4403007,1.94556885 14.1447185,4.61151123 15.9018505,7.15473633 C15.2613015,3.64790039 16.7493944,3.07111816 16.2863313,-3.55271368e-15 C17.9407766,2.06433105 16.0915508,4.12866211 17.3617315,7.16967773 C17.207161,3.71162109 19.0148798,2.90753174 18.701415,0.131066895 C20.3410519,2.6189209 17.7818824,4.78410645 18.8522024,7.44851074 C19.1289161,4.16755371 21.2502077,3.31798096 21.2831756,0.764868164 C22.573029,3.10847168 19.7578993,4.79377441 20.2148012,7.9010376 C21.1411436,4.47374268 23.4009002,4.05021973 23.6675614,1.74594727 C24.4496019,4.45715332 21.369,5.71750488 21.5491882,8.72226562 C22.4667752,5.67520752 25.2913088,5.31782227 25.8687325,3.06705322 C26.2251095,5.93525391 23.4474875,6.44447021 22.665447,9.61325684 C24.1259766,7.0270752 26.6802819,6.8149292 27.8303733,4.76938477 C27.740117,7.60561523 24.6044967,7.97739258 23.6420518,10.6331177 C25.4498787,8.37982178 27.7161208,8.77093506 29.5238395,6.77307129 C29.3330584,9.33277588 26.1413387,9.18808594 24.442576,11.838208 C26.4029196,9.99997559 29.3537038,10.5508301 30.8556324,8.96802979 C30.7827788,11.2320923 26.8661989,11.0619141 25.0191349,13.0855957 C27.2971589,11.8172241 30.1812508,12.562207 31.8532069,11.3841431 C31.5477409,13.3691528 27.413249,12.9052002 25.4373401,14.4543823 C28.1624297,13.6869873 30.2665348,14.8729614 32.4742995,14.0154785 C31.399872,15.947644 27.6497527,14.724646 25.6587111,15.9807129 C28.0237486,15.5736694 30.5364388,17.0299072 32.6944814,16.5626587 C31.9851864,18.2326904 27.8757716,16.4618042 25.6588192,17.5006714 C28.3081368,17.4770508 30.0259236,19.1963013 32.4829468,19.0827026 C31.1466141,20.5946411 27.5336627,18.5154785 25.4286928,18.8706665 C27.9969419,19.4105347 29.958907,21.5734131 31.9061716,21.6776733 C30.30815,22.9247314 27.3206147,20.0848755 24.894938,20.4454468 C27.3923873,21.1249512 29.4905474,24.0129272 30.9236218,24.0762085 C29.3796458,25.1486938 26.3279043,21.6082397 24.2370944,21.7340332 C26.7766993,22.9007812 27.9414911,25.8555542 29.6089074,26.2709473 C27.5444718,26.9441895 25.5157063,23.0610718 23.2974568,22.9264893 C25.8668949,24.5736694 26.0120615,27.0922852 27.9904565,28.2135498 C25.9089424,28.7307861 24.4273351,24.3499878 22.2336223,23.9802979 C24.3403216,25.5543091 24.6578938,28.9165649 26.0547576,29.9797119 C23.9354116,30.0935303 23.1695848,25.5067383 20.9974903,24.8515137 C22.85839,26.4313477 22.4128377,29.859082 23.8597477,31.318396 C21.651875,30.8580688 21.9364793,26.8647583 19.6314325,25.5200317 C21.2873911,27.6425903 20.4450357,30.666687 21.5243272,32.3685791 C19.3765532,31.485498 20.3093811,27.9116455 18.2588893,25.8877441 C19.377418,28.1489502 18.1752266,30.7861084 19.0573597,32.9723877 C17.0951784,31.9996582 18.414865,27.766626 16.9110989,26.0876953 C17.6023428,28.7009033 16.327406,30.8634521 16.841272,33.2061768 C14.8352057,30.8412598 17.1457651,28.4612915 15.4057115,26.0513306 C15.8675856,28.8173584 13.964206,30.7421631 14.2635108,33.0574219 C12.6728394,31.1688721 15.1179725,28.1384033 13.8821647,25.7539307 C14.1482855,28.4734863 11.6905057,30.8559814 11.8592362,32.56875 C10.5645187,30.375 13.2966342,27.7805786 12.5650723,25.2863525 C12.4110422,27.8760498 9.93088753,29.2833984 9.46382505,31.6426025 C8.63011691,29.0400513 11.5785231,27.1588623 11.3239681,24.6014648 C10.479667,27.0342773 8.08317497,28.0097534 7.23887388,30.3675293 C6.54763006,27.772229 10.0399516,26.394104 10.1322616,23.6636719 C9.05275387,26.2243652 6.18455141,26.7866455 5.23788787,28.7463867 C4.88453743,26.1645996 8.8922383,25.0102661 9.04140428,22.5638306 C7.75122661,24.9129272 4.61290401,25.0082886 3.52972117,26.8764038 C3.3654224,24.3038452 7.59200814,23.9852417 8.25547249,21.2926025 C6.97113175,23.3006836 3.52820789,23.0401978 2.09578208,24.6727661 C2.32169288,22.2863159 6.89373838,22.1386597 7.62238179,19.9925903 C5.92286239,21.6589966 2.76227299,20.968396 0.982766035,22.2901611 C1.97320655,19.946228 6.26172859,20.4431396 7.23130749,18.7452026 C5.33279202,19.7519897 1.96942336,18.7759644 0.313789023,19.7827515 C1.81841982,17.562854 5.15660322,18.8890137 7.04571474,17.3602661 C3.97289547,17.8154297 2.12691237,16.5725464 0.000108091293,17.1479004 L0,17.1485596 Z" id="Shape" fill="#FFFF00"></path>
                    <path d="M26.3695314,15.9008545 C26.3695314,21.9213623 21.5676839,26.8018188 15.6443891,26.8018188 C9.72098625,26.8018188 4.91935484,21.9212524 4.91935484,15.9008545 C4.91935484,9.88034668 9.72120243,5 15.6443891,5 C21.5677919,5 26.3695314,9.88045654 26.3695314,15.9008545 L26.3695314,15.9008545 Z" id="Shape" fill="#FFFF00"></path>
                    <path d="M25.5359794,16.4772461 C25.5359794,21.7115723 21.3611694,25.9546021 16.2114841,25.9546021 C11.0616906,25.9546021 6.88709677,21.7114624 6.88709677,16.4772461 C6.88709677,11.2430298 11.0617987,7 16.2114841,7 C21.3613856,7 25.5359794,11.2431396 25.5359794,16.4772461 L25.5359794,16.4772461 Z" id="Shape" fill="#BE0027"></path>
                    <path d="M23.8845847,16.1381226 C23.8845847,20.6327393 20.299845,24.2762451 15.8778303,24.2762451 C11.4557074,24.2762451 7.87096774,20.6326294 7.87096774,16.1381226 C7.87096774,11.6436157 11.4558155,8 15.8778303,8 C20.299845,8 23.8845847,11.6436157 23.8845847,16.1381226 L23.8845847,16.1381226 Z" id="Shape" fill="#FFFF00"></path>
                    <path d="M8.87437921,11.0064866 C11.0903588,10.9569383 13.8501457,11.1622728 15.6688898,12.6426805 C17.5992922,11.4172654 19.8849907,10.8507005 22.2127367,11.0702073 L23.4044432,13.2801072 C21.6761715,13.1028978 19.9897311,13.3510789 17.9896098,14.1726365 C20.5402401,16.2266404 21.8155012,18.8758836 21.7319466,22.0986131 C21.4393435,22.4668748 20.9793069,22.8776536 20.6867038,23.2459153 C21.1117188,20.1152513 19.4879713,16.6234666 17.132554,14.7888597 C19.0490126,17.6009202 20.1919699,20.1365648 19.8714793,23.6284593 C19.5299108,23.8339036 19.1256493,24.1242723 18.784297,24.3297166 C19.2858406,21.2486009 18.5753566,17.6361863 16.3381911,15.5325242 C17.6273959,17.4591966 18.9167089,20.9157152 18.1152119,24.4358445 C17.7667256,24.5421922 17.2301604,24.839702 16.8817822,24.9459398 C17.7807775,22.0632371 17.2161086,18.4578538 15.7109373,16.2976121 C14.2197098,18.4722459 13.7317857,21.7939622 14.5819237,24.8610154 C14.1637185,24.7547777 13.8501457,24.6272264 13.4321567,24.5209886 C12.8189548,21.220366 13.6692009,17.4944627 15.1464846,15.5539476 C13.6413133,16.4394456 12.2195885,20.2356614 12.616716,24.1173509 C12.2543939,23.9473924 11.9755184,23.8198411 11.6133045,23.6497728 C11.1254885,20.7527879 12.4145852,16.984807 14.268459,14.8101732 C12.1638134,16.1559984 10.4565115,19.4567308 10.7561405,23.012346 C10.4355418,22.7219774 10.1358046,22.5803636 9.81531392,22.2899949 C9.44596597,19.1874559 11.209043,16.0640428 13.285693,14.1940599 C11.5365597,13.4006273 10.0383063,13.2448411 7.87096774,13.2802171 C8.21242814,12.5647874 8.53302691,11.7220262 8.8744873,11.0065965 L8.87437921,11.0064866 Z" id="Shape" fill="#BE0027"></path>
                </g>
            </g>
        </g>
    </g>
</svg>