<?xml version="1.0" encoding="UTF-8" standalone="no"?>
<svg width="122px" height="60px" viewBox="0 0 122 60" version="1.1" xmlns="http://www.w3.org/2000/svg" xmlns:xlink="http://www.w3.org/1999/xlink">
    <!-- Generator: Sketch 3.8.2 (29753) - http://www.bohemiancoding.com/sketch -->
    <title>fj</title>
    <desc>Created with Sketch.</desc>
    <defs></defs>
    <g id="Page-1" stroke="none" stroke-width="1" fill="none" fill-rule="evenodd">
        <g id="fj">
            <g id="Group">
                <g>
                    <polygon id="Shape" fill="#67B1FF" points="0 0 0 60 122 60 122 0"></polygon>
                    <g id="Shape">
                        <polygon fill="#0000B4" points="0 0 53.92875 0 53.92875 34.645875 0 34.645875"></polygon>
                        <path d="M0,0 L0,3.87375 L47.899375,34.64625 L53.928625,34.64625 L53.928625,30.77275 L6.029125,0 L0,0 L0,0 Z M53.92875,0 L53.92875,3.8735 L6.029125,34.64625 L0,34.64625 L0,30.772875 L47.899375,0 L53.928625,0 L53.92875,0 Z" fill="#FFFFFF"></path>
                        <path d="M22.47025,11.54875 L22.47025,0 L31.458375,0 L31.458375,11.54875 L53.92875,11.54875 L53.92875,23.0975 L31.458375,23.0975 L31.458375,34.64625 L22.47025,34.64625 L22.47025,23.0975 L0,23.0975 L0,11.54875 L22.47025,11.54875 Z" fill="#FFFFFF"></path>
                        <path d="M24.267875,20.787875 L0,20.787875 L0,13.85875 L24.267875,13.85875 L24.267875,0 L29.66075,0 L29.66075,13.85875 L53.92875,13.85875 L53.92875,20.787875 L29.66075,20.787875 L29.66075,34.64625 L24.267875,34.64625 L24.267875,20.787875 Z M0,34.64625 L17.97625,23.0975 L21.995625,23.0975 L4.019375,34.64625 L0,34.64625 L0,34.64625 Z M0,0 L17.97625,11.54875 L13.95675,11.54875 L0,2.5825 L0,0 L0,0 Z M31.932875,11.54875 L49.909125,0 L53.928625,0 L35.9525,11.54875 L31.932875,11.54875 L31.932875,11.54875 Z M53.92875,34.64625 L35.9525,23.0975 L39.971875,23.0975 L53.928625,32.064125 L53.928625,34.646375 L53.92875,34.64625 Z" fill="#CC0000"></path>
                    </g>
                    <g transform="translate(47.250000, 16.500000)">
                        <path d="M1.67875,0.630875 L1.67875,20.53875 C4.2455,34.474125 8.737125,36.465 14.512125,40.4465 C20.287125,36.464875 24.778625,34.474 27.345375,20.538625 L27.345375,0.63075 L1.67875,0.63075 L1.67875,0.630875 Z" id="Shape" fill="#FFFFFF"></path>
                        <polygon id="Shape" fill="#DA0000" points="12.801 0.630875 12.827875 39.317125 14.539125 40.4405 16.25 39.286 16.22325 0.6315 12.801 0.6315"></polygon>
                        <path d="M1.67875,20.74875 L2.9625,26.17125 L26.129375,26.15625 L27.345625,20.74875 L1.679125,20.74875 L1.67875,20.74875 Z M1.67875,0.630875 L27.345375,0.630875 L27.345375,14.56625 L1.67875,14.56625 L1.67875,0.630875 Z" id="Shape" fill="#DA0000"></path>
                        <g transform="translate(1.178750, 1.136250)">
                            <rect id="Rectangle-path" stroke="#000000" stroke-width="0.1" fill="#F6EFEC" x="1.00315" y="5.516" width="1.62575" height="2.7989" rx="0.812875"></rect>
                            <path d="M20.46427,4.73855 C20.46427,4.73855 21.931582,4.613495 22.445172,3.9465 C22.958762,3.27954 22.0967008,2.07064 22.646912,1.94555 C22.8670396,1.924725 23.178828,2.00813 23.4172816,2.341575 C23.3806296,2.0915 23.2338676,1.945585 23.1788896,1.799775 C22.977088,1.591245 22.7753172,1.612105 22.4818856,1.612105 C22.280084,1.653825 22.2434012,1.570385 21.9133176,1.13271 C21.7482296,0.924285 21.7482296,0.40324 21.8765732,0.0489 C21.4914192,0.38238 21.5647848,0.84088 21.6014676,0.94511 C21.6931592,1.40368 21.7848816,1.528735 21.7848816,1.73716 C21.6748332,1.67465 21.4730624,1.13271 20.4275872,1.04934 C19.3820504,0.96597 16.7408272,1.88304 15.5485592,1.88304 C14.3562912,1.88304 12.6321688,1.32031 12.6321688,1.32031 C12.6321688,1.32031 13.0723624,0.924285 12.5404464,0.75751 C12.0085304,0.590805 10.8346808,1.34117 10.5045048,0.924285 C10.2661128,0.528295 10.3577736,0.611665 10.3210908,0.424135 C10.2293992,0.48661 10.1743596,0.736755 10.3027648,1.070235 C10.4311392,1.403715 10.5045048,1.299485 10.4861788,1.299485 C10.467822,1.299485 10.0643112,1.299485 10.0276284,1.46626 C9.9909148,1.59128 9.9358444,1.73716 10.137646,2.19573 C10.2110116,1.73723 9.935906,1.674685 10.541126,1.633 C11.1464692,1.59128 11.568306,1.9039 12.0818652,2.00813 C12.5954552,2.11236 12.5954552,1.75802 12.6137812,1.77888 C12.632138,1.799705 14.1911724,2.2791 15.6218324,2.17487 C17.0524924,2.070675 19.3637244,1.174395 20.4272484,1.361995 C21.4910804,1.549595 22.1880844,2.424945 22.2064104,3.237855 C22.1880844,3.738075 21.729534,3.988185 21.362706,4.071555 C20.9225124,4.154925 19.895394,4.280015 19.895394,4.280015 L20.463962,4.738515 L20.46427,4.73855 Z" id="Shape" stroke="#000000" stroke-width="0.1" fill="#FFFF00"></path>
                            <path d="M18.704785,5.2485 C18.687054,5.2485 17.7303535,5.2783 17.4468955,5.9631 C17.1634375,6.64795 17.0394097,7.3031 17.0571705,7.3031 C17.074842,7.3031 17.6949212,6.7373 17.6949212,6.7373 C17.6949212,6.7373 17.234302,7.8688 17.4823277,8.88115 C17.7303237,9.8935 16.8275302,9.83395 16.3069647,9.86365 C16.0766402,9.56595 15.340893,9.05975 15.0785277,8.97045 C14.9146945,8.8662 14.5930077,8.85275 14.2569517,9.48775 C14.059025,9.87925 14.5511197,9.11925 15.039228,9.17885 C15.0919747,9.26815 15.1259492,9.35755 15.1353205,9.56585 C14.8753055,9.53615 14.6045805,9.02995 14.28572,10.0721 C14.60464,9.7148 14.644505,9.72225 14.8061367,9.6999 C15.0215267,9.67305 14.9938592,9.86365 14.9849342,9.86365 C14.9495317,9.86365 14.8616502,9.8934 14.7286082,10.10185 C14.657714,10.25065 14.4805527,10.5782 14.515985,10.5782 C14.5514172,10.5782 14.657357,10.39955 14.8232132,10.2507 C14.9268622,10.13155 15.025305,10.13155 15.3385427,10.28045 C17.0570515,10.96525 17.9782602,10.4591 18.0845867,10.1911 C18.13775,10.0721 17.0924242,6.70735 19.87396,5.8141 C19.8385575,5.7843 18.7046957,5.2781 18.7046957,5.24835 L18.704785,5.2485 Z" id="Shape" stroke="#000000" stroke-width="0.1" fill="#FFFF00"></path>
                            <path d="M6.8394,8.97 C7.985755,10.3397 15.71855,7.511 16.6982,6.5284 C17.261,5.96265 18.24058,5.5458 18.24058,7.4812 C18.49069,6.17105 18.490725,5.84355 18.490725,5.8733 C18.51155,5.9031 18.886715,6.37955 19.22023,7.98745 C19.3036,6.5581 19.07428,5.72445 19.19937,5.84345 C19.28274,5.72445 19.28274,6.5581 19.9497,7.71935 C19.80382,6.79635 19.7621,6.37945 19.7621,6.37945 C19.7621,6.37945 21.01272,8.10645 21.7214,8.34465 C22.430045,8.58285 23.451345,7.86825 23.764,8.28515 C24.07662,8.702 24.61863,9.44635 24.59763,10.0419 C24.57698,10.6374 23.430485,10.13115 23.30543,10.60755 C23.180375,11.08405 23.3888,11.08405 23.3888,11.08405 C23.3888,11.08405 23.492995,11.4413 23.5764,11.73905 C23.63891,11.53055 23.513855,11.08395 23.74314,11.0542 C23.90988,11.08395 23.90988,11.47105 23.951565,11.6795 C24.000145,11.4413 23.944565,10.9649 24.097445,10.9649 C24.264185,10.91525 24.285045,11.34205 24.410065,11.6199 L24.410065,10.9649 C24.889495,10.7564 25.306205,10.7267 25.368855,10.28005 C25.431155,9.8334 24.639245,8.82105 24.451645,8.16595 C24.264185,7.51095 24.597595,7.24295 24.243325,6.88565 C23.88902,6.52835 22.534205,7.4514 21.90893,7.09415 C21.283585,6.7368 21.53373,4.17605 19.17844,3.61035 C16.823185,3.0446 10.44524,6.58785 9.31964,6.73685 C8.19411,6.88565 6.81854,6.2306 6.81854,6.2306 L6.83933,8.96995 L6.8394,8.97 Z" id="Shape" stroke="#000000" stroke-width="0.1" fill="#FFFF00"></path>
                            <path d="M5.23564216,9.75249345 C5.23564216,9.75249345 4.22853597,7.38343153 3.41027321,7.15787875 C2.59201045,6.96983391 1.79471071,8.06034245 1.62683032,7.90993183 C1.45902039,7.75945807 1.39606084,7.94756606 1.29117524,8.28595837 C1.1862544,8.62441383 1.3121735,8.84996661 1.31213827,8.81239553 C1.35406432,8.81239553 1.45905563,8.24832415 1.50098168,8.21075307 C1.54297821,8.17311884 1.29117524,8.88766398 1.54297821,8.96280615 C1.62690079,9.00044037 1.66886207,8.43636899 1.77374768,8.21075307 C1.79474594,8.24832415 1.60590252,9.00044037 1.71082336,9.03794831 C1.81570897,9.07564568 1.94159284,8.28589523 2.13043626,8.09791353 C2.40320226,7.75945807 2.80181689,7.64661854 3.30542283,7.64668168 C3.80888785,7.90999498 4.83695706,10.0910121 4.94194836,10.0533147 L5.23564216,9.7525566 L5.23564216,9.75249345 Z" id="Shape" stroke="#000000" stroke-width="0.1" fill="#FFFF00" transform="translate(3.242534, 8.594902) rotate(13.207928) translate(-3.242534, -8.594902) "></path>
                            <path d="M5.4009,6.84007 C5.4009,6.84007 4.400425,4.720303 3.58755,4.518485 C2.774675,4.350228 1.982625,5.325983 1.81585,5.1914 C1.649145,5.0567605 1.5866,5.225074 1.482405,5.5278575 C1.378175,5.8306975 1.503265,6.0325155 1.50323,5.998898 C1.54488,5.998898 1.64918,5.4941835 1.69083,5.460566 C1.73255,5.426892 1.482405,6.066246 1.73255,6.133481 C1.81592,6.167155 1.857605,5.6624405 1.9618,5.460566 C1.98266,5.4941835 1.79506,6.167155 1.89929,6.200716 C2.003485,6.2344465 2.12854,5.527801 2.31614,5.3596005 C2.58711,5.0567605 2.9831,4.955795 3.48339,4.9558515 C3.98354,5.1914565 5.00484,7.1429665 5.10914,7.109236 L5.4009,6.8401265 L5.4009,6.84007 Z" id="Shape" stroke="#000000" stroke-width="0.1" fill="#FFFF00"></path>
                            <path d="M4.9011,6.201 L3.79643,6.97515 L4.609305,7.27295 L4.02568,8.22575 L4.85938,7.83865 L4.796905,9.119 L5.2763,8.28535 L5.58892,9.4466 L5.9224,8.5831 L6.318425,9.5359 L6.485165,8.6129 L6.964525,9.5359 L7.131265,8.2854 L7.71489,9.0595 L7.63152,7.74935 L8.340165,8.07685 L7.902455,7.0645 C7.902455,7.0645 8.673645,7.005 8.63196,7.005 C8.590275,7.005 8.04837,6.3499 7.56901,6.17125 L4.901065,6.201 L4.9011,6.201 Z" id="Shape" stroke="#000000" stroke-width="0.1" fill="#FFFF00"></path>
                            <path d="M5.520705,5.81207 L4.9131365,6.2533355 L5.36021775,6.4230815 L5.039224,6.9661775 L5.497759,6.7455305 L5.46339775,7.47533 L5.727065,7.0001495 L5.899006,7.662062 L6.08242,7.169867 L6.30023375,7.712963 L6.39194075,7.186853 L6.65558875,7.712963 L6.74729575,7.000178 L7.0682895,7.441415 L7.022436,6.6946295 L7.41219075,6.8813045 L7.17145025,6.304265 C7.17145025,6.304265 7.59560475,6.27035 7.572678,6.27035 C7.54975125,6.27035 7.2517035,5.896943 6.9880555,5.7951125 L5.52068575,5.81207 L5.520705,5.81207 Z" id="Shape" stroke="#000000" stroke-width="0.1" fill="#FFFF00"></path>
                            <path d="M5.7971,3.7595 C5.7971,3.7595 5.48455,3.4022 5.35946,3.7595 C5.23437,4.11685 5.63036,3.968 5.63036,4.0275 C5.63036,4.087 5.35946,4.5039 5.35946,4.98035 C5.35946,5.45675 5.567885,6.2607 5.567885,6.37985 C5.567885,6.499 5.65129,6.82635 5.943085,6.9455 C6.23488,7.06465 6.33911,6.5585 6.401585,6.4989 C6.464165,6.4394 6.86019,6.5882 7.006035,6.08205 C7.151985,5.5759 7.151985,4.65285 7.151985,4.65285 C7.151985,4.65285 7.402095,4.92085 7.402095,4.38485 C7.402095,3.84885 7.131125,4.38485 7.131125,4.38485 C7.131125,4.38485 7.172775,3.81915 6.526675,3.55115 C5.880575,3.28315 5.81803,3.81915 5.79717,3.75955 L5.7971,3.7595 Z" id="Shape" stroke="#000000" stroke-width="0.1" fill="#FFFF00"></path>
                            <path d="M5.71730668,3.48356109 C5.63898696,3.14076761 5.41653263,1.82747162 5.41653263,1.82747162 L5.94979779,2.32046361 C5.76781961,2.22288784 5.61249647,2.16564907 5.63210931,2.16564907 C5.65172215,2.16564907 5.86729882,2.80010461 5.86729882,2.80010461 C6.07955185,2.77354469 6.2919036,2.92608672 6.55318872,3.04887311 C6.55318872,3.04887311 6.76873249,2.53138066 6.74915256,2.53138066 C6.72953972,2.53138066 6.63157426,2.44672977 6.63157426,2.44672977 L7.12150031,1.96169156 L6.96472924,2.61603155 L6.86673087,2.61603155 L6.67076702,3.09112754 C6.89124691,3.1806075 6.9990188,3.25034506 7.21456257,3.54882465 C7.40565611,3.48917134 7.56733039,3.27527162 7.67019907,3.11349753 C7.49875127,3.01144776 7.42036574,2.931839 7.43994567,2.931839 C7.4595585,2.931839 8.16012512,3.01137674 8.16012512,3.01137674 C8.16012512,3.01137674 7.47268858,3.92868839 7.07111901,4.26480638 C6.69959395,4.03435997 5.75646655,3.61039538 5.71730668,3.48349007 L5.71730668,3.48356109 Z" id="Shape" stroke="#000000" stroke-width="0.1" fill="#FFFF00" transform="translate(6.788329, 3.046139) rotate(-1.218875) translate(-6.788329, -3.046139) "></path>
                            <rect id="Rectangle-path" fill="#000000" transform="translate(6.389386, 3.898026) rotate(25.537434) translate(-6.389386, -3.898026) " x="6.14970678" y="3.74343354" width="0.5" height="0.5" rx="0.25"></rect>
                            <rect id="Rectangle-path" fill="#000000" transform="translate(7.009586, 4.255226) rotate(25.537434) translate(-7.009586, -4.255226) " x="6.76990678" y="4.10063354" width="0.5" height="0.5" rx="0.25"></rect>
                            <rect id="Rectangle-path" fill="#000000" transform="translate(6.090678, 6.263896) rotate(18.615692) translate(-6.090678, -6.263896) " x="5.64295033" y="5.96444232" width="0.895455837" height="0.598907353" rx="0.299453677"></rect>
                            <rect id="Rectangle-path" fill="#000000" transform="translate(6.157027, 6.754795) rotate(20.422333) translate(-6.157027, -6.754795) " x="5.95407622" y="6.62040304" width="0.5" height="0.5" rx="0.25"></rect>
                            <rect id="Rectangle-path" fill="#000000" transform="translate(6.218121, 6.290191) rotate(-70.655671) translate(-6.218121, -6.290191) " x="6.04620197" y="6.18686858" width="0.5" height="0.5" rx="0.25"></rect>
                        </g>
                        <g transform="translate(0.068750, 19.608750)" stroke="#000000">
                            <path d="M9.72746875,13.5461375 C9.96756437,14.600047 9.84499,13.5461375 9.58930187,15.1783415 C9.74724812,14.6920585 9.97276187,14.414246 10.0628519,14.4144682 C10.1985644,14.4144682 10.2659875,14.4144682 10.5366906,14.7269517 C10.2886544,14.1713267 9.860005,14.310233 9.88267187,13.4767955 C9.860005,13.2856605 9.73829687,13.4945755 9.72746875,13.5461375 L9.72746875,13.5461375 Z" id="Shape" stroke-width="0.1" fill="#FF7300"></path>
                            <rect id="Rectangle-path" stroke-width="0.594022306" fill="#B2802E" transform="translate(7.476125, 10.583966) rotate(-34.804012) translate(-7.476125, -10.583966) " x="7.38213327" y="9.15191391" width="0.5" height="2.86410515" rx="0.25"></rect>
                            <path d="M9.2566,10.924667 C9.3424,10.8515467 9.97842,9.19871795 13.00342,9.4417261 C11.28467,10.2682961 10.21899,12.0185148 9.96126,12.0911683 C9.77206,12.1642886 9.35956,11.1919448 9.2566,10.924667 L9.2566,10.924667 Z" id="Shape" stroke-width="0.1" fill="#FFFFFF"></path>
                            <g id="Shape" stroke-width="0.1" fill="#007500">
                                <polygon transform="translate(8.731350, 9.846628) rotate(244.536655) translate(-8.731350, -9.846628) " points="8.70816328 9.38244678 7.52164279 8.94594294 9.94105721 10.7473121 9.47732278 9.90119048"></polygon>
                                <polygon transform="translate(13.657260, 7.479506) rotate(-84.122607) translate(-13.657260, -7.479506) " points="13.5595061 7.09410735 13.0603975 7.12058514 14.2541225 7.86490515 14.0116178 7.41576343 13.5595061 7.09410735"></polygon>
                                <polygon transform="translate(6.885385, 10.193512) rotate(199.064547) translate(-6.885385, -10.193512) " points="5.98911571 9.05984362 6.90714871 10.997291 7.78165429 11.3271806 7.07334434 10.0285673"></polygon>
                                <polygon transform="translate(10.538272, 5.020278) rotate(149.808377) translate(-10.538272, -5.020278) " points="9.77138994 3.64293061 11.3051538 6.39762589 10.7215711 4.86286709 10.4179681 4.23691178 9.77138994 3.64293061"></polygon>
                                <polygon transform="translate(8.505149, 4.788210) rotate(4.085617) translate(-8.505149, -4.788210) " points="8.56931807 4.24913748 6.88065167 3.00468383 10.1296458 6.57173529 9.61494031 5.39992257 8.56931807 4.24913748"></polygon>
                                <polygon transform="translate(7.584724, 11.062803) rotate(23.428693) translate(-7.584724, -11.062803) " points="6.75864985 9.4793273 5.58303993 9.12420952 9.58640757 13.0013971 8.78618361 11.316043 6.75864985 9.4793273"></polygon>
                                <polygon transform="translate(6.819062, 5.429155) rotate(35.320296) translate(-6.819062, -5.429155) " points="7.18032399 5.1683576 3.22855879 1.73570328 10.409565 9.12260622 10.1913332 7.94901906"></polygon>
                                <polygon transform="translate(7.711107, 7.467600) rotate(45.620508) translate(-7.711107, -7.467600) " points="6.0533494 5.31325605 8.90830135 9.62194395 9.36886435 8.84452629 8.14338969 6.94583314 6.0533494 5.31325605"></polygon>
                                <polygon transform="translate(6.171822, 13.535025) rotate(53.646932) translate(-6.171822, -13.535025) " points="4.50723415 11.3728007 7.8364096 15.6972493 7.12149051 13.958484 5.72793182 12.0894236 4.50723415 11.3728007"></polygon>
                                <polygon transform="translate(3.173641, 10.297763) rotate(76.759480) translate(-3.173641, -10.297763) " points="2.44063397 9.30481436 3.90664853 11.2907121 3.8934412 10.6820745 3.2246696 9.87171688 2.44063397 9.30481436"></polygon>
                                <polygon transform="translate(3.026929, 7.401060) rotate(229.398705) translate(-3.026929, -7.401060) " points="2.27905659 6.56917984 2.75355197 7.6783533 3.77480091 8.23294004 3.34125183 7.35289161 2.27905659 6.56917984"></polygon>
                                <polygon transform="translate(6.877974, 6.021935) rotate(235.591528) translate(-6.877974, -6.021935) " points="6.47466339 5.61236712 6.47466339 6.27733999 7.28128411 6.43150326 7.05985881 5.98972197"></polygon>
                                <polygon transform="translate(4.767692, 3.862356) rotate(198.434949) translate(-4.767692, -3.862356) " points="4.36409891 3.30574755 4.36409891 4.20945412 5.17128609 4.41896395 4.9497053 3.81857758"></polygon>
                                <polygon transform="translate(8.490079, 10.072227) rotate(11.309932) translate(-8.490079, -10.072227) " points="8.16469119 9.58774489 8.16469119 10.3743481 8.81546631 10.5567094 8.63682216 10.0341218"></polygon>
                                <polygon transform="translate(6.093859, 6.522212) rotate(68.039436) translate(-6.093859, -6.522212) " points="5.37321013 5.65748567 6.81450862 7.38693833 5.87876763 6.13570899 5.81534315 5.95683156"></polygon>
                                <polygon transform="translate(9.998412, 10.035524) rotate(40.079384) translate(-9.998412, -10.035524) " points="8.38486291 7.78357581 11.6119621 12.2874724 10.3388052 10.2166368 9.80242885 8.90442414 8.38486291 7.78357581"></polygon>
                                <polygon transform="translate(3.729568, 9.947458) rotate(22.340648) translate(-3.729568, -9.947458) " points="4.7735349 11.1299566 1.64163271 7.58105006 5.60480207 12.3138651 5.81750229 12.0545327 4.7735349 11.1299566"></polygon>
                                <polygon transform="translate(7.122298, 8.963446) rotate(243.749758) translate(-7.122298, -8.963446) " points="6.751293 8.57027022 6.751293 9.20862814 7.493302 9.35662116 7.28961325 8.93252177"></polygon>
                            </g>
                            <path d="M13.0641813,10.5336975 C12.5964063,10.770616 12.3672831,10.8832968 12.1307969,10.929747 C12.25135,11.0090903 12.5191656,10.960862 12.8248075,11.0875445 C12.5525163,11.096879 12.0489363,11.4164745 11.8394481,11.4244755 C11.9842563,11.55827 12.5006856,11.429365 12.5956844,11.4644805 C12.319495,11.490706 11.8752531,11.8200805 11.5983419,11.8200805 C11.4715806,11.968988 12.2422544,11.7178455 12.5515056,11.9994363 C12.2315706,11.9740998 11.6101806,12.2572463 11.2737869,12.1890155 C11.5303413,12.4206 11.9887319,12.1641235 12.3710369,12.4150438 C12.2603013,12.4337128 11.3734056,12.5866208 11.0592456,12.513945 C11.2469331,12.6584075 11.8125944,12.6346268 11.9514831,12.762865 C11.7175956,12.7161925 11.0957725,12.9162175 10.8794988,12.836652 C11.0741163,13.052679 11.6610006,12.930886 11.7688488,13.0611245 C11.3852444,13.2667058 10.8039906,13.102463 10.5366081,13.1582478 C10.7159219,13.2871528 10.8639063,13.4176135 11.0225744,13.5382953 C11.2542963,13.788771 11.9768931,14.4926368 12.4085744,14.7039965 C11.9306931,14.6077623 11.7640844,14.595094 11.4552663,14.5562003 L12.1579394,15.7030103 C11.8648581,15.4596465 11.3479956,15.0002558 11.0046719,14.7628928 C10.2446819,14.1901545 9.69692313,14.2895003 9.17053188,13.8043285 C8.43104313,12.700635 8.02044063,11.3851373 7.98348063,11.0342045 C7.94637625,10.683494 7.91418063,10.0547488 7.23951625,10.3823453 C7.8906475,10.2534403 8.16423813,9.09507325 8.2152025,9.1415235 C8.2383025,9.161526 8.29865125,9.91562025 8.45168875,10.2201028 C8.5536175,10.4385745 9.420445,11.1864458 9.5642425,11.2262285 C10.8553881,10.045192 11.9026844,9.90006275 13.0638925,10.5334753 L13.0641813,10.5336975 Z" id="Shape" stroke-width="0.1" fill="#FFFFFF"></path>
                        </g>
                        <g transform="translate(17.122500, 27.070000)" stroke="#000000">
                            <rect id="Rectangle-path" stroke-width="0.5" fill="#E4CC00" transform="translate(2.954353, 4.846848) rotate(44.690000) translate(-2.954353, -4.846848) " x="2.76309086" y="3.96364266" width="0.5" height="1.76641125" rx="0.25"></rect>
                            <path d="M0.14025,7.35568125 C0.111375,7.1694675 0.0924,7.0754875 0.1738,6.83133 C0.2926,6.65940375 0.3548875,6.50700375 0.5715875,6.329045 C0.8067125,6.23966875 0.8859125,6.32031375 1.1941875,5.9902725 C1.2931875,5.772785 1.4444375,5.60847875 1.530375,5.374005 C1.731125,5.02840625 1.7985,4.85775 1.959375,4.59184375 C2.1725,4.31561875 2.344375,4.06765125 2.469225,3.85587875 C2.6026,3.58441625 2.722225,3.41645875 2.9154125,3.19325625 C2.9937875,2.93862125 3.1615375,2.74970875 3.3616,2.53095125 C3.5146375,2.2082125 3.8080625,1.83880125 3.9353875,1.574165 C4.1611625,1.275715 4.2494375,1.14601625 4.4455125,0.8382 C4.6179375,0.70691375 4.9088875,0.41862375 5.1467625,0.323215 C5.4709875,0.1660525 5.6445125,0.0104775 5.8579125,0.249555 C5.999125,0.41259125 6.25295,0.675005 6.0765375,0.86868 C5.983725,0.987425 5.8317875,1.00203 5.6566125,0.91201875 C5.4764875,0.77739875 5.3890375,0.3857625 5.1464875,0.69135625 C4.97145,0.92217875 4.8816625,1.1064875 4.6366375,1.35334375 C4.5148125,1.5605125 4.42695,1.71529375 4.3179125,2.01596625 C4.1738125,2.20773625 4.0547375,2.4234775 3.9356625,2.7517725 C3.780975,2.8990925 3.6477375,3.19151 3.553,3.4140775 C3.3999625,3.59918 3.28955,3.7893625 3.1703375,4.07654125 C2.9297125,4.342765 2.83965,4.5678725 2.6602125,4.73884625 C2.5419625,5.02777125 2.3555125,5.30367875 2.2141625,5.47481125 C2.1025125,5.68436125 1.9916875,5.9026425 1.8954375,6.137275 C1.692625,6.3763525 1.6836875,6.4277875 1.3853125,6.79973875 C1.137125,7.173595 1.220725,7.12835125 0.831875,7.56173875 C0.619025,7.64270125 0.4052125,7.6704825 0.14025,7.35568125 L0.14025,7.35568125 Z" id="Shape" stroke-width="0.1" fill="#006000"></path>
                            <rect id="Rectangle-path" stroke-width="0.5" fill="#E4CC00" transform="translate(1.593937, 3.773183) rotate(22.170000) translate(-1.593937, -3.773183) " x="1.40267451" y="2.88997743" width="0.5" height="1.76641125" rx="0.25"></rect>
                            <rect id="Rectangle-path" stroke-width="0.5" fill="#E4CC00" transform="translate(1.836675, 3.963630) rotate(24.030000) translate(-1.836675, -3.963630) " x="1.64541298" y="3.08042471" width="0.5" height="1.76641125" rx="0.25"></rect>
                            <rect id="Rectangle-path" stroke-width="0.5" fill="#E4CC00" transform="translate(2.284742, 4.378122) rotate(35.850000) translate(-2.284742, -4.378122) " x="2.09347983" y="3.4949168" width="0.5" height="1.76641125" rx="0.25"></rect>
                            <rect id="Rectangle-path" stroke-width="0.5" fill="#E4CC00" transform="translate(3.374206, 5.138280) rotate(49.530000) translate(-3.374206, -5.138280) " x="3.18294374" y="4.25507404" width="0.5" height="1.76641125" rx="0.25"></rect>
                            <rect id="Rectangle-path" stroke-width="0.5" fill="#E4CC00" transform="translate(3.198745, 5.027226) rotate(45.460000) translate(-3.198745, -5.027226) " x="3.00748293" y="4.14402066" width="0.5" height="1.76641125" rx="0.25"></rect>
                            <rect id="Rectangle-path" stroke-width="0.5" fill="#E4CC00" transform="translate(2.671529, 4.757584) rotate(35.850000) translate(-2.671529, -4.757584) " x="2.48026626" y="3.87437827" width="0.5" height="1.76641125" rx="0.25"></rect>
                            <rect id="Rectangle-path" stroke-width="0.5" fill="#E4CC00" transform="translate(2.494522, 4.533538) rotate(35.850000) translate(-2.494522, -4.533538) " x="2.30325911" y="3.65033286" width="0.5" height="1.76641125" rx="0.25"></rect>
                            <g transform="translate(3.921846, 2.266866) rotate(35.850000) translate(-3.921846, -2.266866) translate(2.340596, 1.234991)" id="Rectangle-path" stroke-width="0.5" fill="#E4CC00">
                                <rect x="0.108625" y="0.2270125" width="0.5" height="1.76641125" rx="0.25"></rect>
                                <rect x="0.391875" y="0.20955" width="0.5" height="1.76641125" rx="0.25"></rect>
                                <rect x="0.6875" y="0.212725" width="0.5" height="1.76641125" rx="0.25"></rect>
                                <rect x="1.00375" y="0.206375" width="0.5" height="1.76641125" rx="0.25"></rect>
                                <rect x="1.258125" y="0.231775" width="0.5" height="1.76641125" rx="0.25"></rect>
                                <rect x="2.728" y="0.0396875" width="0.5" height="1.76641125" rx="0.25"></rect>
                                <rect x="2.525875" y="0.10795" width="0.5" height="1.76641125" rx="0.25"></rect>
                                <rect x="2.32925" y="0.142875" width="0.5" height="1.76641125" rx="0.25"></rect>
                                <rect x="2.039125" y="0.155575" width="0.5" height="1.76641125" rx="0.25"></rect>
                                <rect x="1.7545" y="0.20955" width="0.5" height="1.76641125" rx="0.25"></rect>
                                <rect x="1.507" y="0.2159" width="0.5" height="1.76641125" rx="0.25"></rect>
                            </g>
                            <rect id="Rectangle-path" stroke-width="0.5" fill="#E4CC00" transform="translate(2.042431, 4.173464) rotate(28.470000) translate(-2.042431, -4.173464) " x="1.85116878" y="3.29025823" width="0.5" height="1.76641125" rx="0.25"></rect>
                            <g transform="translate(3.146034, 3.359506) rotate(35.850000) translate(-3.146034, -3.359506) translate(1.564784, 2.327631)" id="Rectangle-path" stroke-width="0.5" fill="#E4CC00">
                                <rect x="0.108625" y="0.2270125" width="0.5" height="1.76641125" rx="0.25"></rect>
                                <rect x="0.391875" y="0.20955" width="0.5" height="1.76641125" rx="0.25"></rect>
                                <rect x="0.6875" y="0.212725" width="0.5" height="1.76641125" rx="0.25"></rect>
                                <rect x="1.00375" y="0.206375" width="0.5" height="1.76641125" rx="0.25"></rect>
                                <rect x="1.258125" y="0.231775" width="0.5" height="1.76641125" rx="0.25"></rect>
                                <rect x="2.728" y="0.0396875" width="0.5" height="1.76641125" rx="0.25"></rect>
                                <rect x="2.525875" y="0.10795" width="0.5" height="1.76641125" rx="0.25"></rect>
                                <rect x="2.32925" y="0.142875" width="0.5" height="1.76641125" rx="0.25"></rect>
                                <rect x="2.039125" y="0.155575" width="0.5" height="1.76641125" rx="0.25"></rect>
                                <rect x="1.7545" y="0.20955" width="0.5" height="1.76641125" rx="0.25"></rect>
                                <rect x="1.507" y="0.2159" width="0.5" height="1.76641125" rx="0.25"></rect>
                            </g>
                        </g>
                        <g transform="translate(1.586250, 13.500000)" stroke="#000000">
                            <rect id="Rectangle-path" stroke-width="0.5" fill="#B2802E" transform="translate(7.224479, 5.361675) rotate(18.820000) translate(-7.224479, -5.361675) " x="7.03473861" y="3.62301883" width="0.5" height="3.4773125" rx="0.25"></rect>
                            <rect id="Rectangle-path" stroke-width="0.5" fill="#B2802E" x="5.5633" y="3.412625" width="0.5" height="3.4773125" rx="0.25"></rect>
                            <rect id="Rectangle-path" stroke-width="0.5" fill="#B2802E" x="2.983525" y="3.3465" width="0.5" height="3.4773125" rx="0.25"></rect>
                            <g transform="translate(2.120000, 0.575000)" id="Shape" stroke-width="0.1" fill="#004500">
                                <path d="M1.99523373,2.49982432 C2.02434637,1.98104034 2.39737627,1.82142265 3.00447175,2.05285241 C3.05561295,2.0848395 3.09957302,1.98909007 3.08482262,1.98104034 C2.11216948,1.42243137 1.67848826,-0.0803262981 3.23620833,0.19103437 C3.47007983,0.270896175 3.02543285,0.418121517 2.70150626,0.483366705 C2.26287589,0.543951523 2.53634058,1.20678332 3.40661428,1.82142265 C3.59681683,1.98114625 4.02089088,2.30832545 4.02089088,2.30832545 C4.02089088,2.30832545 3.86727321,2.60362348 3.85261985,2.60362348 C3.83806354,2.60362348 2.66802673,2.14076395 2.39019515,2.53975522 C2.21454892,2.8589906 2.45686308,2.9049588 2.39834669,3.3839178 C2.29596725,3.79890261 2.24482606,3.75102789 2.22270045,3.37597398 C2.29887852,3.11478139 1.99513669,2.70742264 1.99523373,2.49982432 L1.99523373,2.49982432 Z" transform="translate(3.008062, 1.917573) rotate(55.007980) translate(-3.008062, -1.917573) "></path>
                                <path d="M2.04322179,3.05485106 C2.07212745,2.54226762 2.44250527,2.38455769 3.04528459,2.61322139 C3.0960622,2.64482617 3.13970974,2.55022114 3.12506421,2.54226762 C2.15932618,1.99033519 2.52796967,0.535782882 4.07451871,0.80400488 C4.3067275,0.88280752 4.26192373,0.972493924 3.94039646,1.03706395 C3.50488455,1.09671535 2.58048161,1.77726457 3.44456808,2.38445304 C3.63341837,2.54226762 4.05447746,2.86553635 4.05447746,2.86553635 C4.05447746,2.86553635 3.90195193,3.15730495 3.88740275,3.15730495 C3.87294992,3.15730495 2.71123154,2.69997755 2.43537521,3.09420005 C2.26097774,3.40961991 2.54088086,3.70295829 2.48278049,4.17629738 C2.38112893,4.58621762 2.33035132,4.53891511 2.30838302,4.16834386 C2.31570579,4.10534361 2.04312544,3.25996815 2.04322179,3.05485106 L2.04322179,3.05485106 Z" transform="translate(3.131875, 2.618346) rotate(58.495733) translate(-3.131875, -2.618346) "></path>
                                <path d="M2.0725033,3.13691429 C2.10147993,2.63562575 2.47276718,2.48139099 3.07702655,2.70501604 C3.12792883,2.73592439 3.17168355,2.64340401 3.15700205,2.63562575 C2.18889277,2.09585527 2.90200769,1.41515497 4.31510145,1.70428117 C4.46829125,1.72475028 4.11265138,1.92565461 3.79033464,1.98880182 C3.35375339,2.04713879 2.61098571,1.88747972 3.47738702,2.48139099 C3.66650784,2.63572809 4.08860078,2.95187352 4.08860078,2.95187352 C4.08860078,2.95187352 3.93579734,3.23721294 3.92121243,3.23721294 C3.90672412,3.23721294 2.74215327,2.78996285 2.46561961,3.17549857 C2.29079393,3.48396808 3.14850224,4.14164064 3.09025921,4.60424256 C2.98835805,5.00543715 2.93745577,4.95907461 2.91543353,4.59666899 C2.92277428,4.53495462 2.07240671,3.33751159 2.0725033,3.13691429 L2.0725033,3.13691429 Z" transform="translate(3.212155, 3.261273) rotate(63.083445) translate(-3.212155, -3.261273) "></path>
                            </g>
                            <g transform="translate(0.000000, 1.006250)" id="Shape" stroke-width="0.1" fill="#004500">
                                <path d="M1.86075425,2.39527809 C1.89009665,1.87425334 2.26607051,1.71394621 2.87795723,1.94637559 C2.92950203,1.97850084 2.97380905,1.88233784 2.95894223,1.87425334 C1.97861287,1.31323159 1.9618877,0.129703339 3.53180356,0.402236089 C3.76752079,0.482336464 3.32689585,0.632431589 3.00051062,0.697958589 C2.55841856,0.758805089 2.40613154,1.09686484 3.28317568,1.71383984 C3.47487932,1.87446609 3.90230018,2.20295209 3.90230018,2.20295209 C3.90230018,2.20295209 3.74756796,2.49952559 3.73279896,2.49952559 C3.71812776,2.49952559 2.53885697,2.03466684 2.25883272,2.43538146 C2.08180028,2.75599571 2.08923369,2.77205834 2.03025548,3.25308609 C1.92706806,3.66986334 1.87552326,3.62178184 1.85322304,3.24510796 C1.86065644,3.18085746 1.86065644,2.60366671 1.86075425,2.39517171 L1.86075425,2.39527809 Z" transform="translate(2.877762, 1.954544) rotate(54.372093) translate(-2.877762, -1.954544) "></path>
                                <path d="M2.99246091,2.6159653 C3.02178984,2.10338186 3.39759117,1.94567193 4.00919709,2.17433563 C4.06071824,2.20594041 4.10500492,2.11133538 4.09014493,2.10338186 C3.11026544,1.55144943 3.09354795,0.387095954 4.66274337,0.655213301 C4.89835242,0.73401594 4.45792969,0.881679319 4.13169424,0.946144692 C3.68980506,1.0060054 3.53758792,1.33858812 4.41422958,1.94556728 C4.60584525,2.10359116 5.03306997,2.42675524 5.03306997,2.42675524 C5.03306997,2.42675524 4.87840875,2.71852385 4.86364653,2.71852385 C4.84898206,2.71852385 3.67025244,2.26119644 3.3903567,2.65541894 C3.2134055,2.9708388 3.2208355,2.98664119 3.16188435,3.45987564 C3.05874429,3.86990052 3.00722314,3.82259801 2.98493315,3.45202677 C2.99236315,3.38881721 2.99236315,2.82097774 2.99246091,2.61586065 L2.99246091,2.6159653 Z" transform="translate(4.009002, 2.182372) rotate(57.171458) translate(-4.009002, -2.182372) "></path>
                                <path d="M2.62806482,3.37190534 C2.65722355,2.86928351 3.0308441,2.71463853 3.63890085,2.93885836 C3.69012302,2.96984892 3.73415271,2.87708246 3.71937895,2.86928351 C2.74518573,2.3280774 2.72856525,1.18635212 4.28865459,1.44925884 C4.5228964,1.52653002 4.08502945,1.67132369 3.76068715,1.73453624 C3.32136226,1.7932336 3.17002845,2.11935286 4.04158294,2.71453592 C4.23208665,2.86948875 4.65683217,3.18637241 4.65683217,3.18637241 C4.65683217,3.18637241 4.50306846,3.47247075 4.4883919,3.47247075 C4.47381254,3.47247075 3.30192311,3.0240311 3.02365161,3.41059224 C2.84772727,3.71988219 2.85511415,3.73537747 2.79650509,4.19941502 C2.69396356,4.60147143 2.64274138,4.5550882 2.62058075,4.19171868 C2.62796763,4.12973755 2.62796763,3.57293354 2.62806482,3.37180272 L2.62806482,3.37190534 Z" transform="translate(3.638706, 2.946739) rotate(62.386972) translate(-3.638706, -2.946739) "></path>
                            </g>
                            <g transform="translate(4.902500, 0.000000)" id="Shape" stroke-width="0.1" fill="#004500">
                                <path d="M2.61839646,2.12536006 C2.64733489,1.61118332 3.01813273,1.45298316 3.6215956,1.68235764 C3.67243079,1.71406065 3.71612783,1.61916156 3.70146568,1.61118332 C2.73463251,1.05753527 2.30354626,-0.431876648 3.85194556,-0.162925892 C4.08441766,-0.083773327 3.64243127,0.0621445309 3.32044293,0.126810287 C2.88443715,0.18685706 3.15626553,0.843802351 4.02133187,1.45298316 C4.21039633,1.61128829 4.63193289,1.93556186 4.63193289,1.93556186 C4.63193289,1.93556186 4.4792344,2.22823739 4.46466872,2.22823739 C4.45019951,2.22823739 3.28716373,1.76948845 3.01099458,2.16493634 C2.83639935,2.48133664 3.0772636,2.52689661 3.01909734,3.00160204 C2.91733051,3.41290144 2.86649532,3.36545189 2.84450211,2.99372877 C2.92022435,2.7348558 2.61829999,2.33111473 2.61839646,2.12536006 L2.61839646,2.12536006 Z" transform="translate(3.625165, 1.548280) rotate(74.054604) translate(-3.625165, -1.548280) "></path>
                                <path d="M1.89795565,3.80001263 C1.92719015,3.29131246 2.3017815,3.13479731 2.91141821,3.36172869 C2.96277348,3.39309403 3.00691757,3.29920572 2.99210542,3.29131246 C2.01538088,2.74356139 2.38821817,1.30002858 3.9523612,1.56621856 C4.18721165,1.64442421 4.14189818,1.73343116 3.81671313,1.79751201 C3.37624671,1.8567115 2.4413275,2.53210497 3.31524406,3.13469346 C3.50624277,3.29131246 3.93209194,3.61213214 3.93209194,3.61213214 C3.93209194,3.61213214 3.77783125,3.90169035 3.76311655,3.90169035 C3.7484993,3.90169035 2.57356488,3.4478276 2.29457033,3.83906352 C2.11818886,4.1520938 2.40127624,4.44320989 2.3425149,4.91296303 C2.23970692,5.31977776 2.18835166,5.27283361 2.16613344,4.90506976 C2.17353951,4.84254679 1.89785821,4.00357579 1.89795565,3.80001263 L1.89795565,3.80001263 Z" transform="translate(2.998994, 3.366814) rotate(78.231711) translate(-2.998994, -3.366814) "></path>
                                <path d="M1.68583591,3.92433693 C1.7151244,3.41040128 2.09040765,3.25227531 2.7011704,3.48154223 C2.75262052,3.51323038 2.79684615,3.41837578 2.78200664,3.41040128 C1.80347803,2.85701283 2.52426789,2.15913901 3.95257015,2.45555963 C4.10740866,2.47654516 3.7479412,2.68251815 3.42215551,2.74725851 C2.98087552,2.80706727 2.23011377,2.64338013 3.10583977,3.25227531 C3.29699601,3.41050621 3.72363175,3.73462773 3.72363175,3.73462773 C3.72363175,3.73462773 3.56918376,4.02716603 3.55444188,4.02716603 C3.53979763,4.02716603 2.36269302,3.56863218 2.08318316,3.96389465 C1.9064759,4.2801466 2.77341535,4.9544117 2.71454548,5.4286847 C2.6115476,5.8400011 2.56009748,5.79246887 2.53783822,5.42092005 C2.54525798,5.35764868 1.68573828,4.12999513 1.68583591,3.92433693 L1.68583591,3.92433693 Z" transform="translate(2.837753, 4.051833) rotate(82.199812) translate(-2.837753, -4.051833) "></path>
                            </g>
                        </g>
                        <g transform="translate(8.868750, 0.082500)" stroke="#000000">
                            <rect id="Rectangle-path" stroke-width="0.5" fill="#B2802E" x="12.281875" y="16.5877875" width="0.5" height="3.8401625" rx="0.25"></rect>
                            <g id="Shape" stroke-width="0.1" fill="#007500">
                                <polygon transform="translate(11.570257, 14.520140) rotate(-23.661232) translate(-11.570257, -14.520140) " points="11.5086558 13.0317104 8.35634744 11.6320286 14.7841676 17.4082518 13.5521333 14.6951004"></polygon>
                                <polygon transform="translate(6.284620, 21.073936) rotate(-6.018535) translate(-6.284620, -21.073936) " points="5.83454922 19.064979 3.5365917 19.2029989 9.0326483 23.082892 7.91612657 20.7416653 5.83454922 19.064979"></polygon>
                                <polygon transform="translate(12.272855, 26.151586) rotate(218.955908) translate(-12.272855, -26.151586) " points="10.3905251 24.0565421 12.3185628 27.6369866 14.1551849 28.2466299 12.6676041 25.8467644"></polygon>
                                <polygon transform="translate(8.701169, 21.428988) rotate(188.259438) translate(-8.701169, -21.428988) " points="4.92592973 15.7366104 12.4764078 27.1213653 9.60352194 20.7784304 8.10893217 18.1914481 4.92592973 15.7366104"></polygon>
                                <polygon transform="translate(14.478499, 17.278858) rotate(22.833654) translate(-14.478499, -17.278858) " points="14.6804671 15.871762 9.36552628 12.6234659 19.5914725 21.9342501 17.9714785 18.8755627 14.6804671 15.871762"></polygon>
                                <polygon transform="translate(13.278812, 19.681000) rotate(46.777103) translate(-13.278812, -19.681000) " points="11.780963 17.0847645 9.64933045 16.5025206 16.9082933 22.8594784 15.4573159 20.0962062 11.780963 17.0847645"></polygon>
                                <polygon transform="translate(13.623476, 11.697573) rotate(83.125182) translate(-13.623476, -11.697573) " points="14.1019099 11.3568632 8.86843145 6.8723842 18.378521 16.5227621 18.0895081 14.9895675"></polygon>
                                <polygon transform="translate(10.785511, 17.376958) rotate(122.109519) translate(-10.785511, -17.376958) " points="8.31761346 13.9148316 12.5677694 20.8390835 13.2534078 19.589739 11.4290484 16.5384552 8.31761346 13.9148316"></polygon>
                                <polygon transform="translate(21.940562, 6.076950) rotate(142.373766) translate(-21.940562, -6.076950) " points="18.6906043 1.30772897 25.1905207 10.846171 23.7947053 7.01097407 21.073907 2.88838508 18.6906043 1.30772897"></polygon>
                                <polygon transform="translate(10.276960, 14.693178) rotate(166.141280) translate(-10.276960, -14.693178) " points="7.64855532 10.3048412 12.9053647 19.0815142 12.858006 16.3916407 10.4599366 12.8102662 7.64855532 10.3048412"></polygon>
                                <polygon transform="translate(11.708246, 22.449695) rotate(-46.496699) translate(-11.708246, -22.449695) " points="10.4368533 20.8858865 11.2435016 22.9709642 12.979638 24.013503 12.2425989 22.3591456 10.4368533 20.8858865"></polygon>
                                <polygon transform="translate(14.286254, 12.473369) rotate(-34.734860) translate(-14.286254, -12.473369) " points="13.4542742 11.4522752 13.4542742 13.1101177 15.1182333 13.4944618 14.6614602 12.3930578"></polygon>
                                <polygon transform="translate(21.409015, 20.481996) rotate(217.586804) translate(-21.409015, -20.481996) " points="20.5346982 19.482144 20.5346982 21.1054999 22.2833318 21.4818489 21.8033147 20.4033564"></polygon>
                                <polygon transform="translate(5.823431, 14.917515) rotate(28.421209) translate(-5.823431, -14.917515) " points="4.94235618 13.8137497 4.94235618 15.6058185 6.70450632 16.0212808 6.22077883 14.8307022"></polygon>
                                <polygon transform="translate(3.948137, 20.280995) rotate(160.091530) translate(-3.948137, -20.280995) " points="1.82707833 17.1800976 6.06919667 23.3818927 3.31506627 18.8950003 3.12839142 18.2535481"></polygon>
                                <polygon transform="translate(9.088437, 15.915338) rotate(102.179181) translate(-9.088437, -15.915338) " points="6.94743028 12.84425 11.2294447 18.9864268 9.54010204 16.1623303 8.82838822 14.3728038 6.94743028 12.84425"></polygon>
                                <polygon transform="translate(12.435916, 8.443151) rotate(44.593654) translate(-12.435916, -8.443151) " points="14.4141794 10.4525293 8.47938991 4.42199786 15.9893869 12.4643031 16.3924426 12.0236289 14.4141794 10.4525293"></polygon>
                                <polygon transform="translate(16.579327, 18.172906) rotate(-24.179107) translate(-16.579327, -18.172906) " points="15.6000199 16.9163781 15.6000199 18.9564715 17.5586351 19.4294344 17.020976 18.0740782"></polygon>
                            </g>
                        </g>
                    </g>
                </g>
            </g>
        </g>
    </g>
</svg>