<?xml version="1.0" encoding="UTF-8" standalone="no"?>
<svg width="122px" height="60px" viewBox="0 0 122 60" version="1.1" xmlns="http://www.w3.org/2000/svg" xmlns:xlink="http://www.w3.org/1999/xlink">
    <!-- Generator: Sketch 3.8.2 (29753) - http://www.bohemiancoding.com/sketch -->
    <title>er</title>
    <desc>Created with Sketch.</desc>
    <defs></defs>
    <g id="Page-1" stroke="none" stroke-width="1" fill="none" fill-rule="evenodd">
        <g id="er">
            <g id="Group">
                <g>
                    <polygon id="Shape" fill="#BE0027" points="0.12475 0 80.12575 0 80.12575 60 0.12475 60"></polygon>
                    <polygon id="Shape" fill="#B4D7F4" points="122.000002 60 122.000002 30 80.12175 30 0.12475 60"></polygon>
                    <polygon id="Shape" fill="#239E46" points="80.12575 0.0375 122.000002 0 122.000002 30 80.12175 30 0.12475 0"></polygon>
                    <path d="M23.40375,45.05 C22.064625,45.41975 21.297,46.45875 21.316625,47.43875 L27.907875,47.4125 C27.96725,46.359125 27.10075,45.385 25.781625,45.00125 C32.235,44.868125 37.841375,42.45075 38.860375,40.899625 C37.852125,40.462125 36.686375,41.166375 35.855375,41.00425 C37.828375,40.092375 43.7395,36.266375 42.778375,32.164625 C42.031375,34.442875 39.768375,36.327875 38.804625,36.833875 C41.012625,33.481125 44.02775,29.990375 41.411875,27.28725 C41.544,28.853875 40.41625,30.578125 39.918125,30.70775 C41.199125,27.16525 42.42125,22.717125 39.646,19.784875 C40.0105,20.844875 39.86325,23.834375 39.3615,23.968625 C39.207,21.559875 38.795875,16.49275 36.259,16.564875 C37.064625,17.282125 37.41725,19.239875 37.43525,21.217375 C36.857,19.862625 36.199875,18.842625 34.7945,17.842375 C33.657625,15.661875 31.6345,13.85525 29.6115,12.561125 C29.838625,14.148125 30.0265,15.40025 32.2425,17.046375 C31.087125,16.974375 29.932,14.784125 28.69725,14.7235 C27.715125,14.676 26.94425,15.6135 25.33925,15.074125 C25.517,15.603875 26.26575,15.8385 26.42375,16.230375 C26.08,16.467875 25.26375,16.193375 24.585375,15.84 C25.51875,17.11125 26.964875,17.85875 28.192625,17.60625 C29.652875,17.325625 31.21825,17.474125 32.711375,18.32375 C32.330125,18.519625 30.84575,18.51825 29.89325,18.399125 C30.759125,19.27575 31.33975,19.856625 32.845125,19.847125 C34.18975,19.838375 34.89475,19.129625 35.240125,19.568625 C36.083375,20.56775 36.650875,21.566625 37.356375,22.74325 C35.798,22.915375 36.267875,20.98075 34.53225,19.99125 C33.55725,22.00975 35.653875,24.4025 37.081,25.396875 C37.100375,26.913875 37.32225,28.183125 37.965625,29.338125 C38.399375,30.1525 38.960125,30.986125 38.748625,32.824 C37.89425,32.2015 37.05925,30.103 37.366375,28.437 C36.297,28.728625 35.878875,30.609125 36.383,31.55575 C36.7595,32.27625 37.01075,33.6555 36.5765,34.272 C36.1535,34.846375 36.109,34.782 36.114625,36.014875 C36.129625,36.752375 35.71775,37.624875 35.0465,38.233 C35.1865,37.71325 35.3465,36.819 35.19125,36.26 C34.660625,37.16 33.329625,38.0915 32.9105,39.059 C32.498875,40.029 32.3945,41.70875 30.40275,42.096125 C27.84025,42.604625 26.955875,43.048625 25.307,43.723375 C25.124,42.470875 25.671625,39.859375 26.718875,40.008375 C27.741375,40.19025 30.841375,38.940125 29.732375,36.328375 C29.51325,37.151625 28.782625,37.954875 27.99275,37.9905 C28.84625,36.88325 30.369375,35.73675 29.62775,33.8815 C29.21525,34.67025 28.56675,35.6165 27.583375,36.149 C28.637625,34.12875 27.705875,33.524375 26.453875,35.188375 C25.981,35.83025 25.695375,37.11675 25.395125,38.7505 C24.90325,37.42175 24.93575,35.672625 24.353,34.252375 C23.74425,32.7165 25.160875,32.310875 25.8275,32.434125 C27.459625,32.869875 30.1875,32.869625 29.98475,30.173125 C29.27975,31.08525 28.0435,31.366875 26.7085,31.038625 C28.207875,29.943625 29.39175,27.884375 27.721,26.809125 C27.66525,27.949125 26.782875,29.227875 25.60475,29.816625 C25.329125,28.854375 25.329125,27.8335 25.5655,26.714125 C24.90775,27.406375 24.427375,28.847125 24.04525,30.484875 C24.0165,28.866125 24.32275,27.699625 24.549875,26.828625 C24.894,25.55675 25.749875,26.384375 27.059625,26.478125 C28.321125,26.549625 30.057875,25.8525 29.725875,24.141875 C29.29525,24.81875 28.411125,25.082125 27.50775,25.010625 C28.59525,24.351625 30.49025,23.180875 29.451,21.380125 C29.014375,22.062125 28.873,22.645625 27.6095,22.854875 C27.940375,22.093625 27.995375,21.017375 28.976125,20.591125 C27.226875,20.24275 26.22525,21.39075 25.716125,23.188625 C25.509875,21.942125 25.264,21.48325 25.215125,20.571125 C26.16075,19.521125 26.25975,17.466375 24.212625,17.006875 C24.091,18.066875 24.127,18.319375 24.359875,19.18225 C23.398875,18.61125 22.044375,18.29625 21.142625,19.1035 C21.753625,19.762875 22.69925,20.34325 24.15675,19.62425 C23.8125,20.7505 22.917,20.55775 21.6865,20.12825 C22.438625,21.541 23.38775,21.792 24.43525,21.629125 C24.98375,23.075125 25.00775,24.17375 23.40525,26.2795 C23.47925,24.97075 23.38625,23.996 22.3465,22.938 C21.455625,22.0655 20.7315,22.9755 22.124,24.91525 C21.27925,24.29325 20.32325,23.03075 20.0355,21.7685 C19.757,23.327875 20.00775,25.16575 20.871,26.196 C20.4625,26.6325 19.99825,26.14975 19.3115,25.08225 C19.57125,28.49825 21.028625,29.15725 22.98725,28.396 C23.042875,30.271 23.042875,32.007 23.15425,34.271875 C22.01225,32.629125 20.5645,31.403625 19.75675,31.097375 C19.50625,32.0165 20.45325,33.213625 20.98225,33.882 C20.17475,33.714875 18.42025,32.37825 18.42025,32.37825 C18.24375,33.90075 20.212,35.311625 21.4835,35.94275 C19.989125,35.87775 19.32975,35.3115 18.3645,34.383375 C18.38325,38.606875 22.9405,37.873375 23.79475,37.223625 C23.906,39.303 24.06475,41.706625 24.176375,43.786125 C22.888,43.561125 22.98925,43.173875 21.886875,43.07175 C18.827125,42.9525 16.4,39.39875 15.59625,36.784625 C15.365625,37.214875 15.5485,37.665 15.3375,38.193375 C14.840875,36.910375 14.20625,35.253375 13.355,34.482125 C13.571875,35.23 13.59475,35.99025 13.519375,37.388375 C13.22725,36.482375 12.955625,36.204625 12.936,35.14125 C12.95475,34.325 13.7235,33.7225 13.681,32.574375 C13.6495,31.736125 12.88475,29.919125 12.77225,28.5125 C12.40225,29.96025 12.16975,31.48625 11.602625,32.3825 C11.8845,30.836625 11.794125,29.76975 12.270875,28.72925 C12.821375,27.633875 13.289625,26.656 12.923,25.5505 C12.571375,25.9775 12.692375,26.3655 11.809,27.40275 C11.617125,26.274625 12.95125,24.469 14.246,23.743125 C15.15925,23.261875 16.310375,21.541 15.5605,20.3615 C14.70175,20.97825 14.316125,21.8115 13.103,23.23525 C13.968375,19.85275 16.21675,18.968 18.908,18.9565 C19.503625,18.953625 20.70425,18.738625 21.041375,17.9505 C20.282625,18.243375 19.38575,18.2805 18.587625,18.120875 C19.168375,17.268 20.391875,17.378875 21.531875,17.37375 C22.426125,17.3695 23.822125,17.24825 24.3865,15.974625 C23.295625,16.447125 21.594375,16.5455 20.52325,16.210875 C22.22675,15.328125 24.895125,15.233125 26.26375,14.074875 C24.70375,12.9105 20.8005,14.345875 18.335,16.036875 C19.024,15.406875 20.113125,14.289 20.714,13.386625 C19.365625,12.740125 15.9555,16.517875 14.78075,18.762625 C13.664875,19.392625 13.218625,20.3805 12.785375,21.06975 C13.379875,19.060625 13.442875,17.60275 13.938875,15.9485 C10.113875,17.265 11.703875,24.332 10.871875,26.02275 C10.969875,24.156125 10.890625,21.75825 10.121875,20.52175 C8.944,21.4205 8.848875,26.7105 9.955,31.11425 C9.5555,29.9355 8.80175,28.8355 8.56,27.401125 C6.81625,30.581125 9.581875,34.332875 11.894625,37.296375 C10.153375,36.3895 8.432125,34.438875 7.30125,32.803875 C7.61325,38.495375 13.557,39.677875 14.479625,41.07675 C13.227125,40.49375 10.833,39.34025 9.817125,40.548875 C11.470875,40.93075 12.79025,41.372125 13.853375,42.068875 C15.395875,43.99475 18.31675,44.837 23.40375,45.04975 L23.40375,45.05 Z" id="Shape" fill="#F3E295"></path>
                </g>
            </g>
        </g>
    </g>
</svg>