<?xml version="1.0" encoding="UTF-8" standalone="no"?>
<svg width="122px" height="60px" viewBox="0 0 122 60" version="1.1" xmlns="http://www.w3.org/2000/svg" xmlns:xlink="http://www.w3.org/1999/xlink">
    <!-- Generator: Sketch 3.8.2 (29753) - http://www.bohemiancoding.com/sketch -->
    <title>ai</title>
    <desc>Created with Sketch.</desc>
    <defs></defs>
    <g id="Page-1" stroke="none" stroke-width="1" fill="none" fill-rule="evenodd">
        <g id="ai">
            <g transform="translate(0.000000, -1.000000)">
                <rect id="Rectangle-1" fill="#000066" x="0" y="1" width="122" height="60"></rect>
                <g id="Clipped">
                    <g id="Group">
                        <g id="Group-2" transform="translate(0.000000, 0.491803)">
                            <g transform="translate(0.000000, 0.508197)" id="Shape">
                                <path d="M0,0 L0,3.49375 L38.8593703,31.25 L43.7506313,31.25 L43.7506313,27.75625 L4.89126094,0 L0,0 L0,0 Z M43.7506313,0 L43.7506313,3.49375 L4.89126094,31.25 L0,31.25 L0,27.75625 L38.8593703,0 L43.7506313,0 L43.7506313,0 Z" fill="#FFFFFF"></path>
                                <path d="M18.2294297,10.416625 L18.2294297,0 L18.2293031,0 L25.5212016,0 L25.5212016,10.416625 L43.7506313,10.416625 L43.7506313,20.83325 L25.5212016,20.83325 L25.5212016,31.25 L18.2294297,31.25 L18.2294297,20.83325 L0,20.83325 L0,10.416625 L18.2294297,10.416625 Z" fill="#FFFFFF"></path>
                                <path d="M19.6878094,18.75 L0,18.75 L0,12.5 L19.6878094,12.5 L19.6878094,0 L24.0628219,0 L24.0628219,12.5 L43.7506313,12.5 L43.7506313,18.75 L24.0628219,18.75 L24.0628219,31.25 L19.6878094,31.25 L19.6878094,18.75 Z M0,31.25 L14.5835438,20.83325 L17.8444266,20.83325 L3.26088281,31.25 L0,31.25 L0,31.25 Z M0,0 L14.5835438,10.416625 L11.3226609,10.416625 L0,2.329125 L0,0 L0,0 Z M25.9060781,10.416625 L40.489875,0 L43.7506313,0 L29.1670875,10.416625 L25.9060781,10.416625 L25.9060781,10.416625 Z M43.7507578,31.25 L29.1672141,20.83325 L32.4280969,20.83325 L43.7508844,28.92075 L43.7508844,31.25 L43.7507578,31.25 Z" fill="#CC0000"></path>
                            </g>
                            <path d="M61.2365,32.0495082 C61.2365,38.4991393 60.48075,45.7671311 65.368,50.8179508 C66.373375,51.8572541 68.286125,54.2267623 69.92575,54.1359016 C71.64225,54.0408607 73.8495,51.5425 74.8315,50.3188934 C79.08575,44.8143852 78.4095,38.2488115 78.554,31.8597951 C76.633,32.7084016 75.67625,32.9879918 73.99625,32.9830738 C72.752,33.1087295 70.8325,32.2859426 69.684625,31.7480328 C68.934625,32.2406967 67.846375,32.8282787 65.890875,32.8943033 C63.632125,32.9920492 62.9165,32.6155738 61.2365,32.0493852 L61.2365,32.0495082 Z" id="Shape" fill="#CCCC33"></path>
                            <path d="M61.75675,32.7508197 C61.62025,36.1389754 61.725,39.9541393 62.2635,43.5790984 C62.858875,45.4730328 62.77925,46.5134426 63.663875,47.6485246 L76.047625,47.5536066 C76.793875,46.3595082 77.34725,44.5486885 77.418625,43.8288115 C78.110125,40.1678279 78.126625,36.1276639 78.143125,32.5138934 C76.897875,33.165041 75.267125,33.6265984 73.684375,33.4239754 C72.415375,33.3288115 71.243125,33.0440574 69.877625,32.284959 C68.69325,32.9828279 68.280375,33.3015164 66.32475,33.3829098 C64.80225,33.4566803 63.56875,33.5781557 61.756875,32.7509426 L61.75675,32.7508197 Z" id="Shape" fill="#FFFFFF"></path>
                            <path d="M63.6905,47.5730328 C64.57175,49.397623 67.68925,53.7018852 70.0705,53.6180328 C72.383,53.5366393 74.994625,49.3368852 76.016375,47.5730328 L63.690625,47.5730328 L63.6905,47.5730328 Z" id="Shape" fill="#00CCFF"></path>
                            <path d="M70.1795,37.8381557 C70.571125,38.7440574 71.8265,39.7443852 72.171625,40.2347131 C71.732375,40.7247951 71.644625,40.6714344 71.702125,41.5822541 C72.465875,40.7961066 72.479625,40.7142213 72.970875,40.8334836 C74.047125,41.8896311 73.163625,44.1584426 72.274125,44.6517213 C71.385,45.1779508 71.546375,44.6335246 70.2135,45.2930328 C70.82475,45.8069672 71.532625,45.2176639 72.11125,45.3751639 C72.42575,45.7421721 71.96175,46.4109016 72.20625,47.0406557 C72.7175,46.9922131 72.65625,45.9767623 72.775,45.6086475 C73.14875,44.259877 75.394625,43.3189344 75.50875,42.0815574 C75.9825,41.8629508 76.455625,42.0131967 77.0315,42.3311475 C76.744625,41.1719672 75.796125,41.1843852 75.54175,40.822541 C74.9365,39.9127049 74.4,38.8747541 73.107375,38.6057377 C72.125875,38.4011475 72.19925,38.6672131 71.570375,38.245123 C71.1795,37.945123 69.989375,37.3779508 70.179625,37.8381557 L70.1795,37.8381557 Z" id="Shape" fill="#FF9900"></path>
                            <path d="M67.041,41.6814754 C67.67225,40.9177049 67.985125,39.3585656 68.26475,38.8293852 C68.9105,38.9822131 68.9035,39.0835246 69.695375,38.6080738 C68.631875,38.3109016 68.551625,38.3372131 68.429375,37.8543852 C68.87625,36.4247131 71.328375,36.1334426 72.18725,36.6765164 C73.07575,37.2039754 72.511,37.3180738 73.726375,38.1691393 C73.903,37.3975 73.042625,37.0570492 72.913875,36.4802869 C73.09675,36.0354508 73.914625,36.1264344 74.366375,35.6196311 C74.084125,35.1976639 73.200125,35.7253689 72.8135,35.7938525 C71.426375,36.0992623 69.5315,34.5856148 68.366,35.0642623 C67.948125,34.7546721 67.86225,34.2728279 67.879,33.6235246 C66.971,34.4144672 67.42525,35.2335656 67.21875,35.6239344 C66.68375,36.5752049 66.00125,37.5265984 66.363375,38.7766393 C66.638,39.7255738 66.84275,39.5377049 66.757125,40.2815574 C66.670125,40.7616803 66.716375,42.0616393 67.040875,41.6812295 L67.041,41.6814754 Z" id="Shape" fill="#FF9900"></path>
                            <path d="M72.17175,42.217541 C71.1805,42.0810656 69.66225,42.6242623 69.05725,42.662623 C68.85625,42.039877 68.948,41.9934016 68.12475,41.5727869 C68.41625,42.6218033 68.480625,42.6756557 68.1235,43.0285246 C66.64875,43.3917213 65.12675,41.4781148 65.155,40.4742213 C65.1545,39.4534836 65.54575,39.869918 65.6575,38.4065574 C64.895,38.6570082 65.04375,39.557377 64.60875,39.9643443 C64.126875,40.0403279 63.783,39.3048361 63.108375,39.1865574 C62.887125,39.6427049 63.80375,40.1138525 64.063375,40.4037705 C65.046375,41.4134426 64.709625,43.7915574 65.729,44.525082 C65.675625,45.0370492 65.300875,45.3586885 64.72725,45.6803279 C65.885125,46.0356557 66.362875,45.2294672 66.80925,45.2014344 C67.913875,45.1596311 69.094625,45.2420082 69.995,44.2907377 C70.6785,43.5685246 70.409125,43.4935246 71.100625,43.1804918 C71.563375,43.0056557 72.670625,42.2942623 72.171875,42.2177869 L72.17175,42.217541 Z" id="Shape" fill="#FF9900"></path>
                        </g>
                        <path id="Shape" fill="#FFFFFF"></path>
                    </g>
                </g>
            </g>
        </g>
    </g>
</svg>