<?xml version="1.0" encoding="UTF-8" standalone="no"?>
<svg width="122px" height="60px" viewBox="0 0 122 60" version="1.1" xmlns="http://www.w3.org/2000/svg" xmlns:xlink="http://www.w3.org/1999/xlink">
    <!-- Generator: Sketch 3.8.2 (29753) - http://www.bohemiancoding.com/sketch -->
    <title>hm</title>
    <desc>Created with Sketch.</desc>
    <defs></defs>
    <g id="Page-1" stroke="none" stroke-width="1" fill="none" fill-rule="evenodd">
        <g id="hm">
            <g id="Group">
                <g>
                    <polygon id="Shape" fill="#000066" points="0 0 122 0 122 60 0 60"></polygon>
                    <path d="M20.3550892,17.1007773 L0,3.82375 L0,0 L5.86225,0 L26.2173331,13.2770234 L46.5725,0 L52.43475,0 L52.43475,3.82375 L32.079565,17.1007852 L52.43475,30.377875 L52.43475,34.201625 L46.5725,34.201625 L26.2173211,20.9245391 L5.86225,34.2015 L0,34.2015 L0,30.37775 L20.3550892,17.1007773 Z" id="Shape" fill="#FFFFFF"></path>
                    <path d="M21.84775,11.4005 L21.84775,0 L21.84775,0 L30.586875,0 L30.586875,11.4005 L52.43475,11.4005 L52.43475,22.801 L30.586875,22.801 L30.586875,34.2015 L21.84775,34.2015 L21.84775,22.801 L0,22.801 L0,11.4005 L21.84775,11.4005 Z" id="Shape" fill="#FFFFFF"></path>
                    <path d="M23.595625,20.520875 L0,20.520875 L0,13.680625 L23.595625,13.680625 L23.595625,0 L28.839125,0 L28.839125,13.680625 L52.43475,13.680625 L52.43475,20.520875 L28.839125,20.520875 L28.839125,34.2015 L23.595625,34.2015 L23.595625,20.520875 Z M0,34.2015 L17.47825,22.801 L21.386375,22.801 L3.90825,34.2015 L0,34.2015 L0,34.2015 Z M0,0 L17.47825,11.4005 L13.57,11.4005 L0,2.54925 L0,0 L0,0 Z M31.048375,11.4005 L48.526625,0 L52.43475,0 L34.9565,11.4005 L31.048375,11.4005 L31.048375,11.4005 Z M52.434625,34.2015 L34.9565,22.801 L38.864625,22.801 L52.434625,31.65225 L52.434625,34.2015 L52.434625,34.2015 Z" id="Shape" fill="#CC0000"></path>
                    <path d="M15.689,52.06 L12.25425,51.7615 L15.218875,50.001875 L13.311375,47.130375 L16.535125,48.351125 L17.591125,45.068875 L18.647,48.351 L21.87075,47.130125 L19.96325,50.001625 L22.92775,51.76125 L19.493125,52.06 L19.966375,55.475 L17.591125,52.975875 L15.215875,55.475 M61.5205,55.712125 L59.10225,55.501625 L61.1895,54.2625 L59.846,52.240875 L62.116625,53.1005 L62.8595,50.78925 L63.602375,53.1005 L65.872875,52.240875 L64.529375,54.2625 L66.616625,55.501625 L64.198375,55.712125 L64.532125,58.115875 L62.859375,56.356875 L61.186625,58.116 M61.5205,19.74 L59.10225,19.529625 L61.1895,18.290625 L59.846,16.26875 L62.116625,17.1285 L62.8595,14.817625 L63.602375,17.128625 L65.872875,16.268875 L64.529375,18.29075 L66.616625,19.52975 L64.198375,19.74025 L64.532125,22.14425 L62.859375,20.385125 L61.186625,22.144125 M48.031,34.35375 L45.61275,34.14325 L47.7,32.904125 L46.3565,30.8825 L48.627125,31.742125 L49.37,29.430875 L50.112875,31.742125 L52.3835,30.8825 L51.04,32.904125 L53.12725,34.14325 L50.709,34.35375 L51.04275,36.7575 L49.37,34.9985 L47.69725,36.757625 M73.50725,30.7565 L71.092625,30.546125 L73.183625,29.30675 L71.837375,27.285125 L74.109875,28.144875 L74.847375,25.833625 L75.593625,28.144875 L77.859875,27.285125 L76.519875,29.30675 L78.606375,30.546 L76.18725,30.75625 L76.52,33.16 L74.847125,31.40125 L73.174625,33.16 M70.39375,38.21175 L69.205875,39.2145 L69.577125,40.7245 L68.25525,39.905125 L66.933375,40.7245 L67.304625,39.2145 L66.11675,38.212 L67.668,38.097625 L68.25525,36.657875 L68.8425,38.097625" id="Shape" fill="#FFFFFF"></path>
                </g>
            </g>
        </g>
    </g>
</svg>