<?xml version="1.0" encoding="UTF-8" standalone="no"?>
<svg width="122px" height="60px" viewBox="0 0 122 60" version="1.1" xmlns="http://www.w3.org/2000/svg" xmlns:xlink="http://www.w3.org/1999/xlink">
    <!-- Generator: Sketch 3.8.2 (29753) - http://www.bohemiancoding.com/sketch -->
    <title>et</title>
    <desc>Created with Sketch.</desc>
    <defs></defs>
    <g id="Page-1" stroke="none" stroke-width="1" fill="none" fill-rule="evenodd">
        <g id="et">
            <g>
                <rect id="Rectangle-74" fill="#298C08" x="0" y="0" width="122" height="20"></rect>
                <rect id="Rectangle-74-Copy" fill="#FFC621" x="0" y="20" width="122" height="20"></rect>
                <rect id="Rectangle-74-Copy-2" fill="#EF2118" x="0" y="40" width="122" height="20"></rect>
                <g id="Group" transform="translate(49.000000, 18.000000)">
                    <ellipse id="Oval" fill="#006BC6" cx="11.8760555" cy="11.8760555" rx="11.8760555" ry="11.8760555"></ellipse>
                    <path d="M6.30292344,3.60706953 L5.59439844,4.10519609 L8.18240938,7.74255547 L8.87264844,7.30248125 L6.30270312,3.60717969 L6.30292344,3.60706953 Z M9.54261875,12.192868 L8.47850937,11.4508555 L8.91803281,10.0545148 L3.61731406,10.1285398 L2.0828375,8.95383359 L9.31900156,8.87584297 L10.6611453,4.81019609 L11.382118,6.45416797 L9.54250859,12.1930883 L9.54261875,12.192868 Z M17.9719953,4.40702422 L17.2830781,3.88223984 L14.5976891,7.44843828 L15.2259102,7.97344297 L17.9721055,4.40713438 L17.9719953,4.40702422 Z M10.7664547,10.0897648 L11.152332,8.85105781 L12.6163086,8.84841406 L10.9439164,3.81757813 L11.6002273,2 L13.8610742,8.87463125 L18.1421867,8.92530313 L16.792993,10.1092625 L10.7663445,10.089875 L10.7664547,10.0897648 Z M20.7545422,15.7259094 L21.0426008,14.9091008 L16.8241672,13.4482086 L16.517382,14.2071852 L20.7545422,15.7257992 L20.7545422,15.7259094 Z M13.1339328,10.6128969 L14.4313531,10.5996781 L14.8834344,11.9920531 L19.1578273,8.856125 L21.0890867,8.92265938 L15.2405609,13.1849352 L16.5065867,17.2747063 L14.9655008,16.3541305 L13.1338227,10.6127867 L13.1339328,10.6128969 Z M10.9585672,21.8576469 L11.8246156,21.8702047 L11.8646023,17.4062328 L11.047243,17.3574336 L10.958457,21.8576469 L10.9585672,21.8576469 Z M13.3758359,13.0048297 L13.8018102,14.230318 L12.6261125,15.102425 L16.9610914,18.1543039 L17.5136352,20.0060305 L11.6097008,15.8211945 L8.13669453,18.3250461 L8.51805547,16.570918 L13.3759461,13.0046094 L13.3758359,13.0048297 Z M2,14.4354289 L2.25611328,15.2627023 L6.51321172,13.9185758 L6.30644844,13.126332 L2.00022031,14.4354289 L2,14.4354289 Z M11.1661016,13.9926008 L10.1328359,14.7769133 L8.93929297,13.9292609 L7.37981094,18.996118 L5.79003594,20.0949266 L7.94083672,13.1851555 L4.48457422,10.6581711 L6.2705375,10.4777352 L11.1658812,13.9926008 L11.1661016,13.9926008 Z" id="Shape" fill="#FFC621"></path>
                </g>
            </g>
        </g>
    </g>
</svg>