<?xml version="1.0" encoding="UTF-8" standalone="no"?>
<svg width="122px" height="60px" viewBox="0 0 122 60" version="1.1" xmlns="http://www.w3.org/2000/svg" xmlns:xlink="http://www.w3.org/1999/xlink">
    <!-- Generator: Sketch 3.8.2 (29753) - http://www.bohemiancoding.com/sketch -->
    <title>fk</title>
    <desc>Created with Sketch.</desc>
    <defs>
        <linearGradient x1="-88.033802%" y1="335.15016%" x2="-76.0648941%" y2="316.500815%" id="linearGradient-1">
            <stop stop-color="#A43907" stop-opacity="0.996" offset="0%"></stop>
            <stop stop-color="#FFFFFF" offset="100%"></stop>
        </linearGradient>
        <linearGradient x1="-4.62870564%" y1="87.5657363%" x2="95.0954403%" y2="30.4742693%" id="linearGradient-2">
            <stop stop-color="#A43907" stop-opacity="0.996" offset="0%"></stop>
            <stop stop-color="#FFFFFF" offset="100%"></stop>
        </linearGradient>
        <linearGradient x1="-4.6524878%" y1="51.9603451%" x2="109.633171%" y2="34.2939267%" id="linearGradient-3">
            <stop stop-color="#A43907" stop-opacity="0.996" offset="0%"></stop>
            <stop stop-color="#FFFFFF" offset="100%"></stop>
        </linearGradient>
        <linearGradient x1="100.66494%" y1="36.3123078%" x2="-1.31711136%" y2="42.0745275%" id="linearGradient-4">
            <stop stop-color="#A43907" stop-opacity="0.996" offset="0%"></stop>
            <stop stop-color="#FFFFFF" offset="100%"></stop>
        </linearGradient>
        <linearGradient x1="104.901073%" y1="35.954716%" x2="-7.95395122%" y2="43.9484053%" id="linearGradient-5">
            <stop stop-color="#A43907" stop-opacity="0.996" offset="0%"></stop>
            <stop stop-color="#FFFFFF" offset="100%"></stop>
        </linearGradient>
        <linearGradient x1="100.031334%" y1="50.0079681%" x2="-0.0364390173%" y2="50.0079681%" id="linearGradient-6">
            <stop stop-color="#A43907" stop-opacity="0.996" offset="0%"></stop>
            <stop stop-color="#FFFFFF" offset="100%"></stop>
        </linearGradient>
        <linearGradient x1="-1554.75305%" y1="53.2580082%" x2="951.231008%" y2="65.9955302%" id="linearGradient-7">
            <stop stop-color="#A43907" stop-opacity="0.996" offset="0%"></stop>
            <stop stop-color="#FFFFFF" offset="100%"></stop>
        </linearGradient>
        <linearGradient x1="113.04867%" y1="36.7576124%" x2="6.83284755%" y2="40.8521231%" id="linearGradient-8">
            <stop stop-color="#A43907" stop-opacity="0.996" offset="0%"></stop>
            <stop stop-color="#FFFFFF" offset="100%"></stop>
        </linearGradient>
        <linearGradient x1="118.67903%" y1="93.3141628%" x2="-76.9450926%" y2="112.755644%" id="linearGradient-9">
            <stop stop-color="#A43907" stop-opacity="0.996" offset="0%"></stop>
            <stop stop-color="#FFFFFF" offset="100%"></stop>
        </linearGradient>
        <linearGradient x1="-15.2954488%" y1="94.3477951%" x2="158.826583%" y2="32.1290352%" id="linearGradient-10">
            <stop stop-color="#A43907" stop-opacity="0.996" offset="0%"></stop>
            <stop stop-color="#FFFFFF" offset="100%"></stop>
        </linearGradient>
    </defs>
    <g id="Page-1" stroke="none" stroke-width="1" fill="none" fill-rule="evenodd">
        <g id="fk">
            <g id="Group">
                <g>
                    <polygon id="Shape" fill="#000066" points="0 0 122 0 122 60 0 60"></polygon>
                    <polygon id="Shape" fill="#000066" points="0 0 50 0 50 25 0 25"></polygon>
                    <g id="Shape">
                        <path d="M0,0 L0,3.19525 L39.642125,28.57875 L44.632125,28.57875 L44.632125,25.38375 L4.98975,0 L0,0 L0,0 Z M44.632,0 L44.632,3.195 L4.99,28.57875 L0,28.57875 L0,25.3835 L39.642125,0 L44.632125,0 L44.632,0 Z" fill="#FFFFFF"></path>
                        <path d="M18.596625,9.52625 L18.596625,0 L26.035375,0 L26.035375,9.52625 L44.632,9.52625 L44.632,19.0525 L26.035375,19.0525 L26.035375,28.57875 L18.596625,28.57875 L18.596625,19.0525 L0,19.0525 L0,9.52625 L18.596625,9.52625 Z" fill="#FFFFFF"></path>
                        <path d="M20.084375,17.14725 L0,17.14725 L0,11.4315 L20.084375,11.4315 L20.084375,0.00025 L20.0845,0 L24.547625,0 L24.547625,11.4315 L44.632,11.4315 L44.632,17.14725 L24.547625,17.14725 L24.547625,28.578625 L20.084375,28.578625 L20.084375,17.14725 Z M0,28.57875 L14.8775,19.0525 L18.20375,19.0525 L3.32675,28.57875 L0,28.57875 Z M0,0 L14.8775,9.52625 L11.550625,9.52625 L0,2.13025 L0,0.00025 L0,0 Z M26.428125,9.52625 L41.305625,0 L44.631875,0 L29.75475,9.52625 L26.42825,9.52625 L26.428125,9.52625 Z M44.631875,28.57875 L29.754625,19.0525 L33.08125,19.0525 L44.632,26.4485 L44.632,28.5785 L44.631875,28.57875 Z" fill="#CC0000"></path>
                    </g>
                    <path d="M49.4756125,44.28315 C49.3760898,44.2846593 49.2768322,44.2938517 49.178725,44.310645 C48.6829375,44.3969325 47.9013775,46.0115325 47.4690625,46.9568925 C46.7933875,47.7823275 46.4324425,48.42378 46.148425,48.8990925 C46.0380063,49.0838062 45.867625,49.2980625 45.9198363,49.5436162 C44.8966713,49.7948737 44.8457763,50.6732512 44.8457763,51.0148912 C44.8457763,51.3775912 44.9601438,51.5589412 44.9601438,51.5589412 L45.5724925,52.70598 L45.57688,52.7197275 C46.2288625,54.0675675 47.1941125,55.88253 47.7340675,56.0331675 C48.5010025,56.246985 50.486785,55.51398 51.9753175,54.2553525 C54.41623,55.2608212 57.5434938,56.092545 61.03843,56.092545 C64.53322,56.092545 67.65595,55.2603825 70.0968625,54.2552062 C71.5856875,55.5138337 73.57147,56.2468387 74.3381125,56.0330212 C74.8799688,55.881945 75.8479975,54.05499 76.4996875,52.7058337 L77.112475,51.5586487 C77.112475,51.5586487 77.22655,51.3772987 77.22655,51.0145987 C77.22655,50.6726662 77.1714138,49.7942887 76.1479563,49.5430312 C76.1991438,49.2976237 76.0344663,49.0833675 75.9241938,48.8986537 C75.6378363,48.4198312 75.2777688,47.7725287 74.59405,46.9380262 C74.1602725,45.9903262 73.3816375,44.3959087 72.88936,44.3099137 C72.1958425,44.1892575 70.6999975,44.5409887 70.6999975,44.6619375 C70.6999975,44.6648625 70.6916613,44.72775 70.69093,44.7350625 L67.686955,47.5723125 C67.686955,47.6537737 67.8463675,49.706685 68.4091375,51.5210625 C66.3982,52.25319 63.930085,52.7688675 61.03726,52.7688675 C58.1425338,52.7688675 55.6676913,52.2540675 53.6560225,51.5210625 C54.219085,49.706685 54.382885,47.6537737 54.382885,47.5723125 L51.3803725,44.7350625 C51.3796413,44.72775 51.3711588,44.6648625 51.3711588,44.6619375 C51.3711588,44.5561987 50.2260213,44.2707187 49.4745888,44.2827112 L49.4756125,44.28315 Z M50.243425,47.8068975 C50.6210425,47.8022175 51.02323,48.1132912 51.3540475,48.460635 C51.34264,48.5286412 51.3310863,48.5985487 51.317485,48.6615825 C51.226225,49.0816125 51.069445,49.6360462 50.85124,50.2154887 C49.9927525,49.7138512 49.292215,49.1923237 48.75811,48.7073587 C49.083955,48.3607462 49.6072375,47.8889437 50.1612325,47.8117237 C50.1882888,47.8079212 50.2160763,47.8073362 50.2435713,47.8073362 L50.243425,47.8068975 Z M71.824075,47.8068975 C71.8514238,47.80719 71.8792113,47.8076287 71.9064138,47.811285 C72.4604088,47.8887975 72.988225,48.3607462 73.31407,48.7072125 C72.778795,49.1933475 72.0772338,49.7178 71.21626,50.2200225 C70.9971775,49.63941 70.8414213,49.08249 70.750015,48.6615825 C70.7362675,48.5984025 70.72486,48.5289337 70.7134525,48.4604887 C71.0447088,48.1124137 71.44558,47.8023637 71.824075,47.8067512 L71.824075,47.8068975 Z M47.546575,51.8104912 C47.9458375,52.1161537 48.467365,52.46496 49.0959475,52.8342412 C48.92191,52.94466 48.7367575,53.0267062 48.5431225,53.0717512 C48.284845,53.1317137 48.013405,53.1200137 47.7387475,53.0625375 C47.6527525,52.850475 47.5803588,52.583715 47.5603225,52.2264262 C47.5529336,52.0878882 47.5483502,51.9492148 47.546575,51.8104912 L47.546575,51.8104912 Z M74.5253125,51.8104912 C74.523265,51.9387525 74.5153675,52.0773975 74.5070313,52.22628 C74.486995,52.5835687 74.4192813,52.8503287 74.3332863,53.06283 C74.0583363,53.12016 73.7825088,53.1315675 73.5245238,53.071605 C73.3305963,53.0267062 73.1501238,52.94466 72.9760863,52.834095 C73.6049613,52.4648137 74.1259038,52.1163 74.5253125,51.810345 L74.5253125,51.8104912 Z" id="Shape" stroke="#FFFFFF" stroke-width="0.5" fill="url(#linearGradient-1)"></path>
                    <path d="M46.8436388,48.95115 C46.8436388,48.95115 47.8842638,47.266775 48.7515438,47.3870875 C49.6186388,47.5074 50.4280138,48.5902125 50.4859188,48.6502725 C50.5436388,48.710525 51.8155138,47.266775 51.7577938,47.2065225 C51.6998888,47.1464625 50.4280138,44.0183375 49.7342638,43.898025 C49.0405138,43.7777125 47.5425688,44.128255 47.5425688,44.248375 C47.5425688,44.368495 46.8436388,48.95115 46.8436388,48.95115 L46.8436388,48.95115 Z" id="Shape" stroke="#000000" stroke-width="0.5" fill="url(#linearGradient-2)" transform="translate(49.301669, 46.412198) scale(-1, 1) translate(-49.301669, -46.412198) "></path>
                    <path d="M44.59095,47.147425 C44.59095,47.2677375 44.937825,51.7193 46.44095,53.2833625 C47.944075,54.847425 50.3722,55.809925 51.23948,55.5693 C52.106575,55.328675 54.0722,50.8170525 54.0722,50.8170525 C54.0722,50.8170525 51.99095,52.9826775 50.430105,52.62174 C48.869075,52.2608025 47.944075,49.553675 47.655105,48.2302375 C47.36595,46.9068 47.5972,44.319985 47.5972,44.319985 L44.59095,47.147425 L44.59095,47.147425 Z" id="Shape" stroke="#000000" stroke-width="0.5" fill="url(#linearGradient-3)" transform="translate(49.331575, 49.963002) scale(-1, 1) translate(-49.331575, -49.963002) "></path>
                    <path d="M69.96905,48.95115 C69.96905,48.95115 71.009675,47.266775 71.876955,47.3870875 C72.74405,47.5074 73.553425,48.5902125 73.61133,48.6502725 C73.66905,48.710525 74.940925,47.266775 74.883205,47.2065225 C74.8253,47.1464625 73.553425,44.0183375 72.859675,43.898025 C72.165925,43.7777125 70.66798,44.128255 70.66798,44.248375 C70.66798,44.368495 69.96905,48.95115 69.96905,48.95115 L69.96905,48.95115 Z" id="Shape" stroke="#000000" stroke-width="0.5" fill="url(#linearGradient-4)"></path>
                    <path d="M67.65655,47.147425 C67.65655,47.2677375 68.003425,51.7193 69.50655,53.2833625 C71.009675,54.847425 73.4378,55.809925 74.30508,55.5693 C75.172175,55.328675 77.1378,50.8170525 77.1378,50.8170525 C77.1378,50.8170525 75.05655,52.9826775 73.495705,52.62174 C71.934675,52.2608025 71.009675,49.553675 70.720705,48.2302375 C70.43155,46.9068 70.6628,44.319985 70.6628,44.319985 L67.65655,47.147425 L67.65655,47.147425 Z" id="Shape" stroke="#000000" stroke-width="0.5" fill="url(#linearGradient-5)"></path>
                    <path d="M47.49935,46.91565 C46.8058325,47.7617063 46.4355275,48.4157363 46.1465375,48.8990925 C45.8575475,49.382595 46.02749,50.055345 46.694975,51.01533 C47.414525,52.04961 53.3309225,56.0928375 61.0365425,56.0928375 C68.742455,56.0928375 74.65856,52.04961 75.37811,51.0150375 C76.045595,50.055345 76.2110038,49.382595 75.92216,48.8990925 C75.6330238,48.41559 75.2672525,47.7617063 74.573735,46.91565 C74.573735,48.1846613 69.672605,52.7700375 61.0365425,52.7700375 C52.40048,52.7700375 47.49935,48.1846613 47.49935,46.91565 L47.49935,46.91565 Z" id="Shape" stroke="#000000" stroke-width="0.5" fill="url(#linearGradient-6)"></path>
                    <path d="M74.1967,54.8974 C74.312325,54.7170275 75.526295,52.6114625 75.526295,52.6114625 L74.860665,52.1228975 C74.656055,52.7184925 73.90736,52.9121475 73.791735,53.6340225 C73.67611,54.3558975 74.31214,55.0777725 74.196515,54.8974 L74.1967,54.8974 Z" id="Shape" stroke="#000000" stroke-width="0.5" fill="url(#linearGradient-7)"></path>
                    <path d="M75.4025,54.2449 C75.4025,54.2449 75.63375,53.22234 74.88228,53.1020275 C74.130625,52.981715 73.73269,53.67433 73.841655,53.4027125 C73.962645,53.101065 74.41978,52.80115 74.4775,51.77859 C74.535405,50.7558375 74.41978,50.2145275 74.41978,50.2145275 C74.41978,50.2145275 74.70875,48.8908975 75.922905,49.0714625 C77.136875,49.2520275 77.19478,50.2145275 77.19478,50.575465 C77.19478,50.9364025 77.079155,51.116775 77.079155,51.116775 L75.4025,54.2449 L75.4025,54.2449 Z" id="Shape" stroke="#000000" stroke-width="0.5" fill="url(#linearGradient-8)"></path>
                    <path d="M71.0375,50.79225 L71.284125,51.223875 L71.450625,51.120125 L71.340125,50.835125 L71.36075,50.779125 L71.6505,50.598375 L72.408875,51.924375 L72.390125,51.988875 L72.240125,52.098875 L72.308375,52.2185 L73.0305,51.76775 L72.962125,51.6485 L72.798375,51.73425 L72.735,51.721 L71.9765,50.39475 L72.2665,50.213875 L72.32075,50.222875 L72.51075,50.45825 L72.677625,50.354125 L72.431,49.922625 L71.0375,50.792375 L71.0375,50.79225 Z M69.255875,51.813375 L69.315875,51.9375 L69.467875,51.873375 L69.527625,51.89275 L70.178875,53.23825 L70.15825,53.3 L70.018625,53.3895 L70.078625,53.513625 L70.7895,53.138375 L70.7295,53.01425 L70.5725,53.08125 L70.5125,53.062 L70.20375,52.4235 L70.9295,52.040375 L71.23825,52.679125 L71.220375,52.739375 L71.075625,52.8315 L71.135625,52.955625 L71.844,52.581875 L71.784,52.45775 L71.632125,52.522 L71.572375,52.50275 L70.921125,51.157125 L70.94175,51.0955 L71.08125,51.00575 L71.02125,50.881625 L70.313125,51.255375 L70.373125,51.379625 L70.530125,51.31275 L70.587625,51.333375 L70.856,51.888375 L70.130125,52.271375 L69.861625,51.716625 L69.88225,51.654875 L70.026875,51.562375 L69.966875,51.438375 L69.256,51.813375 L69.255875,51.813375 Z M68.83875,52.95725 L68.876875,53.0905 L69.080375,53.04175 L69.134375,53.0665 L69.29375,53.621125 C69.225,53.64825 69.17475,53.667125 69.14775,53.6755 C68.73275,53.805125 68.39725,53.598875 68.25675,53.10925 C68.120125,52.6335 68.28675,52.273375 68.688625,52.14775 C68.7647983,52.1231546 68.8451606,52.1142255 68.924875,52.1215 L68.979125,52.15775 L69.113125,52.429875 L69.309875,52.368375 L69.177375,51.90625 C68.9605,51.90875 68.760625,51.93875 68.582625,51.99425 C67.98425,52.18125 67.70575,52.67425 67.865875,53.23175 C68.028375,53.797125 68.523375,54.06925 69.089375,53.892375 C69.286125,53.83075 69.47475,53.730375 69.66125,53.592 L69.4795,52.9585 L69.511625,52.906875 L69.664125,52.844375 L69.625875,52.711125 L68.838625,52.957125 L68.83875,52.95725 Z M67.1715,54.52125 L67.975,54.26825 L67.935,54.13525 L67.750875,54.1785 L67.694625,54.1485 L67.25925,52.701375 L67.290875,52.649875 L67.46675,52.5795 L67.42675,52.4465 L66.62325,52.699625 L66.66325,52.832625 L66.84475,52.790375 L66.899125,52.814875 L67.334625,54.262125 L67.304625,54.319125 L67.1315,54.388375 L67.1715,54.521375 L67.1715,54.52125 Z M62.8215,55.232875 L64.236,55.103375 L64.192875,54.5975 L64.01375,54.61375 L63.994375,54.91775 L63.964,54.966125 L63.353,55.021875 L63.29025,54.286875 L63.63275,54.255375 L63.673,54.291625 L63.71675,54.492875 L63.872,54.4785 L63.816125,53.82225 L63.66075,53.836625 L63.651625,54.042875 L63.618125,54.085375 L63.275625,54.116875 L63.218375,53.444 L63.742625,53.396 L63.780125,53.42975 L63.840625,53.675 L64.025,53.658 L63.9875,53.21425 L62.65975,53.3355 L62.671625,53.47425 L62.8335,53.473625 L62.879,53.5095 L63.0075,55.0165 L62.969125,55.0655 L62.809625,55.09425 L62.8215,55.23275 L62.8215,55.232875 Z M60.715875,53.368375 L60.718375,53.507375 L60.871875,53.518875 L60.915,53.5635 L60.94125,55.070125 L60.89975,55.116375 L60.746625,55.133 L60.749125,55.272 L61.49725,55.259 L61.49475,55.12 L61.336,55.10875 L61.292875,55.064 L61.280375,54.349 L62.044375,54.335625 L62.056875,55.050625 L62.018125,55.096875 L61.85975,55.113625 L61.86225,55.25275 L62.607875,55.23975 L62.605375,55.100625 L62.451625,55.089125 L62.40875,55.0445 L62.3825,53.53775 L62.42375,53.4915 L62.577,53.474625 L62.5745,53.3355 L61.828875,53.3485 L61.831375,53.487625 L61.990375,53.499125 L62.03075,53.543875 L62.041625,54.165125 L61.2775,54.178625 L61.266625,53.557375 L61.308125,53.511125 L61.4665,53.494125 L61.464,53.355125 L60.715875,53.36825 L60.715875,53.368375 Z M59.11,53.3145 L59.10525,53.817 L59.28775,53.819125 L59.33275,53.515875 L59.3755,53.479625 L59.693,53.483375 L59.678375,55.027125 L59.632875,55.072125 L59.460875,55.084 L59.459625,55.223 L60.250375,55.2325 L60.251625,55.0935 L60.07975,55.07725 L60.03525,55.031375 L60.04975,53.487625 L60.36725,53.491375 L60.4065,53.528875 L60.448625,53.833125 L60.630875,53.83525 L60.635625,53.333 L59.109875,53.31475 L59.11,53.3145 Z M56.674625,54.919375 L58.057125,54.987875 L58.079625,54.480625 L57.904375,54.471875 L57.847375,54.77025 L57.81175,54.814 L57.2145,54.784375 L57.24675,54.04725 L57.581375,54.06375 L57.61575,54.105375 L57.632625,54.310625 L57.7845,54.318125 L57.81325,53.660625 L57.6615,53.653125 L57.62675,53.856 L57.588875,53.89375 L57.25425,53.877125 L57.28375,53.2025 L57.79625,53.227875 L57.82825,53.266375 L57.85575,53.518 L58.036,53.52675 L58.0555,53.08175 L56.758,53.0175 L56.75175,53.15625 L56.90825,53.17825 L56.94775,53.22 L56.8815,54.731 L56.838375,54.77425 L56.680625,54.7805 L56.674625,54.91925 L56.674625,54.919375 Z M53.50625,54.0995 L54.24,54.347 L54.2805,54.2145 L54.12025,54.14575 L54.09425,54.0895 L54.53625,52.64975 L54.587125,52.625125 L54.755875,52.667125 L54.796375,52.534875 L54.062625,52.287375 L54.022125,52.419875 L54.179875,52.487875 L54.207375,52.539125 L53.7655,53.9785 L53.713,54.0085 L53.54675,53.96725 L53.50625,54.09975 L53.50625,54.0995 Z M52.2015,53.59275 C52.3341129,53.701917 52.4853824,53.7861909 52.648,53.8415 C53.0505,53.97725 53.369625,53.828625 53.468375,53.50725 C53.517125,53.347875 53.483375,53.1755 53.371875,53.0275 C53.258625,52.87625 53.140875,52.791625 53.080625,52.71475 C52.977125,52.58475 52.933125,52.480375 52.971375,52.356 C53.017125,52.2075 53.160625,52.136875 53.339875,52.19725 C53.418375,52.22375 53.47075,52.256 53.507375,52.29525 L53.53025,52.34475 L53.485875,52.63975 L53.6625,52.699375 L53.79675,52.261875 C53.6605,52.15025 53.515875,52.065625 53.363625,52.014375 C53.01275,51.896125 52.713125,52.051375 52.621125,52.351125 C52.580375,52.483625 52.598625,52.635625 52.67925,52.779 C52.7565,52.91525 52.858,53.00025 52.93925,53.08725 C53.08375,53.243125 53.142375,53.370125 53.097625,53.516 C53.051875,53.6645 52.900875,53.732875 52.702,53.666 C52.6281511,53.6408248 52.5590934,53.6033375 52.49775,53.555125 L52.478375,53.503875 L52.538625,53.166625 L52.351875,53.103625 L52.201875,53.592625 L52.2015,53.59275 Z M50.54325,52.8985 L51.79275,53.523125 L52.00175,53.065 L51.843625,52.986 L51.680125,53.237625 L51.631125,53.2635 L51.091375,52.99375 L51.395125,52.327875 L51.697625,52.479125 L51.713875,52.53125 L51.652625,52.727125 L51.790125,52.795875 L52.061,52.20175 L51.9235,52.133 L51.81625,52.306 L51.7675,52.325375 L51.465,52.174125 L51.742875,51.565 L52.20575,51.79625 L52.22075,51.84475 L52.15325,52.087625 L52.31575,52.16925 L52.49925,51.76725 L51.326375,51.181 L51.269125,51.30625 L51.405375,51.39 L51.426125,51.4445 L50.804,52.809 L50.748,52.8315 L50.60025,52.773125 L50.543125,52.8985 L50.54325,52.8985 Z M50.33275,50.624625 L49.704,50.191375 L49.630875,50.307625 L49.754625,50.410125 L49.765375,50.47175 L48.97375,51.729875 L48.9155,51.744 L48.77675,51.66525 L48.703625,51.7815 L49.332375,52.214625 C49.54775,52.363 49.731625,52.43875 49.93675,52.417125 C50.20375,52.390375 50.431375,52.234625 50.60725,51.95525 C50.92025,51.45775 50.83225,50.96925 50.3325,50.624875 L50.33275,50.624625 Z M50.0705,50.634125 L50.1955,50.720375 C50.538,50.956125 50.568,51.286125 50.288,51.731625 C50.008,52.177125 49.704625,52.280375 49.362125,52.044625 L49.237125,51.958375 L50.0705,50.634125 L50.0705,50.634125 Z M55.08025,52.595375 L55.05225,52.731375 L55.198125,52.778375 L55.230375,52.82625 L54.925625,54.305875 L54.87625,54.341375 L54.724625,54.322375 L54.696625,54.458375 L55.40725,54.6155 L55.43525,54.4795 L55.284375,54.43175 L55.253125,54.3785 L55.381875,53.75375 L55.42475,53.763125 C55.679125,53.819375 55.720125,53.953125 55.743875,54.234375 C55.756875,54.37625 55.753875,54.506375 55.862,54.646375 C55.91175,54.712625 55.998,54.766375 56.1065,54.790375 C56.1910331,54.808039 56.2767748,54.8193208 56.363,54.824125 L56.3905,54.690625 L56.35775,54.683375 C56.189,54.646125 56.122,54.587875 56.10025,54.423375 C56.081125,54.274 56.091875,54.119625 56.039,53.980125 C55.999375,53.8785 55.924375,53.806875 55.80975,53.7495 C56.1065,53.754125 56.2885,53.626125 56.341,53.37075 C56.4045,53.062375 56.23725,52.85125 55.846625,52.764875 L55.080625,52.5955 L55.08025,52.595375 Z M55.56425,52.867875 L55.68025,52.8935 C55.9245,52.9475 56.02675,53.1035 55.979875,53.33125 C55.927125,53.586875 55.774625,53.675 55.505125,53.615375 C55.47725,53.609125 55.447125,53.602625 55.414875,53.5925 L55.564125,52.867875 L55.56425,52.867875 Z M64.826,53.029125 L64.847625,53.166375 L65.013875,53.152625 L65.064625,53.18425 L65.3,54.677125 L65.2625,54.729625 L65.10075,54.771375 L65.122375,54.908625 L65.9055,54.774875 L65.883875,54.637625 L65.71225,54.652625 L65.660625,54.6155 L65.56125,53.98525 L65.6085,53.97725 C65.889,53.929375 65.980125,54.0375 66.108125,54.288875 C66.17375,54.4155 66.218875,54.537375 66.380625,54.62475 C66.455875,54.6665 66.563875,54.6825 66.683375,54.66225 C66.7762006,54.6452054 66.8677486,54.6218173 66.957375,54.59225 L66.936125,54.457875 L66.899875,54.464125 C66.714,54.49575 66.624125,54.467875 66.541375,54.323875 C66.466625,54.193 66.420625,54.0455 66.315125,53.936875 C66.237125,53.858125 66.134125,53.82125 65.996125,53.813125 C66.300625,53.700625 66.438875,53.51025 66.39825,53.252625 C66.349125,52.941625 66.1005,52.811375 65.669875,52.885125 L64.8255,53.02925 L64.826,53.029125 Z M65.420625,53.091625 L65.548375,53.06975 C65.81775,53.02375 65.979625,53.1285 66.015875,53.358 C66.0565,53.615875 65.933375,53.757625 65.636375,53.808375 C65.605875,53.813625 65.572625,53.81925 65.536,53.822625 L65.42075,53.09175 L65.420625,53.091625 Z" id="Shape" fill="#000000"></path>
                    <path d="M46.6265375,54.8974 C46.7421625,54.7170275 47.9561325,52.6114625 47.9561325,52.6114625 L47.2905025,52.1228975 C47.0858925,52.7184925 46.3371975,52.9121475 46.2215725,53.6340225 C46.1059475,54.3558975 46.7419775,55.0777725 46.6263525,54.8974 L46.6265375,54.8974 Z" id="Shape" stroke="#000000" stroke-width="0.5" fill="url(#linearGradient-9)" transform="translate(47.081794, 53.524159) scale(-1, 1) translate(-47.081794, -53.524159) "></path>
                    <path d="M46.1125776,54.2449 C46.1125776,54.2449 46.3438276,53.22234 45.5923576,53.1020275 C44.8407026,52.981715 44.4427676,53.67433 44.5517326,53.4027125 C44.6727226,53.101065 45.1298576,52.80115 45.1875776,51.77859 C45.2454826,50.7558375 45.1298576,50.2145275 45.1298576,50.2145275 C45.1298576,50.2145275 45.4188276,48.8908975 46.6329826,49.0714625 C47.8469526,49.2520275 47.9048576,50.2145275 47.9048576,50.575465 C47.9048576,50.9364025 47.7892326,51.116775 47.7892326,51.116775 L46.1125776,54.2449 L46.1125776,54.2449 Z" id="Shape" stroke="#000000" stroke-width="0.5" fill="url(#linearGradient-10)" transform="translate(46.219414, 51.649718) scale(-1, 1) translate(-46.219414, -51.649718) "></path>
                    <path d="M61.001,51.455175 C61.001,51.455175 47.04645,47.362625 47.12785,31.793225 L47.23515,11.21305 L74.76685,11.21305 L74.87489,31.6758 C74.95629,47.245585 61.001185,51.4571 61.001185,51.4571 L61.001,51.455175 Z" id="Shape" stroke="#FFFFFF" stroke-width="0.5" fill-opacity="0.996" fill="#0072C4"></path>
                    <g transform="translate(48.750000, 13.375000)" id="Shape">
                        <path d="M0.28825,2.745375 C0.31125,2.745375 0.48,2.585125 0.6345,2.443875 C0.850375,2.335875 1.05,2.183875 1.2695,2.081875 C1.432875,1.98725 1.75575,1.913875 1.904125,1.840625 C2.0985,1.73875 2.257125,1.621625 2.423625,1.418125 C2.443375,1.148125 2.481125,0.954375 2.481125,0.63375 C2.71075,0.523125 2.9145,0.416 3.115875,0.331875 C3.404625,0.250625 3.467375,0.135125 3.750875,0.090625 C3.933375,0.026875 4.234625,0.03 4.500875,0.03 C4.788,0.03 4.96925,0.234125 5.227125,0.2825 C5.533,0.40575 5.675875,0.49125 5.919625,0.705 C6.057375,0.87925 6.143125,1.021 6.378,1.15225 C6.564,1.247625 6.738,1.39225 6.955125,1.453875 C7.19325,1.592 7.40475,1.672 7.58975,1.876375 C7.759125,1.997 7.829125,2.176 7.9935,2.298875 C8.18425,2.456875 8.365,2.59925 8.57075,2.721375 C8.818,2.886875 9.06325,3.012625 9.463625,2.97675 C9.67575,2.96425 9.904,2.93975 10.156125,2.98675 C10.438625,2.98675 10.714125,2.98175 10.964125,3.047375 C11.2585,3.047375 11.496625,3.087125 11.772,3.107625 C12.03,3.155875 12.293,3.168 12.579875,3.168 C12.830125,3.23325 13.1055,3.22825 13.387875,3.22825 L15.003625,3.22825 C15.297625,3.22825 15.59525,3.24025 15.8115,3.28875 C16.10275,3.28875 16.353125,3.26125 16.619375,3.228125 C16.93275,3.228125 17.171875,3.170625 17.485125,3.167875 L18.466375,3.167875 C18.718125,3.236875 19.040125,3.284125 19.216375,3.409125 C19.447375,3.475125 19.562375,3.584625 19.793375,3.650625 C19.970375,3.741375 20.239,3.885 20.3705,4.072875 C20.533375,4.24325 20.7005,4.487125 20.832125,4.736625 C20.99275,4.9685 21.053875,5.233375 21.178375,5.521125 C21.244375,5.79675 21.29025,6.058875 21.29375,6.36575 C21.3565,6.627375 21.35175,6.91525 21.35175,7.2105 C21.28575,7.4855 21.271375,7.79175 21.1785,8.05525 C21.1685,8.34975 21.10975,8.616125 21.063125,8.83975 C21.011875,9.086625 20.951375,9.2455 20.947625,9.56375 L20.947625,10.4085 C20.927625,10.685625 20.866875,10.889125 20.832375,11.192875 C20.69275,11.456375 20.559125,11.7645 20.428625,12.097875 C20.2365,12.231875 20.069875,12.42225 19.966875,12.58075 C19.84375,12.657 19.772375,12.77225 19.793625,12.822 C20.02425,12.902375 19.966875,13.062875 19.966875,13.365125 C19.996875,13.597625 20.019375,13.886375 20.08225,14.149625 C20.1035,14.4375 20.165,14.613625 20.255375,14.813125 C20.346375,14.931875 20.364125,14.8735 20.139875,14.8735 C19.973125,15.004375 19.804375,14.936 19.736125,14.6925 C19.601375,14.53 19.557125,14.33375 19.50525,14.02875 C19.473375,13.7495 19.42875,13.47725 19.332125,13.305 C19.302625,12.96475 19.212125,12.96825 18.8705,12.94275 C18.708,12.79875 18.493375,12.7615 18.178,12.7615 C17.863875,12.7615 17.8375,12.729625 17.83175,13.0635 L17.83175,13.90825 C17.7775,14.15325 17.658375,14.351625 17.600875,14.572 C17.42875,14.698 17.33925,14.9095 17.13925,15.0545 C17.044,15.328625 16.9055,15.37625 16.61975,15.416625 C16.51975,15.291875 16.357,15.129125 16.2735,14.994375 C16.435125,14.723125 16.57625,14.682375 16.677625,14.391 C16.800125,14.15075 16.872125,13.99475 16.965875,13.7875 C16.84275,13.598 16.732125,13.5125 16.619625,13.244375 C16.524625,13.098375 16.393375,12.784375 16.33125,12.580625 C16.141625,12.51475 15.84325,12.504125 15.69625,12.399625 C15.41625,12.334375 15.338,12.640875 15.00375,12.640875 L14.196,12.640875 C13.83875,12.640875 13.7495,12.840375 13.44575,12.822125 C13.3565,12.850875 13.140125,12.80925 12.81075,12.822125 C12.56975,12.905875 12.27925,12.882125 12.003,12.882125 C11.71025,12.878375 11.47075,12.811125 11.253,12.7615 C10.98775,12.689 10.724,12.61525 10.445,12.580625 C10.10625,12.580625 9.98,12.607625 9.7525,12.7615 C9.5725,12.868375 9.3115,13.112375 9.1175,13.24425 C9.035625,13.4445 8.993,13.783375 8.88675,14.02875 C8.8255,14.264125 8.72575,14.413375 8.656,14.63225 C8.577875,14.836375 8.504,15.0465 8.482875,15.356375 C8.463375,15.763 8.3745,15.71325 8.136625,15.597625 C8.0375,15.429375 7.8795,15.24425 7.790375,15.054625 C7.842875,14.7475 7.902,14.594625 7.905875,14.270125 C7.849625,14.035875 7.718625,14.0435 7.559625,14.20975 C7.559625,14.52575 7.57425,14.769375 7.444125,14.933875 C7.379125,15.18325 7.274625,15.291 7.097875,15.416625 C7.011625,15.640625 6.819625,15.743125 6.63625,15.839125 C6.606875,15.828875 6.63625,15.75825 6.63625,15.597875 C6.498,15.321875 6.62625,15.092875 6.62625,14.752875 C6.63,14.44825 6.6125,14.246375 6.700875,13.9685 C6.700875,13.676 6.56525,13.39775 6.520875,13.184125 C6.413625,12.96 6.35175,12.849125 6.05925,12.761625 C5.853625,12.68 5.5575,12.5695 5.42425,12.399625 C5.25675,12.182125 5.149875,12.092875 4.905125,11.977125 C4.639625,11.880875 4.51075,11.793 4.328125,11.675375 C4.14975,11.478625 4.00475,11.393375 3.924125,11.1325 C3.803625,10.946875 3.782875,10.60225 3.69325,10.347875 C3.673625,10.082875 3.59775,9.836875 3.52025,9.623875 C3.486,9.358875 3.44425,9.165125 3.347125,8.89975 C3.315,8.65175 3.243375,8.39225 3.174125,8.115625 C3.174125,7.820375 3.179125,7.53225 3.116375,7.270625 L3.116375,6.426 C3.074875,6.18225 3.0595,5.825125 3.001,5.6415 C3.001,5.31325 2.966,5.12775 2.885625,4.917375 C2.753625,4.704375 2.742875,4.608625 2.539375,4.5555 C2.392375,4.743 2.150125,4.8195 1.846875,4.857375 C1.635,4.809 1.336125,4.777625 1.096625,4.676125 C0.865375,4.61925 0.707,4.52775 0.5195,4.434875 C0.417,4.277125 0.2945,4.098625 0.17325,3.952125 C0.1375,3.637125 0.06875,3.474625 0.057875,3.16775 C0.057875,2.937375 0.063375,3.059625 0.288625,2.74525 L0.28825,2.745375 Z" fill="#BCBCBC"></path>
                        <path d="M3.70625,4.919625 L3.74725,4.877125 C3.6545,4.973875 3.6885,4.927125 3.9105,4.83425 C4.034625,4.756125 4.2705,4.618375 4.35925,4.5355 C4.466,4.48675 4.6355,4.423 4.7265,4.322375 C4.84025,4.201125 4.954,4.100375 5.09375,3.980875 C5.255375,3.84375 5.406,3.79875 5.5835,3.682125 C5.814375,3.665 5.898,3.566125 6.113875,3.639625 C6.316625,3.6855 6.400625,3.68675 6.562875,3.5115 C6.726625,3.4065 6.907,3.30475 6.971,3.127375 L6.971,2.871625 C6.967875,3.150375 6.917625,3.24075 6.726,3.34075 C6.592625,3.49375 6.42625,3.66675 6.358875,3.81025 C6.22925,3.99775 6.20175,4.10275 6.07325,4.19425 C5.96775,4.328625 5.78675,4.39975 5.747,4.62075 C5.805,4.722375 5.752,4.778 5.869125,4.7915 C5.987375,4.893 6.110375,4.84975 6.27725,4.7915 C6.44325,4.599375 6.517875,4.47525 6.60375,4.279625 C6.740625,4.0925 6.81725,4.003375 6.88925,3.852875 C7.031125,3.75 7.12125,3.669875 7.175,3.511625 C7.339125,3.415375 7.474125,3.314375 7.582875,3.212875 C7.704875,3.134375 7.769625,3.070625 7.950125,3.042125 C7.947625,3.27125 7.913875,3.379625 7.827875,3.5115 C7.78725,3.749 7.795375,3.86175 7.868625,4.0235 C7.985875,4.096 7.965125,4.159 8.031875,4.32225 C8.098375,4.181 8.132125,3.895375 8.154375,3.72475 L8.154375,3.682 C8.154375,3.868625 8.171375,4.116125 8.1135,4.23675 C8.11625,4.4855 8.1715,4.5965 8.236,4.791375 C8.30475,4.885375 8.35325,4.946375 8.44,5.00475 C8.448,4.7585 8.5095,4.596375 8.5215,4.36475 C8.578375,4.5435 8.559375,4.77975 8.603125,4.962 C8.617875,5.162875 8.690625,5.3185 8.766375,5.474125 C8.859375,5.531625 8.891,5.70075 8.9295,5.5595 C9.026125,5.25925 9.0285,4.93075 9.09275,4.62075 C9.1045,4.46325 9.117125,4.229125 9.1745,4.10875 L9.092875,4.620625 C9.104625,4.463125 9.11725,4.229125 9.174625,4.10875 L9.174625,4.06625 C9.21275,4.290875 9.24875,4.507875 9.25625,4.74875 C9.25625,4.94075 9.24375,5.13625 9.297125,5.303375 C9.432875,5.2405 9.5115,5.093375 9.58275,4.91925 C9.6915,4.713 9.765875,4.6215 9.909,4.45 L9.58275,4.91925 C9.6915,4.713 9.765875,4.6215 9.909,4.45 L9.909,4.4075 C9.8865,4.604125 9.868375,4.7895 9.868375,5.004625 C9.868375,5.201375 9.866125,5.424375 9.909125,5.559375 C9.95725,5.785625 10.022875,5.8275 10.031625,6.07125 C10.031625,6.19 10.016125,6.31125 10.0725,6.37 C10.24825,6.415875 10.24875,6.3135 10.2765,6.07125 C10.278625,5.796 10.349,5.608375 10.35775,5.346 C10.35775,5.02225 10.403625,5.3855 10.4395,5.51675 C10.522,5.70675 10.5475,5.87575 10.562,6.071375 C10.562,6.190125 10.546625,6.311375 10.60275,6.370125 C10.76025,6.30475 10.82275,6.120625 10.92925,6.028625 C11.0105,5.826625 11.0945,5.737375 11.17425,5.602375 C11.3855,5.558 11.375125,5.471125 11.378,5.21825 C11.378,5.014125 11.362125,4.79925 11.419,4.62075 C11.484375,4.435375 11.546,4.229 11.582125,4.06625 C11.658375,4.02075 11.740875,4.1335 11.785875,4.237 C11.875375,4.3745 11.867625,4.575125 11.867625,4.791625 C11.906875,4.980375 11.985375,5.127875 12.071625,5.303625 C12.173875,5.50075 12.257,5.62025 12.35725,5.73025 C12.40025,5.86525 12.398125,6.08825 12.398125,6.284875 C12.557125,6.10425 12.5875,5.835125 12.602125,5.559625 C12.580875,5.372125 12.576875,5.138625 12.5205,4.962125 C12.514,4.77425 12.4805,4.58025 12.438875,4.45025 C12.301125,4.384 12.279375,4.32525 12.398125,4.1515 C12.529375,4.038 12.67125,4.081875 12.887875,4.109 C12.997375,4.223375 13.042375,4.284625 13.051,4.53525 C13.051,4.76275 13.060625,4.9375 13.132625,5.09025 C13.212625,5.213 13.291625,5.297375 13.336375,5.516875 C13.399125,5.570375 13.447625,5.656875 13.540625,5.559625 C13.591875,5.434625 13.621875,5.176875 13.663125,5.0475 C13.702875,4.885625 13.77475,4.80625 13.867125,4.74875 C13.867125,4.98625 13.864375,5.132 13.94875,5.30375 C14.0285,5.49425 14.084,5.565875 14.1525,5.773125 C14.239625,5.83375 14.25075,5.964375 14.356625,6.028875 C14.381625,5.828625 14.3975,5.59925 14.3975,5.346375 L14.3975,4.748875 C14.4125,4.54575 14.46175,4.431375 14.52,4.279875 C14.65125,4.443625 14.6425,4.511375 14.6425,4.749 C14.776625,4.699 14.799125,4.60275 14.84625,4.450625 C14.942125,4.36625 14.96825,4.326875 15.0095,4.535625 C15.03825,4.759 15.092625,4.96 15.132,5.175875 C15.21575,5.274375 15.312875,5.512875 15.417625,5.602625 C15.4895,5.7245 15.570125,5.842625 15.662625,5.943875 C15.726125,6.08425 15.742375,6.157625 15.907375,6.19975 C15.907375,5.911 15.917,5.621375 15.866625,5.3465 C15.866625,5.1015 15.813125,5.014 15.785,4.791875 C15.716875,4.64475 15.676875,4.427875 15.70325,4.365375 C15.8945,4.555 15.98075,4.665125 16.0705,4.877375 C16.16625,5.082375 16.24675,5.22025 16.31525,5.432 C16.409625,5.513 16.57675,5.75575 16.64175,5.85875 C16.787375,5.98875 16.858375,6.1245 17.009,6.2425 C17.086875,6.316 17.2515,6.357 17.294625,6.328 C17.287125,6.078 17.249125,5.863 17.172125,5.6455 C17.169625,5.40675 17.114875,5.277 17.049875,5.1335 C16.88925,4.995 16.767375,4.900625 16.682375,4.70675 C16.61925,4.65275 16.606875,4.612375 16.60075,4.493625 C16.83525,4.687625 16.999125,4.860625 17.172,5.09075 C17.289,5.242375 17.3485,5.311125 17.498625,5.3895 C17.579875,5.48075 17.81675,5.59425 17.988125,5.6455 C18.091,5.78175 18.228375,5.86025 18.39625,5.90175 L17.98825,5.6455 C18.091125,5.78175 18.2285,5.86025 18.396375,5.90175 L18.396375,5.94425 C18.376,5.677375 18.278,5.482375 18.151625,5.2615 C18.045375,5.028 17.947875,4.9415 17.784375,4.792125 C17.677625,4.623125 17.558125,4.523375 17.376375,4.408375 C17.263875,4.275875 17.095125,4.055875 17.009125,3.9815 C17.183125,3.87225 17.3875,4.0555 17.580375,4.15225 C17.739625,4.32475 17.8885,4.54975 17.988375,4.664125 C18.097125,4.88325 18.1805,5.018875 18.355875,5.21875 C18.5315,5.323 18.653375,5.42625 18.804625,5.56 C19.038375,5.62475 18.945125,5.53925 18.88625,5.34675 C18.805375,5.106 18.87725,5.10225 19.049375,5.2615 C19.162875,5.342375 19.289375,5.477125 19.45725,5.56025 C19.52975,5.65425 19.639375,5.7065 19.743,5.6455 C19.786125,5.58525 19.78375,5.592125 19.78375,5.5175 C19.697875,5.25275 19.618125,5.046625 19.4165,4.96275 C19.324,4.845 19.17375,4.704875 19.049375,4.57875 C18.968125,4.45375 18.873375,4.38175 18.804375,4.2375 L19.049375,4.57875 C18.968125,4.45375 18.873375,4.38175 18.804375,4.2375 L18.763625,4.2375 C19.009875,4.246625 19.097625,4.309125 19.293875,4.40825 C19.433875,4.45925 19.58475,4.592625 19.661375,4.70675 C19.74075,4.812375 19.86825,4.925875 19.946875,5.048 C20.07225,5.144625 20.210625,5.2545 20.355,5.34675 C20.490875,5.524875 20.51525,5.64075 20.518375,5.90175 C20.596625,6.02225 20.610625,6.269 20.640625,6.4135 C20.610625,6.648125 20.530375,6.463875 20.518375,6.328125 C20.48375,6.13975 20.412125,6.149625 20.273375,6.20025 C20.273375,6.458 20.301875,6.5285 20.395875,6.71225 C20.370375,6.8885 20.311875,7.01725 20.232625,7.139 C20.137625,7.19575 20.117,7.0135 20.028875,6.925625 C20.019375,6.661875 19.945125,6.63275 19.783875,6.498875 L19.783875,6.669625 C19.874875,6.85175 19.971,7.01775 19.987875,7.267125 C20.050875,7.457125 20.0695,7.577375 20.0695,7.821625 C20.0695,8.030375 20.072875,8.234125 20.02875,8.419125 C20.02875,8.650375 19.990375,8.74975 19.98775,8.97375 L19.98775,10.1685 C19.9565,10.319375 19.947,10.516 19.947,10.723 L19.98775,10.16825 C19.9565,10.31925 19.947,10.516 19.947,10.722875 L19.947,10.765375 C19.8695,10.551 19.785,10.357 19.743,10.125375 C19.61075,9.9945 19.52675,9.859625 19.45725,9.69875 C19.426,9.51575 19.4065,9.292125 19.375625,9.144 C19.318125,8.993625 19.25725,8.83325 19.130625,8.93075 C19.080625,9.24875 19.143875,9.43825 19.253125,9.74125 C19.31725,9.94225 19.31025,10.10025 19.375625,10.296 C19.47025,10.521625 19.54625,10.554 19.375625,10.807875 C19.2915,10.943375 19.246375,10.98625 19.212375,11.149375 C19.061375,11.228375 19.023625,11.2635 19.008375,11.448125 C18.957625,11.282125 18.83425,11.087625 18.763375,10.893375 C18.690375,10.689125 18.600125,10.47925 18.559625,10.296125 C18.4605,10.15325 18.344375,9.922125 18.233,9.82675 C18.1305,9.689 17.983375,9.45925 17.9065,9.314875 C17.75025,9.13275 17.71575,9.027375 17.58025,8.931125 C17.54525,8.84575 17.50375,8.739375 17.417,8.803 C17.417,9.007 17.40075,9.22175 17.45775,9.400125 C17.499,9.65175 17.5715,9.791375 17.58025,10.040125 L17.58025,10.509625 C17.482125,10.26925 17.3775,10.054625 17.2945,9.826875 C17.205375,9.699625 17.11825,9.4515 17.008875,9.357625 C16.9395,9.192125 16.885375,9.054875 16.804875,8.931125 C16.784,8.807125 16.729125,8.808625 16.682375,8.71775 C16.685125,8.959625 16.758625,9.044375 16.804875,9.229625 C16.884375,9.392125 16.909875,9.664625 16.8865,9.741625 C16.783625,9.442625 16.6905,9.115625 16.56,8.84575 C16.43625,8.6705 16.315625,8.44525 16.23375,8.291125 C16.11225,8.144625 15.9875,8.139875 15.8665,8.035125 C15.75625,7.9805 15.65075,7.919375 15.580875,7.82175 C15.613,8.04675 15.69675,8.18725 15.744,8.3765 C15.770875,8.591 15.86525,8.76275 15.90725,8.93125 C15.861875,9.223125 15.796,8.85025 15.744,8.717875 C15.701,8.477625 15.6215,8.344125 15.54,8.20575 C15.430625,8.128 15.33125,7.989875 15.2135,7.907 C15.099,7.861125 15.131875,7.915375 15.131875,8.07775 C15.131875,8.34175 15.1415,8.516125 15.2135,8.67525 C15.295,8.80025 15.295125,8.9635 15.295125,9.187 C15.288125,9.397 15.2545,9.56575 15.2545,9.7845 L15.2545,10.125 C15.16075,9.94375 15.072,9.840625 15.0095,9.613 C14.868,9.41925 14.826,9.277 14.723875,9.0585 C14.633375,9.020375 14.486125,8.989 14.397625,9.0585 C14.4135,9.274375 14.508875,9.369375 14.520125,9.613 C14.357375,9.779625 14.38675,9.827125 14.275125,9.5705 C14.182125,9.375875 14.073875,9.385 13.948875,9.27175 C13.743875,9.245 13.808875,9.113875 13.744625,8.9305 C13.744625,8.766125 13.760875,8.60025 13.703875,8.461 C13.480125,8.461 13.351875,8.453 13.21425,8.589125 C13.1495,8.724125 13.172375,8.96825 13.21425,9.143625 L13.21425,9.740875 C13.16775,9.890375 13.0755,9.898375 13.051,10.082125 C12.97225,10.264375 12.946,10.465375 12.887875,10.594375 C12.7425,10.725625 12.805625,10.742125 12.724625,10.509 L12.724625,9.143375 C12.724625,8.911625 12.758,8.798625 12.765375,8.589 C12.68075,8.412125 12.657875,8.379 12.398125,8.375625 C12.334875,8.485875 12.359,8.690625 12.398125,8.802375 C12.398125,9.009125 12.4075,9.206125 12.438875,9.356875 C12.438875,9.5835 12.465625,9.720875 12.47975,9.911625 C12.472,10.137875 12.42975,10.317875 12.3165,10.423625 C12.169375,10.462125 12.3005,10.55575 12.153375,10.594375 C12.005875,10.520375 11.832375,10.419875 11.704625,10.295625 C11.545875,10.245125 11.396375,10.210375 11.174125,10.210375 C10.903625,10.206875 10.899125,10.174125 10.806875,9.954125 C10.724125,9.719125 10.68525,9.514875 10.643625,9.271625 C10.553875,9.071875 10.532875,8.93575 10.480375,8.717 C10.411875,8.586625 10.33875,8.48825 10.23575,8.41825 C10.176625,8.634 10.121125,8.8145 10.11325,9.05825 C10.0655,9.15825 10.0555,9.4125 10.03175,9.5275 C9.949875,9.40125 9.91775,9.153125 9.868625,8.973125 C9.791125,8.714375 9.725125,8.546375 9.4605,8.631875 C9.185875,8.63525 9.178,8.643125 9.17475,8.930625 C9.293,9.115625 9.41925,9.295375 9.50125,9.442375 L9.50125,10.039625 C9.50125,10.28625 9.515625,10.357625 9.338,10.423625 C9.2705,10.167625 9.127,9.92325 8.97075,9.69825 C8.9495,9.52425 8.89575,9.57025 8.726125,9.57025 C8.612375,9.57025 8.4965,9.55425 8.440375,9.61275 C8.440375,9.7615 8.4525,9.968 8.440375,9.997 C8.341875,10.015125 8.302125,9.996 8.23625,9.911625 C8.165,10.03575 8.21875,10.21075 8.23625,10.381 C8.184375,10.57075 8.1225,10.744125 8.032125,10.850125 C8.014125,10.793375 7.973375,10.807375 8.032125,10.807375 C7.752125,10.699875 7.533,10.633625 7.29775,10.55175 C7.156,10.57 7.053125,10.7005 6.971125,10.8075 C6.763625,10.8775 6.672,10.93275 6.440625,10.935625 C6.218625,10.935625 6.110625,10.970625 5.910125,10.978375 C5.76575,11.011125 5.577375,11.020875 5.379625,11.020875 C5.269875,10.988375 5.078375,10.987375 5.012125,10.935625 C5.0965,10.81 5.190375,10.7465 5.257125,10.551875 C5.368875,10.47225 5.473625,10.370375 5.583625,10.253125 C5.691125,10.1765 5.817375,10.01775 5.909875,9.911875 C5.973625,9.70625 6.061125,9.670625 6.195625,9.570375 C6.438125,9.579875 6.485625,9.656875 6.726125,9.698375 C6.961125,9.787375 7.091125,9.813625 7.215875,9.655875 C7.410875,9.573375 7.576125,9.444625 7.787125,9.399625 C7.9505,9.318 8.055125,9.238625 8.195125,9.143625 C8.368875,9.039 8.451375,8.931625 8.60325,8.802375 C8.646625,8.628375 8.7695,8.494 8.72575,8.29025 C8.504875,8.2325 8.3645,8.255625 8.236,8.375625 C8.05725,8.52275 8.0235,8.583875 7.827875,8.716875 C7.658875,8.765 7.586625,8.839375 7.379125,8.887625 C7.2085,8.947125 7.002875,8.930375 6.807875,8.930375 C6.629375,8.930375 6.392625,8.912625 6.27725,8.972875 C6.45875,8.85075 6.676875,8.72375 6.8485,8.674125 C7.01325,8.563625 7.0755,8.507625 7.2975,8.503625 C7.400375,8.368875 7.506625,8.3655 7.542,8.162375 C7.611125,7.909875 7.3915,7.989875 7.21575,8.076875 C7.049875,8.107375 6.867,8.22475 6.726,8.29025 C6.58975,8.33775 6.391,8.373125 6.1955,8.375625 C6.144,8.29875 6.23575,8.237375 6.277125,8.119375 C6.46775,8.051875 6.498375,8.027125 6.522125,7.820875 C6.305875,7.850875 6.223375,7.921875 6.032125,7.948875 C5.824,8.003375 5.607875,8.027625 5.379625,8.03425 L4.808125,8.03425 C4.607625,8.0265 4.499375,7.9915 4.27775,7.9915 C4.11525,7.9065 4.1145,7.86625 4.1145,7.6075 C4.2425,7.4605 4.367,7.47975 4.604125,7.47975 C4.786625,7.39 4.92875,7.34225 5.052875,7.266375 C5.20075,7.234625 5.301625,7.171375 5.257,7.095875 L4.68575,7.095875 C4.46575,7.00275 4.67575,6.960125 4.80825,6.8825 C5.006625,6.8825 5.211375,6.894125 5.338625,6.96775 C5.584,6.95825 5.6695,6.880625 5.868875,6.7115 C6.025125,6.58275 6.101875,6.500625 6.277,6.413 C6.40275,6.27425 6.5215,6.197625 6.6035,6.07175 C6.77125,5.91175 6.88225,5.82325 6.970625,5.68775 C7.078625,5.62825 7.144625,5.5515 7.093125,5.474375 C6.837375,5.505625 6.733875,5.5985 6.5625,5.730375 C6.463,5.8295 6.36625,5.91825 6.236,5.986375 C6.05225,6.095625 5.937875,6.139875 5.70575,6.157 C5.49625,6.157 5.33525,6.122 5.1345,6.1145 C4.91275,6.09125 5.11675,6.0395 5.175125,5.943875 C5.260875,5.883875 5.327625,5.751125 5.25675,5.645125 C5.086125,5.58575 4.88075,5.602625 4.6855,5.602625 L4.11425,5.602625 C3.898625,5.59425 3.807375,5.54475 3.6655,5.4745 C3.621375,5.35475 3.67325,5.389125 3.828625,5.389125 C4.025375,5.381375 4.164875,5.354625 4.35925,5.30375 C4.551125,5.249 4.575125,5.185 4.604,4.96225 C4.41575,4.96225 4.20275,4.96475 4.073625,4.91975 L3.706125,4.91975 L3.70625,4.919625 Z M0.172,3.95225 C0.136125,3.63725 0.0675,3.47475 0.0565,3.167875 C0.0565,2.9375 0.062125,3.05975 0.287375,2.745375 C0.310125,2.745375 0.478875,2.585125 0.633625,2.443875 C0.849375,2.335875 1.049,2.183875 1.268375,2.081875 C1.43175,1.98725 1.754625,1.913875 1.903,1.840625 C2.0975,1.73875 2.256125,1.621625 2.4225,1.418125 C2.4425,1.148125 2.4805,0.954375 2.4805,0.63375 C2.71,0.523125 2.913625,0.416 3.115125,0.331875 C3.404125,0.250625 3.466625,0.135125 3.750125,0.090625 C3.932625,0.026875 4.234125,0.03 4.500125,0.03 C4.787375,0.03 4.9685,0.234125 5.226375,0.2825 C5.53225,0.40575 5.675125,0.49125 5.918875,0.705 C6.05675,0.87925 6.142375,1.021 6.377375,1.15225 C6.56325,1.247625 6.737375,1.39225 6.954375,1.453875 C6.95625,1.67175 7.002625,1.634125 6.847125,1.634125 C6.830625,1.857375 6.777125,1.8435 6.561375,1.8475 C6.41194535,1.7666993 6.28555638,1.64917219 6.194125,1.506 C6.27575,1.284375 6.221625,1.685375 6.194125,1.762 C6.089125,1.84825 6.026875,1.94025 5.9085,1.847375 C5.84225,1.639125 5.78625,1.49525 5.78625,1.249875 C5.755,0.983375 5.6805,1.176875 5.622875,1.29275 C5.567625,1.50775 5.592875,1.585625 5.663625,1.761875 C5.455375,1.761875 5.295875,1.74225 5.133,1.719375 C4.98175,1.681625 4.8115,1.727875 4.64325,1.804625 C4.4295,1.93875 4.496125,1.939625 4.6025,2.103375 C4.79125,2.158875 4.926625,2.263375 5.0925,2.359375 C5.280625,2.321875 5.4775,2.28 5.66375,2.23125 C5.858125,2.16375 6.03625,2.20675 6.235,2.23125 C6.3335,2.283 6.463125,2.293375 6.5205,2.3595 C6.5205,2.491375 6.531,2.62925 6.47975,2.70075 C6.39475,2.75725 6.31425,2.91325 6.194,2.956625 C6.014,3.05975 5.82525,3.124625 5.62275,3.17 C5.37275,3.1795 5.2815,3.234375 5.092375,3.34075 C5.061125,3.556375 4.99825,3.61725 4.8065,3.682 C4.61575,3.765375 4.464,3.810125 4.23525,3.810125 C4.12175,3.810125 4.005875,3.826375 3.949625,3.767625 C4.131375,3.560125 4.185875,3.462625 4.276125,3.2555 C4.311375,3.16925 4.38525,3.11375 4.317,3.042125 C4.07525,3.051625 4.012,3.05 3.9905,3.298125 C3.963,3.522875 3.87675,3.560625 3.704875,3.639375 C3.751125,3.431375 3.758875,3.2715 3.827375,3.084875 C3.682875,3.117625 3.494625,3.127375 3.29675,3.127375 C3.173,3.205875 3.12175,3.236375 3.17425,3.383625 C3.01025,3.440625 2.8105,3.4055 2.603,3.383625 C2.42975,3.374125 2.5255,3.2955 2.39925,3.212875 C2.316375,3.050375 2.22125,3.010875 2.03175,2.9995 C1.93775,3.117 1.763625,3.16575 1.6645,3.2555 C1.48575,3.318 1.372,3.266125 1.21575,3.170125 C1.012,3.176375 1.03925,3.242125 1.09325,3.3835 C1.171,3.43775 1.0885,3.496875 1.21575,3.5115 C1.333,3.618 1.43325,3.639625 1.6645,3.639625 C1.841375,3.593375 2.03625,3.597125 2.23575,3.597125 C2.43725,3.603375 2.399125,3.650875 2.399125,3.853 C2.267375,3.94625 2.075375,3.938375 1.8685,3.938375 C1.6715,3.913875 1.5205,3.862875 1.378875,3.810375 C1.187625,3.79625 1.034875,3.75975 0.889125,3.810375 C0.823375,3.88325 0.625375,3.915125 0.848375,3.9385 C0.935875,4.021 1.408125,3.98125 1.44175,4.12175 C1.553,4.2455 1.52825,4.408 1.338,4.408 C1.222375,4.347625 1.133,4.3625 1.05225,4.408 C0.9165,4.443625 0.755125,4.41775 0.518,4.4355 C0.827625,4.461 0.293,4.09925 0.17175,3.95275 L0.172,3.95225 Z" fill="#FEFEFE"></path>
                        <path d="M1.460875,2.53125 C1.447375,2.53125 1.3255,2.615875 1.215875,2.70175 C1.03675,2.79775 0.84525,2.961125 0.726375,3.043 C0.632875,3.118 0.633375,3.15075 0.522625,3.17125 C0.717,3.14375 0.803625,3.094125 0.971375,3.0005 C1.18325,2.975 1.388625,2.93 1.501875,2.829875 C1.608125,2.792625 1.493875,2.622375 1.461,2.531125 L1.460875,2.53125 Z M3.339,0.525 C3.362375,0.525 3.41025,0.658375 3.502,0.73825 C3.56075,0.902 3.614875,1.017625 3.6245,1.207625 C3.6745,0.99925 3.76,0.831625 3.787625,0.610375 C3.72425,0.497875 3.720125,0.445375 3.542875,0.43975 C3.542875,0.555 3.556375,0.47975 3.339125,0.525 L3.339,0.525 Z" fill="#BCBCBC"></path>
                        <path d="M2.1916,2.028025 C2.10021,2.028025 2.35255,1.933315 2.43691,1.9003975 C2.50425,1.75275 2.557715,1.6482225 2.68222,1.56025 C2.887015,1.5766125 2.98747,1.63802 3.09107,1.77277 C3.26312,1.821665 3.325095,1.9069425 3.54062,1.94294 C3.62091,2.013395 3.72932,2.02148 3.54062,2.0705675 C3.4126,2.141215 3.251465,2.155845 3.05037,2.155845 C2.83947,2.17163 2.688695,2.2199475 2.559565,2.2834725 C2.285765,2.2834725 2.32961,2.2930975 2.191415,2.0282175 L2.1916,2.028025 Z" stroke="#000000" stroke-width="0.1" fill="#C4C4C2"></path>
                        <path d="M4.072,0.5675 L4.072,0.61 C4.072,0.495 4.0695,0.55375 4.112875,0.78075 C4.180375,0.923875 4.1945,1.077375 4.1945,1.292875 C4.301625,1.212875 4.391,1.053375 4.4395,0.90875 C4.4395,0.571875 4.39375,0.59175 4.072,0.5675 L4.072,0.5675 Z M5.5825,5.47375 L5.623375,5.47375 C5.503375,5.47375 5.570875,5.48125 5.786625,5.34575 C5.92625,5.2485 6.040375,5.1045 6.235625,5.047 C6.424375,4.892 6.56975,4.8195 6.765875,4.7485 C6.861625,4.702625 6.945875,4.622875 7.051625,4.706 C7.02125,4.916375 6.986375,4.996 6.806625,5.08975 C6.713875,5.211375 6.567625,5.28225 6.439625,5.34575 C6.306875,5.40675 6.160875,5.409875 6.113125,5.559125 C5.891125,5.66125 5.863875,5.644125 5.582625,5.47375 L5.5825,5.47375 Z M6.358125,6.7115 C6.431,6.654 6.6865,6.3875 6.806875,6.285 C6.943125,6.097125 7.081,5.953375 7.215,5.85825 C7.334,5.675125 7.48625,5.5525 7.5825,5.388875 C7.69575,5.2455 7.779125,5.123875 7.90875,4.962375 C7.90875,5.148875 7.89175,5.396125 7.949375,5.517 C7.949375,5.77475 7.921,5.84525 7.827125,6.029 C7.734625,6.18025 7.665375,6.28025 7.459875,6.3705 C7.274375,6.47325 7.16325,6.50925 7.010875,6.626375 C6.894625,6.701 6.77375,6.775375 6.643375,6.839625 C6.526875,6.892125 6.580375,6.869125 6.358,6.711625 L6.358125,6.7115 Z M5.09325,7.6925 L5.134,7.6925 C5.014,7.6925 5.0815,7.69975 5.29725,7.564375 C5.471375,7.38225 5.610125,7.319 5.827875,7.223125 C5.9935,7.209625 6.193875,7.166625 6.3175,7.095 C6.41625,7.07675 6.485,7.014 6.56225,7.095 C6.690375,7.27625 6.725625,7.32725 6.521375,7.43625 C6.423875,7.523 6.251625,7.61025 6.113625,7.64975 C6.01175,7.7375 5.809875,7.743 5.623875,7.77775 C5.457125,7.77775 5.3645,7.797375 5.297375,7.692375 L5.623875,7.777625 C5.457125,7.777625 5.3645,7.79725 5.093375,7.69225 L5.09325,7.6925 Z M6.8475,7.6925 L6.8475,7.64975 C6.8475,7.768875 6.8425,7.70575 6.929125,7.479 C7.082125,7.24025 7.139625,7.108625 7.33725,7.05225 C7.42975,6.93525 7.590125,6.905 7.786,6.838875 C7.85975,6.96725 7.803125,7.11675 7.786,7.26575 C7.732875,7.425125 7.58725,7.5375 7.5005,7.649875 C7.37325,7.74025 7.321375,7.827125 7.13325,7.863125 C6.9775,7.863125 7.060125,7.859125 6.8475,7.6925 L6.8475,7.6925 Z" fill="#BCBCBC"></path>
                        <path fill="#000000"></path>
                    </g>
                    <g transform="translate(52.000000, 27.125000)" stroke="#002B0D" stroke-opacity="0.996" id="Shape" fill="#005120" fill-opacity="0.996">
                        <path d="M0.20615,0.01925 L0.36969,0.01925 C-0.14276,0.01925 0.163415,-0.0163625 1.023665,0.6997375 C1.38386,0.38731 1.379605,0.3451525 1.67764,0.8699075 C1.84969,1.1682825 1.900195,0.8391075 2.16789,0.5295675 C2.29739,1.1474925 2.3799,1.7958325 2.822235,1.210055 C3.327285,1.210055 3.856385,1.1663575 4.130185,1.380225 C4.461335,2.02048 4.35311,1.2718475 4.62099,1.5505875 C5.34101,1.640485 5.32732,0.9080225 6.111535,0.7186025 C6.59901,1.352505 6.812685,0.8649025 7.419855,0.548625 C7.870885,0.67991 8.296015,1.391775 8.381855,0.6997375 C8.751115,0.0729575 8.783305,0.1260875 9.036015,0.6997375 C9.394915,1.0362275 9.546615,0.5314925 9.853715,0.35959 C10.400945,0.692615 11.011445,0.738815 11.815825,0.52976 C11.951985,1.09648 12.295345,0.8506575 12.633525,0.6997375 C13.356875,1.016015 13.60903,1.1128425 14.432095,0.6997375 C14.839835,0.1984675 14.608955,0.71379 14.922345,1.0400775 C15.53229,0.84315 15.36394,0.8013775 16.067495,0.8699075 C16.774195,0.8699075 16.831545,0.852005 17.048365,0.3593975 C17.403565,0.7289975 17.531955,0.9954175 18.02942,0.5295675 C18.79162,0.5526675 18.55593,0.6296675 19.01066,0.3593975 C19.34699,1.1344025 19.425985,0.57442 19.82836,0.8695225 C19.563255,1.5686825 19.156255,1.89651 18.68358,2.2308825 C18.36908,2.7729625 18.17224,3.358355 17.5388,3.5922425 C17.07667,4.0827325 16.5842,4.367055 16.067125,4.78324 C15.358205,4.9674625 14.577875,4.9532175 13.77775,4.9532175 L6.91055,4.9532175 C6.42215,5.2073175 5.62295,5.3282075 4.94807,5.4633425 C4.194195,5.4633425 3.33968,5.4729675 2.82242,5.293365 C2.471845,4.92877 1.85672,4.52144 1.51447,4.1023675 C1.167595,3.8116925 1.15742,3.2438175 0.860125,2.91137 C0.586325,2.424345 0.501965,1.662815 0.20615,1.20967 L0.20615,0.01925 L0.20615,0.01925 Z" stroke-width="0.1"></path>
                        <path d="M16.0662,1.55155 L16.0662,1.72172 C16.0662,1.246245 16.08655,1.498805 15.73912,2.4022075 C15.66882,2.6216575 15.5149,2.673055 15.2485,2.742355 L16.0662,1.55155 Z M14.59545,2.231075 L14.75899,2.231075 C14.153485,2.8259 13.74593,3.1002125 13.61421,3.7624125 L14.75899,2.231075 C14.153485,2.8259 13.74593,3.1002125 13.61421,3.7624125 L14.59545,2.231075 Z M12.30515,1.38215 C12.30515,1.39755 12.28221,1.9891025 12.14161,2.233 L12.30515,1.38215 Z M11.6521,2.5718 L11.6521,2.74197 L11.6521,2.5718 L11.6521,2.5718 Z M10.34415,1.55155 L10.50769,1.55155 L10.34415,1.55155 L10.34415,1.55155 L10.34415,1.55155 Z M1.18665,1.55155 C1.26472,1.55155 1.58625,2.091705 2.00435,2.4024 C1.900195,2.9000125 1.740355,3.4759725 2.00435,3.933545 L1.18665,1.55155 Z M2.4946,2.5718 C2.57267,2.5718 2.8942,3.1121475 3.3123,3.42265 L2.4946,2.5718 C2.57267,2.5718 2.8942,3.1121475 3.3123,3.42265 L3.3123,3.59282 C3.3123,3.067295 3.270305,2.516745 3.475655,2.23146 C3.65751,2.5515875 3.887095,3.0663325 3.966275,2.5718 C4.887205,2.537535 5.331575,2.26842 5.92857,2.061675 C5.92857,2.311925 5.88972,2.19142 6.09211,2.40163 L2.4946,2.5718 Z M17.21135,1.72095 L17.37489,1.72095 C17.066495,1.988525 16.82988,2.533685 16.55719,2.9119475 L17.21135,1.72095 Z M10.50695,1.210825 L11.8149,1.210825 L10.50695,1.210825 Z" stroke-width="0.2"></path>
                    </g>
                    <path d="M51.70125,29.91775 C49.7385,29.91775 49.088,31.969 47.125,31.969 C47.08725,31.969 47.0515,31.966 47.014625,31.964625 L47.014625,32.08875 C47.007125,33.510625 47.119,34.835 47.322875,36.07175 C49.1335,35.9395 49.806125,34.0205 51.701375,34.0205 C53.664375,34.0205 54.3195,36.07625 56.282625,36.07625 C58.24575,36.07625 58.9005,34.020375 60.863375,34.020375 C62.82625,34.020375 63.481375,36.07625 65.444375,36.07625 C67.407375,36.07625 68.062375,34.020375 70.02525,34.020375 C71.915625,34.020375 72.59025,35.925875 74.39025,36.067 C74.60575,34.79725 74.719625,33.43325 74.712,31.969 L74.712,31.964375 C74.67525,31.965875 74.6395,31.969 74.601625,31.969 C72.638875,31.969 71.988375,29.91775 70.025375,29.91775 C68.062375,29.91775 67.407375,31.969 65.4445,31.969 C63.481625,31.969 62.8265,29.91775 60.8635,29.91775 C58.9005,29.91775 58.2455,31.969 56.282625,31.969 C54.31975,31.969 53.664625,29.91775 51.70175,29.91775 L51.70125,29.91775 Z M51.70125,37.92575 C50.1745,37.92575 49.44,39.1635 48.265625,39.714875 C48.656677,40.7916973 49.1446797,41.8307951 49.723625,42.819375 C50.281125,42.397625 50.873875,42.032875 51.701375,42.032875 C53.66325,42.031375 54.318125,44.082875 56.281375,44.082875 C58.2445,44.082875 58.8995,42.031625 60.862625,42.031625 C62.825375,42.031625 63.4805,44.082875 65.443375,44.082875 C67.40625,44.082875 68.061375,42.031625 70.024375,42.031625 C70.833375,42.031625 71.418125,42.380875 71.96525,42.790375 C72.5441773,41.8059668 73.0336384,40.771614 73.42775,39.69975 C72.27225,39.141 71.537375,37.924375 70.024375,37.924375 C68.0615,37.924375 67.406375,39.975625 65.4435,39.975625 C63.480625,39.975625 62.825375,37.924375 60.86225,37.924375 C58.8995,37.924375 58.244375,39.975625 56.2815,39.975625 C54.318625,39.975625 53.6635,37.924375 51.7005,37.924375 L51.70125,37.92575 Z M60.86175,45.93225 C58.898875,45.93225 58.24375,47.98825 56.280875,47.98825 C54.424625,47.98825 53.7375,46.150375 52.008125,45.95075 C54.319375,48.525375 56.940375,50.08425 58.72775,50.94075 C59.33225,50.47175 59.95825,51.51125 60.86175,51.51125 C61.759,51.51125 62.38175,50.46625 62.982125,50.93175 C64.749625,50.071125 67.33875,48.509875 69.637375,45.959875 C67.964375,46.204375 67.270875,47.988 65.442625,47.988 C63.47975,47.988 62.824625,45.932125 60.861625,45.932125 L60.86175,45.93225 Z" id="Shape" fill="#FFFFFF"></path>
                    <g transform="translate(48.402500, 29.877500)" stroke="#512007" stroke-opacity="0.996" stroke-width="0.1">
                        <path d="M0.2986875,8.2238625 C0.6202375,8.1126475 2.17433438,7.61083775 2.2279875,7.66644525 C2.28145625,7.72205275 5.22924375,10.676345 5.22924375,10.676345 L2.76415,11.177963 L0.2986875,8.2238625 L0.2986875,8.2238625 Z" id="Shape"></path>
                        <path d="M6.233114,13.1540943 C6.2784555,12.447643 7.596486,8.42877098 7.596486,8.42877098 M6.686529,13.201191 C6.686529,13.1571328 7.7318851,8.47222153 7.7318851,8.47222153 M7.0445705,13.2087873 C7.089912,12.9438301 7.9135638,8.47252538 7.9135638,8.47252538 M6.2784555,12.5798178 C6.50563205,12.4473392 7.18731805,12.2706504 7.18731805,12.2706504 M6.595846,11.8733665 C6.82302255,11.8733665 7.277532,11.6966777 7.277532,11.6966777 M6.7318705,11.3431483 C6.7318705,11.29909 7.4135565,11.1664595 7.4135565,11.1664595 M6.8225535,10.6807553 L7.549581,10.5482767 M7.1415075,10.1064788 C7.1415075,10.150537 7.64135845,10.150537 7.64135845,10.150537 M7.277532,9.5762605 C7.368215,9.5762605 7.77738295,9.664377 7.77738295,9.664377" id="Shape"></path>
                        <path d="M12.8195937,16.065346 C12.8730625,14.858206 14.4273437,7.9910072 14.4273437,7.9910072 M13.3542812,15.836898 C13.3542812,15.761614 14.5870125,8.064474 14.5870125,8.064474 M13.8908125,15.234626 C13.9442812,14.7818836 14.801625,8.0660316 14.801625,8.0660316 M12.8730625,15.084058 C13.1409594,14.8576868 13.9448344,14.555772 13.9448344,14.555772 M13.2473437,13.876918 C13.5152406,13.876918 14.0512187,13.5750032 14.0512187,13.5750032 M13.40775,12.970914 C13.40775,12.89563 14.211625,12.6689992 14.211625,12.6689992 M13.5146875,11.839058 L14.3720312,11.6126868 M13.8908125,10.85777 C13.8908125,10.933054 14.4802594,10.933054 14.4802594,10.933054 M14.0512187,9.951766 C14.1581562,9.951766 14.6406656,10.102334 14.6406656,10.102334" id="Shape" transform="translate(13.810609, 12.028177) scale(-1, 1) translate(-13.810609, -12.028177) "></path>
                        <path d="M17.3773437,13.6279675 C17.4308125,12.73633 18.9850937,7.66396725 18.9850937,7.66396725 M17.9120312,13.4592275 C17.9120312,13.40362 19.1447625,7.7182325 19.1447625,7.7182325 M18.4485625,13.0143675 C18.5020312,12.6799555 19.359375,7.719383 19.359375,7.719383 M17.4308125,12.9031525 C17.6987094,12.7359465 18.5025844,12.5129413 18.5025844,12.5129413 M17.8050937,12.011515 C18.0729906,12.011515 18.6089687,11.7885098 18.6089687,11.7885098 M17.9655,11.3423075 C17.9655,11.2867 18.769375,11.1193023 18.769375,11.1193023 M18.0724375,10.5062775 L18.9297812,10.3390715 M18.4485625,9.7814625 C18.4485625,9.83707 19.0380094,9.83707 19.0380094,9.83707 M18.6089687,9.112255 C18.7159062,9.112255 19.1984156,9.22347 19.1984156,9.22347" id="Shape" transform="translate(18.368359, 10.645967) scale(-1, 1) translate(-18.368359, -10.645967) "></path>
                        <path d="M11.87375,14.13168 C11.87375,14.0760725 12.034525,0.1416 12.034525,0.1416 C12.034525,0.1416 12.51685,0.0859925 12.51685,0.1416 C12.51685,0.1972075 12.4633813,14.0760725 12.4099125,14.13168 C12.3564438,14.1872875 11.8199125,14.242895 11.87375,14.13168 L11.87375,14.13168 Z M17.1265938,0.7552 C17.1265938,0.8667985 17.0192875,12.5158027 17.0192875,12.5158027 L16.6440844,12.9618132 L16.7513906,0.75500825 L17.1265938,0.75500825 L17.1265938,0.7552 Z" id="Shape" fill="#DD8B59"></path>
                        <path d="M5.9258125,11.84602 C5.9258125,11.84602 6.46179062,17.587015 12.6250781,17.419809 C18.7883656,17.252603 20.5034219,11.6232065 20.5034219,11.6232065 C20.5034219,11.6232065 17.8771844,11.511608 17.8235312,11.511608 C17.7700625,11.511608 15.6798031,14.1870957 13.0002812,14.1312965 C10.3207594,14.0754973 9.46304687,13.4064815 8.87341562,12.8494478 C8.28396875,12.2920305 7.74799062,11.4560005 7.74799062,11.4560005 L4.63942812,10.17396 L4.8003875,11.4002013 L5.9258125,11.84602 L5.9258125,11.84602 Z M22.5638125,11.2496775 C22.5103438,11.0824715 22.3781469,10.508372 22.3781469,10.508372 L22.3781469,9.839548 L22.6749906,9.162287 C22.6749906,9.162287 18.0121469,9.85699725 18.0121469,9.9127965 C18.0121469,9.84856025 17.9833844,11.2329952 17.9833844,11.2329952 L22.5638125,11.2496775 L22.5638125,11.2496775 Z" id="Shape" fill="#DD8B59"></path>
                        <path d="M21.6825,9.840315 L21.5755625,11.010757 L22.3256,11.010757 L22.2721312,9.840315 L21.6825,9.840315 L21.6825,9.840315 Z M20.878625,9.8959225 L20.8251562,11.121972 L21.3072969,11.0663645 L21.3607656,9.8959225 L20.878625,9.8959225 L20.878625,9.8959225 Z M20.07475,11.121205 L20.07475,10.17396 L20.557075,10.0065623 L20.6105437,10.9538073 L20.07475,11.121205 L20.07475,11.121205 Z M19.1620937,11.067515 L19.2694,10.231485 L19.8051937,10.2870925 L19.8586625,11.17873 L19.1620937,11.067515 L19.1620937,11.067515 Z M18.1443437,11.067515 L18.1978125,10.3427 L18.733975,10.2870925 L18.733975,11.1231225 L18.1443437,11.067515 L18.1443437,11.067515 Z M5.71009375,11.7904125 C5.87086875,11.7904125 7.1036,12.0690253 7.1036,12.0690253 L8.3898,13.8526838 L5.71009375,11.7904125 Z" id="Shape"></path>
                        <path d="M6.62275,12.01476 C6.67621875,12.0703675 7.748175,15.8048905 12.8933438,15.8048905 C18.0385125,15.8048905 19.270875,11.569133 19.270875,11.569133" id="Shape"></path>
                        <path d="M20.07475,11.6791975 C20.07475,11.6791975 17.6096563,17.2529865 12.8933438,16.8627752 C8.17703125,16.4727557 7.426625,14.633298 7.05142188,13.6858612 C6.67621875,12.7382327 6.461975,11.9581937 6.461975,11.9581937" id="Shape"></path>
                        <path d="M7.80090625,11.4567675 C7.854375,11.1221637 7.854375,1.03381275 7.854375,1.03381275 L7.532825,0.97820525 L7.47935625,11.2895615 L7.80090625,11.4567675 L7.80090625,11.4567675 Z M0.1364375,8.168255 L4.20928125,10.2305262 L4.10234375,10.509139 C4.10234375,10.509139 0.18990625,8.61407375 0.18990625,8.5582745 C0.18990625,8.502667 0.243375,8.27966175 0.1364375,8.168255 L0.1364375,8.168255 Z" id="Shape" fill="#DD8B59"></path>
                        <path d="M2.013375,7.554655 C2.013375,7.721861 2.60300625,11.1217803 2.60300625,11.1217803 C2.60300625,11.1217803 2.97820937,11.1773878 2.97820937,11.1217803 C2.97820937,11.0661728 2.33474062,7.61045425 2.33474062,7.61045425 L2.013375,7.55484675 L2.013375,7.554655 Z M5.7635625,7.66587 C5.97799062,7.66587 9.62253125,7.05284525 9.62253125,7.05284525 L9.56869375,7.66587 L5.97799062,8.05608125 L5.7635625,7.66587 L5.7635625,7.66587 Z" id="Shape" fill="#DD8B59"></path>
                        <path d="M6.30009375,3.04086 C6.40703125,3.04086 7.58629375,3.6540765 8.06861875,3.4868705 C8.55094375,3.3196645 8.22939375,2.92945325 8.33651563,2.92945325 C8.44382188,2.92945325 8.81884063,3.20787425 9.03345313,2.98506075 C9.24769688,2.7620555 9.40847188,2.09342325 9.30135,2.14903075 C9.19404375,2.20463825 6.3535625,3.2636735 6.30009375,3.04066825 L6.30009375,3.04086 Z" id="Shape" fill="#FECF3E"></path>
                        <path d="M5.818875,4.432965 C6.03330312,4.4885725 10.2136375,3.262523 10.2136375,3.262523 C10.2136375,3.262523 10.2136375,3.65273425 10.1601687,3.65273425 C10.1067,3.65273425 5.818875,4.823368 5.818875,4.823368 L5.818875,4.43315675 L5.818875,4.432965 Z" id="Shape" fill="#DD8B59"></path>
                        <path d="M15.5188437,2.7052975 C15.5188437,2.7052975 15.786925,3.3741215 16.0548219,3.26271475 C16.3227187,3.151308 16.5908,2.92830275 16.5908,2.92830275 C16.5908,2.92830275 16.8052281,3.48572 17.1802469,3.3741215 C17.5556344,3.2629065 17.7702469,2.6493065 17.7702469,2.6493065 C17.7702469,2.6493065 18.1450812,2.76109675 18.3058562,2.7052975 C18.4668156,2.64969 18.6810594,1.7580525 18.6810594,1.7580525 L15.5190281,2.7052975 L15.5188437,2.7052975 Z M15.1961875,8.1126475 C15.1427187,8.2238625 15.4642687,8.50285875 15.7321656,8.50285875 C16.0000625,8.50285875 16.1073687,8.1126475 16.1608375,8.22405425 C16.2143062,8.3358445 16.2143062,8.83765425 16.9112437,8.6702565 C17.6081812,8.50285875 17.6081812,8.0014325 17.6081812,8.0014325 C17.6081812,8.0014325 17.3935687,8.168255 17.8758937,8.2238625 C18.3582187,8.2798535 18.8405437,7.499431 18.787075,7.499431 C18.7336062,7.499431 15.3034937,8.1686385 15.1961875,8.1126475 L15.1961875,8.1126475 Z" id="Shape" fill="#FECF3E"></path>
                        <path d="M5.97928125,2.8165125 C5.9258125,3.03951775 6.03275,3.31832225 6.03275,3.31832225 L9.51633125,2.092081 C9.51633125,2.092081 9.67710625,1.8132765 9.51633125,1.8132765 C9.35555625,1.8132765 5.92562812,2.928111 5.97928125,2.8165125 L5.97928125,2.8165125 Z M10.5886562,2.03609 C10.6955937,2.03609 14.1793594,0.865648 14.1793594,0.865648 C14.1793594,0.865648 14.2328281,1.367266 14.1793594,1.367266 C14.1258906,1.367266 10.9103906,2.370502 10.9103906,2.370502 L10.5886562,2.03609 L10.5886562,2.03609 Z" id="Shape" fill="#DD8B59"></path>
                        <path d="M15.1961875,4.49049 C15.1961875,4.49049 14.6602094,5.10351475 14.8209844,5.93954475 C14.9817594,6.77557475 15.1961875,7.50038975 15.2498406,7.50038975 C15.3034937,7.50038975 15.8933094,6.38555525 16.536225,6.329756 C17.1791406,6.27395675 18.3584031,6.9429725 18.3584031,6.9429725 C18.3584031,6.9429725 18.1976281,5.60513275 18.2514656,4.992108 C18.3049344,4.3788915 19.2157469,3.320048 19.2157469,3.320048 L15.1963719,4.49049 L15.1961875,4.49049 Z" id="Shape" fill="#FECF3E"></path>
                        <path d="M10.3194687,3.48572 C10.3194687,3.48572 10.2125312,3.987338 10.266,3.987338 C10.3194687,3.987338 14.8213531,2.76109675 14.8213531,2.76109675 L14.8213531,2.4268765 L10.3194687,3.48591175 L10.3194687,3.48572 Z" id="Shape" fill="#DD8B59"></path>
                        <path d="M4.5319375,10.231485 C4.5319375,10.231485 3.46016562,10.064279 3.51363437,10.3427 C3.56710312,10.6215045 4.0496125,10.900309 4.10326562,11.067515 C4.15673437,11.234721 3.94249062,11.8479375 4.26404062,11.79233 C4.58559062,11.736339 4.90714062,11.5133338 4.90714062,11.3461278 C4.90714062,11.1789218 4.85367187,10.3988828 4.85367187,10.3988828 L4.5319375,10.231485 L4.5319375,10.231485 Z" id="Shape" fill-opacity="0.996" fill="#B6B6B4"></path>
                        <polygon id="Shape" fill="#DD8B59" points="10.479875 7.44344 10.479875 7.8334595 14.3388438 7.276234 14.2315375 6.9974295 10.479875 7.44344"></polygon>
                        <path d="M5.9258125,8.1126475 C5.97928125,8.1126475 5.9258125,8.6142655 6.35448438,8.50285875 C6.78334063,8.39126025 6.8904625,8.1126475 6.8904625,8.1126475 C6.8904625,8.1126475 6.9974,8.72567225 7.5874,8.67006475 C8.1766625,8.61445725 8.4982125,7.94524975 8.4982125,7.94524975 C8.4982125,7.94524975 8.55168125,8.4470595 8.92706875,8.2798535 C9.30245625,8.1126475 9.40939375,7.72243625 9.40939375,7.72243625 L6.03293438,8.22405425 L5.92599688,8.11283925 L5.9258125,8.1126475 Z M5.9258125,4.824135 C5.9258125,4.824135 5.4434875,4.991341 5.6042625,5.994577 C5.7650375,6.997813 6.14024063,7.555422 6.19370938,7.555422 C6.24717813,7.555422 6.67603438,6.6077935 7.31913438,6.4405875 C7.96260313,6.27318975 9.08784375,6.9422055 9.08784375,6.9422055 C9.08784375,6.9422055 8.9805375,6.050568 9.1413125,5.214538 C9.30227188,4.3781245 9.83825,3.764908 9.83825,3.764908 C9.83825,3.764908 6.0865875,4.824135 5.9258125,4.824135 L5.9258125,4.824135 Z" id="Shape" fill="#FECF3E"></path>
                        <path d="M14.9288438,7.7214775 L14.9823125,8.0558895 C14.9823125,8.0558895 18.8412813,7.5542715 18.8412813,7.49847225 C18.8412813,7.44286475 18.8412813,7.10845275 18.7878125,7.10845275 C18.733975,7.10845275 14.9823125,7.77727675 14.9288438,7.7214775 L14.9288438,7.7214775 Z M14.875375,4.1549275 L14.9288438,4.544947 L19.4843813,3.26309825 C19.4843813,3.26309825 19.5916875,2.9284945 19.53785,2.9284945 C19.4840125,2.9284945 14.9824969,4.32194175 14.875375,4.15473575 L14.875375,4.1549275 Z" id="Shape" fill="#DD8B59"></path>
                        <path d="M15.3584375,2.3716525 C15.3584375,2.3716525 15.3049688,2.7060645 15.3584375,2.7060645 C15.4119063,2.7060645 18.7348969,1.8700345 18.7348969,1.814427 C18.7348969,1.7588195 19.0564469,1.424024 18.7883656,1.47982325 C18.5204688,1.53543075 15.4659281,2.53866675 15.3584375,2.37146075 L15.3584375,2.3716525 Z M22.486375,8.8374625 L19.1620938,3.374505 L22.486375,8.8374625 Z M18.7343438,7.1654025 C18.7878125,6.9981965 18.9487719,3.6540765 18.9487719,3.6540765 L18.7343438,7.1654025 Z" id="Shape"></path>
                        <path d="M10.6955938,2.20483 C10.9100219,2.2604375 11.285225,2.81785475 11.4994688,2.706448 C11.7138969,2.595233 12.0354469,2.26062925 12.0354469,2.26062925 C12.0354469,2.26062925 11.9819781,2.92983675 12.41065,2.8180465 C12.8393219,2.7068315 12.892975,2.260821 12.892975,2.260821 C12.892975,2.260821 13.214525,2.42821875 13.4824219,2.260821 C13.7505031,2.0939985 14.0184,1.257585 13.9112781,1.257585 C13.8041563,1.257585 10.8030844,2.26101275 10.6957781,2.2052135 L10.6955938,2.20483 Z M10.5886563,3.8212825 C10.5886563,3.9324975 10.0526781,4.8245185 10.2134531,5.6605485 C10.3742281,6.4965785 10.6957781,7.277001 10.7494313,7.277001 C10.8030844,7.277001 11.606775,6.3853635 12.3037125,6.21796575 C13.0002813,6.050568 14.0184,6.77519125 13.9649313,6.77519125 C13.9114625,6.77519125 13.6970344,5.93916125 13.6970344,5.32594475 C13.6970344,4.71272825 14.5009094,2.81785475 14.5009094,2.81785475 L10.5884719,3.82109075 L10.5886563,3.8212825 Z M10.5886563,7.83461 C10.5886563,7.8902175 10.7494313,8.2806205 11.1246344,8.2806205 C11.4996531,8.2806205 11.5533063,7.89040925 11.5533063,7.89040925 C11.5533063,7.89040925 11.4998375,8.55961675 12.0892844,8.50400925 C12.6785469,8.44801825 12.8931594,7.83480175 12.8931594,7.83480175 C12.8931594,7.83480175 12.9466281,8.1694055 13.4289531,8.0021995 C13.9112781,7.83480175 14.5543781,7.2773845 14.500725,7.2773845 C14.4472563,7.2773845 10.6417563,8.0021995 10.5882875,7.83480175 L10.5886563,7.83461 Z" id="Shape" fill="#FECF3E"></path>
                        <g id="k-link" transform="translate(10.684900, 5.646300)" fill="#BE0F17" fill-opacity="0.996">
                            <path d="M0.649960607,0.35578475 C0.649960607,0.512947904 0.516318676,0.640353813 0.351463,0.640353813 C0.186607324,0.640353813 0.0529653929,0.512947904 0.0529653929,0.35578475 C0.0529653929,0.198621596 0.186607324,0.0712156869 0.351463,0.0712156869 C0.516318676,0.0712156869 0.649960607,0.198621596 0.649960607,0.35578475 L0.649960607,0.35578475 Z" id="k" transform="translate(0.351463, 0.355785) rotate(-87.859099) translate(-0.351463, -0.355785) "></path>
                        </g>
                        <g id="k-link" transform="translate(12.620100, 5.127100)" fill="#BE0F17" fill-opacity="0.996">
                            <path d="M0.649960607,0.35578475 C0.649960607,0.512947904 0.516318676,0.640353813 0.351463,0.640353813 C0.186607324,0.640353813 0.0529653929,0.512947904 0.0529653929,0.35578475 C0.0529653929,0.198621596 0.186607324,0.0712156869 0.351463,0.0712156869 C0.516318676,0.0712156869 0.649960607,0.198621596 0.649960607,0.35578475 L0.649960607,0.35578475 Z" id="k" transform="translate(0.351463, 0.355785) rotate(-87.859099) translate(-0.351463, -0.355785) "></path>
                        </g>
                        <g id="k-link" transform="translate(11.652500, 6.199425)" fill="#BE0F17" fill-opacity="0.996">
                            <path d="M0.649960607,0.35578475 C0.649960607,0.512947904 0.516318676,0.640353813 0.351463,0.640353813 C0.186607324,0.640353813 0.0529653929,0.512947904 0.0529653929,0.35578475 C0.0529653929,0.198621596 0.186607324,0.0712156869 0.351463,0.0712156869 C0.516318676,0.0712156869 0.649960607,0.198621596 0.649960607,0.35578475 L0.649960607,0.35578475 Z" id="k" transform="translate(0.351463, 0.355785) rotate(-87.859099) translate(-0.351463, -0.355785) "></path>
                        </g>
                        <path d="M12.3024606,4.92828475 C12.3024606,5.0854479 12.1688187,5.21285381 12.003963,5.21285381 C11.8391073,5.21285381 11.7054654,5.0854479 11.7054654,4.92828475 C11.7054654,4.7711216 11.8391073,4.64371569 12.003963,4.64371569 C12.1688187,4.64371569 12.3024606,4.7711216 12.3024606,4.92828475 L12.3024606,4.92828475 Z" id="k" fill-opacity="0.996" fill="#BE0F17" transform="translate(12.003963, 4.928285) rotate(-87.859099) translate(-12.003963, -4.928285) "></path>
                        <path d="M12.4102813,0.3084225 C12.4102813,0.252815 14.0715,1.0332375 14.0715,1.088845 C14.0715,1.1444525 19.9668906,9.2823225 20.0205438,9.2823225 M17.073125,1.088845 L18.5739375,1.7580525 L19.0560781,2.98391025 M7.7474375,0.97763 C7.69396875,0.97763 9.40865625,2.315278 9.40865625,2.315278 L9.62326875,3.4301125 M1.9064375,9.1155 C2.65684375,8.781088 7.85529688,4.043329 7.85529688,4.043329 M0.5125625,8.2238625 C1.15603125,7.66644525 6.3543,3.096084 6.3543,3.096084 M10.266,3.87689 L15.7861875,13.4080155 M15.1353438,7.8173525 C15.1353438,7.8173525 15.7865563,10.062745 16.4296563,10.3973487 C17.0727563,10.7319525 17.8229781,11.2889862 17.8229781,11.2889862" id="Shape"></path>
                        <path d="M15.0615938,7.86529 C15.0615938,7.86529 15.5188438,10.5100977 16.1623125,11.0119075 C16.8057813,11.5137172 17.4485125,12.070751 17.4485125,12.070751" id="Shape"></path>
                        <path d="M10.6141,7.8542275 C10.6141,7.8542275 11.2572,11.5329512 12.5435844,12.3689812 C13.8297844,13.2050112 14.9017406,13.9298262 14.9017406,13.9298262" id="Shape"></path>
                        <path d="M10.5606312,7.79862 C10.5606312,7.79862 11.9539531,10.697113 13.1330312,11.5889423 C14.3121094,12.4805798 15.9198594,13.3166098 15.9198594,13.3166098 M6.0600375,8.02105 C6.43505625,8.689874 6.3815875,9.9719145 6.81044375,10.417925 C7.23893125,10.8637438 7.88221562,11.8669798 7.88221562,11.8669798" id="Shape"></path>
                        <path d="M6.166975,8.0766575 C6.38140313,8.4110695 6.97933125,10.0762265 7.34605313,10.5847475 C7.61413438,11.030758 10.3473094,13.87326 10.3473094,13.87326" id="Shape"></path>
                        <path d="M9.43594375,14.0132375 C9.43594375,14.2441008 9.2559902,14.4312525 9.03400625,14.4312525 C8.8120223,14.4312525 8.63206875,14.2441008 8.63206875,14.0132375 C8.63206875,13.7823742 8.8120223,13.5952225 9.03400625,13.5952225 C9.2559902,13.5952225 9.43594375,13.7823742 9.43594375,14.0132375 L9.43594375,14.0132375 Z M11.417975,14.904875 C11.417975,15.1050271 11.2619602,15.2672825 11.0695063,15.2672825 C10.8770523,15.2672825 10.7210375,15.1050271 10.7210375,14.904875 C10.7210375,14.7047229 10.8770523,14.5424675 11.0695063,14.5424675 C11.2619602,14.5424675 11.417975,14.7047229 11.417975,14.904875 L11.417975,14.904875 Z M13.9365375,15.127305 C13.9365375,15.3274571 13.7805227,15.4897125 13.5880688,15.4897125 C13.3956148,15.4897125 13.2396,15.3274571 13.2396,15.127305 C13.2396,14.9271529 13.3956148,14.7648975 13.5880688,14.7648975 C13.7805227,14.7648975 13.9365375,14.9271529 13.9365375,15.127305 L13.9365375,15.127305 Z M16.1342875,14.26443 C16.1342875,14.4490852 16.002275,14.598842 15.8392875,14.598842 C15.6766688,14.598842 15.5448406,14.449277 15.5448406,14.26443 C15.5448406,14.0797747 15.6766688,13.930018 15.8394719,13.930018 C16.0024594,13.930018 16.1344719,14.079583 16.1344719,14.26443 L16.1342875,14.26443 Z M17.9024438,13.1772075 C17.9024438,13.3465227 17.7464625,13.4840075 17.553975,13.4840075 C17.3614875,13.4840075 17.2055063,13.3465227 17.2055063,13.1772075 C17.2055063,13.0078922 17.3616719,12.8704075 17.553975,12.8704075 C17.7462781,12.8704075 17.9024438,13.0078922 17.9024438,13.1772075 L17.9024438,13.1772075 Z" id="Shape" fill="#000000"></path>
                        <path d="M7.5055375,1.221595 C7.3447625,1.3331935 4.66505625,2.0020175 5.04044375,1.94641 C5.41527813,1.8908025 7.55900625,2.5036355 7.5055375,2.3364295 C7.45206875,2.1692235 7.5055375,1.3331935 7.5055375,1.221595 L7.5055375,1.221595 Z M12.0614437,0.385565 C11.9541375,0.385565 10.3998562,0.9987815 10.4536937,0.9987815 C10.5075312,0.9987815 12.2222187,1.5003995 12.1683812,1.388801 C12.1149125,1.277586 12.1149125,0.552771 12.0614437,0.385565 L12.0614437,0.385565 Z M16.7242875,0.9435575 C16.6169812,0.999165 14.7948031,1.4451755 15.1165375,1.50097475 C15.4382719,1.556774 16.6708187,2.00259275 16.6708187,1.891186 C16.6708187,1.7795875 16.6708187,0.9995485 16.7242875,0.9435575 L16.7242875,0.9435575 Z" id="Shape" fill-opacity="0.996" fill="#FF0000"></path>
                        <path d="M14.795725,13.9863925 C14.8491937,13.094755 16.403475,8.02239225 16.403475,8.02239225 M15.3304125,13.8176525 C15.3304125,13.762045 16.5631437,8.0766575 16.5631437,8.0766575 M15.8669437,13.3727925 C15.9204125,13.0383805 16.7777562,8.077808 16.7777562,8.077808 M14.8491937,13.2615775 C15.1170906,13.0943715 15.9209656,12.8713662 15.9209656,12.8713662 M15.223475,12.36994 C15.4913719,12.36994 16.02735,12.1469347 16.02735,12.1469347 M15.3838812,11.7007325 C15.3838812,11.645125 16.1877562,11.4777272 16.1877562,11.4777272 M15.4908187,10.8647025 L16.3481625,10.6974965 M15.8669437,10.1398875 C15.8669437,10.195495 16.4563906,10.195495 16.4563906,10.195495 M16.02735,9.47068 C16.1342875,9.47068 16.6167969,9.581895 16.6167969,9.581895" id="Shape"></path>
                        <path d="M10.2306,14.634006 C10.2840687,13.701216 11.83835,8.3947442 11.83835,8.3947442 M10.7652875,14.696192 C10.7652875,14.638018 11.9980187,8.4521158 11.9980187,8.4521158 M11.1875062,14.706222 C11.240975,14.3563756 12.2122625,8.452517 12.2122625,8.452517 M10.2840687,13.875738 C10.5519656,13.7008148 11.3558406,13.467517 11.3558406,13.467517 M10.65835,12.942948 C10.9262469,12.942948 11.462225,12.7096502 11.462225,12.7096502 M10.8187562,12.242854 C10.8187562,12.18468 11.6226312,12.0095562 11.6226312,12.0095562 M10.9256937,11.368238 L11.7830375,11.1933148 M11.3018187,10.60997 C11.3018187,10.668144 11.8912656,10.668144 11.8912656,10.668144 M11.462225,9.909876 C11.5691625,9.909876 12.0516719,10.026224 12.0516719,10.026224" id="Shape"></path>
                        <path d="M8.21759375,14.226847 C8.2710625,13.321492 9.82534375,8.1710929 9.82534375,8.1710929 M8.75228125,14.055511 C8.75228125,13.999048 9.9850125,8.226193 9.9850125,8.226193 M9.2888125,13.603807 C9.34228125,13.2642502 10.199625,8.2273612 10.199625,8.2273612 M8.2710625,13.490881 C8.53895938,13.3211026 9.34283438,13.0946665 9.34283438,13.0946665 M8.64534375,12.585526 C8.91324063,12.585526 9.44921875,12.3590899 9.44921875,12.3590899 M8.80575,11.906023 C8.80575,11.84956 9.609625,11.6795869 9.609625,11.6795869 M8.9126875,11.057131 L9.77003125,10.8873526 M9.2888125,10.321165 C9.2888125,10.377628 9.87825938,10.377628 9.87825938,10.377628 M9.44921875,9.641662 C9.55615625,9.641662 10.0386656,9.754588 10.0386656,9.754588" id="Shape" transform="translate(9.208609, 11.198970) scale(-1, 1) translate(-9.208609, -11.198970) "></path>
                        <path d="M17.6078125,11.512375 L22.6991437,11.6239735 L22.7526125,11.2337622 L17.5005062,11.1781547 L17.6078125,11.512375 L17.6078125,11.512375 Z M17.8235312,10.1183525 C18.4131625,10.1183525 22.8613937,9.226715 22.8613937,9.226715 C22.8613937,9.226715 23.0221687,8.66929775 22.8613937,8.66929775 C22.7006187,8.66929775 17.8235312,9.728333 17.8235312,9.728333 L17.8235312,10.1183525 L17.8235312,10.1183525 Z" id="Shape" fill="#DD8B59"></path>
                        <g id="k-link" transform="translate(11.652500, 5.386700)" fill="#BE0F17" fill-opacity="0.996">
                            <path d="M0.649960607,0.35578475 C0.649960607,0.512947904 0.516318676,0.640353813 0.351463,0.640353813 C0.186607324,0.640353813 0.0529653929,0.512947904 0.0529653929,0.35578475 C0.0529653929,0.198621596 0.186607324,0.0712156869 0.351463,0.0712156869 C0.516318676,0.0712156869 0.649960607,0.198621596 0.649960607,0.35578475 L0.649960607,0.35578475 Z" id="k" transform="translate(0.351463, 0.355785) rotate(-87.859099) translate(-0.351463, -0.355785) "></path>
                        </g>
                    </g>
                </g>
            </g>
        </g>
    </g>
</svg>