<?xml version="1.0" encoding="UTF-8" standalone="no"?>
<svg width="122px" height="60px" viewBox="0 0 122 60" version="1.1" xmlns="http://www.w3.org/2000/svg" xmlns:xlink="http://www.w3.org/1999/xlink">
    <!-- Generator: Sketch 3.8.2 (29753) - http://www.bohemiancoding.com/sketch -->
    <title>sa</title>
    <desc>Created with Sketch.</desc>
    <defs></defs>
    <g id="Page-1" stroke="none" stroke-width="1" fill="none" fill-rule="evenodd">
        <g id="sa">
            <g id="Clipped">
                <g>
                    <rect id="Rectangle-235" fill="#199D00" x="0" y="0" width="122" height="60"></rect>
                    <g id="Group" transform="translate(35.418199, 14.000000)">
                        <path d="M0.763852826,3.06336734 C0.659525362,4.46965782 0.53449707,6.94456916 1.72985222,7.19840923 C3.17573443,7.3373805 2.37839973,4.7521857 2.90180133,4.28342221 C3.00071835,4.05180343 3.18314439,4.0506277 3.19819953,4.34279657 L3.19819953,6.53553274 C3.18502628,7.24873047 3.65397059,7.45871582 4.01823458,7.60603477 C4.39743609,7.5767591 4.65055075,7.58945698 4.79910271,7.95816586 L4.97694164,11.7511879 C4.97694164,11.7511879 5.85625632,12.0027941 5.89812845,9.61770855 C5.94011819,8.21741429 5.61819681,7.04521163 5.80697424,6.77267745 C5.81356086,6.50496376 6.15559499,6.48897384 6.39271355,6.61947985 C6.77073888,6.88590024 6.93905072,7.21498702 7.5264367,7.08342285 C8.42010082,6.83722502 8.95738138,6.40267527 8.97055463,5.71675447 C8.91833209,5.06481227 8.84517348,4.41287007 8.56265424,3.76092786 C8.60205638,3.64229672 8.39010814,3.33519608 8.42939266,3.21656494 C8.59005931,3.46805356 8.83447021,3.44712557 8.88998607,3.21656494 C8.73790556,2.71558645 8.50184556,2.23553595 8.11923311,2.02766692 C7.80307502,1.74925409 7.34024687,1.80615941 7.17075885,2.38696996 C7.09230742,3.05619539 7.41211167,3.85134149 7.89963968,4.49952136 C8.00314381,4.75277357 8.1486377,5.17356728 8.08465332,5.55250501 C7.82530489,5.7005294 7.56583884,5.63880358 7.34848015,5.40941869 C7.34848015,5.40941869 6.63712445,4.87610763 6.63712445,4.75759406 C6.82590188,3.54941406 6.67899658,3.41244153 6.57443388,3.07712338 C6.50127528,2.61423854 6.28156422,2.46586143 6.10360768,2.14970767 C5.92565114,1.96112061 5.6848864,1.96112061 5.56985567,2.14970767 C5.25534424,2.69465846 5.4020143,3.86427452 5.62913531,4.38829731 C5.79333051,4.87011141 6.0440928,5.17250912 5.92553352,5.17250912 C5.82802792,5.44480816 5.62631247,5.38190661 5.47952479,5.06763402 C5.26992891,4.41804328 5.22793917,3.44877159 5.22793917,3.01245824 C5.16513097,2.47126979 5.09597139,1.31705579 4.73970545,1.02382877 C4.52234677,0.728015137 4.20019014,0.87227719 4.08762939,1.14234234 C4.06422335,1.67941573 4.06175336,2.21637156 4.1223268,2.71135382 C4.36662009,3.57939517 4.44342486,4.34279657 4.56198415,5.23176591 C4.59491728,6.4225451 3.87321117,5.7483816 3.9061443,5.15804765 C4.07257425,4.39123664 4.02940832,3.18423237 3.88144445,2.87830746 C3.76429659,2.57238256 3.62585981,2.4969007 3.34075296,2.54722194 C3.11433766,2.5334659 2.53177404,3.1693006 2.36816693,4.22404785 C2.36816693,4.22404785 2.22867159,4.7669999 2.16927433,5.24904914 C2.08929386,5.79376478 1.73055793,6.17822844 1.47885469,5.17239155 C1.26149601,4.4414403 1.12788158,2.64175062 0.763735208,3.06324977 L0.763852826,3.06336734 Z" id="Shape" fill="#FFFFFF"></path>
                        <path d="M4.69277574,8.83384946 C3.41685202,9.457339 2.18291805,10.0389726 0.927812787,10.6415341 C0.973683938,9.78842452 2.71784625,8.24845356 3.90720287,8.22682013 C4.68136676,8.24845356 4.48682603,8.52663124 4.69277574,8.83396703 L4.69277574,8.83384946 Z" id="Shape" fill="#FFFFFF"></path>
                        <path d="M4.035054,10.0131065 C2.05083266,15.1260029 8.68156638,15.8383776 9.4225619,10.222504 C9.49230957,9.99206093 9.77188836,9.76161788 9.82081758,10.1386744 C9.66709042,15.2234709 4.69195241,15.5728978 3.8465118,13.9731998 C3.63703355,13.5961432 3.57399012,12.7579654 3.55305406,12.2549882 C3.42720244,11.2563232 2.90333037,11.6404342 2.81946849,12.6321623 C2.735489,13.1839323 2.75654268,13.3378354 2.75654268,13.8685598 C3.02200727,17.8847354 9.42973662,16.159587 10.4707765,12.8417949 C11.0227594,11.0047171 10.3798575,9.64980597 10.6802548,9.65674278 C11.3162171,10.3412527 12.2034122,9.74750912 12.3991291,9.51001169 C12.4831086,9.39126298 12.6928221,9.31460539 12.8394922,9.46815571 C13.3354887,9.824637 14.2091577,9.65662521 14.3907604,9.02808003 C14.495676,8.41340846 14.5795379,7.7778089 14.6004739,7.12139893 C14.1950435,7.24720202 13.8947639,7.33079641 13.8667707,7.49857306 L13.7829089,8.0432887 C13.7480938,8.21800216 13.3984145,8.22482139 13.3846532,8.00131515 C13.230926,7.30281404 12.5950813,7.2120477 12.2107046,8.29477732 C11.9520618,8.50429238 11.4840585,8.54626593 11.4350116,8.23199334 C11.4978198,7.50550987 11.2043621,7.40768914 10.6175642,7.7499441 C10.4287868,6.31108591 10.2402446,4.93524684 10.0514671,3.49627107 C10.2961133,3.48921669 10.5198234,3.67074938 10.7435334,3.39139597 C10.4986521,2.63022846 9.98171947,1.07250398 9.69508358,0.960692074 C9.555353,0.793150571 9.43632324,0.8979081 9.25495577,0.939764083 C8.94750144,1.03758481 8.66098317,1.30306461 8.75166691,1.81991545 C9.11510757,4.02699553 9.35269661,5.71040553 9.71613726,7.91760318 C9.77188836,8.1760286 9.555353,8.51804842 9.27589183,8.48312924 C8.80071375,8.16191984 8.68227209,7.51244667 7.87152889,7.5401939 C7.28449578,7.54724828 6.61348317,8.18284784 6.52985653,8.79775455 C6.43199808,9.28638788 6.39694781,9.81711233 6.52962129,10.243432 C6.9421088,10.7392373 7.43822294,10.690562 7.87141128,10.5787501 C8.22779484,10.4321366 8.52113497,10.0758905 8.64698659,10.1596024 C8.73096608,10.2644775 8.66780503,11.4376208 6.96986673,12.3388177 C5.94282341,12.7997038 5.12514074,12.9046965 4.68513054,12.0664011 C4.41260886,11.5424959 4.70606661,9.55186768 4.035054,10.0129889 L4.035054,10.0131065 Z" id="Shape" fill="#FFFFFF"></path>
                        <path d="M12.4515869,4.81520482 C12.8498426,4.66847374 14.7367936,2.51030402 14.7367936,2.51030402 C14.6388175,2.42647448 14.5514271,2.36357293 14.4535686,2.2797434 C14.3486531,2.18897705 14.3592387,2.09821071 14.4535686,2.00732679 C14.9216896,1.73502775 14.771491,1.13775699 14.5269625,0.865457956 C14.1216497,0.683690121 13.7687947,0.743182052 13.5101519,0.875804379 C13.1817615,1.19019454 13.1050744,1.69293663 13.3637171,2.00732679 C13.6154204,2.1260755 13.8667707,2.38109131 13.6989294,2.52076802 C12.9270002,3.34495464 10.8131635,4.76641203 11.0578096,4.81520482 C11.1100322,4.88504317 12.4098324,4.88151598 12.4515869,4.81520482 L12.4515869,4.81520482 Z M1.05742819,12.4539217 C0.349836282,13.5807412 0.288204274,15.2642687 0.678697151,15.7661878 C0.886175896,16.0033325 1.22703384,16.1071495 1.47920755,16.0329609 C1.92380486,15.8401412 2.11834559,14.9397673 2.01284194,14.6103278 C1.8644076,14.3782387 1.74761259,14.3414384 1.59941349,14.538961 C1.28654871,15.1738551 1.15669807,14.7382472 1.129293,14.3834119 C1.08130472,13.7105417 1.144701,13.0908145 1.21774199,12.6000649 C1.29560533,12.0970877 1.2165658,12.2508731 1.05742819,12.4539217 L1.05742819,12.4539217 Z M31.2952206,10.6491763 C30.6110347,9.177045 29.6638543,7.72231445 29.3625161,7.16349005 C29.0611779,6.60443051 26.7860864,3.30392167 26.451227,2.93274376 C25.7121134,2.05482627 27.6514045,3.29839574 26.2058752,1.55525866 C25.6547156,1.08261526 25.6227235,1.05380988 25.1653058,0.668170487 C24.9345386,0.504508892 24.3711467,0.205520791 24.2714064,0.701090923 C24.2211834,1.13810971 24.2482356,1.37501927 24.3216294,1.73890766 C24.3780862,1.98146073 24.7315293,2.3876754 24.9053692,2.62305651 C27.2136291,5.72463186 29.2604234,8.85677619 31.2341767,12.7948833 C31.5458653,12.6467414 31.4776466,10.8954918 31.2953382,10.6491763 L31.2952206,10.6491763 Z" id="Shape" fill="#FFFFFF"></path>
                        <path d="M28.2924245,15.5743087 C28.1578691,15.7252724 28.6245786,16.3709832 29.2310188,16.3702778 C30.2453593,16.2527048 31.1382001,15.6831813 31.9649394,14.1840081 C32.1860619,13.8343461 32.5746729,13.0865819 32.5859642,12.5065944 C32.6633571,9.10579577 32.4157705,6.45946302 31.9060126,4.00136462 C31.8733147,3.76198602 31.8931922,3.48051629 31.9337705,3.40879677 C31.9995192,3.33037559 32.2221707,3.40914949 32.3403771,3.21550678 C32.5137466,3.03855944 31.880019,1.57301218 31.5186954,1.00854428 C31.3904914,0.756467799 31.3457965,0.588103284 31.1333778,1.03817267 C30.9100205,1.40382466 30.7600572,2.04201082 30.7775823,2.638341 C31.2614641,5.98717234 31.4101337,8.91662084 31.7262918,12.2654522 C31.7521678,12.5892482 31.7044148,13.0598928 31.4890556,13.2475393 C30.6925442,14.0790155 29.5427074,15.1024883 28.2924245,15.5743087 L28.2924245,15.5743087 Z M41.9937845,15.5566727 C41.2658446,15.9772313 41.2650213,16.4610442 41.8535834,16.4785625 C42.8678063,16.360872 44.0663372,16.2766897 44.8928412,15.0290052 C45.1140813,14.6793431 45.3768407,13.7339388 45.3882497,13.1539512 C45.4655249,9.75315263 45.3437899,7.21475188 44.8340321,4.75688862 C44.8014518,4.51739245 44.6954777,3.96632787 44.7359384,3.89449077 C44.801687,3.72612626 45.1323122,3.91283216 45.2505186,3.71907188 C45.4237704,3.54224211 44.3944923,2.22036904 44.0331688,1.65590114 C43.9049648,1.40394223 43.8602698,1.23557771 43.6479687,1.68552953 C43.4244939,2.05129909 43.346513,2.70747392 43.4359029,3.28581543 C43.9737715,6.92211272 44.3741444,9.65392103 44.4567124,12.8768317 C44.4103708,13.1827566 44.3988442,13.3477115 44.2553498,13.7331157 C43.9378979,14.1399183 43.5862191,14.6484214 43.2564173,14.8942666 C42.9267331,15.1399941 42.2231402,15.3746698 41.9937845,15.5567903 L41.9937845,15.5566727 Z" id="Shape" fill="#FFFFFF"></path>
                        <path d="M42.5395335,12.2963739 C42.5311826,11.4459685 42.5515306,10.7116076 42.5235375,10.0774189 C42.4955443,9.44311266 42.383454,8.92661454 42.1638606,8.47642758 C41.956029,7.9936729 42.0850563,7.60579962 41.9874331,7.09153539 C41.8899275,6.5775063 41.9139216,5.80763839 41.7665458,5.19766974 C41.7262028,4.95946687 41.6023506,4.19653577 41.6406942,4.12340538 C41.7006796,3.95315969 41.9295649,4.12869616 42.0413023,3.93140869 C42.2086732,3.74893542 41.4606205,1.81415437 41.0811838,1.26167892 C40.9447465,1.01395264 40.6969247,1.09884033 40.3914699,1.50152781 C40.1080097,1.76665489 40.2131605,2.3710976 40.3213693,2.9460295 C41.0491916,6.74257877 41.5920002,10.1788844 41.4735586,13.7929604 C41.4372145,14.1002962 42.5470611,12.876479 42.5395335,12.2963739 L42.5395335,12.2963739 Z M37.1620232,7.58757581 C36.7042526,7.57922813 35.745428,6.69707802 35.4656139,6.18022718 C35.3598751,5.88382568 35.4277408,5.59459614 35.5208946,5.42517347 C35.6903826,5.31500758 35.9512601,5.19120323 36.1461536,5.30995194 C36.1461536,5.30995194 36.3483396,5.5925974 36.3091727,5.62857473 C36.5591116,5.74826403 36.6652034,5.67936626 36.6906089,5.5777832 C36.7076636,5.3997777 36.6167446,5.29372687 36.615686,5.0977327 C36.7216602,4.56630281 37.3293941,4.483649 37.5582794,4.82261192 C37.7257679,5.02918765 37.7871647,5.46832275 37.8125702,5.76472425 C37.809865,5.91615825 37.5645132,5.73850547 37.425253,5.7749531 C37.2857577,5.81140072 37.2522365,5.97224057 37.2414156,6.11767835 C37.2161276,6.5030826 37.1704917,7.1215165 37.1620232,7.58745824 L37.1620232,7.58757581 Z M28.7134981,13.2393092 C28.839585,12.0838019 28.6669212,10.025922 28.6553946,9.34411621 C28.609053,7.73336631 28.3459408,4.62214998 28.2206773,4.10235981 C28.0795353,3.12262413 28.6237553,4.20982152 28.548362,3.64029798 C28.3719345,2.66197317 27.8290082,1.99874396 27.1908111,1.10260267 C26.984979,0.811021664 26.9920361,0.751647307 26.674349,1.17408704 C26.3226702,1.97123188 26.6261255,2.51970986 26.7170445,3.14061279 C27.177285,5.16357358 27.4458077,7.0248715 27.570836,8.86488872 C27.6958643,10.7049059 27.7343255,12.694476 27.620118,14.6324315 C27.964975,14.6459524 28.5195455,14.0746653 28.7134981,13.2391916 L28.7134981,13.2393092 Z" id="Shape" fill="#FFFFFF"></path>
                        <path d="M44.0979765,11.3887104 C43.2907619,10.0348575 42.0727064,8.56848723 41.7472564,8.0233013 C41.4219241,7.47799779 38.669655,3.92823422 38.3189172,3.57198808 C37.3121042,2.51465422 38.7806868,3.39986123 38.1261407,2.58319927 C37.5725112,1.97558208 37.4110212,1.7848787 36.9372546,1.41946186 C36.6996655,1.26602912 36.5557007,0.972919665 36.4776021,1.47236971 C36.4465509,1.91115209 36.4140882,2.41883224 36.4436104,2.78859928 C36.4419638,2.99423443 36.6561467,3.38046168 36.8399842,3.60808298 C39.2811528,6.6061941 41.9437967,9.66744192 44.0872732,13.5159584 C44.3922576,13.3542956 44.2908706,11.6269133 44.0979765,11.3887104 L44.0979765,11.3887104 Z" id="Shape" fill="#FFFFFF"></path>
                        <path d="M7.47397892,8.89028449 C7.41587546,8.99210269 7.28649529,9.12401958 7.32989646,9.26052182 C7.42046257,9.38326802 7.49291547,9.40819349 7.64393741,9.41489515 C7.77496424,9.41489515 7.95797837,9.44581684 7.99738051,9.36857139 C8.06795152,9.29097322 8.12146786,9.13236726 8.06277631,8.98281443 C7.92633904,8.64185277 7.54525563,8.76883159 7.47397892,8.89028449 L7.47397892,8.89028449 Z" id="Shape" fill="#1BA400"></path>
                        <path d="M34.7120333,28.6249101 C35.7915344,28.6646497 36.4980677,28.6741731 37.4581862,28.7883365 C37.4581862,28.7883365 38.2862193,28.7066233 38.5817941,28.6619455 C39.8316066,28.5427265 39.8868872,30.4462332 39.8868872,30.4462332 C39.8732435,31.5625887 39.4421723,31.6210224 38.8918361,31.7389481 C38.5774423,31.778923 38.4121885,31.5507138 38.2469347,31.3076904 C38.0395736,31.3944593 37.7576425,31.406922 37.4160788,31.3595401 C36.9661887,31.3313226 36.5162985,31.3332038 36.066526,31.3051038 C35.5886427,31.2630127 35.3344695,31.3548372 34.8564686,31.3127461 C34.758022,31.4673545 34.6300533,31.6814549 34.3377717,31.6125572 C34.094537,31.585633 33.8064897,30.9032394 33.8912925,30.3843898 C34.0668967,30.0123889 34.0186732,30.1320782 34.0003247,29.9685341 C29.5866966,29.8561344 25.130726,29.6594348 20.801195,29.7157522 C17.4137869,29.7297434 14.0682509,29.8702431 10.7228326,30.0108604 C8.93773911,29.9826429 7.57430736,29.7016435 6.63253734,28.3246286 C6.71686969,28.3246286 11.1867193,28.5775281 12.4940471,28.4932283 C14.911692,28.4650108 17.1184473,28.2684288 19.5783172,28.1981201 C24.4277212,28.2824199 29.2351354,28.2825375 34.0841866,28.6196193 C33.6202999,28.3024074 33.6037157,27.5531147 34.317659,27.369936 C34.37835,27.3281976 34.4096365,27.7425248 34.516434,27.734765 C35.0877062,27.6919684 34.8371792,28.4653635 34.7115628,28.6247925 L34.7120333,28.6249101 Z M15.24267,1.90527344 C14.5077907,4.00500938 15.6637437,6.30179765 16.465195,6.07817383 C17.0434068,6.31743485 17.4115522,5.2178923 17.6483179,4.01323949 C17.8102783,3.67509958 17.9326014,3.63912225 18.0157576,3.81289512 C17.9944686,5.41482705 18.1309059,5.76966231 18.5429229,6.25594418 C19.4619926,6.96479171 20.2222775,6.34647538 20.28191,6.2867483 L20.9975,5.57143426 C21.1567552,5.40389276 21.3688211,5.3941342 21.593825,5.5416883 C21.8124775,5.74038664 21.7817791,6.08346461 22.2497824,6.32143233 C22.6438039,6.47898013 23.4859511,6.35787996 23.6811976,6.01856432 C23.9437217,5.56873008 24.0067651,5.41423918 24.1283825,5.24364078 C24.3157485,4.99426848 24.6353175,5.1051398 24.6353175,5.1839137 C24.6054425,5.32300254 24.4179588,5.46220896 24.5459276,5.71263942 C24.7686967,5.87971063 24.8202136,5.77224892 24.9520637,5.73509586 C25.4183028,5.51229505 25.768335,4.4984632 25.768335,4.4984632 C25.7890358,4.12128906 25.577558,4.1524459 25.440415,4.23016165 C25.2615175,4.33950452 25.2498733,4.3744237 25.0708582,4.48376658 C24.8429139,4.5176276 24.4006689,4.66870888 24.1820165,4.33033383 C23.9587769,3.92341373 23.9557188,3.35565378 23.7850546,2.94532406 C23.7850546,2.91546053 23.4888916,2.29890779 23.764589,2.25940327 C23.9036139,2.28526933 24.2004825,2.36380808 24.2476475,2.11396549 C24.3936118,1.87035426 23.9352532,1.18067113 23.6215651,0.832302375 C23.3492786,0.533431846 22.971959,0.497454513 22.607695,0.802556409 C22.3526985,1.03711451 22.3893954,1.2991847 22.33929,1.54761642 C22.2743647,1.83284848 22.2882436,2.18380384 22.5779376,2.56109555 C22.8324637,3.06277948 23.2969385,3.7089606 23.1443875,4.61756463 C23.1443875,4.61756463 22.8731596,5.04705875 22.4004515,4.99085886 C22.2033232,4.94794472 21.8838718,4.86435033 21.7132076,3.60420307 C21.583945,2.65045102 21.7436707,1.31588006 21.3387108,0.690274208 C21.1923936,0.312512207 21.0855961,-0.052316766 20.729095,0.593864361 C20.6333536,0.847586863 20.2222775,1.23263839 20.52044,2.02461002 C20.7643805,2.52664666 20.8636503,3.34377891 20.7529715,4.25308838 C20.5839539,4.51139623 20.5464337,4.59887053 20.3248407,4.85729595 C20.0136226,5.19179109 19.6758228,5.10643311 19.41718,4.98145302 C19.1754744,4.81861444 18.9862264,4.73443218 18.8759004,4.21711105 C18.8958956,3.3925717 18.9417667,2.04271626 18.79098,1.75642604 C18.5686814,1.31294074 18.2021826,1.47331029 18.045515,1.60734349 C17.2931105,2.29502788 16.9214366,3.45535567 16.6941979,4.37936177 C16.485543,5.05270225 16.2634796,4.85976498 16.1072824,4.58805381 C15.7273752,4.23204281 15.7014992,1.44767938 15.24267,1.90550858 L15.24267,1.90527344 Z" id="Shape" fill="#FFFFFF"></path>
                        <path d="M17.4550709,6.46945672 C17.7887542,6.23313502 17.6327923,6.06806255 18.1318469,6.56680715 C18.7566355,7.63460501 19.1583021,9.01761603 19.2185227,10.2428441 C19.1921762,10.5447715 19.4050653,10.7358276 19.5024533,10.6702219 C19.5603215,9.96137438 21.284724,8.97376131 22.8658673,8.82938168 C23.1076906,8.77682656 22.9900722,8.313589 23.0294744,8.07738487 C22.934674,7.19993768 23.5227657,6.40102925 24.347035,6.33730469 C25.4688787,6.5030826 25.8423169,7.10176424 25.8612534,8.01565905 C25.7401066,9.77008314 23.9117295,10.0675428 22.884451,10.2074546 C22.7268424,10.2670641 22.6612114,10.3397242 22.884451,10.4256701 L27.188694,10.4451872 L27.4082874,10.5719309 C27.4346339,10.6745721 27.3455969,10.588979 27.1756384,10.8686851 C27.0057975,11.1483912 26.7551528,11.7933966 26.7422148,12.2240665 C25.4598221,12.6362774 24.1334401,12.8168695 22.7852987,12.9798256 C22.3169425,13.2166176 22.0847639,13.5320659 22.1809757,13.8871364 C22.3385843,14.2810059 23.375978,14.6744051 23.375978,14.6930992 C23.5729887,14.8165508 23.8061083,15.1048398 23.3202269,15.6954089 C21.2207396,15.6031141 19.5937252,14.7099121 19.0304509,13.4492946 C18.8607277,13.3177304 18.6779488,13.4485891 18.5608009,13.6189524 C17.7411187,14.6752281 16.9346098,15.6263935 15.5370687,16.1313695 C14.7036252,16.3394737 13.8505394,16.0035677 13.447579,15.458029 C13.1778801,15.1475188 13.1881129,14.8046759 13.0890783,14.7303698 C12.6386001,14.9295384 8.76248779,16.575913 9.25377958,15.8089844 C10.1970786,14.7996203 11.8303269,14.0583226 13.2726805,13.0621267 C13.3767727,12.728337 13.5660207,11.5992836 14.1356463,11.2315153 C14.1685794,11.2342195 14.045433,11.894627 14.0577829,12.1730398 C14.0642519,12.4016017 14.0409635,12.4911923 14.0910689,12.4324058 C14.1883393,12.3703273 15.9385001,10.9956639 16.0737612,10.5741648 C16.2443078,10.3324347 16.1249252,9.72023219 16.1249252,9.70165566 C15.79677,8.85607075 15.3362942,8.78423366 15.16563,8.36414538 C15.0120205,7.80602642 15.0815329,7.16901598 15.4006315,6.99148078 C15.6840917,6.73434866 16.0196568,6.76609336 16.3292282,7.0470928 C16.6827889,7.36359928 16.9967123,7.98215075 17.0875136,8.44291928 C17.0268226,8.62515741 16.6249207,8.3218191 16.485543,8.4123503 C16.7323063,8.66771883 16.8474546,8.96235673 16.9366093,9.3228355 C17.1645537,10.2879921 17.0950412,10.6631675 16.8655678,11.2872449 C16.0885811,12.9203337 15.0955295,13.4076737 14.2266828,14.0127043 C14.203512,14.0209344 14.188104,14.4271491 14.5148478,14.6467754 C14.6275261,14.7650538 15.0807096,14.8257215 15.6136383,14.6550055 C16.6433868,14.0937121 17.7123022,13.0596577 18.2429962,11.9076776 C18.3970762,11.0363442 18.1834813,10.1123381 17.9567131,9.30649286 C17.6152671,8.518989 17.21313,7.39452097 17.21313,7.37594444 C17.1998392,6.88484208 17.2398294,6.71447882 17.4553062,6.46945672 L17.4550709,6.46945672 Z M6.18605813,1.9276123 C6.68146657,2.16381643 7.61288617,2.06329153 7.57348403,1.26473581 C7.57348403,1.19419202 7.55548842,0.955283717 7.54843132,0.890501002 C7.44727956,0.655119886 7.17146456,0.713318514 7.1088916,0.956341874 C7.08924934,1.03593878 7.14394187,1.16562179 7.07184183,1.2055966 C7.03044017,1.24733501 6.87212589,1.22276226 6.87871252,1.00219534 C6.87871252,0.931886693 6.82696045,0.856404837 6.79567397,0.811727102 C6.76438749,0.791269403 6.74451,0.785625899 6.68781796,0.785625899 C6.61865838,0.788330078 6.61983456,0.806318745 6.58196145,0.8643998 C6.56584774,0.923421438 6.5437355,0.981149774 6.5437355,1.04816638 C6.53503174,1.12670513 6.50539192,1.1546875 6.44764131,1.16632723 C6.38306885,1.16632723 6.39765352,1.1733816 6.34531336,1.14010845 C6.31426212,1.10601228 6.27544807,1.09307926 6.27544807,1.03511577 C6.27544807,0.975035979 6.26180434,0.87780312 6.24369112,0.838181024 C6.21628605,0.801968544 6.17217917,0.785273181 6.12254423,0.772457725 C5.85202206,0.773398309 5.83320312,1.08190982 5.84884636,1.19901252 C5.82849839,1.22111624 5.81708941,1.77453228 6.18605813,1.9276123 L6.18605813,1.9276123 Z" id="Shape" fill="#FFFFFF"></path>
                        <path d="M20.7083941,8.07197651 C21.2038026,8.30818064 22.383044,8.17226627 22.09582,7.40910002 C22.09582,7.33855623 22.0778244,7.09953035 22.0707673,7.03486521 C21.9696156,6.79948409 21.6938006,6.85768272 21.6312276,7.10070608 C21.6115853,7.18030299 21.6662779,7.30998599 21.5941778,7.34996081 C21.5527762,7.39169922 21.3944619,7.36712646 21.4010485,7.14655954 C21.4010485,7.0762509 21.3492964,7.00076904 21.31801,6.95609131 C21.2867235,6.93563361 21.266846,6.92999011 21.210154,6.92999011 C21.1409944,6.93269428 21.1421706,6.95068295 21.1042974,7.00876401 C21.0881837,7.06778564 21.0660715,7.12551398 21.0660715,7.19253058 C21.0573677,7.27106934 21.0277279,7.29905171 20.9699773,7.31069143 C20.9054048,7.31069143 20.9199895,7.31774581 20.8676494,7.28447266 C20.8365981,7.25037649 20.7977841,7.23744346 20.7977841,7.17947998 C20.7977841,7.11940019 20.7841403,7.02216733 20.7660271,6.98254523 C20.738622,6.94633275 20.6945152,6.92963739 20.6448802,6.91682193 C20.3743581,6.91776252 20.3555391,7.22627403 20.3711824,7.34337672 C20.3508344,7.36548044 20.3394254,7.91889648 20.7083941,8.07197651 L20.7083941,8.07197651 Z M29.1769143,5.52887284 C29.6723228,5.76507697 30.6037424,5.66455207 30.5643402,4.86599635 C30.5643402,4.79545256 30.5463446,4.55654425 30.5392875,4.49176154 C30.4381358,4.25638042 30.1623208,4.31457905 30.0997478,4.55760241 C30.0801056,4.63719932 30.1347981,4.76688232 30.062698,4.80685714 C30.0212964,4.84859555 29.8629821,4.8240228 29.8695687,4.60345587 C29.8695687,4.53314723 29.8178167,4.45766537 29.7865302,4.41298764 C29.7552437,4.39252994 29.7353662,4.38688644 29.6786742,4.38688644 C29.6095146,4.38959061 29.6106908,4.40757928 29.5728177,4.46566034 C29.556704,4.52468197 29.5344741,4.58241031 29.5344741,4.64942691 C29.525888,4.72796567 29.4962481,4.75594804 29.4384975,4.76758776 C29.3739251,4.76758776 29.3885097,4.77464214 29.3361696,4.74136899 C29.3051183,4.70727282 29.2661867,4.69433979 29.2661867,4.63637631 C29.2661867,4.57629652 29.2526606,4.47906366 29.2345473,4.43944156 C29.2071423,4.40322908 29.1630354,4.38653372 29.1134004,4.37371826 C28.8428783,4.37465885 28.8240593,4.68317036 28.8397026,4.80027305 C28.8193546,4.82237677 28.8079456,5.37579281 29.1769143,5.52887284 L29.1769143,5.52887284 Z M33.5629021,11.9166131 C32.6995835,12.8892944 33.0801965,14.497928 33.2752077,14.8445332 C33.559844,15.4138216 33.7890822,15.7788857 34.3429469,16.060473 C34.8475296,16.4316509 35.2406101,16.1996794 35.457263,15.9397255 C35.9650214,15.4138216 35.9710199,14.0710205 36.2093147,13.8049528 C36.376568,13.3162019 36.7974064,13.3996788 37.0017094,13.6162482 C37.1996611,13.9007748 37.4328982,14.0841887 37.723886,14.2391499 C38.1972998,14.6567691 38.7628088,14.7329564 39.3199668,14.3524902 C39.7005798,14.1389777 39.9480487,13.8631515 40.1709355,13.3156141 C40.4186397,12.6536782 40.2805558,9.59466424 40.2310385,7.78168881 C40.2119843,7.6394255 39.7389233,5.28855366 39.7389233,5.26233488 C39.7389233,5.23599854 39.6763504,4.06250257 39.6243631,3.78291401 C39.6151888,3.66945608 39.5870781,3.63688836 39.7059902,3.65123227 C39.8321947,3.75740067 39.8494846,3.76410233 39.9282889,3.79902151 C40.0555519,3.82230096 40.1695241,3.60561395 40.0927193,3.40632774 L38.9108903,1.2273476 C38.8159723,1.13399465 38.6935316,1.03147101 38.5430977,1.25368395 C38.3993681,1.37960462 38.2463467,1.60757864 38.2510514,1.90068809 C38.285984,2.41706864 38.376903,2.94238474 38.411718,3.45888286 L38.8845437,6.11038883 C39.0334486,8.00049214 39.0707336,9.5473999 39.2195208,11.4375032 C39.1987023,12.2378225 38.9498219,12.9356182 38.7163495,13.0362607 C38.7163495,13.0362607 38.3611421,13.2420134 38.122965,13.0147448 C37.9497132,12.9452592 37.2563531,11.8595902 37.2563531,11.8595902 C36.9018514,11.5347361 36.6681438,11.6276187 36.4158525,11.8595902 C35.7202576,12.5310495 35.405511,13.7870817 34.9328029,14.6534771 C34.8109503,14.8468846 34.4664462,15.0123098 34.0847747,14.6393683 C33.1153643,13.3157317 33.6835785,11.43233 33.5629021,11.9166131 L33.5629021,11.9166131 Z M29.399213,0.892970035 C29.842987,1.07873535 30.156087,1.97734568 30.0539943,2.41612806 C29.9656629,2.95896253 29.7303086,3.54518144 29.5610558,3.46887657 C29.3771008,3.40068424 29.686437,2.92921657 29.5096566,2.43470459 C29.4114453,2.11278976 28.8058285,1.52457211 28.8695776,1.35115196 C28.7445493,0.987851434 29.1270442,0.828892758 29.399213,0.892970035 L29.399213,0.892970035 Z" id="Shape" fill="#FFFFFF"></path>
                        <path d="M34.9919649,12.4492187 C35.0853539,11.3700163 34.9277453,10.7119603 34.8997521,10.0776541 C34.871759,9.44334781 34.182045,4.60357345 34.0421968,4.12364052 C33.8734145,3.21621222 34.7126214,4.00195248 34.620879,3.47416735 C34.330597,2.80870426 33.6080676,1.83990286 33.3811818,1.26191406 C33.2447445,1.01430536 33.3020246,0.793973581 32.9964522,1.19677863 C32.7131096,2.12278346 32.6147807,2.87971834 32.7229896,3.45476781 C33.4506942,7.2511995 34.1971002,10.4080342 34.0786585,14.0221101 C34.4237507,14.0244616 34.8215359,13.2327251 34.9919649,12.4493363 L34.9919649,12.4492187 Z M42.574819,2.42259457 C42.9794261,2.62364438 43.2164271,3.749876 43.1717321,4.07167326 C43.0912812,4.65942062 42.8765101,5.29407959 42.7224301,5.21142578 C42.5547063,5.13758995 42.7559513,4.33985724 42.6753827,4.09177824 C42.5859928,3.74329192 42.0338923,3.10651663 42.0919958,2.91875257 C41.977906,2.52547093 42.3266444,2.35334408 42.574819,2.42259457 L42.574819,2.42259457 Z M12.503339,10.4081517 C12.8903033,10.5558234 13.1173067,11.3834196 13.0744936,11.6199765 C12.997336,12.0517045 12.7918568,12.5181165 12.644481,12.4574489 C12.4840496,12.4031301 12.6767084,11.8169112 12.5996684,11.6346731 C12.5669705,11.1925987 12.0298076,10.9636841 12.0409813,10.7727456 C11.9407705,10.4216726 12.2657499,10.3571251 12.503339,10.4082693 L12.503339,10.4081517 Z" id="Shape" fill="#FFFFFF"></path>
                        <path d="M21.8551729,11.6508982 C22.354698,11.6826429 22.6044017,12.0743961 22.1363984,12.2387631 C21.674864,12.3966636 21.2313253,12.5201153 21.2292081,13.1868717 C21.3999899,14.1159334 20.9951476,13.7970755 20.7535596,13.6709196 C20.4690408,13.4666954 19.6705299,12.9748876 19.5566754,11.9132035 C19.5396207,11.6598337 19.7372195,11.4465563 20.0553771,11.4480848 C20.5346718,11.5782381 21.2417933,11.5877615 21.8550553,11.6508982 L21.8551729,11.6508982 Z" id="Shape" fill="#1B9D00"></path>
                        <path d="M2.15868868,0.624903629 C2.7297257,0.797030479 2.76348216,1.6360313 2.7213748,1.88128855 C2.64527574,2.32900648 2.4429722,2.81246659 2.29771355,2.74944747 C2.13963451,2.69324758 2.29147978,2.08551282 2.21561595,1.89645546 C2.13093075,1.63097566 1.64846033,1.14586953 1.70315286,1.00290078 C1.59576732,0.703207237 1.92462819,0.571995785 2.15868868,0.624903629 L2.15868868,0.624903629 Z M13.4360524,4.58005885 C12.9979241,4.81696842 12.8279656,5.52299419 13.1008401,5.93426449 C13.3556014,6.29638929 13.7579738,6.16212094 13.8116077,6.16212094 C14.2409147,6.21585179 14.4955584,5.35768657 14.4955584,5.35768657 C14.4955584,5.35768657 14.5090845,5.11642681 13.9993266,5.57237485 C13.7847908,5.61258481 13.7579738,5.53204731 13.7043398,5.41129986 C13.6596448,5.18791118 13.6685838,4.96452251 13.7713823,4.74101627 C13.8473637,4.52656314 13.6818747,4.43262233 13.4360524,4.58005885 L13.4360524,4.58005885 Z M16.7223087,0.30040219 C16.5021272,0.447956286 16.0638813,0.901788009 16.0504728,1.42475265 C16.0371819,1.71974327 15.9822541,1.71880268 16.1753834,1.90656674 C16.3149964,2.10785169 16.4557856,2.08974545 16.7375991,1.94219135 C16.8994419,1.82297235 16.9541344,1.74384573 17.0087094,1.54397165 C17.0757518,1.20888865 16.6542077,1.70293033 16.6005737,1.32998882 C16.5067143,0.983618807 16.7774717,0.841825786 17.032233,0.506742779 C17.0407015,0.277122738 17.0357616,0.1145193 16.7223087,0.30040219 L16.7223087,0.30040219 Z M19.3698975,0.77069413 C19.2749795,0.98020919 19.1612425,2.07493126 19.1801791,2.07493126 C19.1044329,2.40107872 19.5216251,2.54063785 19.7113435,2.12137258 C19.9958622,1.35279798 19.9958622,1.02676809 20.0147988,0.700620631 C19.9262322,0.203992342 19.5912552,0.219511976 19.3698975,0.77069413 L19.3698975,0.77069413 Z M36.0622918,9.26181512 C36.119219,9.2049098 38.4144233,7.57429006 38.4144233,7.57429006 C38.6483661,7.49210655 38.5976726,8.41493691 38.4902871,8.40858797 C38.5345116,8.59176668 36.2267222,10.1592497 36.0621741,10.096113 C35.9484372,10.1782965 35.8345827,9.46415823 36.0621741,9.26181512 L36.0622918,9.26181512 Z M38.154722,9.24770636 C38.559329,9.44875617 38.7204662,10.6318931 38.6757712,10.9536904 C38.6901206,11.5794138 38.2858664,12.0812153 38.1315512,11.9986791 C37.9638274,11.9248432 38.1462534,11.2218744 38.0656849,10.9737954 C37.976295,10.625309 37.6327318,9.96948692 37.6907176,9.78172286 C37.5767455,9.38844123 37.9065473,9.17845587 38.154722,9.24770636 L38.154722,9.24770636 Z M24.5027617,14.3433195 C24.6623697,14.1100547 25.1555434,13.7743839 25.1667172,13.7743839 C25.394191,13.6605732 25.6164897,13.8636218 25.6030812,13.8502184 C25.6408367,14.0778397 25.4589987,14.2895887 25.5160436,14.5930446 C25.5656786,14.7153205 25.6021403,14.8511173 25.8263208,14.7993852 C26.19082,14.5127422 26.5285023,14.4942833 26.8928839,14.4760594 C27.1721098,14.4928724 27.1831659,14.9655158 27.0066208,14.969043 C26.3337263,15.1151862 26.0321529,15.295308 25.551682,15.4786043 C25.3239729,15.6113442 25.1287264,15.4429797 25.1287264,15.4240504 C25.1287264,15.4051212 24.9955825,15.2949553 25.088501,14.9934981 C25.1049675,14.7517681 25.0076972,14.6192633 24.806217,14.6466578 C24.6544893,14.7287238 24.5208749,14.7830425 24.4450111,14.6086818 C24.415136,14.4799394 24.4053737,14.4172729 24.5027617,14.3433195 L24.5027617,14.3433195 Z M40.5694264,14.9805651 C40.6677553,15.1056628 40.7313869,15.2214722 40.561546,15.4269897 C40.4005265,15.5744263 40.2871424,15.6556692 40.1262405,15.8031057 C40.0502591,15.9326712 40.0015651,16.1292532 40.2340965,16.1919196 C40.6634035,16.3125495 41.655867,15.6689549 41.655867,15.6555516 C41.8168865,15.5349217 41.7632525,15.3069477 41.7497264,15.3069477 C41.655867,15.1997212 41.4443892,15.2634457 41.3021886,15.2460449 C41.2344405,15.2460449 41.0122594,15.212419 41.1179983,15.015837 C41.2062121,14.8935611 41.2378514,14.8186671 41.2977192,14.6679386 C41.3647616,14.520502 41.3071286,14.422211 41.0656582,14.3416735 C40.8198359,14.2969958 40.7215069,14.3193347 40.44875,14.3416735 C40.3012566,14.3729479 40.250916,14.4389064 40.224099,14.6176173 C40.2346846,14.8887406 40.3995855,14.8733386 40.5694264,14.9805651 L40.5694264,14.9805651 Z" id="Shape" fill="#FFFFFF"></path>
                        <path d="M24.5906226,8.30865093 C24.5276967,8.41740594 24.3149252,8.41211516 24.1154445,8.29689363 C23.9159638,8.18167211 23.8051673,7.9997867 23.8680931,7.89091411 C23.9310189,7.78204153 24.1437905,7.78744989 24.3432712,7.90290656 C24.5427519,8.01836323 24.6535484,8.19989592 24.5906226,8.30865093 L24.5906226,8.30865093 Z M14.1141221,2.00744436 C13.9948571,2.03660246 13.8390128,1.93031648 13.7659718,1.7700645 C13.6929308,1.60981253 13.7305687,1.45626221 13.8497161,1.42710411 C13.9688635,1.39794601 14.1248254,1.50411441 14.1978664,1.66436639 C14.2709073,1.82461837 14.2333871,1.97828626 14.1141221,2.00744436 L14.1141221,2.00744436 Z" id="Shape" fill="#259F00"></path>
                        <path d="M34.8378849,30.0863423 C35.9377339,30.1399555 36.9711286,30.098805 38.0709777,30.1525359 C38.2702232,30.3218409 38.127905,30.7374615 37.9951139,30.7077155 C37.6375541,30.6986624 37.4314868,30.6898444 37.0738095,30.6807913 C37.0615771,30.3306589 36.1674426,30.3880345 36.193201,30.6919607 C35.7103777,30.7500418 35.2749546,30.6751478 34.7921313,30.6572767 C34.6493427,30.4797415 34.6676911,30.1597078 34.8380025,30.0863423 L34.8378849,30.0863423 Z" id="Shape" fill="#209000"></path>
                    </g>
                </g>
            </g>
        </g>
    </g>
</svg>