<?xml version="1.0" encoding="UTF-8" standalone="no"?>
<svg width="122px" height="60px" viewBox="0 0 122 60" version="1.1" xmlns="http://www.w3.org/2000/svg" xmlns:xlink="http://www.w3.org/1999/xlink">
    <!-- Generator: Sketch 3.8.2 (29753) - http://www.bohemiancoding.com/sketch -->
    <title>bm</title>
    <desc>Created with Sketch.</desc>
    <defs></defs>
    <g id="Page-1" stroke="none" stroke-width="1" fill="none" fill-rule="evenodd">
        <g id="bm">
            <g id="Group">
                <g>
                    <polygon id="Shape" fill="#CF142B" points="0 0 122 0 122 60 0 60"></polygon>
                    <polygon id="Shape" fill="#00247D" points="0 0 40 0 40 20 0 20"></polygon>
                    <path d="M0,0 L0,2.236 L35.528,20 L40,20 L40,17.764 L4.472,0 L0,0 L0,0 Z M40,0 L40,2.236 L4.472,20 L0,20 L0,17.764 L35.528,0 L40,0 L40,0 Z" id="Shape" fill="#FFFFFF"></path>
                    <path d="M16.666625,6.666625 L16.666625,0 L23.333375,0 L23.333375,6.666625 L40,6.666625 L40,13.333375 L23.333375,13.333375 L23.333375,20 L16.666625,20 L16.666625,13.333375 L0,13.333375 L0,6.666625 L16.666625,6.666625 Z" id="Shape" fill="#FFFFFF"></path>
                    <path d="M18,12 L0,12 L0,8 L18,8 L18,0 L22,0 L22,8 L40,8 L40,12 L22,12 L22,20 L18,20 L18,12 Z M0,20 L13.333375,13.333375 L16.314625,13.333375 L2.98125,20 L0,20 Z M0,0 L13.333375,6.666625 L10.352125,6.666625 L0,1.490625 L0,0 Z M23.685375,6.666625 L37.01875,0 L40,0 L26.666625,6.666625 L23.685375,6.666625 Z M40,20 L26.666625,13.333375 L29.647875,13.333375 L40,18.509375 L40,20 Z" id="Shape" fill="#CF142B"></path>
                    <path d="M69.22875,18.5325 L69.22875,35.471625 C69.22875,39.99625 60.18375,41.46625 60.18375,41.46625 C60.18375,41.46625 51.139,39.99625 51.139,35.471625 L51.139,18.5325 L69.229,18.5325 L69.22875,18.5325 Z" id="Shape" fill="#FFFFFF"></path>
                    <path d="M69.22875,35.471625 C69.22875,39.99625 60.18375,41.46625 60.18375,41.46625 C60.18375,41.46625 51.139,39.99625 51.139,35.471625 C51.139,35.471625 51.139,35.10725 51.323,34.9 C51.323,34.9 51.223375,35.6525 51.8015,36.22175 C51.8015,36.22175 51.348,35.418875 51.7915,34.62975 C51.7915,34.62975 51.627,35.645 52.26,36.228 C52.26,36.228 51.91125,35.398625 52.305,34.473875 C52.305,34.473875 52.1105,35.986875 52.798375,36.2885 C52.798375,36.2885 52.987625,35.419 52.713625,34.861 C52.713625,34.861 53.187,35.052 53.162,36.3135 C53.162,36.3135 53.3115,36.127625 53.351375,35.217875 C53.351375,35.217875 53.371375,36.25825 53.730125,36.4995 C53.730125,36.4995 53.839875,36.394 53.690375,35.9215 C53.540875,35.449 53.755125,35.283375 53.79,35.293375 C53.79,35.293375 53.7115,35.815875 54.149625,36.208125 C54.149625,36.208125 53.959625,35.388875 54.223875,35.278125 C54.223875,35.278125 54.169125,35.971875 54.717375,36.12775 C54.717375,36.12775 54.757375,35.9265 54.637625,35.7005 C54.637625,35.7005 54.533,35.43225 54.612625,35.227125 C54.612625,35.227125 54.787125,35.85625 55.026375,35.961875 C55.026375,35.961875 54.88175,35.593125 55.016375,35.227125 C55.016375,35.227125 55.046375,35.750875 55.51475,35.966875 C55.51475,35.966875 55.206,35.5615 55.328,35.115625 L58.34075,35.263125 L59.90075,35.337625 L64.581,35.00675 L65.3885,34.313 C65.3885,34.313 65.70725,34.7555 65.204,35.45425 C65.204,35.45425 65.70275,35.363625 65.862125,34.5845 C65.862125,34.5845 66.066375,35.01675 65.787125,35.4945 C65.787125,35.4945 66.340625,34.9415 66.42025,34.31325 C66.42025,34.31325 66.634625,34.92125 66.11125,35.57475 C66.11125,35.57475 66.57975,35.418875 66.779125,34.72525 C66.779125,34.72525 66.93875,35.143125 66.485125,35.7335 C66.485125,35.7335 67.332625,35.2835 67.307625,34.3535 C67.307625,34.3535 67.661375,34.866 67.257625,35.56975 C67.257625,35.56975 67.691375,35.18275 67.731375,34.60475 C67.731375,34.60475 67.9705,34.866 67.711375,35.58475 C67.711375,35.58475 68.239625,35.08725 68.319375,34.549375 C68.319375,34.549375 68.434,35.046875 67.980625,35.67525 C67.980625,35.67525 68.289375,35.599875 68.583625,34.9865 C68.583625,34.9865 68.663375,35.228 68.39425,35.67025 C68.39425,35.67025 68.6835,35.62 68.87775,35.067125 C68.87775,35.067125 68.91275,35.398875 68.828,35.6955 C68.828,35.6955 69.05225,35.54975 69.102125,34.921375 C69.102125,34.921375 69.227375,35.127375 69.229625,35.383625 C69.2315,35.640125 69.229375,35.47175 69.229375,35.47175 L69.22875,35.471625 Z" id="Shape" fill="#2F8F22"></path>
                    <path d="M64.57125,25.6795 C64.57125,25.6795 64.25675,25.732875 63.853125,25.609875 C63.449375,25.48675 63.28625,25.53675 63.161,25.609875 C63.161,25.609875 63.32475,25.285375 62.926,25.02925 C62.926,25.02925 63.055625,25.35675 62.87625,25.509625 C62.87625,25.509625 62.7965,25.584625 62.70175,25.471625 C62.70175,25.471625 62.56225,25.328375 62.41525,25.217875 C62.41525,25.217875 62.754,25.09975 62.691875,24.755375 C62.629375,24.411125 62.445125,24.365875 62.345625,24.32325 C62.345625,24.32325 62.380375,24.479 62.345625,24.5845 C62.345625,24.5845 61.976625,24.3785 62.4775,24.087 C62.978375,23.795375 62.88625,23.6245 62.7965,23.47625 C62.70675,23.328125 62.514875,23.16475 62.42025,23.106875 C62.42025,23.106875 62.519875,23.26275 62.502375,23.396 C62.484875,23.529125 62.258,23.61475 62.302875,23.381 C62.347875,23.14725 62.300375,23.18725 62.295375,22.9385 C62.295375,22.9385 62.741625,23.089375 62.916,22.65475 C62.916,22.65475 63.08775,22.20475 62.5245,21.981 C62.5245,21.981 62.661625,22.1645 62.59425,22.30275 C62.59425,22.30275 62.47475,22.529 62.332625,22.3455 C62.1905,22.162 62.100875,22.12675 62.115875,21.9105 C62.115875,21.9105 62.626625,21.981125 62.487125,21.4255 C62.487125,21.4255 62.404875,21.795125 61.742125,21.2975 C61.742125,21.2975 62.173,20.855 62.006125,20.49825 C62.006125,20.49825 61.953625,20.334875 61.48525,20.430375 C61.48525,20.430375 61.8915,20.174125 61.7195,19.955375 C61.7195,19.955375 61.632,19.80975 61.25325,20.000625 C61.25325,20.000625 61.400375,19.746875 61.029,19.472875 C61.029,19.472875 60.779875,19.603625 60.64775,19.724125 C60.64775,19.724125 60.393625,19.4025 60.2315,19.274375 C60.2315,19.274375 59.9375,19.3875 59.86275,19.724375 C59.86275,19.724375 59.72575,19.560875 59.41425,19.485625 C59.41425,19.485625 59.26475,19.761875 59.45925,20.003125 C59.45925,20.003125 59.3145,19.998125 59.0505,19.8825 C59.0505,19.8825 58.748875,19.73925 58.793625,19.998125 C58.838625,20.256875 58.860875,20.31475 58.92075,20.435375 C58.92075,20.435375 58.244125,20.27825 58.272875,20.644125 C58.292875,20.897875 58.3875,21.116375 58.596875,21.299875 C58.596875,21.299875 58.217875,21.794875 57.893875,21.422875 C57.893875,21.422875 57.78175,21.5435 58.0235,21.860125 C58.0235,21.860125 58.26525,22.126375 58.066,22.295125 C58.066,22.295125 57.79925,22.5085 57.66975,22.093875 C57.66975,22.093875 57.2385,22.523625 57.747,22.852875 C57.747,22.852875 58.073625,23.038875 58.4075,22.75225 C58.4075,22.75225 58.305375,23.5765 57.98625,23.418125 C57.98625,23.418125 57.794375,23.2775 58.13825,23.109125 C58.13825,23.109125 57.642375,23.04625 57.562625,23.52625 C57.562625,23.52625 57.501375,23.908125 57.933875,24.0465 C57.933875,24.0465 58.267875,24.167125 57.921375,24.426 C57.921375,24.426 57.677125,24.612 57.83675,24.8885 C57.83675,24.8885 58.028625,25.1925 57.542625,25.222625 C57.542625,25.222625 57.2785,25.220125 57.183875,25.185125 C57.183875,25.185125 57.077125,25.383125 57.151625,25.6095 C57.151625,25.6095 56.909625,25.42925 56.358875,25.62875 C55.808125,25.828375 55.8505,25.6875 55.805625,25.748 C55.760625,25.80825 55.6535,26.01175 55.6535,26.01175 C55.6535,26.01175 55.942625,26.363625 55.9475,26.356125 C55.9525,26.348625 55.89275,26.75825 55.89275,26.75825 L56.034875,26.826125 L57.168625,26.321125 L58.320125,25.721125 L59.24575,25.77775 L59.833,25.9175 L60.604,25.97375 L61.15625,25.67925 L61.95625,25.67925 L62.836,26.117625 L63.84025,26.716875 L64.363625,26.808625 L64.76675,26.787125 L64.76675,25.973875 L64.5705,25.679625 L64.57125,25.6795 Z" id="Shape" stroke="#000000" stroke-width="0.1" fill="#D40000"></path>
                    <path d="M55.437875,26.630375 C55.437875,26.630375 55.876625,26.854125 56.059625,26.582625 C56.059625,26.582625 56.299,26.126625 55.773625,25.968375 C55.773625,25.968375 56.0595,25.62525 55.753,25.308625 C55.753,25.308625 55.59225,25.139 55.31175,25.263625 C55.31175,25.263625 55.196,25.022125 54.923,25.029625 C54.923,25.029625 54.683875,25.025875 54.60175,25.289625 C54.60175,25.289625 54.272625,25.154125 54.0895,25.350125 C54.0895,25.350125 53.786625,25.689375 54.209125,25.957 L54.513125,25.98475 L54.812125,25.8465 L55.145875,25.942125 C55.14625,25.942125 55.06025,26.280125 55.43775,26.630625 L55.437875,26.630375 Z" id="Shape" stroke="#000000" stroke-width="0.1" fill="#D40000"></path>
                    <path d="M65.22875,25.82825 C65.757125,25.7785 65.94375,26.2245 65.94375,26.2245 C66.220625,26.87425 65.6325,27.221125 65.6325,27.221125 C65.6775,27.36675 65.6825,27.557625 65.6825,27.557625 C66.509625,27.65825 66.365,28.588125 66.365,28.588125 L66.091,28.361875 C65.6125,28.175875 65.119125,28.583125 64.76525,29.266625 C64.4115,29.950375 64.580875,30.271875 64.640625,31.081125 C64.700625,31.89025 66.01625,32.372875 66.01625,32.372875 C66.01625,32.372875 65.39325,33.97625 64.9895,35.006625 C64.58575,36.037 63.7435,35.60975 63.49925,35.392875 C63.255,35.175625 63.194,35.29625 63.0705,35.392875 C62.94725,35.489125 63.623875,36.016875 62.39275,36.5145 C61.1615,37.012 60.947375,37.394125 60.743,37.51975 C60.53875,37.64525 59.686375,37.55975 59.60175,37.45425 C59.517,37.34875 59.56675,37.34875 59.248,37.152625 C58.928875,36.956625 58.3905,36.78575 57.802375,36.49925 C57.214125,36.21275 57.229125,35.84575 57.234125,35.7705 C57.239125,35.695125 57.438375,35.08175 56.749625,35.56925 C56.060875,36.05675 55.474625,35.33725 55.474625,35.33725 C55.340125,35.160375 54.766875,33.62425 54.766875,33.62425 C54.612375,33.05125 54.308375,32.38275 54.308375,32.38275 C54.323375,32.37775 54.278375,32.453125 54.786875,32.1615 C55.29525,31.87025 55.522875,31.38525 55.698875,30.90525 C55.874875,30.42525 55.703875,29.60325 55.639125,29.437375 C55.574125,29.271625 55.195375,28.511125 54.726375,28.351875 C54.257375,28.1925 53.942875,28.588125 53.942875,28.588125 C53.942875,28.588125 53.798125,27.658125 54.625375,27.557625 C54.625375,27.557625 54.630375,27.36675 54.675375,27.221 C54.675375,27.221 54.08725,26.874 54.364125,26.224125 C54.364125,26.224125 54.55075,25.77825 55.079125,25.827875 L54.951375,26.06975 C54.951375,26.06975 54.81825,27.39675 56.760625,26.50725 C58.702875,25.61725 58.644625,25.4515 59.751125,26.0095 L60.558625,25.9945 C60.558625,25.9945 61.724875,25.454875 62.098625,25.687 C62.472375,25.919125 63.818125,26.673 63.818125,26.673 C63.818125,26.673 65.119,27.160875 65.373125,26.261 L65.228625,25.828 L65.22875,25.82825 Z" id="Shape" stroke="#000000" stroke-width="0.1" fill="#64B4D1"></path>
                    <path d="M59.38475,31.58125 C59.38475,31.58125 59.31725,31.174 59.246375,30.91025 C59.246375,30.91025 59.10225,30.4965 59.34825,30.20575 L59.65325,29.854875 C59.65325,29.854875 59.842625,29.599875 60.077375,29.565125 C60.077375,29.565125 60.312,29.558125 60.334375,29.510375 C60.356875,29.462625 60.6135,29.040375 61.224,29.510375 C61.224,29.510375 61.418625,29.19875 61.71775,29.146 C61.71775,29.146 62.040625,29.047875 62.196875,29.289125 C62.196875,29.289125 62.559875,29.013875 62.8715,29.456875 C62.8715,29.456875 63.30275,29.214375 63.6165,29.696625 C63.6165,29.696625 64.04275,29.48875 64.304375,29.931625 C64.566125,30.374875 64.51375,30.55575 64.51375,30.55575 L64.708,31.2595 L65.396,32.108875 L63.796,32.712 L63.0785,32.712 L61.643,33.0965 L59.093625,33.2925 L58.383375,32.455625 L59.385,31.581125 L59.38475,31.58125 Z" id="Shape" fill="#FFFFFF"></path>
                    <path d="M57.23,35.818375 C57.23,35.818375 56.84875,35.841125 56.65425,35.939125 C56.459875,36.037125 56.3105,36.142625 56.086125,36.285875 C56.086125,36.285875 55.981375,36.425375 55.54025,36.3405 C55.54025,36.3405 54.77775,36.15775 54.77775,36.753375 C54.77775,36.753375 53.8655,36.828625 54.239375,37.627875 C54.239375,37.627875 54.4935,38.253625 55.016875,37.808875 C55.016875,37.808875 54.680375,38.291375 55.330875,38.480125 C55.330875,38.480125 55.794375,38.593125 55.928875,38.118125 C55.928875,38.118125 56.003875,37.929625 55.82425,37.695875 C55.82425,37.695875 56.048625,37.650625 56.2055,37.409375 C56.2055,37.409375 55.727125,38.014125 56.2505,38.231875 C56.2505,38.231875 56.908,38.396875 56.9455,37.710875 C56.9455,37.710875 56.892,37.39425 57.14675,37.281125 C57.14675,37.281125 57.670875,37.1605 57.910125,36.576125 C57.910125,36.576125 57.156625,36.174875 57.22975,35.818625 L57.23,35.818375 Z M55.69,29.805 C55.69,29.805 55.102,29.534125 54.822875,29.805 C54.822875,29.805 54.434125,29.56425 54.025375,29.805 C54.025375,29.805 53.636625,30.059125 53.3675,30.33875 C53.3675,30.33875 53.178125,30.50125 53.247875,31.01225 C53.247875,31.01225 53.347625,31.372625 53.287875,31.5535 C53.287875,31.5535 53.158125,31.528 52.899125,31.835125 C52.899125,31.835125 52.57,32.216125 52.281,31.879875 C52.281,31.879875 52.370625,32.347875 52.913875,32.272375 C52.913875,32.272375 52.649875,32.478625 52.879125,33.011375 C52.879125,33.011375 53.048625,33.388375 52.7795,33.86075 C52.7795,33.86075 53.253,33.669875 53.233,33.112 C53.233,33.112 53.193,32.735 53.332625,32.4685 C53.332625,32.4685 53.193125,32.71075 53.517125,33.2275 C53.517125,33.2275 53.76625,33.599375 53.562125,33.98625 C53.562125,33.98625 54.0305,33.8155 53.985625,33.2475 C53.940875,32.6795 53.656625,32.91575 53.841125,32.393 C53.841125,32.393 53.886125,32.66075 54.0255,32.79575 C54.165,32.93075 54.3445,33.157 54.26975,33.534 C54.26975,33.534 54.548875,33.187125 54.484,32.83025 C54.419375,32.473375 54.349625,32.3655 54.349625,32.3655 L55.23175,31.86525 L55.6705,31.071125 L55.6905,29.804875 L55.69,29.805 Z" id="Shape" stroke="#000000" stroke-width="0.1" fill="#D40000"></path>
                    <path id="Shape" stroke="#000000" stroke-width="0.532"></path>
                    <path d="M54.8875,30.975625 C54.8875,30.975625 54.698375,30.975625 54.59375,30.885125 C54.59375,30.885125 54.48375,30.809875 54.419125,30.9305 C54.419125,30.9305 54.3195,31.101375 54.503875,31.17675 C54.503875,31.17675 54.73325,31.292375 54.369375,31.523625 C54.369375,31.523625 54.803125,31.36775 54.628625,31.15675 C54.628625,31.15675 54.43925,31.021 54.509,30.97075 C54.509,30.97075 54.529,30.9305 54.604,30.98075 C54.678625,31.031 54.828125,31.011 54.88775,30.97575 L54.8875,30.975625 Z" id="Shape" fill="#000000"></path>
                    <polygon id="Shape" fill="#784421" points="60.609625 32.01125 60.832625 31.935875 59.375375 26.902875 59.322 26.917125"></polygon>
                    <path id="Shape" fill="#000000"></path>
                    <path d="M54.546,38.38175 C54.546,38.38175 54.00025,38.03875 54.2955,37.462 C54.2955,37.462 54.3815,37.296125 54.546,37.33 C54.546,37.33 54.886,37.4355 54.62075,37.906875 C54.62075,37.906875 54.486125,38.21225 54.546,38.381875 L54.546,38.38175 Z M55.6525,38.924625 C55.6525,38.924625 54.875,38.570375 55.114125,37.967125 C55.114125,37.967125 55.188125,37.763375 55.360375,37.778625 C55.360375,37.778625 55.660375,37.793625 55.600375,38.19325 C55.600375,38.19325 55.510375,38.58525 55.6525,38.9245 L55.6525,38.924625 Z" id="Shape" fill="#64B4D1"></path>
                    <path id="Shape" fill="#000000"></path>
                    <path d="M56.1795,38.77375 C56.1795,38.77375 56.78875,38.619375 56.67675,37.98975 C56.67675,37.98975 56.61675,37.71475 56.359,37.75225 C56.359,37.75225 56.048125,37.831625 56.2505,38.23175 C56.2505,38.23175 56.370125,38.5175 56.1795,38.773875 L56.1795,38.77375 Z" id="Shape" fill="#64B4D1"></path>
                    <path d="M58.9325,25.455625 C58.9325,25.455625 59.325,25.576 59.538125,25.662875 C59.538125,25.662875 60.10625,25.919125 60.82775,25.662875 C60.82775,25.662875 61.315625,25.469625 61.38075,25.455625 L61.007,26.02475 L60.98825,26.31875 L61.222,26.66175 C61.222,26.66175 61.082,26.718375 60.66325,26.462 C60.66325,26.462 60.1995,26.103875 59.646375,26.462 C59.646375,26.462 59.343875,26.667 59.089625,26.66175 L59.448375,26.261125 L59.310125,25.900125 L58.932625,25.4555 L58.9325,25.455625 Z" id="Shape" stroke="#000000" stroke-width="0.1" fill="#F5CE00"></path>
                    <path id="Shape" fill="#FFFFFF"></path>
                    <path d="M64.855,26.630375 C64.855,26.630375 64.41625,26.854125 64.23325,26.582625 C64.23325,26.582625 63.994,26.126625 64.51925,25.968375 C64.51925,25.968375 64.23325,25.62525 64.53975,25.308625 C64.53975,25.308625 64.7005,25.139 64.981,25.263625 C64.981,25.263625 65.09675,25.022125 65.36975,25.029625 C65.36975,25.029625 65.608875,25.025875 65.691,25.289625 C65.691,25.289625 66.020125,25.154125 66.20325,25.350125 C66.20325,25.350125 66.506,25.689375 66.083625,25.957 L65.7795,25.98475 L65.480375,25.8465 L65.146625,25.942125 C65.146375,25.942125 65.232375,26.280125 64.854875,26.630625 L64.855,26.630375 Z" id="Shape" stroke="#000000" stroke-width="0.1" fill="#D40000"></path>
                    <path d="M61.381,26.27625 C61.381,26.27625 61.36975,26.366625 61.280125,26.376625 C61.280125,26.376625 61.186625,26.406875 61.132125,26.290375 C61.132125,26.290375 61.125875,26.263875 61.124375,26.251 C61.118125,26.1965 61.099375,26.03975 61.268875,25.91175 C61.268875,25.91175 61.545625,25.6855 62.073875,25.9595 C62.073875,25.9595 62.492625,26.1605 62.781625,26.331375 C62.781625,26.331375 63.529125,26.733625 63.619125,26.763875 C63.619125,26.763875 63.947875,26.929625 64.451375,26.94975 C64.451375,26.94975 65.139125,27 65.430625,26.5175 C65.430625,26.5175 65.6525,26.1505 65.430625,25.91675 C65.430625,25.91675 65.341,25.81125 65.1935,25.8305 C65.131625,25.838875 65.063125,25.867375 64.99725,25.94425 C64.99725,25.94425 64.89,26.10025 65.0145,26.215875 C65.0145,26.215875 65.1765,26.315125 65.23375,26.105375 C65.23375,26.105375 65.23625,26.090375 65.24125,26.109125 C65.244375,26.12125 65.281,26.28125 65.195,26.416875 C65.195,26.416875 64.78,27.044875 63.63875,26.394125 L62.1335,25.549875 C62.1335,25.549875 61.3785,25.16275 60.92725,25.768375 C60.92725,25.768375 60.5635,26.270875 61.032,26.60025 C61.032,26.60025 61.38075,26.80875 61.600125,26.477125 C61.600125,26.477125 61.78225,26.150375 61.495625,26.007125 C61.495625,26.007125 61.244,25.889125 61.144375,26.140375 C61.044625,26.391625 61.338625,26.457 61.366,26.278625 C61.366,26.278625 61.3735,26.23575 61.381,26.276125 L61.381,26.27625 Z" id="Shape" stroke="#000000" stroke-width="0.1" fill="#F5CE00"></path>
                    <path d="M55.414375,28.867125 L55.414375,27.924625 C55.414375,27.850625 55.414875,27.789 55.526875,27.698375 C55.639125,27.608 55.75875,27.464625 55.930625,27.872125 C55.930625,27.872125 56.267125,27.517625 56.379375,27.464875 C56.379375,27.464875 56.573625,27.298875 56.708125,27.540125 C56.708125,27.540125 56.887625,27.268625 57.029625,27.20075 C57.029625,27.20075 57.366125,26.982 57.380875,27.63825 L57.64275,27.39675 C57.64275,27.39675 57.8445,27.231 58.069,27.457125 C58.069,27.457125 58.45025,27.8265 58.5025,27.932125 C58.5025,27.932125 58.586625,28.046375 58.593125,28.22675 C58.593125,28.22675 58.592125,28.429625 58.696875,28.54275 C58.696875,28.54275 58.816375,28.64825 58.93225,28.670875 C58.93225,28.670875 59.205125,28.678375 59.30225,28.934625 C59.30225,28.934625 59.34725,28.89025 59.48175,30.11875 L59.48175,32.35775 L57.9715,34.159625 L55.54925,33.465875 L54.58475,33.066375 L54.368,32.357875 L55.3025,31.75475 L55.811,30.3825 L55.6465,29.4175 L55.414375,28.867125 L55.414375,28.867125 Z" id="Shape" stroke="#000000" stroke-width="0.1" fill="#E4CB5E"></path>
                    <path d="M62.08875,30.05575 L62.203375,29.884875 L62.4775,29.673625 C62.4775,29.673625 62.89625,30.772375 62.91625,31.012125 L62.91625,31.353125 C62.91625,31.353125 63.544125,31.513375 63.65375,32.478375 L63.1355,33.433375 L62.323,32.980875 L62.088875,32.810125 L62.088875,30.055625 L62.08875,30.05575 Z" id="Shape" stroke="#000000" stroke-width="0.399" fill="#784421"></path>
                    <path id="Shape" fill="#FFFFFF"></path>
                    <path id="Shape" stroke="#000000" stroke-width="0.532"></path>
                    <path id="Shape" stroke="#000000" stroke-width="0.399"></path>
                    <path d="M63.078125,35.818375 C63.078125,35.818375 63.459375,35.841125 63.65375,35.939125 C63.848125,36.037125 63.9975,36.142625 64.221875,36.285875 C64.221875,36.285875 64.3265,36.425375 64.767625,36.3405 C64.767625,36.3405 65.530375,36.15775 65.530375,36.753375 C65.530375,36.753375 66.4425,36.828625 66.068625,37.627875 C66.068625,37.627875 65.8145,38.253625 65.291125,37.808875 C65.291125,37.808875 65.627625,38.291375 64.977125,38.480125 C64.977125,38.480125 64.513625,38.593125 64.379125,38.118125 C64.379125,38.118125 64.304125,37.929625 64.48375,37.695875 C64.48375,37.695875 64.25925,37.650625 64.1025,37.409375 C64.1025,37.409375 64.58075,38.014125 64.0575,38.231875 C64.0575,38.231875 63.39975,38.396875 63.36225,37.710875 C63.36225,37.710875 63.416,37.39425 63.161,37.281125 C63.161,37.281125 62.637,37.1605 62.39775,36.576125 C62.39775,36.576125 63.15125,36.174875 63.078125,35.818625 L63.078125,35.818375 Z" id="Shape" stroke="#000000" stroke-width="0.1" fill="#D40000"></path>
                    <path d="M57.080375,28.6825 L57.702625,33.705 M57.224125,28.6715 L57.922,33.353125 M57.355,28.64975 L58.15875,33.29275" id="Shape" stroke="#000000" stroke-width="0.1"></path>
                    <polygon id="Shape" stroke="#000000" stroke-width="0.1" fill="#784421" points="58.62625 32.893125 58.849 32.81775 57.3915 27.784625 57.338125 27.799"></polygon>
                    <path d="M57.800875,28.465375 L59.27275,32.184375 M57.7025,28.5255 L59.123125,32.4105" id="Shape"></path>
                    <path id="Shape" fill="#FFFFFF"></path>
                    <path d="M57.86725,28.415 L59.38475,31.8075 M57.45225,28.62575 L58.383,33.1945" id="Shape" stroke="#000000" stroke-width="0.1"></path>
                    <path d="M65.06625,32.01125 C64.40125,31.634 64.255625,30.797125 64.255625,30.797125 C64.094875,29.964 64.420125,29.304375 64.420125,29.304375 C64.850125,28.395875 65.58675,28.226875 65.58675,28.226875 C65.58675,28.226875 64.865125,28.7275 64.66325,29.402375 C64.66325,29.402375 64.50625,29.971375 64.596,30.533125 C64.685625,31.09475 64.652,30.9515 64.790375,31.385 L65.06625,32.01125 L65.06625,32.01125 Z" id="Shape" stroke="#000000" stroke-width="0.1" fill="#F5CE00"></path>
                    <path d="M62.203375,29.885 L59.41,30.766875 L59.2575,32.01125 C58.59475,32.9715 57.24775,33.141875 57.24775,33.141875 L58.29575,34.25775 L60.3095,34.68 L61.366,33.86575 L62.323,32.981125 C62.22325,32.508625 62.278,31.807375 62.278,31.807375 C62.278,31.68925 62.323,31.41275 62.323,31.41275 C62.323,31.41275 62.1585,30.276875 62.203375,29.88475 L62.203375,29.885 Z" id="Shape" stroke="#000000" stroke-width="0.1" fill="#784421"></path>
                    <path d="M59.296,31.69875 C59.296,31.69875 61.13575,31.124125 62.23275,30.662875 M58.412875,32.7475 C58.412875,32.7475 60.708125,32.3325 62.322875,31.412875 L62.916125,31.01225" id="Shape"></path>
                    <path d="M62.91625,31.35325 L62.278125,31.8075 C62.278125,31.8075 59.71125,32.99125 57.756875,33.02275 M62.2775,32.64875 C62.2775,32.64875 60.304375,33.664625 59.173,33.67975" id="Shape"></path>
                    <path d="M64.630625,29.805 C64.630625,29.805 65.21875,29.534125 65.497875,29.805 C65.497875,29.805 65.886625,29.56425 66.295375,29.805 C66.295375,29.805 66.684125,30.059125 66.95325,30.33875 C66.95325,30.33875 67.142625,30.50125 67.072875,31.01225 C67.072875,31.01225 66.97325,31.372625 67.032875,31.5535 C67.032875,31.5535 67.162625,31.528 67.421875,31.835125 C67.421875,31.835125 67.750625,32.216125 68.039875,31.879875 C68.039875,31.879875 67.949875,32.347875 67.40675,32.272375 C67.40675,32.272375 67.670875,32.478625 67.44175,33.011375 C67.44175,33.011375 67.27225,33.388375 67.541375,33.86075 C67.541375,33.86075 67.067625,33.669875 67.087625,33.112 C67.087625,33.112 67.127625,32.735 66.988125,32.4685 C66.988125,32.4685 67.127625,32.71075 66.80375,33.2275 C66.80375,33.2275 66.554625,33.599375 66.759,33.98625 C66.759,33.98625 66.2905,33.8155 66.33525,33.2475 C66.38025,32.6795 66.66425,32.91575 66.479875,32.393 C66.479875,32.393 66.434875,32.6605 66.295375,32.79575 C66.15575,32.93075 65.976375,33.157 66.051125,33.534 C66.051125,33.534 65.772,33.187125 65.83675,32.83025 C65.9015,32.473375 65.971375,32.3655 65.971375,32.3655 L65.089125,31.86525 L64.650375,31.071125 L64.630375,29.804875 L64.630625,29.805 Z" id="Shape" stroke="#000000" stroke-width="0.1" fill="#D40000"></path>
                    <path d="M54.6375,32.98375 C54.6375,32.98375 54.719625,32.594 55.0935,32.7475 C55.0935,32.7475 55.220625,32.109 55.901,32.08625 C56.58125,32.06375 56.6185,32.75 56.6185,32.795 C56.6185,32.795 56.8185,32.500625 57.15225,32.53475 C57.15225,32.53475 57.7275,32.501 57.51325,33.4245 L57.622,33.540375 C57.622,33.540375 58.0615,32.508625 58.966125,32.78 C58.966125,32.78 59.84825,33.04875 59.272625,33.903375 C59.272625,33.903375 59.708,34.468875 60.077125,34.415875 C60.446375,34.363375 60.775375,34.25025 61.141625,33.60175 C61.507875,32.953375 62.360375,32.8555 62.577125,32.893 C62.793875,32.93075 62.965125,33.0715 63.0005,33.224875 C63.0005,33.224875 63.45175,31.718625 65.07425,31.95525 L65.7245,32.28225 L65.97125,32.39525 L65.60375,33.43325 L64.7075,35.45825 L64.0275,35.6675 L63.31725,35.260375 L63.0705,35.392625 L63.0505,35.999125 L62.113625,36.6735 L61.463125,36.9415 L60.745375,37.4315 L60.578375,37.86975 C60.578375,37.86975 60.182125,37.70275 59.734625,37.86975 L59.586625,37.50725 L59.167875,37.1075 L57.541625,36.34025 L57.247875,35.39275 L56.950875,35.26025 L56.618375,35.641 L56.132625,35.697625 L55.407375,35.207625 L54.637375,32.983375 L54.6375,32.98375 Z" id="Shape" fill="#FFFFFF"></path>
                    <path d="M61.72,25.61 C61.72,25.61 61.09925,25.5825 61.121625,26.225875" id="Shape" stroke="#000000" stroke-width="0.1"></path>
                    <path d="M65.80325,32.4445 C64.722875,32.11275 64.427625,30.95175 64.427625,30.95175 C64.207125,30.080875 64.56225,29.3195 64.56225,29.3195 C65.05575,28.16075 65.890625,28.16075 65.890625,28.16075 C66.309375,28.1495 66.359375,28.50775 66.359375,28.50775 C66.399,28.7615 66.220875,28.85325 66.220875,28.85325 C65.93425,29.009125 65.753625,28.798 65.753625,28.798 C65.634,28.642125 65.726125,28.504 65.726125,28.504 C65.799625,28.400875 65.9405,28.446125 65.9405,28.446125 C66.052,28.4805 66.040125,28.619875 66.040125,28.619875 C66.04075,28.623625 66.04325,28.623625 66.04325,28.623625 C66.04825,28.622375 66.046375,28.620625 66.046375,28.620625 C66.046375,28.620625 66.071375,28.44975 65.90425,28.432125 C65.90425,28.432125 65.57925,28.36175 65.198,28.83675 C65.198,28.83675 64.69575,29.477625 64.69675,30.307 C64.69675,30.307 64.633375,31.863875 66.25575,32.26725 C66.25575,32.26725 66.08,32.51975 65.769875,33.431875 C65.769875,33.431875 65.418625,34.604375 65.083,35.238125 C65.083,35.238125 64.637125,36.14225 63.64275,35.772875 C63.64275,35.772875 63.050875,35.512875 63.05225,35.082875 C63.05225,35.082875 63.011,34.690875 63.36625,34.66075 C63.36625,34.66075 63.714,34.6345 63.71,34.932 C63.71,34.932 63.7195,35.2545 63.34,35.181 C63.34,35.181 63.2075,35.15275 63.23175,35.022625 C63.23175,35.022625 63.253,34.90575 63.413,34.956625 C63.413,34.956625 63.418,34.95725 63.418625,34.95475 C63.418625,34.95475 63.420375,34.952 63.414875,34.950375 C63.414875,34.950375 63.352875,34.922625 63.287375,34.945375 C63.287375,34.945375 63.228875,34.965 63.224125,35.056625 C63.224125,35.056625 63.220375,35.13 63.299125,35.171625 C63.299125,35.171625 63.3945,35.205375 63.469125,35.197875 C63.469125,35.197875 63.56975,35.400875 63.79725,35.469625 C64.114,35.56525 64.37475,35.473 64.5345,35.345625 C64.70825,35.207125 64.8205,34.964875 64.854125,34.905625 C64.887875,34.84625 65.179375,34.193125 65.398625,33.490625 C65.398625,33.490625 65.5905,32.885 65.743625,32.568375 L65.803625,32.444125 L65.80325,32.4445 Z" id="Shape" stroke="#000000" stroke-width="0.1" fill="#F5CE00"></path>
                    <path d="M62.75475,35.39625 C62.75475,35.39625 62.9565,35.36875 62.9565,35.54875 C62.9565,35.54875 62.94425,35.81175 62.624,35.75425 C62.624,35.75425 62.308,35.685125 62.42025,35.332 C62.42025,35.332 62.494875,35.08325 62.794,35.119125 C62.794,35.119125 63.083625,35.13225 63.21075,35.528125 C63.21075,35.528125 63.307875,35.861875 63.141625,36.148125 C62.955875,36.467875 62.486125,36.677875 62.2595,36.770875 C62.2595,36.770875 61.351,37.12775 61.080125,37.331875 C61.080125,37.331875 60.664625,37.640375 60.8485,37.9275 C60.8485,37.9275 60.9195,38.036875 61.026,38.036875 C61.026,38.036875 61.147625,38.0425 61.168125,37.918125 C61.168125,37.918125 61.16875,37.915625 61.166875,37.9125 C61.166875,37.9125 61.165,37.9125 61.164375,37.915625 C61.164375,37.915625 61.155625,37.991625 61.089625,38.019875 C61.089625,38.019875 61.001125,38.064375 60.908375,37.985875 C60.908375,37.985875 60.809875,37.891625 60.892125,37.74525 C60.892125,37.74525 60.999875,37.564875 61.250875,37.6715 C61.250875,37.6715 61.472125,37.781 61.38125,38.016 C61.38125,38.016 61.3,38.23225 61.0335,38.2315 C61.0335,38.2315 60.832625,38.224875 60.70425,38.09025 C60.503875,37.88025 60.493,37.471 60.669625,37.259375 C60.669625,37.259375 60.836625,37.034375 61.17175,36.8975 C61.365875,36.818125 61.7325,36.65875 62.11375,36.50925 C62.38175,36.40425 62.62725,36.27825 62.786625,36.0895 C62.786625,36.0895 62.92875,35.93125 62.969875,35.65975 C62.969875,35.65975 63.009,35.45625 62.884875,35.411625 C62.884875,35.411625 62.822,35.383375 62.752875,35.392875 C62.752875,35.392875 62.751125,35.392875 62.750625,35.394125 C62.750625,35.394125 62.747625,35.397125 62.754625,35.396 L62.75475,35.39625 Z" id="Shape" stroke="#000000" stroke-width="0.1" fill="#F5CE00"></path>
                    <path d="M62.771625,35.395 C62.771625,35.395 62.994625,35.354625 63.134125,35.62 C63.134125,35.62 63.216375,35.79075 63.229625,35.889625 M63.3025,34.941625 C63.3025,34.941625 63.079,34.980375 63.194,35.296375 C63.302375,35.594375 63.50375,35.692 63.5635,35.7335" id="Shape" stroke="#000000" stroke-width="0.1"></path>
                    <path d="M58.93225,26.276 C58.93225,26.276 58.94325,26.3665 59.033,26.376625 C59.033,26.376625 59.12675,26.406625 59.18125,26.290375 C59.18125,26.290375 59.1875,26.26375 59.189,26.250875 C59.19525,26.196375 59.214,26.039625 59.044375,25.911625 C59.044375,25.911625 58.76775,25.685375 58.239375,25.959375 C58.239375,25.959375 57.820625,26.160375 57.531625,26.331375 C57.531625,26.331375 56.784125,26.7335 56.694375,26.763625 C56.694375,26.763625 56.365375,26.9295 55.861875,26.949625 C55.861875,26.949625 55.174125,26.999875 54.882625,26.5175 C54.882625,26.5175 54.661,26.150375 54.882625,25.916625 C54.882625,25.916625 54.972625,25.811125 55.120125,25.830625 C55.181875,25.83875 55.250125,25.86725 55.316375,25.944375 C55.316375,25.944375 55.4235,26.10025 55.298875,26.215625 C55.298875,26.215625 55.136875,26.315125 55.079625,26.10525 C55.079625,26.10525 55.077125,26.09025 55.072125,26.109 C55.068875,26.121125 55.032125,26.281125 55.118375,26.416875 C55.118375,26.416875 55.533125,27.04475 56.674625,26.394 L58.179625,25.54975 C58.179625,25.54975 58.934875,25.16275 59.385875,25.7685 C59.385875,25.7685 59.749625,26.271 59.28125,26.60025 C59.28125,26.60025 58.93225,26.809 58.713,26.477125 C58.713,26.477125 58.531,26.150375 58.817625,26.007125 C58.817625,26.007125 59.069375,25.889125 59.169125,26.1405 C59.26875,26.39175 58.974625,26.457125 58.947375,26.278625 C58.947375,26.278625 58.939875,26.23575 58.932375,26.275875 L58.93225,26.276 Z M55.247,32.01125 C55.912,31.634 56.057625,30.797125 56.057625,30.797125 C56.2185,29.964 55.89325,29.304375 55.89325,29.304375 C55.46325,28.395875 54.726625,28.226875 54.726625,28.226875 C54.726625,28.226875 55.448375,28.7275 55.650375,29.402375 C55.650375,29.402375 55.80725,29.971375 55.7175,30.533125 C55.6275,31.09475 55.66125,30.9515 55.523,31.385 L55.247,32.01125 L55.247,32.01125 Z" id="Shape" stroke="#000000" stroke-width="0.1" fill="#F5CE00"></path>
                    <path d="M58.59325,25.61 C58.59325,25.61 59.214,25.5825 59.1915,26.225875" id="Shape" stroke="#000000" stroke-width="0.1"></path>
                    <path d="M54.51,32.4445 C55.590375,32.11275 55.885625,30.95175 55.885625,30.95175 C56.106125,30.080875 55.751,29.3195 55.751,29.3195 C55.257625,28.16075 54.42275,28.16075 54.42275,28.16075 C54.004,28.1495 53.954,28.50775 53.954,28.50775 C53.914375,28.7615 54.0925,28.85325 54.0925,28.85325 C54.379,29.009125 54.55975,28.798 54.55975,28.798 C54.679375,28.642125 54.58725,28.504 54.58725,28.504 C54.5135,28.400875 54.372875,28.446125 54.372875,28.446125 C54.261375,28.4805 54.27325,28.619875 54.27325,28.619875 C54.272625,28.623625 54.270125,28.623625 54.270125,28.623625 C54.265125,28.622375 54.267125,28.620625 54.267125,28.620625 C54.267125,28.620625 54.242125,28.44975 54.409125,28.432125 C54.409125,28.432125 54.734375,28.36175 55.115625,28.83675 C55.115625,28.83675 55.61775,29.477625 55.6165,30.307 C55.6165,30.307 55.68025,31.863875 54.05775,32.26725 C54.05775,32.26725 54.2335,32.51975 54.54375,33.431875 C54.54375,33.431875 54.895,34.604375 55.2305,35.238125 C55.2305,35.238125 55.6765,36.14225 56.67075,35.772875 C56.67075,35.772875 57.262875,35.512875 57.2615,35.082875 C57.2615,35.082875 57.3025,34.690875 56.9475,34.66075 C56.9475,34.66075 56.59975,34.6345 56.6035,34.932 C56.6035,34.932 56.594125,35.2545 56.9735,35.181 C56.9735,35.181 57.106375,35.15275 57.082,35.022625 C57.082,35.022625 57.06075,34.90575 56.90075,34.956625 C56.90075,34.956625 56.89575,34.95725 56.895125,34.95475 C56.895125,34.95475 56.893125,34.952 56.898875,34.950375 C56.898875,34.950375 56.960625,34.922625 57.026125,34.945375 C57.026125,34.945375 57.084875,34.965 57.089375,35.056625 C57.089375,35.056625 57.093125,35.13 57.014625,35.171625 C57.014625,35.171625 56.91925,35.205375 56.844625,35.197875 C56.844625,35.197875 56.744,35.400875 56.5165,35.469625 C56.199875,35.56525 55.939,35.473 55.77925,35.345625 C55.6055,35.207125 55.49325,34.964875 55.459625,34.905625 C55.426125,34.84625 55.134625,34.193125 54.91525,33.490625 C54.91525,33.490625 54.72325,32.885 54.57025,32.568375 L54.51025,32.444125 L54.51,32.4445 Z" id="Shape" stroke="#000000" stroke-width="0.1" fill="#F5CE00"></path>
                    <path d="M57.5585,35.39625 C57.5585,35.39625 57.356625,35.36875 57.356625,35.54875 C57.356625,35.54875 57.369125,35.81175 57.689375,35.75425 C57.689375,35.75425 58.00525,35.685125 57.893125,35.332 C57.893125,35.332 57.818375,35.08325 57.519375,35.119125 C57.519375,35.119125 57.229625,35.13225 57.1025,35.528125 C57.1025,35.528125 57.00525,35.861875 57.171625,36.148125 C57.35725,36.467875 57.827,36.677875 58.05375,36.770875 C58.05375,36.770875 58.962125,37.12775 59.233125,37.331875 C59.233125,37.331875 59.648625,37.640375 59.464875,37.9275 C59.464875,37.9275 59.393625,38.036875 59.287125,38.036875 C59.287125,38.036875 59.165625,38.0425 59.145125,37.918125 C59.145125,37.918125 59.1445,37.915625 59.146375,37.9125 C59.146375,37.9125 59.14825,37.9125 59.148875,37.915625 C59.148875,37.915625 59.157625,37.991625 59.223625,38.019875 C59.223625,38.019875 59.312125,38.064375 59.404875,37.985875 C59.404875,37.985875 59.50325,37.891625 59.421125,37.74525 C59.421125,37.74525 59.31325,37.564875 59.062125,37.6715 C59.062125,37.6715 58.840875,37.781 58.932125,38.016 C58.932125,38.016 59.012875,38.23225 59.279625,38.2315 C59.279625,38.2315 59.480375,38.224875 59.608875,38.09025 C59.80925,37.88025 59.820125,37.471 59.6435,37.259375 C59.6435,37.259375 59.476375,37.034375 59.141,36.8975 C58.947,36.818125 58.5805,36.65875 58.199125,36.50925 C57.931125,36.40425 57.68575,36.27825 57.52625,36.0895 C57.52625,36.0895 57.38425,35.93125 57.343125,35.65975 C57.343125,35.65975 57.303875,35.45625 57.427875,35.411625 C57.427875,35.411625 57.49075,35.383375 57.559875,35.392875 C57.559875,35.392875 57.561875,35.392875 57.562375,35.394125 C57.562375,35.394125 57.565375,35.397125 57.558375,35.396 L57.5585,35.39625 Z" id="Shape" stroke="#000000" stroke-width="0.1" fill="#F5CE00"></path>
                    <path d="M57.541625,35.395 C57.541625,35.395 57.3185,35.354625 57.179125,35.62 C57.179125,35.62 57.096625,35.79075 57.0835,35.889625 M57.010875,34.9415 C57.010875,34.9415 57.23425,34.98025 57.11925,35.29625 C57.01075,35.594125 56.8095,35.69175 56.749625,35.73325 M59.6165,26.1895 C59.6165,26.1895 60.1565,25.851375 60.708125,26.22575" id="Shape" stroke="#000000" stroke-width="0.1"></path>
                    <path d="M56.54375,29.492875 C56.54375,29.492875 56.61875,29.191375 56.27475,28.6635 C56.27475,28.6635 56.050375,28.181 55.93075,27.872 M56.708375,27.54025 C56.708375,27.54025 56.903,28.0145 56.97,28.226875 C56.97,28.226875 57.2115,28.821875 57.26275,28.9425" id="Shape" stroke="#000000" stroke-width="0.1"></path>
                    <path d="M56.8055,29.824625 C56.8055,29.824625 57.0085,30.043375 56.9855,30.412625 M56.1325,29.590875 C56.1325,29.590875 56.357,29.699 56.342125,30.294625 C56.342125,30.294625 56.319625,30.729375 56.655875,30.948 M56.10225,31.10125 C56.10225,31.10125 56.80425,31.024625 56.842875,31.456875 C56.842875,31.456875 56.857875,31.8715 57.097,31.916875 C57.097,31.916875 57.455375,31.950625 57.526375,32.2825 M56.32325,31.58125 C56.32325,31.58125 56.446625,31.766 56.56625,31.845 M57.224125,31.125 C57.224125,31.125 57.4025,31.395375 57.436125,31.55375 M57.99675,27.871875 C57.99675,27.871875 58.16125,28.095625 58.32075,28.201125 M58.654625,29.19625 C58.654625,29.19625 59.003375,29.36725 58.94375,30.246875 C58.94375,30.246875 58.89875,30.762625 59.0435,31.044375" id="Shape" stroke="#000000" stroke-width="0.1"></path>
                    <path id="Shape" stroke="#000000" stroke-width="0.399" fill="#784421"></path>
                    <path d="M59.2645,31.955375 C59.2645,31.955375 61.427875,31.310375 62.261625,30.934375" id="Shape" stroke="#000000" stroke-width="0.1"></path>
                    <polygon id="Shape" stroke="#000000" stroke-width="0.243" fill="#784421" points="59.0325 27.987375 59.00725 27.9131266 60.07725 27.487375 60.1025 27.5621462"></polygon>
                    <path d="M59.123125,27.931 L59.833375,31.412875 M59.24625,27.88425 L60.06,31.350125 M59.38475,27.831625 L60.2745,31.27225 M59.73375,27.699125 L60.9465,30.281625 M59.894125,27.63825 L61.1875,30.20575 M60.012875,27.593125 L61.411875,30.134875 M59.785375,31.4405 L60.334375,31.259625 M59.36975,31.096 C59.36975,31.096 60.978875,30.626 62.19675,30.13475 M59.348125,31.27225 C59.348125,31.27225 61.3875,30.732625 62.196625,30.338875 M59.9705,32.930875 L60.07725,33.2575 L60.36925,33.164125 L60.2695,32.840375 M60.794125,32.69625 L60.901,33.02275 L61.193,32.929375 L61.09325,32.605625 M59.41,30.766875 L59.38475,30.324875 L62.05875,29.512875 L62.203375,29.88475 M60.51875,29.980625 L60.6645,30.370875 M61.45375,29.69675 L61.62375,30.068 M61.67525,29.6295 L61.8345,29.98075 M61.887,29.565 L62.0545,29.932" id="Shape"></path>
                    <path id="Shape" stroke="#000000" stroke-width="0.399"></path>
                    <path d="M55.571875,34.521625 C55.571875,34.521625 55.0485,33.991625 55.571875,33.4725 C55.571875,33.4725 55.00375,33.194625 55.0935,32.7475 M56.5065,34.9415 C56.5065,34.9415 55.9645,35.01525 56.12525,33.96 C56.12525,33.96 55.900875,34.378375 55.823625,34.593375 C55.765625,34.754375 55.803875,35.01425 56.033375,35.154625 C56.125,35.210875 56.610875,35.337375 56.768,35.0155 M55.900875,33.326625 C55.900875,33.326625 55.680375,33.530375 55.837375,33.9035 M56.12875,33.375625 C56.12875,33.375625 56.155,33.7375 56.3345,33.941125 M56.28375,33.2325 C56.28375,33.2325 56.28225,33.658375 56.58875,33.92225 M56.43625,33.085375 C56.43625,33.085375 56.43925,33.564125 56.794375,33.85825 M58.2,33.7865 C58.2,33.7865 58.37925,33.394375 58.75675,33.413375 C58.75675,33.413375 58.573625,33.49625 58.577375,33.679625 C58.577375,33.679625 58.554875,33.9825 58.879875,34.012625 C58.879875,34.012625 59.14175,34.04675 59.272375,33.9035" id="Shape"></path>
                    <path d="M59.09325,35.577125 C59.09325,35.577125 58.1625,35.139875 58.2595,34.510375 C58.2595,34.510375 58.297,34.125875 58.673,33.944875 M58.4765,34.344375 C58.4765,34.344375 58.39425,34.615875 58.5775,34.804375 M58.68575,34.15975 C58.68575,34.15975 58.573625,34.4575 58.7605,34.68 M58.91,34.015 C58.91,34.015 58.7755,34.2615 58.93625,34.48375 M58.0615,35.64125 C58.0615,35.64125 58.569875,36.08225 58.966125,36.086 M57.90075,35.780625 C57.90075,35.780625 58.37575,36.165125 58.672875,36.221875 M57.72125,35.8895 C57.72125,35.8895 58.30875,36.406375 58.672875,36.444125 M60.11,36.919125 C60.11,36.919125 59.53275,37.230375 59.98025,37.559125 M59.74375,36.57625 C59.74375,36.57625 60.397875,36.233125 60.681875,36.105 M59.97925,36.753375 C59.97925,36.753375 60.925,36.1765 61.20525,36.052125 M60.465,36.791 C60.465,36.791 61.2725,36.252 61.70625,36.01825 M60.999625,36.772125 C60.999625,36.772125 61.556625,36.334875 62.095,36.018375 M62.285625,35.471625 C62.285625,35.471625 62.01275,35.072 61.115625,35.471625 C61.115625,35.471625 61.444375,35.173125 62.095,34.941625 M63.000625,33.225 C63.000625,33.225 63.074125,33.549 62.995625,33.745" id="Shape" stroke="#00247D" stroke-width="0.1"></path>
                    <path d="M61.5455,34.796875 C61.5455,34.796875 61.732375,34.521625 62.207125,34.386 C62.207125,34.386 62.335125,34.706375 62.704375,34.63475 C62.704375,34.63475 63.26125,34.525375 63.093125,33.91475 C63.093125,33.91475 62.97725,33.4585 62.341125,33.4135 M64.23325,32.64875 C64.23325,32.64875 64.879875,32.765 64.86875,33.29275 C64.86875,33.29275 64.921,34.084375 64.0875,34.239 M64.776875,32.97375 C64.776875,32.97375 64.954375,32.58775 65.350625,32.429375 M64.86925,32.203375 C64.86925,32.203375 65.045875,32.4865 65.16675,32.52775 M64.776875,32.4295 C64.776875,32.4295 64.943375,32.632875 64.999375,32.667 M64.722875,32.6255 C64.722875,32.6255 64.810375,32.755 64.88825,32.79575 M61.395875,29.565 C61.395875,29.565 61.52175,29.360875 61.834625,29.4475 M63.11175,31.096 C63.11175,31.096 63.309875,30.2695 64.0015,30.57475 M63.721,30.507125 C63.721,30.507125 63.79225,30.125875 63.620125,29.932125 M63.25,30.4805 C63.25,30.4805 63.338125,30.638 63.26275,30.76675" id="Shape"></path>
                    <path d="M64.655625,38.924625 C64.655625,38.924625 65.433125,38.57025 65.193875,37.967125 C65.193875,37.967125 65.120125,37.763375 64.947625,37.778625 C64.947625,37.778625 64.647875,37.793625 64.707875,38.193125 C64.707875,38.193125 64.797875,38.58525 64.65575,38.924375 L64.655625,38.924625 Z" id="Shape" fill="#64B4D1"></path>
                    <path id="Shape" fill="#FFFFFF"></path>
                    <path d="M65.762125,38.38175 C65.762125,38.38175 66.307875,38.03875 66.0125,37.462 C66.0125,37.462 65.9265,37.296125 65.762125,37.33 C65.762125,37.33 65.421875,37.4355 65.687125,37.906875 C65.687125,37.906875 65.821875,38.21225 65.762125,38.381875 L65.762125,38.38175 Z" id="Shape" fill="#64B4D1"></path>
                    <path id="Shape" fill="#FFFFFF"></path>
                    <path d="M64.1285,38.77375 C64.1285,38.77375 63.51925,38.619375 63.63125,37.98975 C63.63125,37.98975 63.69125,37.71475 63.949,37.75225 C63.949,37.75225 64.259875,37.831625 64.0575,38.23175 C64.0575,38.23175 63.937875,38.5175 64.1285,38.773875 L64.1285,38.77375 Z" id="Shape" fill="#64B4D1"></path>
                    <path id="Shape" fill="#FFFFFF"></path>
                    <path d="M64.565875,37.5825 C64.565875,37.5825 64.909625,37.389125 65.193875,37.615375 C65.193875,37.615375 65.164875,37.489625 64.947625,37.434375 C64.947625,37.434375 64.830125,37.102625 64.501125,37.13275 C64.501125,37.13275 64.63575,37.2935 64.815125,37.429375 C64.815125,37.429375 64.62575,37.448875 64.566,37.582375 L64.565875,37.5825 Z M64.82,36.67375 C64.82,36.67375 65.05375,36.84625 65.14875,36.961875 C65.14875,36.961875 65.24375,36.84375 65.368375,36.772125 C65.368375,36.772125 65.224875,36.753375 65.14875,36.81775 C65.14875,36.81775 65.029375,36.70225 64.82,36.67375 L64.82,36.67375 Z" id="Shape" fill="#000000"></path>
                    <path d="M63.464375,37.41425 C63.464375,37.41425 63.439375,37.328875 63.499375,37.238375 C63.499375,37.238375 63.539125,37.173 63.524375,37.0875 M65.97125,32.04625 C65.97125,32.04625 66.33525,32.02125 66.395,31.7395 M67.033,31.55375 C67.033,31.55375 66.90625,31.54875 66.79175,31.66425 C66.79175,31.66425 66.70425,31.794875 66.5795,31.77975" id="Shape" stroke="#000000" stroke-width="0.1"></path>
                    <path d="M65.433125,30.975625 C65.433125,30.975625 65.6225,30.975625 65.72725,30.885125 C65.72725,30.885125 65.836875,30.809875 65.901625,30.9305 C65.901625,30.9305 66.001375,31.101375 65.817,31.17675 C65.817,31.17675 65.587625,31.292375 65.9515,31.523625 C65.9515,31.523625 65.51775,31.36775 65.692375,31.15675 C65.692375,31.15675 65.8815,31.021 65.81175,30.97075 C65.81175,30.97075 65.79175,30.9305 65.717125,30.98075 C65.642125,31.031 65.49275,31.011 65.433,30.97575 L65.433125,30.975625 Z" id="Shape" fill="#000000"></path>
                    <path id="Shape" stroke="#00247D" stroke-width="0.399" fill="#64B4D1"></path>
                    <path id="Shape" fill="#FFFFFF"></path>
                    <path id="Shape" stroke="#00247D" stroke-width="0.399" fill="#64B4D1"></path>
                    <path id="Shape" fill="#FFFFFF"></path>
                    <path d="M65.263375,26.165625 C65.263375,26.165625 65.199625,26.050875 64.89925,25.944375 C64.598625,25.837625 64.679875,25.575125 64.806375,25.518875 C64.806375,25.518875 64.937625,25.461375 65.07825,25.63725 C65.1595,25.739 65.257,25.886 65.2635,26.16575 L65.263375,26.165625 Z" id="Shape" fill="#64B4D1"></path>
                    <path id="Shape" fill="#FFFFFF"></path>
                    <path id="Shape" stroke="#00247D" stroke-width="0.399" fill="#64B4D1"></path>
                    <path id="Shape" fill="#FFFFFF"></path>
                    <path id="Shape" stroke="#000000" stroke-width="0.532"></path>
                    <path id="Shape" stroke="#000000" stroke-width="0.532"></path>
                    <path id="Shape" stroke="#00247D" stroke-width="0.399" fill="#64B4D1"></path>
                    <path id="Shape" fill="#FFFFFF"></path>
                    <path id="Shape" stroke="#00247D" stroke-width="0.399" fill="#64B4D1"></path>
                    <path id="Shape" fill="#FFFFFF"></path>
                    <path d="M55.0295,26.165625 C55.0295,26.165625 55.09325,26.050875 55.393625,25.944375 C55.694125,25.837625 55.612875,25.575125 55.486375,25.518875 C55.486375,25.518875 55.355125,25.461375 55.214625,25.63725 C55.133375,25.739 55.035875,25.886 55.029375,26.16575 L55.0295,26.165625 Z" id="Shape" fill="#64B4D1"></path>
                    <path id="Shape" fill="#FFFFFF"></path>
                    <path id="Shape" stroke="#00247D" stroke-width="0.399" fill="#64B4D1"></path>
                    <path id="Shape" fill="#FFFFFF"></path>
                    <path id="Shape" stroke="#000000" stroke-width="0.532"></path>
                    <path id="Shape" stroke="#000000" stroke-width="0.532"></path>
                    <path d="M61.579125,23.46125 C61.579125,23.46125 61.681,23.752125 61.637,24.0155 C61.59775,24.251125 61.651375,24.312 61.7365,24.358625 C61.81025,24.398875 61.980875,24.32825 62.0015,24.143625 C62.0015,24.143625 62.20325,24.537375 61.81075,24.80325 C61.81075,24.80325 61.5285,24.97675 61.2895,24.744875 C61.205,24.66325 61.167875,24.437625 61.209,24.228375 C61.209,24.228375 61.27075,23.944625 61.16775,23.653375 C61.16775,23.653375 61.3285,23.825 61.2875,24.167125 C61.2875,24.167125 61.20525,24.780625 61.659375,24.7505 C61.659375,24.7505 61.973375,24.74675 61.98275,24.366 C61.98275,24.366 61.865,24.5015 61.71925,24.456375 C61.615875,24.424375 61.521,24.324375 61.538,24.166875 C61.5555,24.001875 61.6015,23.71375 61.57925,23.461125 L61.579125,23.46125 Z M61.0645,24.469125 C61.0645,24.469125 61.0395,24.954125 60.596,25.07225 C60.596,25.07225 60.6585,24.984375 60.5585,24.743125 C60.5585,24.743125 60.4615,24.602375 60.469,24.38375 C60.469,24.38375 60.32775,24.49425 60.489,24.78575 C60.586125,24.96175 60.5015,25.172875 60.4715,25.180375 C60.4415,25.187875 61.204,25.07975 61.0645,24.469125 L61.0645,24.469125 Z M60.48875,23.986625 C60.48875,23.986625 60.381625,23.866 60.374125,23.587 C60.366625,23.308 60.314375,23.24025 60.277,23.2075 C60.277,23.2075 60.33175,23.44875 60.31675,23.597 C60.30175,23.74525 60.32675,23.83075 60.34675,23.901125 C60.34675,23.901125 60.105,23.938625 59.953,23.58675 C59.807625,23.2505 59.661375,23.277625 59.58925,23.280125 C59.58925,23.280125 59.673375,23.2895 59.84325,23.59675 C60.013,23.903875 60.060125,23.966375 60.48875,23.9865 L60.48875,23.986625 Z M59.3575,23.25775 C59.3575,23.25775 59.497,23.592 59.502,23.768 C59.502,23.768 59.178,23.659875 59.09075,23.378375 C59.09075,23.378375 58.7445,23.4965 58.8715,23.896125 C58.8715,23.896125 58.5725,23.7905 58.43775,23.546625 C58.43775,23.546625 58.604875,23.67225 58.759375,23.727625 C58.759375,23.727625 58.741875,23.405875 59.145625,23.285125 C59.145625,23.285125 59.205625,23.573375 59.40725,23.642125 C59.40725,23.642125 59.39225,23.46125 59.3575,23.257625 L59.3575,23.25775 Z M59.89075,22.685 C59.89075,22.685 60.002875,22.84825 60.232,22.85575 C60.34175,22.8595 60.4595,22.8345 60.573625,22.684875 C60.573625,22.684875 60.558625,22.968625 60.232,22.971125 C60.232,22.971125 59.89075,22.983625 59.89075,22.684875 L59.89075,22.685 Z M58.478375,24.62625 C58.478375,24.62625 58.648375,24.78075 58.683875,24.831625 C58.683875,24.831625 58.803625,24.9485 58.906375,24.797375 C58.906375,24.797375 59.037375,24.555625 59.198,24.562 C59.198,24.562 59.084,24.64125 58.955875,24.8695 C58.955875,24.8695 58.921375,24.954 58.825875,24.96325 C58.781375,24.967875 58.725125,24.98225 58.639875,24.89325 C58.639875,24.89325 58.566125,24.80325 58.478625,24.626125 L58.478375,24.62625 Z M60.232125,21.54625 C59.890875,21.54625 60.178375,21.81025 60.178375,21.81025 C60.185875,22.228625 59.85025,22.357375 59.621625,22.23625 C59.392875,22.115 59.571625,21.81025 59.571625,21.81025 C59.571625,21.81025 59.313875,21.97975 59.478375,22.224875 C59.64275,22.469875 60.073875,22.360375 60.232125,22.13425 C60.390375,22.3605 60.8215,22.46975 60.985875,22.22475 C61.1505,21.9795 60.8925,21.81 60.8925,21.81 C60.8925,21.81 61.07125,22.114625 60.84275,22.236 C60.614,22.35725 60.27825,22.2285 60.28575,21.81 C60.28575,21.81 60.5735,21.546 60.232,21.54625 L60.232125,21.54625 Z M60.439,21.094 C60.439,21.094 60.5585,21.29775 60.532375,21.6065 C60.532375,21.6065 60.640625,21.2975 60.438875,21.094 L60.439,21.094 Z M59.3925,21.57275 C59.3925,21.57275 59.36625,21.35025 59.149375,21.3315 C59.149375,21.3315 59.3325,21.4635 59.392375,21.57275 L59.3925,21.57275 Z M61.0745,21.57275 C61.0745,21.57275 61.10075,21.35025 61.3175,21.3315 C61.3175,21.3315 61.13425,21.4635 61.0745,21.57275 L61.0745,21.57275 Z M59.048375,21.912 C59.048375,21.912 59.220375,21.964875 59.325,21.836625 C59.325,21.836625 59.126875,21.889375 59.048375,21.912 L59.048375,21.912 Z M58.4915,20.5475 C58.4915,20.5475 58.6915,20.52475 58.8915,20.8225 C58.8915,20.8225 58.69325,20.928125 58.64475,20.99225 C58.64475,20.99225 58.64475,20.89425 58.741875,20.8075 C58.741875,20.8075 58.704375,20.65675 58.4915,20.5475 L58.4915,20.5475 Z M61.84075,20.5475 C61.84075,20.5475 61.64075,20.52475 61.44075,20.8225 C61.44075,20.8225 61.639,20.928125 61.6875,20.99225 C61.6875,20.99225 61.6875,20.89425 61.590375,20.8075 C61.590375,20.8075 61.627625,20.65675 61.84075,20.5475 L61.84075,20.5475 Z M60.297,20.769625 C60.297,20.769625 60.476375,20.818875 60.70075,20.694375 C60.70075,20.694375 60.97725,20.547375 61.153,20.694375 C61.153,20.694375 60.999625,20.62625 60.70425,20.769625 C60.70425,20.769625 60.409,20.9315 60.297,20.769625 L60.297,20.769625 Z" id="Shape" fill="#000000"></path>
                    <path id="Shape" fill="#FFFFFF"></path>
                    <ellipse id="Oval" fill="#784421" cx="60.96375" cy="21.00025" rx="0.25" ry="0.25"></ellipse>
                    <circle id="Oval" fill="#000000" cx="61.00125" cy="21.0455" r="0.25"></circle>
                    <path d="M59.482,20.37775 C59.482,20.37775 59.77725,20.3965 59.95675,20.50975 C59.95675,20.50975 60.147375,20.622875 60.36425,20.460625 C60.36425,20.460625 60.599875,20.325 60.75125,20.1365 C60.75125,20.1365 60.390375,20.38525 60.25575,20.423 C60.25575,20.423 60.132375,20.32875 60.083875,20.193 C60.083875,20.193 60.102625,20.091375 60.297,19.903 C60.297,19.903 60.035375,19.982 59.983,20.20425 C59.983,20.20425 60.03175,20.340125 60.1325,20.44575 C60.1325,20.44575 60.08375,20.46825 59.95675,20.389125 C59.95675,20.389125 59.680125,20.294875 59.482,20.377875 L59.482,20.37775 Z M60.232125,22.15125 C59.97675,22.372 60.232125,22.349375 60.232125,22.349375 C60.232125,22.349375 60.487625,22.371875 60.232125,22.151375 L60.232125,22.15125 Z M60.084375,20.769625 C60.084375,20.769625 59.904875,20.818875 59.680625,20.694375 C59.680625,20.694375 59.403875,20.547375 59.228125,20.694375 C59.228125,20.694375 59.3815,20.62625 59.676875,20.769625 C59.676875,20.769625 59.972125,20.9315 60.084375,20.769625 L60.084375,20.769625 Z" id="Shape" fill="#000000"></path>
                    <path id="Shape" fill="#FFFFFF"></path>
                    <ellipse id="Oval" fill="#784421" cx="59.73275" cy="21.00025" rx="0.25" ry="0.25"></ellipse>
                    <circle id="Oval" fill="#000000" cx="59.77025" cy="21.0455" r="0.25"></circle>
                    <path d="M69.257875,18.5325 L69.257875,35.471625 C69.257875,39.99625 60.212875,41.46625 60.212875,41.46625 C60.212875,41.46625 51.167875,39.99625 51.167875,35.471625 L51.167875,18.5325 L69.257875,18.5325 L69.257875,18.5325 Z" id="Shape" stroke="#000000" stroke-width="1.28"></path>
                </g>
            </g>
        </g>
    </g>
</svg>