<?xml version="1.0" encoding="UTF-8" standalone="no"?>
<svg width="122px" height="60px" viewBox="0 0 122 60" version="1.1" xmlns="http://www.w3.org/2000/svg" xmlns:xlink="http://www.w3.org/1999/xlink">
    <!-- Generator: Sketch 3.8.2 (29753) - http://www.bohemiancoding.com/sketch -->
    <title>az</title>
    <desc>Created with Sketch.</desc>
    <defs></defs>
    <g id="Page-1" stroke="none" stroke-width="1" fill="none" fill-rule="evenodd">
        <g id="az">
            <g id="Group">
                <g>
                    <polygon id="Shape" fill="#3F9C35" points="-7.71499878e-15 0 122 0 122 60 -7.71499878e-15 60"></polygon>
                    <polygon id="Shape" fill="#ED2939" points="-7.71499878e-15 0 122 0 122 40 -7.71499878e-15 40"></polygon>
                    <polygon id="Shape" fill="#00B9E4" points="-7.71499878e-15 0 122 0 122 20 -7.71499878e-15 20"></polygon>
                    <ellipse id="Oval" fill="#FFFFFF" cx="58.9407176" cy="30" rx="8.98595944" ry="9"></ellipse>
                    <ellipse id="Oval" fill="#ED2939" cx="60.9375975" cy="30" rx="7.48829953" ry="7.5"></ellipse>
                    <polygon id="Shape" fill="#FFFFFF" points="68.925117 25 69.8803744 27.69025 72.4551014 26.4645 71.2312637 29.04325 73.9173167 30 71.2312637 30.95675 72.4551014 33.5355 69.8803744 32.30975 68.925117 35 67.9698596 32.30975 65.3951326 33.5355 66.6189704 30.95675 63.9329173 30 66.6189704 29.04325 65.3951326 26.4645 67.9698596 27.69025"></polygon>
                </g>
            </g>
        </g>
    </g>
</svg>