<?xml version="1.0" encoding="UTF-8" standalone="no"?>
<svg width="122px" height="60px" viewBox="0 0 122 60" version="1.1" xmlns="http://www.w3.org/2000/svg" xmlns:xlink="http://www.w3.org/1999/xlink">
    <!-- Generator: Sketch 3.8.2 (29753) - http://www.bohemiancoding.com/sketch -->
    <title>tr</title>
    <desc>Created with Sketch.</desc>
    <defs></defs>
    <g id="Page-1" stroke="none" stroke-width="1" fill="none" fill-rule="evenodd">
        <g id="tr">
            <g id="Group">
                <g>
                    <polygon id="Shape" fill="#F31930" points="0 0 122 0 122 60 0 60"></polygon>
                    <path d="M71.872125,30.934125 C71.872125,39.211 65.046375,45.920375 56.625875,45.920375 C48.205375,45.920375 41.38,39.21075 41.38,30.934 C41.38,22.65725 48.20575,15.94775 56.626,15.94775 C65.04625,15.94775 71.87225,22.657375 71.87225,30.934 L71.872125,30.934125 Z" id="Shape" fill="#FFFFFF"></path>
                    <path d="M72.634625,30.933375 C72.634625,37.554625 67.173875,42.922125 60.43775,42.922125 C53.701625,42.922125 48.241,37.554625 48.241,30.933375 C48.241,24.312125 53.70175,18.944625 60.43775,18.944625 C67.17375,18.944625 72.634625,24.312125 72.634625,30.933375 L72.634625,30.933375 Z" id="Shape" fill="#F31830"></path>
                    <polygon id="Shape" fill="#FFFFFF" points="74.84075 23.933125 74.717625 29.472875 69.5495 30.876 74.644 32.69025 74.521 37.7705 77.8435 33.80325 82.864 35.545 79.959875 31.2875 83.503875 27.054 78.06475 28.55375 74.840625 23.93325"></polygon>
                </g>
            </g>
        </g>
    </g>
</svg>