<?xml version="1.0" encoding="UTF-8" standalone="no"?>
<svg width="122px" height="60px" viewBox="0 0 122 60" version="1.1" xmlns="http://www.w3.org/2000/svg" xmlns:xlink="http://www.w3.org/1999/xlink">
    <!-- Generator: Sketch 3.8.2 (29753) - http://www.bohemiancoding.com/sketch -->
    <title>mx</title>
    <desc>Created with Sketch.</desc>
    <defs></defs>
    <g id="Page-1" stroke="none" stroke-width="1" fill="none" fill-rule="evenodd">
        <g id="mx">
            <g id="Group">
                <g>
                    <g id="Shape">
                        <polygon fill="#FFFFFF" points="21 0 100.998 0 100.998 60 21 60"></polygon>
                        <polygon fill="#0B7226" points="0 0 47.787625 0 47.787625 60 0 60"></polygon>
                        <polygon fill="#BC0000" points="74.3638493 0 122.15125 0 122.15125 60 74.363625 60"></polygon>
                    </g>
                    <path d="M47.640625,32.33875 C47.65025,32.32625 48.074125,31.584 48.023875,31.703625 C48.219125,31.85325 48.57575,31.7115 48.317,31.374875 C48.38,31.23875 48.4595,31.135 48.522375,30.998875 C48.664625,30.732375 48.36,30.617625 48.2395,30.801875 C48.16575,30.942875 48.094625,31.026875 48.021,31.168 C47.637125,30.98575 47.611875,31.41425 47.7955,31.48925 C47.714,31.6045 47.57525,31.794625 47.493875,31.91 C47.542625,32.052875 47.59175,32.19575 47.640625,32.33875 L47.640625,32.33875 Z" id="Shape" fill="#9C4314"></path>
                    <path d="M47.59025,32.1735 C47.577625,32.164125 46.8295,31.75075 46.94975,31.79925 C47.096625,31.601875 46.94975,31.247375 46.617,31.510875 C46.48,31.44975 46.375,31.37175 46.238,31.31075 C45.969625,31.172375 45.85925,31.4785 46.045,31.596375 C46.18725,31.668125 46.272,31.738 46.41425,31.80975 C46.2375,32.196 46.666375,32.21525 46.738625,32.030625 C46.855125,32.1105 47.306625,32.372125 47.423125,32.451875 C47.56525,32.401125 47.448125,32.224375 47.59025,32.1735 L47.59025,32.1735 Z M50.296125,36.708625 C50.298625,36.693125 50.317875,35.838625 50.330625,35.967625 C50.5735,36.00625 50.8195,35.71175 50.43175,35.539 C50.42225,35.389375 50.44275,35.26025 50.43325,35.1105 C50.4315,34.8085 50.108875,34.852625 50.09075,35.072 C50.093125,35.23125 50.0705,35.338875 50.072875,35.498125 C49.648625,35.520625 49.8305,35.9095 50.02775,35.887875 C50.011,36.028125 49.9795,36.261375 49.96275,36.401625 L50.296125,36.708625 L50.296125,36.708625 Z" id="Shape" fill="#9C4314"></path>
                    <path d="M50.173,36.58675 C50.1575,36.5845 49.302875,36.577375 49.43175,36.56275 C49.46675,36.31925 49.168875,36.0775 49.00175,36.46775 C48.852125,36.47925 48.72275,36.460625 48.573125,36.47225 C48.27125,36.478375 48.32,36.80025 48.5395,36.815375 C48.69875,36.810625 48.806625,36.831625 48.96575,36.827 C48.9945,37.251 49.38075,37.0635 49.35625,36.86675 L50.07575,36.942 C50.1765,36.8295 50.072375,36.69925 50.173,36.58675 L50.173,36.58675 Z" id="Shape" fill="#9C4314"></path>
                    <path d="M59.016,39.51525 C59.016,39.51525 59.309125,39.911 59.441,39.925625 C59.851375,39.954875 63.105,39.925625 63.105,39.925625 C63.105,39.920625 63.22225,39.85725 63.22225,39.852375 C63.32975,39.7155 63.32,39.637375 63.4275,39.5005 C63.5985,39.329625 63.84275,39.275875 64.01375,39.104875 C64.7465,38.929 65.406,38.753125 66.138875,38.635875 C66.08025,38.201125 65.640625,38.293875 65.406125,38.122875 C65.332875,38.0545 65.347375,37.986125 65.391375,37.91775 L67.01825,37.17025 L67.01825,36.994375 C65.86525,37.131125 64.80025,37.355875 63.559375,37.40475 L59.32375,39.14875 L59.016,39.515125 L59.016,39.51525 Z" id="Shape" stroke="#000000" stroke-width="0.1" fill="#42B2F3"></path>
                    <path id="Shape" stroke="#000000" stroke-width="0.1"></path>
                    <path d="M47.36875,31.9285 C47.148875,31.15175 46.79375,30.471 45.964625,30.26975 C45.809125,30.2345 45.69875,29.7905 45.95775,29.81125 C46.104375,29.869875 45.96075,29.783375 46.10725,29.842 C46.252375,29.893875 46.47825,29.7795 46.385,29.5325 C46.385,29.503125 46.108375,29.012 46.108375,28.997375 C46.0565,28.941125 46.15275,28.62625 46.4015,28.792125 C46.51875,28.869125 46.636,29.049625 46.805,29.08525 C46.86725,29.074875 46.908375,28.881875 46.898,28.732375 C46.898,28.71775 46.912625,28.225875 46.912625,28.225875 C46.85375,27.9295 47.116,27.778125 47.3265,28 C47.34125,28.07325 47.324875,28.074 47.3395,28.14725 C47.38775,28.245375 47.446375,28.260625 47.51525,28.161875 L47.79375,27.883375 C47.959125,27.822 48.062375,27.7605 48.07225,28.103375 C48.07225,28.103375 47.844125,28.38925 47.73625,28.492875 C47.68,28.57575 47.55825,28.6885 47.769875,28.750625 C47.7845,28.750625 48.07225,28.792125 48.07225,28.792125 C48.269125,28.874 48.289875,29.090625 48.14475,29.11025 C48.14475,29.11025 47.99125,29.289375 47.721875,29.43875 C47.639,29.50525 47.570625,29.585375 47.64325,29.67675 C47.79875,29.73725 47.74925,29.67925 48.014375,29.67925 C48.238125,29.6275 48.217375,30.175375 47.813125,30.13825 C47.69225,30.167125 47.532625,30.155125 47.467125,30.3485 C47.43775,30.499 47.4305,30.788125 47.4305,30.861375 C47.4055,31.210125 47.45675,31.694125 47.45675,31.70875 C47.486,31.957875 47.398,31.87 47.36875,31.9285 L47.36875,31.9285 Z M49.7675,36.398125 C49.739,36.361625 49.0045,35.556875 48.15625,35.64725 C47.997875,35.666375 47.744,35.28575 47.995,35.21775 C48.152625,35.2235 48.029875,35.201 48.1875,35.20675 C48.320875,35.113125 48.07975,34.825375 47.970875,34.92525 C47.961,34.89775 47.68,34.9855 47.560875,34.96125 C47.19225,34.925875 47.03125,34.514 47.3005,34.35775 C47.468,34.42175 47.784625,34.42775 47.955875,34.404 C48.125,34.3525 48.046625,34.1985 47.88275,34.1755 C47.6495,34.141 46.708375,33.91175 46.7915,33.7975 C46.636,33.538375 46.79025,33.338625 47.063375,33.47625 C47.28875,33.612875 47.315,33.53625 47.260125,33.43425 C47.193375,33.2405 47.129125,33.286875 47.119375,33.11875 C47.10275,33.010375 47.137875,32.9125 47.29775,32.9805 C47.36525,32.92375 47.476125,33.3295 47.89525,33.175625 C47.97275,33.2405 48.038625,32.736625 48.329375,32.813375 C48.547375,32.880875 48.3985,33.107375 48.441,33.427375 C48.476,33.638125 48.6865,33.58975 48.715375,33.48025 C48.669875,32.996125 49.143125,32.987625 49.19725,33.15125 C49.24225,33.27075 49.282625,33.5965 49.225375,33.90275 C49.19425,34.058375 49.219,34.36725 49.318125,34.429 C49.484875,34.43325 49.37725,34.3955 49.491875,34.223 C49.685,34.09875 49.98525,34.54875 49.633875,34.77475 C49.263125,34.85475 49.843875,36.267 49.892875,36.346 C49.839125,36.40375 49.775375,36.333 49.7675,36.398125 L49.7675,36.398125 Z" id="Shape" stroke="#286726" stroke-width="0.1" fill="#008D00"></path>
                    <path d="M54.320375,40.175 C54.320375,40.15925 54.205375,39.312375 54.238375,39.437875 C54.484375,39.437875 54.681125,39.1085 54.271125,38.998625 C54.238375,38.852375 54.23825,38.721625 54.2055,38.57525 C54.156375,38.27725 53.844625,38.37125 53.861125,38.590875 C53.888375,38.74775 53.883,38.8575 53.91025,39.014375 C53.49475,39.103125 53.73525,39.45875 53.92675,39.4065 C53.932125,39.547625 53.937625,39.782875 53.943,39.924 L54.320375,40.175 L54.320375,40.175 Z" id="Shape" fill="#9C4314"></path>
                    <path d="M54.305,40.075375 C54.289375,40.075625 53.444125,40.2025 53.569125,40.167875 C53.565625,39.921875 53.2335,39.72975 53.1295,40.141375 C52.983625,40.176125 52.852875,40.178 52.707,40.212875 C52.40975,40.26625 52.50825,40.576625 52.7275,40.557 C52.884,40.5275 52.993875,40.531375 53.150375,40.501875 C53.245,40.916 53.597125,40.6705 53.542125,40.479875 L54.264625,40.4415 C54.3465,40.314625 54.22325,40.202375 54.305125,40.075375 L54.305,40.075375 Z" id="Shape" fill="#9C4314"></path>
                    <path d="M54.01675,35.444125 C56.0855,36.66525 56.617125,36.488 56.53075,35.947 C56.629875,35.947 56.65125,36.03325 56.945,35.817 C56.904,36.617 57.775125,37.07675 58.30625,36.980375 C58.785375,37.01125 58.723625,37.645 58.723625,37.645 C58.75275,38.2935 58.534625,38.555625 58.563625,39.204125 C58.5565,39.204125 58.549125,39.12675 58.541875,39.12675 C57.952375,38.986625 56.790875,38.970125 56.355875,38.87625 C58.34975,37.515875 54.822375,37.47875 54.506875,37.432375 C54.268625,37.401375 54.438625,37.169625 54.57775,37.10775 C55.67525,36.891375 53.546125,35.852 53.6015,35.728375 C53.4715,35.651 53.610625,35.58925 53.610625,35.58925 C53.756375,35.4945 53.871125,35.538875 54.016875,35.44425 L54.01675,35.444125 Z" id="Shape" stroke="#000000" stroke-width="0.1" fill="#33B1E9"></path>
                    <path d="M59.1825,36.478875 C59.010186,36.4784755 58.8448145,36.5467501 58.7229698,36.6685948 C58.6011251,36.7904395 58.5328505,36.955811 58.53325,37.128125 C58.425,37.62275 58.440375,38.318375 58.53325,38.983 C58.5328506,39.1552923 58.6011081,39.3206447 58.7229257,39.4424858 C58.8447434,39.5643269 59.0100827,39.6326162 59.182375,39.63225 C60.614875,39.78675 62.155375,39.740375 63.479625,39.63225 C63.6519173,39.6326162 63.8172566,39.5643269 63.9390743,39.4424858 C64.0608919,39.3206447 64.1291494,39.1552923 64.12875,38.983 C64.29875,38.395625 64.2525,37.777375 64.12875,37.128125 C64.1291494,36.9558327 64.0608919,36.7904803 63.9390743,36.6686392 C63.8172566,36.5467981 63.6519173,36.4785088 63.479625,36.478875 C62.047125,36.417125 60.583875,36.33975 59.182375,36.478875 L59.1825,36.478875 Z" id="Shape" stroke="#000000" stroke-width="0.1" fill="#983D25"></path>
                    <path d="M54.345,18.821125 L53.3645,19.67025 C52.96175,19.84825 52.524,20.07 52.83925,21.018375 C52.655375,22.23525 53.635875,22.42775 54.49375,22.173875 C54.63675,21.858875 54.682125,21.64125 54.825125,21.326125 C54.44575,21.26775 54.242875,21.400625 53.8985,21.377375 C53.662125,21.339375 53.644625,21.161375 53.73225,21.044625 C54.10275,20.860875 54.43825,20.68575 54.808875,20.501875 C54.800125,20.4465 54.791375,20.487375 54.782625,20.431875 C54.47625,20.589375 54.257375,20.641875 53.9335,20.77325 C53.676625,20.86375 53.60375,20.534 53.705875,20.388 C53.705875,20.388 54.371125,19.433875 54.371125,19.425125 C54.426875,19.2245 54.38825,18.886625 54.344875,18.821125 L54.345,18.821125 Z" id="Shape" stroke="#000003" stroke-width="0.1" fill="#268728"></path>
                    <path d="M57.08525,35.50375 C57.08525,35.7874863 56.8552363,36.0175 56.5715,36.0175 C56.2877637,36.0175 56.05775,35.7874863 56.05775,35.50375 C56.05775,35.2200137 56.2877637,34.99 56.5715,34.99 C56.8552363,34.99 57.08525,35.2200137 57.08525,35.50375 L57.08525,35.50375 Z" id="Shape" stroke="#000000" stroke-width="0.1" fill="#FFFFFF"></path>
                    <path d="M54.649,37.44125 C54.649,37.7087629 54.4321379,37.925625 54.164625,37.925625 C53.8971121,37.925625 53.68025,37.7087629 53.68025,37.44125 C53.68025,37.1737371 53.8971121,36.956875 54.164625,36.956875 C54.4321379,36.956875 54.649,37.1737371 54.649,37.44125 L54.649,37.44125 Z" id="Shape" stroke="#000000" stroke-width="0.1" fill="#FFFFFF"></path>
                    <path d="M66.684375,38.52625 C66.684375,38.7937629 66.4675129,39.010625 66.2,39.010625 C65.9324871,39.010625 65.715625,38.7937629 65.715625,38.52625 C65.715625,38.2587371 65.9324871,38.041875 66.2,38.041875 C66.4675129,38.041875 66.684375,38.2587371 66.684375,38.52625 L66.684375,38.52625 Z" id="Shape" stroke="#000000" stroke-width="0.1" fill="#FFFFFF"></path>
                    <path id="Shape" stroke="#000000" stroke-width="0.1" fill="#BA4600"></path>
                    <path d="M59.139875,39.1135 C59.139875,39.3810129 58.9230129,39.597875 58.6555,39.597875 C58.3879871,39.597875 58.171125,39.3810129 58.171125,39.1135 C58.171125,38.8459871 58.3879871,38.629125 58.6555,38.629125 C58.9230129,38.629125 59.139875,38.8459871 59.139875,39.1135 L59.139875,39.1135 Z M64.248,39.1135 C64.2508097,39.2883826 64.1591196,39.4511967 64.0081178,39.5394591 C63.8571159,39.6277215 63.6702591,39.6277215 63.5192572,39.5394591 C63.3682554,39.4511967 63.2765653,39.2883826 63.279375,39.1135 C63.279375,38.8459871 63.4962371,38.629125 63.76375,38.629125 C64.0312629,38.629125 64.248125,38.8459871 64.248125,39.1135 L64.248,39.1135 Z M64.248,36.765 C64.2508097,36.9398826 64.1591196,37.1026967 64.0081178,37.1909591 C63.8571159,37.2792215 63.6702591,37.2792215 63.5192572,37.1909591 C63.3682554,37.1026967 63.2765653,36.9398826 63.279375,36.765 C63.279375,36.4974871 63.4962371,36.280625 63.76375,36.280625 C64.0312629,36.280625 64.248125,36.4974871 64.248125,36.765 L64.248,36.765 Z M59.169125,36.765 C59.169125,37.0325129 58.9522629,37.249375 58.68475,37.249375 C58.4172371,37.249375 58.200375,37.0325129 58.200375,36.765 C58.200375,36.4974871 58.4172371,36.280625 58.68475,36.280625 C58.9522629,36.280625 59.169125,36.4974871 59.169125,36.765 L59.169125,36.765 Z" id="Shape" stroke="#000000" stroke-width="0.1" fill="#973100"></path>
                    <path d="M54.393,40.43875 C54.364375,40.40225 54.146875,39.785625 52.9175,39.75875 C52.7445,39.74875 52.634875,39.798375 52.284625,39.77425 C52.081625,39.790875 52.161125,39.549 52.241625,39.462 C52.374875,39.368375 51.766625,39.414 51.5575,39.43875 C51.346625,39.426625 51.20475,39.39075 51.08575,39.366625 C50.717,39.33125 50.50125,39.072375 50.77075,38.916125 C50.8835,38.80525 51.34225,38.931375 51.51325,38.90775 C51.682625,38.85625 51.658875,38.571 51.494875,38.548 C51.261625,38.5135 50.244125,38.43725 50.32725,38.323 C50.171625,38.063875 50.21675,37.92975 50.621,37.979875 C50.84625,38.116625 50.83975,37.9415 50.784875,37.8395 C50.718125,37.64575 50.347875,37.61575 50.338,37.447625 C50.27775,37.044125 50.5425,36.989875 50.70225,37.058 C50.76975,37.001125 50.39975,36.6855 50.81875,36.53175 C50.922875,36.499125 51.137,36.5245 51.20925,36.907125 C51.42725,36.974625 51.276625,36.656125 51.57225,36.526625 C51.82575,36.420375 51.555375,37.66175 51.857625,37.650625 C52.118,37.756625 52.06675,36.972125 52.28475,37.12475 C52.756,37.003875 52.528,38.630375 52.733,38.53225 C53.0735,38.83 53.109125,38.2645 53.20825,38.326 C53.375,38.3305 53.486,38.336375 53.393,38.710375 C53.32375,39.001375 53.427375,39.068875 53.48025,39.185625 C53.798625,39.887375 54.2765,39.88075 54.436,40.20375 C54.48725,40.68125 54.400875,40.373625 54.393,40.43875 L54.393,40.43875 Z" id="Shape" stroke="#286726" stroke-width="0.1" fill="#008D00"></path>
                    <path d="M60.2805,41.518 C59.692625,42.000875 59.082,42.313625 58.858375,42.81625 C59.12625,42.78025 59.22975,42.7355 59.429625,42.76075 C59.646125,42.276375 60.326875,42.01775 60.72875,41.626125 L60.280375,41.518 L60.2805,41.518 Z M61.852,41.5695 C62.3835,42.0605 63.042375,42.341125 63.274,42.859875 C63.006125,42.823875 62.894375,42.78725 62.73475,42.8285 C62.51825,42.344125 61.8055,42.061375 61.403625,41.66975 C61.553125,41.633625 61.7025,41.605625 61.852,41.5695 L61.852,41.5695 Z" id="Shape" stroke="#000000" stroke-width="0.1" fill="#009400"></path>
                    <path d="M61.45125,41.669125 C62.09525,42.055625 62.35225,42.33375 62.749,42.828375 C62.558375,42.839875 62.291,42.926375 62.193125,42.983 C61.713875,42.359625 61.342875,42.138 60.941125,41.7465 C61.0905,41.710375 61.301875,41.70525 61.451125,41.669125 L61.45125,41.669125 Z" id="Shape" stroke="#000000" stroke-width="0.1" fill="#FFFFFF"></path>
                    <path d="M55.370375,20.743 C55.112375,20.814 55.001,21.0315 54.9775,21.234375 C54.027,21.900125 54.717875,23.21075 55.599375,22.9385 C54.947125,21.961875 55.599375,21.410125 56.32475,21.7525 C56.544625,21.91375 56.697875,22.25 56.7185,22.22925 C56.856625,21.93 57.402625,21.6695 57.402625,21.6695 C57.402625,21.6695 57.8425,21.728625 57.92175,21.444125 C57.971875,21.262125 58.37675,20.508875 58.37675,20.508875 L56.967375,20.21875 L55.99325,20.198 L55.475,20.426 C55.406,20.5365 55.4395,20.632375 55.370375,20.742875 L55.370375,20.743 Z" id="Shape" stroke-opacity="0.772" stroke="#000000" stroke-width="0.1" fill="#FFBA00"></path>
                    <path d="M60.925,41.70075 C61.569125,42.08725 61.864375,42.449125 62.26125,42.94375 C62.086625,42.99525 62.0275,43.2825 61.92975,43.33925 C61.6205,42.71575 61.10925,42.1845 60.56825,41.65375 C60.717625,41.617625 60.775625,41.73675 60.925,41.70075 L60.925,41.70075 Z" id="Shape" stroke="#000000" stroke-width="0.1" fill="#D40000"></path>
                    <path d="M60.6825,41.62575 C60.038375,42.01225 59.8135,42.25825 59.41675,42.753 C59.607375,42.7645 59.842625,42.883 59.9405,42.939625 C60.41975,42.31625 60.790625,42.094625 61.1925,41.703125 C61.043125,41.667 60.83175,41.661875 60.6825,41.625875 L60.6825,41.62575 Z" id="Shape" stroke="#000000" stroke-width="0.1" fill="#FFFFFF"></path>
                    <path d="M61.2075,41.65625 C60.563375,42.04275 60.292125,42.4285 59.895375,42.923125 C60.214625,43.151875 60.136875,43.16575 60.202625,43.29475 C60.511875,42.671375 61.192,42.156125 61.733,41.6255 C61.583625,41.589375 61.35675,41.6925 61.207375,41.656375 L61.2075,41.65625 Z" id="Shape" stroke="#000000" stroke-width="0.1" fill="#D40000"></path>
                    <path d="M54.0260511,35.4107755 C54.0260511,35.7008297 53.6356972,35.9360276 53.1541346,35.9360276 C52.672572,35.9360276 52.2822181,35.7008297 52.2822181,35.4107755 C52.2822181,35.1207213 52.672572,34.8855234 53.1541346,34.8855234 C53.6356972,34.8855234 54.0260511,35.1207213 54.0260511,35.4107755 L54.0260511,35.4107755 Z" id="Shape" stroke="#000000" stroke-width="0.1" fill="#973000" transform="translate(53.154135, 35.410776) rotate(18.092286) translate(-53.154135, -35.410776) "></path>
                    <path d="M60.161,40.845375 C59.696625,41.179 59.040125,41.624625 58.575875,41.95825 C58.4805,42.039625 58.89775,42.125 59.050625,42.05025 C59.540625,41.71375 59.7985,41.493375 60.288625,41.156875 L60.568875,41.0005 C60.368875,40.986125 60.361,40.859625 60.161,40.845375 L60.161,40.845375 Z" id="Shape" stroke="#005E00" stroke-width="0.1" fill="#008D2B"></path>
                    <path d="M56.8630747,38.985038 C56.8630747,39.2365484 56.5246029,39.4404921 56.107045,39.4404921 C55.689487,39.4404921 55.3510152,39.2365484 55.3510152,38.985038 C55.3510152,38.7335277 55.689487,38.529584 56.107045,38.529584 C56.5246029,38.529584 56.8630747,38.7335277 56.8630747,38.985038 L56.8630747,38.985038 Z" id="Shape" stroke="#000000" stroke-width="0.1" fill="#973000" transform="translate(56.107045, 38.985038) rotate(-21.434025) translate(-56.107045, -38.985038) "></path>
                    <path d="M64.8965,35.704375 C64.92075,34.430375 66.03775,35.54575 66.47625,35.020875 C67.506875,33.80625 67.59525,33.71375 68.50575,33.8455 C70.946,34.8045 68.398875,37.022 65.90475,36.01225 C65.631,35.861625 65.17025,35.85475 64.8965,35.70425 L64.8965,35.704375 Z" id="Shape" stroke="#000000" stroke-width="0.1" fill="#008D00"></path>
                    <g transform="translate(73.375000, 31.125000)" id="Shape" fill="#6D390B">
                        <path d="M0.724,0.381375 C0.6915,0.523875 0.525,0.599375 0.352125,0.55025 C0.17925,0.501125 0.06575,0.346 0.098375,0.203625 C0.131,0.06125 0.297375,-0.014375 0.470125,0.03475 C0.642875,0.083875 0.7565,0.239 0.723875,0.381375 L0.724,0.381375 Z"></path>
                        <polygon points="0.64175 0.31675 1.2355 0.83175 1.079125 1.012 0.485375 0.497"></polygon>
                    </g>
                    <polygon id="Shape" fill="#6D390B" points="70.414875 33.32775 70.5445 33.509375 70.992375 33.119125 70.86275 32.9375"></polygon>
                    <path d="M59.1825,36.4625 C59.939875,36.694375 60.49625,39.445875 61.23825,39.693125 M59.909,36.44725 C60.6665,36.679125 61.207375,39.430625 61.949375,39.677875 M60.62025,36.416875 C61.37775,36.64875 61.93425,39.415625 62.676125,39.66275" id="Shape" stroke="#000000" stroke-width="0.1"></path>
                    <path d="M67.9301997,37.069038 C67.9301997,37.3205484 67.5917279,37.5244921 67.17417,37.5244921 C66.756612,37.5244921 66.4181402,37.3205484 66.4181402,37.069038 C66.4181402,36.8175277 66.756612,36.613584 67.17417,36.613584 C67.5917279,36.613584 67.9301997,36.8175277 67.9301997,37.069038 L67.9301997,37.069038 Z" id="Shape" stroke="#000000" stroke-width="0.1" fill="#973000" transform="translate(67.174170, 37.069038) rotate(-21.434025) translate(-67.174170, -37.069038) "></path>
                    <path d="M70.771125,33.959375 C70.809,34.10625 70.74325,34.296875 70.484875,34.363625 C70.226375,34.430375 69.983625,34.329625 69.94575,34.18275 C69.90775,34.03575 70.0575,33.824625 70.316,33.75775 C70.574375,33.691 70.733125,33.8125 70.771,33.959375 L70.771125,33.959375 Z" id="Shape" stroke="#000000" stroke-width="0.1" fill="#DC0000"></path>
                    <path d="M59.396875,41.00125 C59.013625,41.078875 58.140125,41.26825 57.759375,42.031625 C57.69025,42.175375 57.115625,42.286625 57.193375,42.03875 C57.28325,41.908875 57.31525,41.897625 57.405125,41.767875 C57.398125,41.605125 57.02575,41.65325 57.051375,41.79875 C57.02275,41.79225 56.842625,41.827125 56.758125,41.914375 C56.52975,42.206 56.139875,42.193 56.153375,41.881875 C56.2975,41.775375 56.3705,41.673 56.44275,41.516125 C56.4905,41.34575 56.157375,41.284875 56.049625,41.4105 C55.821625,41.529875 55.6785,41.70075 55.407125,41.833 C55.105,41.94175 54.814625,41.748 55.07775,41.59225 C55.314375,41.476 55.11725,41.20725 55.00175,41.198625 C54.8025,41.1505 53.986375,41.28825 53.839375,41.206 C53.724375,41.190875 53.514375,40.8885 53.760625,40.834625 C53.9835,40.761875 54.35575,40.91625 54.451875,40.480375 C54.54825,39.7465 55.712875,40.855875 55.52375,40.5495 C55.097125,39.918625 55.823375,39.770375 56.0425,40.2 C56.132,40.394 56.575375,40.681625 56.704,40.6275 C56.94575,40.654375 56.2555,40.0165 56.8035,39.9125 C56.9285,39.939 57.1515,39.9485 57.30525,40.16175 C57.419625,40.27175 57.444,40.725125 57.87175,40.76275 C57.96525,40.62475 57.8755,40.695 57.792,40.505375 C57.79125,40.27575 58.171,40.2945 58.33325,40.683125 C58.494,40.979875 59.3425,40.778375 60.118875,40.796125 C60.367625,40.7555 60.767875,40.974125 59.39675,41.001125 L59.396875,41.00125 Z" id="Shape" stroke="#286026" stroke-width="0.1" fill="#008D00"></path>
                    <path d="M69.911,33.93125 C70.0475,34.141125 70.04475,34.473625 69.6755,34.713875 C69.30625,34.954125 68.87425,34.92425 68.7375,34.714375 C68.600875,34.5045 68.724,34.0955 69.093125,33.85525 C69.46225,33.615 69.774375,33.721375 69.910875,33.93125 L69.911,33.93125 Z" id="Shape" stroke="#000000" stroke-width="0.1" fill="#DC0000"></path>
                    <path d="M70.17575,33.06175 C70.303625,33.143375 70.385375,33.327625 70.24175,33.552625 C70.09825,33.777625 69.852,33.869375 69.724125,33.787625 C69.59625,33.706125 69.561625,33.4495 69.705375,33.2245 C69.848875,32.9995 70.047875,32.980125 70.17575,33.06175 L70.17575,33.06175 Z" id="Shape" stroke="#000000" stroke-width="0.1" fill="#DC0000"></path>
                    <path d="M70.564875,33.44375 C70.647625,33.570875 70.645875,33.7725 70.422125,33.918125 C70.198375,34.06375 69.936375,34.045625 69.853625,33.9185 C69.770875,33.79125 69.845375,33.543375 70.06925,33.39775 C70.292875,33.252125 70.482,33.316625 70.564875,33.443875 L70.564875,33.44375 Z" id="Shape" stroke="#000000" stroke-width="0.1" fill="#DC0000"></path>
                    <path d="M71.396875,32.69025 C71.459125,32.785875 71.457875,32.937625 71.2895,33.047125 C71.12125,33.15675 70.924,33.143 70.86175,33.047375 C70.7995,32.951625 70.8555,32.765125 71.023875,32.6555 C71.19225,32.546 71.3345,32.5945 71.396875,32.69025 L71.396875,32.69025 Z" id="Shape" stroke="#000000" stroke-width="0.1" fill="#D90000"></path>
                    <path d="M60.761,40.416375 C60.431625,40.455125 60.24425,40.475375 60.181,40.713625 C60.145875,40.875375 60.173875,41.08675 60.202,41.26825 C60.202,41.47675 60.465125,41.614875 60.7715,41.674375 L61.29875,41.674375 C61.52075,41.674375 61.9315,41.457 61.9315,41.2485 C61.964375,41.130625 61.963125,40.940375 61.963125,40.811625 C61.963125,40.461 61.715625,40.439375 61.406125,40.406625 L60.761,40.416375 L60.761,40.416375 Z" id="Shape" stroke="#000000" stroke-width="0.1" fill="#FFFFFF"></path>
                    <path d="M72.46675,36.27375 C72.4305,35.057 72.10975,33.2935 73.6035,32.68875 C73.79625,32.6385 73.865875,32.747125 73.80025,32.907375 L72.46675,36.27375 L72.46675,36.27375 Z" id="Shape" stroke="#286326" stroke-width="0.1" fill="#008F00"></path>
                    <path d="M74.396875,33.7965 C74.66275,33.296375 75.32,33.17025 75.551875,33.185875 C75.093125,33.654625 74.634625,34.80375 74.377,35.17975 C74.006,35.81875 72.924,36.272125 72.274875,36.64825 C73.001375,35.659 73.670375,34.78575 74.397,33.7965 L74.396875,33.7965 Z" id="Shape" stroke="#286326" stroke-width="0.1" fill="#008C00"></path>
                    <path d="M60.789125,40.409375 C60.789125,40.409375 60.45925,40.468125 60.452,40.468125 C60.44475,40.468125 60.1955,40.62925 60.1955,40.62925 C60.1955,40.62925 60.14425,40.94425 60.14425,40.95175 C60.14425,40.95925 60.20275,41.31075 60.20275,41.31075 L60.35675,41.52325 L60.75975,41.662375 L60.789125,40.409375 L60.789125,40.409375 Z" id="Shape" stroke="#000000" stroke-width="0.1" fill="#009400"></path>
                    <path d="M72.27,36.6465 C72.313625,36.60275 73.125,32.77775 74.477875,32.324625 C74.696375,32.60875 74.591,33.2265 74.503625,33.554375 C74.08825,34.9825 73.078875,35.9615 72.269875,36.6465 L72.27,36.6465 Z" id="Shape" stroke="#286326" stroke-width="0.1" fill="#008D00"></path>
                    <g transform="translate(74.500000, 31.750000)" id="Shape" fill="#6D390B">
                        <path d="M0.75675,0.189625 C0.698375,0.323375 0.787375,0.483125 0.9555,0.546375 C1.123625,0.609625 1.30725,0.55225 1.365625,0.418375 C1.424,0.2845 1.335125,0.12475 1.166875,0.061625 C0.998625,-0.0015 0.815125,0.05575 0.756875,0.189625 L0.75675,0.189625 Z"></path>
                        <polygon points="0.86125 0.186375 0.07775 0.289046119 0.0965 0.686375 0.88 0.5834952"></polygon>
                    </g>
                    <g transform="translate(71.250000, 35.250000)" id="Shape" fill="#6D390B">
                        <path d="M0.706125,0.60475 C0.622,0.739875 0.427625,0.75625 0.272,0.641 C0.116375,0.52575 0.05825,0.323125 0.14225,0.187875 C0.22625,0.052625 0.420625,0.0365 0.576375,0.151625 C0.732125,0.26675 0.790125,0.4695 0.706125,0.60475 L0.706125,0.60475 Z"></path>
                        <polygon points="0.646875 0.507125 1.056875 1.261125 0.835 1.389375 0.425 0.6355"></polygon>
                    </g>
                    <g transform="translate(72.125000, 36.375000)" id="Shape" fill="#6D390B">
                        <path d="M0.80175,0.535 C0.728875,0.3935 0.814625,0.21825 0.99325,0.14375 C1.171875,0.06925 1.37575,0.12325 1.44875,0.26475 C1.52175,0.40625 1.436,0.5815 1.257375,0.656 C1.07875,0.7305 0.87475,0.6765 0.80175,0.535 L0.80175,0.535 Z"></path>
                        <polygon points="0.915875 0.743125 0.058375 0.683442733 0.062125 0.243125 0.919625 0.302807267"></polygon>
                    </g>
                    <path d="M71.681625,37.785625 C72.512875,37.335125 71.992,37.967125 71.940375,38.313125 C71.69475,39.166875 71.465125,39.172375 71.176375,39.317875 C70.745625,39.71075 69.3655,39.520125 68.72425,39.682 C69.528,39.09825 70.877875,38.36925 71.68175,37.785625 L71.681625,37.785625 Z M70.437125,37.5875 C70.784125,37.312125 70.841125,36.704 70.818,36.49325 C70.5035,36.9425 69.698375,37.436125 69.440375,37.695875 C68.998625,38.07625 68.727375,39.09375 68.4895,39.710875 C69.16575,38.983125 69.761,38.315375 70.437,37.5875 L70.437125,37.5875 Z" id="Shape" stroke="#286326" stroke-width="1.3284375" fill="#008C00"></path>
                    <path d="M66.11525,41.080875 C66.658875,40.921375 67.58525,41.323 67.7365,41.499625 C67.080625,41.499625 66.01775,41.955 65.56875,42.03375 C64.8525,42.215 62.86625,41.094375 62.155,40.934375 C63.34225,40.8745 64.9,41.253 66.11525,41.080875 L66.11525,41.080875 Z" id="Shape" stroke="#286326" stroke-width="1.633125" fill="#008C00"></path>
                    <path d="M61.977375,40.966 C62.441625,41.29975 63.098125,41.745375 63.562375,42.079 C63.65775,42.16025 63.240625,42.24575 63.087625,42.171 C62.597625,41.8345 62.33975,41.614125 61.84975,41.277625 L61.569375,41.121125 C61.769375,41.10675 61.77725,40.980375 61.977375,40.966125 L61.977375,40.966 Z" id="Shape" stroke="#004500" stroke-width="0.99" fill="#00602B"></path>
                    <path d="M68.4215,39.682875 C68.47725,39.66175 70.690625,36.67375 72.0665,36.79725 C72.149125,37.125125 71.814375,37.617375 71.608875,37.86675 C70.682875,38.93975 69.405875,39.399875 68.421375,39.682875 L68.4215,39.682875 Z" id="Shape" stroke="#286326" stroke-width="1.5590625" fill="#008C00"></path>
                    <g transform="translate(67.625000, 38.500000)" id="Shape" fill="#6D390B">
                        <path d="M0.524375,0.744 C0.3865,0.823625 0.207375,0.7465 0.124375,0.5715 C0.041375,0.3965 0.085625,0.19025 0.2235,0.110625 C0.361375,0.031 0.540375,0.10825 0.6235,0.283125 C0.706625,0.458 0.66225,0.664375 0.524375,0.744 L0.524375,0.744 Z"></path>
                        <polygon points="0.749737922 0.63 0.761875 1.48825 0.274012078 1.49675 0.261875 0.638625"></polygon>
                    </g>
                    <g transform="translate(68.000000, 39.750000)" id="Shape" fill="#6D390B">
                        <path d="M0.727625,0.720125 C0.736875,0.56125 0.899875,0.454 1.091625,0.48075 C1.283375,0.5075 1.431375,0.658 1.422125,0.816875 C1.412875,0.97575 1.249875,1.083 1.058125,1.05625 C0.866375,1.0295 0.718375,0.879125 0.727625,0.720125 L0.727625,0.720125 Z"></path>
                        <polygon points="0.82625 0.7775 0.10575 0.31125 0.2395 0.0925 0.959875 0.55875"></polygon>
                    </g>
                    <path d="M49.951625,29.6175 C50.016375,29.520875 50.165875,29.45725 50.352,29.561625 C50.53825,29.665875 50.617,29.848625 50.552,29.945375 C50.48725,30.04225 50.277875,30.071375 50.091625,29.967125 C49.9055,29.862875 49.886625,29.714375 49.951625,29.617625 L49.951625,29.6175 Z" id="Shape" stroke="#000000" stroke-width="0.1" fill="#DC0000"></path>
                    <path d="M65.73675,40.6825 C66.65075,40.44075 66.59625,40.000625 67.023375,39.61575 C66.03475,39.471 65.246125,39.820875 64.823875,40.05325 C64.15675,40.4835 63.984125,40.9505 63.406125,41.272125 C64.3915,41.146375 64.835375,41.004875 65.736625,40.682375 L65.73675,40.6825 Z" id="Shape" stroke="#286326" stroke-width="0.1" fill="#008C00"></path>
                    <path d="M62.7555,40.949625 C65.36975,41.146875 64.953,40.0855 67.818,40.11175 C67.77575,40.44725 67.22875,40.86825 66.9465,41.02575 C65.693625,41.68825 63.634875,41.998625 62.755375,40.949625 L62.7555,40.949625 Z" id="Shape" stroke="#286326" stroke-width="0.1" fill="#008C00"></path>
                    <path d="M61.426625,40.402375 L61.433875,41.633375 L61.771,41.5015 C61.771,41.5015 61.910125,41.281625 61.910125,41.267 C61.910125,41.252375 61.968875,40.9665 61.968875,40.95925 C61.968875,40.951875 61.9395,40.6075 61.9395,40.6075 L61.683,40.439 L61.426625,40.402375 L61.426625,40.402375 Z" id="Shape" stroke="#000000" stroke-width="0.1" fill="#D40000"></path>
                    <polygon id="Shape" fill="#6D390B" points="50.54325 28.97125 50.125 28.511375 50.267375 28.390875 50.685625 28.8505"></polygon>
                    <path d="M50.017125,29.254375 C50.088125,29.130875 50.25175,29.049625 50.4555,29.182875 C50.659375,29.315875 50.7455,29.549125 50.6745,29.67275 C50.603625,29.79625 50.3745,29.833625 50.1705,29.7005 C49.96675,29.567375 49.94625,29.378 50.017125,29.25425 L50.017125,29.254375 Z" id="Shape" stroke="#000000" stroke-width="0.1" fill="#DC0000"></path>
                    <path id="Shape" stroke="#000000" stroke-width="0.1" fill="#DC0000"></path>
                    <path d="M50.582,28.83475 C50.717,28.799375 50.893125,28.85925 50.9565,29.097 C51.02,29.334625 50.929,29.558375 50.794,29.593875 C50.658875,29.62925 50.463125,29.49225 50.399625,29.2545 C50.33625,29.01675 50.446875,28.87025 50.582125,28.83475 L50.582,28.83475 Z" id="Shape" stroke="#000000" stroke-width="0.1" fill="#DC0000"></path>
                    <path d="M53.95,32.646875 C53.542375,31.610625 52.43,29.890125 51.297,30.719375 C50.0395,31.804 51.8705,33.5105 53.432,33.41375 L53.950125,32.646875 L53.95,32.646875 Z" id="Shape" stroke="#000000" stroke-width="0.1" fill="#008D00"></path>
                    <path d="M50.7145,29.609375 C50.932125,29.463 51.2815,29.459625 51.540875,29.84 C51.80025,30.2205 51.777125,30.671875 51.559375,30.81825 C51.3415,30.96475 50.909625,30.844125 50.65025,30.46375 C50.390875,30.083375 50.496625,29.756 50.7145,29.609375 L50.7145,29.609375 Z" id="Shape" stroke="#000000" stroke-width="0.1" fill="#DC0000"></path>
                    <path d="M49.909375,27.8785 C50.008625,27.81175 50.167875,27.81025 50.28625,27.98375 C50.4045,28.157125 50.393875,28.363125 50.294625,28.43 C50.195375,28.496625 49.998375,28.441625 49.88,28.268125 C49.76175,28.09475 49.81,27.945375 49.909375,27.8785 L49.909375,27.8785 Z" id="Shape" stroke="#000000" stroke-width="0.1" fill="#DC0000"></path>
                    <path d="M57.41175,33.87975 C56.899625,32.9685 55.502,31.829125 54.078375,32.558125 C52.39475,33.739625 54.757375,35.5095 57.17525,34.636875 C57.392125,34.412125 57.194625,34.104375 57.411625,33.879625 L57.41175,33.87975 Z" id="Shape" stroke="#000000" stroke-width="0.1" fill="#008D00"></path>
                    <path d="M62.157875,34.41875 C61.64575,33.507625 58.900875,32.471875 57.705125,33.345875 C56.20825,35.024875 58.405,36.193625 61.36175,35.362375 C61.57875,35.137625 61.940875,34.6435 62.157875,34.418625 L62.157875,34.41875 Z" id="Shape" stroke="#000000" stroke-width="0.1" fill="#008D00"></path>
                    <path d="M51.49725,31.015625 C51.511875,31.015625 51.805,31.382 51.805,31.382 L51.790375,30.869 M52.0105,31.732875 L52.318375,32.040625 M53.0945,31.52775 L53.123875,31.8795 L53.314375,31.864875 M53.0945,32.70075 C53.02125,32.656875 52.772,32.451625 52.772,32.451625 M52.37625,32.73 L51.96575,32.59825" id="Shape" stroke="#000000" stroke-width="0.1"></path>
                    <path id="Shape" stroke="#000000" stroke-width="0.1"></path>
                    <path id="Shape" stroke="#000000" stroke-width="0.1"></path>
                    <path id="Shape" stroke="#000000" stroke-width="0.1"></path>
                    <path d="M51.84875,32.97975 C51.805,32.97975 51.23325,32.950375 51.23325,32.950375 M52.875375,33.374625 L52.43575,33.521125 M53.534,31.806625 C53.548625,31.792 53.900375,31.616125 53.900375,31.616125 M52.537875,31.308625 C52.537875,31.294 52.420625,30.825 52.420625,30.825" id="Shape" stroke="#000000" stroke-width="0.1"></path>
                    <path d="M60.753875,40.40825 C60.424625,40.446875 60.23725,40.467125 60.173875,40.705375 C60.138875,40.867125 60.166875,41.0785 60.195,41.260125 C60.253625,41.563875 60.458125,41.60675 60.7645,41.666125 L61.29175,41.666125 C61.51375,41.666125 61.87325,41.522125 61.93175,41.247625 C61.972,41.10775 61.956125,40.93225 61.956125,40.803375 C61.926875,40.482125 61.708625,40.431125 61.399125,40.398375 L60.753875,40.40825 L60.753875,40.40825 Z M60.79025,40.409375 L60.779875,41.63225 L60.79025,40.409375 Z M61.4325,40.409375 L61.422,41.63225 L61.4325,40.409375 Z" id="Shape" stroke="#000000" stroke-width="0.1"></path>
                    <path d="M74.657,29.951625 C74.850375,29.315875 74.181125,29.165625 74.032,28.808625 C73.7265,29.406625 73.833625,30.015625 73.887625,30.335875 C74.013,30.855875 74.473875,31.215375 74.550375,31.654625 C74.685375,30.998875 74.66375,30.596875 74.657,29.9515 L74.657,29.951625 Z" id="Shape" stroke="#286326" stroke-width="0.1" fill="#008C00"></path>
                    <path d="M75.543,29.361 C75.556,29.013125 76.00975,28.764 76.192625,28.709125 C76.07925,29.3855 76.282875,29.70325 76.229,29.980625 C76.188625,30.433625 75.359,31.125625 75.00625,31.510125 C75.185,30.767125 75.364,30.103875 75.542875,29.361 L75.543,29.361 Z" id="Shape" stroke="#286326" stroke-width="0.1" fill="#008C00"></path>
                    <path d="M74.58675,32.072625 C74.608875,32.031125 74.2415,28.839375 75.16175,28.177125 C75.403,28.31875 75.482,28.775625 75.49975,29.026125 C75.55075,30.12625 75.58675,30.68525 74.58675,32.07275 L74.58675,32.072625 Z" id="Shape" stroke="#286326" stroke-width="0.1" fill="#008C00"></path>
                    <path d="M56.12625,31.9965 C56.3895,32.080125 56.6215,32.36725 56.479125,32.834 C56.336625,33.300875 56.116125,33.601125 55.770125,33.496875 C55.320125,33.392625 55.2395,32.975625 55.381875,32.50875 C55.52425,32.042 55.86275,31.913 56.126125,31.9965 L56.12625,31.9965 Z" id="Shape" stroke="#000000" stroke-width="0.1" fill="#DC0000"></path>
                    <path d="M56.5715,31.5195 C56.65525,31.57825 56.70525,31.7015 56.603125,31.841 C56.501125,31.980375 56.33375,32.0285 56.250125,31.96975 C56.166375,31.911 56.149875,31.743125 56.251875,31.6035 C56.353875,31.46425 56.48775,31.46075 56.5715,31.5195 L56.5715,31.5195 Z M55.878875,31.376625 C55.978875,31.355375 56.103125,31.40275 56.135625,31.5725 C56.168125,31.742125 56.089375,31.8975 55.989375,31.91875 C55.889375,31.939875 55.75525,31.8375 55.722625,31.66775 C55.690125,31.498125 55.778875,31.39775 55.878875,31.3765 L55.878875,31.376625 Z" id="Shape" stroke="#000000" stroke-width="0.1" fill="#DC0000"></path>
                    <path id="Shape" stroke="#000000" stroke-width="0.1" fill="#DC0000"></path>
                    <path id="Shape" stroke="#000000" stroke-width="0.1" fill="#DC0000"></path>
                    <path id="Shape" stroke="#000000" stroke-width="0.1" fill="#DC0000"></path>
                    <path id="Shape" stroke="#000000" stroke-width="0.1" fill="#DC0000"></path>
                    <polygon id="Shape" stroke="#000000" stroke-width="0.1" points="54.239875 39.984375 54.239875 39.867375"></polygon>
                    <path d="M66.073,33.753125 C66.586,34.02675 66.410125,34.66675 66.04375,34.83775 C66.024125,34.4175 65.7555,34.2905 65.355,34.192875 C65.565,34.075625 65.78975,33.6945 66.073,33.753125 L66.073,33.753125 Z" id="Shape" stroke="#000000" stroke-width="0.1" fill="#FFFFFF"></path>
                    <path d="M61.174625,36.3125 C61.363375,33.531125 63.476625,33.19375 64.877375,33.67525 C66.928625,35.163625 64.848375,36.40025 61.778125,36.48025 C61.504375,36.32975 61.448375,36.463125 61.174625,36.3125 L61.174625,36.3125 Z" id="Shape" stroke="#000000" stroke-width="0.1" fill="#008D00"></path>
                    <path d="M61.78875,33.187125 C61.132625,33.160625 60.934625,33.800875 61.192,34.134875 C61.45325,33.7835 61.787375,33.81125 62.232875,33.93175 C62.096375,33.72375 62.09775,33.28125 61.788625,33.187125 L61.78875,33.187125 Z" id="Shape" stroke="#000000" stroke-width="0.1" fill="#FFFFFF"></path>
                    <path d="M62.130875,34.019125 C61.617875,34.292875 61.727125,34.93275 62.0935,35.10375 C62.113125,34.683625 62.38175,34.5565 62.78225,34.458875 C62.57225,34.341625 62.41425,33.9605 62.130875,34.019125 L62.130875,34.019125 Z" id="Shape" stroke="#000000" stroke-width="0.1" fill="#FFFFFF"></path>
                    <path d="M66.141,33.805875 C66.147,33.577125 65.966375,33.379125 65.754625,33.347125 C65.499375,33.316125 65.254625,33.49225 64.99925,33.305875 C64.96825,33.285 64.3755,32.773375 64.205375,32.535125 C64.03525,32.44175 63.67875,32.267 63.67875,32.267 C63.46875,32.540625 63.320875,32.855625 63.0175,33.035875 C62.866625,33.096375 62.809,33.167125 62.53375,33.144625 C62.24925,33.011625 61.93625,32.943375 61.7735,33.08775 C61.911875,33.361875 61.874125,33.708625 61.815625,33.972375 C61.91825,34.031125 62.03125,33.960875 62.1545,33.988375 C62.5345,33.998375 62.437875,34.40675 62.5795,34.582625 C62.979875,34.6915 63.18325,34.49975 63.241625,34.173375 C63.3475,34.00675 63.671,33.98525 63.901125,33.922375 C64.15025,33.87425 64.461625,33.795 64.69,33.923125 C64.87875,34.023375 65.005,34.144375 65.100375,34.348125 C65.100375,34.348125 65.40075,34.375 65.70125,34.318875 C65.711625,34.138375 65.674625,33.810125 66.141,33.805875 L66.141,33.805875 Z" id="Shape" stroke="#000000" stroke-width="0.1" fill="#F6AA00"></path>
                    <path d="M63.4855,32.554375 L63.50025,33.213875 C63.578375,33.45325 64.110875,33.428875 64.174375,33.2725 L64.15975,32.525" id="Shape" stroke="#000000" stroke-width="0.1"></path>
                    <path d="M63.66125,33.960625 C63.77625,33.921625 63.818875,33.601875 63.818875,33.601875 M64.13125,33.872625 L64.1605,33.608875 M64.614125,33.872625 L64.57075,33.595 M63.339125,33.6675 C63.32125,33.6775 63.09,33.389125 63.16325,33.4185 M62.914875,34.093 C62.944125,34.093 62.532,33.666125 62.60525,33.6955 M62.53275,33.302 C62.522125,33.26925 62.5035,33.1115 62.57675,33.14075 M63.451625,33.2035 C62.825375,33.744 62.235875,33.516625 62.15075,33.971 M65.002,33.509375 C65.023875,33.482875 65.09925,33.343125 65.020375,33.34325" id="Shape" stroke="#000000" stroke-width="0.1"></path>
                    <path d="M54.946125,33.776625 C54.95425,33.7645 55.421875,33.725875 55.421875,33.725875 L54.988125,33.451625 M57.796125,34.243 C57.80425,34.230875 58.271875,34.19225 58.271875,34.19225 L57.900375,33.76225 M58.948,34.3215 C58.925125,34.247125 59.4395,34.333 59.423875,34.27075 L59.099125,33.918625 M58.332875,32.680875 C58.3475,32.680875 58.640625,33.04725 58.640625,33.04725 L58.625875,32.53425 M67.159375,35.126625 C67.170625,35.136125 67.156625,35.649125 67.156625,35.649125 L67.49325,35.284125 M63.402375,34.995375 C63.412375,35.006 63.34575,35.4705 63.34575,35.4705 L63.847625,35.20425 M54.605,32.614125 L54.912875,32.921875 M54.045,33.127375 L54.35275,33.435125 M56.14375,33.925375 L56.57725,33.886625 M55.454625,34.353125 L55.888875,34.322375 M58.594125,33.3675 L58.901875,33.675375 M59.875,33.527 L60.18275,33.83475 M57.487875,32.966875 L57.795625,33.274625 M54.252375,31.9895 L54.560125,32.29725 M57.69175,35.736 L57.9765,35.40675 M59.134375,36.009 L59.419125,35.67975 M53.59725,34.325 L54.03075,34.28625" id="Shape" stroke="#000000" stroke-width="0.1"></path>
                    <path id="Shape" stroke="#000000" stroke-width="0.1"></path>
                    <path d="M54.959,34.934375 L55.3925,34.895625 M60.1,34.51375 L60.534125,34.482875 M59.364,35.121875 L59.79825,35.091125 M59.88675,32.8895 C59.901375,32.8895 60.1945,33.25575 60.1945,33.25575 L60.17975,32.742875 M64.11125,34.20075 L63.8035,34.508625 M65.120375,34.537125 L64.8125,34.844875 M64.6715,35.402 L64.36375,35.70975 M68.291375,35.481625 L67.983625,35.7895 M66.386,35.257875 L66.078125,35.565625 M68.25975,33.415625 L67.952,33.723375 M69.716375,35.49575 L69.283,35.4545 M66.076625,36.46125 L66.097625,36.0265 M67.45,34.49375 L67.6715,34.119 M68.139125,34.90975 L68.3605,34.535 M68.71325,36.101625 C68.70375,36.11275 68.23475,36.097875 68.23475,36.097875 L68.571,36.343 M62.20125,35.9715 C62.21125,35.98225 62.144625,36.446625 62.144625,36.446625 L62.6465,36.180375 M58.339875,35.121875 C58.397,35.0795 58.687,34.98925 58.6715,34.926875 L58.36275,34.815125" id="Shape" stroke="#000000" stroke-width="0.1"></path>
                    <path d="M71.40975,32.191 C71.613125,32.348875 71.956,30.552875 71.9035,29.990875 C71.9035,29.95375 71.83975,28.761875 72.08925,27.9105 C72.24675,27.623875 72.2525,25.47625 72.016125,24.911625 C72.204375,24.89575 72.432625,24.83475 72.46075,24.604625 C71.591,24.926625 71.3845,22.76625 70.5475,21.525625 C69.730375,20.281375 68.716125,19.556125 67.6625,18.801125 C67.744625,18.589875 67.86625,18.39175 68.02725,18.193625 C66.7335,18.84175 64.7175,16.495375 61.74275,16.67075 C61.07225,16.7375 60.756375,16.778 60.584875,17.18625 C60.031875,17.233125 59.465625,17.35875 59.464125,18.08875 C59.46525,18.2635 59.624,18.58275 59.979625,18.586875 C60.467125,18.72725 60.8625,18.618125 61.192375,19.296875 C61.217125,19.482625 61.255,19.81275 61.279875,19.9985 C61.279875,19.9985 60.8435,19.44575 60.604875,19.353875 C60.668125,19.262 60.567375,19.198875 60.751125,19.05675 C60.527875,18.927625 60.12825,19.032625 60.12825,19.032625 C60.12825,19.032625 59.26425,18.626 58.56825,18.7355 C58.56825,18.66125 58.435,18.172 58.435,18.172 C58.311875,18.516625 58.04,18.498 58.000125,18.82525 C57.925875,18.59 57.82525,18.302125 57.751,18.066875 C57.50675,18.4005 57.577625,18.76025 57.491,19.106875 C57.394125,19.18575 57.201,19.190125 57.152375,18.966875 C57.127625,18.694375 57.094125,18.66725 57.095625,18.342375 C56.919375,18.649625 56.707875,18.79925 56.636625,19.329875 C56.562375,19.13175 56.523125,18.942375 56.44875,18.74425 C56.45825,19.43425 55.863,19.848375 55.299375,20.33275 C55.141,20.625875 55.324125,20.63 55.3365,20.7785 L55.63375,20.927125 C55.807,20.91475 55.9935,20.902375 56.166875,20.89 C56.2535,21.001375 56.182625,21.008125 56.41375,21.08 C57.032875,21.2535 57.80775,20.509125 58.415625,21.67875 C58.135625,21.911625 57.855625,22.459875 57.9435,22.5615 C58.055,22.5615 57.71975,22.719125 58.17275,22.574625 C57.7,23.034375 57.379625,23.63875 57.379625,23.675875 C57.327125,23.805 57.570125,23.658375 57.519375,23.893 C57.58575,23.717125 57.63175,23.878375 57.63175,23.878375 C56.55275,25.0455 57.595625,26.297125 57.479375,26.971375 C57.65875,27.26025 57.681125,26.965875 57.9055,26.933875 C58.09525,27.760875 58.638125,28.2625 58.9725,28.918875 C58.799875,28.865875 58.456875,28.847125 58.271125,28.92575 C58.286875,29.237 58.56825,29.532875 58.791125,29.805 C58.63025,29.854375 58.481625,29.903875 58.320625,29.95375 C57.986375,30.127 57.764125,30.309125 57.528875,30.56875 C57.372,30.947875 58.277625,31.039875 58.711875,31.10375 C58.6725,31.23975 58.617,31.410875 58.695875,31.560375 C59.37875,31.626125 60.16775,31.42425 60.16775,31.387125 C60.16775,31.349625 60.339,31.253625 60.339,31.253625 C60.430875,31.437625 60.633125,31.492 60.72275,31.465875 C60.85175,31.465875 61.052125,30.95175 60.96025,30.558 C61.20775,30.85475 61.440875,31.32775 61.6885,31.625125 C61.7635,31.703875 61.860375,31.645875 61.92225,31.593 C62.13275,31.9275 62.423375,32.261875 62.633875,32.595875 C62.74525,32.7235 62.721375,32.6765 62.872125,32.685875 C63.00975,32.641375 63.127125,32.623125 63.199125,32.355875 C63.199125,32.355875 63.24475,32.397375 63.30975,32.544625 C63.476,32.662875 63.593375,32.378625 63.68525,32.286625 C63.73775,32.159875 63.94275,32.311375 63.94275,32.237125 C64.017125,32.286625 64.065875,32.504375 64.14025,32.55375 C64.253875,32.51175 64.36675,32.261875 64.375375,31.99675 C64.488375,32.22925 64.52325,32.21 64.609875,32.27225 C64.68425,32.21 64.7075,31.9675 64.781875,31.905625 C64.76575,31.7775 65.674,32.781375 65.711125,32.781375 C65.800875,32.84675 66.314125,33.004 66.419125,32.8205 C66.675375,32.99175 67.365125,33.0975 67.476875,32.8225 C68.044625,33.064875 68.712625,32.79325 68.684375,32.522125 C69.202125,32.729 70.00925,32.590875 70.00925,32.55375 C70.101125,32.542875 70.35075,32.3005 70.11425,32.117 C68.393125,30.91575 65.831625,28.92675 64.845875,28.447875 C64.845875,28.093375 64.577625,26.814125 64.28875,26.462 C64.23625,26.280375 64.3545,26.05575 64.52525,26.069 C65.195,26.69525 65.438375,26.6355 65.793,26.7365 C66.17675,27.03925 66.3145,27.5015 66.698375,27.9225 C66.87925,27.980375 67.093,28.1635 67.0375,27.985 C66.798,27.38375 66.508375,26.80175 65.79125,26.020125 C66.162625,26.205875 66.771125,26.697875 67.182,27.054375 C67.455875,27.505625 67.53275,27.86525 67.7805,28.43475 C67.959875,28.5485 68.14325,28.96825 68.117,28.620375 C68.077625,27.966125 67.61875,26.927125 67.61875,26.852875 C68.34825,27.43475 68.340625,28.336625 68.5605,28.8885 C68.751,29.1685 68.84675,29.540625 68.925625,29.4535 C69.017625,29.326375 68.709125,27.751 68.709125,27.751 C68.659625,27.553 68.63475,27.3285 68.585375,27.1305 C69.12825,27.443 69.318,28.6355 69.572125,30.064125 C69.57275,30.291625 69.6655,30.541 69.653125,30.6895 C69.769625,30.8335 69.903875,31.23075 69.89775,30.99375 C69.89775,30.99375 69.898125,28.669625 69.740625,28.135625 C69.701125,27.85125 69.810375,27.386 69.810375,27.386 C70.0085,28.35175 70.21975,29.39625 70.417875,30.362 L70.417875,31.068 C70.516875,31.166875 70.615875,31.265875 70.715,31.365375 L70.90075,29.619375 C70.90075,29.619375 70.677875,27.576125 70.677875,27.539125 L70.677875,26.94475 C70.673375,26.735375 70.86575,26.7755 70.992625,27.01275 C71.017375,27.520375 71.015875,27.923 71.040625,28.43075 C71.127375,29.012375 71.18775,29.436875 71.235,30.1765 C71.25825,30.782625 71.281625,32.216 71.41,32.19125 L71.40975,32.191 Z" id="Shape" stroke-opacity="0.772" stroke="#000000" stroke-width="0.1" fill="#9C4314"></path>
                    <path d="M61.7875,35.55075 C61.759625,35.485375 61.7395,35.18225 61.67525,35.182875 L61.4945,35.457 M67.219125,33.896125 L67.182125,34.20275 M64.518,36.157875 C64.447375,36.1665 64.1505,36.101625 64.133375,36.163375 L64.3465,36.41325" id="Shape" stroke="#000000" stroke-width="0.1"></path>
                    <path id="Shape" stroke="#000000" stroke-width="0.1"></path>
                    <path d="M58.725375,31.257 C58.725375,31.231125 58.721375,31.152375 58.7575,31.096875 C58.814125,31.01625 58.859625,30.96625 58.933625,30.888625 C59.021125,30.833 59.083625,30.767 59.157875,30.696375 C59.237625,30.6455 59.27775,30.6005 59.350125,30.55225 C59.3945,30.506875 59.445875,30.4845 59.49425,30.456 C59.549375,30.429 59.5895,30.389 59.6705,30.376 C59.71925,30.351625 59.820625,30.36 59.89475,30.36 C59.971125,30.36 59.997875,30.345375 60.071,30.344" id="Shape" stroke="#000000" stroke-width="0.1"></path>
                    <path d="M70.370375,25.693 C70.617875,25.8725 70.890375,26.262625 71.001875,26.968375 M68.978125,25.93325 C69.337125,26.255125 69.539875,26.60525 69.80775,27.394375" id="Shape" stroke-opacity="0.772" stroke="#000000" stroke-width="0.1"></path>
                    <path d="M68.110875,26.3175 C68.329625,26.56725 68.46175,26.829375 68.5815,27.141 M66.625,25.50075 C66.90975,25.828875 67.367875,26.330375 67.603125,26.838" id="Shape" stroke-opacity="0.772" stroke="#000000" stroke-width="0.1" fill="#00C600"></path>
                    <path d="M60.577,17.121875 C60.59775,18.549125 62.68675,18.201 62.86275,19.542 C63.2625,21.0055 63.095875,21.951 62.511,22.415625 C62.179,22.7575 62.432875,23.289 62.53175,23.561875 C63.07475,24.938125 63.894625,25.159625 64.247125,26.3475" id="Shape" stroke-opacity="0.772" stroke="#000000" stroke-width="0.1"></path>
                    <path id="Shape" stroke-opacity="0.772" stroke="#000000" stroke-width="0.1"></path>
                    <path d="M62.50125,31.19725 L63.2275,32.37875 M64.815625,29.4395 L68.704375,32.4175 M64.71125,30.25625 L67.553,32.750875 M59.36525,27.16125 C59.7395,27.904375 60.797,28.89125 61.4315,29.04875 C61.45325,28.571375 61.42625,28.387125 61.35025,28.05625" id="Shape" stroke-opacity="0.772" stroke="#000000" stroke-width="0.1"></path>
                    <path d="M60.56875,26.73825 C60.943,27.481375 61.284625,28.273125 62.27725,28.72325 C62.38025,28.002 62.158,27.020375 61.610125,26.022375" id="Shape" stroke-opacity="0.772" stroke="#000000" stroke-width="0.1"></path>
                    <path d="M60.7445,25.74225 C61.08625,25.948375 61.395375,26.0405 61.62325,26.067625 C61.72625,25.346375 61.8165,24.583 61.228,23.550125" id="Shape" stroke-opacity="0.772" stroke="#000000" stroke-width="0.1"></path>
                    <path d="M59.42975,26.16875 C59.934125,26.716625 60.340875,26.743625 60.568625,26.77075 C60.73675,26.27725 60.807375,25.2305 60.601125,24.10225 M58.123,26.60825 C58.62525,27.25825 59.783,28.49175 60.406,28.940125 C60.427625,28.83675 60.45975,28.788625 60.4515,28.457875 M66.7,19.470375 C67.238,20.0905 69.314,22.17775 69.725,23.154625 C70.434375,24.75125 71.7425,25.054875 72.068625,24.876125 M63.143375,28.09875 C63.330125,28.86275 63.669375,30.2525 64.15825,30.47225 C64.242375,30.390125 64.3135,30.23825 64.30525,29.90725" id="Shape" stroke-opacity="0.772" stroke="#000000" stroke-width="0.1"></path>
                    <path d="M60.3215,23.76875 C60.541,23.99225 60.59075,24.195875 60.8185,24.223 C61.096,23.996 61.58475,22.73075 61.40925,21.79675" id="Shape" stroke-opacity="0.772" stroke="#000000" stroke-width="0.1"></path>
                    <path d="M59.17075,23.733625 C59.273875,24.23625 59.370125,24.660875 59.725875,24.66475 C60.3175,24.17025 60.492125,23.06325 60.316625,22.129375 M58.941,26.39375 L58.67475,25.808375 M64.689,31.1305 L66.47225,32.750375 M63.8395,30.478875 L64.38975,32.028 M61.414875,29.061 C61.789125,29.804125 62.586375,30.876625 63.220875,31.034 C63.242625,30.931125 63.2305,30.8415 63.22225,30.511125 M60.44925,28.912125 C60.8235,29.65475 61.923,30.865375 62.557625,31.220125 C62.579375,31.11725 62.671875,31.0975 62.663625,30.767 M63.187875,31.00275 L63.982375,32.32025 M62.2375,27.69575 C62.579125,27.901875 62.937875,28.0745 63.165625,28.10175 C63.2005,27.2985 62.9205,26.003 62.345625,25.011125" id="Shape" stroke-opacity="0.772" stroke="#000000" stroke-width="0.1"></path>
                    <path d="M58.283625,23.484 C58.182125,23.864 58.196125,24.279125 58.552,24.283 C59.53925,23.85675 58.94975,23.432125 59.797625,21.99325 M59.58675,20.87075 C59.961,21.61375 60.070625,22.118875 60.65375,22.30975 C60.7705,22.25725 61.06075,20.943875 60.07625,19.877625" id="Shape" stroke-opacity="0.772" stroke="#000000" stroke-width="0.1"></path>
                    <path d="M60.7855,21.4895 C60.97775,21.713 61.2595,21.766375 61.487375,21.752625 C61.71025,21.307375 61.233625,20.045875 60.606125,19.3935 M66.300375,20.460625 C66.770125,21.12175 68.83125,23.429625 69.714625,24.16625 C69.913125,24.141 70.206875,24.3875 69.932125,23.553375" id="Shape" stroke-opacity="0.772" stroke="#000000" stroke-width="0.1"></path>
                    <path d="M66.068375,21.92075 C66.538125,22.581875 67.398375,23.701125 68.281625,24.437875 C68.50375,24.52075 68.718625,24.494125 68.789125,24.436375 C68.864875,24.3635 68.796,23.8395 68.8155,23.306375" id="Shape" stroke-opacity="0.772" stroke="#000000" stroke-width="0.1"></path>
                    <path d="M65.509375,22.753875 C66.047375,23.346875 66.7575,24.029375 67.627125,24.82075 C67.84925,24.903625 68.041125,24.907 68.0665,24.81925 C68.087625,24.732625 68.127875,24.7545 68.079125,24.2215" id="Shape" stroke-opacity="0.772" stroke="#000000" stroke-width="0.1"></path>
                    <path d="M64.75825,23.818 C65.29625,24.410875 65.788,24.847875 66.27575,24.95675 C66.511375,24.985125 66.635,24.988375 66.660375,24.90075 C66.6815,24.814125 66.667125,24.399375 66.6595,23.92075" id="Shape" stroke-opacity="0.772" stroke="#000000" stroke-width="0.1"></path>
                    <path d="M63.994125,24.609 C64.532125,25.201875 64.532625,25.44775 65.020375,25.55675 C65.256,25.585 65.4305,25.554 65.47325,25.473375 C65.549,25.304875 65.5755,25.122125 65.56775,24.643625" id="Shape" stroke-opacity="0.772" stroke="#000000" stroke-width="0.1"></path>
                    <path d="M63.77625,20.733625 C64.318125,20.83225 64.363,20.363625 64.319,20.028625 C64.265625,19.608375 63.9685,19.4245 63.6165,19.51275 M63.475,22.589875 C63.730375,22.6885 64.05125,22.682125 64.168,22.38975 C64.26225,22.16725 64.226875,21.621875 63.875,21.710125" id="Shape" stroke-opacity="0.772" stroke="#000000" stroke-width="0.1"></path>
                    <path d="M63.85825,21.70275 C64.3455,21.733125 64.391125,21.510625 64.37375,21.229625 C64.3545,20.902125 64.1325,20.652875 63.7805,20.74125" id="Shape" stroke-opacity="0.772" stroke="#000000" stroke-width="0.1"></path>
                    <path d="M64.331625,20.43 C65.04325,20.00175 67.09325,21.7195 65.534125,22.266375 M64.1805,21.6465 C64.892125,21.218125 66.45925,22.6195 64.87025,23.165375 M63.9145,22.61325 C64.709,22.640875 65.62325,23.91625 64.0655,24.072" id="Shape" stroke-opacity="0.772" stroke="#000000" stroke-width="0.1"></path>
                    <path d="M62.978125,23.294125 C63.2335,23.392875 63.381,23.456625 63.608875,23.259875 C63.698875,23.177375 63.8175,22.798875 63.48175,22.589" id="Shape" stroke-opacity="0.772" stroke="#000000" stroke-width="0.1"></path>
                    <path d="M56.325375,21.753125 C56.594125,21.406375 57.250875,21.18525 57.475625,21.644375 M63.4575,23.35625 C63.92025,23.50825 64.65675,24.795875 63.42,24.92725" id="Shape" stroke-opacity="0.772" stroke="#000000" stroke-width="0.1"></path>
                    <path d="M62.86675,17.532 C63.4005,17.633 63.670125,18.4955 64.0955,18.562 C64.8735,18.678 63.995,17.6615 63.826625,17.54725" id="Shape" stroke-opacity="0.772" stroke="#000000" stroke-width="0.1"></path>
                    <path d="M54.9965,21.21875 C55.235875,21.2285 55.460625,21.1845 55.612,20.90125 M57.3695,23.69025 C57.5025,23.93825 57.844375,23.839125 58.126875,23.667125 C58.51325,23.446125 58.187625,22.669625 59.10875,22.007625 M57.859375,26.95975 C58.3615,27.60975 59.314125,28.579375 59.90775,29.100625 C59.9295,28.99775 60.02575,28.945375 60.0175,28.614375 M59.889125,29.0575 L61.031125,30.644125 M62.270375,28.67425 C62.457125,29.438 63.2,30.6475 63.68875,30.86725 C63.772875,30.78475 63.829375,30.45725 63.82125,30.126125 M62.00425,30.862125 L61.9345,31.570125 M63.714125,27.321875 C63.900875,28.08575 64.1815,29.944625 64.611625,30.281625 C64.695875,30.1995 64.869625,28.655125 64.861375,28.324375 M63.1375,27.269125 C63.39125,27.2995 63.539125,27.298625 63.737625,27.296375 C63.772625,26.49325 63.4245,25.549 62.849625,24.557125" id="Shape" stroke-opacity="0.772" stroke="#000000" stroke-width="0.1"></path>
                    <path id="Shape" stroke-opacity="0.772" stroke="#000000" stroke-width="0.1" fill="#00C600"></path>
                    <path d="M61.684375,24.93825 C61.95275,25.041875 62.144625,25.075375 62.357875,25.0585 C62.578125,23.97075 62.0235,23.969625 61.332375,23.200625" id="Shape" stroke-opacity="0.772" stroke="#000000" stroke-width="0.1"></path>
                    <path d="M64.77225,17.707875 C65.306,17.80875 64.967625,18.607125 65.69325,18.855 C66.302375,19.058 65.959125,18.218375 65.79075,18.104125" id="Shape" stroke-opacity="0.772" stroke="#000000" stroke-width="0.1"></path>
                    <path d="M63.978875,19.50075 C64.364,19.22075 65.740875,19.6085 66.20675,19.99975 C66.34025,20.12425 66.543875,20.621 65.911,21.077625 M56.684,20.15825 C57.78925,19.079625 58.301875,19.2025 59.56725,19.998 C59.748875,20.04075 59.946375,20.003375 60.063875,19.934 C60.127875,19.779 60.066875,19.621375 59.98375,19.5015 C59.41775,19.09575 58.996,18.97825 58.462,19.053 M58.275375,24.16125 C58.026875,24.527625 57.823625,25.324375 58.243375,26.211625 C58.26,26.31375 58.36725,26.415875 58.259375,26.484 C58.0525,26.588125 57.959,26.76025 57.842875,26.9325 M64.716,29.82625 C64.7235,28.482125 64.52725,27.41 63.991,26.439625 M62.3945,24.5925 C62.572,24.57375 62.79475,24.622875 62.90425,24.57 C62.957125,24.37375 62.806125,24.132 62.745625,23.947 C62.847625,23.93575 62.97225,23.93575 63.0515,23.913 C63.09675,23.743 63.0515,23.50525 63.0515,23.301375" id="Shape" stroke-opacity="0.772" stroke="#000000" stroke-width="0.1"></path>
                    <path d="M55.755875,20.7675 C55.7985,20.468625 56.0655,20.1375 56.364625,19.96675 C56.50875,19.886625 56.604875,19.98275 56.668875,20.014625 C56.749,20.142875 56.700875,20.383125 56.668875,20.47925 C56.588875,20.6395 56.428625,20.767625 56.140375,20.87975 C55.99075,20.815625 55.905375,20.831625 55.755875,20.767625 L55.755875,20.7675 Z" id="Shape" stroke-opacity="0.772" stroke="#000000" stroke-width="0.1" fill="#FFFFFF"></path>
                    <path d="M58.31875,26.47 C58.382875,26.502 59.0235,27.20675 59.0235,27.20675 L59.408,27.20675 L59.44,26.1335" id="Shape" stroke-opacity="0.772" stroke="#000000" stroke-width="0.1"></path>
                    <path id="Shape" stroke-opacity="0.772" stroke="#000000" stroke-width="0.1"></path>
                    <path d="M58.525,26.39375 L58.675,25.808375 M58.79925,24.178875 C58.607,24.531375 58.55225,25.11025 58.65225,25.530625 M64.035125,26.5215 L63.672625,26.52875" id="Shape" stroke-opacity="0.772" stroke="#000000" stroke-width="0.1"></path>
                    <path d="M51.049625,25.15975 C51.1005,25.31675 50.92925,25.2325 50.8925,25.276625 C50.7125,25.340125 50.42725,25.119625 50.247,24.586375 C50.335,24.437125 50.851875,24.11625 51.01775,24.18525 C51.01775,24.18525 51.343,24.30925 51.382,24.445125 C51.3195,24.64325 51.038625,25.181875 51.049625,25.15975 L51.049625,25.15975 Z" id="Shape" stroke="#000000" stroke-width="0.1" fill="#9F3000"></path>
                    <path d="M64.035125,26.5215 L64.041125,25.807875 M64.624625,30.270375 L64.726375,32.011375" id="Shape" stroke-opacity="0.772" stroke="#000000" stroke-width="0.1"></path>
                    <path d="M51.037875,25.22075 C51.389125,25.551 51.941,25.3295 52.02875,26.136375 C52.066375,26.588 51.42675,27.491125 52.02875,28.306375 C52.242,28.620125 52.794,28.958625 52.794,28.958625 C53.0825,29.280625 53.17025,29.853375 53.358375,30.30075 C53.755625,30.8945 54.303375,31.024125 54.738125,30.877875 C54.738125,30.877875 56.168125,30.238125 56.168125,30.2255 C56.168125,30.213 55.440625,29.247125 55.440625,29.25975 C55.440625,29.27225 54.62525,29.94975 54.61275,29.94975 C54.524875,29.937125 54.04825,29.98725 53.87275,29.385125 C53.86025,28.615875 53.47975,28.189875 52.86925,27.880125 C52.559875,27.64575 52.313125,27.273875 52.58075,26.751125 C52.735375,26.2745 52.890125,25.471625 52.342375,24.932375 C51.991125,24.69825 51.74025,24.51425 51.364,24.443125 C50.8665,24.631375 50.870625,24.581125 51.037875,25.220875 L51.037875,25.22075 Z" id="Shape" stroke="#000000" stroke-width="0.1" fill="#238700"></path>
                    <path d="M58.109,18.505875 C57.91675,18.85825 57.93425,19.069625 57.96625,19.421875 M57.132875,20.239125 L57.58125,20.239125 C57.700625,20.235875 57.751625,20.190625 57.837625,20.127 C57.895375,20.094375 57.95675,20.045125 58.013875,19.998875 C58.061375,19.964875 58.118375,19.925 58.174,19.902625 C58.264875,19.902625 58.335875,19.909375 58.41425,19.93475 C58.48675,19.965125 58.546375,20.008625 58.6065,20.046875 C58.6665,20.070875 58.720625,20.078875 58.81475,20.078875 C58.9125,20.078875 59.015,20.074375 59.103,20.095 C59.18775,20.100625 59.2825,20.11925 59.343375,20.143 C59.420875,20.191875 59.467625,20.25025 59.519625,20.30325 C59.522625,20.38825 59.5505,20.44025 59.551625,20.527375 C59.551625,20.601875 59.56,20.702875 59.535625,20.75175 C59.535625,20.843875 59.520875,20.909375 59.5035,20.976 C59.44475,21.03125 59.423375,21.074 59.343375,21.088125 C59.280375,21.1375 59.186125,21.136125 59.087125,21.136125 L58.83075,21.136125 C58.775125,21.089875 58.707625,21.0415 58.6385,20.976 C58.601375,20.88975 58.57675,20.86175 58.494375,20.83175 C58.4148097,20.8203662 58.3344972,20.8150176 58.254125,20.81575 C58.175875,20.81575 58.110625,20.82125 58.061875,20.78375 C58.017625,20.741625 57.953875,20.7195 57.885625,20.70375 C57.813125,20.683125 57.7275,20.687625 57.645375,20.687625 L57.51725,20.687625" id="Shape" stroke-opacity="0.772" stroke="#000000" stroke-width="0.1"></path>
                    <path id="Shape" stroke-opacity="0.772" stroke="#000000" stroke-width="0.1"></path>
                    <path d="M58.57425,20.126625 L58.55825,20.126625 C58.608375,20.126625 58.5775,20.122375 58.510125,20.206625 C58.503625,20.298125 58.484,20.348625 58.526125,20.431 C58.578375,20.448375 58.66675,20.487125 58.702375,20.527 C58.753875,20.563875 58.750375,20.597 58.750375,20.68725 C58.719625,20.73725 58.691875,20.777625 58.654375,20.847375 C58.634125,20.89775 58.608,20.965375 58.59025,21.023625 C58.572,21.09675 58.559125,21.166375 58.55825,21.247875 L58.55825,21.408 M64.37375,18.261 C64.39175,18.295125 64.69875,18.908375 65.08025,18.519375 C65.136875,18.453125 65.1565,18.405 65.1565,18.291875 C65.1565,18.233 65.1485,18.164375 65.134,18.11575" id="Shape" stroke-opacity="0.772" stroke="#000000" stroke-width="0.1"></path>
                    <path d="M55.128875,30.59375 C55.313625,30.85125 55.649375,30.71875 55.71675,30.5125 C55.48675,30.5275 55.399,30.39175 55.317875,30.18375 C55.26875,30.302875 55.077125,30.446 55.128875,30.59375 L55.128875,30.59375 Z" id="Shape" stroke="#000000" stroke-width="0.1" fill="#FFFFFF"></path>
                    <path id="Shape" stroke-opacity="0.772" stroke="#000000" stroke-width="0.1"></path>
                    <path d="M66.675375,19.12225 C66.682625,19.170375 66.698,19.345625 66.698,19.462125 C66.6965,19.5855 66.726125,19.68875 66.679625,19.791625 C66.629,19.922875 66.57275,19.97525 66.448875,20.020375 C66.348,20.065875 66.3265,20.02225 66.214125,20.026375 M63.96725,18.502375 C63.96725,18.509875 64.31425,19.3345 64.4285,19.418125" id="Shape" stroke-opacity="0.772" stroke="#000000" stroke-width="0.1"></path>
                    <path d="M55.355,30.44375 C55.539875,30.70125 55.875625,30.56875 55.943,30.3625 C55.713,30.3775 55.625125,30.24175 55.544,30.03375 C55.494875,30.152875 55.303375,30.296 55.355125,30.44375 L55.355,30.44375 Z" id="Shape" stroke="#000000" stroke-width="0.1" fill="#FFFFFF"></path>
                    <path d="M55.7055,30.29375 C55.89025,30.55125 56.226,30.41875 56.293375,30.2125 C56.063375,30.2275 55.9755,30.09175 55.894375,29.88375 C55.84525,30.002875 55.65375,30.146 55.7055,30.29375 L55.7055,30.29375 Z" id="Shape" stroke="#000000" stroke-width="0.1" fill="#FFFFFF"></path>
                    <path d="M61.98675,18.0805 L62.1,18.0805 C62.46,18.01975 63.66925,18.242875 63.879375,18.4655 M62.212875,23.924625 C62.205375,23.917125 62.22975,24.063375 62.22225,24.05575 C62.266875,24.100375 62.2155,23.935 62.19025,23.834 C62.1525,23.744 62.144875,23.6845 62.144875,23.562125 L62.144875,23.4715 M59.952375,29.256625 L59.952375,29.288875 L59.952375,29.256625 L59.952375,29.288875 L59.952375,29.157625 L59.952375,29.81725 C59.968625,29.896875 59.968375,29.985375 59.968375,30.0735 C59.978375,30.14175 60.002125,30.222875 60.0325,30.298125 C60.036875,30.393125 60.063375,30.4555 60.0965,30.538125 C60.103375,30.62025 60.13125,30.6905 60.160625,30.762625 C60.1675,30.84475 60.194125,30.887875 60.208625,30.954625 C60.231875,31.031875 60.259875,31.08175 60.288625,31.130875 C60.309625,31.152125 60.329875,31.259375 60.349125,31.265375" id="Shape" stroke-opacity="0.772" stroke="#000000" stroke-width="0.1"></path>
                    <path d="M58.975,28.312125 L58.975,28.74475 C58.995875,28.850875 58.9995,28.963125 59.023,29.065125 C59.03175,29.156625 59.053875,29.23475 59.071125,29.321375 C59.07875,29.407 59.18125,29.71075 59.21525,29.786 C59.25325,29.85675 59.30925,29.930375 59.3435,29.977875 C59.4075,29.99775 59.45975,30.020375 59.535625,30.025875 L59.759875,30.025875 C59.849875,30.008625 59.88075,29.999125 59.920125,29.929875 C59.94175,29.886875 59.940375,29.85675 59.968125,29.833875 M58.703125,31.22775 C58.703125,31.2015 58.699125,31.122875 58.735125,31.0675 C58.791875,30.98675 58.837375,30.936875 58.911375,30.859125 C58.998875,30.80325 59.2165,30.503875 59.8725,30.33075 C59.948875,30.33075 59.975625,30.315875 60.04875,30.3145 M58.7805,29.774625 C58.78575,29.780125 59.139,29.964625 59.322125,29.9725" id="Shape" stroke-opacity="0.772" stroke="#000000" stroke-width="0.1"></path>
                    <path id="Shape" stroke="#000000" stroke-width="0.1"></path>
                    <path d="M59.63125,30.377 C59.57875,30.342 57.8805,29.85175 57.915375,29.85175 C57.950375,29.85175 57.293875,30.29825 57.293875,30.29825 L58.913375,30.84975 L59.561125,30.377 L59.631125,30.377 L59.63125,30.377 Z" id="Shape" stroke="#000000" stroke-width="0.1" fill="#FFBC00"></path>
                    <path d="M58.009375,29.837875 C58.116625,29.5655 58.08775,29.206625 57.737,28.983625 C56.9365,28.492625 55.591125,28.533875 55.33525,29.107375 C55.05875,29.07025 54.918375,29.29325 54.877125,29.516125 C54.16325,29.709875 54.823625,30.534875 55.000875,30.568125 C55.240875,30.65025 55.306375,30.59 55.347625,30.511625 C55.481125,30.5445 55.66425,30.401625 55.71025,30.30325 C55.879875,30.3345 56.008625,30.331375 56.011875,30.161375 C56.49775,30.616625 57.167375,30.931875 57.241875,30.3455 L58.009375,29.838 L58.009375,29.837875 Z" id="Shape" stroke="#000000" stroke-width="0.1" fill="#F7B200"></path>
                    <path d="M54.878125,29.503875 C54.83275,29.82175 55.046125,30.16425 55.3845,30.494375 M55.32225,29.107875 C55.276875,29.425625 55.367625,29.966125 55.706,30.296375 M55.825,28.766875 C55.51425,29.02775 55.683625,29.83525 56.022,30.1655" id="Shape" stroke="#000000" stroke-width="0.1"></path>
                    <path d="M56.655875,22.165625 C57.373,23.115375 56.37025,24.164625 55.494,24.76925 C54.461,25.58175 53.903125,27.165375 55.724875,27.262625 C56.38275,27.2505 57.097125,27.19225 57.499125,27.707375 C57.901125,28.2225 57.915875,29.174125 56.903375,29.784125 C56.804125,29.6965 56.656625,29.435375 56.54675,29.35575 C56.436875,29.276125 56.364625,29.37825 56.2655,29.290625 C56.2305,28.96375 56.7645,28.477375 56.2595,28.359875 C55.60575,28.47075 53.317625,28.48025 53.34675,26.2975 C53.397,25.811125 53.657,25.265 54.07425,24.7095 C54.491625,24.154 55.6355,23.465125 55.7455,23.1635 C55.9215,22.903 55.599375,22.39625 55.342625,22.326125 C55.132625,21.765875 56.0605,21.167625 56.65575,22.1655 L56.655875,22.165625 Z" id="Shape" stroke="#000100" stroke-width="0.1" fill="#288800"></path>
                    <path d="M55.062125,23.846125 L55.086875,25.121125 M54.394125,24.3535 L55.756,24.551625 M55.39725,23.56125 L56.5485,23.7965" id="Shape" stroke="#000000" stroke-width="0.1"></path>
                    <path d="M54.184375,24.57625 L55.143125,25.144 M53.50125,25.775 L54.249875,26.570375 M54.19375,24.628875 L54.320875,26.50975 M53.677,25.416375 L54.907,25.441375" id="Shape" stroke-opacity="0.642" stroke="#000000" stroke-width="0.1"></path>
                    <path d="M52.39025,28.5945 C52.580625,28.414125 52.7795,28.155125 52.9025,27.90175 M52.774625,28.918 C53.031875,28.75875 53.362125,28.63325 53.689625,28.566625 M53.248,30.0125 C53.471125,29.826625 53.711125,29.6295 53.87525,29.370625 M53.25625,30.05475 C53.64875,30.045125 54.047,30.00475 54.43375,29.9335 M53.957,30.827 C54.249,30.717 54.51575,30.54825 54.732,30.37925 M51.92625,28.199625 C52.1525,28.016875 52.378875,27.808875 52.563125,27.592375 M51.75975,27.61375 C52.005875,27.547625 52.24625,27.422625 52.456,27.306 M51.84525,27.003125 C52.044375,26.926 52.277125,26.89375 52.493,26.881125 M52.0305,26.440625 C52.27125,26.416875 52.4335,26.431625 52.67425,26.506875 M52.0715,26.08325 C52.27075,25.97625 52.49475,25.906625 52.71875,25.935875 M51.971875,25.818375 L52.665625,25.344625 M51.85,25.622625 L52.440875,25.037 M51.6825,25.541875 L52.115375,24.802375 M53.408625,21.17075 L53.40325,22.2245 M54.475,21.33825 C54.319625,21.642 54.102125,22.001 53.8225,22.269125 M53.68875,21.135625 C53.379125,21.110875 53.08675,21.2785 52.8515,21.4765" id="Shape" stroke="#000000" stroke-width="0.1"></path>
                    <path d="M55.33875,21.9395 C55.853125,22.12875 56.536125,22.388875 56.465,23.899625 C56.89075,23.438375 57.086,22.791 56.545,21.975 C56.18125,21.58175 55.649125,21.498875 55.33875,21.9395 L55.33875,21.9395 Z" id="Shape" stroke="#000000" stroke-width="0.1" fill-opacity="0.994" fill="#9D4600"></path>
                    <path d="M55.57075,22.443375 C55.591375,22.150625 56.00075,21.788625 56.216625,21.70875 M55.72775,22.70825 C55.835625,22.334125 56.302,22.037125 56.51775,21.957375 M55.73825,23.237875 C55.9375,23.241 56.691375,22.822875 56.863875,22.574 M55.79925,22.959 C56.041625,22.7905 56.496875,22.409 56.71275,22.32925 M56.464875,23.264875 C56.646375,23.1615 56.708375,23.186875 56.898625,22.991125 M55.33875,21.947625 C55.856,22.11625 56.48875,22.497625 56.447375,23.898875" id="Shape" stroke="#000000" stroke-width="0.1"></path>
                    <path d="M53.616,27.362875 L54.320125,26.509375 M53.703875,27.53875 L54.332625,27.538125 M53.352375,26.685625 L54.232,27.18675" id="Shape" stroke-opacity="0.642" stroke="#000000" stroke-width="0.1"></path>
                    <path d="M54.537125,26.6 C54.36875,26.584375 54.272125,26.552375 54.125625,26.498125 C54.194625,27.631875 54.30775,27.690125 54.486875,28.117625 C55.023,28.457625 55.950625,28.378125 56.34325,28.293375 C56.3855,28.352625 56.617625,28.64075 56.474875,28.724375 C56.321,28.820875 56.258625,29.008 56.253,29.310375 C56.343875,29.412875 56.438625,29.323875 56.531125,29.38975 C56.623625,29.455625 56.732375,29.688625 56.818125,29.88925 C56.818125,29.88925 57.958125,29.10575 57.773125,28.368625 C57.651875,27.676125 57.18375,27.440375 57.18375,27.440375 C56.521875,27.1095 55.5915,27.329 55.252,27.202125 C54.82975,27.108375 54.564125,26.743375 54.537,26.6 L54.537125,26.6 Z" id="Shape" stroke="#000000" stroke-width="0.1" fill="#9D4600"></path>
                    <path d="M56.415625,28.600375 C56.986625,28.33975 57.59025,28.3185 57.754375,28.3425 M54.182,27.08625 C54.306,27.01375 54.488375,26.858875 54.6985,26.862125 M55.232,28.335625 C55.3335,27.734875 55.590875,27.329375 55.7235,27.227875 M55.575375,28.3825 C55.676875,27.78175 55.957625,27.35275 56.090125,27.251375 M55.9575,28.3425 C56.05875,27.742 56.31625,27.352 56.44875,27.250625 M56.246875,28.29575 C56.34825,27.695125 56.68375,27.39875 56.81625,27.29725 M56.437875,28.466875 C56.539375,27.866125 57.0495,27.5325 57.182,27.431 M56.45425,28.559375 C56.802,28.059375 57.3735,27.816375 57.53675,27.781125 M54.8735,28.257 C54.97475,27.656375 55.24,27.328875 55.372625,27.227375 M54.53,28.148125 C54.6315,27.547375 54.9435,27.24325 55.07625,27.141875 M56.3125,29.382 C56.582,29.17 56.76525,29.854875 56.778625,29.937875 C56.792,30.020875 56.842375,30.105375 56.9765,30.182875 M54.320375,27.734375 C54.4295,27.430125 54.671375,27.094875 54.804,26.993375" id="Shape" stroke="#000000" stroke-width="0.1"></path>
                    <path d="M55.798,28.79375 C55.44825,29.349375 55.852,29.84 56.304875,29.64325 C56.252875,29.25925 56.15475,29.015375 56.504875,28.646 C56.256625,28.660625 56.033625,28.57275 55.798,28.79375 L55.798,28.79375 Z" id="Shape" stroke="#000000" stroke-width="0.1" fill="#FFFFFF"></path>
                    <path d="M54.4785,24.708625 L54.644,25.524875 M54.64375,25.458625 L54.345875,26.462375 M56.40275,28.653125 C57.01875,28.533125 57.610875,28.653125 57.764625,28.71475" id="Shape" stroke="#000000" stroke-width="0.1"></path>
                    <path id="Shape" stroke="#000000" stroke-width="0.1"></path>
                    <path d="M56.337125,28.86875 C56.944625,29.007 57.216875,29.315 57.323125,29.445 M56.295,29.00825 C56.84,29.31 56.9625,29.557625 57.028375,29.71225" id="Shape" stroke="#000000" stroke-width="0.1"></path>
                    <path d="M47.27775,31.92925 L47.5705,31.8605 L47.887875,33.21425 L47.59525,33.28275 L47.27775,31.92925 Z M49.71125,36.502375 L50.325875,37.20225 L50.555375,37.008125 L49.9785,36.283125 L49.711375,36.502375 L49.71125,36.502375 Z M68.4695,39.493 L67.70825,40.029375 L67.87675,40.27825 L68.659,39.782 L68.4695,39.493 L68.4695,39.493 Z M72.4855,36.14375 L71.806375,36.781 L72.008,37.004 L72.713375,36.4035 L72.4855,36.14375 L72.4855,36.14375 Z M74.6395,31.6485 L74.392375,32.25825 L74.527375,32.433125 L74.79325,31.852875 L74.6395,31.6485 L74.6395,31.6485 Z" id="Shape" fill="#296526"></path>
                    <path d="M54.521875,28.180875 C54.192,27.638125 54.15025,27.07025 54.133625,26.515 C54.308875,26.5985 54.44675,26.644375 54.546875,26.615125 M53.3735,21.139125 C53.101875,20.46 53.415375,20.092125 53.754125,19.76975" id="Shape" stroke="#000000" stroke-width="0.1"></path>
                    <path id="Shape" fill="#000000"></path>
                    <path d="M52.0575,24.749625 C52.000625,24.749625 51.01675,24.617125 51.01675,24.617125 M51.641375,25.469125 C51.641375,25.431375 50.998125,24.636625 50.998125,24.636625" id="Shape" stroke="#000000" stroke-width="0.1"></path>
                </g>
            </g>
        </g>
    </g>
</svg>