<?xml version="1.0" encoding="UTF-8" standalone="no"?>
<svg width="122px" height="60px" viewBox="0 0 122 60" version="1.1" xmlns="http://www.w3.org/2000/svg" xmlns:xlink="http://www.w3.org/1999/xlink">
    <!-- Generator: Sketch 3.8.2 (29753) - http://www.bohemiancoding.com/sketch -->
    <title>as</title>
    <desc>Created with Sketch.</desc>
    <defs></defs>
    <g id="Page-1" stroke="none" stroke-width="1" fill="none" fill-rule="evenodd">
        <g id="as">
            <g>
                <rect id="Rectangle-8" fill="#000066" x="0" y="0" width="122" height="60"></rect>
                <polygon id="Triangle-1" fill="#BD1021" points="122 0 122 60 -7.10542736e-15 30"></polygon>
                <polygon id="Triangle-1" fill="#FFFFFF" points="122 6 122 54 18 30"></polygon>
                <g id="Clipped" transform="translate(86.000000, 13.000000)" stroke="#000000" stroke-width="0.4">
                    <g id="Group" transform="translate(0.185906, 0.000000)">
                        <g transform="translate(0.250024, 0.494186)" id="Shape">
                            <path d="M15.8949939,23.3651163 C15.8949939,23.3651163 15.3008371,22.8481977 16.0030984,22.0151977 C15.6249649,21.6706512 15.976142,21.0100233 15.976142,21.0100233 C15.976142,21.0100233 15.3277936,20.751564 16.0030984,19.6889651 C15.5169533,19.3443198 15.7329765,18.568843 15.7329765,18.568843 C15.7329765,18.568843 14.1393871,17.9369767 15.6521072,17.3339709 C14.4095091,17.9082151 13.2480591,16.5582965 13.2480591,16.5582965 L11.4384466,16.6158198 C11.1315152,15.0174244 8.74559294,16.405593 10.5193255,11.8202384 C10.0601368,11.7340523 9.54703526,11.5905407 9.0337478,11.9926105 C8.52046034,12.3945814 7.06202493,13.2561453 6.19774626,12.3945814 C5.33346759,11.5330174 6.76476066,10.2980465 6.79190299,10.2693837 C6.81885941,10.2407209 8.70952711,9.20688372 8.97964905,8.51749419 C8.95269263,8.00057558 8.3585359,7.59850581 8.89859387,6.47848256 C9.51979998,5.41568605 13.3278129,4.41051163 15.0576716,4.06586628 C15.8949009,3.66379651 16.2731274,2.88831977 16.2731274,2.88831977 L16.4621942,3.63503488 C16.4621942,3.63503488 20.2976283,2.42872674 20.4866951,1.85438372 C20.6757618,1.2800407 20.5677502,2.37130233 20.5677502,2.37130233 C22.0802844,2.22769186 23.9980015,0.849209302 24.2682164,1.48097674 C25.537585,1.22251744 27.9686825,0.0737325581 27.9686825,0.0737325581 C27.9686825,0.0737325581 28.8058188,0.0450697674 28.2115691,1.0215814 C28.5897027,1.65334884 28.1035575,2.19902907 28.0766011,2.19902907 C28.0496447,2.19902907 28.2386185,2.83099419 27.7524734,3.1755407 C27.9146767,3.72131977 27.4553021,4.15205233 27.4553021,4.15205233 C27.4553021,4.15205233 27.6715112,4.81268023 26.8071395,5.15722674 C26.8881947,5.7316686 26.3209944,5.84661628 26.3209944,5.84661628 C26.3209944,5.84661628 26.4020496,6.44972093 26.023916,6.70818023 C26.023916,7.16777326 25.5916837,7.39747093 25.5916837,7.39747093 C25.5916837,7.39747093 25.8618057,7.56974419 25.4835792,7.85706395 C25.1055386,8.14418605 21.1891423,10.7002151 21.1891423,10.6715523 C21.1891423,10.6428895 24.0521002,11.2171337 24.241167,11.3320814 C24.4302338,11.4470291 26.5910234,12.9692209 26.5910234,12.9692209 L24.4031844,15.8410349 C24.4031844,15.8410349 21.9724587,15.5539128 21.8644471,15.6975233 C21.7564355,15.8411337 22.3775487,15.8985581 22.5126096,16.1282558 C22.6478565,16.3579535 22.8639727,16.9038314 23.296019,16.8463081 C23.7282513,16.7887849 22.4857462,17.6792093 21.6754733,17.7654942 C21.6754733,18.0812791 22.7016764,18.1099419 22.9718913,17.8514826 C23.2421062,17.5930233 22.3237288,18.5981977 22.2156242,18.7418081 C22.1075197,18.8854186 23.431173,18.5407733 23.431173,18.5407733 C23.431173,18.5407733 23.2151498,19.4886221 22.0537927,19.775843 C22.5129815,20.5799826 22.3238217,21.097 22.2967724,21.097 C22.269723,21.097 21.5405053,20.2927616 20.838337,20.4363721 C21.0273108,21.21175 21.594604,21.9296047 21.7567144,22.0446512 C21.9186388,22.1595 20.4871598,22.1306395 20.2980931,21.699907 C20.1090263,21.2691744 19.946916,22.7337442 20.4601105,23.1933372 C19.8659537,23.222 19.3526663,22.8486919 19.3526663,22.8486919 C19.3526663,22.8486919 19.0016751,23.7102558 19.2446547,24.141186 C19.4879131,24.5721163 18.4075183,23.2795233 18.4075183,23.2795233 L16.3547403,24.1987093 L15.8955516,23.3657093 L15.8949939,23.3651163 Z" fill="#9C3900"></path>
                            <path d="M0.0302097837,21.6552326 C0.0783595312,21.6552326 3.01233372,21.6040349 4.35922531,20.7857616 C5.03257814,21.9109244 5.94649382,22.6780988 5.94649382,22.6780988 L6.37946973,21.0413547 C6.37946973,21.0413547 7.43774169,21.0925523 7.53394823,21.348343 C7.38959194,21.6550349 7.34153515,22.0642209 7.34153515,22.0642209 C7.34153515,22.0642209 8.06285183,22.1154186 8.11118748,22.2176163 C8.15915132,22.3199128 7.9187744,23.189186 7.9187744,23.189186 L10.9970119,23.9564593 C10.9970119,23.9564593 11.2374818,22.6779012 11.4780446,22.8312965 C11.7186075,22.9848895 12.7767865,24.5703372 14.2678484,24.6726337 C15.7589104,24.7749302 15.8551169,23.3427791 15.8551169,23.3427791 L16.1916075,23.5473721 C16.1916075,23.5473721 16.8169965,22.1155174 16.913203,22.1155174 C17.0094095,22.1155174 17.1537658,22.3201105 17.971382,22.3201105 C18.2118519,22.6269012 18.3081514,23.3427791 18.3081514,23.3427791 C18.3081514,23.3427791 17.3941428,24.3146453 17.6827624,25.0818198 C17.971382,25.8489942 18.0195318,25.6442035 18.0195318,25.6442035 L24.6571325,27.3320465 C24.6571325,27.3320465 24.9939948,27.8947267 24.4167555,28.2016163 C24.4167555,28.2527151 17.7309121,26.5648721 17.7309121,26.5648721 C17.7309121,26.5648721 17.1055231,27.3320465 16.6245834,27.1786512 C16.1436436,27.0252558 16.48032,27.4855407 16.48032,27.4855407 L23.69516,28.0993198 C23.69516,28.0993198 24.2242495,28.8152965 23.8394233,29.0198895 C23.3584836,29.0709884 16.0474371,28.5085058 16.0474371,28.5085058 C16.0474371,28.5085058 15.6142753,29.4800756 15.1334285,28.6619012 C14.7969379,29.2242849 14.4119259,28.5085058 14.4119259,28.5085058 C14.4119259,28.5085058 13.7867228,29.0198895 13.6904233,28.4571105 C13.1613338,28.8662965 12.8246574,28.2016163 12.8246574,28.2016163 L9.74623393,27.9970233 L9.55382084,28.303814 C9.55382084,28.303814 10.0829103,28.4570116 9.26520122,28.8151977 C8.44758504,29.173186 14.1712701,29.0197907 14.3156264,29.0708895 C14.4598897,29.1222849 13.9308002,29.5824709 13.9308002,29.5824709 C13.9308002,29.5824709 16.8649603,29.787064 17.3939569,29.122186 C17.9230464,28.4570116 17.2015438,29.9914593 17.2015438,29.9914593 C17.2015438,29.9914593 19.5105008,29.8892616 19.5105008,29.7868663 C19.5105008,29.6844709 19.4621651,30.5541395 17.8749896,30.4517442 C18.837055,31.1167209 20.0394044,31.5258081 20.0394044,31.5258081 C20.0394044,31.5258081 18.836962,31.8325988 17.4421066,31.4746105 C17.6824835,32.1394884 18.7408484,32.7531686 18.7408484,32.7531686 C18.7408484,32.7531686 17.9711961,33.4692442 16.2394784,31.7302035 C16.720604,32.6508721 16.3357778,33.0089593 16.287814,32.906564 C16.2394784,32.8042674 15.4219551,31.5258081 13.4980102,31.0654244 C14.7004525,31.8837965 14.1712701,32.2417849 14.1712701,32.2417849 C14.1712701,32.2417849 13.546067,31.0654244 12.5359448,32.2417849 C12.1511186,31.1677209 10.6601496,30.5540407 8.83231826,30.4516453 C8.25507901,29.7357674 7.91858849,29.9402616 6.57169691,29.5310756 C5.80204457,28.6106047 4.69590173,27.5876395 4.69590173,27.5876395 C4.69590173,27.5876395 4.74395852,26.2068837 6.0426074,26.3600814 C6.18687074,26.8204651 6.18687074,26.6670698 6.18687074,26.6670698 C6.18687074,26.6670698 7.62987591,26.1044884 8.06266592,26.8716628 C8.68805492,25.6953023 9.55382084,26.6957326 9.69817713,27.1049186 C10.1125624,27.1695581 12.1992684,27.2296512 12.1992684,27.2296512 C12.1992684,27.2296512 11.9587055,26.7693663 12.1030618,26.8204651 C12.2473252,26.8716628 13.4016178,26.3602791 13.3536539,26.2068837 C13.3055971,26.0533895 13.2575403,25.5420058 13.4498605,25.5931047 C13.6422735,25.6442035 11.8145351,25.337314 10.8044129,26.1557849 C10.4677365,25.7976977 10.7082064,24.8259302 10.7082064,24.8259302 L7.72626836,24.1611512 L7.58181912,24.9795233 C7.58181912,24.9795233 6.7160532,25.1327209 6.76420294,24.9283256 C6.81225974,24.7237326 6.57178986,25.6442035 6.57178986,25.6442035 C6.57178986,25.6442035 5.41731136,25.3374128 5.41731136,25.2864128 C5.41731136,25.2354128 5.75408073,23.4450756 5.75408073,23.4962733 C5.75408073,23.5474709 4.79201531,23.5985698 3.44530963,24.6726337 C3.06048347,23.3940756 0.0302097837,21.7063314 0.0302097837,21.6551337 L0.0302097837,21.6552326 Z" fill="#FFC221"></path>
                            <path d="M7.3414422,22.1161105 L6.71614615,25.0825116 M7.91849554,23.2411744 L7.72608246,24.2127442 M10.9970119,24.0083488 L10.7083923,24.9289186 M16.3363356,30.2471512 C16.2882788,30.2471512 14.7972168,30.4517442 14.6046178,30.4007442 C14.4123906,30.3496453 16.9616316,31.2191163 16.9616316,31.576907 M13.6427383,30.6065233 C13.6427383,30.6065233 12.1517693,29.5837558 11.9112065,29.6859535 C11.6707366,29.78825 13.4021755,29.6348547 13.5466247,29.4813605 M10.564129,29.4299651 C10.564129,29.4299651 9.0250102,29.481064 8.88074686,29.3276686 C8.73648353,29.1742733 10.3717159,30.4528314 10.6603355,30.3506337 M7.58191207,28.713 C7.53376233,28.713 6.52364011,28.303814 6.09094306,28.2014186 C6.47558332,28.6106047 6.76420294,29.1732849 7.72617541,29.3777791 M7.96673824,28.048814 C7.91858849,27.9465174 6.04279331,27.3327384 6.04279331,27.0258488 C6.47558332,27.179343 7.10087936,27.3838372 7.67802566,27.2304419 M17.9234182,25.6956977 L17.7310051,26.6162674"></path>
                            <path d="M3.78207901,17.4615698 C3.78207901,17.4615698 1.76183458,19.3027093 3.78207901,20.3766744 C3.8781926,19.6606977 4.02254889,19.5585 4.02254889,19.5585 C4.02254889,19.5585 5.70593098,20.2232791 6.7160532,18.6378314 C6.28317024,17.9731512 5.5135179,18.228843 5.5135179,18.228843 C5.5135179,18.228843 3.92624939,18.228843 3.78198605,17.4618663 L3.78207901,17.4615698 Z" fill="#FFC221"></path>
                            <path d="M5.46564701,18.2803372 L4.07079159,19.5588953 M9.7615712,27.1604651 C9.7615712,27.1604651 10.0831892,27.5374302 9.79447663,27.9976163 M16.5289346,27.5378256 L15.9998451,27.6083106 M12.1998261,27.2301453 L13.1618915,27.3835407 M14.7872708,24.6000872 C14.7872708,24.6000872 14.8142272,25.6339244 14.0039544,25.6052616 C13.1936815,25.5765988 13.4637105,25.6339244 13.4637105,25.6339244"></path>
                            <path d="M15.4092205,24.4274186 C15.4092205,24.4274186 15.7333483,24.5422674 15.6523861,24.8008256 C15.5713309,25.059186 15.7332553,25.806 14.7881074,26.5239535 C13.7885818,26.7536512 13.8966864,25.6337267 13.8966864,25.6337267"></path>
                            <path d="M15.7602118,24.7435 C15.7602118,24.7435 16.3543685,24.3701919 16.4354237,24.9732965 C16.5162929,25.5764012 15.9492785,26.6965233 15.5440027,26.8689942 C15.1389127,27.0411686 14.6798169,26.8401337 14.7337298,26.5530116 M16.4895224,25.0024535 C16.4895224,25.0024535 17.0298592,24.5428605 17.1917837,25.1459651 C17.353987,25.7491686 16.7597373,27.0989884 16.5165718,27.1276512 M17.2450459,25.166708 C17.2450459,25.166708 17.5152608,24.9697565 17.7042346,25.206017 M16.3808601,27.2134419 C16.2728485,27.2421047 15.8136598,27.2707674 15.6516424,26.8975581 M13.9505992,26.2081686 C13.9236428,26.2081686 13.3833989,26.2477487 13.3833989,26.2477487 M16.0299619,28.4776686 L15.976049,27.5298198 L15.7599329,27.2140349 L15.3817994,27.6161047 C15.3817994,27.6161047 15.3276077,28.5639535 15.1655903,28.6499419 M15.3818923,27.5864535 C15.35475,27.5291279 15.084628,26.9835465 15.084628,26.9835465 L14.6254393,27.5864535 C14.6254393,27.5864535 14.5715265,28.448314 14.4094161,28.5345 M14.6248816,27.5572965 C14.6248816,27.5286337 14.4358148,26.9830523 14.4358148,26.9830523 C14.4358148,26.9830523 13.8957569,27.298936 13.8416581,27.5286337 C13.7877453,27.7584302 13.7606029,28.3901977 13.625542,28.4478198 M13.841844,27.4138837 C13.841844,27.4138837 13.8959428,26.8969651 13.7338324,26.8969651 C13.571908,26.8969651 12.8424114,27.6150174 12.815455,28.2467849"></path>
                            <path d="M3.84844758,17.4768895 C3.84844758,17.4768895 4.11847657,17.1896686 4.19953174,16.8451221 C4.28040101,16.5004767 4.09142719,16.1270698 4.41555493,15.8112849 C4.73968267,15.4952035 9.00716319,13.5710407 9.35843326,13.1976337 C9.70951742,12.8242267 10.3576799,12.0200872 10.4388281,11.8477151 C10.5196973,11.6754419 10.7629558,12.7092791 10.0335522,13.1688721 C10.8169616,12.9389767 11.3302491,12.6806163 11.6541909,12.7952674 C11.3300632,13.2835233 10.4657845,14.0878605 10.0606016,14.0878605 C11.0059354,13.7144535 11.8704,13.3984709 12.1133796,13.5996047 C12.3564522,13.8006395 10.9519296,14.805814 10.3847293,14.8632384 C11.3300632,14.6047791 12.5998036,14.2027093 12.7617281,14.6334419 C12.2486265,14.805814 12.410365,14.9492267 11.3572055,15.5812907 C11.2221445,15.6962384 10.5469326,15.7248023 10.5469326,15.7248023 C11.3572055,15.6386163 12.4645567,15.2938721 12.5725683,15.9258372 C11.9244058,16.1842965 11.6813332,16.5289419 11.1410894,16.6725523 C10.6010314,16.8161628 9.35843326,17.0745233 8.60207323,17.3905058 C7.84580615,17.7063895 6.73836196,18.6254767 6.73836196,18.6254767 C6.73836196,18.6254767 4.33459271,18.7114651 4.33459271,18.6828023 C4.33459271,18.6541395 3.875404,17.5052558 3.84844758,17.4764942 L3.84844758,17.4768895 Z" fill="#FFFFFF"></path>
                            <path d="M4.98275524,17.2764477 C4.98275524,17.2764477 5.00971166,16.7022035 5.25287718,16.5010698 C5.4960427,16.3000349 6.71159144,15.8116802 6.98180634,15.3809477 C7.25174238,14.9500174 6.57653047,16.127564 6.68454207,16.4434477 M5.46899333,16.4145872 C5.46899333,16.4145872 6.06324301,16.6444826 5.92818204,17.1326395"></path>
                            <path d="M6.17116165,16.7451977 C6.17117826,16.9145146 6.08624166,17.0709792 5.94834666,17.155653 C5.81045165,17.2403267 5.64054776,17.2403456 5.50263615,17.1557024 C5.36472454,17.0710592 5.27975725,16.9146134 5.27974065,16.7452965 C5.27971501,16.483528 5.47926639,16.2713006 5.72545115,16.2712733 C5.97163592,16.271246 6.17122892,16.4834292 6.17125461,16.7451977 L6.17116165,16.7451977 Z"></path>
                            <path d="M24.457469,15.7253953 L29.1302254,16.6732442 C29.1302254,16.6732442 29.643327,16.0412791 29.373298,15.6967326 C30.0756522,15.5244593 29.8865855,14.5479477 29.8865855,14.5479477 C29.8865855,14.5479477 30.6968583,14.1747384 30.0215535,13.3129767 C30.4809281,12.8247209 29.9135419,12.4514128 29.9135419,12.4514128 C29.9135419,12.4514128 30.1026086,11.5898488 29.508266,11.503564 C29.6704693,10.8144709 28.4820629,10.5846744 28.4820629,10.5846744 C28.4820629,10.5846744 26.0241019,11.3027267 24.2954516,11.36025 C24.862652,11.9633547 24.0793355,12.3367616 24.0793355,12.3367616 C24.0793355,12.3367616 24.5385242,12.6813081 24.4034632,12.9685291 C24.2684023,13.2556512 24.4845184,13.571436 23.8903617,13.7726686 C24.6735852,14.1460756 23.8092136,14.777843 23.8092136,14.777843 C23.8092136,14.777843 24.6736781,15.4096105 24.4576549,15.7254942 L24.457469,15.7253953 Z" fill="#FFFFFF"></path>
                            <path d="M23.9977226,14.663093 C23.9977226,14.663093 28.130421,15.1800116 28.3194878,15.1800116 C28.5085546,15.1800116 29.2378652,15.4385698 29.3729262,15.6969302 M24.2138388,14.4040407 L29.96699,14.5476512 M24.2412599,14.2607267 C24.2412599,14.2607267 29.6974257,13.9160814 30.0755593,13.3128779 M24.4024408,12.997093 C24.4024408,12.997093 29.885563,12.3651279 29.9396617,12.451314 M24.2138388,12.2789419 C24.2138388,12.2789419 29.5348506,11.3887151 29.5888564,11.5322267 M9.03439847,8.63165116 C9.03439847,8.63165116 10.709043,10.5846744 10.5469326,11.9057326"></path>
                            <path d="M10.438921,10.8717965 C10.438921,10.8717965 10.978979,11.7045988 11.1951881,11.7907849 C11.4113972,11.8769709 13.3019719,11.9918198 13.4099835,12.8534826 C13.5179951,13.399064 13.0048936,13.2267907 13.0859487,13.6288605 C13.2210097,14.1457791 14.4904713,14.8063081 15.8680374,14.0309302 M14.5987618,14.4331977 C14.5987618,14.4331977 15.7330694,16.2139477 17.4078069,14.2898837 M16.5432493,15.0654593 C16.5432493,15.0654593 17.9208155,15.8408372 19.0551231,13.8304884 M17.5960371,15.2367442 C17.5960371,15.2367442 18.271249,15.8398488 19.6759574,15.0358081 M21.6211886,14.2315698 C21.6211886,14.2315698 23.7010161,14.6908663 23.836077,14.8344767 M22.4042262,13.7441047 C22.4311827,13.7441047 23.8628475,13.8229937 23.8628475,13.8229937 M21.5125264,12.8821453 C21.5125264,12.8821453 23.9974437,12.7098721 24.3215715,13.2555523 M20.4322245,12.0492442 C20.4322245,12.0492442 23.9166674,12.1928547 24.0785919,12.3938895 M21.2152621,15.8650203 C21.2152621,15.8650203 21.8095118,15.6530805 21.890567,15.7592328 M19.8653031,17.3906047 C19.8653031,17.3906047 20.6485266,18.108657 21.6481451,17.7926744 M20.2972565,18.5978023 C20.2972565,18.5978023 21.1886775,19.0285349 22.2421159,18.7699767 M20.5947067,19.3147674 C20.5947067,19.3147674 21.4859418,19.9466337 22.0800985,19.831686 M20.1899885,19.6893605 C20.1899885,19.6893605 20.8111946,20.1776163 20.838151,20.4360756 M19.3258958,20.2630116 C19.3258958,20.2630116 19.5148696,21.2968488 20.1901744,21.670157 M18.8661493,20.722407 C18.8661493,20.722407 18.569071,22.0723256 19.325338,22.9051279 M18.095592,21.7847093 C18.095592,21.8133721 18.0221787,22.4165756 18.0588854,22.4740988 M13.2211956,16.558 L14.6798169,16.471814 C14.6798169,16.471814 15.2198749,16.2421163 14.8417414,15.868907 M15.0308081,16.2142442 C15.0579505,16.2142442 16.4083743,16.3288953 16.7595514,16.7598256 C17.1107285,17.1905581 17.5429608,18.0521221 17.7859404,18.1959302 C18.0291059,18.3392442 18.0831117,18.1383081 18.0831117,18.1383081 M17.4886761,17.9085116 C17.4886761,17.9085116 16.7594584,19.2297674 17.3266587,19.6318372 M17.0827496,19.3732791 C17.0827496,19.3732791 16.4345871,20.2924651 16.9476886,20.7518605 M16.8129995,20.6362209 C16.8129995,20.6362209 16.2998979,21.5265465 16.921104,22.1296512 M16.5865655,18.2747035 C16.5516151,18.3117674 15.9591316,18.756436 15.7499869,18.645343 M15.9591316,19.6824419 C15.9591316,19.6824419 16.2031337,19.9417907 16.4122783,19.9048256 M15.987947,21.030186 L16.3774209,21.3140465 M16.0403726,22.0618488 L16.377235,22.277907 M9.93976245,7.97616279 C9.93976245,7.97616279 10.6499247,8.36894186 11.2178687,7.97616279 C11.7859985,7.58377907 14.5126871,6.10388953 15.2227565,5.86223256 C15.9327329,5.62057558 16.3304795,4.2314186 16.472512,3.62752326 M15.9331047,5.25813953 L19.9096417,4.02000581 C19.9096417,4.02000581 20.5628237,3.44615698 20.5911744,2.38919186 M20.3065518,3.5367907 C20.3065518,3.5367907 24.282903,3.11396512 24.282903,1.5435407 M23.6587224,2.63065116 C23.6587224,2.63065116 27.8339004,1.42256395 28.23174,0.969593023"></path>
                            <path d="M12.0126184,8.9427907 C12.0126184,8.9427907 14.5404801,7.55343605 14.9381338,7.40251163 C15.3356946,7.25148837 16.2445908,6.0435 14.8814324,6.0435"></path>
                            <path d="M13.234302,9.48639535 C13.2627457,9.48639535 15.3076227,8.06679651 15.9894343,7.88562791 C16.3586443,7.34202326 16.1598175,6.76827326 15.5348932,6.88905233"></path>
                            <path d="M16.1595386,7.5232907 C16.216426,7.49304651 17.2673546,7.46280233 16.8980516,8.33869767 C16.3587373,8.76152326 14.0295165,9.99975581 14.0295165,9.99975581 M15.6200384,6.58700581 L20.0511165,5.01648256 C20.0511165,5.01648256 20.4204195,4.20107558 19.8808262,4.08029651 M23.5735772,2.66069767 C23.5735772,2.6910407 24.1417071,3.02323256 23.8008478,3.56683721 C23.1760165,3.95951744 20.2221503,4.71453488 20.2221503,4.71453488 M28.060985,2.17768023 L23.885714,3.41581395 M27.7480116,3.17435465 L24.1126127,4.35219767 M27.4364326,4.14078488 L24.2267592,5.16770349 M26.8393013,5.10711628 C26.7540633,5.10711628 24.4534721,5.86223256 24.4534721,5.86223256 M26.3286166,5.86223256 L24.8515905,6.49647093 M25.9593136,6.70778488 C25.9026121,6.70778488 24.6812073,7.28153488 24.6812073,7.28153488 M25.5900106,7.40241279 L24.4541227,7.97616279 M23.6299069,8.70113372 C23.6299069,8.70113372 23.7830985,8.76142442 23.7524201,8.9427907 M20.760907,10.362093 C20.760907,10.362093 21.2437987,10.5433605 20.7893506,11.0265756 C20.5621731,11.3586686 19.9088981,11.2682326 19.5112444,11.8722267 M23.8577351,3.59718023 C23.8577351,3.59718023 24.4543086,3.74820349 23.9997676,4.56361047 C22.8068065,5.04692442 20.3925335,5.83198837 20.3925335,5.83198837 C20.3925335,5.83198837 20.2791306,6.0435 19.966622,6.2246686 C19.6542993,6.40573837 16.2174484,7.4324593 16.2174484,7.4324593 M24.0567479,4.53336628 C24.0567479,4.53336628 24.7100228,4.83541279 24.0567479,5.34877326 C23.3182349,5.80184302 20.7336717,6.64749419 20.7336717,6.64749419 C20.7336717,6.64749419 20.705135,6.88905233 20.5916392,6.97958721 C20.4779575,7.07022093 17.0696432,8.27830814 17.0696432,8.27830814"></path>
                            <path d="M24.2269452,5.34867442 C24.2269452,5.34867442 24.9086638,5.56018605 24.3121832,6.1640814 C23.6020209,6.61715116 21.3298734,7.43255814 21.3298734,7.43255814 C21.3298734,7.43255814 21.1026028,7.73460465 20.7332999,7.85538372 C20.3640898,7.97616279 18.0067042,9.00288372 18.0067042,9.00288372 M24.3972354,6.16418023 C24.5961552,6.25481395 25.1357484,6.34544767 24.4824734,6.88905233 C23.7156097,7.25148837 21.8410229,8.03675 21.8410229,8.03675 L21.6705468,8.36884302 L18.6883299,9.72785465 M24.5675256,6.97968605 C24.5675256,6.97968605 24.8514046,7.34212209 24.2265733,7.76494767 C23.5448547,8.15752907 22.0680146,8.76152326 22.0680146,8.76152326 M24.2269452,7.82523837 C24.2269452,7.82523837 24.5392678,8.03675 24.141893,8.33869767 C23.6873519,8.58025581 21.8980032,9.57693023 21.8980032,9.57693023 L20.7334858,10.3923372"></path>
                            <path d="M20.1364475,5.04662791 C20.1364475,5.07697093 20.6192463,5.49969767 20.4487702,5.98291279 C20.8748676,6.31520349 20.7896295,6.6775407 20.7896295,6.6775407 C20.7896295,6.6775407 21.3860171,7.04007558 21.300872,7.55353488 C21.8973525,7.70455814 21.8688159,8.06689535 21.8688159,8.06689535 L21.670082,8.39898837 C21.670082,8.39898837 22.2663767,8.36894186 21.7552271,9.18434884 C22.0675498,9.36551744 21.9257033,9.57693023 21.9257033,9.57693023 M21.7547624,9.21459302 C21.6695243,9.21459302 19.6814417,9.99975581 19.1701062,10.4829709"></path>
                            <path d="M16.9555897,8.27830814 C16.9555897,8.27830814 17.5521632,8.24806395 17.4670181,8.94269186 C18.1487367,8.70103488 18.0066113,9.39566279 18.0066113,9.39566279 C18.0066113,9.39566279 18.8018257,9.06337209 18.6598862,10.120436 C19.1711287,9.99965698 19.0858906,10.5432616 19.0858906,10.5432616 C19.0858906,10.5432616 19.5404317,10.5130174 19.5404317,10.7848198 C19.8527544,10.4828721 20.1937066,10.6338953 20.1937066,10.6338953 C20.1937066,10.6338953 20.4208842,10.3018023 20.7332999,10.3923372 M17.4951829,8.91254651 C17.4951829,8.97283721 14.8252887,10.5433605 14.8252887,10.5433605 M18.0059606,9.42580814 L15.9892484,10.7546744 M18.688051,10.0902907 C18.688051,10.120436 16.927053,11.2077442 16.927053,11.2077442 M19.0860766,10.5131163 C19.0860766,10.5131163 17.836414,11.6003256 17.5523491,11.5400349 M19.5118021,10.845407 C19.5118021,10.845407 18.8016398,11.419157 18.2051593,11.6909593 M20.2502222,10.60375 C20.2502222,10.60375 20.4773998,10.9057965 19.057354,11.6909593"></path>
                        </g>
                    </g>
                </g>
            </g>
        </g>
    </g>
</svg>