<?xml version="1.0" encoding="UTF-8" standalone="no"?>
<svg width="122px" height="60px" viewBox="0 0 122 60" version="1.1" xmlns="http://www.w3.org/2000/svg" xmlns:xlink="http://www.w3.org/1999/xlink">
    <!-- Generator: Sketch 3.8.2 (29753) - http://www.bohemiancoding.com/sketch -->
    <title>sx</title>
    <desc>Created with Sketch.</desc>
    <defs></defs>
    <g id="Page-1" stroke="none" stroke-width="1" fill="none" fill-rule="evenodd">
        <g id="sx">
            <g>
                <rect id="Rectangle-54" fill="#ED2939" x="0" y="0" width="122" height="30"></rect>
                <rect id="Rectangle-54" fill="#002395" x="0" y="30" width="122" height="30"></rect>
                <polygon id="Rectangle-56" fill="#FFFFFF" points="0 0 45 30 0 60"></polygon>
                <g id="Group-2" transform="translate(2.000000, 18.000000)">
                    <path d="M18.2677565,4.7113384 L18.2799888,4.24539666 C18.2799888,4.24539666 18.029697,3.84682424 18.3202143,3.41850586 C18.3202143,3.41850586 17.7029532,3.09212325 17.8466828,2.58103349 C17.8466828,2.58103349 17.2884662,2.43841745 17.329515,1.82480405 C17.329515,1.82480405 16.7270739,1.78306564 16.6647362,1.27032985 C16.6647362,1.27032985 16.0621774,1.36956145 15.7970657,0.869993832 C15.7970657,0.869993832 15.2094445,0.984862639 15.0436027,0.573004472 C15.0436027,0.573004472 14.4723304,0.770879806 14.1332367,0.286714253 C14.1332367,0.286714253 13.5300899,0.530443051 13.2772105,0.0735544305 C13.027742,0.528797029 12.4244775,0.286714253 12.4244775,0.286714253 C12.0895005,0.769116211 11.5141116,0.568889417 11.5141116,0.568889417 C11.3541507,0.982393606 10.7680585,0.865055767 10.7680585,0.865055767 C10.5037701,1.36474095 9.9020347,1.26539178 9.9020347,1.26539178 C9.84299029,1.77648155 9.2413725,1.81821996 9.2413725,1.81821996 C9.28889031,2.43336182 8.73161463,2.57303852 8.73161463,2.57303852 C8.87863755,3.08401072 8.26208223,3.40957031 8.26208223,3.40957031 C8.56000948,3.84024016 8.31218764,4.23563811 8.31218764,4.23563811 L8.29819106,4.66536737 L18.2692855,4.71145598" id="Shape" fill="#FFFF00"></path>
                    <path d="M18.2677198,4.71138202 L18.27999,4.24541515 C18.27999,4.24541515 18.0297313,3.84682347 18.3203065,3.4185867 C18.3203065,3.4185867 17.7030197,3.09222124 17.8466218,2.58111298 C17.8466218,2.58111298 17.2883939,2.43841231 17.3295194,1.82475899 C17.3295194,1.82475899 16.7270647,1.78298637 16.6647697,1.27039585 C16.6647697,1.27039585 16.0621802,1.36957215 15.7970893,0.870052419 C15.7970893,0.870052419 15.2094668,0.984859758 15.0436165,0.573062541 C15.0436165,0.573062541 14.4723093,0.770876126 14.1333274,0.286717944 C14.1333274,0.286717944 13.5300637,0.530346665 13.2771083,0.0735428143 C13.0276586,0.52886441 12.4243949,0.286717944 12.4243949,0.286717944 C12.0894582,0.769124371 11.5142407,0.568885279 11.5142407,0.568885279 C11.3540536,0.982299501 10.7680491,0.865066654 10.7680491,0.865066654 C10.5037673,1.36472113 9.90212164,1.26527534 9.90212164,1.26527534 C9.84292791,1.77651835 9.2414171,1.81815622 9.2414171,1.81815622 C9.28887996,2.43342654 8.73173074,2.5728932 8.73173074,2.5728932 C8.87856896,3.08400146 8.26209117,3.40955843 8.26209117,3.40955843 C8.5600824,3.8402207 8.31225078,4.23557837 8.31225078,4.23557837 L8.29822766,4.66543214 L18.2693378,4.71138202 L18.2677198,4.71138202 L18.2677198,4.71138202 Z" id="Shape" stroke="#000000" stroke-width="0.2"></path>
                    <path d="M18.0358131,4.12923455 C16.4696074,3.97262734 14.666283,3.60097913 13.27427,4.38436793 C12.3409685,3.8348318 11.0416388,3.86845767 9.93532069,3.97591938 C9.33452622,4.08338109 8.62775764,4.08338109 7.99979334,4.18590473 L7.90134679,4.19977835 C6.76209559,4.27537778 5.72870088,3.93900146 4.73870735,3.49680947 C5.05310116,5.28015651 5.40195715,7.10771099 5.57344468,8.97476999 C5.94700052,11.7398515 4.2643526,14.0613301 4.95453699,16.7927856 C5.36667165,18.1034893 6.80879007,18.8655974 8.12870304,19.0165611 C9.40662626,19.0919254 10.7290092,19.3012053 11.9117792,19.5578671 C12.1366655,19.6046612 12.4034239,19.7089484 12.5586801,19.7760826 C12.8844829,19.9122321 13.1232481,20.1124589 13.3326087,20.3265593 C14.0466696,19.5832629 15.0932376,19.3765696 16.125809,19.2674618 C17.986531,19.0500694 20.2806767,19.1683478 21.4198103,17.4835269 L21.4198103,17.3882928 C22.0388356,16.4565269 21.956738,15.0350695 21.688333,13.9792641 C21.6702197,13.6109079 21.5717732,13.2861714 21.5183745,12.935216 C20.3815932,9.93451827 21.3550026,6.55993845 21.8441772,3.53549098 C21.2466761,3.86199116 20.5802506,4.01612934 19.9153541,4.17943822 C19.3851307,4.24998201 18.7942162,4.21800216 18.2574061,4.18919678 L18.0351074,4.12935213" id="Shape" fill="#FF0000"></path>
                    <path d="M20.3738304,12.741103 C20.3665381,12.9387432 20.4732179,13.093822 20.5117967,13.2767655 C20.7293907,14.5882922 20.939457,16.3256682 19.5883752,17.1395084 C18.0936814,18.089263 16.1335718,17.6824604 14.4041118,18.1852025 C14.0585491,18.2812596 13.5825477,18.5987067 13.3395482,18.8233887 C13.1835863,18.720865 13.026801,18.5634348 12.8256737,18.4706697 C11.4024918,17.7144403 9.55235538,17.9678101 7.94604176,17.5593615 C7.13917997,17.3042281 6.29797363,16.6760357 6.09355296,15.8506733 C5.56826947,13.6853316 6.82655044,11.8395534 6.67799848,9.69137734 C6.5819043,8.05088148 6.3060893,6.47599134 5.92688778,4.93790155 C7.18269876,5.52270958 8.63634378,5.62041273 10.0482343,5.34000116 C11.0938613,5.19385794 12.3112111,5.19068347 13.2912071,5.63275789 C13.8313105,5.40055124 14.4632738,5.29638158 15.0453669,5.23242188 C16.1518026,5.33988358 17.3410416,5.5399928 18.4804104,5.53188027 C19.2414011,5.49237575 19.9325264,5.27251426 20.5940119,4.97975753 C20.2016372,7.52168547 19.4481741,10.1844784 20.3732423,12.7412206" id="Shape" fill="#80CFE1"></path>
                    <polyline id="Shape" fill="#FFFFFF" points="18.1153231 13.2478426 18.1030908 10.8575838 18.3977248 10.8575838 14.741794 8.49742367 14.7352074 7.27113744 15.0880624 7.27113744 13.2601558 5.96290283 11.4411882 7.270432 11.7933375 7.270432 11.7999242 8.49589523 8.1637533 10.8526457 8.45427059 10.8541742 8.46662052 13.2429045 18.1143822 13.2494886"></polyline>
                    <polygon id="Shape" stroke="#000000" stroke-width="0.2" points="18.1153532 13.2478198 18.103083 10.8574824 18.3977033 10.8574824 14.7418498 8.49759872 14.7352428 7.27137009 15.0882478 7.27137009 13.2602536 5.96294372 11.4412935 7.27056159 11.7933547 7.27056159 11.8000966 8.49598171 8.16379452 10.8527662 8.45436968 10.8542484 8.4666399 13.2429687 18.1144094 13.2497063 18.1152184 13.2478198"></polygon>
                    <polyline id="Shape" fill="#FFFFFF" points="19.239872 16.3875116 19.2406954 17.1355109 7.46310087 17.1223427 7.4581609 16.3775179 19.240813 16.3875116"></polyline>
                    <polygon id="Shape" stroke="#000000" stroke-width="0.2" points="19.2398993 16.387504 19.2407084 17.1355035 7.46304319 17.1224327 7.45818904 16.3775325 19.2408432 16.387504 19.2400342 16.387504"></polygon>
                    <polyline id="Shape" fill="#FFFFFF" points="8.24526281 16.343069 8.23538287 13.8117226 8.71220761 13.8106644 8.68597872 16.3716392 8.71467759 13.8312397 8.02778651 13.811605 8.02778651 13.2684178 18.5536867 13.2801751 18.5586266 13.8181891 17.9093734 13.8181891 17.9216057 16.3815153 17.8986702 13.8181891 18.3820815 13.8181891 18.3927848 16.35271"></polyline>
                    <polyline id="Shape" stroke="#000000" stroke-width="0.2" points="8.24523646 16.3430364 8.23539331 13.8116154 8.71217928 13.8106722 8.68602078 16.3716035 8.7147412 13.831289 8.02774332 13.8116154 8.02774332 13.2685713 18.5537105 13.2800251 18.5585646 13.8182182 17.9093213 13.8182182 17.9215915 16.381575 17.8986691 13.8182182 18.3820621 13.8182182 18.3928491 16.3527384"></polyline>
                    <polyline id="Shape" stroke="#000000" stroke-width="0.2" points="10.5078124 15.7191421 10.5003963 13.9539118 9.08702798 13.9539118 9.09525308 15.7173903 10.5078124 15.7191421"></polyline>
                    <path d="M9.47225918,14.3217804 L9.47630431,15.347231 L10.1231206,15.347231 L10.1198845,14.3217804 L9.47225918,14.3217804 M17.4168942,15.7245321 L17.4088039,13.9610536 L16.0001549,13.9594366 L16.0067619,15.7245321 L17.4168942,15.7245321" id="Shape" stroke="#000000" stroke-width="0.2"></path>
                    <path d="M16.3813409,14.328518 L16.388757,15.3505997 L17.0346294,15.3505997 L17.0289662,14.328518 L16.3813409,14.328518 L16.3813409,14.328518 Z M17.4061071,12.8503061 L17.3980169,11.0849411 L15.9876149,11.0849411 L15.9926039,12.8503061 L17.4067813,12.8503061 L17.4059723,12.8503061 L17.4061071,12.8503061 Z" id="Shape" stroke="#000000" stroke-width="0.2"></path>
                    <path d="M16.3705539,11.4556395 L16.374599,12.4793382 L17.0206063,12.4793382 L17.0197972,11.4556395 L16.3705539,11.4556395 L16.3705539,11.4556395 Z M10.495677,12.8435686 L10.4858339,11.0815724 L9.07489259,11.0798206 L9.08149964,12.8426253 L10.495677,12.8426253 L10.495677,12.8435686 L10.495677,12.8435686 Z" id="Shape" stroke="#000000" stroke-width="0.2"></path>
                    <path d="M9.46012379,11.4489019 L9.46335989,12.4709837 L10.1109852,12.4726007 L10.106131,11.4489019 L9.46012379,11.4489019 M13.0535474,12.8462636 L13.0469404,11.0842674 L11.6351901,11.0826504 L11.6409881,12.8461288 L13.0535474,12.8461288" id="Shape" stroke="#000000" stroke-width="0.2"></path>
                    <path d="M12.0193426,11.4515969 L12.0225787,12.4736787 L12.669395,12.4769127 L12.6653498,11.4515969 L12.0193426,11.4515969 M15.0248741,12.8503061 L15.0150309,11.0849411 L13.6040896,11.0833241 L13.6106967,12.8468026 L15.0248741,12.8501713" id="Shape" stroke="#000000" stroke-width="0.2"></path>
                    <polyline id="Shape" stroke="#000000" stroke-width="0.2" points="13.9893208 11.4529445 13.994175 12.478395 14.6409912 12.478395 14.6377551 11.4529445 13.9893208 11.4529445"></polyline>
                    <polyline id="Shape" fill="#FFFFFF" points="15.375404 12.308552 15.3910472 16.3779882 11.3009872 16.3714041 11.2862849 12.3053775 15.3746983 12.308552"></polyline>
                    <path d="M15.375452,12.3086095 L15.3910931,16.3779368 L11.3010624,16.371334 L11.2862302,12.3053755 L15.3746429,12.3086095 L15.375452,12.3086095 L15.375452,12.3086095 Z M11.2615549,13.4701579 L15.3794971,13.4733919 L11.2615549,13.4701579 Z M11.7752864,16.376724 L11.7613981,13.500881 L11.7752864,16.376724 Z M14.8927331,16.3780715 L14.8788449,13.5039803 L14.8927331,16.3780715 Z M16.8681049,10.5757194 L14.5649428,8.89484289 L11.9770036,8.89160888 L9.69190973,10.5691166 L16.8682397,10.5755846 L16.8681049,10.5757194 Z M12.1757543,7.49936777 L12.1797994,8.5248183 L14.3566186,8.52630055 L14.3525735,7.50098477 L12.1757543,7.49936777 L12.1757543,7.49936777 Z" id="Shape" stroke="#000000" stroke-width="0.2"></path>
                    <path d="M12.7663432,7.75404602 L12.7695793,8.26501953 L13.7694006,8.26501953 L13.7660296,7.75404602 L12.7663432,7.75404602 M13.2611974,6.33242932 L14.4719048,7.18782484 L12.0595242,7.18472559 L13.2611974,6.33242932" id="Shape" stroke="#000000" stroke-width="0.2"></path>
                    <path d="M18.1557838,5.75303505 C18.4996999,5.74480494 18.5883841,7.16884894 18.5892074,7.87428685 C18.8846647,7.95705823 19.5395636,8.3689164 19.8293751,8.74127005 L16.5066571,8.73633198 C16.7924697,8.3689164 17.4424286,7.95541221 17.7355335,7.87264083 C17.7355335,7.16637991 17.8077512,5.7432765 18.1557838,5.75138903" id="Shape" fill="#FFFFFF"></path>
                    <path d="M18.1558045,5.7530026 C18.4996406,5.74491758 18.5883638,7.16882504 18.5891728,7.87424337 C18.8846021,7.95711487 19.5397783,8.36891209 19.8294096,8.74122744 L16.5067399,8.73637642 C16.7923261,8.36891209 17.4425133,7.95549786 17.7355155,7.87262637 C17.7355155,7.16639953 17.8077885,5.74316582 18.1558045,5.7513856 L18.1558045,5.7530026 Z M11.4772952,12.4217998 L11.7752864,12.4217998 L11.6881813,12.5816138 C11.6881813,12.5816138 11.8319182,12.7662218 11.6907432,12.97778 L11.7686794,13.1246579 L11.4814752,13.1246579 L11.5594113,12.9851912 C11.5594113,12.9851912 11.4124383,12.7399455 11.5658835,12.5816138 L11.4772952,12.4217998 L11.4772952,12.4217998 Z M12.0840647,12.4217998 L12.3820559,12.4217998 L12.2957598,12.5816138 C12.2957598,12.5816138 12.4394967,12.7613708 12.2967037,12.97778 L12.3738308,13.1246579 L12.0873008,13.1246579 L12.1644279,12.9851912 C12.1644279,12.9851912 12.0208258,12.7399455 12.171844,12.5816138 L12.0840647,12.4217998 L12.0840647,12.4217998 Z M12.747466,12.4217998 L13.0446482,12.4217998 L12.955925,12.5816138 C12.955925,12.5816138 13.10128,12.7662218 12.9583521,12.97778 L13.0364231,13.1280267 L12.7515111,13.1247926 L12.827964,12.9851912 C12.827964,12.9851912 12.682609,12.7416973 12.8336272,12.5816138 L12.7466569,12.4217998 L12.747466,12.4217998 L12.747466,12.4217998 Z M13.4944666,12.4244948 L13.7940759,12.4244948 L13.7062966,12.5861953 C13.7062966,12.5861953 13.8498987,12.7674346 13.7071056,12.9798012 L13.7874688,13.1291047 L13.4985117,13.1291047 L13.5757737,12.989638 C13.5757737,12.989638 13.4320368,12.7427753 13.5856169,12.5860606 L13.4952756,12.4244948 L13.4944666,12.4244948 L13.4944666,12.4244948 Z M14.1592163,12.4244948 L14.4563985,12.4244948 L14.3684843,12.5861953 C14.3684843,12.5861953 14.5130303,12.7674346 14.3701024,12.9789927 L14.4489824,13.1291047 L14.1624524,13.1291047 L14.2371524,12.989638 C14.2371524,12.989638 14.0927413,12.7443923 14.2486136,12.5860606 L14.1592163,12.4244948 L14.1592163,12.4244948 Z M14.8199208,12.4258423 L15.117103,12.4242253 L15.0291889,12.5857911 C15.0291889,12.5857911 15.1761619,12.7671651 15.033234,12.9795317 L15.1080689,13.1288352 L14.8207298,13.1288352 L14.897857,12.9893685 C14.897857,12.9893685 14.7542549,12.7441228 14.9077001,12.5857911 L14.8199208,12.4258423 L14.8199208,12.4258423 Z" id="Shape" stroke="#000000" stroke-width="0.2"></path>
                    <path d="M13.3501338,21.5942312 C14.8817598,21.5991693 16.7655351,21.2866603 17.6479079,20.8307122 L19.5857876,20.6590557 L19.6243664,23.0223903 C17.9826496,23.9271144 14.1922811,24.1214625 13.3582495,24.1148784 C12.5235122,24.1214625 8.68633157,23.9238223 7.03720488,23.0158062 L7.05861141,20.6509432 L9.00060777,20.8256566 C9.88298053,21.2793708 11.8241536,21.5942312 13.3541329,21.5942312 L13.3500162,21.5942312" id="Shape" fill="#FFFF00"></path>
                    <path d="M13.3501903,21.5942594 C14.8818113,21.5991104 16.7654934,21.2866243 17.6478711,20.8306289 L19.5857579,20.6590917 L19.6243215,23.0223442 C17.982673,23.9270583 14.1922515,24.1215032 13.3584154,24.1149004 C12.5235006,24.1215032 8.68629045,23.9238243 7.03722586,23.0158761 L7.05853021,20.6510066 L9.00059704,20.8256432 C9.88297469,21.2793478 11.8240977,21.5942594 13.3541006,21.5942594 L13.3500555,21.5942594" id="Shape" stroke="#000000" stroke-width="0.2"></path>
                    <path d="M2.04807028,11.5135235 L3.75541805,12.0567107 L3.23907356,14.8194407 L1.62299762,15.0703414 C1.62299762,15.0703414 1.35047593,13.6176096 2.04807028,11.511995" id="Shape" fill="#FFFF00"></path>
                    <path d="M2.04809757,11.5135821 L3.75541203,12.0566262 L3.23911863,14.8194137 L1.62295443,15.0703189 C1.62295443,15.0703189 1.35044751,13.6175749 2.04809757,11.5119651 L2.04809757,11.5135821 L2.04809757,11.5135821 Z" id="Shape" stroke="#000000" stroke-width="0.2"></path>
                    <polyline id="Shape" fill="#7E7E7E" points="3.2387207 14.789342 1.62335047 15.0706941 2.64521858 13.6179623 3.2387207 14.789342"></polyline>
                    <polyline id="Shape" stroke="#000000" stroke-width="0.2" points="3.23871412 14.7893643 1.62335894 15.0707231 2.64529357 13.6179791 3.23871412 14.7893643"></polyline>
                    <path d="M1.02737836,13.503799 L2.67309412,13.6226652 C2.71002628,15.0163754 2.87904383,20.3350245 9.23372731,20.6237838 L9.03589327,22.5588 C1.30072337,22.6391023 0.712984547,16.0351453 1.02737836,13.503799" id="Shape" fill="#FFFF00"></path>
                    <path d="M1.02737648,13.5038455 L2.67307013,13.6226954 C2.71001565,15.0164187 2.87910208,20.335017 9.23373136,20.6237871 L9.03592451,22.5588028 C1.30069242,22.639114 0.712935054,16.0351317 1.02737648,13.5038455 L1.02737648,13.5038455 Z M7.06810368,22.9552385 L9.0076086,22.5319875 L7.06810368,22.9552385 Z" id="Shape" stroke="#000000" stroke-width="0.2"></path>
                    <path d="M24.5174068,11.533746 L22.8166457,12.0718776 L23.3560433,14.8304925 L24.9754126,15.0904464 C24.9754126,15.0904464 25.2355844,13.6386552 24.5174068,11.5322176" id="Shape" fill="#FFFF00"></path>
                    <path d="M24.5174454,11.5337947 L22.816738,12.071853 L23.3560886,14.8304632 L24.9754889,15.0905315 C24.9754889,15.0905315 25.2357256,13.6385959 24.5174454,11.5321777 L24.5174454,11.5337947 L24.5174454,11.5337947 Z" id="Shape" stroke="#000000" stroke-width="0.2"></path>
                    <polyline id="Shape" fill="#7E7E7E" points="23.3551024 14.801452 24.9745893 15.0918573 23.9387246 13.63842 23.3551024 14.801452"></polyline>
                    <polyline id="Shape" stroke="#000000" stroke-width="0.2" points="23.3551447 14.8014919 24.974545 15.091879 23.9387221 13.6384612 23.3551447 14.8014919"></polyline>
                    <path d="M25.5570353,13.5254324 L23.9089671,13.6378322 C23.8850906,15.0298963 23.7635909,20.3508969 17.4089074,20.6330721 L17.6248547,22.5664422 C25.3583779,22.6557977 25.8903656,16.0550152 25.5570353,13.5244918" id="Shape" fill="#FFFF00"></path>
                    <path d="M25.5570437,13.5254056 L23.908923,13.6379222 C23.8850567,15.0298938 23.7637029,20.3509175 17.4089387,20.6330848 L17.6248138,22.5664836 C25.3584279,22.6556883 25.8903624,16.0550748 25.5570437,13.5245971 L25.5570437,13.5252708 L25.5570437,13.5254056 Z M19.5985675,22.964671 L17.6542084,22.5402072 L19.5985675,22.964671 Z" id="Shape" stroke="#000000" stroke-width="0.2"></path>
                    <path d="M12.3213263,22.7585565 C12.2778075,22.7864213 12.2187631,22.7938284 12.1506621,22.7905363 L11.8436782,22.7748991 L11.8699071,22.3919639 L12.1745386,22.408189 C12.2344063,22.412304 12.2819241,22.4239438 12.3115639,22.4419324 C12.3730783,22.4739123 12.4001305,22.5330515 12.3943672,22.6149999 C12.3903682,22.6855437 12.3656684,22.7315147 12.3205029,22.7584389 M11.8050994,23.3615883 L11.8354449,22.894706 L12.1933575,22.9193963 C12.309094,22.9283319 12.3951906,22.897998 12.4535293,22.8388588 C12.5142203,22.7814832 12.5455068,22.7060014 12.5495058,22.6207609 C12.5569158,22.5214118 12.5315102,22.4402864 12.4723482,22.3803242 C12.4157738,22.3229486 12.3353228,22.2926147 12.2344063,22.2827386 L11.7230018,22.2508763 L11.6524308,23.3499486 L11.8042761,23.3598247 M12.9187098,22.4418149 L13.2929713,22.4459299 C13.3470758,22.450868 13.3898888,22.4574521 13.4210577,22.4721487 C13.4784555,22.4991905 13.5056253,22.5533916 13.5056253,22.632048 C13.5056253,22.7061189 13.4842188,22.7552644 13.4423466,22.7848928 C13.4021212,22.811817 13.3439001,22.8240446 13.2741524,22.8240446 L12.9145931,22.8199296 L12.9178865,22.4418149 M12.9121232,23.4155543 L12.9154165,22.9463205 L13.2667424,22.9512586 C13.3290802,22.9512586 13.3749513,22.9561967 13.4070611,22.9717163 C13.4588132,22.9954661 13.4842188,23.0456697 13.4866887,23.1144499 L13.4957453,23.2990395 C13.4980977,23.3432469 13.4990387,23.3704063 13.5015086,23.388395 C13.506331,23.4015631 13.508801,23.4154368 13.5153876,23.4254305 L13.704165,23.4254305 L13.7008717,23.4015631 C13.6795828,23.390041 13.6622929,23.3679373 13.6550006,23.3343114 C13.6484139,23.3129131 13.6451206,23.2809333 13.643474,23.2407233 L13.6401807,23.0939922 C13.6378283,23.0274459 13.6261841,22.9815924 13.6007785,22.9560791 C13.5759847,22.9226618 13.5412293,22.8979636 13.5015086,22.8855353 C13.5539664,22.8577881 13.5933686,22.8258082 13.6221851,22.7863037 C13.6492373,22.7428017 13.6632339,22.6878951 13.6632339,22.6207609 C13.6632339,22.49437 13.6114818,22.408189 13.5064486,22.3615125 C13.4497566,22.3361168 13.3775389,22.3229486 13.292148,22.3213026 L12.7643945,22.3163645 L12.7602779,23.4187288 L12.9121232,23.4187288 M14.0837194,23.1856991 C14.0164417,23.1037508 13.9802153,23.0011096 13.971982,22.8797742 C13.9646897,22.7271645 13.9943295,22.6107672 14.0639595,22.5318758 C14.1345305,22.4466354 14.2256847,22.40572 14.3447145,22.3990183 C14.4645676,22.3925518 14.5630141,22.4311157 14.6360551,22.50648 C14.7108604,22.5804334 14.7534382,22.6828395 14.7608482,22.8108765 C14.7649648,22.9338578 14.7436759,23.0429655 14.6869839,23.1389051 C14.6312328,23.2364907 14.5384319,23.2915148 14.4014065,23.2948069 C14.2585003,23.302214 14.1518204,23.2685881 14.0837194,23.1856991 M13.9031753,22.4916658 C13.8326043,22.6007735 13.8037878,22.7271645 13.8111977,22.8797742 C13.8217834,23.0446116 13.8727121,23.1807611 13.9688063,23.2834023 C14.0754861,23.3859259 14.2167457,23.4374229 14.3907033,23.4276643 C14.5770107,23.4194342 14.7173294,23.3488904 14.8126002,23.219325 C14.8897579,23.1021047 14.92669,22.9658377 14.9184567,22.7977083 C14.9078711,22.6475676 14.8643523,22.5252917 14.783078,22.4342902 C14.6803972,22.3120143 14.5301986,22.2579307 14.3267189,22.2661608 C14.1346482,22.2783884 13.9933885,22.3489322 13.9023519,22.4916658 M19.0861449,20.9057238 C19.1920014,20.8876176 19.2839789,20.8926732 19.3677232,20.9212434 C19.4908696,20.9598074 19.5737905,21.0509264 19.6254249,21.190368 L19.4736973,21.2115311 C19.4407642,21.1362844 19.3939521,21.0845523 19.330791,21.0557469 C19.2692766,21.0287052 19.1920014,21.0221211 19.1034348,21.0354068 C19.0043553,21.0486473 18.9154927,21.1031401 18.8587886,21.1854299 C18.8013909,21.2739624 18.784101,21.3921233 18.8096242,21.543087 C18.8309131,21.6677143 18.8769019,21.77353 18.9524128,21.8440738 C19.0221605,21.9162636 19.1247237,21.9416594 19.2585734,21.9228477 C19.3586666,21.9063875 19.4391175,21.8664127 19.4958095,21.7972798 C19.5548539,21.7317916 19.5721438,21.6324424 19.552384,21.504523 L19.198588,21.5586066 L19.1805924,21.4372713 L19.6730604,21.3617894 L19.7690369,21.9449514 L19.6714137,21.9597656 L19.6107227,21.8252621 C19.5695562,21.8860474 19.5286251,21.9327238 19.4925162,21.9597656 C19.4317075,22.0073827 19.3496099,22.0377165 19.2470468,22.0525307 C19.114138,22.0729884 18.9926383,22.0491211 18.8826652,21.9785773 C18.7619887,21.8892218 18.6838902,21.7563644 18.6544856,21.5717748 C18.6223758,21.3905948 18.6511923,21.235516 18.7349365,21.1132401 C18.8144465,20.9951969 18.930183,20.9262991 19.0861449,20.9039602 M20.1999905,20.8208361 L20.5528455,20.6927991 C20.6013043,20.6748105 20.6431764,20.6690494 20.6792852,20.673282 C20.7440929,20.6779849 20.7917284,20.7166665 20.8187806,20.7936768 C20.8443038,20.8594001 20.8443038,20.9167757 20.8156049,20.9571032 C20.7851417,20.9988416 20.7376239,21.0291754 20.668582,21.0545712 L20.3370159,21.1735551 L20.1999905,20.8208361 M20.5528455,21.7321443 L20.3805347,21.2900699 L20.7088074,21.1719091 C20.7704395,21.1521568 20.8131349,21.1414576 20.8451271,21.1448673 C20.9033482,21.1521568 20.9476903,21.1875463 20.9772125,21.2546804 L21.0519001,21.4229274 C21.0683667,21.4646658 21.08154,21.4900615 21.0921256,21.5017013 C21.0970656,21.5163979 21.1077688,21.525451 21.1160021,21.5352096 L21.2940763,21.4697214 L21.2841963,21.4458541 C21.2579675,21.4458541 21.2324443,21.4311575 21.2136253,21.4023521 C21.1997464,21.3818944 21.1865731,21.3523836 21.1677542,21.3179347 L21.1094155,21.1800216 C21.0831866,21.1201769 21.0560168,21.0833766 21.0248479,21.0611553 C20.9885177,21.0420754 20.9484558,21.0311609 20.9074648,21.0291754 C20.9435736,20.9873195 20.9698025,20.9454635 20.9796825,20.896318 C20.9903857,20.8462319 20.9855634,20.7905023 20.9616869,20.7281886 C20.9165214,20.6108508 20.8336005,20.5468911 20.7170407,20.538661 C20.6555263,20.5337229 20.5849553,20.5468911 20.5036811,20.5754613 L20.0079198,20.7519383 L20.4084102,21.7886969 L20.5536689,21.7353188 M21.8435892,21.1859002 L21.2140958,20.2680079 L21.9052212,19.827462 L21.9815555,19.9383333 L21.4151056,20.2999878 L21.608823,20.5805169 L22.1317541,20.2442582 L22.2031484,20.3517199 L21.6802173,20.6879786 L21.8936946,20.9971956 L22.4699068,20.628957 L22.5462411,20.7372417 L21.8428834,21.1860178 M22.3951015,19.5622173 L22.5756457,19.3637541 C22.6593899,19.2751041 22.7480742,19.2348941 22.8449917,19.2464163 C22.9417916,19.2546464 23.0402381,19.3054379 23.1452713,19.39738 C23.1740878,19.4194837 23.1993757,19.4481715 23.2257222,19.4801514 C23.271711,19.5401136 23.2987632,19.5926687 23.3160531,19.6451063 C23.3307554,19.7108296 23.3275797,19.7706742 23.3045265,19.8280498 C23.2906475,19.8567376 23.2659477,19.8903635 23.2290155,19.9305735 L23.0476481,20.1275082 L22.3951015,19.5606889 M23.3489862,19.9928872 C23.476955,19.8517996 23.5048305,19.7001304 23.4301429,19.528709 C23.3821973,19.4281149 23.3133505,19.3388931 23.2281922,19.2669915 C23.1124558,19.1643503 22.9917794,19.1119128 22.8646339,19.1021542 C22.7234919,19.0914551 22.6035212,19.1423642 22.4993114,19.2561748 L22.1915042,19.5859671 L23.0402381,20.3259714 L23.3480453,19.9945332 M24.0063551,19.1377788 L23.0296525,18.5643754 L23.1092801,18.438102 L24.0876294,19.008331 L24.0071785,19.1394249 M24.3893204,18.4720806 L23.3346368,18.0503463 L23.6457373,17.3088135 L23.7737061,17.3580766 L23.5201209,17.9692209 L23.8376904,18.0938483 L24.0749266,17.531144 L24.1964264,17.5812301 L23.9616602,18.143229 L24.3171028,18.287491 L24.5772745,17.6690571 L24.7053609,17.717262 L24.3884971,18.4720806 M24.8734375,17.1771317 L23.7637085,16.9318745 L23.8006407,16.7604531 L24.8258021,16.4143182 L23.9254337,16.2157374 L23.9582492,16.0812339 L25.0679782,16.3199071 L25.0326927,16.4863904 L24.0058847,16.84005 L24.906253,17.0343981 L24.8742608,17.1771317 M24.7858118,15.7689601 L24.7996908,15.6295185 C24.8637928,15.6312821 24.9178972,15.6212884 24.958946,15.5993023 C25.039397,15.5558003 25.0862091,15.4730289 25.0984414,15.3506354 C25.1033813,15.2933774 25.1009114,15.2431737 25.0878557,15.1956742 C25.0639792,15.1038497 25.0123448,15.0529406 24.9294238,15.0447105 C24.8679094,15.0381264 24.8235673,15.0529406 24.7914575,15.0865665 C24.7627586,15.1251304 24.7324131,15.18086 24.7094775,15.2596339 L24.6585488,15.4048366 C24.6256157,15.4999531 24.5953878,15.5655588 24.5624546,15.6024767 C24.5099968,15.6714921 24.4361325,15.6953594 24.341685,15.6886577 C24.2407685,15.6780762 24.1586709,15.6378662 24.1004498,15.5607383 C24.0404644,15.4901945 24.0157646,15.3893169 24.0305845,15.2644544 C24.0404644,15.1506438 24.0782199,15.0545866 24.1454976,14.9775763 C24.2078353,14.9070325 24.3047528,14.8732891 24.4287226,14.8863397 L24.417196,15.0257813 C24.3565049,15.0257813 24.3080462,15.0364804 24.2727607,15.0610531 C24.2087763,15.096325 24.1734908,15.1709839 24.1627875,15.2800916 C24.1537309,15.3703877 24.1660808,15.4310553 24.2004254,15.4770264 C24.2350052,15.5155903 24.278524,15.5401631 24.3293351,15.5442781 C24.3835571,15.5490986 24.4262526,15.531933 24.4557748,15.4901945 C24.4771813,15.4613892 24.5025869,15.3990755 24.5370491,15.2981979 L24.5871545,15.1455881 C24.6118543,15.0750443 24.6412589,15.0209608 24.6757211,14.9823968 C24.7373531,14.9184371 24.817804,14.8912778 24.9187206,14.8988024 C25.041867,14.9117355 25.1297279,14.9627621 25.1747757,15.0563502 C25.2191178,15.1506438 25.2364077,15.2548134 25.2257044,15.3728567 C25.2117078,15.5065372 25.1683067,15.6115299 25.0878557,15.6820737 C25.0074048,15.7542635 24.907194,15.7788362 24.7858118,15.7690777 M1.78107666,15.7015908 L1.80659984,15.8393863 C1.74496783,15.8516139 1.69580337,15.8763042 1.65957692,15.9082841 C1.59488683,15.9689517 1.57253935,16.0600708 1.59488683,16.1839927 C1.60464916,16.2364303 1.62358571,16.2880448 1.64734461,16.3291954 C1.69662669,16.4127898 1.76061107,16.4464156 1.84188534,16.4332475 C1.90187069,16.4226659 1.94115522,16.3997392 1.96009177,16.3570602 C1.97808737,16.3150866 1.99126063,16.2512445 1.99537727,16.1691785 L2.00278722,16.0139822 C2.00760958,15.9181602 2.01831284,15.8427959 2.03971938,15.8008224 C2.07335823,15.7253405 2.13651927,15.6785465 2.2309668,15.6631444 C2.33188333,15.6449206 2.42056756,15.6678473 2.49678424,15.7254581 C2.57405948,15.7787186 2.62498822,15.8713662 2.64380716,15.9943475 C2.66756606,16.1068648 2.65698041,16.2077425 2.6126383,16.298744 C2.56994284,16.387394 2.48784524,16.4414776 2.36222886,16.4644043 L2.33752901,16.3250803 C2.3958677,16.303682 2.43938649,16.2831068 2.46808536,16.2545365 C2.51748506,16.1995124 2.53218736,16.1199155 2.5132508,16.0109253 C2.49854851,15.9221577 2.46808536,15.8647821 2.42221421,15.8362118 C2.37704877,15.8024684 2.33188333,15.7893002 2.28260125,15.7976479 C2.22767348,15.805878 2.19156465,15.8362118 2.17439238,15.8853573 C2.16368911,15.9181602 2.15545582,15.986235 2.14804587,16.0904046 L2.14063591,16.2511269 C2.13651927,16.3266088 2.12511029,16.38904 2.09958712,16.431719 C2.05936164,16.5103753 1.99126063,16.5586978 1.89199075,16.574335 C1.76637437,16.5956157 1.66945686,16.5669279 1.60053251,16.486508 C1.52996151,16.4077341 1.48644273,16.3134406 1.46433048,16.1961027 C1.43963063,16.0567788 1.45774385,15.948494 1.51361256,15.8616076 C1.57018698,15.7722521 1.65969454,15.72052 1.78119428,15.7032368 M1.71097613,17.1554983 L2.7961229,16.8291157 L3.04900233,17.5927522 L2.91679932,17.6344906 L2.70990866,17.0070036 L2.37998923,17.1063528 L2.57123664,17.6862228 L2.44479693,17.7264327 L2.25519617,17.1449167 L1.88752125,17.2547299 L2.0975876,17.8962081 L1.9679722,17.9332436 L1.71097613,17.1556159 M2.19238798,18.4801931 L3.19049719,17.9511147 L3.29717702,18.1373503 L2.61099164,18.8624229 L3.61309987,18.6910015 L3.716604,18.8755911 L2.72096479,19.4013775 L2.65039378,19.2791016 L3.23801499,18.9698846 C3.25942153,18.9575394 3.29223705,18.9395508 3.33987247,18.914155 C3.38656695,18.8928743 3.43914235,18.8640689 3.49160013,18.8370271 L2.49360854,19.0068025 L2.42056756,18.8772371 L3.10181296,18.154516 L3.06887983,18.1709762 C3.04770852,18.1832038 3.01065875,18.20131 2.96067096,18.2299978 C2.92556494,18.2524333 2.88880096,18.2721642 2.85069781,18.2890195 L2.26460564,18.6031745 L2.19238798,18.4785471 M4.05181626,19.9490324 C4.00171085,19.9375103 3.95242877,19.9088225 3.90408763,19.8587364 L3.69308034,19.6413439 L3.97712862,19.3812725 L4.18966495,19.5979595 C4.23083137,19.6381695 4.25694264,19.6774388 4.27093922,19.7111823 C4.2906991,19.7758474 4.27093922,19.8349866 4.21095387,19.8907162 C4.15684944,19.9408023 4.102745,19.96126 4.05181626,19.9489149 M3.24989445,20.0497925 L3.5979271,19.7306994 L3.84492561,19.9808947 C3.92455322,20.0621376 4.00582749,20.0990556 4.09121841,20.0975271 C4.17665609,20.0935235 4.25761178,20.0581479 4.31857465,19.9981779 C4.39243896,19.9325722 4.42772447,19.8554443 4.42772447,19.772673 C4.42690114,19.692253 4.38996898,19.6167712 4.32186796,19.5462274 L3.96724868,19.1844553 L3.14156796,19.9423308 L3.24824779,20.0497925 M4.24600414,20.9353522 L4.84432861,19.9977076 L5.55180291,20.4275545 L5.47793859,20.5392488 L4.89690401,20.1914679 L4.71706557,20.4752891 L5.25140568,20.7990851 L5.18248133,20.9065468 L4.6473179,20.5842793 L4.44383818,20.9016088 L5.03228271,21.2552683 L4.96171171,21.3659045 L4.24600414,20.9352346 M6.01639534,20.7547601 L6.37583697,20.8688059 C6.42676571,20.8843255 6.46369787,20.9040778 6.4882801,20.9262991 C6.53426887,20.9698011 6.5466188,21.0321148 6.51956658,21.1074791 C6.49733671,21.1730848 6.46369787,21.2157638 6.41124009,21.23387 C6.36442799,21.2421001 6.30538359,21.2421001 6.23634162,21.2207018 L5.89736558,21.1125347 L6.01639534,20.7547601 M5.70611816,21.6759444 L5.85549345,21.2289319 L6.19035286,21.3380397 C6.25033821,21.3536769 6.29385699,21.3749576 6.31514591,21.3970613 C6.35619471,21.4339792 6.36854463,21.4888858 6.34807904,21.5569606 L6.29785601,21.7349661 C6.28644704,21.7784681 6.28068374,21.8071559 6.27574377,21.8203241 C6.27574377,21.8343152 6.27574377,21.8491294 6.27821375,21.858888 L6.45464126,21.9162636 L6.46534453,21.8908679 C6.44652559,21.8760537 6.43582232,21.8491294 6.43664565,21.8155036 C6.44076229,21.7948107 6.44652559,21.7621254 6.45793457,21.7242669 L6.50063003,21.5815333 C6.51791992,21.5192196 6.52450655,21.4725432 6.50886331,21.4389173 C6.49569006,21.4036454 6.47357781,21.371548 6.43664565,21.3413317 C6.49239674,21.3314556 6.5408555,21.3142899 6.5819043,21.283721 C6.62048311,21.2502127 6.65329863,21.2034186 6.67305851,21.1379305 C6.71328398,21.018829 6.69105411,20.9195974 6.60248751,20.8441156 C6.55814539,20.8048462 6.49486673,20.7712203 6.4119458,20.7399459 L5.9097155,20.5849847 L5.55838953,21.6307964 L5.70529484,21.6759444" id="Shape" fill="#009FC5"></path>
                    <path d="M7.23127513,2.64299445 C7.36089054,2.33025031 8.5627147,1.47808131 12.5057518,1.85137554 C12.5057518,1.85137554 13.1721773,2.25817807 13.5637287,2.20574052 C13.7869683,2.17693514 13.4323491,2.21961413 13.1410084,1.97764893 C12.8439045,1.73568372 12.7806259,1.23952572 13.4595189,1.25257633 C14.135001,1.26985955 16.6639129,1.41247559 16.7115483,1.63962659 C16.7557728,1.86936421 15.3743454,1.96530376 14.8605885,1.95225316 C14.344244,1.93837955 14.4042294,2.19915643 14.9179863,2.17952174 C16.5234766,2.12202855 18.2759898,1.55685521 20.1268319,2.86520739 C20.3476015,3.02428364 19.5686153,3.04979698 18.9661742,2.79384059 C18.9661742,2.79384059 17.3336317,2.87837557 16.6276864,2.76268375 C16.6276864,2.76268375 16.085113,3.20393516 15.3784621,3.16055073 C15.470322,3.38934776 15.1173494,4.24339792 12.895539,3.60097913 C12.5285698,3.71337891 11.1916021,3.93723787 11.3376841,3.54031147 C10.9855348,3.54031147 10.3682738,3.65353426 10.2762962,3.45330746 C10.1877296,3.25649029 11.3630897,2.95867791 11.569157,2.74551809 C11.569157,2.74551809 9.08282298,2.76926784 8.61176155,2.59772885 C8.61176155,2.59772885 7.14506089,2.92669806 7.23115751,2.64123085" id="Shape" fill="#BC715F"></path>
                    <path d="M8.02813936,6.12221423 C8.08153809,6.05014199 8.102827,5.92045898 8.21609346,5.92375103 C8.46238626,5.98935675 8.62975715,6.43966129 8.93262437,6.14760999 C9.04024515,6.12386025 9.08117633,6.2698859 9.16986055,6.28716913 C9.22655259,6.53736444 9.42756233,6.23626002 9.57776094,6.25342568 C9.898859,6.11069207 10.2960561,6.0770662 10.676081,6.14760999 C10.6874899,6.39286724 10.4954192,6.66363782 10.254184,6.80307938 C10.259124,7.04998265 10.4831869,7.20835346 10.4790703,7.45678518 C10.4404914,7.54966784 10.4724836,7.69545834 10.3320473,7.72579217 C10.1539732,7.69381232 9.978369,7.67500064 9.83064037,7.57576904 C9.81252714,7.5576628 9.79770723,7.52239091 9.76006936,7.53391306 C9.74195614,7.61668444 9.87168917,7.69886796 9.92250029,7.78316779 C9.83311035,7.93577752 9.68455839,7.79633596 9.55976534,7.79798198 C9.52283318,7.885809 9.55811868,7.99656276 9.4677878,8.05311536 C9.31017923,8.0481773 9.27818704,7.87675589 9.18138715,7.79151547 C9.08199966,7.89885961 9.25113482,7.96293688 9.27489373,8.0481773 C9.21420267,8.37138543 9.22243595,8.68718647 8.89898552,8.89881785 L8.68233255,9.00639713 C8.62317053,8.84391126 8.66010268,8.597831 8.62070054,8.42793804 C8.49273179,8.63639494 8.39252097,8.8185155 8.20456687,8.9947574 C7.98462058,8.92256759 7.85653421,8.66343673 7.80819307,8.44851331 C7.71621553,8.198318 7.76879093,7.89885961 7.96662497,7.71767964 C7.89922966,7.58635061 7.66858011,7.61680201 7.63576459,7.42986097 C7.29020192,7.20494385 7.0989545,7.82349532 6.8757149,7.50193321 C6.80349724,7.20176938 6.88971148,6.82847515 7.10718779,6.60449861 C7.05872903,6.48151727 6.89782715,6.51361469 6.8025563,6.4430709 C6.58519761,6.25836374 6.27162713,6.06331016 6.28715275,5.73010832 C6.88230153,5.50554392 7.59389246,5.67026367 8.0264927,6.12221423" id="Shape" fill="#008737"></path>
                    <path d="M8.33688749,6.08858835 C8.32300853,6.36076981 8.52084257,6.16230661 8.66774787,6.32714394 C8.55283476,6.28199591 8.46897289,6.52560714 8.35664737,6.38616558 L8.28607637,6.4535349 C8.32712517,6.54700542 8.40675279,6.55935059 8.32371424,6.66187423 C8.20068546,6.7085507 8.17610323,6.55441252 8.11858786,6.49374486 C8.10870792,6.46670307 8.1374068,6.41579397 8.09235897,6.39768773 C8.0226113,6.45670937 7.94957031,6.47810765 7.85347613,6.46823152 C7.82724724,6.41579397 7.7763185,6.3468962 7.82807057,6.30668624 C7.92240048,6.17947227 8.06848245,6.3525397 8.1399944,6.26318424 C8.15140338,6.18441034 8.08247903,6.08858835 8.17198659,6.03426963 C8.23350098,6.04496878 8.31230526,6.01146047 8.33782844,6.08858835 M9.07317828,6.31221217 C9.08047062,6.3647673 9.04612606,6.43848556 9.11505041,6.47563862 C9.20444034,6.42708098 9.2997112,6.46388132 9.35146326,6.55264893 C9.35063994,6.60014841 9.36534223,6.66246209 9.30300451,6.6855064 L9.16339154,6.65928762 C9.17327148,6.63212826 9.12892937,6.61496261 9.11163948,6.58874383 C9.05012509,6.56993215 9.01401626,6.6197831 8.96814511,6.65011693 C9.00260728,6.70267205 9.08223489,6.73135986 9.06329834,6.79872918 C8.98120074,6.88067755 8.94097527,6.72818539 8.85076201,6.76663176 C8.78913,6.74288202 8.87287425,6.61496261 8.77607436,6.57639867 C8.66116125,6.57639867 8.73749555,6.76498574 8.59047263,6.69126748 C8.53801485,6.63212826 8.48626278,6.55253135 8.54295482,6.48622019 C8.60446921,6.44506964 8.70879667,6.45565121 8.76125445,6.50902935 C8.85064439,6.40991532 8.859701,6.02686254 9.07400161,6.31221217 M8.15634335,6.70702226 C8.21621108,6.79320325 8.14305248,6.91042352 8.21938678,7.00648065 C8.33935748,6.78262168 8.4549763,7.05480315 8.59788258,7.03352244 C8.64140137,7.086783 8.61258487,7.16073641 8.62081816,7.22140407 C8.44439065,7.26808054 8.2317367,7.32392771 8.07577479,7.18284013 L8.032256,7.23280865 C8.12505687,7.31898964 8.21291777,7.41657522 8.13905345,7.56083727 C8.00685044,7.58964266 7.80242977,7.5929347 7.73597541,7.45678518 C7.70151324,7.34450298 7.81642636,7.26326005 7.69492661,7.172964 C7.60718334,7.28207173 7.61118236,7.42809737 7.42816823,7.3287482 C7.31490177,7.26643452 7.28126293,7.13780967 7.33795496,7.02940738 C7.45604377,6.84317177 7.66293443,7.03528603 7.7910208,6.94404939 C7.8090164,6.78415013 7.74985438,6.64470857 7.8968773,6.55617612 C8.02249368,6.53395482 8.08071476,6.62824836 8.15704906,6.70702226" id="Shape" fill="#FFFF00"></path>
                    <path id="Shape" fill="#FFFFFF"></path>
                    <path d="M9.1028181,7.04657304 C9.1438669,7.14098414 9.01001723,7.216466 9.12410702,7.2852462 C9.16021585,7.25502994 9.20455796,7.21317396 9.22349451,7.19589073 C9.32111773,7.22469611 9.43438419,7.24186177 9.50248521,7.33862433 C9.57564381,7.53885113 9.3728698,7.53379549 9.25783907,7.58964266 L9.14374928,7.58470459 C9.17091912,7.52897499 9.09458482,7.50510768 9.07576588,7.46666131 C9.02319049,7.45349314 8.9796717,7.46983578 8.9501495,7.5141608 C8.97555506,7.64137477 9.13069365,7.74060637 8.97061509,7.85371158 C8.83523639,7.84477603 8.62505242,7.89721358 8.63740234,7.71027254 C8.5864736,7.60445685 8.77525103,7.44114797 8.57341797,7.43468146 C8.50684599,7.57741506 8.433805,7.71509303 8.26055319,7.5798841 L8.28195973,7.37648283 C8.44780159,7.38118575 8.64398897,7.40999113 8.71867661,7.22469611 C8.76631204,7.09019261 8.63575569,6.96627069 8.75231546,6.85963199 C8.92145063,6.82106805 9.01660386,6.93429084 9.1028181,7.04657304" id="Shape" fill="#FFFF00"></path>
                    <path d="M9.16488331,7.44686677 C9.23355018,7.63888238 9.04873606,7.65140027 8.96153104,7.74640218 C8.8442488,7.75735534 8.7623404,7.70258953 8.69102523,7.60915237 C8.63805905,7.37667713 8.78466185,7.35320607 8.89683664,7.26133364 C9.02754959,7.19740295 9.08165076,7.37667713 9.16488331,7.44686677" id="Shape" fill="#000000"></path>
                    <path id="Shape" fill="#FFFFFF"></path>
                </g>
            </g>
        </g>
    </g>
</svg>