<?xml version="1.0" encoding="UTF-8" standalone="no"?>
<svg width="122px" height="60px" viewBox="0 0 122 60" version="1.1" xmlns="http://www.w3.org/2000/svg" xmlns:xlink="http://www.w3.org/1999/xlink">
    <!-- Generator: Sketch 3.8.2 (29753) - http://www.bohemiancoding.com/sketch -->
    <title>ht</title>
    <desc>Created with Sketch.</desc>
    <defs></defs>
    <g id="Page-1" stroke="none" stroke-width="1" fill="none" fill-rule="evenodd">
        <g id="ht">
            <g id="Group">
                <g>
                    <polygon id="Shape" fill="#D21034" points="0 0 122 0 122 60 0 60"></polygon>
                    <polygon id="Shape" fill="#00209F" points="0 0 122 0 122 30 0 30"></polygon>
                    <g transform="translate(51.500000, 22.375000)">
                        <polygon id="Shape" fill="#FFFFFF" points="0.03575 0.08175 18.96425 0.08175 18.96425 15.15 0.03575 15.15"></polygon>
                        <path d="M13.309375,10.97825 L9.446625,11.090375 L5.601125,11.134125 C5.601125,11.134125 3.625375,11.86475 2.817875,12.02875 C2.012625,12.19225 2.11725,12.45675 1.494125,12.596 C0.995125,12.7075 0.9375,12.74275 0.644625,12.762 C0.4675,12.773625 0.24925,12.909875 0.035875,13.060125 L0.035875,15.150125 L18.964,15.150125 L18.964,13.162375 C18.759,13.0505 18.563375,12.973625 18.36325,12.905625 C18.08525,12.811 17.89775,12.707625 17.39875,12.596125 C16.77575,12.456875 16.880375,12.192375 16.07525,12.028875 C15.26775,11.864875 13.309375,10.978375 13.309375,10.978375 L13.309375,10.97825 Z" id="Shape" stroke="#016A16" stroke-width="0.293" fill="#016A16"></path>
                        <g transform="translate(1.700000, 4.225000)">
                            <g id="a">
                                <polygon id="Shape" stroke="#000000" stroke-width="0.1" fill="#F1B517" points="6.706 2.1024 6.9852 2.0958 7.4962 4.2454 7.3874 4.9226 6.706 2.1022"></polygon>
                                <polygon id="Shape" stroke="#000000" stroke-width="0.5" fill="#FFFFFF" points="6.4128 0.6692 6.65419676 2.326 6.9128 2.3128"></polygon>
                                <polygon id="Shape" stroke="#000000" stroke-width="0.1" fill="#F1B517" points="6.9444 4.318 6.0858 2.01 6.4058 1.9904 7.4078 4.8108 6.9442 4.3178"></polygon>
                                <polygon id="Shape" stroke="#000000" stroke-width="0.1" fill="#FFFFFF" points="5.684 0.6954 6.038 2.2994 6.3244 2.2994 5.6838 0.6954"></polygon>
                                <polygon id="Shape" stroke="#000000" stroke-width="0.1" fill="#F1B517" points="6.1812 3.5092 5.6772 2.4244 5.8952 2.3784 6.8152 4.1798 6.1812 3.509"></polygon>
                                <polygon id="Shape" stroke="#000000" stroke-width="0.1" fill="#FFFFFF" points="5.016 1.1556 5.5748 2.6808 5.8608 2.6808 5.016 1.1556"></polygon>
                                <path d="M6.25,3.6728 L3.9626,1.176 C3.2486,1.7416 3.381,2.78 3.381,2.78 L5.9724,4.8134 L6.2498,3.6728 L6.25,3.6728 Z" id="Shape" stroke="#000000" stroke-width="0.1" fill="#0A328C"></path>
                                <path d="M7.572,5.047 L5.8756,3.3282 C5.1582,3.3534 5.7276,4.4242 5.7636,4.5588 L7.5722,6.1056 L7.5722,5.0472 L7.572,5.047 Z" id="Shape" stroke="#000000" stroke-width="0.1" fill="#D20014"></path>
                                <path d="M7.428,4.7514 L3.92,0.9954 L3.783,1.092 L7.495,5.2164 L7.4278,4.7514 L7.428,4.7514 Z M3.7172,0.7544 L3.6402,0.6652 L3.6482,0.4872 L2.9242,0.0264 L3.2476,0.7544 L3.494,0.799 L3.5708,0.8882 L3.7172,0.7546 L3.7172,0.7544 Z" id="Shape" stroke="#000000" stroke-width="0.1" fill="#F1B517"></path>
                                <path d="M3.3476,1.022 C3.4708,0.8734 3.6172,0.7248 3.879,0.5836 L4.079,0.8736 L3.648,1.2376 L3.3476,1.022 L3.3476,1.022 Z" id="Shape" stroke="#000000" stroke-width="0.1" fill="#F1B517"></path>
                                <path d="M2.962,1.6556 L3.08,1.8608 C3.1526,1.8338 3.886,1.1694 3.886,1.1694 L4.4124,1.1534 L4.5636,0.9858 C4.1772,0.5698 3.8132,1.045 3.8132,1.045 L2.9622,1.6554 L2.962,1.6556 Z" id="Shape" stroke="#0A328C" stroke-width="0.1" fill="#0A328C"></path>
                                <path d="M3.382,2.0014 C3.41,1.8178 3.7574,1.3586 3.808,1.3424 C4.0684,1.4204 4.3108,1.5704 4.5748,0.975 C4.3452,1.267 3.8808,0.9696 3.8808,0.9696 L3.6788,1.1372 L3.6848,1.2182 L3.0742,1.7856 L3.3822,2.0016 L3.382,2.0014 Z" id="Shape" stroke="#D20014" stroke-width="0.1" fill="#D20014"></path>
                                <g id="Group" transform="translate(1.200000, 1.000000)" stroke-width="0.1">
                                    <path d="M4.0504,3.3344 L1.177,1.0524 C0.685,1.5528 1.094,3.0984 1.094,3.0984 L3.9026,4.62 L4.0506,3.3344 L4.0504,3.3344 Z" id="Shape" stroke="#000000" fill="#0A328C"></path>
                                    <path d="M6.4332,5.1834 L4.0696,3.29 C3.2624,3.4032 3.8968,4.5912 3.945,4.722 L6.441,6.076 L6.433,5.1834 L6.4332,5.1834 Z" id="Shape" stroke="#000000" fill="#D20014"></path>
                                    <path d="M6.3394,4.801 L1.2286,0.9646 L1.1112,1.0826 L6.4786,5.2738 L6.3394,4.8008 L6.3394,4.801 Z M0.9856,0.7614 L0.8936,0.6866 L0.8692,0.5096 L0.0732,0.1772 L0.5232,0.84 L0.7738,0.8428 L0.8654,0.9176 L0.9854,0.7616 L0.9856,0.7614 Z" id="Shape" stroke="#000000" fill="#F1B517"></path>
                                    <path d="M0.67,1.0866 C0.7644,0.9196 0.882,0.7486 1.114,0.566 L1.3634,0.818 L1.0044,1.2484 L0.6698,1.0864 L0.67,1.0866 Z" id="Shape" stroke="#000000" fill="#F1B517"></path>
                                    <path d="M0.385,1.728 L0.417,1.94 C0.4844,1.9026 1.129,1.195 1.129,1.195 L1.6462,1.0996 L1.7518,0.933 C1.3924,0.5102 1.0092,1.0726 1.0092,1.0726 L0.3852,1.7282 L0.385,1.728 Z" id="Shape" stroke="#0A328C" fill="#0A328C"></path>
                                    <path d="M0.794,2.109 C0.7696,1.9126 1.038,1.3364 1.0852,1.313 C1.3946,1.405 1.664,1.5434 1.7776,0.899 C1.5982,1.2218 1.0856,0.9716 1.0856,0.9716 L0.9136,1.1676 L0.9376,1.2736 L0.4156,1.9476 L0.7942,2.109 L0.794,2.109 Z" id="Shape" stroke="#D20014" fill="#D20014"></path>
                                </g>
                                <g id="Group" transform="translate(0.000000, 2.800000)" stroke-width="0.1">
                                    <path d="M5.0448,2.93 C5.0068,2.921 1.3414,0.842 1.3414,0.842 C1.0746,1.292 1.3158,1.946 1.4328,2.0476 C1.4396,2.3476 1.3124,2.5088 1.5742,3.1356 C1.6516,3.5426 1.8402,3.918 2.1142,4.1408 C2.4486,5.4242 3.7588,5.5104 4.2636,4.4656 L5.045,2.9302 L5.0448,2.93 Z" id="Shape" stroke="#000000" fill="#0A328C"></path>
                                    <path d="M7.4704,4.3024 L4.9608,2.8314 C4.1536,2.9448 4.9778,4.4426 5.026,4.5734 L7.4492,5.4342 L7.4704,4.3026 L7.4704,4.3024 Z" id="Shape" stroke="#000000" fill="#D20014"></path>
                                    <path d="M7.0486,3.7692 L1.3786,0.7512 L1.2818,0.8858 L7.2626,4.215 L7.0486,3.769 L7.0486,3.7692 Z M1.1056,0.5874 L1.0028,0.5274 L0.9498,0.3562 L0.1098,0.1482 L0.6612,0.7352 L0.9092,0.6998 L1.0122,0.7598 L1.1054,0.5878 L1.1056,0.5874 Z" id="Shape" stroke="#000000" fill="#F1B517"></path>
                                    <path d="M0.8464,0.9564 C0.9128,0.7772 1.001,0.5908 1.2008,0.375 L1.488,0.5862 L1.203,1.0662 L0.8464,0.9566 L0.8464,0.9564 Z" id="Shape" stroke="#000000" fill="#F1B517"></path>
                                    <path d="M0.62,1.636 L0.7386,1.8696 C0.8,1.8232 1.3394,0.954 1.3394,0.954 L1.8378,0.79 L1.9314,0.5872 C1.531,0.2172 1.2318,0.8556 1.2318,0.8556 L0.6198,1.6362 L0.62,1.636 Z" id="Shape" stroke="#0A328C" fill="#0A328C"></path>
                                    <path d="M1.1544,1.9672 C1.1144,1.7672 1.2512,1.1278 1.2944,1.0982 C1.6064,1.1914 1.867,1.2178 1.939,0.5742 C1.7576,0.8798 1.2734,0.7646 1.2734,0.7646 L1.1314,0.9816 L1.1614,1.0576 L0.7494,1.8476 L1.1544,1.9676 L1.1544,1.9672 Z" id="Shape" stroke="#D20014" fill="#D20014"></path>
                                </g>
                            </g>
                            <g id="a-link" transform="translate(11.072000, 4.500000) scale(-1, 1) translate(-11.072000, -4.500000) translate(6.572000, 0.000000)">
                                <g id="a">
                                    <polygon id="Shape" stroke="#000000" stroke-width="0.1" fill="#F1B517" points="6.706 2.1024 6.9852 2.0958 7.4962 4.2454 7.3874 4.9226 6.706 2.1022"></polygon>
                                    <polygon id="Shape" stroke="#000000" stroke-width="0.5" fill="#FFFFFF" points="6.4128 0.6692 6.65419676 2.326 6.9128 2.3128"></polygon>
                                    <polygon id="Shape" stroke="#000000" stroke-width="0.1" fill="#F1B517" points="6.9444 4.318 6.0858 2.01 6.4058 1.9904 7.4078 4.8108 6.9442 4.3178"></polygon>
                                    <polygon id="Shape" stroke="#000000" stroke-width="0.1" fill="#FFFFFF" points="5.684 0.6954 6.038 2.2994 6.3244 2.2994 5.6838 0.6954"></polygon>
                                    <polygon id="Shape" stroke="#000000" stroke-width="0.1" fill="#F1B517" points="6.1812 3.5092 5.6772 2.4244 5.8952 2.3784 6.8152 4.1798 6.1812 3.509"></polygon>
                                    <polygon id="Shape" stroke="#000000" stroke-width="0.1" fill="#FFFFFF" points="5.016 1.1556 5.5748 2.6808 5.8608 2.6808 5.016 1.1556"></polygon>
                                    <path d="M6.25,3.6728 L3.9626,1.176 C3.2486,1.7416 3.381,2.78 3.381,2.78 L5.9724,4.8134 L6.2498,3.6728 L6.25,3.6728 Z" id="Shape" stroke="#000000" stroke-width="0.1" fill="#0A328C"></path>
                                    <path d="M7.572,5.047 L5.8756,3.3282 C5.1582,3.3534 5.7276,4.4242 5.7636,4.5588 L7.5722,6.1056 L7.5722,5.0472 L7.572,5.047 Z" id="Shape" stroke="#000000" stroke-width="0.1" fill="#D20014"></path>
                                    <path d="M7.428,4.7514 L3.92,0.9954 L3.783,1.092 L7.495,5.2164 L7.4278,4.7514 L7.428,4.7514 Z M3.7172,0.7544 L3.6402,0.6652 L3.6482,0.4872 L2.9242,0.0264 L3.2476,0.7544 L3.494,0.799 L3.5708,0.8882 L3.7172,0.7546 L3.7172,0.7544 Z" id="Shape" stroke="#000000" stroke-width="0.1" fill="#F1B517"></path>
                                    <path d="M3.3476,1.022 C3.4708,0.8734 3.6172,0.7248 3.879,0.5836 L4.079,0.8736 L3.648,1.2376 L3.3476,1.022 L3.3476,1.022 Z" id="Shape" stroke="#000000" stroke-width="0.1" fill="#F1B517"></path>
                                    <path d="M2.962,1.6556 L3.08,1.8608 C3.1526,1.8338 3.886,1.1694 3.886,1.1694 L4.4124,1.1534 L4.5636,0.9858 C4.1772,0.5698 3.8132,1.045 3.8132,1.045 L2.9622,1.6554 L2.962,1.6556 Z" id="Shape" stroke="#0A328C" stroke-width="0.1" fill="#0A328C"></path>
                                    <path d="M3.382,2.0014 C3.41,1.8178 3.7574,1.3586 3.808,1.3424 C4.0684,1.4204 4.3108,1.5704 4.5748,0.975 C4.3452,1.267 3.8808,0.9696 3.8808,0.9696 L3.6788,1.1372 L3.6848,1.2182 L3.0742,1.7856 L3.3822,2.0016 L3.382,2.0014 Z" id="Shape" stroke="#D20014" stroke-width="0.5" fill="#D20014"></path>
                                    <g id="Group" transform="translate(1.200000, 1.000000)" stroke-width="0.1">
                                        <path d="M4.0504,3.3344 L1.177,1.0524 C0.685,1.5528 1.094,3.0984 1.094,3.0984 L3.9026,4.62 L4.0506,3.3344 L4.0504,3.3344 Z" id="Shape" stroke="#000000" fill="#0A328C"></path>
                                        <path d="M6.4332,5.1834 L4.0696,3.29 C3.2624,3.4032 3.8968,4.5912 3.945,4.722 L6.441,6.076 L6.433,5.1834 L6.4332,5.1834 Z" id="Shape" stroke="#000000" fill="#D20014"></path>
                                        <path d="M6.3394,4.801 L1.2286,0.9646 L1.1112,1.0826 L6.4786,5.2738 L6.3394,4.8008 L6.3394,4.801 Z M0.9856,0.7614 L0.8936,0.6866 L0.8692,0.5096 L0.0732,0.1772 L0.5232,0.84 L0.7738,0.8428 L0.8654,0.9176 L0.9854,0.7616 L0.9856,0.7614 Z" id="Shape" stroke="#000000" fill="#F1B517"></path>
                                        <path d="M0.67,1.0866 C0.7644,0.9196 0.882,0.7486 1.114,0.566 L1.3634,0.818 L1.0044,1.2484 L0.6698,1.0864 L0.67,1.0866 Z" id="Shape" stroke="#000000" fill="#F1B517"></path>
                                        <path d="M0.385,1.728 L0.417,1.94 C0.4844,1.9026 1.129,1.195 1.129,1.195 L1.6462,1.0996 L1.7518,0.933 C1.3924,0.5102 1.0092,1.0726 1.0092,1.0726 L0.3852,1.7282 L0.385,1.728 Z" id="Shape" stroke="#0A328C" fill="#0A328C"></path>
                                        <path d="M0.794,2.109 C0.7696,1.9126 1.038,1.3364 1.0852,1.313 C1.3946,1.405 1.664,1.5434 1.7776,0.899 C1.5982,1.2218 1.0856,0.9716 1.0856,0.9716 L0.9136,1.1676 L0.9376,1.2736 L0.4156,1.9476 L0.7942,2.109 L0.794,2.109 Z" id="Shape" stroke="#D20014" fill="#D20014"></path>
                                    </g>
                                    <g id="Group" transform="translate(0.000000, 2.800000)">
                                        <path d="M5.0448,2.93 C5.0068,2.921 1.3414,0.842 1.3414,0.842 C1.0746,1.292 1.3158,1.946 1.4328,2.0476 C1.4396,2.3476 1.3124,2.5088 1.5742,3.1356 C1.6516,3.5426 1.8402,3.918 2.1142,4.1408 C2.4486,5.4242 3.7588,5.5104 4.2636,4.4656 L5.045,2.9302 L5.0448,2.93 Z" id="Shape" stroke="#000000" stroke-width="0.1" fill="#0A328C"></path>
                                        <path d="M7.4704,4.3024 L4.9608,2.8314 C4.1536,2.9448 4.9778,4.4426 5.026,4.5734 L7.4492,5.4342 L7.4704,4.3026 L7.4704,4.3024 Z" id="Shape" stroke="#000000" stroke-width="0.1" fill="#D20014"></path>
                                        <path d="M7.0486,3.7692 L1.3786,0.7512 L1.2818,0.8858 L7.2626,4.215 L7.0486,3.769 L7.0486,3.7692 Z M1.1056,0.5874 L1.0028,0.5274 L0.9498,0.3562 L0.1098,0.1482 L0.6612,0.7352 L0.9092,0.6998 L1.0122,0.7598 L1.1054,0.5878 L1.1056,0.5874 Z" id="Shape" stroke="#000000" stroke-width="0.1" fill="#F1B517"></path>
                                        <path d="M0.8464,0.9564 C0.9128,0.7772 1.001,0.5908 1.2008,0.375 L1.488,0.5862 L1.203,1.0662 L0.8464,0.9566 L0.8464,0.9564 Z" id="Shape" stroke="#000000" stroke-width="0.1" fill="#F1B517"></path>
                                        <path d="M0.62,1.636 L0.7386,1.8696 C0.8,1.8232 1.3394,0.954 1.3394,0.954 L1.8378,0.79 L1.9314,0.5872 C1.531,0.2172 1.2318,0.8556 1.2318,0.8556 L0.6198,1.6362 L0.62,1.636 Z" id="Shape" stroke="#0A328C" stroke-width="0.5" fill="#0A328C"></path>
                                        <path d="M1.1544,1.9672 C1.1144,1.7672 1.2512,1.1278 1.2944,1.0982 C1.6064,1.1914 1.867,1.2178 1.939,0.5742 C1.7576,0.8798 1.2734,0.7646 1.2734,0.7646 L1.1314,0.9816 L1.1614,1.0576 L0.7494,1.8476 L1.1544,1.9676 L1.1544,1.9672 Z" id="Shape" stroke="#D20014" stroke-width="0.1" fill="#D20014"></path>
                                    </g>
                                </g>
                            </g>
                        </g>
                        <g transform="translate(5.300000, 0.225000)">
                            <polygon id="Shape" stroke="#016A16" stroke-width="0.5" fill="#016A16" points="3.9514 2.5206 3.8584 4.3346 4.4384 4.3346 4.3534 2.5362 4.958 2.4516 4.891 1.7352 3.389 1.7932 3.397 2.4438 3.9514 2.5208"></polygon>
                            <g id="b" transform="translate(0.000000, 0.800000)" stroke="#000000" stroke-width="0.1" fill="#016A16">
                                <path d="M4.1634,0.9796 C2.6106,-0.5744 1.3878,0.1836 1.0966,0.3992 C1.2892,0.4366 1.4618,0.3168 1.5512,0.3032 C1.4952,0.3738 1.3782,0.5492 1.3782,0.5492 C1.3782,0.5492 1.8582,0.3222 1.9122,0.3432 C1.8428,0.3982 1.7666,0.5302 1.7666,0.5302 C1.8022,0.5442 2.0722,0.319 2.1256,0.315 C2.0436,0.4082 2.0176,0.6206 2.0176,0.6206 L2.2516,0.5116 C2.3126,0.5548 2.2348,0.6376 2.2876,0.6336 C2.6766,0.6016 3.2232,0.9888 3.2984,1.1076" id="Shape"></path>
                                <path d="M3.779,1.264 C3.617,0.8934 0.6614,0.2632 0.067,1.313 C0.2998,1.3716 0.5222,1.1178 0.5222,1.1178 L0.5022,1.3518 L0.8966,1.0494 L0.755,1.3614 L1.0686,1.1078 L1.0586,1.3618 L1.4426,0.9418 L1.3922,1.1858 L1.7362,1.0398 L1.6956,1.2444" id="Shape"></path>
                                <path d="M3.6476,1.3228 C2.889,0.8154 1.7156,1.1568 1.7156,1.1568 C0.9676,1.5768 0.5684,1.5008 0.4716,2.2788 C0.5426,2.2498 0.7448,2.0058 0.7448,2.0058 L0.8968,2.3082 L0.9468,1.8788 L1.0684,2.2108 L1.2504,1.6642 L1.291,2.035 L1.5742,1.6642 L1.7058,1.7714 L1.8272,1.4884 L1.9384,1.6738 C1.9384,1.6738 2.1308,1.5568 2.2424,1.625 L2.4544,1.381 L2.505,1.557 L2.687,1.3422 L2.758,1.4982 L2.94,1.3322 L2.93,1.4494 L3.557,1.4594" id="Shape"></path>
                                <path d="M3.476,1.4106 C2.9474,1.4006 1.4308,1.973 1.0384,2.5718 C1.12028299,2.52494731 1.20460232,2.48248722 1.291,2.4446 L1.3684,2.6852 L1.463,2.4446 L1.483,2.63 C1.541,2.4854 1.6066,2.469 1.7158,2.6204 L1.7558,2.396 L1.8168,2.6106 L1.9178,2.3766 C1.9178,2.3766 1.9814,2.6306 2.019,2.6206 C2.019,2.6206 2.1866,2.1816 2.2618,2.1618 L2.2818,2.4348 L2.383,2.1616 L2.4742,2.3664 L2.4942,2.0736 L2.5954,2.298 C2.5954,2.298 2.6486,2.0774 2.727,2.0346 L2.8786,2.1712 L3.5542,1.6858" id="Shape"></path>
                                <path d="M3.5776,1.5356 C2.8736,1.8056 2.2436,2.7716 2.2916,3.1808 C2.6046,2.7928 2.5376,2.846 2.6772,3.2928 C2.6772,3.2928 2.73,2.9018 2.7832,2.8554 L2.8752,3.1446 L2.9092,2.7662 L3.0032,2.7708 L2.9792,2.5334 L3.1188,2.6404 C3.0862,2.505 3.0512,2.4592 3.196,2.3428 C3.196,2.3428 3.0126,2.3662 3.1574,2.0358 L3.2924,2.1658 C3.2924,2.1658 3.2684,2.0218 3.3164,1.9658 L3.8134,1.7938" id="Shape"></path>
                                <path d="M3.646,1.608 L3.38,2.1148 L3.516,2.1542 L3.2092,2.3848 L3.4684,2.3584 C3.4684,2.3584 3.0728,2.5034 3.025,2.8916 L3.4276,2.714 C3.4276,2.714 3.0864,3.0628 3.0386,3.2734 L3.2706,3.0694 C3.2706,3.0694 3.0456,3.3128 3.0796,3.6814 L3.2502,3.4906 C3.2094,3.9382 3.223,3.9778 3.4278,4.32 C3.4278,4.32 3.3732,3.7934 3.4346,3.7276 L3.8846,4.195 L3.6326,3.5302 C3.6326,3.5302 3.912,3.9514 4.0826,3.9122 L3.7278,3.3722 L4.0758,3.6552 L3.6802,3.0632 L4.0482,3.1748 C4.0482,3.1748 3.7822,2.8394 3.8028,2.6288 L4.0552,2.9052 C4.0552,2.9052 3.9598,2.5892 3.9872,2.4972 L4.1166,2.5236 L3.8642,2.234 L4.0348,2.201 L4.0144,2.0104 L4.1374,1.971 L4.1306,1.7604 M3.912,1.7594 C3.4752,2.3514 3.7004,3.2664 3.4412,3.7334" id="Shape"></path>
                            </g>
                            <g id="b-link" transform="translate(5.872000, 3.300000) scale(-1, 1) translate(-5.872000, -3.300000) translate(3.372000, 0.800000)" stroke-width="0.1" stroke="#000000" fill="#016A16">
                                <g id="b">
                                    <path d="M4.1634,0.9796 C2.6106,-0.5744 1.3878,0.1836 1.0966,0.3992 C1.2892,0.4366 1.4618,0.3168 1.5512,0.3032 C1.4952,0.3738 1.3782,0.5492 1.3782,0.5492 C1.3782,0.5492 1.8582,0.3222 1.9122,0.3432 C1.8428,0.3982 1.7666,0.5302 1.7666,0.5302 C1.8022,0.5442 2.0722,0.319 2.1256,0.315 C2.0436,0.4082 2.0176,0.6206 2.0176,0.6206 L2.2516,0.5116 C2.3126,0.5548 2.2348,0.6376 2.2876,0.6336 C2.6766,0.6016 3.2232,0.9888 3.2984,1.1076" id="Shape"></path>
                                    <path d="M3.779,1.264 C3.617,0.8934 0.6614,0.2632 0.067,1.313 C0.2998,1.3716 0.5222,1.1178 0.5222,1.1178 L0.5022,1.3518 L0.8966,1.0494 L0.755,1.3614 L1.0686,1.1078 L1.0586,1.3618 L1.4426,0.9418 L1.3922,1.1858 L1.7362,1.0398 L1.6956,1.2444" id="Shape"></path>
                                    <path d="M3.6476,1.3228 C2.889,0.8154 1.7156,1.1568 1.7156,1.1568 C0.9676,1.5768 0.5684,1.5008 0.4716,2.2788 C0.5426,2.2498 0.7448,2.0058 0.7448,2.0058 L0.8968,2.3082 L0.9468,1.8788 L1.0684,2.2108 L1.2504,1.6642 L1.291,2.035 L1.5742,1.6642 L1.7058,1.7714 L1.8272,1.4884 L1.9384,1.6738 C1.9384,1.6738 2.1308,1.5568 2.2424,1.625 L2.4544,1.381 L2.505,1.557 L2.687,1.3422 L2.758,1.4982 L2.94,1.3322 L2.93,1.4494 L3.557,1.4594" id="Shape"></path>
                                    <path d="M3.476,1.4106 C2.9474,1.4006 1.4308,1.973 1.0384,2.5718 C1.12028299,2.52494731 1.20460232,2.48248722 1.291,2.4446 L1.3684,2.6852 L1.463,2.4446 L1.483,2.63 C1.541,2.4854 1.6066,2.469 1.7158,2.6204 L1.7558,2.396 L1.8168,2.6106 L1.9178,2.3766 C1.9178,2.3766 1.9814,2.6306 2.019,2.6206 C2.019,2.6206 2.1866,2.1816 2.2618,2.1618 L2.2818,2.4348 L2.383,2.1616 L2.4742,2.3664 L2.4942,2.0736 L2.5954,2.298 C2.5954,2.298 2.6486,2.0774 2.727,2.0346 L2.8786,2.1712 L3.5542,1.6858" id="Shape"></path>
                                    <path d="M3.5776,1.5356 C2.8736,1.8056 2.2436,2.7716 2.2916,3.1808 C2.6046,2.7928 2.5376,2.846 2.6772,3.2928 C2.6772,3.2928 2.73,2.9018 2.7832,2.8554 L2.8752,3.1446 L2.9092,2.7662 L3.0032,2.7708 L2.9792,2.5334 L3.1188,2.6404 C3.0862,2.505 3.0512,2.4592 3.196,2.3428 C3.196,2.3428 3.0126,2.3662 3.1574,2.0358 L3.2924,2.1658 C3.2924,2.1658 3.2684,2.0218 3.3164,1.9658 L3.8134,1.7938" id="Shape"></path>
                                    <path d="M3.646,1.608 L3.38,2.1148 L3.516,2.1542 L3.2092,2.3848 L3.4684,2.3584 C3.4684,2.3584 3.0728,2.5034 3.025,2.8916 L3.4276,2.714 C3.4276,2.714 3.0864,3.0628 3.0386,3.2734 L3.2706,3.0694 C3.2706,3.0694 3.0456,3.3128 3.0796,3.6814 L3.2502,3.4906 C3.2094,3.9382 3.223,3.9778 3.4278,4.32 C3.4278,4.32 3.3732,3.7934 3.4346,3.7276 L3.8846,4.195 L3.6326,3.5302 C3.6326,3.5302 3.912,3.9514 4.0826,3.9122 L3.7278,3.3722 L4.0758,3.6552 L3.6802,3.0632 L4.0482,3.1748 C4.0482,3.1748 3.7822,2.8394 3.8028,2.6288 L4.0552,2.9052 C4.0552,2.9052 3.9598,2.5892 3.9872,2.4972 L4.1166,2.5236 L3.8642,2.234 L4.0348,2.201 L4.0144,2.0104 L4.1374,1.971 L4.1306,1.7604 M3.912,1.7594 C3.4752,2.3514 3.7004,3.2664 3.4412,3.7334" id="Shape"></path>
                                </g>
                            </g>
                            <path d="M4.389,10.707 C4.389,10.707 4.627,8.718 4.6262,7.862 C4.6262,7.188 4.4636,5.695 4.4636,5.695 L3.78,5.695 C3.78,5.695 3.676,7.181 3.6916,7.853 C3.7116,8.709 3.9288,10.707 3.9288,10.707 L4.3888,10.707 L4.389,10.707 Z" id="Shape" stroke="#000000" stroke-width="0.1" fill="#F1B517"></path>
                            <polygon id="Shape" stroke="#000000" stroke-width="0.1" fill="#F1B517" points="3.7348 5.7906 4.5268 5.7906 4.4338 5.2574 3.8598 5.2574 3.7346 5.7906"></polygon>
                            <polygon id="Shape" stroke="#000000" stroke-width="0.1" fill="#F1B517" points="3.7854 5.3632 4.4934 5.3632 4.3598 4.83 3.9238 4.83 3.7852 5.3632"></polygon>
                            <polygon id="Shape" stroke="#000000" stroke-width="0.1" fill="#F1B517" points="3.831 4.931 4.421 4.931 4.321 4.3978 3.9458 4.3978 3.8308 4.9308"></polygon>
                            <path d="M4.342,4.3346 L3.9292,4.3346 L3.8872,4.5274 L4.3756,4.5274 L4.3416,4.3346 L4.342,4.3346 Z M4.4264,10.2734 L3.9024,10.2734 L4.4264,10.2734 Z M4.455,9.884 L3.867,9.884 L4.455,9.884 Z M4.5328,9.4888 L3.7874,9.4888 L4.5328,9.4888 Z M4.5712,9.058 L3.7912,9.058 L4.5712,9.058 Z M4.5766,8.628 L3.7562,8.628 L4.5766,8.628 Z M4.6086,8.234 L3.7186,8.234 L4.6086,8.234 Z M4.6106,7.876 L3.6806,7.876 L4.6106,7.876 Z M4.605,7.444 L3.675,7.444 L4.605,7.444 Z M4.574,7.0168 L3.675,7.0168 L4.574,7.0168 Z M4.5328,6.5828 L3.72,6.5828 L4.5328,6.5828 Z M4.4934,6.191 L3.759,6.191 L4.4934,6.191 Z" id="Shape" stroke="#000000" stroke-width="0.1" fill="#F1B517"></path>
                            <path d="M4.182,1.2088 C4.044,1.144 3.7328,0.9462 3.8252,0.8282 L3.9678,0.5856 C4.1698,0.1302 3.9638,0.3066 3.9424,0.1644 C3.9218,0.0284 4.7154,0.1348 4.7272,0.444 C4.7304,0.5292 4.6682,0.4792 4.6768,0.966 L4.5258,1.258 C4.4128,1.2684 4.279,1.255 4.1818,1.2092 L4.182,1.2088 Z" id="Shape" stroke="#0A328C" stroke-width="0.1" fill="#0A328C"></path>
                            <polygon id="Shape" stroke="#000000" stroke-width="0.5" fill="#F1B517" points="4.47974487 2.3868 4.0812 2.2208 4.19154762 0.7998 4.5812 0.8562 4.47934066 2.3866"></polygon>
                            <path d="M4.5344,1.2492 C4.6584,1.1768 4.7392,0.9606 4.6644,0.8322 C4.4612,0.575 4.3298,0.6812 3.9888,0.5652 C3.9208,0.6376 3.7778,0.7772 3.8084,0.8812 C4.2568,1.0922 4.0828,0.9122 4.2312,0.9386 C4.3112,0.9526 4.3628,1.0476 4.5344,1.2494 L4.5344,1.2492 Z" id="Shape" stroke="#D20014" stroke-width="0.5" fill="#D20014"></path>
                        </g>
                        <g transform="translate(0.100000, 8.825000)">
                            <g id="c-link" transform="translate(6.699600, 0.674000) scale(1, -1) translate(-6.699600, -0.674000) translate(6.199600, 0.474000)" stroke-width="0.5" stroke="#FFFFFF" fill="#016A16">
                                <path id="c"></path>
                            </g>
                            <path d="M7.0716,1.15 C7.0716,1.41 6.9086,1.6206 6.708,1.6206 C6.5072,1.6206 6.344,1.4098 6.344,1.15 L6.344,0.8948 L7.0716,0.8948 L7.0716,1.15 L7.0716,1.15 Z" id="Shape" stroke="#FFFFFF" stroke-width="0.1" fill="#016A16"></path>
                            <ellipse id="Oval" fill="#FFFFFF" cx="6.7078" cy="0.883" rx="0.3612" ry="0.25"></ellipse>
                            <polygon id="Shape" stroke="#F1B517" stroke-width="0.5" fill="#016A16" points="6.6753563 1.015 6.5632 0.3556 7.0632 0.3556 6.98143444 1.015"></polygon>
                            <path id="c" stroke="#FFFFFF" stroke-width="0.5" fill="#016A16"></path>
                            <g id="d">
                                <polygon id="Shape" stroke="#000000" stroke-width="0.1" fill="#F1B517" points="8.607 3.3572 7.195 2.9192 6.5798 1.8684 4.401 1.7614 4.4766 2.5494 6.3326 2.9048 6.509 3.2208 8.6422 3.8148 8.6068 3.3572"></polygon>
                                <polygon id="Shape" stroke="#000000" stroke-width="0.1" fill="#503200" points="7.1324 3.6508 4.9026 0.3712 4.7932 0.4532 7.0052 3.7468"></polygon>
                                <path d="M5.11,0.5 L4.872,0.1016 C4.8276,0.028 4.76,0.0036 4.6604,0.056 C4.5636,0.107 4.573,0.208 4.6124,0.2806 L4.8324,0.651 L5.1104,0.5 L5.11,0.5 Z" id="Shape" stroke="#000000" stroke-width="0.1" fill="#FFFFFF"></path>
                                <polygon id="Shape" stroke="#000000" stroke-width="0.1" fill="#F1B517" points="7.3972 1.6254 2.898 1.1682 2.7886 1.8226 7.266 2.2726 7.3972 1.6256"></polygon>
                                <path d="M2.818,0.9994 L2.7012,1.907 L2.8908,1.907 L3.022,1.077 L2.818,0.9994 L2.818,0.9994 Z M3.5688,1.147 L3.5178,1.963 L3.6342,1.977 L3.729,1.2526 L3.5686,1.147 L3.5688,1.147 Z M6.617,1.4988 L6.5076,2.2656 L6.7264,2.2586 L6.8138,1.4986 L6.6168,1.4986 L6.617,1.4988 Z M7.2872,1.52 L7.1312,2.4066 L7.3792,2.4426 L7.4498,1.9762 C7.4698,2.0702 7.5558,2.1412 7.6588,2.1412 C7.7768,2.1412 7.8728,2.0484 7.8728,1.9348 C7.8728,1.8212 7.7768,1.7296 7.6588,1.7296 C7.5768,1.7296 7.5028,1.7776 7.4708,1.867 L7.5168,1.5346 L7.2868,1.52 L7.2872,1.52 Z M5.6634,1.664 L5.0446,2.36 L5.1166,2.4448 L5.911,1.9028 L5.6634,1.6638 L5.6634,1.664 Z M4.2248,3.4 L4.8436,2.7036 L4.7716,2.619 L3.9772,3.161 L4.2248,3.4 L4.2248,3.4 Z M5.844,3.226 L5.0912,2.644 L5.0138,2.6984 L5.6066,3.4496 L5.8438,3.2256 L5.844,3.226 Z M3.9876,1.8826 L4.7508,2.4446 L4.8436,2.375 L4.2456,1.624 L3.9876,1.8826 L3.9876,1.8826 Z M4.818,1.4188 L4.891,2.3334 L4.9936,2.329 L5.235,1.4386 L4.818,1.4186 L4.818,1.4188 Z M5.068,3.638 L4.9952,2.7232 L4.8822,2.7126 L4.7442,3.6378 L5.0682,3.6378 L5.068,3.638 Z M6.08,2.4052 L5.1212,2.5072 L5.1066,2.5986 L6.0766,2.7254 L6.0802,2.4054 L6.08,2.4052 Z M3.7986,2.722 L4.7346,2.574 L4.7546,2.501 L3.7862,2.393 L3.7988,2.7218 L3.7986,2.722 Z" id="Shape" stroke="#000000" stroke-width="0.1" fill="#F1B517"></path>
                                <ellipse id="Oval" stroke="#000000" stroke-width="0.5" fill="#F1B517" cx="4.9386" cy="2.5146" rx="0.254" ry="0.25"></ellipse>
                                <path d="M6.2876,2.5096 C6.2876,3.228 5.6832,3.811 4.9386,3.811 C4.194,3.811 3.5896,3.228 3.5896,2.5096 C3.5896,1.7912 4.194,1.2082 4.9386,1.2082 C5.6832,1.2082 6.2876,1.7914 6.2876,2.5098 L6.2876,2.5096 Z M6.0182,2.5096 C6.0182,3.0844 5.5346,3.551 4.9388,3.551 C4.3428,3.551 3.8592,3.0844 3.8592,2.5096 C3.8592,1.9348 4.3432,1.4682 4.9388,1.4682 C5.5348,1.4682 6.0184,1.935 6.0184,2.5098 L6.0182,2.5096 Z" id="Shape" stroke="#000000" stroke-width="0.1" fill="#F1B517"></path>
                                <path d="M4.096,1.8528 L3.8846,1.6936 L4.096,1.8528 Z M5.6068,1.6986 L5.7872,1.5146 L5.6068,1.6986 Z M5.9934,3.34 L5.7714,3.166 L5.9934,3.34 Z M4.096,3.5392 L4.2868,3.3352 L4.096,3.5392 Z M8.6392,1.2244 L8.8702,2.4016 L8.6822,2.501 L8.4792,1.241 L8.6392,1.2244 L8.6392,1.2244 Z" id="Shape" stroke="#000000" stroke-width="0.5" fill="#F1B517"></path>
                                <path d="M8.5184,1.0728 C8.4114,1.028 8.272,1.1038 8.0436,0.8144 C7.668,1.159 8.0222,1.2104 8.0796,1.5516 C8.1856,1.5952 8.251,1.287 8.5396,1.2556 C8.5756,1.2516 8.9996,1.2148 8.9996,1.2148 L8.893,1.0696 C8.893,1.0696 8.5982,1.0776 8.5184,1.0728 L8.5184,1.0728 Z" id="Shape" stroke="#000000" stroke-width="0.1" fill="#FFFFFF"></path>
                                <path id="Shape" stroke="#000000" stroke-width="0.5" fill="#FFFFFF"></path>
                                <path d="M7.553,2.2744 L7.557,2.6018 C7.4496,2.6382 7.466,2.7186 7.4694,2.8352 L7.4734,3.7896 C7.4354,3.8526 7.3174,3.8556 7.2624,3.9052 C7.207,3.9548 7.214,4.0512 7.4664,4.1146 L7.6614,4.1216 C7.9586,4.0566 8.02,3.958 7.871,3.9026 C7.7916,3.873 7.687,3.8378 7.6476,3.7912 L7.6542,3.5638 L7.8472,3.571 C7.8992,3.571 7.9978,3.4406 8.0012,3.334 L8.0022,2.84 C7.9952,2.56 7.7852,2.5284 7.7262,2.532 L7.7302,2.274 L7.5532,2.2744 L7.553,2.2744 Z M7.879,2.8204 C7.8826,2.7404 7.768,2.669 7.7218,2.667 C7.6758,2.665 7.5748,2.7604 7.5714,2.8404 L7.5714,3.0404 C7.5782,3.1138 7.6368,3.3624 7.7544,3.3804 C7.8104,3.3892 7.8824,3.3004 7.8824,3.2272 L7.879,2.8204 L7.879,2.8204 Z" id="Shape" stroke="#000000" stroke-width="0.1" fill="#F1B517"></path>
                                <path d="M6.255,3.2656 C6.1278,3.2142 6.129,3.5 6.129,3.5 L6.3294,3.502 C6.4174,3.542 6.4878,3.6706 6.4318,3.734 C6.3854,3.786 5.9962,3.6456 5.9698,3.7264 C6.0388,4.1144 6.5534,4.264 6.7398,4.0944 C6.9218,3.928 6.9678,3.4844 6.3762,3.3684 L6.2548,3.2656 L6.255,3.2656 Z M6.374,3.3712 L6.3156,3.4992 L6.374,3.3712 Z" id="Shape" stroke="#000000" stroke-width="0.1" fill="#FFFFFF"></path>
                                <path d="M2.3886,3.411 L2.196,2.601 M2.6224,3.3644 L2.3264,2.7338 M3.1316,3.1986 L2.4642,2.8402 M3.4206,3.1256 L2.1822,2.588" id="Shape" stroke="#000000" stroke-width="0.1" fill="#F1B517"></path>
                                <path d="M1.443,2.0026 C1.443,2.0026 0.9922,1.9954 0.9118,2.027 C0.8792,2.0398 1.025,2.192 0.9948,2.25 C0.8822,2.4666 0.116,2.4368 0.0554,2.3896 C-0.0486,2.3086 0.769,2.239 0.7744,2.1836 C0.7804,2.1206 0.6534,1.9546 0.6732,1.8528 C0.6988,1.7208 1.0308,1.6714 1.0308,1.6714 L1.4428,2.0026 L1.443,2.0026 Z" id="Shape" stroke="#D20014" stroke-width="0.1" fill="#D20014"></path>
                                <path d="M2.0466,2.41 L1.0262,1.5656 C1.0262,1.5656 0.9814,1.518 0.9438,1.559 C0.907,1.599 0.9578,1.645 0.9578,1.645 L2.0102,2.515 L2.0468,2.41 L2.0466,2.41 Z" id="Shape" stroke="#000000" stroke-width="0.1" fill="#503200"></path>
                                <path d="M3.0292,3.2434 C3.0112,3.226 2.1982,2.5218 2.1982,2.5218 L2.1442,2.3158 C2.1442,2.3158 2.0186,2.401 1.9726,2.445 C1.9266,2.489 1.8552,2.609 1.8552,2.609 L2.0828,2.619 L2.8018,3.278 L3.0294,3.2434 L3.0292,3.2434 Z" id="Shape" stroke="#000000" stroke-width="0.1" fill="#F1B517"></path>
                                <g id="Group" transform="translate(3.000000, 3.600000)" stroke="#000000" stroke-width="0.5" fill="#F1B517">
                                    <circle id="Oval" cx="3.0088" cy="0.7182" r="0.25"></circle>
                                    <circle id="Oval" cx="2.6302" cy="0.4502" r="0.25"></circle>
                                    <circle id="Oval" cx="2.1202" cy="0.6256" r="0.25"></circle>
                                    <circle id="Oval" cx="1.3326" cy="0.796" r="0.25"></circle>
                                    <circle id="Oval" cx="0.9994" cy="0.835" r="0.25"></circle>
                                    <circle id="Oval" cx="0.6712" cy="0.835" r="0.25"></circle>
                                    <circle id="Oval" cx="0.338" cy="0.8252" r="0.25"></circle>
                                    <circle id="Oval" cx="0.4996" cy="0.572" r="0.25"></circle>
                                    <circle id="Oval" cx="0.8228" cy="0.5866" r="0.25"></circle>
                                    <circle id="Oval" cx="1.1308" cy="0.5476" r="0.25"></circle>
                                    <circle id="Oval" cx="0.9742" cy="0.2992" r="0.25"></circle>
                                    <circle id="Oval" cx="0.6712" cy="0.2944" r="0.25"></circle>
                                </g>
                                <path id="Shape" stroke="#000000" stroke-width="0.5" fill="#F1B517"></path>
                            </g>
                            <g id="d-link" transform="translate(14.272000, 2.500000) scale(-1, 1) translate(-14.272000, -2.500000) translate(9.772000, 0.000000)">
                                <g id="d">
                                    <polygon id="Shape" stroke="#000000" stroke-width="0.1" fill="#F1B517" points="8.607 3.3572 7.195 2.9192 6.5798 1.8684 4.401 1.7614 4.4766 2.5494 6.3326 2.9048 6.509 3.2208 8.6422 3.8148 8.6068 3.3572"></polygon>
                                    <polygon id="Shape" stroke="#000000" stroke-width="0.1" fill="#503200" points="7.1324 3.6508 4.9026 0.3712 4.7932 0.4532 7.0052 3.7468"></polygon>
                                    <path d="M5.11,0.5 L4.872,0.1016 C4.8276,0.028 4.76,0.0036 4.6604,0.056 C4.5636,0.107 4.573,0.208 4.6124,0.2806 L4.8324,0.651 L5.1104,0.5 L5.11,0.5 Z" id="Shape" stroke="#000000" stroke-width="0.1" fill="#FFFFFF"></path>
                                    <polygon id="Shape" stroke="#000000" stroke-width="0.1" fill="#F1B517" points="7.3972 1.6254 2.898 1.1682 2.7886 1.8226 7.266 2.2726 7.3972 1.6256"></polygon>
                                    <path d="M2.818,0.9994 L2.7012,1.907 L2.8908,1.907 L3.022,1.077 L2.818,0.9994 L2.818,0.9994 Z M3.5688,1.147 L3.5178,1.963 L3.6342,1.977 L3.729,1.2526 L3.5686,1.147 L3.5688,1.147 Z M6.617,1.4988 L6.5076,2.2656 L6.7264,2.2586 L6.8138,1.4986 L6.6168,1.4986 L6.617,1.4988 Z M7.2872,1.52 L7.1312,2.4066 L7.3792,2.4426 L7.4498,1.9762 C7.4698,2.0702 7.5558,2.1412 7.6588,2.1412 C7.7768,2.1412 7.8728,2.0484 7.8728,1.9348 C7.8728,1.8212 7.7768,1.7296 7.6588,1.7296 C7.5768,1.7296 7.5028,1.7776 7.4708,1.867 L7.5168,1.5346 L7.2868,1.52 L7.2872,1.52 Z M5.6634,1.664 L5.0446,2.36 L5.1166,2.4448 L5.911,1.9028 L5.6634,1.6638 L5.6634,1.664 Z M4.2248,3.4 L4.8436,2.7036 L4.7716,2.619 L3.9772,3.161 L4.2248,3.4 L4.2248,3.4 Z M5.844,3.226 L5.0912,2.644 L5.0138,2.6984 L5.6066,3.4496 L5.8438,3.2256 L5.844,3.226 Z M3.9876,1.8826 L4.7508,2.4446 L4.8436,2.375 L4.2456,1.624 L3.9876,1.8826 L3.9876,1.8826 Z M4.818,1.4188 L4.891,2.3334 L4.9936,2.329 L5.235,1.4386 L4.818,1.4186 L4.818,1.4188 Z M5.068,3.638 L4.9952,2.7232 L4.8822,2.7126 L4.7442,3.6378 L5.0682,3.6378 L5.068,3.638 Z M6.08,2.4052 L5.1212,2.5072 L5.1066,2.5986 L6.0766,2.7254 L6.0802,2.4054 L6.08,2.4052 Z M3.7986,2.722 L4.7346,2.574 L4.7546,2.501 L3.7862,2.393 L3.7988,2.7218 L3.7986,2.722 Z" id="Shape" stroke="#000000" stroke-width="0.1" fill="#F1B517"></path>
                                    <ellipse id="Oval" stroke="#000000" stroke-width="0.5" fill="#F1B517" cx="4.9386" cy="2.5146" rx="0.254" ry="0.25"></ellipse>
                                    <path d="M6.2876,2.5096 C6.2876,3.228 5.6832,3.811 4.9386,3.811 C4.194,3.811 3.5896,3.228 3.5896,2.5096 C3.5896,1.7912 4.194,1.2082 4.9386,1.2082 C5.6832,1.2082 6.2876,1.7914 6.2876,2.5098 L6.2876,2.5096 Z M6.0182,2.5096 C6.0182,3.0844 5.5346,3.551 4.9388,3.551 C4.3428,3.551 3.8592,3.0844 3.8592,2.5096 C3.8592,1.9348 4.3432,1.4682 4.9388,1.4682 C5.5348,1.4682 6.0184,1.935 6.0184,2.5098 L6.0182,2.5096 Z" id="Shape" stroke="#000000" stroke-width="0.1" fill="#F1B517"></path>
                                    <path d="M4.096,1.8528 L3.8846,1.6936 L4.096,1.8528 Z M5.6068,1.6986 L5.7872,1.5146 L5.6068,1.6986 Z M5.9934,3.34 L5.7714,3.166 L5.9934,3.34 Z M4.096,3.5392 L4.2868,3.3352 L4.096,3.5392 Z M8.6392,1.2244 L8.8702,2.4016 L8.6822,2.501 L8.4792,1.241 L8.6392,1.2244 L8.6392,1.2244 Z" id="Shape" stroke="#000000" stroke-width="0.5" fill="#F1B517"></path>
                                    <path d="M8.5184,1.0728 C8.4114,1.028 8.272,1.1038 8.0436,0.8144 C7.668,1.159 8.0222,1.2104 8.0796,1.5516 C8.1856,1.5952 8.251,1.287 8.5396,1.2556 C8.5756,1.2516 8.9996,1.2148 8.9996,1.2148 L8.893,1.0696 C8.893,1.0696 8.5982,1.0776 8.5184,1.0728 L8.5184,1.0728 Z" id="Shape" stroke="#000000" stroke-width="0.1" fill="#FFFFFF"></path>
                                    <path id="Shape" stroke="#000000" stroke-width="0.5" fill="#FFFFFF"></path>
                                    <path d="M7.553,2.2744 L7.557,2.6018 C7.4496,2.6382 7.466,2.7186 7.4694,2.8352 L7.4734,3.7896 C7.4354,3.8526 7.3174,3.8556 7.2624,3.9052 C7.207,3.9548 7.214,4.0512 7.4664,4.1146 L7.6614,4.1216 C7.9586,4.0566 8.02,3.958 7.871,3.9026 C7.7916,3.873 7.687,3.8378 7.6476,3.7912 L7.6542,3.5638 L7.8472,3.571 C7.8992,3.571 7.9978,3.4406 8.0012,3.334 L8.0022,2.84 C7.9952,2.56 7.7852,2.5284 7.7262,2.532 L7.7302,2.274 L7.5532,2.2744 L7.553,2.2744 Z M7.879,2.8204 C7.8826,2.7404 7.768,2.669 7.7218,2.667 C7.6758,2.665 7.5748,2.7604 7.5714,2.8404 L7.5714,3.0404 C7.5782,3.1138 7.6368,3.3624 7.7544,3.3804 C7.8104,3.3892 7.8824,3.3004 7.8824,3.2272 L7.879,2.8204 L7.879,2.8204 Z" id="Shape" stroke="#000000" stroke-width="0.1" fill="#F1B517"></path>
                                    <path d="M6.255,3.2656 C6.1278,3.2142 6.129,3.5 6.129,3.5 L6.3294,3.502 C6.4174,3.542 6.4878,3.6706 6.4318,3.734 C6.3854,3.786 5.9962,3.6456 5.9698,3.7264 C6.0388,4.1144 6.5534,4.264 6.7398,4.0944 C6.9218,3.928 6.9678,3.4844 6.3762,3.3684 L6.2548,3.2656 L6.255,3.2656 Z M6.374,3.3712 L6.3156,3.4992 L6.374,3.3712 Z" id="Shape" stroke="#000000" stroke-width="0.1" fill="#FFFFFF"></path>
                                    <path d="M2.3886,3.411 L2.196,2.601 M2.6224,3.3644 L2.3264,2.7338 M3.1316,3.1986 L2.4642,2.8402 M3.4206,3.1256 L2.1822,2.588" id="Shape" stroke="#000000" stroke-width="0.1" fill="#F1B517"></path>
                                    <path d="M1.443,2.0026 C1.443,2.0026 0.9922,1.9954 0.9118,2.027 C0.8792,2.0398 1.025,2.192 0.9948,2.25 C0.8822,2.4666 0.116,2.4368 0.0554,2.3896 C-0.0486,2.3086 0.769,2.239 0.7744,2.1836 C0.7804,2.1206 0.6534,1.9546 0.6732,1.8528 C0.6988,1.7208 1.0308,1.6714 1.0308,1.6714 L1.4428,2.0026 L1.443,2.0026 Z" id="Shape" stroke="#D20014" stroke-width="0.1" fill="#D20014"></path>
                                    <path d="M2.0466,2.41 L1.0262,1.5656 C1.0262,1.5656 0.9814,1.518 0.9438,1.559 C0.907,1.599 0.9578,1.645 0.9578,1.645 L2.0102,2.515 L2.0468,2.41 L2.0466,2.41 Z" id="Shape" stroke="#000000" stroke-width="0.1" fill="#503200"></path>
                                    <path d="M3.0292,3.2434 C3.0112,3.226 2.1982,2.5218 2.1982,2.5218 L2.1442,2.3158 C2.1442,2.3158 2.0186,2.401 1.9726,2.445 C1.9266,2.489 1.8552,2.609 1.8552,2.609 L2.0828,2.619 L2.8018,3.278 L3.0294,3.2434 L3.0292,3.2434 Z" id="Shape" stroke="#000000" stroke-width="0.1" fill="#F1B517"></path>
                                    <g id="Group" transform="translate(3.000000, 3.600000)" stroke="#000000" stroke-width="0.5" fill="#F1B517">
                                        <circle id="Oval" cx="3.0088" cy="0.7182" r="0.25"></circle>
                                        <circle id="Oval" cx="2.6302" cy="0.4502" r="0.25"></circle>
                                        <circle id="Oval" cx="2.1202" cy="0.6256" r="0.25"></circle>
                                        <circle id="Oval" cx="1.3326" cy="0.796" r="0.25"></circle>
                                        <circle id="Oval" cx="0.9994" cy="0.835" r="0.25"></circle>
                                        <circle id="Oval" cx="0.6712" cy="0.835" r="0.25"></circle>
                                        <circle id="Oval" cx="0.338" cy="0.8252" r="0.25"></circle>
                                        <circle id="Oval" cx="0.4996" cy="0.572" r="0.25"></circle>
                                        <circle id="Oval" cx="0.8228" cy="0.5866" r="0.25"></circle>
                                        <circle id="Oval" cx="1.1308" cy="0.5476" r="0.25"></circle>
                                        <circle id="Oval" cx="0.9742" cy="0.2992" r="0.25"></circle>
                                        <circle id="Oval" cx="0.6712" cy="0.2944" r="0.25"></circle>
                                    </g>
                                    <path id="Shape" stroke="#000000" stroke-width="0.5" fill="#F1B517"></path>
                                </g>
                            </g>
                            <g transform="translate(8.400000, 1.800000)" id="Shape">
                                <path d="M0.9674,0.1436 C0.465,0.1436 0.0574,0.3324 0.0574,0.564 C0.0574,0.604 0.0688,0.642 0.0914,0.6784 C0.1998,0.8044 0.5526,0.8958 0.9708,0.8958 C1.3622,0.8958 1.6958,0.8152 1.8262,0.7018 C1.8592,0.6584 1.8776,0.6124 1.8776,0.5638 C1.8776,0.3322 1.47,0.1434 0.9676,0.1434 L0.9674,0.1436 Z" stroke="#0A328C" stroke-width="0.1" fill="#0A328C"></path>
                                <path d="M1.8854,0.596 L1.8854,2.008 C1.8854,2.1734 1.4758,2.3076 0.971,2.3076 C0.4662,2.3076 0.0564,2.1736 0.0564,2.0076 L0.0564,0.5962 C0.0564,0.7622 0.4664,0.8962 0.971,0.8962 C1.4758,0.8962 1.8854,0.7622 1.8854,0.5962 L1.8854,0.596 Z" stroke="#000000" stroke-width="0.5" fill="#F1B517"></path>
                                <path d="M0.0564,0.5964 L0.0564,0.8128 L0.5004,2.1818 L0.8548,1.1288 L1.244,2.2218 L1.529,1.1898 L1.8856,1.8838 L1.8856,1.4998 L1.5544,0.8272 C1.51520936,0.837587421 1.47564917,0.846526823 1.4358,0.854 L1.2298,1.6166 L0.9406,0.8958 C0.892901149,0.895374531 0.845220018,0.893774046 0.7976,0.891 L0.5068,1.6164 L0.1748,0.743 C0.0994,0.6996 0.056,0.6498 0.056,0.5962 L0.0564,0.5964 Z" stroke="#D20014" stroke-width="0.5" fill="#D20014"></path>
                                <path d="M1.8854,1.744 L1.8854,2.008 C1.8854,2.1732 1.4758,2.3076 0.971,2.3076 C0.4662,2.3076 0.0564,2.1732 0.0564,2.0076 L0.0564,1.7442 C0.0564,1.9102 0.4664,2.0442 0.971,2.0442 C1.4758,2.0442 1.8854,1.9102 1.8854,1.7442 L1.8854,1.744 Z" stroke="#0A328C" stroke-width="0.5" fill="#0A328C"></path>
                                <path d="M1.3474,2.017 C1.273,2.028 1.1934,2.0364 1.1104,2.0406 L1.1124,2.304 C1.196,2.3 1.2754,2.2916 1.3498,2.2804 L1.3472,2.017 L1.3474,2.017 Z M0.3736,1.971 L0.3712,2.2334 C0.4418,2.2534 0.5212,2.2704 0.6084,2.2826 L0.6084,2.0192 C0.529144589,2.00848881 0.450700452,1.99245253 0.3736,1.9712 L0.3736,1.971 Z M0.0564,1.7446 L0.0564,2.008 C0.0564,2.0572 0.0934,2.1028 0.1576,2.144 L0.1622,1.8836 C0.0952,1.8416 0.0566,1.795 0.0566,1.7446 L0.0564,1.7446 Z M1.8856,1.7726 L1.881,1.7738 C1.865,1.827 1.805,1.8768 1.715,1.9182 L1.716,2.1806 C1.822,2.1316 1.8856,2.0726 1.8856,2.008 L1.8856,1.7726 L1.8856,1.7726 Z" stroke="#000000" stroke-width="0.1" fill="#F1B517"></path>
                                <path d="M1.8854,0.6054 L1.8854,2.0078 C1.8854,2.1732 1.4758,2.3074 0.971,2.3074 C0.4662,2.3074 0.0564,2.1734 0.0564,2.0074 L0.0564,0.6054" stroke="#000000" stroke-width="0.1"></path>
                                <path stroke="#FFFFFF" stroke-width="0.5" fill="#FFFFFF"></path>
                                <path d="M0.7396,0.638 L0.771,0.888 C0.8324,0.8924 0.8962,0.8956 0.9616,0.896 L1.008,0.638 L0.7396,0.638 L0.7396,0.638 Z M1.56,0.5774 L1.378,0.6268 L1.3894,0.8622 C1.4514,0.8518 1.5098,0.839 1.5626,0.8242 L1.5602,0.5776 L1.56,0.5774 Z M0.4794,0.196 C0.4274,0.211 0.3794,0.2288 0.3354,0.2484 L0.3608,0.4374 L0.4768,0.4004 L0.4794,0.1958 L0.4794,0.196 Z M0.9674,0.1212 C0.943,0.1212 0.9194,0.1226 0.8954,0.1232 L0.9348,0.36 L1.0558,0.3576 L1.1032,0.1268 C1.05794587,0.123347484 1.01258478,0.121479674 0.9672,0.1212 L0.9674,0.1212 Z M1.502,0.2048 L1.4776,0.4116 L1.6156,0.4604 L1.631,0.2574 C1.58920944,0.237035648 1.54611497,0.219463796 1.502,0.2048 L1.502,0.2048 Z" stroke="#000000" stroke-width="0.1" fill="#F1B517"></path>
                                <path stroke="#000000" stroke-width="0.5" fill="#F1B517"></path>
                            </g>
                            <path d="M12.1372,0.806 C12.3032,0.7828 12.5496,1.0106 12.5644,1.2924 C12.5764,1.516 12.2264,1.5044 12.2264,1.5044 C12.2084,1.596 12.0154,1.6804 11.8584,1.6876 C11.7058,1.6942 11.8998,1.4012 11.8998,1.4012 C11.8046,1.1492 11.9292,0.8516 11.9292,0.8516 L12.1372,0.8056 L12.1372,0.806 Z" id="Shape" stroke="#000000" stroke-width="0.1" fill="#F1B517"></path>
                            <path id="Shape" stroke="#000000" stroke-width="0.5" fill="#F1B517"></path>
                            <path id="Shape" stroke="#F1B517" stroke-width="0.5" fill="#D20014"></path>
                            <path d="M2.2484,3.771 C2.125,3.7866 2.1024,3.9286 2.1484,4.059 C1.6112,4.2102 1.1312,4.407 0.6574,4.5402 C0.6384,4.4456 0.8922,4.1714 0.8922,4.1714 C0.9596,4.2038 1.0098,4.3574 1.0098,4.3574 C1.0266,4.0418 1.3378,3.8318 1.3378,3.8318 C1.1528,3.8074 0.5912,4.0252 0.5238,4.1142 C0.5238,4.1142 0.7414,4.0902 0.775,4.1142 C0.775,4.1142 0.347,4.5766 0.3276,4.7142 C0.3942,4.8642 1.133,4.9762 1.133,4.9762 C1.1214,5.0154 0.9156,5.1626 0.9156,5.1626 C1.2096,5.227 1.6526,5.019 1.785,4.8926 C1.785,4.8926 1.4394,4.8638 1.1702,4.6456 C1.1702,4.6456 1.2256,4.7816 1.1922,4.8464 C1.1922,4.8464 0.7722,4.7256 0.7286,4.656 C0.7298,4.65 1.7218,4.393 2.2022,4.256 C2.2198,4.3416 2.3152,4.5036 2.4298,4.4654 C2.5046,4.4404 2.481,4.2922 2.4532,4.1874 C2.48132509,4.21147215 2.51718046,4.22460728 2.5542,4.2244 C2.6386,4.2244 2.7076,4.159 2.7076,4.0774 C2.7076,3.996 2.6386,3.9294 2.5542,3.9294 C2.48952238,3.92875073 2.43161425,3.96936685 2.4102,4.0304 C2.391,3.9398 2.3412,3.7596 2.2486,3.7714 L2.2484,3.771 Z M2.6264,4.0766 C2.6264,4.1146 2.594,4.1456 2.5544,4.1456 C2.51567109,4.14615776 2.48376624,4.11532535 2.483,4.0766 C2.483,4.0386 2.515,4.0076 2.5546,4.0076 C2.594,4.0076 2.6262,4.0384 2.6262,4.0766 L2.6264,4.0766 Z" id="Shape" stroke="#000000" stroke-width="0.1" fill="#F1B517"></path>
                            <g transform="translate(16.000000, 3.200000)" id="Shape" stroke="#000000" fill="#F1B517">
                                <path d="M2.0136,1.1768 C2.0502,1.1034 1.9812,0.7344 1.9812,0.7344 C1.9066,0.7428 1.8048,0.8704 1.8048,0.8704 C1.9008,0.5684 1.6318,0.0632 1.6318,0.0632 C1.8138,0.1012 2.4206,0.6888 2.4522,0.7946 C2.4522,0.7946 2.1862,0.6998 2.1462,0.7116 C2.1896,1.0128 2.3978,1.1526 2.4762,1.3092 C2.4762,1.3092 2.131,1.3852 2.1656,1.6736 L1.94,1.6776 C1.862,1.5816 1.9704,1.4226 1.9704,1.4226 L0.4224,0.7746 C0.3228,0.7326 0.0984,0.6306 0.1324,0.5106 C0.166,0.39 0.5354,0.561 0.6264,0.5906 L2.0132,1.1766 L2.0136,1.1768 Z" stroke-width="0.1"></path>
                                <path stroke-width="0.5"></path>
                            </g>
                        </g>
                        <g transform="translate(1.875000, 13.125000)" id="Shape" stroke="#000000" fill="#FFFFFF">
                            <polygon stroke-width="0.293" points="3.919375 0.640842593 3.90632698 0.20825 3.44547103 0.237138889 3.419375 0.70825 3.919375 0.640990741"></polygon>
                            <path d="M0.6725,1.08475 L0.08225,0.75375 C2.516,0.97675 3.013,0.128 3.601,0.0825 C3.962625,0.05425 4.019,0.482875 3.3185,0.279 L3.49975,0.72725 C3.49975,0.72725 1.772,1.69925 0.073875,1.29775 L0.672625,1.08475 L0.6725,1.08475 Z M11.27475,0.57325 L11.28725,0.20825 L11.82725,0.22075 L11.8525,0.61825 L11.27475,0.57325 L11.27475,0.57325 Z" stroke-width="0.1"></path>
                            <path d="M14.61275,0.995375 L15.168125,0.692375 C12.380375,0.77525 13.015125,0.234375 11.62025,0.082625 C11.259875,0.0435 10.989,0.50675 11.90275,0.279125 L11.72175,0.727375 L12.160125,0.72775 C13.109875,1.353125 14.391375,1.409 15.2405,1.208125 L14.613,0.99525 L14.61275,0.995375 Z" stroke-width="0.1"></path>
                            <path d="M3.30875,0.281625 L3.30875,0.9125 C3.30875,0.9125 4.85425,1.485875 7.6125,1.485875 C10.3825,1.485875 11.91625,0.9125 11.91625,0.9125 L11.91625,0.281625 C11.91625,0.281625 10.74625,0.820625 7.6125,0.820625 C4.49025,0.820625 3.30875,0.281625 3.30875,0.281625 L3.30875,0.281625 Z" stroke-width="0.1"></path>
                        </g>
                        <path d="M5.414625,14.041 L5.550875,13.579125 L5.614375,13.596625 L5.494,14.003875 L5.729875,14.068875 L5.713625,14.123375 L5.4145,14.041125 L5.414625,14.041 Z M5.861875,13.837875 L5.869375,13.747125 L5.889875,13.669375 L5.957375,13.685625 L5.936875,13.763625 L5.898125,13.846625 L5.861875,13.837875 L5.861875,13.837875 Z M6.526875,13.806625 L6.5915,13.819375 L6.534,14.09125 C6.524,14.13875 6.510625,14.175 6.49375,14.20075 C6.47576957,14.2271195 6.449578,14.2468071 6.41925,14.25675 C6.38675,14.2685 6.34675,14.26975 6.299875,14.2605 C6.254,14.25175 6.21825,14.23675 6.192375,14.21575 C6.16746034,14.1963218 6.15034044,14.1686018 6.144125,14.137625 C6.137875,14.106375 6.139875,14.065875 6.150375,14.016125 L6.207875,13.744125 L6.27225,13.756875 L6.21475,14.028375 C6.20625,14.06925 6.20375,14.10025 6.207625,14.121125 C6.21133876,14.1419018 6.22243727,14.1606361 6.238875,14.173875 C6.25575,14.188125 6.278,14.198 6.30575,14.203375 C6.35325,14.21275 6.38925,14.209 6.413875,14.192125 C6.438375,14.175375 6.456875,14.1375 6.469375,14.078375 L6.526625,13.806875 L6.526875,13.806625 Z M6.599625,14.30875 L6.679875,13.83475 L6.7465,13.845375 L6.9415,14.258125 L7.0045,13.886 L7.067,13.896 L6.9865,14.36975 L6.91975,14.35925 L6.72475,13.946125 L6.661625,14.318625 L6.599375,14.308625 L6.599625,14.30875 Z M7.10775,14.3855 L7.176125,13.90975 L7.241125,13.9185 L7.172875,14.39425 L7.107625,14.3855 L7.10775,14.3855 Z M7.29525,14.1755 C7.304625,14.0965 7.334,14.03675 7.3835,13.997 C7.432875,13.957 7.49225,13.94075 7.56225,13.9485 C7.60775,13.9535 7.647625,13.9685 7.681875,13.99375 C7.716,14.01875 7.740625,14.05125 7.75525,14.091 C7.77,14.13075 7.774625,14.1745 7.769,14.22225 C7.7643586,14.267551 7.74860031,14.3110044 7.723125,14.34875 C7.69963694,14.3836823 7.6660628,14.4106288 7.626875,14.426 C7.58760003,14.4415535 7.545084,14.4471364 7.503125,14.44225 C7.45940616,14.4381517 7.41764512,14.4221563 7.382375,14.396 C7.34889877,14.371205 7.32350087,14.3370657 7.309375,14.297875 C7.29498989,14.2588335 7.29010525,14.2169284 7.295125,14.175625 L7.29525,14.1755 Z M7.36275,14.18425 C7.355875,14.24175 7.3665,14.288625 7.394625,14.32525 C7.42275,14.361875 7.460875,14.38275 7.509375,14.38825 C7.558625,14.393625 7.601125,14.381375 7.636875,14.3515 C7.672625,14.3215 7.694375,14.275875 7.7015,14.2145 C7.706125,14.17575 7.70325,14.141 7.693125,14.1105 C7.683125,14.080125 7.665625,14.0555 7.641375,14.03675 C7.61668364,14.0177315 7.58714344,14.0060367 7.556125,14.003 C7.509875,13.998 7.468125,14.008875 7.431125,14.035875 C7.394,14.062875 7.371125,14.112125 7.36275,14.184125 L7.36275,14.18425 Z M7.824375,14.467375 L7.864875,13.988625 L7.932125,13.993875 L8.160875,14.390125 L8.19275,14.014375 L8.255625,14.019375 L8.215125,14.498125 L8.147625,14.49275 L7.918875,14.096 L7.887125,14.472 L7.82425,14.467 L7.824375,14.467375 Z M8.522125,14.51575 L8.543875,14.036 L8.8795,14.05 L8.877,14.106625 L8.60725,14.095375 L8.600625,14.24375 L8.834,14.25375 L8.8315,14.31025 L8.598125,14.30025 L8.588125,14.518375 L8.5225,14.5155 L8.522125,14.51575 Z M8.888875,14.531375 L9.08975,14.05475 L9.16075,14.056 L9.35475,14.54 L9.27975,14.53875 L9.22475,14.392125 L9.0165,14.388125 L8.959,14.5325 L8.889,14.53125 L8.888875,14.531375 Z M9.036625,14.336875 L9.205375,14.34 L9.156,14.20625 C9.14348376,14.1733258 9.13239016,14.1398782 9.12275,14.106 C9.115875,14.136625 9.1065,14.167 9.094,14.19725 L9.03675,14.337 L9.036625,14.336875 Z M9.419125,14.539 L9.420375,14.05875 L9.486125,14.059 L9.485125,14.53925 L9.41925,14.53925 L9.419125,14.539 Z M9.727875,14.53775 L9.721625,14.114 L9.5575,14.1165 L9.5565,14.05975 L9.951,14.054125 L9.951875,14.110875 L9.78725,14.113 L9.7935,14.5365 L9.727625,14.5375 L9.727875,14.53775 Z M10.216125,14.526125 L10.192875,14.046375 L10.258625,14.043375 L10.27925,14.4665 L10.52425,14.4555 L10.52675,14.512125 L10.216125,14.526125 L10.216125,14.526125 Z M10.551125,14.5115 L10.706375,14.019375 L10.77725,14.014375 L11.01575,14.479375 L10.941,14.48475 L10.87225,14.3435 L10.66475,14.35775 L10.621,14.5065 L10.551,14.5115 L10.551125,14.5115 Z M10.679875,14.305 L10.848125,14.2935 L10.7865,14.164375 C10.76775,14.125125 10.75375,14.092875 10.744,14.0675 C10.7398445,14.0990693 10.7331563,14.1302532 10.724,14.16075 L10.68,14.305 L10.679875,14.305 Z M11.26425,14.456625 L11.209625,13.979375 L11.543375,13.94375 L11.549875,14 L11.2815,14.02875 L11.2985,14.1765 L11.53075,14.15175 L11.53725,14.208 L11.305,14.233 L11.32975,14.44975 L11.26425,14.45675 L11.26425,14.456625 Z M11.62925,14.182625 C11.6175,14.103875 11.6305,14.038875 11.667625,13.988375 C11.705125,13.937625 11.758375,13.9075 11.827875,13.898 C11.873375,13.89175 11.915875,13.89675 11.955375,13.9125 C11.995125,13.92825 12.027375,13.95375 12.052,13.98875 C12.07675,14.0235 12.092625,14.064625 12.0995,14.11225 C12.107,14.1605 12.10325,14.205 12.0885,14.24575 C12.074,14.286625 12.04975,14.3195 12.015625,14.344 C11.9815844,14.3686562 11.9419271,14.3844245 11.90025,14.389875 C11.854,14.396125 11.811,14.390875 11.77125,14.374375 C11.7323983,14.3585514 11.6989661,14.3318056 11.675,14.297375 C11.6509478,14.2631694 11.6353151,14.2237664 11.629375,14.182375 L11.62925,14.182625 Z M11.69675,14.1745 C11.705125,14.23175 11.72775,14.27475 11.7645,14.30325 C11.801375,14.332 11.843875,14.342875 11.892,14.33625 C11.941125,14.32925 11.979,14.307125 12.00575,14.2695 C12.032625,14.23175 12.0415,14.182375 12.032375,14.121125 C12.0280389,14.0860145 12.0160022,14.0522949 11.997125,14.022375 C11.9803008,13.9963296 11.9561078,13.9758786 11.927625,13.963625 C11.8988872,13.9513194 11.8672927,13.9472511 11.836375,13.951875 C11.790125,13.958125 11.752625,13.979 11.723875,14.014125 C11.695125,14.049125 11.686,14.102625 11.696625,14.174125 L11.69675,14.1745 Z M12.21925,14.33575 L12.1305,13.86325 L12.347625,13.825125 C12.391375,13.817625 12.425125,13.815875 12.4495,13.820375 C12.473875,13.824875 12.494875,13.836625 12.5125,13.855875 C12.53,13.875 12.54125,13.8975 12.54625,13.923375 C12.5525,13.957125 12.5465,13.987125 12.528375,14.01425 C12.510125,14.041125 12.478125,14.06175 12.432375,14.07625 C12.4475079,14.0798396 12.4620947,14.0854305 12.47575,14.092875 C12.497875,14.10625 12.5195,14.124125 12.541375,14.14625 L12.65075,14.26 L12.56925,14.27425 L12.485875,14.18725 C12.467054,14.1674335 12.4473682,14.1484567 12.426875,14.130375 C12.4153875,14.119781 12.4023126,14.1110503 12.388125,14.1045 C12.3779325,14.1002908 12.3671263,14.0977581 12.356125,14.097 C12.348625,14.097 12.336125,14.09825 12.319625,14.10125 L12.244375,14.114375 L12.283875,14.324375 L12.219125,14.335625 L12.21925,14.33575 Z M12.2345,14.060375 L12.37375,14.036 C12.3973449,14.0326756 12.4202331,14.0254966 12.4415,14.01475 C12.4703113,13.9995444 12.4856757,13.9671876 12.47925,13.93525 C12.475685,13.9138733 12.4626329,13.8952603 12.44375,13.884625 C12.42425,13.873375 12.39625,13.870625 12.36,13.877125 L12.205,13.904125 L12.234375,14.060625 L12.2345,14.060375 Z M13.02075,14.007875 L13.088625,14.009875 C13.087,14.063625 13.071875,14.10775 13.043125,14.142125 C13.014375,14.1765 12.974625,14.199125 12.924125,14.210125 C12.871625,14.221375 12.826625,14.220375 12.789125,14.207 C12.7506125,14.1928125 12.7172825,14.1673248 12.6935,14.133875 C12.6670576,14.0981135 12.6483289,14.057251 12.6385,14.013875 C12.62725,13.965125 12.626875,13.9205 12.63775,13.879875 C12.648625,13.839375 12.66975,13.805875 12.701,13.77925 C12.73225,13.752625 12.769375,13.734625 12.81225,13.7255 C12.86075,13.714875 12.904375,13.718 12.943125,13.734625 C12.981875,13.75125 13.01275,13.779625 13.035625,13.82025 L12.975875,13.8485 C12.956625,13.81675 12.934625,13.7955 12.909625,13.78475 C12.8822584,13.773552 12.8520073,13.7714914 12.823375,13.778875 C12.785875,13.786875 12.75675,13.80225 12.735625,13.824875 C12.7148463,13.8471028 12.7020117,13.8755848 12.699125,13.905875 C12.69575,13.937125 12.697875,13.968375 12.705,13.99925 C12.7126364,14.0351123 12.7270623,14.0691829 12.7475,14.099625 C12.76625,14.12675 12.79025,14.144875 12.819,14.154 C12.84775,14.163375 12.877,14.16475 12.9065,14.158375 C12.9397004,14.1522446 12.9696458,14.1345255 12.991,14.108375 C13.01125,14.083 13.02125,14.049625 13.021,14.008375 L13.02075,14.007875 Z M13.203625,14.138625 L13.069875,13.676125 L13.4165,13.582625 L13.432375,13.63725 L13.14925,13.7135 L13.19025,13.85525 L13.45525,13.784 L13.471125,13.838125 L13.205875,13.909625 L13.2515,14.067125 L13.54575,13.98775 L13.561625,14.042375 L13.204125,14.138625 L13.203625,14.138625 Z" id="Shape" fill="#000000"></path>
                    </g>
                </g>
            </g>
        </g>
    </g>
</svg>