<?xml version="1.0" encoding="UTF-8" standalone="no"?>
<svg width="122px" height="60px" viewBox="0 0 122 60" version="1.1" xmlns="http://www.w3.org/2000/svg" xmlns:xlink="http://www.w3.org/1999/xlink">
    <!-- Generator: Sketch 3.8.2 (29753) - http://www.bohemiancoding.com/sketch -->
    <title>zw</title>
    <desc>Created with Sketch.</desc>
    <defs></defs>
    <g id="Page-1" stroke="none" stroke-width="1" fill="none" fill-rule="evenodd">
        <g id="zw">
            <g id="Clipped">
                <g>
                    <g id="Group">
                        <polygon id="Shape" fill="#319208" points="0 51.4286049 122 51.4286049 122 60 0 60"></polygon>
                        <polygon id="Shape" fill="#DE2010" points="0 34.285346 122 34.285346 122 42.8567411 0 42.8567411"></polygon>
                        <polygon id="Shape" fill="#FFD200" points="0 42.8563895 122 42.8563895 122 51.4277846 0 51.4277846"></polygon>
                        <polygon id="Shape" fill="#DE2010" points="0 17.1432589 122 17.1432589 122 25.714654 0 25.714654"></polygon>
                        <polygon id="Shape" fill="#FFD200" points="0 8.57139509 122 8.57139509 122 17.1427902 0 17.1427902"></polygon>
                        <polygon id="Shape" fill="#319208" points="0 0 122 0 122 8.57139509 0 8.57139509"></polygon>
                        <polygon id="Shape" fill="#000000" points="3.34111585 0 3.33999991 60 43.0965897 29.6052632"></polygon>
                        <polygon id="Shape" fill="#000000" points="0 0 3.38000011 0 3.38000011 60 0 60"></polygon>
                        <polygon id="Shape" fill="#000000" points="0 0 0 59.2105263 43.139263 29.6052632"></polygon>
                        <polygon id="Shape" fill="#000000" points="0 25.7143025 122 25.7143025 122 34.2856975 0 34.2856975"></polygon>
                        <polygon id="Shape" fill="#FFFFFF" points="0 60 39.7554739 29.6052632 0 0"></polygon>
                        <polygon id="Shape" fill="#D62419" points="15.2602411 13.2601511 18.4140111 23.7105777 29.6784668 23.809339 20.7132761 30.0383558 24.1012284 40.7802092 15.4072266 34.1791607 6.2369963 40.7207674 9.8282535 30.4118909 0.772165399 23.712428 11.6876028 23.9419845"></polygon>
                        <path d="M5.78713507,19.2232987 C5.97875977,18.8780967 6.01703845,18.6863564 7.01436575,18.2643657 C8.31826943,14.4674907 11.6551064,15.9632504 13.4960681,21.2176064 C15.1835681,21.9462891 25.270405,29.4634817 25.117059,29.8853567 C25.040386,30.268953 23.7746454,29.9621454 23.7746454,29.9621454 C23.7746454,29.9621454 21.7803377,38.4765497 21.742059,38.4765497 C18.0216257,37.9780016 12.2303274,37.901213 8.27964381,37.9780016 C8.31792249,37.3258763 7.20575915,33.068732 7.20575915,33.068732 C7.20575915,33.068732 6.24682617,32.7619243 7.85776881,29.501876 C9.58366314,25.3981934 9.92886513,18.7246351 5.78678814,19.2232987 L5.78713507,19.2232987 Z" id="Shape" stroke="#000000" stroke-width="0.1" fill="#F7DF00"></path>
                        <path d="M9.19960424,17.6883352 C9.19960424,17.9213623 9.01069848,18.110268 8.77767141,18.110268 C8.54464435,18.110268 8.35573859,17.9213623 8.35573859,17.6883352 C8.35573859,17.4553401 8.54461846,17.2664602 8.77761359,17.2664602 C9.01060872,17.2664602 9.19948859,17.4553401 9.19948859,17.6883352 L9.19960424,17.6883352 Z M13.3806538,21.217722 C13.3806538,21.217722 10.0822111,23.0969624 9.12339381,23.0585681 L13.3806538,21.217722 Z M23.7744141,29.9619141 C23.5442794,29.7700581 11.5401547,29.1948371 12.0382401,25.1293174 L23.7744141,29.9619141 Z M13.9559904,30.0383558 C13.9559904,30.0383558 15.2598941,30.8054328 16.3720575,28.8110095 L13.9559904,30.0383558 Z M15.4132401,30.0000771 C15.4132401,30.0000771 16.3337788,30.8438271 17.6761924,29.0029811 L15.4132401,30.0000771 Z M7.24450041,33.0688477 C7.24450041,33.0688477 8.08813477,33.183915 8.24171207,32.6852513 L7.24450041,33.0688477 Z M11.2321906,38.0161647 C11.2321906,37.977886 10.3884406,32.5699527 10.3884406,32.5699527 C14.5561909,32.9407124 18.8772872,32.9663857 22.8912289,33.6823473 L11.2321906,38.0161647 Z" id="Shape" stroke="#000000" stroke-width="0.1"></path>
                        <path d="M10.8108938,32.6462788 L11.9613358,33.9885768 L13.1504035,32.8379035 L14.1474995,33.9119038 M14.4548854,33.9508763 L15.4519814,33.068732 L16.5259817,34.1042223 M16.7166812,34.1036441 L17.8289602,33.1065481 L18.6727102,34.1037598 M19.1336734,34.1429636 L20.1308851,33.4525596 L21.0129138,34.2964253 M21.7034334,34.257684 L22.4321161,33.56728" id="Shape" stroke="#000000" stroke-width="0.1"></path>
                        <path d="M10.6186909,33.8732782 L11.8460372,35.2924805 L13.0732679,34.1800858 L14.1471525,35.3307591 L15.3744989,34.2568745 L16.4101049,35.4841052 L17.6757299,34.4102205 C17.6757299,34.4102205 18.6344315,35.5991725 18.7496145,35.5991725 C18.8647975,35.5991725 20.0152395,34.6020765 20.0152395,34.6020765 L21.1275185,35.8293072 L22.6615568,34.6020765 M10.8108938,35.2542018 C10.8108938,35.2542018 20.7059904,35.6377981 22.3167018,36.0213944 M12.4603464,30.767501 C12.4603464,30.767501 21.8567794,31.2661647 23.3526547,31.8413857" id="Shape" stroke="#000000" stroke-width="0.1"></path>
                        <path d="M10.5422492,26.8549805 C10.6190378,27.4303171 9.92863384,29.4246248 9.20006682,30.1150288 C8.20273951,30.9205001 8.31780685,32.6080001 8.31780685,32.6080001 C8.43287418,33.2984041 9.92874949,33.2216154 10.1204898,32.8765291 C10.2738358,31.3039808 11.9613358,30.9587788 11.9613358,30.9587788 C11.9613358,30.9587788 14.3009611,30.3068848 15.2981728,28.3508558 L10.5422492,26.8549805 Z M15.2594315,31.8406918 C15.2594315,32.1160961 15.0361722,32.3393555 14.7607679,32.3393555 C14.4853636,32.3393555 14.2621042,32.1160961 14.2621042,31.8406918 C14.2621042,31.5653194 14.4853377,31.342086 14.7607101,31.342086 C15.0360825,31.342086 15.2593159,31.5653194 15.2593159,31.8406918 L15.2594315,31.8406918 Z M17.4841052,32.0326634 C17.4841371,32.3080039 17.2609554,32.5312373 16.985615,32.5312693 C16.7102745,32.5313012 16.4870411,32.3081196 16.4870091,32.0327791 C16.4870091,31.7574386 16.7102167,31.5342311 16.9855572,31.5342311 C17.2608976,31.5342311 17.4841052,31.7574386 17.4841052,32.0327791 L17.4841052,32.0326634 Z" id="Shape" stroke="#000000" stroke-width="0.1"></path>
                    </g>
                </g>
            </g>
        </g>
    </g>
</svg>