<?xml version="1.0" encoding="UTF-8" standalone="no"?>
<svg width="122px" height="60px" viewBox="0 0 122 60" version="1.1" xmlns="http://www.w3.org/2000/svg" xmlns:xlink="http://www.w3.org/1999/xlink">
    <!-- Generator: Sketch 3.8.2 (29753) - http://www.bohemiancoding.com/sketch -->
    <title>pn</title>
    <desc>Created with Sketch.</desc>
    <defs></defs>
    <g id="Page-1" stroke="none" stroke-width="1" fill="none" fill-rule="evenodd">
        <g id="pn">
            <g id="pr" transform="translate(-1.000000, -1.000000)">
                <g id="Group">
                    <g id="Group-2" transform="translate(0.782609, 0.610627)">
                        <g id="gb" transform="translate(0.217391, 0.389373)">
                            <polygon id="Shape" fill="#000066" points="0 0 122 0 122 60 0 60"></polygon>
                            <path d="M47.557645,30.7808286 L0,7 L0,0 L1.26644742,0 L13.0000003,0 L60.7188933,24.0783409 L107.999998,0 L119.999998,0 L121.999998,0 L121.999998,7 L74.059436,30.8098075 L121.999998,55 L121.999998,60.369812 L106.730621,60.3698125 L60.7925523,37.3988405 L14.541435,60.3695806 L0,60.3695793 L0,55 L47.557645,30.7808286 Z" id="Shape" fill="#FFFFFF"></path>
                            <path d="M50,19.7900009 L50,0 L50,0 L69.7900009,0 L69.7900009,19.7900009 L122,19.7900009 L122,39.5800018 L69.7900009,39.5800018 L69.7900009,60 L50,60 L50,39.5800018 L0,39.5800018 L0,19.7900009 L50,19.7900009 Z" id="Shape" fill="#FFFFFF"></path>
                            <path d="M54.4327385,35.6199999 L-1.56319402e-13,35.6199999 L-1.56319402e-13,23.75 L54.4327385,23.75 L54.4327385,-9.9475983e-14 L54.4327385,-9.9475983e-14 L66.3064227,-9.9475983e-14 L66.3064227,23.75 L122,23.75 L122,35.6199999 L66.3064227,35.6199999 L66.3064227,60 L54.4327385,60 L54.4327385,35.6199999 Z M-1.56319402e-13,60.0000009 L40.5797204,39.5797204 L49.4297895,39.5797204 L9,60.0000009 L8,60.0000009 L-1.56319402e-13,60.0000009 Z M40.5797204,19.7898602 L31.7296513,19.7898602 L-3.3041625e-13,4 L-2.55457522e-09,2.08877537e-09 L1,-2.4158453e-13 L40.5797204,19.7898602 Z M71.3093717,19.7898602 L110.889092,-9.9475983e-14 L119.739161,-9.9475983e-14 L80.1594408,19.7898602 L71.3093717,19.7898602 L71.3093717,19.7898602 Z M80.1594408,39.5797204 L89.0095099,39.5797204 L122.000002,56.0000009 L122.000002,60.0000009 L121.000002,60.0000009 L80.1594408,39.5797204 Z" id="Shape" fill="#CC0000"></path>
                        </g>
                        <path d="M73.3408696,40.0486629 C72.3593478,40.8841507 71.4234783,42.1052483 71.1952174,43.2069904 C70.5492391,46.3102308 69.6909783,47.001115 68.3647826,46.3331838 C68.3647826,47.9995688 69.8188043,48.1281054 70.4556522,47.1548998 C70.4556522,48.7157012 71.0194565,50.0722213 72.2908696,51.2290505 C72.8272826,51.7156533 72.93,51.3828354 72.6743478,50.8457361 C72.4186957,50.3063415 72.4186957,48.5642117 71.9096739,47.5634625 C72.7245652,48.1533537 73.9229348,47.8205357 73.8202174,46.2046472 C72.7747826,46.8197866 71.7361957,46.7968336 71.628913,45.3324347 C71.501087,43.6155531 72.1676087,41.1251568 73.3408696,40.0486629 L73.3408696,40.0486629 Z M72.101413,27.7022648 C72.1698913,27.0871254 72.0397826,26.4536237 71.5923913,26.0588328 C70.7272826,25.2922038 69.8804348,25.5469817 69.2504348,26.1621211 C68.3077174,25.65027 67.8055435,27.4681446 66.735,27.1605749 C66.9130435,27.750466 67.1938043,28.0052439 67.7302174,27.8009625 C67.1686957,28.3128136 67.7302174,28.927953 67.0682609,29.5453876 C68.2643478,29.9287021 68.9034783,29.2630662 68.8509783,28.1085322 C69.3097826,28.5193902 70.0242391,28.494142 70.4054348,28.0327875 C69.768587,27.8262108 69.7663043,27.2684538 70.0242391,26.7497169 C70.4054348,25.9807927 72.2018478,26.0106315 72.101413,27.7022648 L72.101413,27.7022648 Z" id="Shape" stroke="#000000" stroke-width="0.02954238" fill="#F7E017"></path>
                        <path d="M74.8679348,36.6194904 C73.5166304,37.3356228 71.0422826,37.0280531 70.8140217,35.2606751 C70.5857609,33.493297 72.2931522,32.6968293 72.7519565,32.4672997 C73.466413,32.1069382 74.0256522,32.7473258 73.7973913,33.4910017 C74.1357854,33.3730646 74.4008112,33.1042284 74.5151372,32.7629366 C74.6294632,32.4216447 74.5802063,32.0463564 74.3817391,31.7465767 C75.4271739,31.8246167 76.3972826,31.0304443 76.803587,29.9034538 C76.4383696,30.2546341 75.438587,30.0182186 74.6145652,29.9631315 C74.8702174,29.6808101 74.8656522,29.1345296 74.7903261,28.8522082 C73.9229348,29.7473737 72.6743478,29.338811 71.0171739,31.9279051 C71.2728261,31.0327395 71.7567391,29.2355226 72.0375,28.0580357 C72.0661042,27.9408894 72.0874496,27.8220706 72.101413,27.7022648 C72.2018478,26.0106315 70.4077174,25.9807927 70.0242391,26.7497169 C70.4442391,27.2248432 70.2251087,27.7803049 70.0744565,28.6203833 C69.896413,29.6211324 69.5129348,31.9279051 69.1842391,32.6968293 C69.0815217,31.4917988 68.2894565,31.416054 68.1365217,30.8261629 C67.9082609,30.9799477 67.7804348,31.3908057 67.8306522,31.6708319 C67.5498913,31.3632622 66.5820652,31.748872 66.2259783,31.2875174 C65.8425,32.0564416 66.4542391,32.8253659 67.0933696,33.1581838 C66.7213043,33.1834321 66.6322826,33.6333101 66.2259783,33.6333101 C66.7738043,34.2736977 67.3330435,34.5284756 67.983587,34.5812674 C68.6341304,34.6340592 69.1180435,34.8750653 69.5129348,35.6715331 C70.1520652,36.9523084 72.5784783,37.7832056 74.8679348,36.6194904 L74.8679348,36.6194904 Z" id="Shape" stroke="#000000" stroke-width="0.02954238" fill="#337321"></path>
                        <path d="M78.2325,35.0540984 C77.4678261,37.181838 75.3769565,38.6967334 74.4319565,38.9262631 C72.8272826,39.3164634 69.5540217,40.9162848 68.6752174,41.7380009 C68.5467903,41.712588 68.4243768,41.6627272 68.3145652,41.5911019 C67.8808696,41.2835322 67.5247826,40.2827831 68.2917391,39.4381141 C70.6861957,37.181838 73.2609783,38.1573389 74.8656522,36.6194904 C73.5143478,37.3356228 71.0422826,37.0280531 70.8140217,35.2606751 C73.0504603,35.8437423 75.4240787,35.1332659 76.9793478,33.415257 C77.2601087,33.7228267 78.075,34.6960322 78.2302174,35.0540984 L78.2325,35.0540984 Z" id="Shape" stroke="#000000" stroke-width="0.02954238" fill="#F7E017"></path>
                        <path d="M73.3408696,40.0486629 C72.131087,41.0815462 71.501087,43.6155531 71.628913,45.33473 C71.6631522,45.8121516 71.7978261,46.1357883 71.9986957,46.3331838 C72.09,45.3599782 72.7633696,42.8443336 74.4844565,41.7196385 C75.9361957,40.7716812 78.2051087,38.6439416 79.0473913,36.2086324 C78.8944565,35.7725261 78.6388043,35.4649564 78.1548913,35.1573868 C77.3217391,37.4572735 75.0847826,38.5590157 73.338587,40.0463676 L73.3408696,40.0486629 Z" id="Shape" stroke="#000000" stroke-width="0.02954238" fill="#337321"></path>
                        <path d="M77.456413,34.0694164 C77.0227174,34.7212805 76.0411957,35.6187413 75.0984783,35.9791028 C75.3016304,35.7472779 75.3655435,35.4511847 75.3769565,35.2078833 C74.178587,35.6715331 71.7841304,35.6210366 70.8140217,35.2606751 C73.0518814,35.8455849 75.4277642,35.134957 76.983913,33.415257 C77.1893478,33.6447866 77.3651087,33.8513632 77.456413,34.0694164 L77.456413,34.0694164 Z" id="Shape" stroke="#000000" stroke-width="0.02954238" fill="#316D3A"></path>
                        <path d="M68.2894565,39.4381141 C66.3423913,41.274351 67.6275,42.8741725 68.3921739,43.2322387 C68.1867391,44.5130139 69.3873913,44.3592291 69.36,45.435723 C69.8461957,45.1534016 69.9740217,44.4120209 69.896413,43.8221298 C70.5081522,44.4877657 72.0648913,43.7440897 72.393587,44.9743685 C72.5990217,43.6155531 71.553587,42.2567378 70.2525,42.3852744 C70.788913,41.8986716 70.4807609,41.1044991 69.9740217,40.9002178 C69.8713043,41.8986716 68.7505435,41.8986716 68.3168478,41.5911019 C67.8831522,41.2835322 67.5247826,40.2827831 68.2894565,39.4381141 L68.2894565,39.4381141 Z" id="Shape" stroke="#000000" stroke-width="0.02954238" fill="#337321"></path>
                        <path d="M72.51,51.1005139 C72.2977174,51.2221646 72.3136957,51.4976002 72.446087,51.6766333 C72.7131522,52.0346995 72.258913,52.8472343 73.1217391,53.0216768 C73.3773913,53.0744686 73.5736957,52.9160932 73.6695652,52.6245906 C73.938913,51.8166463 73.0829348,51.7294251 73.0076087,51.3438153 C72.93,50.9582056 72.6880435,50.9972256 72.51,51.1005139 L72.51,51.1005139 Z" id="Shape" stroke="#000000" stroke-width="0.02954238" fill="#F7E017"></path>
                        <path d="M73.2358696,52.6131141 C72.9505435,52.7462413 72.6994565,52.9344556 72.8158696,53.8548693 C72.8615217,54.2381838 72.8386957,55.1631882 72.51,55.1769599 C72.7131522,55.277953 73.1468478,55.3881272 73.3248913,55.1494164 C73.496087,55.4386237 73.886413,55.355993 74.0393478,54.9956315 C74.2425,55.1631882 74.5232609,54.8808667 74.5232609,54.6375653 C74.7013043,54.7523301 75.0573913,54.5870688 74.9683696,54.0361977 C75.1852174,54.1119425 75.4659783,53.9581577 75.5686957,53.8181446 C75.2491304,53.7538763 74.4456522,53.31777 74.253913,52.9711803 C74.0644565,52.6268859 73.5668478,52.4593293 73.2358696,52.6131141 L73.2358696,52.6131141 Z" id="Shape" stroke="#000000" stroke-width="0.02954238" fill="#F7E017"></path>
                        <g id="Group" transform="translate(68.282609, 25.590592)" stroke="#000000" stroke-width="0.02954238">
                            <path d="M0.536413043,1.09944686 C0.666521739,0.906641986 0.810326087,0.727608885 0.970108696,0.571528746 M5.38695652,4.4918946 C5.61521739,4.36335801 5.95532609,4.34729094 6.33423913,4.3725392 M5.04456522,29.558824 C4.95326087,29.4325828 4.92358696,28.8931882 4.98521739,28.5672561 M5.75673913,29.4073345 C5.52583101,29.1921242 5.36777676,28.9095771 5.30478261,28.5993902 M6.24065217,29.0492683 C6.06032609,28.9666376 5.62891304,28.4019948 5.53304348,28.0370427 M6.68804348,28.4479007 C6.47576087,28.4019948 5.83206522,27.9796603 5.565,27.5297822" id="Shape"></path>
                        </g>
                        <path d="M86.7215217,39.4633624 C89.8578261,42.102953 90.0609783,44.2054443 89.5770652,45.435723 C89.321413,44.2834843 88.0226087,42.4885627 86.6713043,42.0272082 L86.7215217,39.4633624 L86.7215217,39.4633624 Z" id="Shape" stroke="#000000" stroke-width="0.02954238" fill="#F7E017"></path>
                        <path d="M81.1131522,37.9783057 L86.9269565,37.9783057 L86.9269565,44.8986237 C86.9269565,50.7929443 83.6628261,54.2794991 80.3484783,56.1249172 C77.0341304,54.2817944 73.7722826,50.7929443 73.7722826,44.8986237 L73.7722826,37.9783057 L77.8513043,37.9783057 C77.8581522,38.336372 77.8901087,38.8734713 78.3078261,39.4128659 C79.271087,39.3164634 80.3621739,38.5934451 81.1154348,37.9783057 L81.1131522,37.9783057 Z" id="Shape" stroke="#000000" stroke-width="0.02954238" fill="#337321"></path>
                        <path d="M86.9246739,37.9783057 L86.9246739,44.8986237 C86.9246739,46.6774782 86.6279348,48.2382796 86.1211957,49.5993902 L80.3507609,38.949216 L74.5780435,49.5993902 C74.031123,48.0938447 73.7589337,46.5013953 73.7745652,44.8986237 L73.7745652,37.9783057 L86.9292391,37.9783057 L86.9246739,37.9783057 Z" id="Shape" stroke="#000000" stroke-width="0.02954238" fill="#006EC7"></path>
                        <path d="M86.2992391,49.0875392 C86.1736134,49.4737438 86.0296437,49.853669 85.8678261,50.2260061 L80.3507609,39.9132404 L74.831413,50.2260061 C74.6703679,49.8536274 74.5271602,49.4737028 74.4022826,49.0875392 L80.3507609,37.9966681 L86.3015217,49.0875392 L86.2992391,49.0875392 Z" id="Shape" fill="#F7E017"></path>
                        <g id="Group" transform="translate(76.235698, 45.060105)" stroke="#000000" stroke-width="0.02954238" fill="#F7E017">
                            <path d="M6.73778032,7.82155923 C6.8907151,7.8995993 7.17147597,8.04190767 7.29930206,8.09240418 C7.60517162,7.47726481 7.65767162,6.60734756 7.55495423,5.83612805 C7.22397597,6.68538763 6.10093249,6.65784408 5.79734554,7.16969512 C5.98451945,7.26380226 6.15799771,7.38774826 6.30864989,7.49792247 C5.92745423,7.88123693 5.03038902,8.53080575 4.52136728,8.6822953 L4.52136728,3.18506098 C4.52136728,2.79945122 4.39354119,2.48040505 4.39354119,2.15906359 L4.39354119,1.02289199 C4.39354119,0.765818815 4.3433238,0.393980836 4.11278032,0.393980836 C3.88223684,0.393980836 3.83430206,0.765818815 3.83430206,1.02289199 L3.83430206,2.15906359 C3.83430206,2.48040505 3.70647597,2.84994774 3.70647597,3.18506098 L3.70647597,8.6822953 C3.4257151,7.86287456 2.32778032,8.1429007 1.81875858,7.32347997 C2.01854729,7.27128942 2.22712758,7.26268071 2.43049771,7.29823171 C2.04930206,5.98991289 1.00386728,5.88891986 0.800715103,5.5033101 C0.800715103,6.0427047 0.572454233,7.29823171 0.926258581,7.83762631 C1.02621162,7.72489757 1.14331982,7.62883092 1.2732151,7.55300958 C1.70691076,8.5009669 3.65397597,8.5032622 4.11278032,10.0663589 C4.48256293,9.49253484 5.80875858,8.82689895 6.73778032,7.82155923 L6.73778032,7.82155923 Z" id="Shape"></path>
                            <path d="M4.11278032,3.24703397 C4.54647597,3.24703397 5.92288902,3.10472561 6.4182151,3.10472561 C6.5483238,3.10472561 6.65560641,2.91192073 6.65560641,2.67091463 C6.65560641,2.42990854 6.5483238,2.23480836 6.42049771,2.23480836 C5.92288902,2.23480836 4.54647597,2.0947953 4.11506293,2.0947953 C3.68364989,2.0947953 2.30267162,2.23480836 1.80506293,2.23480836 C1.67723684,2.23480836 1.57223684,2.42990854 1.57223684,2.67091463 C1.57223684,2.91192073 1.67723684,3.10702091 1.80506293,3.10702091 C2.30267162,3.10702091 3.67908467,3.24703397 4.11278032,3.24703397 L4.11278032,3.24703397 Z M3.83430206,0.995348432 C3.73663483,0.916340573 3.61497656,0.873401977 3.48962815,0.873697735 C3.19973684,0.873697735 2.96462815,1.08945557 2.96462815,1.35570993 C2.96462815,1.61966899 3.19973684,1.83542683 3.48962815,1.83542683 C3.77723684,1.83542683 4.01006293,1.61966899 4.01006293,1.35341463 C4.01006293,1.14913328 4.30680206,1.14913328 4.30680206,1.35341463 C4.30680206,1.77115854 3.94158467,2.10627178 3.48962815,2.10627178 C3.03767162,2.10627178 2.66788902,1.77115854 2.66788902,1.35570993 C2.66788902,0.940261324 3.03538902,0.602852787 3.48962815,0.602852787 C3.62430206,0.602852787 3.75212815,0.632691638 3.86397597,0.685483449 C3.85484554,0.754342334 3.83430206,0.88287892 3.83430206,0.995348432 L3.83430206,0.995348432 Z" id="Shape"></path>
                            <path id="Shape"></path>
                            <path d="M1.99908467,3.10472561 C2.12919336,3.10472561 2.23419336,2.91192073 2.23419336,2.67091463 C2.23419336,2.42990854 2.12919336,2.23480836 1.99908467,2.23480836 M3.25680206,3.19424216 C3.41430206,3.19424216 3.53984554,2.96012195 3.53984554,2.67091463 C3.53984554,2.38170732 3.41430206,2.14529181 3.25680206,2.14529181 M3.55125858,3.21949042 C3.7133238,3.21949042 3.84799771,2.97389373 3.84799771,2.66861934 C3.84799771,2.36793554 3.7133238,2.12233885 3.55125858,2.12233885 M4.53049771,3.22408101 C4.69484554,3.22408101 4.82723684,2.97618902 4.82723684,2.67091463 C4.82723684,2.36334495 4.69484554,2.11545296 4.53049771,2.11545296 M4.83864989,3.20801394 C5.0007151,3.20801394 5.13538902,2.96700784 5.13538902,2.67091463 C5.13538902,2.37252613 5.0007151,2.13381533 4.83864989,2.13381533 M6.20593249,3.11620209 C6.33604119,3.11620209 6.4433238,2.91651132 6.4433238,2.67091463 C6.4433238,2.42531794 6.33604119,2.22792247 6.20593249,2.22792247 M1.26864989,7.55300958 C1.43847237,7.44870263 1.62324212,7.37128732 1.81647597,7.32347997 M6.45930206,7.6035061 L6.30864989,7.49562718 M6.73778032,7.82155923 C7.09386728,7.43824477 7.39288902,7.0021385 7.55495423,6.50405923" id="Shape"></path>
                        </g>
                        <g id="Group" transform="translate(78.518307, 41.657666)" stroke="#000000" stroke-width="0.02954238">
                            <path d="M0.663758581,1.21191638 C0.663758581,1.08797038 0.764193364,1.03288328 0.885171625,0.943366725 C1.02669336,0.835487805 1.08604119,0.782695993 1.21614989,0.782695993 L2.88930206,0.782695993 C3.01256293,0.782695993 3.04223684,0.814830139 3.04223684,0.929594948 L3.04223684,3.21800523 C3.04223684,3.33277003 3.01256293,3.36490418 2.88930206,3.36490418 L0.663758581,3.36490418 L0.663758581,1.19355401" id="Shape" fill="#FFFFFF"></path>
                            <path d="M2.47614989,3.56459495 C2.69528032,3.56459495 2.65647597,3.56000436 2.80941076,3.40392422 C2.96919336,3.24325348 2.95549771,3.25702526 2.95549771,3.10783101 L2.95549771,1.0168162 C2.95549771,0.908937282 2.93038902,0.879098432 2.81397597,0.879098432 L1.26864989,0.879098432 C1.14767162,0.879098432 1.09517162,0.925004355 0.96278032,1.02829268 C0.850932494,1.11321864 0.757345538,1.16371516 0.757345538,1.28077526 L0.757345538,3.56459495 L2.47843249,3.56459495 L2.47614989,3.56459495 Z" id="Shape" fill="#E5E5E5"></path>
                            <path d="M2.6382151,3.51639373 C2.6382151,3.63115854 2.6108238,3.66329268 2.48528032,3.66329268 L0.812128146,3.66329268 C0.688867277,3.66329268 0.661475973,3.63115854 0.661475973,3.51639373 L0.661475973,1.22798345 C0.661475973,1.11321864 0.688867277,1.08108449 0.812128146,1.08108449 L2.48528032,1.08108449 C2.6108238,1.08108449 2.6382151,1.11321864 2.6382151,1.22798345 L2.6382151,3.51639373 L2.6382151,3.51639373 Z" id="Shape" fill="#FFFFFF"></path>
                        </g>
                        <path d="M84.4023913,36.6378528 C84.7288043,37.0028049 84.836087,37.4939983 84.6580435,37.9760105 L84.1741304,37.9760105 C84.3772826,37.3608711 84.2494565,36.7732753 83.3820652,36.6952352 C82.0878261,36.5804704 80.5790217,39.1052962 78.3101087,39.4128659 C77.6481522,38.6186934 77.6823913,37.1037979 78.5246739,36.3876655 C78.0909783,35.1252526 77.171087,33.7388937 76.5342391,33.1398214 C76.1354542,33.0720032 75.7310298,33.0435592 75.3267391,33.0548955 C75.6577174,32.3387631 76.605,31.5836106 77.3673913,31.2760409 C77.4929348,31.0924172 77.6253261,30.9179747 77.748587,30.7618946 C77.8261957,29.7749172 82.4895652,30.2362718 83.4847826,30.8514111 C83.4847826,31.9531533 83.9184783,35.6371037 84.4023913,36.6355575 L84.4023913,36.6378528 Z" id="Shape" stroke="#000000" stroke-width="0.02954238" fill="#96877D"></path>
                        <path d="M78.746087,37.3103746 C78.6342391,35.5980836 77.9471739,34.1933624 76.983913,33.2339286 C77.4404348,33.3601699 78.3854348,33.3601699 79.0222826,32.8988153 C79.8645652,32.3364678 82.0558696,31.3494904 82.8570652,31.7718249 C82.9338828,31.9848954 82.952022,32.2148781 82.9095652,32.4374608 C82.7178261,31.9256098 80.6041304,32.7197822 80.0038043,32.9653789 C79.4308696,33.2339286 79.1752174,33.5919948 79.3783696,34.399939 C79.0473913,34.1176176 79.1615217,33.8490679 78.8191304,33.6424913 C78.9583696,33.9753092 79.0725,34.5789721 79.1113043,35.0655749 C78.9834783,34.7258711 78.7552174,33.9776045 78.2576087,33.5437936 C78.6913043,34.3884625 79.0679348,36.4197997 78.8898913,37.4962936 C79.2322826,37.4962936 79.9923913,37.1565897 80.2959783,36.9132883 C80.028913,37.2988981 79.2573913,37.5674477 78.7620652,37.6707361 C78.5383696,37.9392857 78.3854348,38.6301699 78.3968478,39.0157796 C78.3603261,38.5406533 78.5086957,37.3861193 78.746087,37.3103746 L78.746087,37.3103746 Z M84.4023913,36.6378528 C83.9801087,36.1650218 83.1926087,35.9079486 82.1836957,36.1833841 C82.3366304,36.1053441 82.6698913,35.9768075 82.9620652,35.926311 C82.9232609,35.6577613 82.6813043,34.5032274 82.6425,34.2232012 L82.9232609,34.1084364 C83.0647826,34.7970253 83.2428261,35.593493 83.3569565,35.9148345 C83.4482609,35.9377875 83.651413,35.9791028 83.8294565,36.0686193 C83.7518478,35.7977744 83.3181522,33.865135 83.3318478,33.6585584 L83.7153261,33.4519817 C83.8682609,34.5032274 84.1102174,36.0295993 84.4001087,36.6378528 L84.4023913,36.6378528 Z" id="Shape" fill="#000000"></path>
                        <g id="Group" transform="translate(75.130435, 31.288328)" stroke="#000000" stroke-width="0.02954238" fill="#96877D">
                            <path d="M9.04369565,6.68768293 C9.24684783,6.07254355 9.11902174,5.48494774 8.25391304,5.40690767 C7.58054348,5.34722997 6.8523913,6.00368467 5.98956522,6.68768293 L9.04369565,6.68768293 L9.04369565,6.68768293 Z M3.41021739,1.16520035 C2.84787892,1.20261733 2.28326244,1.14599698 1.73934783,0.997643728 C1.76917671,0.872580756 1.81202173,0.751024671 1.86717391,0.634986934 C1.59782609,0.816315331 1.09108696,1.16290505 0.897065217,1.40850174 C1.51108696,1.53703833 2.77336957,1.60130662 3.40793478,1.16520035 L3.41021739,1.16520035 Z" id="Shape"></path>
                        </g>
                        <path d="M78.5246739,36.3876655 C78.6661957,36.7962282 78.7575,37.1910192 78.7711957,37.5421995 M77.3673913,31.2760409 C77.1391304,31.6134495 76.9359783,31.9784016 76.8697826,32.2859713 C77.3034783,32.4282796 78.1571739,32.5040244 78.5406522,32.4535279" id="Shape" stroke="#000000" stroke-width="0.02954238"></path>
                        <path d="M76.5342391,33.1398214 C76.698587,33.167365 76.8538043,33.1994991 76.983913,33.2339286 C77.4427174,33.3624652 78.3854348,33.3624652 79.0245652,32.9011106 C79.6636957,32.4397561 81.393913,31.0074913 83.3569565,30.8514111" id="Shape" stroke="#000000" stroke-width="0.02954238"></path>
                        <path d="M76.0275,32.6968293 C76.6392391,32.8253659 77.9015217,32.8896341 78.5383696,32.4535279 C80.0175,31.4413023 81.4441304,30.8514111 82.8707609,30.7733711" id="Shape" stroke="#000000" stroke-width="0.02954238"></path>
                        <path d="M86.7215217,39.4633624 C88.8626087,40.9507143 90.4421739,42.3852744 90.9032609,44.6943423 C91.3597826,47.001115 92.2271739,47.6162544 93.3,47.001115 C93.0443478,48.3323868 91.7181522,48.4861716 90.5973913,47.4601742 C90.7001087,48.9980226 90.086087,50.8457361 88.5065217,51.511372 C88.4038043,50.5886629 89.0109783,49.8587587 88.8375,49.101311 C88.7621739,48.768493 88.7370652,47.9995688 89.1684783,47.6415026 C88.3284783,47.923824 87.0022826,47.3844294 86.8744565,46.1289024 C87.8445652,46.590257 89.0931522,46.668297 89.5770652,45.4380183 C90.0609783,44.2077395 89.8578261,42.1052483 86.7238043,39.4633624 L86.7215217,39.4633624 Z M89.4241304,27.4681446 C90.086087,25.7237195 91.8208696,25.9050479 92.4052174,26.6487239 C94.1148913,25.673223 94.3454348,27.8790026 95.7971739,27.4428963 C95.7697826,27.8514591 95.2858696,28.2370688 94.7517391,28.2118206 C95.3109783,28.7236716 94.5234783,29.4925958 95.7195652,29.9562456 C94.6992391,30.4680967 93.2726087,29.9287021 92.8891304,28.5193902 C92.5581522,29.1850261 91.3597826,29.1850261 90.8758696,28.6479268 C91.9213043,28.3656054 91.8459783,27.3901045 91.2593478,27.0067901 C90.6681522,26.618885 89.6272826,26.7772605 89.4241304,27.4658493 L89.4241304,27.4681446 Z M84.2540217,31.3058798 C84.7288043,32.8483188 85.7148913,34.2828789 86.7740217,35.2606751 C87.9975,36.3876655 89.8441304,36.1053441 90.8781522,35.0311455 C90.9009783,37.1772474 88.691413,37.3425087 87.461087,36.6699869 C86.9201087,36.3715984 86.4795652,36.5299739 87.0045652,37.0028049 C87.7920652,37.7212326 89.5222826,38.2537413 91.5652174,38.6944382 C95.1352174,39.4633624 93.8592391,42.3095296 92.8138043,42.2842814 C93.1151087,42.2773955 93.3616304,41.9629399 92.9279348,41.5727395 C89.8327174,38.7724782 83.535,39.8742204 83.6377174,33.6195383 C82.9757609,35.2606751 80.2480435,34.6202875 81.5217391,32.671581 C81.9303261,33.004399 82.6447826,33.0296472 82.8456522,32.5177962 C83.0054348,32.1184146 82.9027174,31.4252352 82.1882609,30.8284582 C82.3046739,30.819277 82.5580435,30.8284582 82.5306522,30.5346603 C82.5648913,30.7068075 82.7201087,30.9638807 83.1218478,30.8789547 C83.2359783,31.0602831 83.3569565,31.1796385 83.5190217,31.1153702 C83.5509783,31.1015984 83.6468478,31.0533972 83.6103261,30.8697735 C83.64,31.2094774 84.0440217,31.331128 84.2540217,31.3058798 L84.2540217,31.3058798 Z" id="Shape" stroke="#000000" stroke-width="0.02954238" fill="#337321"></path>
                        <path d="M87.461087,36.6699869 C88.9402174,37.6431925 90.611087,37.6431925 92.1518478,35.8505662 C92.6357609,35.2859233 93.4004348,34.7993206 93.9368478,34.748824 C94.4709783,34.6960322 94.4458696,34.1841812 94.8544565,34.0831882 C94.5988043,34.0051481 94.4983696,33.6975784 94.1148913,33.7343031 C95.0713043,33.4014852 94.7905435,32.632561 95.2630435,32.260723 C94.8795652,32.4030314 94.2815217,31.8246167 93.7336957,32.5568162 C93.8729348,32.221703 93.6811957,31.8246167 93.5419565,31.6708319 C93.5921739,32.0564416 92.7886957,32.1321864 92.6357609,33.1076873 C92.5513043,33.6539678 92.2545652,33.6195383 92.2020652,32.7748693 C92.1655435,32.1551394 91.871087,30.4405531 91.5172826,29.5706359 C91.158913,28.6984233 91.0767391,27.502574 91.5629348,27.3212456 C91.48709,27.1943799 91.3832102,27.0867811 91.2593478,27.0067901 C90.6704348,26.618885 89.6295652,26.7772605 89.4241304,27.4658493 C88.7621739,29.2102744 90.6225,30.2110235 90.4695652,32.1069382 C90.1888043,30.6976263 87.9198913,30.3395601 87.9472826,28.9554965 C87.2077174,29.2883145 87.3081522,29.9034538 87.588913,30.3900566 C87.1323913,29.6716289 86.0846739,30.8491159 85.1921739,29.8782056 C85.0917391,31.1589808 86.2125,31.6455836 87.1323913,31.6960801 C86.6713043,32.5177962 87.2830435,33.2109756 87.8947826,33.4405052 C87.9198913,32.0036498 90.8484783,32.5935409 90.8781522,35.0540984 C90.9032609,37.1565897 88.6594565,37.3356228 87.461087,36.6699869 L87.461087,36.6699869 Z M91.5652174,38.6967334 C95.1352174,39.4633624 93.8615217,42.3095296 92.816087,42.2842814 C92.1495652,42.2682143 91.515,41.7058667 91.4761957,41.2192639 C90.7115217,41.630122 90.9169565,42.4357709 91.503587,42.7571124 C89.8966304,42.5666028 89.2209783,43.6293249 89.1821739,44.7953354 C89.4766304,44.2582361 90.3691304,44.219216 90.7001087,44.3362761 C91.031087,44.4510409 91.8847826,44.5130139 92.2294565,44.1296995 C91.9486957,44.3730009 92.4075,44.9376437 92.0126087,45.3714547 C93.3502174,45.3209582 93.9368478,44.0631359 93.708587,43.5122648 C95.441087,41.9239199 95.1101087,39.3348258 91.5652174,38.6944382 L91.5652174,38.6967334 Z M88.848913,50.8732796 C89.0771739,51.0201786 89.0497826,51.325453 88.8945652,51.5205531 C88.5795652,51.9107535 89.0543478,52.8380531 88.0796739,52.9941333 C87.7943478,53.0400392 87.5820652,52.8564155 87.4861957,52.5258929 C87.221413,51.612365 88.1801087,51.550392 88.2805435,51.1257622 C88.3832609,50.6988371 88.6526087,50.7516289 88.8466304,50.8732796 L88.848913,50.8732796 Z" id="Shape" stroke="#000000" stroke-width="0.02954238" fill="#F7E017"></path>
                        <path d="M87.9723913,52.5281882 C88.2873913,52.6888589 88.5567391,52.9092073 88.3878261,53.9352047 C88.3193478,54.3598345 88.3033696,55.3927178 88.6731522,55.4225566 C88.4403261,55.5281402 87.9518478,55.6291333 87.7646739,55.3582883 C87.5592391,55.6727439 87.1278261,55.5625697 86.9726087,55.154007 C86.7375,55.3307448 86.4384783,55.0048127 86.4476087,54.7316725 C86.2444565,54.8533232 85.8541304,54.6513371 85.9773913,54.0407883 C85.7308696,54.1165331 85.425,53.9329094 85.3154348,53.7722387 C85.676087,53.7148563 86.591413,53.2626829 86.8196739,52.8839591 C87.0479348,52.5075305 87.6094565,52.3422692 87.9723913,52.5281882 L87.9723913,52.5281882 Z" id="Shape" stroke="#000000" stroke-width="0.02954238" fill="#F7E017"></path>
                        <g id="Group" transform="translate(85.366133, 53.053136)" stroke="#000000" stroke-width="0.02954238">
                            <path d="M2.39625858,2.30515244 C2.50125858,2.16743467 2.56060641,1.56606707 2.50354119,1.19881969 M1.60647597,2.10546167 C1.87389457,1.87566585 2.06306639,1.56745595 2.14745423,1.22406794 M1.08147597,1.68083188 C1.28234554,1.59590592 1.79136728,0.985357143 1.91462815,0.581385017 M0.608975973,0.987652439 C0.846367277,0.948632404 1.58364989,0.505640244 1.90093249,0.0144468641" id="Shape"></path>
                        </g>
                        <path d="M83.6377174,33.6195383 C83.5943478,36.2476524 84.6808696,37.5766289 86.1851087,38.4419556 C85.6258696,38.104547 85.8678261,36.9500131 85.1145652,36.5804704 C85.2948913,36.5666986 85.5733696,36.8237718 86.0207609,36.7204834 C85.803913,36.2338807 85.4478261,35.4902047 84.6192391,35.3892117 C84.836087,35.3639634 85.3063043,35.4397082 85.6121739,35.3249434 C85.1784783,34.6593075 84.0326087,34.9783537 83.6377174,33.6195383 L83.6377174,33.6195383 Z M83.366087,31.1222561 C83.2747826,31.090122 83.1948913,30.9983101 83.1195652,30.8766594 C82.7178261,30.9638807 82.5626087,30.7068075 82.5306522,30.532365 C82.5534783,30.8307535 82.3023913,30.8169817 82.1836957,30.8261629 C82.9027174,31.4229399 83.0054348,32.1184146 82.8456522,32.5177962 C82.6402174,33.0296472 81.9280435,33.004399 81.5217391,32.671581 C81.4692391,33.7595514 82.8707609,34.1176176 83.3797826,32.7473258 C83.3797826,32.9768554 83.6742391,32.9539024 83.7495652,33.2614721 C84.1147826,32.671581 83.8408696,31.8246167 83.366087,31.1222561 L83.366087,31.1222561 Z" id="Shape" stroke="#000000" stroke-width="0.02954238" fill="#F7E017"></path>
                        <g id="Group" transform="translate(76.235698, 21.000000)">
                            <path d="M4.89343249,4.91652439 C4.3250393,4.3498814 3.99977437,3.58204286 3.98723684,2.77730836 C4.01234554,2.21266551 4.24288902,1.59752613 5.06006293,1.8545993 C4.80212815,1.8545993 4.98245423,2.36645035 4.71310641,2.41694686 C4.92995423,2.49498693 5.22441076,2.31595383 5.26093249,2.19889373 C5.31343249,2.38022213 5.64441076,2.32743031 5.67180206,2.53400697 C5.79734554,2.43071864 5.65810641,1.93034408 5.46636728,1.82935105 C5.60560641,1.75131098 5.6832151,1.35422474 5.61930206,1.16371516 C5.49147597,1.18666812 5.29973684,1.36570122 5.26093249,1.62277439 C5.32484554,1.41619774 5.24951945,0.90434669 4.89343249,0.828601916 C4.77577503,1.04073678 4.78013013,1.29999161 4.90484554,1.50800958 C4.57386728,1.42996951 4.08995423,1.64802265 3.97354119,1.93034408 C4.00093249,1.59064024 4.04658467,1.10862805 4.25430206,0.803353659 C4.32506293,0.700065331 4.15386728,0.52103223 4.01919336,0.764333624 C3.77038902,0.277730836 3.10614989,0.0206576655 2.81397597,0.263959059 C2.52180206,0.507260453 2.12691076,0.149194251 1.88495423,0.534804007 C1.64299771,0.918118467 0.821258581,0.959433798 0.864628146,1.36570122 C0.889736842,1.61129791 0.832671625,1.98543118 0.711693364,2.12314895 C0.419519451,2.4559669 0.850932494,2.69926829 0.92854119,2.9953615 C0.878323799,2.01986063 2.41908467,0.123945993 3.96212815,0.867621951 C3.82060641,1.11092334 3.69962815,1.59752613 3.65625858,2.18741725 C3.59234554,3.05962979 3.72017162,4.28990854 4.56017162,5.00604094 L4.89343249,4.91652439 L4.89343249,4.91652439 Z" id="Shape" stroke="#000000" stroke-width="0.02954238" fill="#337321"></path>
                            <path d="M5.34995423,1.86607578 C5.3408238,1.63654617 5.73799771,1.33586237 6.27441076,1.34045296 C6.91810641,1.34733885 7.4157151,1.93722997 7.92930206,1.87984756 C8.44288902,1.82246516 8.19180206,2.10937718 8.08223684,2.18741725 C7.97495423,2.26316202 7.91104119,2.38022213 7.94984554,2.52023519 C7.98864989,2.66024826 7.92245423,2.7543554 7.71473684,2.62352352 C7.25593249,2.3343162 6.79484554,2.73828833 6.18995423,2.5133493 C5.66495423,2.32054443 5.36136728,2.2149608 5.34995423,1.86607578 L5.34995423,1.86607578 Z" id="Shape" stroke="#000000" stroke-width="0.02954238" fill="#CF142B"></path>
                            <path d="M2.72495423,7.91647648 C2.46930206,7.10853223 1.50147597,6.22484321 1.02897597,6.01826655 L1.00386728,5.58216028 C1.25951945,5.48116725 1.87125858,4.99456446 2.15201945,4.72371951 C4.06256293,5.64642857 6.66245423,4.34040505 7.8608238,2.98158972 L8.31962815,3.26391115 L8.09136728,3.57148084 L7.84941076,3.44294425 C7.55495423,3.80101045 6.46158467,4.83848432 6.1283238,5.05424216 C6.5757151,5.16900697 7.18288902,5.24704704 7.35180206,5.23786585 C8.42234554,4.46894164 9.26234554,3.7757622 9.67093249,3.72297038 L10.0133238,4.18662021 L9.70973684,4.40467334 L9.46778032,4.26236498 C8.31962815,5.2126176 7.0208238,7.28756533 6.50951945,8.67162892 C5.79734554,8.51784408 3.24538902,8.6211324 2.72495423,7.91418118 L2.72495423,7.91647648 Z" id="Shape" stroke="#000000" stroke-width="0.02954238" fill="#96877D"></path>
                            <path id="Shape" stroke="#000000" stroke-width="0.02954238"></path>
                            <path d="M2.82538902,7.63415505 C2.65419336,6.67931185 2.92810641,5.62118031 3.41201945,5.30213415 C4.47114989,6.00679007 6.28125858,6.00679007 7.35180206,5.23786585" id="Shape" stroke="#000000" stroke-width="0.02954238"></path>
                            <path d="M2.82538902,7.13378049 C3.64256293,7.11082753 5.41386728,7.2485453 5.84756293,7.31281359 C6.28125858,7.37708188 7.00712815,7.55611498 6.90441076,7.77416812 L2.82538902,7.13378049 Z M3.20201945,6.99835801 L3.43712815,6.76194251 L3.20201945,6.5278223 L2.96919336,6.76194251 L3.20201945,6.99835801 L3.20201945,6.99835801 Z" id="Shape" stroke="#000000" stroke-width="0.02954238"></path>
                            <path d="M3.75669336,2.22643728 C3.46451945,1.81328397 2.65647597,1.68474739 2.48299771,2.23791376 C2.40538902,2.48121516 2.29125858,2.73828833 2.09951945,2.85305314 C1.91006293,2.96781794 1.95343249,3.31899826 2.03788902,3.46819251 C2.24104119,3.84003049 2.0607151,4.19809669 2.45788902,4.44369338 C2.45788902,4.14760017 2.89158467,3.84003049 3.26136728,3.76428571 C3.63114989,3.68624564 4.19038902,3.3534277 4.2657151,2.98388502 C4.3433238,2.60975174 4.47114989,2.30218206 3.75669336,2.22643728 L3.75669336,2.22643728 Z" id="Shape" stroke="#000000" stroke-width="0.02954238" fill="#337321"></path>
                            <path d="M1.91919336,5.91727352 L2.02191076,5.91727352 L2.02191076,6.61733885 C2.04473684,6.62422474 2.06756293,6.63570122 2.08354119,6.649473 L2.68386728,6.30058798 L2.73636728,6.39239983 L2.13375858,6.74128484 C2.13807676,6.76403244 2.13807676,6.78739613 2.13375858,6.81014373 L2.73636728,7.16132404 L2.68386728,7.2485453 L2.08125858,6.89966028 C2.06407474,6.91571327 2.04390589,6.92819385 2.02191076,6.93638502 L2.02191076,7.63415505 L1.91919336,7.63415505 L1.91919336,6.93408972 C1.89675203,6.92754855 1.87581053,6.91662963 1.85756293,6.90195557 L1.25723684,7.2485453 L1.20473684,7.16132404 L1.80734554,6.80784843 C1.80302735,6.78510083 1.80302735,6.76173715 1.80734554,6.73898955 L1.20473684,6.39010453 L1.25723684,6.30058798 L1.86212815,6.65176829 C1.8786369,6.63596668 1.89800932,6.62349942 1.91919336,6.61504355 L1.91919336,5.91727352 L1.91919336,5.91727352 Z" id="Shape" stroke="#000000" stroke-width="0.02954238" fill="#96877D"></path>
                            <path d="M2.82995423,7.63185976 C2.48618947,7.98441085 1.9640977,8.09200923 1.51012879,7.90386382 C1.05615988,7.71571842 0.761085444,7.2694491 0.764193364,6.77571429 C0.767362751,6.25625896 1.09820172,5.79614025 1.58776777,5.63031719 C2.07733382,5.46449413 2.6175966,5.62955815 2.93267162,6.04121951 C2.85909081,6.25093974 2.81230323,6.46920993 2.79343249,6.69078833 C2.74910492,6.24479496 2.36098483,5.91453591 1.91623522,5.94436384 C1.47148562,5.97419176 1.13041967,6.35335498 1.14538586,6.80131752 C1.16035206,7.24928006 1.52595573,7.60457063 1.97169336,7.6043162 C2.34748517,7.60101296 2.67589936,7.34842175 2.77745423,6.98458624 C2.77745423,7.13607578 2.78201945,7.50332317 2.82995423,7.63185976 L2.82995423,7.63185976 Z" id="Shape" stroke="#000000" stroke-width="0.02954238" fill="#96877D"></path>
                            <path d="M1.46267162,8.78868902 C1.38734554,8.69687718 1.2458238,8.45357578 1.25723684,8.27454268 C1.41718618,8.27587024 1.57124764,8.33539128 1.69093249,8.4420993 C1.67951945,8.31356272 1.62930206,8.03124129 1.65441076,7.9027047 C1.79364989,7.95549652 2.08810641,8.12075784 2.18854119,8.31356272 C2.14114938,8.09487449 2.13341663,7.86937827 2.1657151,7.64792683 C2.31636728,7.73744338 2.57201945,7.98074477 2.62223684,8.1460061 C2.63593249,7.89122822 2.72495423,7.46659843 2.80028032,7.3656054 C2.91441076,7.48037021 3.09473684,7.58365854 3.21114989,7.73744338 C3.23397597,7.53086672 3.33669336,7.28756533 3.48962815,7.22329704 C3.60375858,7.35183362 3.78180206,7.64792683 3.82060641,7.98074477 C3.93473684,7.94172474 4.08767162,7.75121516 4.15158467,7.64792683 C4.24113836,7.79730348 4.2735913,7.97433923 4.24288902,8.1460061 C4.37984554,8.01976481 4.54647597,7.83843641 4.58528032,7.68694686 C4.74463551,7.80632485 4.86470365,7.97103688 4.92995423,8.15977787 C4.90484554,7.99222125 4.91625858,7.69842334 4.86604119,7.53086672 C5.05778032,7.63415505 5.20843249,7.81318815 5.24951945,8.00599303 C5.29973684,7.82695993 5.41386728,7.50561847 5.51658467,7.42987369 C5.61701945,7.63415505 5.72201945,7.87745645 5.7083238,8.0817378 C5.76995423,7.95549652 5.87267162,7.7236716 5.97538902,7.67317509 C6.06441076,7.81318815 6.0507151,8.12075784 6.02560641,8.28831446 C6.12182025,8.15447569 6.24366256,8.04132069 6.38397597,7.95549652 C6.39538902,8.03124129 6.40680206,8.18502613 6.38397597,8.29979094 C6.49810641,8.23552265 6.68984554,7.89122822 6.75147597,7.70989983 C6.93180206,7.80171167 7.10984554,8.10928136 7.12125858,8.26077091 C7.30247056,8.16053702 7.45920124,8.02096922 7.58006293,7.85220819 C7.58006293,7.94172474 7.61886728,8.18502613 7.56864989,8.37783101 C7.64397597,8.29979094 7.72158467,8.14830139 7.76038902,8.0817378 C7.81060641,8.21027439 7.77180206,8.51784408 7.72158467,8.6854007 C7.8276171,8.59008204 7.96119128,8.53136878 8.10278032,8.51784408 C8.11647597,8.73589721 7.96354119,9.12150697 7.82201945,9.4038284 C6.59854119,9.05723868 4.03745423,8.92870209 1.46267162,8.78868902 L1.46267162,8.78868902 Z" id="Shape" stroke="#000000" stroke-width="0.02954238" fill="#337321"></path>
                            <path id="Shape" fill="#F7E017"></path>
                        </g>
                        <g id="Group" transform="translate(77.235698, 28.993031)" stroke-width="0.02954238" stroke="#000000">
                            <g id="Shape" fill="#F7E017">
                                <path d="M0.857562929,1.56458188 C0.476367277,2.02364111 0.092889016,1.94789634 0.0175629291,1.65409843 C-0.0600457666,1.35800523 0.222997712,1.21799216 0.117997712,0.96091899 C0.0175629291,0.703845819 0.284628146,0.58908101 0.412454233,0.703845819 C0.54028032,0.818610627 0.946584668,0.449067944 1.12691076,0.832382404 C1.30495423,1.21799216 1.44647597,1.48654181 1.34147597,1.64032666 C1.24104119,1.7941115 0.935171625,1.71836672 0.857562929,1.56458188 L0.857562929,1.56458188 Z M2.50104119,0.871402439 C2.42799771,0.703845819 2.82517162,0.377913763 3.0283238,0.609738676 C3.23375858,0.839268293 3.5533238,0.357256098 3.73136728,0.724503484 C3.90941076,1.08945557 3.96647597,1.28226045 4.05549771,1.48654181 C4.14680206,1.69311847 3.57158467,1.80099739 3.39354119,1.62196429 C3.41636728,1.74361498 2.8982151,1.83772213 2.75441076,1.4934277 L2.50104119,0.871402439 L2.50104119,0.871402439 Z M5.15343249,1.08256969 C5.05756293,0.903536585 5.5232151,0.646463415 5.76517162,0.974690767 C5.82908467,0.839268293 6.29017162,0.814020035 6.31984554,1.20422038 C6.35180206,1.59442073 6.36549771,1.82624564 6.37691076,1.98003049 C6.3883238,2.13381533 6.09843249,2.2738284 5.88614989,1.88362805 C5.51180206,1.96166812 5.3383238,1.75050087 5.29267162,1.52556185 C5.24701945,1.30062282 5.20593249,1.1927439 5.1557151,1.08256969 L5.15343249,1.08256969 Z"></path>
                            </g>
                            <g transform="translate(0.177346, 0.000000)" id="Shape" fill="#337321">
                                <path d="M0.92673913,0.827791812 C0.869673913,0.699255226 1.25315217,0.442182056 1.51336957,0.634986934 C1.77586957,0.827791812 2.13652174,0.467430314 2.28945652,0.814020035 C2.60217391,1.51179007 2.62271739,1.56458188 2.52684783,1.69770906 C2.43097826,1.83313153 2.02467391,1.78033972 1.92195652,1.59671603 C1.90141304,1.72295732 1.5498913,1.70229965 1.36728261,1.60130662 C1.15728261,1.48654181 1.00891304,1.05732143 0.92673913,0.827791812 L0.92673913,0.827791812 Z M3.61108696,0.857630662 C3.51978261,0.660235192 4.1201087,0.488087979 4.38032609,0.8346777 C4.515,0.710731707 4.80717391,0.703845819 4.97380435,1.08256969 C5.14043478,1.46129355 5.16554348,1.6724608 5.04228261,1.76886324 C4.95782609,1.83772213 4.64967391,1.89051394 4.54695652,1.71836672 C4.40543478,1.80788328 3.97402174,1.72984321 3.87815217,1.48883711 C3.78228261,1.24324042 3.7001087,1.02977787 3.61108696,0.857630662 L3.61108696,0.857630662 Z M6.14706522,1.23635453 C6.13565217,1.05732143 6.45978261,0.974690767 6.58076087,1.23635453 C6.70173913,1.49801829 7.08978261,1.26389808 7.12402174,1.69770906 C7.12858696,1.78033972 7.07836957,2.10168118 6.9573913,2.25546603 C6.83641304,2.40925087 6.24293478,2.25546603 6.20413043,1.92953397 C6.1750796,1.69941999 6.15603971,1.4681397 6.14706522,1.23635453 L6.14706522,1.23635453 Z"></path>
                            </g>
                            <g transform="translate(0.177346, 0.000000)" id="Shape">
                                <path d="M0.680217391,1.50307713 C0.540978261,1.32646786 0.34923913,1.04473402 0.107282609,1.34959526 M1.92423913,1.53040951 C1.82490945,1.41197901 1.74776038,1.27909428 1.69597826,1.13724364 M3.21391304,1.55563941 C3.09465509,1.47545694 2.99509728,1.37300879 2.92173913,1.25498315 M3.10434783,0.93960946 C3.32576087,0.960634373 3.47869565,1.15616606 3.54945652,1.2444707 C3.61793478,1.33277533 3.76630435,1.49046218 3.88043478,1.50728211 M4.54923913,1.64184155 C4.47163043,1.53040951 4.39630435,1.43159242 4.37804348,1.34749277 M4.3826087,0.832382404 C4.45216183,0.918257991 4.51183059,1.01056325 4.56065217,1.10780876 M5.70880435,1.79532341 C5.62075996,1.62883494 5.4839944,1.48829794 5.31391304,1.3895426 M5.65858696,1.14985859 C5.67,1.49676965 6.17445652,1.51989706 6.19271739,1.76588854 M6.57847826,1.20242087 C6.63097826,1.29072551 6.64923913,1.37903014 6.65608696,1.52620453"></path>
                            </g>
                        </g>
                    </g>
                </g>
            </g>
        </g>
    </g>
</svg>