<?xml version="1.0" encoding="UTF-8" standalone="no"?>
<svg width="122px" height="60px" viewBox="0 0 122 60" version="1.1" xmlns="http://www.w3.org/2000/svg" xmlns:xlink="http://www.w3.org/1999/xlink">
    <!-- Generator: Sketch 3.8.2 (29753) - http://www.bohemiancoding.com/sketch -->
    <title>pt</title>
    <desc>Created with Sketch.</desc>
    <defs></defs>
    <g id="Page-1" stroke="none" stroke-width="1" fill="none" fill-rule="evenodd">
        <g id="pt">
            <g id="Group">
                <g>
                    <polygon id="Shape" fill="#FF0000" points="32 0 122 0 122 60 32 60"></polygon>
                    <polygon id="Shape" fill="#006600" points="0 0 32 0 32 60 0 60"></polygon>
                    <g transform="translate(18.500000, 16.500000)" id="Shape" stroke="#000000" stroke-width="0.1" fill="#FFFF00">
                        <path d="M23.932,21.772 C19.904,21.65075 1.43325,10.121375 1.306625,8.285375 L2.326625,6.584375 C4.15875,9.2465 23.04125,20.459125 24.896,20.061875 L23.932,21.7715"></path>
                        <path d="M2.112,6.353375 C1.75075,7.325875 6.932,10.529125 13.16575,14.3205 C19.3995,18.11175 24.7745,20.454625 25.17275,20.118625 C25.197125,20.075125 25.369,19.779875 25.353125,19.782125 C25.278375,19.894625 25.096625,19.930125 24.813125,19.848375 C23.128875,19.362625 18.736375,17.346375 13.2965,14.047625 C7.85675,10.748625 3.124,7.708375 2.388375,6.41675 C2.337125,6.32725 2.300875,6.163875 2.308125,6.03675 L2.29025,6.03675 L2.133625,6.3105 L2.112,6.35325 L2.112,6.353375 Z M24.026625,21.825375 C23.958375,21.949125 23.831,21.953375 23.589125,21.926875 C22.0825,21.760125 17.510625,19.536875 12.100875,16.298375 C5.806125,12.530375 0.6075,9.097125 1.1715,8.199625 L1.325,7.928375 L1.35525,7.937875 C0.848,9.4585 11.614875,15.615 12.24875,16.0075 C18.47875,19.867125 23.73075,22.121 24.195625,21.53525 L24.0265,21.826 L24.0265,21.82575 L24.026625,21.825375 Z"></path>
                        <path d="M13.5225,9.3975 C17.55425,9.3655 22.529375,8.84625 25.3925,7.705375 L24.7755,6.703125 C23.08325,7.63975 18.080875,8.255625 13.488625,8.34775 C8.057,8.29775 4.223125,7.792 2.302375,6.503125 L1.719875,7.570375 C5.251125,9.064625 8.869625,9.382 13.522625,9.397375"></path>
                        <path d="M25.55875,7.728 C25.46,7.8855 23.592875,8.5295 20.84225,9.00475 C18.97725,9.289 16.544375,9.53225 13.5085,9.535 C10.624,9.53775 8.26775,9.3325 6.483875,9.090625 C3.596375,8.637875 2.106375,8.008125 1.555375,7.785375 C1.607875,7.680625 1.641875,7.607125 1.692625,7.509125 C3.278625,8.14075 4.775875,8.521625 6.529875,8.791375 C8.302,9.031375 10.629875,9.23975 13.499875,9.237125 C16.521875,9.234 18.927875,8.9725 20.782125,8.696625 C23.60275,8.241625 25.143625,7.656125 25.36,7.384125 L25.559125,7.728125 L25.558875,7.728125 L25.55875,7.728 Z M25.01725,6.71175 C24.7115,6.957125 23.18825,7.497375 20.508125,7.9255 C18.719375,8.18175 16.445125,8.41125 13.539375,8.414 C10.778875,8.41675 8.5235,8.23075 6.808125,7.980875 C4.08625,7.625375 2.6375,6.984125 2.11525,6.797125 C2.16725,6.707125 2.22025,6.618125 2.2745,6.528625 C2.68075,6.733125 4.078875,7.300625 6.838,7.6915 C8.534,7.932 10.79275,8.11125 13.539625,8.108375 C16.431625,8.1055 18.68,7.871625 20.457125,7.616625 C23.15125,7.246 24.600875,6.557 24.820875,6.3845 L25.017375,6.71125 L25.017375,6.711625 L25.01725,6.71175 Z M0.284,14.254625 C2.76375,15.588375 8.2715,16.2605 13.48325,16.30675 C18.228625,16.31425 24.41075,15.57325 26.72275,14.348 L26.659,13.01325 C25.935875,14.1435 19.31075,15.22775 13.43175,15.18325 C7.552625,15.139 2.093375,14.231 0.2735,13.0555 L0.284,14.25425 L0.284,14.254625 Z"></path>
                        <path d="M26.849375,14.0625 L26.849375,14.381 C26.501875,14.7965 24.323375,15.424375 21.591125,15.866625 C19.51175,16.185375 16.80075,16.425875 13.42275,16.425875 C10.213625,16.425875 7.654375,16.197125 5.66975,15.892375 C2.53225,15.435375 0.52575,14.635375 0.122875,14.396625 L0.12475,14.025375 C1.33475,14.82975 4.612875,15.418125 5.7135,15.598375 C7.685375,15.900875 10.229375,16.128125 13.4225,16.128125 C16.78475,16.128125 19.480375,15.889375 21.54675,15.572625 C23.50675,15.289375 26.29925,14.553 26.849,14.062625 L26.849375,14.0625 Z M26.850625,12.930375 L26.850625,13.24875 C26.503375,13.66375 24.324625,14.291875 21.5925,14.734 C19.513125,15.05275 16.80225,15.29325 13.42425,15.29325 C10.215,15.29325 7.655875,15.06475 5.671125,14.75975 C2.533875,14.303125 0.527375,13.503125 0.124375,13.26425 L0.126125,12.893 C1.336125,13.69725 4.61425,14.285875 5.715125,14.46575 C7.686875,14.768625 10.230875,14.99575 13.423875,14.99575 C16.786125,14.99575 19.481875,14.757 21.548125,14.44 C23.508125,14.156875 26.300625,13.4205 26.850375,12.93 L26.850375,12.930375 L26.850625,12.930375 Z M13.472,21.5425 C7.769125,21.50875 2.8825,19.988125 1.85075,19.73675 L2.60325,20.91475 C4.42575,21.681375 9.193,22.824 13.52675,22.6975 C17.8605,22.57125 21.648,22.235375 24.317125,20.936 L25.088625,19.715375 C23.2695,20.572 17.079375,21.533875 13.47175,21.542625 L13.472,21.5425 Z"></path>
                        <path d="M24.606625,20.6625 C24.4941553,20.8347293 24.3787214,21.0050047 24.260375,21.17325 C23.001625,21.617 21.017875,22.08325 20.180875,22.219125 C18.470875,22.571375 15.8255,22.831625 13.47775,22.832875 C8.42575,22.758875 4.29025,21.769875 2.344875,20.92625 L2.18775,20.65625 L2.213375,20.615875 L2.479625,20.719125 C5.939375,21.956875 9.825125,22.45075 13.505875,22.539375 C15.844625,22.547625 18.185375,22.271375 20.078375,21.932875 C22.981125,21.35125 24.154875,20.912875 24.515,20.714125 L24.60675,20.662875 L24.606625,20.6625 Z M25.275625,19.55925 C25.2785,19.56275 25.2815,19.566 25.284375,19.569625 C25.1981928,19.7152397 25.1109823,19.8602433 25.02275,20.004625 C24.35125,20.244625 22.529,20.77775 19.868125,21.149875 C18.115,21.388625 17.02525,21.619875 13.537625,21.687625 C7.002375,21.521375 2.771125,20.2435 1.765875,19.92825 L1.616875,19.6425 C5.404375,20.63125 9.273125,21.321625 13.538125,21.392125 C16.72875,21.324125 18.08625,21.089125 19.824875,20.852125 C22.92775,20.369625 24.491125,19.858875 24.96025,19.711375 C24.9538368,19.7022245 24.9469959,19.6933814 24.93975,19.684875 L25.27625,19.55925 L25.276,19.5595 L25.275625,19.55925 Z"></path>
                        <path d="M25.344,13.20125 C25.3625,16.952875 23.44275,20.3195 21.89625,21.804625 C19.7085,23.905875 16.807875,25.2575 13.420375,25.319625 C9.637875,25.38925 6.071125,22.923375 5.114375,21.839875 C3.244,19.72175 1.72125,17.032125 1.672375,13.407375 C1.904,9.31275 3.511375,6.460625 5.841375,4.504875 C8.171375,2.549 11.273875,1.596375 13.857625,1.6645 C16.8385,1.74325 20.32075,3.20575 22.727,6.10875 C24.30325,8.01125 24.986,10.075375 25.343875,13.20125 L25.344,13.20125 Z M13.4525,0.355875 C20.71725,0.355875 26.692,6.267625 26.692,13.51625 C26.692,20.764625 20.71725,26.676625 13.4525,26.676625 C6.187875,26.676625 0.2625,20.76475 0.2625,13.516125 C0.2625,6.267375 6.187875,0.355625 13.4525,0.355625 L13.4525,0.355875 Z"></path>
                        <path d="M13.488,0.310625 C20.75925,0.310625 26.6895,6.241875 26.6895,13.513625 C26.6895,20.78525 20.759125,26.716125 13.488,26.716125 C6.21675,26.716125 0.2865,20.785375 0.2865,13.513625 C0.2865,6.241625 6.216875,0.3105 13.488,0.3105 L13.488,0.310625 Z M0.577125,13.51375 C0.577125,20.615 6.408375,26.425875 13.488,26.425875 C20.567625,26.425875 26.39925,20.615 26.39925,13.513625 C26.39925,6.411875 20.5675,0.601125 13.488,0.601125 C6.4085,0.601125 0.577125,6.412375 0.577125,13.513625 L0.577125,13.51375 Z"></path>
                        <path d="M13.49875,1.408 C20.1295,1.408 25.59125,6.85075 25.59125,13.50175 C25.59125,20.153 20.129375,25.5955 13.49875,25.5955 C6.868,25.5955 1.40625,20.153 1.40625,13.50175 C1.40625,6.85075 6.868125,1.408 13.49875,1.408 L13.49875,1.408 Z M1.696625,13.50175 C1.696625,19.993 7.02725,25.305 13.498625,25.305 C19.969875,25.305 25.3005,19.993125 25.3005,13.50175 C25.3005,7.0105 19.970125,1.6985 13.4985,1.6985 C7.027,1.6985 1.696375,7.010375 1.696375,13.50175 L1.696625,13.50175 Z"></path>
                        <polygon points="14.030625 0.2575 12.899375 0.2575 12.900625 26.785375 14.035875 26.785375"></polygon>
                        <path d="M13.9175,0.10625 L14.20525,0.10625 L14.20775,26.9395 L13.9195,26.9395 L13.9175,0.106125 L13.9175,0.10625 Z M12.7945,0.10625 L13.08475,0.10625 L13.085125,26.93975 L12.79475,26.93975 L12.79475,0.10625 L12.7945,0.10625 Z"></path>
                        <polygon points="26.69875 14.024625 26.69875 13.044 25.9 12.3 21.366625 11.1 14.833375 10.43325 6.966625 10.83325 1.366625 12.166625 0.236 13.004125 0.236 13.984875 3.1 12.7 9.9 11.63325 16.433375 11.63325 21.233375 12.166625 24.566625 12.966625"></polygon>
                        <path d="M13.493375,11.469375 C16.611125,11.463625 19.635875,11.76475 22.035375,12.231875 C24.51125,12.726875 26.253625,13.346 26.849375,14.041375 L26.848625,14.385875 C26.130125,13.5205 23.7855,12.886125 21.9795,12.523375 C19.59825,12.06025 16.59375,11.761125 13.49325,11.767125 C10.2215,11.773 7.175,12.082875 4.828625,12.540875 C2.946125,12.91425 0.43525,13.656375 0.12175,14.388375 L0.12175,14.029875 C0.293875,13.52325 2.1635,12.766125 4.78625,12.241125 C7.15025,11.779875 10.2025,11.475375 13.493375,11.4695 L13.493375,11.469375 Z M13.494625,10.336875 C16.612375,10.331375 19.637375,10.632625 22.036625,11.099625 C24.5125,11.594875 26.254875,12.21375 26.850625,12.909125 L26.85,13.253375 C26.1315,12.388375 23.786875,11.75375 21.980875,11.39125 C19.599875,10.927875 16.59525,10.62875 13.494625,10.63475 C10.222875,10.640625 7.19125,10.95075 4.844625,11.40825 C3.027875,11.75275 0.414625,12.52425 0.123125,13.25625 L0.123125,12.8975 C0.29525,12.39625 2.202625,11.612 4.78775,11.10875 C7.1515,10.6475 10.20375,10.34325 13.494625,10.337125 L13.494625,10.336875 Z M13.430625,4.56125 C18.343875,4.53675 22.629375,5.24825 24.59,6.2525 L25.305,7.49 C23.601,6.5715 18.97775,5.6165 13.437875,5.759375 C8.924125,5.787125 4.100875,6.25625 1.681,7.547375 L2.53475,6.119375 C4.521,5.089375 9.2045,4.566875 13.431,4.5615 L13.430625,4.56125 Z"></path>
                        <path d="M13.496,5.5825 C16.29825,5.57525 19.006,5.73325 21.1595,6.121875 C23.164875,6.495125 25.0775,7.05525 25.35075,7.3565 L25.563,7.73125 C24.898,7.296875 23.243,6.813375 21.11775,6.410375 C18.983625,6.009125 16.27775,5.876375 13.491125,5.88375 C10.328,5.872875 7.87075,6.04 5.76175,6.4075 C3.531375,6.825 1.983875,7.42125 1.602125,7.704375 L1.809875,7.308375 C2.551625,6.929875 3.728625,6.47375 5.706375,6.11775 C7.88725,5.719375 10.37075,5.599875 13.496,5.58275 L13.496,5.5825 Z M13.49475,4.45125 C16.1765,4.444375 18.824375,4.59375 20.8885,4.965 C22.51625,5.28175 24.126,5.7765 24.715625,6.21675 L25.025625,6.7095 C24.4985,6.1235 22.514375,5.56825 20.7625,5.257 C18.714375,4.903875 16.1765,4.764125 13.49475,4.74175 C10.680375,4.749625 8.079375,4.922 6.061,5.2895 C4.135625,5.65575 2.893125,6.08975 2.36725,6.4285 L2.640125,6.017 C3.36575,5.635 4.537875,5.28425 6.013875,4.997375 C8.047125,4.627125 10.664125,4.459125 13.495125,4.451125 L13.49475,4.45125 Z M20.053375,19.00125 C17.62425,18.547875 15.190875,18.482 13.491125,18.502 C5.303375,18.598 2.658375,20.18325 2.335625,20.66325 L1.72375,19.66575 C3.808375,18.15475 8.266875,17.3075 13.535375,17.394125 C16.271125,17.438875 18.632,17.620625 20.617875,18.005375 L20.053125,19.001625 L20.053375,19.00125 Z"></path>
                        <path d="M13.444,18.36125 C15.7215,18.395375 17.95725,18.489375 20.11525,18.89175 L19.95875,19.167625 C17.954625,18.797875 15.818125,18.656375 13.45175,18.667625 C10.43,18.644125 7.37375,18.926375 4.713,19.690125 C3.873375,19.923625 2.4835,20.463375 2.34175,20.9095 L2.18625,20.65325 C2.23125,20.3895 3.07125,19.84225 4.6415,19.401125 C7.68925,18.528375 10.54,18.381125 13.444,18.361125 L13.444,18.3615 L13.444,18.36125 Z M13.547375,17.215 C15.907,17.25925 18.343875,17.368375 20.712625,17.8375 L20.55,18.125 C18.411,17.700375 16.3675,17.55875 13.56125,17.515625 C10.53,17.521125 7.3145,17.73725 4.390875,18.58725 C3.447125,18.86225 1.818,19.456625 1.763625,19.92725 L1.608125,19.651875 C1.6435,19.224375 3.05375,18.666875 4.3225,18.29775 C7.26875,17.441125 10.4925,17.220875 13.5475,17.21525 L13.547375,17.215 Z"></path>
                        <polygon points="25.1775 19.8175 24.1935 21.34375 21.366625 18.833375 14.033375 13.9 5.766625 9.366625 1.474625 7.898625 2.389375 6.202375 2.7 6.03325 5.366625 6.699875 14.166625 11.23325 19.233375 14.43325 23.5 17.5 25.233375 19.5"></polygon>
                        <path d="M1.32,7.93875 C2.07275,7.428125 7.60525,9.8925 13.394,13.38325 C19.1675,16.88375 24.68425,20.8395 24.18625,21.5795 L24.0225,21.83725 L23.9475,21.8965 C23.9635,21.885 24.0465,21.7835 23.93925,21.509 C23.69325,20.699625 19.779875,17.576875 13.28675,13.6565 C6.95675,9.881875 1.68125,7.606875 1.15375,8.257125 L1.32,7.938625 L1.32,7.93875 Z M25.37875,19.795625 C25.854625,18.855375 20.72325,14.98975 14.36125,11.226 C7.8525,7.53725 3.161875,5.366 2.305,6.0135 L2.11475,6.35975 C2.113,6.378875 2.121625,6.33625 2.161875,6.30525 C2.317625,6.16925 2.575875,6.178375 2.692375,6.1765 C4.167625,6.198375 8.381125,8.1375 14.293125,11.52675 C16.8835,13.0355 25.235875,18.392125 25.204,19.898625 C25.20625,20.027875 25.21475,20.054625 25.166,20.118625 L25.3785,19.795625 L25.3785,19.79525 L25.37875,19.795625 Z"></path>
                    </g>
                    <g transform="translate(24.000075, 20.800096)">
                        <path d="M0.08000025,10.6680333 C0.08000025,12.8373735 0.968403026,14.7996462 2.40760752,16.2336507 C3.84961203,17.6707219 5.80921815,18.5776581 7.98229161,18.5776581 C10.1662984,18.5776581 12.148438,17.6904553 13.5843091,16.2589841 C15.0203136,14.8276463 15.9100497,12.8520402 15.9104497,10.6749667 L15.9101831,10.6749667 L15.9101831,0.11626703 L0.0781335775,0.097600305 L0.0797335825,10.6680333 L0.08000025,10.6680333 L0.08000025,10.6680333 Z" id="Shape" stroke="#000000" stroke-width="0.1" fill="#FFFFFF"></path>
                        <path d="M0.376001175,10.6827 L0.376001175,10.6887001 C0.376001175,12.7629732 1.23467053,14.6519125 2.61267483,16.0233834 C3.99321248,17.3972544 5.89455175,18.2513904 7.97455825,18.2513904 C10.0652315,18.2513904 11.9625707,17.4033877 13.3372417,16.0347168 C14.7119126,14.6660458 15.5636486,12.7769733 15.5639153,10.6955001 L15.5636486,10.6955001 L15.5636486,0.452001412 L0.384934536,0.449334737 L0.375601174,10.6827 L0.376001175,10.6827 Z M12.5119058,3.51627765 L12.5124391,10.0349647 L12.5071058,10.7247002 C12.5071058,10.9060341 12.4961724,11.1129681 12.4751057,11.2891019 C12.3516386,12.3197718 11.8777705,13.2180413 11.1756349,13.9168435 C10.3537657,14.7349794 9.21962881,15.2424476 7.96935824,15.2424476 C6.72588769,15.2424476 5.61761756,14.7173793 4.79228164,13.8957768 C3.94561233,13.0531075 3.45494413,11.8976372 3.45494413,10.7028334 L3.45321079,3.4998776 L12.5119058,3.51614432 L12.5119058,3.51641099 L12.5119058,3.51627765 Z" id="Shape" stroke="#000000" stroke-width="0.1" fill="#FF0000"></path>
                        <g id="e" transform="translate(0.666669, 0.533335)">
                            <g id="d">
                                <path d="M0.692002163,2.59067476 C0.710002219,1.85467246 1.23227052,1.68027192 1.23600386,1.67773858 C1.24000388,1.6750719 1.80027229,1.86533916 1.79840562,2.59747478 L0.692002163,2.5908081" id="Shape" fill="#FFFF00"></path>
                                <path d="M0.241334088,1.69200529 L0.15040047,2.53800793 L0.702402195,2.53934127 C0.707735545,1.83933908 1.23240385,1.72280538 1.24507056,1.72547206 C1.2570706,1.72493872 1.77707222,1.88013921 1.7908056,2.53934127 L2.34440733,2.53934127 L2.24440701,1.68680527 L0.241467421,1.69187195 L0.241467421,1.69213862 L0.241334088,1.69200529 Z M0.113333688,2.54134128 L2.37280742,2.54134128 C2.42040756,2.54134128 2.45947435,2.58840809 2.45947435,2.64587494 C2.45947435,2.70320845 2.42040756,2.74987526 2.37280742,2.74987526 L0.113333688,2.74987526 C0.0657335388,2.74987526 0.02666675,2.70320845 0.02666675,2.64587494 C0.02666675,2.58854142 0.0657335388,2.54134128 0.113333688,2.54134128 L0.113333688,2.54134128 Z" id="Shape" stroke="#000000" stroke-width="0.1" fill="#FFFF00"></path>
                                <path d="M0.934669588,2.53734126 C0.937069595,2.09560655 1.23627053,1.97067283 1.23787054,1.97093949 C1.23787054,1.97093949 1.55013818,2.0997399 1.55253819,2.53734126 L0.934669588,2.53734126 L0.934669588,2.53734126 Z M0.161333838,1.34000419 L2.32734061,1.34000419 C2.37294075,1.34000419 2.41040753,1.38240432 2.41040753,1.43400448 C2.41040753,1.48560464 2.37307408,1.52787144 2.32734061,1.52787144 L0.161333838,1.52787144 C0.115733695,1.52787144 0.0782669113,1.48573798 0.0782669113,1.43387115 C0.0782669113,1.38227099 0.115600361,1.33987085 0.161333838,1.33987085 L0.161333838,1.34000419 Z M0.206667313,1.52933811 L2.27840712,1.52933811 C2.32200726,1.52933811 2.3577407,1.57160491 2.3577407,1.62320507 C2.3577407,1.67493857 2.32200726,1.71707203 2.27840712,1.71707203 L0.206667313,1.71707203 C0.163067176,1.71707203 0.127333731,1.67493857 0.127333731,1.62320507 C0.127333731,1.57160491 0.163067176,1.52933811 0.206667313,1.52933811 L0.206667313,1.52933811 Z M0.876002738,0.1173337 L1.03960325,0.117600368 L1.03960325,0.23360073 L1.15893696,0.23360073 L1.15893696,0.114933693 L1.32653748,0.115600361 L1.32653748,0.233867398 L1.44600452,0.233867398 L1.44600452,0.11520036 L1.61373838,0.11520036 L1.61347171,0.383201198 C1.61347171,0.425467996 1.57960494,0.452534748 1.54013815,0.452534748 L0.952136309,0.452534748 C0.912669519,0.452534748 0.876136071,0.421067983 0.876136071,0.382534529 L0.875602736,0.117200366 L0.876002738,0.1173337 Z M1.49200466,0.476001488 L1.52893811,1.33600418 L0.955202985,1.33400417 L0.993203104,0.473734814 L1.49187133,0.476001488 L1.49200466,0.476001488 Z" id="Shape" stroke="#000000" stroke-width="0.1" fill="#FFFF00"></path>
                                <polygon id="a" stroke="#000000" stroke-width="0.533335" fill="#FFFF00" points="0.792002475 0.8746694 0.809335863 1.3746694 0.259467478 1.3746694 0.274934193 0.8746694 0.792269143 0.8746694"></polygon>
                                <g id="a-link" transform="translate(1.547872, 0.800003)" stroke-width="0.533335" stroke="#000000" fill="#FFFF00">
                                    <polygon id="a" points="0.658668725 0.0746669 0.676002112 0.5746669 0.126133727 0.5746669 0.141600442 0.0746669 0.658935392 0.0746669"></polygon>
                                </g>
                                <path id="b" stroke="#000000" stroke-width="0.533335" fill="#FFFF00"></path>
                                <g id="b-link" transform="translate(1.547872, 0.533335)" stroke-width="0.533335" stroke="#000000" fill="#FFFF00">
                                    <path id="b"></path>
                                </g>
                                <path id="Shape" fill="#000000"></path>
                                <path id="c" fill="#000000"></path>
                                <g id="c-link" transform="translate(1.818806, 0.933336)" fill="#000000">
                                    <path id="c"></path>
                                </g>
                            </g>
                            <g id="d-link" transform="translate(0.000000, 6.176019)">
                                <g id="d">
                                    <path d="M0.692002163,2.59067476 C0.710002219,1.85467246 1.23227052,1.68027192 1.23600386,1.67773858 C1.24000388,1.6750719 1.80027229,1.86533916 1.79840562,2.59747478 L0.692002163,2.5908081" id="Shape" fill="#FFFF00"></path>
                                    <path d="M0.241334088,1.69200529 L0.15040047,2.53800793 L0.702402195,2.53934127 C0.707735545,1.83933908 1.23240385,1.72280538 1.24507056,1.72547206 C1.2570706,1.72493872 1.77707222,1.88013921 1.7908056,2.53934127 L2.34440733,2.53934127 L2.24440701,1.68680527 L0.241467421,1.69187195 L0.241467421,1.69213862 L0.241334088,1.69200529 Z M0.113333688,2.54134128 L2.37280742,2.54134128 C2.42040756,2.54134128 2.45947435,2.58840809 2.45947435,2.64587494 C2.45947435,2.70320845 2.42040756,2.74987526 2.37280742,2.74987526 L0.113333688,2.74987526 C0.0657335388,2.74987526 0.02666675,2.70320845 0.02666675,2.64587494 C0.02666675,2.58854142 0.0657335388,2.54134128 0.113333688,2.54134128 L0.113333688,2.54134128 Z" id="Shape" stroke="#000000" stroke-width="0.1" fill="#FFFF00"></path>
                                    <path d="M0.934669588,2.53734126 C0.937069595,2.09560655 1.23627053,1.97067283 1.23787054,1.97093949 C1.23787054,1.97093949 1.55013818,2.0997399 1.55253819,2.53734126 L0.934669588,2.53734126 L0.934669588,2.53734126 Z M0.161333838,1.34000419 L2.32734061,1.34000419 C2.37294075,1.34000419 2.41040753,1.38240432 2.41040753,1.43400448 C2.41040753,1.48560464 2.37307408,1.52787144 2.32734061,1.52787144 L0.161333838,1.52787144 C0.115733695,1.52787144 0.0782669113,1.48573798 0.0782669113,1.43387115 C0.0782669113,1.38227099 0.115600361,1.33987085 0.161333838,1.33987085 L0.161333838,1.34000419 Z M0.206667313,1.52933811 L2.27840712,1.52933811 C2.32200726,1.52933811 2.3577407,1.57160491 2.3577407,1.62320507 C2.3577407,1.67493857 2.32200726,1.71707203 2.27840712,1.71707203 L0.206667313,1.71707203 C0.163067176,1.71707203 0.127333731,1.67493857 0.127333731,1.62320507 C0.127333731,1.57160491 0.163067176,1.52933811 0.206667313,1.52933811 L0.206667313,1.52933811 Z M0.876002738,0.1173337 L1.03960325,0.117600368 L1.03960325,0.23360073 L1.15893696,0.23360073 L1.15893696,0.114933693 L1.32653748,0.115600361 L1.32653748,0.233867398 L1.44600452,0.233867398 L1.44600452,0.11520036 L1.61373838,0.11520036 L1.61347171,0.383201198 C1.61347171,0.425467996 1.57960494,0.452534748 1.54013815,0.452534748 L0.952136309,0.452534748 C0.912669519,0.452534748 0.876136071,0.421067983 0.876136071,0.382534529 L0.875602736,0.117200366 L0.876002738,0.1173337 Z M1.49200466,0.476001488 L1.52893811,1.33600418 L0.955202985,1.33400417 L0.993203104,0.473734814 L1.49187133,0.476001488 L1.49200466,0.476001488 Z" id="Shape" stroke="#000000" stroke-width="0.1" fill="#FFFF00"></path>
                                    <polygon id="a" stroke="#000000" stroke-width="0.533335" fill="#FFFF00" points="0.792002475 0.8746694 0.809335863 1.3746694 0.259467478 1.3746694 0.274934193 0.8746694 0.792269143 0.8746694"></polygon>
                                    <g id="a-link" transform="translate(1.547872, 0.800003)" stroke-width="0.533335" stroke="#000000" fill="#FFFF00">
                                        <polygon id="a" points="0.658668725 0.0746669 0.676002112 0.5746669 0.126133727 0.5746669 0.141600442 0.0746669 0.658935392 0.0746669"></polygon>
                                    </g>
                                    <path id="b" stroke="#000000" stroke-width="0.533335" fill="#FFFF00"></path>
                                    <g id="b-link" transform="translate(1.547872, 0.533335)" stroke-width="0.533335" stroke="#000000" fill="#FFFF00">
                                        <path id="b"></path>
                                    </g>
                                    <path id="Shape" fill="#000000"></path>
                                    <path id="c" fill="#000000"></path>
                                    <g id="c-link" transform="translate(1.818806, 0.933336)" fill="#000000">
                                        <path id="c"></path>
                                    </g>
                                </g>
                            </g>
                            <g id="d-link" transform="translate(2.542256, 13.500630) rotate(-45.202000) translate(-2.542256, -13.500630) translate(1.042256, 11.500630)">
                                <g id="d" transform="translate(-0.001409, 0.999175)">
                                    <path d="M0.692002163,2.59067476 C0.710002219,1.85467246 1.23227052,1.68027192 1.23600386,1.67773858 C1.24000388,1.6750719 1.80027229,1.86533916 1.79840562,2.59747478 L0.692002163,2.5908081" id="Shape" fill="#FFFF00"></path>
                                    <path d="M0.241334087,1.69200529 L0.15040047,2.53800793 L0.702402195,2.53934127 C0.707735545,1.83933908 1.23240385,1.72280538 1.24507056,1.72547206 C1.25707059,1.72493872 1.77707222,1.88013921 1.7908056,2.53934127 L2.34440733,2.53934127 L2.24440701,1.68680527 L0.241467421,1.69187195 L0.241467421,1.69213862 L0.241334087,1.69200529 Z M0.113333687,2.54134127 L2.37280741,2.54134127 C2.42040756,2.54134127 2.45947435,2.58840809 2.45947435,2.64587493 C2.45947435,2.70320845 2.42040756,2.74987526 2.37280741,2.74987526 L0.113333687,2.74987526 C0.0657335387,2.74987526 0.02666675,2.70320845 0.02666675,2.64587493 C0.02666675,2.58854142 0.0657335387,2.54134127 0.113333687,2.54134127 L0.113333687,2.54134127 Z" id="Shape" stroke="#000000" stroke-width="0.1" fill="#FFFF00"></path>
                                    <path d="M0.934669587,2.53734126 C0.937069595,2.09560655 1.23627053,1.97067282 1.23787053,1.97093949 C1.23787053,1.97093949 1.55013818,2.09973989 1.55253818,2.53734126 L0.934669587,2.53734126 L0.934669587,2.53734126 Z M0.161333837,1.34000419 L2.32734061,1.34000419 C2.37294075,1.34000419 2.41040753,1.38240432 2.41040753,1.43400448 C2.41040753,1.48560464 2.37307408,1.52787144 2.32734061,1.52787144 L0.161333837,1.52787144 C0.115733695,1.52787144 0.0782669112,1.48573798 0.0782669112,1.43387115 C0.0782669112,1.38227099 0.115600361,1.33987085 0.161333837,1.33987085 L0.161333837,1.34000419 Z M0.206667312,1.52933811 L2.27840712,1.52933811 C2.32200726,1.52933811 2.3577407,1.57160491 2.3577407,1.62320507 C2.3577407,1.67493857 2.32200726,1.71707203 2.27840712,1.71707203 L0.206667312,1.71707203 C0.163067176,1.71707203 0.127333731,1.67493857 0.127333731,1.62320507 C0.127333731,1.57160491 0.163067176,1.52933811 0.206667312,1.52933811 L0.206667312,1.52933811 Z M0.876002737,0.1173337 L1.03960325,0.117600367 L1.03960325,0.23360073 L1.15893695,0.23360073 L1.15893695,0.114933692 L1.32653748,0.115600361 L1.32653748,0.233867397 L1.44600452,0.233867397 L1.44600452,0.11520036 L1.61373838,0.11520036 L1.61347171,0.383201197 C1.61347171,0.425467996 1.57960494,0.452534747 1.54013815,0.452534747 L0.952136309,0.452534747 C0.912669519,0.452534747 0.876136071,0.421067982 0.876136071,0.382534529 L0.875602736,0.117200366 L0.876002737,0.1173337 Z M1.49200466,0.476001487 L1.52893811,1.33600417 L0.955202985,1.33400417 L0.993203104,0.473734814 L1.49187133,0.476001487 L1.49200466,0.476001487 Z" id="Shape" stroke="#000000" stroke-width="0.1" fill="#FFFF00"></path>
                                    <polygon id="a" stroke="#000000" stroke-width="0.533335" fill="#FFFF00" points="0.792002475 0.8746694 0.809335862 1.3746694 0.259467477 1.3746694 0.274934192 0.8746694 0.792269142 0.8746694"></polygon>
                                    <g id="a-link" transform="translate(1.547872, 0.800003)" stroke-width="0.533335" stroke="#000000" fill="#FFFF00">
                                        <polygon id="a" points="0.658668725 0.0746669 0.676002112 0.5746669 0.126133727 0.5746669 0.141600442 0.0746669 0.658935392 0.0746669"></polygon>
                                    </g>
                                    <path id="b" stroke="#000000" stroke-width="0.533335" fill="#FFFF00"></path>
                                    <g id="b-link" transform="translate(1.547872, 0.533335)" stroke-width="0.533335" stroke="#000000" fill="#FFFF00">
                                        <path id="b"></path>
                                    </g>
                                    <path id="Shape" fill="#000000"></path>
                                    <path id="c" fill="#000000"></path>
                                    <g id="c-link" transform="translate(1.818806, 0.933336)" fill="#000000">
                                        <path id="c"></path>
                                    </g>
                                </g>
                            </g>
                        </g>
                        <g id="d-link" transform="translate(6.761888, 0.533335)">
                            <g id="d">
                                <path d="M0.692002163,2.59067476 C0.710002219,1.85467246 1.23227052,1.68027192 1.23600386,1.67773858 C1.24000388,1.6750719 1.80027229,1.86533916 1.79840562,2.59747478 L0.692002163,2.5908081" id="Shape" fill="#FFFF00"></path>
                                <path d="M0.241334088,1.69200529 L0.15040047,2.53800793 L0.702402195,2.53934127 C0.707735545,1.83933908 1.23240385,1.72280538 1.24507056,1.72547206 C1.2570706,1.72493872 1.77707222,1.88013921 1.7908056,2.53934127 L2.34440733,2.53934127 L2.24440701,1.68680527 L0.241467421,1.69187195 L0.241467421,1.69213862 L0.241334088,1.69200529 Z M0.113333688,2.54134128 L2.37280742,2.54134128 C2.42040756,2.54134128 2.45947435,2.58840809 2.45947435,2.64587494 C2.45947435,2.70320845 2.42040756,2.74987526 2.37280742,2.74987526 L0.113333688,2.74987526 C0.0657335388,2.74987526 0.02666675,2.70320845 0.02666675,2.64587494 C0.02666675,2.58854142 0.0657335388,2.54134128 0.113333688,2.54134128 L0.113333688,2.54134128 Z" id="Shape" stroke="#000000" stroke-width="0.1" fill="#FFFF00"></path>
                                <path d="M0.934669588,2.53734126 C0.937069595,2.09560655 1.23627053,1.97067283 1.23787054,1.97093949 C1.23787054,1.97093949 1.55013818,2.0997399 1.55253819,2.53734126 L0.934669588,2.53734126 L0.934669588,2.53734126 Z M0.161333838,1.34000419 L2.32734061,1.34000419 C2.37294075,1.34000419 2.41040753,1.38240432 2.41040753,1.43400448 C2.41040753,1.48560464 2.37307408,1.52787144 2.32734061,1.52787144 L0.161333838,1.52787144 C0.115733695,1.52787144 0.0782669113,1.48573798 0.0782669113,1.43387115 C0.0782669113,1.38227099 0.115600361,1.33987085 0.161333838,1.33987085 L0.161333838,1.34000419 Z M0.206667313,1.52933811 L2.27840712,1.52933811 C2.32200726,1.52933811 2.3577407,1.57160491 2.3577407,1.62320507 C2.3577407,1.67493857 2.32200726,1.71707203 2.27840712,1.71707203 L0.206667313,1.71707203 C0.163067176,1.71707203 0.127333731,1.67493857 0.127333731,1.62320507 C0.127333731,1.57160491 0.163067176,1.52933811 0.206667313,1.52933811 L0.206667313,1.52933811 Z M0.876002738,0.1173337 L1.03960325,0.117600368 L1.03960325,0.23360073 L1.15893696,0.23360073 L1.15893696,0.114933693 L1.32653748,0.115600361 L1.32653748,0.233867398 L1.44600452,0.233867398 L1.44600452,0.11520036 L1.61373838,0.11520036 L1.61347171,0.383201198 C1.61347171,0.425467996 1.57960494,0.452534748 1.54013815,0.452534748 L0.952136309,0.452534748 C0.912669519,0.452534748 0.876136071,0.421067983 0.876136071,0.382534529 L0.875602736,0.117200366 L0.876002738,0.1173337 Z M1.49200466,0.476001488 L1.52893811,1.33600418 L0.955202985,1.33400417 L0.993203104,0.473734814 L1.49187133,0.476001488 L1.49200466,0.476001488 Z" id="Shape" stroke="#000000" stroke-width="0.1" fill="#FFFF00"></path>
                                <polygon id="a" stroke="#000000" stroke-width="0.533335" fill="#FFFF00" points="0.792002475 0.8746694 0.809335863 1.3746694 0.259467478 1.3746694 0.274934193 0.8746694 0.792269143 0.8746694"></polygon>
                                <g id="a-link" transform="translate(1.547872, 0.800003)" stroke-width="0.533335" stroke="#000000" fill="#FFFF00">
                                    <polygon id="a" points="0.658668725 0.0746669 0.676002112 0.5746669 0.126133727 0.5746669 0.141600442 0.0746669 0.658935392 0.0746669"></polygon>
                                </g>
                                <path id="b" stroke="#000000" stroke-width="0.533335" fill="#FFFF00"></path>
                                <g id="b-link" transform="translate(1.547872, 0.533335)" stroke-width="0.533335" stroke="#000000" fill="#FFFF00">
                                    <path id="b"></path>
                                </g>
                                <path id="Shape" fill="#000000"></path>
                                <path id="c" fill="#000000"></path>
                                <g id="c-link" transform="translate(1.818806, 0.933336)" fill="#000000">
                                    <path id="c"></path>
                                </g>
                            </g>
                        </g>
                        <g id="e-link" transform="translate(12.805648, 9.033335) scale(-1, 1) translate(-12.805648, -9.033335) translate(9.305648, 0.533335)">
                            <g id="e">
                                <g id="d" transform="translate(1.000000, -0.000000)">
                                    <path d="M0.692002163,2.59067476 C0.710002219,1.85467246 1.23227052,1.68027192 1.23600386,1.67773858 C1.24000388,1.6750719 1.80027229,1.86533916 1.79840562,2.59747478 L0.692002163,2.5908081" id="Shape" fill="#FFFF00"></path>
                                    <path d="M0.241334088,1.69200529 L0.15040047,2.53800793 L0.702402195,2.53934127 C0.707735545,1.83933908 1.23240385,1.72280538 1.24507056,1.72547206 C1.2570706,1.72493872 1.77707222,1.88013921 1.7908056,2.53934127 L2.34440733,2.53934127 L2.24440701,1.68680527 L0.241467421,1.69187195 L0.241467421,1.69213862 L0.241334088,1.69200529 Z M0.113333688,2.54134128 L2.37280742,2.54134128 C2.42040756,2.54134128 2.45947435,2.58840809 2.45947435,2.64587494 C2.45947435,2.70320845 2.42040756,2.74987526 2.37280742,2.74987526 L0.113333688,2.74987526 C0.0657335388,2.74987526 0.02666675,2.70320845 0.02666675,2.64587494 C0.02666675,2.58854142 0.0657335388,2.54134128 0.113333688,2.54134128 L0.113333688,2.54134128 Z" id="Shape" stroke="#000000" stroke-width="0.1" fill="#FFFF00"></path>
                                    <path d="M0.934669588,2.53734126 C0.937069595,2.09560655 1.23627053,1.97067283 1.23787054,1.97093949 C1.23787054,1.97093949 1.55013818,2.0997399 1.55253819,2.53734126 L0.934669588,2.53734126 L0.934669588,2.53734126 Z M0.161333838,1.34000419 L2.32734061,1.34000419 C2.37294075,1.34000419 2.41040753,1.38240432 2.41040753,1.43400448 C2.41040753,1.48560464 2.37307408,1.52787144 2.32734061,1.52787144 L0.161333838,1.52787144 C0.115733695,1.52787144 0.0782669113,1.48573798 0.0782669113,1.43387115 C0.0782669113,1.38227099 0.115600361,1.33987085 0.161333838,1.33987085 L0.161333838,1.34000419 Z M0.206667313,1.52933811 L2.27840712,1.52933811 C2.32200726,1.52933811 2.3577407,1.57160491 2.3577407,1.62320507 C2.3577407,1.67493857 2.32200726,1.71707203 2.27840712,1.71707203 L0.206667313,1.71707203 C0.163067176,1.71707203 0.127333731,1.67493857 0.127333731,1.62320507 C0.127333731,1.57160491 0.163067176,1.52933811 0.206667313,1.52933811 L0.206667313,1.52933811 Z M0.876002738,0.1173337 L1.03960325,0.117600368 L1.03960325,0.23360073 L1.15893696,0.23360073 L1.15893696,0.114933693 L1.32653748,0.115600361 L1.32653748,0.233867398 L1.44600452,0.233867398 L1.44600452,0.11520036 L1.61373838,0.11520036 L1.61347171,0.383201198 C1.61347171,0.425467996 1.57960494,0.452534748 1.54013815,0.452534748 L0.952136309,0.452534748 C0.912669519,0.452534748 0.876136071,0.421067983 0.876136071,0.382534529 L0.875602736,0.117200366 L0.876002738,0.1173337 Z M1.49200466,0.476001488 L1.52893811,1.33600418 L0.955202985,1.33400417 L0.993203104,0.473734814 L1.49187133,0.476001488 L1.49200466,0.476001488 Z" id="Shape" stroke="#000000" stroke-width="0.1" fill="#FFFF00"></path>
                                    <polygon id="a" stroke="#000000" stroke-width="0.533335" fill="#FFFF00" points="0.792002475 0.8746694 0.809335863 1.3746694 0.259467478 1.3746694 0.274934193 0.8746694 0.792269143 0.8746694"></polygon>
                                    <g id="a-link" transform="translate(1.547872, 0.800003)" stroke-width="0.533335" stroke="#000000" fill="#FFFF00">
                                        <polygon id="a" points="0.658668725 0.0746669 0.676002112 0.5746669 0.126133727 0.5746669 0.141600442 0.0746669 0.658935392 0.0746669"></polygon>
                                    </g>
                                    <path id="b" stroke="#000000" stroke-width="0.533335" fill="#FFFF00"></path>
                                    <g id="b-link" transform="translate(1.547872, 0.533335)" stroke-width="0.533335" stroke="#000000" fill="#FFFF00">
                                        <path id="b"></path>
                                    </g>
                                    <path id="Shape" fill="#000000"></path>
                                    <path id="c" fill="#000000"></path>
                                    <g id="c-link" transform="translate(1.818806, 0.933336)" fill="#000000">
                                        <path id="c"></path>
                                    </g>
                                </g>
                                <g id="d-link" transform="translate(1.000000, 6.176019)">
                                    <g id="d">
                                        <path d="M0.692002163,2.59067476 C0.710002219,1.85467246 1.23227052,1.68027192 1.23600386,1.67773858 C1.24000388,1.6750719 1.80027229,1.86533916 1.79840562,2.59747478 L0.692002163,2.5908081" id="Shape" fill="#FFFF00"></path>
                                        <path d="M0.241334088,1.69200529 L0.15040047,2.53800793 L0.702402195,2.53934127 C0.707735545,1.83933908 1.23240385,1.72280538 1.24507056,1.72547206 C1.2570706,1.72493872 1.77707222,1.88013921 1.7908056,2.53934127 L2.34440733,2.53934127 L2.24440701,1.68680527 L0.241467421,1.69187195 L0.241467421,1.69213862 L0.241334088,1.69200529 Z M0.113333688,2.54134128 L2.37280742,2.54134128 C2.42040756,2.54134128 2.45947435,2.58840809 2.45947435,2.64587494 C2.45947435,2.70320845 2.42040756,2.74987526 2.37280742,2.74987526 L0.113333688,2.74987526 C0.0657335388,2.74987526 0.02666675,2.70320845 0.02666675,2.64587494 C0.02666675,2.58854142 0.0657335388,2.54134128 0.113333688,2.54134128 L0.113333688,2.54134128 Z" id="Shape" stroke="#000000" stroke-width="0.1" fill="#FFFF00"></path>
                                        <path d="M0.934669588,2.53734126 C0.937069595,2.09560655 1.23627053,1.97067283 1.23787054,1.97093949 C1.23787054,1.97093949 1.55013818,2.0997399 1.55253819,2.53734126 L0.934669588,2.53734126 L0.934669588,2.53734126 Z M0.161333838,1.34000419 L2.32734061,1.34000419 C2.37294075,1.34000419 2.41040753,1.38240432 2.41040753,1.43400448 C2.41040753,1.48560464 2.37307408,1.52787144 2.32734061,1.52787144 L0.161333838,1.52787144 C0.115733695,1.52787144 0.0782669113,1.48573798 0.0782669113,1.43387115 C0.0782669113,1.38227099 0.115600361,1.33987085 0.161333838,1.33987085 L0.161333838,1.34000419 Z M0.206667313,1.52933811 L2.27840712,1.52933811 C2.32200726,1.52933811 2.3577407,1.57160491 2.3577407,1.62320507 C2.3577407,1.67493857 2.32200726,1.71707203 2.27840712,1.71707203 L0.206667313,1.71707203 C0.163067176,1.71707203 0.127333731,1.67493857 0.127333731,1.62320507 C0.127333731,1.57160491 0.163067176,1.52933811 0.206667313,1.52933811 L0.206667313,1.52933811 Z M0.876002738,0.1173337 L1.03960325,0.117600368 L1.03960325,0.23360073 L1.15893696,0.23360073 L1.15893696,0.114933693 L1.32653748,0.115600361 L1.32653748,0.233867398 L1.44600452,0.233867398 L1.44600452,0.11520036 L1.61373838,0.11520036 L1.61347171,0.383201198 C1.61347171,0.425467996 1.57960494,0.452534748 1.54013815,0.452534748 L0.952136309,0.452534748 C0.912669519,0.452534748 0.876136071,0.421067983 0.876136071,0.382534529 L0.875602736,0.117200366 L0.876002738,0.1173337 Z M1.49200466,0.476001488 L1.52893811,1.33600418 L0.955202985,1.33400417 L0.993203104,0.473734814 L1.49187133,0.476001488 L1.49200466,0.476001488 Z" id="Shape" stroke="#000000" stroke-width="0.1" fill="#FFFF00"></path>
                                        <polygon id="a" stroke="#000000" stroke-width="0.533335" fill="#FFFF00" points="0.792002475 0.8746694 0.809335863 1.3746694 0.259467478 1.3746694 0.274934193 0.8746694 0.792269143 0.8746694"></polygon>
                                        <g id="a-link" transform="translate(1.547872, 0.800003)" stroke-width="0.533335" stroke="#000000" fill="#FFFF00">
                                            <polygon id="a" points="0.658668725 0.0746669 0.676002112 0.5746669 0.126133727 0.5746669 0.141600442 0.0746669 0.658935392 0.0746669"></polygon>
                                        </g>
                                        <path id="b" stroke="#000000" stroke-width="0.533335" fill="#FFFF00"></path>
                                        <g id="b-link" transform="translate(1.547872, 0.533335)" stroke-width="0.533335" stroke="#000000" fill="#FFFF00">
                                            <path id="b"></path>
                                        </g>
                                        <path id="Shape" fill="#000000"></path>
                                        <path id="c" fill="#000000"></path>
                                        <g id="c-link" transform="translate(1.818806, 0.933336)" fill="#000000">
                                            <path id="c"></path>
                                        </g>
                                    </g>
                                </g>
                                <g id="d-link" transform="translate(3.188702, 13.854183) rotate(-45.202000) translate(-3.188702, -13.854183) translate(1.188702, 11.854183)">
                                    <g id="d" transform="translate(0.998588, 1.000938)">
                                        <path d="M0.692002163,2.59067476 C0.710002219,1.85467246 1.23227052,1.68027192 1.23600386,1.67773858 C1.24000388,1.6750719 1.80027229,1.86533916 1.79840562,2.59747478 L0.692002163,2.5908081" id="Shape" fill="#FFFF00"></path>
                                        <path d="M0.241334088,1.69200529 L0.15040047,2.53800793 L0.702402195,2.53934127 C0.707735545,1.83933908 1.23240385,1.72280538 1.24507056,1.72547206 C1.2570706,1.72493872 1.77707222,1.88013921 1.7908056,2.53934127 L2.34440733,2.53934127 L2.24440701,1.68680527 L0.241467421,1.69187195 L0.241467421,1.69213862 L0.241334088,1.69200529 Z M0.113333688,2.54134128 L2.37280742,2.54134128 C2.42040756,2.54134128 2.45947435,2.58840809 2.45947435,2.64587494 C2.45947435,2.70320845 2.42040756,2.74987526 2.37280742,2.74987526 L0.113333688,2.74987526 C0.0657335388,2.74987526 0.02666675,2.70320845 0.02666675,2.64587494 C0.02666675,2.58854142 0.0657335388,2.54134128 0.113333688,2.54134128 L0.113333688,2.54134128 Z" id="Shape" stroke="#000000" stroke-width="0.1" fill="#FFFF00"></path>
                                        <path d="M0.934669588,2.53734126 C0.937069595,2.09560655 1.23627053,1.97067283 1.23787054,1.97093949 C1.23787054,1.97093949 1.55013818,2.0997399 1.55253819,2.53734126 L0.934669588,2.53734126 L0.934669588,2.53734126 Z M0.161333838,1.34000419 L2.32734061,1.34000419 C2.37294075,1.34000419 2.41040753,1.38240432 2.41040753,1.43400448 C2.41040753,1.48560464 2.37307408,1.52787144 2.32734061,1.52787144 L0.161333838,1.52787144 C0.115733695,1.52787144 0.0782669113,1.48573798 0.0782669113,1.43387115 C0.0782669113,1.38227099 0.115600361,1.33987085 0.161333838,1.33987085 L0.161333838,1.34000419 Z M0.206667313,1.52933811 L2.27840712,1.52933811 C2.32200726,1.52933811 2.3577407,1.57160491 2.3577407,1.62320507 C2.3577407,1.67493857 2.32200726,1.71707203 2.27840712,1.71707203 L0.206667313,1.71707203 C0.163067176,1.71707203 0.127333731,1.67493857 0.127333731,1.62320507 C0.127333731,1.57160491 0.163067176,1.52933811 0.206667313,1.52933811 L0.206667313,1.52933811 Z M0.876002738,0.1173337 L1.03960325,0.117600368 L1.03960325,0.23360073 L1.15893696,0.23360073 L1.15893696,0.114933693 L1.32653748,0.115600361 L1.32653748,0.233867398 L1.44600452,0.233867398 L1.44600452,0.11520036 L1.61373838,0.11520036 L1.61347171,0.383201198 C1.61347171,0.425467996 1.57960494,0.452534748 1.54013815,0.452534748 L0.952136309,0.452534748 C0.912669519,0.452534748 0.876136071,0.421067983 0.876136071,0.382534529 L0.875602736,0.117200366 L0.876002738,0.1173337 Z M1.49200466,0.476001488 L1.52893811,1.33600418 L0.955202985,1.33400417 L0.993203104,0.473734814 L1.49187133,0.476001488 L1.49200466,0.476001488 Z" id="Shape" stroke="#000000" stroke-width="0.1" fill="#FFFF00"></path>
                                        <polygon id="a" stroke="#000000" stroke-width="0.533335" fill="#FFFF00" points="0.792002475 0.8746694 0.809335863 1.3746694 0.259467478 1.3746694 0.274934193 0.8746694 0.792269143 0.8746694"></polygon>
                                        <g id="a-link" transform="translate(1.547872, 0.800003)" stroke-width="0.533335" stroke="#000000" fill="#FFFF00">
                                            <polygon id="a" points="0.658668725 0.0746669 0.676002112 0.5746669 0.126133727 0.5746669 0.141600442 0.0746669 0.658935392 0.0746669"></polygon>
                                        </g>
                                        <path id="b" stroke="#000000" stroke-width="0.533335" fill="#FFFF00"></path>
                                        <g id="b-link" transform="translate(1.547872, 0.533335)" stroke-width="0.533335" stroke="#000000" fill="#FFFF00">
                                            <path id="b"></path>
                                        </g>
                                        <path id="Shape" fill="#000000"></path>
                                        <path id="c" fill="#000000"></path>
                                        <g id="c-link" transform="translate(1.818806, 0.933336)" fill="#000000">
                                            <path id="c"></path>
                                        </g>
                                    </g>
                                </g>
                            </g>
                        </g>
                        <g id="f" transform="translate(6.933355, 8.000025)">
                            <path d="M0.084800265,1.52080475 L0.084800265,1.52147142 C0.0836951065,1.8025474 0.189072928,2.07361422 0.37973452,2.28014046 C0.561735089,2.47574107 0.812402539,2.59720812 1.08667006,2.59720812 C1.36227092,2.59720812 1.61253837,2.47654107 1.79373894,2.2818738 C1.97480617,2.08720652 2.08733986,1.81893902 2.08733986,1.52280476 L2.08733986,0.0870669388 L0.0884002763,0.0853336 L0.0846669313,1.52067142" id="Shape" fill="#003399"></path>
                            <circle id="Oval" fill="#FFFFFF" cx="0.595067745" cy="0.683201354" r="0.25"></circle>
                            <circle id="Oval" fill="#FFFFFF" cx="1.70413788" cy="0.68413469" r="0.25"></circle>
                            <circle id="Oval" fill="#FFFFFF" cx="1.14853614" cy="1.21653635" r="0.25"></circle>
                            <circle id="Oval" fill="#FFFFFF" cx="0.595067745" cy="1.77400476" r="0.25"></circle>
                            <circle id="Oval" fill="#FFFFFF" cx="1.70293787" cy="1.77253809" r="0.25"></circle>
                        </g>
                        <g id="f-link" transform="translate(6.933355, 4.531214)">
                            <g id="f">
                                <path d="M0.084800265,1.52080475 L0.084800265,1.52147142 C0.0836951065,1.8025474 0.189072928,2.07361422 0.37973452,2.28014046 C0.561735089,2.47574107 0.812402539,2.59720812 1.08667006,2.59720812 C1.36227092,2.59720812 1.61253837,2.47654107 1.79373894,2.2818738 C1.97480617,2.08720652 2.08733986,1.81893902 2.08733986,1.52280476 L2.08733986,0.0870669388 L0.0884002763,0.0853336 L0.0846669313,1.52067142" id="Shape" fill="#003399"></path>
                                <circle id="Oval" fill="#FFFFFF" cx="0.595067745" cy="0.683201354" r="0.25"></circle>
                                <circle id="Oval" fill="#FFFFFF" cx="1.70413788" cy="0.68413469" r="0.25"></circle>
                                <circle id="Oval" fill="#FFFFFF" cx="1.14853614" cy="1.21653635" r="0.25"></circle>
                                <circle id="Oval" fill="#FFFFFF" cx="0.595067745" cy="1.77400476" r="0.25"></circle>
                                <circle id="Oval" fill="#FFFFFF" cx="1.70293787" cy="1.77253809" r="0.25"></circle>
                            </g>
                        </g>
                        <g id="f-link" transform="translate(4.160146, 8.000025)">
                            <g id="f" transform="translate(0.000000, 0.000000)">
                                <path d="M0.084800265,1.52080475 L0.084800265,1.52147142 C0.0836951065,1.8025474 0.189072928,2.07361422 0.37973452,2.28014046 C0.561735089,2.47574107 0.812402539,2.59720812 1.08667006,2.59720812 C1.36227092,2.59720812 1.61253837,2.47654107 1.79373894,2.2818738 C1.97480617,2.08720652 2.08733986,1.81893902 2.08733986,1.52280476 L2.08733986,0.0870669387 L0.0884002763,0.0853336 L0.0846669313,1.52067142" id="Shape" fill="#003399"></path>
                                <circle id="Oval" fill="#FFFFFF" cx="0.595067745" cy="0.683201354" r="0.25"></circle>
                                <circle id="Oval" fill="#FFFFFF" cx="1.70413788" cy="0.68413469" r="0.25"></circle>
                                <circle id="Oval" fill="#FFFFFF" cx="1.14853614" cy="1.21653635" r="0.25"></circle>
                                <circle id="Oval" fill="#FFFFFF" cx="0.595067745" cy="1.77400476" r="0.25"></circle>
                                <circle id="Oval" fill="#FFFFFF" cx="1.70293787" cy="1.77253809" r="0.25"></circle>
                            </g>
                        </g>
                        <g id="f-link" transform="translate(9.699364, 8.000025)">
                            <g id="f">
                                <path d="M0.084800265,1.52080475 L0.084800265,1.52147142 C0.0836951065,1.8025474 0.189072928,2.07361422 0.37973452,2.28014046 C0.561735089,2.47574107 0.812402539,2.59720812 1.08667006,2.59720812 C1.36227092,2.59720812 1.61253837,2.47654107 1.79373894,2.2818738 C1.97480617,2.08720652 2.08733986,1.81893902 2.08733986,1.52280476 L2.08733986,0.0870669388 L0.0884002763,0.0853336 L0.0846669313,1.52067142" id="Shape" fill="#003399"></path>
                                <circle id="Oval" fill="#FFFFFF" cx="0.595067745" cy="0.683201354" r="0.25"></circle>
                                <circle id="Oval" fill="#FFFFFF" cx="1.70413788" cy="0.68413469" r="0.25"></circle>
                                <circle id="Oval" fill="#FFFFFF" cx="1.14853614" cy="1.21653635" r="0.25"></circle>
                                <circle id="Oval" fill="#FFFFFF" cx="0.595067745" cy="1.77400476" r="0.25"></circle>
                                <circle id="Oval" fill="#FFFFFF" cx="1.70293787" cy="1.77253809" r="0.25"></circle>
                            </g>
                        </g>
                        <g id="f-link" transform="translate(6.933355, 11.437902)">
                            <g id="f">
                                <path d="M0.084800265,1.52080475 L0.084800265,1.52147142 C0.0836951065,1.8025474 0.189072928,2.07361422 0.37973452,2.28014046 C0.561735089,2.47574107 0.812402539,2.59720812 1.08667006,2.59720812 C1.36227092,2.59720812 1.61253837,2.47654107 1.79373894,2.2818738 C1.97480617,2.08720652 2.08733986,1.81893902 2.08733986,1.52280476 L2.08733986,0.0870669388 L0.0884002763,0.0853336 L0.0846669313,1.52067142" id="Shape" fill="#003399"></path>
                                <circle id="Oval" fill="#FFFFFF" cx="0.595067745" cy="0.683201354" r="0.25"></circle>
                                <circle id="Oval" fill="#FFFFFF" cx="1.70413788" cy="0.68413469" r="0.25"></circle>
                                <circle id="Oval" fill="#FFFFFF" cx="1.14853614" cy="1.21653635" r="0.25"></circle>
                                <circle id="Oval" fill="#FFFFFF" cx="0.595067745" cy="1.77400476" r="0.25"></circle>
                                <circle id="Oval" fill="#FFFFFF" cx="1.70293787" cy="1.77253809" r="0.25"></circle>
                            </g>
                        </g>
                    </g>
                </g>
            </g>
        </g>
    </g>
</svg>