<?xml version="1.0" encoding="UTF-8" standalone="no"?>
<svg width="122px" height="60px" viewBox="0 0 122 60" version="1.1" xmlns="http://www.w3.org/2000/svg" xmlns:xlink="http://www.w3.org/1999/xlink">
    <!-- Generator: Sketch 3.8.2 (29753) - http://www.bohemiancoding.com/sketch -->
    <title>py</title>
    <desc>Created with Sketch.</desc>
    <defs></defs>
    <g id="Page-1" stroke="none" stroke-width="1" fill="none" fill-rule="evenodd">
        <g id="py">
            <g id="Group">
                <g>
                    <polygon id="Shape" fill="#0038A8" points="0 40 122 40 122 60 0 60"></polygon>
                    <polygon id="Shape" fill="#FFFFFF" points="0 20 122 20 122 40 0 40"></polygon>
                    <polygon id="Shape" fill="#D52B1E" points="0 0 122 0 122 20 0 20"></polygon>
                    <g transform="translate(53.181919, 22.181888)" stroke="#000000" id="Oval" stroke-width="0.1">
                        <ellipse cx="7.81820625" cy="7.81820625" rx="7.67275125" ry="7.67275125"></ellipse>
                        <ellipse cx="7.81820625" cy="7.81820625" rx="6.30365606" ry="6.30365606"></ellipse>
                        <ellipse cx="7.81820625" cy="7.81820625" rx="4.829106" ry="4.829106"></ellipse>
                    </g>
                    <path d="M56.914625,32.96 L56.025125,33.488375 L55.753125,33.03025 C55.70275,32.94525 55.671375,32.876 55.659375,32.8225 C55.6471702,32.7698763 55.6529805,32.714679 55.675875,32.66575 C55.699,32.61475 55.73875,32.5725 55.7955,32.538875 C55.84475,32.50975 55.893625,32.494875 55.94175,32.49475 C55.9902106,32.4945363 56.037939,32.5065759 56.0805,32.52975 C56.108625,32.54475 56.1395,32.57 56.173,32.605375 C56.1645,32.566125 56.16125,32.53575 56.16325,32.514125 C56.1645,32.499875 56.171375,32.476 56.183875,32.4425 C56.196375,32.409 56.207125,32.38525 56.216375,32.37125 L56.395125,32.085 L56.579625,32.39575 L56.395,32.704 C56.37075,32.7435 56.35775,32.77375 56.355875,32.7945 C56.353875,32.8225 56.360375,32.849 56.37525,32.874125 L56.389625,32.898375 L56.750875,32.684 L56.914625,32.96 Z M56.221625,32.99825 L56.152875,32.882375 C56.145375,32.869625 56.126875,32.84775 56.097375,32.816625 C56.0833716,32.8007556 56.0639228,32.790719 56.042875,32.7885 C56.021344,32.7857669 55.9995237,32.7904395 55.981,32.80175 C55.95225,32.818875 55.9355,32.841 55.931,32.868375 C55.926375,32.895625 55.939,32.934375 55.96875,32.984625 L56.0405,33.10525 L56.221625,32.99825 Z M55.38375,32.311 L55.113375,31.498 L55.323,31.428375 L55.49225,31.937125 L55.64825,31.885375 L55.49125,31.41325 L55.6915,31.346625 L55.8485,31.81875 L56.042,31.754375 L55.867875,31.230625 L56.090375,31.156875 L56.365375,31.984375 L55.38375,32.311 Z M55.02925,31.101875 L54.96875,30.574 C54.955625,30.459 54.973125,30.36975 55.02125,30.306125 C55.069375,30.242375 55.14375,30.204875 55.245,30.193625 C55.34875,30.181625 55.433375,30.203625 55.49875,30.25925 C55.5645,30.314875 55.604625,30.40675 55.61925,30.534875 L55.63925,30.708625 L56.0205,30.665125 L56.057125,30.984125 L55.02925,31.101875 Z M55.430875,30.73275 L55.422125,30.654875 C55.415,30.593625 55.399375,30.55175 55.375375,30.529375 C55.3524736,30.5074381 55.3207792,30.4972111 55.289375,30.501625 C55.2587331,30.5044552 55.2305037,30.5194478 55.211,30.54325 C55.191,30.567375 55.1845,30.609 55.19125,30.66825 L55.201625,30.758875 L55.430875,30.73275 Z M54.9965,29.16 L55.030625,28.843 L55.643875,28.90925 C55.7025839,28.9151523 55.75986,28.9310036 55.81325,28.956125 C55.86525,28.98075 55.90925,29.0155 55.945375,29.060375 C55.981625,29.105125 56.005375,29.150625 56.016875,29.196875 C56.033125,29.261125 56.036625,29.3365 56.02725,29.423125 C56.021875,29.473125 56.0125,29.52725 55.999125,29.585625 C55.98575,29.644125 55.966625,29.692125 55.941375,29.729625 C55.916375,29.767125 55.882625,29.80025 55.840875,29.829125 C55.798875,29.857875 55.757125,29.87625 55.714875,29.884125 C55.647375,29.896625 55.58825,29.900375 55.53775,29.89475 L54.924625,29.8285 L54.958875,29.511375 L55.586625,29.579125 C55.642875,29.585125 55.688375,29.574375 55.72325,29.546625 C55.75825,29.518875 55.778625,29.4775 55.7845,29.42225 C55.7905,29.3675 55.7795,29.323 55.752,29.2885 C55.724125,29.254 55.681625,29.23375 55.6245,29.227625 L54.9965,29.16 Z M55.134625,28.401875 L55.332125,27.836875 C55.365,27.74275 55.413625,27.678625 55.477875,27.644375 C55.5390555,27.6105372 55.6119499,27.6050599 55.6775,27.629375 C55.73525,27.649625 55.7785,27.685 55.80725,27.735375 C55.826375,27.769125 55.836,27.811625 55.83575,27.8635 C55.877,27.799125 55.924125,27.757625 55.97675,27.739 C56.02925,27.72025 56.08675,27.72175 56.149,27.7435 C56.199625,27.761 56.241125,27.788875 56.27325,27.8265 C56.3055,27.864 56.326125,27.9075 56.335375,27.9565 C56.34125,27.987125 56.3385,28.029 56.327375,28.082375 C56.312375,28.153375 56.301125,28.199875 56.29325,28.222125 L56.111125,28.743125 L55.134625,28.401875 Z M55.624125,28.231375 L55.67,28.100125 C55.6865,28.053125 55.69,28.017625 55.68,27.9935 C55.67025,27.969375 55.65,27.952 55.619375,27.94125 C55.591,27.93125 55.565625,27.9325 55.543125,27.9455 C55.520625,27.958375 55.5015,27.987625 55.485625,28.033375 L55.439,28.166625 L55.624125,28.231375 Z M56.007875,28.365625 L56.061625,28.211875 C56.079875,28.15975 56.083375,28.119875 56.0725,28.092125 C56.0613846,28.0641904 56.0381487,28.042841 56.009375,28.034125 C55.9827652,28.0238696 55.9528909,28.0266443 55.928625,28.041625 C55.903625,28.056625 55.881875,28.090375 55.863625,28.14325 L55.809875,28.2965 L56.007875,28.365625 Z M55.62375,27.15825 L55.78875,26.8845 L56.456625,27.2875 L56.714375,26.86025 L56.9325,26.991875 L56.5095,27.692875 L55.62375,27.15825 Z M56.24925,26.211 L56.45425,25.96475 L57.24925,26.62725 L57.044,26.8735 L56.24925,26.211 Z M57.64,25.6765 L57.90775,25.558125 C57.94475,25.629875 57.965,25.699 57.96875,25.765375 C57.9725,25.831625 57.96,25.894625 57.932125,25.954125 C57.904125,26.0135 57.855,26.073375 57.784625,26.13375 C57.699375,26.207125 57.619,26.2545 57.543625,26.27625 C57.468125,26.297875 57.384,26.294375 57.291125,26.265625 C57.19825,26.236875 57.109875,26.17375 57.026125,26.076375 C56.914625,25.946625 56.863375,25.817125 56.872375,25.688 C56.8815,25.559 56.94925,25.440125 57.0755,25.33175 C57.17425,25.24675 57.26925,25.199875 57.360125,25.19125 C57.451125,25.1825 57.545875,25.20775 57.6445,25.266875 L57.47125,25.4985 C57.443375,25.481 57.4205,25.470375 57.40275,25.466375 C57.3743263,25.4595013 57.3446737,25.4595013 57.31625,25.466375 C57.2870551,25.4737687 57.2600533,25.4880411 57.2375,25.508 C57.1825,25.55525 57.1595,25.6135 57.16825,25.683 C57.17425,25.73475 57.2075,25.795875 57.267875,25.866125 C57.342875,25.953125 57.40725,26.0015 57.461375,26.011125 C57.515625,26.02075 57.566625,26.004875 57.6145,25.963875 C57.66075,25.923875 57.68475,25.880875 57.686125,25.834375 C57.687375,25.788125 57.672125,25.735375 57.64025,25.676625 L57.64,25.6765 Z M58.741875,25.28 L58.420625,25.45125 L58.456875,25.625625 L58.168375,25.779375 L58.024625,24.6835 L58.332375,24.5195 L59.162125,25.2495 L58.867125,25.407 L58.741875,25.28 Z M58.5775,25.11425 L58.301625,24.83975 L58.376375,25.2215 L58.5775,25.11425 Z M59.554625,24.054625 L60.022625,23.97375 C60.115125,23.957875 60.19175,23.9575 60.252875,23.97275 C60.314125,23.98775 60.367125,24.01575 60.412375,24.056125 C60.457375,24.0965 60.493625,24.146125 60.521125,24.2055 C60.548625,24.26475 60.568375,24.32925 60.580375,24.39875 C60.599125,24.50775 60.601375,24.594375 60.587,24.65875 C60.5739452,24.7199872 60.5475712,24.7776003 60.50975,24.8275 C60.4764259,24.8726252 60.4325099,24.908857 60.381875,24.933 C60.3237543,24.960955 60.2622353,24.9812093 60.198875,24.99325 L59.730875,25.074125 L59.554625,24.054625 Z M59.909625,24.231125 L60.005875,24.788 L60.083,24.774625 C60.14875,24.763375 60.19425,24.747875 60.219625,24.728375 C60.245,24.709125 60.262375,24.679875 60.271875,24.640875 C60.28125,24.601625 60.279,24.54125 60.264875,24.459625 C60.246125,24.351625 60.21575,24.280875 60.173625,24.247125 C60.1315,24.213125 60.069625,24.203375 59.988,24.217375 L59.909625,24.231125 Z M60.88375,23.8765 L61.73975,23.913 L61.73025,24.13375 L61.194375,24.110875 L61.187375,24.275125 L61.684375,24.296375 L61.675375,24.50725 L61.17825,24.486 L61.1695,24.68975 L61.721,24.7135 L61.711,24.9475 L60.839375,24.91 L60.88375,23.8765 Z M62.12925,23.974625 L62.43975,24.050625 L62.254375,24.808125 L62.739,24.926875 L62.678375,25.174125 L61.883375,24.9795 L62.12925,23.974625 Z M63.78925,24.5255 L64.24675,24.796 C64.34625,24.85475 64.40675,24.922625 64.4285,24.999375 C64.450125,25.076125 64.435125,25.158125 64.3835,25.245625 C64.33025,25.335625 64.261625,25.389875 64.177625,25.4085 C64.093875,25.42725 63.996375,25.40375 63.885125,25.338125 L63.734625,25.249 L63.53925,25.5795 L63.263,25.416125 L63.78925,24.5255 Z M63.84125,25.068625 L63.90875,25.108375 C63.961625,25.139625 64.004375,25.1525 64.03675,25.146875 C64.0680379,25.1418622 64.0953056,25.1227932 64.11075,25.095125 C64.1269603,25.0690172 64.1320469,25.0375074 64.124875,25.007625 C64.117625,24.977 64.08825,24.946625 64.036875,24.916125 L63.9585,24.869875 L63.84125,25.068625 Z M64.738375,26.274625 L64.471625,26.026625 L64.318625,26.117625 L64.07925,25.895125 L65.068625,25.402375 L65.323875,25.639875 L64.903875,26.662375 L64.659125,26.434375 L64.738375,26.274625 Z M64.841625,26.065125 L65.011125,25.715125 L64.6745,25.910125 L64.841625,26.065125 Z M64.965625,26.75275 L65.818625,26.1675 L66.119875,26.60675 C66.175875,26.68825 66.211625,26.7555 66.227375,26.808 C66.242875,26.8605 66.24075,26.913 66.221125,26.9655 C66.201125,27.01775 66.16425,27.062625 66.109875,27.099875 C66.062625,27.132375 66.014875,27.150125 65.96675,27.153625 C65.9184321,27.1569629 65.8700553,27.1480185 65.826125,27.127625 C65.797125,27.114375 65.764625,27.091375 65.728875,27.05825 C65.740125,27.097 65.745125,27.127 65.7445,27.1485 C65.74425,27.16275 65.739,27.18725 65.72875,27.22125 C65.7219592,27.2464939 65.7127499,27.2710241 65.70125,27.2945 L65.54125,27.591625 L65.336875,27.29375 L65.501,26.974 C65.5225,26.933 65.5335,26.902125 65.534,26.881125 C65.5340918,26.8532176 65.5255325,26.8259677 65.5095,26.803125 L65.4935,26.779875 L65.14725,27.017375 L64.965625,26.75275 Z M65.65475,26.669375 L65.731,26.780625 C65.73925,26.792625 65.759125,26.813125 65.7905,26.842375 C65.806,26.857375 65.82475,26.8655 65.84675,26.86675 C65.8684018,26.868003 65.8898329,26.8618295 65.9075,26.84925 C65.935,26.8305 65.95,26.80725 65.952875,26.779625 C65.95575,26.752125 65.940625,26.71425 65.907625,26.666125 L65.82825,26.550375 L65.65475,26.669375 Z M65.974625,28.21825 L65.839625,27.88 L65.6625,27.896875 L65.54125,27.593375 L66.6465,27.570875 L66.775625,27.894875 L65.958875,28.639375 L65.835125,28.328625 L65.974625,28.21825 Z M66.157625,28.07325 L66.460875,27.829125 L66.073375,27.861375 L66.157625,28.07325 Z M66.4275,29.20375 L66.64025,29.171875 L66.713375,29.660625 L66.277125,29.725625 C66.199375,29.641875 66.143625,29.565625 66.109875,29.496875 C66.076125,29.428625 66.05175,29.345125 66.036875,29.246375 C66.01875,29.125125 66.024625,29.023 66.054625,28.940125 C66.084625,28.857625 66.137375,28.788875 66.213,28.734625 C66.2885,28.68025 66.37925,28.645125 66.4855,28.62925 C66.597125,28.6125 66.69775,28.621 66.78725,28.65475 C66.8765528,28.6883687 66.9529423,28.7493577 67.0055,28.829 C67.048875,28.8935 67.07925,28.984375 67.09675,29.1015 C67.113875,29.214625 67.11625,29.30075 67.10425,29.359875 C67.0932046,29.41673 67.0675268,29.4697228 67.02975,29.513625 C66.99225,29.557375 66.941875,29.593125 66.8785,29.621625 L66.7785,29.325 C66.81525,29.306625 66.841625,29.280875 66.857625,29.24775 C66.873625,29.214625 66.878125,29.17475 66.871125,29.12825 C66.860875,29.059 66.828625,29.00725 66.77425,28.97325 C66.719875,28.9395 66.6405,28.930125 66.536375,28.94575 C66.425625,28.962375 66.349625,28.995 66.308375,29.04375 C66.267125,29.0925 66.252125,29.154125 66.263375,29.2285 C66.268625,29.263875 66.27875,29.296875 66.29375,29.32725 C66.309,29.358 66.331875,29.39225 66.36275,29.42975 L66.459,29.4155 L66.4275,29.20375 Z M67.10375,30.7055 L67.0755,31.02325 L66.461125,30.9685 C66.4023035,30.9636838 66.3447311,30.9488891 66.290875,30.92475 C66.2390394,30.9013715 66.1932127,30.8664885 66.156875,30.82275 C66.12,30.778625 66.09525,30.7335 66.082875,30.6875 C66.065375,30.62375 66.060375,30.548375 66.06825,30.461625 C66.07275,30.411625 66.081125,30.357125 66.0935,30.298375 C66.105625,30.239625 66.124,30.1915 66.1485,30.153375 C66.1746727,30.1136478 66.2081894,30.0792826 66.24725,30.052125 C66.2885,30.0225 66.33,30.003375 66.371875,29.994875 C66.439375,29.980875 66.498125,29.976125 66.548875,29.98075 L67.16325,30.0355 L67.134875,30.35325 L66.505875,30.297 C66.449625,30.292 66.404375,30.303875 66.37,30.332 C66.335625,30.3605 66.316,30.402375 66.31125,30.457625 C66.30625,30.512625 66.318,30.556875 66.34625,30.59075 C66.37475,30.62475 66.4175,30.64425 66.474625,30.6495 L67.10375,30.7055 Z M65.96,31.8 L66.07375,31.454125 L65.92725,31.35325 L66.029375,31.042875 L66.890625,31.735375 L66.781875,32.066625 L65.6775,32.112875 L65.782,31.795 L65.96,31.8 Z M66.19375,31.80625 L66.5825,31.81375 L66.26475,31.58975 L66.19375,31.80625 Z M66.56375,32.6475 L66.38125,32.951875 L65.97425,32.9515 L66.1665,33.31025 L65.98525,33.61275 L65.676125,32.95875 L65.304375,32.736 L65.469125,32.46125 L65.84075,32.684 L66.56375,32.6475 Z" id="Shape" fill="#000000"></path>
                    <g transform="translate(56.625000, 26.000000)" id="Shape" stroke="#000000" stroke-width="0.01" fill="#009B3A">
                        <path d="M5.389625,0.41825 C5.389625,0.41825 8.308375,1.67575 7.798625,4.274125 C7.288875,6.8725 5.663875,6.855 5.026875,7.14225 C4.389625,7.429375 3.950125,7.840375 3.69875,7.782875 C3.4475,7.725375 3.115,7.531375 3.115,7.531375 C3.115,7.531375 3.0885,7.95825 3.60025,8.036 C4.112,8.1135 4.78475,7.3625 5.10775,7.279 C5.431,7.1955 7.41475,6.98025 7.8975,4.3365 C8.460875,1.514 5.407875,0.5015 5.39,0.4185 L5.389625,0.41825 Z"></path>
                        <path></path>
                        <path d="M6.7625,0.99825 C6.86364624,1.2025703 6.90666226,1.38247556 6.85857897,1.40007964 C6.81049567,1.41768371 6.68952124,1.2663203 6.588375,1.062 C6.49090339,0.861677885 6.45081601,0.688762192 6.49785145,0.671529379 C6.54488689,0.654296567 6.66202829,0.798981262 6.762375,0.99825 L6.7625,0.99825 Z M6.469625,1.191 C6.67247173,1.25185277 6.83012976,1.34296872 6.82518414,1.39648973 C6.82023853,1.45001075 6.65448829,1.44646803 6.451375,1.3885 C6.24731494,1.32770735 6.08794054,1.23594799 6.09294708,1.18213615 C6.09795363,1.1283243 6.26549844,1.1322656 6.46975,1.191 L6.469625,1.191 Z"></path>
                        <path></path>
                        <path d="M6.637,1.03275 C6.7971994,1.19924888 6.89860878,1.36338035 6.86350418,1.39934789 C6.82839958,1.43531544 6.6700744,1.32949888 6.509875,1.163 C6.34975116,0.996587409 6.24837507,0.832525894 6.28344515,0.796558349 C6.31851523,0.760590805 6.47675116,0.866337409 6.636875,1.03275 L6.637,1.03275 Z"></path>
                        <path d="M6.840625,1.4 C6.84225,1.401875 6.728125,1.46375 6.702125,1.47275 C6.67625,1.482 6.641125,1.438375 6.56675,1.4765 C6.492375,1.51475 6.44125,1.584375 6.425,1.62525 C6.40875,1.666125 6.44625,1.68325 6.536,1.6395 C6.626,1.59575 6.64975,1.5265 6.693,1.4995 C6.736375,1.47225 6.80925,1.432375 6.8505,1.417625 C6.868375,1.378625 6.92675,1.29475 6.95675,1.246375 C6.98675,1.198375 7.104875,1.118875 7.148,1.026375 C7.1855,0.949875 7.17125,0.88475 7.121125,0.912 C7.07075,0.939125 7.005875,1.016125 6.975625,1.071375 C6.945375,1.126375 6.97125,1.196875 6.93775,1.248625 C6.91125,1.286125 6.847375,1.400125 6.8405,1.40025 L6.840625,1.4 Z M7.74425,1.69825 C7.74904175,1.91773265 7.72646883,2.11736831 7.68537789,2.21891682 C7.64428695,2.32046534 7.5912239,2.30774977 7.54698492,2.18575353 C7.50274594,2.06375729 7.47437842,1.85191471 7.473,1.63325 C7.46820825,1.41376735 7.49078117,1.21413169 7.53187211,1.11258318 C7.57296305,1.01103466 7.6260261,1.02375023 7.67026508,1.14574647 C7.71450406,1.26774271 7.74287158,1.47958529 7.74425,1.69825 L7.74425,1.69825 Z"></path>
                        <path></path>
                        <path d="M7.126,1.83825 C7.30227085,1.95503934 7.45845724,2.09172597 7.53367063,2.19502326 C7.60888401,2.29832055 7.59121861,2.3518772 7.48756118,2.33481439 C7.38390375,2.31775159 7.21066261,2.23277027 7.035375,2.113 C6.85910415,1.99621066 6.70291776,1.85952403 6.62770437,1.75622674 C6.55249099,1.65292945 6.57015639,1.5993728 6.67381382,1.61643561 C6.77747125,1.63349841 6.95071239,1.71847973 7.126,1.83825 L7.126,1.83825 Z"></path>
                        <path d="M7.220625,1.7055 C7.43130217,1.96513972 7.56131297,2.21257465 7.51537338,2.26646145 C7.4694338,2.32034825 7.2638862,2.16151743 7.049375,1.906375 C6.90160631,1.73111887 6.77931196,1.54497929 6.73119147,1.42207994 C6.68307099,1.29918059 6.71693857,1.25947888 6.81930761,1.31878466 C6.92167666,1.37809044 7.07592364,1.52677315 7.220625,1.705625 L7.220625,1.7055 Z"></path>
                        <path d="M7.409625,1.6875 C7.52267511,1.89301972 7.60727831,2.10050087 7.62975216,2.22734051 C7.65222601,2.35418015 7.60892206,2.37978683 7.51708058,2.29396595 C7.42523909,2.20814506 7.29976986,2.02482899 7.190625,1.817 C7.07812329,1.61199147 6.99414428,1.40554906 6.97193092,1.27939266 C6.94971756,1.15323626 6.99285123,1.12770566 7.08425755,1.21290709 C7.17566387,1.29810853 7.30060569,1.48030525 7.409625,1.687375 L7.409625,1.6875 Z"></path>
                        <path d="M7.569625,2.30375 C7.5715,2.307 7.39275,2.34425 7.353875,2.345875 C7.315125,2.3475 7.281,2.26925 7.165125,2.290625 C7.049625,2.311875 6.95575,2.388875 6.91975,2.44025 C6.88375,2.4915 6.92975,2.53275 7.06875,2.51025 C7.2075,2.488 7.263375,2.399375 7.3325,2.38 C7.4015,2.3605 7.515375,2.335875 7.5775,2.33325 C7.615375,2.28525 7.72375,2.191125 7.78125,2.13575 C7.839,2.080125 8.02875,2.019125 8.119,1.90575 C8.19625,1.81325 8.198375,1.7135 8.119875,1.73 C8.041125,1.7465 7.925875,1.8275 7.86575,1.89325 C7.8055,1.95875 7.81825,2.071125 7.7545,2.130125 C7.7055,2.172125 7.579125,2.30675 7.5695,2.303875 L7.569625,2.30375 Z M8.21875,2.909125 C8.18305074,3.12135191 8.12592866,3.30637911 8.06890111,3.39450864 C8.01187356,3.48263816 7.96360438,3.46048103 7.9422761,3.33638363 C7.92094782,3.21228623 7.92980072,3.0051019 7.9655,2.792875 C8.00119926,2.58064809 8.05832134,2.39562089 8.11534889,2.30749136 C8.17237644,2.21936184 8.22064562,2.24151897 8.2419739,2.36561637 C8.26330218,2.48971377 8.25444928,2.6968981 8.21875,2.909125 L8.21875,2.909125 Z"></path>
                        <path></path>
                        <path d="M7.5915,2.9275 C7.74172911,3.07631936 7.86839653,3.24012216 7.92257997,3.35564347 C7.97676341,3.47116477 7.94998138,3.52032167 7.85257779,3.48412848 C7.7551742,3.44793529 7.60239595,3.33205744 7.45325,3.18125 C7.30302089,3.03243064 7.17635347,2.86862784 7.12217003,2.75310653 C7.06798659,2.63758523 7.09476862,2.58842833 7.19217221,2.62462152 C7.2895758,2.66081471 7.44235405,2.77669256 7.5915,2.9275 L7.5915,2.9275 Z"></path>
                        <path d="M7.707875,2.814625 C7.81677009,3.01259204 7.89822438,3.21255509 7.92113011,3.33814731 C7.94403583,3.46373953 7.90485544,3.49556458 7.81855211,3.42146833 C7.73224878,3.34737208 7.61215113,3.17879787 7.504125,2.980125 C7.39386641,2.78091238 7.31086886,2.57841178 7.28729784,2.45110181 C7.26372683,2.32379185 7.30328713,2.29168248 7.39064725,2.3672176 C7.47800737,2.44275273 7.59943647,2.61406011 7.707875,2.81475 L7.707875,2.814625 Z"></path>
                        <path></path>
                        <path d="M7.940625,3.471 C7.941625,3.4745 7.760375,3.477 7.721875,3.471 C7.68375,3.46525 7.664375,3.381375 7.547625,3.380375 C7.43075,3.379125 7.325125,3.437125 7.28075,3.480875 C7.23625,3.524625 7.27375,3.574125 7.41375,3.57875 C7.5535,3.583375 7.624,3.506625 7.695,3.500625 C7.765875,3.49475 7.88175,3.49225 7.943,3.501625 C7.988625,3.461375 8.1115,3.389125 8.178,3.345375 C8.24425,3.301625 8.44075,3.277875 8.54925,3.1835 C8.6415,3.106625 8.6615,3.0085 8.58175,3.00975 C8.502,3.011 8.374625,3.069125 8.304,3.12225 C8.233375,3.1755 8.2255,3.288875 8.15275,3.33475 C8.097125,3.366875 7.949375,3.475625 7.940625,3.471 M8.255,4.25825 C8.08057257,4.52998157 7.90332655,4.69979314 7.8538126,4.64260992 C7.80429866,4.58542669 7.90025282,4.32173186 8.071,4.04575 C8.24646103,3.77066591 8.42635474,3.59719434 8.47633895,3.65488149 C8.52632317,3.71256864 8.42814608,3.98034995 8.255125,4.25825"></path>
                        <path d="M8.137,4.1655 C8.01088624,4.49199402 7.85948613,4.72499385 7.79883836,4.68591971 C7.7381906,4.64684556 7.79126126,4.35049403 7.917375,4.024 C8.04343459,3.69765688 8.19476283,3.46477937 8.25537608,3.50385351 C8.31598933,3.54292766 8.26293459,3.83915688 8.136875,4.1655 M7.67875,4.0165 C7.79668225,4.32269429 7.84219708,4.61081643 7.78041022,4.6600388 C7.71862337,4.70926118 7.57293225,4.50094429 7.455,4.19475 C7.37871121,3.99667702 7.32954072,3.79666292 7.32601057,3.67005106 C7.32248042,3.5434392 7.36512693,3.50946494 7.43788557,3.58092606 C7.51064421,3.65238718 7.60246121,3.81842702 7.67875,4.0165"></path>
                        <path></path>
                        <path></path>
                        <path d="M7.78425,4.6655 C7.783875,4.66925 7.61875,4.59675 7.58625,4.5755 C7.55375,4.554 7.569,4.468375 7.46375,4.419 C7.358125,4.369625 7.24,4.37975 7.182875,4.401875 C7.125625,4.424 7.140375,4.485625 7.265375,4.547625 C7.390125,4.609875 7.48375,4.567875 7.550375,4.591625 C7.616875,4.615375 7.722625,4.661125 7.7745,4.695125 C7.831375,4.67675 7.97075,4.660625 8.047625,4.647625 C8.124875,4.634375 8.312,4.693625 8.447,4.650875 C8.560375,4.61775 8.6165,4.535125 8.543875,4.503375 C8.471125,4.4715 8.33325,4.4725 8.248875,4.492625 C8.164125,4.512625 8.113,4.614625 8.029125,4.62725 C7.966625,4.633875 7.790375,4.6735 7.784375,4.665625 M7.8915,5.6275 C7.60370811,5.87404191 7.3406616,6.0064665 7.30396918,5.92327861 C7.26727676,5.84009072 7.47083311,5.57279191 7.758625,5.32625 C7.94474777,5.16681115 8.12938333,5.04819252 8.24298123,5.01507663 C8.35657913,4.98196075 8.38188114,5.03937868 8.30935624,5.16570165 C8.23683133,5.29202463 8.07749778,5.46806117 7.891375,5.6275"></path>
                        <path d="M7.7915,5.48375 C7.63090302,5.69094015 7.4619584,5.86116971 7.34984802,5.92876104 C7.23773764,5.99635236 7.19998828,5.95073856 7.25116434,5.80951826 C7.30234039,5.66829796 7.43444125,5.45354884 7.5965,5.248125 C7.75709698,5.04093485 7.9260416,4.87070529 8.03815198,4.80311396 C8.15026236,4.73552264 8.18801172,4.78113644 8.13683566,4.92235674 C8.08565961,5.06357704 7.95355875,5.27832616 7.7915,5.48375"></path>
                        <path></path>
                        <path></path>
                        <path d="M7.666,5.3055 C7.51049036,5.68789094 7.32454297,5.97319974 7.25067488,5.94275504 C7.1768068,5.91231034 7.24299036,5.57764094 7.3985,5.19525 C7.55400964,4.81285906 7.73995703,4.52755026 7.81382512,4.55799496 C7.8876932,4.58843966 7.82150964,4.92310906 7.666,5.3055"></path>
                        <path d="M7.23875,5.9075 C7.237125,5.91125 7.07925,5.77125 7.0505,5.73625 C7.02175,5.701 7.06675,5.611875 6.96675,5.51925 C6.867,5.42675 6.73375,5.395 6.6635,5.39875 C6.59325,5.4025 6.58925,5.47575 6.70625,5.5895 C6.82325,5.70325 6.94,5.69075 7.005625,5.741 C7.071125,5.791375 7.1725,5.88 7.218375,5.936375 C7.287125,5.936625 7.445625,5.969375 7.534625,5.982625 C7.623875,5.996125 7.810375,6.12925 7.973,6.13075 C8.108625,6.135375 8.197625,6.0645 8.128,6.003 C8.0585,5.94175 7.9065,5.893 7.80675,5.8845 C7.707,5.876125 7.61725,5.97 7.52075,5.953625 C7.4495,5.938375 7.242875,5.918625 7.23875,5.907375 M6.9515,6.8255 C6.68055568,6.87171485 6.43099028,6.87918272 6.29939814,6.84501317 C6.167806,6.81084362 6.17483834,6.740399 6.31777328,6.66094492 C6.46070823,6.58149084 6.71711451,6.50549629 6.98775,6.462375 C7.26079867,6.41502502 7.51372146,6.40681437 7.64728707,6.44096439 C7.78085268,6.4751144 7.77375613,6.54617784 7.62878165,6.62627379 C7.48380718,6.70636974 7.22407961,6.78272213 6.9515,6.825375"></path>
                        <path d="M6.937,6.631 C6.52770302,6.78793499 6.18252681,6.83971592 6.16602731,6.74665595 C6.1495278,6.65359598 6.46795303,6.45093502 6.87725,6.294 C7.14201875,6.19248084 7.39236931,6.13078919 7.53399704,6.13216369 C7.67562477,6.13353819 7.68701306,6.19777002 7.56387204,6.30066369 C7.44073102,6.40355735 7.20176875,6.52948084 6.937,6.631"></path>
                        <path d="M6.677,6.052875 C6.49786732,6.4264211 6.27625757,6.71122466 6.17878397,6.69316137 C6.08131036,6.67509808 6.14390177,6.36082609 6.3195,5.986625 C6.43595658,5.73845519 6.57938518,5.51365463 6.69461118,5.39870042 C6.80983717,5.2837462 6.87891011,5.29654643 6.87525877,5.43217707 C6.87160743,5.56780771 6.79580063,5.80513958 6.677,6.052875"></path>
                        <path d="M6.85875,6.151 C6.56393818,6.48458084 6.26254573,6.71372777 6.18557105,6.66281403 C6.10859638,6.61190029 6.28518822,6.30020587 6.58,5.966625 C6.87481182,5.63304416 7.17620427,5.40389723 7.25317895,5.45481097 C7.33015362,5.50572471 7.15356178,5.81741913 6.85875,6.151"></path>
                        <path d="M6.9115,6.391 C6.67927286,6.568101 6.44582874,6.70701886 6.29910378,6.75542457 C6.15237883,6.80383028 6.11466406,6.75436986 6.20016627,6.62567456 C6.28566849,6.49697927 6.48139785,6.30860098 6.713625,6.1315 C6.94580033,5.95444298 7.17918465,5.81556576 7.32586435,5.76718204 C7.47254405,5.71879832 7.51023498,5.76825874 7.42473935,5.89693204 C7.33924371,6.02560534 7.14355033,6.21394298 6.911375,6.391"></path>
                        <path d="M6.169625,6.714625 C6.165875,6.7175 6.09,6.493 6.0815,6.443 C6.073125,6.393 6.165,6.33425 6.11925,6.18825 C6.0735,6.0425 5.962125,5.935375 5.89225,5.89825 C5.82225,5.86125 5.7785,5.9285 5.829375,6.1045 C5.880125,6.28025 5.999875,6.33575 6.035625,6.421625 C6.071125,6.507375 6.120625,6.650375 6.134125,6.730375 C6.200375,6.770375 6.335375,6.89325 6.414125,6.9575 C6.492875,7.02175 6.600375,7.25625 6.756375,7.35175 C6.885125,7.4345 7.009625,7.4185 6.976,7.319875 C6.94225,7.221125 6.82225,7.086875 6.730625,7.021125 C6.638875,6.9555 6.501,6.993 6.416875,6.9215 C6.3565,6.865875 6.16775,6.727375 6.169875,6.7145"></path>
                        <path></path>
                        <path d="M5.61875,6.80925 C5.35146228,7.15232643 5.06418558,7.3681507 4.97457654,7.29320247 C4.8849675,7.21825424 5.02641472,6.88045944 5.29175,6.53575 C5.46597975,6.30940001 5.65941042,6.12562517 5.79825093,6.05453302 C5.93709143,5.98344086 5.99992749,6.0359964 5.96278801,6.19215043 C5.92564854,6.34830445 5.7942618,6.58397231 5.61875,6.80925"></path>
                        <path d="M5.726,7.16 C5.34020925,7.32209421 5.00075695,7.36360071 4.95873244,7.25381757 C4.91670793,7.14403443 5.18725376,6.92251947 5.57025,6.753125 C5.95830924,6.5889007 6.30178488,6.54603362 6.3440765,6.65654848 C6.38636812,6.76706335 6.11202469,6.99058408 5.726,7.160125 M5.935,0.48375 C6.12318628,0.655744388 6.23367989,0.81297035 6.18500666,0.839494902 C6.13633343,0.866019453 5.94595508,0.752326813 5.75425,0.58225 C5.62564348,0.467443783 5.52335663,0.350649974 5.4868728,0.276951695 C5.45038897,0.203253417 5.48541519,0.184179015 5.57843112,0.227091324 C5.67144706,0.270003634 5.80790257,0.368190044 5.935125,0.48375 M5.700625,0.681875 C5.96444385,0.716158248 6.18651007,0.788302099 6.19662378,0.843012805 C6.2067375,0.897723511 6.00106885,0.914283242 5.73725,0.88 C5.56658911,0.857822629 5.4054016,0.818448686 5.31440525,0.776709955 C5.2234089,0.734971223 5.21642821,0.69720881 5.29609275,0.677647452 C5.37575729,0.658086093 5.52996411,0.659697626 5.700625,0.681875"></path>
                        <path d="M5.795,0.5565 C5.96095353,0.639311239 6.10780954,0.733223899 6.17743312,0.801061407 C6.2470567,0.868898915 6.22822216,0.899723551 6.1283854,0.881332972 C6.02854864,0.862942393 5.86380675,0.798301788 5.699375,0.713 C5.45821053,0.588323928 5.28755797,0.456122132 5.31335553,0.413956924 C5.33915309,0.371791717 5.55213508,0.434807557 5.795125,0.5565 M2.336875,6.751 C2.336875,6.751 2.979875,6.888875 3.53875,7.092 C4.0975,7.295125 4.94675,7.992375 5.175,8.032 C5.431,8.0435 5.786,7.956125 5.92075,7.586375 C5.5265,7.69175 5.290125,7.851375 4.91375,7.644625 C4.78075,7.59425 4.34525,7.19775 3.867875,6.985625 C3.390375,6.773375 2.427875,6.531375 2.427875,6.531375 L2.337,6.751125 M3.0225,0.93825 C3.02,0.93275 3.7625,0.547875 3.7625,0.547875 L2.94625,0.756625 L2.851625,0.900125 L3.022375,0.938375"></path>
                        <path d="M3.72425,1.11825 C3.43775,1.066125 2.997125,0.969875 2.7165,0.947375 C2.9105,0.732375 3.17775,0.36925 3.342375,0.146375 C3.233625,0.358875 3.06275,0.639375 2.995375,0.842875 C3.192875,0.9495 3.503375,1.032875 3.724125,1.118125"></path>
                        <path d="M2.889625,0.98375 C2.8865,0.97875 3.547125,0.4745 3.547125,0.4745 L2.783375,0.81625 L2.7155,0.974125 L2.889625,0.98375"></path>
                        <path d="M3.5915,1.111 C3.303,1.056 2.859,0.955 2.577,0.93075 C2.7675,0.7095 3.02875,0.33525 3.18975,0.105375 C3.08475,0.32475 2.91875,0.613875 2.855,0.824125 C3.05525,0.934875 3.368375,1.02225 3.5915,1.111"></path>
                        <path></path>
                        <path d="M3.50425,1.11825 C3.212375,1.094 2.761375,1.0395 2.479625,1.04575 C2.642125,0.8 2.856375,0.391 2.988625,0.139875 C2.910375,0.374125 2.78025,0.686125 2.741875,0.906625 C2.953125,0.9975 3.272875,1.05225 3.504125,1.118125"></path>
                        <path d="M2.700625,1.029125 C2.696375,1.024875 3.22525,0.389875 3.22525,0.389875 L2.5605,0.886875 L2.529625,1.056375 L2.700625,1.028875"></path>
                        <path d="M3.500625,1.16 C3.187875,1.154125 2.703125,1.126625 2.404125,1.153125 C2.552,0.8735 2.73875,0.411875 2.854125,0.128625 C2.7945,0.389875 2.687625,0.7395 2.669125,0.982875 C2.9025,1.06725 3.24825,1.104125 3.500625,1.16"></path>
                        <path d="M2.595,1.18 C2.59125,1.1745 3.23225,0.56875 3.23225,0.56875 L2.461375,0.995375 L2.408625,1.177875 L2.59525,1.180125"></path>
                        <path d="M3.360625,1.18 C3.024625,1.18125 2.50725,1.163125 2.179375,1.2 C2.396875,0.888125 2.693875,0.375 2.876875,0.06 C2.758625,0.349375 2.570625,0.73725 2.500375,1.005875 C2.73475,1.092875 3.099875,1.125125 3.360625,1.180125"></path>
                        <path d="M2.380625,1.2255 C2.377375,1.2195 3.194375,0.53625 3.194375,0.53625 L2.274375,1.025375 L2.17975,1.227875 L2.380625,1.225375"></path>
                        <path d="M3.23875,1.2 C2.906,1.248125 2.39075,1.30225 2.07125,1.38375 C2.242,1.049625 2.462875,0.508125 2.599125,0.1755 C2.523375,0.47425 2.392875,0.878375 2.361625,1.149875 C2.60625,1.202 2.972625,1.182625 3.23875,1.199875"></path>
                        <path d="M2.2715,1.361875 C2.26675,1.356875 2.8985,0.493375 2.8985,0.493375 L2.116,1.200875 L2.074125,1.417625 L2.271625,1.362"></path>
                        <path d="M3.055,1.30375 C2.72,1.335 2.2025,1.363125 1.87875,1.428375 C2.068,1.103375 2.319,0.573875 2.47375,0.24875 C2.38125,0.543 2.22825,0.94 2.18175,1.209625 C2.42325,1.274 2.79025,1.273 3.055125,1.30375"></path>
                        <path d="M2.15875,1.452875 C2.1555,1.446625 2.957,0.762125 2.957,0.762125 L2.05125,1.25 L1.95975,1.454 L2.15875,1.45275"></path>
                        <path d="M2.957,1.33825 C2.623,1.40875 2.10475,1.498 1.78575,1.6005 C1.94175,1.25925 2.137875,0.71025 2.259,0.373 C2.197375,0.6725 2.085625,1.08 2.0675,1.349875 C2.3175,1.384125 2.687,1.3395 2.957,1.338125"></path>
                        <path d="M2.026,1.489125 C2.020625,1.485375 2.536,0.542375 2.536,0.542375 L1.84575,1.361125 L1.8345,1.577375 L2.026,1.489"></path>
                        <path d="M2.957,1.392875 C2.598625,1.486 2.040125,1.60825 1.702,1.736625 C1.832,1.34875 1.9805,0.727 2.072375,0.344875 C2.041125,0.682 1.968,1.142125 1.981125,1.444375 C2.259875,1.471875 2.660375,1.406 2.956875,1.392625"></path>
                        <path d="M1.926,1.7075 C1.920625,1.701875 2.5685,0.7585 2.5685,0.7585 L1.747,1.525375 L1.712375,1.76475 L1.925875,1.70725"></path>
                        <path d="M2.815,1.5 C2.462875,1.6115 1.912875,1.7625 1.5825,1.9075 C1.6935,1.517125 1.81225,0.894625 1.885875,0.51225 C1.870625,0.84725 1.819375,1.30575 1.8465,1.6035 C2.12525,1.616 2.52075,1.52925 2.81525,1.500125"></path>
                        <path d="M1.796875,1.8475 C1.790625,1.843 2.28525,0.8 2.28525,0.8 L1.591,1.702 L1.594125,1.942875 L1.796875,1.847375"></path>
                        <path d="M2.680625,1.64375 C2.31975,1.726 1.758375,1.83125 1.41625,1.94875 C1.56225,1.569 1.737,0.95825 1.845,0.583 C1.799375,0.9155 1.70675,1.3685 1.706625,1.66775 C1.98325,1.70275 2.38475,1.64875 2.680625,1.64375"></path>
                        <path d="M1.680625,1.9475 C1.67625,1.940875 2.478375,1.1275 2.478375,1.1275 L1.537875,1.734625 L1.46125,1.964875 L1.680625,1.947375"></path>
                        <path d="M2.520625,1.7855 C2.163125,1.8335 1.608375,1.88525 1.267125,1.971 C1.433,1.59875 1.64125,0.9945 1.769875,0.62325 C1.704625,0.95725 1.586375,1.409125 1.567875,1.713625 C1.83575,1.7765 2.23125,1.761125 2.520375,1.785375"></path>
                        <path d="M1.5225,1.8655 C1.5165,1.8605 2.06525,0.839875 2.06525,0.839875 L1.329,1.702875 L1.317375,1.94725 L1.522375,1.86525"></path>
                        <path d="M2.56425,1.66375 C2.1755,1.822875 1.56825,2.04475 1.204,2.241 C1.323375,1.7795 1.449375,1.0485 1.5275,0.599 C1.5135,0.988375 1.460875,1.524 1.493375,1.8665 C1.802125,1.856875 2.23875,1.72275 2.56425,1.66375"></path>
                        <path d="M1.447875,2.1765 C1.441625,2.171 2.097625,0.9995 2.097625,0.9995 L1.240125,1.995375 L1.216375,2.2735 L1.448,2.1765"></path>
                        <path d="M2.415,1.809125 C2.03425,1.98825 1.438,2.241625 1.083125,2.455625 C1.181875,1.994125 1.275,1.266625 1.332875,0.819625 C1.33625,1.203875 1.307625,1.734375 1.355375,2.07025 C1.662875,2.043 2.092875,1.885875 2.415125,1.809"></path>
                        <path d="M1.315,2.354625 C1.308,2.3505 1.78925,1.088 1.78925,1.088 L1.079625,2.21925 L1.097625,2.4935 L1.315125,2.35475"></path>
                        <path d="M2.247875,1.914625 C1.867875,2.09675 1.272875,2.354625 0.919125,2.5715 C1.014875,2.109625 1.1035,1.381875 1.158625,0.934625 C1.16425,1.318625 1.139,1.849 1.188875,2.18425 C1.496375,2.1545 1.92575,1.993875 2.247625,1.914625"></path>
                        <path d="M1.207875,2.5055 C1.202,2.49925 1.941375,1.388625 1.941375,1.388625 L1.016625,2.302625 L0.971625,2.579625 L1.207875,2.505375"></path>
                        <path d="M2.21325,1.8565 C1.8745,2.127 1.33825,2.5245 1.032875,2.82175 C1.032375,2.3555 0.969875,1.63675 0.93225,1.19475 C1.01725,1.56075 1.101625,2.07475 1.22025,2.38275 C1.519,2.2765 1.910875,2.014 2.21325,1.8565"></path>
                        <path></path>
                        <path d="M2.116875,1.98 C1.777125,2.24875 1.239625,2.64375 0.933125,2.939375 C0.934375,2.472875 0.875,1.7535 0.839125,1.31125 C0.922625,1.67775 1.00475,2.1925 1.122125,2.50125 C1.420875,2.39625 1.813875,2.135875 2.116875,1.98"></path>
                        <path d="M1.15875,2.7855 C1.15125,2.782375 1.500625,1.47775 1.500625,1.47775 L0.909125,2.68025 L0.95575,2.949 L1.15875,2.7855"></path>
                        <path d="M2.07875,2.011 C1.7575,2.32725 1.24625,2.79675 0.9625,3.13675 C0.912125,2.65825 0.77075,1.928 0.684625,1.478625 C0.8115,1.84425 0.953625,2.362 1.109125,2.664625 C1.40625,2.52125 1.783125,2.207125 2.07875,2.010875"></path>
                        <path></path>
                        <path d="M1.976875,2.241875 C1.633125,2.526 1.088875,2.944125 0.780125,3.255625 C0.7695,2.771125 0.68925,2.024875 0.640625,1.566 C0.736375,1.9455 0.83475,2.47875 0.964,2.79775 C1.269875,2.6845 1.6685,2.40825 1.97725,2.241875"></path>
                        <path d="M1.05875,3.111 C1.05125,3.1065 1.543,1.80275 1.543,1.80275 L0.81675,2.961875 L0.835875,3.249 L1.05875,3.111"></path>
                        <path d="M1.9715,2.2475 C1.667375,2.569125 1.183,3.046625 0.914,3.392125 C0.866125,2.907125 0.7315,2.166875 0.649625,1.711625 C0.77025,2.08225 0.90525,2.606625 1.052875,2.913125 C1.334375,2.766875 1.691375,2.447125 1.971625,2.247375"></path>
                        <path></path>
                        <path d="M1.8225,2.351 C1.528125,2.675625 1.0585,3.157625 0.8,3.506 C0.737875,3.020625 0.58175,2.28075 0.4865,1.82575 C0.61775,2.19575 0.768125,2.71975 0.924625,3.025125 C1.201375,2.876375 1.548375,2.5535 1.822375,2.351125"></path>
                        <path></path>
                        <path d="M1.75875,2.4055 C1.48975,2.757125 1.0575,3.28225 0.82625,3.65375 C0.72725,3.17725 0.515375,2.4565 0.38575,2.01325 C0.544875,2.36825 0.7345,2.875 0.914,3.1635 C1.179,2.9885 1.500875,2.6335 1.75875,2.4055"></path>
                        <path></path>
                        <path d="M1.7315,2.4855 C1.479,2.853625 1.0715,3.405125 0.85775,3.79125 C0.734,3.31675 0.48475,2.602125 0.332125,2.1625 C0.51,2.51175 0.72625,3.011875 0.920875,3.293 C1.178375,3.103 1.483875,2.728625 1.7315,2.4855"></path>
                        <path></path>
                        <path d="M1.680625,2.6165 C1.462875,3.0175 1.10775,3.6225 0.93025,4.036125 C0.764875,3.581375 0.45275,2.905625 0.2615,2.489875 C0.469625,2.812375 0.7295,3.279375 0.94825,3.531875 C1.18675,3.30725 1.4565,2.892375 1.68075,2.616375"></path>
                        <path></path>
                        <path d="M1.6715,2.772875 C1.444625,3.172875 1.075,3.775875 0.889375,4.18825 C0.723125,3.734875 0.407625,3.061125 0.214375,2.646625 C0.425625,2.968125 0.689125,3.433875 0.911875,3.685625 C1.158625,3.461625 1.439,3.048125 1.6715,2.772875"></path>
                        <path></path>
                        <path d="M1.695,2.8965 C1.461875,3.291 1.0825,3.88525 0.890375,4.293375 C0.731375,3.836125 0.427,3.155 0.240375,2.735875 C0.446625,3.062375 0.70225,3.534375 0.921,3.79125 C1.171375,3.573125 1.4585,3.16625 1.695125,2.8965"></path>
                        <path></path>
                        <path d="M1.595,3.0965 C1.3435,3.47425 0.936625,4.0415 0.725375,4.43575 C0.5885,3.96825 0.317125,3.267 0.151,2.835375 C0.341,3.17575 0.573875,3.66475 0.77975,3.936375 C1.040125,3.736 1.346,3.3495 1.595125,3.096625"></path>
                        <path></path>
                        <path d="M1.609625,3.131 C1.394625,3.540125 1.042625,4.1585 0.869125,4.5785 C0.689625,4.1325 0.35475,3.472625 0.149625,3.066625 C0.370125,3.379125 0.647125,3.833125 0.877125,4.075375 C1.117125,3.841 1.385375,3.415875 1.609625,3.131"></path>
                        <path></path>
                        <path d="M1.5515,3.2365 C1.40125,3.6855 1.14775,4.369875 1.04025,4.82025 C0.7965,4.4215 0.36775,3.8465 0.104625,3.49225 C0.368625,3.751 0.709625,4.13675 0.972125,4.324375 C1.173375,4.041625 1.373375,3.565375 1.5515,3.2365"></path>
                        <path></path>
                        <path d="M1.547875,3.374625 C1.400875,3.82525 1.152375,4.512125 1.047875,4.963875 C0.801375,4.567625 0.368375,3.997125 0.102875,3.64575 C0.36875,3.901625 0.71225,4.283875 0.976625,4.468625 C1.175625,4.183875 1.37225,3.7055 1.547875,3.374875"></path>
                        <path d="M1.256875,4.661875 C1.249375,4.666 0.65225,3.446125 0.65225,3.446125 L1.004375,4.796125 L1.214375,4.947875 L1.256875,4.661625"></path>
                        <path d="M1.5025,3.4875 C1.4085,3.955 1.241,4.671875 1.189375,5.1345 C0.899,4.777 0.403875,4.27325 0.1,3.96325 C0.39325,4.17875 0.778,4.50825 1.06125,4.65375 C1.22625,4.342875 1.36625,3.8405 1.5025,3.4875"></path>
                        <path></path>
                        <path d="M1.50425,3.632875 C1.4545,4.111 1.355,4.847 1.34675,5.3145 C1.0255,4.99775 0.4875,4.56325 0.157125,4.29525 C0.468125,4.47025 0.880625,4.7465 1.175125,4.853125 C1.309875,4.5215 1.402125,4.002625 1.504375,3.632875"></path>
                        <path d="M1.31325,4.952875 C1.307,4.959125 0.451375,3.968625 0.451375,3.968625 L1.101,5.1605 L1.3385,5.24175 L1.3135,4.95275"></path>
                        <path d="M1.5225,3.8 C1.47075,4.278 1.368375,5.013375 1.358375,5.48075 C1.038375,5.162 0.502125,4.7245 0.172625,4.454875 C0.483125,4.6315 0.8945,4.910125 1.188625,5.01825 C1.324625,4.6875 1.418875,4.169125 1.522375,3.8"></path>
                        <path d="M1.409625,5.18 C1.402125,5.1845 0.747625,3.99375 0.747625,3.99375 L1.163625,5.325375 L1.380875,5.4675 L1.409625,5.18"></path>
                        <path d="M1.560625,3.9965 C1.529125,4.47725 1.45775,5.218375 1.467375,5.686125 C1.1345,5.387125 0.580875,4.982375 0.240875,4.732625 C0.558,4.8905 0.980125,5.143875 1.278375,5.23425 C1.400125,4.8955 1.4725,4.37175 1.5605,3.996375"></path>
                        <path d="M1.49325,5.39825 C1.486625,5.404125 0.675375,4.361125 0.675375,4.361125 L1.271875,5.591875 L1.505375,5.688125 L1.49325,5.398125"></path>
                        <path d="M1.569625,4.21825 C1.541125,4.6995 1.47425,5.44125 1.486625,5.908875 C1.152125,5.613 0.596125,5.212875 0.254625,4.966375 C0.57275,5.121375 0.996375,5.371375 1.295,5.458875 C1.41475,5.118875 1.484,4.5945 1.569625,4.218375"></path>
                        <path d="M1.567875,5.574625 C1.560125,5.578375 0.994375,4.32425 0.994375,4.32425 L1.311875,5.693 L1.518125,5.8575 L1.567875,5.574625"></path>
                        <path d="M1.5915,4.361875 C1.60775,4.844625 1.6105,5.591875 1.66625,6.055875 C1.307,5.80625 0.718125,5.482875 0.3565,5.283375 C0.6865,5.395 1.13,5.586625 1.434375,5.633625 C1.5215,5.279 1.541375,4.747625 1.5915,4.36175"></path>
                        <path d="M1.667875,5.5255 C1.662875,5.5335 0.620375,4.808375 0.620375,4.808375 L1.508375,5.786875 L1.755125,5.799625 L1.668,5.5255"></path>
                        <path d="M1.62425,4.412875 C1.665875,4.893375 1.707625,5.638125 1.78775,6.098375 C1.414875,5.863125 0.80825,5.563 0.43575,5.377875 C0.772,5.476625 1.226125,5.650875 1.53325,5.68625 C1.602,5.329625 1.59425,4.79925 1.62425,4.41275"></path>
                        <path d="M1.780625,5.792875 C1.774125,5.798875 0.90775,4.7895 0.90775,4.7895 L1.569,5.99425 L1.80775,6.08125 L1.780625,5.792875"></path>
                        <path d="M1.700625,4.5965 C1.762375,5.075 1.835375,5.818125 1.93475,6.274 C1.55325,6.060875 0.93625,5.797125 0.55725,5.634 C0.896375,5.71275 1.35625,5.859875 1.663875,5.87675 C1.717625,5.5155 1.687125,4.985125 1.70075,4.5965"></path>
                        <path d="M1.955,5.961875 C1.95025,5.96975 0.915625,5.227375 0.915625,5.227375 L1.792375,6.22025 L2.039125,6.23725 L1.955,5.961625"></path>
                        <path d="M1.73325,4.8 C1.8265,5.273 1.94825,6.0095 2.07725,6.45625 C1.684125,6.279125 1.05375,6.07375 0.6665,5.9465 C1.008625,5.993125 1.47525,6.0965 1.781875,6.0845 C1.810875,5.71825 1.745625,5.19025 1.733125,4.800125"></path>
                        <path d="M2.069625,6.1075 C2.063125,6.113375 1.209875,5.088125 1.209875,5.088125 L1.854875,6.304375 L2.092875,6.396125 L2.0695,6.107375"></path>
                        <path d="M1.789625,4.931 C1.926125,5.391 2.115625,6.11025 2.285,6.53925 C1.88,6.415 1.2375,6.294 0.8425,6.218875 C1.185,6.21975 1.656,6.26075 1.958125,6.207625 C1.9525,5.837625 1.8385,5.319125 1.789625,4.931125"></path>
                        <path d="M2.115,6.10925 C2.11325,6.118625 0.914,5.85175 0.914,5.85175 L2.05625,6.41975 L2.287,6.332875 L2.115125,6.109125"></path>
                        <path d="M1.867875,5.074625 C2.0025,5.53525 2.189125,6.2555 2.356875,6.685375 C1.952125,6.55875 1.31,6.434125 0.915625,6.356875 C1.258125,6.359375 1.729,6.403125 2.03125,6.351875 C2.027125,5.981875 1.915,5.462875 1.867875,5.074625"></path>
                        <path d="M2.3115,6.2365 C2.30775,6.245 1.16225,5.6815 1.16225,5.6815 L2.193,6.517 L2.44,6.493875 L2.3115,6.236625"></path>
                        <path d="M1.807875,5.154625 C2.036125,5.574375 2.369875,6.236125 2.62375,6.618375 C2.20275,6.586125 1.550875,6.609625 1.15,6.623375 C1.484375,6.548375 1.9525,6.484625 2.23625,6.365875 C2.15425,6.005375 1.93575,5.523375 1.807875,5.154625"></path>
                        <path d="M2.49325,6.361875 C2.491125,6.371125 1.299125,6.032125 1.299125,6.032125 L2.419875,6.66675 L2.655375,6.59475 L2.493125,6.361875"></path>
                        <path d="M1.9315,5.332875 C2.16225,5.750875 2.49975,6.410375 2.756,6.790625 C2.335,6.761875 1.68375,6.791 1.2835,6.808125 C1.617,6.73025 2.084375,6.6625 2.36725,6.541375 C2.282875,6.181375 2.061625,5.700875 1.9315,5.333"></path>
                        <path d="M2.64425,6.46 C2.64,6.468125 1.531375,5.794375 1.531375,5.794375 L2.503875,6.724875 L2.753875,6.727375 L2.644375,6.459875"></path>
                        <path d="M2.02425,5.43825 C2.291375,5.8285 2.687,6.447375 2.9755,6.796375 C2.55925,6.822625 1.9225,6.936625 1.530875,7.005875 C1.851125,6.884125 2.303375,6.755125 2.569375,6.5965 C2.451875,6.245625 2.18775,5.7915 2.024375,5.4385"></path>
                        <path d="M2.726,6.55825 C2.725625,6.56825 1.52475,6.53 1.52475,6.53 L2.71325,6.88125 L2.9245,6.75 L2.726,6.55825 M3.4225,0.73825 C3.4225,0.7345 4.286625,0.594125 4.286625,0.594125 L3.426625,0.614125 L3.276625,0.69125 L3.422375,0.73825"></path>
                        <path d="M3.897,0.921875 C3.64625,0.846125 3.26725,0.719375 3.009875,0.663125 C3.28325,0.554375 3.688125,0.361875 3.937375,0.2435 C3.7455,0.3635 3.466875,0.5175 3.318375,0.637875 C3.461875,0.735375 3.722125,0.83475 3.896875,0.921875"></path>
                        <path></path>
                        <path d="M3.937,0.98375 C3.644,0.95625 3.1945,0.9 2.9055,0.897 C3.123375,0.704125 3.42875,0.3815 3.61675,0.18325 C3.4875,0.3695 3.288625,0.616625 3.203,0.79275 C3.39925,0.8715 3.714625,0.924375 3.937,0.98375"></path>
                        <path></path>
                        <path d="M3.717,1.0165 C3.4505,0.9655 3.04575,0.87675 2.77625,0.84525 C3.03225,0.7195 3.405375,0.50325 3.635,0.3705 C3.46375,0.5 3.210625,0.66925 3.0825,0.7955 C3.24475,0.875875 3.52525,0.948375 3.717,1.0165"></path>
                        <path></path>
                        <path d="M3.6915,1.11275 C3.46975,1.02125 3.13025,0.866125 2.91075,0.8015 C3.08075,0.643625 3.32,0.3665 3.467375,0.19675 C3.364875,0.3665 3.208,0.586 3.138625,0.75425 C3.286125,0.879625 3.524125,1.002625 3.691375,1.113"></path>
                        <path d="M3.0425,0.874625 C3.04075,0.869625 3.6375,0.61675 3.6375,0.61675 L2.989375,0.7055 L2.90975,0.821 L3.04225,0.87475 M2.54425,6.4475 C2.54475,6.456875 1.310875,6.456625 1.310875,6.456625 L2.559625,6.762 L2.764625,6.62775 L2.54425,6.447375"></path>
                        <path d="M2.766,6.5275 C2.76475,6.53625 1.5135,6.236 1.5135,6.236 L2.71625,6.82575 L2.952,6.749875 L2.766,6.527375"></path>
                        <path></path>
                        <path d="M2.1825,5.732875 C2.505875,6.089375 2.990625,6.6575 3.33,6.972 C2.9125,7.035125 2.28325,7.203875 1.89625,7.307 C2.20375,7.15925 2.644125,6.9925 2.89175,6.813625 C2.725,6.481625 2.395875,6.062375 2.182375,5.73275"></path>
                        <path d="M3.1425,6.674625 C3.14,6.683375 1.899375,6.267875 1.899375,6.267875 L3.067375,6.962375 L3.312,6.910625 L3.14225,6.674375"></path>
                        <path d="M2.296875,5.814625 C2.649375,6.13625 3.181375,6.6525 3.545,6.929375 C3.14475,7.044625 2.54975,7.293125 2.18375,7.445 C2.46775,7.2575 2.879125,7.034375 3.1015,6.8225 C2.904,6.506875 2.5395,6.1225 2.296875,5.814625"></path>
                        <path></path>
                        <path></path>
                        <path d="M3.226,6.741875 C3.225125,6.751 1.953875,6.538125 1.953875,6.538125 L3.198875,7.04275 L3.4285,6.950875 L3.226,6.741875 L3.226,6.741875 Z"></path>
                        <path></path>
                        <path d="M2.5825,5.98925 C2.932125,6.32225 3.4585,6.855125 3.821,7.145 C3.40875,7.23675 2.7935,7.4485 2.415,7.577875 C2.710875,7.4095 3.137875,7.212875 3.371625,7.017375 C3.180125,6.698 2.820375,6.302875 2.582375,5.989125 L2.5825,5.98925 Z"></path>
                        <path d="M3.61325,6.861875 C3.611625,6.870625 2.342,6.54225 2.342,6.54225 L3.560125,7.153875 L3.800625,7.08575 L3.613375,6.862 L3.61325,6.861875 Z"></path>
                        <path d="M2.70425,6.061875 C3.08025,6.358125 3.649875,6.836 4.033625,7.086875 C3.642625,7.229375 3.067375,7.518125 2.713375,7.694625 C2.982875,7.488375 3.37675,7.2375 3.58275,7.011125 C3.362125,6.709875 2.969375,6.35175 2.704,6.06175 L2.70425,6.061875 Z"></path>
                        <path></path>
                    </g>
                    <polygon id="Shape" stroke="#000000" stroke-width="0.1" fill="#FEDF00" points="61.9475 31.1855 61 30.53075 60.0525 31.1855 60.40775 30.138 59.578625 29.483 60.644375 29.483 60.99975 28.43525 61.35475 29.483 62.421 29.483 61.59175 30.138 61.947125 31.1855"></polygon>
                </g>
            </g>
        </g>
    </g>
</svg>