<?xml version="1.0" encoding="UTF-8" standalone="no"?>
<svg width="122px" height="60px" viewBox="0 0 122 60" version="1.1" xmlns="http://www.w3.org/2000/svg" xmlns:xlink="http://www.w3.org/1999/xlink">
    <!-- Generator: Sketch 3.8.2 (29753) - http://www.bohemiancoding.com/sketch -->
    <title>ar</title>
    <desc>Created with Sketch.</desc>
    <defs></defs>
    <g id="Page-1" stroke="none" stroke-width="1" fill="none" fill-rule="evenodd">
        <g id="ar">
            <g id="Group">
                <g>
                    <g id="Shape">
                        <polygon fill="#00C4FF" points="0 3.55271368e-15 122 3.55271368e-15 122 20 0 20"></polygon>
                        <polygon fill="#FFFFFF" points="0 20 122 20 122 40 0 40"></polygon>
                        <polygon fill="#00C4FF" points="0 40 122 40 122 60 0 60"></polygon>
                    </g>
                    <path d="M66.7845636,30.3103035 C66.7845636,33.2533821 64.3789886,35.6391268 61.4113558,35.6391268 C58.443723,35.6391268 56.0385536,33.2533821 56.0385536,30.3103035 C56.0385536,27.3672249 58.4441286,24.9814802 61.4117614,24.9814802 C64.3793942,24.9814802 66.7845636,27.3672249 66.7845636,30.3103035 L66.7845636,30.3103035 Z" id="Shape" stroke-opacity="0.387" stroke="#000000" stroke-width="0.2" fill="#FFD600"></path>
                    <path d="M62.9250108,26.5044923 C62.2455489,26.3432595 61.5496484,26.5692926 61.3304672,26.5533228 C61.029093,26.5533228 60.2674381,26.2953503 59.7359236,26.5533228 M58.8983381,27.3045143 C59.5723204,26.8423135 60.3253646,27.4712752 60.5256023,27.3528842 C61.072303,27.0006288 61.5801772,27.0660433 62.1037073,27.3851308 C62.4410899,27.5804528 63.0295915,26.8154414 63.7146895,27.4335006" id="Shape" stroke-opacity="0.387" stroke="#000000" stroke-width="0.2"></path>
                    <path d="M58.1421628,28.0937875 C58.4983323,27.8089428 59.6598364,27.798194 60.8543742,28.4644695 C61.0351987,28.4214741 61.1502689,28.2980158 61.0023215,28.1260341 C60.1036784,27.8196917 59.057088,27.4327328 58.0926905,27.722952 C57.829673,27.9056825 57.8954273,28.02392 58.1420062,28.0937875 L58.1421628,28.0937875 Z" id="Shape" stroke-opacity="0.387" stroke="#000000" stroke-width="0.2" fill="#EFC000"></path>
                    <path d="M61.7922524,28.0937875 C62.148422,27.8089428 63.309926,27.798194 64.5044638,28.4644695 C64.6852883,28.4214741 64.8003585,28.2980158 64.6524112,28.1260341 C63.753768,27.8196917 62.7071776,27.4327328 61.7427801,27.722952 C61.4797626,27.9056825 61.545517,28.02392 61.7920959,28.0937875 L61.7922524,28.0937875 Z" id="Shape" stroke-opacity="0.387" stroke="#000000" stroke-width="0.2" fill="#EFC000" transform="translate(63.147018, 28.042443) scale(-1, 1) translate(-63.147018, -28.042443) "></path>
                    <path d="M57.6662264,29.0743939 C58.8443256,28.2822536 60.4003559,28.6955442 61.0525767,29.1260552 C60.0991382,28.9366303 60.0825431,28.8505281 59.3921221,28.8333077 C58.9044439,28.8506921 58.1866253,28.7988668 57.6662264,29.0743939 L57.6662264,29.0743939 Z" id="Shape" stroke-opacity="0.387" stroke="#000000" stroke-width="0.2" fill="#F0BF00"></path>
                    <path d="M60.3621557,28.9644449 C59.786805,30.1414447 58.7840507,30.157568 58.0773478,28.8999518" id="Shape" stroke-opacity="0.387" stroke="#000000" stroke-width="0.2"></path>
                    <path d="M60.0555694,29.3251559 C59.8851217,29.5140125 59.4676911,29.6261538 59.1233448,29.5758836 C58.7789984,29.5256133 58.6381295,29.3313929 58.8087005,29.1425364 C58.9792715,28.9536798 59.3965788,28.8415385 59.7410484,28.8918087 C60.0855179,28.942079 60.2262637,29.1362994 60.0556927,29.3251559 L60.0555694,29.3251559 Z" id="Shape" fill-opacity="0.368" fill="#000000"></path>
                    <path d="M59.3925872,29.1546398 C59.4207566,29.2713037 59.3340815,29.4256437 59.1987503,29.5000045 C59.0634191,29.5743654 58.9312397,29.5396637 58.9032673,29.4239913 C58.8749009,29.3069969 58.9617729,29.1523264 59.0969072,29.078296 C59.2320414,29.0042657 59.3648118,29.0386369 59.3923902,29.1543093 L59.3925872,29.1546398 Z" id="Shape" fill="#FFD700"></path>
                    <path d="M60.5375007,30.9913721 C59.8736947,32.0857593 60.7781304,31.3138378 60.9249819,31.6307756 C61.1833026,31.9245264 61.4416234,31.8552731 61.594424,31.6307756 C61.7473812,31.3774096 62.7103697,32.1087926 62.0526694,31.0260756" id="Shape" stroke-opacity="0.387" stroke="#000000" stroke-width="0.2"></path>
                    <path d="M59.3570531,32.8048578 C59.9266113,32.7414395 60.8839637,32.3153242 61.2247905,32.6666582 C61.5181803,32.3498741 62.5517764,32.7587913 63.2152693,32.8048578 C62.7336968,33.0927736 61.7589665,32.8969909 61.2950851,33.2022584 C60.8426323,32.9315407 59.8442618,33.1792251 59.3568966,32.8048578 L59.3570531,32.8048578 Z" id="Shape" stroke-opacity="0.387" stroke="#000000" stroke-width="0.2"></path>
                    <path d="M60.2744832,33.306983 C61.1377442,33.6524819 61.3315631,33.6007338 62.2652752,33.3415328 C62.0714563,33.8427367 61.576733,33.9480755 61.296181,33.9290346 C61.0054527,33.910608 60.6092043,33.9465399 60.2744832,33.3071365 L60.2744832,33.306983 Z" id="Shape" stroke-opacity="0.387" stroke="#000000" stroke-width="0.2"></path>
                    <path d="M59.5965869,36.1446811 C58.9739556,37.7431896 59.656079,38.5029802 59.3512605,39.3638101 C59.0578707,40.1927005 57.7817662,42.2469605 58.7532088,43.1397298 C59.5250399,43.1745868 58.6196648,42.0069539 60.1637967,39.8450517 C60.8802063,38.8323559 59.9767098,38.1912634 60.7314761,36.2047211 C60.8016141,36.0348892 59.6945923,35.8930043 59.5964304,36.1448346 L59.5965869,36.1446811 Z" id="Shape" stroke-opacity="0.387" stroke="#000000" stroke-width="0.2" fill="#FFD700"></path>
                    <path d="M60.9149306,36.2653173 C60.6757099,38.0593014 60.8178646,43.5710079 61.3903973,43.3503493 C62.0244573,43.5508922 62.1079028,37.9510451 62.0498198,36.2952605 C62.0415222,36.1119157 60.9481209,35.9976707 60.914774,36.2653173 L60.9149306,36.2653173 Z" id="Shape" stroke-opacity="0.387" stroke="#000000" stroke-width="0.2" fill="#FFD700"></path>
                    <path d="M56.1087442,34.6410592 C55.4954191,36.2648397 56.1673471,37.0366424 55.8670846,37.9110817 C55.57808,38.7530766 54.3210489,40.8398138 55.2779717,41.7466976 C56.0382666,41.7821057 55.1464238,40.5960128 56.6674761,38.3999316 C57.3731778,37.3712254 56.4831856,36.7199974 57.2266707,34.7020485 C57.2957603,34.5295316 56.2052847,34.3854035 56.10859,34.6412152 L56.1087442,34.6410592 Z" id="Shape" stroke-opacity="0.387" stroke="#000000" stroke-width="0.2" transform="translate(56.077109, 38.124918) rotate(223.478085) translate(-56.077109, -38.124918) "></path>
                    <path d="M53.465652,32.1180209 C52.8527422,33.7427937 53.5242151,34.515068 53.224156,35.3900416 C52.9353471,36.2325511 51.6791671,38.3205635 52.635442,39.2280015 C53.3952221,39.2634312 52.5039831,38.0766135 54.0240056,35.8791903 C54.7292294,34.8498554 53.8398398,34.1982295 54.5828215,32.1790475 C54.6518644,32.0064251 53.5621271,31.862209 53.4654979,32.118177 L53.465652,32.1180209 Z" id="Shape" stroke-opacity="0.387" stroke="#000000" stroke-width="0.2" transform="translate(53.434038, 35.604008) rotate(44.688965) translate(-53.434038, -35.604008) "></path>
                    <path d="M51.9858911,28.6029809 C51.3825119,30.2525473 52.0435436,31.0366063 51.7481503,31.9249318 C51.4638323,32.7802978 50.2271856,34.9001728 51.1685907,35.821458 C51.9165563,35.8574284 51.0391759,34.6525001 52.5355624,32.4215448 C53.2298202,31.3765025 52.3542604,30.7149329 53.0856889,28.6649387 C53.1536582,28.4896821 52.080866,28.3432653 51.9857394,28.6031393 L51.9858911,28.6029809 Z" id="Shape" stroke-opacity="0.387" stroke="#000000" stroke-width="0.2" transform="translate(51.954769, 32.142164) rotate(269.660232) translate(-51.954769, -32.142164) "></path>
                    <path d="M57.2595538,35.5039258 C57.021495,37.3070404 57.1629593,42.8467988 57.732711,42.6250171 C58.3636912,42.8265807 58.4467314,37.1982331 58.3889305,35.5340214 C58.3806732,35.3497435 57.2925828,35.234917 57.259398,35.5039258 L57.2595538,35.5039258 Z" id="Shape" stroke-opacity="0.387" stroke="#000000" stroke-width="0.2" transform="translate(57.776616, 38.988143) rotate(202.806392) translate(-57.776616, -38.988143) "></path>
                    <path d="M54.0548318,33.5013932 C53.8192065,35.3238834 53.9592247,40.92317 54.5231524,40.6990051 C55.1476828,40.9027347 55.229874,35.2139069 55.172664,33.5318122 C55.1644911,33.3455541 54.0875232,33.2294938 54.0546776,33.5013932 L54.0548318,33.5013932 Z" id="Shape" stroke-opacity="0.387" stroke="#000000" stroke-width="0.2" transform="translate(54.566608, 37.023050) rotate(223.672297) translate(-54.566608, -37.023050) "></path>
                    <path d="M52.0530314,30.3912964 C51.8200869,32.2339073 51.958512,37.8950112 52.516024,37.6683715 C53.1334491,37.8743503 53.2147053,32.1227166 53.1581461,30.4220512 C53.1500662,30.2337368 52.085351,30.1163951 52.052879,30.3912964 L52.0530314,30.3912964 Z" id="Shape" stroke-opacity="0.387" stroke="#000000" stroke-width="0.2" transform="translate(52.558986, 33.951833) rotate(246.340387) translate(-52.558986, -33.951833) "></path>
                    <path d="M60.5375007,30.9913721 C59.8736947,32.0857593 60.7781304,31.3138378 60.9249819,31.6307756 C61.1833026,31.9245264 61.4416234,31.8552731 61.594424,31.6307756 C61.7473812,31.3774096 62.7103697,32.1087926 62.0526694,31.0260756" id="Shape" stroke-opacity="0.082" stroke="#000000" stroke-width="0.2"></path>
                    <path d="M59.3570531,32.8048578 C59.9266113,32.7414395 60.8839637,32.3153242 61.2247905,32.6666582 C61.5181803,32.3498741 62.5517764,32.7587913 63.2152693,32.8048578 C62.7336968,33.0927736 61.7589665,32.8969909 61.2950851,33.2022584 C60.8426323,32.9315407 59.8442618,33.1792251 59.3568966,32.8048578 L59.3570531,32.8048578 Z" id="Shape" stroke-opacity="0.082" stroke="#000000" stroke-width="0.2" fill="#F0BF00"></path>
                    <path d="M60.2744832,33.306983 C61.1377442,33.6524819 61.3315631,33.6007338 62.2652752,33.3415328 C62.0714563,33.8427367 61.576733,33.9480755 61.296181,33.9290346 C61.0054527,33.910608 60.6092043,33.9465399 60.2744832,33.3071365 L60.2744832,33.306983 Z" id="Shape" stroke-opacity="0.082" stroke="#000000" stroke-width="0.2" fill="#F0BF00"></path>
                    <path d="M56.1087442,34.6410592 C55.4954191,36.2648397 56.1673471,37.0366424 55.8670846,37.9110817 C55.57808,38.7530766 54.3210489,40.8398138 55.2779717,41.7466976 C56.0382666,41.7821057 55.1464238,40.5960128 56.6674761,38.3999316 C57.3731778,37.3712254 56.4831856,36.7199974 57.2266707,34.7020485 C57.2957603,34.5295316 56.2052847,34.3854035 56.10859,34.6412152 L56.1087442,34.6410592 Z" id="Shape" stroke-opacity="0.149" stroke="#000000" stroke-width="0.2" fill="#FFD700" transform="translate(56.077109, 38.124918) rotate(223.478085) translate(-56.077109, -38.124918) "></path>
                    <path d="M53.465652,32.1180209 C52.8527422,33.7427937 53.5242151,34.515068 53.224156,35.3900416 C52.9353471,36.2325511 51.6791671,38.3205635 52.635442,39.2280015 C53.3952221,39.2634312 52.5039831,38.0766135 54.0240056,35.8791903 C54.7292294,34.8498554 53.8398398,34.1982295 54.5828215,32.1790475 C54.6518644,32.0064251 53.5621271,31.862209 53.4654979,32.118177 L53.465652,32.1180209 Z" id="Shape" stroke-opacity="0.149" stroke="#000000" stroke-width="0.2" fill="#FFD700" transform="translate(53.434038, 35.604008) rotate(44.688965) translate(-53.434038, -35.604008) "></path>
                    <path d="M51.9858911,28.6029809 C51.3825119,30.2525473 52.0435436,31.0366063 51.7481503,31.9249318 C51.4638323,32.7802978 50.2271856,34.9001728 51.1685907,35.821458 C51.9165563,35.8574284 51.0391759,34.6525001 52.5355624,32.4215448 C53.2298202,31.3765025 52.3542604,30.7149329 53.0856889,28.6649387 C53.1536582,28.4896821 52.080866,28.3432653 51.9857394,28.6031393 L51.9858911,28.6029809 Z" id="Shape" stroke-opacity="0.149" stroke="#000000" stroke-width="0.2" fill="#FFD700" transform="translate(51.954769, 32.142164) rotate(269.660232) translate(-51.954769, -32.142164) "></path>
                    <path d="M57.2595538,35.5039258 C57.021495,37.3070404 57.1629593,42.8467988 57.732711,42.6250171 C58.3636912,42.8265807 58.4467314,37.1982331 58.3889305,35.5340214 C58.3806732,35.3497435 57.2925828,35.234917 57.259398,35.5039258 L57.2595538,35.5039258 Z" id="Shape" stroke-opacity="0.149" stroke="#000000" stroke-width="0.2" fill="#FFD700" transform="translate(57.776616, 38.988143) rotate(202.806392) translate(-57.776616, -38.988143) "></path>
                    <path d="M54.0548318,33.5013932 C53.8192065,35.3238834 53.9592247,40.92317 54.5231524,40.6990051 C55.1476828,40.9027347 55.229874,35.2139069 55.172664,33.5318122 C55.1644911,33.3455541 54.0875232,33.2294938 54.0546776,33.5013932 L54.0548318,33.5013932 Z" id="Shape" stroke-opacity="0.149" stroke="#000000" stroke-width="0.2" fill="#FFD700" transform="translate(54.566608, 37.023050) rotate(223.672297) translate(-54.566608, -37.023050) "></path>
                    <path d="M52.0530314,30.3912964 C51.8200869,32.2339073 51.958512,37.8950112 52.516024,37.6683715 C53.1334491,37.8743503 53.2147053,32.1227166 53.1581461,30.4220512 C53.1500662,30.2337368 52.085351,30.1163951 52.052879,30.3912964 L52.0530314,30.3912964 Z" id="Shape" stroke-opacity="0.149" stroke="#000000" stroke-width="0.2" fill="#FFD700" transform="translate(52.558986, 33.951833) rotate(246.340387) translate(-52.558986, -33.951833) "></path>
                    <path d="M70.5234734,26.7466403 C70.2916537,28.5978978 70.4294104,34.2855671 70.9842304,34.0578638 C71.5986742,34.2648091 71.679538,28.4861854 71.6232519,26.7775395 C71.615211,26.5883413 70.5556369,26.4704491 70.5233217,26.7466403 L70.5234734,26.7466403 Z" id="Shape" stroke-opacity="0.387" stroke="#000000" stroke-width="0.2" fill="#FFD700" transform="translate(71.026984, 30.323885) rotate(-90.000000) translate(-71.026984, -30.323885) "></path>
                    <path d="M63.3206122,36.2240158 C62.6979809,37.8225243 63.3801042,38.5823149 63.0752857,39.4431448 C62.781896,40.2720352 61.5057915,42.3262952 62.4772341,43.2190645 C63.2490652,43.2539215 62.3436901,42.0862886 63.8878219,39.9243864 C64.6042315,38.9116906 63.7007351,38.2705981 64.4555014,36.2840558 C64.5256394,36.1142239 63.4186175,35.972339 63.3204556,36.2241694 L63.3206122,36.2240158 Z" id="Shape" stroke-opacity="0.387" stroke="#000000" stroke-width="0.2" fill="#FFD700" transform="translate(63.288497, 39.653653) scale(-1, 1) translate(-63.288497, -39.653653) "></path>
                    <path d="M66.852356,34.7196455 C66.239031,36.343426 66.9109589,37.1152286 66.6106964,37.9896679 C66.3216918,38.8316628 65.0646607,40.9184001 66.0215836,41.8252838 C66.7818784,41.8606919 65.8900356,40.6745991 67.4110879,38.4785179 C68.1167896,37.4498116 67.2267974,36.7985836 67.9702825,34.7806348 C68.0393721,34.6081178 66.9488965,34.4639898 66.8522018,34.7198015 L66.852356,34.7196455 Z" id="Shape" stroke-opacity="0.387" stroke="#000000" stroke-width="0.2" fill="#FFD700" transform="translate(66.820721, 38.203504) rotate(-43.478085) translate(-66.820721, -38.203504) "></path>
                    <path d="M69.4965146,32.1579378 C68.8836048,33.7827105 69.5550778,34.5549848 69.2550186,35.4299585 C68.9662097,36.2724679 67.7100298,38.3604804 68.6663047,39.2679183 C69.4260847,39.303348 68.5348458,38.1165304 70.0548682,35.9191072 C70.7600921,34.8897723 69.8707025,34.2381463 70.6136841,32.2189643 C70.682727,32.0463419 69.5929898,31.9021258 69.4963605,32.1580939 L69.4965146,32.1579378 Z" id="Shape" stroke-opacity="0.387" stroke="#000000" stroke-width="0.2" fill="#FFD700" transform="translate(69.464901, 35.643925) rotate(135.311035) translate(-69.464901, -35.643925) "></path>
                    <path d="M70.9294453,28.6029809 C70.326066,30.2525473 70.9870978,31.0366063 70.6917044,31.9249318 C70.4073865,32.7802978 69.1707397,34.9001728 70.1121448,35.821458 C70.8601105,35.8574284 69.9827301,34.6525001 71.4791166,32.4215448 C72.1733744,31.3765025 71.2978146,30.7149329 72.0292431,28.6649387 C72.0972124,28.4896821 71.0244202,28.3432653 70.9292935,28.6031393 L70.9294453,28.6029809 Z" id="Shape" stroke-opacity="0.387" stroke="#000000" stroke-width="0.2" fill="#FFD700" transform="translate(70.898323, 32.142164) rotate(-89.660232) translate(-70.898323, -32.142164) "></path>
                    <path d="M64.5962646,35.5842584 C64.3582059,37.387373 64.4996701,42.9271314 65.0694219,42.7053497 C65.7004021,42.9069133 65.7834422,37.2785657 65.7256413,35.614354 C65.717384,35.4300761 64.6292937,35.3152497 64.5961088,35.5842584 L64.5962646,35.5842584 Z" id="Shape" stroke-opacity="0.387" stroke="#000000" stroke-width="0.2" fill="#FFD700" transform="translate(65.113327, 39.068475) rotate(-22.806392) translate(-65.113327, -39.068475) "></path>
                    <path d="M67.7130847,33.5013932 C67.4774594,35.3238834 67.6174776,40.92317 68.1814053,40.6990051 C68.8059357,40.9027347 68.888127,35.2139069 68.8309169,33.5318122 C68.822744,33.3455541 67.7457762,33.2294938 67.7129305,33.5013932 L67.7130847,33.5013932 Z" id="Shape" stroke-opacity="0.387" stroke="#000000" stroke-width="0.2" fill="#FFD700" transform="translate(68.224861, 37.023050) rotate(-43.672297) translate(-68.224861, -37.023050) "></path>
                    <path d="M69.8555674,30.3912964 C69.6226228,32.2339073 69.761048,37.8950112 70.31856,37.6683715 C70.9359851,37.8743503 71.0172412,32.1227166 70.9606821,30.4220512 C70.9526022,30.2337368 69.8878869,30.1163951 69.8554149,30.3912964 L69.8555674,30.3912964 Z" id="Shape" stroke-opacity="0.387" stroke="#000000" stroke-width="0.2" fill="#FFD700" transform="translate(70.361521, 33.951833) rotate(-66.340387) translate(-70.361521, -33.951833) "></path>
                    <path d="M66.852356,34.7196455 C66.239031,36.343426 66.9109589,37.1152286 66.6106964,37.9896679 C66.3216918,38.8316628 65.0646607,40.9184001 66.0215836,41.8252838 C66.7818784,41.8606919 65.8900356,40.6745991 67.4110879,38.4785179 C68.1167896,37.4498116 67.2267974,36.7985836 67.9702825,34.7806348 C68.0393721,34.6081178 66.9488965,34.4639898 66.8522018,34.7198015 L66.852356,34.7196455 Z" id="Shape" stroke-opacity="0.149" stroke="#000000" stroke-width="0.2" fill="#FFD700" transform="translate(66.820721, 38.203504) rotate(-43.478085) translate(-66.820721, -38.203504) "></path>
                    <path d="M69.4965146,32.1579378 C68.8836048,33.7827105 69.5550778,34.5549848 69.2550186,35.4299585 C68.9662097,36.2724679 67.7100298,38.3604804 68.6663047,39.2679183 C69.4260847,39.303348 68.5348458,38.1165304 70.0548682,35.9191072 C70.7600921,34.8897723 69.8707025,34.2381463 70.6136841,32.2189643 C70.682727,32.0463419 69.5929898,31.9021258 69.4963605,32.1580939 L69.4965146,32.1579378 Z" id="Shape" stroke-opacity="0.149" stroke="#000000" stroke-width="0.2" fill="#FFD700" transform="translate(69.464901, 35.643925) rotate(135.311035) translate(-69.464901, -35.643925) "></path>
                    <path d="M70.9294453,28.6029809 C70.326066,30.2525473 70.9870978,31.0366063 70.6917044,31.9249318 C70.4073865,32.7802978 69.1707397,34.9001728 70.1121448,35.821458 C70.8601105,35.8574284 69.9827301,34.6525001 71.4791166,32.4215448 C72.1733744,31.3765025 71.2978146,30.7149329 72.0292431,28.6649387 C72.0972124,28.4896821 71.0244202,28.3432653 70.9292935,28.6031393 L70.9294453,28.6029809 Z" id="Shape" stroke-opacity="0.149" stroke="#000000" stroke-width="0.2" fill="#FFD700" transform="translate(70.898323, 32.142164) rotate(-89.660232) translate(-70.898323, -32.142164) "></path>
                    <path d="M64.5962646,35.5842584 C64.3582059,37.387373 64.4996701,42.9271314 65.0694219,42.7053497 C65.7004021,42.9069133 65.7834422,37.2785657 65.7256413,35.614354 C65.717384,35.4300761 64.6292937,35.3152497 64.5961088,35.5842584 L64.5962646,35.5842584 Z" id="Shape" stroke-opacity="0.149" stroke="#000000" stroke-width="0.2" fill="#FFD700" transform="translate(65.113327, 39.068475) rotate(-22.806392) translate(-65.113327, -39.068475) "></path>
                    <path d="M67.7130847,33.5013932 C67.4774594,35.3238834 67.6174776,40.92317 68.1814053,40.6990051 C68.8059357,40.9027347 68.888127,35.2139069 68.8309169,33.5318122 C68.822744,33.3455541 67.7457762,33.2294938 67.7129305,33.5013932 L67.7130847,33.5013932 Z" id="Shape" stroke-opacity="0.149" stroke="#000000" stroke-width="0.2" fill="#FFD700" transform="translate(68.224861, 37.023050) rotate(-43.672297) translate(-68.224861, -37.023050) "></path>
                    <path d="M69.8555674,30.3912964 C69.6226228,32.2339073 69.761048,37.8950112 70.31856,37.6683715 C70.9359851,37.8743503 71.0172412,32.1227166 70.9606821,30.4220512 C70.9526022,30.2337368 69.8878869,30.1163951 69.8554149,30.3912964 L69.8555674,30.3912964 Z" id="Shape" stroke-opacity="0.149" stroke="#000000" stroke-width="0.2" fill="#FFD700" transform="translate(70.361521, 33.951833) rotate(-66.340387) translate(-70.361521, -33.951833) "></path>
                    <path d="M51.304726,26.7173314 C51.0729063,28.568589 51.210663,34.2562582 51.765483,34.0285549 C52.3799268,34.2355003 52.4607906,28.4568765 52.4045045,26.7482306 C52.3964636,26.5590325 51.3368895,26.4411402 51.3045743,26.7173314 L51.304726,26.7173314 Z" id="Shape" stroke-opacity="0.387" stroke="#000000" stroke-width="0.2" fill="#FFD700" transform="translate(51.808237, 30.294576) rotate(90.000000) translate(-51.808237, -30.294576) "></path>
                    <path d="M59.5809348,17.5337995 C58.9583035,19.132308 59.6404269,19.8920986 59.3356084,20.7529285 C59.0422186,21.5818189 57.7661141,23.6360789 58.7375567,24.5288482 C59.5093878,24.5637052 58.6040127,23.3960723 60.1481446,21.2341702 C60.8645542,20.2214743 59.9610577,19.5803818 60.715824,17.5938396 C60.785962,17.4240076 59.6789402,17.2821227 59.5807783,17.5339531 L59.5809348,17.5337995 Z" id="Shape" stroke-opacity="0.387" stroke="#000000" stroke-width="0.2" fill="#FFD700" transform="translate(59.548820, 20.963437) scale(1, -1) translate(-59.548820, -20.963437) "></path>
                    <path d="M56.0471218,18.930101 C55.4337967,20.5538814 56.1057246,21.3256841 55.8054621,22.2001234 C55.5164575,23.0421183 54.2594265,25.1288556 55.2163493,26.0357393 C55.9766441,26.0711474 55.0848013,24.8850545 56.6058536,22.6889734 C57.3115553,21.6602671 56.4215631,21.0090391 57.1650482,18.9910902 C57.2341379,18.8185733 56.1436622,18.6744452 56.0469675,18.930257 L56.0471218,18.930101 Z" id="Shape" stroke-opacity="0.387" stroke="#000000" stroke-width="0.2" fill="#FFD700" transform="translate(56.015487, 22.413960) rotate(136.521915) translate(-56.015487, -22.413960) "></path>
                    <path d="M53.4040295,21.488424 C52.7911197,23.1131967 53.4625927,23.885471 53.1625335,24.7604447 C52.8737246,25.6029541 51.6175446,27.6909666 52.5738195,28.5984045 C53.3335996,28.6338342 52.4423606,27.4470166 53.9623831,25.2495934 C54.6676069,24.2202585 53.7782173,23.5686325 54.521199,21.5494505 C54.5902419,21.3768282 53.5005046,21.232612 53.4038754,21.4885801 L53.4040295,21.488424 Z" id="Shape" stroke-opacity="0.387" stroke="#000000" stroke-width="0.2" fill="#FFD700" transform="translate(53.372416, 24.974412) rotate(-44.688965) translate(-53.372416, -24.974412) "></path>
                    <path d="M51.9701157,24.9353686 C51.3667365,26.584935 52.0277683,27.368994 51.7323749,28.2573196 C51.4480569,29.1126855 50.2114102,31.2325605 51.1528153,32.1538457 C51.900781,32.1898161 51.0234006,30.9848879 52.5197871,28.7539325 C53.2140449,27.7088902 52.338485,27.0473206 53.0699135,24.9973264 C53.1378828,24.8220699 52.0650907,24.675653 51.969964,24.9355271 L51.9701157,24.9353686 Z" id="Shape" stroke-opacity="0.387" stroke="#000000" stroke-width="0.2" fill="#FFD700" transform="translate(51.938994, 28.474551) rotate(90.339768) translate(-51.938994, -28.474551) "></path>
                    <path d="M57.2059422,18.0667674 C56.9678835,19.8698821 57.1093477,25.4096405 57.6790995,25.1878588 C58.3100797,25.3894224 58.3931198,19.7610748 58.3353189,18.0968631 C58.3270616,17.9125852 57.2389713,17.7977587 57.2057864,18.0667674 L57.2059422,18.0667674 Z" id="Shape" stroke-opacity="0.387" stroke="#000000" stroke-width="0.2" fill="#FFD700" transform="translate(57.723004, 21.550984) rotate(157.193608) translate(-57.723004, -21.550984) "></path>
                    <path d="M54.1006789,20.0727566 C53.8650536,21.8952468 54.0050718,27.4945334 54.5689995,27.2703685 C55.1935299,27.4740981 55.2757211,21.7852703 55.2185111,20.1031756 C55.2103382,19.9169175 54.1333704,19.8008572 54.1005247,20.0727566 L54.1006789,20.0727566 Z" id="Shape" stroke-opacity="0.387" stroke="#000000" stroke-width="0.2" fill="#FFD700" transform="translate(54.612455, 23.594414) rotate(136.327703) translate(-54.612455, -23.594414) "></path>
                    <path d="M51.9694714,23.1040958 C51.7365268,24.9467067 51.874952,30.6078107 52.432464,30.3811709 C53.0498891,30.5871497 53.1311452,24.835516 53.0745861,23.1348507 C53.0665062,22.9465362 52.0017909,22.8291946 51.9693189,23.1040958 L51.9694714,23.1040958 Z" id="Shape" stroke-opacity="0.387" stroke="#000000" stroke-width="0.2" fill="#FFD700" transform="translate(52.475425, 26.664633) rotate(113.659613) translate(-52.475425, -26.664633) "></path>
                    <path d="M56.0471218,18.930101 C55.4337967,20.5538814 56.1057246,21.3256841 55.8054621,22.2001234 C55.5164575,23.0421183 54.2594265,25.1288556 55.2163493,26.0357393 C55.9766441,26.0711474 55.0848013,24.8850545 56.6058536,22.6889734 C57.3115553,21.6602671 56.4215631,21.0090391 57.1650482,18.9910902 C57.2341379,18.8185733 56.1436622,18.6744452 56.0469675,18.930257 L56.0471218,18.930101 Z" id="Shape" stroke-opacity="0.149" stroke="#000000" stroke-width="0.2" fill="#FFD700" transform="translate(56.015487, 22.413960) rotate(136.521915) translate(-56.015487, -22.413960) "></path>
                    <path d="M53.4040295,21.488424 C52.7911197,23.1131967 53.4625927,23.885471 53.1625335,24.7604447 C52.8737246,25.6029541 51.6175446,27.6909666 52.5738195,28.5984045 C53.3335996,28.6338342 52.4423606,27.4470166 53.9623831,25.2495934 C54.6676069,24.2202585 53.7782173,23.5686325 54.521199,21.5494505 C54.5902419,21.3768282 53.5005046,21.232612 53.4038754,21.4885801 L53.4040295,21.488424 Z" id="Shape" stroke-opacity="0.149" stroke="#000000" stroke-width="0.2" fill="#FFD700" transform="translate(53.372416, 24.974412) rotate(-44.688965) translate(-53.372416, -24.974412) "></path>
                    <path d="M51.9701157,24.9353686 C51.3667365,26.584935 52.0277683,27.368994 51.7323749,28.2573196 C51.4480569,29.1126855 50.2114102,31.2325605 51.1528153,32.1538457 C51.900781,32.1898161 51.0234006,30.9848879 52.5197871,28.7539325 C53.2140449,27.7088902 52.338485,27.0473206 53.0699135,24.9973264 C53.1378828,24.8220699 52.0650907,24.675653 51.969964,24.9355271 L51.9701157,24.9353686 Z" id="Shape" stroke-opacity="0.149" stroke="#000000" stroke-width="0.2" fill="#FFD700" transform="translate(51.938994, 28.474551) rotate(90.339768) translate(-51.938994, -28.474551) "></path>
                    <path d="M57.2059422,18.0667674 C56.9678835,19.8698821 57.1093477,25.4096405 57.6790995,25.1878588 C58.3100797,25.3894224 58.3931198,19.7610748 58.3353189,18.0968631 C58.3270616,17.9125852 57.2389713,17.7977587 57.2057864,18.0667674 L57.2059422,18.0667674 Z" id="Shape" stroke-opacity="0.149" stroke="#000000" stroke-width="0.2" fill="#FFD700" transform="translate(57.723004, 21.550984) rotate(157.193608) translate(-57.723004, -21.550984) "></path>
                    <path d="M54.1006789,20.0727566 C53.8650536,21.8952468 54.0050718,27.4945334 54.5689995,27.2703685 C55.1935299,27.4740981 55.2757211,21.7852703 55.2185111,20.1031756 C55.2103382,19.9169175 54.1333704,19.8008572 54.1005247,20.0727566 L54.1006789,20.0727566 Z" id="Shape" stroke-opacity="0.149" stroke="#000000" stroke-width="0.2" fill="#FFD700" transform="translate(54.612455, 23.594414) rotate(136.327703) translate(-54.612455, -23.594414) "></path>
                    <path d="M51.9694714,23.1040958 C51.7365268,24.9467067 51.874952,30.6078107 52.432464,30.3811709 C53.0498891,30.5871497 53.1311452,24.835516 53.0745861,23.1348507 C53.0665062,22.9465362 52.0017909,22.8291946 51.9693189,23.1040958 L51.9694714,23.1040958 Z" id="Shape" stroke-opacity="0.149" stroke="#000000" stroke-width="0.2" fill="#FFD700" transform="translate(52.475425, 26.664633) rotate(113.659613) translate(-52.475425, -26.664633) "></path>
                    <path d="M60.873848,17.4163795 C60.6346273,19.2103636 60.776782,24.7220702 61.3493148,24.5014115 C61.9833748,24.7019545 62.0668202,19.1021073 62.0087372,17.4463227 C62.0004396,17.2629779 60.9070383,17.148733 60.8736915,17.4163795 L60.873848,17.4163795 Z" id="Shape" stroke-opacity="0.387" stroke="#000000" stroke-width="0.2" fill="#FFD700" transform="translate(61.393434, 20.882953) scale(-1, -1) translate(-61.393434, -20.882953) "></path>
                    <path d="M70.9371298,24.9365156 C70.3337612,26.5860569 70.9947813,27.370104 70.6993932,28.2584161 C70.4150802,29.1137691 69.1784552,31.2336119 70.1198438,32.1548831 C70.8677963,32.1908529 69.9904313,30.985943 71.4867915,28.7550215 C72.1810371,27.7099951 71.3054927,27.0484356 72.0369083,24.9984724 C72.1048764,24.8232186 71.0321031,24.6768039 70.9369781,24.9366741 L70.9371298,24.9365156 Z" id="Shape" stroke-opacity="0.387" stroke="#000000" stroke-width="0.2" fill="#FFD700" transform="translate(70.906008, 28.475645) rotate(90.000000) translate(-70.906008, -28.475645) "></path>
                    <path d="M69.4595381,21.5167932 C68.8466305,23.1416794 69.5181011,23.9140077 69.218043,24.7890425 C68.9292351,25.6316108 67.6730594,27.7197692 68.629331,28.6272705 C69.3891085,28.6627027 68.4978726,27.4758021 70.0178898,25.2782254 C70.7231112,24.2488186 69.8337247,23.5971471 70.5767038,21.577824 C70.6457464,21.4051896 69.5560129,21.2609633 69.459384,21.5169493 L69.4595381,21.5167932 Z" id="Shape" stroke-opacity="0.387" stroke="#000000" stroke-width="0.2" fill="#FFD700" transform="translate(69.427925, 25.003024) rotate(224.727844) translate(-69.427925, -25.003024) "></path>
                    <path d="M66.8529398,18.930017 C66.2396576,20.553803 66.9115385,21.3256083 66.611297,22.2000507 C66.3223127,23.0420485 65.0653694,25.128793 66.0222254,26.0356798 C66.7824671,26.071088 65.8906866,24.8849911 67.4116326,22.6889023 C68.117285,21.6601925 67.227355,21.0089623 67.9707881,18.9910064 C68.039873,18.8184889 66.9494735,18.6743603 66.8527856,18.9301729 L66.8529398,18.930017 Z" id="Shape" stroke-opacity="0.387" stroke="#000000" stroke-width="0.2" fill="#FFD700" transform="translate(66.821307, 22.413888) rotate(43.507130) translate(-66.821307, -22.413888) "></path>
                    <path d="M63.282269,17.5846639 C62.6596283,19.1832005 63.341762,19.9430044 63.0369389,20.8038494 C62.7435447,21.6327544 61.4674208,23.6870506 62.4388781,24.5798356 C63.2107209,24.6146932 62.3053321,23.4470397 63.8494874,21.2850996 C64.5659079,20.2723859 63.6623977,19.6312821 64.4171755,17.644705 C64.4873145,17.47487 63.3802759,17.3329826 63.2821125,17.5848174 L63.282269,17.5846639 Z" id="Shape" stroke-opacity="0.387" stroke="#000000" stroke-width="0.2" fill="#FFD700" transform="translate(63.250153, 21.014361) rotate(180.315726) translate(-63.250153, -21.014361) "></path>
                    <path d="M69.8001165,23.1283198 C69.5671169,24.9705853 69.7055748,30.6306278 70.2632185,30.4040305 C70.8807895,30.6099707 70.9620648,24.8594154 70.9054923,23.1590689 C70.8974105,22.9707898 69.8324437,22.8534701 69.799964,23.1283198 L69.8001165,23.1283198 Z" id="Shape" stroke-opacity="0.387" stroke="#000000" stroke-width="0.2" fill="#FFD700" transform="translate(70.306190, 26.688189) rotate(245.875295) translate(-70.306190, -26.688189) "></path>
                    <path d="M67.7138534,20.1059541 C67.4783501,21.9293879 67.6182958,27.5315733 68.1819317,27.3072924 C68.8061389,27.5111274 68.8882876,21.8193544 68.8311072,20.1363889 C68.8229385,19.9500343 67.7465279,19.8339139 67.7136993,20.1059541 L67.7138534,20.1059541 Z" id="Shape" stroke-opacity="0.387" stroke="#000000" stroke-width="0.2" fill="#FFD700" transform="translate(68.225365, 23.629434) rotate(224.530240) translate(-68.225365, -23.629434) "></path>
                    <path d="M64.5726665,18.0590801 C64.3345632,19.8617688 64.4760539,25.4002185 65.0459125,25.1784892 C65.6770111,25.3800052 65.7600668,19.7529872 65.702255,18.0891686 C65.6939962,17.9049342 64.6057018,17.7901349 64.5725107,18.0590801 L64.5726665,18.0590801 Z" id="Shape" stroke-opacity="0.387" stroke="#000000" stroke-width="0.2" fill="#FFD700" transform="translate(65.089825, 21.542474) rotate(202.360170) translate(-65.089825, -21.542474) "></path>
                    <path d="M69.4595381,21.5167932 C68.8466305,23.1416794 69.5181011,23.9140077 69.218043,24.7890425 C68.9292351,25.6316108 67.6730594,27.7197692 68.629331,28.6272705 C69.3891085,28.6627027 68.4978726,27.4758021 70.0178898,25.2782254 C70.7231112,24.2488186 69.8337247,23.5971471 70.5767038,21.577824 C70.6457464,21.4051896 69.5560129,21.2609633 69.459384,21.5169493 L69.4595381,21.5167932 Z" id="Shape" stroke-opacity="0.149" stroke="#000000" stroke-width="0.2" fill="#FFD700" transform="translate(69.427925, 25.003024) rotate(224.727844) translate(-69.427925, -25.003024) "></path>
                    <path d="M66.8529398,18.930017 C66.2396576,20.553803 66.9115385,21.3256083 66.611297,22.2000507 C66.3223127,23.0420485 65.0653694,25.128793 66.0222254,26.0356798 C66.7824671,26.071088 65.8906866,24.8849911 67.4116326,22.6889023 C68.117285,21.6601925 67.227355,21.0089623 67.9707881,18.9910064 C68.039873,18.8184889 66.9494735,18.6743603 66.8527856,18.9301729 L66.8529398,18.930017 Z" id="Shape" stroke-opacity="0.149" stroke="#000000" stroke-width="0.2" fill="#FFD700" transform="translate(66.821307, 22.413888) rotate(43.507130) translate(-66.821307, -22.413888) "></path>
                    <path d="M63.282269,17.5846639 C62.6596283,19.1832005 63.341762,19.9430044 63.0369389,20.8038494 C62.7435447,21.6327544 61.4674208,23.6870506 62.4388781,24.5798356 C63.2107209,24.6146932 62.3053321,23.4470397 63.8494874,21.2850996 C64.5659079,20.2723859 63.6623977,19.6312821 64.4171755,17.644705 C64.4873145,17.47487 63.3802759,17.3329826 63.2821125,17.5848174 L63.282269,17.5846639 Z" id="Shape" stroke-opacity="0.149" stroke="#000000" stroke-width="0.2" fill="#FFD700" transform="translate(63.250153, 21.014361) rotate(180.315726) translate(-63.250153, -21.014361) "></path>
                    <path d="M69.8001165,23.1283198 C69.5671169,24.9705853 69.7055748,30.6306278 70.2632185,30.4040305 C70.8807895,30.6099707 70.9620648,24.8594154 70.9054923,23.1590689 C70.8974105,22.9707898 69.8324437,22.8534701 69.799964,23.1283198 L69.8001165,23.1283198 Z" id="Shape" stroke-opacity="0.149" stroke="#000000" stroke-width="0.2" fill="#FFD700" transform="translate(70.306190, 26.688189) rotate(245.875295) translate(-70.306190, -26.688189) "></path>
                    <path d="M67.7138534,20.1059541 C67.4783501,21.9293879 67.6182958,27.5315733 68.1819317,27.3072924 C68.8061389,27.5111274 68.8882876,21.8193544 68.8311072,20.1363889 C68.8229385,19.9500343 67.7465279,19.8339139 67.7136993,20.1059541 L67.7138534,20.1059541 Z" id="Shape" stroke-opacity="0.149" stroke="#000000" stroke-width="0.2" fill="#FFD700" transform="translate(68.225365, 23.629434) rotate(224.530240) translate(-68.225365, -23.629434) "></path>
                    <path d="M64.5726665,18.0590801 C64.3345632,19.8617688 64.4760539,25.4002185 65.0459125,25.1784892 C65.6770111,25.3800052 65.7600668,19.7529872 65.702255,18.0891686 C65.6939962,17.9049342 64.6057018,17.7901349 64.5725107,18.0590801 L64.5726665,18.0590801 Z" id="Shape" stroke-opacity="0.149" stroke="#000000" stroke-width="0.2" fill="#FFD700" transform="translate(65.089825, 21.542474) rotate(202.360170) translate(-65.089825, -21.542474) "></path>
                    <path id="Shape" stroke-opacity="0.171" stroke="#000000" stroke-width="0.2"></path>
                    <path id="Shape" stroke-opacity="0.171" stroke="#000000" stroke-width="0.2"></path>
                    <path id="Shape" stroke-opacity="0.171" stroke="#000000" stroke-width="0.2"></path>
                    <path id="Shape" stroke-opacity="0.171" stroke="#000000" stroke-width="0.2"></path>
                    <path id="Shape" stroke-opacity="0.171" stroke="#000000" stroke-width="0.2"></path>
                    <path id="Shape" stroke-opacity="0.171" stroke="#000000" stroke-width="0.2"></path>
                    <path id="Shape" stroke-opacity="0.171" stroke="#000000" stroke-width="0.2"></path>
                    <path id="Shape" stroke-opacity="0.171" stroke="#000000" stroke-width="0.2"></path>
                    <path id="Shape" stroke-opacity="0.171" stroke="#000000" stroke-width="0.2"></path>
                    <path id="Shape" stroke-opacity="0.171" stroke="#000000" stroke-width="0.2"></path>
                    <path id="Shape" stroke-opacity="0.171" stroke="#000000" stroke-width="0.2"></path>
                    <path id="Shape" stroke-opacity="0.078" stroke="#000000" stroke-width="0.2"></path>
                    <path id="Shape" stroke-opacity="0.078" stroke="#000000" stroke-width="0.2"></path>
                    <path id="Shape" stroke-opacity="0.078" stroke="#000000" stroke-width="0.2"></path>
                    <path id="Shape" stroke-opacity="0.078" stroke="#000000" stroke-width="0.2"></path>
                    <path id="Shape" stroke-opacity="0.078" stroke="#000000" stroke-width="0.2"></path>
                    <path id="Shape" stroke-opacity="0.078" stroke="#000000" stroke-width="0.2"></path>
                    <path id="Shape" stroke-opacity="0.078" stroke="#000000" stroke-width="0.2"></path>
                    <path id="Shape" stroke-opacity="0.078" stroke="#000000" stroke-width="0.2"></path>
                    <path id="Shape" stroke-opacity="0.078" stroke="#000000" stroke-width="0.2"></path>
                    <path id="Shape" stroke-opacity="0.078" stroke="#000000" stroke-width="0.2"></path>
                    <path id="Shape" stroke-opacity="0.078" stroke="#000000" stroke-width="0.2"></path>
                    <path id="Shape" stroke-opacity="0.078" stroke="#000000" stroke-width="0.2"></path>
                    <path id="Shape" stroke-opacity="0.078" stroke="#000000" stroke-width="0.2"></path>
                    <path id="Shape" stroke-opacity="0.078" stroke="#000000" stroke-width="0.2"></path>
                    <path id="Shape" stroke-opacity="0.078" stroke="#000000" stroke-width="0.2"></path>
                    <path id="Shape" stroke-opacity="0.078" stroke="#000000" stroke-width="0.2"></path>
                    <path id="Shape" stroke-opacity="0.078" stroke="#000000" stroke-width="0.2"></path>
                    <path id="Shape" stroke-opacity="0.078" stroke="#000000" stroke-width="0.2"></path>
                    <path id="Shape" stroke-opacity="0.078" stroke="#000000" stroke-width="0.2"></path>
                    <path id="Shape" stroke-opacity="0.078" stroke="#000000" stroke-width="0.2"></path>
                    <path id="Shape" stroke-opacity="0.134" stroke="#000000" stroke-width="0.2" fill-opacity="0.867" fill="#00699D" transform="translate(65.733059, 27.100000) scale(-1, 1) translate(-65.733059, -27.100000) "></path>
                    <path id="Shape" stroke-opacity="0.134" stroke="#000000" stroke-width="0.2" fill-opacity="0.867" fill="#00699D" transform="translate(65.856304, 27.100000) scale(-1, 1) translate(-65.856304, -27.100000) "></path>
                    <path id="Shape" stroke-opacity="0.134" stroke="#000000" stroke-width="0.2" fill-opacity="0.867" fill="#00699D" transform="translate(65.937925, 28.100000) scale(-1, 1) translate(-65.937925, -28.100000) "></path>
                    <path id="Shape" stroke-opacity="0.134" stroke="#000000" stroke-width="0.2" fill-opacity="0.867" fill="#00699D" transform="translate(66.096911, 28.100000) scale(-1, 1) translate(-66.096911, -28.100000) "></path>
                    <path id="Shape" stroke-opacity="0.134" stroke="#000000" stroke-width="0.2" fill-opacity="0.867" fill="#00699D" transform="translate(66.185525, 28.100000) scale(-1, 1) translate(-66.185525, -28.100000) "></path>
                    <path id="Shape" stroke-opacity="0.134" stroke="#000000" stroke-width="0.2" fill-opacity="0.867" fill="#00699D" transform="translate(66.204888, 29.100000) scale(-1, 1) translate(-66.204888, -29.100000) "></path>
                    <path id="Shape" stroke-opacity="0.134" stroke="#000000" stroke-width="0.2" fill-opacity="0.867" fill="#00699D" transform="translate(66.290721, 29.100000) scale(-1, 1) translate(-66.290721, -29.100000) "></path>
                    <path id="Shape" stroke-opacity="0.134" stroke="#000000" stroke-width="0.2" fill-opacity="0.867" fill="#00699D" transform="translate(66.243936, 29.100000) scale(-1, 1) translate(-66.243936, -29.100000) "></path>
                    <path id="Shape" stroke-opacity="0.134" stroke="#000000" stroke-width="0.2" fill-opacity="0.867" fill="#00699D" transform="translate(66.256829, 30.100000) scale(-1, 1) translate(-66.256829, -30.100000) "></path>
                    <path id="Shape" stroke-opacity="0.134" stroke="#000000" stroke-width="0.2" fill-opacity="0.867" fill="#00699D" transform="translate(66.165561, 30.100000) scale(-1, 1) translate(-66.165561, -30.100000) "></path>
                    <path id="Shape" stroke-opacity="0.134" stroke="#000000" stroke-width="0.2" fill-opacity="0.867" fill="#00699D" transform="translate(66.179820, 30.100000) scale(-1, 1) translate(-66.179820, -30.100000) "></path>
                    <path id="Shape" stroke-opacity="0.063" stroke="#000000" stroke-width="0.2" fill-opacity="0.867" fill="#00699D" transform="translate(66.161826, 31.100000) scale(-1, 1) translate(-66.161826, -31.100000) "></path>
                    <path id="Shape" stroke-opacity="0.063" stroke="#000000" stroke-width="0.2" fill-opacity="0.867" fill="#00699D" transform="translate(66.038581, 31.100000) scale(-1, 1) translate(-66.038581, -31.100000) "></path>
                    <path id="Shape" stroke-opacity="0.063" stroke="#000000" stroke-width="0.2" fill-opacity="0.867" fill="#00699D" transform="translate(66.020711, 31.100000) scale(-1, 1) translate(-66.020711, -31.100000) "></path>
                    <path id="Shape" stroke-opacity="0.063" stroke="#000000" stroke-width="0.2" fill-opacity="0.867" fill="#00699D" transform="translate(65.809839, 32.100000) scale(-1, 1) translate(-65.809839, -32.100000) "></path>
                    <path id="Shape" stroke-opacity="0.063" stroke="#000000" stroke-width="0.2" fill-opacity="0.867" fill="#00699D" transform="translate(65.598967, 32.100000) scale(-1, 1) translate(-65.598967, -32.100000) "></path>
                    <path id="Shape" stroke-opacity="0.063" stroke="#000000" stroke-width="0.2" fill-opacity="0.867" fill="#00699D" transform="translate(65.404117, 32.100000) scale(-1, 1) translate(-65.404117, -32.100000) "></path>
                    <path id="Shape" stroke-opacity="0.063" stroke="#000000" stroke-width="0.2" fill-opacity="0.867" fill="#00699D" transform="translate(65.175251, 33.100000) scale(-1, 1) translate(-65.175251, -33.100000) "></path>
                    <path id="Shape" stroke-opacity="0.063" stroke="#000000" stroke-width="0.2" fill-opacity="0.867" fill="#00699D" transform="translate(65.018113, 33.100000) scale(-1, 1) translate(-65.018113, -33.100000) "></path>
                    <path id="Shape" stroke-opacity="0.063" stroke="#000000" stroke-width="0.2" fill-opacity="0.867" fill="#00699D" transform="translate(64.682025, 34.100000) scale(-1, 1) translate(-64.682025, -34.100000) "></path>
                    <path id="Shape" stroke-opacity="0.063" stroke="#000000" stroke-width="0.2" fill-opacity="0.867" fill="#00699D" transform="translate(64.388709, 34.100000) scale(-1, 1) translate(-64.388709, -34.100000) "></path>
                    <path id="Shape" stroke-opacity="0.063" stroke="#000000" stroke-width="0.2" transform="translate(66.161826, 31.100000) scale(-1, 1) translate(-66.161826, -31.100000) "></path>
                    <path id="Shape" stroke-opacity="0.063" stroke="#000000" stroke-width="0.2" transform="translate(66.038581, 31.100000) scale(-1, 1) translate(-66.038581, -31.100000) "></path>
                    <path id="Shape" stroke-opacity="0.063" stroke="#000000" stroke-width="0.2" transform="translate(66.020711, 31.100000) scale(-1, 1) translate(-66.020711, -31.100000) "></path>
                    <path id="Shape" stroke-opacity="0.063" stroke="#000000" stroke-width="0.2" transform="translate(65.809839, 32.100000) scale(-1, 1) translate(-65.809839, -32.100000) "></path>
                    <path id="Shape" stroke-opacity="0.063" stroke="#000000" stroke-width="0.2" transform="translate(65.598967, 32.100000) scale(-1, 1) translate(-65.598967, -32.100000) "></path>
                    <path id="Shape" stroke-opacity="0.063" stroke="#000000" stroke-width="0.2" transform="translate(65.404117, 32.100000) scale(-1, 1) translate(-65.404117, -32.100000) "></path>
                    <path id="Shape" stroke-opacity="0.063" stroke="#000000" stroke-width="0.2" transform="translate(65.175251, 33.100000) scale(-1, 1) translate(-65.175251, -33.100000) "></path>
                    <path id="Shape" stroke-opacity="0.063" stroke="#000000" stroke-width="0.2" transform="translate(65.018113, 33.100000) scale(-1, 1) translate(-65.018113, -33.100000) "></path>
                    <path id="Shape" stroke-opacity="0.063" stroke="#000000" stroke-width="0.2" transform="translate(64.682025, 34.100000) scale(-1, 1) translate(-64.682025, -34.100000) "></path>
                    <path id="Shape" stroke-opacity="0.063" stroke="#000000" stroke-width="0.2" transform="translate(64.388709, 34.100000) scale(-1, 1) translate(-64.388709, -34.100000) "></path>
                    <path d="M61.7523266,29.0347265 C62.9304258,28.2425862 64.4864561,28.6558768 65.1386769,29.0863878 C64.1852385,28.896963 64.1686433,28.8108608 63.4782224,28.7936403 C62.9905441,28.8110248 62.2727255,28.7591994 61.7523266,29.0347265 L61.7523266,29.0347265 Z" id="Shape" stroke-opacity="0.387" stroke="#000000" stroke-width="0.2" fill="#F0BF00" transform="translate(63.445502, 28.836388) scale(-1, 1) translate(-63.445502, -28.836388) "></path>
                    <path d="M64.45019,28.8851102 C63.8748393,30.06211 62.8720851,30.0782333 62.1653821,28.820617" id="Shape" stroke-opacity="0.387" stroke="#000000" stroke-width="0.2"></path>
                    <path d="M64.1405226,29.2561746 C63.9642824,29.4370478 63.5329251,29.5443243 63.1773635,29.4961746 C62.8218019,29.4480249 62.6761264,29.2624116 62.8523666,29.0815385 C63.0286069,28.9006653 63.4597176,28.7933888 63.8155257,28.8415385 C64.1713339,28.8896881 64.3167629,29.0755509 64.1405226,29.2562994 L64.1405226,29.2561746 Z" id="Shape" fill-opacity="0.368" fill="#000000"></path>
                    <path d="M63.4811818,29.0761734 C63.5091468,29.1925208 63.4224945,29.34721 63.2871988,29.4215798 C63.151903,29.4959496 63.0197583,29.4612437 62.9917932,29.3448963 C62.9634343,29.2292099 63.0502835,29.0738597 63.1853823,28.9998204 C63.3204811,28.9257812 63.4532167,28.9601566 63.4813787,29.076504 L63.4811818,29.0761734 Z" id="Shape" fill="#FFD700"></path>
                </g>
            </g>
        </g>
    </g>
</svg>