<?xml version="1.0" encoding="UTF-8" standalone="no"?>
<svg width="122px" height="60px" viewBox="0 0 122 60" version="1.1" xmlns="http://www.w3.org/2000/svg" xmlns:xlink="http://www.w3.org/1999/xlink">
    <!-- Generator: Sketch 3.8.2 (29753) - http://www.bohemiancoding.com/sketch -->
    <title>cy</title>
    <desc>Created with Sketch.</desc>
    <defs></defs>
    <g id="Page-1" stroke="none" stroke-width="1" fill="none" fill-rule="evenodd">
        <g id="cy">
            <g id="Group">
                <g>
                    <polygon id="Shape" fill="#FFFFFF" points="0 0 122 0 122 60 0 60"></polygon>
                    <path d="M59.5174319,49.825 C59.5042415,49.8193683 59.4923888,49.8110199 59.4826481,49.8005 L59.4701359,49.78875 C59.4376043,49.759125 59.3840523,49.706625 59.3118571,49.6245 C59.1784775,49.47325 58.9996787,49.25175 58.8424009,49.056 C58.5305979,48.66775 58.2730976,48.33325 58.2243002,48.27025 L58.1449731,48.167 L57.3677178,47.9275 L56.8000411,47.663125 L57.103461,47.3225 L58.1452234,47.768125 L58.9228541,47.9275 L60.3605012,48.98375 L60.35925,48.98475 C60.3564973,48.98725 60.1502969,49.1585 59.9453478,49.34475 C59.854009,49.427625 59.7388971,49.53425 59.6575681,49.623 C59.6200316,49.66375 59.5868744,49.70425 59.5643525,49.737 C59.5505891,49.757 59.5428316,49.77525 59.5390779,49.784125 L59.6284148,49.728625 L59.7251338,49.803625 L59.5281924,49.822 L59.5191836,49.824 L59.5174319,49.825 Z M54.1782432,48.223 C53.4998339,48.223 52.8298078,48.0355 52.1868079,47.66625 L52.1860571,47.665875 L52.1863074,47.665125 C52.1863074,47.665125 52.2703891,47.505125 52.4743373,47.35575 C52.6686511,47.21325 53.0191167,47.042875 53.5854171,47.04075 L53.5971785,47.04075 C54.2678303,47.04075 55.0886279,47.2685 56.0367994,47.71775 C56.0047682,47.739 55.260545,48.223375 54.1784934,48.223375 L54.1794944,48.224375 L54.1782432,48.223 Z M51.2383862,47.572 C51.1130143,47.572 51.0002798,47.5245 50.9210778,47.43875 C50.8560146,47.368125 50.8097196,47.274125 50.7786894,47.150875 C50.7282654,46.949125 50.7421539,46.748375 50.7436554,46.72925 C50.7931393,46.7078436 50.8461728,46.6958061 50.9000574,46.69375 L50.9113183,46.6935 C51.1625625,46.6935 51.3605049,46.911375 51.4455875,47.12725 C51.4936342,47.25 51.5028932,47.353125 51.4728641,47.434 C51.4428349,47.515 51.3487434,47.571 51.2386364,47.571 L51.2383862,47.572 Z M56.4114134,46.973 C54.6738498,46.725125 53.937259,46.0975 53.625456,45.61475 C53.2926325,45.09975 53.3610741,44.6235 53.3616997,44.61875 L53.3619499,44.61725 L53.3632011,44.616875 C53.3638267,44.616875 53.4695545,44.588375 53.6293348,44.587625 C54.0917842,44.587625 55.2740581,44.820125 56.412039,46.972 L56.4127898,46.97325 L56.4107878,46.972375 L56.4114134,46.973 Z M52.8499523,46.629 C52.1076059,46.629 51.5424317,46.501 51.1700698,46.248625 C50.9561119,46.103625 50.8513851,45.944125 50.8012113,45.836125 C50.7708684,45.7721566 50.7507709,45.7038239 50.7416535,45.633625 C50.7612975,45.624625 51.0652179,45.489875 51.5189088,45.468625 C51.5573211,45.466875 51.5959837,45.46575 51.6365231,45.465625 C52.2102056,45.465625 53.0826785,45.652625 54.0033232,46.543625 L54.0041991,46.5445 L54.0029478,46.5445 C53.5825393,46.5995 53.194287,46.628625 52.8489514,46.628625 L52.8499523,46.629 Z M49.2554591,46.491 C48.4726984,46.491 47.3974035,46.25225 46.7267517,45.58225 L46.726001,45.5815 L46.7280029,45.581 C46.7350097,45.57925 47.462842,45.39475 48.2817629,45.37475 C48.3305603,45.3735 48.3797331,45.373 48.4294064,45.373 C49.1633696,45.373 49.7250405,45.515125 50.0992792,45.7955 C50.2299061,45.893375 50.3012254,45.9845 50.317241,46.07375 C50.330629,46.148375 50.2912157,46.22875 50.2115133,46.28875 C50.0430996,46.415875 49.7419319,46.48375 49.3161431,46.4905 L49.2560848,46.4925 L49.2554591,46.491 Z M46.7189942,45.191 C46.622951,45.1912134 46.5318804,45.1483605 46.470878,45.07425 C46.4200787,45.013 46.3847944,44.93275 46.3597701,44.822125 C46.3179795,44.637125 46.3306167,44.4565 46.3307419,44.454625 L46.3307419,44.452875 C46.3690211,44.435379 46.4105199,44.4260147 46.4526103,44.425375 L46.4528605,44.425375 C46.5687231,44.425375 46.6568087,44.488375 46.7118622,44.54125 C46.7876675,44.6154038 46.8455257,44.7058691 46.8810266,44.80575 C46.9175621,44.90875 46.923568,44.994875 46.8990441,45.06925 C46.8790247,45.12825 46.8109585,45.19025 46.718869,45.19025 L46.7189942,45.191 Z M52.5776877,45.059 C52.4523159,45.059 52.3395813,45.0115 52.2603794,44.92575 C52.1953161,44.855125 52.1490212,44.761125 52.117991,44.637875 C52.067567,44.436125 52.0814555,44.235375 52.082957,44.21625 C52.1324408,44.1948436 52.1854744,44.1828061 52.2393589,44.18075 L52.2506199,44.1805 C52.5018641,44.1805 52.6998064,44.398375 52.7848891,44.61425 C52.8329358,44.737 52.8421948,44.840125 52.8121656,44.921 C52.7821364,45.003 52.687044,45.058 52.577938,45.058 L52.5776877,45.059 Z M49.7239144,44.941 C48.1486335,44.885625 47.3312141,44.43825 46.9228172,44.07275 C46.6929689,43.866875 46.5652197,43.66275 46.498655,43.528 C46.4355938,43.4005 46.4118206,43.303 46.4075665,43.28425 L46.4096936,43.283375 C46.4096936,43.283375 46.5585883,43.230125 46.7984464,43.225375 L46.8353572,43.225 C47.3664984,43.225 48.4479244,43.448 49.7231637,44.940375 L49.7231637,44.941375 L49.7239144,44.941 Z M51.4345768,44.782 C50.1670951,44.58925 49.4492725,44.04575 49.0700289,43.6235 C48.6726428,43.181 48.553527,42.768875 48.5482719,42.74975 C48.5505241,42.749 48.7054246,42.70875 48.9386513,42.70275 C48.9745946,42.7016627 49.0105627,42.7016627 49.0465061,42.70275 C49.6838755,42.71675 50.8416256,43.00525 51.4343266,44.78125 L51.4353276,44.78125 L51.4345768,44.782 Z M44.9282539,44.174 C44.5128502,44.174 44.1099587,44.126 43.7308402,44.03125 C43.0673204,43.8655 42.7826688,43.6125 42.6608003,43.42925 C42.591483,43.32525 42.5663335,43.234 42.557575,43.17575 C42.55202,43.1402738 42.550969,43.1042391 42.554447,43.0685 L42.557575,43.06725 C42.5592016,43.067 42.998003,42.943875 43.6048428,42.93475 C43.9167833,42.9291136 44.2284345,42.9567704 44.5344962,43.01725 C45.5892713,43.227625 46.1363029,44.023 46.1416831,44.031 L46.1421836,44.031875 L46.1409324,44.032125 C46.1346763,44.033125 45.6323131,44.174125 44.9276283,44.174125 L44.9282539,44.174 Z M47.8701128,43.106 C47.7431144,43.106 47.6303799,43.05975 47.5525542,42.975625 C47.4887422,42.9065 47.4420719,42.81125 47.4104161,42.68475 C47.359867,42.48325 47.3738806,42.28475 47.3753821,42.26625 C47.4248742,42.2448865 47.4779074,42.2328915 47.531784,42.230875 L47.543045,42.230625 C47.7937887,42.230625 47.9922315,42.4485 48.0773142,42.664375 C48.1241097,42.783125 48.1323677,42.88525 48.1015878,42.967875 C48.0705576,43.051875 47.9794691,43.105875 47.8703631,43.105875 L47.8701128,43.106 Z M45.657963,42.803 C45.6484538,42.80075 45.0596316,42.64925 44.4600489,42.2805 C43.9051346,41.93925 43.22635,41.3355 43.1435195,40.3975 L43.1435195,40.397 L43.1447707,40.396625 C43.1450209,40.396625 43.196571,40.384125 43.2728952,40.38125 C43.2834054,40.380875 43.2945412,40.380625 43.3063027,40.380625 C43.4720888,40.380625 43.8114185,40.42725 44.2218174,40.739 C44.7443251,41.137 45.226794,41.831 45.6582133,42.804 L45.657963,42.803 Z M47.1023667,42.75 C47.0986131,42.7485 46.6790804,42.58075 46.1545706,42.141625 C45.6659708,41.732375 44.9789281,40.995625 44.4814447,39.808625 C44.4816949,39.808375 44.5958058,39.747625 44.7704756,39.736625 C44.7806379,39.7359584 44.7908214,39.7356666 44.8010052,39.73575 C44.8160198,39.73575 44.8315349,39.73625 44.8473002,39.736625 C45.0887849,39.7435 45.4561419,39.843625 45.8636629,40.282875 C46.3316177,40.787625 46.7495238,41.617 47.1052445,42.748125 L47.1062455,42.75125 L47.1032426,42.750375 L47.1023667,42.75 Z M43.3597296,42.641 C42.8771356,42.641 42.7119751,42.3795 42.6633028,42.267 C42.5834752,42.082 42.6077488,41.89825 42.6078739,41.89625 L42.6081241,41.89425 C42.6867487,41.8747239 42.7673496,41.8642392 42.8483576,41.863 L42.8646234,41.86275 C43.2449931,41.86275 43.5452849,42.05575 43.6739099,42.246875 C43.6994347,42.28475 43.7777608,42.41625 43.7129478,42.519 C43.6608973,42.6 43.5427825,42.641 43.3596045,42.641 L43.3597296,42.641 Z M42.2906907,41.294 C42.0211787,41.294 41.608778,41.2775 41.1754819,41.19875 C40.7456892,41.12075 40.5020775,40.755625 40.3734525,40.46325 C40.2333163,40.14475 40.193903,39.84075 40.1932774,39.83775 L40.1945286,39.83775 C41.5241958,39.87675 42.1520559,40.264875 42.4447153,40.5835 C42.746884,40.9125 42.7647764,41.254125 42.7657774,41.27575 L42.7649015,41.27575 C42.7627744,41.27575 42.5755925,41.29375 42.2903153,41.29375 L42.2906907,41.294 Z M43.675036,39.912 C43.5670411,39.7760926 43.4657393,39.6350086 43.371491,39.48925 C43.2138378,39.24475 43.0683214,38.989625 43.0683214,38.78075 C43.0683214,38.57925 43.0207752,38.15425 42.9926228,37.918875 C42.9567129,37.6205 42.9205528,37.365125 42.9175499,37.343375 L42.9188011,37.34375 C42.9525839,37.355875 43.7503592,37.655 43.7503592,38.4025 C43.7503592,39.151625 43.6765375,39.904125 43.6757867,39.911625 L43.6757867,39.912875 L43.6747857,39.912875 L43.675036,39.912 Z M42.6410311,39.841 C42.632648,39.841 42.6242648,39.84025 42.6160068,39.838875 C42.3801526,39.79975 41.9657499,39.619625 41.5076797,39.35725 C40.9989353,39.066 40.5857838,38.7535 40.3445494,38.478125 C40.1243354,38.226875 39.9938335,37.832375 39.9561719,37.305625 C39.9293959,36.931625 39.961427,36.620125 39.9649304,36.589375 C40.0062206,36.575625 40.0500131,36.568875 40.0963081,36.568875 C40.2729798,36.57175 40.4616632,36.651125 40.7159103,36.826375 C40.914228,36.962625 41.1328154,37.148375 41.3655416,37.377625 C41.7671819,37.773375 42.0831139,38.170875 42.086242,38.17475 L42.08937,38.17875 C42.1160209,38.22625 42.3433669,38.63575 42.5206642,39.034375 C42.6332736,39.287625 42.697461,39.470125 42.7233611,39.609 C42.7380004,39.688125 42.7421294,39.74 42.7228607,39.787125 C42.7154078,39.8059408 42.7018334,39.8217035 42.6843232,39.831875 C42.6704335,39.8379179 42.6554297,39.8409839 42.6402804,39.840875 L42.6410311,39.841 Z" id="a" fill="#435125"></path>
                    <g id="a-link" transform="translate(66.124212, 43.270428) scale(-1, 1) translate(-66.124212, -43.270428) translate(55.851838, 36.500000)" fill="#435125">
                        <path d="M19.624071,13.325 C19.6108806,13.3193683 19.5990279,13.3110199 19.5892872,13.3005 L19.576775,13.28875 C19.5442434,13.259125 19.4906914,13.206625 19.4184962,13.1245 C19.2851166,12.97325 19.1063179,12.75175 18.94904,12.556 C18.637237,12.16775 18.3797367,11.83325 18.3309393,11.77025 L18.2516122,11.667 L17.4743569,11.4275 L16.9066802,11.163125 L17.2101001,10.8225 L18.2518625,11.268125 L19.0294932,11.4275 L20.4671403,12.48375 L20.4658891,12.48475 C20.4631364,12.48725 20.256936,12.6585 20.0519869,12.84475 C19.9606481,12.927625 19.8455362,13.03425 19.7642072,13.123 C19.7266707,13.16375 19.6935135,13.20425 19.6709916,13.237 C19.6572282,13.257 19.6494707,13.27525 19.645717,13.284125 L19.7350539,13.228625 L19.8317729,13.303625 L19.6348315,13.322 L19.6258227,13.324 L19.624071,13.325 Z M14.2848823,11.723 C13.606473,11.723 12.9364469,11.5355 12.293447,11.16625 L12.2926963,11.165875 L12.2929465,11.165125 C12.2929465,11.165125 12.3770282,11.005125 12.5809764,10.85575 C12.7752902,10.71325 13.1257558,10.542875 13.6920562,10.54075 L13.7038176,10.54075 C14.3744694,10.54075 15.195267,10.7685 16.1434385,11.21775 C16.1114073,11.239 15.3671841,11.723375 14.2851325,11.723375 L14.2861335,11.724375 L14.2848823,11.723 Z M11.3450253,11.072 C11.2196535,11.072 11.1069189,11.0245 11.0277169,10.93875 C10.9626537,10.868125 10.9163587,10.774125 10.8853286,10.650875 C10.8349045,10.449125 10.848793,10.248375 10.8502945,10.22925 C10.8997784,10.2078436 10.9528119,10.1958061 11.0066965,10.19375 L11.0179574,10.1935 C11.2692016,10.1935 11.467144,10.411375 11.5522267,10.62725 C11.6002733,10.75 11.6095323,10.853125 11.5795032,10.934 C11.549474,11.015 11.4553825,11.071 11.3452755,11.071 L11.3450253,11.072 Z M16.5180525,10.473 C14.7804889,10.225125 14.0438981,9.5975 13.7320951,9.11475 C13.3992716,8.59975 13.4677132,8.1235 13.4683388,8.11875 L13.468589,8.11725 L13.4698402,8.116875 C13.4704658,8.116875 13.5761936,8.088375 13.7359739,8.087625 C14.1984233,8.087625 15.3806972,8.320125 16.5186781,10.472 L16.5194289,10.47325 L16.5174269,10.472375 L16.5180525,10.473 Z M12.9565914,10.129 C12.214245,10.129 11.6490708,10.001 11.2767089,9.748625 C11.062751,9.603625 10.9580242,9.444125 10.9078504,9.336125 C10.8775075,9.27215661 10.85741,9.20382394 10.8482926,9.133625 C10.8679366,9.124625 11.171857,8.989875 11.6255479,8.968625 C11.6639602,8.966875 11.7026228,8.96575 11.7431622,8.965625 C12.3168447,8.965625 13.1893176,9.152625 14.1099623,10.043625 L14.1108382,10.0445 L14.1095869,10.0445 C13.6891784,10.0995 13.3009261,10.128625 12.9555905,10.128625 L12.9565914,10.129 Z M9.36209825,9.991 C8.57933755,9.991 7.50404256,9.75225 6.83339081,9.08225 L6.83264008,9.0815 L6.83464202,9.081 C6.84164883,9.07925 7.56948115,8.89475 8.38840199,8.87475 C8.43719942,8.8735 8.4863722,8.873 8.53604548,8.873 C9.27000875,8.873 9.8316796,9.015125 10.2059183,9.2955 C10.3365452,9.393375 10.4078645,9.4845 10.4238801,9.57375 C10.4372681,9.648375 10.3978548,9.72875 10.3181524,9.78875 C10.1497387,9.915875 9.84857101,9.98375 9.42278222,9.9905 L9.36272386,9.9925 L9.36209825,9.991 Z M6.82563327,8.691 C6.72959008,8.69121336 6.63851949,8.64836048 6.57751714,8.57425 C6.52671778,8.513 6.49143349,8.43275 6.46640917,8.322125 C6.42461856,8.137125 6.43725584,7.9565 6.43738096,7.954625 L6.43738096,7.952875 C6.47566022,7.935379 6.51715904,7.92601466 6.55924939,7.925375 L6.55949964,7.925375 C6.67536223,7.925375 6.76344784,7.988375 6.81850134,8.04125 C6.89430656,8.11540385 6.95216479,8.20586911 6.98766573,8.30575 C7.02420124,8.40875 7.03020708,8.494875 7.00568324,8.56925 C6.98566379,8.62825 6.91759764,8.69025 6.82550815,8.69025 L6.82563327,8.691 Z M12.6843268,8.559 C12.558955,8.559 12.4462205,8.5115 12.3670185,8.42575 C12.3019553,8.355125 12.2556603,8.261125 12.2246301,8.137875 C12.1742061,7.936125 12.1880946,7.735375 12.1895961,7.71625 C12.23908,7.69484356 12.2921135,7.68280606 12.3459981,7.68075 L12.357259,7.6805 C12.6085032,7.6805 12.8064455,7.898375 12.8915282,8.11425 C12.9395749,8.237 12.9488339,8.340125 12.9188047,8.421 C12.8887755,8.503 12.7936831,8.558 12.6845771,8.558 L12.6843268,8.559 Z M9.8305535,8.441 C8.25527262,8.385625 7.43785323,7.93825 7.02945635,7.57275 C6.79960798,7.366875 6.67185883,7.16275 6.60529414,7.028 C6.54223286,6.9005 6.51845975,6.803 6.51420562,6.78425 L6.51633268,6.783375 C6.51633268,6.783375 6.66522738,6.730125 6.90508548,6.725375 L6.94199635,6.725 C7.47313752,6.725 8.55456347,6.948 9.82980277,8.440375 L9.82980277,8.441375 L9.8305535,8.441 Z M11.541216,8.282 C10.2737342,8.08925 9.5559116,7.54575 9.17666804,7.1235 C8.77928186,6.681 8.6601661,6.268875 8.65491099,6.24975 C8.65716318,6.249 8.81206372,6.20875 9.04529037,6.20275 C9.08123374,6.20166267 9.11720182,6.20166267 9.15314518,6.20275 C9.79051459,6.21675 10.9482647,6.50525 11.5409657,8.28125 L11.5419667,8.28125 L11.541216,8.282 Z M5.034893,7.674 C4.6194893,7.674 4.21659776,7.626 3.83747933,7.53125 C3.17395951,7.3655 2.88930788,7.1125 2.76743945,6.92925 C2.69812208,6.82525 2.67297264,6.734 2.66421413,6.67575 C2.6586591,6.64027384 2.65760811,6.6042391 2.66108609,6.5685 L2.66421413,6.56725 C2.66584071,6.567 3.10464214,6.443875 3.71148188,6.43475 C4.02342237,6.42911362 4.33507358,6.45677041 4.64113534,6.51725 C5.69591038,6.727625 6.242942,7.523 6.24832223,7.531 L6.24882271,7.531875 L6.2475715,7.532125 C6.24131542,7.533125 5.73895221,7.674125 5.03426739,7.674125 L5.034893,7.674 Z M7.97675195,6.606 C7.84975353,6.606 7.73701897,6.55975 7.65919334,6.475625 C7.59538132,6.4065 7.54871097,6.31125 7.5170552,6.18475 C7.46650608,5.98325 7.4805197,5.78475 7.48202116,5.76625 C7.53151334,5.74488653 7.58454655,5.73289148 7.63842315,5.730875 L7.6496841,5.730625 C7.90042777,5.730625 8.09887062,5.9485 8.18395331,6.164375 C8.23074878,6.283125 8.23900681,6.38525 8.2082269,6.467875 C8.17719674,6.551875 8.08610822,6.605875 7.97700219,6.605875 L7.97675195,6.606 Z M5.76460214,6.303 C5.7550929,6.30075 5.16627067,6.14925 4.56668799,5.7805 C4.01177371,5.43925 3.33298906,4.8355 3.25015856,3.8975 L3.25015856,3.897 L3.25140978,3.896625 C3.25166002,3.896625 3.30321012,3.884125 3.37953429,3.88125 C3.3900445,3.880875 3.40118033,3.880625 3.41294176,3.880625 C3.57872787,3.880625 3.91805764,3.92725 4.32845647,4.239 C4.85096425,4.637 5.33343312,5.331 5.76485238,6.304 L5.76460214,6.303 Z M7.20900584,6.25 C7.20525219,6.2485 6.78571948,6.08075 6.26120975,5.641625 C5.77260992,5.232375 5.08556724,4.495625 4.58808378,3.308625 C4.58833402,3.308375 4.70244492,3.247625 4.87711466,3.236625 C4.88727699,3.23595843 4.89746047,3.23566656 4.90764433,3.23575 C4.92265893,3.23575 4.938174,3.23625 4.95393932,3.236625 C5.195424,3.2435 5.56278101,3.343625 5.97030204,3.782875 C6.43825681,4.287625 6.85616294,5.117 7.21188363,6.248125 L7.21288461,6.25125 L7.20988169,6.250375 L7.20900584,6.25 Z M3.46636868,6.141 C2.98377468,6.141 2.81861418,5.8795 2.76994188,5.767 C2.6901143,5.582 2.71438789,5.39825 2.71451301,5.39625 L2.71476325,5.39425 C2.79338785,5.37472388 2.8739887,5.36423918 2.95499672,5.363 L2.97126252,5.36275 C3.35163217,5.36275 3.651924,5.55575 3.780549,5.746875 C3.80607381,5.78475 3.88439993,5.91625 3.81958694,6.019 C3.76753636,6.1 3.64942157,6.141 3.46624356,6.141 L3.46636868,6.141 Z M2.39732977,4.794 C2.12781785,4.794 1.71541707,4.7775 1.28212099,4.69875 C0.852328307,4.62075 0.608716561,4.255625 0.480091561,3.96325 C0.339955375,3.64475 0.300542072,3.34075 0.299916464,3.33775 L0.30116768,3.33775 C1.63083487,3.37675 2.25869504,3.764875 2.55135445,4.0835 C2.8535231,4.4125 2.87141549,4.754125 2.87241646,4.77575 L2.87154061,4.77575 C2.86941355,4.77575 2.68223164,4.79375 2.3969544,4.79375 L2.39732977,4.794 Z M3.7816751,3.412 C3.67368019,3.2760926 3.5723784,3.13500863 3.47813011,2.98925 C3.3204769,2.74475 3.17496048,2.489625 3.17496048,2.28075 C3.17496048,2.07925 3.12741428,1.65425 3.09926192,1.418875 C3.06335202,1.1205 3.02719188,0.865125 3.02418896,0.843375 L3.02544018,0.84375 C3.05922301,0.855875 3.8569983,1.155 3.8569983,1.9025 C3.8569983,2.651625 3.78317656,3.404125 3.78242583,3.411625 L3.78242583,3.412875 L3.78142485,3.412875 L3.7816751,3.412 Z M2.74767023,3.341 C2.73928709,3.341 2.73090394,3.34025 2.72264591,3.338875 C2.48679171,3.29975 2.07238898,3.119625 1.61431882,2.85725 C1.10557442,2.566 0.692422909,2.2535 0.451188473,1.978125 C0.230974465,1.726875 0.100472641,1.332375 0.0628110409,0.805625 C0.0360350195,0.431625 0.0680661479,0.120125 0.0715695525,0.089375 C0.112859679,0.075625 0.156652237,0.068875 0.202947228,0.068875 C0.37961892,0.07175 0.568302286,0.151125 0.822549368,0.326375 C1.0208671,0.462625 1.23945452,0.648375 1.47218069,0.877625 C1.87382101,1.273375 2.18975304,1.670875 2.19288108,1.67475 L2.19600912,1.67875 C2.22266002,1.72625 2.45000596,2.13575 2.62730326,2.534375 C2.73991269,2.787625 2.80410007,2.970125 2.83000024,3.109 C2.84463947,3.188125 2.84876848,3.24 2.82949976,3.287125 C2.82204687,3.30594081 2.80847252,3.32170345 2.79096231,3.331875 C2.77707258,3.33791794 2.76206879,3.34098391 2.7469195,3.340875 L2.74767023,3.341 Z" id="a"></path>
                    </g>
                    <path d="M85.9461158,9.5475 L85.7103867,9.64125 L85.6180469,9.67825 L85.3322692,9.6625 L85.0647592,9.79075 L84.5902982,10.11475 L84.5694028,10.12975 L84.392606,10.17575 L84.2283214,10.105 L84.1351058,10.1475 L84.1028244,10.339375 L84.0139881,10.47725 L83.9047569,10.554 L83.5258887,10.59275 L83.2065784,10.75725 L82.7911747,10.646 L82.5982372,10.721625 L82.1878384,11.09075 L81.9782597,11.19 L81.9049385,11.18575 L81.6269183,11.1715 L81.509304,11.209875 L81.3341338,11.379125 L81.0023113,11.404875 L80.8988357,11.476375 L80.7369284,11.802375 L80.5615079,11.983125 L80.4610353,12.004375 L80.3521795,11.964625 L80.2704751,11.979 L80.2334391,12.18775 L80.154112,12.275 L79.931896,12.3515 L79.7544736,12.49925 L79.5986972,12.57925 L79.3901195,12.573875 L79.342198,12.573875 L79.1344961,12.688625 L78.7434911,12.722875 L78.580833,12.877875 L78.5450483,12.910875 L78.4692246,12.956625 L78.345104,13.030625 L78.3146994,13.049 L78.165054,13.0225 L77.9898838,13.09175 L77.9189398,12.983 L77.7978221,13.0555 L77.637166,13.0625 L77.4372217,12.9735 L77.2848236,12.90575 L77.1734653,12.922 L77.1346777,13.11575 L77.130924,13.1365 L77.0136851,13.292125 L76.7950976,13.424625 L76.7653187,13.463125 L76.516577,13.784 L76.0439927,14.2805 L75.6442292,14.483375 L75.2300767,14.60925 L74.9400449,14.84725 L74.1793056,15.224 L72.9787639,15.820625 L72.7332753,15.899375 L72.3809329,15.955625 L71.752322,16.186625 L71.1980333,16.353875 L71.1671283,16.36325 L71.0572715,16.3965 L70.2755118,16.63275 L69.9116582,16.59425 L69.6961988,16.6725 L69.1351536,16.61025 L68.7450244,16.618 L68.4980344,16.66925 L68.0338333,16.89175 L67.2505721,17.268 L66.9915704,17.5045 L66.5886789,17.7145 L66.1165951,17.863875 L66.1178463,17.665625 L66.1148434,17.65725 L65.9513095,17.708875 L65.8330696,17.746375 L65.4501975,17.805125 L65.2371154,17.805125 L65.104987,17.766875 L65.0843419,17.77375 L64.3018315,18.03125 L63.4292335,18.115375 L62.9925591,18.255375 L62.6659917,18.250125 L62.4620435,18.310875 L62.06228,18.359625 L61.9196414,18.321625 L61.8871098,18.312875 L60.7109668,18.363875 L60.1733193,18.303125 L59.91682,18.361375 L59.486652,18.216875 L58.8591672,18.144375 L58.7125247,18.100375 L58.3827042,18.0025 L58.2334341,18.08825 L58.1217005,18.10025 L57.854691,18.0035 L57.7585976,18.001 L57.5381334,18.080625 L57.4113852,18.048125 L57.2935207,17.954375 L57.0170019,17.913125 L56.8488385,17.771875 L55.9076739,17.896375 L55.6524258,17.821375 L54.7960936,17.572375 L54.6597111,17.57925 L54.4901713,17.706375 L54.2349233,17.79925 L54.0137083,17.85675 L53.7121652,17.86725 L53.362075,17.775375 L53.0012243,17.600625 L52.8677196,17.568875 L52.5699302,17.598875 L52.4789668,17.60725 L51.9316849,17.314 L51.226875,16.87375 L50.7485351,16.644125 L50.5689857,16.615125 L50.5448372,16.7005 L50.6339238,16.981125 L50.6643283,17.258625 L50.6551944,17.514875 L50.6501896,17.673625 L50.694858,17.816125 L50.8675258,18.007375 L50.9397209,18.19925 L50.992272,18.727625 L50.9916464,19.263875 L50.9078149,20.118875 L50.8794123,20.249125 L50.7793151,20.692 L50.687726,21.098875 L50.3327561,22.182125 L50.2351612,22.3165 L49.9959287,22.4795 L49.4535266,22.84825 L49.0540134,23.07825 L48.9276406,23.13075 L48.6033254,23.155125 L48.4013791,23.1445 L48.1498847,23.00825 L47.9030198,22.944875 L47.5794554,22.712375 L47.2197308,22.638125 L46.8252224,22.410375 L46.7226227,22.287 L46.5077889,22.267 L46.2099995,22.1775 L46.2099995,22.176875 L46.1007684,22.144375 L46.0251949,22.12225 L45.6452006,22.11175 L45.2911065,21.94825 L45.1044251,21.90325 L44.8494273,21.890375 L44.5825429,22.014125 L44.5825429,22.013875 L44.4474116,22.077 L44.2763704,22.009125 L44.1527502,22.016875 L44.0126141,22.228375 L43.9918439,22.261125 L43.89525,22.312125 L43.7751333,22.3105 L43.6812921,22.308 L43.5794431,22.352375 L43.4425601,22.411625 L43.4425601,22.411875 L43.3216926,22.464625 L43.2626352,22.490125 L43.2616342,22.489125 L43.225349,22.496375 L43.1606611,22.507625 L43.0805833,22.522875 L42.9394461,22.440375 L42.8643732,22.39625 L42.738626,22.370625 L42.6708101,22.419375 L42.6575472,22.649625 L42.595612,22.787375 L42.3991711,22.960625 L42.1998524,23.136125 L42.0609674,23.340875 L41.6928597,24.179875 L41.4623857,24.518375 L41.3908161,24.597125 L41.1497068,24.862875 L40.9359991,25.0285 L40.4433954,25.40975 L39.9770672,25.584 L39.5754269,25.666 L39.379987,25.66675 L39.0101276,25.617625 L38.6773041,25.515625 L38.3119491,25.287375 L37.9115599,24.96575 L37.3314962,24.39325 L37.2494165,24.344125 L37.2322748,24.332875 L37.0495973,24.216 L36.9142157,24.219375 L36.8611642,24.306875 L36.8321359,24.433125 L36.8076121,24.545125 L36.7410474,25.18175 L36.7460523,25.218625 L36.7810863,25.481125 L37.2215143,26.096125 L37.3573964,26.42275 L37.379668,26.46 L37.4706314,26.6125 L37.5398237,26.72875 L37.5467054,26.74075 L37.6972267,27.1895 L37.5913738,27.442875 L37.6449258,27.612625 L37.5110457,27.716375 L37.486647,27.863 L37.8820312,28.35825 L37.9683652,28.57675 L37.8720215,28.879625 L37.718122,29.04675 L37.6753304,29.0925 L37.6971015,29.220375 L37.8790283,29.383875 L38.1880787,29.658875 L38.3532392,30.067625 L38.4783608,30.177125 L38.6242526,30.146125 L38.7053313,30.208 L38.8282008,30.205875 L38.9491933,30.326625 L39.0275195,30.3645 L39.1513898,30.426125 L39.2489847,30.553375 L39.2707558,30.944625 L39.453058,31.4305 L39.4559358,31.694 L39.4569368,31.7315 L39.5704221,31.92625 L39.6060817,32.08 L39.5455229,32.487 L39.6901634,32.617625 L39.8470659,32.5855 L39.9484144,32.6015 L40.1110725,32.737 L40.3082641,33.037 L40.5009514,33.008875 L40.6233203,33.067625 L41.2141445,33.601 L41.3480246,33.6685 L41.3555319,33.672875 L41.4518755,33.721125 L41.571742,33.842 L41.7575475,33.71875 L41.7781926,33.7165 L41.9801389,33.69875 L42.0689752,33.758375 L42.2393908,33.873375 L42.4629831,33.870375 L42.9478293,34.018875 L43.1600355,34.073375 L43.5864499,34.338125 L43.7678762,34.450125 L43.8751054,34.53725 L44.0174938,34.6535 L44.3022705,34.77575 L44.5465079,34.834125 L44.6788866,34.865375 L44.7784833,34.904125 L44.7809858,34.897875 L44.782237,34.898125 L44.7799848,34.904375 L45.3088738,35.106875 L45.595152,35.1735 L45.8604098,35.271 L46.053097,35.341375 L46.1947347,35.343625 L46.3949292,35.175375 L46.5888677,35.164125 L46.7497741,35.204375 L46.9069268,35.178125 L47.1556685,35.024875 L47.2042157,34.953 L47.3806372,34.86925 L47.9755903,34.7955 L48.1495094,34.85175 L48.5959432,34.65775 L48.8949838,34.741 L49.1598662,34.64725 L49.7383034,34.7755 L49.8922029,34.883625 L50.0639949,35.080125 L50.0850153,35.080875 L50.2764514,35.084625 L50.1963735,35.21775 L50.4491192,35.4825 L50.6772158,35.827 L50.6926058,35.8725 L50.858517,36.35875 L50.9817618,36.53125 L51.0680957,36.77175 L51.0722247,36.9285 L50.9380944,37.03075 L50.916073,37.089 L50.9085657,37.110625 L50.935717,37.176125 L50.9862662,37.148625 L51.0826098,37.09525 L51.1993482,37.077125 L51.4061742,37.099125 L51.5425568,37.1135 L51.7582664,37.006625 L51.9011553,36.935625 L52.1306283,37.034375 L52.3828734,37.0315 L52.4888514,37.0785 L52.7886428,37.214375 L52.9415413,37.22875 L52.9980963,37.191625 L53.0341313,37.106125 L53.0156133,37.0065 L52.9010019,36.874 L52.6476307,36.58025 L52.5437798,36.429375 L52.4649532,36.210625 L52.4404294,35.931375 L52.4229123,35.742625 L52.454443,35.495125 L52.522384,35.406625 L52.5724326,35.20975 L52.5733085,35.20975 L52.586196,35.15825 L52.7269578,34.97175 L53.0998202,34.732375 L53.5002093,34.37425 L53.8167669,34.16575 L54.1429589,34.0245 L54.1517174,33.984875 L54.1880027,33.9995 L55.0180593,33.717625 L55.0315725,33.716 L55.4011817,33.65175 L57.8956058,33.82725 L57.9881958,33.79925 L57.988446,33.798625 L58.0715268,33.565625 L58.1163203,33.5225 L58.1459741,33.494125 L58.4199904,33.3735 L58.5483652,33.35525 L58.9043361,33.443 L59.0502279,33.479 L59.2835796,33.34825 L59.4492406,33.351 L59.7913231,33.1645 L60.0027786,33.16975 L60.0828564,33.137625 L60.4945064,32.84225 L60.8911419,32.72875 L60.9942421,32.67375 L61.0305274,32.654 L61.4369223,32.4395 L61.6950482,32.2415 L61.9177646,32.123125 L62.1617517,32.06025 L62.8004974,32.01525 L62.9289973,31.8015 L63.2036392,31.765 L63.3695505,31.578 L63.5592348,31.500875 L63.6953671,31.305 L63.8092277,31.141 L63.9686327,31.048875 L64.4791288,31.017 L65.0842168,31.092 L65.1642946,31.04325 L65.3009274,30.55575 L65.4440665,30.4645 L65.829441,29.90325 L65.8306922,29.698625 L65.8311927,29.527875 L65.8945043,29.284625 L65.8514624,28.845625 L65.902512,28.401 L66.1421199,27.836 L66.3533251,27.608125 L66.6936559,27.378125 L66.8668242,27.302625 L67.1120625,27.261375 L67.1120625,27.260875 L67.1479724,27.254625 L67.2105332,27.244 L68.0544784,27.23275 C68.0661147,27.224 68.3614016,27.228375 68.3614016,27.228375 L68.6429252,27.224625 L69.3548671,27.351125 L69.4056665,27.359875 L69.6462753,27.437875 L69.9240452,27.65375 L70.2178307,27.9405 L70.2728842,27.99425 L70.4634444,28.07425 L70.5210004,28.09925 L70.6782782,28.07425 L70.9022459,27.95775 L71.07116,27.815 L71.3013838,27.689375 L71.3070142,27.6815 L71.4366402,27.4865 L71.4407692,27.48275 L71.4435219,27.483375 L71.4437721,27.482125 L71.4415199,27.48175 L71.4925696,27.40425 L71.9377522,27.230875 L72.4612609,27.2005 L72.5200681,27.168625 L72.55285,27.151125 L72.6911093,26.988875 L72.8207353,26.987625 L73.1345402,27.101125 L73.3553799,27.057375 L73.5305501,27.127375 L73.6666824,27.111125 L73.9234319,27.080875 L74.1990748,27.274625 L74.3597309,27.295125 L74.9260312,27.626125 L74.9554348,27.630875 L74.9706997,27.63375 L75.0032313,27.639 L75.0702964,27.619 L75.1703937,27.59025 L75.1835315,27.5865 L75.1960437,27.60375 L75.2604813,27.694375 L75.3488171,27.707125 L75.4532937,27.567875 L75.4120035,27.504625 L75.3961131,27.481625 L75.1939166,27.440375 L75.01224,27.130375 L75.1851581,26.944125 L74.9136442,26.611625 L74.8686004,26.556625 L74.8535858,26.532875 L74.7597446,26.39075 L74.2845328,25.667375 L73.6656814,25.173875 L73.6654312,25.17425 L73.4487206,25.001 L73.4474694,25 L73.3713954,24.9405 L73.0410744,24.604625 L72.8048448,24.29175 L72.7739398,24.22425 L72.7251424,24.118 L72.583755,23.8105 L72.3372654,23.62075 L72.1365704,23.4015 L72.1265607,23.388625 L71.7124082,22.826125 L71.6442169,22.73175 L71.5463718,22.67525 L71.3395458,22.674 L71.3200269,22.65425 L71.3083906,22.642125 L71.3153974,22.634875 L71.4146188,22.536375 L71.5252263,22.508625 L71.5727725,22.399625 L71.3618175,21.78925 L71.3605663,21.768 L71.3449261,21.573 L71.5168431,20.6875 L71.5387394,20.579625 L71.8317742,19.98375 L72.0134508,19.835 L72.2115182,19.446 L72.3811831,19.19725 L72.5438412,19.039125 L72.5722438,19.02225 L72.8659042,18.84475 L73.112644,18.81 L73.3476223,18.776875 L73.7580212,18.903125 L74.1484005,18.895625 L74.2247247,18.887625 L74.4017718,18.86725 L74.6930548,18.775625 L74.8306886,18.690625 L74.9020079,18.5815 L75.0509026,18.08275 L75.0984488,17.924 L75.1904132,17.75175 L75.7215544,17.140875 L76.1231947,16.769625 L77.0258219,16.108375 L77.4677513,15.844625 L77.6933456,15.709875 L79.7078033,14.81525 L80.2314371,14.28525 L80.5042022,14.009375 L80.9867962,13.685875 L81.5510946,13.454625 L82.037192,13.070625 L82.1432951,12.937125 L82.276925,12.506875 L82.3885334,12.48 L82.4891312,12.2625 L82.5179092,12.20075 L82.9141693,11.9215 L82.959213,11.899 L84.4994599,11.128125 L84.7231773,11.15875 L84.843294,10.979375 L85.2912293,10.904375 L85.3738096,10.890375 L85.484292,10.835375 L85.5781331,10.675375 L85.5781331,10.64375 L85.5911458,10.21625 L85.6868638,10.100875 L85.7390395,9.819375 L85.7878369,9.754375 L85.839387,9.686875 L85.9662603,9.597625 L85.9442389,9.5445 L85.9461158,9.5475 Z" id="Shape" fill="#D47600"></path>
                </g>
            </g>
        </g>
    </g>
</svg>