<?xml version="1.0" encoding="UTF-8" standalone="no"?>
<svg width="122px" height="60px" viewBox="0 0 122 60" version="1.1" xmlns="http://www.w3.org/2000/svg" xmlns:xlink="http://www.w3.org/1999/xlink">
    <!-- Generator: Sketch 3.8.2 (29753) - http://www.bohemiancoding.com/sketch -->
    <title>ki</title>
    <desc>Created with Sketch.</desc>
    <defs></defs>
    <g id="Page-1" stroke="none" stroke-width="1" fill="none" fill-rule="evenodd">
        <g id="ki">
            <g transform="translate(-1.000000, 0.000000)" id="Group">
                <g transform="translate(0.353329, 0.000000)">
                    <polygon id="Shape" fill="#E73E2D" points="0.646671376 0 122.646671 0 122.646671 36.0299988 0.646671376 36.0299988"></polygon>
                    <path d="M55.3959961,33.1685149 C53.1245143,31.3844624 48.893843,31.9879645 48.1969124,27.1386667 C51.4363598,29.6628412 50.8483575,26.9944047 55.6865494,29.3994777 L55.3959961,33.1685149 L55.3959961,33.1685149 Z" id="Shape" stroke="#D8AA3F" stroke-width="0.1" fill="#FEC74A"></path>
                    <path d="M56.0002441,30.9628457 C54.3812801,28.5645919 50.1702439,27.8351691 50.9836997,23.0043303 C53.2986593,26.4054816 53.5515786,23.6841373 57.4246099,27.4645791 L56.0002441,30.9628457 L56.0002441,30.9628457 Z" id="Shape" stroke="#D8AA3F" stroke-width="0.1" fill="#FEC74A"></path>
                    <path d="M56.7365619,29.394422 C56.1521827,26.5556223 52.5381483,24.2620085 55.1257792,20.1110943 C55.9721939,24.1442004 57.2401798,21.7268998 59.3821632,26.7097605 L56.736445,29.394422 L56.7365619,29.394422 Z" id="Shape" stroke="#D8AA3F" stroke-width="0.1" fill="#FEC74A"></path>
                    <path d="M58.4371052,27.936517 C58.7471768,25.0543329 56.0077242,21.75547 59.7371151,18.6040437 C59.3119208,22.7038137 61.2562671,20.7947812 61.7743777,26.1985531 L58.4372221,27.936517 L58.4371052,27.936517 Z" id="Shape" stroke="#D8AA3F" stroke-width="0.1" fill="#FEC74A"></path>
                    <path d="M59.9494785,26.7678415 C61.4054007,24.266006 60.2486806,20.1280248 64.9337652,18.7888685 C62.877218,22.3541517 65.4281499,21.4132151 63.7015433,26.5566805 L59.9494785,26.7678415 L59.9494785,26.7678415 Z" id="Shape" stroke="#D8AA3F" stroke-width="0.1" fill="#FEC74A"></path>
                    <path d="M62.1479129,27.0758828 C64.3170114,25.1672029 64.5236479,20.8737902 69.3891887,21.097414 C66.3153544,23.8231086 69.0313149,23.7440995 65.7730505,28.0719611 L62.1479129,27.0760003 L62.1479129,27.0758828 Z" id="Shape" stroke="#D8AA3F" stroke-width="0.1" fill="#FEC74A"></path>
                    <path d="M64.0763641,28.202232 C66.7067715,27.0180369 68.1569668,22.9745843 72.7429407,24.6249563 C69.0092254,26.3231805 71.6286465,27.0494288 67.251296,30.2247225 L64.0763641,28.202232 L64.0763641,28.202232 Z" id="Shape" stroke="#D8AA3F" stroke-width="0.1" fill="#FEC74A"></path>
                    <path d="M65.7032756,29.9728811 C68.5586691,29.5813631 71.0816676,26.112137 75.0203831,28.9943212 C70.9624543,29.5665489 73.2727388,31.0052895 68.1838483,32.8126214 L65.7032756,29.9728811 L65.7032756,29.9728811 Z" id="Shape" stroke="#D8AA3F" stroke-width="0.1" fill="#FEC74A"></path>
                    <polygon id="Shape" stroke="#D8AA3F" stroke-width="0.1" fill="#FEC74A" points="75.8679667 30.521947 62.770861 30.8111765 63.3207618 34.3611752 75.8685511 30.521947"></polygon>
                    <polygon id="Shape" stroke="#D8AA3F" stroke-width="0.1" fill="#FEC74A" points="73.9441905 25.6791157 61.8078042 30.3654573 63.8398074 34.2892205 73.944658 25.6791157"></polygon>
                    <polygon id="Shape" stroke="#D8AA3F" stroke-width="0.1" fill="#FEC74A" points="64.3112845 32.9992098 70.5900879 21.5311408 60.9587013 30.5495766 64.3111676 32.9992098"></polygon>
                    <polygon id="Shape" stroke="#D8AA3F" stroke-width="0.1" fill="#FEC74A" points="64.1803836 32.053923 66.1985954 19.1832083 59.9093901 30.6212961 64.1803836 32.0541581"></polygon>
                    <polygon id="Shape" stroke="#D8AA3F" stroke-width="0.1" fill="#FEC74A" points="63.4265344 31.0086991 61.3186788 18.0462775 58.9824478 31.0651341 63.4266513 31.008464"></polygon>
                    <polygon id="Shape" stroke="#D8AA3F" stroke-width="0.1" fill="#FEC74A" points="62.3360829 29.8976344 56.224412 19.0724545 58.5730318 32.231223 62.3360829 29.8979871"></polygon>
                    <polygon id="Shape" stroke="#D8AA3F" stroke-width="0.1" fill="#FEC74A" points="61.3870512 29.816509 51.9083044 21.7652286 58.648183 33.2877339 61.3871681 29.816509"></polygon>
                    <polygon id="Shape" stroke="#D8AA3F" stroke-width="0.1" fill="#FEC74A" points="48.5762913 25.7355507 58.7525531 34.1879902 60.3171698 29.7665405 48.5758238 25.7355507"></polygon>
                    <polygon id="Shape" stroke="#D8AA3F" stroke-width="0.1" fill="#FEC74A" points="58.6451442 30.6689132 46.6875779 30.4998432 58.5948876 34.4985005 58.6450273 30.6689132"></polygon>
                    <path d="M68.3482926,32.8291992 C68.3482926,36.8144531 65.1367785,40.0451236 61.1751553,40.0451236 C57.2135321,40.0451236 54.0021349,36.8144531 54.0021349,32.8291992 C54.0021349,28.8439453 57.213649,25.6132748 61.1751553,25.6132748 C65.1366616,25.6132748 68.3482926,28.8439453 68.3482926,32.8291992 L68.3482926,32.8291992 Z" id="Shape" stroke="#D8AA3F" stroke-width="0.1" fill="#FEC74A"></path>
                    <polygon id="Shape" fill="#005989" points="0.646671376 35.6716437 122.646671 35.6716437 122.646671 60.1973684 0.646671376 60.1973684"></polygon>
                    <path d="M12.1636262,53.3781353 C13.9889929,54.2279528 16.6038559,56.3549657 19.4008114,56.3530845 C24.0807534,56.3225155 24.205343,53.1286454 28.9459436,53.2805497 C33.6989331,53.4022377 32.8391944,56.7647075 39.257197,56.7478946 C44.5597365,56.7339034 46.2727856,52.6722271 50.8435656,53.1588617 C54.2286403,52.9836779 55.6140864,57.0051443 60.8170478,57.056171 C66.2134386,57.1722155 68.1949515,52.6730501 71.5801431,53.0455213 C75.1864637,53.0455213 76.3678446,56.6692383 81.4272825,56.6953395 C87.8713483,56.7280248 89.0042257,52.9238333 93.0357406,53.1672093 C95.9050423,53.1063065 98.1677584,55.9553351 102.3726,56.0262316 C105.727755,56.0837248 108.536631,53.5320383 110.434111,52.619672 L110.527962,48.2898116 C108.53932,49.0336959 105.574063,51.4728651 102.608923,51.4996717 C98.3417865,51.6567492 95.7022627,48.684269 92.7371229,48.7110756 C89.1844482,48.7431731 87.7687313,52.3892289 81.7419122,52.3892289 C76.2358918,52.3892289 74.9726978,48.7110756 71.4199063,48.7110756 C67.9472916,48.7378823 66.8833709,52.711614 60.8715119,52.6380133 C55.967402,52.578639 54.0564822,48.8448737 50.5837506,48.8716803 C46.9021619,48.8716803 43.0952824,52.5024517 39.0187703,52.3271504 C33.3923677,52.0880069 32.1767422,48.8716803 28.4951535,48.8716803 C25.7436627,48.8716803 22.7743154,51.8856638 19.459483,51.9358675 C16.1630002,51.9868941 12.4596726,48.9368158 12.1166421,48.8716803 L12.1636262,53.3782529 L12.1636262,53.3781353 Z M12.1636262,44.8035375 C13.9889929,45.653355 16.6038559,47.7803679 19.4008114,47.7784867 C24.0807534,47.7479177 24.205343,44.5540476 28.9459436,44.7059519 C33.6989331,44.8276399 32.8391944,48.1901097 39.257197,48.1732968 C44.5597365,48.1593056 46.2727856,44.0976293 50.8435656,44.5842639 C54.2286403,44.4090801 55.6140864,48.4305465 60.8170478,48.4815732 C66.2134386,48.5976177 68.1949515,44.0984523 71.5801431,44.4709235 C75.1864637,44.4709235 76.3678446,48.0946405 81.4272825,48.1207417 C87.8713483,48.153427 89.0042257,44.3492355 93.0357406,44.5926115 C95.9050423,44.5317087 98.1677584,47.3807373 102.3726,47.4516338 C105.727755,47.509127 108.536631,44.9574405 110.434111,44.0450741 L110.527962,39.7152138 C108.53932,40.4590981 105.574063,42.8982672 102.608923,42.9250739 C98.3417865,43.0821514 95.7022627,40.1096712 92.7371229,40.1364778 C89.1844482,40.1685752 87.7687313,43.8146311 81.7419122,43.8146311 C76.2358918,43.8146311 74.9726978,40.1364778 71.4199063,40.1364778 C67.9472916,40.1632845 66.8833709,44.1370162 60.8715119,44.0634155 C55.967402,44.0040412 54.0564822,40.2702759 50.5837506,40.2970825 C46.9021619,40.2970825 43.0952824,43.9278539 39.0187703,43.7525526 C33.3923677,43.5134091 32.1767422,40.2970825 28.4951535,40.2970825 C25.7436627,40.2970825 22.7743154,43.311066 19.459483,43.3612697 C16.1630002,43.4122963 12.4596726,40.362218 12.1166421,40.2970825 L12.1636262,44.803655 L12.1636262,44.8035375 Z" id="Shape" fill="#FFFFFF"></path>
                    <path d="M12.1636262,36.3206466 C13.9872398,37.1704641 16.5996483,39.297477 19.3941495,39.2955958 C24.0696502,39.2650269 24.1942398,36.0711567 28.9303991,36.223061 C33.6789473,36.344749 32.8200268,39.7072189 39.2319518,39.6904059 C44.5295826,39.6764147 46.2409954,35.6147384 50.8075678,36.101373 C54.1894869,35.9261892 55.5736474,39.9476556 60.7716999,39.9986823 C66.1630652,40.1147268 68.142708,35.6155614 71.5247439,35.9880326 C75.1276752,35.9880326 76.3080042,39.6117496 81.3626501,39.6378508 C87.8007553,39.6705361 88.9325808,35.8663446 92.9602388,36.1097207 C95.8269692,36.0488178 98.0874647,38.8978464 102.28845,38.9687429 C105.640448,39.0262361 108.446754,36.4745496 110.34248,35.5621833 L110.436214,31.2323229 C108.449325,31.9762072 105.48699,34.4153764 102.524539,34.442183 C98.2614928,34.5992605 95.6244234,31.6267803 92.6619717,31.6535869 C89.1125696,31.6856844 87.6981383,35.3317402 81.6770461,35.3317402 C76.1762851,35.3317402 74.914143,31.6535869 71.364624,31.6535869 C67.8952819,31.6803936 66.8322962,35.6541253 60.8260472,35.5805246 C55.9264955,35.5211503 54.0174457,31.787385 50.5478697,31.8141916 C46.8697873,31.8141916 43.066414,35.444963 38.993642,35.2696617 C33.3724989,35.0305182 32.1580421,31.8141916 28.4798428,31.8141916 C25.7309233,31.8141916 22.764264,34.8281751 19.4527042,34.8783788 C16.1626496,34.9301109 12.4623608,31.8802677 12.1199146,31.8144268 L12.1667818,36.3209993 L12.1636262,36.3206466 Z" id="Shape" fill="#FFFFFF"></path>
                    <path d="M47.5080463,8.93037366 C54.643082,8.43891859 53.3426046,7.82589304 56.2144775,7.36477179 C59.8334208,7.86527999 60.2472781,10.0694207 62.2637368,11.4216276 C62.2637368,11.4216276 61.505797,13.9995329 59.025575,13.6345864 C58.6921283,12.6004144 60.2262404,12.2807334 55.8118403,9.57361547 C53.2454808,9.41994757 48.6531956,10.0267418 47.5080463,8.93025609 L47.5080463,8.93037366 Z M69.627966,12.9200953 L64.4878839,13.1329024 L64.4878839,14.4104505 C67.9548885,14.5220273 68.5798236,14.0556152 69.627966,12.9200953 L69.627966,12.9200953 Z" id="Shape" stroke="#D8AA3F" stroke-width="0.1" fill="#FFC84B"></path>
                    <path d="M51.9528341,12.7061125 C52.8486874,12.2452264 53.294218,12.4333432 54.0703904,12.4028918 C54.604513,13.376161 55.1084815,13.4673976 56.2775905,13.5892032 C58.0614663,16.1136128 60.5710241,16.1440642 60.9338067,16.1440642 C64.4310822,16.0525924 65.5397664,13.5892032 67.8880356,13.3152581 L70.3674394,13.3152581 C69.9542834,12.6055876 69.6317061,12.1999608 68.7346841,12.1595157 C66.8902666,12.0580502 64.5017921,12.1088417 62.4155585,12.5852475 L59.4826764,13.3153757 C58.6259766,12.8996376 56.5296917,10.6893831 55.1892427,10.7299458 C54.4031359,10.9427529 54.4031359,11.2165804 54.0100825,11.5207417 C53.2542465,11.8452431 52.4981767,11.6896941 51.952951,12.7058774 L51.9528341,12.7061125 Z" id="Shape" stroke="#D8AA3F" stroke-width="0.1" fill="#FFC84B"></path>
                    <path d="M55.4899643,11.6296143 C55.4899643,11.7629374 55.419259,11.8861332 55.3044823,11.9527947 C55.1897057,12.0194563 55.0482951,12.0194563 54.9335184,11.9527947 C54.8187418,11.8861332 54.7480365,11.7629374 54.7480365,11.6296143 C54.7480365,11.4235145 54.9141227,11.2564376 55.1190004,11.2564376 C55.3238781,11.2564376 55.4899643,11.4235145 55.4899643,11.6296143 L55.4899643,11.6296143 Z" id="Shape" stroke="#D8AA3F" stroke-width="0.1" fill="#FFC84B"></path>
                    <path d="M57.8807763,12.6767193 C63.1316567,6.30967182 67.7173968,7.09035645 73.6940762,6.65439582 C73.895687,7.39451776 73.8252109,8.49970382 70.9729731,9.48308427 C67.0725929,10.0609555 60.0880932,14.1974083 60.0579392,14.1974083 C58.7575787,14.136623 57.8506223,12.7679559 57.8808931,12.6766017 L57.8807763,12.6767193 Z" id="Shape" stroke="#D8AA3F" stroke-width="0.1" fill="#FFC84B"></path>
                    <path d="M68.6695842,8.52827405 L72.542148,8.69710886 M68.2476625,9.16387361 L71.0704476,9.39549239" id="Shape" stroke="#D9A43E" stroke-width="0.1"></path>
                </g>
            </g>
        </g>
    </g>
</svg>