<?xml version="1.0" encoding="UTF-8" standalone="no"?>
<svg width="122px" height="60px" viewBox="0 0 122 60" version="1.1" xmlns="http://www.w3.org/2000/svg" xmlns:xlink="http://www.w3.org/1999/xlink">
    <!-- Generator: Sketch 3.8.2 (29753) - http://www.bohemiancoding.com/sketch -->
    <title>by</title>
    <desc>Created with Sketch.</desc>
    <defs></defs>
    <g id="Page-1" stroke="none" stroke-width="1" fill="none" fill-rule="evenodd">
        <g id="by">
            <g id="Group">
                <g>
                    <polygon id="Shape" fill="#B20000" points="0 0 122 0 122 40 0 40"></polygon>
                    <polygon id="Shape" fill="#429F00" points="0 40 122 40 122 60 0 60"></polygon>
                    <polygon id="Shape" fill="#FFFFFF" points="0 0 13.167933 0 13.167933 60 0 60"></polygon>
                    <g id="Shape" fill="#B20000">
                        <path d="M0.618821883,1.0049312 L1.23810266,1.0049312 L1.23810266,2.00963091 L0.618821883,2.00963091 L0.618821883,1.0049312 Z M2.47689367,1.0049312 L4.33496546,1.0049312 L4.33496546,2.00963091 L2.47689367,2.00963091 L2.47689367,1.0049312 Z M3.09560083,0 L3.71488161,0 L3.71488161,1.00469971 L3.09571555,1.00469971 L3.09560083,0 Z M6.1928078,0 L6.81231803,0 L6.81231803,1.00469971 L6.1928078,1.00469971 L6.1928078,0 Z M8.66970147,1.0049312 L10.527888,1.0049312 L10.527888,2.00963091 L8.66970147,2.00963091 L8.66970147,1.0049312 Z M9.29035894,0 L9.90963972,0 L9.90963972,1.00469971 L9.29035894,1.00469971 L9.29035894,0 Z"></path>
                        <path d="M1.85807179,2.00939941 L3.0968628,2.00939941 L3.0968628,3.01409912 L1.85807179,3.01409912 L1.85807179,2.00939941 Z M3.71614357,2.00939941 L4.95493458,2.00939941 L4.95493458,3.01409912 L3.71614357,3.01409912 L3.71614357,2.00939941 Z M8.05099431,2.00939941 L9.28978532,2.00939941 L9.28978532,3.01409912 L8.05099431,3.01409912 L8.05099431,2.00939941 Z M9.9090661,2.00939941 L11.1477424,2.00939941 L11.1477424,3.01409912 L9.90918082,3.01409912 L9.9090661,2.00939941 Z M1.23752904,3.01409912 L2.47632005,3.01409912 L2.47632005,4.01856733 L1.23752904,4.01856733 L1.23752904,3.01409912 Z M4.33496546,3.01409912 L5.57364174,3.01409912 L5.57364174,4.01856733 L4.33496546,4.01856733 L4.33496546,3.01409912 Z M7.43228715,3.01409912 L8.67084871,3.01409912 L8.67084871,4.01856733 L7.43240187,4.01856733 L7.43228715,3.01409912 Z M10.527888,3.01409912 L11.7665643,3.01409912 L11.7665643,4.01856733 L10.527888,4.01856733 L10.527888,3.01409912 Z M11.7672526,1.0049312 L12.3864187,1.0049312 L12.3864187,2.00963091 L11.7671379,2.00963091 L11.7672526,1.0049312 Z M0.618821883,4.01856733 L1.85761289,4.01856733 L1.85761289,5.02303554 L0.618821883,5.02303554 L0.618821883,4.01856733 Z M4.95378734,4.01856733 L6.19246363,4.01856733 L6.19246363,5.02303554 L4.95378734,5.02303554 L4.95378734,4.01856733 Z M11.148316,4.01856733 L12.387107,4.01856733 L12.387107,5.02303554 L11.148316,5.02303554 L11.148316,4.01856733 Z M1.23752904,7.03174046 L2.47632005,7.03174046 L2.47632005,8.03644017 L1.23752904,8.03644017 L1.23752904,7.03174046 Z M1.85807179,8.03644017 L3.0968628,8.03644017 L3.0968628,9.04079263 L1.85807179,9.04079263 L1.85807179,8.03644017 Z M4.33496546,7.03174046 L5.57364174,7.03174046 L5.57364174,8.03644017 L4.33496546,8.03644017 L4.33496546,7.03174046 Z M3.71614357,8.03644017 L4.95493458,8.03644017 L4.95493458,9.04079263 L3.71614357,9.04079263 L3.71614357,8.03644017 Z M2.47689367,9.04079263 L4.33496546,9.04079263 L4.33496546,10.0452608 L2.47689367,10.0452608 L2.47689367,9.04079263 Z"></path>
                        <path d="M3.09560083,10.0451451 L3.71488161,10.0451451 L3.71488161,11.0498448 L3.09571555,11.0498448 L3.09560083,10.0451451 Z M7.43228715,7.03197196 L8.67084871,7.03197196 L8.67084871,8.03644017 L7.43240187,8.03644017 L7.43228715,7.03197196 Z M8.05099431,8.03644017 L9.28978532,8.03644017 L9.28978532,9.04079263 L8.05099431,9.04079263 L8.05099431,8.03644017 Z M10.527888,7.03174046 L11.7665643,7.03174046 L11.7665643,8.03644017 L10.527888,8.03644017 L10.527888,7.03174046 Z M9.9090661,8.03644017 L11.1477424,8.03644017 L11.1477424,9.04079263 L9.90918082,9.04079263 L9.9090661,8.03644017 Z M8.66970147,9.04079263 L10.527888,9.04079263 L10.527888,10.0452608 L8.66970147,10.0452608 L8.66970147,9.04079263 Z"></path>
                        <path d="M9.29035894,10.0451451 L9.90963972,10.0451451 L9.90963972,11.0498448 L9.29035894,11.0498448 L9.29035894,10.0451451 Z M6.1928078,9.04079263 L6.81231803,9.04079263 L6.81231803,10.0452608 L6.1928078,10.0452608 L6.1928078,9.04079263 Z M8.15163874e-16,9.04079263 L0.61928078,9.04079263 L0.61928078,10.0452608 L0,10.0452608 L8.15163874e-16,9.04079263 Z M12.3859598,9.04079263 L13.0052405,9.04079263 L13.0052405,10.0452608 L12.3860745,10.0452608 L12.3859598,9.04079263 Z M3.09560083,14.0631337 L3.71488161,14.0631337 L3.71488161,15.0676019 L3.09571555,15.0676019 L3.09560083,14.0631337 Z"></path>
                        <path d="M2.47689367,15.0674861 L4.33496546,15.0674861 L4.33496546,16.0719543 L2.47689367,16.0719543 L2.47689367,15.0674861 Z M1.85807179,16.0719543 L4.95493458,16.0719543 L4.95493458,17.0764226 L1.85807179,17.0764226 L1.85807179,16.0719543 Z M9.29035894,14.0631337 L9.90963972,14.0631337 L9.90963972,15.0676019 L9.29035894,15.0676019 L9.29035894,14.0631337 Z"></path>
                        <path d="M8.66970147,15.0674861 L10.527888,15.0674861 L10.527888,16.0719543 L8.66970147,16.0719543 L8.66970147,15.0674861 Z M8.05099431,16.0719543 L11.1477424,16.0719543 L11.1477424,17.0764226 L8.05110903,17.0764226 L8.05099431,16.0719543 Z M8.66970147,21.0942954 L11.7665643,21.0942954 L11.7665643,22.0987636 L8.66970147,22.0987636 L8.66970147,21.0942954 Z M7.43228715,17.0764226 L11.7677115,17.0764226 L11.7677115,18.0811223 L7.43228715,18.0811223 L7.43228715,17.0764226 Z M1.23752904,17.0764226 L5.5729534,17.0764226 L5.5729534,18.0811223 L1.23752904,18.0811223 L1.23752904,17.0764226 Z M1.85807179,22.0987636 L3.71614357,22.0987636 L3.71614357,23.1032318 L1.85807179,23.1032318 L1.85807179,22.0987636 Z M1.23752904,21.0942954 L4.33427711,21.0942954 L4.33427711,22.0987636 L1.23764377,22.0987636 L1.23752904,21.0942954 Z M9.9090661,19.085359 L13.0059289,19.085359 L13.0059289,20.0898272 L9.9090661,20.0898272 L9.9090661,19.085359 Z M9.29035894,22.0987636 L11.148316,22.0987636 L11.148316,23.1032318 L9.29035894,23.1032318 L9.29035894,22.0987636 Z"></path>
                        <path d="M2.47689367,23.1031161 L3.09617445,23.1031161 L3.09617445,24.1078158 L2.47689367,24.1078158 L2.47689367,23.1031161 Z M9.9090661,23.1031161 L10.5283469,23.1031161 L10.5283469,24.1078158 L9.90918082,24.1078158 L9.9090661,23.1031161 Z M0,19.085359 L3.0968628,19.085359 L3.0968628,20.0898272 L0,20.0898272 L0,19.085359 Z M5.57421536,21.0942954 L7.43228715,21.0942954 L7.43228715,22.0987636 L5.57421536,22.0987636 L5.57421536,21.0942954 Z M6.1928078,22.0987636 L6.81231803,22.0987636 L6.81231803,23.1032318 L6.1928078,23.1032318 L6.1928078,22.0987636 Z M4.33496546,19.085359 L8.67038981,19.085359 L8.67038981,20.0898272 L4.33496546,20.0898272 L4.33496546,19.085359 Z M6.8117444,4.01856733 L8.05053541,4.01856733 L8.05053541,5.02303554 L6.8117444,5.02303554 L6.8117444,4.01856733 Z"></path>
                        <polygon points="5.57421536 5.02291979 7.43228715 5.02291979 7.43228715 6.027388 5.57421536 6.027388"></polygon>
                        <path d="M4.95378734,6.027388 L6.19246363,6.027388 L6.19246363,7.03208771 L4.95378734,7.03208771 L4.95378734,6.027388 Z M6.8117444,6.027388 L8.05053541,6.027388 L8.05053541,7.03208771 L6.8117444,7.03208771 L6.8117444,6.027388 Z M0,5.02291979 L1.23879101,5.02291979 L1.23879101,6.027388 L0,6.027388 L0,5.02291979 Z"></path>
                        <path d="M0.618821883,6.027388 L1.85761289,6.027388 L1.85761289,7.03208771 L0.618821883,7.03208771 L0.618821883,6.027388 Z M11.7672526,5.02291979 L13.0059289,5.02291979 L13.0059289,6.027388 L11.7672526,6.027388 L11.7672526,5.02291979 Z M11.148316,6.027388 L12.387107,6.027388 L12.387107,7.03208771 L11.148316,7.03208771 L11.148316,6.027388 Z M0,15.0674861 L0.61928078,15.0674861 L0.61928078,16.0719543 L0,16.0719543 L0,15.0674861 Z M12.3859598,15.0674861 L13.0052405,15.0674861 L13.0052405,16.0719543 L12.3860745,16.0719543 L12.3859598,15.0674861 Z M5.57421536,23.1031161 L7.43228715,23.1031161 L7.43228715,24.1078158 L5.57421536,24.1078158 L5.57421536,23.1031161 Z"></path>
                        <path d="M4.95378734,24.1077 L6.19246363,24.1077 L6.19246363,25.1121682 L4.95378734,25.1121682 L4.95378734,24.1077 Z M6.8117444,24.1077 L8.05053541,24.1077 L8.05053541,25.1121682 L6.8117444,25.1121682 L6.8117444,24.1077 Z M4.33496546,25.1121682 L5.57364174,25.1121682 L5.57364174,26.1166364 L4.33496546,26.1166364 L4.33496546,25.1121682 Z M7.43228715,25.1121682 L8.67084871,25.1121682 L8.67084871,26.1166364 L7.43240187,26.1166364 L7.43228715,25.1121682 Z"></path>
                        <path d="M3.71614357,26.1164049 L4.95493458,26.1164049 L4.95493458,27.1211046 L3.71614357,27.1211046 L3.71614357,26.1164049 Z M8.05099431,26.1164049 L9.28978532,26.1164049 L9.28978532,27.1211046 L8.05099431,27.1211046 L8.05099431,26.1164049 Z M3.09560083,27.1211046 L4.33427711,27.1211046 L4.33427711,28.1255729 L3.09571555,28.1255729 L3.09560083,27.1211046 Z M8.66970147,27.1211046 L9.90872192,27.1211046 L9.90872192,28.1255729 L8.66970147,28.1255729 L8.66970147,27.1211046 Z"></path>
                        <path d="M1.85807179,28.1254571 L3.71614357,28.1254571 L3.71614357,29.1299253 L1.85807179,29.1299253 L1.85807179,28.1254571 Z M9.29035894,28.1254571 L11.148316,28.1254571 L11.148316,29.1299253 L9.29035894,29.1299253 L9.29035894,28.1254571 Z"></path>
                        <path d="M10.527888,27.1211046 L11.7665643,27.1211046 L11.7665643,28.1255729 L10.527888,28.1255729 L10.527888,27.1211046 Z M11.148316,26.1164049 L12.387107,26.1164049 L12.387107,27.1211046 L11.148316,27.1211046 L11.148316,26.1164049 Z"></path>
                        <path d="M11.7672526,25.1121682 L13.0059289,25.1121682 L13.0059289,26.1166364 L11.7672526,26.1166364 L11.7672526,25.1121682 Z M1.23752904,27.1211046 L2.47632005,27.1211046 L2.47632005,28.1255729 L1.23752904,28.1255729 L1.23752904,27.1211046 Z M0.618821883,26.1164049 L1.85761289,26.1164049 L1.85761289,27.1211046 L0.618821883,27.1211046 L0.618821883,26.1164049 Z"></path>
                        <path d="M0,25.1121682 L1.23879101,25.1121682 L1.23879101,26.1166364 L0,26.1166364 L0,25.1121682 Z M2.47689367,29.1299253 L3.09617445,29.1299253 L3.09617445,30.1343935 L2.47689367,30.1343935 L2.47689367,29.1299253 Z M9.9090661,29.1299253 L10.5283469,29.1299253 L10.5283469,30.1343935 L9.90918082,30.1343935 L9.9090661,29.1299253 Z M6.1928078,26.1164049 L6.81231803,26.1164049 L6.81231803,27.1211046 L6.1928078,27.1211046 L6.1928078,26.1164049 Z M4.33496546,29.1299253 L4.95424624,29.1299253 L4.95424624,30.1343935 L4.33496546,30.1343935 L4.33496546,29.1299253 Z M8.05099431,29.1299253 L8.67027509,29.1299253 L8.67027509,30.1343935 L8.05099431,30.1343935 L8.05099431,29.1299253 Z M6.1928078,29.1299253 L6.81231803,29.1299253 L6.81231803,30.1343935 L6.1928078,30.1343935 L6.1928078,29.1299253 Z M0,29.1299253 L0.61928078,29.1299253 L0.61928078,30.1343935 L8.15163874e-16,30.1343935 L0,29.1299253 Z M12.3859598,29.1299253 L13.0052405,29.1299253 L13.0052405,30.1343935 L12.3860745,30.1343935 L12.3859598,29.1299253 Z M6.1928078,15.0674861 L6.81231803,15.0674861 L6.81231803,16.0719543 L6.1928078,16.0719543 L6.1928078,15.0674861 Z M3.09560083,5.02291979 L3.71488161,5.02291979 L3.71488161,6.027388 L3.09571555,6.027388 L3.09560083,5.02291979 Z M9.29035894,5.02291979 L9.90963972,5.02291979 L9.90963972,6.027388 L9.29035894,6.027388 L9.29035894,5.02291979 Z M5.57421536,12.0540815 L7.43228715,12.0540815 L7.43228715,13.0587812 L5.57421536,13.0587812 L5.57421536,12.0540815 Z"></path>
                        <polygon points="4.33496546 13.0585497 6.1928078 13.0585497 6.1928078 14.0632494 4.33508018 14.0632494"></polygon>
                        <path d="M4.95378734,14.0631337 L5.5729534,14.0631337 L5.5729534,15.0676019 L4.95378734,15.0676019 L4.95378734,14.0631337 Z M3.71614357,12.0540815 L4.95493458,12.0540815 L4.95493458,13.0587812 L3.71614357,13.0587812 L3.71614357,12.0540815 Z"></path>
                        <polygon points="4.33496546 11.049729 6.1928078 11.049729 6.1928078 12.0541973 4.33508018 12.0541973"></polygon>
                        <path d="M4.95378734,10.0451451 L5.5729534,10.0451451 L5.5729534,11.0498448 L4.95378734,11.0498448 L4.95378734,10.0451451 Z M6.8117444,11.049729 L8.66970147,11.049729 L8.66970147,12.0541973 L6.81185913,12.0541973 L6.8117444,11.049729 Z"></path>
                        <path d="M7.43228715,10.0451451 L8.05156793,10.0451451 L8.05156793,11.0498448 L7.43228715,11.0498448 L7.43228715,10.0451451 Z M8.05099431,12.0540815 L9.28978532,12.0540815 L9.28978532,13.0587812 L8.05099431,13.0587812 L8.05099431,12.0540815 Z"></path>
                        <polygon points="6.8117444 13.0585497 8.66970147 13.0585497 8.66970147 14.0632494 6.81185913 14.0632494"></polygon>
                        <path d="M7.43228715,14.0631337 L8.05156793,14.0631337 L8.05156793,15.0676019 L7.43228715,15.0676019 L7.43228715,14.0631337 Z M9.9090661,12.0540815 L11.1477424,12.0540815 L11.1477424,13.0587812 L9.90918082,13.0587812 L9.9090661,12.0540815 Z"></path>
                        <polygon points="10.527888 11.049729 12.3859598 11.049729 12.3859598 12.0541973 10.527888 12.0541973"></polygon>
                        <polygon points="11.7672526 12.0540815 13.0059289 12.0540815 13.0059289 13.0587812 11.7672526 13.0587812"></polygon>
                        <polygon points="10.527888 13.0585497 12.3859598 13.0585497 12.3859598 14.0632494 10.527888 14.0632494"></polygon>
                        <path d="M11.148316,14.0631337 L11.7678262,14.0631337 L11.7678262,15.0676019 L11.148316,15.0676019 L11.148316,14.0631337 Z M11.148316,10.0451451 L11.7678262,10.0451451 L11.7678262,11.0498448 L11.148316,11.0498448 L11.148316,10.0451451 Z M0,12.0540815 L1.23879101,12.0540815 L1.23879101,13.0587812 L0,13.0587812 L0,12.0540815 Z"></path>
                        <polygon points="0.618821883 11.049729 2.47689367 11.049729 2.47689367 12.0541973 0.618821883 12.0541973"></polygon>
                        <polygon points="1.85807179 12.0540815 3.0968628 12.0540815 3.0968628 13.0587812 1.85807179 13.0587812"></polygon>
                        <polygon points="0.618821883 13.0585497 2.47689367 13.0585497 2.47689367 14.0632494 0.618821883 14.0632494"></polygon>
                        <path d="M1.23752904,14.0631337 L1.85680982,14.0631337 L1.85680982,15.0676019 L1.23752904,15.0676019 L1.23752904,14.0631337 Z M1.23752904,10.0451451 L1.85680982,10.0451451 L1.85680982,11.0498448 L1.23752904,11.0498448 L1.23752904,10.0451451 Z M0.618821883,18.0808908 L3.09617445,18.0808908 L3.09617445,19.085359 L0.618821883,19.085359 L0.618821883,18.0808908 Z M3.71614357,18.0808908 L6.19349614,18.0808908 L6.19349614,19.085359 L3.71614357,19.085359 L3.71614357,18.0808908 Z M6.8117444,18.0808908 L9.2892117,18.0808908 L9.2892117,19.085359 L6.81162968,19.085359 L6.8117444,18.0808908 Z M9.9090661,18.0808908 L12.3864187,18.0808908 L12.3864187,19.085359 L9.9090661,19.085359 L9.9090661,18.0808908 Z M4.95378734,20.0897114 L8.05053541,20.0897114 L8.05053541,21.0944111 L4.95378734,21.0944111 L4.95378734,20.0897114 Z M0.618821883,20.0897114 L3.71556995,20.0897114 L3.71556995,21.0944111 L0.618821883,21.0944111 L0.618821883,20.0897114 Z M9.29035894,20.0897114 L12.387107,20.0897114 L12.387107,21.0944111 L9.29035894,21.0944111 L9.29035894,20.0897114 Z M12.3859598,24.1077 L13.0052405,24.1077 L13.0052405,25.1121682 L12.3860745,25.1121682 L12.3859598,24.1077 Z M0,24.1077 L0.61928078,24.1077 L0.61928078,25.1121682 L0,25.1121682 L0,24.1077 Z M0.618821883,58.2595034 L1.23810266,58.2595034 L1.23810266,57.2550352 L0.618821883,57.2550352 L0.618821883,58.2595034 Z M2.47689367,58.2595034 L4.33496546,58.2595034 L4.33496546,57.2550352 L2.47689367,57.2550352 L2.47689367,58.2595034 Z"></path>
                        <path d="M3.09560083,59.2630456 L3.71488161,59.2630456 L3.71488161,58.2585774 L3.09571555,58.2585774 L3.09560083,59.2630456 Z M6.1928078,59.2630456 L6.81231803,59.2630456 L6.81231803,58.2585774 L6.1928078,58.2585774 L6.1928078,59.2630456 Z M8.66970147,58.2595034 L10.527888,58.2595034 L10.527888,57.2550352 L8.66970147,57.2550352 L8.66970147,58.2595034 Z"></path>
                        <path d="M9.29035894,59.2630456 L9.90963972,59.2630456 L9.90963972,58.2585774 L9.29035894,58.2585774 L9.29035894,59.2630456 Z M1.85807179,57.2545722 L3.0968628,57.2545722 L3.0968628,56.250104 L1.85807179,56.250104 L1.85807179,57.2545722 Z M3.71614357,57.2545722 L4.95493458,57.2545722 L4.95493458,56.250104 L3.71614357,56.250104 L3.71614357,57.2545722 Z M8.05099431,57.2545722 L9.28978532,57.2545722 L9.28978532,56.250104 L8.05099431,56.250104 L8.05099431,57.2545722 Z M9.9090661,57.2545722 L11.1477424,57.2545722 L11.1477424,56.250104 L9.90918082,56.250104 L9.9090661,57.2545722 Z M4.33496546,56.249641 L5.57364174,56.249641 L5.57364174,55.2451728 L4.33496546,55.2451728 L4.33496546,56.249641 Z M7.43228715,56.249641 L8.67084871,56.249641 L8.67084871,55.2451728 L7.43240187,55.2451728 L7.43228715,56.249641 Z M10.527888,56.249641 L11.7665643,56.249641 L11.7665643,55.2451728 L10.527888,55.2451728 L10.527888,56.249641 Z M11.7672526,58.2595034 L12.3864187,58.2595034 L12.3864187,57.2550352 L11.7671379,57.2550352 L11.7672526,58.2595034 Z M0.618821883,55.2460988 L1.85761289,55.2460988 L1.85761289,54.2416306 L0.618821883,54.2416306 L0.618821883,55.2460988 Z"></path>
                        <path d="M4.95378734,55.2460988 L6.19246363,55.2460988 L6.19246363,54.2416306 L4.95378734,54.2416306 L4.95378734,55.2460988 Z M11.148316,55.2460988 L12.387107,55.2460988 L12.387107,54.2416306 L11.148316,54.2416306 L11.148316,55.2460988 Z M1.23752904,52.2328099 L2.47632005,52.2328099 L2.47632005,51.2281102 L1.23752904,51.2281102 L1.23752904,52.2328099 Z M1.85807179,51.2277629 L3.0968628,51.2277629 L3.0968628,50.2234105 L1.85807179,50.2234105 L1.85807179,51.2277629 Z M4.33496546,52.2328099 L5.57364174,52.2328099 L5.57364174,51.2281102 L4.33496546,51.2281102 L4.33496546,52.2328099 Z M3.71614357,51.2277629 L4.95493458,51.2277629 L4.95493458,50.2234105 L3.71614357,50.2234105 L3.71614357,51.2277629 Z M2.47689367,50.2228317 L4.33496546,50.2228317 L4.33496546,49.2183635 L2.47689367,49.2183635 L2.47689367,50.2228317 Z"></path>
                        <path d="M3.09560083,49.2192895 L3.71488161,49.2192895 L3.71488161,48.2148213 L3.09571555,48.2148213 L3.09560083,49.2192895 Z M7.43228715,52.2328099 L8.67084871,52.2328099 L8.67084871,51.2281102 L7.43240187,51.2281102 L7.43228715,52.2328099 Z M8.05099431,51.2277629 L9.28978532,51.2277629 L9.28978532,50.2234105 L8.05099431,50.2234105 L8.05099431,51.2277629 Z M10.527888,52.2328099 L11.7665643,52.2328099 L11.7665643,51.2281102 L10.527888,51.2281102 L10.527888,52.2328099 Z M9.9090661,51.2277629 L11.1477424,51.2277629 L11.1477424,50.2234105 L9.90918082,50.2234105 L9.9090661,51.2277629 Z M8.66970147,50.2228317 L10.527888,50.2228317 L10.527888,49.2183635 L8.66970147,49.2183635 L8.66970147,50.2228317 Z"></path>
                        <path d="M9.29035894,49.2192895 L9.90963972,49.2192895 L9.90963972,48.2148213 L9.29035894,48.2148213 L9.29035894,49.2192895 Z M6.1928078,50.2228317 L6.81231803,50.2228317 L6.81231803,49.2183635 L6.1928078,49.2183635 L6.1928078,50.2228317 Z M8.15163874e-16,50.2228317 L0.61928078,50.2228317 L0.61928078,49.2183635 L0,49.2183635 L8.15163874e-16,50.2228317 Z M12.3859598,50.2228317 L13.0052405,50.2228317 L13.0052405,49.2183635 L12.3860745,49.2183635 L12.3859598,50.2228317 Z M3.09560083,45.2010694 L3.71488161,45.2010694 L3.71488161,44.1963697 L3.09571555,44.1963697 L3.09560083,45.2010694 Z"></path>
                        <path d="M2.47689367,44.1975272 L4.33496546,44.1975272 L4.33496546,43.1928275 L2.47689367,43.1928275 L2.47689367,44.1975272 Z M1.85807179,43.192596 L4.95493458,43.192596 L4.95493458,42.1878963 L1.85807179,42.1878963 L1.85807179,43.192596 Z M9.29035894,45.2010694 L9.90963972,45.2010694 L9.90963972,44.1963697 L9.29035894,44.1963697 L9.29035894,45.2010694 Z"></path>
                        <path d="M8.66970147,44.1975272 L10.527888,44.1975272 L10.527888,43.1928275 L8.66970147,43.1928275 L8.66970147,44.1975272 Z M8.05099431,43.192596 L11.1477424,43.192596 L11.1477424,42.1878963 L8.05110903,42.1878963 L8.05099431,43.192596 Z M8.66970147,38.1707179 L11.7665643,38.1707179 L11.7665643,37.1660182 L8.66970147,37.1660182 L8.66970147,38.1707179 Z M7.43228715,42.187549 L11.7677115,42.187549 L11.7677115,41.1830808 L7.43228715,41.1830808 L7.43228715,42.187549 Z M1.23752904,42.187549 L5.5729534,42.187549 L5.5729534,41.1830808 L1.23752904,41.1830808 L1.23752904,42.187549 Z M1.85807179,37.1657867 L3.71614357,37.1657867 L3.71614357,36.1608555 L1.85807179,36.1608555 L1.85807179,37.1657867 Z M1.23752904,38.1707179 L4.33427711,38.1707179 L4.33427711,37.1660182 L1.23764377,37.1660182 L1.23752904,38.1707179 Z M9.9090661,40.1791914 L13.0059289,40.1791914 L13.0059289,39.1744917 L9.9090661,39.1744917 L9.9090661,40.1791914 Z M9.29035894,37.1657867 L11.148316,37.1657867 L11.148316,36.161087 L9.29035894,36.161087 L9.29035894,37.1657867 Z M0,40.1791914 L3.0968628,40.1791914 L3.0968628,39.1744917 L0,39.1744917 L0,40.1791914 Z M5.57421536,38.1707179 L7.43228715,38.1707179 L7.43228715,37.1660182 L5.57421536,37.1660182 L5.57421536,38.1707179 Z M6.1928078,37.1657867 L6.81231803,37.1657867 L6.81231803,36.161087 L6.1928078,36.161087 L6.1928078,37.1657867 Z M4.33496546,40.1791914 L8.67038981,40.1791914 L8.67038981,39.1744917 L4.33496546,39.1744917 L4.33496546,40.1791914 Z M6.8117444,55.2460988 L8.05053541,55.2460988 L8.05053541,54.2416306 L6.8117444,54.2416306 L6.8117444,55.2460988 Z M5.57421536,54.2410518 L7.43228715,54.2410518 L7.43228715,53.2366993 L5.57421536,53.2366993 L5.57421536,54.2410518 Z M4.95378734,53.2363521 L6.19246363,53.2363521 L6.19246363,52.2316524 L4.95378734,52.2316524 L4.95378734,53.2363521 Z M6.8117444,53.2363521 L8.05053541,53.2363521 L8.05053541,52.2316524 L6.8117444,52.2316524 L6.8117444,53.2363521 Z M0,54.2410518 L1.23879101,54.2410518 L1.23879101,53.2366993 L0,53.2366993 L0,54.2410518 Z M0.618821883,53.2363521 L1.85761289,53.2363521 L1.85761289,52.2316524 L0.618821883,52.2316524 L0.618821883,53.2363521 Z M11.7672526,54.2410518 L13.0059289,54.2410518 L13.0059289,53.2366993 L11.7672526,53.2366993 L11.7672526,54.2410518 Z M11.148316,53.2363521 L12.387107,53.2363521 L12.387107,52.2316524 L11.148316,52.2316524 L11.148316,53.2363521 Z M0,44.1975272 L0.61928078,44.1975272 L0.61928078,43.1928275 L0,43.1928275 L0,44.1975272 Z M12.3859598,44.1975272 L13.0052405,44.1975272 L13.0052405,43.1928275 L12.3860745,43.1928275 L12.3859598,44.1975272 Z M4.95378734,35.1573133 L6.19246363,35.1573133 L6.19246363,34.1526136 L4.95378734,34.1526136 L4.95378734,35.1573133 Z M6.8117444,35.1573133 L8.05053541,35.1573133 L8.05053541,34.1526136 L6.8117444,34.1526136 L6.8117444,35.1573133 Z M4.33496546,34.1523821 L5.57364174,34.1523821 L5.57364174,33.1476824 L4.33496546,33.1476824 L4.33496546,34.1523821 Z M7.43228715,34.1523821 L8.67084871,34.1523821 L8.67084871,33.1476824 L7.43240187,33.1476824 L7.43228715,34.1523821 Z M3.71614357,33.1474509 L4.95493458,33.1474509 L4.95493458,32.1427512 L3.71614357,32.1427512 L3.71614357,33.1474509 Z M8.05099431,33.1474509 L9.28978532,33.1474509 L9.28978532,32.1427512 L8.05099431,32.1427512 L8.05099431,33.1474509 Z"></path>
                        <path d="M3.09560083,32.1439087 L4.33427711,32.1439087 L4.33427711,31.139209 L3.09571555,31.139209 L3.09560083,32.1439087 Z M8.66970147,32.1439087 L9.90872192,32.1439087 L9.90872192,31.139209 L8.66970147,31.139209 L8.66970147,32.1439087 Z M1.85807179,31.1389775 L3.71614357,31.1389775 L3.71614357,30.1342778 L1.85807179,30.1342778 L1.85807179,31.1389775 Z M9.29035894,31.1389775 L11.148316,31.1389775 L11.148316,30.1342778 L9.29035894,30.1342778 L9.29035894,31.1389775 Z M10.527888,32.1439087 L11.7665643,32.1439087 L11.7665643,31.139209 L10.527888,31.139209 L10.527888,32.1439087 Z"></path>
                        <path d="M11.148316,33.1474509 L12.387107,33.1474509 L12.387107,32.1427512 L11.148316,32.1427512 L11.148316,33.1474509 Z M11.7672526,34.1523821 L13.0059289,34.1523821 L13.0059289,33.1476824 L11.7672526,33.1476824 L11.7672526,34.1523821 Z M1.23752904,32.1439087 L2.47632005,32.1439087 L2.47632005,31.139209 L1.23752904,31.139209 L1.23752904,32.1439087 Z"></path>
                        <path d="M0.618821883,33.1474509 L1.85761289,33.1474509 L1.85761289,32.1427512 L0.618821883,32.1427512 L0.618821883,33.1474509 Z M0,34.1523821 L1.23879101,34.1523821 L1.23879101,33.1476824 L0,33.1476824 L0,34.1523821 Z M2.47689367,30.1343935 L3.09617445,30.1343935 L3.09617445,29.1299253 L2.47689367,29.1299253 L2.47689367,30.1343935 Z M6.1928078,33.1474509 L6.81231803,33.1474509 L6.81231803,32.1427512 L6.1928078,32.1427512 L6.1928078,33.1474509 Z M6.1928078,44.1975272 L6.81231803,44.1975272 L6.81231803,43.1928275 L6.1928078,43.1928275 L6.1928078,44.1975272 Z M3.09560083,54.2410518 L3.71488161,54.2410518 L3.71488161,53.2366993 L3.09571555,53.2366993 L3.09560083,54.2410518 Z M9.29035894,54.2410518 L9.90963972,54.2410518 L9.90963972,53.2366993 L9.29035894,53.2366993 L9.29035894,54.2410518 Z M5.57421536,47.2108161 L7.43228715,47.2108161 L7.43228715,46.2063479 L5.57421536,46.2063479 L5.57421536,47.2108161 Z M4.33496546,46.2057691 L6.1928078,46.2057691 L6.1928078,45.2014167 L4.33508018,45.2014167 L4.33496546,46.2057691 Z M4.95378734,45.2010694 L5.5729534,45.2010694 L5.5729534,44.1963697 L4.95378734,44.1963697 L4.95378734,45.2010694 Z M3.71614357,47.2108161 L4.95493458,47.2108161 L4.95493458,46.2063479 L3.71614357,46.2063479 L3.71614357,47.2108161 Z"></path>
                        <path d="M4.33496546,48.2143583 L6.1928078,48.2143583 L6.1928078,47.2098901 L4.33508018,47.2098901 L4.33496546,48.2143583 Z M4.95378734,49.2192895 L5.5729534,49.2192895 L5.5729534,48.2148213 L4.95378734,48.2148213 L4.95378734,49.2192895 Z M6.8117444,48.2143583 L8.66970147,48.2143583 L8.66970147,47.2098901 L6.81185913,47.2098901 L6.8117444,48.2143583 Z M7.43228715,49.2192895 L8.05156793,49.2192895 L8.05156793,48.2148213 L7.43228715,48.2148213 L7.43228715,49.2192895 Z"></path>
                        <path d="M8.05099431,47.2108161 L9.28978532,47.2108161 L9.28978532,46.2063479 L8.05099431,46.2063479 L8.05099431,47.2108161 Z M6.8117444,46.2057691 L8.66970147,46.2057691 L8.66970147,45.2014167 L6.81185913,45.2014167 L6.8117444,46.2057691 Z M7.43228715,45.2010694 L8.05156793,45.2010694 L8.05156793,44.1963697 L7.43228715,44.1963697 L7.43228715,45.2010694 Z M9.9090661,47.2108161 L11.1477424,47.2108161 L11.1477424,46.2063479 L9.90918082,46.2063479 L9.9090661,47.2108161 Z"></path>
                        <polygon points="10.527888 48.2143583 12.3859598 48.2143583 12.3859598 47.2098901 10.527888 47.2098901"></polygon>
                        <path d="M11.7672526,47.2108161 L13.0059289,47.2108161 L13.0059289,46.2063479 L11.7672526,46.2063479 L11.7672526,47.2108161 Z M10.527888,46.2057691 L12.3859598,46.2057691 L12.3859598,45.2014167 L10.527888,45.2014167 L10.527888,46.2057691 Z M11.148316,45.2010694 L11.7678262,45.2010694 L11.7678262,44.1963697 L11.148316,44.1963697 L11.148316,45.2010694 Z M11.148316,49.2192895 L11.7678262,49.2192895 L11.7678262,48.2148213 L11.148316,48.2148213 L11.148316,49.2192895 Z M0,47.2108161 L1.23879101,47.2108161 L1.23879101,46.2063479 L0,46.2063479 L0,47.2108161 Z"></path>
                        <polygon points="0.618821883 48.2143583 2.47689367 48.2143583 2.47689367 47.2098901 0.618821883 47.2098901"></polygon>
                        <path d="M1.85807179,47.2108161 L3.0968628,47.2108161 L3.0968628,46.2063479 L1.85807179,46.2063479 L1.85807179,47.2108161 Z M0.618821883,46.2057691 L2.47689367,46.2057691 L2.47689367,45.2014167 L0.618821883,45.2014167 L0.618821883,46.2057691 Z M1.23752904,45.2010694 L1.85680982,45.2010694 L1.85680982,44.1963697 L1.23752904,44.1963697 L1.23752904,45.2010694 Z M1.23752904,49.2192895 L1.85680982,49.2192895 L1.85680982,48.2148213 L1.23752904,48.2148213 L1.23752904,49.2192895 Z M0.618821883,41.1841226 L3.09617445,41.1841226 L3.09617445,40.1794229 L0.618821883,40.1794229 L0.618821883,41.1841226 Z M3.71614357,41.1841226 L6.19349614,41.1841226 L6.19349614,40.1794229 L3.71614357,40.1794229 L3.71614357,41.1841226 Z M6.8117444,41.1841226 L9.2892117,41.1841226 L9.2892117,40.1794229 L6.81162968,40.1794229 L6.8117444,41.1841226 Z M9.9090661,41.1841226 L12.3864187,41.1841226 L12.3864187,40.1794229 L9.9090661,40.1794229 L9.9090661,41.1841226 Z M4.95378734,39.1742602 L8.05053541,39.1742602 L8.05053541,38.1695605 L4.95378734,38.1695605 L4.95378734,39.1742602 Z M0.618821883,39.1742602 L3.71556995,39.1742602 L3.71556995,38.1695605 L0.618821883,38.1695605 L0.618821883,39.1742602 Z M9.29035894,39.1742602 L12.387107,39.1742602 L12.387107,38.1695605 L9.29035894,38.1695605 L9.29035894,39.1742602 Z M12.3859598,35.1573133 L13.0052405,35.1573133 L13.0052405,34.1526136 L12.3860745,34.1526136 L12.3859598,35.1573133 Z M0,35.1573133 L0.61928078,35.1573133 L0.61928078,34.1526136 L0,34.1526136 L0,35.1573133 Z M5.57421536,30.1343935 L6.19349614,30.1343935 L6.19349614,31.1390932 L5.57421536,31.1390932 L5.57421536,30.1343935 Z M6.8117444,30.1343935 L7.43102518,30.1343935 L7.43102518,31.1390932 L6.8117444,31.1390932 L6.8117444,30.1343935 Z M6.8117444,28.1254571 L7.43102518,28.1254571 L7.43102518,29.1299253 L6.8117444,29.1299253 L6.8117444,28.1254571 Z M5.57421536,28.1254571 L6.19349614,28.1254571 L6.19349614,29.1299253 L5.57421536,29.1299253 L5.57421536,28.1254571 Z M1.23752904,55.2460988 L2.47632005,55.2460988 L2.47632005,56.2507985 L1.23752904,56.2507985 L1.23752904,55.2460988 Z M9.9090661,36.1608555 L10.5283469,36.1608555 L10.5283469,35.1561558 L9.90918082,35.1561558 L9.9090661,36.1608555 Z M2.47689367,36.1608555 L3.09617445,36.1608555 L3.09617445,35.1561558 L2.47689367,35.1561558 L2.47689367,36.1608555 Z M5.57387119,35.1568503 L7.43182825,35.1568503 L7.43182825,36.1612028 L5.57387119,36.1612028 L5.57387119,35.1568503 Z"></path>
                    </g>
                </g>
            </g>
        </g>
    </g>
</svg>