<?xml version="1.0" encoding="UTF-8" standalone="no"?>
<svg width="122px" height="60px" viewBox="0 0 122 60" version="1.1" xmlns="http://www.w3.org/2000/svg" xmlns:xlink="http://www.w3.org/1999/xlink">
    <!-- Generator: Sketch 3.8.2 (29753) - http://www.bohemiancoding.com/sketch -->
    <title>tm</title>
    <desc>Created with Sketch.</desc>
    <defs></defs>
    <g id="Page-1" stroke="none" stroke-width="1" fill="none" fill-rule="evenodd">
        <g id="tm">
            <g transform="translate(-1.000000, 0.000000)" id="Clipped">
                <g>
                    <g id="Group" transform="translate(0.418199, 0.000000)">
                        <rect id="Rectangle-274" fill="#004E00" x="0.581801471" y="0" width="122" height="60"></rect>
                        <rect id="Rectangle-273" fill="#980000" x="0.581801471" y="0" width="21" height="60"></rect>
                        <g transform="translate(26.934111, 5.055638)" id="Shape">
                            <path d="M13.714052,15.1533942 L15.3748229,15.1533942" fill="#FFEF00"></path>
                            <path d="M2,10.7904959 C5.28155159,12.3722052 9.18883272,10.7829712 10.6024875,8.59928814 C12.0518983,6.56151316 12.2298548,3.13955142 9.72411377,-8.8817842e-16 C13.6137522,3.22443912 14.4734246,6.87954808 12.5383677,9.8894165 C9.95735093,13.3288966 4.23133746,13.2293123 2,10.7904959 L2,10.7904959 Z" fill="#FFFFFF"></path>
                            <path d="M7.76069307,3.00446006 L8.42100241,3.01292532 L7.89842414,3.42772281 L8.09437629,4.07672569 L7.54945054,3.69308504 L7.00993523,4.08566124 L7.19612506,3.43395418 L6.66696016,3.02797466 L7.32679903,3.00833997 L7.53851203,2.36486302 L7.76069307,3.00446006 Z M4.50125373,7.08918072 L5.16168069,7.0975284 L4.63898481,7.51244346 L4.83493695,8.16132877 L4.2900112,7.77780569 L3.75049589,8.17026431 L3.93668572,7.51855726 L3.40752082,7.11269531 L4.06735969,7.09306062 L4.2790727,6.4494661 L4.50125373,7.08918072 Z M4.71614243,3.86532946 L5.37645178,3.87367714 L4.85387351,4.28859221 L5.04982565,4.93759509 L4.5048999,4.55395444 L3.96538459,4.94641306 L4.15157442,4.294706 L3.62240952,3.88884406 L4.28224839,3.86920937 L4.4939614,3.22561485 L4.71614243,3.86532946 Z M4.71614243,0.639597039 L5.37645178,0.648062294 L4.85387351,1.06285979 L5.04982565,1.71186266 L4.5048999,1.32822201 L3.96538459,1.72079821 L4.15157442,1.06909115 L3.62240952,0.663111637 L4.28224839,0.643594521 L4.4939614,-7.77156117e-16 L4.71614243,0.639597039 Z M1.09373291,4.7251407 L1.75415987,4.73360596 L1.23146398,5.14840345 L1.42741613,5.79740633 L0.882490378,5.41388325 L0.342975069,5.80634187 L0.529164895,5.15463482 L3.10862447e-15,4.7486553 L0.659838867,4.72913818 L0.871551873,4.08554366 L1.09373291,4.7251407 Z" fill="#FEFFFF"></path>
                        </g>
                        <g id="Group-2" transform="translate(0.581801, 0.000000)">
                            <g id="Group" transform="translate(0.528062, 7.407098)" fill="#E69900">
                                <polygon id="Shape" points="0.0637491383 8.28666157 0.0637491383 7.85669716 0.863906681 6.78172736 0.702651942 6.56680394 1.18653378 5.92179855 1.02527904 5.70687513 0.702651942 6.13683954 0.541279584 5.92179855 1.67041561 4.41686433 1.83167035 4.6320229 1.67053323 4.84694631 2.00292265 5.28126092 2.79955164 4.20194092 1.98951416 3.15601164 1.67041561 3.55693552 1.83167035 3.77209408 1.67053323 3.9870175 0.541397202 2.48208329 0.702534323 2.26715987 1.02527904 2.69712428 1.18641616 2.48208329 0.702651942 1.83707789 0.863906681 1.62215448 0.0637491383 0.547302246 0.0637491383 0.117220266 1.18653378 1.62215448 1.02527904 1.83707789 1.50916087 2.48208329 1.18653378 2.9120477 1.50916087 3.3420121 1.99304271 2.69712428 3.12853013 4.22757183 1.99304271 5.70687513 1.50916087 5.06186973 1.18653378 5.49195171 1.50916087 5.92179855 1.02527904 6.56680394 1.18641616 6.78172736 0.0637491383 8.28666157"></polygon>
                                <polygon id="Shape" points="0.06363152 2.91228284 0.225003878 3.34212968 0.225003878 3.98713507 0.708885713 3.98713507 1.03151281 4.20205849 0.708885713 4.41709948 0.225003878 4.41709948 0.225003878 5.0619873 0.06363152 5.49206928 0.06363152 2.91216527"></polygon>
                            </g>
                            <g id="Group" transform="translate(0.528062, 17.753521)" fill="#E69900">
                                <polygon id="Shape" points="0.0637491383 8.25950221 0.0637491383 7.8295378 0.863906681 6.754568 0.702651942 6.53964458 1.18653378 5.89463919 1.02527904 5.67971577 0.702651942 6.10968018 0.541279584 5.89463919 1.67041561 4.38970498 1.83167035 4.60474597 1.67053323 4.81978696 2.00292265 5.25410156 2.79955164 4.17478156 1.98951416 3.12885228 1.67041561 3.52977616 1.83167035 3.74481715 1.67053323 3.95974057 0.541397202 2.45480636 0.702534323 2.23988294 1.02527904 2.66996492 1.18641616 2.45480636 0.702651942 1.80991853 0.863906681 1.59499512 0.0637491383 0.520025314 0.0637491383 0.0900609067 1.18653378 1.59499512 1.02527904 1.80991853 1.50916087 2.45492393 1.18653378 2.88488834 1.50916087 3.31485274 1.99304271 2.66996492 3.12853013 4.20041247 1.99304271 5.67971577 1.50916087 5.03471037 1.18653378 5.46467478 1.50916087 5.89463919 1.02527904 6.53964458 1.18641616 6.754568 0.0637491383 8.25950221"></polygon>
                                <polygon id="Shape" points="0.06363152 2.88500591 0.225003878 3.31497032 0.225003878 3.95985814 0.708885713 3.95985814 1.03151281 4.1750167 0.708885713 4.38994012 0.225003878 4.38994012 0.225003878 5.03482795 0.06363152 5.46479235 0.06363152 2.88500591"></polygon>
                            </g>
                            <g id="Group" transform="translate(0.528062, 28.099943)" fill="#E69900">
                                <polygon id="Shape" points="0.0638667567 8.23246042 0.0638667567 7.80249602 0.864024299 6.72752621 0.70276956 6.5126028 1.1866514 5.8675974 1.02539666 5.65267398 0.70276956 6.08252082 0.541397202 5.8675974 1.67053323 4.36266319 1.83178797 4.57770418 1.67065085 4.79274517 2.00304027 5.22705978 2.79966926 4.14773977 1.98963178 3.10169292 1.67053323 3.50273438 1.83178797 3.71777536 1.67065085 3.93269878 0.541514821 2.42776457 0.702651942 2.21284115 1.02539666 2.64280556 1.18653378 2.42788214 0.70276956 1.78287675 0.864024299 1.56795333 0.0638667567 0.492983527 0.0638667567 0.0630191201 1.1866514 1.56795333 1.02539666 1.78287675 1.50927849 2.42788214 1.1866514 2.85784655 1.50927849 3.28781096 1.99316033 2.64280556 3.12864775 4.17337068 1.99316033 5.65267398 1.50927849 5.00766859 1.1866514 5.43763299 1.50927849 5.8675974 1.02539666 6.5126028 1.18653378 6.72752621 0.0638667567 8.23246042"></polygon>
                                <polygon id="Shape" points="0.0637491383 2.85796412 0.225121496 3.28792853 0.225121496 3.93281635 0.709003332 3.93281635 1.03163043 4.14785734 0.709003332 4.36278076 0.225121496 4.36278076 0.225121496 5.00778616 0.0637491383 5.43775057 0.0637491383 2.85796412"></polygon>
                            </g>
                            <g id="Group" transform="translate(0.528062, 37.740928)" fill="#E69900">
                                <polygon id="Shape" points="0.0638667567 8.26538086 0.0638667567 7.83541645 0.864024299 6.76044665 0.70276956 6.54552323 1.1866514 5.90051784 1.02539666 5.68559442 0.70276956 6.11544125 0.541397202 5.90051784 1.67053323 4.39558362 1.83178797 4.61062461 1.67065085 4.8256656 2.00304027 5.25998021 2.79966926 4.18066021 1.98963178 3.13461336 1.67053323 3.53565481 1.83178797 3.7506958 1.67065085 3.96561922 0.541514821 2.46068501 0.702651942 2.24576159 1.02539666 2.675726 1.18653378 2.46080258 0.70276956 1.81579718 0.864024299 1.60087377 0.0638667567 0.525903963 0.0638667567 0.0959395559 1.1866514 1.60087377 1.02539666 1.81579718 1.50927849 2.46080258 1.1866514 2.89076699 1.50927849 3.32073139 1.99316033 2.675726 3.12864775 4.20629112 1.99316033 5.68559442 1.50927849 5.04058902 1.1866514 5.47055343 1.50927849 5.90051784 1.02539666 6.54552323 1.18653378 6.76044665 0.0638667567 8.26538086"></polygon>
                                <polygon id="Shape" points="0.0637491383 2.89088456 0.225121496 3.32084897 0.225121496 3.96573679 0.709003332 3.96573679 1.03163043 4.18089535 0.709003332 4.3957012 0.225121496 4.3957012 0.225121496 5.04070659 0.0637491383 5.470671 0.0637491383 2.89088456"></polygon>
                            </g>
                            <g id="Group" transform="translate(16.877011, 7.407098)" fill="#E69900">
                                <polygon id="Shape" points="3.07054429 8.28666157 3.07054429 7.85669716 2.27038675 6.78172736 2.43175911 6.56680394 1.94787727 5.92179855 2.10901439 5.70687513 2.43175911 6.13683954 2.59301384 5.92179855 1.46387781 4.41686433 1.30274069 4.6320229 1.46387781 4.84694631 1.13137078 5.28126092 0.334859404 4.20194092 1.14477927 3.15601164 1.46387781 3.55693552 1.30274069 3.77209408 1.46387781 3.9870175 2.59301384 2.48208329 2.43175911 2.26715987 2.10913201 2.69712428 1.94787727 2.48208329 2.43175911 1.83707789 2.27038675 1.62215448 3.07054429 0.547302246 3.07054429 0.117220266 1.94787727 1.62215448 2.10901439 1.83707789 1.62525017 2.48208329 1.94787727 2.9120477 1.62525017 3.3420121 1.14125072 2.69712428 0.00588091682 4.22757183 1.14125072 5.70687513 1.62525017 5.06186973 1.94787727 5.49195171 1.62525017 5.92179855 2.10913201 6.56680394 1.94787727 6.78172736 3.07054429 8.28666157"></polygon>
                                <polygon id="Shape" points="3.07066191 2.91228284 2.90940717 3.34212968 2.90940717 3.98713507 2.42552533 3.98713507 2.10289824 4.20205849 2.42552533 4.41709948 2.90940717 4.41709948 2.90940717 5.0619873 3.07066191 5.49206928 3.07066191 2.91216527"></polygon>
                            </g>
                            <g id="Group" transform="translate(16.877011, 17.753521)" fill="#E69900">
                                <polygon id="Shape" points="3.12394301 8.25950221 3.12394301 7.82965538 2.32378547 6.75468557 2.48515783 6.53976216 2.00127599 5.89475676 2.16253073 5.67983334 2.48515783 6.10979775 2.64641257 5.89475676 1.51727654 4.38982255 1.35613942 4.60486354 1.51727654 4.81990453 1.18488712 5.25421914 0.388258128 4.17489913 1.19817799 3.12896986 1.51739416 3.52989373 1.3560218 3.74493472 1.51739416 3.95985814 2.64653019 2.45492393 2.48515783 2.24000051 2.16253073 2.67008249 2.00127599 2.45492393 2.48515783 1.81003611 2.32378547 1.59511269 3.12394301 0.520142887 3.12394301 0.0901784796 2.00127599 1.59511269 2.16253073 1.81003611 1.6786489 2.4550415 2.00127599 2.88500591 1.6786489 3.31497032 1.19476706 2.67008249 0.0592796415 4.20053004 1.19476706 5.67983334 1.6786489 5.03482795 2.00127599 5.46479235 1.6786489 5.89475676 2.16253073 6.53976216 2.00127599 6.75468557 3.12394301 8.25961978"></polygon>
                                <polygon id="Shape" points="3.12406063 2.88524106 2.96280589 3.31508789 2.96280589 3.95997571 2.47892406 3.95997571 2.15629696 4.17513428 2.47892406 4.39005769 2.96280589 4.39005769 2.96280589 5.03494552 3.12406063 5.4650275 3.12406063 2.88512348"></polygon>
                            </g>
                            <g id="Group" transform="translate(16.877011, 28.099943)" fill="#E69900">
                                <polygon id="Shape" points="3.07054429 8.23246042 3.07054429 7.80249602 2.27038675 6.72752621 2.43175911 6.5126028 1.94787727 5.8675974 2.10901439 5.65267398 2.43175911 6.08252082 2.59301384 5.8675974 1.46387781 4.36266319 1.30274069 4.57770418 1.46387781 4.79274517 1.13137078 5.22705978 0.334859404 4.14773977 1.14477927 3.10169292 1.46387781 3.50273438 1.30274069 3.71777536 1.46387781 3.93269878 2.59301384 2.42776457 2.43175911 2.21284115 2.10913201 2.64280556 1.94787727 2.42788214 2.43175911 1.78287675 2.27038675 1.56795333 3.07054429 0.492983527 3.07054429 0.0630191201 1.94787727 1.56795333 2.10901439 1.78287675 1.62525017 2.42788214 1.94787727 2.85784655 1.62525017 3.28781096 1.14125072 2.64280556 0.00588091682 4.17337068 1.14125072 5.65267398 1.62525017 5.00766859 1.94787727 5.43763299 1.62525017 5.8675974 2.10913201 6.5126028 1.94787727 6.72752621 3.07054429 8.23246042"></polygon>
                                <polygon id="Shape" points="3.07066191 2.85796412 2.90940717 3.28792853 2.90940717 3.93281635 2.42552533 3.93281635 2.10289824 4.14785734 2.42552533 4.36278076 2.90940717 4.36278076 2.90940717 5.00778616 3.07066191 5.43775057 3.07066191 2.85796412"></polygon>
                            </g>
                            <g id="Group" transform="translate(16.877011, 37.740928)" fill="#E69900">
                                <polygon id="Shape" points="3.07054429 8.26538086 3.07054429 7.83541645 2.27038675 6.76044665 2.43175911 6.54552323 1.94787727 5.90051784 2.10901439 5.68559442 2.43175911 6.11544125 2.59301384 5.90051784 1.46387781 4.39558362 1.30274069 4.61062461 1.46387781 4.8256656 1.13137078 5.25998021 0.334859404 4.18066021 1.14477927 3.13461336 1.46387781 3.53565481 1.30274069 3.7506958 1.46387781 3.96561922 2.59301384 2.46068501 2.43175911 2.24576159 2.10913201 2.675726 1.94787727 2.46080258 2.43175911 1.81579718 2.27038675 1.60087377 3.07054429 0.525903963 3.07054429 0.0959395559 1.94787727 1.60087377 2.10901439 1.81579718 1.62525017 2.46080258 1.94787727 2.89076699 1.62525017 3.32073139 1.14125072 2.675726 0.00588091682 4.20629112 1.14125072 5.68559442 1.62525017 5.04058902 1.94787727 5.47055343 1.62525017 5.90051784 2.10913201 6.54552323 1.94787727 6.76044665 3.07054429 8.26538086"></polygon>
                                <polygon id="Shape" points="3.07066191 2.89088456 2.90940717 3.32084897 2.90940717 3.96573679 2.42552533 3.96573679 2.10289824 4.18089535 2.42552533 4.3957012 2.90940717 4.3957012 2.90940717 5.04070659 3.07066191 5.470671 3.07066191 2.89088456"></polygon>
                            </g>
                            <g id="Group" transform="translate(0.528062, 0.000000)" fill="#E69900">
                                <path d="M0.0641019933,4.08448551 L0.0641019933,3.65463867 L0.864259536,2.57966887 L0.703004797,2.36474545 L1.18688663,1.71974005 L1.02563189,1.50493421 L0.703004797,1.93489862 L0.541750057,1.71985763 L1.67088609,0.214923417 L1.83202321,0.429964407 L1.67088609,0.645005397 L2.00327551,1.07932 L2.7999045,0 L3.12888298,0 L1.99339557,1.50493421 L1.50951373,0.859928814 L1.18688663,1.28989322 L1.50951373,1.71985763 L1.02563189,2.36486302 L1.18688663,2.57978644 L0.0641019933,4.08472065 L0.0641019933,4.08448551 Z M0.0641019933,0 L1.03198328,0 L0.709238568,0.215158563 L0.225356733,0.215158563 L0.225356733,0.860046387 L0.063984375,1.29001079 L0.063984375,0.000117572985 L0.0641019933,0 Z" id="Shape"></path>
                            </g>
                            <g id="Group" transform="translate(16.877011, 0.000000)" fill="#E69900">
                                <path d="M3.07019143,4.08448551 L3.07019143,3.65463867 L2.27003389,2.57966887 L2.43140625,2.36474545 L1.9474068,1.71974005 L2.10877915,1.50481664 L2.43140625,1.93478104 L2.59266099,1.71974005 L1.46352496,0.214805844 L1.30227022,0.429846834 L1.46352496,0.644887824 L1.13101792,1.07920243 L0.334506549,0 L0.00541044347,0 L1.14089786,1.50493421 L1.62489732,0.859928814 L1.9474068,1.28989322 L1.62489732,1.71985763 L2.10877915,2.36486302 L1.9474068,2.57978644 L3.07019143,4.08472065 L3.07019143,4.08448551 Z M3.07019143,0 L2.10242776,0 L2.42493724,0.21504099 L2.90881908,0.21504099 L2.90881908,0.859928814 L3.07019143,1.28989322 L3.07019143,0.000117572985 L3.07019143,0 Z" id="Shape"></path>
                            </g>
                            <path d="M8.65807646,59.3382626 C8.65807646,59.3382626 9.35249512,58.1195011 11.1024207,57.7502043 C12.852464,57.38079 13.1580364,58.5626336 14.1579099,58.5626336 C15.157901,58.5626336 16.741279,57.7502043 16.741279,57.7502043 C16.741279,57.7502043 15.157901,59.3013447 13.9357288,59.2644268 C12.7135567,59.2275089 12.2968349,58.4519975 11.0469049,58.5627512 C9.79685719,58.673505 8.65807646,59.3751805 8.65807646,59.3382626 L8.65807646,59.3382626 Z" id="Shape" fill="#E69900"></path>
                            <path d="M12.0364279,59.3382626 C12.0364279,59.3382626 11.3420093,58.1195011 9.59196605,57.7502043 C7.84204044,57.38079 7.536468,58.5626336 6.53647691,58.5626336 C5.53648581,58.5626336 3.95322538,57.7502043 3.95322538,57.7502043 C3.95322538,57.7502043 5.53648581,59.3013447 6.75865794,59.2644268 C7.9809477,59.2275089 8.39755184,58.4519975 9.6474819,58.5627512 C10.8975296,58.673505 12.0363103,59.3751805 12.0363103,59.3382626 L12.0364279,59.3382626 Z" id="Shape" fill="#E69900"></path>
                            <g id="Group" transform="translate(1.586627, 48.087351)" fill="#E69900">
                                <path d="M4.72743379,9.23465255 C4.57335377,8.91214985 4.18815372,7.50515394 4.39351534,7.32926475 C4.70167538,7.21216206 5.5234747,8.64843365 5.44643469,9.93820929 C4.90715461,10.2313187 3.08395278,9.82087145 3.10959358,9.43969984 C3.2380328,8.91214985 4.26519373,9.08815661 4.72743379,9.23465255 L4.72743379,9.23465255 Z" id="Shape"></path>
                                <path d="M3.6254676,8.0049567 C3.52466869,7.64706453 3.36576631,6.16446919 3.59394589,6.04877737 C3.91363253,6.01891383 4.4952552,7.65035657 4.22014591,8.89122186 C3.64710937,9.02960526 1.92658835,8.12640959 2.01080308,7.76064003 C2.21816421,7.27976652 3.19592544,7.73442126 3.6254676,8.0049567 L3.6254676,8.0049567 Z" id="Shape"></path>
                                <path d="M2.73015682,6.62911762 C2.66193819,6.25782214 2.63606216,4.76053017 2.87294548,4.68187384 C3.1931026,4.70280183 3.62534998,6.4146645 3.24167897,7.60320981 C2.66029153,7.65000385 1.03257138,6.48109324 1.14854305,6.13119603 C1.39730584,5.68641743 2.3277845,6.29262374 2.73015682,6.62911762 L2.73015682,6.62911762 Z" id="Shape"></path>
                                <path d="M2.02421157,5.16404066 C1.99998219,4.78310418 2.14853415,3.2985101 2.39176887,3.26970472 C2.70557459,3.35647358 2.93340131,5.13699887 2.41623348,6.23195608 C1.8364927,6.15812025 0.364263988,4.66705965 0.51963781,4.34526239 C0.817094583,3.95727154 1.66571088,4.74842015 2.02421157,5.16404066 L2.02421157,5.16404066 Z" id="Shape"></path>
                                <path d="M1.53327263,3.62924291 C1.55032729,3.247601 1.85731115,1.80686164 2.10101634,1.82496788 C2.4022369,1.97087595 2.43599337,3.77667943 1.80614717,4.76111804 C1.24040298,4.57711631 -0.0559863281,2.81963533 0.132438247,2.53099365 C0.468591452,2.20402318 1.2232307,3.14930998 1.53327263,3.62924291 L1.53327263,3.62924291 Z" id="Shape"></path>
                                <path d="M1.67018038,1.88281378 C1.62854349,3.41102745 1.35072898,3.42889854 0.84344109,2.29937487 C0.619025304,1.87258494 0.591267377,0.100289756 0.793570916,0.0342137387 C1.0859701,0.0282175164 1.66229995,1.29212711 1.670298,1.88281378 L1.67018038,1.88281378 Z" id="Shape"></path>
                            </g>
                            <g id="Group" transform="translate(13.466079, 48.204924)" fill="#E69900">
                                <path d="M0.827327378,9.27791941 C0.981407399,8.95553428 1.36660745,7.5484208 1.16112822,7.37264918 C0.852968176,7.25542892 0.0312864775,8.69181808 0.108208869,9.98159372 C0.647488942,10.2745856 2.47069077,9.86425589 2.4451676,9.48308427 C2.31672837,8.95553428 1.28956744,9.13142347 0.827327378,9.27791941 L0.827327378,9.27791941 Z" id="Shape"></path>
                                <path d="M1.92917595,8.04822356 C2.02997487,7.69033139 2.18899486,6.20773605 1.96081529,6.0921618 C1.64101103,6.06229826 1.05950597,7.69374101 1.33461526,8.93448872 C1.9076518,9.07287212 3.6280552,8.16979402 3.54395809,7.80390689 C3.33659697,7.32303338 2.35871812,7.77768812 1.92917595,8.04822356 L1.92917595,8.04822356 Z" id="Shape"></path>
                                <path d="M2.82448673,6.67250206 C2.89270537,6.30120657 2.9185814,4.8039146 2.68169807,4.72525828 C2.36154096,4.74606869 1.92941119,6.45793136 2.31296459,7.64647667 C2.89435202,7.69327071 4.5221898,6.52447767 4.4061005,6.17446289 C4.15733772,5.72980186 3.22697668,6.3358906 2.82448673,6.67250206 L2.82448673,6.67250206 Z" id="Shape"></path>
                                <path d="M3.53043199,5.20730751 C3.55477898,4.82637104 3.4061094,3.34189453 3.1629923,3.31308915 C2.84918658,3.39985801 2.62124224,5.1803833 3.13841007,6.27522294 C3.71826847,6.2013871 5.19037957,4.71032651 5.03500574,4.38864682 C4.73766659,4.00065597 3.88893267,4.79168701 3.53043199,5.20730751 L3.53043199,5.20730751 Z" id="Shape"></path>
                                <path d="M4.02137092,3.67250977 C4.00443388,3.29098543 3.69745002,1.85024607 3.45362721,1.86835231 C3.15252427,2.01414281 3.11876781,3.81994629 3.748614,4.80450247 C4.3143582,4.62038317 5.61062988,2.86301976 5.42220531,2.57437808 C5.0860521,2.24729004 4.33141286,3.19257684 4.02137092,3.67250977 L4.02137092,3.67250977 Z" id="Shape"></path>
                                <path d="M3.88446318,1.92619822 C3.92610007,3.45441188 4.2040322,3.47228297 4.71120246,2.34264173 C4.93573587,1.91585179 4.96337618,0.143674188 4.76107264,0.0775981702 C4.46879107,0.071484375 3.89246122,1.33539397 3.88446318,1.92619822 L3.88446318,1.92619822 Z" id="Shape"></path>
                            </g>
                            <g id="Group" transform="translate(3.503029, 33.038297)">
                                <polygon id="Shape" stroke="#000000" stroke-width="0.534488531" fill="#980000" points="13.4333625 5.62384405 12.5030415 5.62384405 12.5030415 6.27733925 11.5727205 6.27733925 11.5727205 6.93083445 7.85143659 6.93083445 7.23128095 7.5845141 7.54127125 7.91116948 9.09174787 7.91116948 9.40191321 7.5845141 7.85143659 7.5845141 8.16160193 7.25767428 10.3324092 7.25767428 9.40208824 8.2380093 7.23128095 8.2380093 6.61095028 7.91116948 5.99079464 8.23782485 3.81998735 8.2380093 2.88966637 7.25730538 5.06047366 7.25767428 5.37046396 7.5845141 3.81998735 7.58414521 4.13015268 7.91116948 5.6806293 7.91116948 5.99079464 7.5845141 5.37046396 6.93083445 1.95934539 6.93083445 1.95934539 6.27733925 1.02902442 6.27733925 1.02902442 5.62384405 0.0987034382 5.62384405 0.0987034382 2.68283898 1.02902442 2.68283898 1.02902442 2.02934378 1.95934539 2.02934378 1.95934539 1.37584858 5.37046396 1.37584858 5.99079464 0.722168929 5.6806293 0.395513552 4.13015268 0.395513552 3.81998735 0.722537823 5.37046396 0.722168929 5.06047366 1.04900875 2.88966637 1.04937765 3.81998735 0.0686737284 5.99079464 0.0688581752 6.61095028 0.395513552 7.23128095 0.0686737284 9.40208824 0.0686737284 10.3324092 1.04900875 8.16160193 1.04900875 7.85143659 0.722168929 9.40191321 0.722168929 9.09174787 0.395513552 7.54127125 0.395513552 7.23128095 0.722168929 7.85143659 1.37584858 11.5727205 1.37584858 11.5727205 2.02934378 12.5030415 2.02934378 12.5030415 2.68283898 13.4333625 2.68283898 13.4333625 5.62384405"></polygon>
                                <polygon id="Shape" stroke="#E69900" stroke-width="1.04113019" fill="#004E00" points="0.409288293 3.01576555 0.409288293 5.3031832 1.33950925 5.3031832 1.33950925 5.95049943 2.26981773 5.95049943 2.26981773 6.60408685 5.37081681 6.60408685 6.61128645 7.58442188 7.85166858 6.60408685 11.2627413 6.60408685 11.2627413 5.95677062 12.1930498 5.95049943 12.1930498 5.296912 13.1233583 5.296912 13.1233583 3.00949436 12.1930498 3.00949436 12.1930498 2.35599915 11.2627413 2.36227035 11.2627413 1.70241173 7.85166858 1.70241173 6.61128645 0.722076706 5.37081681 1.70241173 2.26981773 1.70241173 2.26981773 2.36227035 1.33950925 2.36227035 1.33950925 3.01576555 0.409288293 3.01576555"></polygon>
                                <path d="M4.75106802,2.02951037 L2.89038985,3.6633525 L2.89038985,2.02951037 L4.75106802,2.02951037 L4.75106802,2.02951037 Z M8.47077796,2.02951037 L10.3314561,3.66350125 L10.3314561,2.02951037 L8.47077796,2.02951037 L8.47077796,2.02951037 Z M4.75106802,6.27833289 L2.89038985,4.64449076 L2.89038985,6.27833289 L4.75106802,6.27833289 L4.75106802,6.27833289 Z M8.47136597,6.27833289 L10.3318089,4.64434201 L10.3318089,6.27833289 L8.47136597,6.27833289 L8.47136597,6.27833289 Z M9.09182723,3.0096074 L8.47171877,3.66320375 L9.71205328,3.66320375 L9.09182723,3.0096074 L9.09182723,3.0096074 Z M4.13048916,3.0096074 L3.51038071,3.66320375 L4.75071522,3.66320375 L4.13048916,3.0096074 L4.13048916,3.0096074 Z M4.13048916,5.2986821 L3.51038071,4.64508575 L4.75071522,4.64508575 L4.13048916,5.2986821 L4.13048916,5.2986821 Z M9.09206243,5.2986821 L8.47195397,4.64508575 L9.71228849,4.64508575 L9.09206243,5.2986821 L9.09206243,5.2986821 Z" id="Shape" fill="#980000"></path>
                                <path d="M6.61068779,6.93192923 L5.99057933,6.27833289 L7.23091385,6.27833289 L6.61068779,6.93192923 L6.61068779,6.93192923 Z M6.61068779,3.66394749 L5.99057933,3.01035114 L7.23091385,3.01035114 L6.61068779,3.66394749 L6.61068779,3.66394749 Z M6.61068779,1.37576528 L5.99057933,2.02936163 L7.23091385,2.02936163 L6.61068779,1.37576528 L6.61068779,1.37576528 Z M6.61068779,4.64344953 L5.99057933,5.29704588 L7.23091385,5.29704588 L6.61068779,4.64344953 L6.61068779,4.64344953 Z" id="Shape" fill="#E69900"></path>
                                <polygon id="Shape" stroke="#000000" stroke-width="0.534488531" fill="#E69900" points="8.47225348 3.663174 9.7126356 3.663174 9.7126356 4.163174 8.47225348 4.163174"></polygon>
                                <path id="Shape" stroke="#000000" stroke-width="0.534488531" fill="#CC0000"></path>
                                <path d="M5.99113915,2.02989712 L7.23152128,2.02989712 L7.23152128,2.35664472 L5.99113915,2.35664472 L5.99113915,2.02989712 Z M5.99113915,2.68283898 L7.23152128,2.68283898 L7.23152128,3.00958658 L5.99113915,3.00958658 L5.99113915,2.68283898 Z" id="Shape" stroke="#000000" stroke-width="0.534488531" fill="#990000"></path>
                                <path d="M5.68132805,2.35636805 L7.541945,2.35636805 L7.541945,2.68311565 L5.68132805,2.68311565 L5.68132805,2.35636805 Z M5.99113915,5.29737312 L7.23152128,5.29737312 L7.23152128,5.62412072 L5.99113915,5.62412072 L5.99113915,5.29737312 Z M5.99113915,5.95123722 L7.23152128,5.95123722 L7.23152128,6.27798482 L5.99113915,6.27798482 L5.99113915,5.95123722 Z" id="Shape" stroke="#000000" stroke-width="0.534488531" fill="#990000"></path>
                                <polygon id="Shape" stroke="#000000" stroke-width="0.534488531" fill="#990000" points="5.68132805 5.62384405 7.541945 5.62384405 7.541945 6.12384405 5.68132805 6.12384405"></polygon>
                                <path d="M8.47225348,4.3170381 L9.7126356,4.3170381 L9.7126356,4.6437857 L8.47225348,4.6437857 L8.47225348,4.3170381 Z M3.51002482,3.663174 L4.75040695,3.663174 L4.75040695,3.9899216 L3.51002482,3.9899216 L3.51002482,3.663174 Z M3.51002482,4.3170381 L4.75040695,4.3170381 L4.75040695,4.6437857 L3.51002482,4.6437857 L3.51002482,4.3170381 Z" id="Shape" stroke="#000000" stroke-width="0.534488531" fill="#E69900"></path>
                                <path id="Shape" stroke="#000000" stroke-width="0.534488531" fill="#E69900"></path>
                                <circle id="Oval" fill="#FFFFFF" cx="6.01915685" cy="5.95780902" r="0.25"></circle>
                                <circle id="Oval" fill="#FFFFFF" cx="6.79179341" cy="5.95780902" r="0.25"></circle>
                                <circle id="Oval" fill="#FFFFFF" cx="7.56442997" cy="5.95096664" r="0.25"></circle>
                                <circle id="Oval" fill="#FFFFFF" cx="6.32844668" cy="5.63205208" r="0.25"></circle>
                                <circle id="Oval" fill="#FFFFFF" cx="7.24926011" cy="5.62520969" r="0.25"></circle>
                                <circle id="Oval" fill="#FFFFFF" cx="6.32139063" cy="6.27672358" r="0.25"></circle>
                                <circle id="Oval" fill="#FFFFFF" cx="7.24926011" cy="6.2902596" r="0.25"></circle>
                                <circle id="Oval" fill="#FFFFFF" cx="8.4852434" cy="4.30864591" r="0.25"></circle>
                                <circle id="Oval" fill="#FFFFFF" cx="9.25905596" cy="4.30864591" r="0.25"></circle>
                                <circle id="Oval" fill="#FFFFFF" cx="10.0316925" cy="4.30180352" r="0.25"></circle>
                                <circle id="Oval" fill="#FFFFFF" cx="8.79453322" cy="3.98288896" r="0.25"></circle>
                                <circle id="Oval" fill="#FFFFFF" cx="9.71534665" cy="3.97604658" r="0.25"></circle>
                                <circle id="Oval" fill="#FFFFFF" cx="8.78865319" cy="4.62756046" r="0.25"></circle>
                                <circle id="Oval" fill="#FFFFFF" cx="9.71534665" cy="4.64109648" r="0.25"></circle>
                                <circle id="Oval" fill="#FFFFFF" cx="6.01210081" cy="2.68655483" r="0.25"></circle>
                                <circle id="Oval" fill="#FFFFFF" cx="6.78591337" cy="2.68655483" r="0.25"></circle>
                                <circle id="Oval" fill="#FFFFFF" cx="7.55854993" cy="2.67986119" r="0.25"></circle>
                                <circle id="Oval" fill="#FFFFFF" cx="6.32139063" cy="2.36079789" r="0.25"></circle>
                                <circle id="Oval" fill="#FFFFFF" cx="7.24220406" cy="2.35410425" r="0.25"></circle>
                                <circle id="Oval" fill="#FFFFFF" cx="6.3155106" cy="3.00561814" r="0.25"></circle>
                                <circle id="Oval" fill="#FFFFFF" cx="7.24220406" cy="3.01915416" r="0.25"></circle>
                                <circle id="Oval" fill="#FFFFFF" cx="3.53307819" cy="4.33571794" r="0.25"></circle>
                                <circle id="Oval" fill="#FFFFFF" cx="4.30571474" cy="4.33571794" r="0.25"></circle>
                                <circle id="Oval" fill="#FFFFFF" cx="5.0783513" cy="4.32902431" r="0.25"></circle>
                                <circle id="Oval" fill="#FFFFFF" cx="3.84236801" cy="4.009961" r="0.25"></circle>
                                <circle id="Oval" fill="#FFFFFF" cx="4.76318144" cy="4.00326737" r="0.25"></circle>
                                <circle id="Oval" fill="#FFFFFF" cx="3.83531197" cy="4.65478125" r="0.25"></circle>
                                <circle id="Oval" fill="#FFFFFF" cx="4.76318144" cy="4.66831727" r="0.25"></circle>
                            </g>
                            <path d="M11.3365988,30.0698788 L11.869998,29.8200362 L12.4033971,30.0698788 L11.3365988,30.0698788 L11.3365988,30.0698788 Z M9.73651899,30.0698788 L10.2699181,29.8200362 L10.8031997,30.0698788 L9.73651899,30.0698788 L9.73651899,30.0698788 Z M8.13643914,30.0698788 L8.66983829,29.8200362 L9.20311983,30.0698788 L8.13632152,30.0698788 L8.13643914,30.0698788 Z M11.3365988,24.324087 L11.869998,24.5739296 L12.4033971,24.324087 L11.3365988,24.324087 L11.3365988,24.324087 Z M9.73651899,24.324087 L10.2699181,24.5739296 L10.8031997,24.324087 L9.73651899,24.324087 L9.73651899,24.324087 Z M8.13643914,24.324087 L8.66983829,24.5739296 L9.20311983,24.324087 L8.13632152,24.324087 L8.13643914,24.324087 Z" id="Shape" fill="#FFFFFF"></path>
                            <path d="M10.8920015,30.8197593 L10.2698005,31.3194445 L9.64736429,30.8197593 L9.02516329,31.3194445 L8.40296229,30.8197593 L8.40296229,31.0694843 L8.81768454,31.3195621 L8.61032341,31.5692871 L8.61032341,31.8191297 L8.81768454,31.8191297 L9.02516329,31.5692871 L9.23252441,31.8191297 L9.44000316,31.8191297 L9.44000316,31.5692871 L9.23252441,31.3195621 L9.64736429,31.0696019 L10.0623218,31.3195621 L9.85484303,31.5692871 L9.85484303,31.8191297 L10.0623218,31.8191297 L10.2696829,31.5692871 L10.477044,31.8191297 L10.6845228,31.8191297 L10.6845228,31.5692871 L10.477044,31.3195621 L10.8920015,31.0696019 L11.3068414,31.3194445 L11.0993626,31.5692871 L11.0993626,31.8191297 L11.3068414,31.8191297 L11.5142025,31.5692871 L11.7216813,31.8191297 L11.92916,31.8191297 L11.92916,31.5692871 L11.7216813,31.3194445 L12.1365211,31.0694843 L12.1365211,30.8197593 L11.5143201,31.3194445 L10.8920015,30.8197593 L10.8920015,30.8197593 Z M10.8921191,23.5730308 L10.2699181,23.0733456 L9.6474819,23.5730308 L9.02528091,23.0733456 L8.40307991,23.5730308 L8.40307991,23.3233058 L8.81791978,23.0732281 L8.61044103,22.823503 L8.61044103,22.5736604 L8.81791978,22.5736604 L9.02528091,22.823503 L9.23264203,22.5736604 L9.44012078,22.5736604 L9.44012078,22.823503 L9.23264203,23.0732281 L9.6474819,23.3231882 L10.0624394,23.0732281 L9.85496065,22.823503 L9.85496065,22.5736604 L10.0624394,22.5736604 L10.2698005,22.823503 L10.4771616,22.5736604 L10.6846404,22.5736604 L10.6846404,22.823503 L10.4771616,23.0732281 L10.8921191,23.3231882 L11.306959,23.0733456 L11.0994803,22.823503 L11.0994803,22.5736604 L11.306959,22.5736604 L11.5144378,22.823503 L11.7217989,22.5736604 L11.9292776,22.5736604 L11.9292776,22.823503 L11.7217989,23.0733456 L12.1366388,23.3233058 L12.1366388,23.5730308 L11.5144378,23.0733456 L10.8921191,23.5730308 L10.8921191,23.5730308 Z M15.6052035,27.7378187 L16.2719818,27.1965126 L15.6050859,26.655089 L16.2719818,26.113783 L15.6050859,25.572477 L15.9384162,25.572477 L16.2719818,25.9334261 L16.6051946,25.752834 L16.938525,25.752834 L16.938525,25.9333085 L16.6051946,26.113783 L16.938525,26.2942576 L16.938525,26.4747321 L16.6051946,26.4747321 L16.2719818,26.2942576 L15.9385339,26.6552066 L16.2719818,27.0161557 L16.6051946,26.8355636 L16.938525,26.8355636 L16.938525,27.0160381 L16.6051946,27.1965126 L16.938525,27.3769872 L16.938525,27.5574617 L16.6051946,27.5574617 L16.2719818,27.3769872 L15.9385339,27.7379362 L16.2717466,28.0988853 L16.6051946,27.9182932 L16.938525,27.9182932 L16.938525,28.0988853 L16.6051946,28.2792423 L16.938525,28.4597168 L16.938525,28.6401913 L16.6051946,28.6401913 L16.2717466,28.4597168 L15.9384162,28.8206659 L15.6052035,28.8206659 L16.2717466,28.2792423 L15.6052035,27.7379362 L15.6052035,27.7378187 Z M4.93522088,27.7378187 L4.26832491,27.1965126 L4.93522088,26.655089 L4.26832491,26.113783 L4.93522088,25.572477 L4.60189051,25.572477 L4.26832491,25.9334261 L3.93511216,25.752834 L3.60166418,25.752834 L3.60166418,25.9333085 L3.93511216,26.113783 L3.60166418,26.2942576 L3.60166418,26.4747321 L3.93511216,26.4747321 L4.26832491,26.2942576 L4.60177289,26.6552066 L4.26832491,27.0161557 L3.93511216,26.8355636 L3.60166418,26.8355636 L3.60166418,27.0160381 L3.93511216,27.1965126 L3.60166418,27.3769872 L3.60166418,27.5574617 L3.93511216,27.5574617 L4.26832491,27.3769872 L4.60177289,27.7379362 L4.26856014,28.0988853 L3.93511216,27.9182932 L3.60166418,27.9182932 L3.60166418,28.0988853 L3.93511216,28.2792423 L3.60166418,28.4597168 L3.60166418,28.6401913 L3.93511216,28.6401913 L4.26856014,28.4597168 L4.60189051,28.8206659 L4.93510326,28.8206659 L4.26856014,28.2792423 L4.93510326,27.7379362 L4.93522088,27.7378187 Z" id="Shape" fill="#004E00"></path>
                            <polygon id="Shape" stroke="#000000" stroke-width="0.5" fill="#004E00" points="15.870117 29.5700543 16.370117 29.5700543 16.370117 30.0700543 15.870117 30.0700543"></polygon>
                            <path d="M15.603532,29.8196753 L15.8702676,29.8196753 L15.8702676,30.0695783 L15.603532,30.0695783 L15.603532,29.8196753 Z M14.270005,31.0691904 L14.5367405,31.0691904 L14.5367405,31.3190934 L14.270005,31.3190934 L14.270005,31.0691904 Z M14.5367405,30.8195694 L14.803476,30.8195694 L14.803476,31.0694725 L14.5367405,31.0694725 L14.5367405,30.8195694 Z M5.73612407,30.8195694 L6.00285959,30.8195694 L6.00285959,31.0694725 L5.73612407,31.0694725 L5.73612407,30.8195694 Z M4.40214541,29.5700543 L4.66888093,29.5700543 L4.66888093,29.8199573 L4.40214541,29.8199573 L4.40214541,29.5700543 Z M4.67008515,29.8196753 L4.93682067,29.8196753 L4.93682067,30.0695783 L4.67008515,30.0695783 L4.67008515,29.8196753 Z M4.67008515,24.3237831 L4.93682067,24.3237831 L4.93682067,24.5736861 L4.67008515,24.5736861 L4.67008515,24.3237831 Z M4.40214541,24.5734041 L4.66888093,24.5734041 L4.66888093,24.8233071 L4.40214541,24.8233071 L4.40214541,24.5734041 Z M6.00285959,23.074268 L6.26959512,23.074268 L6.26959512,23.324171 L6.00285959,23.324171 L6.00285959,23.074268 Z" id="Shape" stroke="#000000" stroke-width="0.5" fill="#004E00"></path>
                            <path d="M5.73612407,23.323889 L6.00285959,23.323889 L6.00285959,23.573792 L5.73612407,23.573792 L5.73612407,23.323889 Z M14.270005,23.074268 L14.5367405,23.074268 L14.5367405,23.324171 L14.270005,23.324171 L14.270005,23.074268 Z M14.5367405,23.323889 L14.803476,23.323889 L14.803476,23.573792 L14.5367405,23.573792 L14.5367405,23.323889 Z M15.603532,24.3237831 L15.8702676,24.3237831 L15.8702676,24.5736861 L15.603532,24.5736861 L15.603532,24.3237831 Z" id="Shape" stroke="#000000" stroke-width="0.5" fill="#004E00"></path>
                            <path d="M15.870117,24.5734041 L16.1368526,24.5734041 L16.1368526,24.8233071 L15.870117,24.8233071 L15.870117,24.5734041 Z M6.00285959,31.0691904 L6.26959512,31.0691904 L6.26959512,31.3190934 L6.00285959,31.3190934 L6.00285959,31.0691904 Z" id="Shape" stroke="#000000" stroke-width="0.5" fill="#004E00"></path>
                            <path d="M9.45611687,27.1962775 L8.67007353,27.1961599 L8.66995591,26.7050576 L9.19406322,26.7054103 L9.19406322,26.2448769 L9.71828814,26.2448769 L9.71828814,25.8220844 L10.2423955,25.8220844 L10.2423955,26.350575 C9.80838379,26.350575 9.45611687,26.7087023 9.45611687,27.1962775 L9.45611687,27.1962775 Z" id="Shape" fill="#FFFFFF"></path>
                            <path d="M11.0283212,27.1962775 L11.8143645,27.1961599 L11.8144821,26.7050576 L11.2903748,26.7054103 L11.2903748,26.2448769 L10.7661499,26.2448769 L10.7661499,25.8220844 L10.2420426,25.8220844 L10.2420426,26.350575 C10.6760543,26.350575 11.0283212,26.7087023 11.0283212,27.1962775 L11.0283212,27.1962775 Z" id="Shape" fill="#E69900"></path>
                            <path d="M11.0283212,27.1962775 L11.8143645,27.1962775 L11.8144821,27.6873799 L11.2903748,27.6871447 L11.2903748,28.1475605 L10.7661499,28.1475605 L10.7661499,28.5704705 L10.2420426,28.5704705 L10.2420426,28.0418624 C10.6760543,28.0418624 11.0283212,27.6838527 11.0283212,27.1962775 L11.0283212,27.1962775 Z" id="Shape" fill="#FFFFFF"></path>
                            <path d="M9.45611687,27.1962775 L8.67007353,27.1962775 L8.66995591,27.6873799 L9.19406322,27.6871447 L9.19406322,28.1475605 L9.71828814,28.1475605 L9.71828814,28.5704705 L10.2423955,28.5704705 L10.2423955,28.0418624 C9.80838379,28.0418624 9.45611687,27.6838527 9.45611687,27.1962775 L9.45611687,27.1962775 Z" id="Shape" fill="#E69900"></path>
                            <path d="M11.0282036,27.1966302 L10.2420426,27.1966302 L10.2420426,26.3509277 C10.6760543,26.3509277 11.0282036,26.7298655 11.0282036,27.1966302 L11.0282036,27.1966302 Z" id="Shape" fill="#004E00"></path>
                            <path d="M11.0282036,27.1958072 L10.2420426,27.1958072 L10.2420426,28.0415097 C10.6760543,28.0415097 11.0282036,27.6626895 11.0282036,27.1959248 L11.0282036,27.1958072 Z" id="Shape" fill="#980000"></path>
                            <path d="M9.45623449,27.1958072 L10.2423955,27.1958072 L10.2423955,28.0415097 C9.80838379,28.0415097 9.45623449,27.6626895 9.45623449,27.1959248 L9.45623449,27.1958072 Z" id="Shape" fill="#004E00"></path>
                            <path d="M9.45623449,27.1966302 L10.2423955,27.1966302 L10.2423955,26.3509277 C9.80838379,26.3509277 9.45623449,26.7298655 9.45623449,27.1966302 L9.45623449,27.1966302 Z" id="Shape" fill="#980000"></path>
                            <path d="M11.0698404,30.3192511 L10.2698005,29.8194484 L9.4697606,30.3191336 L8.66972067,29.8194484 L7.86968075,30.3191336 L7.86968075,30.0694085 L8.40307991,29.8194484 L8.13632152,29.5696058 L8.13632152,29.3197632 L8.40307991,29.3197632 L8.66972067,29.5696058 L8.93636144,29.3197632 L9.20311983,29.3197632 L9.20311983,29.5696058 L8.93636144,29.8194484 L9.4697606,30.069291 L10.0031598,29.8194484 L9.73640137,29.5696058 L9.73640137,29.3197632 L10.0031598,29.3197632 L10.2698005,29.5696058 L10.5364413,29.3197632 L10.8031997,29.3197632 L10.8031997,29.5696058 L10.5364413,29.8194484 L11.0698404,30.069291 L11.6032396,29.8195659 L11.3365988,29.5696058 L11.3365988,29.3197632 L11.6032396,29.3197632 L11.8698804,29.5696058 L12.1365211,29.3197632 L12.4032795,29.3197632 L12.4032795,29.5696058 L12.1365211,29.8195659 L12.6699203,30.0694085 L12.6699203,30.3192511 L11.8698804,29.8195659 L11.0698404,30.3192511 L11.0698404,30.3192511 Z M11.0698404,24.0738917 L10.2698005,24.5735769 L9.4697606,24.0738917 L8.66972067,24.5735769 L7.86968075,24.0738917 L7.86968075,24.3236168 L8.40307991,24.5736945 L8.13632152,24.8234195 L8.13632152,25.0733797 L8.40307991,25.0733797 L8.66972067,24.8234195 L8.93636144,25.0733797 L9.20311983,25.0733797 L9.20311983,24.8234195 L8.93636144,24.5736945 L9.4697606,24.3237343 L10.0031598,24.5736945 L9.73640137,24.8234195 L9.73640137,25.0733797 L10.0031598,25.0733797 L10.2698005,24.8234195 L10.5364413,25.0733797 L10.8031997,25.0733797 L10.8031997,24.8234195 L10.5364413,24.5736945 L11.0698404,24.3237343 L11.6032396,24.5735769 L11.3365988,24.8234195 L11.3365988,25.0733797 L11.6032396,25.0733797 L11.8698804,24.8234195 L12.1365211,25.0733797 L12.4032795,25.0733797 L12.4032795,24.8234195 L12.1365211,24.5735769 L12.6699203,24.3236168 L12.6699203,24.0738917 L11.8698804,24.5735769 L11.0698404,24.0738917 L11.0698404,24.0738917 Z M14.0026537,27.8208252 L13.6025161,27.1961599 L14.0026537,26.5714947 L13.6025161,25.9468294 L14.0026537,25.3222817 L13.8027025,25.3222817 L13.6025161,25.7387252 L13.4025649,25.5303859 L13.2024961,25.5303859 L13.2024961,25.7387252 L13.4024473,25.9468294 L13.2024961,26.1550511 L13.2024961,26.3632729 L13.4024473,26.3632729 L13.6023985,26.1551687 L13.8025849,26.5714947 L13.6025161,26.9879382 L13.4025649,26.779834 L13.2024961,26.779834 L13.2024961,26.9879382 L13.4024473,27.1961599 L13.2024961,27.4042641 L13.2024961,27.6126034 L13.4024473,27.6126034 L13.6023985,27.4043817 L13.8025849,27.8208252 L13.6026337,28.2372687 L13.4025649,28.029047 L13.2024961,28.029047 L13.2024961,28.2372687 L13.4024473,28.4454905 L13.2024961,28.6535946 L13.2024961,28.861934 L13.4024473,28.861934 L13.6026337,28.6537122 L13.8025849,29.0701557 L14.002536,29.0701557 L13.6026337,28.4454905 L14.002536,27.8208252 L14.0026537,27.8208252 Z" id="Shape" fill="#004E00"></path>
                            <path d="M7.87048008,24.3239007 L6.80368852,25.3232307 L6.80368852,29.071071 L7.87048008,30.0705421 L12.6706658,30.0705421 L13.7374573,29.071071 L13.7374573,25.3232307 L12.6706658,24.3239007 L7.87048008,24.3239007 L7.87048008,24.3239007 Z M7.60374456,23.5741916 L4.93684093,26.0726578 L4.93684093,28.3213619 L7.60374456,30.8199691 L12.9374013,30.8199691 L15.6041544,28.3213619 L15.6041544,26.0726578 L12.9374013,23.5741916 L7.60374456,23.5741916 L7.60374456,23.5741916 Z" id="Shape" stroke="#000000" stroke-width="0.5" fill="#004E00"></path>
                            <polygon id="Shape" stroke="#000000" stroke-width="0.5" fill="#E69900" points="8.98969803 30.3203096 9.41635444 30.8203096 9.84313128 30.3203096"></polygon>
                            <polygon id="Shape" stroke="#000000" stroke-width="0.5" fill="#E69900" transform="translate(9.416415, 23.823539) scale(1, -1) translate(-9.416415, -23.823539) " points="8.98969803 23.5735387 9.41635444 24.0735387 9.84313128 23.5735387"></polygon>
                            <polygon id="Shape" stroke="#000000" stroke-width="0.5" fill="#E69900" transform="translate(11.123292, 23.823539) scale(1, -1) translate(-11.123292, -23.823539) " points="10.6965753 23.5735387 11.1232317 24.0735387 11.5500086 23.5735387"></polygon>
                            <polygon id="Shape" stroke="#000000" stroke-width="0.5" fill="#E69900" points="10.6965753 30.3203096 11.1232317 30.8203096 11.5500086 30.3203096"></polygon>
                            <polygon id="Shape" stroke="#000000" stroke-width="0.5" fill="#980000" transform="translate(8.563094, 23.823539) scale(1, -1) translate(-8.563094, -23.823539) " points="8.136377 23.5735387 8.56303341 24.0735387 8.98981024 23.5735387"></polygon>
                            <polygon id="Shape" stroke="#000000" stroke-width="0.5" fill="#980000" transform="translate(10.269853, 23.823539) scale(1, -1) translate(-10.269853, -23.823539) " points="9.84313668 23.5735387 10.2697931 24.0735387 10.6965699 23.5735387"></polygon>
                            <polygon id="Shape" stroke="#000000" stroke-width="0.5" fill="#980000" transform="translate(11.976613, 23.823539) scale(1, -1) translate(-11.976613, -23.823539) " points="11.5498964 23.5735387 11.9765528 24.0735387 12.4033296 23.5735387"></polygon>
                            <polygon id="Shape" stroke="#000000" stroke-width="0.5" fill="#980000" transform="translate(7.468454, 29.945915) scale(1, -1) translate(-7.468454, -29.945915) " points="7.06837196 30.3207384 7.86853684 29.5710918 7.06837196 29.5710918"></polygon>
                            <polygon id="Shape" fill="#004E00" points="6.53647691 27.8208252 6.93661449 27.1961599 6.53647691 26.5714947 6.93661449 25.9468294 6.53647691 25.3222817 6.73642808 25.3222817 6.93661449 25.7387252 7.13656566 25.5303859 7.33651683 25.5303859 7.33651683 25.7387252 7.13656566 25.9468294 7.33651683 26.1550511 7.33651683 26.3632729 7.13656566 26.3632729 6.93661449 26.1551687 6.7365457 26.5714947 6.93649687 26.9879382 7.13644804 26.779834 7.33651683 26.779834 7.33651683 26.9879382 7.13656566 27.1961599 7.33651683 27.4042641 7.33651683 27.6126034 7.13656566 27.6126034 6.93661449 27.4043817 6.7365457 27.8208252 6.93649687 28.2372687 7.13644804 28.029047 7.33651683 28.029047 7.33651683 28.2372687 7.13656566 28.4454905 7.33651683 28.6535946 7.33651683 28.861934 7.13656566 28.861934 6.93649687 28.6537122 6.73642808 29.0701557 6.53647691 29.0701557 6.93637925 28.4454905 6.53647691 27.8208252"></polygon>
                            <polygon id="Shape" stroke="#000000" stroke-width="0.5" fill="#980000" points="14.2701832 26.5216044 15.3369747 26.5216044 15.6035597 26.7716749 15.3369747 27.0216044 14.2701832 27.0216044 14.2701832 26.5216044"></polygon>
                            <polygon id="Shape" stroke="#000000" stroke-width="0.5" fill="#980000" points="7.06966466 24.8231426 6.53634414 25.3229487 6.53634414 29.0707889 7.06966466 29.5704539 6.26945809 29.5704539 6.26960862 24.8231426"></polygon>
                            <polygon id="Shape" stroke="#000000" stroke-width="0.5" fill="#980000" points="8.136377 30.3203096 8.56303341 30.8203096 8.98981024 30.3203096"></polygon>
                            <polygon id="Shape" stroke="#000000" stroke-width="0.5" fill="#980000" points="9.84313668 30.3203096 10.2697931 30.8203096 10.6965699 30.3203096"></polygon>
                            <polygon id="Shape" stroke="#000000" stroke-width="0.5" fill="#980000" points="11.5498964 30.3203096 11.9765528 30.8203096 12.4033296 30.3203096"></polygon>
                            <polygon id="Shape" stroke="#000000" stroke-width="0.5" fill="#980000" transform="translate(13.870402, 27.196798) scale(-1, 1) translate(-13.870402, -27.196798) " points="14.27043 24.8231426 13.7369589 25.3229487 13.7369589 29.0707889 14.27043 29.5704539 13.470374 29.5704539 13.470374 24.8231426"></polygon>
                            <polygon id="Shape" stroke="#000000" stroke-width="0.5" fill="#980000" transform="translate(13.070559, 29.945915) scale(-1, -1) translate(-13.070559, -29.945915) " points="12.6704761 30.3207384 13.470641 29.5710918 12.6704761 29.5710918"></polygon>
                            <polygon id="Shape" stroke="#000000" stroke-width="0.5" fill="#980000" transform="translate(13.070559, 24.447463) scale(-1, 1) translate(-13.070559, -24.447463) " points="12.6704761 24.8222862 13.470641 24.0726396 12.6704761 24.0726396"></polygon>
                            <polygon id="Shape" stroke="#000000" stroke-width="0.5" fill="#980000" points="7.06837196 24.8222862 7.86853684 24.0726396 7.06837196 24.0726396"></polygon>
                            <path d="M7.87048008,24.3239007 L6.80368852,25.3232307 L6.80368852,29.071071 L7.87048008,30.0705421 L12.6706658,30.0705421 L13.7374573,29.071071 L13.7374573,25.3232307 L12.6706658,24.3239007 L7.87048008,24.3239007 L7.87048008,24.3239007 Z M7.87032956,24.0738566 L6.536953,25.3230897 L6.536953,29.07093 L7.87048008,30.320163 L12.6706658,30.320163 L14.0040423,29.07093 L14.0040423,25.3230897 L12.6705153,24.0738566 L7.87032956,24.0738566 L7.87032956,24.0738566 Z" id="Shape" stroke="#000000" stroke-width="0.5" fill="#004E00"></path>
                            <polygon id="Shape" stroke="#000000" stroke-width="0.5" fill="#E69900" points="14.2700656 26.9710611 15.3368571 26.9710611 15.6034421 27.2211317 15.3368571 27.4710611 14.2700656 27.4710611 14.2700656 26.9710611"></polygon>
                            <polygon id="Shape" stroke="#000000" stroke-width="0.5" fill="#980000" points="14.2701832 27.4210377 15.3369747 27.4210377 15.6035597 27.6711083 15.3369747 27.9210377 14.2701832 27.9210377 14.2701832 27.4210377"></polygon>
                            <polygon id="Shape" stroke="#000000" stroke-width="0.5" fill="#E69900" points="14.2701832 27.8704944 15.3369747 27.8704944 15.6035597 28.120565 15.3369747 28.3704944 14.2701832 28.3704944 14.2701832 27.8704944"></polygon>
                            <polygon id="Shape" stroke="#000000" stroke-width="0.5" fill="#E69900" points="14.2701832 26.0715102 15.3369747 26.0715102 15.6035597 26.3215807 15.3369747 26.5715102 14.2701832 26.5715102 14.2701832 26.0715102"></polygon>
                            <polygon id="Shape" stroke="#000000" stroke-width="0.5" fill="#980000" transform="translate(5.602847, 26.771604) scale(-1, 1) translate(-5.602847, -26.771604) " points="4.93615893 26.5216044 6.00295049 26.5216044 6.26953548 26.7716749 6.00295049 27.0216044 4.93615893 27.0216044 4.93615893 26.5216044"></polygon>
                            <polygon id="Shape" stroke="#000000" stroke-width="0.5" fill="#E69900" transform="translate(5.602847, 27.221179) scale(-1, 1) translate(-5.602847, -27.221179) " points="4.93615893 26.9711787 6.00295049 26.9711787 6.26953548 27.2212492 6.00295049 27.4711787 4.93615893 27.4711787 4.93615893 26.9711787"></polygon>
                            <polygon id="Shape" stroke="#000000" stroke-width="0.5" fill="#980000" transform="translate(5.602847, 27.671038) scale(-1, 1) translate(-5.602847, -27.671038) " points="4.93615893 27.4210377 6.00295049 27.4210377 6.26953548 27.6711083 6.00295049 27.9210377 4.93615893 27.9210377 4.93615893 27.4210377"></polygon>
                            <polygon id="Shape" stroke="#000000" stroke-width="0.5" fill="#E69900" transform="translate(5.602847, 28.120612) scale(-1, 1) translate(-5.602847, -28.120612) " points="4.93615893 27.870612 6.00295049 27.870612 6.26953548 28.1206826 6.00295049 28.370612 4.93615893 28.370612 4.93615893 27.870612"></polygon>
                            <polygon id="Shape" stroke="#000000" stroke-width="0.5" fill="#E69900" transform="translate(5.602847, 26.321745) scale(-1, 1) translate(-5.602847, -26.321745) " points="4.93615893 26.0717453 6.00295049 26.0717453 6.26953548 26.3218159 6.00295049 26.5717453 4.93615893 26.5717453 4.93615893 26.0717453"></polygon>
                            <path d="M4.67008515,24.5734041 L4.67008515,29.8203804 L6.0034617,29.8203804 L6.0034617,31.0696135 L14.5373426,31.0696135 L14.5373426,29.8203804 L15.8707192,29.8203804 L15.8707192,24.5734041 L14.5373426,24.5734041 L14.5373426,23.324171 L6.0034617,23.324171 L6.0034617,24.5734041 L4.67008515,24.5734041 L4.67008515,24.5734041 Z M4.93667015,24.8233071 L4.93667015,29.5704774 L6.27019723,29.5704774 L6.27019723,30.8197105 L14.2707576,30.8197105 L14.2707576,29.5704774 L15.6041342,29.5704774 L15.6041342,24.8233071 L14.2707576,24.8233071 L14.2707576,23.573933 L6.27019723,23.573933 L6.27019723,24.8233071 L4.93667015,24.8233071 L4.93667015,24.8233071 Z" id="Shape" stroke="#000000" stroke-width="0.5" fill="#970000"></path>
                            <g id="Group" transform="translate(3.586139, 1.881168)">
                                <polygon id="Shape" stroke="#000000" stroke-width="0.5" fill="#980000" points="13.3504468 3.17716643 12.5503908 2.21602438 12.5503908 1.49520175 11.7503347 0.774514744 10.1502227 0.774514744 8.8168461 0.0536921139 4.54998092 0.0536921139 3.21645384 0.774514744 1.61634176 0.774514744 0.816285722 1.49533737 0.816285722 2.21616 0.0162296838 3.17716643 0.0162296838 5.09931491 0.816285722 6.06045695 0.816285722 6.78127958 1.61634176 7.50210221 3.21645384 7.50210221 4.54998092 8.22292484 8.8168461 8.22292484 10.1502227 7.50196659 11.7503347 7.50196659 12.5503908 6.78127958 12.5503908 6.06045695 13.3504468 5.09931491 13.3504468 3.17703081"></polygon>
                                <polygon id="Shape" fill="#E69900" points="0.285459702 4.13845151 0.285459702 4.85917391 1.08549963 5.82021549 1.08549963 6.54093789 1.88553955 7.26177786 3.4856194 7.26177786 4.81905848 7.98261783 6.68589671 7.98261783 6.68566148 4.13845151"></polygon>
                                <polygon id="Shape" fill="#980000" points="4.4330351 5.81962762 3.45903766 6.43747366 2.87717974 6.43747366 3.07125 6.64334396 2.68334473 7.0553197 2.87717974 7.26118999 3.45903766 7.0553197 3.65299029 7.26118999 3.74261546 6.71094842 4.81658849 6.05959408 4.43315272 5.81962762"></polygon>
                                <path d="M3.36682488,5.33910683 L2.39282744,5.95695287 L1.81096953,5.95695287 L2.00503978,6.16282317 L1.61713451,6.57479891 L1.81096953,6.78078678 L2.39282744,6.57479891 L2.58678007,6.78078678 L2.67640524,6.2305452 L3.75049589,5.57907329 L3.36682488,5.3392244 L3.36682488,5.33910683 Z M2.83307287,4.37853554 L1.85895781,4.99638158 L1.27733513,4.99638158 L1.47128777,5.20225188 L1.0833825,5.61422762 L1.27733513,5.82021549 L1.85907543,5.61422762 L2.05314568,5.82021549 L2.14265323,5.26997392 L3.21674388,4.618502 L2.83330811,4.37865311 L2.83307287,4.37853554 Z" id="Shape" fill="#980000"></path>
                                <polygon id="Shape" fill="#E69900" points="13.0819818 4.13845151 13.0819818 3.41761153 12.2819419 2.45656995 12.2819419 1.73584755 11.481902 1.01500758 9.88182215 1.01500758 8.54838307 0.294285182 6.68154484 0.294285182 6.68178007 4.13845151 13.0819818 4.13845151"></polygon>
                                <polygon id="Shape" fill="#980000" points="6.68425006 7.98250026 6.19048828 7.98250026 5.61768698 7.50197947 4.70896772 7.50197947 4.21508832 7.26166028 4.46208683 7.02145868 4.9558486 7.26166028 5.449728 7.26166028 5.94348977 6.54093789 6.68425006 6.78113949 6.68425006 7.26166028 5.94348977 7.26166028 6.68425006 7.98238268"></polygon>
                                <polygon id="Shape" fill="#FFFFFF" points="0.285459702 4.13845151 0.285459702 3.41761153 1.08549963 2.45656995 1.08549963 1.73584755 1.88553955 1.01500758 3.4856194 1.01500758 4.81905848 0.294285182 6.68589671 0.294285182 6.68566148 4.13845151"></polygon>
                                <polygon id="Shape" fill="#980000" points="6.68425006 0.29381489 6.19048828 0.29381489 5.61768698 0.774335681 4.70896772 0.774335681 4.21508832 1.01453729 4.46208683 1.25485647 4.9558486 1.01453729 5.449728 1.01453729 5.94348977 1.73537726 6.68425006 1.49505808 6.68425006 1.01465486 5.94348977 1.01465486 6.68425006 0.293932463"></polygon>
                                <polygon id="Shape" fill="#980000" points="6.68377958 0.29381489 7.17765898 0.29381489 7.75046028 0.774335681 8.65917954 0.774335681 9.15294132 1.01453729 8.90606043 1.25485647 8.41218104 1.01453729 7.91841926 1.01453729 7.42453987 1.73537726 6.68377958 1.49505808 6.68377958 1.01465486 7.42453987 1.01465486 6.68377958 0.293932463"></polygon>
                                <polygon id="Shape" fill="#FFFFFF" points="13.0819818 4.13845151 13.0819818 4.85917391 12.2819419 5.82021549 12.2819419 6.54093789 11.481902 7.26177786 9.88182215 7.26177786 8.54838307 7.98261783 6.68154484 7.98261783 6.68178007 4.13845151 13.0819818 4.13845151"></polygon>
                                <path d="M6.68377958,7.98250026 L7.17765898,7.98250026 L7.75046028,7.50197947 L8.65917954,7.50197947 L9.15294132,7.26166028 L8.90606043,7.02145868 L8.41218104,7.26166028 L7.91841926,7.26166028 L7.42453987,6.54093789 L6.68377958,6.78113949 L6.68377958,7.26166028 L7.42453987,7.26166028 L6.68377958,7.98238268 L6.68377958,7.98250026 Z M3.36682488,2.93673802 L2.39282744,2.31889199 L1.81096953,2.31889199 L2.00503978,2.11302169 L1.61713451,1.70104595 L1.81096953,1.49505808 L2.39282744,1.70104595 L2.58678007,1.49505808 L2.67640524,2.04529965 L3.75049589,2.69677156 L3.36682488,2.93662045 L3.36682488,2.93673802 Z M8.93428883,2.45668753 L9.90840389,1.83872392 L10.4902618,1.83872392 L10.2961915,1.63297119 L10.6840968,1.22099545 L10.4902618,1.01500758 L9.90840389,1.22099545 L9.71445126,1.01500758 L9.62482609,1.56524915 L8.55085306,2.21660349 L8.93428883,2.45668753 L8.93428883,2.45668753 Z" id="Shape" fill="#980000"></path>
                                <path d="M4.4330351,2.45668753 L3.45903766,1.83872392 L2.87717974,1.83872392 L3.07125,1.63297119 L2.68334473,1.22099545 L2.87717974,1.01500758 L3.45903766,1.22099545 L3.65299029,1.01500758 L3.74261546,1.56524915 L4.81658849,2.21660349 L4.43315272,2.45668753 L4.4330351,2.45668753 Z M2.83307287,3.8982499 L1.85895781,3.28040386 L1.27733513,3.28040386 L1.47128777,3.07453356 L1.0833825,2.66255782 L1.27733513,2.45656995 L1.85907543,2.66255782 L2.05314568,2.45656995 L2.14265323,3.0069291 L3.21674388,3.65828343 L2.83330811,3.8982499 L2.83307287,3.8982499 Z" id="Shape" fill="#980000"></path>
                                <polygon id="Shape" fill="#FFFFFF" points="0.758991125 4.13962724 1.00598963 4.13962724 1.25298814 4.37982884 1.49998664 4.13962724 6.685191 4.13939209 6.685191 7.50350792 6.43831012 7.50350792 6.68530862 7.7438271 6.68530862 7.98402871 5.94454834 7.26330631 5.94454834 7.02298712 6.19142923 7.02298712 6.19142923 7.26330631 6.43842773 7.26330631 6.43842773 7.02298712 4.43338795 5.96177336 2.74438864 5.96177336 2.74438864 4.92042943 1.99374842 4.37994642 1.49986903 4.37994642 1.25287052 4.62014803 1.49986903 4.86058478 1.25287052 4.86058478 0.758991125 4.13974481"></polygon>
                                <polygon id="Shape" fill="#E69900" points="0.758991125 4.1371582 1.00598963 4.1371582 1.25298814 3.89695659 1.49998664 4.1371582 6.685191 4.13739335 6.685191 0.773395097 6.43831012 0.773395097 6.68530862 0.533075915 6.68530862 0.292756733 5.94454834 1.01347913 5.94454834 1.25379831 6.19142923 1.25379831 6.19142923 1.01359671 6.43842773 1.01359671 6.43842773 1.25379831 4.43338795 2.31501208 2.74438864 2.31501208 2.74438864 3.35635601 1.99374842 3.89683902 1.49986903 3.89683902 1.25287052 3.65663741 1.49986903 3.41631823 1.25287052 3.41631823 0.758991125 4.13704063"></polygon>
                                <polygon id="Shape" fill="#004E00" points="1.88483384 4.13704063 6.68495577 4.13704063 6.68495577 7.02028295 4.55159438 5.81892218 2.95163215 5.81892218 2.95163215 4.8578806 1.88483384 4.13704063"></polygon>
                                <path d="M10.0006167,2.93673802 L10.9746141,2.31889199 L11.556472,2.31889199 L11.3624018,2.11302169 L11.750307,1.70104595 L11.556472,1.49505808 L10.9746141,1.70104595 L10.7806615,1.49505808 L10.6910363,2.04529965 L9.61694566,2.69677156 L10.0006167,2.93662045 L10.0006167,2.93673802 Z M10.5343687,3.8982499 L11.5084837,3.28040386 L12.090224,3.28040386 L11.8962714,3.07453356 L12.2841767,2.66255782 L12.090224,2.45656995 L11.5084837,2.66255782 L11.3144135,2.45656995 L11.2249059,3.0069291 L10.1508153,3.65828343 L10.5342511,3.8982499 L10.5343687,3.8982499 Z" id="Shape" fill="#980000"></path>
                                <polygon id="Shape" fill="#FFFFFF" points="12.6084504 4.1371582 12.3614519 4.1371582 12.1144534 3.89695659 11.8674549 4.1371582 6.68225055 4.13739335 6.68225055 0.773395097 6.92913143 0.773395097 6.68213293 0.533075915 6.68213293 0.292756733 7.42289321 1.01347913 7.42289321 1.25379831 7.17601232 1.25379831 7.17601232 1.01359671 6.92901382 1.01359671 6.92901382 1.25379831 8.9340536 2.31501208 10.6230529 2.31501208 10.6230529 3.35635601 11.3736931 3.89683902 11.8675725 3.89683902 12.114571 3.65663741 11.8675725 3.41631823 12.114571 3.41631823 12.6084504 4.13704063"></polygon>
                                <polygon id="Shape" fill="#004E00" points="11.4826077 4.13974481 6.68248578 4.13974481 6.68248578 1.25650249 8.81584717 2.45786326 10.4158094 2.45786326 10.4158094 3.41890484"></polygon>
                                <polygon id="Shape" fill="#980000" points="8.93428883 5.81962762 9.90840389 6.43747366 10.4902618 6.43747366 10.2961915 6.64334396 10.6840968 7.0553197 10.4902618 7.26118999 9.90840389 7.0553197 9.71445126 7.26118999 9.62482609 6.71094842 8.55085306 6.05959408"></polygon>
                                <path d="M10.0006167,5.33910683 L10.9746141,5.95695287 L11.556472,5.95695287 L11.3624018,6.16282317 L11.750307,6.57479891 L11.556472,6.78078678 L10.9746141,6.57479891 L10.7806615,6.78078678 L10.6910363,6.2305452 L9.61694566,5.57907329 L10.0006167,5.3392244 L10.0006167,5.33910683 Z M10.5343687,4.37853554 L11.5084837,4.99638158 L12.090224,4.99638158 L11.8962714,5.20225188 L12.2841767,5.61422762 L12.090224,5.82021549 L11.5084837,5.61422762 L11.3144135,5.82021549 L11.2249059,5.26997392 L10.1508153,4.618502 L10.5342511,4.37865311 L10.5343687,4.37853554 Z" id="Shape" fill="#980000"></path>
                                <polygon id="Shape" fill="#E69900" points="12.6084504 4.13962724 12.3614519 4.13962724 12.1144534 4.37982884 11.8674549 4.13962724 6.68225055 4.13939209 6.68225055 7.50350792 6.92913143 7.50350792 6.68213293 7.7438271 6.68213293 7.98402871 7.42289321 7.26330631 7.42289321 7.02298712 7.17601232 7.02298712 7.17601232 7.26330631 6.92901382 7.26330631 6.92901382 7.02298712 8.9340536 5.96177336 10.6230529 5.96177336 10.6230529 4.92042943 11.3736931 4.37994642 11.8675725 4.37994642 12.114571 4.62014803 11.8675725 4.86058478 12.114571 4.86058478 12.6084504 4.13974481"></polygon>
                                <polygon id="Shape" fill="#980000" points="11.4826077 4.13704063 6.68248578 4.13704063 6.68248578 7.02028295 8.81584717 5.81892218 10.4158094 5.81892218 10.4158094 4.8578806 11.4826077 4.13704063"></polygon>
                                <polygon id="Shape" fill="#980000" points="1.88483384 4.13974481 6.68495577 4.13974481 6.68495577 1.25650249 4.55159438 2.45786326 2.95163215 2.45786326 2.95163215 3.41890484"></polygon>
                                <path d="M7.21059211,4.13833393 L8.55002973,3.41749396 L9.35006965,3.41749396 L9.08331126,3.17729235 L9.61671042,2.69665399 L9.35006965,2.45645238 L8.55002973,2.69665399 L8.28327134,2.45645238 L8.16012494,3.09840088 L6.68319149,3.85839266 L7.21059211,4.13833393 L7.21059211,4.13833393 Z M6.15684944,4.13704063 L4.81741182,4.85799818 L4.0173719,4.85799818 L4.28413028,5.09819978 L3.75073113,5.57872057 L4.0173719,5.81903976 L4.81741182,5.57872057 L5.08417021,5.81903976 L5.20731661,5.17709126 L6.68425006,4.41698191 L6.15684944,4.1371582 L6.15684944,4.13704063 Z" id="Shape" fill="#980000"></path>
                                <path d="M6.15684944,4.13833393 L4.81741182,3.41749396 L4.0173719,3.41749396 L4.28413028,3.17729235 L3.75073113,2.69665399 L4.0173719,2.45645238 L4.81741182,2.69665399 L5.08417021,2.45645238 L5.20731661,3.09840088 L6.68425006,3.85839266 L6.15684944,4.13833393 L6.15684944,4.13833393 Z M7.21059211,4.13704063 L8.55002973,4.85799818 L9.35006965,4.85799818 L9.08331126,5.09819978 L9.61671042,5.57872057 L9.35006965,5.81903976 L8.55002973,5.57872057 L8.28327134,5.81903976 L8.16012494,5.17709126 L6.68319149,4.41698191 L7.21059211,4.1371582 L7.21059211,4.13704063 Z" id="Shape" fill="#004E00"></path>
                                <polygon id="Shape" fill="#FFFFFF" points="5.08381735 4.13856908 6.68377958 2.93709074 8.28397705 4.13856908 6.68377958 5.33992984"></polygon>
                                <polygon id="Shape" fill="#980000" points="1.49869284 4.618502 1.74569135 4.85870361 1.49869284 5.0990228 1.25169434 5.0990228 0.510934053 4.13798121 0.75793256 4.13798121 1.25169434 4.85870361 1.49869284 4.85870361 1.25169434 4.618502 1.49869284 4.37818282 1.99245462 4.37818282 1.99245462 4.618502 1.49869284 4.618502"></polygon>
                                <path d="M1.49869284,3.657578 L1.74569135,3.41737639 L1.49869284,3.17705721 L1.25169434,3.17705721 L0.510934053,4.13809879 L0.75793256,4.13809879 L1.25169434,3.41737639 L1.49869284,3.41737639 L1.25169434,3.657578 L1.49869284,3.89789718 L1.99245462,3.89789718 L1.99245462,3.657578 L1.49869284,3.657578 L1.49869284,3.657578 Z M11.8692192,4.618502 L11.6222207,4.85870361 L11.8692192,5.0990228 L12.1162177,5.0990228 L12.8568604,4.13798121 L12.6098618,4.13798121 L12.1161001,4.85870361 L11.8691016,4.85870361 L12.1161001,4.618502 L11.8691016,4.37818282 L11.3753398,4.37818282 L11.3753398,4.618502 L11.8692192,4.618502 L11.8692192,4.618502 Z" id="Shape" fill="#980000"></path>
                                <path d="M11.8692192,3.657578 L11.6222207,3.41737639 L11.8692192,3.17705721 L12.1162177,3.17705721 L12.8568604,4.13809879 L12.6098618,4.13809879 L12.1161001,3.41737639 L11.8691016,3.41737639 L12.1161001,3.657578 L11.8691016,3.89789718 L11.3753398,3.89789718 L11.3753398,3.657578 L11.8692192,3.657578 L11.8692192,3.657578 Z M6.4368987,3.17705721 L6.93066047,3.17705721 L6.93066047,5.09914037 L6.4368987,5.09914037 L6.4368987,3.17705721 Z" id="Shape" fill="#980000"></path>
                                <polygon id="Shape" fill="#980000" points="5.69613841 3.65769557 7.67142075 3.65769557 7.67142075 4.61873715 5.69625603 4.61873715"></polygon>
                            </g>
                            <g id="Group" transform="translate(3.586139, 42.561421)">
                                <polygon id="Shape" stroke="#000000" stroke-width="0.5" fill="#004E00" points="4.45854064 0.00749645354 0.013784869 2.41148836 0.013784869 6.41799076 4.45854064 8.82198266 8.9032964 8.82198266 13.3480522 6.41799076 13.3480522 2.41148836 8.9032964 0.00749645354"></polygon>
                                <path d="M1.66653421,4.02934378 L1.93529211,4.02934378 L1.93529211,3.53671297 L2.47304314,3.53671297 L2.47304314,4.02934378 L2.74180104,4.02934378 L2.74180104,2.87971513 L2.47304314,2.87971513 L2.47304314,3.37234593 L1.93529211,3.37234593 L1.93529211,2.87971513 L1.66653421,2.87971513 L1.66653421,4.02934378 L1.66653421,4.02934378 Z M8.4767535,7.86151766 L8.7455114,7.86151766 L8.7455114,7.36876927 L9.28326244,7.36876927 L9.28326244,7.86140008 L9.55202034,7.86140008 L9.55202034,6.71177143 L9.28326244,6.71177143 L9.28326244,7.20451981 L8.7455114,7.20451981 L8.7455114,6.71188901 L8.4767535,6.71188901 L8.4767535,7.86151766 L8.4767535,7.86151766 Z M4.17568618,2.11325684 L4.44444408,2.11325684 L4.44444408,1.62062603 L4.98231273,1.62062603 L4.98231273,2.11325684 L5.25107063,2.11325684 L5.25107063,0.963628187 L4.98231273,0.963628187 L4.98231273,1.45625899 L4.44444408,1.45625899 L4.44444408,0.963628187 L4.17568618,0.963628187 L4.17568618,2.11325684 L4.17568618,2.11325684 Z M8.11860567,2.11325684 L8.38736357,2.11325684 L8.38736357,1.62062603 L8.92523222,1.62062603 L8.92523222,2.11325684 L9.19399012,2.11325684 L9.19399012,0.963628187 L8.92523222,0.963628187 L8.92523222,1.45625899 L8.38736357,1.45625899 L8.38736357,0.963628187 L8.11860567,0.963628187 L8.11860567,2.11325684 L8.11860567,2.11325684 Z M10.6265815,4.02934378 L10.8953394,4.02934378 L10.8953394,3.53671297 L11.433208,3.53671297 L11.433208,4.02934378 L11.7019659,4.02934378 L11.7019659,2.87971513 L11.433208,2.87971513 L11.433208,3.37234593 L10.8953394,3.37234593 L10.8953394,2.87971513 L10.6265815,2.87971513 L10.6265815,4.02934378 L10.6265815,4.02934378 Z M10.6265815,5.94543072 L10.8953394,5.94543072 L10.8953394,5.45268233 L11.433208,5.45268233 L11.433208,5.94543072 L11.7019659,5.94543072 L11.7019659,4.79568449 L11.433208,4.79568449 L11.433208,5.28843287 L10.8953394,5.28843287 L10.8953394,4.79580207 L10.6265815,4.79580207 L10.6265815,5.94543072 L10.6265815,5.94543072 Z" id="Shape" fill="#CC0000"></path>
                                <path d="M6.6838972,8.62856381 L6.6838972,4.41298443 L13.1359687,4.41298443 L13.1359687,6.32918894 L8.8346661,8.62856381 L6.6838972,8.62856381 L6.6838972,8.62856381 Z M6.68401482,0.196699604 L6.68401482,4.41239656 L0.231943359,4.41239656 L0.231943359,2.49607448 L4.53324592,0.196582031 L6.68401482,0.196582031 L6.68401482,0.196699604 Z" id="Shape" fill="#E69900"></path>
                                <path d="M6.6838972,0.196699604 L6.6838972,4.41239656 L13.1359687,4.41239656 L13.1359687,2.49607448 L8.8346661,0.196582031 L6.6838972,0.196582031 L6.6838972,0.196699604 Z M6.68401482,8.62856381 L6.6838972,4.413102 L0.231943359,4.41298443 L0.231943359,6.32918894 L4.53324592,8.62856381 L6.68401482,8.62856381 L6.68401482,8.62856381 Z" id="Shape" fill="#FFFFFF"></path>
                                <path d="M10.125429,2.69159835 L12.7061416,2.69159835 L10.125429,1.54178158 L10.125429,2.69159835 L10.125429,2.69159835 Z M13.1363615,2.49992617 L13.1362402,4.4163235 L9.05000059,4.4163235 L9.05000059,2.88327053 L8.18980352,2.88327053 L7.11449649,2.30836215 L7.11449649,0.966873201 L7.75958359,0.391964818 L6.89938652,0.391964818 L6.89938652,2.30836215 L6.68427656,2.30836215 L6.68427656,0.200292635 L8.83501202,0.200292635 L13.1363615,2.49992617 L13.1363615,2.49992617 Z" id="Shape" stroke="#000000" stroke-width="0.5" fill="#E69900"></path>
                                <polygon id="Shape" fill="#980000" points="4.52948213 3.07053608 4.52948213 5.75284617 5.17450109 5.75284617 6.68025103 6.51942203 8.18576574 5.75284617 8.83090232 5.75284617 8.83090232 3.07053608 8.18588336 3.07053608 6.68025103 2.30396022 5.17450109 3.07053608 4.52948213 3.07053608"></polygon>
                                <path d="M3.67270294,6.9003632 L6.25341554,6.9003632 L3.67270294,5.75054644 L3.67270294,6.9003632 L3.67270294,6.9003632 Z M6.68363547,6.70869102 L6.68351407,8.62508835 L2.59727451,8.62508835 L2.59727451,7.09203539 L1.73707744,7.09203539 L0.661770407,6.517127 L0.661770407,5.17563806 L1.30685751,4.60072967 L0.446660443,4.60072967 L0.446660443,6.517127 L0.231550479,6.517127 L0.231550479,4.40905749 L2.38228594,4.40905749 L6.68363547,6.70869102 L6.68363547,6.70869102 Z" id="Shape" stroke="#000000" stroke-width="0.5" fill="#E69900" transform="translate(3.457593, 6.517073) scale(-1, -1) translate(-3.457593, -6.517073) "></path>
                                <path d="M3.67270294,2.69159835 L6.25341554,2.69159835 L3.67270294,1.54178158 L3.67270294,2.69159835 L3.67270294,2.69159835 Z M6.68363547,2.49992617 L6.68351407,4.4163235 L2.59727451,4.4163235 L2.59727451,2.88327053 L1.73707744,2.88327053 L0.661770407,2.30836215 L0.661770407,0.966873201 L1.30685751,0.391964818 L0.446660443,0.391964818 L0.446660443,2.30836215 L0.231550479,2.30836215 L0.231550479,0.200292635 L2.38228594,0.200292635 L6.68363547,2.49992617 L6.68363547,2.49992617 Z" id="Shape" stroke="#000000" stroke-width="0.5" fill="#FFFFFF" transform="translate(3.457593, 2.308308) scale(-1, 1) translate(-3.457593, -2.308308) "></path>
                                <path d="M10.1255466,6.9003632 L12.7062592,6.9003632 L10.1255466,5.75054644 L10.1255466,6.9003632 L10.1255466,6.9003632 Z M13.1364792,6.70869102 L13.1363578,8.62508835 L9.05011821,8.62508835 L9.05011821,7.09203539 L8.18992114,7.09203539 L7.1146141,6.517127 L7.1146141,5.17563806 L7.75970121,4.60072967 L6.89950414,4.60072967 L6.89950414,6.517127 L6.68439418,6.517127 L6.68439418,4.40905749 L8.83512964,4.40905749 L13.1364792,6.70869102 L13.1364792,6.70869102 Z" id="Shape" stroke="#000000" stroke-width="0.5" fill="#FFFFFF" transform="translate(9.910437, 6.517073) scale(1, -1) translate(-9.910437, -6.517073) "></path>
                                <path d="M1.52327507,5.94660645 L1.79203297,5.94660645 L1.79203297,5.37167455 L2.32990163,5.37167455 L2.32990163,5.94660645 L2.59865952,5.94660645 L2.59865952,4.60533383 L2.32990163,4.60533383 L2.32990163,5.18026573 L1.79203297,5.18026573 L1.79203297,4.60533383 L1.52327507,4.60533383 L1.52327507,5.94660645 L1.52327507,5.94660645 Z M4.10288043,7.86269339 L4.37163833,7.86269339 L4.37163833,7.28776149 L4.90950698,7.28776149 L4.90950698,7.86269339 L5.17826488,7.86269339 L5.17826488,6.5213032 L4.90950698,6.5213032 L4.90950698,7.09623509 L4.37163833,7.09623509 L4.37163833,6.5213032 L4.10288043,6.5213032 L4.10288043,7.86269339 L4.10288043,7.86269339 Z M1.52327507,2.88018542 L1.79203297,2.88018542 L1.79203297,3.45511732 L2.32990163,3.45511732 L2.32990163,2.88018542 L2.59865952,2.88018542 L2.59865952,4.22145803 L2.32990163,4.22145803 L2.32990163,3.64652614 L1.79203297,3.64652614 L1.79203297,4.22145803 L1.52327507,4.22145803 L1.52327507,2.88018542 L1.52327507,2.88018542 Z M4.10288043,0.963863333 L4.37163833,0.963863333 L4.37163833,1.53879523 L4.90950698,1.53879523 L4.90950698,0.963863333 L5.17826488,0.963863333 L5.17826488,2.30513595 L4.90950698,2.30513595 L4.90950698,1.73020405 L4.37163833,1.73020405 L4.37163833,2.30513595 L4.10288043,2.30513595 L4.10288043,0.963863333 L4.10288043,0.963863333 Z M8.19023524,7.86269339 L8.45899314,7.86269339 L8.45899314,7.28776149 L8.99686179,7.28776149 L8.99686179,7.86269339 L9.26561969,7.86269339 L9.26561969,6.5213032 L8.99686179,6.5213032 L8.99686179,7.09623509 L8.45899314,7.09623509 L8.45899314,6.5213032 L8.19023524,6.5213032 L8.19023524,7.86269339 L8.19023524,7.86269339 Z M10.7710168,4.22110531 L11.0397747,4.22110531 L11.0397747,3.64617342 L11.5776433,3.64617342 L11.5776433,4.22110531 L11.8464012,4.22110531 L11.8464012,2.87971513 L11.5776433,2.87971513 L11.5776433,3.45464702 L11.0397747,3.45464702 L11.0397747,2.87971513 L10.7710168,2.87971513 L10.7710168,4.22110531 L10.7710168,4.22110531 Z" id="Shape" fill="#980000"></path>
                                <polygon id="Shape" fill="#980000" points="8.19023524 7.86269339 8.45899314 7.86269339 8.45899314 7.28776149 8.99686179 7.28776149 8.99686179 7.86269339 9.26561969 7.86269339 9.26561969 6.5213032 8.99686179 6.5213032 8.99686179 7.09623509 8.45899314 7.09623509 8.45899314 6.5213032 8.19023524 6.5213032"></polygon>
                                <path d="M8.19023524,7.86269339 L8.45899314,7.86269339 L8.45899314,7.28776149 L8.99686179,7.28776149 L8.99686179,7.86269339 L9.26561969,7.86269339 L9.26561969,6.5213032 L8.99686179,6.5213032 L8.99686179,7.09623509 L8.45899314,7.09623509 L8.45899314,6.5213032 L8.19023524,6.5213032 L8.19023524,7.86269339 L8.19023524,7.86269339 Z M10.7710168,5.94543072 L11.0397747,5.94543072 L11.0397747,5.37049882 L11.5776433,5.37049882 L11.5776433,5.94543072 L11.8464012,5.94543072 L11.8464012,4.60404053 L11.5776433,4.60404053 L11.5776433,5.17897242 L11.0397747,5.17897242 L11.0397747,4.60404053 L10.7710168,4.60404053 L10.7710168,5.94543072 L10.7710168,5.94543072 Z M8.19023524,2.30501837 L8.45899314,2.30501837 L8.45899314,1.73008648 L8.99686179,1.73008648 L8.99686179,2.30501837 L9.26561969,2.30501837 L9.26561969,0.963628187 L8.99686179,0.963628187 L8.99686179,1.53856008 L8.45899314,1.53856008 L8.45899314,0.963628187 L8.19023524,0.963628187 L8.19023524,2.30501837 L8.19023524,2.30501837 Z" id="Shape" fill="#980000"></path>
                                <polygon id="Shape" fill="#004E00" points="6.89925638 4.41274928 7.75951689 3.71389546 8.18964714 3.71389546 8.18964714 4.0632048 7.75951689 4.0632048 7.75951689 4.23791825 8.40465346 4.23791825 8.40465346 3.53929957 7.75951689 3.53929957 7.75951689 3.01527678 6.89925638 3.01527678 6.89925638 3.539182 7.11438031 3.539182 7.11438031 3.18975509 7.54439295 3.18975509 7.54439295 3.539182 6.68425006 4.23791825 5.82387193 3.53929957 5.82387193 3.19010781 6.25400218 3.19010781 6.25400218 3.53929957 6.46912612 3.53929957 6.46912612 3.01527678 5.60886561 3.01539435 5.60886561 3.53929957 4.9634938 3.53929957 4.9634938 4.2381534 5.60874799 4.2381534 5.60874799 4.06343994 5.17850011 4.06343994 5.17850011 3.71401303 5.60874799 3.71401303 6.4690085 4.41263171 5.60874799 5.11125039 5.17861773 5.11125039 5.17861773 4.76205862 5.60874799 4.76205862 5.60874799 4.58722759 4.96361141 4.58722759 4.96361141 5.28596384 5.60874799 5.28596384 5.60874799 5.80986906 6.4690085 5.81010421 6.4690085 5.28596384 6.25400218 5.28596384 6.25400218 5.63539075 5.82387193 5.63539075 5.82387193 5.28596384 6.68401482 4.58734516 7.54439295 5.28619899 7.54439295 5.63539075 7.11438031 5.63539075 7.11438031 5.28619899 6.89913876 5.28619899 6.89913876 5.81010421 7.75939927 5.81010421 7.75939927 5.28619899 8.40465346 5.28596384 8.40465346 4.58734516 7.75939927 4.58734516 7.75939927 4.76205862 8.18964714 4.76205862 8.18964714 5.11148553 7.75939927 5.11148553 6.89913876 4.41274928"></polygon>
                            </g>
                            <g id="Group" transform="translate(3.549818, 13.064459)">
                                <polygon id="Shape" fill="#980000" points="0.685632662 4.20125879 1.10201369 3.7809639 3.59945008 3.7809639 5.47255773 1.88974953 7.97011552 1.88974953 9.84322316 3.7809639 12.3409023 3.7809639 12.757162 4.20114612 12.3409023 4.62144101 9.84334456 4.62144101 7.97023691 6.51265538 5.47243634 6.51265538 3.59932869 4.62144101 1.1017709 4.62144101 0.685389875 4.20125879"></polygon>
                                <polygon id="Shape" stroke="#000000" stroke-width="0.5" fill="#980000" points="0.914512578 4.24252017 1.12959451 4.04287481 3.71035171 4.04287481 5.64597612 2.0465236 7.79668246 2.0465236 9.73230687 4.04287481 12.3131771 4.04287481 12.528259 4.24252017 12.3131771 4.4420631 9.73230687 4.4420631 8.0117644 6.23876894 5.43100721 6.23876894 3.71035171 4.4420631 1.12959451 4.4420631 0.914512578 4.24252017"></polygon>
                                <path d="M7.76058967,4.41118089 L8.59310894,5.25154532 L8.1769707,5.67184022 L7.96878019,5.46169277 L7.76071107,5.46169277 L7.76071107,5.67184022 L7.96878019,5.88198767 L8.38516121,5.88198767 L8.80129945,5.46169277 L8.80129945,5.04139787 L7.96890158,4.20103344 L8.80129945,3.36044364 L8.80129945,2.94014874 L8.38503982,2.51996652 L7.96890158,2.51996652 L7.76071107,2.73000129 L7.76071107,2.94014874 L7.96890158,2.94014874 L8.1769707,2.73000129 L8.59310894,3.15029619 L7.76071107,3.99088599 L6.92807041,3.15029619 L7.76071107,2.30970639 L7.76071107,2.0997843 L7.55252055,2.0997843 L6.72012269,2.94014874 L5.88748203,2.09955894 L5.67929152,2.09955894 L5.67929152,2.30970639 L6.51193217,3.15029619 L5.67929152,3.99088599 L4.84677225,3.15029619 L5.26303188,2.73000129 L5.4712224,2.94014874 L5.67929152,2.94014874 L5.67929152,2.73000129 L5.4712224,2.51996652 L5.05484137,2.51996652 L4.63858174,2.94026142 L4.63858174,3.36044364 L5.4712224,4.20103344 L4.63858174,5.04162323 L4.63858174,5.46180545 L5.05496277,5.88210035 L5.4712224,5.88210035 L5.67929152,5.6719529 L5.67929152,5.46180545 L5.4712224,5.46180545 L5.26303188,5.6719529 L4.84677225,5.251658 L5.67929152,4.41106821 L6.51181078,5.251658 L5.67929152,6.0922478 L5.67929152,6.30228257 L5.88736063,6.30228257 L6.72000129,5.46169277 L7.55252055,6.30228257 L7.76058967,6.30228257 L7.76058967,6.09213512 L6.92807041,5.25154532 L7.76058967,4.41118089 L7.76058967,4.41118089 Z M6.72000129,3.36044364 L5.88736063,4.20103344 L6.72000129,5.04162323 L7.55252055,4.20103344 L6.72000129,3.36044364 L6.72000129,3.36044364 Z M5.47280052,6.51175394 L5.47280052,8.19270818 L5.68099103,7.98256073 L5.88918154,8.19270818 L6.09725066,7.98256073 L6.30531978,8.19270818 L6.51351029,7.98256073 L6.72157941,8.19270818 L6.92976992,7.98256073 L7.13796044,8.19270818 L7.34602956,7.98256073 L7.55422007,8.19270818 L7.76216779,7.98256073 L7.97035831,8.19270818 L7.97035831,6.51175394 L5.47280052,6.51175394 L5.47280052,6.51175394 Z M7.96914437,1.89189044 L7.96914437,0.210936207 L7.76095386,0.421083656 L7.55276334,0.210936207 L7.34469422,0.421083656 L7.1366251,0.210936207 L6.92843459,0.421083656 L6.72036547,0.210936207 L6.51217496,0.421083656 L6.30398445,0.210936207 L6.09591533,0.421083656 L5.88772482,0.210936207 L5.67977709,0.421083656 L5.47158658,0.210936207 L5.47158658,1.89189044 L7.96914437,1.89189044 L7.96914437,1.89189044 Z M11.5075333,3.78378089 L11.5075333,2.10282665 L11.2993428,2.3129741 L11.0913951,2.10282665 L10.8832046,2.3129741 L10.6750141,2.10282665 L10.4669449,2.3129741 L10.2587544,2.10282665 L10.0506853,2.3129741 L9.8426162,2.10282665 L9.8426162,3.78378089 L11.5075333,3.78378089 L11.5075333,3.78378089 Z M3.59872172,3.78378089 L3.59872172,2.10282665 L3.39053121,2.3129741 L3.18258348,2.10282665 L2.97439297,2.3129741 L2.76620246,2.10282665 L2.55813334,2.3129741 L2.34994283,2.10282665 L2.14187371,2.3129741 L1.93380459,2.10282665 L1.93380459,3.78378089 L3.59872172,3.78378089 L3.59872172,3.78378089 Z M11.5075333,4.6209903 L11.5075333,6.30194453 L11.2993428,6.09179708 L11.0913951,6.30194453 L10.8832046,6.09179708 L10.6750141,6.30194453 L10.4669449,6.09179708 L10.2587544,6.30194453 L10.0506853,6.09179708 L9.8426162,6.30194453 L9.8426162,4.6209903 L11.5075333,4.6209903 L11.5075333,4.6209903 Z M3.59872172,4.6209903 L3.59872172,6.30194453 L3.39053121,6.09179708 L3.18258348,6.30194453 L2.97439297,6.09179708 L2.76620246,6.30194453 L2.55813334,6.09179708 L2.34994283,6.30194453 L2.14187371,6.09179708 L1.93380459,6.30194453 L1.93380459,4.6209903 L3.59872172,4.6209903 L3.59872172,4.6209903 Z" id="Shape" fill="#E69900"></path>
                                <path d="M7.96987273,6.51175394 L7.96987273,7.56237851 L8.17794185,7.35211838 L8.38613236,7.56237851 L8.59420148,7.35211838 L8.8022706,7.56237851 L9.01046111,7.35211838 L9.21853023,7.56237851 L9.42672075,7.35211838 L9.63478986,7.56237851 L9.84298038,7.35211838 L9.84298038,4.62053958 L7.96987273,6.51175394 L7.96987273,6.51175394 Z M5.47085822,6.51175394 L5.47085822,7.56249119 L5.2626677,7.35223106 L5.05447719,7.56249119 L4.84640807,7.35223106 L4.63833895,7.56249119 L4.43014844,7.35223106 L4.22207932,7.56249119 L4.01388881,7.35223106 L3.80581969,7.56249119 L3.59762918,7.35223106 L3.59775057,4.62053958 L5.47085822,6.51175394 L5.47085822,6.51175394 Z M5.47085822,1.89189044 L5.47085822,0.841265875 L5.2627891,1.051526 L5.05459858,0.841265875 L4.84652946,1.051526 L4.63846035,0.841265875 L4.43026983,1.051526 L4.22220071,0.841265875 L4.0140102,1.051526 L3.80594108,0.841265875 L3.59775057,1.051526 L3.59775057,3.78310481 L5.47085822,1.89189044 L5.47085822,1.89189044 Z M7.96987273,1.89189044 L7.96987273,0.841265875 L8.17794185,1.051526 L8.38613236,0.841265875 L8.59420148,1.051526 L8.8022706,0.841265875 L9.01046111,1.051526 L9.21853023,0.841265875 L9.42672075,1.051526 L9.63478986,0.841265875 L9.84298038,1.051526 L9.84298038,3.78310481 L7.96987273,1.89189044 L7.96987273,1.89189044 Z M1.93283344,5.88255107 L1.72464292,5.67240362 L1.5166952,5.88255107 L1.30862608,5.67240362 L1.10043557,5.88255107 L0.892245055,5.67240362 L0.684054542,5.88255107 L0.476106817,5.67240362 L0.267916304,5.88255107 L0.267916304,2.52041724 L0.475985423,2.73067737 L0.684054542,2.52041724 L0.892245055,2.73067737 L1.10031417,2.52041724 L1.30850469,2.73067737 L1.51657381,2.52041724 L1.72464292,2.73067737 L1.93283344,2.52041724 L1.93283344,3.78130193 L1.10043557,3.78130193 L0.684054542,4.20159683 L1.10043557,4.62189173 L1.93283344,4.62189173 L1.93283344,5.88255107 L1.93283344,5.88255107 Z M11.5078975,5.88255107 L11.716088,5.67240362 L11.9240357,5.88255107 L12.1321049,5.67240362 L12.3402954,5.88255107 L12.5484859,5.67240362 L12.7566764,5.88255107 L12.9646241,5.67240362 L13.1728146,5.88255107 L13.1728146,2.52041724 L12.9647455,2.73067737 L12.7566764,2.52041724 L12.5484859,2.73067737 L12.3404168,2.52041724 L12.1322263,2.73067737 L11.9241571,2.52041724 L11.716088,2.73067737 L11.5078975,2.52041724 L11.5078975,3.78130193 L12.3402954,3.78130193 L12.7566764,4.20159683 L12.3402954,4.62189173 L11.5078975,4.62189173 L11.5078975,5.88255107 L11.5078975,5.88255107 Z" id="Shape" fill="#004E00"></path>
                                <path d="M4.44787195,6.6456173 C4.44787195,6.6456173 4.27452148,6.81170703 4.27452148,6.89463922 C4.27112245,6.9720501 4.45952576,7.14557668 4.53466857,7.14377381 C4.63299762,7.14557668 4.79481567,6.97768408 4.79481567,6.89475189 C4.79481567,6.81170703 4.62122241,6.6456173 4.62122241,6.6456173 L4.62122241,6.31343785 C4.62122241,6.31343785 4.99802903,6.88449805 4.99802903,6.63536346 C4.99802903,6.45665362 4.62134381,6.14734812 4.62134381,6.14734812 L4.44787195,6.14734812 C4.44787195,6.14734812 4.07118672,6.50950035 4.07118672,6.63525078 C4.07118672,6.88449805 4.44787195,6.31343785 4.44787195,6.31343785 L4.44787195,6.6456173 L4.44787195,6.6456173 Z" id="Shape" fill="#FFFFFF"></path>
                                <path d="M6.61633091,7.28687689 C6.61633091,7.28687689 6.4081404,7.5193349 6.4081404,7.63562025 C6.40401301,7.74401802 6.63016982,7.98695523 6.72036547,7.9843636 C6.83823894,7.98695523 7.03259055,7.75190559 7.03259055,7.63562025 C7.03259055,7.5193349 6.82440003,7.28687689 6.82440003,7.28687689 L6.82440003,6.8218482 C6.82440003,6.8218482 7.19307326,7.58254816 7.19307326,7.2338048 C7.19307326,7.00833293 6.82440003,6.58927751 6.82440003,6.58927751 L6.61633091,6.58927751 C6.61633091,6.58927751 6.19072395,7.11391371 6.24765769,7.2338048 C6.24765769,7.58254816 6.61633091,6.8218482 6.61633091,6.8218482 L6.61633091,7.28687689 L6.61633091,7.28687689 Z" id="Shape" fill="#980000"></path>
                                <ellipse id="Oval" fill="#004E00" cx="4.43195667" cy="4.24108845" rx="0.416223556" ry="0.25"></ellipse>
                                <ellipse id="Oval" fill="#004E00" cx="6.72144534" cy="4.24108845" rx="0.416223556" ry="0.25"></ellipse>
                                <ellipse id="Oval" fill="#004E00" cx="9.00972008" cy="4.24108845" rx="0.416223556" ry="0.25"></ellipse>
                                <path d="M4.40417015,1.77583046 C4.40417015,1.77583046 4.23081968,1.60974073 4.23081968,1.52680855 C4.22742065,1.44928498 4.41582396,1.2757584 4.49096678,1.27767396 C4.58929582,1.2757584 4.75111387,1.443651 4.75111387,1.52669587 C4.75111387,1.60974073 4.57752062,1.77583046 4.57752062,1.77583046 L4.57752062,2.10800991 C4.57752062,2.10800991 4.95432723,1.53694971 4.95432723,1.7860843 C4.95432723,1.96479414 4.57764201,2.27398696 4.57764201,2.27398696 L4.40417015,2.27398696 C4.40417015,2.27398696 4.02748492,1.91194741 4.02748492,1.7860843 C4.02748492,1.53706239 4.40417015,2.10800991 4.40417015,2.10800991 L4.40417015,1.77583046 L4.40417015,1.77583046 Z" id="Shape" fill="#FFFFFF"></path>
                                <path d="M6.57262912,1.13378211 C6.57262912,1.13378211 6.3644386,0.901324101 6.3644386,0.785038756 C6.36031121,0.676640983 6.58646802,0.433703771 6.67666367,0.436295402 C6.79453714,0.433703771 6.98888875,0.668753411 6.98888875,0.785038756 C6.98888875,0.901324101 6.78069823,1.13378211 6.78069823,1.13378211 L6.78069823,1.59881081 C6.78069823,1.59881081 7.14937146,0.838110847 7.14937146,1.1868542 C7.14937146,1.41232608 6.78069823,1.8313815 6.78069823,1.8313815 L6.57262912,1.8313815 C6.57262912,1.8313815 6.14702215,1.30674529 6.20395589,1.1868542 C6.20395589,0.838110847 6.57262912,1.59881081 6.57262912,1.59881081 L6.57262912,1.13378211 L6.57262912,1.13378211 Z" id="Shape" fill="#980000"></path>
                                <path d="M8.87874875,6.6456173 C8.87874875,6.6456173 8.70539828,6.81170703 8.70539828,6.89463922 C8.70199925,6.9720501 8.89040256,7.14557668 8.96554538,7.14377381 C9.06387442,7.14557668 9.22569247,6.97768408 9.22569247,6.89475189 C9.22569247,6.81170703 9.05209922,6.6456173 9.05209922,6.6456173 L9.05209922,6.31343785 C9.05209922,6.31343785 9.42890584,6.88449805 9.42890584,6.63536346 C9.42890584,6.45665362 9.05222061,6.14734812 9.05222061,6.14734812 L8.87874875,6.14734812 C8.87874875,6.14734812 8.50206352,6.50950035 8.50206352,6.63525078 C8.50206352,6.88449805 8.87874875,6.31343785 8.87874875,6.31343785 L8.87874875,6.6456173 L8.87874875,6.6456173 Z M8.83504695,1.77583046 C8.83504695,1.77583046 8.66169648,1.60974073 8.66169648,1.52680855 C8.65829745,1.44928498 8.84670076,1.2757584 8.92184358,1.27767396 C9.02017262,1.2757584 9.18199067,1.443651 9.18199067,1.52669587 C9.18199067,1.60974073 9.00839742,1.77583046 9.00839742,1.77583046 L9.00839742,2.10800991 C9.00839742,2.10800991 9.38520404,1.53694971 9.38520404,1.7860843 C9.38520404,1.96479414 9.00851881,2.27398696 9.00851881,2.27398696 L8.83504695,2.27398696 C8.83504695,2.27398696 8.45836172,1.91194741 8.45836172,1.7860843 C8.45836172,1.53706239 8.83504695,2.10800991 8.83504695,2.10800991 L8.83504695,1.77583046 L8.83504695,1.77583046 Z" id="Shape" fill="#FFFFFF"></path>
                                <path d="M2.63752494,5.47543968 C2.63752494,5.47543968 2.40687656,5.63127557 2.40687656,5.70913717 C2.40238498,5.78170283 2.65282057,5.94452485 2.75284913,5.94283465 C2.88346895,5.94452485 3.0988217,5.78699877 3.0988217,5.70913717 C3.0988217,5.63127557 2.86817332,5.47543968 2.86817332,5.47543968 L2.86817332,5.1638806 C2.86817332,5.1638806 3.27654235,5.67353042 3.27654235,5.43994561 C3.27654235,5.28872959 2.86805193,5.00804471 2.86805193,5.00804471 L2.63740355,5.00804471 C2.63740355,5.00804471 2.16615248,5.35949238 2.22915591,5.43983293 C2.22915591,5.67353042 2.63752494,5.16376792 2.63752494,5.16376792 L2.63752494,5.47543968 L2.63752494,5.47543968 Z M2.58896739,3.09542122 C2.58896739,3.09542122 2.358319,2.93958534 2.358319,2.86172374 C2.35382743,2.78915808 2.60426301,2.62622338 2.70429158,2.62802625 C2.8349114,2.62633606 3.05026415,2.78386214 3.05026415,2.86172374 C3.05026415,2.93958534 2.81961577,3.09542122 2.81961577,3.09542122 L2.81961577,3.40698031 C2.81961577,3.40698031 3.2279848,2.89721781 3.2279848,3.1309153 C3.2279848,3.28213132 2.81949437,3.5628162 2.81949437,3.5628162 L2.58884599,3.5628162 C2.58884599,3.5628162 2.11759493,3.21125585 2.18059836,3.13102798 C2.18059836,2.89733049 2.58896739,3.40709299 2.58896739,3.40709299 L2.58896739,3.09542122 L2.58896739,3.09542122 Z M10.6313123,5.42552262 C10.6313123,5.42552262 10.4006639,5.58147119 10.4006639,5.65933279 C10.3961723,5.73189845 10.6466079,5.89472047 10.7466365,5.89303027 C10.8772563,5.89472047 11.092609,5.73719439 11.092609,5.65933279 C11.092609,5.58147119 10.8619606,5.4256353 10.8619606,5.4256353 L10.8619606,5.11407621 C10.8619606,5.11407621 11.2703297,5.62372603 11.2703297,5.39014123 C11.2703297,5.23892521 10.8618393,4.95824033 10.8618393,4.95824033 L10.6311909,4.95824033 C10.6311909,4.95824033 10.1599398,5.309688 10.2229432,5.39002855 C10.2229432,5.62372603 10.6313123,5.11396353 10.6313123,5.11396353 L10.6313123,5.4256353 L10.6313123,5.42552262 Z M10.5827547,3.0458422 C10.5827547,3.0458422 10.3521063,2.89000632 10.3521063,2.81214472 C10.3476148,2.73957906 10.5980503,2.57664436 10.6980789,2.57844723 C10.8286987,2.57675704 11.0440515,2.73428311 11.0440515,2.81214472 C11.0440515,2.89000632 10.8134031,3.0458422 10.8134031,3.0458422 L10.8134031,3.35740129 C10.8134031,3.35740129 11.2217721,2.84763879 11.2217721,3.08133627 C11.2217721,3.23255229 10.8132817,3.51323717 10.8132817,3.51323717 L10.5826333,3.51323717 C10.5826333,3.51323717 10.1113823,3.16167683 10.1743857,3.08144895 C10.1743857,2.84775147 10.5827547,3.35751397 10.5827547,3.35751397 L10.5827547,3.0458422 L10.5827547,3.0458422 Z" id="Shape" fill="#980000"></path>
                                <path d="M0.936553823,5.44952338 C0.861896583,5.30563153 0.881562393,5.23993933 0.881562393,5.15689446 C0.878163364,5.07948358 1.0898743,4.92871828 1.16513851,4.93052115 C1.26334616,4.92871828 1.4252856,5.09661088 1.4252856,5.17954306 C1.4252856,5.26258792 1.429413,5.33436483 1.38911023,5.47746792 L1.28070549,5.23475606 C1.14911452,5.57910491 1.14195228,5.58710517 1.06377461,5.22641777 L0.936553823,5.44952338 L0.936553823,5.44952338 Z M0.943837456,3.03446156 C0.869180217,3.17846609 0.888846026,3.24427097 0.888846026,3.32720316 C0.885446997,3.40461404 1.09715793,3.55537934 1.17242214,3.55357647 C1.27062979,3.55537934 1.43256924,3.38748674 1.43256924,3.30455456 C1.43256924,3.22150969 1.43669663,3.14973279 1.39639386,3.0066297 L1.28798912,3.24934155 C1.15639815,2.9049927 1.14923591,2.89699245 1.07105825,3.25767984 L0.943837456,3.03457424 L0.943837456,3.03446156 Z M12.1630603,5.41909989 C12.0884031,5.27520804 12.1080689,5.20951583 12.1080689,5.12647097 C12.1046698,5.04906009 12.3163808,4.89829479 12.391645,4.90009766 C12.4898526,4.89829479 12.6517921,5.06618739 12.6517921,5.14911957 C12.6517921,5.23216443 12.6559195,5.30394134 12.6156167,5.44704443 L12.507212,5.20433257 C12.375621,5.54868142 12.3684588,5.55668167 12.2902811,5.19599428 L12.1630603,5.41909989 L12.1630603,5.41909989 Z M12.16913,3.00347467 C12.0944728,3.14736652 12.1141386,3.21305872 12.1141386,3.29610359 C12.1107395,3.37351447 12.3224505,3.52427977 12.3977147,3.5224769 C12.4959223,3.52427977 12.6578618,3.35638717 12.6578618,3.27345499 C12.6578618,3.19041013 12.6619892,3.11863322 12.6216864,2.97553013 L12.5132817,3.21824199 C12.3816907,2.87389314 12.3745285,2.86589288 12.2963508,3.22658028 L12.16913,3.00347467 L12.16913,3.00347467 Z" id="Shape" fill="#FFFFFF"></path>
                                <path d="M5.42994848,8.23386197 L5.42994848,7.6349759 L3.49444437,7.6349759 L3.49444437,6.43720375 L1.77392884,6.43720375 L1.77392884,6.03798393 L0.26840188,6.03798393 L0.26840188,2.4446675 L1.77392884,2.4446675 L1.77392884,2.04544768 L3.49444437,2.04544768 L3.49444437,0.847675531 L5.42994848,0.847675531 L5.42994848,0.248789459 L8.01078247,0.248789459 L8.01078247,0.847675531 L9.94640797,0.847675531 L9.94640797,2.04544768 L11.6669235,2.04544768 L11.6669235,2.4446675 L13.1724505,2.4446675 L13.1724505,6.03798393 L11.6669235,6.03798393 L11.6669235,6.43720375 L9.94640797,6.43720375 L9.94640797,7.6349759 L8.01078247,7.6349759 L8.01078247,8.23386197 L5.42994848,8.23386197 L5.42994848,8.23386197 Z M5.21483851,8.43352822 L5.21483851,7.83464215 L3.27933441,7.83464215 L3.27933441,6.63687 L1.55881888,6.63687 L1.55881888,6.23765018 L0.0532919155,6.23765018 L0.0532919155,2.24511393 L1.55881888,2.24511393 L1.55881888,1.84578143 L3.27933441,1.84578143 L3.27933441,0.648009281 L5.21495991,0.648009281 L5.21495991,0.0491232092 L8.22589244,0.0491232092 L8.22589244,0.648009281 L10.1615179,0.648009281 L10.1615179,1.84578143 L11.8820335,1.84578143 L11.8820335,2.24511393 L13.3875604,2.24511393 L13.3875604,6.23765018 L11.8820335,6.23765018 L11.8820335,6.63687 L10.1615179,6.63687 L10.1615179,7.83464215 L8.22589244,7.83464215 L8.22589244,8.43352822 L5.21483851,8.43352822 L5.21483851,8.43352822 Z" id="Shape" stroke="#000000" stroke-width="0.5" fill="#980000"></path>
                            </g>
                        </g>
                    </g>
                </g>
            </g>
        </g>
    </g>
</svg>