<?xml version="1.0" encoding="UTF-8" standalone="no"?>
<svg width="122px" height="60px" viewBox="0 0 122 60" version="1.1" xmlns="http://www.w3.org/2000/svg" xmlns:xlink="http://www.w3.org/1999/xlink">
    <!-- Generator: Sketch 3.8.2 (29753) - http://www.bohemiancoding.com/sketch -->
    <title>kh</title>
    <desc>Created with Sketch.</desc>
    <defs></defs>
    <g id="Page-1" stroke="none" stroke-width="1" fill="none" fill-rule="evenodd">
        <g id="kh">
            <g>
                <polygon id="Shape" fill="#1B0073" points="0 0 122 0 122 60 0 60"></polygon>
                <polygon id="Shape" fill="#E60006" points="0 15.0500002 122 15.0500002 122 45.1486844 0 45.1486844"></polygon>
                <g id="Group" transform="translate(34.692496, 15.402061)" stroke="#E60000" fill="#FFFFFF">
                    <polygon id="Shape" stroke-width="0.1" points="6.72860476 13.7636815 44.980848 13.7636815 44.980848 19.9515477 6.72860476 19.9515477"></polygon>
                    <polygon id="Shape" stroke-width="0.1" points="6.70180834 19.9518769 6.0839628 21.4078302 45.6260776 21.4078302 45.0082321 19.9518769"></polygon>
                    <polygon id="Shape" stroke-width="0.1" points="36.9197854 19.9519945 36.1702084 21.4079478 45.1651322 21.4079478 44.4155552 19.9519945"></polygon>
                    <polygon id="Shape" stroke-width="0.1" points="39.0881447 19.9519945 38.7106266 21.4079478 43.2408436 21.4079478 42.8633255 19.9519945"></polygon>
                    <polygon id="Shape" stroke-width="0.1" points="39.7576615 19.9519945 39.513673 21.4079478 42.4415346 21.4079478 42.1975461 19.9519945"></polygon>
                    <polygon id="Shape" stroke-width="0.1" points="21.9145948 19.9518769 21.1266272 21.4078302 30.5822379 21.4078302 29.7942704 19.9518769"></polygon>
                    <polygon id="Shape" stroke-width="0.1" points="6.51388081 13.670211 45.1967473 13.670211 45.1967473 15.1262348 6.51388081 15.1262348"></polygon>
                    <polygon id="Shape" stroke-width="0.1" points="36.8622377 13.7770848 44.4435093 13.7770848 44.4435093 19.9404959 36.8622377 19.9404959"></polygon>
                    <path d="M42.2854572,16.6653828 L43.0436313,16.6653828 L43.0436313,19.9400256 L42.2855747,19.9400256 L42.2854572,16.6653828 Z M38.9497729,16.6653828 L39.7078295,16.6653828 L39.7078295,19.9400256 L38.9497729,19.9400256 L38.9497729,16.6653828 Z" id="Shape" stroke-width="0.1"></path>
                    <polygon id="Shape" stroke-width="0.1" points="23.8502483 19.9518769 23.454437 21.4078302 28.2041731 21.4078302 27.8083618 19.9518769"></polygon>
                    <polygon id="Shape" stroke-width="0.1" points="24.6133646 19.9518769 24.3651157 21.4078302 27.344102 21.4078302 27.0958532 19.9518769"></polygon>
                    <polygon id="Shape" stroke-width="0.1" points="21.8220414 13.7636815 29.8101954 13.7636815 29.8101954 19.9515477 21.8220414 19.9515477"></polygon>
                    <path d="M28.1867789,16.6647949 L28.9448356,16.6647949 L28.9448356,19.9395553 L28.1867789,19.9395553 L28.1867789,16.6647949 Z M22.9114099,16.6645598 L23.6699366,16.6645598 L23.6699366,19.9392026 L22.9114099,19.9392026 L22.9114099,16.6645598 Z" id="Shape" stroke-width="0.1"></path>
                    <polygon id="Shape" stroke-width="0.1" points="23.9205067 12.2663895 27.7888286 12.2663895 27.7888286 19.9500193 23.9206242 19.9500193"></polygon>
                    <path d="M26.8221595,16.6646773 L27.5802161,16.6646773 L27.5802161,19.9393201 L26.8221595,19.9393201 L26.8221595,16.6646773 Z M24.2760294,16.6647949 L25.0346736,16.6647949 L25.0346736,19.9394377 L24.2760294,19.9394377 L24.2760294,16.6647949 Z" id="Shape" stroke-width="0.1"></path>
                    <polygon id="Shape" stroke-width="0.1" points="24.1729076 13.5011002 25.8069509 15.8617136 27.5371857 13.5011002"></polygon>
                    <polygon id="Shape" stroke-width="0.1" points="39.8704885 13.7636815 42.0194909 13.7636815 42.0194909 21.4073364 39.8704885 21.4073364"></polygon>
                    <polygon id="Shape" stroke-width="0.1" points="40.2282442 13.7636815 41.6595022 13.7636815 41.6595022 21.4073364 40.2282442 21.4073364"></polygon>
                    <g transform="translate(6.464049, 13.756039)" id="Shape" stroke-width="0.1">
                        <polygon points="0.750135243 6.19595523 0.000493618278 7.65190854 8.99619311 7.65190854 8.24655149 6.19595523"></polygon>
                        <polygon points="2.55162453 6.19595523 2.19918695 7.65190854 6.42843784 7.65190854 6.07600027 6.19595523"></polygon>
                        <polygon points="3.17927192 6.19595523 2.95439941 7.65190854 5.6528695 7.65190854 5.427997 6.19595523"></polygon>
                        <polygon points="0.694003793 0.00764224404 8.21557106 0.00764224404 8.21557106 6.19550845 0.694003793 6.19550845"></polygon>
                        <path d="M2.16052019,2.90957866 L2.91857683,2.90957866 L2.91857683,6.18433902 L2.16052019,6.18433902 L2.16052019,2.90957866 Z M5.64793332,2.90969624 L6.40598996,2.90969624 L6.40598996,6.18433902 L5.64793332,6.18433902 L5.64793332,2.90969624 Z"></path>
                        <polygon points="3.27280671 0.00764224404 5.42192667 0.00764224404 5.42192667 7.65129716 3.27280671 7.65129716"></polygon>
                        <polygon points="3.62950468 0.00764224404 5.0606451 0.00764224404 5.0606451 7.65129716 3.62950468 7.65129716"></polygon>
                    </g>
                    <polygon id="Shape" stroke-width="0.1" points="6.08443291 12.3075401 45.6261952 12.3075401 45.6261952 13.7634464 6.08443291 13.7634464"></polygon>
                    <g transform="translate(0.000000, 20.927991)" id="Shape">
                        <polygon stroke-width="0.936226028" points="0.0658745344 4.79508346 51.6409045 4.79508346 51.6409045 6.66702174 0.0658745344 6.66702174"></polygon>
                        <polygon stroke-width="0.1" points="4.98533893 0.115237751 46.5627477 0.115237751 46.5627477 1.98717603 4.98533893 1.98717603"></polygon>
                        <polygon stroke-width="0.1" points="4.35056933 0.516367383 47.1975173 0.516367383 47.1975173 2.38830567 4.35056933 2.38830567"></polygon>
                        <polygon stroke-width="0.1" points="0.0658745344 4.79508346 51.6409045 4.79508346 51.6409045 6.66702174 0.0658745344 6.66702174"></polygon>
                        <polygon stroke-width="0.1" points="3.23972253 1.5860464 48.4670565 1.5860464 48.4670565 3.45798469 3.23972253 3.45798469"></polygon>
                        <polygon stroke-width="0.1" points="1.65279853 2.92314518 50.0539805 2.92314518 50.0539805 4.79508346 1.65279853 4.79508346"></polygon>
                        <g transform="translate(9.637309, 0.000000)" stroke-width="0.1">
                            <polygon points="0.0998842461 0.115997836 2.24890871 0.115997836 2.24890871 6.66797289 0.0998842461 6.66797289"></polygon>
                            <polygon points="0.457481917 0.115997836 1.8901649 0.115997836 1.8901649 6.66797289 0.457481917 6.66797289"></polygon>
                        </g>
                        <g transform="translate(39.724519, 0.000000)" stroke-width="0.1">
                            <polygon points="0.099061549 0.115997836 2.24808602 0.115997836 2.24808602 6.66797289 0.099061549 6.66797289"></polygon>
                            <polygon points="0.45665922 0.115997836 1.8893422 0.115997836 1.8893422 6.66797289 0.45665922 6.66797289"></polygon>
                        </g>
                    </g>
                    <polygon id="Shape" stroke-width="0.1" points="25.0608824 13.7636815 26.7880763 13.7636815 26.7880763 27.5949675 25.0608824 27.5949675"></polygon>
                    <g transform="translate(37.256427, 3.527190)" id="Shape" stroke-width="0.1">
                        <path d="M0.0957860156,10.2995479 L0.116847645,6.50746584 C0.116847645,6.50746584 0.501680244,7.25078172 3.49494986,7.41360035 C6.32785349,7.31734732 6.79704707,6.86279055 6.92536276,6.45990431 L6.80803575,10.3136212 L0.0957860156,10.2995479 L0.0957860156,10.2995479 Z"></path>
                        <path d="M2.03215123,5.85961306 L1.10558741,5.11524492 C1.41449232,4.92221879 1.98803633,5.25316232 1.98803633,5.25316232 C1.98803633,5.25316232 2.29689094,4.39832193 3.62069007,4.03982404 C4.94443889,4.39832193 5.2532935,5.25316232 5.2532935,5.25316232 C5.2532935,5.25316232 5.82688781,4.92221879 6.13579272,5.11524492 L5.2091283,5.85979506 L2.03220153,5.85979506 L2.03215123,5.85961306 Z"></path>
                        <path d="M1.55504679,7.78827853 L0.350557123,6.74617754 C0.752119069,6.47594471 1.49769948,6.93925924 1.49769948,6.93925924 C1.49769948,6.93925924 1.89919603,5.74249926 3.62007304,5.24060916 C5.34088466,5.74249926 5.74238122,6.93925924 5.74238122,6.93925924 C5.74238122,6.93925924 6.48802702,6.47594471 6.88958896,6.74617754 L5.68496852,7.78853332 L1.55511218,7.78853332 L1.55504679,7.78827853 Z"></path>
                        <g transform="translate(1.645394, 0.000000)">
                            <path d="M1.99398279,0.0442781743 C2.03188497,0.0442781743 3.43503145,2.55363747 1.99398279,2.59163698 C0.55293412,2.62968447 1.99398279,0.120325181 1.99398279,0.0442781743 L1.99398279,0.0442781743 Z"></path>
                            <path d="M0.776039484,3.22916217 L0.0634945892,2.83840435 C0.301048237,2.73707483 0.7421143,2.91080442 0.7421143,2.91080442 C0.7421143,2.91080442 0.979629265,2.46205394 1.99765554,2.27385963 C3.01564313,2.46205394 3.2531581,2.91080442 3.2531581,2.91080442 C3.2531581,2.91080442 3.69426284,2.73707483 3.93181649,2.83840435 L3.21919423,3.22925771 L0.776078167,3.22925771 L0.776039484,3.22916217 Z"></path>
                            <path d="M1.37062498,3.54754981 L1.35318385,3.22909652 C1.35318385,3.22909652 1.47515256,2.78034605 1.9979295,2.59215173 C2.52068657,2.78034605 2.64265527,3.22909652 2.64265527,3.22909652 L2.62521415,3.54754981 L1.37062498,3.54754981 L1.37062498,3.54754981 Z"></path>
                            <path d="M0.742999826,4.50303969 L0.708118603,4.07842224 C0.708118603,4.07842224 0.952048795,3.48006987 1.99757174,3.22913639 C3.04305496,3.48006987 3.28698515,4.07842224 3.28698515,4.07842224 L3.25210392,4.50303969 L0.742999826,4.50303969 L0.742999826,4.50303969 Z"></path>
                            <path d="M0.742999826,5.14005012 L0.708118603,4.71543268 C0.708118603,4.71543268 0.952048795,4.1170803 1.99757174,3.86614683 C3.04305496,4.1170803 3.28698515,4.71543268 3.28698515,4.71543268 L3.25210392,5.14005012 L0.742999826,5.14005012 L0.742999826,5.14005012 Z"></path>
                            <path d="M0.774483787,7.05084064 L0.0620254871,6.00878774 C0.299550266,5.73856737 0.740562727,6.20186052 0.740562727,6.20186052 C0.740562727,6.20186052 0.978048826,5.00515577 1.99595138,4.50328883 C3.01381526,5.00515577 3.25130136,6.20186052 3.25130136,6.20186052 C3.25130136,6.20186052 3.6923525,5.73856737 3.92987728,6.00878774 L3.21734162,7.05109542 L0.774522465,7.05109542 L0.774483787,7.05084064 Z"></path>
                            <path d="M0.774483787,8.32474393 L0.0620254871,7.28269103 C0.299550266,7.01247067 0.740562727,7.47576382 0.740562727,7.47576382 C0.740562727,7.47576382 0.978048826,6.27905906 1.99595138,5.77719212 C3.01381526,6.27905906 3.25130136,7.47576382 3.25130136,7.47576382 C3.25130136,7.47576382 3.6923525,7.01247067 3.92987728,7.28269103 L3.21734162,8.32499871 L0.774522465,8.32499871 L0.774483787,8.32474393 Z"></path>
                            <path d="M0.742999826,10.2357237 L0.708118603,9.17416048 C0.708118603,9.17416048 0.952048795,7.67825192 1.99757174,7.05090666 C3.04305496,7.67825192 3.28698515,9.17416048 3.28698515,9.17416048 L3.25210392,10.2357237 L0.742999826,10.2357237 L0.742999826,10.2357237 Z"></path>
                            <path d="M0.776039484,10.2356017 L0.0634945892,9.45406202 C0.301048237,9.25139675 0.7421143,9.59886661 0.7421143,9.59886661 C0.7421143,9.59886661 0.979629265,8.70133804 1.99765554,8.32493784 C3.01564313,8.70133804 3.2531581,9.59886661 3.2531581,9.59886661 C3.2531581,9.59886661 3.69426284,9.25139675 3.93181649,9.45406202 L3.21919423,10.2357928 L0.776078167,10.2357928 L0.776039484,10.2356017 Z"></path>
                        </g>
                    </g>
                    <g transform="translate(7.521802, 3.527190)" id="Shape" stroke-width="0.1">
                        <path d="M1.72410992,5.58778432 L0.797546103,4.84341617 C1.10645101,4.65039005 1.67999502,4.98133358 1.67999502,4.98133358 C1.67999502,4.98133358 1.98884963,4.12649319 3.31264876,3.7679953 C4.63639758,4.12649319 4.94525219,4.98133358 4.94525219,4.98133358 C4.94525219,4.98133358 5.5188465,4.65039005 5.82775141,4.84341617 L4.90108699,5.58796632 L1.72416022,5.58796632 L1.72410992,5.58778432 Z"></path>
                        <path d="M1.24700548,7.51621464 L0.0425158124,6.47411366 C0.444077758,6.20388082 1.18965817,6.66719535 1.18965817,6.66719535 C1.18965817,6.66719535 1.59115472,5.47043537 3.31203173,4.96854527 C5.03284335,5.47043537 5.43433991,6.66719535 5.43433991,6.66719535 C5.43433991,6.66719535 6.17998571,6.20388082 6.58154765,6.47411366 L5.37692721,7.51646943 L1.24707087,7.51646943 L1.24700548,7.51621464 Z"></path>
                        <path d="M0.0451313781,10.2995479 L0.0661930075,6.50746584 C0.0661930075,6.50746584 0.451025607,7.25078172 3.44429523,7.41360035 C6.27719885,7.31734732 6.74639244,6.86279055 6.87470812,6.45990431 L6.75738111,10.3136212 L0.0451313781,10.2995479 L0.0451313781,10.2995479 Z"></path>
                        <g transform="translate(1.292810, 0.000000)">
                            <path d="M1.9944529,0.0442781743 C2.03235508,0.0442781743 3.43550156,2.55363747 1.9944529,2.59163698 C0.553404233,2.62968447 1.9944529,0.120325181 1.9944529,0.0442781743 L1.9944529,0.0442781743 Z"></path>
                            <path d="M0.776509596,3.22916217 L0.0639647018,2.83840435 C0.30151835,2.73707483 0.742584413,2.91080442 0.742584413,2.91080442 C0.742584413,2.91080442 0.980099378,2.46205394 1.99812565,2.27385963 C3.01611324,2.46205394 3.25362821,2.91080442 3.25362821,2.91080442 C3.25362821,2.91080442 3.69473296,2.73707483 3.9322866,2.83840435 L3.21966434,3.22925771 L0.776548279,3.22925771 L0.776509596,3.22916217 Z"></path>
                            <path d="M1.37109509,3.54754981 L1.35365397,3.22909652 C1.35365397,3.22909652 1.47562267,2.78034605 1.99839961,2.59215173 C2.52115668,2.78034605 2.64312539,3.22909652 2.64312539,3.22909652 L2.62568426,3.54754981 L1.37109509,3.54754981 L1.37109509,3.54754981 Z"></path>
                            <path d="M0.743587467,4.50303969 L0.708706244,4.07842224 C0.708706244,4.07842224 0.952636436,3.48006987 1.99815938,3.22913639 C3.0436426,3.48006987 3.28757279,4.07842224 3.28757279,4.07842224 L3.25269157,4.50303969 L0.743587467,4.50303969 L0.743587467,4.50303969 Z"></path>
                            <path d="M0.743587467,5.14005012 L0.708706244,4.71543268 C0.708706244,4.71543268 0.952636436,4.1170803 1.99815938,3.86614683 C3.0436426,4.1170803 3.28757279,4.71543268 3.28757279,4.71543268 L3.25269157,5.14005012 L0.743587467,5.14005012 L0.743587467,5.14005012 Z"></path>
                            <path d="M0.774953899,7.05084064 L0.0624955998,6.00878774 C0.300020378,5.73856737 0.741032839,6.20186052 0.741032839,6.20186052 C0.741032839,6.20186052 0.978518939,5.00515577 1.99642149,4.50328883 C3.01428537,5.00515577 3.25177147,6.20186052 3.25177147,6.20186052 C3.25177147,6.20186052 3.69282261,5.73856737 3.93034739,6.00878774 L3.21781173,7.05109542 L0.774992578,7.05109542 L0.774953899,7.05084064 Z"></path>
                            <path d="M0.774953899,8.32474393 L0.0624955998,7.28269103 C0.300020378,7.01247067 0.741032839,7.47576382 0.741032839,7.47576382 C0.741032839,7.47576382 0.978518939,6.27905906 1.99642149,5.77719212 C3.01428537,6.27905906 3.25177147,7.47576382 3.25177147,7.47576382 C3.25177147,7.47576382 3.69282261,7.01247067 3.93034739,7.28269103 L3.21781173,8.32499871 L0.774992578,8.32499871 L0.774953899,8.32474393 Z"></path>
                            <path d="M0.743587467,10.2357237 L0.708706244,9.17416048 C0.708706244,9.17416048 0.952636436,7.67825192 1.99815938,7.05090666 C3.0436426,7.67825192 3.28757279,9.17416048 3.28757279,9.17416048 L3.25269157,10.2357237 L0.743587467,10.2357237 L0.743587467,10.2357237 Z"></path>
                            <path d="M0.776509596,10.2356017 L0.0639647018,9.45406202 C0.30151835,9.25139675 0.742584413,9.59886661 0.742584413,9.59886661 C0.742584413,9.59886661 0.980099378,8.70133804 1.99812565,8.32493784 C3.01611324,8.70133804 3.25362821,9.59886661 3.25362821,9.59886661 C3.25362821,9.59886661 3.69473296,9.25139675 3.9322866,9.45406202 L3.21966434,10.2357928 L0.776548279,10.2357928 L0.776509596,10.2356017 Z"></path>
                        </g>
                    </g>
                    <g transform="translate(20.390748, 0.009018)" stroke-width="0.1">
                        <rect id="Rectangle-path" x="0.306891063" y="12.0473379" width="10.3153" height="1.56513461"></rect>
                        <path d="M10.7702994,12.9671488 L10.8365903,7.80750134 C10.8365903,7.80750134 10.637657,9.07309069 10.040675,9.07309069 L0.887315464,9.07309069 C0.290333501,9.07309069 0.0913395139,7.80750134 0.0913395139,7.80750134 L0.15763041,12.9671488 L10.7702387,12.9671488 L10.7702994,12.9671488 Z" id="Shape"></path>
                        <path d="M8.74287756,10.6250992 L8.7627709,8.84029328 C8.7627709,8.84029328 9.90576422,8.63134923 9.74715127,8.18990439 C9.58848981,7.74852924 8.21371489,8.74648451 8.21371489,8.74648451 L2.71442112,8.74648451 C2.71442112,8.74648451 1.33959768,7.74845955 1.18098474,8.18990439 C1.02237179,8.63134923 2.16536511,8.84029328 2.16536511,8.84029328 L2.18516141,10.6250992 L8.74268348,10.6250992 L8.74287756,10.6250992 Z" id="Shape"></path>
                        <path d="M9.39901793,12.0812642 L9.42288994,10.2964582 C9.42288994,10.2964582 10.7944819,10.0875142 10.6041464,9.64606932 C10.4137526,9.20469418 8.76402272,10.2026494 8.76402272,10.2026494 L2.16487021,10.2026494 C2.16487021,10.2026494 0.515082078,9.20462448 0.324746543,9.64606932 C0.134411007,10.0875142 1.50600299,10.2964582 1.50600299,10.2964582 L1.52975855,12.0812642 L9.39878504,12.0812642 L9.39901793,12.0812642 Z" id="Shape"></path>
                        <path d="M6.48439303,3.08359576 L6.4908509,2.27233162 C6.4908509,2.27233162 6.86189511,2.1773267 6.81040538,1.97670442 C6.7588999,1.77608215 6.38056302,1.3950804 5.83684158,0.992125201 C5.45425196,0.805061484 6.32921506,0.15751374 5.50496989,0.114335442 C4.74861115,0.138316346 5.41959995,0.853023291 5.1730982,1.02092129 C4.56133282,1.39504873 4.08108755,1.77608215 4.02958207,1.97670442 C3.97807659,2.17735838 4.34916805,2.27233162 4.34916805,2.27233162 L4.35559442,3.08362744 L6.48433003,3.08362744 L6.48439303,3.08359576 Z" id="Shape"></path>
                        <path d="M7.78533218,7.61420302 L7.79942263,6.15389029 C7.79942263,6.15389029 8.6090048,5.98293408 8.49665925,5.62174774 C8.38427933,5.26061843 7.41052626,6.07713677 7.41052626,6.07713677 L3.51537648,6.07713677 C3.51537648,6.07713677 2.54158904,5.26056141 2.42924349,5.62174774 C2.31689794,5.98293408 3.12648011,6.15389029 3.12648011,6.15389029 L3.14050183,7.61420302 L7.78519471,7.61420302 L7.78533218,7.61420302 Z" id="Shape"></path>
                        <path d="M8.25168204,8.80583133 L8.26859138,7.34551859 C8.26859138,7.34551859 9.2401357,7.17456238 9.1053147,6.81337605 C8.97045245,6.45224674 7.80189377,7.26876507 7.80189377,7.26876507 L3.12749407,7.26876507 C3.12749407,7.26876507 1.95889414,6.45218971 1.82407314,6.81337605 C1.68925214,7.17456238 2.66079646,7.34551859 2.66079646,7.34551859 L2.67762331,8.80583133 L8.25151707,8.80583133 L8.25168204,8.80583133 Z" id="Shape"></path>
                        <path d="M6.96729221,5.44793513 L6.97640982,4.45636936 C6.97640982,4.45636936 7.50027223,4.34028853 7.42757595,4.09503968 C7.35485744,3.84982956 6.72476372,4.40425302 6.72476372,4.40425302 L4.20429991,4.40425302 C4.20429991,4.40425302 3.57418395,3.84979084 3.50148768,4.09503968 C3.4287914,4.34028853 3.95265381,4.45636936 3.95265381,4.45636936 L3.96172695,5.44793513 L6.96720325,5.44793513 L6.96729221,5.44793513 Z" id="Shape"></path>
                        <path d="M7.26807799,6.25732015 L7.27901933,5.26575437 C7.27901933,5.26575437 7.90766565,5.14967354 7.82042853,4.90442469 C7.73316473,4.65921457 6.97703852,5.21363803 6.97703852,5.21363803 L3.95242695,5.21363803 C3.95242695,5.21363803 3.19627406,4.65917585 3.10903694,4.90442469 C3.02179982,5.14967354 3.65044614,5.26575437 3.65044614,5.26575437 L3.66133411,6.25732015 L7.26797125,6.25732015 L7.26807799,6.25732015 Z" id="Shape"></path>
                        <path d="M6.52806132,3.7752741 L6.5345192,2.96400997 C6.5345192,2.96400997 6.9055634,2.86903672 6.85407368,2.66838277 C6.8025682,2.4677605 6.35628189,2.92137021 6.35628189,2.92137021 L4.57107365,2.92137021 C4.57107365,2.92137021 4.12477159,2.46772882 4.07328186,2.66838277 C4.02179214,2.86903672 4.39283634,2.96400997 4.39283634,2.96400997 L4.39926271,3.7752741 L6.52799832,3.7752741 L6.52806132,3.7752741 Z" id="Shape"></path>
                        <path d="M6.74185767,4.43782915 L6.74960762,3.62656501 C6.74960762,3.62656501 7.19488924,3.53159177 7.1330976,3.33093782 C7.07128706,3.13031554 6.53570912,3.58392526 6.53570912,3.58392526 L4.39332176,3.58392526 C4.39332176,3.58392526 3.85772491,3.13028386 3.79593327,3.33093782 C3.73414164,3.53159177 4.17942326,3.62656501 4.17942326,3.62656501 L4.1871354,4.43782915 L6.74178206,4.43782915 L6.74185767,4.43782915 Z" id="Shape"></path>
                        <g transform="translate(2.668618, 3.276371)" id="Shape">
                            <path d="M2.11658962,1.19776158 L1.72072788,0.751157428 C1.85270328,0.635346093 2.09774213,0.833904769 2.09774213,0.833904769 C2.09774213,0.833904769 2.22969604,0.321019761 2.79527115,0.105929088 C3.36082477,0.321019761 3.49277868,0.833904769 3.49277868,0.833904769 C3.49277868,0.833904769 3.73783902,0.635346093 3.86981442,0.751157428 L3.4739097,1.19787077 L2.11661111,1.19787077 L2.11658962,1.19776158 Z"></path>
                            <path d="M1.84596643,1.9257227 L1.29177787,1.47911855 C1.47653748,1.36330721 1.8195808,1.56186589 1.8195808,1.56186589 C1.8195808,1.56186589 2.00431032,1.04898088 2.79608993,0.833890209 C3.58783946,1.04898088 3.77256898,1.56186589 3.77256898,1.56186589 C3.77256898,1.56186589 4.11564239,1.36330721 4.30040199,1.47911855 L3.74615326,1.92583189 L1.84599652,1.92583189 L1.84596643,1.9257227 Z"></path>
                            <path d="M1.70944183,3.19895866 L1.07608986,2.60348646 C1.28724157,2.44907135 1.67928713,2.71381625 1.67928713,2.71381625 C1.67928713,2.71381625 1.89040445,2.02996957 2.79528631,1.74318201 C3.70013379,2.02996957 3.91125112,2.71381625 3.91125112,2.71381625 C3.91125112,2.71381625 4.30333106,2.44907135 4.51448277,2.60348646 L3.88106203,3.19910425 L1.70947622,3.19910425 L1.70944183,3.19895866 Z"></path>
                            <path d="M1.43800705,4.76342761 L0.646305907,4.01908736 C0.910249267,3.82606847 1.40031313,4.1569996 1.40031313,4.1569996 C1.40031313,4.1569996 1.66421351,3.30219125 2.7953318,2.9437068 C3.92640711,3.30219125 4.19030749,4.1569996 4.19030749,4.1569996 C4.19030749,4.1569996 4.68041434,3.82606847 4.9443577,4.01908736 L4.1525706,4.7636096 L1.43805003,4.7636096 L1.43800705,4.76342761 Z"></path>
                            <polygon points="1.24306582 6.05148435 2.75141849 7.9305806 4.34856366 6.05148435"></polygon>
                            <path d="M1.16657226,6.2593676 L0.216521955,5.42986063 C0.533256967,5.2147567 1.12133914,5.58355265 1.12133914,5.58355265 C1.12133914,5.58355265 1.43802257,4.63093793 2.79537729,4.23143602 C4.15268043,4.63093793 4.46936386,5.58355265 4.46936386,5.58355265 C4.46936386,5.58355265 5.05749761,5.2147567 5.37423262,5.42986063 L4.42407916,6.25957041 L1.16662384,6.25957041 L1.16657226,6.2593676 Z"></path>
                            <polygon points="1.11354148 8.11790476 2.74758477 10.4785288 4.4778196 8.11790476"></polygon>
                            <path d="M1.03126067,8.38127289 L0.00204695126,7.33919655 C0.345174065,7.0689701 0.982258472,7.53227367 0.982258472,7.53227367 C0.982258472,7.53227367 1.32532971,6.33554199 2.79578668,5.83366375 C4.26618777,6.33554199 4.60925901,7.53227367 4.60925901,7.53227367 C4.60925901,7.53227367 5.24639929,7.0689701 5.58952641,7.33919655 L4.56020094,8.38152768 L1.03131654,8.38152768 L1.03126067,8.38127289 Z"></path>
                            <path d="M1.03126067,10.4774223 L0.00204695126,9.43534597 C0.345174065,9.16511952 0.982258472,9.6284231 0.982258472,9.6284231 C0.982258472,9.6284231 1.32532971,8.43169141 2.79578668,7.92981318 C4.26618777,8.43169141 4.60925901,9.6284231 4.60925901,9.6284231 C4.60925901,9.6284231 5.24639929,9.16511952 5.58952641,9.43534597 L4.56020094,10.4776771 L1.03131654,10.4776771 L1.03126067,10.4774223 Z"></path>
                        </g>
                    </g>
                    <g transform="translate(15.278661, 16.577791)" id="Shape" stroke-width="0.1">
                        <path d="M0.0587640807,0.087356728 L0.816820721,0.087356728 L0.816820721,3.36199951 L0.0587640807,3.36199951 L0.0587640807,0.087356728 Z M2.63639172,0.087004009 L3.39444836,0.087004009 L3.39444836,3.36176437 L2.63639172,3.36176437 L2.63639172,0.087004009 Z M1.42326603,0.087004009 L2.1814402,0.087004009 L2.1814402,3.36164679 L1.42338356,3.36164679 L1.42326603,0.087004009 Z M15.1969789,0.087239155 L15.9551531,0.087239155 L15.9551531,3.36188194 L15.1970964,3.36188194 L15.1969789,0.087239155 Z M20.3523517,0.087004009 L21.1104083,0.087004009 L21.1104083,3.36164679 L20.3523517,3.36164679 L20.3523517,0.087004009 Z M17.7747241,0.0868864361 L18.5327807,0.0868864361 L18.5327807,3.36152922 L17.7747241,3.36152922 L17.7747241,0.0868864361 Z M16.5617159,0.0867688631 L17.3197726,0.0867688631 L17.3197726,3.36141165 L16.5617159,3.36141165 L16.5617159,0.0867688631 Z M18.9877322,0.0867688631 L19.7457889,0.0867688631 L19.7457889,3.36141165 L18.9877322,3.36141165 L18.9877322,0.0867688631 Z M5.21401935,0.087239155 L5.97207599,0.087239155 L5.97207599,3.36188194 L5.21401935,3.36188194 L5.21401935,0.087239155 Z M3.84939987,0.087004009 L4.60745651,0.087004009 L4.60745651,3.36164679 L3.84939987,3.36164679 L3.84939987,0.087004009 Z"></path>
                    </g>
                </g>
            </g>
        </g>
    </g>
</svg>