<?xml version="1.0" encoding="UTF-8" standalone="no"?>
<svg width="122px" height="60px" viewBox="0 0 122 60" version="1.1" xmlns="http://www.w3.org/2000/svg" xmlns:xlink="http://www.w3.org/1999/xlink">
    <!-- Generator: Sketch 3.8.2 (29753) - http://www.bohemiancoding.com/sketch -->
    <title>fm</title>
    <desc>Created with Sketch.</desc>
    <defs></defs>
    <g id="Page-1" stroke="none" stroke-width="1" fill="none" fill-rule="evenodd">
        <g id="fm">
            <g id="Shape">
                <polygon fill="#6797D6" points="0 0 122 0 122 60 0 60"></polygon>
                <path d="M60.8617164,14.9031602 L57.2882477,17.3501711 L58.6578203,13.3955617 L55.0804961,10.9526266 L59.5001852,10.9568125 L60.8623773,7 L62.2245695,10.9568125 L66.6440383,10.9539484 L63.0662734,13.3956719 L64.4355156,17.350832 M60.8617164,44.3222594 L57.2882477,41.8752484 L58.6578203,45.8298578 L55.0804961,48.2726828 L59.5001852,48.2684969 L60.8623773,52.2253094 L62.2245695,48.2684969 L66.6440383,48.2714711 L63.0661633,45.8297477 L64.4354055,41.8745875 M43.6837305,31.6889898 L40.9815977,35.0740914 L41.1352656,30.8917891 L37,29.6015289 L41.2277969,28.3132516 L41.3736437,24.1310594 L43.8332125,27.5167117 L48.0588063,26.221825 L45.3511656,29.6029609 L47.816793,32.9847578 M78.0304492,31.6889898 L80.732582,35.0740914 L80.5789141,30.8917891 L84.7141797,29.6015289 L80.4863828,28.3132516 L80.3405359,24.1310594 L77.8809672,27.5167117 L73.6553734,26.221825 L76.3630141,29.6029609 L73.8973867,32.9847578" fill="#FFFFFF"></path>
            </g>
        </g>
    </g>
</svg>