<?xml version="1.0" encoding="UTF-8" standalone="no"?>
<svg width="122px" height="60px" viewBox="0 0 122 60" version="1.1" xmlns="http://www.w3.org/2000/svg" xmlns:xlink="http://www.w3.org/1999/xlink">
    <!-- Generator: Sketch 3.8.2 (29753) - http://www.bohemiancoding.com/sketch -->
    <title>iq</title>
    <desc>Created with Sketch.</desc>
    <defs></defs>
    <g id="Page-1" stroke="none" stroke-width="1" fill="none" fill-rule="evenodd">
        <g id="iq">
            <g id="Group">
                <g>
                    <polygon id="Shape" fill="#FFFFFF" points="0 20 122 20 122 40 0 40"></polygon>
                    <polygon id="Shape" fill="#CE1126" points="0 0 122 0 122 20 0 20"></polygon>
                    <polygon id="Shape" fill="#000000" points="0 40 122 40 122 60 0 60"></polygon>
                    <g transform="translate(44.043683, 24.087458)" fill="#007A3D">
                        <path d="M26.8302182,2.22853402 C26.7080287,2.16415463 26.5705109,2.06057828 26.5247446,1.99795071 C26.4559856,1.90160061 26.4962775,1.89809697 26.7794154,1.97495807 C27.2874432,2.11247594 27.6148146,2.05882646 27.9395582,1.78379072 L28.2264187,1.54225853 L28.5636441,1.71393689 C28.749118,1.80765926 28.9461978,1.8724766 29.0031319,1.85758613 C29.1491899,1.81904609 29.4520358,1.43058001 29.4421818,1.29612782 C29.430357,1.12970492 29.5707216,1.17131065 29.6383856,1.35371891 C29.7730568,1.71065223 29.5770719,2.12079709 29.2299926,2.21167275 C29.060504,2.25612518 28.9041541,2.23970187 28.6475125,2.15035905 C28.3326228,2.0408703 28.2789733,2.04218417 28.1208716,2.16305975 C27.766785,2.43459185 27.2734286,2.45999324 26.8304372,2.228753 L26.8302182,2.22853402 Z M28.0856162,1.08065396 C27.9623319,0.923866073 27.8140841,0.33109398 27.8622591,0.185473943 C27.9043028,0.05956188 27.9476604,0.0343794675 28.0624046,0.0702917775 C28.2634259,0.133357298 28.3098492,0.271751077 28.2798492,0.741238838 C28.2564186,1.12401151 28.1997035,1.22452218 28.0856162,1.08065396 L28.0856162,1.08065396 Z M13.3013503,0.654742725 C13.2608394,0.94160325 13.810473,1.65503195 14.0585745,1.78422867 C13.8899618,1.85977591 13.6804003,1.82583439 13.5258022,1.91057869 C12.6612791,2.77510186 9.50384248,5.85326857 8.92727472,6.58925195 C10.6352992,6.62319347 12.5294546,6.56625932 14.1301801,6.49290185 C14.1288663,5.33275906 15.2294472,5.27275922 15.9656495,4.85013265 C16.3444806,5.44684633 17.2957189,5.40108004 17.4146236,6.29932574 C17.4146236,7.37450527 17.4168134,8.99406286 17.4168134,10.1634027 L2.82699953,10.1634027 C2.57079585,11.2968302 1.54751399,12.1615724 0.121970468,11.805734 C0.562991153,11.3452243 1.30576283,11.1866846 1.57160152,10.550117 C1.79583448,9.15632518 1.12357355,8.29552463 0.688684238,7.50479688 C1.40780635,7.24333775 1.51685714,7.17808245 2.24780404,6.68669694 C1.73495873,8.24581674 3.58181497,8.07457633 4.95305207,8.038883 C4.99903735,7.50939541 4.97232209,6.88443362 4.56611883,6.80713457 C5.09078892,6.61662414 5.17794197,6.55136885 6.01574988,5.84100584 L6.01574988,7.94143802 C9.27522997,7.94143802 12.7913517,7.91735049 16.1189338,7.91735049 C16.1189338,7.25976106 16.2932399,6.20385155 15.7729493,6.20385155 C15.2758704,6.20385155 15.7495187,7.55559966 15.3634614,7.55559966 L7.56129308,7.55559966 C7.56129308,7.26479754 7.55384784,6.656916 7.55384784,6.218961 C7.88450387,5.88786702 7.84508792,5.91677205 10.1044978,3.65692425 C10.3296066,3.43181538 11.9145658,2.00014049 13.3015693,0.654742725 L13.3013503,0.654742725 Z M32.8034864,0.599341418 C33.3483025,0.892333313 33.7794691,1.29787964 34.4462556,1.46868209 C34.3689566,1.74459374 34.1232638,1.85408249 34.0586655,2.14488461 L34.0586655,8.03756914 C34.8038459,8.20180226 34.9608528,7.77961364 35.3151584,7.55472375 C35.4119464,8.49785984 36.0126017,9.42260183 35.9913609,10.1627458 L32.8034864,10.1627458 L32.8034864,0.599341417 L32.8034864,0.599341418 Z M28.5524762,3.75546413 C28.5524762,3.75546413 29.7124,2.77619674 29.7124,2.73853261 L29.7124,7.8812192 L30.5475802,7.88012431 C30.5475802,5.92071364 30.5219599,3.93349283 30.5219599,2.11269492 C30.860937,1.77327979 31.5248768,1.28233224 31.6908618,0.93897552 L31.6908618,10.1491692 C29.3379485,10.1491692 24.9481066,10.1520159 24.3678162,10.1520159 C24.2598603,8.2403423 24.2414662,6.2607857 26.4700002,6.68625898 L26.4700002,5.90626113 C26.4021172,5.77312281 26.2794898,5.9386698 26.2510227,5.76523962 C26.6051093,5.411153 26.72489,5.32071529 27.6831356,4.48422124 C27.6831356,5.49370752 27.7006538,7.87793454 27.7006538,7.87793454 C27.9349597,7.87793454 28.3910898,7.87881045 28.54525,7.87881045 C28.54525,7.87881045 28.5531332,3.88728858 28.5531332,3.75546412 L28.5524762,3.75546413 Z M25.8036517,7.82844562 C25.9604396,8.06406541 26.4945257,8.05990484 26.4693433,7.66333659 C26.3795625,7.33640318 25.6777396,7.46100138 25.8036517,7.8286646 L25.8036517,7.82844562 Z" id="Shape"></path>
                        <circle id="Oval" cx="4.60422092" cy="11.2486552" r="0.447152055"></circle>
                        <path d="M18.4046209,0.60875745 C18.9494369,0.901749345 19.3806036,1.30729567 20.0473901,1.47809812 C19.9700911,1.75400977 19.7241793,1.86349852 19.6602379,2.15408167 L19.6602379,8.04676619 C20.4047614,8.21099932 20.5617683,7.7888107 20.9162928,7.5639208 C21.0126429,8.5070569 21.6137362,9.43179888 21.5924954,10.1719428 L18.404183,10.1719428 C18.4046209,6.98472532 18.4046209,3.79663189 18.4046209,0.608538472 L18.4046209,0.60875745 Z" id="Shape"></path>
                    </g>
                </g>
            </g>
        </g>
    </g>
</svg>