<?xml version="1.0" encoding="UTF-8" standalone="no"?>
<svg width="122px" height="60px" viewBox="0 0 122 60" version="1.1" xmlns="http://www.w3.org/2000/svg" xmlns:xlink="http://www.w3.org/1999/xlink">
    <!-- Generator: Sketch 39 (31667) - http://www.bohemiancoding.com/sketch -->
    <title>uy</title>
    <desc>Created with Sketch.</desc>
    <defs></defs>
    <g id="Page-1" stroke="none" stroke-width="1" fill="none" fill-rule="evenodd">
        <g id="uy">
            <g id="Group">
                <g>
                    <rect id="Rectangle" fill="#FFFFFF" x="0" y="0" width="33" height="34"></rect>
                    <g transform="translate(2.833306, 1.833306)">
                        <g id="c" transform="translate(0.000000, 1.000000)" stroke="#000000" stroke-width="0.1">
                            <g id="b" transform="translate(0.000000, 9.433324)">
                                <g id="a" transform="translate(7.966659, 4.399995)">
                                    <path d="M3.42813408,2.92434497 L5.07813221,4.02434372 C2.14480221,8.79100497 5.44479846,9.52433747 2.87813471,11.724335 C3.97813346,9.15767122 1.77813596,9.89100372 1.77813596,5.49100872" id="Shape" fill="#FCD116" transform="translate(3.428134, 7.324340) rotate(22.500000) translate(-3.428134, -7.324340) "></path>
                                    <path d="M2.76252629,3.50554774 C2.02919379,8.27220899 4.41252441,9.73887399 2.76252629,11.5722052" id="Shape" transform="translate(2.987926, 7.538876) rotate(22.500000) translate(-2.987926, -7.538876) "></path>
                                    <polyline id="Shape" fill="#FCD116" points="5.86666 0 8.0666575 0 5.86666 12.0999863 3.6666625 0 5.86666 0 5.86666 12.0999863"></polyline>
                                </g>
                                <g id="a-link" transform="translate(8.270750, 8.029815) rotate(45.000000) translate(-8.270750, -8.029815) translate(3.770750, 1.529815)">
                                    <g id="a" transform="translate(-0.000000, 0.000000)">
                                        <path d="M3.42813408,2.92434497 L5.07813221,4.02434372 C2.14480221,8.79100497 5.44479846,9.52433747 2.87813471,11.724335 C3.97813346,9.15767122 1.77813596,9.89100372 1.77813596,5.49100872" id="Shape" fill="#FCD116" transform="translate(3.428134, 7.324340) rotate(22.500000) translate(-3.428134, -7.324340) "></path>
                                        <path d="M2.76252629,3.50554774 C2.02919379,8.27220899 4.41252441,9.73887399 2.76252629,11.5722052" id="Shape" transform="translate(2.987926, 7.538876) rotate(22.500000) translate(-2.987926, -7.538876) "></path>
                                        <polyline id="Shape" fill="#FCD116" points="5.86666 -4.8316906e-13 8.0666575 -4.8316906e-13 5.86666 12.0999862 3.6666625 -4.8316906e-13 5.86666 -4.8316906e-13 5.86666 12.0999862"></polyline>
                                    </g>
                                </g>
                            </g>
                            <g id="b-link" transform="translate(9.233314, 8.500000) rotate(90.000000) translate(-9.233314, -8.500000) translate(0.733314, -0.500000)">
                                <g id="b" transform="translate(0.000000, 0.000000)">
                                    <g id="a" transform="translate(7.966659, 4.399995)">
                                        <path d="M3.42813408,2.92434497 L5.07813221,4.02434372 C2.14480221,8.79100497 5.44479846,9.52433747 2.87813471,11.724335 C3.97813346,9.15767122 1.77813596,9.89100372 1.77813596,5.49100872" id="Shape" fill="#FCD116" transform="translate(3.428134, 7.324340) rotate(22.500000) translate(-3.428134, -7.324340) "></path>
                                        <path d="M2.76252629,3.50554774 C2.02919379,8.27220899 4.41252441,9.73887399 2.76252629,11.5722052" id="Shape" transform="translate(2.987926, 7.538876) rotate(22.500000) translate(-2.987926, -7.538876) "></path>
                                        <polyline id="Shape" fill="#FCD116" points="5.86666 0 8.0666575 0 5.86666 12.0999863 3.6666625 0 5.86666 0 5.86666 12.0999863"></polyline>
                                    </g>
                                    <g id="a-link" transform="translate(8.270750, 8.029815) rotate(45.000000) translate(-8.270750, -8.029815) translate(3.770750, 1.529815)">
                                        <g id="a" transform="translate(-0.000000, -0.000000)">
                                            <path d="M3.42813408,2.92434497 L5.07813221,4.02434372 C2.14480221,8.79100497 5.44479846,9.52433747 2.87813471,11.724335 C3.97813346,9.15767122 1.77813596,9.89100372 1.77813596,5.49100872" id="Shape" fill="#FCD116" transform="translate(3.428134, 7.324340) rotate(22.500000) translate(-3.428134, -7.324340) "></path>
                                            <path d="M2.76252629,3.50554774 C2.02919379,8.27220899 4.41252441,9.73887399 2.76252629,11.5722052" id="Shape" transform="translate(2.987926, 7.538876) rotate(22.500000) translate(-2.987926, -7.538876) "></path>
                                            <polyline id="Shape" fill="#FCD116" points="5.86666 4.8316906e-13 8.0666575 4.8316906e-13 5.86666 12.0999863 3.6666625 4.8316906e-13 5.86666 4.8316906e-13 5.86666 12.0999863"></polyline>
                                        </g>
                                    </g>
                                </g>
                            </g>
                        </g>
                        <g id="c-link" transform="translate(18.166638, 14.666638) scale(-1, -1) translate(-18.166638, -14.666638) translate(8.666638, 0.666638)">
                            <g id="c">
                                <g id="b" transform="translate(-0.000000, 9.433324)" stroke="#000000" stroke-width="0.1">
                                    <g id="a" transform="translate(7.966659, 4.399995)">
                                        <path d="M3.42813408,2.92434497 L5.07813221,4.02434372 C2.14480221,8.79100497 5.44479846,9.52433747 2.87813471,11.724335 C3.97813346,9.15767122 1.77813596,9.89100372 1.77813596,5.49100872" id="Shape" fill="#FCD116" transform="translate(3.428134, 7.324340) rotate(22.500000) translate(-3.428134, -7.324340) "></path>
                                        <path d="M2.76252629,3.50554774 C2.02919379,8.27220899 4.41252441,9.73887399 2.76252629,11.5722052" id="Shape" transform="translate(2.987926, 7.538876) rotate(22.500000) translate(-2.987926, -7.538876) "></path>
                                        <polyline id="Shape" fill="#FCD116" points="5.86666 0 8.0666575 0 5.86666 12.0999863 3.6666625 0 5.86666 0 5.86666 12.0999863"></polyline>
                                    </g>
                                    <g id="a-link" transform="translate(8.270750, 8.029815) rotate(45.000000) translate(-8.270750, -8.029815) translate(3.770750, 1.529815)">
                                        <g id="a" transform="translate(-0.000000, 0.000000)">
                                            <path d="M3.42813408,2.92434497 L5.07813221,4.02434372 C2.14480221,8.79100497 5.44479846,9.52433747 2.87813471,11.724335 C3.97813346,9.15767122 1.77813596,9.89100372 1.77813596,5.49100872" id="Shape" fill="#FCD116" transform="translate(3.428134, 7.324340) rotate(22.500000) translate(-3.428134, -7.324340) "></path>
                                            <path d="M2.76252629,3.50554774 C2.02919379,8.27220899 4.41252441,9.73887399 2.76252629,11.5722052" id="Shape" transform="translate(2.987926, 7.538876) rotate(22.500000) translate(-2.987926, -7.538876) "></path>
                                            <polyline id="Shape" fill="#FCD116" points="5.86666 4.84057239e-13 8.0666575 4.84057239e-13 5.86666 12.0999863 3.6666625 4.84057239e-13 5.86666 4.84057239e-13 5.86666 12.0999863"></polyline>
                                        </g>
                                    </g>
                                </g>
                                <g id="b-link" transform="translate(9.233314, 8.500000) rotate(90.000000) translate(-9.233314, -8.500000) translate(0.733314, -0.500000)">
                                    <g id="b" transform="translate(0.000000, 0.000000)">
                                        <g id="a" transform="translate(7.966659, 4.399995)" stroke="#000000" stroke-width="0.1">
                                            <path d="M3.42813408,2.92434497 L5.07813221,4.02434372 C2.14480221,8.79100497 5.44479846,9.52433747 2.87813471,11.724335 C3.97813346,9.15767122 1.77813596,9.89100372 1.77813596,5.49100872" id="Shape" fill="#FCD116" transform="translate(3.428134, 7.324340) rotate(22.500000) translate(-3.428134, -7.324340) "></path>
                                            <path d="M2.76252629,3.50554774 C2.02919379,8.27220899 4.41252441,9.73887399 2.76252629,11.5722052" id="Shape" transform="translate(2.987926, 7.538876) rotate(22.500000) translate(-2.987926, -7.538876) "></path>
                                            <polyline id="Shape" fill="#FCD116" points="5.86666 0 8.0666575 0 5.86666 12.0999863 3.6666625 0 5.86666 0 5.86666 12.0999863"></polyline>
                                        </g>
                                        <g id="a-link" transform="translate(8.270750, 8.029815) rotate(45.000000) translate(-8.270750, -8.029815) translate(3.770750, 1.529815)">
                                            <g id="a" transform="translate(-0.000000, -0.000000)">
                                                <path d="M3.42813408,2.92434497 L5.07813221,4.02434372 C2.14480221,8.79100497 5.44479846,9.52433747 2.87813471,11.724335 C3.97813346,9.15767122 1.77813596,9.89100372 1.77813596,5.49100872" id="Shape" stroke="#000000" stroke-width="0.1" fill="#FCD116" transform="translate(3.428134, 7.324340) rotate(22.500000) translate(-3.428134, -7.324340) "></path>
                                                <path d="M2.76252629,3.50554774 C2.02919379,8.27220899 4.41252441,9.73887399 2.76252629,11.5722052" id="Shape" transform="translate(2.987926, 7.538876) rotate(22.500000) translate(-2.987926, -7.538876) "></path>
                                                <polyline id="Shape" stroke="#000000" stroke-width="0.1" fill="#FCD116" points="5.86666 -5.30242517e-13 8.0666575 -5.30242517e-13 5.86666 12.0999862 3.6666625 -5.30242517e-13 5.86666 -5.30242517e-13 5.86666 12.0999862"></polyline>
                                            </g>
                                        </g>
                                    </g>
                                </g>
                            </g>
                        </g>
                        <circle id="Oval" stroke="#000000" stroke-width="0.1" fill="#FCD116" cx="13.8333188" cy="14.8333187" r="4.03332875"></circle>
                    </g>
                    <g transform="translate(13.696659, 14.429984)" fill="#000000">
                        <g id="d" transform="translate(2.786635, 0.000000)">
                            <path d="M3.1532975,0.62332625 C2.89663375,0.91665625 2.74996875,0.40332875 1.8333125,0.40332875 C0.91665625,0.40332875 0.76999125,0.9533225 0.62332625,0.84332375 C0.47666125,0.733325 1.3933175,0.0733325 1.6866475,0.03666625 C1.9799775,3.1918912e-16 2.82330125,0.29333 3.1532975,0.62332625 M2.08997625,0.9533225 C2.34664,1.17332 2.1266425,1.64998125 1.86997875,1.64998125 C1.613315,1.64998125 1.13665375,1.20998625 1.35665125,0.91665625" id="Shape"></path>
                            <path d="M0.87999,1.28331875 C0.91665625,0.84332375 1.28331875,0.76999125 1.86997875,0.76999125 C2.45663875,0.76999125 2.7133025,1.20998625 2.9333,1.319985 C2.67663625,1.319985 2.45663875,0.9533225 1.86997875,0.9533225 C1.28331875,0.9533225 1.28331875,0.9533225 0.87999,1.319985 M0.98998875,1.3933175 C1.13665375,1.17332 1.319985,1.613315 1.72331375,1.613315 C2.1266425,1.613315 2.34664,1.50331625 2.60330375,1.319985 C2.8599675,1.13665375 2.23664125,1.75998 1.8333125,1.75998 C1.42998375,1.75998 0.87999,1.5399825 0.98998875,1.3933175" id="Shape"></path>
                            <path d="M2.23664125,1.613315 C2.7133025,1.35665125 2.4199725,0.98998875 2.23664125,0.91665625 C2.30997375,0.98998875 2.60330375,1.35665125 2.23664125,1.613315 M0.18333125,3.81329 C0.40332875,3.81329 0.47666125,3.7399575 0.76999125,3.7399575 C1.06332125,3.7399575 1.75998,4.14328625 2.16330875,3.99662125 C1.319985,4.3266175 1.64998125,4.10662 0.18333125,4.10662 L0,4.10662 M2.30997375,4.3266175 C2.16330875,4.06995375 2.199975,4.14328625 1.906645,3.7399575 C2.199975,3.959955 2.2733075,4.06995375 2.30997375,4.3266175 M0.18333125,4.69328 C1.0999875,4.69328 0.9533225,4.50994875 2.16330875,3.99662125 C1.28331875,4.10662 1.0999875,4.39995 0.18333125,4.39995 L0,4.39995 M0.18333125,3.33662875 C0.439995,3.33662875 0.5133275,3.1532975 0.8066575,3.1532975 C1.0999875,3.1532975 1.50331625,3.26329625 1.6866475,3.40996125 C1.72331375,3.4466275 1.57664875,3.11663125 1.28331875,3.079965 C0.98998875,3.04329875 1.0999875,2.5666375 0.76999125,2.493305 C0.76999125,2.63997 0.87999,2.60330375 0.91665625,2.82330125 C0.91665625,3.0066325 0.58666,3.0066325 0.5133275,2.82330125 C0.58666,3.11663125 0.3666625,3.11663125 0.18333125,3.11663125" id="Shape"></path>
                        </g>
                        <g id="d-link" transform="translate(1.576649, 2.346640) scale(-1, 1) translate(-1.576649, -2.346640) ">
                            <g id="d">
                                <path d="M3.1532975,0.62332625 C2.89663375,0.91665625 2.74996875,0.40332875 1.8333125,0.40332875 C0.91665625,0.40332875 0.76999125,0.9533225 0.62332625,0.84332375 C0.47666125,0.733325 1.3933175,0.0733325 1.6866475,0.03666625 C1.9799775,3.1918912e-16 2.82330125,0.29333 3.1532975,0.62332625 M2.08997625,0.9533225 C2.34664,1.17332 2.1266425,1.64998125 1.86997875,1.64998125 C1.613315,1.64998125 1.13665375,1.20998625 1.35665125,0.91665625" id="Shape"></path>
                                <path d="M0.87999,1.28331875 C0.91665625,0.84332375 1.28331875,0.76999125 1.86997875,0.76999125 C2.45663875,0.76999125 2.7133025,1.20998625 2.9333,1.319985 C2.67663625,1.319985 2.45663875,0.9533225 1.86997875,0.9533225 C1.28331875,0.9533225 1.28331875,0.9533225 0.87999,1.319985 M0.98998875,1.3933175 C1.13665375,1.17332 1.319985,1.613315 1.72331375,1.613315 C2.1266425,1.613315 2.34664,1.50331625 2.60330375,1.319985 C2.8599675,1.13665375 2.23664125,1.75998 1.8333125,1.75998 C1.42998375,1.75998 0.87999,1.5399825 0.98998875,1.3933175" id="Shape"></path>
                                <path d="M2.23664125,1.613315 C2.7133025,1.35665125 2.4199725,0.98998875 2.23664125,0.91665625 C2.30997375,0.98998875 2.60330375,1.35665125 2.23664125,1.613315 M0.18333125,3.81329 C0.40332875,3.81329 0.47666125,3.7399575 0.76999125,3.7399575 C1.06332125,3.7399575 1.75998,4.14328625 2.16330875,3.99662125 C1.319985,4.3266175 1.64998125,4.10662 0.18333125,4.10662 L0,4.10662 M2.30997375,4.3266175 C2.16330875,4.06995375 2.199975,4.14328625 1.906645,3.7399575 C2.199975,3.959955 2.2733075,4.06995375 2.30997375,4.3266175 M0.18333125,4.69328 C1.0999875,4.69328 0.9533225,4.50994875 2.16330875,3.99662125 C1.28331875,4.10662 1.0999875,4.39995 0.18333125,4.39995 L0,4.39995 M0.18333125,3.33662875 C0.439995,3.33662875 0.5133275,3.1532975 0.8066575,3.1532975 C1.0999875,3.1532975 1.50331625,3.26329625 1.6866475,3.40996125 C1.72331375,3.4466275 1.57664875,3.11663125 1.28331875,3.079965 C0.98998875,3.04329875 1.0999875,2.5666375 0.76999125,2.493305 C0.76999125,2.63997 0.87999,2.60330375 0.91665625,2.82330125 C0.91665625,3.0066325 0.58666,3.0066325 0.5133275,2.82330125 C0.58666,3.11663125 0.3666625,3.11663125 0.18333125,3.11663125" id="Shape"></path>
                            </g>
                        </g>
                        <path d="" id="Shape"></path>
                    </g>
                </g>
            </g>
            <g id="Group-2">
                <rect id="Rectangle-288-Copy" fill="#FFFFFF" x="33" y="0" width="89" height="6.67000008"></rect>
                <rect id="Rectangle-288-Copy-2" fill="#FFFFFF" x="33" y="13.335" width="89" height="6.67000008"></rect>
                <rect id="Rectangle-288-Copy-4" fill="#FFFFFF" x="0" y="40.0050001" width="122" height="6.67000008"></rect>
                <rect id="Rectangle-288-Copy-8" fill="#0038A8" x="0" y="33.3375001" width="122" height="6.67000008"></rect>
                <rect id="Rectangle-288-Copy-3" fill="#FFFFFF" x="33" y="26.6700001" width="89" height="6.67000008"></rect>
                <rect id="Rectangle-288-Copy-9" fill="#0038A8" x="33" y="20.0025001" width="89" height="6.67000008"></rect>
                <rect id="Rectangle-288-Copy-5" fill="#FFFFFF" x="0" y="53.3400002" width="122" height="6.67000008"></rect>
                <rect id="Rectangle-288-Copy-7" fill="#0038A8" x="0" y="46.6725001" width="122" height="6.67000008"></rect>
                <rect id="Rectangle-288-Copy-6" fill="#0038A8" x="33" y="6.66750002" width="89" height="6.67000008"></rect>
            </g>
        </g>
    </g>
</svg>