<?xml version="1.0" encoding="UTF-8" standalone="no"?>
<svg width="122px" height="60px" viewBox="0 0 122 60" version="1.1" xmlns="http://www.w3.org/2000/svg" xmlns:xlink="http://www.w3.org/1999/xlink">
    <!-- Generator: Sketch 3.8.2 (29753) - http://www.bohemiancoding.com/sketch -->
    <title>om</title>
    <desc>Created with Sketch.</desc>
    <defs></defs>
    <g id="Page-1" stroke="none" stroke-width="1" fill="none" fill-rule="evenodd">
        <g id="om">
            <g transform="translate(-1.000000, -1.000000)" id="Clipped">
                <g>
                    <g id="Group" transform="translate(0.500000, 0.500000)">
                        <rect id="Rectangle-214" fill="#EF2D29" x="0.5" y="0.5" width="122" height="60"></rect>
                        <rect id="Rectangle-215" fill="#FFFFFF" x="23.5" y="0.5" width="99" height="20"></rect>
                        <rect id="Rectangle-215-Copy" fill="#009025" x="23.5" y="40.5" width="99" height="20"></rect>
                        <g transform="translate(4.000000, 2.625000)">
                            <g transform="translate(11.829270, 7.552560)" stroke="#EF2D28" stroke-width="0.1" fill="#FFFFFF">
                                <rect id="Rectangle-path" x="0.01778877" y="0.0159696" width="3.4284939" height="1.88616502" rx="0.94308251"></rect>
                                <rect id="Rectangle-path" x="0.1056906" y="0.0944868" width="3.252591" height="1.72899754" rx="0.86449877"></rect>
                                <polygon id="Shape" points="1.61808446 0.566037238 1.78237978 0.571787261 1.78984851 0.646355844 1.92426888 0.715187384 2.0288143 0.629144714 2.15576593 0.697976254 2.03629994 0.772557817 2.06615799 0.875811617 2.21549893 0.870074574 2.21549893 1.00775063 2.09603293 1.00201359 2.03628304 1.08805626 2.1707034 1.18557302 2.06615799 1.26587864 1.95412693 1.17983597 1.78984851 1.21425823 1.79731725 1.34046021 1.61808446 1.35193429 1.59567825 1.23146936 1.44632041 1.16836189 1.3641812 1.25440456 1.23721268 1.19131006 1.31190005 1.0937933 1.2222752 1.03068583 1.09534047 1.03068583 1.08787173 0.852863444 1.21482336 0.86433753 1.30444821 0.76108373 1.19990279 0.680778104 1.33432315 0.588998391 1.43139984 0.663566974 1.59569515 0.640618801 1.61810136 0.566037238"></polygon>
                                <circle id="Oval" cx="1.73738208" cy="1.03381708" r="0.25"></circle>
                                <g transform="translate(0.272910, 0.155260)" id="Shape">
                                    <path></path>
                                </g>
                                <g transform="translate(0.272910, 1.508240)" id="Shape">
                                    <path></path>
                                </g>
                            </g>
                            <g transform="translate(0.313145, 7.473935)" stroke="#EF2D28" stroke-width="0.1" fill="#FFFFFF">
                                <rect id="Rectangle-path" x="0.01778877" y="0.0159696" width="3.4284939" height="1.88616502" rx="0.94308251"></rect>
                                <rect id="Rectangle-path" x="0.1056906" y="0.0944868" width="3.252591" height="1.72899754" rx="0.86449877"></rect>
                                <polygon id="Shape" points="1.61808446 0.566037238 1.78237978 0.571787261 1.78984851 0.646355844 1.92426888 0.715187384 2.0288143 0.629144714 2.15576593 0.697976254 2.03629994 0.772557817 2.06615799 0.875811617 2.21549893 0.870074574 2.21549893 1.00775063 2.09603293 1.00201359 2.03628304 1.08805626 2.1707034 1.18557302 2.06615799 1.26587864 1.95412693 1.17983597 1.78984851 1.21425823 1.79731725 1.34046021 1.61808446 1.35193429 1.59567825 1.23146936 1.44632041 1.16836189 1.3641812 1.25440456 1.23721268 1.19131006 1.31190005 1.0937933 1.2222752 1.03068583 1.09534047 1.03068583 1.08787173 0.852863444 1.21482336 0.86433753 1.30444821 0.76108373 1.19990279 0.680778104 1.33432315 0.588998391 1.43139984 0.663566974 1.59569515 0.640618801 1.61810136 0.566037238"></polygon>
                                <circle id="Oval" cx="1.73738208" cy="1.03381708" r="0.25"></circle>
                                <g transform="translate(0.272910, 0.155260)" id="Shape">
                                    <path></path>
                                </g>
                                <g transform="translate(0.272910, 1.508240)" id="Shape">
                                    <path d="M0.27231456,0.00163636364 L0.00858426,0.501636364 M0.44814303,0.00163636364 L0.18441273,0.501636364 M0.62394669,0.00163636364 L0.36021639,0.501636364 M0.79977516,0.00163636364 L0.53604486,0.501636364 M0.97557882,0.00163636364 L0.71184852,0.501636364 M1.15140729,0.00163636364 L0.88767699,0.501636364 M1.32723576,0.00163636364 L1.06350546,0.501636364 M1.50303942,0.00163636364 L1.23930912,0.501636364 M1.67886789,0.00163636364 L1.41513759,0.501636364 M1.85467155,0.00163636364 L1.59094125,0.501636364 M2.03050002,0.00163636364 L1.76676972,0.501636364 M2.20632849,0.00163636364 L1.94259819,0.501636364 M1.50303942,0.00163636364 L1.23930912,0.501636364 M2.38213215,0.00163636364 L2.11840185,0.501636364 M2.55796062,0.00163636364 L2.29423032,0.501636364 M2.73378909,0.00163636364 L2.47005879,0.501636364 M2.90961756,0.00163636364 L2.64588726,0.501636364 M2.64583764,0.00163636364 L2.90956794,0.501636364 M2.47018284,0.00163636364 L2.73391314,0.501636364 M2.29427994,0.00163636364 L2.55801024,0.501636364 M2.11837704,0.00163636364 L2.38210734,0.501636364 M1.94272224,0.00163636364 L2.20645254,0.501636364 M1.76681934,0.00163636364 L2.03054964,0.501636364 M1.59091644,0.00163636364 L1.85464674,0.501636364 M1.41526164,0.00163636364 L1.67899194,0.501636364 M1.23935874,0.00163636364 L1.50308904,0.501636364 M1.06345584,0.00163636364 L1.32718614,0.501636364 M0.88780104,0.00163636364 L1.15153134,0.501636364 M0.71187333,0.00163636364 L0.97560363,0.501636364 M1.41526164,0.00163636364 L1.67899194,0.501636364 M0.53606967,0.00163636364 L0.79979997,0.501636364 M0.3602412,0.00163636364 L0.6239715,0.501636364 M0.18443754,0.00163636364 L0.44816784,0.501636364 M0.00860907,0.00163636364 L0.27233937,0.501636364"></path>
                                </g>
                            </g>
                            <path d="M6.36678008,11.5890272 C6.44093003,17.533616 7.4379165,18.7974121 6.51978723,18.7974121 C5.60165796,18.7974121 5.14259332,15.5113994 5.14259332,11.4626833 C5.14259332,7.41396725 5.75466511,4.12795449 6.67279438,4.12795449 C7.59092365,4.12795449 6.2878797,5.26679864 6.36678008,11.5893841 L6.36678008,11.5890272 Z" id="Shape" stroke="#EF2D28" stroke-width="0.1" fill="#FFFFFF" transform="translate(6.072215, 11.462683) rotate(201.539027) translate(-6.072215, -11.462683) "></path>
                            <path d="M1.58697243,14.4842254 L0.0925172696,14.8771663 C1.4990706,16.2132008 3.08137797,16.7633313 3.52101117,16.5275579 C3.96056994,16.2918067 2.72982027,15.741654 1.58699724,14.4842254 L1.58697243,14.4842254 Z" id="Shape" stroke="#EF2D28" stroke-width="0.1" fill="#FFFFFF" transform="translate(1.852387, 15.532416) scale(-1, 1) translate(-1.852387, -15.532416) "></path>
                            <path d="M1.43531388,14.6418597 L0.204559775,14.9562271 C1.57468785,16.2409104 2.92992875,16.6066557 3.28059917,16.449472 C3.63322717,16.2922883 2.5486381,15.8509584 1.43541055,14.6418597 L1.43531388,14.6418597 Z" id="Shape" stroke="#EF2D28" stroke-width="0.1" fill="#FFFFFF" transform="translate(1.776458, 15.562763) scale(-1, 1) translate(-1.776458, -15.562763) "></path>
                            <path d="M6.15137514,11.261914 C6.1546425,11.2816678 6.16444457,11.3715917 6.17321576,11.4073906 C6.17321576,11.4568293 6.17824784,11.4947851 6.18413608,11.5334703 C6.19804419,11.5672519 6.1956854,11.5986127 6.23873764,11.6110733 C6.26833605,11.6518998 6.28696174,11.6624828 6.32610014,11.6789624 C6.35278065,11.699492 6.39319454,11.7199596 6.43530326,11.737153 C6.47896704,11.7537722 6.51866456,11.7560533 6.56634701,11.7468514 C6.60461179,11.7231717 6.6328124,11.6987472 6.66462983,11.6789624 C6.67212553,11.6483463 6.67899222,11.6028801 6.68647045,11.5722795 C6.67469399,11.603687 6.66642949,11.6539792 6.66462983,11.6983592 C6.66882323,11.7467738 6.68673254,11.7678931 6.70831108,11.805042" id="Shape" stroke="#EF2D28" stroke-width="0.1" transform="translate(6.429843, 11.533478) scale(-1, 1) translate(-6.429843, -11.533478) "></path>
                            <path id="Shape" stroke="#EF2D28" stroke-width="0.1" transform="translate(5.786908, 12.030873) scale(-1, 1) translate(-5.786908, -12.030873) "></path>
                            <path d="M5.04861704,12.3967651 C5.07085953,12.3979289 5.17237476,12.4145481 5.2124392,12.3967651 C5.25702902,12.3859649 5.28351733,12.3651094 5.31072201,12.328876 C5.32412342,12.3026669 5.31072201,12.3753975 5.31072201,12.4064635 C5.31566673,12.4635679 5.33458945,12.4640955 5.36532357,12.5034479 C5.39701869,12.5214947 5.43040864,12.5468969 5.46360639,12.5616385 C5.49114305,12.5828354 5.52498728,12.5970184 5.5618892,12.6101307 C5.59501706,12.6240654 5.63371865,12.6382639 5.66017201,12.6586229 C5.69668954,12.6817905 5.69316009,12.7094892 5.71477357,12.7459088 C5.71066754,12.7933458 5.70196623,12.8202376 5.67109232,12.8428932 C5.65819762,12.8756817 5.62924569,12.9081443 5.60557045,12.9301791 C5.57857544,12.9747143 5.54867999,12.995725 5.61649076,13.0077666 C5.65374213,13.0219496 5.67462177,13.0108236 5.71477357,13.0077666" id="Shape" stroke="#EF2D28" stroke-width="0.1" transform="translate(5.381695, 12.669045) scale(-1, 1) translate(-5.381695, -12.669045) "></path>
                            <path d="M4.38237642,13.0755703 C4.40921418,13.0695029 4.50438688,13.04123 4.5461811,13.0270781 L4.69906548,13.0270781 C4.75831473,13.0311282 4.76960196,13.0465681 4.81920639,13.0658718 C4.85121601,13.0949051 4.87317894,13.1149382 4.9174892,13.1337764 C4.94091982,13.1606682 4.98655799,13.2063518 5.0048517,13.2404592 C5.01786871,13.2735581 5.02669233,13.318326 5.02669233,13.3665389 C5.02592354,13.4231468 5.00918488,13.4328142 5.0048517,13.4829202 C4.99260348,13.5245691 4.97271977,13.5627267 4.93932983,13.5993014 C4.93469961,13.6116068 4.93134489,13.6146017 4.9174892,13.6186983" id="Shape" stroke="#EF2D28" stroke-width="0.1" transform="translate(4.704534, 13.322888) scale(-1, 1) translate(-4.704534, -13.322888) "></path>
                            <path d="M3.56072869,13.7451075 C3.56536816,13.7451075 3.5756271,13.7698255 3.59174119,13.7910403 C3.62682253,13.8266352 3.63133795,13.8293177 3.68477869,13.8293177 C3.73295971,13.8275661 3.7284691,13.8105526 3.76230994,13.7986958 C3.77829999,13.7741003 3.79823482,13.7546003 3.81658182,13.7221411 C3.82906125,13.7021267 3.84002727,13.671566 3.85534744,13.6532419 C3.86950155,13.6305327 3.88714146,13.6133845 3.90186619,13.5919982 C3.91640485,13.5858493 3.92193748,13.5799454 3.94064422,13.5766872 C3.89598622,13.583767 3.89207865,13.5995556 3.86310057,13.62262 C3.8495295,13.6444106 3.83604526,13.6671197 3.82433494,13.6915192 C3.81985674,13.7242602 3.80932489,13.750056 3.80882869,13.7910403 C3.80882869,13.8333843 3.80903958,13.862965 3.82433494,13.8982169 C3.84260751,13.9171412 3.85612896,13.9367147 3.87860682,13.9518174 C3.89645761,13.9690269 3.91884864,13.9926793 3.9328911,14.0130612 C3.9572049,14.0278332 3.97488202,14.0398737 4.00266922,14.058994 C4.02604024,14.0724921 4.0512348,14.0863577 4.0879536,14.0896159 C4.13347995,14.0864067 4.14693937,14.0737292 4.1809911,14.058994 C4.20988234,14.0380119 4.23263311,14.024232 4.25852235,14.0054057 C4.27873009,13.9914299 4.29930999,13.9637232 4.31279422,13.944162 C4.35474793,13.9337995 4.38138147,13.9379396 4.40583172,13.9594729 C4.4271758,13.973805 4.44558868,13.9919859 4.4601036,14.0130612 C4.4727567,14.019308 4.49396925,14.0374362 4.50662235,14.0436831" id="Shape" stroke="#EF2D28" stroke-width="0.1" transform="translate(4.033676, 13.833152) scale(-1, 1) translate(-4.033676, -13.833152) "></path>
                            <path d="M3.1899602,14.0619865 C3.17759135,14.0670921 3.13263477,14.098169 3.1128477,14.109756 C3.1005097,14.1499741 3.08081517,14.1719558 3.07429145,14.214849 C3.06385042,14.2562594 3.06465239,14.3018583 3.06465239,14.3486037 C3.0752168,14.397428 3.09572872,14.4335494 3.1128477,14.4728045 C3.14329171,14.4933186 3.15860626,14.5084214 3.19959926,14.5301279 C3.23806298,14.5352794 3.27578641,14.5396818 3.3249225,14.5396818 C3.35428694,14.5493886 3.41151983,14.5540814 3.44059125,14.5396818 C3.48351206,14.5339342 3.51545206,14.5166454 3.54662093,14.5014662 C3.58218522,14.481487 3.60411601,14.4626085 3.64301156,14.4441427 C3.66190412,14.4166122 3.69128398,14.3912523 3.72012406,14.3581576 C3.74412147,14.32598 3.76176481,14.307927 3.77795843,14.2721724 C3.76370804,14.3129714 3.74207028,14.3485884 3.72976312,14.3868193 C3.70783233,14.427496 3.69509334,14.4419109 3.69120687,14.4919123 C3.67777387,14.5318552 3.68156781,14.5799611 3.68156781,14.625667 C3.68579357,14.6567133 3.68801441,14.7148928 3.70084593,14.7403138 L3.70084593,14.7689756" id="Shape" stroke="#EF2D28" stroke-width="0.1" transform="translate(3.421298, 14.415481) scale(-1, 1) translate(-3.421298, -14.415481) "></path>
                            <path d="M1.35842188,14.9211714 L1.35842188,14.9350339 C1.35842188,14.8976162 1.35943909,14.9166245 1.34291563,14.9904839 C1.31366464,15.0229111 1.24506499,15.0319161 1.18785313,15.0182089 C1.13768731,14.9811683 1.13922553,14.9531106 1.04829688,14.9350339 C0.960419859,14.9406454 0.926926359,14.9634021 0.877728129,14.9904839 C0.819325389,15.0165898 0.792431349,15.0297647 0.753678129,15.0875214 C0.734425569,15.134543 0.723682839,15.1663713 0.784690629,15.1845589 C0.833169369,15.2153004 0.890802999,15.2322237 0.955259379,15.2400089 C1.02688585,15.2400089 1.07851546,15.2324899 1.11032188,15.2677339 C1.15952011,15.3133138 1.15684063,15.3404178 1.15684063,15.4202214 C1.1733889,15.4448856 1.17666382,15.5176803 1.18785313,15.5449839 C1.23092329,15.563238 1.25620468,15.5727089 1.32740938,15.5727089 C1.34413132,15.5298793 1.36271401,15.4525155 1.37392813,15.4063589 C1.38606022,15.3564983 1.38980653,15.2870527 1.42044688,15.2538714 C1.44949691,15.2157234 1.48631918,15.1828045 1.52899063,15.1568339 C1.54799509,15.1330348 1.58414326,15.1132502 1.62202813,15.1013839 C1.56119401,15.1291311 1.55253532,15.1591184 1.54449688,15.2261464 C1.59796243,15.2500564 1.61225299,15.2668023 1.69955938,15.2677339 C1.78537717,15.2612795 1.80611833,15.2418055 1.83911563,15.1984214 C1.84511965,15.2679779 1.86995446,15.2912669 1.88563438,15.3509089 C1.91754004,15.3928513 1.9310863,15.4358139 1.96316563,15.4895339 C1.94949532,15.5563401 1.92007066,15.5596892 1.91664688,15.6420214 C1.89652597,15.6960297 1.89870925,15.7481083 1.85462188,15.7806686 C1.83497236,15.8021388 1.82028484,15.806353 1.77709063,15.8083936 C1.86685321,15.8083936 1.9191775,15.7997212 1.97867188,15.7668061 C2.02466962,15.7414987 2.05942843,15.7099587 2.10274669,15.6836311 C2.15762641,15.6480765 2.22548176,15.6152058 2.28882169,15.6004339 C2.36044816,15.6004339 2.41207777,15.5929149 2.44388419,15.6281589 C2.48779789,15.6562166 2.51729698,15.7046134 2.53692169,15.7668061 C2.55128668,15.838758 2.55676969,15.8866668 2.52141544,15.9331561 C2.49519127,15.9865655 2.48923687,16.0073704 2.52141544,16.0717811 C2.55743956,16.116873 2.61115321,16.122174 2.69198419,16.1410936 C2.75100718,16.1382545 2.80779727,16.1262108 2.84704669,16.1133686" id="Shape" stroke="#EF2D28" stroke-width="0.1" transform="translate(1.792818, 15.528730) scale(-1, 1) translate(-1.792818, -15.528730) "></path>
                            <g transform="translate(11.518415, 4.142290) scale(-1, 1) translate(-11.518415, -4.142290) translate(9.018415, 0.142290)" stroke="#EF2D28" stroke-width="0.1">
                                <path d="M1.64955857,7.61051092 C1.64955857,3.92312544 1.9646282,0.930290144 2.35285813,0.930290144 C2.74104837,0.930290144 3.056118,3.92290232 3.056118,7.61051092 L1.64955857,7.61051092 L1.64955857,7.61051092 Z" id="Shape" fill="#FFFFFF" transform="translate(2.352838, 4.270401) rotate(-27.315514) translate(-2.352838, -4.270401) "></path>
                                <path d="M1.85093809,7.59745387 C1.85093809,4.04019443 2.10299783,1.15297485 2.41358676,1.15297485 C2.72414392,1.15297485 2.97620367,4.0399792 2.97620367,7.59745387" id="Shape" fill="#FFFFFF" transform="translate(2.413571, 4.375214) rotate(-27.315341) translate(-2.413571, -4.375214) "></path>
                                <path d="M4.28724972,5.97665551 C4.29475232,6.3960338 4.28724972,6.8680229 4.28724972,7.31268632 L3.16197836,7.31268632 C3.16197836,6.8680229 3.15447576,6.3960338 3.16197836,5.97665551 L4.28724972,5.97665551 L4.28724972,5.97665551 Z" id="Shape" fill="#FFFFFF" transform="translate(3.724614, 6.644671) rotate(-27.315514) translate(-3.724614, -6.644671) "></path>
                                <path d="M4.14632243,6.05528577 C4.15382503,6.47466405 4.14632243,6.78948611 4.14632243,7.23414953 L3.30237884,7.23414953 C3.30237884,6.78948611 3.29487623,6.47466405 3.30237884,6.05528577 L4.14632243,6.05528577 L4.14632243,6.05528577 Z" id="Shape" fill="#FFFFFF" transform="translate(3.724351, 6.644718) rotate(-27.315514) translate(-3.724351, -6.644718) "></path>
                                <path d="M2.31381701,6.45779256 L2.87643284,6.45779256 L2.87643284,7.32227786 L2.31381701,7.32227786 L2.31381701,6.45779256 Z M2.31381701,6.45779256 L2.87643284,7.32227786 L2.31381701,6.45779256 Z M2.31381701,7.32236658 L2.87643284,6.45788128 L2.31381701,7.32236658 Z M2.31381701,2.05684903 L2.87643284,2.05684903 L2.31381701,2.05684903 Z" id="Shape" fill="#FFFFFF" transform="translate(2.595125, 4.689608) rotate(-27.315514) translate(-2.595125, -4.689608) "></path>
                                <circle id="Oval" fill="#EF0000" transform="translate(1.025116, 1.980069) rotate(15.789882) translate(-1.025116, -1.980069) " cx="1.12853748" cy="2.10278688" r="0.25"></circle>
                            </g>
                            <g transform="translate(5.875000, 4.125000)" id="Shape" stroke="#EF2D28" stroke-width="0.1">
                                <path d="M3.89460088,7.38565224 C3.96875083,13.330241 4.9657373,14.5940371 4.04760803,14.5940371 C3.12947876,14.5940371 2.67041413,11.3080244 2.67041413,7.25930832 C2.67041413,3.21059225 3.28248591,-0.0754205109 4.20061518,-0.0754205109 C5.11874445,-0.0754205109 3.8157005,1.06342364 3.89460088,7.38600915 L3.89460088,7.38565224 Z" fill="#FFFFFF" transform="translate(3.600035, 7.259308) rotate(-21.539027) translate(-3.600035, -7.259308) "></path>
                                <path d="M7.5544477,10.2808504 L6.05999254,10.6737913 C7.46654587,12.0098258 9.04885324,12.5599563 9.48848644,12.3241829 C9.92804521,12.0884317 8.69729554,11.538279 7.55447251,10.2808504 L7.5544477,10.2808504 Z" fill="#FFFFFF"></path>
                                <path d="M7.55477273,10.4383598 L6.32401862,10.7527271 C7.6941467,12.0374104 9.0493876,12.4031557 9.40005802,12.245972 C9.75268601,12.0887883 8.66809695,11.6474584 7.5548694,10.4383598 L7.55477273,10.4383598 Z" fill="#FFFFFF"></path>
                                <path d="M2.96381393,7.05853902 C2.96708128,7.0782928 2.97688336,7.16821671 2.98565455,7.20401559 C2.98565455,7.25345434 2.99068663,7.29141015 2.99657486,7.33009527 C3.01048297,7.36387687 3.00812419,7.39523774 3.05117643,7.40769829 C3.08077484,7.44852483 3.09940053,7.45910777 3.13853893,7.47558735 C3.16521943,7.49611701 3.20563333,7.51658459 3.24774205,7.53377798 C3.29140583,7.55039722 3.33110335,7.55267829 3.3787858,7.54347642 C3.41705058,7.51979671 3.44525119,7.49537217 3.47706861,7.47558735 C3.48456432,7.44497133 3.49143101,7.39950505 3.49890924,7.36890454 C3.48713277,7.40031196 3.47886828,7.45060418 3.47706861,7.49498423 C3.48126201,7.54339883 3.49917133,7.56451815 3.52074986,7.60166704"></path>
                                <path></path>
                                <path d="M3.95760143,8.19339005 C3.97984392,8.19455386 4.08135914,8.2111731 4.12142359,8.19339005 C4.16601341,8.18258987 4.19250172,8.16173435 4.2197064,8.12550099 C4.23310781,8.09929193 4.2197064,8.17202245 4.2197064,8.20308849 C4.22465112,8.26019289 4.24357383,8.26072048 4.27430796,8.30007286 C4.30600308,8.31811971 4.33939302,8.34352186 4.37259077,8.35826349 C4.40012743,8.37946039 4.43397167,8.39364339 4.47087359,8.40675567 C4.50400145,8.42069039 4.54270303,8.4348889 4.5691564,8.45524786 C4.60567392,8.47841549 4.60214448,8.50611423 4.62375796,8.5425338 C4.61965192,8.5899708 4.61095062,8.61686262 4.58007671,8.63951817 C4.56718201,8.67230665 4.53823007,8.70476926 4.51455484,8.72680411 C4.48755982,8.77133934 4.45766438,8.79235003 4.52547515,8.80439161 C4.56272652,8.81857461 4.58360616,8.80744856 4.62375796,8.80439161"></path>
                                <path d="M4.64555767,8.87207027 C4.67239543,8.86600293 4.76756814,8.83773005 4.80936236,8.82357809 L4.96224674,8.82357809 C5.02149598,8.82762815 5.03278322,8.84306807 5.08238765,8.86237184 C5.11439727,8.89140508 5.1363602,8.91143817 5.18067046,8.93027642 C5.20410108,8.95716824 5.24973925,9.00285176 5.26803296,9.03695923 C5.28104997,9.07005806 5.28987358,9.11482604 5.28987358,9.16303892 C5.28910479,9.21964676 5.27236614,9.22931416 5.26803296,9.27942017 C5.25578474,9.32106914 5.23590103,9.35922667 5.20251108,9.39580142 C5.19788087,9.40810679 5.19452615,9.41110167 5.18067046,9.41519829"></path>
                                <path d="M5.16550265,9.54173252 C5.17014212,9.54173252 5.18040105,9.5664505 5.19651515,9.58766534 C5.23159649,9.6232602 5.23611191,9.62594268 5.28955265,9.62594268 C5.33773367,9.62419111 5.33324306,9.6071776 5.3670839,9.59532081 C5.38307394,9.57072532 5.40300878,9.55122531 5.42135577,9.51876612 C5.4338352,9.49875166 5.44480122,9.46819103 5.4601214,9.4498669 C5.4742755,9.42715772 5.49191541,9.41000947 5.50664015,9.38862315 C5.52117881,9.38247428 5.52671144,9.37657038 5.54541818,9.37331221 C5.50076018,9.38039199 5.4968526,9.39618063 5.46787452,9.41924502 C5.45430345,9.44103555 5.44081922,9.46374473 5.4291089,9.48814424 C5.42463069,9.52088515 5.41409885,9.54668102 5.41360265,9.58766534 C5.41360265,9.63000927 5.41381353,9.65959 5.4291089,9.6948419 C5.44738146,9.71376622 5.46090291,9.73333972 5.48338077,9.74844243 C5.50123157,9.76565192 5.52362259,9.78930426 5.53766505,9.80968618 C5.56197885,9.82445817 5.57965598,9.83649869 5.60744318,9.85561899 C5.6308142,9.86911711 5.65600875,9.8829827 5.69272755,9.88624087 C5.7382539,9.88303169 5.75171333,9.87035424 5.78576505,9.85561899 C5.8146563,9.83463688 5.83740707,9.82085704 5.8632963,9.80203071 C5.88350405,9.78805489 5.90408394,9.76034821 5.91756818,9.74078696 C5.95952189,9.73042452 5.98615542,9.7345646 6.01060568,9.7560979 C6.03194976,9.77043 6.05036263,9.78861094 6.06487755,9.80968618 C6.07753065,9.81593304 6.0987432,9.83406119 6.1113963,9.84030805"></path>
                                <path d="M6.0197386,9.85848649 C6.00736976,9.8635921 5.96241317,9.89466904 5.9426261,9.90625602 C5.9302881,9.94647414 5.91059357,9.96845577 5.90406985,10.011349 C5.89362882,10.0527594 5.89443079,10.0983583 5.89443079,10.1451037 C5.9049952,10.193928 5.92550713,10.2300494 5.9426261,10.2693045 C5.97307012,10.2898186 5.98838466,10.3049214 6.02937766,10.3266279 C6.06784138,10.3317794 6.10556481,10.3361818 6.1547009,10.3361818 C6.18406534,10.3458886 6.24129824,10.3505814 6.27036965,10.3361818 C6.31329047,10.3304342 6.34523046,10.3131454 6.37639934,10.2979662 C6.41196362,10.277987 6.43389442,10.2591085 6.47278996,10.2406427 C6.49168252,10.2131122 6.52106239,10.1877523 6.54990246,10.1546576 C6.57389987,10.12248 6.59154321,10.104427 6.60773684,10.0686724 C6.59348645,10.1094714 6.57184868,10.1450884 6.55954152,10.1833193 C6.53761073,10.223996 6.52487174,10.2384109 6.52098527,10.2884123 C6.50755228,10.3283552 6.51134621,10.3764611 6.51134621,10.422167 C6.51557198,10.4532133 6.51779282,10.5113928 6.53062434,10.5368138 L6.53062434,10.5654756"></path>
                                <path d="M7.4450356,10.7177964 L7.4450356,10.7316589 C7.4450356,10.6942412 7.44605281,10.7132495 7.42952935,10.7871089 C7.40027836,10.8195361 7.33167871,10.8285411 7.27446685,10.8148339 C7.22430103,10.7777933 7.22583925,10.7497356 7.1349106,10.7316589 C7.04703358,10.7372704 7.01354008,10.7600271 6.96434185,10.7871089 C6.90593911,10.8132148 6.87904507,10.8263897 6.84029185,10.8841464 C6.82103929,10.931168 6.81029656,10.9629963 6.87130435,10.9811839 C6.91978309,11.0119254 6.97741672,11.0288487 7.0418731,11.0366339 C7.11349957,11.0366339 7.16512918,11.0291149 7.1969356,11.0643589 C7.24613383,11.1099388 7.24345435,11.1370428 7.24345435,11.2168464 C7.26000262,11.2415106 7.26327754,11.3143053 7.27446685,11.3416089 C7.31753701,11.359863 7.3428184,11.3693339 7.4140231,11.3693339 C7.43074504,11.3265043 7.44932773,11.2491405 7.46054185,11.2029839 C7.47267394,11.1531233 7.47642025,11.0836777 7.5070606,11.0504964 C7.53611063,11.0123484 7.5729329,10.9794295 7.61560435,10.9534589 C7.63460881,10.9296598 7.67075698,10.9098752 7.70864185,10.8980089 C7.64780773,10.9257561 7.63914904,10.9557434 7.6311106,11.0227714 C7.68457615,11.0466814 7.69886671,11.0634273 7.7861731,11.0643589 C7.87199089,11.0579045 7.89273205,11.0384305 7.92572935,10.9950464 C7.93173337,11.0646029 7.95656818,11.0878919 7.9722481,11.1475339 C8.00415376,11.1894763 8.01770002,11.2324389 8.04977935,11.2861589 C8.03610904,11.3529651 8.00668438,11.3563142 8.0032606,11.4386464 C7.98313969,11.4926547 7.98532297,11.5447333 7.9412356,11.5772936 C7.92158608,11.5987638 7.90689856,11.602978 7.86370435,11.6050186 C7.95346693,11.6050186 8.00579122,11.5963462 8.0652856,11.5634311 C8.11128334,11.5381237 8.14604215,11.5065837 8.18936041,11.4802561 C8.24424013,11.4447015 8.31209548,11.4118308 8.37543541,11.3970589 C8.44706188,11.3970589 8.49869149,11.3895399 8.53049791,11.4247839 C8.57441161,11.4528416 8.6039107,11.5012384 8.62353541,11.5634311 C8.6379004,11.635383 8.64338341,11.6832918 8.60802916,11.7297811 C8.58180499,11.7831905 8.57585059,11.8039954 8.60802916,11.8684061 C8.64405328,11.913498 8.69776693,11.918799 8.77859791,11.9377186 C8.8376209,11.9348795 8.89441099,11.9228358 8.93366041,11.9099936"></path>
                            </g>
                            <g transform="translate(1.528835, 0.063915)" stroke="#EF2D28" stroke-width="0.1">
                                <path d="M1.64955857,7.61051092 C1.64955857,3.92312544 1.9646282,0.930290144 2.35285813,0.930290144 C2.74104837,0.930290144 3.056118,3.92290232 3.056118,7.61051092 L1.64955857,7.61051092 L1.64955857,7.61051092 Z" id="Shape" fill="#FFFFFF" transform="translate(2.352838, 4.270401) rotate(-27.315514) translate(-2.352838, -4.270401) "></path>
                                <path d="M1.85093809,7.59745387 C1.85093809,4.04019443 2.10299783,1.15297485 2.41358676,1.15297485 C2.72414392,1.15297485 2.97620367,4.0399792 2.97620367,7.59745387" id="Shape" fill="#FFFFFF" transform="translate(2.413571, 4.375214) rotate(-27.315341) translate(-2.413571, -4.375214) "></path>
                                <path d="M4.28724972,5.97665551 C4.29475232,6.3960338 4.28724972,6.8680229 4.28724972,7.31268632 L3.16197836,7.31268632 C3.16197836,6.8680229 3.15447576,6.3960338 3.16197836,5.97665551 L4.28724972,5.97665551 L4.28724972,5.97665551 Z" id="Shape" fill="#FFFFFF" transform="translate(3.724614, 6.644671) rotate(-27.315514) translate(-3.724614, -6.644671) "></path>
                                <path d="M4.14632243,6.05528577 C4.15382503,6.47466405 4.14632243,6.78948611 4.14632243,7.23414953 L3.30237884,7.23414953 C3.30237884,6.78948611 3.29487623,6.47466405 3.30237884,6.05528577 L4.14632243,6.05528577 L4.14632243,6.05528577 Z" id="Shape" fill="#FFFFFF" transform="translate(3.724351, 6.644718) rotate(-27.315514) translate(-3.724351, -6.644718) "></path>
                                <path d="M2.31381701,6.45779256 L2.87643284,6.45779256 L2.87643284,7.32227786 L2.31381701,7.32227786 L2.31381701,6.45779256 Z M2.31381701,6.45779256 L2.87643284,7.32227786 L2.31381701,6.45779256 Z M2.31381701,7.32236658 L2.87643284,6.45788128 L2.31381701,7.32236658 Z M2.31381701,2.05684903 L2.87643284,2.05684903 L2.31381701,2.05684903 Z" id="Shape" fill="#FFFFFF" transform="translate(2.595125, 4.689608) rotate(-27.315514) translate(-2.595125, -4.689608) "></path>
                                <circle id="Oval" fill="#EF0000" transform="translate(1.025116, 1.980069) rotate(15.789882) translate(-1.025116, -1.980069) " cx="1.12853748" cy="2.10278688" r="0.25"></circle>
                            </g>
                            <g transform="translate(0.759725, 1.108275)" stroke="#EF2D28" stroke-width="0.1" fill="#FFFFFF">
                                <path d="M5.72440666,4.809733 C5.72440666,7.5604966 5.74064853,8.5971898 5.53850171,8.7393636 C5.3469733,8.89145186 0.0103103165,8.7393636 0.0103103165,9.52526754 C0.0103103165,10.3111715 4.40554003,11.0970976 5.72440666,11.0970754 C7.48253163,11.0970754 8.36157757,10.3111715 8.36157757,8.73934142 L8.36157757,4.80971082 L5.72440666,4.80971082 L5.72440666,4.809733 Z" id="Shape"></path>
                                <path id="Shape"></path>
                                <path id="Shape"></path>
                                <path id="Shape"></path>
                                <path id="Shape"></path>
                                <ellipse id="Oval" cx="5.97488404" cy="5.59141858" rx="0.25" ry="0.25"></ellipse>
                                <circle id="Oval" cx="6.45434457" cy="5.63369137" r="0.25"></circle>
                                <ellipse id="Oval" cx="6.93394043" cy="5.67602562" rx="0.25" ry="0.25"></ellipse>
                                <circle id="Oval" cx="7.41340096" cy="5.67602562" r="0.25"></circle>
                                <ellipse id="Oval" cx="7.89286149" cy="5.63369137" rx="0.25" ry="0.25"></ellipse>
                                <ellipse id="Oval" cx="8.37245735" cy="5.59141858" rx="0.25" ry="0.25"></ellipse>
                                <path d="M5.7249075,6.7744374 L8.3622105,8.89637582 M5.9886378,6.7744374 L8.36218569,8.66060242 M6.3401955,6.8531764 L8.36211126,8.42498428 M6.6039258,6.8531764 L8.36211126,8.18923306 M6.8676561,6.8531764 L8.36211126,7.95345966 M7.1313864,6.8531764 L8.36211126,7.71768626 M7.3951167,6.8531764 L8.36211126,7.48191286 M7.658847,6.8531764 L8.36211126,7.3247232 M7.9225773,6.8531764 L8.36211126,7.16755572 M8.1863076,6.8531764 L8.36211126,7.01036606 M5.7249075,7.0102108 L8.3622105,9.13214922 M8.3622105,6.7744374 L5.4611772,9.1321714 M8.0984802,6.7744374 L5.5490046,8.81779208 M7.7469225,6.8531764 L5.72500674,8.42498428 M7.4831922,6.8531764 L5.72500674,8.18923306 M7.2194619,6.8531764 L5.72500674,7.95345966 M6.9557316,6.8531764 L5.72500674,7.71768626 M6.6920013,6.8531764 L5.72500674,7.48191286 M6.428271,6.8531764 L5.72500674,7.3247232 M6.1645407,6.8531764 L5.72500674,7.16755572 M5.9008104,6.8531764 L5.72500674,7.01036606 M8.3622105,7.0102108 L5.4611772,9.3679448 M8.3622105,7.2459842 L5.4611772,9.6037182 M8.3622105,7.4817576 L5.4611772,9.8394916 M8.3622105,7.717531 L5.4611772,10.075265 M8.3622105,7.9533044 L5.4611772,10.3110384 M8.3622105,8.1890778 L5.4611772,10.5468118 M8.3622105,8.4248512 L5.4611772,10.7825852 M8.3622105,8.6606246 L5.4611772,11.0183586 M8.3622105,8.896398 L5.6370801,11.0968758 M8.3622105,9.1321714 L5.90076078,11.0969423 M8.274135,9.446462 L6.34012107,11.0182699 M8.1863076,9.7609744 L6.60395061,11.0184251 M8.0104047,10.1537822 L7.2192138,10.7824965 M5.7249075,7.2459842 L8.2743831,9.28933888 M5.72483307,7.48191286 L8.27430867,9.52526754 M5.72483307,7.71768626 L8.1863076,9.6824572 M5.72483307,7.95345966 L8.1863076,9.9182306 M5.72498193,8.18914434 L8.09855463,10.0753094 M5.63693124,8.34640054 L8.01047913,10.2325877 M5.63693124,8.58217394 L7.83467547,10.3111715 M5.54907903,8.73920834 L7.74682326,10.4682059 M5.46102834,8.89646454 L7.57087074,10.5468562 M5.46100353,9.1321714 L7.48291929,10.7039571 M5.46100353,9.3679448 L7.21918899,10.782563" id="Shape"></path>
                                <path id="Shape"></path>
                                <path d="M5.46102834,9.6037182 L7.04341014,10.8611468 M5.46102834,9.8394916 L6.86758167,10.9397527 M5.46100353,10.075265 L6.69172839,11.0183364 M5.46102834,10.3110384 L6.34014588,11.0183364 M5.46102834,10.5468118 L6.16431741,11.0969645 M5.46100353,10.7825852 L5.90053749,11.0969423" id="Shape"></path>
                                <ellipse id="Oval" cx="5.97488404" cy="6.77028558" rx="0.25" ry="0.25"></ellipse>
                                <circle id="Oval" cx="6.45434457" cy="6.81255837" r="0.25"></circle>
                                <ellipse id="Oval" cx="6.93394043" cy="6.85489262" rx="0.25" ry="0.25"></ellipse>
                                <circle id="Oval" cx="7.41340096" cy="6.85489262" r="0.25"></circle>
                                <ellipse id="Oval" cx="7.89286149" cy="6.81255837" rx="0.25" ry="0.25"></ellipse>
                                <ellipse id="Oval" cx="8.37245735" cy="6.77028558" rx="0.25" ry="0.25"></ellipse>
                                <path d="M1.9448559,10.4682946 L5.1093714,8.8178808 M1.76902743,10.3897109 L4.75788813,8.81781426 M1.6811256,10.2325434 L4.406256,8.81790298 M1.59322377,10.0753537 L3.96677166,8.81790298 M1.41732087,9.9180088 L3.6150651,8.81774772 M1.50514827,9.68239066 L2.99960343,8.89648672 M1.41732087,9.52528972 L2.5601439,8.89657544 M1.41724644,9.28936106 L2.20843734,8.896398 M2.20841253,10.5467453 L5.19727323,8.97507046 M2.47224207,10.6254177 L5.28519987,9.13226012 M2.7360468,10.704068 L5.3733498,9.2894276 M2.9997771,10.7826739 L5.19752133,9.60380692 M3.35140923,10.7824965 L5.28539835,9.76081914 M3.61513953,10.8611024 L5.28542316,9.99661472 M3.87869616,10.9397749 L5.19734766,10.2324547 M4.2303531,10.9399079 L5.2852743,10.3897774 M4.5819108,11.0185139 L5.28519987,10.6255508 M4.93379103,11.0184251 L5.3733498,10.7826517" id="Shape"></path>
                                <path id="Shape" transform="translate(5.274378, 9.918231) rotate(90.000000) translate(-5.274378, -9.918231) "></path>
                                <path d="M0.3624741,9.83958032 L1.4173953,9.05367638 M0.3624741,9.288984 L1.4173953,10.2320776" id="Shape"></path>
                                <path d="M0.71414086,9.44647983 L0.802054632,9.91802663 C1.35881043,10.0228227 1.82765246,10.0228227 2.3843454,9.91802663 L2.56017295,9.44647983 C2.00341715,9.55127589 1.27083381,9.55127589 0.714062295,9.44647983 L0.71414086,9.44647983 Z" id="Shape" transform="translate(1.637118, 9.721552) rotate(90.000000) translate(-1.637118, -9.721552) "></path>
                                <path d="M8.35891767,4.96696702 L8.35891767,4.57072132 C7.96377056,4.57402614 7.70036393,4.33825274 7.70032676,4.09917452 L6.3832193,4.10247934 C6.3832193,4.33825274 6.1197755,4.57402614 5.72462839,4.57402614 L5.72462839,4.96696702 L8.35891767,4.96696702 L8.35891767,4.96696702 Z" id="Shape"></path>
                                <path d="M6.4776429,3.630866 L7.60664676,3.630866 L7.60664676,4.1024128 L6.4776429,4.1024128 L6.4776429,3.630866 Z M6.5716728,3.1593192 L7.51251762,3.1593192 L7.51251762,3.630866 L6.5716728,3.630866 L6.5716728,3.1593192 Z M6.5716728,2.6877724 L7.51251762,2.6877724 L7.51251762,3.1593192 L6.5716728,3.1593192 L6.5716728,2.6877724 Z M6.6657027,2.0589694 L7.41836367,2.0589694 L7.41836367,2.68768368 L6.6657027,2.68768368 L6.6657027,2.0589694 Z" id="Shape"></path>
                                <polygon id="Shape" points="6.6332016 1.5089054 7.45076553 1.5089054 7.45076553 2.05903594 6.6332016 2.05903594"></polygon>
                                <ellipse id="Oval" cx="7.08721021" cy="0.99807782" rx="1.09005008" ry="0.74660098"></ellipse>
                                <path d="M7.63223525,0.95881922 C7.63223525,1.1648936 7.90474777,1.50894976 7.90474777,1.50894976 C7.70745178,1.6440925 7.38807634,1.74472316 7.08723585,1.74472316 C6.78639536,1.74472316 6.41174832,1.68865212 6.26969829,1.50894976 C6.26969829,1.50894976 6.54221081,1.1648936 6.54221081,0.95881922 C6.54221081,0.75274484 6.26969829,0.48727242 6.26969829,0.48727242 C6.46699428,0.35212968 6.78636972,0.25149902 7.08723585,0.25149902 C7.38807634,0.25149902 7.70745178,0.35212968 7.90474777,0.48727242 C7.90474777,0.48727242 7.63223525,0.75274484 7.63223525,0.95881922 L7.63223525,0.95881922 Z" id="Shape"></path>
                                <path d="M7.45073114,0.95881922 C7.45073114,1.1648936 7.72324366,1.5875335 7.72324366,1.5875335 C7.52594767,1.72267624 7.38823015,1.74472316 7.08738966,1.74472316 C6.78654917,1.74472316 6.5935857,1.76723586 6.45153566,1.5875335 C6.45153566,1.5875335 6.72404818,1.1648936 6.72404818,0.95881922 C6.72404818,0.75274484 6.45153566,0.40868868 6.45153566,0.40868868 C6.64883165,0.27354594 6.78652354,0.25149902 7.08738966,0.25149902 C7.38823015,0.25149902 7.52594767,0.27354594 7.72324366,0.40868868 C7.72324366,0.40868868 7.45073114,0.75274484 7.45073114,0.95881922 L7.45073114,0.95881922 Z" id="Shape"></path>
                                <ellipse id="Oval" cx="5.99716013" cy="1.05171828" rx="0.272512519" ry="0.25"></ellipse>
                                <ellipse id="Oval" cx="8.17736369" cy="1.05171828" rx="0.272512519" ry="0.25"></ellipse>
                                <ellipse id="Oval" cx="7.08721229" cy="1.05171828" rx="0.272512519" ry="0.25"></ellipse>
                                <ellipse id="Oval" cx="7.08721229" cy="0.26581434" rx="0.272512519" ry="0.25"></ellipse>
                                <ellipse id="Oval" cx="6.289126" cy="4.7454424" rx="0.282244167" ry="0.25"></ellipse>
                                <ellipse id="Oval" cx="7.79457199" cy="4.7454424" rx="0.282244167" ry="0.25"></ellipse>
                                <polygon id="Shape" points="6.38327856 4.10239062 7.70042686 4.10239062 7.04186599 4.80971082"></polygon>
                                <ellipse id="Oval" cx="7.04203964" cy="4.6526494" rx="0.376343138" ry="0.314356674"></ellipse>
                            </g>
                            <g transform="translate(3.345710, 7.555945)" fill="#FFFFFF">
                                <rect id="Rectangle-path" stroke="#EF2D28" stroke-width="0.1" x="3.006972" y="0.5635938" width="2.02191576" height="0.5" rx="0.25"></rect>
                                <path d="M5.6445231,0.1705642 C5.40103776,0.1705642 5.20498914,0.35374882 5.20498914,0.58131562 L5.20498914,0.9386576 C5.20498914,1.1662244 5.40103776,1.3494312 5.6445231,1.3494312 C5.88803325,1.3494312 6.08408187,1.1662244 6.08408187,0.9386576 L6.08408187,0.58131562 C6.08408187,0.35374882 5.88803325,0.1705642 5.6445231,0.1705642 L5.6445231,0.1705642 Z M5.6445231,0.32775386 C5.49844182,0.32775386 5.3807928,0.4743193 5.3807928,0.65637274 L5.3807928,0.86364484 C5.3807928,1.04569828 5.49844182,1.19226372 5.6445231,1.19226372 C5.79062919,1.19226372 5.9082534,1.04569828 5.9082534,0.86364484 L5.9082534,0.65637274 C5.9082534,0.4743193 5.79062919,0.32775386 5.6445231,0.32775386 L5.6445231,0.32775386 Z M3.3587778,0.2493032 C3.21269652,0.2493032 3.0950475,0.39586864 3.0950475,0.57792208 L3.0950475,0.94238384 C3.0950475,1.12443728 3.21269652,1.27100272 3.3587778,1.27100272 C3.50488389,1.27100272 3.6225081,1.12443728 3.6225081,0.94238384 L3.6225081,0.57792208 C3.6225081,0.39586864 3.50488389,0.2493032 3.3587778,0.2493032 L3.3587778,0.2493032 Z M3.3587778,0.09211354 C3.11529246,0.09211354 2.91924384,0.27529816 2.91924384,0.50286496 L2.91924384,1.0173966 C2.91924384,1.2449634 3.11529246,1.4281702 3.3587778,1.4281702 C3.60228795,1.4281702 3.79833657,1.2449634 3.79833657,1.0173966 L3.79833657,0.50286496 C3.79833657,0.27529816 3.60228795,0.09211354 3.3587778,0.09211354 L3.3587778,0.09211354 Z" id="Shape"></path>
                                <path d="M2.6554143,0.4063376 C2.50933302,0.4063376 2.391684,0.55290304 2.391684,0.73495648 L2.39165919,0.82066 C2.39165919,1.00271344 2.50930821,1.14927888 2.65538949,1.14927888 C2.80149558,1.14927888 2.91911979,1.00271344 2.91911979,0.82066 L2.9191446,0.73495648 C2.9191446,0.55290304 2.80152039,0.4063376 2.6554143,0.4063376 L2.6554143,0.4063376 Z M2.6554143,0.24914794 C2.41192896,0.24914794 2.21588034,0.43233256 2.21588034,0.65989936 L2.21585553,0.89567276 C2.21585553,1.12323956 2.41190415,1.30644636 2.65538949,1.30644636 C2.89889964,1.30644636 3.09494826,1.12323956 3.09494826,0.89567276 L3.09497307,0.65989936 C3.09497307,0.43233256 2.89892445,0.24914794 2.6554143,0.24914794 L2.6554143,0.24914794 Z" id="Shape"></path>
                                <path d="M1.6007412,0.188934563 C1.3377949,0.188934563 1.12602666,0.352736099 1.12602666,0.556199023 L1.12602666,0.963521486 C1.12602666,1.16698441 1.3377949,1.33078595 1.6007412,1.33078595 C1.86373216,1.33078595 2.07545574,1.16698441 2.07545574,0.963521486 L2.07545574,0.556199023 C2.07545574,0.352736099 1.86373216,0.188934563 1.6007412,0.188934563 L1.6007412,0.188934563 Z M1.6007412,0.0132593992 C1.16246759,0.0132593992 0.809580072,0.21798653 0.809580072,0.472315186 L0.809580072,1.04735575 C0.809580072,1.3016844 1.16246759,1.50643632 1.6007412,1.50643632 C2.03905947,1.50643632 2.39194699,1.3016844 2.39194699,1.04735575 L2.39194699,0.472315186 C2.39194699,0.21798653 2.03905947,0.0132593992 1.6007412,0.0132593992 L1.6007412,0.0132593992 Z" id="Shape"></path>
                                <path d="M7.3147323,0.267451763 C7.051786,0.267451763 6.84001776,0.431253299 6.84001776,0.634716223 L6.84001776,1.04203869 C6.84001776,1.24550161 7.051786,1.40930315 7.3147323,1.40930315 C7.57772326,1.40930315 7.78944684,1.24550161 7.78944684,1.04203869 L7.78944684,0.634716223 C7.78944684,0.431253299 7.57772326,0.267451763 7.3147323,0.267451763 L7.3147323,0.267451763 Z M7.3147323,0.0917765992 C6.87645869,0.0917765992 6.52357117,0.29650373 6.52357117,0.550832386 L6.52357117,1.12587295 C6.52357117,1.3802016 6.87645869,1.58495352 7.3147323,1.58495352 C7.75305057,1.58495352 8.10593809,1.3802016 8.10593809,1.12587295 L8.10593809,0.550832386 C8.10593809,0.29650373 7.75305057,0.0917765992 7.3147323,0.0917765992 L7.3147323,0.0917765992 Z" id="Shape"></path>
                                <rect id="Rectangle-path" x="5.8201779" y="0.5635938" width="1.0549212" height="0.5" rx="0.25"></rect>
                                <rect id="Rectangle-path" x="4.8530841" y="0.4850766" width="0.61536243" height="0.62871428" rx="0.307681215"></rect>
                                <rect id="Rectangle-path" x="1.9522989" y="0.4850766" width="0.61536243" height="0.62871428" rx="0.307681215"></rect>
                                <rect id="Rectangle-path" x="0.0181113" y="0.4063376" width="1.23072486" height="0.78590394" rx="0.39295197"></rect>
                                <rect id="Rectangle-path" x="7.66629" y="0.4850766" width="1.14282303" height="0.78590394" rx="0.39295197"></rect>
                            </g>
                        </g>
                    </g>
                </g>
            </g>
        </g>
    </g>
</svg>