<?xml version="1.0" encoding="UTF-8" standalone="no"?>
<svg width="122px" height="60px" viewBox="0 0 122 60" version="1.1" xmlns="http://www.w3.org/2000/svg" xmlns:xlink="http://www.w3.org/1999/xlink">
    <!-- Generator: Sketch 3.8.2 (29753) - http://www.bohemiancoding.com/sketch -->
    <title>ni</title>
    <desc>Created with Sketch.</desc>
    <defs>
        <polygon id="path-1" points="8 0.046875 0.03725 13.838375 15.96225 13.838375"></polygon>
        <linearGradient x1="37.2625644%" y1="75.2881844%" x2="56.321196%" y2="17.2910663%" id="linearGradient-3">
            <stop stop-color="#510000" offset="0%"></stop>
            <stop stop-color="#8A0000" offset="30%"></stop>
            <stop stop-color="#AA0000" offset="100%"></stop>
        </linearGradient>
        <linearGradient x1="63.947374%" y1="65.8556379%" x2="78.9870489%" y2="19.6256259%" id="linearGradient-4">
            <stop stop-color="#FF2A2A" offset="0%"></stop>
            <stop stop-color="#FF0000" offset="100%"></stop>
        </linearGradient>
        <linearGradient x1="69.4545313%" y1="66.1429167%" x2="99.1267187%" y2="66.1429167%" id="linearGradient-5">
            <stop stop-color="#002255" offset="0%"></stop>
            <stop stop-color="#0044AA" offset="50%"></stop>
            <stop stop-color="#002255" offset="100%"></stop>
        </linearGradient>
        <linearGradient x1="0%" y1="-291.613463%" x2="171.089048%" y2="-291.613463%" id="linearGradient-6">
            <stop stop-color="#002255" offset="0%"></stop>
            <stop stop-color="#0044AA" offset="50%"></stop>
            <stop stop-color="#002255" offset="100%"></stop>
        </linearGradient>
        <linearGradient x1="69.4545313%" y1="66.3747917%" x2="99.1267187%" y2="66.3747917%" id="linearGradient-7">
            <stop stop-color="#002255" offset="0%"></stop>
            <stop stop-color="#0044AA" offset="50%"></stop>
            <stop stop-color="#002255" offset="100%"></stop>
        </linearGradient>
        <linearGradient x1="69.4545313%" y1="66.6075%" x2="99.1267187%" y2="66.6075%" id="linearGradient-8">
            <stop stop-color="#002255" offset="0%"></stop>
            <stop stop-color="#0044AA" offset="50%"></stop>
            <stop stop-color="#002255" offset="100%"></stop>
        </linearGradient>
        <linearGradient x1="69.4545313%" y1="66.8395833%" x2="99.1267187%" y2="66.8395833%" id="linearGradient-9">
            <stop stop-color="#002255" offset="0%"></stop>
            <stop stop-color="#0044AA" offset="50%"></stop>
            <stop stop-color="#002255" offset="100%"></stop>
        </linearGradient>
        <linearGradient x1="69.4545313%" y1="67.536875%" x2="99.1267187%" y2="67.536875%" id="linearGradient-10">
            <stop stop-color="#002255" offset="0%"></stop>
            <stop stop-color="#0044AA" offset="50%"></stop>
            <stop stop-color="#002255" offset="100%"></stop>
        </linearGradient>
        <linearGradient x1="-6.12275858%" y1="216.915423%" x2="185.936062%" y2="216.915423%" id="linearGradient-11">
            <stop stop-color="#002255" offset="0%"></stop>
            <stop stop-color="#0044AA" offset="50%"></stop>
            <stop stop-color="#002255" offset="100%"></stop>
        </linearGradient>
        <linearGradient x1="-15.0647828%" y1="519.9%" x2="207.602744%" y2="519.9%" id="linearGradient-12">
            <stop stop-color="#002255" offset="0%"></stop>
            <stop stop-color="#0044AA" offset="50%"></stop>
            <stop stop-color="#002255" offset="100%"></stop>
        </linearGradient>
        <linearGradient x1="-21.0582785%" y1="44.4905099%" x2="-21.0582785%" y2="62.5039184%" id="linearGradient-13">
            <stop stop-color="#F5F549" offset="0%"></stop>
            <stop stop-color="#97C924" offset="100%"></stop>
        </linearGradient>
        <linearGradient x1="26.890884%" y1="44.4773614%" x2="26.890884%" y2="62.4891307%" id="linearGradient-14">
            <stop stop-color="#F5F549" offset="0%"></stop>
            <stop stop-color="#97C924" offset="100%"></stop>
        </linearGradient>
        <linearGradient x1="58.2474753%" y1="44.4936594%" x2="58.2474753%" y2="62.5083429%" id="linearGradient-15">
            <stop stop-color="#F5F549" offset="0%"></stop>
            <stop stop-color="#97C924" offset="100%"></stop>
        </linearGradient>
        <linearGradient x1="0.000509604296%" y1="0.0542779012%" x2="100.000424%" y2="0.0542779012%" id="linearGradient-16">
            <stop stop-color="#002255" offset="0%"></stop>
            <stop stop-color="#0044AA" offset="50%"></stop>
            <stop stop-color="#002255" offset="100%"></stop>
        </linearGradient>
        <linearGradient x1="-0.00283069117%" y1="-0.403647483%" x2="100.001947%" y2="-0.403647483%" id="linearGradient-17">
            <stop stop-color="#002255" offset="0%"></stop>
            <stop stop-color="#0044AA" offset="50%"></stop>
            <stop stop-color="#002255" offset="100%"></stop>
        </linearGradient>
    </defs>
    <g id="Page-1" stroke="none" stroke-width="1" fill="none" fill-rule="evenodd">
        <g id="ni">
            <g id="Group">
                <g>
                    <polygon id="Shape" fill="#0067C6" points="0 0 122 0 122 60 0 60"></polygon>
                    <polygon id="Shape" fill="#FFFFFF" points="0 20 122 20 122 40 0 40"></polygon>
                    <path d="M52,29.932875 L52.997875,29.999625 C53.00125,29.950875 53.004125,29.902375 53.007875,29.85375 L52.615375,29.8275 C52.625125,29.66725 52.6385,29.507125 52.645625,29.346625 C52.784375,29.24625 52.923375,29.146 53.061875,29.044875 L53.074125,28.859875 L52.635375,29.178625 C52.620375,29.074875 52.563125,28.967875 52.45875,28.931875 C52.3675,28.89875 52.255625,28.893125 52.1765,28.958125 C52.076125,29.031875 52.058125,29.164125 52.04525,29.279 C52.02775,29.49675 52.01525,29.715 52,29.93275 L52,29.932875 Z M52.152,29.796625 C52.164,29.632875 52.171375,29.46875 52.187,29.305375 C52.1995,29.2245 52.21425,29.131125 52.285,29.079625 C52.34875,29.037125 52.443375,29.06875 52.469625,29.140875 C52.52175,29.265875 52.498625,29.403375 52.491875,29.534 L52.473125,29.818125 L52.151875,29.796625 L52.152,29.796625 Z M52.13,28.400625 C52.4545,28.476375 52.779125,28.552125 53.10375,28.628125 L53.325,27.680125 C53.27875,27.6695 53.23275,27.658875 53.186625,27.648 L52.998375,28.45425 L52.702125,28.385 C52.758375,28.14275 52.815,27.9005 52.871625,27.658375 L52.734125,27.626125 L52.564125,28.352625 L52.302,28.291375 L52.48325,27.515375 L52.344125,27.482875 C52.272875,27.78875 52.201375,28.094625 52.129875,28.400375 L52.13,28.400625 Z M52.48075,27.092875 L53.42525,27.421375 L53.473125,27.2835 C53.349375,27.2405 53.225625,27.19725 53.101625,27.154375 C53.150125,27.0115 53.20325,26.870125 53.247875,26.726 C53.279875,26.60825 53.3045,26.470625 53.235375,26.36125 C53.179125,26.28025 53.079125,26.228375 52.980375,26.2315 C52.871625,26.236125 52.782875,26.31625 52.7345,26.409 C52.66325,26.54325 52.62325,26.690875 52.571125,26.833 L52.480625,27.093 L52.48075,27.092875 Z M52.66325,27.001625 C52.71375,26.86 52.7595,26.716625 52.814125,26.57625 C52.84825,26.50125 52.88975,26.4125 52.975875,26.38875 C53.04675,26.3725 53.120875,26.427 53.127125,26.499625 C53.144625,26.633125 53.086125,26.75925 53.045125,26.883375 L52.96725,27.107375 L52.6635,27.001625 L52.66325,27.001625 Z M53.0025,25.88325 C53.1805,25.986625 53.357,26.0925 53.53625,26.194 C53.637125,26.248375 53.76525,26.279375 53.870875,26.2185 C54.015,26.13875 54.10525,25.9915 54.175875,25.847875 C54.23175,25.726875 54.272125,25.576625 54.201125,25.452875 C54.1245,25.329125 53.985375,25.2725 53.866625,25.19875 L53.520875,24.9965 C53.4965,25.038375 53.472125,25.08025 53.4475,25.122 C53.617125,25.22175 53.78775,25.3195 53.95625,25.42075 C54.037,25.46975 54.10375,25.558625 54.09,25.6575 C54.074,25.77525 54.006625,25.87875 53.9395,25.97375 C53.88425,26.051 53.79125,26.11325 53.692625,26.0925 C53.589875,26.0725 53.506375,26.005375 53.415875,25.956625 L53.075875,25.757875 C53.0515,25.799625 53.027125,25.841625 53.0025,25.88325 L53.0025,25.88325 Z M53.72275,24.70625 L54.516875,25.31375 C54.640125,25.153 54.762875,24.991625 54.886875,24.8315 C54.958125,24.729375 55.02375,24.5965 54.975625,24.471125 C54.931875,24.371125 54.829,24.294 54.718875,24.288875 C54.66925,24.282125 54.604375,24.31975 54.577625,24.336375 C54.60575,24.22975 54.5185,24.1295 54.420125,24.101375 C54.302125,24.05925 54.18225,24.135125 54.104125,24.219125 C54.012,24.319125 53.935125,24.432 53.851,24.5385 L53.722875,24.706 L53.72275,24.70625 Z M53.924,24.67625 C54.017125,24.5575 54.105,24.43425 54.202375,24.31875 C54.247625,24.268375 54.32025,24.21125 54.3905,24.24825 C54.4545,24.276 54.47025,24.35675 54.43975,24.414875 C54.391,24.518625 54.311,24.603 54.244125,24.69525 C54.207875,24.74275 54.171625,24.79025 54.135125,24.83775 C54.064625,24.784 53.99425,24.73025 53.923875,24.67625 L53.924,24.67625 Z M54.24775,24.924 C54.344,24.800625 54.435,24.67275 54.53675,24.55375 C54.588625,24.499375 54.654,24.430875 54.736375,24.4465 C54.807,24.46275 54.85825,24.539 54.833875,24.61025 C54.79425,24.741 54.696375,24.84125 54.617625,24.949625 L54.493375,25.111875 L54.247875,24.924 L54.24775,24.924 Z M54.623125,23.6455 L55.309875,24.372375 L55.898,23.8165 L55.8005,23.71325 L55.329875,24.15775 L55.31775,24.169 L55.309,24.16 L54.728625,23.545625 L54.623125,23.6455 Z M55.5035,22.87525 L56.113,23.668 L56.232,23.5765 L55.622375,22.78375 L55.5035,22.87525 Z M56.399125,22.267 C56.300375,22.3285 56.220625,22.4005 56.159375,22.4845 C56.098125,22.56825 56.06525,22.65575 56.060375,22.74675 C56.055625,22.838 56.08,22.92625 56.13375,23.0125 C56.1819824,23.0904555 56.2501669,23.1541087 56.33125,23.196875 C56.4131745,23.2405699 56.5066355,23.2577772 56.59875,23.246125 C56.6955,23.23525 56.8045,23.192375 56.925875,23.116875 C57.042375,23.044375 57.125,22.960625 57.175875,22.864375 C57.224625,22.772125 57.238375,22.674125 57.2175,22.56975 L57.07925,22.62375 C57.1155,22.82375 56.9865,22.919625 56.84225,23.01125 C56.616375,23.14875 56.39625,23.13875 56.261375,22.93225 C56.121625,22.6995 56.2745,22.50725 56.466625,22.38225 C56.602875,22.29725 56.7375,22.239 56.865375,22.3205 L56.973625,22.224 C56.898903,22.172277 56.8087754,22.1475845 56.718125,22.154 C56.616875,22.15975 56.51125,22.196875 56.399375,22.26675 L56.399125,22.267 Z M57.58075,21.67725 L57.476125,22.797875 L57.63175,22.735125 L57.66325,22.387625 L57.66375,22.387625 L58.16975,22.1835 L58.4335,22.412 L58.589125,22.349125 L57.736625,21.614625 L57.58075,21.677375 L57.58075,21.67725 Z M57.717625,21.79225 L58.050125,22.08 L57.677875,22.23 L57.717875,21.792125 L57.717625,21.79225 Z M59.7725,21.059125 L59.835,22.057125 C60.0155,22.045 60.19625,22.0365 60.37625,22.0215 C60.518125,22.00525 60.67025,21.9685 60.76725,21.855625 C60.89225,21.716875 60.910125,21.509375 60.855375,21.336875 C60.809375,21.18475 60.672625,21.06975 60.517875,21.040625 C60.365375,21.01125 60.209875,21.034375 60.056375,21.041375 L59.772625,21.05925 L59.7725,21.059125 Z M59.9265,21.191875 C60.07025,21.184375 60.213625,21.17025 60.3575,21.169375 C60.4394229,21.1665437 60.5199408,21.191183 60.58625,21.239375 C60.68625,21.307875 60.745,21.431125 60.732,21.551875 C60.724875,21.691 60.622625,21.818875 60.4875,21.854 C60.41025,21.874 60.33,21.879625 60.250875,21.888375 L59.971125,21.905875 C59.956125,21.667875 59.941125,21.429875 59.926375,21.191875 L59.9265,21.191875 Z M61.16625,21 C61.1475,21.33275 61.128375,21.665625 61.109375,21.998375 L62.081,22.053875 L62.089125,21.91225 C61.813625,21.8965 61.538125,21.880625 61.2625,21.865 L61.28,21.561 C61.528125,21.575 61.7765,21.589375 62.02475,21.6035 L62.032875,21.46225 C61.7845,21.44825 61.53625,21.433875 61.287875,21.41975 C61.292875,21.330125 61.29825,21.2405 61.30325,21.151 C61.5685,21.166 61.83375,21.18125 62.098875,21.196375 L62.10725,21.053875 L61.1665,21.000125 L61.16625,21 Z M63.7775,21.416625 L63.41575,22.348875 L63.5445,22.398875 L63.831125,21.65975 L63.845875,21.621375 L63.861875,21.663875 L64.206625,22.655875 L64.375125,22.721125 L64.73675,21.788875 L64.60775,21.738875 L64.32125,22.477625 L64.306625,22.5155 L64.290875,22.47325 L63.9455,21.482 L63.7775,21.416625 Z M65.12075,21.99375 L64.66625,22.884375 L64.5325,22.81625 L64.98725,21.9255 L65.12075,21.99375 Z M65.875,22.435625 C65.778,22.3715 65.679375,22.329125 65.5775,22.3085 C65.47575,22.287875 65.3825,22.29425 65.29775,22.328 C65.21275,22.36175 65.14275,22.4205 65.086875,22.5055 C65.0361943,22.5818996 65.0068488,22.6704539 65.001875,22.762 C64.996125,22.854875 65.018125,22.942 65.068625,23.02575 C65.118625,23.109 65.202875,23.190125 65.322375,23.269 C65.436875,23.344625 65.547375,23.38475 65.656125,23.390875 C65.7582036,23.397276 65.8592292,23.3671456 65.941125,23.305875 L65.83425,23.202625 C65.66775,23.319125 65.52675,23.242 65.38325,23.148875 C65.164125,23.001125 65.081375,22.796875 65.212625,22.58825 C65.365875,22.364 65.604375,22.422625 65.798125,22.54525 C65.932375,22.63375 66.04125,22.7315 66.020625,22.881875 L66.1535,22.940125 C66.169,22.85075 66.15525,22.763875 66.11025,22.6785 C66.063,22.588875 65.985,22.5085 65.874875,22.43575 L65.875,22.435625 Z M66.82725,23.15375 L65.781875,23.57075 L65.908625,23.68075 L66.232375,23.55075 L66.23275,23.55125 L66.644625,23.90875 L66.56125,24.2475 L66.688125,24.3575 L66.954,23.26375 L66.827125,23.15375 L66.82725,23.15375 Z M66.78725,23.327875 L66.68225,23.755 L66.37925,23.49175 L66.78725,23.328 L66.78725,23.327875 Z M67.5825,23.84875 L66.810875,24.485 L66.90375,24.5975 L67.20725,24.3475 C67.310125,24.47075 67.41025,24.5965 67.51525,24.718 C67.483125,24.886375 67.450875,25.054625 67.419625,25.223 L67.537375,25.366 C67.57075,25.18825 67.604375,25.010625 67.637875,24.833 C67.724125,24.903875 67.850625,24.93925 67.953875,24.88325 C68.042625,24.84125 68.120875,24.7605 68.1255,24.657625 C68.13625,24.519875 68.038,24.408125 67.95925,24.305875 C67.83375,24.153375 67.708,24.001125 67.582375,23.84875 L67.5825,23.84875 Z M67.5655,24.052 C67.6735,24.185375 67.78675,24.3145 67.890125,24.452 C67.937625,24.522625 67.997,24.622 67.942625,24.7045 C67.897625,24.775375 67.798875,24.769125 67.738625,24.72325 C67.616125,24.64075 67.53525,24.5145 67.439625,24.404875 L67.317375,24.2565 L67.565625,24.051875 L67.5655,24.052 Z M68.75225,25.44 L67.628,25.491625 L67.71175,25.637125 L68.06025,25.62025 L68.0605,25.620875 L68.332625,26.093375 L68.143,26.38625 L68.22675,26.531875 L68.836125,25.585625 L68.752375,25.440125 L68.75225,25.44 Z M68.6575,25.5915 L68.4185,25.960625 L68.21825,25.61275 L68.6575,25.5915 L68.6575,25.5915 Z M69.39375,26.76375 C69.33125,26.594125 69.23275,26.420375 69.065875,26.3355 C68.88025,26.24225 68.633125,26.287625 68.5015,26.451125 C68.38675,26.586875 68.380875,26.779125 68.4115,26.946125 C68.44775,27.138 68.535625,27.320625 68.66775,27.464875 C68.64275,27.473625 68.618,27.482625 68.593125,27.491625 L68.641,27.62475 C68.79725,27.5685 68.95325,27.51225 69.109375,27.45625 C69.048625,27.2875 68.988125,27.119 68.92725,26.950375 C68.891,26.963375 68.855125,26.976375 68.819,26.989125 L68.953,27.362125 C68.900125,27.380875 68.84725,27.4 68.79425,27.419 C68.65425,27.29875 68.57625,27.121 68.5355,26.94425 C68.5055,26.8115 68.50425,26.6525 68.605,26.548 C68.7205,26.428 68.925,26.39075 69.06375,26.493 C69.200375,26.59325 69.2775,26.7555 69.3165,26.9165 C69.34325,27.0225 69.339,27.1485 69.2585,27.23125 C69.236,27.248125 69.271625,27.271625 69.27775,27.29175 L69.316,27.354875 C69.4015129,27.2873857 69.4510608,27.1841839 69.45025,27.07525 C69.453125,26.96875 69.429625,26.863125 69.394,26.763375 L69.39375,26.76375 Z M69.68125,27.54475 L69.121875,27.6535 C69.018125,27.6735 68.94025,27.706625 68.888375,27.75025 C68.836625,27.794 68.803375,27.8555 68.7875,27.937375 C68.77175,28.01825 68.774,28.117625 68.797125,28.238375 C68.7973436,28.2392815 68.7975105,28.2401996 68.797625,28.241125 C68.821375,28.361875 68.856625,28.454875 68.90175,28.523875 C68.94725,28.593875 69.001,28.6385 69.0655,28.6595 C69.129875,28.68075 69.21425,28.682 69.318,28.66175 L69.877375,28.553 L69.849625,28.41025 L69.303875,28.5165 C69.058875,28.564 68.976375,28.43525 68.93425,28.214625 L68.93375,28.211875 C68.89,27.9915 68.918125,27.841125 69.163125,27.793375 L69.708875,27.687125 L69.681375,27.544625 L69.68125,27.54475 Z M69.987875,29.24675 L68.953125,28.80425 L68.96525,28.97175 L69.2865,29.108 L69.2865,29.108625 L69.32575,29.652375 L69.027625,29.833625 L69.039875,30.001125 L70.000125,29.414 L69.988,29.2465 L69.987875,29.24675 Z M69.836625,29.34175 L69.461,29.57025 L69.432,29.169875 L69.836625,29.34175 L69.836625,29.34175 Z M52.775,31.8335 L52.63,31.87175 L52.7905,32.481 L52.9355,32.44275 L52.775,31.8335 Z M69.22825,31.8335 L69.37325,31.871625 L69.213,32.480875 L69.068,32.44275 L69.22825,31.8335 Z M54.32175,34.39875 L53.203625,34.5275 L53.297,34.667 L53.6435,34.626125 L53.64375,34.626625 L53.9475,35.0795 L53.7785,35.3845 L53.872,35.524 L54.415,34.53825 L54.3215,34.39875 L54.32175,34.39875 Z M54.2375,34.5565 L54.0245,34.941125 L53.80075,34.607625 L54.2375,34.556375 L54.2375,34.5565 Z M54.74975,35.00975 L54.037,35.67625 L54.132,35.778 L54.73275,35.216375 L54.41775,36.0835 L54.526875,36.20025 L55.388125,35.939 L54.798125,36.4905 L54.893375,36.59225 L55.605875,35.92575 L55.4615,35.77125 L54.5865,36.0325 L54.914,35.18575 L54.74975,35.00975 Z M55.78775,36.06875 L55.18625,36.86775 L55.96375,37.45325 L56.04925,37.33975 L55.388,36.841625 L55.571,36.5985 L56.167,37.04725 L56.252,36.934375 L55.656,36.485625 L55.818,36.270375 C56.03025,36.430375 56.242375,36.59 56.454625,36.74975 L56.5405,36.63575 L55.78775,36.068875 L55.78775,36.06875 Z M56.76625,36.785 L56.29525,37.66725 L56.424,37.736 L56.60925,37.389125 C56.751375,37.464125 56.89175,37.542125 57.03525,37.6145 C57.06975,37.782375 57.104,37.950125 57.13925,38.117875 L57.302625,38.205125 L57.192625,37.67425 C57.299625,37.70675 57.429875,37.6915 57.503875,37.60025 C57.567,37.529875 57.60975,37.431 57.579625,37.3365 C57.544625,37.206125 57.41625,37.13775 57.307875,37.07475 C57.127625,36.97775 56.946625,36.881875 56.766375,36.78525 L56.76625,36.785 Z M56.827875,36.9795 C56.978625,37.06175 57.132875,37.138 57.280375,37.22575 C57.348875,37.27175 57.43575,37.335 57.427125,37.42825 C57.419625,37.51 57.331375,37.553625 57.25675,37.53625 C57.110875,37.512125 56.98775,37.425 56.85775,37.36 L56.6765,37.263375 L56.82775,36.979625 L56.827875,36.9795 Z M57.89575,37.375625 L57.517875,38.3015 L57.656625,38.358125 L58.034625,37.43225 L57.89575,37.375625 Z M58.7975,37.687125 C58.687,37.650375 58.58075,37.635125 58.477,37.641625 C58.3735,37.648125 58.28525,37.6785 58.212,37.733125 C58.138875,37.787625 58.0865,37.86275 58.0545,37.959375 C58.0253105,38.0462825 58.0198729,38.139411 58.03875,38.229125 C58.0575,38.320375 58.1015,38.398625 58.171875,38.466375 C58.241875,38.533875 58.344375,38.5905 58.48,38.6355 C58.610375,38.67875 58.7275,38.688875 58.834,38.6665 C58.9343472,38.6461927 59.0241763,38.5907974 59.087375,38.51025 L58.957125,38.438625 C58.826625,38.59425 58.670375,38.556375 58.507625,38.503875 C58.257625,38.417625 58.12475,38.242125 58.197375,38.006375 C58.287125,37.750125 58.53275,37.744875 58.7515,37.813 C58.904,37.8635 59.03475,37.92975 59.054,38.080125 L59.19725,38.101875 C59.1892588,38.0113179 59.1505831,37.9262049 59.087625,37.860625 C59.018875,37.786375 58.922625,37.728875 58.79725,37.68725 L58.7975,37.687125 Z M59.802875,37.91225 L59.148875,38.828125 L59.315125,38.852125 L59.517125,38.56775 L59.517875,38.56775 L60.057625,38.645875 L60.170625,38.975875 L60.336875,39 L59.969375,37.93625 L59.803125,37.91225 L59.802875,37.91225 Z M59.863375,38.08025 L60.005875,38.49625 L59.60875,38.43875 L59.863375,38.08025 L59.863375,38.08025 Z M62.147,37.91925 C62.03275,37.941375 61.932625,37.98 61.84525,38.0365 C61.758125,38.09275 61.696,38.1625 61.659,38.245875 C61.621875,38.329375 61.61275,38.4205 61.632125,38.52025 C61.649875,38.61175 61.689625,38.69275 61.750625,38.76325 C61.8115,38.833625 61.888375,38.8805 61.98275,38.905125 C62.07675,38.929625 62.194,38.928875 62.33425,38.90175 C62.46925,38.87575 62.576125,38.82725 62.658,38.7555 C62.7355669,38.6887681 62.7868373,38.5965966 62.802625,38.4955 L62.654125,38.496375 C62.616375,38.696 62.461625,38.7395 62.294125,38.77325 C62.034125,38.82075 61.832125,38.7325 61.780125,38.4915 C61.733,38.224 61.9445,38.099375 62.168875,38.0515 C62.326375,38.021 62.472875,38.014875 62.563125,38.13675 L62.69875,38.0855 C62.6475313,38.010308 62.5720902,37.9549404 62.485,37.928625 C62.38875,37.897625 62.276625,37.8945 62.147,37.9195 L62.147,37.91925 Z M62.81475,37.801 C62.90975,38.120625 63.004375,38.440125 63.09925,38.75975 C63.41025,38.66725 63.72125,38.575125 64.032375,38.482875 C64.018625,38.4375 64.00525,38.392 63.99175,38.346625 L63.198,38.582125 C63.16925,38.484875 63.1405,38.387625 63.1115,38.29025 C63.349875,38.2195 63.588375,38.149 63.82675,38.078125 L63.7865,37.9425 L63.07125,38.15475 L62.99475,37.896625 L63.75875,37.669875 L63.718125,37.532875 L62.81475,37.800875 L62.81475,37.801 Z M63.896625,37.461 C64.036625,37.7635 64.176625,38.066 64.316375,38.3685 L64.44175,38.31075 L64.09175,37.55375 C64.41525,37.7005 64.737125,37.851625 65.06,38 C65.0815,38.01875 65.103,38.00625 65.1245,37.99475 L65.250375,37.936625 C65.110375,37.634125 64.970375,37.331625 64.830625,37.029125 L64.705,37.087 L65.05475,37.843 C64.72225,37.692375 64.391875,37.537625 64.06025,37.3855 C64.005625,37.4105 63.951125,37.43575 63.8965,37.461 L63.896625,37.461 Z M64.99475,36.94525 L65.073,37.06425 L65.43025,36.82925 L65.44375,36.82025 L65.4505,36.8305 L65.915125,37.5365 L66.03675,37.4565 L65.572,36.750625 L65.56525,36.740375 L65.57925,36.73125 L65.938,36.495 L65.859875,36.376 L64.99475,36.94525 Z M66.000875,36.25625 L66.678625,36.991625 C66.714375,36.95875 66.750125,36.925625 66.786125,36.892875 L66.519375,36.6035 C66.636875,36.494 66.756875,36.38725 66.872625,36.275625 C67.042375,36.298375 67.21225,36.321375 67.382125,36.343375 L67.518375,36.217875 L66.980875,36.146625 C67.046625,36.056625 67.075125,35.9285 67.013375,35.828375 C66.966625,35.742125 66.88175,35.668375 66.77875,35.669625 C66.640625,35.66625 66.534375,35.770625 66.436625,35.854625 L66.000875,36.25625 L66.000875,36.25625 Z M66.204875,36.262 C66.332,36.147 66.454875,36.0265 66.586125,35.916 C66.65425,35.86475 66.75025,35.79975 66.83575,35.84975 C66.90875,35.891 66.908,35.98975 66.86575,36.05225 C66.79,36.179375 66.66825,36.26725 66.56375,36.36875 L66.422875,36.49875 C66.350375,36.41975 66.2775,36.340875 66.204875,36.262 L66.204875,36.262 Z M67.16425,35.09175 L67.61175,36.1245 L67.718,35.9945 L67.578375,35.674875 L67.57875,35.67425 L67.924125,35.252 L68.265125,35.3255 L68.371625,35.1955 L67.27075,34.96175 L67.1645,35.09175 L67.16425,35.09175 Z M67.3395,35.12675 L67.7695,35.219 L67.51525,35.52975 L67.3395,35.126625 L67.3395,35.12675 Z M67.59975,34.52525 L68.438875,35.069375 L68.87925,34.390375 L68.76,34.312875 L68.40775,34.85625 L68.39875,34.87 L68.388125,34.86325 L67.678875,34.40325 L67.59975,34.52525 Z" id="Shape" fill="#C8A400"></path>
                    <g id="Clipped" transform="translate(75.500000, 28.250000)">
                        <mask id="mask-2" fill="white">
                            <use xlink:href="#path-1"></use>
                        </mask>
                        <g id="Shape"></g>
                        <g id="Group" mask="url(#mask-2)">
                            <g transform="translate(-22.200000, -8.050000)">
                                <polygon id="Shape" fill="#FFFFFF" points="7.7 2.4408 4.5522 7.8943 3.0102 10.5645 12.39 10.5645 10.9185 8.0161 7.7 2.441"></polygon>
                                <g id="e" stroke-width="1" fill="none" transform="translate(1.900000, 2.400000)">
                                    <g id="d" transform="translate(5.500000, 0.000000)">
                                        <polygon id="Shape" stroke="#17C0EB" stroke-width="0.5" fill="#17C0EB" opacity="0.62" points="0.314293933 0.0408 0.0644 0.449 0.314293933 5.9467 0.5644 0.449"></polygon>
                                        <path id="Shape" fill="#FFFFFF"></path>
                                    </g>
                                    <g id="d-link" transform="translate(8.602478, 5.036120) rotate(72.000000) translate(-8.602478, -5.036120) translate(8.302478, 2.036120)">
                                        <g id="d">
                                            <polygon id="Shape" stroke="#17C0EB" stroke-width="0.5" fill="#17C0EB" opacity="0.62" points="0.314293933 0.0408 0.0644 0.449 0.314293933 5.9467 0.5644 0.449"></polygon>
                                            <path id="Shape" fill="#FFFFFF"></path>
                                        </g>
                                    </g>
                                    <g id="d-link" transform="translate(7.532027, 8.330630) rotate(144.000000) translate(-7.532027, -8.330630) translate(7.232027, 5.330630)">
                                        <g id="d">
                                            <polygon id="Shape" stroke="#17C0EB" stroke-width="0.5" fill="#17C0EB" opacity="0.62" points="0.314293933 0.0408 0.0644 0.449 0.314293933 5.9467 0.5644 0.449"></polygon>
                                            <path id="Shape" fill="#FFFFFF"></path>
                                        </g>
                                    </g>
                                    <g id="d-link" transform="translate(4.067973, 8.330630) rotate(216.000000) translate(-4.067973, -8.330630) translate(3.767973, 5.330630)">
                                        <g id="d">
                                            <polygon id="Shape" stroke="#17C0EB" stroke-width="0.5" fill="#17C0EB" opacity="0.62" points="0.314293933 0.0408 0.0644 0.449 0.314293933 5.9467 0.5644 0.449"></polygon>
                                            <path id="Shape" fill="#FFFFFF"></path>
                                        </g>
                                    </g>
                                    <g id="d-link" transform="translate(2.997522, 5.036120) rotate(-72.000000) translate(-2.997522, -5.036120) translate(2.697522, 2.036120)">
                                        <g id="d">
                                            <polygon id="Shape" stroke="#17C0EB" stroke-width="0.5" fill="#17C0EB" opacity="0.62" points="0.314293933 0.0408 0.0644 0.449 0.314293933 5.9467 0.5644 0.449"></polygon>
                                            <path id="Shape" fill="#FFFFFF"></path>
                                        </g>
                                    </g>
                                </g>
                                <g id="e-link" stroke-width="1" fill="none" transform="translate(7.762169, 7.904347) rotate(8.000000) translate(-7.762169, -7.904347) translate(1.962169, 2.404347)">
                                    <g id="e">
                                        <g id="d" transform="translate(5.500000, 0.000000)">
                                            <polygon id="Shape" stroke="#17C0EB" stroke-width="0.5" fill="#17C0EB" opacity="0.62" points="0.314293933 0.0408 0.0644 0.449 0.314293933 5.9467 0.5644 0.449"></polygon>
                                            <path id="Shape" fill="#FFFFFF"></path>
                                        </g>
                                        <g id="d-link" transform="translate(8.602478, 5.036120) rotate(72.000000) translate(-8.602478, -5.036120) translate(8.302478, 2.036120)">
                                            <g id="d">
                                                <polygon id="Shape" stroke="#17C0EB" stroke-width="0.5" fill="#17C0EB" opacity="0.62" points="0.314293933 0.0408 0.0644 0.449 0.314293933 5.9467 0.5644 0.449"></polygon>
                                                <path id="Shape" fill="#FFFFFF"></path>
                                            </g>
                                        </g>
                                        <g id="d-link" transform="translate(7.532027, 8.330630) rotate(144.000000) translate(-7.532027, -8.330630) translate(7.232027, 5.330630)">
                                            <g id="d">
                                                <polygon id="Shape" stroke="#17C0EB" stroke-width="0.5" fill="#17C0EB" opacity="0.62" points="0.314293933 0.0408 0.0644 0.449 0.314293933 5.9467 0.5644 0.449"></polygon>
                                                <path id="Shape" fill="#FFFFFF"></path>
                                            </g>
                                        </g>
                                        <g id="d-link" transform="translate(4.067973, 8.330630) rotate(216.000000) translate(-4.067973, -8.330630) translate(3.767973, 5.330630)">
                                            <g id="d">
                                                <polygon id="Shape" stroke="#17C0EB" stroke-width="0.5" fill="#17C0EB" opacity="0.62" points="0.314293933 0.0408 0.0644 0.449 0.314293933 5.9467 0.5644 0.449"></polygon>
                                                <path id="Shape" fill="#FFFFFF"></path>
                                            </g>
                                        </g>
                                        <g id="d-link" transform="translate(2.997522, 5.036120) rotate(-72.000000) translate(-2.997522, -5.036120) translate(2.697522, 2.036120)">
                                            <g id="d">
                                                <polygon id="Shape" stroke="#17C0EB" stroke-width="0.5" fill="#17C0EB" opacity="0.62" points="0.314293933 0.0408 0.0644 0.449 0.314293933 5.9467 0.5644 0.449"></polygon>
                                                <path id="Shape" fill="#FFFFFF"></path>
                                            </g>
                                        </g>
                                    </g>
                                </g>
                                <g id="e-link" stroke-width="1" fill="none" transform="translate(7.823127, 7.917304) rotate(16.000000) translate(-7.823127, -7.917304) translate(2.023127, 2.417304)">
                                    <g id="e">
                                        <g id="d" transform="translate(5.500000, 0.000000)">
                                            <polygon id="Shape" stroke="#17C0EB" stroke-width="0.5" fill="#17C0EB" opacity="0.62" points="0.314293933 0.0408 0.0644 0.449 0.314293933 5.9467 0.5644 0.449"></polygon>
                                            <path id="Shape" fill="#FFFFFF"></path>
                                        </g>
                                        <g id="d-link" transform="translate(8.602478, 5.036120) rotate(72.000000) translate(-8.602478, -5.036120) translate(8.302478, 2.036120)">
                                            <g id="d">
                                                <polygon id="Shape" stroke="#17C0EB" stroke-width="0.5" fill="#17C0EB" opacity="0.62" points="0.314293933 0.0408 0.0644 0.449 0.314293933 5.9467 0.5644 0.449"></polygon>
                                                <path id="Shape" fill="#FFFFFF"></path>
                                            </g>
                                        </g>
                                        <g id="d-link" transform="translate(7.532027, 8.330630) rotate(144.000000) translate(-7.532027, -8.330630) translate(7.232027, 5.330630)">
                                            <g id="d">
                                                <polygon id="Shape" stroke="#17C0EB" stroke-width="0.5" fill="#17C0EB" opacity="0.62" points="0.314293933 0.0408 0.0644 0.449 0.314293933 5.9467 0.5644 0.449"></polygon>
                                                <path id="Shape" fill="#FFFFFF"></path>
                                            </g>
                                        </g>
                                        <g id="d-link" transform="translate(4.067973, 8.330630) rotate(216.000000) translate(-4.067973, -8.330630) translate(3.767973, 5.330630)">
                                            <g id="d">
                                                <polygon id="Shape" stroke="#17C0EB" stroke-width="0.5" fill="#17C0EB" opacity="0.62" points="0.314293933 0.0408 0.0644 0.449 0.314293933 5.9467 0.5644 0.449"></polygon>
                                                <path id="Shape" fill="#FFFFFF"></path>
                                            </g>
                                        </g>
                                        <g id="d-link" transform="translate(2.997522, 5.036120) rotate(-72.000000) translate(-2.997522, -5.036120) translate(2.697522, 2.036120)">
                                            <g id="d">
                                                <polygon id="Shape" stroke="#17C0EB" stroke-width="0.5" fill="#17C0EB" opacity="0.62" points="0.314293933 0.0408 0.0644 0.449 0.314293933 5.9467 0.5644 0.449"></polygon>
                                                <path id="Shape" fill="#FFFFFF"></path>
                                            </g>
                                        </g>
                                    </g>
                                </g>
                                <g id="e-link" stroke-width="1" fill="none" transform="translate(7.881689, 7.938619) rotate(24.000000) translate(-7.881689, -7.938619) translate(2.081689, 2.438619)">
                                    <g id="e">
                                        <g id="d" transform="translate(5.500000, 0.000000)">
                                            <polygon id="Shape" stroke="#17C0EB" stroke-width="0.5" fill="#17C0EB" opacity="0.62" points="0.314293933 0.0408 0.0644 0.449 0.314293933 5.9467 0.5644 0.449"></polygon>
                                            <path id="Shape" fill="#FFFFFF"></path>
                                        </g>
                                        <g id="d-link" transform="translate(8.602478, 5.036120) rotate(72.000000) translate(-8.602478, -5.036120) translate(8.302478, 2.036120)">
                                            <g id="d">
                                                <polygon id="Shape" stroke="#17C0EB" stroke-width="0.5" fill="#17C0EB" opacity="0.62" points="0.314293933 0.0408 0.0644 0.449 0.314293933 5.9467 0.5644 0.449"></polygon>
                                                <path id="Shape" fill="#FFFFFF"></path>
                                            </g>
                                        </g>
                                        <g id="d-link" transform="translate(7.532027, 8.330630) rotate(144.000000) translate(-7.532027, -8.330630) translate(7.232027, 5.330630)">
                                            <g id="d">
                                                <polygon id="Shape" stroke="#17C0EB" stroke-width="0.5" fill="#17C0EB" opacity="0.62" points="0.314293933 0.0408 0.0644 0.449 0.314293933 5.9467 0.5644 0.449"></polygon>
                                                <path id="Shape" fill="#FFFFFF"></path>
                                            </g>
                                        </g>
                                        <g id="d-link" transform="translate(4.067973, 8.330630) rotate(216.000000) translate(-4.067973, -8.330630) translate(3.767973, 5.330630)">
                                            <g id="d">
                                                <polygon id="Shape" stroke="#17C0EB" stroke-width="0.5" fill="#17C0EB" opacity="0.62" points="0.314293933 0.0408 0.0644 0.449 0.314293933 5.9467 0.5644 0.449"></polygon>
                                                <path id="Shape" fill="#FFFFFF"></path>
                                            </g>
                                        </g>
                                        <g id="d-link" transform="translate(2.997522, 5.036120) rotate(-72.000000) translate(-2.997522, -5.036120) translate(2.697522, 2.036120)">
                                            <g id="d">
                                                <polygon id="Shape" stroke="#17C0EB" stroke-width="0.5" fill="#17C0EB" opacity="0.62" points="0.314293933 0.0408 0.0644 0.449 0.314293933 5.9467 0.5644 0.449"></polygon>
                                                <path id="Shape" fill="#FFFFFF"></path>
                                            </g>
                                        </g>
                                    </g>
                                </g>
                                <g id="e-link" stroke-width="1" fill="none" transform="translate(7.936715, 7.967877) rotate(32.000000) translate(-7.936715, -7.967877) translate(2.136715, 2.467877)">
                                    <g id="e">
                                        <g id="d" transform="translate(5.500000, 0.000000)">
                                            <polygon id="Shape" stroke="#17C0EB" stroke-width="0.5" fill="#17C0EB" opacity="0.62" points="0.314293933 0.0408 0.0644 0.449 0.314293933 5.9467 0.5644 0.449"></polygon>
                                            <path id="Shape" fill="#FFFFFF"></path>
                                        </g>
                                        <g id="d-link" transform="translate(8.602478, 5.036120) rotate(72.000000) translate(-8.602478, -5.036120) translate(8.302478, 2.036120)">
                                            <g id="d">
                                                <polygon id="Shape" stroke="#17C0EB" stroke-width="0.5" fill="#17C0EB" opacity="0.62" points="0.314293933 0.0408 0.0644 0.449 0.314293933 5.9467 0.5644 0.449"></polygon>
                                                <path id="Shape" fill="#FFFFFF"></path>
                                            </g>
                                        </g>
                                        <g id="d-link" transform="translate(7.532027, 8.330630) rotate(144.000000) translate(-7.532027, -8.330630) translate(7.232027, 5.330630)">
                                            <g id="d">
                                                <polygon id="Shape" stroke="#17C0EB" stroke-width="0.5" fill="#17C0EB" opacity="0.62" points="0.314293933 0.0408 0.0644 0.449 0.314293933 5.9467 0.5644 0.449"></polygon>
                                                <path id="Shape" fill="#FFFFFF"></path>
                                            </g>
                                        </g>
                                        <g id="d-link" transform="translate(4.067973, 8.330630) rotate(216.000000) translate(-4.067973, -8.330630) translate(3.767973, 5.330630)">
                                            <g id="d">
                                                <polygon id="Shape" stroke="#17C0EB" stroke-width="0.5" fill="#17C0EB" opacity="0.62" points="0.314293933 0.0408 0.0644 0.449 0.314293933 5.9467 0.5644 0.449"></polygon>
                                                <path id="Shape" fill="#FFFFFF"></path>
                                            </g>
                                        </g>
                                        <g id="d-link" transform="translate(2.997522, 5.036120) rotate(-72.000000) translate(-2.997522, -5.036120) translate(2.697522, 2.036120)">
                                            <g id="d">
                                                <polygon id="Shape" stroke="#17C0EB" stroke-width="0.5" fill="#17C0EB" opacity="0.62" points="0.314293933 0.0408 0.0644 0.449 0.314293933 5.9467 0.5644 0.449"></polygon>
                                                <path id="Shape" fill="#FFFFFF"></path>
                                            </g>
                                        </g>
                                    </g>
                                </g>
                                <g id="e-link" stroke-width="1" fill="none" transform="translate(7.987133, 8.004508) rotate(40.000000) translate(-7.987133, -8.004508) translate(2.187133, 2.504508)">
                                    <g id="e">
                                        <g id="d" transform="translate(5.500000, 0.000000)">
                                            <polygon id="Shape" stroke="#17C0EB" stroke-width="0.5" fill="#17C0EB" opacity="0.62" points="0.314293933 0.0408 0.0644 0.449 0.314293933 5.9467 0.5644 0.449"></polygon>
                                            <path id="Shape" fill="#FFFFFF"></path>
                                        </g>
                                        <g id="d-link" transform="translate(8.602478, 5.036120) rotate(72.000000) translate(-8.602478, -5.036120) translate(8.302478, 2.036120)">
                                            <g id="d">
                                                <polygon id="Shape" stroke="#17C0EB" stroke-width="0.5" fill="#17C0EB" opacity="0.62" points="0.314293933 0.0408 0.0644 0.449 0.314293933 5.9467 0.5644 0.449"></polygon>
                                                <path id="Shape" fill="#FFFFFF"></path>
                                            </g>
                                        </g>
                                        <g id="d-link" transform="translate(7.532027, 8.330630) rotate(144.000000) translate(-7.532027, -8.330630) translate(7.232027, 5.330630)">
                                            <g id="d">
                                                <polygon id="Shape" stroke="#17C0EB" stroke-width="0.5" fill="#17C0EB" opacity="0.62" points="0.314293933 0.0408 0.0644 0.449 0.314293933 5.9467 0.5644 0.449"></polygon>
                                                <path id="Shape" fill="#FFFFFF"></path>
                                            </g>
                                        </g>
                                        <g id="d-link" transform="translate(4.067973, 8.330630) rotate(216.000000) translate(-4.067973, -8.330630) translate(3.767973, 5.330630)">
                                            <g id="d">
                                                <polygon id="Shape" stroke="#17C0EB" stroke-width="0.5" fill="#17C0EB" opacity="0.62" points="0.314293933 0.0408 0.0644 0.449 0.314293933 5.9467 0.5644 0.449"></polygon>
                                                <path id="Shape" fill="#FFFFFF"></path>
                                            </g>
                                        </g>
                                        <g id="d-link" transform="translate(2.997522, 5.036120) rotate(-72.000000) translate(-2.997522, -5.036120) translate(2.697522, 2.036120)">
                                            <g id="d">
                                                <polygon id="Shape" stroke="#17C0EB" stroke-width="0.5" fill="#17C0EB" opacity="0.62" points="0.314293933 0.0408 0.0644 0.449 0.314293933 5.9467 0.5644 0.449"></polygon>
                                                <path id="Shape" fill="#FFFFFF"></path>
                                            </g>
                                        </g>
                                    </g>
                                </g>
                                <g id="e-link" stroke-width="1" fill="none" transform="translate(8.031963, 8.047799) rotate(48.000000) translate(-8.031963, -8.047799) translate(2.231963, 2.547799)">
                                    <g id="e">
                                        <g id="d" transform="translate(5.500000, 0.000000)">
                                            <polygon id="Shape" stroke="#17C0EB" stroke-width="0.5" fill="#17C0EB" opacity="0.62" points="0.314293933 0.0408 0.0644 0.449 0.314293933 5.9467 0.5644 0.449"></polygon>
                                            <path id="Shape" fill="#FFFFFF"></path>
                                        </g>
                                        <g id="d-link" transform="translate(8.602478, 5.036120) rotate(72.000000) translate(-8.602478, -5.036120) translate(8.302478, 2.036120)">
                                            <g id="d">
                                                <polygon id="Shape" stroke="#17C0EB" stroke-width="0.5" fill="#17C0EB" opacity="0.62" points="0.314293933 0.0408 0.0644 0.449 0.314293933 5.9467 0.5644 0.449"></polygon>
                                                <path id="Shape" fill="#FFFFFF"></path>
                                            </g>
                                        </g>
                                        <g id="d-link" transform="translate(7.532027, 8.330630) rotate(144.000000) translate(-7.532027, -8.330630) translate(7.232027, 5.330630)">
                                            <g id="d">
                                                <polygon id="Shape" stroke="#17C0EB" stroke-width="0.5" fill="#17C0EB" opacity="0.62" points="0.314293933 0.0408 0.0644 0.449 0.314293933 5.9467 0.5644 0.449"></polygon>
                                                <path id="Shape" fill="#FFFFFF"></path>
                                            </g>
                                        </g>
                                        <g id="d-link" transform="translate(4.067973, 8.330630) rotate(216.000000) translate(-4.067973, -8.330630) translate(3.767973, 5.330630)">
                                            <g id="d">
                                                <polygon id="Shape" stroke="#17C0EB" stroke-width="0.5" fill="#17C0EB" opacity="0.62" points="0.314293933 0.0408 0.0644 0.449 0.314293933 5.9467 0.5644 0.449"></polygon>
                                                <path id="Shape" fill="#FFFFFF"></path>
                                            </g>
                                        </g>
                                        <g id="d-link" transform="translate(2.997522, 5.036120) rotate(-72.000000) translate(-2.997522, -5.036120) translate(2.697522, 2.036120)">
                                            <g id="d">
                                                <polygon id="Shape" stroke="#17C0EB" stroke-width="0.5" fill="#17C0EB" opacity="0.62" points="0.314293933 0.0408 0.0644 0.449 0.314293933 5.9467 0.5644 0.449"></polygon>
                                                <path id="Shape" fill="#FFFFFF"></path>
                                            </g>
                                        </g>
                                    </g>
                                </g>
                                <g id="e-link" stroke-width="1" fill="none" transform="translate(8.070331, 8.096909) rotate(56.000000) translate(-8.070331, -8.096909) translate(2.270331, 2.596909)">
                                    <g id="e">
                                        <g id="d" transform="translate(5.500000, 0.000000)">
                                            <polygon id="Shape" stroke="#17C0EB" stroke-width="0.5" fill="#17C0EB" opacity="0.62" points="0.314293933 0.0408 0.0644 0.449 0.314293933 5.9467 0.5644 0.449"></polygon>
                                            <path id="Shape" fill="#FFFFFF"></path>
                                        </g>
                                        <g id="d-link" transform="translate(8.602478, 5.036120) rotate(72.000000) translate(-8.602478, -5.036120) translate(8.302478, 2.036120)">
                                            <g id="d">
                                                <polygon id="Shape" stroke="#17C0EB" stroke-width="0.5" fill="#17C0EB" opacity="0.62" points="0.314293933 0.0408 0.0644 0.449 0.314293933 5.9467 0.5644 0.449"></polygon>
                                                <path id="Shape" fill="#FFFFFF"></path>
                                            </g>
                                        </g>
                                        <g id="d-link" transform="translate(7.532027, 8.330630) rotate(144.000000) translate(-7.532027, -8.330630) translate(7.232027, 5.330630)">
                                            <g id="d">
                                                <polygon id="Shape" stroke="#17C0EB" stroke-width="0.5" fill="#17C0EB" opacity="0.62" points="0.314293933 0.0408 0.0644 0.449 0.314293933 5.9467 0.5644 0.449"></polygon>
                                                <path id="Shape" fill="#FFFFFF"></path>
                                            </g>
                                        </g>
                                        <g id="d-link" transform="translate(4.067973, 8.330630) rotate(216.000000) translate(-4.067973, -8.330630) translate(3.767973, 5.330630)">
                                            <g id="d">
                                                <polygon id="Shape" stroke="#17C0EB" stroke-width="0.5" fill="#17C0EB" opacity="0.62" points="0.314293933 0.0408 0.0644 0.449 0.314293933 5.9467 0.5644 0.449"></polygon>
                                                <path id="Shape" fill="#FFFFFF"></path>
                                            </g>
                                        </g>
                                        <g id="d-link" transform="translate(2.997522, 5.036120) rotate(-72.000000) translate(-2.997522, -5.036120) translate(2.697522, 2.036120)">
                                            <g id="d">
                                                <polygon id="Shape" stroke="#17C0EB" stroke-width="0.5" fill="#17C0EB" opacity="0.62" points="0.314293933 0.0408 0.0644 0.449 0.314293933 5.9467 0.5644 0.449"></polygon>
                                                <path id="Shape" fill="#FFFFFF"></path>
                                            </g>
                                        </g>
                                    </g>
                                </g>
                                <g id="e-link" stroke-width="1" fill="none" transform="translate(8.101491, 8.150880) rotate(64.000000) translate(-8.101491, -8.150880) translate(2.301491, 2.650880)">
                                    <g id="e">
                                        <g id="d" transform="translate(5.500000, 0.000000)">
                                            <polygon id="Shape" stroke="#17C0EB" stroke-width="0.5" fill="#17C0EB" opacity="0.62" points="0.314293933 0.0408 0.0644 0.449 0.314293933 5.9467 0.5644 0.449"></polygon>
                                            <path id="Shape" fill="#FFFFFF"></path>
                                        </g>
                                        <g id="d-link" transform="translate(8.602478, 5.036120) rotate(72.000000) translate(-8.602478, -5.036120) translate(8.302478, 2.036120)">
                                            <g id="d">
                                                <polygon id="Shape" stroke="#17C0EB" stroke-width="0.5" fill="#17C0EB" opacity="0.62" points="0.314293933 0.0408 0.0644 0.449 0.314293933 5.9467 0.5644 0.449"></polygon>
                                                <path id="Shape" fill="#FFFFFF"></path>
                                            </g>
                                        </g>
                                        <g id="d-link" transform="translate(7.532027, 8.330630) rotate(144.000000) translate(-7.532027, -8.330630) translate(7.232027, 5.330630)">
                                            <g id="d">
                                                <polygon id="Shape" stroke="#17C0EB" stroke-width="0.5" fill="#17C0EB" opacity="0.62" points="0.314293933 0.0408 0.0644 0.449 0.314293933 5.9467 0.5644 0.449"></polygon>
                                                <path id="Shape" fill="#FFFFFF"></path>
                                            </g>
                                        </g>
                                        <g id="d-link" transform="translate(4.067973, 8.330630) rotate(216.000000) translate(-4.067973, -8.330630) translate(3.767973, 5.330630)">
                                            <g id="d">
                                                <polygon id="Shape" stroke="#17C0EB" stroke-width="0.5" fill="#17C0EB" opacity="0.62" points="0.314293933 0.0408 0.0644 0.449 0.314293933 5.9467 0.5644 0.449"></polygon>
                                                <path id="Shape" fill="#FFFFFF"></path>
                                            </g>
                                        </g>
                                        <g id="d-link" transform="translate(2.997522, 5.036120) rotate(-72.000000) translate(-2.997522, -5.036120) translate(2.697522, 2.036120)">
                                            <g id="d">
                                                <polygon id="Shape" stroke="#17C0EB" stroke-width="0.5" fill="#17C0EB" opacity="0.62" points="0.314293933 0.0408 0.0644 0.449 0.314293933 5.9467 0.5644 0.449"></polygon>
                                                <path id="Shape" fill="#FFFFFF"></path>
                                            </g>
                                        </g>
                                    </g>
                                </g>
                                <path d="M7.7,6.3844 C6.63650649,6.38284382 5.60804864,6.7644773 4.803,7.4594 L3.3376,10 C3.2876,10.267 3.2626,10.5434 3.2626,10.825 L3.7656,10.825 C3.7656,8.6524 5.5276,6.8906 7.7001,6.8906 C9.8728,6.8906 11.6345,8.6524 11.6345,10.825 L12.1375,10.825 C12.1375,10.5437 12.1127,10.2668 12.0625,10 L10.597,7.4594 C9.79188654,6.76458701 8.76347108,6.38296926 7.7,6.3844 L7.7,6.3844 Z" id="Shape" fill="#FF0000"></path>
                                <path d="M7.7,6.4656 C6.5236,6.4656 5.456,6.9331 4.672,7.6906 L3.4688,9.775 C3.38367371,10.1185074 3.34069074,10.471102 3.3408,10.825 L3.7658,10.825 C3.7658,8.6524 5.5274,6.8906 7.7,6.8906 C9.8727,6.8906 11.6344,8.6524 11.6344,10.825 L12.0594,10.825 C12.0594913,10.4701142 12.0165104,10.1165289 11.9314,9.772 L10.7282,7.6906 C9.9442,6.9332 8.8764,6.4656 7.7,6.4656 L7.7,6.4656 Z" id="Shape" fill="#FF6600"></path>
                                <path d="M7.7,6.547 C6.4298,6.547 5.29,7.099 4.5062,7.978 L3.6344,9.4875 C3.49292208,9.91920359 3.42118813,10.3707055 3.4219,10.825 L3.7655,10.825 C3.7655,8.6524 5.5273,6.8906 7.6999,6.8906 C9.8725,6.8906 11.6343,8.6524 11.6343,10.825 L11.978,10.825 C11.978,10.3577 11.904,9.9085 11.7656,9.4875 L10.8936,7.978 C10.1101,7.0992 8.97,6.5468 7.6999,6.5468 L7.7,6.547 Z" id="Shape" fill="#FFFF00"></path>
                                <path d="M7.7,6.625 C6.245,6.625 4.9628,7.3664 4.2094,8.4906 L3.9281,8.9781 C3.645909,9.5528796 3.49947932,10.1847853 3.5001,10.8251 L3.7657,10.8251 C3.7657,8.6525 5.5274,6.8907 7.7,6.8907 C9.8726,6.8907 11.6343,8.6525 11.6343,10.8251 L11.9,10.8251 C11.9000464,10.1858847 11.7535616,9.55516526 11.4718,8.9814 L11.1874,8.4877 C10.4338,7.365 9.1537,6.625 7.7,6.625 L7.7,6.625 Z" id="Shape" fill="#00FF00"></path>
                                <path d="M7.7,6.7062 C5.4253,6.7062 3.5812,8.5502 3.5812,10.825 L3.7656,10.825 C3.7656,8.6523 5.5274,6.8906 7.7,6.8906 C9.8726,6.8906 11.6344,8.6523 11.6344,10.825 L11.8188,10.825 C11.8188,8.5502 9.9748,6.7062 7.7,6.7062 L7.7,6.7062 Z" id="Shape" fill="#00CCFF"></path>
                                <path d="M7.7,6.7844 C5.4694,6.7844 3.6625,8.5944 3.6625,10.825 L3.7969,10.825 C3.7969,8.669 5.5439,6.922 7.6999,6.922 C9.8559,6.922 11.6029,8.669 11.6029,10.825 L11.7405,10.825 C11.7405,8.5944 9.9305,6.7844 7.6999,6.7844 L7.7,6.7844 Z" id="Shape" fill="#0000FF"></path>
                                <path d="M7.7,6.8657 C5.5137,6.8657 3.7412,8.6382 3.7412,10.8247 C3.7412,10.8491 3.7415,10.8737 3.7419,10.8979 L3.8219,10.8979 C3.8214,10.8734 3.8212,10.8489 3.8212,10.8245 C3.8212,8.6823 5.5578,6.9457 7.7,6.9457 C9.8423,6.9457 11.579,8.6823 11.579,10.8245 C11.579,10.849 11.5787,10.8735 11.5782,10.8978 L11.6579,10.8978 C11.6582,10.8734 11.6585,10.8488 11.6585,10.8244 C11.6585,8.638 9.8865,6.8654 7.7,6.8654 L7.7,6.8657 Z" id="Shape" fill="#800080"></path>
                                <g id="Group" stroke-width="1" fill="none" transform="translate(7.200000, 7.700000)">
                                    <path id="Shape" fill="#510000"></path>
                                    <path d="M0.2168,0.4524 C0.1573,0.4539 0.064,0.5536 0.0225,0.4999 C-0.0015,0.4689 -0.0055,0.4096 0.0188,0.3599 C0.0748,0.2447 0.1312,0.1882 0.2355,0.1269 C0.4733,-0.0133 0.6245,0.0317 0.7429,0.2331 C0.8526,0.4103 0.9579,0.6061 0.9674,0.7701 C0.9704,0.8203 0.9957,0.9111 0.9518,0.9561 C0.8168,1.0951 0.4921,0.8127 0.302,0.8574 C0.238,0.8724 0.1643,0.9191 0.104,0.8792 C0.057,0.8482 0.0962,0.7795 0.1312,0.7498 C0.1924,0.6978 0.2812,0.5132 0.2692,0.4332 C0.2625,0.3886 0.2612,0.4512 0.2166,0.4522 L0.2168,0.4524 Z" id="Shape" fill="#FF0000"></path>
                                    <path d="M0.1927,0.3548 C0.0844,0.3993 0.0961,0.4624 0.0417,0.5138 C0.0571,0.5196 0.1183,0.5448 0.1781,0.4838 C0.2041,0.4623 0.2331,0.4544 0.2459,0.4475 C0.2154,0.4695 0.1936,0.5029 0.1775,0.5159 C0.1371,0.5487 0.0741,0.6241 0.0435,0.7004 C0.0128,0.7768 0.0005,0.8677 0.0059,0.8786 C0.0115,0.8896 0.0485,0.9566 0.1625,1.0018 C0.3655,1.0824 0.4042,1.2456 0.6102,1.2456 C0.7717,1.2456 0.7458,1.14 0.8749,1.1624 C0.9869,1.1818 1.0463,1.0928 0.9385,1.0392 C0.8015,0.9924 0.5293,1.02 0.4013,1.0425 C0.36,0.6342 0.3958,0.7775 0.3863,0.602 C0.3765,0.4265 0.3239,0.416 0.3933,0.274 C0.3356,0.361 0.2657,0.3473 0.193,0.3546 L0.1927,0.3548 Z" id="Shape" fill="url(#linearGradient-3)"></path>
                                    <path id="Shape" fill="#FF2A2A"></path>
                                    <path d="M0.625,0.8398 C0.553,0.821 0.4823,0.7855 0.4212,0.7673 C0.3012,0.7313 0.1732,0.6539 0.0846,0.6859 C0.0529,0.6999 0.0556,0.7314 0.0456,0.7769 C0.0414,0.8301 -0.014,0.9087 0.032,0.8829 C0.1005,0.8447 0.281,0.9563 0.3415,0.9936 C0.3702,1.0113 0.4307,1.046 0.4497,1.0958 C0.4687,1.1455 0.4589,1.2713 0.4537,1.3253 C0.4485,1.3819 0.4657,1.5088 0.5224,1.524 C0.5834,1.5403 0.6302,1.4917 0.654,1.401 C0.677,1.313 0.6945,1.2623 0.7297,1.2095 C0.7649,1.1567 0.8053,1.1339 0.8617,1.1232 C0.9181,1.1126 0.9999,1.1694 0.9999,1.1029 C0.9999,1.0593 0.9614,1.0175 0.9779,0.9576 C0.9906,0.9104 0.9376,0.9198 0.8936,0.9004 C0.79,0.8684 0.6966,0.8584 0.6248,0.8397 L0.625,0.8398 Z" id="Shape" fill="url(#linearGradient-4)"></path>
                                    <path id="Shape" fill="#910000"></path>
                                    <path id="Shape" fill="#FF3A3A"></path>
                                </g>
                                <g id="Group" stroke-width="1" fill="none" transform="translate(2.000000, 10.500000)">
                                    <polygon id="Shape" fill="#FFFFFF" points="1.0103 0.0645 0.0148 1.7882 11.3856 1.7882 10.39 0.0645 1.0103 0.0645"></polygon>
                                    <g id="n" transform="translate(0.100000, 1.100000)" fill="url(#linearGradient-6)">
                                        <path id="k"></path>
                                        <g id="k-link" transform="translate(0.000000, 0.188700)">
                                            <path id="k"></path>
                                        </g>
                                        <g id="k-link" transform="translate(0.000000, 0.077000)">
                                            <path id="k"></path>
                                        </g>
                                    </g>
                                    <g id="n-link" transform="translate(0.100000, 0.765600)" fill="url(#linearGradient-6)">
                                        <g id="n">
                                            <path id="k"></path>
                                            <g id="k-link" transform="translate(0.000000, 0.188700)">
                                                <path id="k"></path>
                                            </g>
                                            <g id="k-link" transform="translate(0.000000, 0.077000)">
                                                <path id="k"></path>
                                            </g>
                                        </g>
                                    </g>
                                    <g id="n-link" transform="translate(0.100000, 0.430900)" fill="url(#linearGradient-6)">
                                        <g id="n" transform="translate(0.000000, -0.000000)">
                                            <path id="k"></path>
                                            <g id="k-link" transform="translate(0.000000, 0.188700)">
                                                <path id="k"></path>
                                            </g>
                                            <g id="k-link" transform="translate(0.000000, 0.077000)">
                                                <path id="k"></path>
                                            </g>
                                        </g>
                                    </g>
                                    <path id="Shape" fill="url(#linearGradient-11)"></path>
                                    <path id="Shape" fill="url(#linearGradient-12)"></path>
                                </g>
                                <g id="Group" stroke-width="1" fill="none" transform="translate(1.700000, 9.500000)">
                                    <g id="t" transform="translate(5.700000, 0.000000)">
                                        <path d="M3.363,0.0043 C3.1922,0.0043 3.14,0.0905 3.14,0.0905 C2.8663,1.1481 1.9592,2.2238 0.88,2.2238 L0.0718,2.2238 L0.0718,3.3006 C0.0718,3.3009 0.073,3.3006 0.0735,3.3006 L6.2233,3.3006 L5.6046,2.2052 C4.6339,2.0602 3.8406,1.0679 3.588,0.0905 C3.588,0.0905 3.534,0.0043 3.363,0.0043 L3.363,0.0043 Z" id="Shape" fill="url(#linearGradient-13)"></path>
                                        <path d="M3.363,0.0465 C3.2847,0.0465 3.237,0.0645 3.2093,0.082 C3.1829,0.0985 3.1778,0.1096 3.1773,0.1108 C3.1773,0.1115 3.1757,0.1118 3.1753,0.1124 C3.0353,0.6447 2.7403,1.1794 2.342,1.5831 C1.9408,1.9901 1.435,2.2661 0.8815,2.2661 L0.1141,2.2661 L0.1141,3.2584 L6.1997,3.2584 L5.6317,2.2526 C5.163,2.1914 4.7344,1.9363 4.3859,1.5832 C3.9873,1.1795 3.6927,0.6449 3.5525,0.1126 L3.5508,0.111 C3.5501,0.1098 3.5438,0.1005 3.517,0.084 C3.4886,0.0663 3.4415,0.0467 3.363,0.0467 L3.363,0.0465 Z" id="Shape" fill="#97C924"></path>
                                        <path d="M3.363,0.0465 C3.3777,0.0465 3.391,0.0485 3.4036,0.0499 C3.406,0.3515 3.4036,0.8607 3.4036,1.1299 C3.4006,1.3639 3.3206,1.5522 3.2024,1.7739 C3.1477,1.9294 3.1038,1.8703 2.9674,2.0597 C2.7844,2.1251 2.6488,2.1507 2.4536,2.1813 C2.2019,2.2211 1.6416,2.2563 1.3649,2.1949 C1.7289,2.0881 2.0609,1.8679 2.3419,1.5829 C2.41705266,1.50668411 2.48815059,1.42657377 2.5549,1.3429 C2.66706239,1.20186367 2.76771917,1.05204894 2.8559,0.8949 C2.8911,0.8323 2.9245,0.7701 2.9556,0.7056 C3.00186919,0.60962131 3.04358228,0.511512139 3.0806,0.4116 C3.093,0.3786 3.1051,0.3449 3.1162,0.3118 C3.1384,0.2453 3.1579,0.1788 3.1754,0.1122 C3.1756,0.1116 3.1769,0.1112 3.177,0.1105 C3.1777,0.1093 3.183,0.0983 3.2092,0.0818 C3.2228,0.0733 3.2424,0.0648 3.2667,0.0581 L3.2684,0.0581 C3.2936,0.0514 3.3238,0.0463 3.363,0.0463 L3.363,0.0465 Z" id="Shape" fill="#EDE71F"></path>
                                        <path d="M3.2938,0.1902 C3.2526,0.7936 3.0661,1.5094 2.6294,1.9712 C2.4687,2.1049 2.2634,2.2262 2.0648,2.1967 C2.7418,1.6457 3.1533,0.802 3.2938,0.1902 L3.2938,0.1902 Z" id="Shape" fill="#C6CB24"></path>
                                        <path d="M2.7494,1.228 C2.6492,1.5002 2.2706,1.9027 1.8654,2.2326 C1.7504,2.2361 1.6894,2.2426 1.585,2.2364 C1.8318,2.2139 2.407,1.7281 2.7494,1.2281 L2.7494,1.228 Z" id="Shape" fill="#9ECB34"></path>
                                    </g>
                                    <g id="t-link" transform="translate(4.165900, 0.000000)">
                                        <g id="t">
                                            <path d="M3.363,0.0043 C3.1922,0.0043 3.14,0.0905 3.14,0.0905 C2.8663,1.1481 1.9592,2.2238 0.88,2.2238 L0.0718,2.2238 L0.0718,3.3006 C0.0718,3.3009 0.073,3.3006 0.0735,3.3006 L6.2233,3.3006 L5.6046,2.2052 C4.6339,2.0602 3.8406,1.0679 3.588,0.0905 C3.588,0.0905 3.534,0.0043 3.363,0.0043 L3.363,0.0043 Z" id="Shape" fill="url(#linearGradient-13)"></path>
                                            <path d="M3.363,0.0465 C3.2847,0.0465 3.237,0.0645 3.2093,0.082 C3.1829,0.0985 3.1778,0.1096 3.1773,0.1108 C3.1773,0.1115 3.1757,0.1118 3.1753,0.1124 C3.0353,0.6447 2.7403,1.1794 2.342,1.5831 C1.9408,1.9901 1.435,2.2661 0.8815,2.2661 L0.1141,2.2661 L0.1141,3.2584 L6.1997,3.2584 L5.6317,2.2526 C5.163,2.1914 4.7344,1.9363 4.3859,1.5832 C3.9873,1.1795 3.6927,0.6449 3.5525,0.1126 L3.5508,0.111 C3.5501,0.1098 3.5438,0.1005 3.517,0.084 C3.4886,0.0663 3.4415,0.0467 3.363,0.0467 L3.363,0.0465 Z" id="Shape" fill="#97C924"></path>
                                            <path d="M3.363,0.0465 C3.3777,0.0465 3.391,0.0485 3.4036,0.0499 C3.406,0.3515 3.4036,0.8607 3.4036,1.1299 C3.4006,1.3639 3.3206,1.5522 3.2024,1.7739 C3.1477,1.9294 3.1038,1.8703 2.9674,2.0597 C2.7844,2.1251 2.6488,2.1507 2.4536,2.1813 C2.2019,2.2211 1.6416,2.2563 1.3649,2.1949 C1.7289,2.0881 2.0609,1.8679 2.3419,1.5829 C2.41705266,1.50668411 2.48815059,1.42657377 2.5549,1.3429 C2.66706239,1.20186367 2.76771917,1.05204894 2.8559,0.8949 C2.8911,0.8323 2.9245,0.7701 2.9556,0.7056 C3.00186919,0.60962131 3.04358228,0.511512139 3.0806,0.4116 C3.093,0.3786 3.1051,0.3449 3.1162,0.3118 C3.1384,0.2453 3.1579,0.1788 3.1754,0.1122 C3.1756,0.1116 3.1769,0.1112 3.177,0.1105 C3.1777,0.1093 3.183,0.0983 3.2092,0.0818 C3.2228,0.0733 3.2424,0.0648 3.2667,0.0581 L3.2684,0.0581 C3.2936,0.0514 3.3238,0.0463 3.363,0.0463 L3.363,0.0465 Z" id="Shape" fill="#EDE71F"></path>
                                            <path d="M3.2938,0.1902 C3.2526,0.7936 3.0661,1.5094 2.6294,1.9712 C2.4687,2.1049 2.2634,2.2262 2.0648,2.1967 C2.7418,1.6457 3.1533,0.802 3.2938,0.1902 L3.2938,0.1902 Z" id="Shape" fill="#C6CB24"></path>
                                            <path d="M2.7494,1.228 C2.6492,1.5002 2.2706,1.9027 1.8654,2.2326 C1.7504,2.2361 1.6894,2.2426 1.585,2.2364 C1.8318,2.2139 2.407,1.7281 2.7494,1.2281 L2.7494,1.228 Z" id="Shape" fill="#9ECB34"></path>
                                        </g>
                                    </g>
                                    <g transform="translate(2.700000, 0.000000)" id="Shape">
                                        <path d="M3.5218,0.091 C3.7953,1.1486 4.7008,2.2244 5.7801,2.2244 L6.5891,2.2244 L6.5891,3.3012 C6.5891,3.3015 6.5876,3.3012 6.5874,3.3012 L0.0079,3.3012 C0.0073,3.3012 0.0062,3.3015 0.0062,3.3012 L0.0062,2.2244 L0.8135,2.2244 C1.8927,2.2244 2.7998,1.1486 3.0735,0.0911 C3.0735,0.0911 3.1269,0.0046 3.2978,0.0046 C3.4686,0.0046 3.5221,0.0912 3.5221,0.0912 L3.5218,0.091 Z" fill="url(#linearGradient-14)"></path>
                                        <path d="M3.2975,0.0465 C3.3759,0.0465 3.423,0.0661 3.4513,0.0837 C3.4783,0.1003 3.4845,0.1097 3.4853,0.1107 L3.4869,0.1124 C3.6269,0.6447 3.9216,1.1794 4.3201,1.5831 C4.7218,1.9901 5.2288,2.2661 5.7824,2.2661 L6.5464,2.2661 L6.5464,3.2584 L0.0484,3.2584 L0.0484,2.2661 L0.8159,2.2661 C1.3694,2.2661 1.8752,1.9901 2.2764,1.5831 C2.6746,1.1794 2.9698,0.6448 3.1098,0.1125 C3.11,0.1118 3.1112,0.1115 3.1114,0.1109 C3.112,0.1097 3.1171,0.0986 3.1434,0.0821 C3.1714,0.0647 3.2189,0.0466 3.2974,0.0466 L3.2975,0.0465 Z" fill="#97C924"></path>
                                        <path d="M3.2263,0.053 C3.21816909,0.0545382251 3.21009705,0.0563727801 3.2021,0.0585 L3.2004,0.0585 C3.1761,0.0651 3.1568,0.0735 3.1432,0.0821 C3.1169,0.0987 3.1119,0.1096 3.1112,0.1108 C3.111,0.1114 3.1096,0.1118 3.1095,0.1125 C3.0833178,0.213913832 3.05163766,0.313828144 3.0146,0.4118 C2.97753886,0.511760261 2.93582669,0.609934007 2.8896,0.706 C2.85835029,0.770157773 2.82510068,0.833322014 2.7899,0.8954 C2.70171608,1.05245214 2.60105905,1.20216694 2.4889,1.3431 C2.42213365,1.42682321 2.35103666,1.50699926 2.2759,1.5833 C1.9949,1.8683 1.6631,2.0883 1.2989,2.195 C1.5755,2.2564 1.7022,2.1893 1.9539,2.1495 C2.1491,2.1187 2.3749,2.0932 2.5582,2.0278 C2.6946,1.8384 2.6482,1.8978 2.7028,1.7424 C2.8208,1.5206 2.9934,1.3202 3.0362,1.0744 C3.1982,0.7721 3.2265,0.2129 3.2265,0.053 L3.2263,0.053 Z" fill="#EDE71F"></path>
                                        <path d="M3.2275,0.1902 C3.1863,0.7936 2.9998,1.5094 2.5631,1.9712 C2.4026,2.1049 2.1971,2.2262 1.9986,2.1967 C2.6756,1.6457 3.0871,0.802 3.2276,0.1902 L3.2275,0.1902 Z" fill="#C6CB24"></path>
                                        <path d="M2.6832,1.228 C2.583,1.5002 2.2044,1.9028 1.7992,2.2326 C1.6842,2.2361 1.6232,2.2426 1.5188,2.2364 C1.7655,2.2139 2.341,1.7281 2.6832,1.2281 L2.6832,1.228 Z" fill="#9ECB34"></path>
                                        <path d="M3.395,0.0584 L3.397,0.0584 C3.421,0.0651 3.4404,0.0734 3.454,0.082 C3.4804,0.0985 3.4855,0.1094 3.486,0.1106 C3.4863,0.1112 3.4877,0.1116 3.488,0.1124 C3.5054,0.1789 3.525,0.2457 3.547,0.312 C3.5582,0.3452 3.5705,0.3785 3.5828,0.4115 C3.61977564,0.511494234 3.6614895,0.609671973 3.7078,0.7057 C3.7388,0.7702 3.7722,0.8325 3.8075,0.8952 C3.89568392,1.05225214 3.99634095,1.20196694 4.1085,1.3429 C4.17527183,1.42655491 4.24636873,1.50666409 4.3215,1.5829 C4.6025,1.8679 4.9343,2.1275 5.2983,2.2342 C4.5738,2.237 4.2593,2.1712 3.9961,1.8326 C3.7329,1.4939 3.6356,1.3458 3.5821,1.1389 C3.5287,0.9321 3.3796,0.4819 3.3951,0.0583 L3.395,0.0584 Z" fill="#EDE71F"></path>
                                        <path d="M3.4476,0.1902 C3.4888,0.7936 3.6696,1.3908 4.1063,1.8527 C4.267,1.9864 4.4723,2.1077 4.6709,2.0782 C3.9373,1.578 3.5879,0.802 3.4475,0.1902 L3.4476,0.1902 Z" fill="#C6CB24"></path>
                                    </g>
                                    <g id="w" transform="translate(1.600000, 0.000000)">
                                        <path d="M2.875,0.0043 C2.704,0.0043 2.65,0.0905 2.65,0.0905 C2.3978,1.0652 1.4676,2.3223 0.5004,2.4715 L0.0214,3.3005 L4.9229,3.3005 L4.9229,2.166 C4.0403,1.929 3.3339,1.003 3.0979,0.0907 C3.0979,0.0907 3.0457,0.0045 2.8749,0.0045 L2.875,0.0043 Z" id="Shape" fill="url(#linearGradient-15)"></path>
                                        <path d="M2.875,0.0465 C2.7965,0.0465 2.7494,0.0661 2.721,0.0837 C2.6942,0.1003 2.688,0.1097 2.6873,0.1107 L2.6856,0.1124 C2.5454,0.6447 2.2178,1.1829 1.8776,1.6114 C1.5374,2.0397 0.9056,2.4731 0.4734,2.519 L0.0452,3.2583 L4.8512,3.2583 L4.8512,2.189 C4.4958,2.08 4.1712,1.8623 3.896,1.583 C3.4978,1.1793 3.2026,0.6447 3.0626,0.1124 C3.0624,0.1117 3.0611,0.1114 3.0609,0.1108 C3.0602,0.1096 3.0549,0.0985 3.0287,0.082 C3.0007,0.0646 2.9532,0.0465 2.8747,0.0465 L2.875,0.0465 Z" id="Shape" fill="#97C924"></path>
                                        <path d="M2.7445,0.1903 C2.6828,1.0946 2.1792,2.2357 1.6105,2.4323 C1.425,2.4963 1.1005,2.5187 0.9878,2.5331 C1.9826,2.0601 2.5706,0.9479 2.7445,0.1904 L2.7445,0.1903 Z" id="Shape" fill="#93BC30"></path>
                                        <path d="M2.8746,0.0465 C2.8599,0.0465 2.8466,0.0485 2.834,0.0499 C2.8317,0.3515 2.834,0.8607 2.834,1.1299 C2.837,1.3639 2.917,1.5522 3.0352,1.7739 C3.0422,1.7934 3.0488,1.8094 3.0555,1.8229 C3.0965,1.9316 3.1268,1.9693 3.2837,2.0884 C3.7824,2.4671 4.4007,2.5237 4.7645,2.4924 C4.6505,2.4026 4.5287,2.3209 4.4215,2.2457 C4.5925,2.2401 4.7565,2.2207 4.8727,2.1949 C4.5087,2.0882 4.1767,1.8679 3.8957,1.5829 C3.84717003,1.53271963 3.80037585,1.48088914 3.7554,1.4275 C3.7344,1.3983 3.7054,1.3577 3.6962,1.3463 C3.5844,1.2063 3.4699,1.0516 3.3817,0.895 C3.34649853,0.832956338 3.3132489,0.769825389 3.282,0.7057 C3.22030682,0.577910895 3.16666873,0.446387344 3.1214,0.3119 C3.09948492,0.246033313 3.07974092,0.179464033 3.0622,0.1123 C3.062,0.1117 3.0607,0.1113 3.0605,0.1106 C3.0599,0.1094 3.0548,0.0984 3.0285,0.0819 C3.0105169,0.0713168188 2.99112382,0.0633373752 2.9709,0.0582 L2.9691,0.0582 C2.93822607,0.0501066138 2.90641605,0.0461387673 2.8745,0.0464 L2.8746,0.0465 Z" id="Shape" fill="#EDE71F"></path>
                                        <path d="M2.9446,0.1902 C2.9858,0.7936 3.1723,1.5094 3.609,1.9712 C3.7696,2.1049 3.975,2.2262 4.1736,2.1967 C3.4966,1.6457 3.085,0.802 2.9446,0.1902 L2.9446,0.1902 Z" id="Shape" fill="#CCD11E"></path>
                                        <path d="M3.3613,1.0247 C3.5983,1.6084 4.1983,2.1537 4.8156,2.5201 C4.9306,2.5237 4.9648,2.5205 5.0693,2.5141 C4.6273,2.2771 3.9153,1.9388 3.3613,1.0248 L3.3613,1.0247 Z" id="Shape" fill="#9ECB34"></path>
                                    </g>
                                    <g id="w-link" transform="translate(0.057000, 0.000000)">
                                        <g id="w">
                                            <path d="M2.875,0.0043 C2.704,0.0043 2.65,0.0905 2.65,0.0905 C2.3978,1.0652 1.4676,2.3223 0.5004,2.4715 L0.0214,3.3005 L4.9229,3.3005 L4.9229,2.166 C4.0403,1.929 3.3339,1.003 3.0979,0.0907 C3.0979,0.0907 3.0457,0.0045 2.8749,0.0045 L2.875,0.0043 Z" id="Shape" fill="url(#linearGradient-15)"></path>
                                            <path d="M2.875,0.0465 C2.7965,0.0465 2.7494,0.0661 2.721,0.0837 C2.6942,0.1003 2.688,0.1097 2.6873,0.1107 L2.6856,0.1124 C2.5454,0.6447 2.2178,1.1829 1.8776,1.6114 C1.5374,2.0397 0.9056,2.4731 0.4734,2.519 L0.0452,3.2583 L4.8512,3.2583 L4.8512,2.189 C4.4958,2.08 4.1712,1.8623 3.896,1.583 C3.4978,1.1793 3.2026,0.6447 3.0626,0.1124 C3.0624,0.1117 3.0611,0.1114 3.0609,0.1108 C3.0602,0.1096 3.0549,0.0985 3.0287,0.082 C3.0007,0.0646 2.9532,0.0465 2.8747,0.0465 L2.875,0.0465 Z" id="Shape" fill="#97C924"></path>
                                            <path d="M2.7445,0.1903 C2.6828,1.0946 2.1792,2.2357 1.6105,2.4323 C1.425,2.4963 1.1005,2.5187 0.9878,2.5331 C1.9826,2.0601 2.5706,0.9479 2.7445,0.1904 L2.7445,0.1903 Z" id="Shape" fill="#93BC30"></path>
                                            <path d="M2.8746,0.0465 C2.8599,0.0465 2.8466,0.0485 2.834,0.0499 C2.8317,0.3515 2.834,0.8607 2.834,1.1299 C2.837,1.3639 2.917,1.5522 3.0352,1.7739 C3.0422,1.7934 3.0488,1.8094 3.0555,1.8229 C3.0965,1.9316 3.1268,1.9693 3.2837,2.0884 C3.7824,2.4671 4.4007,2.5237 4.7645,2.4924 C4.6505,2.4026 4.5287,2.3209 4.4215,2.2457 C4.5925,2.2401 4.7565,2.2207 4.8727,2.1949 C4.5087,2.0882 4.1767,1.8679 3.8957,1.5829 C3.84717003,1.53271963 3.80037585,1.48088914 3.7554,1.4275 C3.7344,1.3983 3.7054,1.3577 3.6962,1.3463 C3.5844,1.2063 3.4699,1.0516 3.3817,0.895 C3.34649853,0.832956338 3.3132489,0.769825389 3.282,0.7057 C3.22030682,0.577910895 3.16666873,0.446387344 3.1214,0.3119 C3.09948492,0.246033313 3.07974092,0.179464033 3.0622,0.1123 C3.062,0.1117 3.0607,0.1113 3.0605,0.1106 C3.0599,0.1094 3.0548,0.0984 3.0285,0.0819 C3.0105169,0.0713168188 2.99112382,0.0633373752 2.9709,0.0582 L2.9691,0.0582 C2.93822607,0.0501066138 2.90641605,0.0461387673 2.8745,0.0464 L2.8746,0.0465 Z" id="Shape" fill="#EDE71F"></path>
                                            <path d="M2.9446,0.1902 C2.9858,0.7936 3.1723,1.5094 3.609,1.9712 C3.7696,2.1049 3.975,2.2262 4.1736,2.1967 C3.4966,1.6457 3.085,0.802 2.9446,0.1902 L2.9446,0.1902 Z" id="Shape" fill="#C6CB24"></path>
                                            <path d="M3.3613,1.0247 C3.5983,1.6084 4.1983,2.1537 4.8156,2.5201 C4.9306,2.5237 4.9648,2.5205 5.0693,2.5141 C4.6273,2.2771 3.9153,1.9388 3.3613,1.0248 L3.3613,1.0247 Z" id="Shape" fill="#9ECB34"></path>
                                        </g>
                                    </g>
                                </g>
                                <g id="Group" stroke-width="1" fill="none" transform="translate(1.300000, 12.100000)">
                                    <path d="M12.05,0.1692 C11.9926,0.1895 11.608,0.1502 11.4067,0.1648 L11.2787,0.1984 C11.1664,0.1976 11.0549,0.2008 10.9457,0.1984 C10.5855,0.1984 10.2807,0.2932 9.9382,0.2932 C9.5949,0.2932 9.2912,0.1984 8.9307,0.1984 C8.8187,0.1976 8.7073,0.2009 8.5977,0.1984 C8.2375,0.1984 7.933,0.2932 7.5901,0.2932 C7.2473,0.2932 6.9429,0.1984 6.5827,0.1984 C6.4697,0.1977 6.3585,0.2007 6.2479,0.1984 C5.8877,0.1984 5.5847,0.2932 5.2421,0.2932 C4.8991,0.2932 4.5965,0.1984 4.2363,0.1984 C4.2096,0.1984 4.1847,0.1994 4.1587,0.2001 C4.1409,0.1998 4.121,0.1985 4.103,0.1985 C4.091,0.1985 4.0807,0.1982 4.069,0.1985 C4.0573,0.1982 4.0453,0.1985 4.0334,0.1985 C4.0154,0.1985 3.9989,0.1998 3.9811,0.2002 C3.9553,0.1995 3.9301,0.1986 3.9033,0.1986 C3.5427,0.1986 3.239,0.2936 2.8957,0.2934 C2.5527,0.2934 2.2484,0.1986 1.8882,0.1986 C1.8622,0.1986 1.8362,0.1996 1.8107,0.2003 C1.7927,0.2 1.7767,0.1987 1.7585,0.1987 C1.7461,0.1987 1.7333,0.1984 1.7211,0.1987 C1.7093,0.1984 1.6973,0.1987 1.6854,0.1987 C1.6674,0.1987 1.6492,0.2 1.6314,0.2004 C1.6054,0.1997 1.5804,0.1988 1.5538,0.1988 C1.2658,0.1988 0.932,0.2595 0.6602,0.2838 L0.033,1.3696 L6.3302,1.3689 L12.7677,1.3696 L12.05,0.1692 Z" id="Shape" fill="#FFFFFF"></path>
                                    <path d="M11.1993,0.011 C11.1793,0.011 11.1595,0.011 11.1397,0.0118 C10.8157,0.0213 10.5833,0.1233 10.0197,0.1233 C9.4559,0.1233 9.3977,0.0213 8.7613,0.0353 C8.1666,0.0485 7.917,0.1616 7.5943,0.1571 C7.2715,0.1528 6.747,0.0875 6.3433,0.1297 C5.9396,0.172 5.4605,0.2581 5.146,0.2587 C4.755,0.2571 4.364,0.1857 3.9554,0.2264 C3.5467,0.267 3.3557,0.3764 2.8491,0.3749 C2.4136,0.3736 1.9409,0.3051 1.5746,0.3054 C1.2311,0.3057 0.8479,0.4011 0.566,0.4497 L0.4816,0.5961 C0.7063,0.5701 1.3366,0.4743 1.5618,0.4684 C1.7962,0.4624 2.6335,0.5167 3.0953,0.5009 C3.5571,0.4849 3.6111,0.3837 4.1571,0.3837 C4.5373,0.3837 4.8238,0.4237 5.2138,0.4237 C5.4572,0.4237 5.6781,0.2994 6.0481,0.2994 C6.1417,0.2967 6.2346,0.2934 6.3275,0.2904 C6.6395,0.2388 7.1659,0.2948 7.5323,0.3134 C7.8638,0.3308 8.078,0.252 8.4237,0.2404 C8.5733,0.2337 8.7235,0.2339 8.8711,0.2257 C9.2171,0.2142 9.5133,0.2897 9.8391,0.2881 C10.1641,0.2681 10.4794,0.1959 10.8251,0.1844 C10.9761,0.1774 11.1249,0.1772 11.2741,0.1696 C11.5028,0.162 11.8578,0.1774 12.1014,0.2196 L12.0174,0.0746 C11.7794,0.0671 11.4864,0.0112 11.1994,0.0112 L11.1993,0.011 Z" id="Shape" fill="url(#linearGradient-16)"></path>
                                    <g id="A" transform="translate(0.000000, 0.800000)" fill="url(#linearGradient-17)">
                                        <path id="z"></path>
                                        <g id="z-link" transform="translate(0.000000, 0.171100)">
                                            <path id="z"></path>
                                        </g>
                                        <g id="z-link" transform="translate(0.000000, 0.042500)">
                                            <path id="z"></path>
                                        </g>
                                    </g>
                                    <g id="A-link" transform="translate(0.000000, 0.413300)" fill="url(#linearGradient-17)">
                                        <g id="A" transform="translate(0.000000, 0.000000)">
                                            <path id="z"></path>
                                            <g id="z-link" transform="translate(0.000000, 0.171100)">
                                                <path id="z"></path>
                                            </g>
                                            <g id="z-link" transform="translate(0.000000, 0.042500)">
                                                <path id="z"></path>
                                            </g>
                                        </g>
                                    </g>
                                    <g id="A-link" transform="translate(0.000000, 0.027100)" fill="url(#linearGradient-17)">
                                        <g id="A" transform="translate(0.000000, -0.000000)">
                                            <path id="z"></path>
                                            <g id="z-link" transform="translate(0.000000, 0.171100)">
                                                <path id="z"></path>
                                            </g>
                                            <g id="z-link" transform="translate(0.000000, 0.042500)">
                                                <path id="z"></path>
                                            </g>
                                        </g>
                                    </g>
                                </g>
                                <path d="M2.0846,12.2705 L1.8419,12.6895 C2.1257,12.6425 2.5519,12.5193 2.9052,12.519 C3.2715,12.5187 3.7134,12.6093 4.149,12.6106 C4.6557,12.612 4.8467,12.5026 5.2554,12.4621 C5.664,12.4215 6.0552,12.5149 6.446,12.5167 C6.7605,12.516 7.2396,12.4077 7.6433,12.3655 C8.047,12.3233 8.417,12.3948 8.9036,12.4025 C9.3902,12.4099 9.4666,12.2845 10.0612,12.2713 C10.6978,12.2573 10.7559,12.3591 11.3196,12.3591 C11.7438,12.3821 12.1079,12.2737 12.4862,12.2471 C12.8646,12.2201 13.0402,12.2513 13.3167,12.2579 L13.1329,11.9326 C13.1297,11.9326 13.1267,11.9329 13.1236,11.933 L2.999,12.1555 L2.0846,12.2705 Z" id="Shape" fill="#97C924"></path>
                                <path id="Shape" fill="#FFFFFF"></path>
                            </g>
                        </g>
                    </g>
                    <path d="M61,22.4875 L57.785875,28.056 L54.5,33.746 L60.92975,33.745125 L67.5,33.746 L64.284625,28.17775 L61,22.4875 L61,22.4875 Z M61,22.7875 L64.155,28.252875 L67.24,33.595625 L60.92975,33.59525 L54.75975,33.595625 L57.915625,28.131125 L61,22.7875 Z" id="Shape" fill="#C8A400"></path>
                </g>
            </g>
        </g>
    </g>
</svg>