<?xml version="1.0" encoding="UTF-8" standalone="no"?>
<svg width="122px" height="60px" viewBox="0 0 122 60" version="1.1" xmlns="http://www.w3.org/2000/svg" xmlns:xlink="http://www.w3.org/1999/xlink">
    <!-- Generator: Sketch 3.8.2 (29753) - http://www.bohemiancoding.com/sketch -->
    <title>ge</title>
    <desc>Created with Sketch.</desc>
    <defs>
        <path d="M0,63.4412583 C17.5362048,63.4412583 31.7521075,49.2394489 31.7521075,31.7206292 C31.7521075,14.2018094 17.5362048,0 0,0 L66.5573023,0 C49.0210976,0 34.8051948,14.2018094 34.8051948,31.7206292 C34.8051948,49.2394489 49.0210976,63.4412583 66.5573023,63.4412583 L0,63.4412583 Z" id="path-1"></path>
        <path d="M4.97379915e-14,63.4412583 C17.5362048,63.4412583 31.7521075,49.2394489 31.7521075,31.7206292 C31.7521075,14.2018094 17.5362048,-1.49213975e-13 4.97379915e-14,-1.49213975e-13 L66.5573023,-1.49213975e-13 C49.0210976,-1.49213975e-13 34.8051948,14.2018094 34.8051948,31.7206292 C34.8051948,49.2394489 49.0210976,63.4412583 66.5573023,63.4412583 L4.97379915e-14,63.4412583 Z" id="path-3"></path>
        <path d="M0,63.4412583 C17.5362048,63.4412583 31.7521075,49.2394489 31.7521075,31.7206292 C31.7521075,14.2018094 17.5362048,0 0,0 L66.5573023,0 C49.0210976,0 34.8051948,14.2018094 34.8051948,31.7206292 C34.8051948,49.2394489 49.0210976,63.4412583 66.5573023,63.4412583 L0,63.4412583 Z" id="path-5"></path>
        <path d="M-2.84217094e-14,63.4412583 C17.5362048,63.4412583 31.7521075,49.2394489 31.7521075,31.7206292 C31.7521075,14.2018094 17.5362048,1.0658141e-14 -2.84217094e-14,1.0658141e-14 L66.5573023,1.0658141e-14 C49.0210976,1.0658141e-14 34.8051948,14.2018094 34.8051948,31.7206292 C34.8051948,49.2394489 49.0210976,63.4412583 66.5573023,63.4412583 L-2.84217094e-14,63.4412583 Z" id="path-7"></path>
        <path d="M0,63.4412583 C17.5362048,63.4412583 31.7521075,49.2394489 31.7521075,31.7206292 C31.7521075,14.2018094 17.5362048,0 0,0 L66.5573023,0 C49.0210976,0 34.8051948,14.2018094 34.8051948,31.7206292 C34.8051948,49.2394489 49.0210976,63.4412583 66.5573023,63.4412583 L0,63.4412583 Z" id="path-9"></path>
        <path d="M2.13162821e-14,63.4412583 C17.5362048,63.4412583 31.7521075,49.2394489 31.7521075,31.7206292 C31.7521075,14.2018094 17.5362048,-3.73034936e-13 2.13162821e-14,-3.73034936e-13 L66.5573023,-3.73034936e-13 C49.0210976,-3.73034936e-13 34.8051948,14.2018094 34.8051948,31.7206292 C34.8051948,49.2394489 49.0210976,63.4412583 66.5573023,63.4412583 L2.13162821e-14,63.4412583 Z" id="path-11"></path>
        <path d="M0,63.4412583 C17.5362048,63.4412583 31.7521075,49.2394489 31.7521075,31.7206292 C31.7521075,14.2018094 17.5362048,0 0,0 L66.5573023,0 C49.0210976,0 34.8051948,14.2018094 34.8051948,31.7206292 C34.8051948,49.2394489 49.0210976,63.4412583 66.5573023,63.4412583 L0,63.4412583 Z" id="path-13"></path>
        <path d="M-9.9475983e-14,63.4412583 C17.5362048,63.4412583 31.7521075,49.2394489 31.7521075,31.7206292 C31.7521075,14.2018094 17.5362048,-8.52651283e-14 -9.9475983e-14,-8.52651283e-14 L66.5573023,-8.52651283e-14 C49.0210976,-8.52651283e-14 34.8051948,14.2018094 34.8051948,31.7206292 C34.8051948,49.2394489 49.0210976,63.4412583 66.5573023,63.4412583 L-9.9475983e-14,63.4412583 Z" id="path-15"></path>
    </defs>
    <g id="Page-1" stroke="none" stroke-width="1" fill="none" fill-rule="evenodd">
        <g id="ge">
            <g transform="translate(0.000000, -23.000000)" id="Group">
                <g>
                    <polygon id="Shape" fill="#FFFFFF" points="13.8459786 22.4833515 105.238095 22.4833515 105.238095 83.3525439 13.8459786 83.3525439"></polygon>
                    <polygon id="Shape" fill="#FF0000" points="53.4499886 22.4833515 53.4499886 46.8310284 13.8464343 46.8310284 13.8464343 59.0048669 53.4499886 59.0048669 53.4499886 83.3525439 65.635908 83.3525439 65.635908 59.0048669 105.239462 59.0048669 105.239462 46.8310284 65.635908 46.8310284 65.635908 22.4833515"></polygon>
                    <g id="c-link" transform="translate(0.200501, 0.245826)">
                        <g id="c">
                            <g id="b-Clipped" transform="translate(0.000000, 2.525030)">
                                <mask id="mask-2" fill="white">
                                    <use xlink:href="#path-1"></use>
                                </mask>
                                <g id="Shape"></g>
                                <path d="M16.4866712,54.2910768 C16.4866712,45.0263164 24.0046967,37.5157441 33.2786512,37.5157441 C42.5526056,37.5157441 50.0706311,45.0263164 50.0706311,54.2910768 L50.0706311,9.15018149 C50.0706311,18.4149419 42.5526056,25.9255142 33.2786512,25.9255142 C24.0046967,25.9255142 16.4866712,18.4149419 16.4866712,9.15018149 L16.4866712,54.2910768 Z" id="b" fill="#FF0000" mask="url(#mask-2)"></path>
                            </g>
                            <g id="b-link" transform="translate(32.998357, 34.466517) rotate(90.000000) translate(-32.998357, -34.466517) translate(-0.501643, 2.466517)">
                                <g id="b-Clipped" transform="translate(0.000000, 0.000000)">
                                    <mask id="mask-4" fill="white">
                                        <use xlink:href="#path-3"></use>
                                    </mask>
                                    <g id="Shape"></g>
                                    <path d="M16.4866712,54.2910768 C16.4866712,45.0263164 24.0046967,37.5157441 33.2786512,37.5157441 C42.5526056,37.5157441 50.0706311,45.0263164 50.0706311,54.2910768 L50.0706311,9.15018149 C50.0706311,18.4149419 42.5526056,25.9255142 33.2786512,25.9255142 C24.0046967,25.9255142 16.4866712,18.4149419 16.4866712,9.15018149 L16.4866712,54.2910768 Z" id="b" fill="#FF0000" mask="url(#mask-4)"></path>
                                </g>
                            </g>
                        </g>
                    </g>
                    <g id="c-link" transform="translate(52.326270, 37.101482)">
                        <g id="c">
                            <g id="b-Clipped" transform="translate(0.000000, 2.525030)">
                                <mask id="mask-6" fill="white">
                                    <use xlink:href="#path-5"></use>
                                </mask>
                                <g id="Shape"></g>
                                <path d="M16.4866712,54.2910768 C16.4866712,45.0263164 24.0046967,37.5157441 33.2786512,37.5157441 C42.5526056,37.5157441 50.0706311,45.0263164 50.0706311,54.2910768 L50.0706311,9.15018149 C50.0706311,18.4149419 42.5526056,25.9255142 33.2786512,25.9255142 C24.0046967,25.9255142 16.4866712,18.4149419 16.4866712,9.15018149 L16.4866712,54.2910768 Z" id="b" fill="#FF0000" mask="url(#mask-6)"></path>
                            </g>
                            <g id="b-link" transform="translate(32.998357, 34.466517) rotate(90.000000) translate(-32.998357, -34.466517) translate(-0.501643, 2.466517)">
                                <g id="b-Clipped" transform="translate(0.000000, 0.000000)">
                                    <mask id="mask-8" fill="white">
                                        <use xlink:href="#path-7"></use>
                                    </mask>
                                    <g id="Shape"></g>
                                    <path d="M16.4866712,54.2910768 C16.4866712,45.0263164 24.0046967,37.5157441 33.2786512,37.5157441 C42.5526056,37.5157441 50.0706311,45.0263164 50.0706311,54.2910768 L50.0706311,9.15018149 C50.0706311,18.4149419 42.5526056,25.9255142 33.2786512,25.9255142 C24.0046967,25.9255142 16.4866712,18.4149419 16.4866712,9.15018149 L16.4866712,54.2910768 Z" id="b" fill="#FF0000" mask="url(#mask-8)"></path>
                                </g>
                            </g>
                        </g>
                    </g>
                    <g id="c-link" transform="translate(52.326270, 0.245826)">
                        <g id="c">
                            <g id="b-Clipped" transform="translate(0.000000, 2.525030)">
                                <mask id="mask-10" fill="white">
                                    <use xlink:href="#path-9"></use>
                                </mask>
                                <g id="Shape"></g>
                                <path d="M16.4866712,54.2910768 C16.4866712,45.0263164 24.0046967,37.5157441 33.2786512,37.5157441 C42.5526056,37.5157441 50.0706311,45.0263164 50.0706311,54.2910768 L50.0706311,9.15018149 C50.0706311,18.4149419 42.5526056,25.9255142 33.2786512,25.9255142 C24.0046967,25.9255142 16.4866712,18.4149419 16.4866712,9.15018149 L16.4866712,54.2910768 Z" id="b" fill="#FF0000" mask="url(#mask-10)"></path>
                            </g>
                            <g id="b-link" transform="translate(32.999299, 34.468135) rotate(90.000000) translate(-32.999299, -34.468135) translate(-0.500701, 2.468135)">
                                <g id="b-Clipped" transform="translate(0.000000, -0.000000)">
                                    <mask id="mask-12" fill="white">
                                        <use xlink:href="#path-11"></use>
                                    </mask>
                                    <g id="Shape"></g>
                                    <path d="M16.4866712,54.2910768 C16.4866712,45.0263164 24.0046967,37.5157441 33.2786512,37.5157441 C42.5526056,37.5157441 50.0706311,45.0263164 50.0706311,54.2910768 L50.0706311,9.15018149 C50.0706311,18.4149419 42.5526056,25.9255142 33.2786512,25.9255142 C24.0046967,25.9255142 16.4866712,18.4149419 16.4866712,9.15018149 L16.4866712,54.2910768 Z" id="b" fill="#FF0000" mask="url(#mask-12)"></path>
                                </g>
                            </g>
                        </g>
                    </g>
                    <g id="c-link" transform="translate(0.200501, 37.101482)">
                        <g id="c">
                            <g id="b-Clipped" transform="translate(0.000000, 2.525030)">
                                <mask id="mask-14" fill="white">
                                    <use xlink:href="#path-13"></use>
                                </mask>
                                <g id="Shape"></g>
                                <path d="M16.4866712,54.2910768 C16.4866712,45.0263164 24.0046967,37.5157441 33.2786512,37.5157441 C42.5526056,37.5157441 50.0706311,45.0263164 50.0706311,54.2910768 L50.0706311,9.15018149 C50.0706311,18.4149419 42.5526056,25.9255142 33.2786512,25.9255142 C24.0046967,25.9255142 16.4866712,18.4149419 16.4866712,9.15018149 L16.4866712,54.2910768 Z" id="b" fill="#FF0000" mask="url(#mask-14)"></path>
                            </g>
                            <g id="b-link" transform="translate(32.998357, 34.466517) rotate(90.000000) translate(-32.998357, -34.466517) translate(-0.501643, 2.466517)">
                                <g id="b-Clipped" transform="translate(0.000000, 0.000000)">
                                    <mask id="mask-16" fill="white">
                                        <use xlink:href="#path-15"></use>
                                    </mask>
                                    <g id="Shape"></g>
                                    <path d="M16.4866712,54.2910768 C16.4866712,45.0263164 24.0046967,37.5157441 33.2786512,37.5157441 C42.5526056,37.5157441 50.0706311,45.0263164 50.0706311,54.2910768 L50.0706311,9.15018149 C50.0706311,18.4149419 42.5526056,25.9255142 33.2786512,25.9255142 C24.0046967,25.9255142 16.4866712,18.4149419 16.4866712,9.15018149 L16.4866712,54.2910768 Z" id="b" fill="#FF0000" mask="url(#mask-16)"></path>
                                </g>
                            </g>
                        </g>
                    </g>
                </g>
            </g>
        </g>
    </g>
</svg>