<?xml version="1.0" encoding="UTF-8" standalone="no"?>
<svg width="122px" height="60px" viewBox="0 0 122 60" version="1.1" xmlns="http://www.w3.org/2000/svg" xmlns:xlink="http://www.w3.org/1999/xlink">
    <!-- Generator: Sketch 3.8.2 (29753) - http://www.bohemiancoding.com/sketch -->
    <title>eh</title>
    <desc>Created with Sketch.</desc>
    <defs></defs>
    <g id="Page-1" stroke="none" stroke-width="1" fill="none" fill-rule="evenodd">
        <g id="eh">
            <g>
                <rect id="Rectangle-54" fill="#000000" x="0" y="0" width="122" height="20"></rect>
                <rect id="Rectangle-54-Copy" fill="#FFFFFF" x="0" y="20" width="122" height="20"></rect>
                <rect id="Rectangle-54" fill="#107B00" x="0" y="40" width="122" height="20"></rect>
                <polygon id="Rectangle-56" fill="#FF0000" points="0 0 40 30 0 60"></polygon>
                <path d="M56.6662123,23.5876845 C51.4685399,21.335511 46.9949448,25.9814378 47.0000043,30.3228696 C47.0052937,34.8633942 51.3718353,39.705863 56.9082614,37.5618745 C52.9886768,36.3980447 51.3709154,33.4785563 51.3716053,30.525789 C51.3434333,27.6018942 53.1984143,24.2016607 56.6662123,23.5876845 L56.6662123,23.5876845 Z" id="Shape" fill="#FF0000"></path>
                <polyline id="Shape" fill="#FF1800" points="62.8036378 35.2444285 59.8329315 33.0566094 56.8440572 35.2479071 57.9896793 31.7225592 55 29.5345082 58.6777655 29.542625 59.819593 26 60.9483119 29.5290584 64.6411407 29.5296382 61.6602005 31.7020354"></polyline>
            </g>
        </g>
    </g>
</svg>