<?xml version="1.0" encoding="UTF-8" standalone="no"?>
<svg width="122px" height="60px" viewBox="0 0 122 60" version="1.1" xmlns="http://www.w3.org/2000/svg" xmlns:xlink="http://www.w3.org/1999/xlink">
    <!-- Generator: Sketch 3.8.2 (29753) - http://www.bohemiancoding.com/sketch -->
    <title>ck</title>
    <desc>Created with Sketch.</desc>
    <defs></defs>
    <g id="Page-1" stroke="none" stroke-width="1" fill="none" fill-rule="evenodd">
        <g id="ck">
            <g id="Group">
                <g>
                    <polygon id="Shape" fill="#000066" points="0 0 122 0 122 60 0 60"></polygon>
                    <g id="Shape">
                        <path d="M0,0.000374220374 L0,3.09517672 L39.9061333,27.6822037 L44.9295011,27.6822037 L44.9295011,24.5874012 L5.02336783,0.000374220374 L0.000249608339,0.000374220374 L0,0.000374220374 Z M44.9300003,0.000374220374 L44.9300003,3.09517672 L5.02286861,27.6823285 L0,27.6823285 L0,24.587027 L39.9061333,0 L44.9295011,0 L44.9300003,0.000374220374 Z" fill="#FFFFFF"></path>
                        <path d="M18.7209999,9.22740125 L18.7209999,0 L26.20925,0 L26.20925,9.22740125 L44.9300003,9.22740125 L44.9300003,18.4548025 L26.20925,18.4548025 L26.20925,27.6823285 L18.7209999,27.6823285 L18.7209999,18.4548025 L0,18.4548025 L0,9.22740125 L18.7209999,9.22740125 Z" fill="#FFFFFF"></path>
                        <path d="M20.2188558,16.6091476 L0.000374409389,16.6091476 L0.000374409389,11.0726819 L20.2188558,11.0726819 L20.2188558,0 L24.7117685,0 L24.7117685,11.0726819 L44.9300003,11.0726819 L44.9300003,16.6091476 L24.7117685,16.6091476 L24.7117685,27.6823285 L20.2188558,27.6823285 L20.2188558,16.6091476 Z M0.000374409389,27.6823285 L14.9772492,18.4548025 L18.3260916,18.4548025 L3.34921679,27.6818295 L-1.77635684e-15,27.6818295 L0.000374409389,27.6823285 Z M0.000374409389,0 L14.9772492,9.22740125 L11.628282,9.22740125 L0.000873621908,2.06320166 L0.000873621908,0 L0.000374409389,0 Z M26.6049072,9.22740125 L41.5807835,0 L44.9295011,0 L29.9528759,9.22740125 L26.6040335,9.22740125 L26.6049072,9.22740125 Z M44.9300003,27.6827027 L29.9531255,18.455052 L33.3019679,18.455052 L44.9295011,25.6191268 L44.9295011,27.682578 L44.9300003,27.6827027 Z" fill="#CC0000"></path>
                    </g>
                    <path d="M58.9828393,26.6943867 L59.6318253,24.6152183 L57.8829329,23.2871102 L60.0863651,23.2591684 L60.8205928,21.208815 L61.5329797,23.270395 L63.7366615,23.3307692 L61.9734165,24.6328067 L62.600936,26.7214553 L60.798752,25.4643243 M64.174727,27.1027859 L65.4736973,25.364657 L64.265585,23.5187526 L66.3505772,24.2416216 L67.7205616,22.5596258 L67.7098284,24.7440748 L69.7658658,25.5502703 L67.6741342,26.1772141 L67.5742902,28.3582952 L66.2922933,26.5610395 M54.0118565,28.4291476 L53.9253666,26.2499376 L51.8353822,25.6034096 L53.8984087,24.8180457 L53.9017785,22.6367152 L55.2627769,24.3304366 L57.3557566,23.6281497 L56.1335413,25.4599584 L57.4235257,27.208316 L55.3073323,26.6466112 M50.3538222,31.7443659 L49.438752,29.7707277 L47.265273,29.9982536 L48.8650234,28.4618295 L48.0319501,26.4506445 L49.9352262,27.4747609 L51.5941342,26.0030769 L51.170546,28.1723077 L53.0293916,29.2750104 L50.8642746,29.5912266 M48.6834321,36.524657 L47.0222777,35.1392931 L45.1546958,36.2893971 L45.9503276,34.206237 L44.3472075,32.7512682 L46.4997192,32.8494387 L47.3762246,30.798711 L47.9107644,32.9429938 L50.0561622,33.1311019 L48.2340094,34.3580457 M48.6427457,41.8944699 L46.5749766,41.2935967 L45.3131981,43.102079 L45.2254602,40.8698545 L43.1836505,40.1817879 L45.1967551,39.4034096 L45.1962559,37.1685655 L46.5281747,38.9199168 L48.5704836,38.2271102 L47.3800936,40.0878586 M51.0652106,46.4311435 L48.9342902,46.7297713 L48.5020905,48.9014969 L47.5311076,46.8959252 L45.3892044,47.1042412 L46.9199376,45.5664449 L46.0275819,43.5229522 L47.9445866,44.5782536 L49.5356006,43.1068191 L49.1896412,45.2967568 M54.8106084,50.0313929 L52.9125741,51.0575052 L53.2465523,53.2466944 L51.6521685,51.704657 L49.7130733,52.6498129 L50.625897,50.6710603 L49.0922933,49.0656549 L51.2507956,49.3849896 L52.2429953,47.4471518 L52.6640874,49.6234927 M59.3825897,50.7415385 L58.3467083,52.6528067 L59.8069267,54.3006237 L57.640312,53.8932225 L56.5265523,55.7595842 L56.2235257,53.5968399 L54.0736349,53.1026195 L56.0530421,52.1735551 L55.8388768,50.0009563 L57.3652418,51.589896 M64.5206864,49.9529314 L64.4561622,52.1327651 L66.4960998,52.926736 L64.3839002,53.5632848 L64.2295164,55.7390021 L62.9889548,53.9527235 L60.8527925,54.5044491 L62.1985647,52.7640748 L61.0326365,50.9283992 L63.1048986,51.6391684 M69.8942902,26.2897297 L71.384961,27.8619543 L73.3718565,26.9401247 L72.3422153,28.9153846 L73.7672387,30.5497297 L71.6405616,30.1979626 L70.5342902,32.1309356 L70.2497348,29.9383784 L68.1405304,29.4980457 L70.0914821,28.4947609 M74.3653042,31.1272765 L75.0417473,33.1973389 L77.2267083,33.2338877 L75.4577223,34.5661123 L76.0485491,36.6636175 L74.2793136,35.4169647 L72.4590328,36.6777131 L73.1344774,34.5749688 L71.4184087,33.2557173 L73.6054914,33.2030769 M76.0408112,37.3451975 L75.7904524,39.511185 L77.7551326,40.4810395 L75.5965055,40.9298545 L75.2570359,43.0841164 L74.1737285,41.1955509 L71.9983775,41.5577963 L73.4876755,39.9417879 L72.4829953,38.0108108 L74.4866147,38.9005821 M74.8524181,43.8646154 L73.8830577,45.8114345 L75.3991888,47.4068607 L73.219844,47.0760499 L72.1707332,48.9805821 L71.7938222,46.8300624 L69.6280811,46.412183 L71.5745398,45.4135135 L71.285741,43.249896 L72.8657722,44.7837006 M71.6384399,49.6620374 L69.8069267,50.8059044 L70.274571,52.969896 L68.5887051,51.5311435 L66.7112637,52.5966736 L67.5010296,50.5642827 L65.8719501,49.05842 L68.0456786,49.2411642 L68.9171919,47.2445738 L69.4709516,49.390104" id="Shape" fill="#FFFFFF"></path>
                </g>
            </g>
        </g>
    </g>
</svg>