<?xml version="1.0" encoding="UTF-8" standalone="no"?>
<svg width="122px" height="60px" viewBox="0 0 122 60" version="1.1" xmlns="http://www.w3.org/2000/svg" xmlns:xlink="http://www.w3.org/1999/xlink">
    <!-- Generator: Sketch 3.8.2 (29753) - http://www.bohemiancoding.com/sketch -->
    <title>gq</title>
    <desc>Created with Sketch.</desc>
    <defs></defs>
    <g id="Page-1" stroke="none" stroke-width="1" fill="none" fill-rule="evenodd">
        <g id="gq">
            <g id="Group">
                <g>
                    <polygon id="Shape" fill="#E32118" points="0 0 122 0 122 60 0 60"></polygon>
                    <polygon id="Shape" fill="#FFFFFF" points="0 0 122 0 122 40 0 40"></polygon>
                    <polygon id="Shape" fill="#3E9A00" points="0 0 122 0 122 20 0 20"></polygon>
                    <polygon id="Shape" fill="#0073CE" points="0 0 0 60 22.5 30"></polygon>
                    <g transform="translate(32.500000, 21.125000)" id="Shape">
                        <path d="M2.695375,2.845 L12.270375,2.845 L12.270375,12.875 C12.270375,16.25 7.870375,13.65 7.495375,15.45 C6.845375,13.6 2.720375,16.275 2.720375,12.675 C2.720375,9.175 2.695375,2.845 2.695375,2.845 L2.695375,2.845 Z" stroke="#000000" stroke-width="0.1" fill="#FFFFFF"></path>
                        <path d="M8.170375,13.85 C8.170375,13.85 8.045375,13.975 7.820375,13.875 C7.595375,13.775 7.570375,7.45 7.570375,7.45 C8.070375,6.9 8.470375,6.725 8.470375,6.725 L8.770375,6.975 C7.645375,7.55 7.745375,8.375 7.845375,9.8 C7.870375,10.325 7.870375,11 7.995375,11.65 C8.170375,12.475 8.520375,13.175 8.545375,13.7 C8.570375,14.025 8.170375,13.85 8.170375,13.85 L8.170375,13.85 Z" stroke="#000000" stroke-width="0.1" fill="#73452B"></path>
                        <path d="M7.395375,6.575 L7.845375,6.575 C7.470375,10.2 7.795375,12.35 7.795375,13.4 C7.795375,13.75 7.995375,13.875 7.970375,13.875 C7.520375,14.375 7.295375,13.85 7.295375,13.85 L7.395375,6.575 Z" stroke="#000000" stroke-width="0.1" fill="#73452B"></path>
                        <path d="M6.695375,13.85 C6.270375,14.05 6.220375,13.65 6.245375,13.6 C7.170375,11.725 7.570375,7.6 6.720375,7.15 L6.770375,6.75 C7.095375,6.85 7.395375,7.275 7.395375,7.275 C7.520375,11.9 7.395375,13.8 7.320375,13.875 C6.870375,14.35 6.695375,13.8 6.670375,13.75" stroke="#000000" stroke-width="0.1" fill="#A36629"></path>
                        <path d="M6.670375,13.775 C6.595375,13.375 7.320375,12.35 7.270375,11.275 M7.895375,12.15 C8.120375,12.775 8.220375,13.325 8.170375,13.85" stroke="#000000" stroke-width="0.1"></path>
                        <path d="M8.870375,4.875 C9.020375,4.7 9.020375,4.7 9.295375,4.7 C9.345375,4.325 9.970375,4.325 10.020375,4.8 C10.520375,4.7 10.620375,5 10.420375,5.3 C10.895375,5.175 11.320375,5.3 11.195375,5.85 C12.045375,6.075 11.720375,6.675 11.345375,6.8 C11.295375,7.175 10.945375,7.3 10.470375,7.15 C9.870375,7.575 9.520375,7.425 9.245375,7 C8.570375,7.1 8.520375,6.95 8.220375,6.575 C7.695375,6.8 7.595375,6.8 7.145375,6.525 C7.120375,6.875 6.995375,6.775 6.770375,6.75 C6.795375,7.2 6.620375,7.4 6.220375,7.25 C6.520375,7.875 5.745375,8.15 5.370375,7.625 C5.020375,7.65 4.995375,7.55 4.820375,7.425 C4.670375,7.925 4.120375,7.85 4.020375,7.575 C3.320375,7.475 3.395375,7.1 3.970375,7.075 C4.020375,6.675 4.370375,6.75 4.595375,6.8 C4.620375,6.55 4.770375,6.6 4.895375,6.65 C4.820375,6.475 4.870375,6.375 5.095375,6.325 C4.770375,5.9 4.970375,5.75 5.295375,5.6 C5.120375,5.2 5.420375,5.225 5.645375,5.2 C5.620375,4.775 5.745375,4.7 6.195375,4.65 C6.145375,4.5 6.220375,4.375 6.470375,4.375 C6.320375,3.95 6.520375,3.8525 6.970375,3.925 C7.045375,3.3075 8.370375,3.6 8.270375,4.45 C8.645375,4.5 8.770375,4.575 8.870375,4.875 L8.870375,4.875 Z" stroke="#000000" stroke-width="0.1" fill="#009A3B"></path>
                        <g transform="translate(5.000000, 4.375000)" stroke="#000000" stroke-width="0.1">
                            <path d="M1.195375,0.275 C1.295375,0.325 1.420375,0.275 1.445375,0.55 C1.645375,0.2 1.895375,0.4 1.895375,0.8 M3.270375,0.075 C3.170375,0.225 2.795375,0.225 2.845375,0.625 C2.720375,0.45 2.470375,0.4 2.370375,0.575 M3.870375,0.5 C3.870375,0.6 3.845375,0.9 3.745375,1.05 M5.420375,0.925 C5.445375,0.95 5.070375,0.925 4.895375,1.05 M6.345375,2.425 C6.245375,2.375 6.045375,2.25 5.895375,2.45 C5.895375,2.35 5.895375,2.075 5.620375,2.075 M5.470375,2.775 C5.470375,2.525 5.420375,2.45 5.370375,2.375 M4.645375,2.425 C4.445375,2.275 4.245375,2.5 4.245375,2.625 M3.195375,2.2 C3.195375,2.1 3.120375,1.9 3.295375,1.825 M0.345375,3.25 C0.395375,3 0.570375,3 0.545375,2.875 C0.520375,2.675 0.295375,2.5 0.020375,2.775 M0.545375,2.875 C0.695375,2.825 0.845375,2.85 0.895375,2.925 M0.120375,1.95 C0.220375,1.85 0.470375,1.875 0.620375,1.95 M0.620375,1.35 C0.745375,1.35 0.970375,1.3 1.045375,1.525 C1.320375,1.1 1.520375,1.15 1.570375,1.25 M2.070375,1.2 C2.270375,1.125 2.620375,1.325 2.820375,1.675 C2.920375,1.4 3.070375,1.45 3.220375,1.425 M4.170375,1.675 C4.495375,1.525 4.695375,1.825 4.795375,1.95 C4.945375,1.75 5.070375,1.75 5.220375,1.75 M1.145375,2.275 C1.220375,2.15 1.395375,2.125 1.520375,2.2 C1.495375,1.975 1.645375,1.875 1.745375,1.925"></path>
                        </g>
                        <g transform="translate(0.500000, 0.000000)" stroke="#000000" stroke-width="0.1" fill="#FFD700">
                            <path d="M6.670375,1.44 L6.120375,1.465 L5.845375,1.9575 L5.545375,1.4875 L4.995375,1.51 L5.245375,1.015 L4.945375,0.545 L5.520375,0.52 L5.770375,0.0275 L6.070375,0.4975 L6.620375,0.475 L6.370375,0.97 L6.670375,1.44 Z M4.320375,1.6225 L3.770375,1.7575 L3.620375,2.29 L3.220375,1.89 L2.695375,2.02 L2.845375,1.4875 L2.470375,1.0825 L2.995375,0.95 L3.145375,0.415 L3.545375,0.815 L4.095375,0.685 L3.920375,1.22 L4.320375,1.6225 Z M2.045375,2.09 L1.545375,2.3375 L1.520375,2.8925 L1.045375,2.5875 L0.545375,2.8325 L0.595375,2.2775 L0.120375,1.97 L0.620375,1.72 L0.670375,1.165 L1.120375,1.47 L1.620375,1.225 L1.595375,1.78 L2.045375,2.09 Z M7.395375,1.44 L7.945375,1.465 L8.195375,1.9575 L8.495375,1.4875 L9.045375,1.51 L8.795375,1.015 L9.095375,0.545 L8.545375,0.52 L8.270375,0.0275 L7.970375,0.4975 L7.420375,0.475 L7.670375,0.97 L7.395375,1.44 Z M9.745375,1.6225 L10.270375,1.7575 L10.420375,2.29 L10.820375,1.89 L11.345375,2.02 L11.195375,1.4875 L11.595375,1.0825 L11.045375,0.95 L10.895375,0.415 L10.495375,0.815 L9.970375,0.685 L10.120375,1.22 L9.745375,1.6225 Z M11.995375,2.09 L12.495375,2.3375 L12.520375,2.8925 L12.995375,2.5875 L13.495375,2.8325 L13.470375,2.2775 L13.920375,1.97 L13.420375,1.72 L13.395375,1.165 L12.920375,1.47 L12.420375,1.225 L12.470375,1.78 L11.995375,2.09 Z"></path>
                        </g>
                        <g transform="translate(0.000000, 10.250000)">
                            <g stroke="#000000" stroke-width="0.1" fill="#FFFFFF">
                                <path d="M13.170375,2.425 L13.795375,3.325 L14.370375,2.475 L13.970375,1.75 L13.170375,2.425 Z M9.195375,5.05 L9.245375,5.95 C9.245375,5.95 9.495375,5.95 9.720375,5.875 C9.920375,5.8 10.095375,5.65 10.095375,5.65 L10.070375,5.175 L9.195375,5.05 Z M5.845375,5.05 L5.795375,5.925 C5.795375,5.925 5.570375,5.925 5.345375,5.875 C5.145375,5.825 4.970375,5.7 4.970375,5.7 L4.720375,5.1 L5.845375,5.05 Z M1.820375,2.425 L1.170375,3.325 L0.470375,2.175 L0.995375,1.625 L1.820375,2.425 Z"></path>
                                <path d="M4.945375,6.85 C4.945375,7.7 10.095375,7.7 10.095375,6.85 L10.095375,5.65 C10.095375,6.275 4.945375,6.15 4.945375,5.65 L4.945375,6.85 Z"></path>
                                <path d="M0.345375,4.075 C0.795375,6.375 4.945375,6.425 4.945375,6.425 L4.945375,5.65 C4.845375,5.35 5.020375,5.25 5.695375,5.15 C5.970375,5.125 5.845375,4.725 5.845375,4.725 C5.845375,4.725 4.045375,5.05 2.770375,4.55 C1.045375,3.85 0.795375,2.5 0.795375,2.5 C0.795375,2.5 0.670375,3.55 0.345375,4.075 L0.345375,4.075 Z M14.670375,4.075 C14.245375,6.375 10.095375,6.425 10.095375,6.425 L10.095375,5.65 C10.170375,5.35 9.995375,5.25 9.320375,5.15 C9.045375,5.125 9.195375,4.725 9.195375,4.725 C9.195375,4.725 10.995375,5.05 12.270375,4.55 C13.970375,3.85 14.170375,2.5 14.170375,2.5 C14.170375,2.5 14.345375,3.55 14.670375,4.075 L14.670375,4.075 Z"></path>
                                <path d="M0.670375,3.2 C-0.479625,2.575 0.420375,1.925 0.520375,0.075 C0.695375,1.2 1.970375,1.675 1.820375,2.4 C1.295375,2.425 1.045375,1.625 0.795375,2.5 L0.670375,3.2 L0.670375,3.2 Z M14.345375,3.2 C15.495375,2.55 14.545375,1.925 14.445375,0.075 C14.270375,1.2 13.020375,1.675 13.170375,2.4 C13.670375,2.425 13.920375,1.625 14.170375,2.5 L14.345375,3.175 L14.345375,3.2 Z"></path>
                            </g>
                            <g transform="translate(0.875000, 4.000000)" fill="#000000">
                                <path d="M0.495375,0.05 L0.620375,0.15 L0.345375,0.45 C0.235375,0.57 0.20875,0.6495 0.28525,0.722625 C0.380125,0.813375 0.446875,0.781875 0.545375,0.675 L0.845375,0.35 L0.945375,0.45 L0.64575,0.79975 C0.483,0.989625 0.332,0.946125 0.20525,0.82775 C0.094875,0.72475 0.0315,0.57525 0.194,0.3915 L0.4965,0.0515 L0.495375,0.05 Z M0.995375,0.475 L1.120375,0.55 L1.095375,1.15 L1.370375,0.725 L1.495375,0.8 L1.095375,1.45 L0.945375,1.375 L0.970375,0.775 L0.695375,1.2 L0.570375,1.125 L0.995375,0.475 Z M1.220375,1.525 L1.570375,0.825 L1.695375,0.9 L1.370375,1.575 L1.220375,1.525 Z M1.770375,0.925 L1.494375,1.6495 L1.770375,1.75 C2.027625,1.84375 2.148375,1.7305 2.230125,1.513 C2.312625,1.29175 2.276625,1.129 2.019375,1.0255 L1.770375,0.925 L1.770375,0.925 Z M1.869375,1.1005 C2.128125,1.1905 2.143875,1.28875 2.073375,1.4665 C2.005125,1.63525 1.941375,1.70125 1.695375,1.5745 L1.869375,1.1005 L1.869375,1.1005 Z M2.595375,1.2 L2.145375,1.875 L2.319375,1.926 L2.419875,1.7505 L2.719875,1.8255 L2.745375,2.001 L2.919375,2.025 L2.745375,1.2255 L2.595375,1.2 L2.595375,1.2 Z M2.644875,1.3755 L2.694375,1.6755 L2.494875,1.65 L2.644875,1.3755 L2.644875,1.3755 Z M3.022875,1.265 L2.995875,2.03975 L3.290125,2.0455 C3.563625,2.05075 3.641375,1.905 3.648125,1.67275 C3.654875,1.4365 3.567875,1.294 3.290625,1.279875 L3.023,1.264875 L3.022875,1.265 Z M3.173,1.399375 C3.447125,1.400625 3.494,1.488125 3.48425,1.679375 C3.475125,1.861125 3.4355,1.944 3.16225,1.9035 L3.173,1.399375 L3.173,1.399375 Z M5.645375,2.35 L5.645375,3.1495 L5.820875,3.1495 L5.820875,2.8495 C5.820875,2.8495 5.970875,2.8585 6.095375,2.8255 C6.193625,2.8 6.261875,2.737 6.264125,2.58175 C6.266375,2.4295 6.177875,2.35 6.024875,2.35 L5.644875,2.35 L5.645375,2.35 Z M5.820875,2.4745 L5.997125,2.47675 C6.144125,2.47675 6.116375,2.6995 6.001625,2.6995 L5.820875,2.6995 L5.820875,2.4745 L5.820875,2.4745 Z M6.545375,2.35 L6.219875,3.1495 L6.395375,3.1495 L6.470375,2.95 L6.795875,2.95 L6.870875,3.1495 L7.044875,3.1495 L6.719875,2.3495 L6.544875,2.3495 L6.545375,2.35 Z M6.620375,2.5255 L6.744875,2.8255 L6.519875,2.8255 L6.620375,2.5255 L6.620375,2.5255 Z M7.045375,3 L7.470375,2.475 L7.095375,2.475 L7.095375,2.35 L7.695375,2.35 L7.695375,2.475 L7.245375,3 L7.695375,3 L7.695375,3.15 L7.045375,3.15 L7.045375,3 Z M9.570375,1.45 L9.720375,1.425 L9.795375,1.875 C9.822125,2.035 9.749,2.144125 9.635125,2.186125 C9.505375,2.234 9.339875,2.19025 9.320375,1.975 L9.445375,1.95 C9.4745,2.07875 9.526375,2.09 9.586375,2.06975 C9.633875,2.05375 9.6585,1.97875 9.645375,1.9 L9.570375,1.45 Z M9.820375,1.405 L9.9685,1.376875 L10.037,1.751375 C10.06625,1.911625 10.1165,1.97975 10.22075,1.961625 C10.35,1.939125 10.36425,1.866625 10.33675,1.723875 L10.24475,1.324375 L10.396125,1.3015 L10.496625,1.717 C10.555375,1.960125 10.428375,2.0565 10.257875,2.08825 C10.1095,2.116 9.951625,2.07825 9.899875,1.838625 L9.820375,1.405 Z M10.595375,1.75 L10.720375,1.7 C10.78175,1.810125 10.877375,1.8045 10.95175,1.771625 C11.055125,1.725875 11.067,1.635625 11.015875,1.605 C10.943,1.561375 10.769125,1.623375 10.6755,1.589125 C10.5635,1.54825 10.515375,1.48525 10.521125,1.388375 C10.528,1.27175 10.630625,1.207625 10.74225,1.173 C10.867125,1.13425 10.990375,1.148 11.070375,1.3 L10.920375,1.35 C10.871625,1.267875 10.80875,1.27175 10.753,1.298 C10.706375,1.320125 10.633375,1.3615 10.6725,1.42825 C10.704375,1.48275 10.888125,1.447375 10.985,1.45125 C11.085,1.455375 11.165875,1.522125 11.179375,1.6185 C11.19825,1.752625 11.148625,1.825375 10.993375,1.885875 C10.80175,1.960625 10.628875,1.876875 10.5955,1.75 L10.595375,1.75 Z M11.270375,1.125 L11.070375,1.225 L11.020375,1.1 L11.570375,0.875 L11.620375,0.975 L11.420375,1.075 L11.645375,1.625 L11.520375,1.7 L11.270375,1.125 Z M11.595375,0.85 L11.720375,0.775 L12.070375,1.425 L11.945375,1.5 L11.595375,0.85 Z M12.445375,0.9 L12.595375,0.85 C12.666,0.99825 12.56,1.267875 12.301,1.262375 C11.922,1.25425 11.881,0.836625 11.9405,0.698875 C12.040625,0.467625 12.321125,0.472 12.4455,0.6 L12.3205,0.7 C12.24125,0.598375 12.065125,0.6625 12.05325,0.755875 C12.033875,0.908625 12.101,1.050625 12.2375,1.118 C12.35325,1.175125 12.5315,1.0315 12.445375,0.9 L12.445375,0.9 Z M12.370375,0.375 L12.495375,0.275 L12.945375,0.875 L12.820375,0.975 L12.370375,0.375 Z M12.845375,0 L12.720875,0.1005 L12.995375,0.8505 L13.119875,0.726 L13.044875,0.576 L13.269875,0.375 L13.419875,0.45 L13.545875,0.351 L12.845375,7.10542736e-15 L12.845375,0 Z M12.894875,0.1755 L13.145375,0.3 L12.995375,0.45 L12.894875,0.1755 L12.894875,0.1755 Z"></path>
                            </g>
                        </g>
                    </g>
                </g>
            </g>
        </g>
    </g>
</svg>