<?xml version="1.0" encoding="UTF-8" standalone="no"?>
<svg width="122px" height="60px" viewBox="0 0 122 60" version="1.1" xmlns="http://www.w3.org/2000/svg" xmlns:xlink="http://www.w3.org/1999/xlink">
    <!-- Generator: Sketch 3.8.2 (29753) - http://www.bohemiancoding.com/sketch -->
    <title>mm</title>
    <desc>Created with Sketch.</desc>
    <defs></defs>
    <g id="Page-1" stroke="none" stroke-width="1" fill="none" fill-rule="evenodd">
        <g id="mm"></g>
        <g id="mm">
            <g id="Group">
                <rect id="Rectangle-175" fill="#FECB00" x="0" y="0" width="122" height="20"></rect>
                <rect id="Rectangle-175-Copy" fill="#34B233" x="0.153790761" y="19.8308893" width="122" height="20"></rect>
                <rect id="Rectangle-175-Copy-2" fill="#EA2839" x="0.153790761" y="39.8308893" width="122" height="20"></rect>
            </g>
            <g id="c-link" transform="translate(37.153791, 8.830889)" fill="#FFFFFF">
                <g id="c">
                    <g id="a-link" transform="translate(17.863423, 32.170311) rotate(216.000000) translate(-17.863423, -32.170311) translate(10.363423, 20.670311)">
                        <polygon id="a" points="7.67070652 0.591878571 14.8308815 22.8716518 0.510531543 22.8716518"></polygon>
                    </g>
                    <g id="a-link" transform="translate(13.579867, 19.517479) rotate(-72.000000) translate(-13.579867, -19.517479) translate(6.079867, 8.017479)">
                        <polygon id="a" points="7.67070652 0.591878571 14.8308815 22.8716518 0.510531543 22.8716518"></polygon>
                    </g>
                    <polygon id="a" points="24.3474457 0.591878571 31.5076206 22.8716518 17.1872707 22.8716518"></polygon>
                    <g id="a-link" transform="translate(35.009522, 19.197757) rotate(72.000000) translate(-35.009522, -19.197757) translate(27.509522, 7.697757)">
                        <polygon id="a" points="7.67070652 0.591878571 14.8308815 22.8716518 0.510531543 22.8716518"></polygon>
                    </g>
                    <g id="a-link" transform="translate(31.107678, 31.972712) rotate(144.000000) translate(-31.107678, -31.972712) translate(23.607678, 20.472712)">
                        <polygon id="a" points="7.67070652 0.591878571 14.8308815 22.8716518 0.510531543 22.8716518"></polygon>
                    </g>
                </g>
            </g>
        </g>
    </g>
</svg>