<?xml version="1.0" encoding="UTF-8" standalone="no"?>
<svg width="122px" height="60px" viewBox="0 0 122 60" version="1.1" xmlns="http://www.w3.org/2000/svg" xmlns:xlink="http://www.w3.org/1999/xlink">
    <!-- Generator: Sketch 3.8.2 (29753) - http://www.bohemiancoding.com/sketch -->
    <title>ws</title>
    <desc>Created with Sketch.</desc>
    <defs></defs>
    <g id="Page-1" stroke="none" stroke-width="1" fill="none" fill-rule="evenodd">
        <g id="ws">
            <g id="Group">
                <g>
                    <polygon id="Shape" fill="#FF0000" points="0 0 122 0 122 60 0 60"></polygon>
                    <polygon id="Shape" fill="#00006B" points="0 0 39.300875 0 39.300875 19.65125 0 19.65125"></polygon>
                    <g transform="translate(11.250000, 1.500000)" id="Shape" fill="#FFFFFF">
                        <path d="M9.09625,16.55 L7.53775,15.498125 L6.044,16.5675 L6.518375,14.691625 L5.0845,13.535375 L6.936625,13.428125 L7.544375,11.643875 L8.214,13.4535 L10.023625,13.506875 L8.585625,14.733125 L9.09625,16.55 Z M8.82925,4.07175 L7.582375,3.2705 L6.358,4.06575 L6.698,2.571625 L5.600375,1.5945 L7.057875,1.472375 L7.6025,0.073375 L8.16375,1.492 L9.59875,1.6045 L8.48775,2.60325 L8.82925,4.07175 Z M3.318875,8.562 L2.105375,7.7295 L0.865125,8.56175 L1.25125,7.102625 L0.107875,6.131625 L1.55875,6.062375 L2.092875,4.629875 L2.60425,6.046125 L4.076875,6.132 L2.941875,7.0765 L3.318875,8.562 Z M14.36675,7.55875 L13.202375,6.8075 L12.069375,7.567875 L12.395375,6.1825 L11.351625,5.2955 L12.717375,5.190375 L13.20475,3.881875 L13.722625,5.202375 L15.068,5.2805 L14.02275,6.20175 L14.36675,7.55875 Z M11.11025,10.839625 L10.334,10.356125 L9.5605,10.8445 L9.762125,9.926125 L9.076875,9.310625 L9.977875,9.2265 L10.328375,8.35775 L10.6835,9.224 L11.585125,9.30275 L10.9035,9.92225 L11.11025,10.839625 Z"></path>
                    </g>
                </g>
            </g>
        </g>
    </g>
</svg>