<?xml version="1.0" encoding="UTF-8" standalone="no"?>
<svg width="122px" height="60px" viewBox="0 0 122 60" version="1.1" xmlns="http://www.w3.org/2000/svg" xmlns:xlink="http://www.w3.org/1999/xlink">
    <!-- Generator: Sketch 3.8.2 (29753) - http://www.bohemiancoding.com/sketch -->
    <title>ms</title>
    <desc>Created with Sketch.</desc>
    <defs></defs>
    <g id="Page-1" stroke="none" stroke-width="1" fill="none" fill-rule="evenodd">
        <g id="ms">
            <g id="Group">
                <g>
                    <polygon id="Shape" fill="#000066" points="0 0 122 0 122 60 0 60"></polygon>
                    <g transform="translate(51.000000, 24.000000)" id="Shape">
                        <path d="M0.037875,0.03125 L26.8245,0.03125 L26.792625,19.211375 C27.015375,26.921625 22.23975,31.706 13.452625,33.863125 C7.211875,32.303625 0.0165,29.078125 0.006,19.430125 L0.037875,0.031 L0.037875,0.03125 Z" fill="#FFFFFF"></path>
                        <path d="M0.6307328,0.60953295 L26.2288928,0.60953295 L26.1985016,18.9877315 C26.4113912,26.3758312 21.8474192,30.960415 13.4497712,33.0275249 C7.4868968,31.5334119 0.610472,28.4432454 0.6004928,19.1970899 L0.630884,0.60892435 L0.6307328,0.60953295 Z" stroke="#000000" stroke-width="0.213000059" fill="#00A2BD"></path>
                        <path d="M26.031,21.166125 C25.09975,28.218375 19.70225,31.29975 13.44975,32.935125 C7.91525,31.44125 1.961,29.056125 0.806875,21.2015 L26.031625,21.166125 L26.031,21.166125 Z" fill="#A53D08"></path>
                    </g>
                    <g transform="translate(67.750000, 50.625000)" id="Shape" stroke="#000000">
                        <path d="M0.769924,0.5281655 C0.7841368,0.5424676 0.8694136,1.94239975 0.1168912,2.79961285 C0.7841368,3.0139922 1.2384928,2.75670655 1.4513824,2.48527095 C1.6644232,2.21383535 1.7354872,1.8710414 1.7354872,1.8710414 C1.7354872,1.8710414 1.9199512,1.75677675 1.9483768,1.49964325 C1.9625896,1.14239505 1.8064,1.14239505 1.678636,1.0710367 L1.7069104,0.271032 C1.7069104,0.271032 0.9403264,-0.20048085 0.769924,0.5281655 L0.769924,0.5281655 Z" stroke-width="1.51675744" fill="#FFC6B5"></path>
                        <path stroke-width="0.1" fill="#FF9A08"></path>
                    </g>
                    <path d="M66.383468,31.711895 C66.383468,31.711895 66.4011584,32.5677387 66.347936,32.6568986 C66.2948648,32.7460585 65.8105712,32.9718491 65.8105712,32.9718491 L66.223952,33.8573621 C66.223952,33.8573621 67.387436,33.6910622 67.3933328,33.6910622 C67.3992296,33.6910622 67.895468,32.3656835 67.895468,32.3656835 C67.895468,32.3656835 67.6355552,31.92597 67.7005712,31.4683028 C67.3107776,30.2259981 66.4011584,31.7178288 66.383468,31.711895 L66.383468,31.711895 Z" id="Shape" stroke="#000000" stroke-width="0.1" fill="#FFC6B5"></path>
                    <path d="M64.84274,52.0538935 C64.84274,52.0538935 65.4957728,52.7110294 66.248144,52.6253689 C67.9518656,52.4397459 68.4487088,50.9110949 68.9739776,50.8967928 C69.4992464,50.8824907 69.8258384,51.8253642 70.3226816,51.7110996 C69.8967512,50.925397 69.4425464,49.1825187 69.5134592,47.9539075 C69.5845232,46.7252962 69.5845232,41.5537177 69.5845232,41.5537177 C69.5845232,41.5537177 68.7326624,38.882268 68.3351576,38.4393594 C68.7326624,38.0107528 69.0024032,37.2536544 68.9881904,36.4250455 C68.9739776,35.5964366 68.9881904,34.6821673 68.9881904,34.6821673 C68.9881904,34.6821673 69.1868672,34.453638 69.1728056,33.8108042 C69.1585928,33.1678183 68.0938424,32.239399 67.9518656,32.2821532 C67.8098888,32.3249073 66.4753976,33.4821602 66.3618464,33.7534437 C66.248144,34.0250314 66.0921056,32.767816 66.3476336,32.6533992 C66.6031616,32.5392867 65.7513008,32.4677762 65.2118192,33.1106099 C64.6723376,33.7535958 64.8285272,52.0821934 64.84274,52.0532849 L64.84274,52.0538935 Z" id="Shape" stroke="#000000" stroke-width="0.1" fill="#005121"></path>
                    <polygon id="Shape" fill="#000000" points="58.43975 28.01525 63.436 28.03325 63.40025 25.716875 65.2205 25.734875 65.23825 28.03325 70.21675 28.03325 70.2345 29.828875 65.23825 29.846875 65.19825 51.023125 63.423 51.034375 63.40025 29.82925 58.438625 29.847125 58.43975 28.015625"></polygon>
                    <path d="M63.418436,33.6238119 C63.418436,33.6238119 63.0770264,33.5632562 62.8160552,33.6440478 C62.555084,33.7248395 63.2176424,30.6640379 63.2176424,30.4114689 C63.4485248,30.3003994 64.6029368,30.0881502 64.572848,29.2698875 C64.4925608,28.7749435 62.7859664,29.3003175 62.8160552,29.9265669 C62.7056792,30.2396916 61.5914864,33.4317986 61.8122384,34.4823943 C62.2036952,34.795519 62.9265824,34.7349633 63.418436,34.6541717 L63.418436,33.6238119 L63.418436,33.6238119 Z" id="Shape" stroke="#000000" stroke-width="0.1" fill="#FFC6B5"></path>
                    <path id="Shape" stroke="#000000" stroke-width="0.758378719"></path>
                    <path d="M64.50254,29.2396096 C64.4824304,29.2496515 63.8399816,29.6537619 63.8399816,29.6537619 M64.463228,29.4921786 L64.0114424,29.8255392 M64.292372,29.1184982 L63.790388,29.421581" id="Shape" stroke="#000000" stroke-width="0.5"></path>
                    <path d="M59.405588,46.039404 L63.962756,50.796678 C65.5385624,49.0537998 64.4455376,42.5391932 62.372888,41.3393383 C62.1244664,42.1107388 61.7020136,43.0356587 61.2529496,43.3338727 C60.2650088,44.0113966 57.8439944,44.8034895 58.6532168,45.3107576 C58.8376808,45.0536241 59.3204624,44.8107927 59.5475648,45.3822681 C59.8173056,46.2822354 58.5396656,46.3394438 58.5396656,46.3394438 C58.5396656,46.3394438 57.7304432,46.2393291 57.5884664,45.4107202 C57.4464896,44.5822634 58.7938328,43.8257736 58.9087448,43.7679566 C59.022296,43.7250503 60.7827176,43.2536896 61.080884,41.6821323 C61.4499632,40.1391791 61.8332552,40.3678606 61.9043192,40.3392564 C64.2040712,40.5677857 65.7089648,44.7108302 65.7942416,47.6251113 C65.8793672,50.5393924 64.61594,52.4680458 64.3886864,52.5966125 C64.161584,52.7251793 58.9087448,46.3251417 58.9087448,46.3251417 L59.405588,46.039404 L59.405588,46.039404 Z" id="Shape" stroke="#000000" stroke-width="0.1" fill="#FF9A08"></path>
                    <path d="M62.727452,41.6103175 L62.7557264,50.196142 M62.216396,41.767032 L62.2446704,49.567306 M61.663004,42.895985 L61.6912784,49.0960975 M61.209404,43.3387415 L61.2378296,48.4675658 M60.725564,43.568488 L60.725564,47.8971555 M60.2009,43.9108255 L60.2009,47.3393736 M59.7463928,44.1816525 L59.7463928,46.8101959" id="Shape" stroke="#000000" stroke-width="0.1"></path>
                    <path d="M59.3346752,46.5825795 L64.03382,51.9960765 M64.26062,43.1683335 C64.26062,43.1683335 66.390272,47.8542492 64.4168096,51.7114039 M58.7809808,45.5966475 C58.7809808,45.5966475 58.9371704,45.1823431 59.1358472,45.3538161 M58.4119016,44.396184 C58.4119016,44.396184 57.5600408,45.1532824 58.0286096,45.6390974" id="Shape" stroke="#FFDF00" stroke-width="1.51675744"></path>
                    <path d="M66.291236,33.7820479 C66.291236,33.7820479 66.3623,34.4393359 66.2203232,34.9391486 C66.0783464,35.4389614 66.7598048,36.8248957 66.5041256,37.1106334 M66.575492,38.453205 L68.3643392,38.4389029" id="Shape" stroke="#000000" stroke-width="0.1"></path>
                    <path d="M65.922308,39.1820035 C65.9365208,39.2104556 66.1351976,40.1248771 66.0783464,40.7534087 M66.504428,39.5106475 C66.447728,39.6964227 65.7094184,41.8106991 65.737844,41.8963595 M66.94442,38.553624 C66.9586328,38.5965303 66.88772,39.8964999 66.688892,40.0822751 M67.853132,38.453205 C67.853132,38.453205 69.017372,41.167561 69.0031592,42.2390013 C68.9889464,43.3104416 69.400664,45.4819264 69.1309232,46.4391021 M68.22206,42.21131 C68.22206,42.21131 68.1367832,44.2256239 67.2992864,45.0113265 C66.4616384,45.7971812 69.3010232,48.0400244 69.3010232,48.0400244" id="Shape" stroke="#000000" stroke-width="0.1"></path>
                    <path d="M68.193332,47.910849 C68.193332,47.910849 68.5057112,50.6822613 69.03098,50.8823385 M65.624444,43.267231 C65.6386568,43.2958352 65.3404904,45.138676 65.5818056,45.4387158 C65.823272,45.7387556 67.8250088,48.5530742 67.739732,51.4675074 M67.17122,50.5962965 C67.17122,50.5962965 67.1143688,52.3534769 65.495924,52.4963457 M66.688892,49.4399565 C66.688892,49.4399565 67.1716736,51.2684952 65.5248032,52.4257481" id="Shape" stroke="#000000" stroke-width="0.1"></path>
                    <path d="M67.326956,45.0245635 C67.326956,45.0245635 69.186716,46.967519 69.2719928,47.8247321 M67.86674,38.495807 C67.86674,38.495807 68.193332,39.8814371 68.065568,40.1244206" id="Shape" stroke="#000000" stroke-width="0.1"></path>
                    <path d="M62.130212,41.3425335 C62.130212,41.3425335 61.9310816,40.9918278 61.9560296,40.603541 C61.9809776,40.2152542 61.8937352,39.6142617 63.1384136,39.125708 C63.8975888,38.3492866 64.7438552,37.8858377 65.2042592,37.6480272 C65.8763432,37.2096831 66.3121016,37.3097978 66.7102112,37.1594736 C66.971636,36.8589773 66.9590864,36.1951469 67.2329096,35.6066307 C67.5067328,35.0179623 67.9920848,33.8031967 68.5147832,33.991102 C69.0376328,34.1790072 68.6268224,35.7569549 68.427692,36.3080422 C68.2285616,36.8591295 68.0543792,37.4351694 67.7058632,37.7732467 C67.3573472,38.1114761 65.7768536,38.7250971 65.465684,38.8378402 C65.1545144,38.9505834 63.7358048,39.2760322 63.3748904,39.7772143 C63.0138248,40.2780921 63.0387728,41.0170847 62.130212,41.3426857 L62.130212,41.3425335 Z" id="Shape" stroke="#000000" stroke-width="0.1" fill="#FFC6B5"></path>
                    <path id="Shape" stroke="#000000" stroke-width="1.21340595"></path>
                    <path d="M66.424292,29.55243 C66.424292,29.55243 66.161204,29.9840796 66.0883256,30.2463862 C66.0317768,30.4426597 65.8494296,30.2331491 65.752964,30.6584084 L65.909456,30.6859475 C65.8471616,30.811167 65.8269008,31.0228076 65.8145024,31.072865 C65.8019528,31.1230745 65.714408,31.3519081 65.7274112,31.5238376 C65.7343664,31.612541 65.9015936,31.9997628 67.25816,31.4110944 C68.6147264,30.8224261 66.8225528,29.1516669 66.424292,29.55243 L66.424292,29.55243 Z" id="Shape" stroke="#000000" stroke-width="0.1" fill="#FFC6B5"></path>
                    <path d="M66.27158,29.6076604 C66.4108352,29.5324983 67.3990784,29.4448599 67.2344216,31.3859896 C67.42448,31.3608849 67.5384848,31.3357801 67.6523384,31.5236854 C67.7663432,31.7115906 67.7537936,31.9370769 67.9564016,31.9370769 C68.1591608,31.9370769 68.1845624,31.8994959 68.2352144,31.7491717 C68.2857152,31.5988475 69.0713504,31.9244485 69.2738072,31.2231891 C69.2387288,31.0867106 68.7925376,30.8724834 68.7417344,30.6220445 C68.8558904,30.2713387 68.6910824,29.1317352 67.2471224,29.0690494 C66.4995896,29.0565731 66.3477848,29.3695457 66.27158,29.6076604 L66.27158,29.6076604 Z" id="Shape" stroke="#000000" stroke-width="0.1" fill="#C59200"></path>
                    <path id="Shape" stroke="#000000" stroke-width="1.21340595"></path>
                    <path id="Shape" fill="#000000"></path>
                    <path d="M68.309756,30.5173653 C68.309756,30.5173653 68.15024,31.289983 68.8531688,31.5930658 M67.789628,30.612459 C67.789628,30.612459 68.0499944,30.6243267 68.0499944,30.868071 C68.0499944,31.1116632 67.8361976,31.1413324 67.8540392,31.3376059 C67.8717296,31.5337273 68.2206992,31.5989996 68.2324928,31.7654517 M66.64958,29.1860528 C66.6613736,29.1860528 67.8959216,29.3287695 67.8250088,29.6377861 C67.754096,29.9468028 67.5591992,29.8218876 67.565096,30.0893673 C67.5709928,30.356847 68.0611832,30.1964809 68.0611832,30.1964809 C68.0611832,30.1964809 68.0908184,29.9705382 68.2975088,29.9883397 C68.5041992,30.0061413 68.4096992,30.2439517 68.6931992,30.2378657" id="Shape" stroke="#000000" stroke-width="0.1"></path>
                    <path id="Shape" stroke="#000000" stroke-width="1.51675744"></path>
                    <path id="Shape" stroke="#000000" stroke-width="1.21340595"></path>
                    <g id="Shape">
                        <path d="M0,0.007875 L0,3.562875 L42.956,31.804125 L48.363,31.804125 L48.363,28.249375 L5.407,0.008 L0,0.008 L0,0.007875 Z M48.363,0.007875 L48.363,3.56275 L5.407,31.804125 L0,31.804125 L0,28.24925 L42.956,0.007875 L48.363,0.007875 L48.363,0.007875 Z" fill="#FFFFFF"></path>
                        <path d="M20.15125,10.606625 L20.15125,0.007875 L28.21175,0.007875 L28.21175,10.606625 L48.363,10.606625 L48.363,21.205375 L28.21175,21.205375 L28.21175,31.804125 L20.15125,31.804125 L20.15125,21.205375 L0,21.205375 L0,10.606625 L20.15125,10.606625 Z" fill="#FFFFFF"></path>
                        <path d="M21.763375,19.085625 L0,19.085625 L0,12.726375 L21.763375,12.726375 L21.763375,0.007875 L26.599625,0.007875 L26.599625,12.726375 L48.363,12.726375 L48.363,19.085625 L26.599625,19.085625 L26.599625,31.804125 L21.763375,31.804125 L21.763375,19.085625 Z M0,31.804125 L16.121,21.205375 L19.725625,21.205375 L3.604625,31.804125 L0,31.804125 L0,31.804125 Z M0,0.007875 L16.121,10.606625 L12.516375,10.606625 L0,2.377875 L0,0.007875 L0,0.007875 Z M28.637375,10.606625 L44.758375,0.007875 L48.363,0.007875 L32.242,10.606625 L28.637375,10.606625 L28.637375,10.606625 Z M48.363,31.804125 L32.242,21.205375 L35.846625,21.205375 L48.363,29.43425 L48.363,31.804125 L48.363,31.804125 Z" fill="#CC0000"></path>
                    </g>
                </g>
            </g>
        </g>
    </g>
</svg>