<?xml version="1.0" encoding="UTF-8" standalone="no"?>
<svg width="122px" height="60px" viewBox="0 0 122 60" version="1.1" xmlns="http://www.w3.org/2000/svg" xmlns:xlink="http://www.w3.org/1999/xlink">
    <!-- Generator: Sketch 3.8.2 (29753) - http://www.bohemiancoding.com/sketch -->
    <title>cn</title>
    <desc>Created with Sketch.</desc>
    <defs></defs>
    <g id="Page-1" stroke="none" stroke-width="1" fill="none" fill-rule="evenodd">
        <g id="cn">
            <g>
                <rect id="Rectangle-46" fill="#DE2910" x="0" y="0" width="122" height="60"></rect>
                <polygon id="Shape" fill="#FFDE00" points="20.3314963 22.4023582 15.0221362 18.6073717 9.73861663 22.4400001 11.7037 16.2102681 6.42999983 12.3639518 12.9545522 12.310911 14.9782074 6.0999999 17.0454469 12.2965386 23.5699992 12.3047514 18.3230009 16.187854 20.3316686 22.4035559"></polygon>
                <polygon id="Shape-Copy" fill="#FFDE00" transform="translate(30.081086, 5.882912) rotate(24.000000) translate(-30.081086, -5.882912) " points="31.9474213 8.72971221 30.0888355 7.4012455 28.2392953 8.74288906 28.9271892 6.56211933 27.0810863 5.21568418 29.3650604 5.19711679 30.0734578 3.02293548 30.7971123 5.19208563 33.0810863 5.19496058 31.2443307 6.55427311 31.9474816 8.73013147"></polygon>
                <polygon id="Shape-Copy-2" fill="#FFDE00" transform="translate(35.903894, 11.832929) rotate(-26.000000) translate(-35.903894, -11.832929) " points="37.7702287 14.6797287 35.9116429 13.351262 34.0621027 14.6929055 34.7499966 12.5121358 32.9038937 11.1657006 35.1878678 11.1471333 35.8962652 8.97295194 36.6199197 11.1421021 38.9038937 11.144977 37.0671381 12.5042896 37.770289 14.6801479"></polygon>
                <polygon id="Shape-Copy-3" fill="#FFDE00" transform="translate(30.138730, 26.880776) rotate(20.000000) translate(-30.138730, -26.880776) " points="32.0050645 29.7275763 30.1464786 28.3991096 28.2969385 29.7407531 28.9848323 27.5599834 27.1387295 26.2135482 29.4227036 26.1949809 30.131101 24.0207995 30.8547554 26.1899497 33.1387295 26.1928246 31.3019739 27.5521372 32.0051248 29.7279955"></polygon>
                <polygon id="Shape-Copy-4" fill="#FFDE00" points="37.7921642 23.6807545 35.9335783 22.3522878 34.0840381 23.6939313 34.771932 21.5131616 32.9258292 20.1667265 35.2098032 20.1481591 35.9182006 17.9739778 36.6418551 20.1431279 38.9258292 20.1460029 37.0890736 21.5053154 37.7922245 23.6811738"></polygon>
            </g>
        </g>
    </g>
</svg>