<?xml version="1.0" encoding="UTF-8" standalone="no"?>
<svg width="122px" height="60px" viewBox="0 0 122 60" version="1.1" xmlns="http://www.w3.org/2000/svg" xmlns:xlink="http://www.w3.org/1999/xlink">
    <!-- Generator: Sketch 3.8.2 (29753) - http://www.bohemiancoding.com/sketch -->
    <title>mt</title>
    <desc>Created with Sketch.</desc>
    <defs></defs>
    <g id="Page-1" stroke="none" stroke-width="1" fill="none" fill-rule="evenodd">
        <g id="mt">
            <g id="Group">
                <g>
                    <g id="Shape">
                        <polygon fill="#CE0000" points="61 0 122 0 122 60 61 60"></polygon>
                        <polygon fill="#FFFFFF" points="0 0 61 0 61 60 0 60"></polygon>
                    </g>
                    <g transform="translate(27.445500, 6.347200)">
                        <path d="M12.9534558,11.4036131 C12.9534558,11.5654713 12.7700165,11.6965565 12.5440144,11.6965565 C12.3180123,11.6965565 12.134573,11.5654713 12.134573,11.4036131 C12.134573,11.2417548 12.3180123,11.1106696 12.5440144,11.1106696 C12.7700165,11.1106696 12.9534558,11.2417548 12.9534558,11.4036131 L12.9534558,11.4036131 Z" id="Shape" fill="#F1EEEE"></path>
                        <path d="M0.145272775,9.9872535 L0.145272775,17.4225419 L7.58096085,17.4225419 C7.58096085,18.6614569 8.8202755,19.9007716 10.0595902,19.9007716 L10.0595902,27.3356603 L17.4946788,27.3356603 L17.4946788,19.9007716 C18.7339934,19.9007716 19.9733081,18.6614569 19.9733081,17.4225419 L27.4089961,17.4225419 L27.4089961,9.9872535 L19.9733081,9.9872535 C19.9733081,8.7483385 18.7339934,7.50902385 17.4946788,7.50902385 L17.4946788,0.074135075 L10.0595902,0.074135075 L10.0595902,7.50902385 C8.8202755,7.50902385 7.58096085,8.7483385 7.58096085,9.9872535 L0.145272775,9.9872535 L0.145272775,9.9872535 Z" id="Shape" fill="#CC0000"></path>
                        <path d="M0.393455425,10.2350365 L0.393455425,17.1743593 L7.8291435,17.1743593 C7.8291435,18.4132743 9.0680585,19.6529886 10.3073732,19.6529886 L10.3073732,27.0878773 L17.2472954,27.0878773 L17.2472954,19.6529886 C18.4866101,19.6529886 19.7255251,18.4132743 19.7255251,17.1743593 L27.1612131,17.1743593 L27.1612131,10.2350365 L19.7255251,10.2350365 C19.7255251,8.9961215 18.4866101,7.7564072 17.2472954,7.7564072 L17.2472954,0.321518425 L10.3073732,0.321518425 L10.3073732,7.7564072 C9.0680585,7.7564072 7.8291435,8.9961215 7.8291435,10.2350365 L0.393455425,10.2350365 L0.393455425,10.2350365 Z" id="Shape" fill="#FFE600"></path>
                        <path d="M0.641238425,10.4828195 L0.641238425,16.9269759 L8.07632703,16.9269759 C8.07632703,18.1658909 9.31564168,19.4052056 10.5549563,19.4052056 L10.5549563,26.8400943 L16.9989129,26.8400943 L16.9989129,19.4052056 C18.2382276,19.4052056 19.4775422,18.1658909 19.4775422,16.9269759 L26.9126308,16.9269759 L26.9126308,10.4828195 L19.4775422,10.4828195 C19.4775422,9.2439045 18.2382276,8.00458985 16.9989129,8.00458985 L16.9989129,0.569701075 L10.5549563,0.569701075 L10.5549563,8.00458985 C9.31564168,8.00458985 8.07632703,9.2439045 8.07632703,10.4828195 L0.641238425,10.4828195 L0.641238425,10.4828195 Z" id="Shape" fill="#707070"></path>
                        <path d="M0.88922125,10.7306025 L0.88922125,16.6785934 L8.32430985,16.6785934 C8.32430985,17.9175084 9.5636245,19.1572227 10.8029391,19.1572227 L10.8029391,26.5921115 L16.7511299,26.5921115 L16.7511299,19.1572227 C17.9904446,19.1572227 19.2297592,17.9175084 19.2297592,16.6785934 L26.6648478,16.6785934 L26.6648478,10.7306025 L19.2297592,10.7306025 C19.2297592,9.4916875 17.9904446,8.25237285 16.7511299,8.25237285 L16.7511299,0.817484075 L10.8029391,0.817484075 L10.8029391,8.25237285 C9.5636245,8.25237285 8.32430985,9.4916875 8.32430985,10.7306025 L0.88922125,10.7306025 L0.88922125,10.7306025 Z" id="Shape" fill="#A0A0A0"></path>
                        <g transform="translate(7.393525, 7.393525)" id="Shape">
                            <path d="M3.47096025,0.244385975 C3.90637893,0.680004475 3.55328815,1.73907698 2.68225098,2.61031397 C1.8112138,3.48155098 0.751941475,3.8342421 0.316322975,3.39882342 C-0.119295525,2.96320492 0.23379525,1.90413242 1.10483242,1.03289542 C1.9758696,0.161658425 3.03514192,-0.191232525 3.47076043,0.244385975 L3.47096025,0.244385975 Z" fill="#D0D0D0"></path>
                            <path d="M2.9454205,0.7697259 C3.381039,1.2053444 3.26314225,2.02922287 2.6824508,2.60991433 C2.10175935,3.19060578 1.27768105,3.3083027 0.842262375,2.8726842 C0.406643875,2.4370657 0.524540625,1.61338705 1.10523207,1.0326956 C1.68592353,0.45200415 2.509802,0.334307225 2.9454205,0.7697259 L2.9454205,0.7697259 Z" fill="#808080"></path>
                            <path d="M0.75413955,2.08397493 L0.929386075,1.9087284 L1.63037217,2.25922145 L1.27987912,1.55823535 L1.45512565,1.38298883 L2.15611175,2.78496103 L0.75413955,2.08397493 L0.75413955,2.08397493 Z M1.80581853,1.03249578 L1.98106505,0.85724925 L3.03274403,1.9087284 L2.8574975,2.08397493 L1.80581853,1.03249578 Z" fill="#D0D0D0"></path>
                        </g>
                        <g transform="translate(16.385650, 7.393525)" id="Shape">
                            <path d="M3.4585711,3.39882342 C3.0229526,3.83444193 1.96368027,3.48115133 1.0926431,2.61011415 C0.221605925,1.73907697 -0.131684675,0.67980465 0.303933825,0.24418615 C0.739552325,-0.191232525 1.79862482,0.16185825 2.66986182,1.03289542 C3.54109883,1.9039326 3.89398977,2.96320492 3.4585711,3.39882342 L3.4585711,3.39882342 Z" fill="#D0D0D0"></path>
                            <path d="M2.93303135,2.8734835 C2.49741285,3.30890218 1.67353438,3.19120525 1.09284293,2.6105138 C0.512151475,2.02982235 0.39445455,1.20574405 0.83007305,0.770325375 C1.26569155,0.334706875 2.0893702,0.452603625 2.67026148,1.03329508 C3.25115275,1.61398653 3.36864985,2.437865 2.93303135,2.87328367 L2.93303135,2.8734835 Z" fill="#808080"></path>
                            <path d="M1.61878232,0.68220255 L1.79402885,0.857449075 L1.4435358,1.55843517 L2.1445219,1.20794212 L2.31976843,1.38318865 L0.917796225,2.08417475 L1.61878233,0.68220255 L1.61878232,0.68220255 Z M2.67026148,1.73388152 L2.845508,1.90912805 L1.79402885,2.9606072 L1.61878233,2.78536067 L2.67026148,1.73388152 Z" fill="#D0D0D0"></path>
                        </g>
                        <g transform="translate(16.385650, 16.385650)" id="Shape">
                            <path d="M0.303734,3.38643427 C-0.131684675,2.95081577 0.2214061,1.89174328 1.09244327,1.02050627 C1.96348045,0.149269275 3.02275277,-0.20342185 3.45837127,0.231996825 C3.89398977,0.667615325 3.540899,1.72668782 2.66986182,2.59792483 C1.79882465,3.46916183 0.739552325,3.82205278 0.303933825,3.38643427 L0.303734,3.38643427 Z" fill="#D0D0D0"></path>
                            <path d="M0.82927375,2.86109435 C0.39365525,2.42547585 0.511552,1.60159738 1.09224345,1.02090593 C1.6729349,0.440214475 2.4970132,0.32251755 2.93243188,0.75813605 C3.36805038,1.19375455 3.25015363,2.0174332 2.66946218,2.59812465 C2.08877073,3.1788161 1.26489225,3.29651303 0.82927375,2.86109435 L0.82927375,2.86109435 Z" fill="#808080"></path>
                            <path d="M3.0205547,1.54684533 L2.84530818,1.72209185 L2.14432207,1.3715988 L2.49481512,2.0725849 L2.3195686,2.24783143 L1.6185825,0.845859225 L3.0205547,1.54684533 L3.0205547,1.54684533 Z M1.96887573,2.59832447 L1.7936292,2.773571 L0.741950225,1.72209185 L0.91719675,1.54684532 L1.96887573,2.59832447 Z" fill="#D0D0D0"></path>
                        </g>
                        <g transform="translate(7.393525, 16.385650)" id="Shape">
                            <path d="M0.316722625,0.231197525 C0.752341125,-0.204420975 1.81161345,0.148869625 2.68265062,1.0199068 C3.5536878,1.89094398 3.9069784,2.9502163 3.4713599,3.3858348 C3.0357414,3.82125348 1.9766689,3.4681627 1.1054319,2.59712553 C0.2341949,1.72608835 -0.11869605,0.666816025 0.316722625,0.231197525 L0.316722625,0.231197525 Z" fill="#D0D0D0"></path>
                            <path d="M0.842262375,0.756737275 C1.27788088,0.321118775 2.10175935,0.439015525 2.6824508,1.01950715 C3.26314225,1.59999877 3.38083918,2.4242769 2.94522068,2.85969557 C2.50960218,3.29531407 1.68592353,3.17741732 1.10503225,2.59672587 C0.524140975,2.01603442 0.406643875,1.19215595 0.842262375,0.756737275 L0.842262375,0.756737275 Z" fill="#808080"></path>
                            <path d="M2.1565114,2.9478184 L1.98126488,2.77257187 L2.33175793,2.07158577 L1.63077183,2.42207882 L1.4555253,2.2468323 L2.8574975,1.5458462 L2.1565114,2.9478184 L2.1565114,2.9478184 Z M1.10503225,1.89613942 L0.929785725,1.7208929 L1.98126488,0.66941375 L2.1565114,0.844660275 L1.10503225,1.89613942 Z" fill="#D0D0D0"></path>
                        </g>
                        <path d="M18.9821648,13.7049851 C18.9821648,16.5793643 16.6519007,18.9095036 13.7773139,18.9095036 C10.9027271,18.9095036 8.57246302,16.5793643 8.57246302,13.7049851 C8.57246302,10.8306058 10.9027271,8.50046654 13.7773139,8.50046654 C16.6519007,8.50046654 18.9821648,10.8306058 18.9821648,13.7049851 L18.9821648,13.7049851 Z" id="Shape" stroke="#707070" stroke-width="0.1"></path>
                        <path d="M17.7426706,13.7049323 C17.7426706,15.8949395 15.9672507,17.6702869 13.7771134,17.6702869 C11.586976,17.6702869 9.81155617,15.8949395 9.81155617,13.7049323 C9.81155617,11.5149252 11.586976,9.73957782 13.7771134,9.73957782 C15.9672507,9.73957782 17.7426706,11.5149252 17.7426706,13.7049323 L17.7426706,13.7049323 Z" id="Shape" stroke="#707070" stroke-width="0.1"></path>
                        <path d="M12.0424536,17.9177083 C12.0424536,18.0546102 11.9314727,18.1655912 11.7945707,18.1655912 C11.6576688,18.1655912 11.5466878,18.0546102 11.5466878,17.9177083 C11.5466878,17.7808615 11.657624,17.6699253 11.7944708,17.6699253 C11.9313176,17.6699253 12.0422538,17.7808615 12.0422538,17.9177083 L12.0424536,17.9177083 Z M16.0079808,17.9177083 C16.0079808,18.054555 15.8970445,18.1654913 15.7601978,18.1654913 C15.623351,18.1654913 15.5124148,18.054555 15.5124148,17.9177083 C15.5124148,17.7808615 15.623351,17.6699253 15.7601978,17.6699253 C15.8970445,17.6699253 16.0079808,17.7808615 16.0079808,17.9177083 L16.0079808,17.9177083 Z M13.612079,17.9183077 L13.612079,18.1766815 L13.2815685,18.1766815 C12.9510579,18.1766815 12.9510579,18.4350552 13.2815685,18.4350552 L13.612079,18.4350552 L13.612079,18.6936287 C13.613278,18.9613942 13.9004265,18.9937659 13.9216079,18.7144105 L13.9425896,18.4350552 L14.2731001,18.4350552 C14.6034108,18.4350552 14.6034108,18.1766815 14.2731001,18.1766815 L13.9425896,18.1766815 L13.9425896,17.9183077 C13.9425896,17.659934 13.612079,17.659934 13.612079,17.9183077 L13.612079,17.9183077 Z" id="Shape" fill="#D0D0D0"></path>
                        <path d="M12.5430153,14.2575137 L12.5430153,14.4039855 C12.5430153,14.4039855 12.4652833,14.5160873 11.9699172,14.5504572 C11.4743512,14.5848271 11.3968191,14.5504572 11.3968191,14.5504572 C11.4098077,14.6783452 11.5061233,14.9205331 11.4787473,15.2098797 C11.4979305,15.5465848 11.3838304,15.8513179 11.3838304,15.8513179 C11.3968191,15.8691024 11.3372712,15.8778947 11.2331624,15.8691024 C11.3150906,15.7957666 11.305499,15.5837523 11.3150906,15.2830156 C11.3244824,14.9820792 11.0023645,14.5292757 11.0693059,14.4039855 C11.1362473,14.2786952 12.5430153,14.2575137 12.5430153,14.2575137 L12.5430153,14.2575137 Z M14.5092933,13.7259792 C14.9912712,13.7037987 15.7999629,13.7085945 15.7999629,13.7085945 C15.7999629,13.7085945 15.990596,14.0910595 15.9828028,14.3022745 C15.9748098,14.5136894 15.9092672,14.6935319 15.8191461,14.6036106 C15.7292249,14.5136894 15.8609096,14.5304747 15.8770954,14.3022745 C15.8930814,14.0740744 15.7230303,13.8376814 15.7230303,13.8376814 C15.7230303,13.8376814 15.3773331,13.9885493 14.8573884,13.9581759 C14.3374438,13.9276027 14.5676422,13.7349714 14.5092933,13.7259792 L14.5092933,13.7259792 Z" id="Shape" stroke="#707070" stroke-width="0.1" fill="#D0D0D0"></path>
                        <path d="M14.6731498,14.1036485 C15.1551277,14.0814679 15.4714506,14.1552034 15.4714506,14.1552034 C15.4714506,14.1552034 15.6620837,14.5378682 15.6542905,14.7490833 C15.6462975,14.9602983 15.5807549,15.1401408 15.4906338,15.0502195 C15.4007126,14.9602983 15.5325971,14.9772834 15.5485831,14.7490833 C15.5645691,14.5208831 15.394518,14.2842903 15.394518,14.2842903 C15.394518,14.2842903 15.0488208,14.435358 14.5288761,14.4047848 C14.0089315,14.3744114 14.1572016,14.3432387 14.0988527,14.3342466 C14.0407036,14.3252544 14.0265161,14.4781206 13.2400049,14.4995018 C12.4532938,14.5208831 12.0522451,14.3342466 12.0522451,14.3342466 C12.0522451,14.3342466 11.9743133,14.4463484 11.479147,14.4807183 C10.983581,14.5150882 10.9060489,14.4807183 10.9060489,14.4807183 C10.9188377,14.6086063 11.0153531,14.8507942 10.9879771,15.1401408 C11.0071603,15.4768459 10.8930602,15.781579 10.8930602,15.781579 C10.9060489,15.7993635 10.846501,15.8081558 10.7421924,15.7993635 C10.8241206,15.7260277 10.8147288,15.5140134 10.8241206,15.2132767 C10.8335124,14.9123403 10.5115943,14.4595368 10.5783359,14.3342466 C10.6454771,14.2089563 11.0019649,14.3262536 11.0699054,14.2611106 C11.1372464,14.1959677 10.7521836,13.7373693 10.8241206,13.3087447 C10.8960576,12.88012 11.3044999,13.0010142 11.8066601,13.0158012 C12.3086205,13.0305883 13.4208465,13.1604745 13.6896111,13.0158012 C13.9583757,12.8709281 13.8420776,12.3349974 14.0990525,11.9902993 C14.2627092,11.7704918 14.5082941,11.6973559 14.7538791,11.6973559 C14.9177356,11.6973559 15.1633205,12.2832428 15.1633205,12.4297145 L15.0813922,12.5030503 L14.999464,12.5030503 L14.999464,12.5761862 C14.8126276,12.5949698 14.7866504,12.4163262 14.6719508,12.2832428 C14.6227939,12.489662 14.8358073,13.1624728 14.8358073,13.6016881 C14.8358073,13.9679673 14.6827414,14.1294259 14.6731498,14.1036485 L14.6731498,14.1036485 Z" id="Shape" stroke="#707070" stroke-width="0.1" fill="#D0D0D0"></path>
                        <path d="M13.0965305,13.468205 C13.1033246,13.6140772 12.4638846,13.9415904 12.4117302,14.071077 C12.3597757,14.2007634 12.5743878,14.2725006 12.5078461,14.3464359 C12.4415042,14.4203711 12.3869519,14.3929951 12.3733638,14.406783 C12.3597757,14.4203711 12.1327745,13.8990277 12.1327745,13.8990277 C12.1327745,13.8990277 12.7326492,13.6284646 12.7098691,13.5117668 C12.6870891,13.3948692 12.2670569,13.3239313 12.190524,13.0297889 C12.113991,12.7356465 12.1565537,12.1675441 12.0944081,12.0486482 C12.0322626,11.9299521 11.2961073,11.8166514 11.295308,11.6370087 C11.2947085,11.4571662 12.0520452,10.9641979 12.1339735,10.891062 C12.2159017,10.8177262 12.29783,10.9641979 12.2159017,11.0375337 C12.1339735,11.1106696 11.5410927,11.5636729 11.5410927,11.6370087 C11.5410927,11.7101446 12.0322626,11.7834804 12.1959192,11.7834804 C12.3597757,11.7834804 12.441704,11.7101446 12.441704,11.6370087 C12.4425033,11.5736642 12.2778475,11.5636729 12.2778475,11.4172012 C12.2778475,11.2707295 12.3597757,11.1973937 12.5234324,11.1973937 C12.6053607,11.1973937 12.7626229,11.2913114 12.7690173,11.4172012 C12.7754117,11.5430909 12.6233449,11.5538815 12.6051608,11.6370087 C12.5871766,11.7201359 12.7690173,11.7834804 12.9328738,11.7834804 C13.0965305,11.7834804 13.655441,12.2095073 13.7373693,12.2828431 C13.8192975,12.355979 13.9012258,12.355979 13.8192975,12.4293148 C13.7373693,12.5024508 13.7853273,12.5891748 13.703399,12.5160389 C13.6338599,12.4453008 13.6214708,12.3695671 13.6214708,12.3695671 C13.6144769,12.3028256 13.0146023,12.0032879 12.932674,12.0764239 C12.8507458,12.1497596 12.932674,13.0287898 12.932674,13.1019258 C12.932674,13.2483975 13.1033246,13.247798 13.0965305,13.468205 L13.0965305,13.468205 Z" id="Shape" stroke="#707070" stroke-width="0.1" fill="#D0D0D0"></path>
                        <polygon id="Shape" fill="#A7A7A7" points="12.053444 11.7696925 13.0359835 11.7696925 13.0359835 12.7951944 12.053444 12.7951944"></polygon>
                        <rect id="Rectangle-path" fill="#808080" transform="translate(13.551020, 13.021474) rotate(56.329002) translate(-13.551020, -13.021474) " x="10.4890193" y="12.971474" width="6.12400098" height="0.5" rx="0.25"></rect>
                        <path id="Shape" stroke="#707070" stroke-width="0.7993" fill="#D0D0D0"></path>
                        <path id="Shape" fill="#808080"></path>
                        <polygon id="Shape" fill="#A7A7A7" points="12.1353723 12.7947947 12.9540553 12.7947947 12.9540553 13.2947947 12.1353723 13.2947947"></polygon>
                        <path d="M14.7966416,12.072827 C14.7173111,12.2214968 14.6419771,12.3276039 14.6285888,12.3098195 C14.6150007,12.292035 14.668354,12.1571532 14.7476845,12.0084834 C14.827015,11.8598136 14.902349,11.7537065 14.9159371,11.7714909 C14.9295252,11.7892753 14.8759721,11.9241572 14.7966416,12.072827 L14.7966416,12.072827 Z M15.0034605,12.45769 C14.9131396,12.5370205 14.8376057,12.5883755 14.8352078,12.5723895 C14.8326101,12.5564035 14.9039476,12.4792711 14.9942685,12.3999405 C15.0847893,12.32061 15.1601233,12.269255 15.1625212,12.285241 C15.1651189,12.301227 15.0939812,12.3783594 15.0034605,12.45769 L15.0034605,12.45769 Z" id="Shape" fill="#808080"></path>
                        <path d="M14.8997513,12.2720525 C14.966293,12.3931465 15.0102545,12.4958565 14.9978654,12.501052 C14.9854762,12.5064473 14.9213324,12.4125295 14.8545909,12.2912357 C14.7878493,12.169942 14.7440876,12.0674317 14.7564768,12.0620365 C14.7688659,12.0566412 14.8330098,12.1507588 14.8997513,12.2718527 L14.8997513,12.2720525 Z M14.8358073,12.905298 C14.8358073,12.9252805 14.579232,12.9418659 14.2627092,12.9418659 C13.9461864,12.9418659 13.6898109,12.9254803 13.6898109,12.905298 C13.6898109,12.8849158 13.9463862,12.8685302 14.2627092,12.8685302 C14.579232,12.8685302 14.8358073,12.8849158 14.8358073,12.905298 L14.8358073,12.905298 Z M12.9534558,12.8317624 C12.9534558,12.8521445 12.7700165,12.8685302 12.5440144,12.8685302 C12.3180123,12.8685302 12.134573,12.8521445 12.134573,12.8317624 C12.134573,12.8117799 12.3180123,12.7951944 12.5440144,12.7951944 C12.7700165,12.7951944 12.9534558,12.81158 12.9534558,12.8317624 L12.9534558,12.8317624 Z" id="Shape" fill="#808080"></path>
                        <path d="M11.1528327,15.378532 C11.1528327,15.378532 11.2879144,15.7068445 11.8634104,15.7114404 C12.4391063,15.7158366 12.6371328,15.6129267 12.4043367,15.439079 C12.1715406,15.2652312 11.73832,15.319184 11.794271,15.4692525 C11.850222,15.6193211 11.6318133,15.6692774 11.5804582,15.5637698 C11.5291032,15.458462 11.3228838,15.1461355 11.693759,15.1251539 C12.0644344,15.1041723 12.8495468,14.9904718 13.045775,15.2082811 C13.2420031,15.4260903 12.8239692,15.6235174 13.1400924,15.6698768 C13.4562155,15.7158366 13.5011761,15.6169232 14.0449,15.5871493 C14.5888236,15.5571755 14.7964418,15.6880609 14.9828785,15.669677 C15.1691154,15.6516928 15.1427385,15.3311735 14.9952677,15.2500445 C14.8479966,15.1687157 14.5648446,15.1537289 14.4923081,15.0646069 C14.4197717,14.975485 14.2223446,15.0480214 14.2405286,14.9473096 C14.2591124,14.8467977 14.5206833,15.0166489 14.5236807,14.9652939 C14.5236807,14.9636953 14.5668429,14.9295252 14.5756352,14.9209327 C14.542664,14.9133394 14.5238805,14.9255287 14.4991022,14.9387172 C14.5260786,14.9171361 14.5242801,14.9073446 14.5332723,14.88976 C14.5286763,14.8831658 14.4961048,14.9145383 14.4907095,14.9081439 C14.4851144,14.9015497 14.5286763,14.8567889 14.5086938,14.8729747 C14.5020996,14.8777705 14.4503449,14.9033481 14.4497454,14.8857635 C14.4505447,14.8785698 14.4769216,14.8601859 14.4677297,14.8501947 C14.4601363,14.841802 14.4207708,14.8597863 14.4157752,14.8617845 C14.4383554,14.8318108 14.4367568,14.8322104 14.4149759,14.80983 C14.3961923,14.7876495 14.3824044,14.7880491 14.3516313,14.8132271 C14.3644201,14.7772586 14.3678172,14.7694654 14.3368443,14.7558773 C14.3114665,14.7418895 14.3102676,14.7289009 14.2786952,14.7936442 C14.2906847,14.7243049 14.2583131,14.7213076 14.2717013,14.6885363 C14.2796943,14.6585625 14.3220572,14.6457737 14.3915963,14.6525678 C14.526678,14.6535669 14.5990147,14.815625 14.643176,14.8150255 C14.6871375,14.8146258 14.7366941,14.6435756 14.9261282,14.7131147 C15.1155623,14.782454 15.1389418,14.7964418 15.2342584,14.8378055 C15.3295749,14.8789695 15.167317,14.9417145 15.2216694,15.0230433 C15.2762216,15.1043721 15.6480959,15.3755346 15.5423885,15.6584868 C15.4366811,15.9412392 15.1643196,15.9861998 15.139941,16.1084927 C15.1155623,16.2309854 16.001986,16.1808294 16.2279881,16.2219933 C16.4537903,16.2631573 16.5962656,16.4318096 16.6052577,16.4601847 C16.6144496,16.4885599 16.2090047,16.4867614 16.2090047,16.4867614 C16.2090047,16.4867614 16.0009869,16.3792556 15.5046216,16.3694642 C15.0084561,16.3596727 14.8194217,16.1596479 14.6337842,16.13447 C14.447947,16.109292 14.0520937,16.1764332 13.8308874,16.166442 C13.6094813,16.1566505 13.3852776,16.1216812 13.2420031,16.1022981 C13.0987286,16.0827153 12.3855532,16.4240164 12.3879511,16.5037466 C12.2392813,16.4979516 11.8893877,16.4789683 11.9037751,16.4885599 C11.9181625,16.4979516 11.9665201,16.3336955 12.2394811,16.3047209 C12.5122422,16.2759461 12.7778096,16.1452605 12.7690173,16.0593358 C12.760225,15.973411 12.8217711,15.678869 12.8445512,15.5525796 C12.8673312,15.4262902 12.9694418,15.3651437 12.9450632,15.2992015 C12.9206845,15.2330594 12.6089575,15.1649191 12.3098195,15.1667175 C12.0106815,15.1687157 11.678972,15.185501 11.6306143,15.257438 C11.5826563,15.3295749 11.6188246,15.5387916 11.6809702,15.5146128 C11.7431158,15.4906338 11.6659833,15.3537537 11.7313261,15.3255784 C11.7966689,15.2976029 11.9641222,15.2724249 12.1211847,15.2688281 C12.278447,15.2652312 12.5516077,15.4027108 12.5488102,15.4466723 C12.5460126,15.4906338 12.6367332,15.6369057 12.5112431,15.6924571 C12.3853533,15.7482082 12.1283784,15.7729865 11.882194,15.7603976 C11.6360096,15.7482082 11.3870276,15.6634824 11.2973062,15.6093299 C11.2077846,15.5549775 11.1528327,15.389922 11.1528327,15.378532 L11.1528327,15.378532 Z" id="Shape" stroke="#808080" stroke-width="0.1" fill="#D0D0D0"></path>
                        <path id="Shape" fill="#000000"></path>
                        <path d="M17.8863358,13.9417902 L18.2050566,14.01053 L18.7375903,13.6460492 L18.6964263,13.8374816 L18.4188694,14.0227194 C18.3673145,14.0566896 18.3161593,14.0878623 18.2656036,14.1160376 C18.297176,14.160199 18.3323452,14.2129528 18.3705117,14.2744989 L18.5423612,14.5522556 L18.5027959,14.7354951 L18.1710864,14.1679921 L17.8523655,14.0990525 L17.8863358,13.9417902 L17.8863358,13.9417902 Z M17.3428118,11.597843 L17.9594717,11.3138917 L17.7920184,10.9502102 L17.8745461,10.9120436 L18.2775931,11.7872771 L18.1950654,11.8252438 L18.0268127,11.4599637 L17.4101528,11.7439151 L17.3428118,11.597843 L17.3428118,11.597843 Z M16.3876483,10.4368597 L16.9553511,9.9169151 L17.0668534,10.0388083 L17.0522662,10.9176387 L17.497876,10.509596 L17.6021846,10.6232965 L17.0344818,11.1432411 L16.9229794,11.0213479 L16.9379663,10.1421179 L16.4917571,10.5505602 L16.3878481,10.4368597 L16.3876483,10.4368597 Z M13.9058218,9.43453755 L13.9989402,8.67040675 L14.1586004,8.68978977 L14.0764723,9.3637995 L14.6707519,9.43613615 L14.6597615,9.52645705 L13.9058218,9.43453755 L13.9058218,9.43453755 Z M12.684891,9.54404165 L12.5470118,8.7867049 L12.705473,8.7579301 L12.8269666,9.42574525 L13.4158509,9.31863905 L13.4322365,9.40816065 L12.684891,9.54404165 L12.684891,9.54404165 Z M10.4304654,10.6566672 L10.3739149,10.586129 L10.7755631,10.2638113 L10.9542067,10.486816 C10.918095,10.566195 10.872971,10.641156 10.8197245,10.7102203 C10.766571,10.7781608 10.7054246,10.8401066 10.6364849,10.8954581 C10.5433665,10.9699928 10.4484496,11.0253444 10.3519341,11.0613129 C10.2556185,11.0966819 10.1688944,11.1060737 10.091762,11.0892884 C10.0180623,11.0746498 9.95193562,11.034365 9.90512543,10.9755879 C9.85791415,10.9158899 9.83209164,10.8420811 9.83178965,10.7659715 C9.82999123,10.6840433 9.85556883,10.6017154 9.90832263,10.5191876 C9.96107643,10.4364601 10.034612,10.3573294 10.1293291,10.2815957 C10.1912746,10.2308507 10.2593482,10.1880865 10.3319516,10.1543072 C10.398893,10.123734 10.458241,10.1083474 10.5097959,10.1081476 C10.5613507,10.1081476 10.6117066,10.1217357 10.6604639,10.1491117 L10.5629493,10.2594151 C10.5286666,10.2413668 10.4907638,10.2312594 10.4520465,10.229841 C10.4168773,10.2292416 10.3755135,10.2394326 10.3279551,10.2604143 C10.2763555,10.2835133 10.2280438,10.313347 10.184281,10.3491366 C10.1269312,10.3950963 10.0819706,10.4404566 10.0489994,10.4852174 C10.0158285,10.5295785 9.99344808,10.5711421 9.98205805,10.610108 C9.97106768,10.6484744 9.96707118,10.6840433 9.97006855,10.7172142 C9.97566365,10.7737647 9.9960458,10.8237209 10.0308154,10.867083 C10.0735779,10.9206361 10.1239338,10.9540068 10.1816832,10.9669955 C10.2400321,10.9793846 10.3039761,10.9721909 10.3735152,10.9450147 C10.4432542,10.9180383 10.5093962,10.8792723 10.5719415,10.8291162 C10.6262939,10.7857542 10.6742519,10.7365972 10.7154158,10.6822448 C10.7565798,10.627293 10.7843554,10.581533 10.7993423,10.5451649 L10.7094211,10.4332629 L10.4304654,10.6566672 L10.4304654,10.6566672 Z M10.4044881,16.1918197 L9.77683778,16.6374295 L9.30185375,15.968815 L9.37598883,15.9162611 L9.75765458,16.4537903 L9.9520843,16.3159111 L9.62177358,15.8505186 L9.69570883,15.7979647 L10.0262194,16.2631573 L10.3113697,16.0607345 L10.4044881,16.1918197 L10.4044881,16.1918197 Z M9.47989783,15.1906965 C9.5692196,15.1655185 9.62896728,15.1079689 9.65914085,15.017648 C9.68891478,14.9271273 9.68771583,14.8248169 9.65514435,14.7103172 C9.62237305,14.5938192 9.56941943,14.5054966 9.4964833,14.4449496 C9.42314753,14.3842028 9.3390212,14.3670178 9.24350485,14.3939942 C9.18675882,14.4087038 9.13629038,14.4413681 9.09963085,14.4871127 C9.06366235,14.5318735 9.04188143,14.5888236 9.03488755,14.657963 C9.02749403,14.7269027 9.0344879,14.7998388 9.05626883,14.8769712 C9.0872417,14.9864753 9.13779743,15.0741985 9.20813583,15.1399409 C9.27767493,15.2052837 9.36839548,15.2222688 9.47989783,15.1906965 L9.47989783,15.1906965 Z M9.52345968,15.3505565 C9.4005673,15.385326 9.28966443,15.3605477 9.19075105,15.2756221 C9.09163785,15.1910961 9.01870173,15.0664053 8.9721425,14.9015497 C8.9417691,14.7936442 8.93037908,14.6915336 8.93877173,14.5956176 C8.94716438,14.4997016 8.97394093,14.4207708 9.01970085,14.3590248 C9.06337293,14.2980389 9.12675603,14.2539954 9.1991437,14.234334 C9.27407808,14.2131526 9.34821315,14.2181482 9.42094945,14.2491211 C9.49368575,14.2802938 9.5580294,14.3354455 9.61338093,14.4145762 C9.66853263,14.4939067 9.71029605,14.5842276 9.73907085,14.6857387 C9.77024355,14.7960421 9.7810341,14.8991518 9.77184215,14.9954675 C9.7626502,15.0915833 9.73527418,15.1703143 9.68951425,15.2314608 C9.64375433,15.2926072 9.5884028,15.3323724 9.5236595,15.3507563 L9.52345968,15.3505565 Z M9.58780333,13.787925 L8.81807743,13.7705402 L8.83026675,13.2316122 C8.83286448,13.123307 8.84165678,13.041179 8.8570433,12.9850281 C8.87183035,12.9290771 8.8970083,12.8845162 8.9329768,12.851545 C8.96402574,12.8205436 9.00619911,12.8032712 9.05007425,12.803587 C9.10462648,12.804786 9.14998675,12.8337606 9.1863549,12.8905109 C9.2223234,12.9472612 9.24430415,13.0339853 9.2518975,13.1506831 C9.26588525,13.1087198 9.27927353,13.076548 9.29246198,13.0547671 C9.3206373,13.0084077 9.3558065,12.9644462 9.39776975,12.923482 L9.61198215,12.716863 L9.60738618,12.9190859 L9.44352968,13.0763482 C9.39637098,13.1223079 9.36020265,13.1602747 9.3350247,13.1900486 C9.30984675,13.2198225 9.29206233,13.2467989 9.28167143,13.2707779 C9.27128053,13.2943572 9.26408683,13.3187359 9.25969068,13.3433144 C9.2566933,13.3616983 9.25489488,13.3912724 9.25389575,13.4326361 L9.24969943,13.6192727 L9.59140018,13.6272657 L9.58780333,13.787925 L9.58780333,13.787925 Z M9.16137678,13.6174743 L9.16936978,13.2715772 C9.17205746,13.2138218 9.16857411,13.1559445 9.15897888,13.0989284 C9.15018658,13.057165 9.13539953,13.0253928 9.11501738,13.003412 C9.09782342,12.9830243 9.07291717,12.970716 9.04627758,12.9694418 C9.00990943,12.9686425 8.97953603,12.9890246 8.95515738,13.0305882 C8.93077873,13.0713525 8.91759028,13.1366953 8.91559203,13.2268164 L8.90679973,13.6116793 L9.16137678,13.6174743 L9.16137678,13.6174743 Z M11.3001038,10.23104 L11.3052992,9.33082837 L11.4541688,9.24170642 L12.2764487,9.6467517 L12.1191864,9.74066945 L11.8777978,9.61358075 L11.4415799,9.87475202 L11.4467753,10.1433168 L11.3001038,10.23104 L11.3001038,10.23104 Z M11.4387823,9.77963532 L11.7924726,9.56802065 L11.5740638,9.4501239 C11.5204547,9.42216094 11.4684219,9.39127477 11.4182003,9.35760492 C11.4301898,9.407761 11.4365842,9.46111427 11.4373835,9.51746492 L11.4387823,9.77963532 L11.4387823,9.77963532 Z M15.1567263,9.53844655 L15.9873988,9.1911507 L16.1272763,9.29306145 L16.0763209,10.2082599 L15.9282506,10.1003544 L15.9508308,9.82859245 L15.5399906,9.5292546 L15.2948053,9.63915835 L15.1567263,9.53844655 L15.1567263,9.53844655 Z M15.626315,9.48948942 L15.9594233,9.7322768 L15.9824032,9.48509327 C15.9872957,9.42475168 15.9954337,9.36471728 16.0067818,9.30525077 C15.963358,9.33703403 15.9165871,9.36397085 15.867304,9.38558042 L15.6265148,9.48948942 L15.626315,9.48948942 Z M17.6845125,12.3551797 L18.4332568,12.1759367 L18.5587469,12.7002775 C18.5839248,12.8055853 18.596314,12.8873137 18.5957145,12.9454628 C18.5957145,13.003412 18.5823262,13.0529686 18.5561492,13.0939328 C18.5340027,13.1318287 18.4975782,13.1592551 18.4550377,13.1700661 C18.4020841,13.1828549 18.3507291,13.1662694 18.3011725,13.1207093 C18.2518157,13.0751492 18.2086535,12.9968178 18.1716859,12.8857151 C18.1704321,12.9205784 18.1654753,12.9552095 18.1568988,12.9890246 C18.1413125,13.0409791 18.1185324,13.0923342 18.0883588,13.1426901 L17.9338941,13.3970673 L17.8867354,13.2004395 L18.0050318,13.0066092 C18.0390021,12.9502586 18.0643798,12.9042988 18.081365,12.8691296 C18.0979504,12.8337606 18.1083413,12.8031874 18.112138,12.7772101 C18.1161345,12.7518324 18.1171336,12.7266544 18.1151354,12.7014765 C18.1111156,12.6718456 18.1053101,12.6424845 18.0977506,12.6135535 L18.0543886,12.4321124 L17.7218798,12.5116427 L17.6845125,12.3551797 L17.6845125,12.3551797 Z M18.1401135,12.4115304 L18.220643,12.7478359 C18.2378279,12.8193732 18.2558122,12.8741253 18.2745957,12.9122918 C18.2937789,12.9502586 18.3161593,12.9774348 18.3415371,12.9934208 C18.3675144,13.0094068 18.3922927,13.0146022 18.4164715,13.0088073 C18.4518405,13.0002148 18.4760193,12.9728388 18.4892078,12.9266792 C18.5023962,12.8807195 18.4983997,12.8141778 18.4774181,12.7264546 L18.3878965,12.3523822 L18.1401135,12.4115304 L18.1401135,12.4115304 Z" id="Shape" fill="#D0D0D0"></path>
                    </g>
                </g>
            </g>
        </g>
    </g>
</svg>