<?xml version="1.0" encoding="UTF-8" standalone="no"?>
<svg width="122px" height="60px" viewBox="0 0 122 60" version="1.1" xmlns="http://www.w3.org/2000/svg" xmlns:xlink="http://www.w3.org/1999/xlink">
    <!-- Generator: Sketch 3.8.2 (29753) - http://www.bohemiancoding.com/sketch -->
    <title>pg</title>
    <desc>Created with Sketch.</desc>
    <defs></defs>
    <g id="Page-1" stroke="none" stroke-width="1" fill="none" fill-rule="evenodd">
        <g id="pg">
            <g id="Group">
                <g>
                    <g id="Shape">
                        <polygon fill="#000000" points="0 0 0 60 21 60 100.831933 60 21.0618711 0"></polygon>
                        <polygon fill="#FF0000" points="121.999996 60 121.999996 0 100.851809 0 21.0200005 0 100.790063 60"></polygon>
                    </g>
                    <path d="M70.3079526,15.0242944 L69.2446207,14.9691109 C68.9178676,14.2020597 67.9949288,13.9142776 67.4272646,14.2371013 C66.9122132,14.2812481 64.215116,14.1965414 64.215116,14.1965414 L66.1867107,15.0574045 C66.6740711,16.3707726 68.3687564,16.6798004 68.3687564,16.6798004 C68.2183946,19.1007021 65.9095244,16.3671857 63.9711589,17.7467741 C62.5866121,18.5745271 62.5702745,19.5631401 61.8220654,21.1601516 C61.5894615,21.604379 60.6147406,22.7497133 60.6147406,22.7497133 L62.2429676,22.6117544 L61.722378,23.3015486 L63.6607435,23.0256309 C63.6607435,23.0256309 63.4004487,23.2422263 63.2453795,23.4063973 C63.5325345,23.4624086 65.4606543,22.9566515 65.4606543,22.9566515 L65.3221997,23.5774663 C66.3107661,23.182904 67.5374745,22.7828234 67.5374745,22.7828234 C67.5374745,22.7828234 67.9722222,23.1442755 68.3682026,23.3015486 L68.6451119,22.1978779 L69.7527493,22.4737956 L70.0296587,21.3701249 C71.6911148,23.5774663 72.2449335,25.7848077 75.2909365,26.336643 L75.0140271,25.2329723 C75.8613697,25.5944245 77.4342149,26.3614756 77.4342149,26.3614756 L77.6723569,25.8565463 C78.9932145,26.8001847 80.0897756,26.7836296 80.8291236,26.8884783 C80.8291236,26.8884783 80.2780739,25.5144083 80.2753049,25.50889 C80.3113031,25.5226859 80.8263545,25.7875668 80.8291236,25.7848077 L79.9983955,23.5774663 L80.8291236,23.853384 L79.7214861,22.1978779 L80.1368502,21.9219603 L79.9983955,21.0942072 C81.6598516,21.6460426 83.8751265,22.4737956 84.1520358,24.4052193 C84.4289452,27.4403137 81.1060329,28.2680667 78.8907581,27.992149 C80.5522142,29.3717374 83.5982171,28.819902 84.9827639,27.4403137 C85.5365826,26.8884783 85.813492,26.0607253 86.0904013,25.2329723 C86.3673107,26.0607253 86.9211294,27.164396 86.9211294,28.2680667 C86.64422,30.7513257 83.3213078,31.5790788 81.1060329,31.8549964 C83.5982171,33.2345848 88.0287668,31.5790788 88.3056762,27.992149 C88.3056762,24.9570546 86.3673107,23.5774663 85.5365826,22.1978779 C85.4119734,21.6957078 85.2596732,20.7134409 85.2596732,20.7134409 C85.3671141,20.7451714 86.0904013,21.0969664 86.0904013,21.0969664 C86.0904013,21.0969664 85.6002718,20.1836789 85.5365826,19.9905366 C85.5365826,19.9905366 84.6726254,17.6452363 84.3597178,17.1265111 C84.411223,17.0975398 84.9827639,17.2230823 84.9827639,17.2230823 L82.7148763,14.3894078 C82.7148763,14.3894078 83.2620492,14.3397426 83.357306,14.3231876 C83.357306,14.3231876 80.7211289,12.2510459 79.9983955,11.9889241 L80.8291236,11.7130064 C79.1676674,10.8852534 77.2293019,11.4370887 75.5678458,12.5407594 L75.8447552,11.7130064 L75.338011,11.7599124 L75.338011,10.8135148 L75.8447552,10.0575004 L75.0140271,9.78158271 L75.5678458,8.40199435 L74.7371177,8.67791202 L75.0140271,7.29832367 C75.0140271,7.29832367 74.3937501,7.58527804 74.0171534,7.54389039 C74.0309989,7.57424134 74.4574393,6.60025196 74.4574393,6.60025196 C74.1943754,6.18913463 74.4602084,5.36689997 74.4602084,5.36689997 C72.5218429,5.64281764 72.2449335,5.91873531 71.1372961,7.57424134 C69.47584,10.6093357 70.0296587,11.9889241 70.3065681,15.0240185 L70.3079526,15.0242944 Z" id="Shape" stroke="#FFCC00" stroke-width="0.1" fill="#FFCC00"></path>
                    <path d="M80.769588,19.5598291 C80.9138578,19.7971183 82.4855953,20.5514772 83.6682752,21.2197498 C83.3509371,19.9477693 81.0434514,19.6677129 80.769588,19.5598291 L80.769588,19.5598291 Z" id="Shape" stroke="#FF0000" stroke-width="0.146999955" fill="#FF0000"></path>
                    <path d="M42.6985447,49.9002911 L40.9372141,48.7801247 L38.5733888,49.9085239 L39.0975468,47.8943451 L37.2904366,46.0015385 L39.375842,45.8746778 L40.6227443,43.5789605 L41.387027,45.5159252 L43.9650312,45.987817 L42.3522661,47.312183 L42.6985447,49.9002911 Z M47.2183784,40.0528067 L46.4013306,39.6637422 L45.6159667,40.1134304 L45.7355925,39.2167983 L45.0634927,38.6125572 L45.9543867,38.4496466 L46.3242412,37.6247401 L46.7554678,38.4193347 L47.6562162,38.5158836 L47.0317672,39.169896 L47.2183784,40.0528067 Z M51.2012058,34.4046985 L49.4095634,33.5327651 L47.6728067,34.509605 L47.9499792,32.5423285 L46.4799168,31.1986279 L48.4440748,30.8537214 L49.2711019,29.0464865 L50.209896,30.8012058 L52.1897713,31.0274844 L50.8051559,32.4567568 L51.2012058,34.4046985 Z M43.0049064,26.5410811 L40.8943035,25.4874012 L38.8269854,26.6221622 L39.1806237,24.2967568 L37.4582121,22.6882328 L39.7872349,22.304657 L40.7905198,20.175343 L41.8762578,22.2641164 L44.2183784,22.5568815 L42.5605821,24.2311435 L43.0049064,26.5410811 Z M35.4205821,34.7081913 L33.2922661,33.4499376 L31.1696881,34.7357588 L31.7138046,32.3297713 L29.8289813,30.7183784 L32.2937214,30.4893555 L33.2512266,28.2047401 L34.2304366,30.4700208 L36.707027,30.6714761 L34.8476507,32.2993347 L35.4205821,34.7081913 Z" id="Shape" fill="#FFFFFF"></path>
                </g>
            </g>
        </g>
    </g>
</svg>