<?xml version="1.0" encoding="UTF-8" standalone="no"?>
<svg width="122px" height="60px" viewBox="0 0 122 60" version="1.1" xmlns="http://www.w3.org/2000/svg" xmlns:xlink="http://www.w3.org/1999/xlink">
    <!-- Generator: Sketch 3.8.2 (29753) - http://www.bohemiancoding.com/sketch -->
    <title>my</title>
    <desc>Created with Sketch.</desc>
    <defs></defs>
    <g id="Page-1" stroke="none" stroke-width="1" fill="none" fill-rule="evenodd">
        <g id="my">
            <g id="Group">
                <g>
                    <polygon id="Shape" fill="#CC0001" points="0 -1.41484335e-15 122 -1.41484335e-15 122 60 0 60"></polygon>
                    <polygon id="a" fill="#FFFFFF" points="0 55.6129046 122 55.6129046 122 59.8817427 0 59.8817427"></polygon>
                    <g id="a-link" transform="translate(0.000000, 46.980996)" fill="#FFFFFF">
                        <polygon id="a" points="0 0.0942323651 122 0.0942323651 122 4.36307054 0 4.36307054"></polygon>
                    </g>
                    <g id="a-link" transform="translate(0.000000, 38.443568)" fill="#FFFFFF">
                        <polygon id="a" points="0 0.0942323651 122 0.0942323651 122 4.36307054 0 4.36307054"></polygon>
                    </g>
                    <g id="a-link" transform="translate(0.000000, 29.905768)" fill="#FFFFFF">
                        <polygon id="a" points="0 0.0942323651 122 0.0942323651 122 4.36307054 0 4.36307054"></polygon>
                    </g>
                    <g id="a-link" transform="translate(0.000000, 21.368091)" fill="#FFFFFF">
                        <polygon id="a" points="0 0.0942323651 122 0.0942323651 122 4.36307054 0 4.36307054"></polygon>
                    </g>
                    <g id="a-link" transform="translate(0.000000, 12.830290)" fill="#FFFFFF">
                        <polygon id="a" points="0 0.0942323651 122 0.0942323651 122 4.36307054 0 4.36307054"></polygon>
                    </g>
                    <g id="a-link" transform="translate(0.000000, 4.292863)" fill="#FFFFFF">
                        <polygon id="a" points="0 0.0942323651 122 0.0942323651 122 4.36307054 0 4.36307054"></polygon>
                    </g>
                    <polygon id="Shape" fill="#010066" points="0 0.118257261 59.7634855 0.118257261 59.7634855 34.2688382 0 34.2688382"></polygon>
                    <path d="M24.5884232,4.38709544 C17.4959751,4.38709544 11.7392116,10.1244398 11.7392116,17.1934855 C11.7392116,24.2625311 17.4958506,30 24.5884232,30 C27.1508714,30 29.5382988,29.250249 31.543444,27.960249 C30.3448413,28.3737672 29.0856472,28.5844182 27.8177178,28.583527 C21.5289212,28.583527 16.4245643,23.496473 16.4245643,17.2283402 C16.4245643,10.9599585 21.5287967,5.87278008 27.8178423,5.87278008 C29.2079253,5.87278008 30.5392531,6.12099585 31.7709959,6.57572614 C29.7202905,5.19448133 27.2480913,4.3873444 24.5884232,4.3873444 L24.5884232,4.38709544 Z" id="Shape" fill="#FFCC00"></path>
                    <polygon id="Shape" fill="#FFCC00" points="45.8970124 23.860332 40.4845643 21.0363485 42.0847718 26.8160166 38.4647303 21.9809129 37.3353112 27.8653942 36.2245643 21.9776763 32.5890871 26.8013278 34.2075934 21.026639 28.7861826 23.8343154 32.813527 19.316639 26.6799585 19.5521577 32.3184647 17.1857676 26.6875519 14.8025726 32.8203734 15.0565145 28.8073444 10.526639 34.2197925 13.3506224 32.6194606 7.57120332 36.2393776 12.4058091 37.3689212 6.52157676 38.479668 12.4091701 42.1152697 7.58551867 40.496639 13.3602075 45.9180498 10.5525311 41.8907054 15.070332 48.0242739 14.8348133 42.3857676 17.2012033 48.016556 19.5843983 41.8838589 19.3304564"></polygon>
                </g>
            </g>
        </g>
    </g>
</svg>