<?xml version="1.0" encoding="UTF-8" standalone="no"?>
<svg width="122px" height="60px" viewBox="0 0 122 60" version="1.1" xmlns="http://www.w3.org/2000/svg" xmlns:xlink="http://www.w3.org/1999/xlink">
    <!-- Generator: Sketch 3.8.2 (29753) - http://www.bohemiancoding.com/sketch -->
    <title>al</title>
    <desc>Created with Sketch.</desc>
    <defs></defs>
    <g id="Page-1" stroke="none" stroke-width="1" fill="none" fill-rule="evenodd">
        <g id="al">
            <g id="Group">
                <g>
                    <polygon id="Shape" fill="#E41E20" points="0 0 122 0 122 60 0 60"></polygon>
                    <path d="M55.01125,11.6645 C54.427875,11.6545 53.459625,11.8505 53.48125,12.29825 C51.85625,12.01975 51.687,12.691 51.7825,13.28825 C51.937125,13.05125 52.125375,12.9225 52.27,12.89825 C52.48675,12.86225 52.7135,12.93225 52.945,13.0745 C53.176625,13.21675 53.43175,13.44625 53.545,13.58825 C52.9715,13.725375 52.528375,13.637 52.07875,13.55825 C51.857125,13.5195 51.547,13.39475 51.3625,13.26575 C51.178125,13.136625 51.12,13.01525 50.83,12.71825 C50.488125,12.36825 50.124125,12.466625 50.2375,13.01075 C50.49975,13.516 50.937875,13.741375 51.49,13.832 C51.75575,13.87575 52.1515,13.97025 52.6,13.97075 C53.04875,13.97125 53.55225,13.90575 53.82625,13.96325 C53.661625,14.066625 53.475375,14.24475 53.10625,14.31575 C52.731,14.387875 52.160375,14.0925 51.8125,14.012 C51.85675,14.3045 52.225875,14.57825 52.9525,14.72075 C54.14675,14.98075 55.139,15.17825 55.795,15.5345 C56.451,15.89075 56.864625,16.336375 57.16,16.68575 C57.747875,17.38075 57.77875,17.9145 57.81625,18.032 C57.93725,19.142625 57.55,19.7675 56.83,19.9595 C56.47,20.0555 55.83075,19.87475 55.59625,19.5995 C55.361875,19.3245 55.13375,18.851375 55.19875,18.11075 C55.262,17.820125 55.59425,17.06325 55.31125,16.907 C54.007875,16.186625 52.425,15.45825 51.28,15.0245 C50.967125,14.906 50.70925,15.331375 50.60875,15.497 C48.6635,15.260125 46.9095,13.94375 46.12,12.542 C45.5825,11.587375 44.69625,12.544 44.845,13.44575 C45.085625,14.45225 45.8525,15.18 46.7725,15.69575 C47.716875,16.21575 48.89725,16.727375 50.09125,16.70075 C50.734625,16.8225 50.72825,17.65475 49.95625,17.81075 C48.446625,17.820375 47.24225,17.782625 46.105,16.68575 C45.2425,15.89825 44.757,16.836625 45.00625,17.36825 C45.42875,19.00725 47.767,19.46625 50.1325,18.93575 C51.0485,18.784125 50.5,19.76575 50.24125,19.77575 C49.252875,20.4845 47.483375,21.177875 45.925,19.76825 C45.211875,19.22225 44.72975,19.68125 44.995,20.4695 C45.6865,22.52475 48.3315,22.09325 50.1475,21.08075 C50.615,20.82025 51.039125,21.426375 50.47,21.887 C48.211625,23.465 47.0825,23.483 46.06375,22.877 C44.7885,22.374 44.67625,23.788625 45.43375,24.25325 C46.27575,24.76975 48.41825,24.3825 49.99,23.3945 C50.66375,22.8935 50.694375,23.677 50.2675,23.987 C48.40225,25.599 47.667,26.0235 45.7225,25.76075 C44.758375,25.68575 44.77275,26.8745 45.53125,27.3395 C46.566875,27.9745 48.58925,26.920375 50.15875,25.61825 C50.819375,25.26525 50.927875,25.844125 50.60125,26.5295 C49.64225,27.7395 48.742125,28.452875 47.875,28.78325 C47.008,29.113625 46.174,29.061 45.58375,28.85825 C44.86375,28.61075 44.7735,29.359125 45.17125,30.0395 C45.41125,30.4495 46.405,30.581 47.4775,30.20075 C48.55025,29.820375 49.701875,28.92825 50.4925,27.88325 C51.1805,27.28075 51.095,28.09 50.78125,28.6595 C49.198,31.1625 47.75,32.091 45.8425,31.93325 C44.996875,31.7895 44.80475,32.44725 45.34375,33.0545 C46.29025,33.8395 47.47375,33.81475 48.50875,33.0395 C49.429,32.15225 51.189375,30.242 52.1125,29.21825 C52.763125,28.6995 52.970875,29.21075 52.78,30.2645 C52.6065,30.86775 52.171875,31.50325 50.9875,31.967 C50.1785,32.42875 50.786,33.065125 51.3925,33.077 C51.72625,33.08325 52.404,32.69325 52.9225,32.1095 C53.604625,31.341375 53.64525,30.82575 54.02125,29.63075 C54.376625,29.04825 55.01125,29.32 55.01125,29.93075 C54.706875,31.12775 54.445375,31.342375 53.83,31.832 C53.2415,32.3845 54.24,32.56875 54.57625,32.342 C55.5495,31.68575 55.905,30.837375 56.23,30.06575 C56.46475,29.50875 57.145625,29.77875 56.83,30.68825 C56.07575,32.86175 54.83625,33.7175 52.6675,34.157 C52.44775,34.196 52.31375,34.32575 52.39,34.58075 C52.68125,34.882875 52.97275,35.157 53.26375,35.45825 C51.92275,35.848625 50.83325,36.068 49.49125,36.4595 C48.832875,36.027875 48.301,35.661625 47.6425,35.2295 C47.46875,34.823625 47.388,34.204125 46.41625,34.64075 C45.757875,34.336625 45.454125,34.44825 45.08875,34.75325 C45.61625,34.772875 45.84575,34.914125 46.0525,35.1545 C46.3225,35.86575 46.945,35.9345 47.5825,35.732 C47.997125,36.08125 48.218,36.34925 48.6325,36.6995 C47.85875,36.673 47.3195,36.65925 46.5475,36.63575 C45.810625,35.8445 45.2225,35.887875 44.695,36.50825 C44.293,36.57 44.1225,36.57875 43.8475,37.067 C44.28,36.8895 44.5525,36.83625 44.74,37.0295 C45.5235,37.48375 46.03525,37.382375 46.42375,37.0295 C47.179625,37.07575 47.86075,37.114875 48.6175,37.1645 C48.3395,37.40075 47.958,37.526125 47.68,37.7645 C46.54475,37.43975 45.95225,37.877 45.7525,38.80325 C45.600375,39.17725 45.529125,39.562 45.595,39.962 C45.705,39.59625 45.881625,39.28175 46.20625,39.0845 C47.218125,39.341625 47.59875,38.9285 47.65375,38.32325 C48.1415,37.925375 48.877,37.837625 49.36375,37.4345 C49.932875,37.61675 50.208125,37.7295 50.78125,37.91075 C50.985,38.530125 51.44625,38.77525 52.195,38.61575 C53.08625,38.64375 52.929,39.0095 53.00125,39.302 C53.238125,38.882 53.2315,38.47325 52.6825,38.102 C52.48275,37.5595 52.04025,37.3125 51.46,37.62575 C50.91375,37.47075 50.770375,37.247875 50.22625,37.09325 C51.6025,36.6545 52.57875,36.556 53.95375,36.11825 C54.298,36.443 54.57075,36.676125 54.9175,36.96575 C55.10025,37.074875 55.27525,37.102375 55.3825,36.96575 C56.24425,35.718625 56.629125,34.6195 57.43,33.797 C57.736,33.45675 58.1225,32.99775 58.55125,32.88575 C58.765625,32.829875 59.0285,32.864 59.19625,33.047 C59.364125,33.230125 59.496,33.5675 59.44,34.07075 C59.35975,34.79325 59.18525,35.021375 58.9825,35.4545 C58.78,35.88775 58.532125,36.154125 58.2775,36.48575 C57.768375,37.149125 57.0965,37.53525 56.69875,37.7945 C55.9035,38.31325 55.567125,38.086125 54.95125,38.05325 C54.155375,38.142625 53.94375,38.53025 54.595,39.06575 C55.204,39.382625 55.75125,39.42175 56.19625,39.3395 C56.57825,39.268875 57.02525,38.77575 57.34375,38.51075 C57.70225,38.096625 58.29675,38.58775 57.89125,39.0695 C57.154625,39.944875 56.418375,40.522 55.51,40.5095 C54.5555,40.638 54.734,41.1745 55.3675,41.43575 C56.5075,41.906375 57.537125,41.025 58.06,40.44575 C58.4635,40.0045 58.75,39.987 58.67875,40.67075 C58.27825,41.90825 57.730875,42.3865 56.8375,42.44825 C56.112875,42.381 56.105,42.940375 56.635,43.31825 C57.84225,44.153875 58.7165,42.73075 59.125,41.87075 C59.41625,41.094875 59.8625,41.463875 59.90875,42.10325 C59.915,42.957625 59.52875,43.655125 58.495,44.5295 C59.286,45.78975 60.208125,47.0715 61,48.33575 L63.400625,21.599125 L61.000625,17.374875 C60.750625,17.144 59.90525,16.148 59.684375,16.009875 C59.603875,15.923625 59.554875,15.862875 59.673125,15.818625 C59.787625,15.775625 60.055625,15.727375 60.235625,15.694875 C59.726625,15.184875 59.290625,15.021375 58.326875,14.742375 C58.561875,14.642375 58.790125,14.7005 59.481875,14.667375 C59.20725,14.277375 58.593875,13.680375 57.801875,13.392375 C58.324875,13.020375 58.426875,12.9955 58.945625,12.559875 C58.04725,12.496125 57.28,12.324875 56.508125,12.091125 C56.020125,11.86275 55.34225,11.669 55.011875,11.663625 L55.01125,11.6645 Z M55.0975,12.71075 C55.5725,12.71075 55.86625,12.8735 55.86625,13.07075 C55.86625,13.2715 55.5725,13.4345 55.0975,13.4345 C54.62475,13.4345 54.325,13.256625 54.325,13.05575 C54.325,12.8585 54.62475,12.71075 55.0975,12.71075 L55.0975,12.71075 Z" id="a" fill="#000000"></path>
                    <g id="a-link" transform="translate(68.250000, 30.125000) scale(-1, 1) translate(-68.250000, -30.125000) translate(58.250000, 11.625000)" fill="#000000">
                        <path d="M11.26125,0.0395 C10.677875,0.0295 9.709625,0.2255 9.73125,0.67325 C8.10625,0.39475 7.937,1.066 8.0325,1.66325 C8.187125,1.42625 8.375375,1.2975 8.52,1.27325 C8.73675,1.23725 8.9635,1.30725 9.195,1.4495 C9.426625,1.59175 9.68175,1.82125 9.795,1.96325 C9.2215,2.100375 8.778375,2.012 8.32875,1.93325 C8.107125,1.8945 7.797,1.76975 7.6125,1.64075 C7.428125,1.511625 7.37,1.39025 7.08,1.09325 C6.738125,0.74325 6.374125,0.841625 6.4875,1.38575 C6.74975,1.891 7.187875,2.116375 7.74,2.207 C8.00575,2.25075 8.4015,2.34525 8.85,2.34575 C9.29875,2.34625 9.80225,2.28075 10.07625,2.33825 C9.911625,2.441625 9.725375,2.61975 9.35625,2.69075 C8.981,2.762875 8.410375,2.4675 8.0625,2.387 C8.10675,2.6795 8.475875,2.95325 9.2025,3.09575 C10.39675,3.35575 11.389,3.55325 12.045,3.9095 C12.701,4.26575 13.114625,4.711375 13.41,5.06075 C13.997875,5.75575 14.02875,6.2895 14.06625,6.407 C14.18725,7.517625 13.8,8.1425 13.08,8.3345 C12.72,8.4305 12.08075,8.24975 11.84625,7.9745 C11.611875,7.6995 11.38375,7.226375 11.44875,6.48575 C11.512,6.195125 11.84425,5.43825 11.56125,5.282 C10.257875,4.561625 8.675,3.83325 7.53,3.3995 C7.217125,3.281 6.95925,3.706375 6.85875,3.872 C4.9135,3.635125 3.1595,2.31875 2.37,0.917 C1.8325,-0.037625 0.94625,0.919 1.095,1.82075 C1.335625,2.82725 2.1025,3.555 3.0225,4.07075 C3.966875,4.59075 5.14725,5.102375 6.34125,5.07575 C6.984625,5.1975 6.97825,6.02975 6.20625,6.18575 C4.696625,6.195375 3.49225,6.157625 2.355,5.06075 C1.4925,4.27325 1.007,5.211625 1.25625,5.74325 C1.67875,7.38225 4.017,7.84125 6.3825,7.31075 C7.2985,7.159125 6.75,8.14075 6.49125,8.15075 C5.502875,8.8595 3.733375,9.552875 2.175,8.14325 C1.461875,7.59725 0.97975,8.05625 1.245,8.8445 C1.9365,10.89975 4.5815,10.46825 6.3975,9.45575 C6.865,9.19525 7.289125,9.801375 6.72,10.262 C4.461625,11.84 3.3325,11.858 2.31375,11.252 C1.0385,10.749 0.92625,12.163625 1.68375,12.62825 C2.52575,13.14475 4.66825,12.7575 6.24,11.7695 C6.91375,11.2685 6.944375,12.052 6.5175,12.362 C4.65225,13.974 3.917,14.3985 1.9725,14.13575 C1.008375,14.06075 1.02275,15.2495 1.78125,15.7145 C2.816875,16.3495 4.83925,15.295375 6.40875,13.99325 C7.069375,13.64025 7.177875,14.219125 6.85125,14.9045 C5.89225,16.1145 4.992125,16.827875 4.125,17.15825 C3.258,17.488625 2.424,17.436 1.83375,17.23325 C1.11375,16.98575 1.0235,17.734125 1.42125,18.4145 C1.66125,18.8245 2.655,18.956 3.7275,18.57575 C4.80025,18.195375 5.951875,17.30325 6.7425,16.25825 C7.4305,15.65575 7.345,16.465 7.03125,17.0345 C5.448,19.5375 4,20.466 2.0925,20.30825 C1.246875,20.1645 1.05475,20.82225 1.59375,21.4295 C2.54025,22.2145 3.72375,22.18975 4.75875,21.4145 C5.679,20.52725 7.439375,18.617 8.3625,17.59325 C9.013125,17.0745 9.220875,17.58575 9.03,18.6395 C8.8565,19.24275 8.421875,19.87825 7.2375,20.342 C6.4285,20.80375 7.036,21.440125 7.6425,21.452 C7.97625,21.45825 8.654,21.06825 9.1725,20.4845 C9.854625,19.716375 9.89525,19.20075 10.27125,18.00575 C10.626625,17.42325 11.26125,17.695 11.26125,18.30575 C10.956875,19.50275 10.695375,19.717375 10.08,20.207 C9.4915,20.7595 10.49,20.94375 10.82625,20.717 C11.7995,20.06075 12.155,19.212375 12.48,18.44075 C12.71475,17.88375 13.395625,18.15375 13.08,19.06325 C12.32575,21.23675 11.08625,22.0925 8.9175,22.532 C8.69775,22.571 8.56375,22.70075 8.64,22.95575 C8.93125,23.257875 9.22275,23.532 9.51375,23.83325 C8.17275,24.223625 7.08325,24.443 5.74125,24.8345 C5.082875,24.402875 4.551,24.036625 3.8925,23.6045 C3.71875,23.198625 3.638,22.579125 2.66625,23.01575 C2.007875,22.711625 1.704125,22.82325 1.33875,23.12825 C1.86625,23.147875 2.09575,23.289125 2.3025,23.5295 C2.5725,24.24075 3.195,24.3095 3.8325,24.107 C4.247125,24.45625 4.468,24.72425 4.8825,25.0745 C4.10875,25.048 3.5695,25.03425 2.7975,25.01075 C2.060625,24.2195 1.4725,24.262875 0.945,24.88325 C0.543,24.945 0.3725,24.95375 0.0975,25.442 C0.53,25.2645 0.8025,25.21125 0.99,25.4045 C1.7735,25.85875 2.28525,25.757375 2.67375,25.4045 C3.429625,25.45075 4.11075,25.489875 4.8675,25.5395 C4.5895,25.77575 4.208,25.901125 3.93,26.1395 C2.79475,25.81475 2.20225,26.252 2.0025,27.17825 C1.850375,27.55225 1.779125,27.937 1.845,28.337 C1.955,27.97125 2.131625,27.65675 2.45625,27.4595 C3.468125,27.716625 3.84875,27.3035 3.90375,26.69825 C4.3915,26.300375 5.127,26.212625 5.61375,25.8095 C6.182875,25.99175 6.458125,26.1045 7.03125,26.28575 C7.235,26.905125 7.69625,27.15025 8.445,26.99075 C9.33625,27.01875 9.179,27.3845 9.25125,27.677 C9.488125,27.257 9.4815,26.84825 8.9325,26.477 C8.73275,25.9345 8.29025,25.6875 7.71,26.00075 C7.16375,25.84575 7.020375,25.622875 6.47625,25.46825 C7.8525,25.0295 8.82875,24.931 10.20375,24.49325 C10.548,24.818 10.82075,25.051125 11.1675,25.34075 C11.35025,25.449875 11.52525,25.477375 11.6325,25.34075 C12.49425,24.093625 12.879125,22.9945 13.68,22.172 C13.986,21.83175 14.3725,21.37275 14.80125,21.26075 C15.015625,21.204875 15.2785,21.239 15.44625,21.422 C15.614125,21.605125 15.746,21.9425 15.69,22.44575 C15.60975,23.16825 15.43525,23.396375 15.2325,23.8295 C15.03,24.26275 14.782125,24.529125 14.5275,24.86075 C14.018375,25.524125 13.3465,25.91025 12.94875,26.1695 C12.1535,26.68825 11.817125,26.461125 11.20125,26.42825 C10.405375,26.517625 10.19375,26.90525 10.845,27.44075 C11.454,27.757625 12.00125,27.79675 12.44625,27.7145 C12.82825,27.643875 13.27525,27.15075 13.59375,26.88575 C13.95225,26.471625 14.54675,26.96275 14.14125,27.4445 C13.404625,28.319875 12.668375,28.897 11.76,28.8845 C10.8055,29.013 10.984,29.5495 11.6175,29.81075 C12.7575,30.281375 13.787125,29.4 14.31,28.82075 C14.7135,28.3795 15,28.362 14.92875,29.04575 C14.52825,30.28325 13.980875,30.7615 13.0875,30.82325 C12.362875,30.756 12.355,31.315375 12.885,31.69325 C14.09225,32.528875 14.9665,31.10575 15.375,30.24575 C15.66625,29.469875 16.1125,29.838875 16.15875,30.47825 C16.165,31.332625 15.77875,32.030125 14.745,32.9045 C15.536,34.16475 16.458125,35.4465 17.25,36.71075 L19.650625,9.974125 L17.250625,5.749875 C17.000625,5.519 16.15525,4.523 15.934375,4.384875 C15.853875,4.298625 15.804875,4.237875 15.923125,4.193625 C16.037625,4.150625 16.305625,4.102375 16.485625,4.069875 C15.976625,3.559875 15.540625,3.396375 14.576875,3.117375 C14.811875,3.017375 15.040125,3.0755 15.731875,3.042375 C15.45725,2.652375 14.843875,2.055375 14.051875,1.767375 C14.574875,1.395375 14.676875,1.3705 15.195625,0.934875 C14.29725,0.871125 13.53,0.699875 12.758125,0.466125 C12.270125,0.23775 11.59225,0.044 11.261875,0.038625 L11.26125,0.0395 Z M11.3475,1.08575 C11.8225,1.08575 12.11625,1.2485 12.11625,1.44575 C12.11625,1.6465 11.8225,1.8095 11.3475,1.8095 C10.87475,1.8095 10.575,1.631625 10.575,1.43075 C10.575,1.2335 10.87475,1.08575 11.3475,1.08575 L11.3475,1.08575 Z" id="a"></path>
                    </g>
                </g>
            </g>
        </g>
    </g>
</svg>