<?xml version="1.0" encoding="UTF-8" standalone="no"?>
<svg width="122px" height="60px" viewBox="0 0 122 60" version="1.1" xmlns="http://www.w3.org/2000/svg" xmlns:xlink="http://www.w3.org/1999/xlink">
    <!-- Generator: Sketch 3.8.2 (29753) - http://www.bohemiancoding.com/sketch -->
    <title>mh</title>
    <desc>Created with Sketch.</desc>
    <defs></defs>
    <g id="Page-1" stroke="none" stroke-width="1" fill="none" fill-rule="evenodd">
        <g id="mh">
            <g transform="translate(0.000000, -1.000000)" id="Group">
                <g>
                    <polygon id="Shape" fill="#3B5AA3" points="0 1 122 1 122 61 0 61"></polygon>
                    <path d="M100.946445,2 L103,1 C103,1 115.15195,0.743463357 119,0.999999997 C120.15195,1.07679669 118,2 118,2 L100.943077,12.8417879 L21.1247401,61.8746362 L21.1247401,60.2629938 L100.946445,2 Z" id="Shape" fill="#E2AE57"></path>
                    <path d="M25.7031972,61.0035322 L100.955925,24.3559252 L121.999999,14 L122,1 L119,1 L116.999999,2 L100.939335,12.4458628 L22,61 L25.7031972,61.0035322 Z M42.2065696,16.7134719 L38.8373389,8.53650728 L40.1297713,17.2402495 L34.9118919,10.2076507 L38.3322661,18.2331809 L31.4796674,12.9172557 L36.8141788,19.5965904 L29.0675676,16.1637422 L35.8524324,21.3017879 L27.413763,20.1853638 L35.3883992,23.3462786 L22.8707277,24.4913929 L35.4183368,25.3300208 L27.4671518,28.5990852 L35.8212474,27.4686902 L29.0609563,32.4605405 L36.9059875,29.0183368 L31.5551351,35.7530561 L38.362578,30.5990437 L34.990104,38.4438254 L40.4392516,31.6217879 L38.9643243,40.1256965 L42.3919335,32.1797505 L43.1668191,44.7323493 L44.3755509,32.2109356 L47.330894,40.2052807 L46.2042412,31.5911019 L51.6264449,38.4191268 L48.0637422,30.4444906 L54.868316,35.9325572 L49.4583368,29.0805821 L57.545738,32.4479418 L50.3881497,27.2210811 L59.1048649,28.6905198 L50.7602495,25.485447 L63.7394595,24.6796258 L50.7602495,23.4707692 L59.3032017,20.6232017 L50.4501455,21.7351351 L57.764657,16.621289 L49.5204574,19.9376299 L55.2140956,13.0352599 L48.28079,18.4499792 L51.6170894,10.165738 L46.235052,17.2103119 L47.3910187,8.42486486 L44.1895634,16.7144699 L42.9936798,3.89243243 L42.2065696,16.7134719 Z" id="Shape" fill="#FFFFFF"></path>
                </g>
            </g>
        </g>
    </g>
</svg>