<?xml version="1.0" encoding="UTF-8" standalone="no"?>
<svg width="122px" height="60px" viewBox="0 0 122 60" version="1.1" xmlns="http://www.w3.org/2000/svg" xmlns:xlink="http://www.w3.org/1999/xlink">
    <!-- Generator: Sketch 3.8.2 (29753) - http://www.bohemiancoding.com/sketch -->
    <title>si</title>
    <desc>Created with Sketch.</desc>
    <defs></defs>
    <g id="Page-1" stroke="none" stroke-width="1" fill="none" fill-rule="evenodd">
        <g id="si">
            <g id="Clipped">
                <g>
                    <rect id="Rectangle-229" fill="#08399C" x="0" y="20" width="122" height="20"></rect>
                    <rect id="Rectangle-229-Copy" fill="#FFFFFF" x="0" y="0" width="122" height="20"></rect>
                    <rect id="Rectangle-229-Copy-2" fill="#DE2918" x="0" y="40" width="122" height="20"></rect>
                    <g id="Group" transform="translate(14.769189, 9.000000)">
                        <path d="M18.1396677,1.93146587 C17.6670243,9.17995798 17.3963713,13.1521613 16.2927137,14.9902973 C15.0993479,16.9642302 13.9383147,18.4094373 9.28183658,20.1496351 C4.62477064,18.4083792 3.46432527,16.9634072 2.27060675,14.9893568 C1.16694914,13.151691 0.896178557,9.18007556 0.423652729,1.93170102 L1.11180741,1.69996466 C2.4971699,1.27740736 3.53075401,0.937621428 4.29533113,0.786775288 C5.39028834,0.555038934 6.32087852,0.29296875 9.26361277,0.231595652 C12.206347,0.282152035 13.1415225,0.560447291 14.2364797,0.792183645 C14.9948255,0.9538465 16.0726171,1.271999 17.4476331,1.70266884 L18.1394326,1.93170102 L18.1396677,1.93146587 Z" id="Shape" fill="#DE2918"></path>
                        <path d="M17.4612716,1.69385087 C17.0142591,8.92670577 16.6402594,12.2389719 16.0570974,13.8320859 C14.9253399,16.5589561 13.1335276,18.0540142 9.27725123,19.4800569 C5.42085732,18.0527209 3.62904502,16.5571925 2.49752262,13.830675 C1.91424304,12.2387368 1.5457693,8.93493588 1.11157227,1.68538561 C2.46765908,1.26188772 3.53087158,0.930802195 4.2954487,0.780073628 C5.39040592,0.548219701 6.32099609,0.275215229 9.26373034,0.224541273 C12.2064646,0.275215229 13.1479891,0.548219701 14.2429463,0.779956055 C15.0075234,0.930802195 16.0926045,1.26177015 17.4612716,1.69267514 L17.4612716,1.69385087 Z" id="Shape" fill="#08399C"></path>
                        <polygon id="Shape" fill="#FFCC00" points="9.2734889 3.90833804 9.4584312 4.34606227 10.2708605 4.45740389 9.7443687 4.77485095 10.2534597 5.11510716 9.51298507 5.23914666 9.28771523 5.63583792 9.03422787 5.22738937 8.32937783 5.12745233 8.80907561 4.77967144 8.31526907 4.46328253 9.09536583 4.34371081 9.2734889 3.90833804"></polygon>
                        <path d="M15.7776264,12.1184596 L15.3273219,11.7624486 L15.0017623,11.2270212 L14.3642816,10.6739579 L14.0320203,10.1151335 L13.394422,9.54466938 L13.0825009,8.98584498 L12.743538,8.71225265 L12.5197966,8.49685894 L11.9438065,9.00183491 L11.6298867,9.55031289 L11.2388389,9.90491301 L10.8091097,9.56935971 L10.4842555,8.99713199 L9.27819182,6.85530492 L8.07189299,8.99713199 L7.74703883,9.56935971 L7.31742714,9.90491301 L6.92626182,9.55031289 L6.61234195,9.00183491 L6.03646947,8.49685894 L5.81261051,8.71225265 L5.47364759,8.98596256 L5.16172646,9.54466938 L4.52412816,10.1151335 L4.19198448,10.6739579 L3.55438618,11.2270212 L3.22894416,11.7624486 L2.77969778,12.1268073 C3.01296258,14.1121447 4.27851819,15.6676353 4.96808375,16.379187 C5.73759894,17.1263633 7.3241288,18.1260864 9.26420063,18.7877872 C11.2097984,18.1401952 12.8183144,17.1263633 13.5878296,16.379187 C14.2773951,15.6676353 15.5429508,14.1121447 15.7776264,12.1184596 L15.7776264,12.1184596 Z" id="Shape" fill="#FFFFFF"></path>
                        <path d="M11.2122674,0.863197728 L11.3972097,1.30092195 L12.2096391,1.41226357 L11.6831472,1.72971063 L12.1922383,2.06996685 L11.4517636,2.19400635 L11.2264938,2.5906976 L10.9730064,2.18224905 L10.2681564,2.08231201 L10.7478541,1.73453112 L10.2540476,1.41814222 L11.0341444,1.29857049 L11.2122674,0.863197728 L11.2122674,0.863197728 Z M7.33471037,0.856613641 L7.51965268,1.29433786 L8.33208201,1.40567948 L7.80559018,1.72312654 L8.3146812,2.06338276 L7.57420654,2.18742226 L7.3489367,2.58411351 L7.09544935,2.17566496 L6.3905993,2.07572792 L6.87029708,1.72794703 L6.37649054,1.41155813 L7.1565873,1.29198641 L7.33471037,0.856613641 L7.33471037,0.856613641 Z" id="Shape" fill="#FFCC00"></path>
                        <path d="M14.7712017,14.8708432 L13.8931666,14.8735474 L13.0828536,14.8132324 L12.1013543,14.3318886 L10.9951101,14.3384727 L10.0370079,14.8065308 L9.28136629,14.8734298 L8.52560714,14.8065308 L7.56762246,14.3385903 L6.46126067,14.3318886 L5.47987896,14.8132324 L4.66956594,14.8735474 L3.78047903,14.8613198 L3.35110249,14.1338957 L3.36709241,14.1172003 L4.6806178,14.3344752 L5.49081325,14.2742779 L6.47231253,13.7928165 L7.57867432,13.7995181 L8.536659,14.2675762 L9.29230058,14.3343577 L10.0480597,14.2675762 L11.0060444,13.7995181 L12.1124062,13.7928165 L13.0937879,14.2742779 L13.9041009,14.3344752 L15.1825896,14.1103811 L15.1995201,14.144007 L14.7712017,14.8708432 L14.7712017,14.8708432 Z M4.60466566,15.9889623 L5.47388274,15.9286473 L6.45538202,15.4473035 L7.56162623,15.4540052 L8.51961092,15.9219457 L9.27537007,15.9888447 L10.0310116,15.9220632 L10.9891139,15.4540052 L12.0954757,15.4473035 L13.0768574,15.9286473 L13.9578318,15.9889623 L14.5262972,15.2882273 L14.5071328,15.2723549 L13.8981047,15.4498901 L13.0877917,15.3896928 L12.10641,14.908349 L11.0000482,14.9149331 L10.0420635,15.3829911 L9.28630435,15.4498901 L8.53066278,15.3829911 L7.57256052,14.9150506 L6.4663163,14.908349 L5.4849346,15.3896928 L4.67462158,15.4500077 L4.07770354,15.2995143 L4.07053158,15.3289075 L4.60466566,15.9889623 L4.60466566,15.9889623 Z" id="Shape" fill="#08399C"></path>
                    </g>
                </g>
            </g>
        </g>
    </g>
</svg>