<?xml version="1.0" encoding="UTF-8" standalone="no"?>
<svg width="122px" height="60px" viewBox="0 0 122 60" version="1.1" xmlns="http://www.w3.org/2000/svg" xmlns:xlink="http://www.w3.org/1999/xlink">
    <!-- Generator: Sketch 3.8.2 (29753) - http://www.bohemiancoding.com/sketch -->
    <title>ss</title>
    <desc>Created with Sketch.</desc>
    <defs></defs>
    <g id="Page-1" stroke="none" stroke-width="1" fill="none" fill-rule="evenodd">
        <g id="ss">
            <g id="Flag-of-South-Sudan">
                <g>
                    <polygon id="Shape" fill="#078930" points="0 41.968 122 41.968 122 59.9542857 0 59.9542857"></polygon>
                    <polygon id="Shape" fill="#FFFFFF" points="0 17.9862857 122 17.9862857 122 41.968 0 41.968"></polygon>
                    <polygon id="Shape" fill="#000000" points="0 0 122 0 122 17.9862857 0 17.9862857"></polygon>
                    <polygon id="Shape" fill="#DA121A" points="0 20.984 122 20.984 122 38.9702857 0 38.9702857"></polygon>
                    <polygon id="Shape" fill="#0F47AF" points="0 0 51.9232442 30 0 60"></polygon>
                    <polygon id="Shape" fill="#FCDD09" transform="translate(16.773773, 29.528141) rotate(-18.000000) translate(-16.773773, -29.528141) " points="22.363993 38.1445677 16.7969838 34.1236893 11.257069 38.1844502 13.3175127 31.583901 7.78789384 27.5086374 14.6290654 27.4524394 16.7509232 20.8718314 18.9184803 27.4372115 25.7596518 27.4459131 20.2580306 31.5601528 22.3641736 38.1458367"></polygon>
                </g>
            </g>
        </g>
    </g>
</svg>