<?xml version="1.0" encoding="UTF-8" standalone="no"?>
<svg width="122px" height="60px" viewBox="0 0 122 60" version="1.1" xmlns="http://www.w3.org/2000/svg" xmlns:xlink="http://www.w3.org/1999/xlink">
    <!-- Generator: Sketch 3.8.2 (29753) - http://www.bohemiancoding.com/sketch -->
    <title>tk</title>
    <desc>Created with Sketch.</desc>
    <defs></defs>
    <g id="Page-1" stroke="none" stroke-width="1" fill="none" fill-rule="evenodd">
        <g id="tk">
            <g id="Group">
                <g>
                    <polygon id="Shape" fill="#00247D" points="0 0 122 0 122 60 0 60"></polygon>
                    <g transform="translate(33.375000, 11.500000)" id="Shape" fill="#FED100">
                        <path d="M1.1375,32.825 C0.3,32.8125 8.9875,28.2 16.25,22.275 C25.775,14.5125 46.2875,2.1 52.325,0.075 C52.95,-0.1375 51.0375,1.15 50.7875,1.5625 C44.35,9.1875 49.4875,23.5625 57.5375,30.8 C59.9625,32.65 59.8375,32.75 64.325,32.925 L64.325,33.35 L1.1375,32.825 L1.1375,32.825 Z M0.6125,33.6625 C0.6125,33.6625 0,34.1 0,34.425 C0,34.7875 0.6875,35.2625 0.6875,35.2625 L63,35.95 L64.15,35.1875 L62.55,34.2 L0.6125,33.6625 L0.6125,33.6625 Z"></path>
                    </g>
                    <g transform="translate(23.375000, 11.125000)" id="Shape" fill="#FFFFFF">
                        <path d="M10.975,2.5125 L10.475,4.0375 L11.775,3.1 L13.0625,4.0375 L12.575,2.5125 L13.8625,1.575 L12.2625,1.575 L11.775,0.05 L11.275,1.575 L9.675,1.575 L10.975,2.5125 Z M20.7375,9.6875 L21.8125,8.9 L20.475,8.9 L20.0625,7.6375 L19.65,8.9 L18.325,8.9 L19.4,9.6875 L18.9875,10.95 L20.0625,10.1625 L21.15,10.95 L20.7375,9.6875 Z M2.5875,11.3125 L2.0875,9.7875 L1.6,11.3125 L0,11.3125 L1.2875,12.25 L0.8,13.775 L2.0875,12.8375 L3.3875,13.775 L2.8875,12.25 L4.1875,11.3125 L2.5875,11.3125 Z M12.35,26.6 L11.775,24.825 L11.2,26.6 L9.325,26.6 L10.8375,27.6875 L10.2625,29.475 L11.775,28.375 L13.2875,29.475 L12.7,27.6875 L14.2125,26.6 L12.35,26.6 Z"></path>
                    </g>
                </g>
            </g>
        </g>
    </g>
</svg>