<?xml version="1.0" encoding="UTF-8" standalone="no"?>
<svg width="122px" height="60px" viewBox="0 0 122 60" version="1.1" xmlns="http://www.w3.org/2000/svg" xmlns:xlink="http://www.w3.org/1999/xlink">
    <!-- Generator: Sketch 3.8.2 (29753) - http://www.bohemiancoding.com/sketch -->
    <title>hn</title>
    <desc>Created with Sketch.</desc>
    <defs></defs>
    <g id="Page-1" stroke="none" stroke-width="1" fill="none" fill-rule="evenodd">
        <g id="hn">
            <g id="Group">
                <g>
                    <polygon id="Shape" fill="#0073CF" points="0 0 122 0 122 60 0 60"></polygon>
                    <polygon id="Shape" fill="#FFFFFF" points="0 20.0000391 122 20.0000391 122 40.0000781 0 40.0000781"></polygon>
                    <g id="c" transform="translate(54.411459, 23.333334)" fill="#0073CF">
                        <g id="b" transform="translate(3.333333, 3.333333)">
                            <polygon id="a" points="2.29999964 3.16666617 3.88999939 3.68666609 3.33333281 0"></polygon>
                            <g id="a-link" transform="translate(3.333333, 3.333333) scale(-1, 1) translate(-3.333333, -3.333333) ">
                                <polygon id="a" points="2.29999964 3.16666617 3.88999939 3.68666609 3.33333281 0"></polygon>
                            </g>
                        </g>
                        <g id="b-link" transform="translate(6.666666, 6.666666) rotate(72.000000) translate(-6.666666, -6.666666) translate(3.333333, 3.333333)">
                            <g id="b">
                                <polygon id="a" points="2.29999964 3.16666617 3.88999939 3.68666609 3.33333281 0"></polygon>
                                <g id="a-link" transform="translate(3.333333, 3.333333) scale(-1, 1) translate(-3.333333, -3.333333) ">
                                    <polygon id="a" points="2.29999964 3.16666617 3.88999939 3.68666609 3.33333281 0"></polygon>
                                </g>
                            </g>
                        </g>
                        <g id="b-link" transform="translate(6.666666, 6.666666) rotate(-72.000000) translate(-6.666666, -6.666666) translate(3.333333, 3.333333)">
                            <g id="b">
                                <polygon id="a" points="2.29999964 3.16666617 3.88999939 3.68666609 3.33333281 0"></polygon>
                                <g id="a-link" transform="translate(3.333333, 3.333333) scale(-1, 1) translate(-3.333333, -3.333333) ">
                                    <polygon id="a" points="2.29999964 3.16666617 3.88999939 3.68666609 3.33333281 0"></polygon>
                                </g>
                            </g>
                        </g>
                        <g id="b-link" transform="translate(6.666666, 6.666666) rotate(144.000000) translate(-6.666666, -6.666666) translate(3.333333, 3.333333)">
                            <g id="b">
                                <polygon id="a" points="2.29999964 3.16666617 3.88999939 3.68666609 3.33333281 0"></polygon>
                                <g id="a-link" transform="translate(3.333333, 3.333333) scale(-1, 1) translate(-3.333333, -3.333333) ">
                                    <polygon id="a" points="2.29999964 3.16666617 3.88999939 3.68666609 3.33333281 0"></polygon>
                                </g>
                            </g>
                        </g>
                        <g id="b-link" transform="translate(6.666666, 6.666666) rotate(216.000000) translate(-6.666666, -6.666666) translate(3.333333, 3.333333)">
                            <g id="b">
                                <polygon id="a" points="2.29999964 3.16666617 3.88999939 3.68666609 3.33333281 0"></polygon>
                                <g id="a-link" transform="translate(3.333333, 3.333333) scale(-1, 1) translate(-3.333333, -3.333333) ">
                                    <polygon id="a" points="2.29999964 3.16666617 3.88999939 3.68666609 3.33333281 0"></polygon>
                                </g>
                            </g>
                        </g>
                    </g>
                    <g id="c-link" transform="translate(71.065078, 17.987109)" fill="#0073CF">
                        <g id="c" transform="translate(0.013022, 0.013022)">
                            <g id="b" transform="translate(3.333333, 3.333333)">
                                <polygon id="a" points="2.29999964 3.16666617 3.88999939 3.68666609 3.33333281 0"></polygon>
                                <g id="a-link" transform="translate(3.333333, 3.333333) scale(-1, 1) translate(-3.333333, -3.333333) ">
                                    <polygon id="a" points="2.29999964 3.16666617 3.88999939 3.68666609 3.33333281 0"></polygon>
                                </g>
                            </g>
                            <g id="b-link" transform="translate(6.666666, 6.666666) rotate(72.000000) translate(-6.666666, -6.666666) translate(3.333333, 3.333333)">
                                <g id="b">
                                    <polygon id="a" points="2.29999964 3.16666617 3.88999939 3.68666609 3.33333281 0"></polygon>
                                    <g id="a-link" transform="translate(3.333333, 3.333333) scale(-1, 1) translate(-3.333333, -3.333333) ">
                                        <polygon id="a" points="2.29999964 3.16666617 3.88999939 3.68666609 3.33333281 0"></polygon>
                                    </g>
                                </g>
                            </g>
                            <g id="b-link" transform="translate(6.666666, 6.666666) rotate(-72.000000) translate(-6.666666, -6.666666) translate(3.333333, 3.333333)">
                                <g id="b">
                                    <polygon id="a" points="2.29999964 3.16666617 3.88999939 3.68666609 3.33333281 0"></polygon>
                                    <g id="a-link" transform="translate(3.333333, 3.333333) scale(-1, 1) translate(-3.333333, -3.333333) ">
                                        <polygon id="a" points="2.29999964 3.16666617 3.88999939 3.68666609 3.33333281 0"></polygon>
                                    </g>
                                </g>
                            </g>
                            <g id="b-link" transform="translate(6.666666, 6.666666) rotate(144.000000) translate(-6.666666, -6.666666) translate(3.333333, 3.333333)">
                                <g id="b">
                                    <polygon id="a" points="2.29999964 3.16666617 3.88999939 3.68666609 3.33333281 0"></polygon>
                                    <g id="a-link" transform="translate(3.333333, 3.333333) scale(-1, 1) translate(-3.333333, -3.333333) ">
                                        <polygon id="a" points="2.29999964 3.16666617 3.88999939 3.68666609 3.33333281 0"></polygon>
                                    </g>
                                </g>
                            </g>
                            <g id="b-link" transform="translate(6.666666, 6.666666) rotate(216.000000) translate(-6.666666, -6.666666) translate(3.333333, 3.333333)">
                                <g id="b">
                                    <polygon id="a" points="2.29999964 3.16666617 3.88999939 3.68666609 3.33333281 0"></polygon>
                                    <g id="a-link" transform="translate(3.333333, 3.333333) scale(-1, 1) translate(-3.333333, -3.333333) ">
                                        <polygon id="a" points="2.29999964 3.16666617 3.88999939 3.68666609 3.33333281 0"></polygon>
                                    </g>
                                </g>
                            </g>
                        </g>
                    </g>
                    <g id="c-link" transform="translate(71.065078, 27.986953)" fill="#0073CF">
                        <g id="c" transform="translate(0.013022, 0.013022)">
                            <g id="b" transform="translate(3.333333, 3.333333)">
                                <polygon id="a" points="2.29999964 3.16666617 3.88999939 3.68666609 3.33333281 0"></polygon>
                                <g id="a-link" transform="translate(3.333333, 3.333333) scale(-1, 1) translate(-3.333333, -3.333333) ">
                                    <polygon id="a" points="2.29999964 3.16666617 3.88999939 3.68666609 3.33333281 0"></polygon>
                                </g>
                            </g>
                            <g id="b-link" transform="translate(6.666666, 6.666666) rotate(72.000000) translate(-6.666666, -6.666666) translate(3.333333, 3.333333)">
                                <g id="b">
                                    <polygon id="a" points="2.29999964 3.16666617 3.88999939 3.68666609 3.33333281 0"></polygon>
                                    <g id="a-link" transform="translate(3.333333, 3.333333) scale(-1, 1) translate(-3.333333, -3.333333) ">
                                        <polygon id="a" points="2.29999964 3.16666617 3.88999939 3.68666609 3.33333281 0"></polygon>
                                    </g>
                                </g>
                            </g>
                            <g id="b-link" transform="translate(6.666666, 6.666666) rotate(-72.000000) translate(-6.666666, -6.666666) translate(3.333333, 3.333333)">
                                <g id="b">
                                    <polygon id="a" points="2.29999964 3.16666617 3.88999939 3.68666609 3.33333281 0"></polygon>
                                    <g id="a-link" transform="translate(3.333333, 3.333333) scale(-1, 1) translate(-3.333333, -3.333333) ">
                                        <polygon id="a" points="2.29999964 3.16666617 3.88999939 3.68666609 3.33333281 0"></polygon>
                                    </g>
                                </g>
                            </g>
                            <g id="b-link" transform="translate(6.666666, 6.666666) rotate(144.000000) translate(-6.666666, -6.666666) translate(3.333333, 3.333333)">
                                <g id="b">
                                    <polygon id="a" points="2.29999964 3.16666617 3.88999939 3.68666609 3.33333281 0"></polygon>
                                    <g id="a-link" transform="translate(3.333333, 3.333333) scale(-1, 1) translate(-3.333333, -3.333333) ">
                                        <polygon id="a" points="2.29999964 3.16666617 3.88999939 3.68666609 3.33333281 0"></polygon>
                                    </g>
                                </g>
                            </g>
                            <g id="b-link" transform="translate(6.666666, 6.666666) rotate(216.000000) translate(-6.666666, -6.666666) translate(3.333333, 3.333333)">
                                <g id="b">
                                    <polygon id="a" points="2.29999964 3.16666617 3.88999939 3.68666609 3.33333281 0"></polygon>
                                    <g id="a-link" transform="translate(3.333333, 3.333333) scale(-1, 1) translate(-3.333333, -3.333333) ">
                                        <polygon id="a" points="2.29999964 3.16666617 3.88999939 3.68666609 3.33333281 0"></polygon>
                                    </g>
                                </g>
                            </g>
                        </g>
                    </g>
                    <g id="c-link" transform="translate(37.731797, 17.987109)" fill="#0073CF">
                        <g id="c" transform="translate(0.013022, 0.013022)">
                            <g id="b" transform="translate(3.333333, 3.333333)">
                                <polygon id="a" points="2.29999964 3.16666617 3.88999939 3.68666609 3.33333281 0"></polygon>
                                <g id="a-link" transform="translate(3.333333, 3.333333) scale(-1, 1) translate(-3.333333, -3.333333) ">
                                    <polygon id="a" points="2.29999964 3.16666617 3.88999939 3.68666609 3.33333281 0"></polygon>
                                </g>
                            </g>
                            <g id="b-link" transform="translate(6.666666, 6.666666) rotate(72.000000) translate(-6.666666, -6.666666) translate(3.333333, 3.333333)">
                                <g id="b">
                                    <polygon id="a" points="2.29999964 3.16666617 3.88999939 3.68666609 3.33333281 0"></polygon>
                                    <g id="a-link" transform="translate(3.333333, 3.333333) scale(-1, 1) translate(-3.333333, -3.333333) ">
                                        <polygon id="a" points="2.29999964 3.16666617 3.88999939 3.68666609 3.33333281 0"></polygon>
                                    </g>
                                </g>
                            </g>
                            <g id="b-link" transform="translate(6.666666, 6.666666) rotate(-72.000000) translate(-6.666666, -6.666666) translate(3.333333, 3.333333)">
                                <g id="b">
                                    <polygon id="a" points="2.29999964 3.16666617 3.88999939 3.68666609 3.33333281 0"></polygon>
                                    <g id="a-link" transform="translate(3.333333, 3.333333) scale(-1, 1) translate(-3.333333, -3.333333) ">
                                        <polygon id="a" points="2.29999964 3.16666617 3.88999939 3.68666609 3.33333281 0"></polygon>
                                    </g>
                                </g>
                            </g>
                            <g id="b-link" transform="translate(6.666666, 6.666666) rotate(144.000000) translate(-6.666666, -6.666666) translate(3.333333, 3.333333)">
                                <g id="b">
                                    <polygon id="a" points="2.29999964 3.16666617 3.88999939 3.68666609 3.33333281 0"></polygon>
                                    <g id="a-link" transform="translate(3.333333, 3.333333) scale(-1, 1) translate(-3.333333, -3.333333) ">
                                        <polygon id="a" points="2.29999964 3.16666617 3.88999939 3.68666609 3.33333281 0"></polygon>
                                    </g>
                                </g>
                            </g>
                            <g id="b-link" transform="translate(6.666666, 6.666666) rotate(216.000000) translate(-6.666666, -6.666666) translate(3.333333, 3.333333)">
                                <g id="b">
                                    <polygon id="a" points="2.29999964 3.16666617 3.88999939 3.68666609 3.33333281 0"></polygon>
                                    <g id="a-link" transform="translate(3.333333, 3.333333) scale(-1, 1) translate(-3.333333, -3.333333) ">
                                        <polygon id="a" points="2.29999964 3.16666617 3.88999939 3.68666609 3.33333281 0"></polygon>
                                    </g>
                                </g>
                            </g>
                        </g>
                    </g>
                    <g id="c-link" transform="translate(37.731797, 27.986953)" fill="#0073CF">
                        <g id="c" transform="translate(0.013022, 0.013022)">
                            <g id="b" transform="translate(3.333333, 3.333333)">
                                <polygon id="a" points="2.29999964 3.16666617 3.88999939 3.68666609 3.33333281 0"></polygon>
                                <g id="a-link" transform="translate(3.333333, 3.333333) scale(-1, 1) translate(-3.333333, -3.333333) ">
                                    <polygon id="a" points="2.29999964 3.16666617 3.88999939 3.68666609 3.33333281 0"></polygon>
                                </g>
                            </g>
                            <g id="b-link" transform="translate(6.666666, 6.666666) rotate(72.000000) translate(-6.666666, -6.666666) translate(3.333333, 3.333333)">
                                <g id="b">
                                    <polygon id="a" points="2.29999964 3.16666617 3.88999939 3.68666609 3.33333281 0"></polygon>
                                    <g id="a-link" transform="translate(3.333333, 3.333333) scale(-1, 1) translate(-3.333333, -3.333333) ">
                                        <polygon id="a" points="2.29999964 3.16666617 3.88999939 3.68666609 3.33333281 0"></polygon>
                                    </g>
                                </g>
                            </g>
                            <g id="b-link" transform="translate(6.666666, 6.666666) rotate(-72.000000) translate(-6.666666, -6.666666) translate(3.333333, 3.333333)">
                                <g id="b">
                                    <polygon id="a" points="2.29999964 3.16666617 3.88999939 3.68666609 3.33333281 0"></polygon>
                                    <g id="a-link" transform="translate(3.333333, 3.333333) scale(-1, 1) translate(-3.333333, -3.333333) ">
                                        <polygon id="a" points="2.29999964 3.16666617 3.88999939 3.68666609 3.33333281 0"></polygon>
                                    </g>
                                </g>
                            </g>
                            <g id="b-link" transform="translate(6.666666, 6.666666) rotate(144.000000) translate(-6.666666, -6.666666) translate(3.333333, 3.333333)">
                                <g id="b">
                                    <polygon id="a" points="2.29999964 3.16666617 3.88999939 3.68666609 3.33333281 0"></polygon>
                                    <g id="a-link" transform="translate(3.333333, 3.333333) scale(-1, 1) translate(-3.333333, -3.333333) ">
                                        <polygon id="a" points="2.29999964 3.16666617 3.88999939 3.68666609 3.33333281 0"></polygon>
                                    </g>
                                </g>
                            </g>
                            <g id="b-link" transform="translate(6.666666, 6.666666) rotate(216.000000) translate(-6.666666, -6.666666) translate(3.333333, 3.333333)">
                                <g id="b">
                                    <polygon id="a" points="2.29999964 3.16666617 3.88999939 3.68666609 3.33333281 0"></polygon>
                                    <g id="a-link" transform="translate(3.333333, 3.333333) scale(-1, 1) translate(-3.333333, -3.333333) ">
                                        <polygon id="a" points="2.29999964 3.16666617 3.88999939 3.68666609 3.33333281 0"></polygon>
                                    </g>
                                </g>
                            </g>
                        </g>
                    </g>
                </g>
            </g>
        </g>
    </g>
</svg>