<?xml version="1.0" encoding="UTF-8" standalone="no"?>
<svg width="122px" height="60px" viewBox="0 0 122 60" version="1.1" xmlns="http://www.w3.org/2000/svg" xmlns:xlink="http://www.w3.org/1999/xlink">
    <!-- Generator: Sketch 3.8.2 (29753) - http://www.bohemiancoding.com/sketch -->
    <title>aq</title>
    <desc>Created with Sketch.</desc>
    <defs></defs>
    <g id="Page-1" stroke="none" stroke-width="1" fill="none" fill-rule="evenodd">
        <g id="aq">
            <g id="Group">
                <g>
                    <polygon id="Shape" fill="#3A7DCE" points="7.10542736e-15 0 122 0 122 60 1.21846729e-14 60"></polygon>
                    <path d="M44.8476316,28.1660156 C44.4919006,27.4277344 44.4919006,27.4277344 44.4919006,26.6899219 C44.3140351,26.6899219 44.2807719,26.7246094 44.1777485,26.6955469 C44.0749561,26.6668359 44.0361491,27.3761719 43.7027091,27.2376563 C43.6472705,27.1685156 43.941788,26.6554688 43.6220921,26.4421875 C43.5192997,26.3726953 43.6470395,25.951875 43.6024576,25.7671875 C43.6024576,25.7671875 43.1968319,25.9863281 42.8909956,25.2138281 C42.7408494,25.0119141 42.5352646,25.3982813 42.5352646,25.3982813 C42.5352646,25.3982813 42.6241974,25.6346484 42.4631944,25.6924219 C42.2353187,25.5193359 42.0684254,25.6100391 41.7794518,25.3722656 C41.4904781,25.134375 41.8406652,24.8620313 41.2903216,24.6602344 C41.6462836,23.7376172 41.6462836,23.9219531 42.5353801,23.5531641 C42.0017836,23.1840234 42.0017836,23.1840234 41.6462836,22.6304297 C41.1126871,22.4459766 40.9348216,22.2615234 40.4012251,21.8925 C39.6897632,20.9697656 39.3340322,19.1247656 39.3340322,17.833125 C39.7844708,17.4007031 40.4012251,19.3092188 41.2905526,19.8628125 L42.5356111,20.4162891 C43.2470731,20.7851953 43.4249386,21.1541016 43.9585351,21.5232422 L45.5593246,22.0768359 C46.2707865,22.6303125 46.6265175,23.3684766 47.160114,23.5529297 C47.7381769,23.5529297 47.8496316,23.2074609 48.0348889,23.1861328 C49.0804839,23.1303516 49.6141959,22.9906641 49.8225526,22.6648828 C50.0336813,22.4054297 50.539443,22.8148828 51.962367,22.2612891 L51.7847325,21.5230078 C51.7847325,21.5230078 52.1626389,21.2002734 52.6740599,21.3386719 C52.6602003,21.0014063 52.6267061,20.1019922 53.1302734,19.6961719 C52.8244371,19.3633594 53.0297909,19.1246484 53.0297909,19.1246484 C53.0297909,19.1246484 53.3132208,18.8419922 53.3464839,18.6922266 C53.1965687,17.8789453 53.4766491,17.8665234 53.539364,17.6272266 C53.6021944,17.3881641 53.2975132,17.4699609 53.383443,17.1401953 C53.4691418,16.8104297 53.9843743,16.7321484 54.053326,16.4605078 C54.1226243,16.1886328 53.9066447,16.0524609 53.9190029,15.9876563 C54.0302266,15.7280859 53.9358655,15.1169531 53.9190029,14.8804688 C54.8750877,14.6151563 55.1864678,13.8079688 55.5197924,14.1424219 C55.6976579,13.0352344 55.8755234,12.6663281 56.9427164,12.6663281 C57.0928626,12.3261328 56.5534912,12.0377344 56.7648509,11.9282812 C57.1205819,11.8821094 57.392924,11.9051953 57.8100994,12.4645313 C57.9417661,12.6417188 57.9655585,12.2049609 58.0988421,12.1589062 C58.2322412,12.1127344 58.5515906,12.1120312 58.5989444,11.8935937 C58.6491857,11.6685937 58.7213713,11.3746875 58.8992368,11.0056641 C59.049383,10.7056641 59.1660351,11.1209766 59.2994342,11.7091406 C60.0498187,11.7379687 61.7450848,11.9109375 62.4564313,12.1127344 C62.9900278,12.256875 63.3457588,11.9685938 63.8569488,11.9109375 C64.2348553,12.3030469 64.5905863,12.0089063 64.7907427,12.8449219 C65.0732485,13.2960938 65.5356988,12.8854688 65.6357193,13.0180078 C66.2305292,14.7188672 68.2759825,13.5714844 68.4314415,13.6004297 C68.6924649,13.6004297 69.0115833,14.3609766 69.2171681,14.3419922 C69.5514167,14.2836328 69.4568246,14.0471484 69.7484547,14.1423047 C69.6707251,14.7823828 70.3213202,15.5204297 70.3213202,15.9990234 C70.3213202,15.9990234 70.4795512,16.0798828 70.6262325,15.9377344 C70.7729137,15.7959375 70.9075833,15.4311328 71.038095,15.4396875 C71.3494751,15.4858594 71.475598,15.5273438 71.8343319,15.5923828 C72.7987325,15.9342188 73.2899415,16.0113281 73.6644985,16.1865234 C73.8388991,16.5173438 74.0075249,16.6866797 74.3609459,16.6248047 C74.6526915,16.8282422 74.4398304,17.0947266 74.612152,17.1119531 C74.967883,16.9273828 75.0845351,16.7255859 75.4402661,16.9101563 C75.7959971,17.0946094 76.1517281,17.46375 76.3295936,17.8327734 C76.3295936,18.0172266 76.1517281,18.7552734 76.3295936,19.8624609 C76.4185263,20.2313672 76.4616067,20.5239844 76.8435556,21.1569141 C76.7421491,21.8070703 77.3244854,22.9011328 77.3244854,23.1779297 C77.3244854,23.5468359 77.0408246,23.7372656 76.8629591,24.1060547 C77.5744211,24.6597656 76.8629591,25.5822656 76.5072281,26.1357422 C79.1752105,26.6894531 77.930152,27.7965234 80.064538,27.2429297 C79.5309415,28.5345703 79.7198947,28.4308594 80.2534912,29.7226172 C79.1862982,30.4606641 80.2313158,30.6854297 79.5200848,31.6079297 C79.4755029,31.6657031 79.9422266,32.4094922 80.5981345,32.4094922 C80.420269,33.8855859 79.8866725,33.3321094 80.064538,35.54625 C78.663905,35.5176563 79.2306491,37.2012891 78.285883,37.0224609 C78.3413216,38.0777344 78.8250234,38.1699609 78.641614,39.2366016 C77.930152,39.4212891 77.930152,39.4212891 77.5744211,39.9748828 L77.0408246,39.7903125 C76.8629591,40.7129297 76.5072281,40.8973828 77.0408246,41.82 C77.0408246,41.82 76.3516535,41.8430859 76.1514971,41.82 C76.1348655,42.1372266 76.4573333,42.2237109 76.5072281,42.5580469 C76.4795088,42.6907031 75.4957047,43.2728906 74.7285731,43.2963281 C74.5287632,43.7517188 75.2621696,44.2361719 75.2178187,44.4666797 C74.3839298,44.6339063 74.0172266,45.6948047 74.0172266,45.6948047 C74.0172266,45.6948047 74.4451433,45.8736328 74.3729576,46.0639453 C74.1451974,45.8908594 74.0172266,45.879375 73.6614956,45.879375 C73.4836301,45.9255469 73.0501696,45.868125 72.6344956,46.5958594 C72.1782822,46.7517188 71.9629956,46.6954688 71.6169664,47.1700781 C71.4637018,46.7177344 71.2433333,47.1744141 70.9738787,47.3498438 C70.7047705,47.525625 70.3421096,47.9622656 70.2932544,47.9436328 C70.3044576,47.8168359 70.4600322,47.3553516 70.4600322,47.3553516 L69.5707047,47.5400391 L69.4612135,47.5514063 C69.3912222,47.5584375 69.4099327,47.0128125 69.2414225,47.0326172 C69.0727968,47.0525391 68.590712,47.7189844 68.4263596,47.7398438 C68.2623538,47.7609375 68.2103801,47.5279688 68.0688962,47.5482422 C67.9275278,47.5685156 67.6519518,48.2513672 67.5517003,48.2692969 C67.4515643,48.2874609 67.0543699,47.8544531 66.714,47.9148047 C64.9630643,48.555 64.6850629,46.6521094 64.4128363,47.7247266 C64.0460175,47.5229297 64.1095409,47.64 63.7368319,47.7413672 C63.4989079,47.805 63.4773099,47.4152344 63.2658348,47.4212109 C62.8426535,47.4336328 62.8650599,47.8489453 62.6340658,47.7247266 C62.4453436,46.8598828 61.3058494,47.0153906 61.1946257,46.6466016 C61.104307,46.2616406 61.6883757,46.2633984 61.8772135,46.0026563 C62.0215848,45.6264844 61.7263743,45.4835156 62.3126374,45.1205859 C63.0764196,44.5845703 62.6371842,44.3823047 62.7711608,43.9796484 C63.0107018,43.3979297 63.0120877,43.2560156 62.8120468,42.7428516 C62.8120468,42.7428516 62.2172368,41.0823047 62.1005848,41.0823047 C61.7448538,40.9784766 61.7448538,41.6933203 61.222345,41.8894922 C60.155152,42.2583984 58.2711637,40.9552734 57.943152,40.9552734 C57.6432061,40.9611328 56.2531988,41.2967578 56.3056345,40.5776953 C56.0977398,41.2768359 55.3336111,40.7419922 55.2864883,40.7419922 C54.5750263,40.7419922 54.8473684,41.3126953 54.3694415,41.2897266 C54.152307,41.2147266 51.9627135,41.0823047 51.9627135,41.0823047 L51.9627135,41.4512109 L50.5397895,40.7129297 L49.294731,40.3441406 C48.227538,39.975 48.7611345,39.0523828 46.9824795,39.6058594 L46.9824795,38.4987891 L46.093152,38.4987891 C46.448883,36.2845313 46.093152,37.3917188 45.9152865,35.3620313 L45.2038246,35.5466016 C44.4923626,34.5491016 46.1931725,34.7394141 44.6702281,34.070625 C44.6702281,34.070625 44.6981784,32.9690625 44.3144971,33.3323438 C44.2367675,33.3786328 44.4923626,33.8860547 44.4923626,33.8860547 C43.0694386,33.7016016 42.7137076,33.3324609 42.7137076,31.8563672 C42.7137076,31.8563672 43.8865804,32.0294531 43.7809006,31.8563672 C43.6142383,31.5798047 43.3974503,29.780625 43.4363728,29.6594531 C43.4196257,29.4172266 44.5257412,28.8060938 44.3118406,28.2235547 C44.4478962,28.1716406 44.8479781,28.1661328 44.8479781,28.1661328" id="Shape" fill="#FFFFFF"></path>
                    <path d="M93.2691305,35.5382813 C92.6005778,35.9710742 92.7199138,36.4034765 93.410164,36.7120563 C94.6496308,36.1769242 93.6027288,35.9296698 93.2691305,35.5382813 L93.2691305,35.5382813 Z" id="Shape" stroke="#FFFFFF" stroke-width="2.249"></path>
                    <path d="M47.121769,20.9695312 C47.121769,20.9695312 46.8234401,20.9325 46.8904284,21.1980469 C46.9879079,20.9941406 47.1156477,20.9819531 47.121769,20.9695312 L47.121769,20.9695312 Z M47.1887573,20.3519531 C47.024405,20.3581641 46.8234401,20.3273438 46.8904284,20.5927734 C46.9879079,20.3888672 47.182636,20.3642578 47.1887573,20.3519531 L47.1887573,20.3519531 Z M48.3113889,23.8910156 C48.3113889,23.8910156 48.5670994,23.8725 48.5001111,24.1380469 C48.4026316,23.9341406 48.3176257,23.9034375 48.3113889,23.8910156 L48.3113889,23.8910156 Z" id="Shape" stroke="#FFFFFF" stroke-width="2.108"></path>
                </g>
            </g>
        </g>
    </g>
</svg>