<?xml version="1.0" encoding="UTF-8" standalone="no"?>
<svg width="122px" height="60px" viewBox="0 0 122 60" version="1.1" xmlns="http://www.w3.org/2000/svg" xmlns:xlink="http://www.w3.org/1999/xlink">
    <!-- Generator: Sketch 3.8.2 (29753) - http://www.bohemiancoding.com/sketch -->
    <title>na</title>
    <desc>Created with Sketch.</desc>
    <defs></defs>
    <g id="Page-1" stroke="none" stroke-width="1" fill="none" fill-rule="evenodd">
        <g id="na">
            <g>
                <polygon id="Shape" fill="#FFFFFF" points="0 0 122 0 122 60 0 60"></polygon>
                <polygon id="Shape" fill="#3662A2" points="0 0 0 55 17.803625 43.220875 85.066875 0 17.70275 0.02775"></polygon>
                <polygon id="Shape" fill="#38A100" points="122 59.9457512 122 3 104.1385 15.03275 36.289375 60 104.29675 60"></polygon>
                <polygon id="Shape" fill="#C70000" points="0 58 0 60 17.80375 60 32.481375 59.98125 104.171875 11.918 122.000001 0 104.091125 0 89.588 0 17.746125 46.4775"></polygon>
                <g id="Group" transform="translate(35.625000, 5.375000)">
                    <polygon id="Shape" fill="#FFE700" points="12.8195 16.115875 10.102875 14.475625 8.531 17.2385 7.001625 14.45775 4.260375 16.068125 4.327375 12.892375 1.15075 12.917125 2.796625 10.19725 0.036375 8.630875 2.820125 7.096125 1.2155 4.35775 4.391125 4.418625 4.372375 1.242375 7.089125 2.883 8.661 0.11975 10.190375 2.9005 12.931625 1.2905 12.864625 4.466375 16.040875 4.44125 14.39525 7.16125 17.15525 8.72775 14.3715 10.2625 15.9765 13.00075 12.800875 12.93975"></polygon>
                    <path d="M14.423,8.679625 C14.423,11.872625 11.81425,14.461125 8.596375,14.461125 C5.3785,14.461125 2.769625,11.872625 2.769625,8.679625 C2.769625,5.486625 5.378375,2.898 8.596375,2.898 C11.814375,2.898 14.423,5.4865 14.423,8.679625 L14.423,8.679625 Z" id="Shape" fill="#3662A2"></path>
                    <path d="M13.158375,8.679625 C13.158375,11.199125 11.115875,13.241625 8.596375,13.241625 C6.076875,13.241625 4.03425,11.199125 4.03425,8.679625 C4.03425,6.160125 6.07675,4.1175 8.596375,4.1175 C11.116,4.1175 13.158375,6.16 13.158375,8.679625 L13.158375,8.679625 Z" id="Shape" fill="#FFE700"></path>
                </g>
            </g>
        </g>
    </g>
</svg>