<?xml version="1.0" encoding="UTF-8" standalone="no"?>
<svg width="122px" height="60px" viewBox="0 0 122 60" version="1.1" xmlns="http://www.w3.org/2000/svg" xmlns:xlink="http://www.w3.org/1999/xlink">
    <!-- Generator: Sketch 3.8.2 (29753) - http://www.bohemiancoding.com/sketch -->
    <title>ba</title>
    <desc>Created with Sketch.</desc>
    <defs></defs>
    <g id="Page-1" stroke="none" stroke-width="1" fill="none" fill-rule="evenodd">
        <g id="ba">
            <g id="Clipped">
                <g>
                    <g id="Group">
                        <polygon id="Shape" fill="#000099" points="0 0 101.409788 0 101.409788 60 0 60"></polygon>
                        <polygon id="Shape" fill="#FFCC00" points="101.409788 60 122.000004 60 122.000004 0 21.0784874 0"></polygon>
                        <path d="M28.5359264,8.79925781 L25.6574507,6.721875 L22.7789751,8.79925781 L23.8785936,5.43832031 L21,3.36105469 L24.5578322,3.36105469 L25.6574507,0 L26.7570693,3.3609375 L30.3147835,3.3609375 L27.4363079,5.43832031 M34.6183978,13.1223047 L31.7399221,15.1995703 L32.8395406,11.8386328 L29.960947,9.76136719 L33.5187793,9.76136719 L34.6183978,6.40042969 L35.7180163,9.76136719 L39.2757305,9.76136719 L36.3972549,11.8385156 L37.4968734,15.1994531 M40.7001612,21.5991797 L41.7995438,18.2382422 L38.9210682,16.1609766 L42.4790184,16.1609766 L43.5786369,12.8000391 L44.6782554,16.1609766 L48.2359696,16.1609766 L45.357494,18.238125 L46.4571125,21.5990625 L43.5786369,19.5219141 M50.7602548,24.6389063 L47.8817792,22.5617578 L51.4394935,22.5617578 L52.539112,19.2008203 L53.6387305,22.5617578 L57.1964447,22.5617578 L54.3179691,24.6389063 L55.4175876,27.9998438 L52.53923,25.9226953 L49.6607543,27.9999609 M56.8426083,28.9613672 L60.4004405,28.9613672 L61.500059,25.6004297 L62.5996775,28.9613672 L66.1573917,28.9613672 L63.2789161,31.0385156 L64.3785346,34.3994531 L61.500059,32.3223047 L58.6215834,34.3995703 L59.7212019,31.0386328 M69.3613875,35.3609766 L70.461006,32.0000391 L71.5606245,35.3609766 L75.1183388,35.3609766 L72.2398631,37.438125 L73.3394817,40.7990625 L70.461006,38.7219141 L67.5825304,40.7991797 L68.6821489,37.4382422 L65.8035553,35.3609766 M79.4207732,38.4008203 L80.5203917,41.7617578 L84.078106,41.7617578 L81.1996303,43.8389062 L82.2992488,47.1998437 L79.4207732,45.1226953 L76.5422976,47.1999609 L77.6419161,43.8390234 L74.7633225,41.7617578 L78.3211547,41.7617578 M88.3817202,44.8004297 L89.4813387,48.1613672 L93.039053,48.1613672 L90.1605773,50.2385156 L91.2601959,53.5994531 L88.3817202,51.5223047 L85.5032446,53.5995703 L86.6028631,50.2386328 L83.7242695,48.1613672 L87.2821017,48.1613672 M98.4421678,54.5621484 L102,54.5621484 L99.1215244,56.6392969 L100.221143,60.0002344 L97.3426672,57.9230859 L94.4641916,60.0003516 L95.5638101,56.6394141 L92.6852165,54.5621484 L96.2430487,54.5621484 L97.3426672,51.2012109" id="Shape" fill="#FFFFFF"></path>
                    </g>
                </g>
            </g>
        </g>
    </g>
</svg>