<?xml version="1.0" encoding="UTF-8" standalone="no"?>
<svg width="122px" height="60px" viewBox="0 0 122 60" version="1.1" xmlns="http://www.w3.org/2000/svg" xmlns:xlink="http://www.w3.org/1999/xlink">
    <!-- Generator: Sketch 3.8.2 (29753) - http://www.bohemiancoding.com/sketch -->
    <title>za</title>
    <desc>Created with Sketch.</desc>
    <defs></defs>
    <g id="Page-1" stroke="none" stroke-width="1" fill="none" fill-rule="evenodd">
        <g id="za">
            <g id="Shape">
                <polygon fill="#000000" points="0 47.9826652 0 12.3802603 26.6442248 30.1723688 1.67663222e-15 47.9839559"></polygon>
                <polygon fill="#0000CC" points="18.6329236 60 48.5459717 40.1958969 122 40.1958969 122 60 18.6329236 60.2194848"></polygon>
                <path d="M16.7098088,0.133818712 L122,0 L122,20.1622176 L48.543612,20.1622176 C48.543612,20.1622176 17.1083537,-0.0642533934 16.7098088,0.133818712 L16.7098088,0.133818712 Z" fill="#FF0000"></path>
                <polygon fill="#FFCC00" points="0 7.64518701 0 12.3774441 26.6442248 30.1694352 0 47.9810224 0 52.7130448 33.5589434 30.1694352 1.67663222e-15 7.64518701"></polygon>
                <polygon fill="#009933" points="0 0 11.0000004 3.46722118e-09 46.74514 24.0573619 122 24.0573619 122 36.2914826 46.74514 36.2914826 12 60 0 60 0.000117982506 52.7130448 33.5589434 30.1694352 1.49377732e-12 7.64518701"></polygon>
                <path d="M11.6478874,0.133818712 L18.6317438,0.133818712 L48.5447919,20.1608095 L91.0623828,20.1608095 L91.0623828,24.0573619 L47.1990834,24.0573619 L11.6493032,0.133818712 L11.6478874,0.133818712 Z M11.6478874,60.2194848 L18.6317438,60.2194848 L48.5447919,40.1958969 L91.0623828,40.1958969 L91.0623828,36.2994618 L47.1990834,36.2994618 L11.6493032,60.2193674 L11.6478874,60.2194848 Z" fill="#FFFFFF"></path>
            </g>
        </g>
    </g>
</svg>