<?xml version="1.0" encoding="UTF-8" standalone="no"?>
<svg width="122px" height="60px" viewBox="0 0 122 60" version="1.1" xmlns="http://www.w3.org/2000/svg" xmlns:xlink="http://www.w3.org/1999/xlink">
    <!-- Generator: Sketch 3.8.2 (29753) - http://www.bohemiancoding.com/sketch -->
    <title>sz</title>
    <desc>Created with Sketch.</desc>
    <defs></defs>
    <g id="Page-1" stroke="none" stroke-width="1" fill="none" fill-rule="evenodd">
        <g id="sz">
            <g transform="translate(-1.000000, 0.000000)" id="Clipped">
                <g>
                    <g id="Group" transform="translate(0.418199, 0.000000)">
                        <rect id="Rectangle-path" stroke="#000000" stroke-width="1.381875" fill="#FFD900" x="25.0049775" y="29.4532085" width="73.1244959" height="1.28989322" rx="0.64494661"></rect>
                        <g id="Group-2" transform="translate(0.581801, 0.000000)">
                            <rect id="Rectangle-266" fill="#B10C0C" x="0" y="0" width="122" height="60"></rect>
                            <rect id="Rectangle-262" fill="#3E5EB9" x="0" y="0" width="122" height="10.75"></rect>
                            <rect id="Rectangle-262-Copy" fill="#3E5EB9" x="0" y="49.25" width="122" height="10.75"></rect>
                            <rect id="Rectangle-264" fill="#FFD900" x="0" y="10.25" width="122" height="5.25"></rect>
                            <rect id="Rectangle-264-Copy" fill="#FFD900" x="0" y="44" width="122" height="5.25"></rect>
                        </g>
                        <g transform="translate(34.395284, 23.201100)" stroke="#000000">
                            <polygon id="Shape" stroke-width="1.2952276" fill="#FFFFFF" points="55.7996704 0.0175953263 52.1435027 1.30750263 55.7996704 2.59740994 59.4557969 1.30750263 55.7996704 0.0175953263"></polygon>
                            <rect id="Rectangle-path" stroke-width="1.28980247" fill="#FFD900" x="0.0983290468" y="0.877339374" width="53.7665656" height="0.859986742" rx="0.429993371"></rect>
                            <path d="M53.0045552,1.73696207 C52.7549078,1.73696207 52.5045552,1.52193505 52.5045552,1.3069687 C52.5045552,1.09200236 52.7549078,0.876975333 53.0045552,0.876975333" id="Shape" stroke-width="1.29029917" transform="translate(52.754555, 1.306969) scale(-1, 1) translate(-52.754555, -1.306969) "></path>
                            <path d="M52.5796766,1.73696207 C52.3300292,1.73696207 52.0796766,1.52193505 52.0796766,1.3069687 C52.0796766,1.09200236 52.3300292,0.876975333 52.5796766,0.876975333" id="Shape" stroke-width="1.29029917" transform="translate(52.329677, 1.306969) scale(-1, 1) translate(-52.329677, -1.306969) "></path>
                            <path d="M52.1426586,1.73708342 C51.8930112,1.73708342 51.6426586,1.5220564 51.6426586,1.30709005 C51.6426586,1.0921237 51.8930112,0.87709668 52.1426586,0.87709668" id="Shape" stroke-width="1.29029917" transform="translate(51.892659, 1.307090) scale(-1, 1) translate(-51.892659, -1.307090) "></path>
                        </g>
                        <g transform="translate(30.953772, 25.781004)" stroke="#000000">
                            <polygon id="Shape" stroke-width="1.2952276" fill="#FFFFFF" points="55.7996704 0.0175953263 52.1435027 1.30750263 55.7996704 2.59740994 59.4557969 1.30750263 55.7996704 0.0175953263"></polygon>
                            <rect id="Rectangle-path" stroke-width="1.28980247" fill="#FFD900" x="0.0983290468" y="0.877339374" width="53.7665656" height="0.859986742" rx="0.429993371"></rect>
                            <path d="M53.0045552,1.73696207 C52.7549078,1.73696207 52.5045552,1.52193505 52.5045552,1.3069687 C52.5045552,1.09200236 52.7549078,0.876975333 53.0045552,0.876975333" id="Shape" stroke-width="1.29029917" transform="translate(52.754555, 1.306969) scale(-1, 1) translate(-52.754555, -1.306969) "></path>
                            <path d="M52.5796766,1.73696207 C52.3300292,1.73696207 52.0796766,1.52193505 52.0796766,1.3069687 C52.0796766,1.09200236 52.3300292,0.876975333 52.5796766,0.876975333" id="Shape" stroke-width="1.29029917" transform="translate(52.329677, 1.306969) scale(-1, 1) translate(-52.329677, -1.306969) "></path>
                            <path d="M52.1426586,1.73708342 C51.8930112,1.73708342 51.6426586,1.5220564 51.6426586,1.30709005 C51.6426586,1.0921237 51.8930112,0.87709668 52.1426586,0.87709668" id="Shape" stroke-width="1.29029917" transform="translate(51.892659, 1.307090) scale(-1, 1) translate(-51.892659, -1.307090) "></path>
                        </g>
                        <g transform="translate(89.393842, 29.510819)" id="Shape">
                            <path d="M3.5926295,0.0755040919 C2.94104716,1.20361942 4.09263211,-0.299688098 6.90247131,1.5887853 C7.42317578,1.93967795 7.87814891,2.86632468 7.87814891,3.50899318 C7.74598448,3.42058999 7.64785531,3.22383624 7.50224052,3.09617297 C7.2983798,3.30045233 7.69686141,4.23652874 7.75510733,4.67899802 C7.3158068,4.43328249 7.3581462,4.31695297 7.21218052,4.01493142 C7.24130348,4.37996857 7.13674154,5.38549815 7.31147929,5.77265877 C6.96527865,5.67382854 6.98820275,5.39519983 6.80738309,5.33925648 C6.93042467,5.77755495 6.70024803,6.2544788 6.76130098,6.74717923 C6.55896075,6.54698001 6.34340407,6.3902117 6.24948545,6.30933411 C6.23369589,6.54398791 5.86036062,7.16054346 5.85182256,7.38241279 C5.68012576,7.27877706 5.63357581,7.11711256 5.60492069,7.00830864 C5.39158624,7.2762383 4.63321972,8.26608198 4.5845645,8.56801286 C4.00023397,8.05210093 2.50350102,6.79586898 2.3086462,6.12899161 C2.13636461,6.50762926 1.88712354,6.63529253 1.39437244,6.91165449 C1.19963458,5.85480573 0.47144365,4.66702959 0.860919363,3.76114627 C0.585011493,3.92471483 0.357758847,4.08828339 0.0819679364,4.28957065 C0.343255847,2.75906215 1.67589437,0.964341462 3.5926295,0.0755040919 L3.5926295,0.0755040919 Z" stroke="#000000" stroke-width="1.1862378" fill="#3D5DA7"></path>
                            <path d="M1.16183393,5.66278526 C1.4323561,5.12230225 1.68158936,4.95076326 1.8563702,4.60274722 C2.16523595,3.99101498 2.20922521,3.50426282 2.47833597,3.57562963 C2.74744672,3.64699643 2.74709386,3.89742689 2.39859073,4.49904785 C2.04996999,5.10055124 1.88436337,5.22905852 1.16183393,5.66278526 L1.16183393,5.66278526 Z M2.99197524,6.95032702 C2.95727783,6.53882157 3.07666044,6.36681229 3.05478343,6.10180279 C3.01761604,5.63539075 2.8268391,5.31523951 3.07489617,5.29254793 C3.32307086,5.26973877 3.43904254,5.42881502 3.43974825,5.89875424 C3.44045396,6.36881104 3.36776583,6.49226267 2.99197524,6.95032702 L2.99197524,6.95032702 Z M4.3804597,7.75734799 C4.2720156,7.18276881 4.35305463,6.92787058 4.28377743,6.55775082 C4.1629834,5.90639648 3.92410056,5.47760781 4.1540444,5.41811588 C4.38398825,5.35850637 4.52266027,5.56907959 4.60969784,6.22960462 C4.69673541,6.89012965 4.65086426,7.07166234 4.38034208,7.75734799 L4.3804597,7.75734799 Z M5.82387193,3.73106111 C5.48489588,3.47381142 5.28694422,3.45664576 5.06829173,3.29133815 C4.6832093,3.00116802 4.48831572,2.69077534 4.36446361,2.84491352 C4.2406115,2.99905171 4.3284724,3.16765137 4.73202091,3.43512991 C5.13556942,3.70272602 5.27224193,3.72388916 5.82387193,3.73106111 L5.82387193,3.73106111 Z M5.58498909,5.63903552 C5.40620921,5.26809275 5.21813749,5.17403436 5.10263629,4.93524363 C4.89821562,4.51586079 4.89798038,4.15303056 4.67626982,4.24603079 C4.45467687,4.33903102 4.43679889,4.52902896 4.67391745,4.93500848 C4.9109184,5.34087043 5.03500574,5.41435354 5.58498909,5.63903552 L5.58498909,5.63903552 Z" fill="#A70000"></path>
                        </g>
                        <g transform="translate(25.644704, 29.745965)" id="Shape">
                            <path d="M2.51739937,0.927392016 C2.48101785,0.598920255 2.55123953,0.559681329 2.34913486,0.311785098 C2.64339712,0.434807767 2.65463259,0.7620456 3.01242874,0.52982026 C3.14391047,0.461830801 3.20115785,0.45960973 3.0414537,0.0947370782 C3.41463175,0.112012077 4.63675641,0.530930796 4.83244081,0.540678831 C5.34632972,0.564246865 6.28435755,0.00108190661 6.93547967,0.693685962 C7.5603857,1.32508717 7.35172701,1.98042658 7.35172701,2.85491169 C7.1006678,2.73460367 7.22158284,2.6753751 6.95514174,2.36269762 C7.15497257,3.12711632 6.9444413,4.50529104 6.9444413,5.31598205 C6.84185077,5.12052778 6.85696515,5.20542206 6.75664847,5.00293439 C6.49020737,5.7429213 6.17079907,5.89518808 6.17079907,6.76967319 C6.07462881,6.42664107 6.16745518,6.49931946 6.06045072,6.31891912 C5.80149993,6.88060336 4.0641488,7.36072493 4.73359544,7.9270981 C4.12928777,7.57296063 3.86431798,7.60997848 3.59025281,7.29162494 C3.4722804,7.36775832 3.37838399,7.51188117 3.26870442,7.70943312 C2.20628391,7.22079744 2.58614973,6.16702252 1.75378881,5.46294293 C1.60973406,5.75822201 1.67540804,5.7152813 1.51971656,6.19577305 C1.35118453,5.52846453 1.30517262,5.10448671 1.11564097,4.61387674 C0.952057907,4.88583458 0.96677102,4.78169102 0.66983365,5.1925892 C0.547046035,4.37980051 0.347081454,4.18792463 0.426130998,3.65005521 C0.110601603,3.8726559 0.317120206,3.78245573 0.0017245671,4.05638785 C0.300534515,1.97351658 1.59127579,0.434560982 2.51739937,0.927392016 L2.51739937,0.927392016 Z" stroke="#000000" stroke-width="1.458744" fill="#3D5DA7"></path>
                            <path d="M1.21064554,4.326921 C1.48434341,3.65628469 1.73110668,3.44571148 1.90800465,3.01398348 C2.22028134,2.25516743 2.27121008,1.6486084 2.5337342,1.74113834 C2.79602309,1.83366828 2.79178883,2.1460597 2.44081572,2.89170757 C2.08972498,3.63735544 1.92529455,3.79537354 1.21064554,4.326921 L1.21064554,4.326921 Z M2.24733355,6.0046875 C2.35695384,5.40341925 2.53020565,5.18449836 2.60136475,4.79721294 C2.72780446,4.11646536 2.65735107,3.60949065 2.90117389,3.63617971 C3.1449967,3.66286878 3.20027732,3.91976575 3.03796401,4.59710372 C2.87565071,5.27432412 2.76367805,5.43481124 2.24733355,6.0046875 L2.24733355,6.0046875 Z M3.4869132,7.17112909 C3.51784682,6.5883198 3.65440171,6.3606985 3.6748673,5.98528796 C3.71191708,5.32499807 3.58465404,4.8522371 3.81730311,4.84953292 C4.04995218,4.84682874 4.13275549,5.08432617 4.06147877,5.74543907 C3.99020206,6.40643439 3.90410544,6.57138929 3.4869132,7.17112909 L3.4869132,7.17112909 Z M6.14908663,3.35953048 C5.64003447,2.85255577 5.33222728,2.75802709 5.0039545,2.43187963 C4.42562514,1.85929919 4.14604636,1.32199065 3.94021427,1.51245888 C3.73438218,1.70292712 3.85811667,1.98862947 4.46714442,2.53346269 C5.07605454,3.0782959 5.28788517,3.15765766 6.14908663,3.35953048 L6.14908663,3.35953048 Z M5.83939755,5.31900185 C5.50783146,4.80991082 5.26459674,4.67811151 5.05053136,4.35055317 C4.67297651,3.77503341 4.5433611,3.28063901 4.32929573,3.40291491 C4.11523035,3.52542596 4.16310102,3.78385138 4.57217759,4.3417352 C4.98125416,4.89950144 5.14591984,5.00214266 5.83939755,5.31888428 L5.83939755,5.31900185 Z" fill="#A70000"></path>
                        </g>
                        <g transform="translate(39.641286, 17.165656)" id="Shape">
                            <path d="M43.030909,12.9323186 C38.7294982,17.2316456 32.994014,25.8310276 21.5238549,25.8310276 C11.4869598,25.8310276 4.31821155,17.2316456 0.0168007208,12.9323186 C4.31821155,8.63226355 11.4869598,0.0328815192 21.5238549,0.0328815192 C32.994014,0.0328815192 38.7294982,8.63226355 43.030909,12.9323186 L43.030909,12.9323186 Z" stroke="#000000" stroke-width="1.29359359" fill="#FFFFFF"></path>
                            <path d="M20.0226399,4.52009342 C21.1670663,5.80669459 20.2114173,6.32530903 21.4226509,6.40984401 C22.6999861,6.50354968 21.9760452,7.76922286 23.0504887,7.81319516 C23.801717,7.84611559 22.9754482,10.8458727 23.6986834,11.8357197 C24.435327,12.8676578 25.0522352,12.1379998 25.0651732,12.8836477 C25.0779936,13.6546914 23.0603687,13.576858 23.0249655,15.9521851 C22.9658035,17.3209698 21.3223225,17.4086792 21.2438711,18.2894184 C21.1462478,19.1178377 24.4816686,19.5829564 24.4372089,20.3246068 C24.391573,21.0639057 20.8357354,20.9480963 20.6809497,21.7913298 C20.6015573,22.548735 25.5657568,23.1694028 25.9649535,25.359905 C25.2241932,25.6021054 23.1167078,25.8299618 21.5236851,25.8312551 C11.4876653,25.8392501 4.31812198,17.231967 0.0167018038,12.9325581 C4.31812198,8.63244372 11.486842,0.0331555818 21.5238027,0.0331555818 C21.5238027,0.0331555818 18.5445302,2.75426475 20.0226399,4.52009342 L20.0226399,4.52009342 Z" fill="#000000"></path>
                            <g transform="translate(7.998047, 8.230109)" fill="#FFFFFF">
                                <path d="M0.0479882812,0.116279682 L1.09079245,0.116279682 L1.09079245,3.55599494 L0.0479882812,3.55599494 L0.0479882812,0.116279682 Z M0.0479882812,5.84925601 L1.09079245,5.84925601 L1.09079245,9.28897127 L0.0479882812,9.28897127 L0.0479882812,5.84925601 Z M2.13336139,0.116279682 L3.17616556,0.116279682 L3.17616556,3.55599494 L2.13336139,3.55599494 L2.13336139,0.116279682 Z M2.13336139,5.84925601 L3.17616556,5.84925601 L3.17616556,9.28897127 L2.13336139,9.28897127 L2.13336139,5.84925601 Z M4.21873449,0.116279682 L5.26153866,0.116279682 L5.26153866,3.55599494 L4.21873449,3.55599494 L4.21873449,0.116279682 Z M4.21873449,5.84925601 L5.26153866,5.84925601 L5.26153866,9.28897127 L4.21873449,9.28897127 L4.21873449,5.84925601 Z M6.30457807,0.116279682 L7.34738224,0.116279682 L7.34738224,3.55599494 L6.30457807,3.55599494 L6.30457807,0.116279682 Z M6.30457807,5.84925601 L7.34738224,5.84925601 L7.34738224,9.28897127 L6.30457807,9.28897127 L6.30457807,5.84925601 Z M8.38995117,0.116279682 L9.43275534,0.116279682 L9.43275534,3.55599494 L8.38995117,3.55599494 L8.38995117,0.116279682 Z M8.38995117,5.84925601 L9.43275534,5.84925601 L9.43275534,9.28897127 L8.38995117,9.28897127 L8.38995117,5.84925601 Z M10.4753243,0.116279682 L11.5180108,0.116279682 L11.5180108,3.55599494 L10.4753243,3.55599494 L10.4753243,0.116279682 Z M10.4753243,5.84925601 L11.5180108,5.84925601 L11.5180108,9.28897127 L10.4753243,9.28897127 L10.4753243,5.84925601 Z"></path>
                            </g>
                            <path d="M23.8175955,8.34638865 L24.8603997,8.34638865 L24.8603997,11.7861039 L23.8175955,11.7861039 L23.8175955,8.34638865 Z M23.8175955,14.079365 L24.8603997,14.079365 L24.8603997,17.5190802 L23.8175955,17.5190802 L23.8175955,14.079365 Z M25.902851,8.34638865 L26.9456552,8.34638865 L26.9456552,11.7861039 L25.902851,11.7861039 L25.902851,8.34638865 Z M25.902851,14.079365 L26.9456552,14.079365 L26.9456552,17.5190802 L25.902851,17.5190802 L25.902851,14.079365 Z M27.9882241,8.34638865 L29.0310283,8.34638865 L29.0310283,11.7861039 L27.9882241,11.7861039 L27.9882241,8.34638865 Z M27.9882241,14.079365 L29.0310283,14.079365 L29.0310283,17.5190802 L27.9882241,17.5190802 L27.9882241,14.079365 Z M30.0741853,8.34638865 L31.1169895,8.34638865 L31.1169895,11.7861039 L30.0741853,11.7861039 L30.0741853,8.34638865 Z M30.0741853,14.079365 L31.1169895,14.079365 L31.1169895,17.5190802 L30.0741853,17.5190802 L30.0741853,14.079365 Z M32.1594408,8.34638865 L33.2022449,8.34638865 L33.2022449,11.7861039 L32.1594408,11.7861039 L32.1594408,8.34638865 Z M32.1594408,14.079365 L33.2022449,14.079365 L33.2022449,17.5190802 L32.1594408,17.5190802 L32.1594408,14.079365 Z M34.2448139,8.34638865 L35.287618,8.34638865 L35.287618,11.7861039 L34.2448139,11.7861039 L34.2448139,8.34638865 Z M34.2448139,14.079365 L35.287618,14.079365 L35.287618,17.5190802 L34.2448139,17.5190802 L34.2448139,14.079365 Z" fill="#000000"></path>
                        </g>
                        <g transform="translate(50.932646, 19.399543)" id="Shape">
                            <path d="M3.27694777,0.0903435709 C2.68106183,1.24231787 4.32025624,-0.292783711 6.88991409,1.63562978 C7.36610943,1.9939436 8.04863469,3.40960724 8.04863469,4.06568262 C7.50152347,3.94930007 6.53266063,3.40951465 6.53266063,3.40951465 C6.53266063,3.40951465 7.66966791,4.54787858 7.66966791,5.86012193 C7.26791821,5.60920967 7.06693639,5.64680022 6.93344767,5.33848367 C6.93344767,5.76327535 7.29070114,6.03400135 7.29070114,6.69016932 C7.00072684,6.45888562 6.75524879,6.30472735 6.5098777,6.16936435 C6.88884447,6.82543973 5.81922332,8.09833337 6.35456871,8.52321764 C5.41843628,8.38785464 4.46059053,7.78992424 4.08162376,7.13384886 C3.88074891,7.26921186 3.85892864,7.4816077 3.8511204,7.70816943 C3.88064195,7.73261254 2.4261711,6.62896895 2.55976679,6.20501056 C2.36466789,6.47860677 2.33717863,6.62896895 2.29268239,6.93728549 C1.75829966,6.41046233 1.2686271,5.88382434 1.09042821,5.20284291 C0.852972316,5.51115945 0.838104582,5.51115945 0.600648686,5.819476 C0.422556764,4.7403681 0.422556764,4.77879193 0.778740608,3.85384231 C0.526416978,4.02087025 0.318589589,4.18789819 0.0663729211,4.39344255 C0.305326286,2.8305647 1.52405263,0.997886737 3.27694777,0.0902509834 L3.27694777,0.0903435709 Z" stroke="#000000" stroke-width="1.1339985" fill="#3D5DA7"></path>
                            <path d="M1.80838192,5.71922029 C1.90365277,4.9253675 2.11136676,4.62637939 2.17335162,4.11517205 C2.28391286,3.21597386 2.15276841,2.55885845 2.47139648,2.57555381 C2.79014218,2.5921316 2.88188448,2.923805 2.72439353,3.82100445 C2.56678496,4.71808632 2.43411147,4.93606664 1.80838192,5.71922029 L1.80838192,5.71922029 Z M3.47209329,7.17277511 C3.40740321,6.50296181 3.53125531,6.21784732 3.49020651,5.78647204 C3.41940028,5.02730327 3.18486931,4.51315661 3.46268382,4.4657747 C3.74049833,4.41851036 3.88093463,4.67317344 3.91080969,5.43963173 C3.94091998,6.20609002 3.86670281,6.4103143 3.47209329,7.17265753 L3.47209329,7.17277511 Z M6.06934139,8.35849866 C5.78693977,7.77898142 5.54429314,7.60603156 5.3618671,7.23309005 C5.03971048,6.57750308 4.97255041,6.04219328 4.72414048,6.139191 C4.47573055,6.23618871 4.48937428,6.51307309 4.84811021,7.15490401 C5.20684613,7.79661737 5.36904182,7.92735853 6.06934139,8.35849866 L6.06934139,8.35849866 Z M6.96712216,3.16812166 C6.24776841,2.78953665 5.87832922,2.78483373 5.41467773,2.54157522 C4.59840648,2.115138 4.1232284,1.63332391 3.95456371,1.89845099 C3.78589901,2.16369565 4.01102051,2.42741185 4.8525797,2.81504998 C5.6941389,3.20280569 5.95278162,3.22114708 6.96712216,3.16812166 L6.96712216,3.16812166 Z M7.23117532,5.33569721 C6.70718563,4.9000893 6.39749655,4.83601203 6.05969669,4.5558356 C5.46454791,4.06414538 5.16838494,3.5813907 4.96960995,3.77703215 C4.77083496,3.97279117 4.90374368,4.23133416 5.52829705,4.69457173 C6.15285041,5.15780929 6.36656293,5.21542005 7.2310577,5.33569721 L7.23117532,5.33569721 Z" fill="#A70000"></path>
                        </g>
                    </g>
                </g>
            </g>
        </g>
    </g>
</svg>