<?xml version="1.0" encoding="UTF-8" standalone="no"?>
<svg width="122px" height="60px" viewBox="0 0 122 60" version="1.1" xmlns="http://www.w3.org/2000/svg" xmlns:xlink="http://www.w3.org/1999/xlink">
    <!-- Generator: Sketch 3.8.2 (29753) - http://www.bohemiancoding.com/sketch -->
    <title>pk</title>
    <desc>Created with Sketch.</desc>
    <defs></defs>
    <g id="Page-1" stroke="none" stroke-width="1" fill="none" fill-rule="evenodd">
        <g id="pk">
            <g transform="translate(-2.000000, -1.000000)">
                <g id="Clipped">
                    <g id="Group" transform="translate(0.560019, 0.000000)">
                        <g transform="translate(0.672829, 0.225072)"></g>
                    </g>
                </g>
                <rect id="Rectangle-217" fill="#FFFFFF" x="2" y="1" width="23" height="60"></rect>
                <rect id="Rectangle-217-Copy" fill="#0C590B" x="25.2328479" y="1.22507196" width="99" height="60"></rect>
                <polygon id="Shape" fill="#FFFFFF" points="61.1715482 26.5009509 57.508783 25.7301424 55.582614 28.9405903 55.1836059 25.2175242 51.5360019 24.3768773 54.952193 22.8467825 54.6241719 19.1168971 57.1345734 21.8942062 60.5792063 20.4294819 58.714622 23.6761423 61.1715482 26.5009509"></polygon>
                <path d="M62.5528567,35.9874447 C59.3014401,43.1546939 50.7674852,46.2854274 43.5826362,42.9559956 C36.3967293,39.6256232 33.2663667,31.0893542 36.5954694,23.9008243 C38.2933988,20.2344283 41.0719996,17.7148393 44.9942669,16.3397056 C44.5430763,16.7213475 44.0967043,17.1172158 43.6074346,17.6221917 C38.5407956,22.8531314 38.6724271,31.2126882 43.901255,36.2809069 C49.1300829,41.3494783 57.4865702,41.2179141 62.5527391,35.9869745 L62.5528567,35.9874447 Z" id="Shape" fill="#FFFFFF"></path>
            </g>
        </g>
    </g>
</svg>