<?xml version="1.0" encoding="UTF-8" standalone="no"?>
<svg width="122px" height="60px" viewBox="0 0 122 60" version="1.1" xmlns="http://www.w3.org/2000/svg" xmlns:xlink="http://www.w3.org/1999/xlink">
    <!-- Generator: Sketch 3.8.2 (29753) - http://www.bohemiancoding.com/sketch -->
    <title>dz</title>
    <desc>Created with Sketch.</desc>
    <defs></defs>
    <g id="Page-1" stroke="none" stroke-width="1" fill="none" fill-rule="evenodd">
        <g id="dz">
            <g id="Group">
                <g>
                    <polygon id="Shape" fill="#FFFFFF" points="61 0 122 0 122 60 61 60"></polygon>
                    <polygon id="Shape" fill="#006233" points="0 0 61 0 61 60 0 60"></polygon>
                    <path d="M74,22.5 C70.6054574,16.6204798 63.685086,13.7539681 57.1273333,15.5111126 C50.5695806,17.2682571 46.0096189,23.2109148 46.0096189,30 C46.0096189,36.7890852 50.5695806,42.7317429 57.1273333,44.4888874 C63.685086,46.2460319 70.6054574,43.3795202 74,37.5 C70.815375,41.4775954 65.4660426,43.0103156 60.6582083,41.3227639 C55.8503741,39.6352121 52.632503,35.0954 52.632503,30 C52.632503,24.9046 55.8503741,20.3647879 60.6582083,18.6772361 C65.4660426,16.9896844 70.815375,18.5224046 74,22.5 L74,22.5 Z" id="Shape" fill="#D21034"></path>
                    <polygon id="Shape" fill="#D21034" transform="translate(67.521265, 29.367389) rotate(19.000000) translate(-67.521265, -29.367389) " points="71.7314025 35.85664 67.5387456 32.8284137 63.3664942 35.8866765 64.918267 30.9156342 60.7537697 27.846449 65.9060309 27.8041249 67.5040562 22.8481008 69.1364988 27.7926564 74.28876 27.7992098 70.1453484 30.8977488 71.7315385 35.8575957"></polygon>
                </g>
            </g>
        </g>
    </g>
</svg>